<svg width="22" height="22" viewBox="0 0 22 22" fill="none" xmlns="http://www.w3.org/2000/svg">
<path d="M16.8255 0.333374H5.49218C2.73076 0.333374 0.492188 2.57195 0.492188 5.33337V16.6667C0.492188 19.4281 2.73076 21.6667 5.49218 21.6667H16.8255C19.5869 21.6667 21.8255 19.4281 21.8255 16.6667V5.33337C21.8255 2.57195 19.5869 0.333374 16.8255 0.333374Z" fill="white"/>
<path d="M16.8255 0.333374H5.49218C2.73076 0.333374 0.492188 2.57195 0.492188 5.33337V16.6667C0.492188 19.4281 2.73076 21.6667 5.49218 21.6667H16.8255C19.5869 21.6667 21.8255 19.4281 21.8255 16.6667V5.33337C21.8255 2.57195 19.5869 0.333374 16.8255 0.333374Z" fill="#0A66C2"/>
<path d="M15.8864 18.4738H18.3256C18.414 18.4738 18.4987 18.4387 18.5612 18.3762C18.6237 18.3137 18.6589 18.2289 18.6589 18.1406L18.6601 12.9871C18.6601 10.2935 18.0797 8.22306 14.932 8.22306C13.7354 8.17856 12.607 8.79539 11.9981 9.82539C11.9951 9.83039 11.9906 9.83429 11.9852 9.83647C11.9798 9.83866 11.9738 9.83902 11.9682 9.8375C11.9626 9.83598 11.9576 9.83266 11.954 9.82805C11.9505 9.82344 11.9485 9.8178 11.9485 9.81197V8.80506C11.9485 8.71665 11.9134 8.63187 11.8509 8.56936C11.7883 8.50684 11.7036 8.47172 11.6152 8.47172H9.3004C9.212 8.47172 9.12721 8.50684 9.0647 8.56936C9.00219 8.63187 8.96707 8.71665 8.96707 8.80506V18.1401C8.96707 18.2285 9.00219 18.3132 9.0647 18.3758C9.12721 18.4383 9.212 18.4734 9.3004 18.4734H11.7394C11.8278 18.4734 11.9126 18.4383 11.9751 18.3758C12.0376 18.3132 12.0727 18.2285 12.0727 18.1401V13.5256C12.0727 12.2209 12.3202 10.9573 13.9378 10.9573C15.5324 10.9573 15.5531 12.4503 15.5531 13.6101V18.1405C15.5531 18.2289 15.5882 18.3137 15.6507 18.3762C15.7132 18.4387 15.798 18.4738 15.8864 18.4738ZM3.66016 5.30239C3.66016 6.29106 4.47407 7.10456 5.46282 7.10456C6.45132 7.10448 7.26474 6.29048 7.26474 5.30198C7.26457 4.31348 6.45107 3.50006 5.46249 3.50006C4.47366 3.50006 3.66016 4.31373 3.66016 5.30239ZM4.24007 18.4738H6.68232C6.77073 18.4738 6.85551 18.4387 6.91802 18.3762C6.98054 18.3137 7.01565 18.2289 7.01565 18.1405V8.80506C7.01565 8.71665 6.98054 8.63187 6.91802 8.56936C6.85551 8.50684 6.77073 8.47172 6.68232 8.47172H4.24007C4.15167 8.47172 4.06688 8.50684 4.00437 8.56936C3.94186 8.63187 3.90674 8.71665 3.90674 8.80506V18.1405C3.90674 18.2289 3.94186 18.3137 4.00437 18.3762C4.06688 18.4387 4.15167 18.4738 4.24007 18.4738Z" fill="white"/>
</svg>
