<svg width="168" height="230" viewBox="0 0 168 230" fill="none" xmlns="http://www.w3.org/2000/svg">
<path d="M118.196 165.567L140.388 174.539C140.912 174.763 141.435 174.279 141.696 173.795C143.041 171.114 147.674 162.626 150.476 165.492C150.61 165.641 150.702 165.824 150.742 166.02C150.781 166.217 150.767 166.42 150.7 166.609C149.121 171.091 146.374 175.074 142.742 178.151C142.562 178.295 142.338 178.374 142.107 178.374C139.454 178.374 126.602 172.119 117.225 168.433L118.196 165.567Z" fill="url(#paint0_linear_44_15626)"/>
<path d="M82.9644 167.503C122.148 167.503 153.913 135.849 153.913 96.8025C153.913 57.7558 122.148 26.1022 82.9644 26.1022C43.7805 26.1022 12.0156 57.7558 12.0156 96.8025C12.0156 135.849 43.7805 167.503 82.9644 167.503Z" fill="white" stroke="black" stroke-width="0.06" stroke-miterlimit="10"/>
<path d="M15.9758 132.692C16.1228 130.393 15.6824 128.095 14.6958 126.011C13.7092 123.928 12.2086 122.127 10.3343 120.779C6.11246 117.689 1.29288 111.471 0.17205 99.1107C-0.40814 94.0053 0.485995 88.841 2.74941 84.2245C5.01282 79.608 8.55146 75.7312 12.9495 73.0495C14.0347 72.3576 14.8949 71.3665 15.4255 70.1967C15.9561 69.0269 16.1343 67.7286 15.9384 66.4598C14.967 60.3912 13.4352 50.7486 19.002 43.1164C23.859 36.4149 33.4982 35.1863 39.6627 36.266C41.3164 36.5345 43.0105 36.1639 44.3993 35.2298C45.788 34.2957 46.7665 32.8686 47.135 31.2399C47.6578 28.3375 48.9128 25.6153 50.7821 23.3293C52.6513 21.0433 55.0733 19.2686 57.8202 18.1721C70.5604 13.0715 79.7512 20.6293 83.973 24.1289C85.4208 25.1603 87.0943 25.8334 88.8549 26.0924C90.6156 26.3513 92.4128 26.1888 94.0979 25.6181C98.1963 23.5168 102.556 21.9645 107.062 21.0016C112.616 19.647 118.461 20.1171 123.725 22.3419C136.615 27.852 139.94 41.3293 140.725 49.4827C140.911 51.3307 141.653 53.0796 142.853 54.501C144.052 55.9223 145.654 56.9501 147.45 57.45C153.726 59.2371 162.394 63.109 162.394 71.0391C162.47 76.4506 160.964 81.7673 158.06 86.3407C156.999 88.0744 156.541 90.1081 156.757 92.1273C156.974 94.1464 157.852 96.0382 159.256 97.5098C166.354 104.956 172.108 124.613 160.414 141.516C149.99 156.408 139.454 155.887 129.927 156.892C127.282 157.161 124.792 158.262 122.817 160.036C120.842 161.81 119.485 164.164 118.943 166.758C118.464 169.632 117.382 172.372 115.767 174.8C112.629 178.895 104.559 179.938 97.0868 175.284C94.6821 173.768 91.8328 173.108 89.0035 173.412C86.1743 173.716 83.5319 174.967 81.5072 176.959C78.599 180.155 74.8427 182.465 70.6724 183.623C61.9673 185.559 54.8687 182.32 52.2908 170.369C51.7347 167.736 50.3461 165.35 48.3288 163.561C46.3115 161.771 43.7718 160.674 41.0825 160.429C30.2477 159.647 14.6682 154.621 15.9758 132.692Z" fill="url(#paint1_linear_44_15626)"/>
<path d="M91.2957 33.0642C92.9677 28.7808 93.342 24.1028 92.3725 19.6094C91.4029 15.1161 89.132 11.0048 85.841 7.78487C85.1559 7.13029 84.6569 6.30678 84.3944 5.39791C84.1319 4.48903 84.1154 3.52715 84.3465 2.60986C85.0564 0.487735 88.9046 -2.23007 94.2846 3.09386C104.036 12.5503 91.2957 33.0642 91.2957 33.0642Z" fill="white"/>
<path d="M86.4012 38.5743C86.7394 33.9853 85.7244 29.3979 83.4808 25.3763C81.2372 21.3547 77.863 18.0742 73.7731 15.9383C72.9123 15.4927 72.1916 14.8189 71.6906 13.9911C71.1896 13.1634 70.9277 12.2139 70.9337 11.2473C70.9337 9.01344 73.9226 5.32764 80.6102 8.82729C92.5284 15.1192 86.4012 38.5743 86.4012 38.5743Z" fill="white"/>
<path d="M84.2716 114.189C89.8015 114.189 94.2843 109.722 94.2843 104.211C94.2843 98.7007 89.8015 94.2335 84.2716 94.2335C78.7417 94.2335 74.2588 98.7007 74.2588 104.211C74.2588 109.722 78.7417 114.189 84.2716 114.189Z" fill="white"/>
<path d="M86.1397 110.95C89.503 110.95 92.2295 108.233 92.2295 104.881C92.2295 101.53 89.503 98.8129 86.1397 98.8129C82.7763 98.8129 80.0498 101.53 80.0498 104.881C80.0498 108.233 82.7763 110.95 86.1397 110.95Z" fill="url(#paint2_linear_44_15626)"/>
<path d="M89.0538 105.924C90.0236 105.924 90.8098 105.14 90.8098 104.174C90.8098 103.208 90.0236 102.424 89.0538 102.424C88.084 102.424 87.2979 103.208 87.2979 104.174C87.2979 105.14 88.084 105.924 89.0538 105.924Z" fill="white"/>
<path d="M115.281 113.333C120.811 113.333 125.294 108.866 125.294 103.355C125.294 97.8445 120.811 93.3773 115.281 93.3773C109.751 93.3773 105.269 97.8445 105.269 103.355C105.269 108.866 109.751 113.333 115.281 113.333Z" fill="white"/>
<path d="M116.963 110.094C120.326 110.094 123.053 107.377 123.053 104.025C123.053 100.674 120.326 97.9565 116.963 97.9565C113.6 97.9565 110.873 100.674 110.873 104.025C110.873 107.377 113.6 110.094 116.963 110.094Z" fill="url(#paint3_linear_44_15626)"/>
<path d="M119.765 105.068C120.735 105.068 121.521 104.284 121.521 103.318C121.521 102.351 120.735 101.568 119.765 101.568C118.795 101.568 118.009 102.351 118.009 103.318C118.009 104.284 118.795 105.068 119.765 105.068Z" fill="white"/>
<path d="M127.984 88.5001C126.779 87.7812 125.531 87.1347 124.248 86.5641C123.592 86.2838 122.918 86.0475 122.231 85.8568C119.085 84.8287 115.821 84.2032 112.517 83.9952C111.994 83.9952 111.396 83.9952 110.836 83.9952C110.275 83.9952 109.827 82.0593 110.238 81.6125C110.649 81.1657 113.301 81.6125 114.796 81.6125C115.678 81.5785 116.56 81.679 117.411 81.9103C118.27 82.1709 119.055 82.4688 119.802 82.7666C120.569 83.0565 121.318 83.3922 122.044 83.7719C122.754 84.1442 123.464 84.5537 124.099 84.9632C125.569 85.7715 126.958 86.7191 128.246 87.7927L127.984 88.5001Z" fill="#AFDCD2"/>
<path d="M128.32 88.2023C127.252 87.5125 126.141 86.8908 124.995 86.3408C124.306 85.984 123.595 85.6731 122.865 85.41C119.548 84.1119 116.064 83.2847 112.516 82.9528C111.993 82.9528 111.321 82.9528 110.723 82.9528C110.125 82.9528 109.751 82.2455 110.2 81.7242C111.134 80.6073 113.488 80.5701 115.131 80.5329C116.084 80.5301 117.03 80.6809 117.934 80.9796L120.437 82.0593C121.243 82.4115 122.029 82.8092 122.79 83.2507C123.529 83.6915 124.24 84.1764 124.92 84.7027C126.29 85.6881 127.543 86.8246 128.656 88.0906L128.32 88.2023Z" fill="url(#paint4_linear_44_15626)"/>
<path d="M71.7184 92.6327C72.7767 91.714 73.8869 90.8563 75.0435 90.0639C75.624 89.6342 76.2359 89.2484 76.8742 88.9097C79.7446 87.2665 82.8232 86.0144 86.0276 85.1867C86.5133 85.1867 87.1111 85.1867 87.6342 84.8516C88.1572 84.5165 88.232 82.804 87.6342 82.3944C87.0364 81.9849 84.6827 83.139 83.1882 83.3252C82.3157 83.444 81.4695 83.7083 80.685 84.107L78.5181 85.3728C77.8283 85.8017 77.1669 86.2742 76.5379 86.7876C75.9396 87.2672 75.366 87.7767 74.8193 88.314C73.5506 89.4479 72.3877 90.694 71.3447 92.0371L71.7184 92.6327Z" fill="#AFDCD2"/>
<path d="M71.3819 92.2976C72.265 91.42 73.2143 90.6109 74.2214 89.8777C74.8199 89.4099 75.4435 88.9749 76.0894 88.5746C79.0719 86.6952 82.3039 85.2415 85.6912 84.2559C86.2143 84.2559 86.8494 84.2559 87.4098 83.8464C87.9702 83.4368 88.2318 82.9528 87.6714 82.5061C86.5132 81.6126 84.1968 81.9849 82.5902 82.2827C81.6523 82.4344 80.752 82.7629 79.9376 83.2507C79.153 83.6975 78.4432 84.2187 77.6959 84.7399C76.9914 85.2321 76.3176 85.7668 75.6784 86.3408C75.0552 86.9115 74.4687 87.5208 73.9225 88.1651C72.8234 89.3781 71.8704 90.7151 71.083 92.1487L71.3819 92.2976Z" fill="url(#paint5_linear_44_15626)"/>
<path d="M76.6868 172.045C78.2344 172.045 79.4889 170.795 79.4889 169.253C79.4889 167.71 78.2344 166.46 76.6868 166.46C75.1393 166.46 73.8848 167.71 73.8848 169.253C73.8848 170.795 75.1393 172.045 76.6868 172.045Z" fill="#A9D3C9"/>
<path d="M77.2482 170.816L56.9611 181.241C56.6764 181.393 56.3441 181.432 56.0317 181.349C55.7193 181.266 55.4504 181.068 55.2799 180.794C55.1947 180.643 55.1406 180.476 55.1208 180.304C55.101 180.132 55.1159 179.957 55.1646 179.791C55.2133 179.624 55.2949 179.469 55.4045 179.335C55.5141 179.2 55.6495 179.089 55.8029 179.007C59.2775 177.294 69.5144 172.268 75.9032 168.359C76.062 168.255 76.2412 168.186 76.4289 168.155C76.6166 168.125 76.8086 168.135 76.9922 168.185C77.1758 168.234 77.3468 168.321 77.4939 168.441C77.6411 168.561 77.7611 168.711 77.846 168.88C77.9367 169.046 77.9932 169.228 78.0122 169.416C78.0312 169.604 78.0123 169.793 77.9566 169.974C77.9009 170.154 77.8095 170.322 77.6878 170.466C77.5662 170.611 77.4167 170.73 77.2482 170.816Z" fill="url(#paint6_linear_44_15626)"/>
<path d="M57.1101 180.943C56.7333 181.258 56.257 181.431 55.7651 181.431C55.2731 181.431 54.7969 181.258 54.4201 180.943L45.6776 173.497C45.261 173.147 44.9262 172.711 44.6964 172.219C44.4667 171.727 44.3477 171.191 44.3477 170.649C44.3477 170.106 44.4667 169.57 44.6964 169.078C44.9262 168.586 45.261 168.15 45.6776 167.801C46.1197 167.449 46.636 167.203 47.1877 167.079C47.7393 166.956 48.3119 166.959 48.8623 167.088C49.4127 167.217 49.9265 167.469 50.365 167.824C50.8035 168.18 51.1553 168.63 51.3939 169.141C52.9057 172.34 54.8271 175.331 57.1101 178.039C57.489 178.428 57.7009 178.949 57.7009 179.491C57.7009 180.033 57.489 180.554 57.1101 180.943Z" fill="#1C2530"/>
<path d="M113.263 124.911C107.472 132.171 93.462 136.08 87.5216 124.018C86.753 122.467 86.3565 120.759 86.3634 119.029C86.3634 113.817 90.772 113.109 97.3475 114.934C99.085 115.399 100.924 115.321 102.615 114.71C108.444 112.663 112.404 113.221 114.197 116.721C114.845 118.032 115.101 119.501 114.936 120.953C114.77 122.404 114.19 123.778 113.263 124.911Z" fill="#018E1D"/>
<path d="M113.375 124.725C107.958 131.501 94.695 135.038 89.315 123.906C88.536 122.476 88.1132 120.88 88.082 119.252C88.082 114.375 92.2291 113.705 98.319 115.529C99.947 115.96 101.669 115.882 103.251 115.306C108.743 113.407 112.441 113.928 114.123 117.205C114.716 118.403 114.96 119.742 114.828 121.071C114.696 122.401 114.193 123.666 113.375 124.725Z" fill="#06B439"/>
<path d="M100.639 127.727C103.011 127.66 104.879 125.657 104.811 123.252C104.743 120.848 102.765 118.952 100.393 119.018C98.0215 119.085 96.1536 121.088 96.2214 123.493C96.2893 125.898 98.2671 127.793 100.639 127.727Z" fill="#EAEAEA"/>
<path d="M101.459 127.704C103.831 127.637 105.699 125.634 105.631 123.229C105.564 120.825 103.586 118.929 101.214 118.995C98.8418 119.062 96.9739 121.065 97.0418 123.47C97.1096 125.875 99.0874 127.77 101.459 127.704Z" fill="white"/>
<path d="M103.027 136.229C103.691 136.376 104.38 136.376 105.044 136.229C105.684 136.091 106.276 135.788 106.761 135.351C107.246 134.913 107.608 134.356 107.809 133.735C109.266 129.602 104.446 122.305 104.073 121.97C103.976 121.881 103.849 121.832 103.718 121.832C103.586 121.832 103.46 121.881 103.363 121.97C103.271 122.073 103.22 122.205 103.22 122.342C103.22 122.48 103.271 122.612 103.363 122.715C103.363 122.715 108.108 129.9 106.838 133.512C106.675 133.969 106.397 134.377 106.031 134.696C105.664 135.016 105.222 135.236 104.745 135.336C104.322 135.492 103.866 135.536 103.421 135.464C102.976 135.392 102.557 135.207 102.205 134.926C99.2906 132.171 99.2906 122.417 99.2906 122.417C99.3015 122.347 99.297 122.276 99.2775 122.209C99.258 122.141 99.224 122.079 99.1777 122.025C99.1315 121.972 99.0742 121.93 99.0098 121.901C98.9454 121.872 98.8755 121.858 98.8049 121.858C98.7362 121.853 98.6671 121.862 98.6017 121.884C98.5363 121.905 98.4758 121.939 98.4238 121.984C98.3717 122.029 98.329 122.084 98.2983 122.146C98.2675 122.207 98.2492 122.274 98.2445 122.342C98.2445 122.789 97.9456 132.581 101.495 135.41C101.934 135.8 102.459 136.08 103.027 136.229Z" fill="white"/>
<path d="M85.0559 149.483C85.579 147.398 91.071 130.384 91.9677 127.48C92.4534 125.879 93.238 124.986 94.2094 124.762H94.6577C94.6577 124.762 96.7125 124.502 97.7587 127.331C98.8048 130.161 105.231 146.877 105.903 148.925C106.254 149.697 106.436 150.535 106.436 151.382C106.436 152.23 106.254 153.067 105.903 153.839C104.824 155.655 103.085 156.988 101.046 157.562C99.4399 157.562 97.6839 157.823 96.1895 157.897H95.5544C94.0599 157.897 92.3039 157.897 90.6974 157.897C90.1962 157.844 89.7055 157.718 89.2403 157.525H89.0162C87.6819 156.85 86.529 155.868 85.6537 154.658C85.1697 153.896 84.8646 153.035 84.7611 152.139C84.6576 151.243 84.7584 150.335 85.0559 149.483Z" fill="url(#paint7_linear_44_15626)"/>
<path d="M157.944 109.912C159.297 108.585 159.314 106.416 157.982 105.068C156.65 103.72 154.474 103.703 153.121 105.03C151.769 106.357 151.751 108.526 153.083 109.874C154.415 111.222 156.591 111.239 157.944 109.912Z" fill="#AFDCD2"/>
<path d="M106.464 137.644L104.745 135.559C115.507 133.38 125.942 129.826 135.792 124.986C142.598 120.251 148.495 114.337 153.202 107.525C153.422 107.213 153.748 106.992 154.119 106.903C154.491 106.814 154.882 106.863 155.22 107.041C155.412 107.143 155.58 107.285 155.713 107.458C155.845 107.63 155.939 107.828 155.989 108.04C156.038 108.251 156.042 108.471 156 108.684C155.957 108.897 155.87 109.098 155.743 109.275C150.378 116.218 144.006 122.329 136.838 127.406C127.315 132.384 117.065 135.839 106.464 137.644Z" fill="url(#paint8_linear_44_15626)"/>
<path d="M107.211 143.564C107.211 143.564 106.501 146.282 104.409 144.606C104.173 144.38 104.014 144.087 103.953 143.766C103.893 143.446 103.935 143.115 104.073 142.819L103.027 144.197C102.777 144.568 102.408 144.844 101.98 144.979C101.553 145.115 101.092 145.101 100.673 144.941C100.336 144.78 100.067 144.503 99.9167 144.162C99.766 143.821 99.7427 143.437 99.8509 143.08C100.411 140.846 100.934 140.771 100.934 140.771C100.934 140.771 98.6554 142.894 97.1983 141.069C95.7412 139.245 100.038 136.862 100.934 136.229C100.977 136.177 101 136.111 101 136.043C101 135.976 100.977 135.91 100.934 135.857L100.15 133.586C101.066 133.326 102.034 133.31 102.958 133.538C103.882 133.767 104.73 134.233 105.418 134.889L107.435 136.937C108.109 139.108 108.03 141.442 107.211 143.564Z" fill="url(#paint9_linear_44_15626)"/>
<path d="M100.673 141.032C101.068 140.67 101.397 140.242 101.644 139.766C101.968 139.353 102.186 138.867 102.279 138.352C102.263 138.898 102.107 139.431 101.826 139.9C101.545 140.369 101.148 140.759 100.673 141.032Z" fill="black"/>
<path d="M104.072 142.819C104.292 142.272 104.479 141.713 104.633 141.144C104.825 140.606 104.926 140.04 104.932 139.468C105.1 140.655 104.791 141.859 104.072 142.819Z" fill="black"/>
<path d="M35.9135 113.208C37.1672 111.788 37.0279 109.623 35.6024 108.374C34.1769 107.125 32.005 107.264 30.7514 108.684C29.4977 110.105 29.637 112.269 31.0625 113.518C32.488 114.767 34.6599 114.629 35.9135 113.208Z" fill="#AFDCD2"/>
<path d="M84.0099 138.277L85.6164 136.118C74.7567 134.518 64.1471 131.541 54.0462 127.257C47.0123 122.896 40.8237 117.31 35.7767 110.764C35.5515 110.458 35.2202 110.247 34.8472 110.171C34.4743 110.095 34.0864 110.161 33.7591 110.354C33.5702 110.466 33.4076 110.617 33.2824 110.797C33.1571 110.976 33.0721 111.181 33.0331 111.396C32.9941 111.612 33.0021 111.833 33.0564 112.045C33.1108 112.257 33.2103 112.455 33.3482 112.625C39.0346 119.309 45.6821 125.118 53.0749 129.863C62.8823 134.26 73.3205 137.099 84.0099 138.277Z" fill="url(#paint10_linear_44_15626)"/>
<path d="M83.5992 144.197C83.5992 144.197 84.4584 146.877 86.4759 145.127C86.6876 144.878 86.8216 144.573 86.8615 144.249C86.9013 143.925 86.8452 143.596 86.7001 143.303L87.7836 144.643C88.07 144.99 88.4611 145.235 88.8987 145.343C89.3362 145.45 89.7969 145.414 90.2121 145.239C90.532 145.053 90.7774 144.762 90.9068 144.416C91.0362 144.07 91.0415 143.69 90.9219 143.34C90.2494 141.144 89.7264 141.069 89.7264 141.069C89.7264 141.069 92.1175 143.08 93.4625 141.069C94.8075 139.059 90.3989 137.011 89.3527 136.453C89.3158 136.398 89.2961 136.333 89.2961 136.267C89.2961 136.2 89.3158 136.136 89.3527 136.08L90.1373 133.698C89.21 133.488 88.2438 133.522 87.3335 133.796C86.4231 134.07 85.5998 134.575 84.9442 135.261L83.0387 137.458C82.4452 139.702 82.6431 142.081 83.5992 144.197Z" fill="url(#paint11_linear_44_15626)"/>
<path d="M89.9874 141.255C89.4992 141.002 89.0826 140.631 88.7758 140.176C88.469 139.72 88.2818 139.195 88.2314 138.649C88.3283 139.179 88.5745 139.669 88.9413 140.064C89.2186 140.518 89.5725 140.921 89.9874 141.255Z" fill="black"/>
<path d="M86.6998 143.303C85.9351 142.375 85.5602 141.187 85.6537 139.99C85.6753 140.57 85.8151 141.14 86.0647 141.665C86.2208 142.231 86.4335 142.78 86.6998 143.303Z" fill="black"/>
<path d="M115.393 114.152C121.934 114.152 127.237 108.868 127.237 102.35C127.237 95.8317 121.934 90.5477 115.393 90.5477C108.852 90.5477 103.55 95.8317 103.55 102.35C103.55 108.868 108.852 114.152 115.393 114.152Z" fill="white"/>
<path d="M115.506 113.928C119.653 113.928 123.015 110.578 123.015 106.445C123.015 102.312 119.653 98.9618 115.506 98.9618C111.358 98.9618 107.996 102.312 107.996 106.445C107.996 110.578 111.358 113.928 115.506 113.928Z" fill="url(#paint12_linear_44_15626)"/>
<path d="M114.385 111.992C115.581 111.992 116.552 111.026 116.552 109.833C116.552 108.64 115.581 107.674 114.385 107.674C113.188 107.674 112.218 108.64 112.218 109.833C112.218 111.026 113.188 111.992 114.385 111.992Z" fill="white"/>
<path d="M83.7858 115.008C90.3268 115.008 95.6293 109.724 95.6293 103.206C95.6293 96.688 90.3268 91.4041 83.7858 91.4041C77.2449 91.4041 71.9424 96.688 71.9424 103.206C71.9424 109.724 77.2449 115.008 83.7858 115.008Z" fill="white"/>
<path d="M83.8982 114.822C88.0457 114.822 91.4078 111.472 91.4078 107.339C91.4078 103.206 88.0457 99.8553 83.8982 99.8553C79.7508 99.8553 76.3887 103.206 76.3887 107.339C76.3887 111.472 79.7508 114.822 83.8982 114.822Z" fill="url(#paint13_linear_44_15626)"/>
<path d="M85.206 112.812C86.4028 112.812 87.3729 111.845 87.3729 110.652C87.3729 109.46 86.4028 108.493 85.206 108.493C84.0092 108.493 83.0391 109.46 83.0391 110.652C83.0391 111.845 84.0092 112.812 85.206 112.812Z" fill="white"/>
<path d="M68.3184 205.627C68.9579 205.049 69.7076 204.606 70.5227 204.324H72.3534C74.0682 203.837 75.8163 203.476 77.584 203.244L96.0403 202.723H97.1238L115.58 202.239H116.29C121.076 202.415 125.703 203.995 129.591 206.781C129.966 207.087 130.316 207.423 130.637 207.786C131.629 208.816 132.303 210.108 132.58 211.509C132.712 212.121 132.787 212.744 132.804 213.37C132.841 213.829 132.841 214.29 132.804 214.748C132.804 214.748 132.804 215.12 132.804 215.306C132.804 215.493 132.916 215.493 132.916 215.493V216.051V216.572C132.07 219.183 130.357 221.429 128.059 222.939C126.91 223.824 125.655 224.561 124.323 225.135C120.48 226.709 116.427 227.713 112.292 228.114L110.499 228.523L104.335 229.156H104.073H103.326C101.308 229.156 99.1413 229.454 97.0117 229.528C91.2581 229.528 86.4385 229.268 83.1134 229.082C78.9663 228.858 61.2945 227.779 60.9209 215.195C61.0516 213.045 61.8264 210.985 63.1452 209.279C64.464 207.573 66.2661 206.301 68.3184 205.627Z" fill="url(#paint14_linear_44_15626)"/>
<path d="M72.1666 189.692C72.5954 189.452 73.0457 189.253 73.5116 189.096H73.96C75.6899 188.584 77.4674 188.247 79.2653 188.091L95.5547 187.644H96.6756L113.002 187.198H113.824C117.843 187.331 121.737 188.625 125.033 190.921L125.332 191.181H125.556C126.569 192.068 127.377 193.163 127.925 194.39C128.473 195.618 128.748 196.949 128.731 198.292C128.766 200.181 128.242 202.039 127.226 203.634C126.209 205.229 124.745 206.492 123.015 207.265C122.828 207.386 122.627 207.486 122.417 207.563H122.156L121.707 208.047L120.96 208.344C119.144 209.01 117.267 209.496 115.356 209.796H115.02C112.292 210.243 109.901 210.392 108.706 210.541L102.429 211.099L97.4975 211.472H96.3019C93.6493 211.472 86.9617 211.472 84.0101 211.099C80.274 211.099 64.7318 211.099 64.2461 199.93C64.2564 197.594 65.0374 195.326 66.4687 193.476C67.9 191.626 69.9022 190.296 72.1666 189.692Z" fill="url(#paint15_linear_44_15626)"/>
<path d="M81.0217 172.752L95.1816 172.38H96.265L110.5 171.933H111.434C115.384 172.036 119.154 173.602 122.007 176.326L122.306 176.699C123.061 177.67 123.607 178.785 123.912 179.975C123.93 180.198 123.93 180.422 123.912 180.645C123.93 180.856 123.93 181.067 123.912 181.278C123.931 181.464 123.931 181.651 123.912 181.836C123.912 181.836 123.912 181.836 123.912 182.097C123.951 182.58 123.951 183.066 123.912 183.549C122.903 192.745 110.5 193.154 107.473 193.601L103.027 194.011H101.346L96.6386 194.42H95.5552C93.1641 194.42 87.4852 194.42 84.9446 194.085C81.7316 193.862 68.0947 194.085 67.6464 183.772C67.1981 173.46 81.0217 172.752 81.0217 172.752Z" fill="url(#paint16_linear_44_15626)"/>
<path d="M85.1687 157.637L106.352 157.041H106.763C108.295 157.041 116.477 157.897 116.589 165.641C116.589 174.167 106.763 174.576 104.41 174.874L100.674 175.284L97.1616 175.619H96.0782C94.1728 175.619 90.3619 175.433 88.6059 175.321C86.2148 175.321 76.2394 175.321 75.9032 166.795C75.5669 158.27 85.1687 157.637 85.1687 157.637Z" fill="url(#paint17_linear_44_15626)"/>
<defs>
<linearGradient id="paint0_linear_44_15626" x1="90.628" y1="162.707" x2="77.6158" y2="180.412" gradientUnits="userSpaceOnUse">
<stop stop-color="#212E5D"/>
<stop offset="1" stop-color="#242F3D"/>
</linearGradient>
<linearGradient id="paint1_linear_44_15626" x1="88.5427" y1="168.809" x2="83.7089" y2="7.11665" gradientUnits="userSpaceOnUse">
<stop stop-color="#AFDCD2"/>
<stop offset="0.07" stop-color="#B6DFD6"/>
<stop offset="0.48" stop-color="#DEF0EC"/>
<stop offset="0.8" stop-color="#F6FBFA"/>
<stop offset="1" stop-color="white"/>
</linearGradient>
<linearGradient id="paint2_linear_44_15626" x1="94.8837" y1="93.7563" x2="82.7414" y2="94.1218" gradientUnits="userSpaceOnUse">
<stop stop-color="#242F3D"/>
<stop offset="1" stop-color="#212E5D"/>
</linearGradient>
<linearGradient id="paint3_linear_44_15626" x1="125.744" y1="92.8337" x2="113.602" y2="93.1992" gradientUnits="userSpaceOnUse">
<stop stop-color="#242F3D"/>
<stop offset="1" stop-color="#212E5D"/>
</linearGradient>
<linearGradient id="paint4_linear_44_15626" x1="90.0688" y1="68.9591" x2="109.085" y2="70.6765" gradientUnits="userSpaceOnUse">
<stop stop-color="#242F3D"/>
<stop offset="1" stop-color="#212E5D"/>
</linearGradient>
<linearGradient id="paint5_linear_44_15626" x1="95.2721" y1="111.698" x2="77.1694" y2="116.996" gradientUnits="userSpaceOnUse">
<stop stop-color="#242F3D"/>
<stop offset="1" stop-color="#212E5D"/>
</linearGradient>
<linearGradient id="paint6_linear_44_15626" x1="67.6554" y1="177.959" x2="65.6869" y2="170.721" gradientUnits="userSpaceOnUse">
<stop stop-color="#212E5D"/>
<stop offset="1" stop-color="#242F3D"/>
</linearGradient>
<linearGradient id="paint7_linear_44_15626" x1="108.799" y1="129.933" x2="87.2043" y2="130.583" gradientUnits="userSpaceOnUse">
<stop stop-color="#FF7442"/>
<stop offset="1" stop-color="#FF5C21"/>
</linearGradient>
<linearGradient id="paint8_linear_44_15626" x1="186.668" y1="103.8" x2="132.866" y2="125.86" gradientUnits="userSpaceOnUse">
<stop stop-color="#242F3D"/>
<stop offset="1" stop-color="#212E5D"/>
</linearGradient>
<linearGradient id="paint9_linear_44_15626" x1="135.031" y1="70.5608" x2="136.2" y2="58.9497" gradientUnits="userSpaceOnUse">
<stop stop-color="#242F3D"/>
<stop offset="1" stop-color="#212E5D"/>
</linearGradient>
<linearGradient id="paint10_linear_44_15626" x1="7.78683" y1="93.8661" x2="62.7949" y2="113.041" gradientUnits="userSpaceOnUse">
<stop stop-color="#242F3D"/>
<stop offset="1" stop-color="#212E5D"/>
</linearGradient>
<linearGradient id="paint11_linear_44_15626" x1="124.036" y1="183.362" x2="122.16" y2="171.713" gradientUnits="userSpaceOnUse">
<stop stop-color="#242F3D"/>
<stop offset="1" stop-color="#212E5D"/>
</linearGradient>
<linearGradient id="paint12_linear_44_15626" x1="179.943" y1="167.722" x2="187.563" y2="154.827" gradientUnits="userSpaceOnUse">
<stop stop-color="#242F3D"/>
<stop offset="1" stop-color="#212E5D"/>
</linearGradient>
<linearGradient id="paint13_linear_44_15626" x1="95.3976" y1="160.819" x2="87.0274" y2="148.369" gradientUnits="userSpaceOnUse">
<stop stop-color="#242F3D"/>
<stop offset="1" stop-color="#212E5D"/>
</linearGradient>
<linearGradient id="paint14_linear_44_15626" x1="136.085" y1="204.055" x2="63.6424" y2="206.236" gradientUnits="userSpaceOnUse">
<stop stop-color="#73A9FF"/>
<stop offset="1" stop-color="#5E94FF"/>
</linearGradient>
<linearGradient id="paint15_linear_44_15626" x1="131.629" y1="187.718" x2="67.1072" y2="189.66" gradientUnits="userSpaceOnUse">
<stop stop-color="#5CE9FF"/>
<stop offset="1" stop-color="#73FFEA"/>
</linearGradient>
<linearGradient id="paint16_linear_44_15626" x1="126.998" y1="171.721" x2="70.7321" y2="173.415" gradientUnits="userSpaceOnUse">
<stop stop-color="#4FFF81"/>
<stop offset="1" stop-color="#73FF81"/>
</linearGradient>
<linearGradient id="paint17_linear_44_15626" x1="119.238" y1="154.961" x2="78.4029" y2="156.19" gradientUnits="userSpaceOnUse">
<stop stop-color="#FFC154"/>
<stop offset="1" stop-color="#FFAA4A"/>
</linearGradient>
</defs>
</svg>
