<svg width="72" height="72" viewBox="0 0 72 72" fill="none" xmlns="http://www.w3.org/2000/svg">
<path d="M16.3828 31.5948L16.5438 31.2038C16.4572 31.318 16.4017 31.4527 16.3828 31.5948Z" fill="#FCBC08"/>
<path d="M16.704 32.8368C16.704 32.8368 16.704 32.5378 16.543 32.5378C16.382 32.5378 16.405 32.6528 16.405 32.7448C16.3865 32.7844 16.377 32.8276 16.377 32.8713C16.377 32.915 16.3865 32.9581 16.405 32.9978C16.589 33.1587 16.681 32.9518 16.704 32.8368Z" fill="#FCBC08"/>
<path d="M16.958 30.192C17.073 30.192 17.349 29.87 17.257 29.732C17.165 29.594 16.958 29.732 16.912 29.732C16.8954 29.7922 16.8954 29.8558 16.912 29.916C16.728 30.123 16.728 30.238 16.958 30.192Z" fill="#FCBC08"/>
<path d="M16.1995 32.2388C16.1995 31.9859 16.0155 32.0778 15.9466 32.2388C15.9466 32.2388 15.7856 32.5378 15.9466 32.5838C16.1075 32.6298 16.1765 32.3538 16.1995 32.2388Z" fill="#FCBC08"/>
<path d="M16.2902 33.5498C16.2902 33.4348 16.2902 32.9978 15.9682 33.1818C15.9522 33.2343 15.9522 33.2903 15.9682 33.3428C15.9221 33.4927 15.9221 33.6529 15.9682 33.8028C16.1982 34.1248 16.3132 33.7568 16.2902 33.5498Z" fill="#FCBC08"/>
<path d="M16.7281 34.2857C16.5441 34.2857 16.5441 34.4697 16.5671 34.6077C16.5901 34.7457 16.5671 35.5506 16.8661 35.4126C17.165 35.2746 16.9581 34.4697 16.7281 34.2857Z" fill="#FCBC08"/>
<path d="M15.715 34.4696C15.5081 34.7916 16.083 35.1136 16.037 34.4696C15.991 33.8257 15.784 34.3087 15.715 34.4696Z" fill="#FCBC08"/>
<path d="M18.1068 33.7108C18.0806 33.7434 18.0664 33.784 18.0664 33.8258C18.0664 33.8676 18.0806 33.9081 18.1068 33.9408C18.2678 33.9408 18.5437 33.6418 18.4748 33.4348C18.4058 33.2278 18.0148 33.4808 18.1068 33.7108Z" fill="#FCBC08"/>
<path d="M18.1079 36.3096V36.1946C18.0949 36.2875 18.1005 36.382 18.1242 36.4728C18.1478 36.5636 18.1892 36.6488 18.2459 36.7235C18.3838 36.7235 18.4758 36.1026 18.2459 35.9646C18.0159 35.8266 18.0619 36.0796 18.1079 36.3096Z" fill="#FCBC08"/>
<path d="M16.1517 36.5626V36.7006C16.3817 36.7006 16.7267 36.1256 16.3357 35.9877C15.9448 35.8497 16.0138 36.3326 16.1517 36.5626Z" fill="#FCBC08"/>
<path d="M16.0137 35.3206C16.0137 35.3206 16.0137 35.5046 16.0137 35.6196C16.0521 35.6074 16.0874 35.5869 16.117 35.5596C16.1467 35.5323 16.17 35.4989 16.1853 35.4616C16.2007 35.4244 16.2077 35.3842 16.2058 35.3439C16.204 35.3037 16.1934 35.2643 16.1747 35.2286C16.1425 35.2304 16.1112 35.2396 16.0833 35.2556C16.0553 35.2715 16.0315 35.2938 16.0137 35.3206Z" fill="#FCBC08"/>
<path d="M15.8301 29.479C15.9743 29.6258 16.0912 29.7971 16.1751 29.985C16.2632 30.2309 16.3709 30.4693 16.497 30.698C16.511 30.4397 16.4469 30.1833 16.313 29.962L15.9221 29.3181L15.8301 29.479Z" fill="#937B18"/>
<path d="M18.3369 25.6383C17.9951 25.4976 17.6222 25.45 17.256 25.5003C16.7316 25.5974 16.2408 25.827 15.8301 26.1672C16.2696 25.9357 16.732 25.7507 17.21 25.6153C17.5466 25.6278 17.8764 25.7142 18.1759 25.8683L18.3369 25.6383Z" fill="#937B18"/>
<path d="M17.1417 27.2021C16.7197 27.1837 16.2982 27.2462 15.8997 27.3861C15.511 27.5244 15.1521 27.7351 14.8418 28.0071C15.2176 27.7924 15.6098 27.6078 16.0147 27.4551C16.7967 27.2481 17.0267 27.4551 17.0267 27.4551L17.1417 27.2021Z" fill="#937B18"/>
<path d="M15.7837 29.433C15.7837 29.433 15.6227 29.433 15.1627 29.571C14.7028 29.709 14.4038 29.8929 14.4728 29.8239C14.6509 29.6878 14.8438 29.572 15.0477 29.479C15.3226 29.3674 15.6076 29.2827 15.8987 29.226L15.7837 29.433Z" fill="#937B18"/>
<path d="M37.4264 12H34.6666C29.0605 12.0182 23.6893 14.2533 19.7252 18.2174C15.7611 22.1815 13.526 27.5527 13.5078 33.1588V36.9535C13.5132 37.0372 13.5489 37.116 13.6081 37.1752C13.6674 37.2345 13.7462 37.2701 13.8298 37.2755H58.3552C58.4388 37.2701 58.5176 37.2345 58.5768 37.1752C58.6361 37.116 58.6717 37.0372 58.6772 36.9535V33.0668C58.6346 27.4608 56.3763 22.0992 52.3949 18.1523C48.4136 14.2055 43.0326 11.9938 37.4264 12ZM55.1354 33.8257H16.9576V33.1588C16.9637 28.4639 18.8314 23.9631 22.1512 20.6434C25.4709 17.3236 29.9717 15.4559 34.6666 15.4498H37.4264C42.1213 15.4559 46.6221 17.3236 49.9418 20.6434C53.2616 23.9631 55.1293 28.4639 55.1354 33.1588V33.8257Z" fill="#4D4D4D"/>
<path d="M42.4167 60.8951H29.2155C26.0142 60.922 22.8999 59.8531 20.3898 57.8659C17.8797 55.8788 16.1247 53.0929 15.4163 49.9707L12.8405 38.7244C12.7729 38.2392 12.8068 37.7453 12.9398 37.2739C13.0729 36.8025 13.3023 36.3638 13.6135 35.9856C13.9248 35.6073 14.3111 35.2977 14.7481 35.0764C15.1851 34.8551 15.6632 34.7268 16.1523 34.6996H55.25C55.7391 34.7268 56.2172 34.8551 56.6542 35.0764C57.0912 35.2977 57.4775 35.6073 57.7888 35.9856C58.1 36.3638 58.3294 36.8025 58.4625 37.2739C58.5955 37.7453 58.6293 38.2392 58.5618 38.7244L56.0549 49.9707C55.3526 53.0659 53.6214 55.8314 51.1443 57.8155C48.6672 59.7997 45.5905 60.8854 42.4167 60.8951Z" fill="#4D4D4D"/>
<path d="M20.7243 44.439L20.2586 44.5672C19.5851 44.7526 19.1894 45.4489 19.3748 46.1225L21.3462 53.2847C21.5316 53.9582 22.2279 54.3539 22.9015 54.1685L23.3671 54.0403C24.0407 53.8549 24.4364 53.1586 24.251 52.4851L22.2795 45.3229C22.0941 44.6493 21.3978 44.2536 20.7243 44.439Z" fill="white"/>
<path d="M30.5196 43.7934L30.043 43.8719C29.3537 43.9856 28.887 44.6365 29.0006 45.3258L30.2088 52.6554C30.3224 53.3447 30.9733 53.8114 31.6626 53.6978L32.1392 53.6192C32.8285 53.5056 33.2951 52.8547 33.1815 52.1654L31.9734 44.8358C31.8598 44.1465 31.2089 43.6798 30.5196 43.7934Z" fill="white"/>
<path d="M41.7875 43.7968L41.3065 43.7527C40.6108 43.6889 39.9952 44.2011 39.9314 44.8968L39.2529 52.2943C39.1891 52.99 39.7014 53.6057 40.397 53.6695L40.878 53.7136C41.5737 53.7774 42.1894 53.2651 42.2532 52.5695L42.9316 45.1719C42.9954 44.4763 42.4832 43.8606 41.7875 43.7968Z" fill="white"/>
<path d="M51.4697 44.4223L51.0015 44.3035C50.3243 44.1318 49.6362 44.5416 49.4645 45.2187L47.6384 52.4194C47.4667 53.0965 47.8764 53.7847 48.5536 53.9564L49.0217 54.0751C49.6989 54.2469 50.387 53.8371 50.5588 53.16L52.3848 45.9593C52.5566 45.2822 52.1468 44.594 51.4697 44.4223Z" fill="white"/>
<path d="M59.2981 34.2857H12.2888C10.4724 34.2857 9 35.7582 9 37.5745V37.6895C9 39.5059 10.4724 40.9783 12.2888 40.9783H59.2981C61.1144 40.9783 62.5868 39.5059 62.5868 37.6895V37.5745C62.5868 35.7582 61.1144 34.2857 59.2981 34.2857Z" fill="white"/>
<path d="M59.3215 32.9287H12.3122C10.4959 32.9287 9.02344 34.4012 9.02344 36.2175V36.3325C9.02344 38.1489 10.4959 39.6213 12.3122 39.6213H59.3215C61.1378 39.6213 62.6103 38.1489 62.6103 36.3325V36.2175C62.6103 34.4012 61.1378 32.9287 59.3215 32.9287Z" fill="#4D4D4D"/>
</svg>
