<svg width="72" height="72" viewBox="0 0 72 72" fill="none" xmlns="http://www.w3.org/2000/svg">
<path d="M39.3122 26.5811C37.7483 30.1459 38.0012 36.0336 41.2211 37.4365C42.348 37.9195 43.1529 37.5975 43.5209 37.7585C43.8889 37.9195 44.1879 38.7244 45.4528 39.2764C48.7876 40.7253 53.0194 36.7925 54.6523 33.2507C56.5152 28.996 53.6863 26.1902 49.4776 24.3503C45.2688 22.5104 41.1751 22.3264 39.3122 26.5811Z" fill="url(#paint0_linear_336_48294)"/>
<path d="M47.4076 24.4423C47.4076 24.6723 47.9366 25.1782 48.8335 25.5692C49.7305 25.9602 50.5124 26.0752 50.6274 25.8452C50.7424 25.6152 50.0754 25.1092 49.2015 24.7183C48.3275 24.3273 47.4996 24.2123 47.4076 24.4423Z" fill="#B02739"/>
<path d="M53.5254 22.0505C54.8997 21.8722 56.2938 22.164 57.4812 22.8784C57.6172 22.9547 57.7352 23.0595 57.8269 23.1857C57.9186 23.3118 57.9819 23.4563 58.0125 23.6093C58.0431 23.7622 58.0403 23.92 58.0041 24.0717C57.968 24.2235 57.8994 24.3656 57.8032 24.4883C57.5006 24.887 57.1533 25.2496 56.7682 25.5693C56.0465 26.1543 55.1645 26.5071 54.2384 26.5812C52.4675 26.6962 50.7656 25.6613 48.9717 25.6153C49.6321 24.616 50.4747 23.75 51.4555 23.0624C52.0552 22.5653 52.7648 22.2184 53.5254 22.0505Z" fill="url(#paint1_linear_336_48294)"/>
<path d="M49.1554 25.7991H48.8564V25.5462C49.0073 25.0673 49.1075 24.574 49.1554 24.0742C49.2245 23.486 49.2245 22.8916 49.1554 22.3033C49.0776 21.8301 48.9464 21.3672 48.7644 20.9234C48.7644 20.7394 49.2934 20.3025 49.4544 20.6474C49.6897 21.1347 49.8524 21.6539 49.9373 22.1884C50.0525 22.8426 50.0525 23.512 49.9373 24.1662C49.8452 24.7261 49.6503 25.2642 49.3624 25.7531L49.1554 25.7991Z" fill="url(#paint2_linear_336_48294)"/>
<path d="M42.716 36.1716C42.532 39.9434 38.7142 44.5431 35.3564 43.9682C34.1835 43.7612 33.7005 43.0712 33.3325 43.0252C32.58 43.2049 31.8042 43.2669 31.0327 43.2092C27.5369 42.6113 25.812 37.0456 26.8699 33.4348C27.7269 31.0366 29.1744 28.8931 31.0786 27.2022C32.8725 25.1323 33.8615 21.7745 36.9893 22.3264C40.1171 22.8784 39.2892 26.1672 40.6921 28.4671C42.0849 30.7908 42.787 33.4633 42.716 36.1716Z" fill="url(#paint3_linear_336_48294)"/>
<path d="M35.4714 22.8094C35.4714 22.9934 36.0234 23.2464 36.7594 23.3844C37.4953 23.5224 38.1163 23.3844 38.1623 23.3844C38.2083 23.3844 37.6103 22.9244 36.8744 22.8094C36.1384 22.6944 35.5174 22.6024 35.4714 22.8094Z" fill="#DB9B0B"/>
<path d="M39.6342 19.8655C40.5948 19.4863 41.6635 19.4863 42.6241 19.8655H42.992C43.0735 19.8889 43.1494 19.9287 43.215 19.9825C43.2805 20.0364 43.3343 20.103 43.3731 20.1784C43.4119 20.2539 43.4348 20.3364 43.4405 20.4211C43.4461 20.5057 43.4344 20.5906 43.406 20.6705C43.2344 21.0954 43.0103 21.4971 42.739 21.8664C42.3017 22.4441 41.7007 22.8768 41.0141 23.1083C39.7032 23.5223 38.2313 23.1083 36.8744 23.3613C37.1803 22.5172 37.6404 21.7374 38.2313 21.0614C38.6134 20.5722 39.0907 20.1654 39.6342 19.8655Z" fill="url(#paint4_linear_336_48294)"/>
<path d="M37.0122 23.4993H36.7593C36.7365 23.4322 36.7365 23.3594 36.7593 23.2923C36.7801 22.9016 36.7801 22.5101 36.7593 22.1194C36.6934 21.6709 36.5776 21.2312 36.4143 20.8085C36.2764 20.4622 36.0906 20.1371 35.8623 19.8425C35.8623 19.7045 36.1383 19.2675 36.3223 19.4745C36.5903 19.8045 36.8145 20.1679 36.9892 20.5555C37.1817 21.0339 37.3056 21.5372 37.3572 22.0504C37.3785 22.4918 37.3319 22.9339 37.2192 23.3613L37.0122 23.4993Z" fill="#6B3D18"/>
<path d="M23.006 25.6152C25.6279 25.1782 31.1245 26.6271 31.7455 31.8248C32.1133 34.0342 31.5951 36.2994 30.3035 38.1293C29.0118 39.9591 27.0509 41.2059 24.8459 41.5992C23.6224 41.8703 22.353 41.8577 21.1351 41.5623C19.9171 41.267 18.783 40.6967 17.8195 39.8953C16.856 39.0939 16.0888 38.0826 15.5766 36.9388C15.0644 35.795 14.8208 34.5492 14.8645 33.2967C15.0025 28.237 19.0732 26.2591 23.006 25.6152Z" fill="url(#paint5_linear_336_48294)"/>
<path d="M17.0954 31.5949C17.0954 31.3419 17.0955 30.9509 16.8655 30.9739C16.6355 30.9969 16.4975 31.3879 16.3825 31.5949C16.2675 31.8018 16.9575 32.3078 17.0954 31.5949Z" fill="#FCBC08"/>
<path d="M16.3824 31.5948L16.5434 31.2038C16.4568 31.318 16.4014 31.4528 16.3824 31.5948Z" fill="#FCBC08"/>
<path d="M16.7045 32.8368C16.7045 32.8368 16.7045 32.5378 16.5435 32.5378C16.3825 32.5378 16.4055 32.6528 16.4055 32.7448C16.387 32.7844 16.3774 32.8276 16.3774 32.8713C16.3774 32.915 16.387 32.9581 16.4055 32.9978C16.5895 33.1587 16.6815 32.9518 16.7045 32.8368Z" fill="#FCBC08"/>
<path d="M17.7394 31.5719C17.6979 31.5843 17.6609 31.6081 17.6324 31.6407C17.6039 31.6732 17.5852 31.7131 17.5784 31.7558C17.5521 31.8013 17.5383 31.8529 17.5383 31.9053C17.5383 31.9578 17.5521 32.0094 17.5784 32.0548C17.5784 32.0548 17.8084 31.8708 17.8544 31.8018C17.9004 31.7328 17.9463 31.5029 17.7394 31.5719Z" fill="#FCBC08"/>
<path d="M17.7163 30.813C17.7163 30.813 17.7163 31.0889 17.7163 31.1119C17.7163 31.1349 17.9693 30.928 17.9923 30.836C18.0153 30.744 17.7393 30.652 17.7163 30.813Z" fill="#FCBC08"/>
<path d="M17.5556 30.0309C17.5556 30.0309 17.3716 30.1459 17.3716 30.2379C17.3716 30.2379 17.5556 30.2379 17.6246 30.2379C17.6936 30.2379 18.2455 29.9389 18.1305 29.7779C18.0155 29.6169 17.6476 29.9389 17.5556 30.0309Z" fill="#FCBC08"/>
<path d="M16.9573 30.192C17.0723 30.192 17.3483 29.87 17.2563 29.732C17.1643 29.594 16.9573 29.732 16.9113 29.732C16.8946 29.7922 16.8946 29.8558 16.9113 29.916C16.7273 30.123 16.7273 30.238 16.9573 30.192Z" fill="#FCBC08"/>
<path d="M16.1986 32.2388C16.1986 31.9858 16.0146 32.0778 15.9456 32.2388C15.9456 32.2388 15.7846 32.5378 15.9456 32.5838C16.1066 32.6298 16.1756 32.3538 16.1986 32.2388Z" fill="#FCBC08"/>
<path d="M16.2904 33.5498C16.2904 33.4348 16.2904 32.9978 15.9684 33.1818C15.9524 33.2343 15.9524 33.2903 15.9684 33.3428C15.9223 33.4926 15.9223 33.6529 15.9684 33.8028C16.1984 34.1247 16.3134 33.7568 16.2904 33.5498Z" fill="#FCBC08"/>
<path d="M17.3943 32.6988C17.2891 32.7626 17.2081 32.8597 17.1643 32.9748C17.121 33.0685 17.0986 33.1705 17.0986 33.2738C17.0986 33.377 17.121 33.479 17.1643 33.5728C17.3713 33.8947 17.6243 33.2508 17.6933 33.1128C17.7623 32.9748 17.6933 32.4458 17.3943 32.6988Z" fill="#FCBC08"/>
<path d="M18.3604 32.0088C18.3604 32.0088 18.3604 32.2387 18.3604 32.3077C18.3604 32.3767 18.7053 32.1237 18.7513 32.0088C18.7973 31.8938 18.4063 31.8478 18.3604 32.0088Z" fill="#FCBC08"/>
<path d="M18.6595 28.743C18.6468 28.772 18.6403 28.8033 18.6403 28.835C18.6403 28.8667 18.6468 28.898 18.6595 28.927C18.9124 28.927 19.2804 28.628 19.1884 28.398C19.1308 28.3809 19.0702 28.3764 19.0107 28.3851C18.9513 28.3937 18.8944 28.4152 18.844 28.448C18.7937 28.4808 18.7511 28.5242 18.7193 28.5752C18.6874 28.6261 18.667 28.6834 18.6595 28.743Z" fill="#FCBC08"/>
<path d="M18.6133 30.1689C18.8433 30.1689 19.2803 29.6399 19.0963 29.387C19.0101 29.4055 18.9297 29.4444 18.8617 29.5005C18.7937 29.5565 18.74 29.628 18.7053 29.7089C18.5673 29.8239 18.4753 30.0309 18.6133 30.1689Z" fill="#FCBC08"/>
<path d="M17.7393 28.6971C17.6981 28.6939 17.6568 28.6993 17.6178 28.7129C17.5788 28.7265 17.5431 28.748 17.5128 28.7761C17.4826 28.8042 17.4585 28.8382 17.442 28.8761C17.4256 28.9139 17.4172 28.9548 17.4173 28.9961C17.4065 29.0215 17.401 29.0489 17.401 29.0766C17.401 29.1042 17.4065 29.1316 17.4173 29.157C17.5189 29.1349 17.6085 29.0752 17.6682 28.99C17.7278 28.9048 17.7532 28.8002 17.7393 28.6971Z" fill="#FCBC08"/>
<path d="M19.8324 28.421C19.5334 28.766 20.3384 28.743 20.3844 28.421C20.4304 28.099 19.8784 28.214 19.8324 28.421Z" fill="#FCBC08"/>
<path d="M16.7275 34.2857C16.5435 34.2857 16.5435 34.4697 16.5665 34.6077C16.5895 34.7457 16.5665 35.5506 16.8655 35.4126C17.1644 35.2746 16.9575 34.4697 16.7275 34.2857Z" fill="#FCBC08"/>
<path d="M15.7157 34.4697C15.5087 34.7916 16.0836 35.1136 16.0376 34.4697C15.9916 33.8257 15.7846 34.3087 15.7157 34.4697Z" fill="#FCBC08"/>
<path d="M18.1073 33.7108C18.0811 33.7434 18.0669 33.7839 18.0669 33.8257C18.0669 33.8675 18.0811 33.9081 18.1073 33.9407C18.2682 33.9407 18.5442 33.6418 18.4752 33.4348C18.4062 33.2278 18.0153 33.4808 18.1073 33.7108Z" fill="#FCBC08"/>
<path d="M19.7172 30.5369C19.9242 30.5369 20.2231 30.3069 19.9701 30.1919C19.7172 30.0769 19.7172 30.3989 19.7172 30.5369Z" fill="#FCBC08"/>
<path d="M22.0861 27.2942C21.6492 27.2942 21.5342 27.8691 21.8561 27.7081C22.1781 27.5471 22.5231 27.3631 22.0861 27.2942Z" fill="#FCBC08"/>
<path d="M18.1074 36.3096V36.1946C18.0945 36.2875 18.1 36.382 18.1237 36.4728C18.1473 36.5636 18.1887 36.6488 18.2454 36.7235C18.3834 36.7235 18.4754 36.1026 18.2454 35.9646C18.0154 35.8266 18.0614 36.0796 18.1074 36.3096Z" fill="#FCBC08"/>
<path d="M20.2003 32.6988C20.2003 32.6988 20.5682 32.3078 20.3153 32.2618C20.0623 32.2158 20.1083 32.5608 20.2003 32.6988Z" fill="#FCBC08"/>
<path d="M16.1524 36.5626V36.7006C16.3823 36.7006 16.7273 36.1256 16.3364 35.9877C15.9454 35.8497 16.0144 36.3326 16.1524 36.5626Z" fill="#FCBC08"/>
<path d="M16.0144 35.3206C16.0144 35.3206 16.0144 35.5046 16.0144 35.6196C16.0528 35.6074 16.0881 35.5869 16.1178 35.5596C16.1474 35.5323 16.1707 35.4989 16.1861 35.4616C16.2014 35.4244 16.2084 35.3842 16.2066 35.3439C16.2047 35.3037 16.1941 35.2643 16.1754 35.2286C16.1433 35.2304 16.112 35.2396 16.084 35.2556C16.0561 35.2715 16.0322 35.2938 16.0144 35.3206Z" fill="#FCBC08"/>
<path d="M22.385 26.3281C22.3421 26.3348 22.2982 26.3321 22.2564 26.3201C22.2147 26.3081 22.176 26.2871 22.1432 26.2586C22.1104 26.2302 22.0841 26.1949 22.0663 26.1553C22.0485 26.1156 22.0395 26.0726 22.04 26.0291C21.9822 25.1193 21.8747 24.2134 21.7181 23.3153C21.7181 22.5564 20.7521 20.0955 20.7521 20.0955C20.7237 20.0383 20.709 19.9753 20.709 19.9115C20.709 19.8477 20.7237 19.7847 20.7521 19.7275C20.9131 19.7275 21.0971 19.8655 21.0971 19.8655C21.0971 19.8655 21.948 22.1654 22.086 23.0393C22.293 24.2123 22.454 25.3392 22.523 25.9831C22.5295 26.0225 22.5281 26.0627 22.5189 26.1015C22.5096 26.1402 22.4927 26.1768 22.4692 26.2089C22.4456 26.2411 22.4158 26.2682 22.3816 26.2886C22.3474 26.3091 22.3095 26.3225 22.27 26.3281H22.385Z" fill="#7C6A13"/>
<path d="M21.7643 22.1654L19.6714 23.8443V24.0053L20.7523 23.2233L21.8333 22.4184L21.7643 22.1654Z" fill="#7C6A13"/>
<path d="M20.0393 28.2371C18.7579 29.9222 17.0286 31.2133 15.0486 31.9628C14.975 31.9978 14.8937 32.0135 14.8123 32.0085C14.7309 32.0036 14.6521 31.9781 14.5832 31.9345C14.5143 31.8909 14.4576 31.8305 14.4184 31.7591C14.3791 31.6876 14.3586 31.6074 14.3587 31.5259C14.2229 29.7013 14.6056 27.8756 15.4626 26.2592C16.0872 25.3073 16.9138 24.5047 17.8837 23.9084C18.8536 23.3122 19.9429 22.9369 21.0743 22.8094C21.2679 24.6809 20.908 26.5681 20.0393 28.2371Z" fill="#7C6A13"/>
<path d="M20.9362 22.8094C19.6319 24.0639 18.4176 25.4088 17.3024 26.8341C16.219 28.3332 15.3302 29.9638 14.6576 31.6869C14.7956 31.6869 16.2675 28.329 17.3944 27.0871C18.5214 25.8452 21.0972 23.0394 21.0972 23.0394L20.9362 22.8094Z" fill="#937B18"/>
<path d="M19.7863 24.3272C19.95 24.6092 20.0519 24.9228 20.0852 25.2472C20.1385 25.7181 20.2466 26.1812 20.4072 26.6271C20.3911 26.147 20.3295 25.6696 20.2232 25.2012C20.2232 24.7642 19.9702 24.1662 19.9702 24.1662L19.7863 24.3272Z" fill="#937B18"/>
<path d="M18.3143 25.7992C18.6094 26.1919 18.8279 26.6366 18.9583 27.1102C19.3263 28.1221 19.3953 28.4441 19.4873 28.3751C19.5793 28.3061 19.3033 27.5471 19.0963 26.9952C18.8893 26.4432 18.4983 25.5693 18.4983 25.5693L18.3143 25.7992Z" fill="#937B18"/>
<path d="M16.9574 27.501C17.2139 27.7361 17.4245 28.0169 17.5784 28.329C17.9233 28.973 18.0383 29.4559 18.1533 29.4099C18.2683 29.3639 17.9463 28.743 17.6704 28.283C17.3944 27.823 17.0954 27.2021 17.0954 27.2021L16.9574 27.501Z" fill="#937B18"/>
<path d="M15.8304 29.479C15.9747 29.6258 16.0915 29.7971 16.1754 29.985C16.2636 30.2309 16.3712 30.4693 16.4974 30.698C16.5114 30.4397 16.4472 30.1833 16.3134 29.962L15.9224 29.318L15.8304 29.479Z" fill="#937B18"/>
<path d="M19.9243 24.1203C19.5502 24.0719 19.1714 24.0719 18.7973 24.1203C18.4254 24.1817 18.0763 24.3404 17.7854 24.5802C17.7854 24.5802 18.3144 24.3273 18.7283 24.2353C19.0783 24.1738 19.4363 24.1738 19.7863 24.2353L19.9243 24.1203Z" fill="#937B18"/>
<path d="M18.3373 25.6383C17.9955 25.4976 17.6225 25.45 17.2563 25.5003C16.732 25.5974 16.2411 25.827 15.8304 26.1672C16.2699 25.9357 16.7324 25.7507 17.2104 25.6153C17.547 25.6278 17.8767 25.7142 18.1763 25.8683L18.3373 25.6383Z" fill="#937B18"/>
<path d="M17.1413 27.2021C16.7194 27.1837 16.2978 27.2462 15.8994 27.3861C15.5107 27.5244 15.1517 27.7351 14.8414 28.0071C15.2172 27.7924 15.6094 27.6078 16.0143 27.4551C16.7963 27.2481 17.0263 27.4551 17.0263 27.4551L17.1413 27.2021Z" fill="#937B18"/>
<path d="M15.7844 29.433C15.7844 29.433 15.6234 29.433 15.1635 29.571C14.7035 29.709 14.4045 29.8929 14.4735 29.8239C14.6516 29.6878 14.8445 29.572 15.0485 29.479C15.3233 29.3674 15.6083 29.2827 15.8994 29.226L15.7844 29.433Z" fill="#937B18"/>
<path d="M37.4263 12H34.6664C29.0604 12.0182 23.6891 14.2533 19.725 18.2174C15.7609 22.1815 13.5259 27.5527 13.5077 33.1588V36.9535C13.5131 37.0372 13.5488 37.116 13.608 37.1752C13.6673 37.2345 13.7461 37.2701 13.8297 37.2755H58.3551C58.4387 37.2701 58.5175 37.2345 58.5767 37.1752C58.636 37.116 58.6716 37.0372 58.677 36.9535V33.0668C58.6345 27.4608 56.3761 22.0992 52.3948 18.1523C48.4134 14.2055 43.0324 11.9938 37.4263 12ZM55.1352 33.8257H16.9575V33.1588C16.9636 28.4639 18.8313 23.9631 22.151 20.6434C25.4708 17.3236 29.9716 15.4559 34.6664 15.4498H37.4263C42.1211 15.4559 46.6219 17.3236 49.9417 20.6434C53.2614 23.9631 55.1292 28.4639 55.1352 33.1588V33.8257Z" fill="#4D4D4D"/>
<path d="M42.417 60.8951H29.2158C26.0144 60.922 22.9001 59.8531 20.39 57.866C17.8799 55.8788 16.125 53.0929 15.4166 49.9708L12.8407 38.7244C12.7732 38.2393 12.807 37.7454 12.9401 37.2739C13.0731 36.8025 13.3025 36.3638 13.6138 35.9856C13.925 35.6073 14.3113 35.2977 14.7483 35.0764C15.1853 34.8551 15.6634 34.7268 16.1525 34.6997H55.2502C55.7393 34.7268 56.2175 34.8551 56.6545 35.0764C57.0914 35.2977 57.4778 35.6073 57.789 35.9856C58.1002 36.3638 58.3296 36.8025 58.4627 37.2739C58.5958 37.7454 58.6296 38.2393 58.562 38.7244L56.0552 49.9708C55.3528 53.0659 53.6217 55.8314 51.1446 57.8156C48.6675 59.7997 45.5908 60.8854 42.417 60.8951Z" fill="#4D4D4D"/>
<path d="M20.7247 44.439L20.259 44.5672C19.5855 44.7526 19.1897 45.4489 19.3751 46.1225L21.3466 53.2847C21.532 53.9582 22.2283 54.3539 22.9018 54.1685L23.3675 54.0404C24.041 53.855 24.4368 53.1586 24.2514 52.4851L22.2799 45.3229C22.0945 44.6494 21.3982 44.2536 20.7247 44.439Z" fill="white"/>
<path d="M30.5203 43.7934L30.0437 43.872C29.3544 43.9856 28.8878 44.6365 29.0014 45.3258L30.2095 52.6554C30.3232 53.3447 30.9741 53.8114 31.6634 53.6978L32.1399 53.6192C32.8292 53.5056 33.2959 52.8547 33.1823 52.1654L31.9741 44.8358C31.8605 44.1465 31.2096 43.6798 30.5203 43.7934Z" fill="white"/>
<path d="M41.7871 43.7968L41.3062 43.7527C40.6105 43.6889 39.9948 44.2011 39.931 44.8968L39.2526 52.2943C39.1887 52.99 39.701 53.6057 40.3967 53.6695L40.8776 53.7136C41.5733 53.7774 42.189 53.2651 42.2528 52.5695L42.9312 45.172C42.995 44.4763 42.4828 43.8606 41.7871 43.7968Z" fill="white"/>
<path d="M51.4697 44.4223L51.0015 44.3036C50.3243 44.1318 49.6362 44.5416 49.4645 45.2187L47.6384 52.4194C47.4667 53.0965 47.8764 53.7847 48.5536 53.9564L49.0217 54.0751C49.6989 54.2469 50.387 53.8371 50.5588 53.16L52.3848 45.9593C52.5566 45.2822 52.1468 44.594 51.4697 44.4223Z" fill="white"/>
<path d="M59.2981 34.2857H12.2888C10.4724 34.2857 9 35.7582 9 37.5745V37.6895C9 39.5059 10.4724 40.9783 12.2888 40.9783H59.2981C61.1144 40.9783 62.5868 39.5059 62.5868 37.6895V37.5745C62.5868 35.7582 61.1144 34.2857 59.2981 34.2857Z" fill="white"/>
<path d="M59.3211 32.9287H12.3119C10.4955 32.9287 9.02307 34.4012 9.02307 36.2175V36.3325C9.02307 38.1489 10.4955 39.6213 12.3119 39.6213H59.3211C61.1375 39.6213 62.6099 38.1489 62.6099 36.3325V36.2175C62.6099 34.4012 61.1375 32.9287 59.3211 32.9287Z" fill="#4D4D4D"/>
<defs>
<linearGradient id="paint0_linear_336_48294" x1="39.9998" y1="25.0724" x2="51.8216" y2="36.9936" gradientUnits="userSpaceOnUse">
<stop stop-color="#B02739"/>
<stop offset="0.49" stop-color="#EF4054"/>
<stop offset="1" stop-color="#F04E54"/>
</linearGradient>
<linearGradient id="paint1_linear_336_48294" x1="51.5241" y1="22.6163" x2="55.5565" y2="26.6826" gradientUnits="userSpaceOnUse">
<stop stop-color="#4E724E"/>
<stop offset="1" stop-color="#4B8E42"/>
</linearGradient>
<linearGradient id="paint2_linear_336_48294" x1="47.5605" y1="21.4937" x2="50.3783" y2="24.3352" gradientUnits="userSpaceOnUse">
<stop stop-color="#5B3735"/>
<stop offset="1" stop-color="#492B2B"/>
</linearGradient>
<linearGradient id="paint3_linear_336_48294" x1="26.2759" y1="37.5172" x2="42.037" y2="30.5658" gradientUnits="userSpaceOnUse">
<stop stop-color="#FAA64F"/>
<stop offset="0.5" stop-color="#FFC531"/>
<stop offset="1" stop-color="#FFD250"/>
</linearGradient>
<linearGradient id="paint4_linear_336_48294" x1="36.734" y1="23.1015" x2="43.3415" y2="20.1873" gradientUnits="userSpaceOnUse">
<stop stop-color="#4E724E"/>
<stop offset="1" stop-color="#4B8E42"/>
</linearGradient>
<linearGradient id="paint5_linear_336_48294" x1="17.4887" y1="39.5502" x2="29.3378" y2="27.3655" gradientUnits="userSpaceOnUse">
<stop stop-color="#FF8C03"/>
<stop offset="1" stop-color="#FBB040"/>
</linearGradient>
</defs>
</svg>
