<svg width="329" height="139" viewBox="0 0 329 139" fill="none" xmlns="http://www.w3.org/2000/svg">
<path d="M328 31V132.217C328 135.969 322.587 139 315.906 139H12.0939C5.41272 139 0 135.999 0 132.217V31C107.117 32.2705 168.44 32.2705 328 31Z" fill="#8AC48A"/>
<path d="M29.53 63.06C45.839 63.06 59.06 49.839 59.06 33.53C59.06 17.221 45.839 4 29.53 4C13.221 4 0 17.221 0 33.53C0 49.839 13.221 63.06 29.53 63.06Z" fill="#8AC48A"/>
<path d="M84.5 72C101.897 72 116 57.897 116 40.5C116 23.103 101.897 9 84.5 9C67.103 9 53 23.103 53 40.5C53 57.897 67.103 72 84.5 72Z" fill="#8AC48A"/>
<path d="M147 78C168.539 78 186 60.5391 186 39C186 17.4609 168.539 0 147 0C125.461 0 108 17.4609 108 39C108 60.5391 125.461 78 147 78Z" fill="#8AC48A"/>
<path d="M204.79 57.58C217.377 57.58 227.58 47.3766 227.58 34.79C227.58 22.2034 217.377 12 204.79 12C192.203 12 182 22.2034 182 34.79C182 47.3766 192.203 57.58 204.79 57.58Z" fill="#8AC48A"/>
<path d="M249.97 57.94C263.761 57.94 274.94 46.7606 274.94 32.97C274.94 19.1795 263.761 8 249.97 8C236.179 8 225 19.1795 225 32.97C225 46.7606 236.179 57.94 249.97 57.94Z" fill="#8AC48A"/>
<path d="M300.53 60.06C315.734 60.06 328.06 47.7344 328.06 32.53C328.06 17.3256 315.734 5 300.53 5C285.326 5 273 17.3256 273 32.53C273 47.7344 285.326 60.06 300.53 60.06Z" fill="#8AC48A"/>
</svg>
