<svg width="369" height="177" viewBox="0 0 369 177" fill="none" xmlns="http://www.w3.org/2000/svg">
<path d="M40.5533 87.1894L59.0707 67.9431C60.1264 66.8491 61.4595 66.0624 62.9275 65.6672C64.3956 65.2719 65.9434 65.283 67.4057 65.6991C68.8679 66.1152 70.1897 66.9208 71.2296 68.0298C72.2696 69.1388 72.9887 70.5095 73.3102 71.9954L79.1413 99.086C79.2522 99.6289 79.4826 100.14 79.8158 100.583C80.149 101.026 80.5767 101.389 81.0677 101.646L102.874 113.273C104.173 113.967 105.266 114.991 106.043 116.241C106.821 117.492 107.255 118.925 107.302 120.397C107.35 121.868 107.009 123.327 106.314 124.625C105.619 125.923 104.594 127.015 103.342 127.791L82.0309 141.006C81.5904 141.274 81.2093 141.63 80.9109 142.051C80.6125 142.471 80.4031 142.949 80.2954 143.453L74.8634 169.876C74.5593 171.309 73.8851 172.638 72.9079 173.73C71.9307 174.821 70.6846 175.638 69.2936 176.099C67.9026 176.56 66.4153 176.648 64.9795 176.356C63.5437 176.063 62.2096 175.4 61.1099 174.431L41.881 157.302C41.4682 156.935 40.9802 156.662 40.4511 156.503C39.9221 156.345 39.3646 156.303 38.8179 156.382L11.9182 160.331C10.4176 160.549 8.88591 160.356 7.48596 159.774C6.08601 159.191 4.87014 158.24 3.96759 157.021C3.06505 155.803 2.50957 154.362 2.36022 152.853C2.21087 151.344 2.47323 149.823 3.11941 148.451L14.6429 124.077C14.9039 123.532 15.0307 122.932 15.0126 122.329C14.9945 121.725 14.832 121.134 14.5387 120.606L1.29718 96.4481C0.548069 95.0772 0.196524 93.5244 0.282146 91.9646C0.367769 90.4047 0.887152 88.8997 1.78181 87.6191C2.67646 86.3384 3.91087 85.3329 5.34604 84.7159C6.78121 84.0988 8.36013 83.8946 9.90506 84.1263L37.2733 88.2741C37.8669 88.3674 38.4742 88.3177 39.0447 88.129C39.6152 87.9404 40.1324 87.6182 40.5533 87.1894Z" fill="url(#paint0_linear_3418_687)"/>
<path d="M35.8259 103.261C35.8259 103.261 33.4049 100.658 35.4267 98.2456" stroke="#A0585D" stroke-width="0.46" stroke-miterlimit="10" stroke-linecap="round"/>
<path d="M35.3661 103.703C35.3661 103.703 32.5634 102.61 33.084 100.449" stroke="#A0585D" stroke-width="0.46" stroke-miterlimit="10" stroke-linecap="round"/>
<path d="M40.3273 116.032C44.1552 115.122 46.5207 111.281 45.6109 107.453C44.7011 103.626 40.8605 101.26 37.0326 102.17C33.2047 103.08 30.8391 106.92 31.7489 110.748C32.6587 114.576 36.4994 116.942 40.3273 116.032Z" fill="white"/>
<path d="M40.6627 113.882C42.6467 113.882 44.2551 112.273 44.2551 110.289C44.2551 108.305 42.6467 106.697 40.6627 106.697C38.6787 106.697 37.0703 108.305 37.0703 110.289C37.0703 112.273 38.6787 113.882 40.6627 113.882Z" fill="url(#paint1_linear_3418_687)"/>
<path d="M42.4241 111.522C42.9992 111.522 43.4654 111.056 43.4654 110.48C43.4654 109.905 42.9992 109.439 42.4241 109.439C41.849 109.439 41.3828 109.905 41.3828 110.48C41.3828 111.056 41.849 111.522 42.4241 111.522Z" fill="white"/>
<path d="M70.543 113.795C70.543 113.795 74.0139 112.927 73.6668 109.846" stroke="#A0585D" stroke-width="0.46" stroke-miterlimit="10" stroke-linecap="round"/>
<path d="M70.6719 114.403C70.6719 114.403 73.6048 115.045 74.3684 112.962" stroke="#A0585D" stroke-width="0.46" stroke-miterlimit="10" stroke-linecap="round"/>
<path d="M66.6644 123.942C70.4817 122.989 72.8036 119.121 71.8504 115.304C70.8972 111.487 67.03 109.165 63.2127 110.118C59.3953 111.071 57.0735 114.939 58.0267 118.756C58.9798 122.573 62.8471 124.895 66.6644 123.942Z" fill="white"/>
<path d="M62.612 120.529C64.596 120.529 66.2043 118.921 66.2043 116.937C66.2043 114.953 64.596 113.344 62.612 113.344C60.6279 113.344 59.0195 114.953 59.0195 116.937C59.0195 118.921 60.6279 120.529 62.612 120.529Z" fill="url(#paint2_linear_3418_687)"/>
<path d="M61.053 117.171C61.6281 117.171 62.0943 116.705 62.0943 116.13C62.0943 115.555 61.6281 115.089 61.053 115.089C60.4779 115.089 60.0117 115.555 60.0117 116.13C60.0117 116.705 60.4779 117.171 61.053 117.171Z" fill="white"/>
<mask id="mask0_3418_687" style="mask-type:luminance" maskUnits="userSpaceOnUse" x="42" y="120" width="15" height="8">
<path d="M42.0289 120.537C41.9508 121.725 42.2284 125.379 48.2592 126.862C50.9318 127.522 53.0751 127.322 54.6283 126.272C55.4593 125.699 56.1024 124.893 56.4766 123.955C54.2364 123.878 52.011 123.561 49.8384 123.01C47.192 122.329 44.5849 121.503 42.0289 120.537Z" fill="white"/>
</mask>
<g mask="url(#mask0_3418_687)">
<path d="M43.762 125.013C44.6058 125.604 45.4902 126.135 46.4086 126.601C46.6949 126.601 49.0552 127.252 49.0552 127.252L50.7906 127.434L52.4393 127.339L54.0359 126.853L55.0946 126.176L55.3636 125.682L42.1914 122.471L42.6426 123.703L43.762 125.013Z" fill="url(#paint3_linear_3418_687)"/>
<path d="M41.7695 122.333L55.6532 125.751L56.278 125.066L56.8681 123.599L54.1781 123.4L51.5749 123.053L48.4944 122.289L44.633 121.031L41.8389 119.868L41.7695 122.333Z" fill="white"/>
<path d="M50.2231 127.409L49.8934 127.453C49.8934 127.453 47.6199 127.314 47.5505 127.323C47.3115 127.26 47.0767 127.181 46.8477 127.088C47.4724 126.776 47.5071 126.377 47.8282 125.353C48.2707 123.956 49.9281 124.65 49.9281 124.65C49.9281 124.65 51.5768 125.5 50.2231 127.409Z" fill="url(#paint4_linear_3418_687)"/>
</g>
<path d="M293.203 91.6414L300.405 66.2169C300.814 64.769 301.61 63.4598 302.707 62.4299C303.803 61.3999 305.16 60.688 306.631 60.3705C308.101 60.0529 309.631 60.1418 311.055 60.6276C312.479 61.1134 313.744 61.9776 314.714 63.1277L332.424 84.0575C332.775 84.4725 333.213 84.8063 333.706 85.0355C334.199 85.2648 334.735 85.384 335.279 85.3851H359.732C361.19 85.3829 362.622 85.7654 363.885 86.4939C365.148 87.2224 366.196 88.271 366.924 89.5341C367.652 90.7972 368.033 92.2299 368.031 93.6877C368.028 95.1455 367.641 96.5767 366.908 97.837L354.456 119.296C354.202 119.736 354.04 120.222 353.98 120.727C353.92 121.231 353.964 121.742 354.109 122.229L361.667 147.836C362.082 149.233 362.121 150.714 361.781 152.131C361.441 153.548 360.733 154.85 359.729 155.906C358.725 156.962 357.46 157.735 356.062 158.146C354.664 158.557 353.182 158.593 351.766 158.248L326.992 152.261C326.462 152.132 325.909 152.121 325.374 152.229C324.839 152.337 324.334 152.561 323.895 152.886L302.262 168.852C301.054 169.742 299.628 170.288 298.134 170.432C296.641 170.575 295.136 170.311 293.781 169.667C292.426 169.023 291.271 168.024 290.439 166.776C289.606 165.528 289.128 164.077 289.055 162.578L287.753 135.93C287.72 135.337 287.545 134.761 287.243 134.249C286.941 133.737 286.521 133.305 286.018 132.989L263.292 118.046C262 117.202 260.97 116.014 260.316 114.616C259.662 113.219 259.412 111.666 259.592 110.133C259.772 108.601 260.377 107.149 261.337 105.941C262.297 104.733 263.575 103.816 265.028 103.295L290.86 94.1578C291.424 93.9583 291.932 93.6252 292.34 93.1871C292.748 92.7489 293.044 92.2186 293.203 91.6414Z" fill="url(#paint5_linear_3418_687)"/>
<path d="M310.711 120.527C311.901 119.604 313.296 118.982 314.777 118.711C316.259 118.441 317.784 118.531 319.223 118.974C319.603 119.092 319.939 119.32 320.189 119.629C320.439 119.938 320.592 120.314 320.629 120.709C320.802 122.688 320.351 125.43 316.29 126.41C312.229 127.391 310.624 124.675 310.016 122.67C309.898 122.285 309.901 121.873 310.025 121.489C310.149 121.106 310.389 120.77 310.711 120.527Z" fill="url(#paint6_linear_3418_687)"/>
<mask id="mask1_3418_687" style="mask-type:luminance" maskUnits="userSpaceOnUse" x="309" y="117" width="12" height="10">
<path d="M310.523 119.556C311.724 118.627 313.131 118.003 314.626 117.737C316.121 117.471 317.657 117.571 319.105 118.029C319.842 118.263 320.545 119.903 320.615 120.632C320.797 122.611 320.38 125.396 316.276 126.385C312.172 127.374 310.61 124.65 310.002 122.645C309.733 121.882 309.846 120.051 310.523 119.556Z" fill="white"/>
</mask>
<g mask="url(#mask1_3418_687)">
<path d="M311.25 126.428C311.25 126.428 313.931 118.922 319.624 123.686C325.316 128.45 311.25 126.428 311.25 126.428Z" fill="url(#paint7_linear_3418_687)"/>
</g>
<path d="M330.053 112.483C333.256 110.411 334.173 106.135 332.101 102.932C330.028 99.7294 325.752 98.8127 322.549 100.885C319.346 102.957 318.43 107.233 320.502 110.436C322.574 113.639 326.85 114.555 330.053 112.483Z" fill="white"/>
<path d="M325.124 111.643C327.434 111.643 329.306 109.771 329.306 107.461C329.306 105.151 327.434 103.279 325.124 103.279C322.814 103.279 320.941 105.151 320.941 107.461C320.941 109.771 322.814 111.643 325.124 111.643Z" fill="url(#paint8_linear_3418_687)"/>
<path d="M323.074 108.624C323.745 108.624 324.289 108.08 324.289 107.409C324.289 106.738 323.745 106.194 323.074 106.194C322.403 106.194 321.859 106.738 321.859 107.409C321.859 108.08 322.403 108.624 323.074 108.624Z" fill="white"/>
<path d="M303.612 117.737C306.814 115.665 307.731 111.389 305.659 108.186C303.587 104.983 299.311 104.066 296.108 106.138C292.905 108.21 291.988 112.487 294.06 115.69C296.132 118.892 300.409 119.809 303.612 117.737Z" fill="white"/>
<path d="M301.511 116.233C303.821 116.233 305.693 114.36 305.693 112.05C305.693 109.74 303.821 107.868 301.511 107.868C299.201 107.868 297.328 109.74 297.328 112.05C297.328 114.36 299.201 116.233 301.511 116.233Z" fill="url(#paint9_linear_3418_687)"/>
<path d="M299.523 113.196C300.194 113.196 300.738 112.652 300.738 111.981C300.738 111.31 300.194 110.766 299.523 110.766C298.853 110.766 298.309 111.31 298.309 111.981C298.309 112.652 298.853 113.196 299.523 113.196Z" fill="white"/>
<path d="M155.807 27.9584L168.536 4.59034C169.259 3.25685 170.331 2.14549 171.638 1.37564C172.945 0.605794 174.437 0.206554 175.954 0.220829C177.47 0.235104 178.954 0.662351 180.247 1.45666C181.539 2.25097 182.59 3.38232 183.288 4.72918L196.017 29.2252C196.27 29.7122 196.626 30.1379 197.06 30.4723C197.495 30.8066 197.998 31.0415 198.534 31.1603L222.509 36.5662C223.955 36.8775 225.293 37.567 226.385 38.5643C227.477 39.5617 228.286 40.8311 228.727 42.243C229.168 43.6548 229.226 45.1585 228.896 46.6004C228.566 48.0423 227.859 49.3707 226.848 50.45L209.849 68.7504C209.501 69.1269 209.233 69.5703 209.061 70.0536C208.89 70.5369 208.818 71.0501 208.851 71.5618L210.586 98.3748C210.681 99.8386 210.388 101.301 209.737 102.616C209.087 103.931 208.102 105.051 206.881 105.865C205.661 106.678 204.248 107.156 202.784 107.25C201.32 107.345 199.857 107.052 198.542 106.401L175.556 95.008C175.063 94.7642 174.522 94.6309 173.972 94.6174C173.422 94.6039 172.876 94.7106 172.372 94.9299L147.537 105.777C146.153 106.381 144.632 106.599 143.134 106.407C141.636 106.216 140.219 105.622 139.031 104.689C137.844 103.757 136.932 102.52 136.391 101.11C135.851 99.7 135.702 98.1701 135.962 96.6827L140.613 70.2256C140.715 69.6402 140.678 69.039 140.504 68.4707C140.331 67.9023 140.026 67.3828 139.615 66.9542L120.525 47.222C119.433 46.1047 118.677 44.7036 118.342 43.1779C118.008 41.6523 118.108 40.0634 118.631 38.5918C119.154 37.1202 120.08 35.8249 121.303 34.8533C122.526 33.8816 123.997 33.2726 125.549 33.0953L152.943 29.8674C153.538 29.8003 154.108 29.5921 154.606 29.26C155.104 28.9279 155.516 28.4817 155.807 27.9584Z" fill="url(#paint10_linear_3418_687)"/>
<path d="M163.689 54.6792C166.906 52.5062 167.752 48.1371 165.579 44.9205C163.406 41.7038 159.037 40.8577 155.82 43.0307C152.604 45.2036 151.758 49.5727 153.931 52.7893C156.103 56.006 160.473 56.8521 163.689 54.6792Z" fill="white"/>
<path d="M163.953 53.2037C165.906 51.886 166.421 49.2346 165.103 47.2815C163.785 45.3285 161.134 44.8135 159.181 46.1312C157.228 47.4489 156.713 50.1003 158.03 52.0534C159.348 54.0064 162 54.5214 163.953 53.2037Z" fill="url(#paint11_linear_3418_687)"/>
<path d="M163.769 50.2C164.337 49.8164 164.486 49.045 164.103 48.4772C163.719 47.9093 162.948 47.7599 162.38 48.1435C161.812 48.5272 161.663 49.2985 162.046 49.8664C162.43 50.4342 163.201 50.5836 163.769 50.2Z" fill="white"/>
<path d="M191.08 55.413C194.296 53.2401 195.143 48.871 192.97 45.6544C190.797 42.4377 186.428 41.5916 183.211 43.7645C179.994 45.9375 179.148 50.3066 181.321 53.5232C183.494 56.7399 187.863 57.586 191.08 55.413Z" fill="white"/>
<path d="M187.867 53.3797C189.817 52.0625 190.329 49.4141 189.012 47.4642C187.695 45.5144 185.047 45.0015 183.097 46.3187C181.147 47.6359 180.634 50.2843 181.951 52.2341C183.269 54.1839 185.917 54.6968 187.867 53.3797Z" fill="url(#paint12_linear_3418_687)"/>
<path d="M188.171 50.5921C188.739 50.2085 188.889 49.4371 188.505 48.8693C188.121 48.3014 187.35 48.152 186.782 48.5356C186.214 48.9192 186.065 49.6906 186.448 50.2585C186.832 50.8263 187.603 50.9757 188.171 50.5921Z" fill="white"/>
<mask id="mask2_3418_687" style="mask-type:luminance" maskUnits="userSpaceOnUse" x="165" y="58" width="16" height="8">
<path d="M172.389 59.4046C170.217 59.4053 168.054 59.1519 165.941 58.6497C166.028 60.2994 166.636 61.8792 167.677 63.1618C168.344 63.8631 169.154 64.4123 170.053 64.7717C170.951 65.1311 171.917 65.2923 172.883 65.2444C179.035 65.3051 180.103 60.3851 180.285 58.936C177.664 59.2468 175.028 59.4032 172.389 59.4046Z" fill="white"/>
</mask>
<g mask="url(#mask2_3418_687)">
<path d="M177.875 64.1771C177.875 64.1771 175.064 65.687 174.76 65.5915C173.803 65.541 172.845 65.541 171.888 65.5915L170.074 65.1923L168.426 64.4027L166.925 63.0317L166.057 61.5826L165.918 60.7148L180.218 60.8624L179.429 62.5978L177.875 64.1771Z" fill="url(#paint13_linear_3418_687)"/>
<path d="M173.333 65.713C171.903 65.518 170.496 65.1808 169.133 64.7065L169.22 64.1424C169.409 63.601 169.772 63.1374 170.252 62.8236C170.733 62.5097 171.303 62.3633 171.875 62.407C173.35 62.407 174.539 63.3875 174.53 64.5763C174.518 64.9851 174.372 65.3786 174.114 65.6957C173.854 65.7225 173.593 65.7283 173.333 65.713Z" fill="url(#paint14_linear_3418_687)"/>
</g>
<defs>
<linearGradient id="paint0_linear_3418_687" x1="25.1954" y1="271.305" x2="70.8406" y2="26.0448" gradientUnits="userSpaceOnUse">
<stop offset="0.02" stop-color="#FEAD82"/>
<stop offset="0.28" stop-color="#F5848A"/>
<stop offset="0.96" stop-color="#FABB8A"/>
</linearGradient>
<linearGradient id="paint1_linear_3418_687" x1="32.8047" y1="110.189" x2="25.9874" y2="107.892" gradientUnits="userSpaceOnUse">
<stop stop-color="#242F3D"/>
<stop offset="1" stop-color="#212E5D"/>
</linearGradient>
<linearGradient id="paint2_linear_3418_687" x1="61.1986" y1="122.7" x2="68.1678" y2="124.569" gradientUnits="userSpaceOnUse">
<stop stop-color="#242F3D"/>
<stop offset="1" stop-color="#212E5D"/>
</linearGradient>
<linearGradient id="paint3_linear_3418_687" x1="41.8811" y1="123.697" x2="54.9922" y2="127.235" gradientUnits="userSpaceOnUse">
<stop stop-color="#242F3D"/>
<stop offset="1" stop-color="#212E5D"/>
</linearGradient>
<linearGradient id="paint4_linear_3418_687" x1="47.8754" y1="104.055" x2="43.9619" y2="104.133" gradientUnits="userSpaceOnUse">
<stop stop-color="#DE7C6B"/>
<stop offset="0.58" stop-color="#F39D98"/>
<stop offset="0.92" stop-color="#FAB397"/>
</linearGradient>
<linearGradient id="paint5_linear_3418_687" x1="259.047" y1="15.2545" x2="366.61" y2="193.183" gradientUnits="userSpaceOnUse">
<stop stop-color="#D7E591"/>
<stop offset="0.3" stop-color="#C2DB76"/>
<stop offset="0.63" stop-color="#A2C06B"/>
<stop offset="1" stop-color="#92B569"/>
</linearGradient>
<linearGradient id="paint6_linear_3418_687" x1="302.222" y1="103.207" x2="313.042" y2="102.125" gradientUnits="userSpaceOnUse">
<stop stop-color="#242F3D"/>
<stop offset="1" stop-color="#212E5D"/>
</linearGradient>
<linearGradient id="paint7_linear_3418_687" x1="304.288" y1="129.954" x2="313.83" y2="128.104" gradientUnits="userSpaceOnUse">
<stop stop-color="#F47959"/>
<stop offset="0.58" stop-color="#F39D98"/>
<stop offset="0.92" stop-color="#FAB397"/>
</linearGradient>
<linearGradient id="paint8_linear_3418_687" x1="314.173" y1="112.594" x2="322.38" y2="111.003" gradientUnits="userSpaceOnUse">
<stop stop-color="#242F3D"/>
<stop offset="1" stop-color="#212E5D"/>
</linearGradient>
<linearGradient id="paint9_linear_3418_687" x1="290.607" y1="117.206" x2="298.805" y2="115.616" gradientUnits="userSpaceOnUse">
<stop stop-color="#242F3D"/>
<stop offset="1" stop-color="#212E5D"/>
</linearGradient>
<linearGradient id="paint10_linear_3418_687" x1="161.653" y1="-68.1371" x2="179.89" y2="96.3059" gradientUnits="userSpaceOnUse">
<stop stop-color="#FDD651"/>
<stop offset="0.67" stop-color="#FFD168"/>
<stop offset="1" stop-color="#FCBD5A"/>
</linearGradient>
<linearGradient id="paint11_linear_3418_687" x1="179.979" y1="39.5691" x2="171.512" y2="38.9068" gradientUnits="userSpaceOnUse">
<stop stop-color="#242F3D"/>
<stop offset="1" stop-color="#212E5D"/>
</linearGradient>
<linearGradient id="paint12_linear_3418_687" x1="203.77" y1="39.8356" x2="195.314" y2="39.1789" gradientUnits="userSpaceOnUse">
<stop stop-color="#242F3D"/>
<stop offset="1" stop-color="#212E5D"/>
</linearGradient>
<linearGradient id="paint13_linear_3418_687" x1="166.343" y1="64.6918" x2="180.643" y2="64.5488" gradientUnits="userSpaceOnUse">
<stop stop-color="#762124"/>
<stop offset="0.22" stop-color="#4C181A"/>
<stop offset="0.39" stop-color="#311213"/>
<stop offset="0.49" stop-color="#271011"/>
<stop offset="1" stop-color="#762124"/>
</linearGradient>
<linearGradient id="paint14_linear_3418_687" x1="174.496" y1="56.4818" x2="169.098" y2="56.5358" gradientUnits="userSpaceOnUse">
<stop stop-color="#F8A7A1"/>
<stop offset="1" stop-color="#F08890"/>
</linearGradient>
</defs>
</svg>
