<svg width="131" height="84" viewBox="0 0 131 84" fill="none" xmlns="http://www.w3.org/2000/svg">
<path d="M116.739 0.25H11.0486C5.3932 0.25 0.808594 4.8346 0.808594 10.49V12.51C0.808594 18.1654 5.3932 22.75 11.0486 22.75H116.739C122.394 22.75 126.979 18.1654 126.979 12.51V10.49C126.979 4.8346 122.394 0.25 116.739 0.25Z" fill="#FFC649"/>
<path d="M116.739 61.0298H11.0486C5.3932 61.0298 0.808594 65.6144 0.808594 71.2698V73.2898C0.808594 78.9452 5.3932 83.5298 11.0486 83.5298H116.739C122.394 83.5298 126.979 78.9452 126.979 73.2898V71.2698C126.979 65.6144 122.394 61.0298 116.739 61.0298Z" fill="#FFC649"/>
<path d="M5.60938 37.6299C13.0894 37.6299 13.0894 47.2599 20.6094 47.2599C28.1294 47.2599 28.0894 37.6299 35.6094 37.6299C43.1294 37.6299 43.0894 47.2599 50.6094 47.2599C58.1294 47.2599 57.9994 37.6299 65.4394 37.6299C72.8794 37.6299 72.9194 47.2599 80.4394 47.2599C87.9594 47.2599 87.9194 37.6299 95.4394 37.6299C102.959 37.6299 102.919 47.2599 110.439 47.2599C117.959 47.2599 117.919 37.6299 125.439 37.6299" stroke="#FFC74A" stroke-width="10.01" stroke-linecap="round" stroke-linejoin="round"/>
</svg>
