<svg width="53" height="49" viewBox="0 0 53 49" fill="none" xmlns="http://www.w3.org/2000/svg">
<path d="M34.6463 0H17.8568C16.1963 0.00307725 14.5657 0.442444 13.1284 1.27405C11.6911 2.10565 10.4975 3.30031 9.66728 4.73838L1.27254 19.2892C0.438951 20.7293 0 22.3637 0 24.0276C0 25.6915 0.438951 27.326 1.27254 28.766L9.66728 43.2982C10.4946 44.7388 11.6875 45.9356 13.1255 46.7676C14.5634 47.5996 16.1955 48.0373 17.8568 48.0366H34.6463C36.3104 48.0386 37.9455 47.6017 39.3867 46.7697C40.8279 45.9378 42.0241 44.7403 42.8545 43.2982L51.2492 28.766C52.0737 27.3229 52.5074 25.6896 52.5074 24.0276C52.5074 22.3656 52.0737 20.7323 51.2492 19.2892L42.8545 4.73838C42.0212 3.29884 40.8244 2.10346 39.3838 1.27188C37.9433 0.440306 36.3096 0.00169283 34.6463 0Z" fill="#F47673"/>
</svg>
