<svg width="28" height="30" viewBox="0 0 28 30" fill="none" xmlns="http://www.w3.org/2000/svg">
<circle cx="14" cy="16" r="14" fill="#999999"/>
<path d="M12.76 14.768V11.096C12.76 10.112 13.312 9.416 14.2 9.416C15.088 9.416 15.64 10.112 15.64 11.096V14.768H19.312C20.32 14.768 20.992 15.344 20.992 16.208C20.992 17.072 20.32 17.648 19.312 17.648H15.64V21.32C15.64 22.304 15.088 23 14.2 23C13.312 23 12.76 22.304 12.76 21.32V17.648H9.088C8.08 17.648 7.408 16.928 7.408 16.208C7.408 15.344 8.08 14.768 9.088 14.768H12.76Z" fill="white"/>
</svg>
