<svg width="224" height="224" viewBox="0 0 224 224" fill="none" xmlns="http://www.w3.org/2000/svg">
<circle cx="112" cy="112" r="112" fill="#E3E3E3"/>
<path d="M112.431 195.464C158.399 195.464 195.663 158.2 195.663 112.232C195.663 66.2644 158.399 29.0001 112.431 29.0001C66.4635 29.0001 29.1992 66.2644 29.1992 112.232C29.1992 158.2 66.4635 195.464 112.431 195.464Z" fill="#FFC648"/>
<mask id="mask0_3847_626" style="mask-type:luminance" maskUnits="userSpaceOnUse" x="29" y="29" width="167" height="167">
<path d="M112.431 195.464C158.399 195.464 195.663 158.2 195.663 112.232C195.663 66.2642 158.399 29 112.431 29C66.4635 29 29.1992 66.2642 29.1992 112.232C29.1992 158.2 66.4635 195.464 112.431 195.464Z" fill="white"/>
</mask>
<g mask="url(#mask0_3847_626)">
<path d="M140.537 108.969C140.537 108.969 149.075 93.0031 159.905 96.3352C170.734 99.6673 170.387 109.872 163.306 117.855C163.306 117.855 177.884 123.755 173.302 136.112C172.517 138.164 171.045 139.881 169.137 140.971C166.921 141.948 164.502 142.376 162.085 142.219C159.668 142.061 157.325 141.324 155.254 140.068C155.254 140.068 160.529 150.273 144.98 153.535C129.43 156.798 121.586 115.495 121.586 115.495L140.537 108.969Z" fill="white"/>
<path d="M140.537 108.969C144.563 102.028 151.991 93.1421 160.946 96.5436C171.15 99.7368 169.762 111.538 163.514 117.994C167.102 118.99 170.172 121.322 172.096 124.51C174.019 127.698 174.649 131.502 173.858 135.14C172.122 143.539 161.362 144.025 155.115 140.346L155.601 139.86C160.043 149.162 147.271 156.243 139.496 153.05C136.989 151.617 134.85 149.621 133.248 147.219C127.315 137.462 123.353 126.637 121.586 115.356L140.537 108.969ZM140.537 108.969L121.586 115.564C123.695 126.653 127.762 137.278 133.595 146.941C135.151 149.278 137.246 151.207 139.704 152.564C146.646 155.479 159.141 148.885 154.976 140.207C154.421 139.027 154.351 139.236 155.462 139.722C161.432 143.054 171.497 142.984 173.302 134.932C175.107 126.879 169.554 120.632 162.959 117.924C169.207 111.746 170.942 99.9451 160.876 96.7519C152.06 93.281 144.563 102.166 140.537 108.969Z" fill="white"/>
<path d="M89.73 112.579C89.73 112.579 88.897 94.4612 77.6513 92.7952C66.4056 91.1291 62.3794 100.57 65.3643 110.844C63.6792 110.711 61.9847 110.925 60.3857 111.473C58.7866 112.021 57.317 112.891 56.0677 114.03C54.8184 115.168 53.816 116.551 53.1226 118.093C52.4291 119.634 52.0593 121.302 52.0361 122.992C51.7713 125.179 52.3415 127.385 53.6327 129.17C55.2144 131 57.2134 132.422 59.4608 133.316C61.7083 134.211 64.1379 134.55 66.5444 134.307C66.5444 134.307 57.3813 141.249 70.0153 150.898C87.3698 163.948 121.593 121.951 121.593 121.951L89.73 112.579Z" fill="white"/>
<path d="M89.7244 112.579C89.0302 104.735 86.0453 93.4891 76.6044 92.7949C67.1636 92.1007 62.7209 102.722 65.567 110.982C63.8586 110.848 62.1409 111.07 60.5229 111.634C58.905 112.199 57.4222 113.094 56.1687 114.263C54.9153 115.431 53.9186 116.848 53.2421 118.422C52.5655 119.997 52.2238 121.695 52.2388 123.408C51.7528 130.836 60.1524 134.307 66.5389 133.96C67.8578 133.96 67.5801 133.96 66.5389 134.584C60.2912 139.652 65.0811 147.774 70.7733 150.967C88.6832 159.922 110.342 132.988 121.31 122.089L89.5162 112.579H89.7244ZM89.7244 112.579C89.7244 112.579 122.212 121.742 121.657 121.742C109.508 135.626 78.8952 170.335 63.5539 143.539C62.9054 141.826 62.8252 139.949 63.3252 138.187C63.8252 136.424 64.8789 134.869 66.3306 133.751V134.376C59.3888 134.723 50.9198 130.905 51.4752 123.061C51.6261 119.55 53.0585 116.216 55.5014 113.69C56.8098 112.524 58.3362 111.63 59.9924 111.058C61.6486 110.486 63.4018 110.248 65.1505 110.358C62.2349 102.027 66.1918 90.5041 76.6739 92.1702C87.1559 93.8362 89.0302 104.179 89.7244 112.093V112.579Z" fill="white"/>
<path d="M117.913 136.875H112.36C108.207 137.034 104.066 136.355 100.181 134.878C96.2971 133.402 92.7496 131.159 89.7505 128.283C86.7513 125.407 84.3618 121.957 82.7243 118.138C81.0869 114.319 80.2349 110.209 80.2193 106.054V101.75C79.9077 97.913 80.37 94.0527 81.5789 90.398C82.7878 86.7433 84.7186 83.3688 87.2567 80.4746C89.7947 77.5804 92.8884 75.2256 96.354 73.55C99.8196 71.8743 103.586 70.912 107.431 70.72L116.941 70.3035C120.853 70.136 124.759 70.7414 128.437 72.0851C132.114 73.4288 135.49 75.4844 138.373 78.1344C141.255 80.7844 143.586 83.9767 145.233 87.5286C146.88 91.0805 147.81 94.9224 147.971 98.8343V100.917C148.03 103.094 147.772 105.269 147.208 107.373C141.168 127.226 134.365 136.181 117.913 136.875Z" fill="white"/>
<path d="M117.908 136.875C73.3412 144.511 64.0392 71.8308 109.369 70.4425C134.151 66.1386 155.185 87.5193 145.744 112.093C142.134 125.144 132.624 137.57 117.977 137.014L117.908 136.875ZM117.908 136.875C132.624 137.292 141.996 124.866 145.675 111.885C154.768 87.7275 134.082 66.7633 109.647 71.2061C64.8723 72.4556 73.8272 144.095 118.116 136.875H117.908Z" fill="white"/>
<path d="M106.665 60.7239C107.151 66.568 107.151 72.4424 106.665 78.2866C106.179 72.4424 106.179 66.568 106.665 60.7239Z" fill="white"/>
<path d="M78.5495 87.3804V87.7275C77.9456 93.9184 78.5588 100.168 80.3543 106.123V105.707C81.2913 103.067 82.7783 100.655 84.717 98.633C86.6557 96.6105 89.0018 95.0229 91.6 93.9751C95.1741 92.4581 98.3703 90.1728 100.962 87.2814C103.553 84.3901 105.476 80.9636 106.594 77.2454V59.8215C83.8946 62.7371 79.1048 77.3148 78.5495 87.3804Z" fill="white"/>
<path d="M78.5518 87.3805C78.0012 93.6545 78.5653 99.9764 80.2178 106.054C81.4337 102.938 83.3014 100.119 85.6959 97.7844C88.0904 95.4497 90.9562 93.654 94.1014 92.5174C99.838 89.1637 104.119 83.7933 106.111 77.4537V59.8216C99.0859 60.9523 92.4535 63.8152 86.8125 68.1517C81.5543 73.1932 78.4878 80.099 78.2741 87.3805H78.5518ZM78.5518 87.3805C78.7674 79.9764 81.8471 72.9448 87.1427 67.7657C92.4383 62.5867 99.5367 59.6641 106.944 59.6133V77.2455C104.932 83.8246 100.455 89.3714 94.4485 92.7257C91.3217 93.816 88.4648 95.5636 86.07 97.8506C83.6752 100.138 81.798 102.911 80.5649 105.984C78.3988 99.9641 77.755 93.5016 78.6906 87.1722L78.5518 87.3805Z" fill="white"/>
<path d="M106.459 73.9828C106.043 78.0784 109.514 83.0765 116.108 86.4086C119.815 87.7659 123.759 88.3563 127.701 88.144C130.746 87.853 133.782 88.7767 136.148 90.7141C138.515 92.6514 140.02 95.4453 140.335 98.4873C141.28 102.661 143.758 106.327 147.277 108.761C147.277 108.761 158.592 74.0522 131.172 59.405C128.637 57.9495 125.765 57.1837 122.842 57.1837C119.919 57.1837 117.047 57.9495 114.512 59.405C112.144 61.0576 110.188 63.231 108.792 65.7581C107.396 68.2853 106.598 71.099 106.459 73.9828Z" fill="white"/>
<path d="M106.449 73.9827C106.656 76.4341 107.511 78.7865 108.926 80.7991C110.341 82.8116 112.265 84.4121 114.501 85.4366C118.819 87.5121 123.611 88.3987 128.385 88.0051C130.899 87.9547 133.358 88.7378 135.38 90.2322C137.402 91.7265 138.872 93.8481 139.561 96.2658C140.248 101.089 142.726 105.476 146.503 108.553C149.072 95.7799 149.974 76.8982 138.659 65.9996C126.719 53.0185 107.421 53.7127 105.824 73.9827H106.449ZM106.449 73.9827C107.907 53.1573 127.274 52.7408 139.631 65.6526C144.632 71.5649 147.922 78.7318 149.146 86.3785C150.369 94.0253 149.48 101.861 146.572 109.039C142.586 105.931 139.95 101.406 139.214 96.4047C138.57 94.0523 137.165 91.9795 135.218 90.5102C133.272 89.0408 130.893 88.2575 128.454 88.2828C123.529 88.7206 118.579 87.7834 114.154 85.5755C111.911 84.53 109.988 82.904 108.585 80.8658C107.181 78.8275 106.348 76.4511 106.171 73.9827H106.449Z" fill="white"/>
<path d="M78.2755 86.4085C77.7227 92.9977 78.3815 99.6325 80.2192 105.984V105.637C82.0376 100.094 85.9827 95.4998 91.1872 92.8644C98.9745 89.0301 105.042 82.4173 108.195 74.3298L123.605 56.5588C81.9547 54.6846 78.8309 76.2735 78.2755 86.4085Z" fill="white"/>
<path d="M78.2679 86.4085C77.7732 93.0806 78.3831 99.7886 80.0727 106.262C81.2933 102.822 83.2391 99.6837 85.7781 97.0607C88.3172 94.4378 91.3903 92.3912 94.7893 91.0595C100.84 87.0088 105.494 81.1911 108.118 74.3993L123.528 56.6283C103.605 57.1836 79.3091 59.1967 78.2679 86.4085ZM78.2679 86.4085C78.1799 81.2131 79.5515 76.0972 82.2267 71.6426C84.9019 67.188 88.7734 63.5734 93.401 61.2099C102.988 56.8895 113.622 55.4427 124.014 57.0448L108.603 74.8158C105.796 81.6448 100.947 87.4394 94.7199 91.4066C91.3395 92.6925 88.2756 94.691 85.7362 97.2663C83.1968 99.8416 81.2416 102.933 80.0033 106.331C77.8669 99.9211 77.1794 93.1167 77.9902 86.4085H78.2679Z" fill="white"/>
<path d="M106.177 73.1497C106.177 77.176 109.509 82.3129 116.173 85.4367C119.894 86.7251 123.843 87.2216 127.766 86.8945C130.81 86.5194 133.878 87.3582 136.308 89.2291C138.737 91.0999 140.332 93.8524 140.747 96.8906C141.88 101.238 144.02 105.257 146.995 108.622C146.995 108.622 159.421 70.7201 130.196 57.8778C127.621 56.5044 124.749 55.786 121.831 55.786C118.913 55.786 116.04 56.5044 113.466 57.8778C111.163 59.6954 109.308 62.0176 108.044 64.6654C106.78 67.3133 106.142 70.216 106.177 73.1497Z" fill="white"/>
<path d="M106.176 73.1496C106.421 75.6457 107.338 78.0287 108.829 80.0455C110.32 82.0622 112.33 83.6373 114.645 84.6035C121.239 88.838 130.056 84.6035 136.373 89.0462C138.3 90.7009 139.719 92.8668 140.468 95.2938C141.646 100.18 144.033 104.691 147.41 108.414H146.924C150.881 93.9055 151.297 75.9957 139.982 64.5417C127.626 52.3242 107.148 52.3242 106.176 73.1496ZM106.176 73.1496C107.009 51.7689 127.695 51.9077 140.191 64.4029C151.575 75.6486 152.061 94.9468 147.132 108.969C141.093 103.693 141.926 94.5302 136.303 89.3239C130.68 84.1176 121.378 89.3239 114.784 84.7423C112.424 83.7853 110.372 82.1976 108.854 80.153C107.336 78.1083 106.409 75.6855 106.176 73.1496Z" fill="white"/>
<path d="M115.068 133.89C124.365 133.89 133.282 137.584 139.856 144.158C146.43 150.732 150.124 159.649 150.124 168.946V195.464H80.0117V168.946C80.0117 159.649 83.7051 150.732 90.2794 144.158C96.8537 137.584 105.77 133.89 115.068 133.89Z" fill="white"/>
</g>
</svg>
