<svg width="73" height="72" viewBox="0 0 73 72" fill="none" xmlns="http://www.w3.org/2000/svg">
<path d="M40.0967 61.8254C55.5541 61.8254 68.0848 49.2947 68.0848 33.8373C68.0848 18.38 55.5541 5.84926 40.0967 5.84926C24.6393 5.84926 12.1086 18.38 12.1086 33.8373C12.1086 49.2947 24.6393 61.8254 40.0967 61.8254Z" fill="#9ED6CA"/>
<mask id="mask0_336_48175" style="mask-type:luminance" maskUnits="userSpaceOnUse" x="12" y="5" width="57" height="57">
<path d="M40.0967 61.8254C55.5541 61.8254 68.0848 49.2947 68.0848 33.8373C68.0848 18.38 55.5541 5.84926 40.0967 5.84926C24.6393 5.84926 12.1086 18.38 12.1086 33.8373C12.1086 49.2947 24.6393 61.8254 40.0967 61.8254Z" fill="white"/>
</mask>
<g mask="url(#mask0_336_48175)">
<path d="M30.9102 26.9864C30.9102 26.9864 28.2827 19.9991 23.6894 20.7776C19.096 21.5562 18.7068 25.7408 21.1591 29.3804C21.1591 29.3804 14.9115 30.9958 16.1182 36.2898C16.306 37.1724 16.8117 37.9551 17.539 38.4892C18.3916 39.0093 19.3578 39.3148 20.3545 39.3792C21.3512 39.4436 22.3487 39.2651 23.2612 38.859C23.2612 38.859 20.5752 42.7516 26.7256 44.912C32.876 47.0724 38.3062 30.626 38.3062 30.626L30.9102 26.9864Z" fill="url(#paint0_linear_336_48175)"/>
<path d="M45.6828 30.9763C45.6828 30.9763 46.9868 23.5803 51.6385 23.5803C56.2902 23.5803 57.4775 27.473 55.7063 31.5797C55.7063 31.5797 62.1486 32.0273 61.9151 37.4187C61.8871 38.3243 61.5188 39.186 60.8835 39.8321C60.1455 40.4974 59.2564 40.9728 58.2932 41.217C57.33 41.4612 56.3218 41.4668 55.356 41.2334C55.356 41.2334 58.7426 44.5811 53.0983 47.812C47.4539 51.0429 39.1042 35.92 39.1042 35.92L45.6828 30.9763Z" fill="url(#paint1_linear_336_48175)"/>
<path d="M38.5398 61.2805L37.372 76.6954L36.0096 75.8001L33.8492 60.7745L38.5398 61.2805Z" fill="url(#paint2_linear_336_48175)"/>
<path d="M34.8417 57.855L35.9901 66.9443C36.02 67.0724 36.02 67.2056 35.9901 67.3336L33.4015 75.1189H31.4552L32.9344 67.6061C32.9441 67.509 32.9441 67.4112 32.9344 67.3141L31.28 58.3611C31.2412 58.1038 31.2577 57.8413 31.3284 57.591C31.3991 57.3406 31.5223 57.1082 31.69 56.9093C31.8576 56.7104 32.0657 56.5495 32.3004 56.4374C32.5351 56.3252 32.7911 56.2644 33.0511 56.259C33.493 56.2607 33.9189 56.4239 34.2488 56.7179C34.5786 57.0118 34.7895 57.4163 34.8417 57.855Z" fill="url(#paint3_linear_336_48175)"/>
<path d="M53.5848 58.7114V59.4315C53.5833 59.504 53.5649 59.5752 53.5311 59.6394C53.4973 59.7036 53.4491 59.759 53.3902 59.8013L51.9304 60.7745C51.8579 60.8214 51.7735 60.8464 51.6871 60.8464C51.6008 60.8464 51.5163 60.8214 51.4438 60.7745L50.8015 60.3074L51.5995 58.5167L53.5848 58.7114Z" fill="url(#paint4_linear_336_48175)"/>
<path d="M41.8679 40.2992C41.8679 40.2992 53.7599 44.0556 53.7404 58.6725C53.7389 58.7148 53.7276 58.7561 53.7073 58.7933C53.6871 58.8305 53.6584 58.8624 53.6237 58.8866L51.0156 60.5604C50.9403 60.5888 50.8573 60.5888 50.782 60.5604C49.7505 60.0738 42.5296 56.3369 40.486 44.5422C40.486 44.4838 37.8974 40.2992 41.8679 40.2992Z" fill="url(#paint5_linear_336_48175)"/>
<path d="M41.8095 40.3381L42.3934 40.5717C42.6981 40.6932 42.9545 40.9114 43.1232 41.1926C43.292 41.4739 43.3638 41.8027 43.3277 42.1288L42.1793 51.7046L31.4162 49.7583L32.4672 39.1509L41.8095 40.3381Z" fill="url(#paint6_linear_336_48175)"/>
<path d="M42.2962 37.5938L41.868 40.2213C41.502 40.8989 40.9639 41.468 40.3078 41.8712C39.6517 42.2745 38.9009 42.4975 38.131 42.518C37.2377 42.4442 36.3876 42.1016 35.6928 41.5353C34.998 40.969 34.4909 40.2056 34.2384 39.3455L34.5498 36.5233L42.2962 37.5938Z" fill="url(#paint7_linear_336_48175)"/>
<path d="M52.2613 31.7159C52.2613 31.7159 52.1445 28.8159 53.6821 28.9132C54.231 29.0743 54.7129 29.4088 55.0558 29.8666C55.3986 30.3245 55.5839 30.8812 55.5839 31.4532C55.5839 32.0252 55.3986 32.5818 55.0558 33.0397C54.7129 33.4976 54.231 33.8321 53.6821 33.9931C53.4897 34.0827 53.2774 34.1208 53.0659 34.1038C52.8543 34.0867 52.6509 34.0151 52.4753 33.8958C52.0666 33.6039 51.7552 32.981 52.2613 31.7159Z" fill="url(#paint8_linear_336_48175)"/>
<path d="M36.8853 39.326L39.143 39.7153C40.857 40.0145 42.613 39.9728 44.3108 39.5927C46.0086 39.2126 47.6148 38.5014 49.0375 37.4999C50.4602 36.4984 51.6714 35.2263 52.602 33.7562C53.5325 32.2862 54.1641 30.647 54.4606 28.9327L54.772 27.1615C55.3199 23.9617 54.5764 20.6751 52.7047 18.0226C50.833 15.3701 47.9858 13.5681 44.7874 13.0118L40.8947 12.3305C39.3086 12.0538 37.6834 12.0927 36.1123 12.445C34.5411 12.7972 33.0549 13.4559 31.7388 14.3834C30.4226 15.3109 29.3023 16.4889 28.4421 17.8499C27.5818 19.211 26.9985 20.7284 26.7255 22.3152L26.5698 23.1132C26.4238 24.0025 26.4238 24.9097 26.5698 25.7991C27.9322 34.1488 30.2289 38.1777 36.8853 39.326Z" fill="url(#paint9_linear_336_48175)"/>
<path d="M20.7114 56.6677L20.0302 56.9208C19.967 56.9532 19.8969 56.9701 19.8259 56.9701C19.7548 56.9701 19.6847 56.9532 19.6215 56.9208L18.2201 55.8697C18.1534 55.8097 18.1037 55.7331 18.0764 55.6475C18.049 55.562 18.0449 55.4708 18.0644 55.3832L18.298 54.6436L20.2443 54.8187L20.7114 56.6677Z" fill="url(#paint10_linear_336_48175)"/>
<path d="M33.4793 40.5717C33.4047 44.2703 32.125 47.8436 29.8347 50.7487C27.5443 53.6538 24.3684 55.732 20.7893 56.6678C20.7141 56.6962 20.631 56.6962 20.5558 56.6678L18.0645 54.7215C18.0301 54.7016 18.0013 54.6733 17.9809 54.6393C17.9604 54.6052 17.949 54.5665 17.9477 54.5268C17.8504 53.3201 18.7846 45.1456 28.6135 39.9294C29.6266 39.4149 30.7472 39.1481 31.8834 39.1509C32.0818 39.1377 32.2809 39.1642 32.469 39.2288C32.6571 39.2933 32.8305 39.3947 32.979 39.5269C33.1276 39.6592 33.2483 39.8196 33.3342 39.999C33.4201 40.1784 33.4694 40.3731 33.4793 40.5717Z" fill="#F37065"/>
<path d="M43.3666 40.7858L41.9847 40.2992C41.8095 40.2992 41.8095 40.2992 41.6927 40.4354L40.8947 45.8267C40.8876 45.8832 40.8692 45.9376 40.8408 45.9869C40.8123 46.0362 40.7743 46.0793 40.729 46.1137C40.6837 46.1482 40.632 46.1732 40.5769 46.1874C40.5218 46.2016 40.4645 46.2047 40.4081 46.1965L34.0048 45.1261C33.8981 45.107 33.8026 45.0482 33.7376 44.9615C33.6726 44.8748 33.6429 44.7667 33.6544 44.6589L34.1994 39.4039C34.1975 39.3693 34.1854 39.336 34.1646 39.3083C34.1438 39.2806 34.1153 39.2597 34.0826 39.2482L32.5839 39.1508C32.5635 39.1481 32.5427 39.1495 32.5227 39.1549C32.5028 39.1603 32.4841 39.1696 32.4678 39.1823C32.4515 39.195 32.4379 39.2108 32.4278 39.2288C32.4176 39.2467 32.4112 39.2666 32.4088 39.2871L31.9222 44.9898C31.5492 46.991 30.9687 48.9479 30.19 50.8288C29.5202 52.9948 28.194 54.8991 26.3946 56.2785C25.5843 56.7858 24.7387 57.2346 23.8644 57.6214C23.8115 57.6497 23.7673 57.6917 23.7364 57.7431C23.7056 57.7946 23.6893 57.8534 23.6893 57.9134C23.6893 57.9733 23.7056 58.0322 23.7364 58.0836C23.7673 58.135 23.8115 58.1771 23.8644 58.2053L30.1121 61.5919C30.1608 61.6254 30.2185 61.6433 30.2775 61.6433C30.3366 61.6433 30.3943 61.6254 30.443 61.5919L30.988 61.1248V61.7476C30.9818 61.8192 31.0022 61.8905 31.0453 61.9479C31.0884 62.0054 31.1511 62.0449 31.2215 62.059L38.5008 63.7913C38.5654 63.8069 38.6334 63.7999 38.6936 63.7716C38.7538 63.7433 38.8025 63.6953 38.8316 63.6356L39.182 62.9738L39.435 63.5772C39.4602 63.6367 39.5044 63.6863 39.5608 63.718C39.6171 63.7497 39.6824 63.7618 39.7464 63.7523L45.0599 63.2658C45.1127 63.2612 45.1636 63.244 45.2084 63.2157C45.2532 63.1873 45.2905 63.1486 45.3172 63.1028C45.3439 63.0571 45.3592 63.0055 45.3618 62.9526C45.3645 62.8997 45.3544 62.8469 45.3323 62.7986L43.1719 58.3416C42.4217 56.4902 42.083 54.4979 42.1793 52.5026L42.7048 47.3449L43.639 41.0972C43.6417 41.0588 43.6367 41.0203 43.6244 40.9839C43.6122 40.9474 43.5928 40.9138 43.5675 40.8849C43.5422 40.8559 43.5114 40.8323 43.4769 40.8153C43.4424 40.7983 43.4049 40.7882 43.3666 40.7858Z" fill="url(#paint11_linear_336_48175)"/>
<path d="M42.0236 52.055C40.1308 52.5519 38.1533 52.6352 36.2255 52.2994C34.2977 51.9635 32.4648 51.2163 30.8517 50.1086C32.493 51.1549 34.3253 51.8656 36.2429 52.1997C38.1604 52.5337 40.1251 52.4846 42.0236 52.055Z" fill="#3884C5"/>
<path d="M33.0512 55.7725C32.7523 57.6713 32.0343 59.4798 30.9492 61.0665C31.9096 59.4163 32.618 57.632 33.0512 55.7725Z" fill="#3884C5"/>
<path d="M38.6565 56.9402C39.0567 58.859 39.1942 60.8233 39.0652 62.7791C39.0468 60.8264 38.9103 58.8765 38.6565 56.9402Z" fill="#3884C5"/>
<path d="M41.7122 28.3293C41.8519 28.8914 41.9431 29.4644 41.9847 30.0421V29.9059C42.2448 30.153 42.4856 30.4198 42.7048 30.7039C43.1525 31.5602 41.829 31.6576 41.3424 31.8911C41.5954 31.6381 42.1599 31.2683 42.3934 31.0737C42.4037 31.0559 42.4091 31.0358 42.4091 31.0153C42.4091 30.9948 42.4037 30.9746 42.3934 30.9569C42.1205 30.6967 41.8668 30.4169 41.6344 30.12C41.6185 29.5191 41.6707 28.9184 41.7901 28.3293H41.7122Z" fill="#EC977E"/>
<path d="M47.9718 28.7287C48.2654 27.034 47.6362 25.51 46.5665 25.3247C45.4968 25.1393 44.3915 26.3628 44.0979 28.0575C43.8043 29.7521 44.4334 31.2761 45.5032 31.4615C46.5729 31.6468 47.6781 30.4233 47.9718 28.7287Z" fill="white"/>
<path d="M47.7653 29.4192C48.0572 27.7259 47.4344 26.2078 46.3639 26.0131C45.2935 25.8185 44.6123 26.636 44.1451 27.8232C44.4955 26.2467 45.5465 25.1568 46.5586 25.3319C47.5707 25.5071 48.2713 27.0447 47.9794 28.738C47.9157 29.0483 47.8312 29.3539 47.7264 29.6528C47.7264 29.6528 47.7458 29.4192 47.7653 29.4192Z" fill="#1D1230"/>
<path d="M48.8163 26.091C48.8163 26.091 48.3297 26.9474 47.9015 26.7528V27.5313C48.1691 27.3953 48.3952 27.1899 48.5562 26.9365C48.7171 26.6831 48.807 26.3911 48.8163 26.091Z" fill="#1D1230"/>
<path d="M47.208 29.8217C47.3695 28.8897 47.0282 28.0523 46.4457 27.9514C45.8632 27.8504 45.26 28.5242 45.0985 29.4562C44.937 30.3883 45.2783 31.2257 45.8609 31.3266C46.4434 31.4275 47.0465 30.7538 47.208 29.8217Z" fill="#1D1230"/>
<path d="M39.753 27.4804C40.0467 25.7857 39.4175 24.2617 38.3478 24.0764C37.278 23.891 36.1728 25.1145 35.8792 26.8092C35.5855 28.5038 36.2147 30.0278 37.2844 30.2132C38.3542 30.3985 39.4594 29.175 39.753 27.4804Z" fill="white"/>
<path d="M39.1379 28.436C39.2994 27.5039 38.9581 26.6665 38.3756 26.5656C37.793 26.4647 37.1899 27.1384 37.0284 28.0705C36.8669 29.0025 37.2082 29.8399 37.7908 29.9408C38.3733 30.0418 38.9764 29.368 39.1379 28.436Z" fill="#1D1230"/>
<path d="M35.8344 27.4729C36.0291 25.7407 37.0606 24.4366 38.1505 24.5534C39.2405 24.6702 39.6881 25.6239 39.8049 26.9085C39.8049 25.293 39.1821 23.9306 38.1311 23.8138C37.0801 23.697 36.0096 25.0205 35.8344 26.7527C35.7955 27.076 35.7955 27.4027 35.8344 27.7259V27.4729Z" fill="#1D1230"/>
<path d="M35.737 23.9306C35.737 23.9306 35.99 24.9038 36.4571 24.826L36.1652 25.5266C35.9618 25.3204 35.8155 25.0649 35.7404 24.7852C35.6654 24.5054 35.6642 24.211 35.737 23.9306Z" fill="#1D1230"/>
<path d="M54.9278 24.8065C54.9278 24.8065 58.9761 12.6031 45.527 8.86616L44.6123 16.0286C45.0244 18.4715 46.2846 20.6908 48.1713 22.2963C50.058 23.9018 52.4504 24.7907 54.9278 24.8065Z" fill="#F7B4B7"/>
<path d="M46.5779 10.4426C46.5779 10.4426 48.6605 17.0407 42.9189 19.0064C41.333 19.3326 39.6973 19.3326 38.1114 19.0064C35.3477 18.5004 31.0268 19.4736 29.9953 22.2763C29.5039 23.8033 28.7605 25.2375 27.7959 26.5192C27.7959 26.5192 22.8718 11.5326 35.4061 7.62047C46.6558 4.1171 46.5779 10.4426 46.5779 10.4426Z" fill="#F7B4B7"/>
<path d="M44.3982 32.9421C42.184 33.1057 39.9639 32.7179 37.9364 31.8133C37.8034 32.4811 37.8545 33.1726 38.0842 33.8137C38.3139 34.4548 38.7136 35.0214 39.2404 35.4529C39.6272 35.7224 40.0732 35.8949 40.5406 35.9559C41.0081 36.0169 41.4834 35.9645 41.9263 35.8032C42.5566 35.591 43.1184 35.2136 43.5532 34.7104C43.9879 34.2072 44.2797 33.5965 44.3982 32.9421Z" fill="url(#paint12_linear_336_48175)"/>
<mask id="mask1_336_48175" style="mask-type:luminance" maskUnits="userSpaceOnUse" x="37" y="31" width="8" height="5">
<path d="M44.3982 32.9421C42.184 33.1057 39.9639 32.7179 37.9364 31.8133C37.8034 32.4811 37.8545 33.1726 38.0842 33.8137C38.3139 34.4548 38.7136 35.0214 39.2404 35.4529C39.6272 35.7224 40.0732 35.8949 40.5406 35.9559C41.0081 36.0169 41.4834 35.9645 41.9263 35.8032C42.5566 35.591 43.1184 35.2136 43.5532 34.7104C43.9879 34.2072 44.2797 33.5965 44.3982 32.9421Z" fill="white"/>
</mask>
<g mask="url(#mask1_336_48175)">
<path d="M42.1015 35.7448C42.1015 35.7448 41.7512 32.6891 37.9753 33.526C34.1995 34.3629 39.0653 38.7421 42.1015 35.7448Z" fill="url(#paint13_linear_336_48175)"/>
</g>
<path d="M54.9278 24.8064C54.9278 24.8064 59.9298 11.8245 45.7411 8.12649L44.8264 15.2889C44.8264 15.2889 45.527 22.8017 54.9278 24.8064Z" fill="url(#paint14_linear_336_48175)"/>
<path d="M29.4504 21.9454C29.4504 21.9454 27.8739 26.4219 28.5162 28.232C28.5162 28.232 27.5041 27.9595 27.1732 25.5072C27.1433 24.7519 27.3455 24.0056 27.7527 23.3688C28.1598 22.732 28.7523 22.2352 29.4504 21.9454Z" fill="#6F4729"/>
<path d="M47.4149 11.3185C47.7416 12.9152 47.4433 14.5764 46.5814 15.9597C45.7196 17.343 44.3599 18.3429 42.7827 18.7534C41.1835 19.0146 39.548 18.9484 37.9753 18.5588C35.2309 17.9165 30.8712 18.6756 29.7034 21.4004C28.8901 23.175 27.8213 24.8209 26.5309 26.2857C26.5309 26.2857 23.1054 10.2091 35.8148 6.97817C47.2592 4.11708 47.4149 11.3185 47.4149 11.3185Z" fill="url(#paint15_linear_336_48175)"/>
<path d="M27.2316 27.4729C27.2316 27.4729 27.7182 24.6118 26.1611 24.534C25.6037 24.6325 25.0925 24.9072 24.7027 25.3177C24.3129 25.7282 24.0649 26.2529 23.9952 26.8147C23.9255 27.3765 24.0378 27.9458 24.3155 28.4391C24.5933 28.9324 25.0218 29.3237 25.5383 29.5555C25.7241 29.665 25.9358 29.7228 26.1514 29.7228C26.3671 29.7228 26.5788 29.665 26.7645 29.5555C27.1927 29.4192 27.582 28.8548 27.2316 27.4729Z" fill="#FEE3CC"/>
<path d="M25.2269 26.3051C26.4142 25.9353 26.3947 27.6676 26.1417 28.4266C25.9512 28.0289 25.8326 27.6006 25.7913 27.1615C25.817 26.9746 25.7739 26.7848 25.6701 26.6272C25.5663 26.4697 25.4088 26.3553 25.2269 26.3051Z" fill="#EC977E"/>
<path d="M25.4994 27.3172C25.6551 27.0058 25.8497 26.9669 26.0444 27.3172C25.9081 27.6287 25.7135 27.6481 25.4994 27.3172Z" fill="#EC977E"/>
<path d="M34.0243 23.3078C34.4256 23.0504 34.8415 22.8164 35.2699 22.6071C35.4751 22.4965 35.6901 22.4053 35.9122 22.3347C36.9311 21.9517 37.9993 21.7158 39.0847 21.634C39.2662 21.6437 39.4482 21.6437 39.6297 21.634C39.8438 21.634 39.9606 20.9333 39.8243 20.7776C39.6881 20.6219 38.8317 20.7776 38.3256 20.7776C38.0415 20.7548 37.7558 20.7946 37.4887 20.8944L36.7102 21.2058C36.4572 21.3226 36.2042 21.4394 35.9706 21.5756C35.7425 21.7134 35.5216 21.8628 35.3089 22.0233C34.8229 22.3229 34.3666 22.6683 33.9464 23.0548L34.0243 23.3078Z" fill="#FBC3AA"/>
<path d="M33.927 23.191C34.2968 22.938 34.5498 22.7823 35.0169 22.5098L35.6982 22.179C36.7681 21.7026 37.9029 21.3878 39.0653 21.2447C39.2405 21.2447 39.4546 21.2447 39.6492 21.2447C39.6982 21.2389 39.7447 21.2199 39.7838 21.1898C39.8229 21.1596 39.853 21.1194 39.871 21.0734C39.889 21.0274 39.8941 20.9775 39.8859 20.9288C39.8777 20.8801 39.8564 20.8346 39.8244 20.7971C39.5129 20.3883 38.7539 20.3883 38.2089 20.3689C37.9018 20.3668 37.5973 20.4264 37.3136 20.544L36.4767 20.9333L35.7176 21.381C35.4841 21.5561 35.2505 21.7313 35.0364 21.9259C34.5923 22.2922 34.1937 22.7104 33.8492 23.1716L33.927 23.191Z" fill="url(#paint16_linear_336_48175)"/>
<path d="M50.4707 25.1957C50.1593 24.9233 49.7895 24.5729 49.4003 24.281C49.2116 24.1329 49.0096 24.0026 48.7969 23.8917C47.8767 23.312 46.8721 22.8787 45.819 22.6071C45.6633 22.6071 45.4687 22.6071 45.2935 22.4904C45.1184 22.3736 45.0989 21.7313 45.2935 21.595C45.4882 21.4588 46.2472 21.8481 46.7533 21.9259C47.0339 21.9663 47.3045 22.0587 47.5513 22.1984C47.8043 22.3346 48.0378 22.4904 48.2714 22.6461L48.9137 23.1521L49.4781 23.7165C49.9004 24.102 50.279 24.5328 50.607 25.0011L50.4707 25.1957Z" fill="#FBC3AA"/>
<path d="M50.5875 25.1179C50.2943 24.8071 49.9823 24.5146 49.6533 24.242C49.4656 24.0697 49.2637 23.9135 49.0499 23.7749C48.0845 23.1099 47.0294 22.5856 45.9163 22.2179C45.7606 22.2179 45.5271 22.2179 45.3519 22.0816C45.3134 22.0598 45.2808 22.029 45.2568 21.9918C45.2329 21.9546 45.2184 21.9121 45.2146 21.868C45.2107 21.824 45.2177 21.7796 45.2348 21.7388C45.252 21.6981 45.2788 21.6621 45.313 21.634C45.6828 21.3031 46.4418 21.4393 46.9673 21.5367C47.2706 21.5938 47.5608 21.7059 47.8237 21.8675L48.5633 22.4125C48.7969 22.5877 49.011 22.8018 49.2251 22.9964C49.4392 23.191 49.6143 23.4246 49.7895 23.6581C50.1586 24.0982 50.4724 24.5819 50.7237 25.0984L50.5875 25.1179Z" fill="url(#paint17_linear_336_48175)"/>
<path d="M59.2487 57.8355C60.3631 58.0142 61.5051 57.8933 62.5574 57.4852L62.752 57.7966C61.6397 58.1809 60.462 58.3397 59.2876 58.2637L59.2487 57.8355Z" fill="url(#paint18_linear_336_48175)"/>
<path d="M63.5888 58.0107C63.5888 58.0107 63.9392 58.0107 63.8029 57.6993C63.7806 57.6639 63.7485 57.6359 63.7105 57.6186C63.6724 57.6013 63.6301 57.5955 63.5888 57.602H63.8029C63.8594 57.5842 63.9078 57.5472 63.9398 57.4974C63.9718 57.4477 63.9854 57.3882 63.9781 57.3295C63.9669 57.2842 63.9423 57.2433 63.9076 57.2121C63.873 57.1808 63.8297 57.1607 63.7835 57.1543C63.4915 57.1543 63.4526 57.1543 63.4526 57.1543C63.4526 57.1543 63.8029 56.9597 63.6278 56.6872C63.4526 56.4147 62.8687 57.0375 62.8687 57.0375C62.8687 57.0375 62.713 56.3953 62.4211 56.4731C62.1291 56.551 62.5573 57.5047 62.5573 57.5047L62.7519 57.8161C63.0021 57.9709 63.2961 58.0392 63.5888 58.0107Z" fill="url(#paint19_linear_336_48175)"/>
<path d="M63.4916 57.1154C63.4429 57.1674 63.3803 57.2042 63.3113 57.2214C63.2422 57.2387 63.1697 57.2357 63.1023 57.2127C63.2389 57.2201 63.3745 57.1862 63.4916 57.1154Z" fill="black"/>
<path d="M63.5889 57.602C63.5213 57.6309 63.4484 57.6458 63.3748 57.6458C63.3012 57.6458 63.2284 57.6309 63.1607 57.602C63.3028 57.6214 63.4469 57.6214 63.5889 57.602Z" fill="black"/>
<path d="M41.6733 54.7214C40.5613 54.5126 39.526 54.0084 38.676 53.2617L38.384 53.4953C39.2996 54.2383 40.3603 54.7819 41.4981 55.0912L41.6733 54.7214Z" fill="url(#paint20_linear_336_48175)"/>
<path d="M52.3781 46.1576C52.3303 45.566 52.4581 44.9735 52.7454 44.4542C53.0328 43.9349 53.4669 43.5119 53.9935 43.2381C54.1047 43.1763 54.1975 43.086 54.2624 42.9766C54.3274 42.8672 54.3622 42.7426 54.3633 42.6153C54.3633 42.3428 53.974 41.8563 53.1177 42.3039C51.5801 43.0435 52.3781 46.1576 52.3781 46.1576Z" fill="#E9F4F1"/>
<path d="M52.7867 46.9361C52.9156 46.3563 53.2106 45.8265 53.6358 45.4117C54.061 44.9969 54.5978 44.715 55.1807 44.6005C55.3048 44.5762 55.4197 44.5178 55.5125 44.4319C55.6054 44.3459 55.6724 44.2359 55.7062 44.114C55.7062 43.8415 55.5699 43.277 54.6163 43.4717C52.9035 43.8804 52.7867 46.9361 52.7867 46.9361Z" fill="#E9F4F1"/>
<path d="M37.5277 53.4952C37.5277 53.4952 37.1774 53.3784 37.411 53.1254C37.4446 53.1001 37.4856 53.0865 37.5277 53.0865C37.5699 53.0865 37.6108 53.1001 37.6445 53.1254L37.5277 52.9697C37.5004 52.9224 37.486 52.8687 37.486 52.814C37.486 52.7593 37.5004 52.7056 37.5277 52.6583C37.563 52.6281 37.6079 52.6116 37.6542 52.6116C37.7006 52.6116 37.7455 52.6281 37.7808 52.6583C38.0532 52.6583 38.0727 52.814 38.0727 52.814C38.0727 52.814 37.8197 52.5026 38.0727 52.3274C38.3257 52.1522 38.6761 52.9113 38.6761 52.9113C38.6761 52.9113 39.0459 52.3469 39.2989 52.522C39.5519 52.6972 38.8123 53.4368 38.8123 53.4368L38.5204 53.6704C38.3516 53.7096 38.1767 53.7143 38.0062 53.6842C37.8356 53.6541 37.6728 53.5898 37.5277 53.4952Z" fill="url(#paint21_linear_336_48175)"/>
<path d="M37.917 52.775C38.0089 52.8761 38.1218 52.9558 38.2478 53.0086C38.1772 53.0017 38.1095 52.9766 38.0515 52.9356C37.9934 52.8947 37.9471 52.8393 37.917 52.775Z" fill="black"/>
<path d="M37.6639 53.106C37.7937 53.1688 37.9311 53.2146 38.0727 53.2422C37.9989 53.2485 37.9245 53.2396 37.8543 53.2162C37.784 53.1928 37.7192 53.1553 37.6639 53.106Z" fill="black"/>
<path d="M50.4901 63.149C55.5423 63.149 59.6378 59.0534 59.6378 54.0013C59.6378 48.9491 55.5423 44.8536 50.4901 44.8536C45.438 44.8536 41.3424 48.9491 41.3424 54.0013C41.3424 59.0534 45.438 63.149 50.4901 63.149Z" fill="white" stroke="black" stroke-width="0.02" stroke-miterlimit="10"/>
<path d="M41.1088 56.8429C41.1851 56.5519 41.1877 56.2465 41.1164 55.9542C41.045 55.662 40.9019 55.3921 40.7001 55.1691C40.3692 54.7519 40.1333 54.2676 40.0089 53.7499C39.8846 53.2323 39.8747 52.6936 39.9799 52.1717C40.0326 51.5065 40.2752 50.8704 40.6789 50.339C41.0826 49.8077 41.6304 49.4035 42.2571 49.1744C42.4103 49.1122 42.5428 49.0079 42.6393 48.8736C42.7357 48.7393 42.7922 48.5804 42.8021 48.4153C42.7653 47.8931 42.8343 47.3689 43.0049 46.8739C43.1754 46.379 43.4441 45.9235 43.7947 45.5348C44.187 45.237 44.6507 45.0479 45.1393 44.9863C45.628 44.9248 46.1241 44.9932 46.578 45.1844C46.7795 45.2698 47.0065 45.2728 47.2103 45.1927C47.414 45.1127 47.5783 44.956 47.6679 44.7563C47.8079 44.4055 48.0351 44.0962 48.328 43.8578C48.6209 43.6194 48.9698 43.4597 49.3417 43.3938C49.9481 43.3051 50.5671 43.3918 51.1258 43.6436C51.6845 43.8953 52.1595 44.3017 52.4948 44.8146C52.6515 44.9834 52.8464 45.1122 53.0631 45.19C53.2799 45.2679 53.5121 45.2927 53.7404 45.2623C54.3099 45.098 54.8994 45.0129 55.4921 45.0093C56.2328 44.9838 56.9623 45.1951 57.5747 45.6126C58.1454 46.0697 58.5809 46.6735 58.8346 47.3592C59.0884 48.045 59.1507 48.7868 59.0149 49.5053C58.9915 49.7446 59.0401 49.9856 59.1545 50.1971C59.269 50.4087 59.444 50.5812 59.6572 50.6925C60.4163 51.0818 61.4089 51.7825 61.2143 52.7946C61.0904 53.4833 60.7653 54.1199 60.28 54.6241C60.1031 54.8203 59.9943 55.0683 59.9697 55.3314C59.9452 55.5944 60.0062 55.8583 60.1438 56.0838C60.6023 56.9994 60.7552 58.0379 60.5801 59.0468C60.4049 60.0556 59.9109 60.9818 59.1706 61.6892C58.6317 62.2444 57.9541 62.6454 57.2081 62.8508C56.4621 63.0561 55.6748 63.0583 54.9277 62.857C54.5837 62.8179 54.2363 62.8916 53.9378 63.0671C53.6394 63.2427 53.4062 63.5105 53.2733 63.8302C53.1352 64.1781 52.9302 64.4955 52.6699 64.7644C52.2857 64.9728 51.8426 65.0458 51.4118 64.9717C50.9811 64.8975 50.5878 64.6806 50.2954 64.3557C50.0369 64.1149 49.7066 63.9655 49.3551 63.9303C49.0035 63.8952 48.6502 63.9762 48.3491 64.1611C47.9042 64.4981 47.3688 64.6947 46.8115 64.7255C45.6632 64.7255 44.8652 64.1611 44.8652 62.5846C44.8662 62.2334 44.7528 61.8914 44.5421 61.6104C44.3314 61.3295 44.0348 61.1248 43.6974 61.0275C43.2269 60.9737 42.7747 60.8139 42.3748 60.5602C41.975 60.3065 41.6378 59.9655 41.3886 59.5627C41.1395 59.16 40.9849 58.706 40.9364 58.235C40.888 57.7639 40.9469 57.2879 41.1088 56.8429Z" fill="url(#paint22_linear_336_48175)"/>
<mask id="mask2_336_48175" style="mask-type:luminance" maskUnits="userSpaceOnUse" x="49" y="53" width="3" height="3">
<path d="M49.6726 54.1764C49.65 54.2788 49.6483 54.3847 49.6676 54.4878C49.687 54.5909 49.7269 54.6889 49.7851 54.7762C49.8432 54.8634 49.9184 54.938 50.0061 54.9955C50.0938 55.053 50.1922 55.0922 50.2955 55.1107C50.5015 55.1388 50.7104 55.0853 50.8776 54.9617C51.0448 54.8381 51.1572 54.6541 51.1908 54.4489C51.2314 54.2402 51.1891 54.0238 51.0728 53.8457C50.9565 53.6677 50.7754 53.5419 50.5679 53.4952C50.359 53.4675 50.1476 53.5236 49.9798 53.6512C49.8121 53.7788 49.7017 53.9677 49.6726 54.1764Z" fill="white"/>
</mask>
<g mask="url(#mask2_336_48175)">
<path d="M51.2882 53.9818L49.7117 53.7093C49.7117 53.7093 49.303 55.0328 50.2956 55.169C51.2882 55.3053 51.2882 53.9818 51.2882 53.9818Z" fill="url(#paint23_linear_336_48175)"/>
<path d="M50.5681 53.4174C50.5681 53.4174 49.7896 53.4174 49.7506 53.7288L50.5097 53.8456L51.2493 53.9818C51.1944 53.8368 51.1027 53.7085 50.9833 53.6096C50.8639 53.5106 50.7208 53.4444 50.5681 53.4174Z" fill="white"/>
<path d="M50.315 55.208C50.1756 55.1812 50.0389 55.1421 49.9063 55.0912L49.6144 54.7214C49.6144 54.5463 49.6144 54.449 49.8868 54.449C49.9743 54.4402 50.0626 54.4496 50.1463 54.4763C50.23 54.5031 50.3073 54.5468 50.3734 54.6047C50.4448 54.6774 50.4847 54.7753 50.4847 54.8772C50.4847 54.979 50.4448 55.0769 50.3734 55.1496L50.315 55.208Z" fill="url(#paint24_linear_336_48175)"/>
</g>
<path d="M48.8163 52.8919C49.5257 52.8919 50.1008 52.3167 50.1008 51.6073C50.1008 50.8978 49.5257 50.3227 48.8163 50.3227C48.1068 50.3227 47.5317 50.8978 47.5317 51.6073C47.5317 52.3167 48.1068 52.8919 48.8163 52.8919Z" fill="white"/>
<path d="M48.5827 51.9771C49.0127 51.9771 49.3612 51.6286 49.3612 51.1986C49.3612 50.7686 49.0127 50.4201 48.5827 50.4201C48.1527 50.4201 47.8042 50.7686 47.8042 51.1986C47.8042 51.6286 48.1527 51.9771 48.5827 51.9771Z" fill="url(#paint25_linear_336_48175)"/>
<path d="M48.9525 51.4322C49.0815 51.4322 49.1861 51.3276 49.1861 51.1986C49.1861 51.0696 49.0815 50.9651 48.9525 50.9651C48.8235 50.9651 48.719 51.0696 48.719 51.1986C48.719 51.3276 48.8235 51.4322 48.9525 51.4322Z" fill="white"/>
<path d="M52.7674 53.5731C53.4768 53.5731 54.0519 52.998 54.0519 52.2885C54.0519 51.5791 53.4768 51.0039 52.7674 51.0039C52.0579 51.0039 51.4828 51.5791 51.4828 52.2885C51.4828 52.998 52.0579 53.5731 52.7674 53.5731Z" fill="white"/>
<path d="M52.4171 52.6973C52.847 52.6973 53.1956 52.3487 53.1956 51.9187C53.1956 51.4888 52.847 51.1402 52.4171 51.1402C51.9871 51.1402 51.6385 51.4888 51.6385 51.9187C51.6385 52.3487 51.9871 52.6973 52.4171 52.6973Z" fill="url(#paint26_linear_336_48175)"/>
<path d="M52.7868 52.1328C52.9158 52.1328 53.0203 52.0282 53.0203 51.8992C53.0203 51.7702 52.9158 51.6657 52.7868 51.6657C52.6578 51.6657 52.5532 51.7702 52.5532 51.8992C52.5532 52.0282 52.6578 52.1328 52.7868 52.1328Z" fill="white"/>
<path d="M54.7525 49.408L54.3244 49.0576L54.0908 48.8824C53.715 48.6753 53.3166 48.5121 52.9035 48.3959H52.6895C52.6895 48.3959 52.6895 48.1234 52.6895 48.0845C52.6895 48.0455 53.0787 48.1818 53.2733 48.2012C53.3838 48.2194 53.4896 48.2591 53.5848 48.318L53.8767 48.4737L54.1297 48.6684L54.3633 48.863C54.5225 49.0088 54.672 49.1648 54.8109 49.3301L54.7525 49.408Z" fill="#AFDCD2"/>
<path d="M48.0767 48.3376C48.2408 48.2557 48.4098 48.1842 48.5828 48.1235H48.8358C49.2506 48.0294 49.6759 47.9902 50.1009 48.0067H50.315C50.315 48.0067 50.4512 47.7731 50.315 47.7147C50.1787 47.6564 49.9257 47.7147 49.7311 47.7147C49.6151 47.6951 49.4967 47.6951 49.3807 47.7147H49.0693L48.7774 47.8315L48.5049 47.9483C48.3146 48.0362 48.1323 48.1404 47.9599 48.2597L48.0767 48.3376Z" fill="#AFDCD2"/>
<path d="M48.0378 48.2791L48.4854 48.0845H48.7579C49.1915 47.9449 49.6455 47.8791 50.1009 47.8899H50.3344C50.4318 47.8899 50.4707 47.7926 50.3344 47.7342C50.1597 47.5896 49.9383 47.5135 49.7116 47.5201C49.59 47.4911 49.4634 47.4911 49.3418 47.5201H49.0109L48.6995 47.6563L48.427 47.812C48.2458 47.9245 48.0763 48.0549 47.921 48.2013L48.0378 48.2791Z" fill="url(#paint27_linear_336_48175)"/>
<path d="M44.4955 63.5772C44.0673 63.7912 43.7753 62.2147 43.7753 62.2147C43.7544 62.1586 43.7461 62.0986 43.751 62.0389C43.7559 61.9792 43.7738 61.9214 43.8035 61.8694C43.8332 61.8174 43.874 61.7726 43.9229 61.7381C43.9719 61.7036 44.0278 61.6803 44.0867 61.6698C44.1491 61.6582 44.2133 61.6607 44.2746 61.677C44.3359 61.6932 44.3928 61.723 44.4412 61.7639C44.4897 61.8049 44.5284 61.8561 44.5546 61.9139C44.5808 61.9717 44.5939 62.0345 44.5928 62.098C44.5341 62.485 44.5341 62.8787 44.5928 63.2657C44.6159 63.3208 44.6188 63.3822 44.601 63.4392C44.5832 63.4962 44.5458 63.5451 44.4955 63.5772Z" fill="#1C2530"/>
<path d="M51.4828 53.7483C51.1647 53.5383 50.8017 53.4059 50.423 53.362C50.0444 53.318 49.6607 53.3637 49.3029 53.4952C49.2071 53.5306 49.1242 53.5941 49.0651 53.6775C49.006 53.7609 48.9736 53.8602 48.9721 53.9624C48.9561 54.1332 48.975 54.3056 49.0277 54.4689C49.0805 54.6322 49.1659 54.7831 49.2787 54.9124C49.3916 55.0416 49.5296 55.1466 49.6844 55.2208C49.8391 55.2951 50.0073 55.3371 50.1788 55.3442C50.3509 55.3869 50.5302 55.3923 50.7047 55.3601C50.8791 55.3279 51.0446 55.2588 51.1902 55.1575C51.3357 55.0561 51.458 54.9249 51.5487 54.7725C51.6395 54.6201 51.6966 54.45 51.7164 54.2738C51.7327 54.1729 51.7193 54.0696 51.6778 53.9762C51.6364 53.8829 51.5686 53.8037 51.4828 53.7483Z" fill="url(#paint28_linear_336_48175)"/>
<mask id="mask3_336_48175" style="mask-type:luminance" maskUnits="userSpaceOnUse" x="48" y="53" width="4" height="3">
<path d="M51.5217 53.4952C51.1967 53.2836 50.8262 53.1521 50.4404 53.1115C50.0547 53.0709 49.6649 53.1224 49.3029 53.2617C49.1278 53.2617 48.9721 53.7482 48.9721 53.9429C48.9533 54.1153 48.9701 54.2897 49.0215 54.4553C49.0729 54.621 49.1579 54.7742 49.271 54.9057C49.3842 55.0371 49.5232 55.1438 49.6793 55.2193C49.8355 55.2947 50.0055 55.3372 50.1788 55.3442C50.3509 55.3869 50.5302 55.3923 50.7047 55.3601C50.8791 55.3279 51.0446 55.2588 51.1902 55.1575C51.3358 55.0561 51.458 54.9248 51.5487 54.7724C51.6395 54.62 51.6966 54.45 51.7164 54.2737C51.7553 54.0791 51.6969 53.612 51.5217 53.4952Z" fill="white"/>
</mask>
<g mask="url(#mask3_336_48175)">
<path d="M51.4438 55.2469C51.4438 55.2469 50.6458 53.3006 49.2639 54.7019C47.8821 56.1033 51.4438 55.2469 51.4438 55.2469Z" fill="url(#paint29_linear_336_48175)"/>
</g>
</g>
<path d="M66.5669 38.742C65.7608 39.2546 65.1042 39.9708 64.6634 40.8183C64.2225 41.6658 64.0131 42.6146 64.0561 43.5689C65.0201 43.8943 66.0446 44.0002 67.0548 43.879C68.065 43.7578 69.0354 43.4124 69.8951 42.8682C70.7316 42.3719 71.42 41.6607 71.8889 40.8085C72.3578 39.9563 72.59 38.9941 72.5615 38.0219C71.5735 37.6775 70.5198 37.5633 69.4809 37.6881C68.4419 37.8129 67.4453 38.1734 66.5669 38.742Z" fill="#66A36C"/>
<path d="M5.58849 26.1883L6.17238 27.2587C6.26009 27.4247 6.39574 27.5603 6.56165 27.648L7.61266 28.2319C7.77206 28.3136 7.90584 28.4376 7.99925 28.5905C8.09267 28.7433 8.1421 28.9189 8.1421 29.098C8.1421 29.2771 8.09267 29.4528 7.99925 29.6056C7.90584 29.7584 7.77206 29.8825 7.61266 29.9641L6.56165 30.548C6.39574 30.6357 6.26009 30.7714 6.17238 30.9373L5.58849 32.0078C5.50228 32.1617 5.37658 32.29 5.22434 32.3792C5.07211 32.4684 4.89884 32.5155 4.72237 32.5155C4.54591 32.5155 4.37263 32.4684 4.2204 32.3792C4.06816 32.29 3.94247 32.1617 3.85626 32.0078L3.27236 30.9373C3.17128 30.775 3.03064 30.6411 2.86364 30.548L1.81262 29.9641C1.65322 29.8825 1.51944 29.7584 1.42603 29.6056C1.33262 29.4528 1.28319 29.2771 1.28319 29.098C1.28319 28.9189 1.33262 28.7433 1.42603 28.5905C1.51944 28.4376 1.65322 28.3136 1.81262 28.2319L2.86364 27.648C3.03064 27.555 3.17128 27.421 3.27236 27.2587L3.85626 26.1883C3.94247 26.0343 4.06816 25.9061 4.2204 25.8169C4.37263 25.7276 4.54591 25.6806 4.72237 25.6806C4.89884 25.6806 5.07211 25.7276 5.22434 25.8169C5.37658 25.9061 5.50228 26.0343 5.58849 26.1883Z" fill="#A5D9CC"/>
<path d="M43.2108 44.9897L43.9699 46.1965C44.0941 46.3895 44.2692 46.5444 44.4759 46.6441L45.78 47.228C45.9699 47.3162 46.1326 47.4539 46.2511 47.6265C46.3695 47.7992 46.4394 48.0005 46.4533 48.2095C46.4672 48.4184 46.4247 48.6273 46.3302 48.8141C46.2358 49.001 46.0928 49.159 45.9162 49.2717L44.7095 50.0502C44.523 50.1763 44.3749 50.3514 44.2813 50.5562L43.678 51.8603C43.5832 52.0289 43.448 52.1713 43.2845 52.2748C43.1211 52.3782 42.9345 52.4395 42.7415 52.453C42.5485 52.4665 42.3552 52.4318 42.179 52.3522C42.0027 52.2725 41.849 52.1503 41.7316 51.9965L40.9726 50.7898C40.8429 50.6064 40.6688 50.4591 40.4665 50.3616L39.1625 49.7582C38.9726 49.67 38.8099 49.5324 38.6914 49.3597C38.5729 49.187 38.5031 48.9857 38.4892 48.7768C38.4752 48.5678 38.5177 48.359 38.6122 48.1721C38.7067 47.9852 38.8497 47.8272 39.0262 47.7146L40.233 46.9361C40.4144 46.8125 40.5617 46.6451 40.6612 46.4495L41.2645 45.1455C41.3575 44.9756 41.4913 44.8315 41.6539 44.7262C41.8164 44.6209 42.0026 44.5577 42.1956 44.5423C42.3887 44.5268 42.5826 44.5597 42.7598 44.6378C42.937 44.7159 43.092 44.8368 43.2108 44.9897Z" fill="#FFD255"/>
<path d="M62.1683 1.56732L62.7132 2.4237C62.8023 2.56242 62.9312 2.67097 63.083 2.73512L63.9978 3.16331C64.1339 3.22504 64.251 3.3221 64.3369 3.4444C64.4229 3.5667 64.4745 3.70977 64.4864 3.85876C64.4983 4.00775 64.4701 4.15721 64.4047 4.29161C64.3393 4.42602 64.2392 4.54046 64.1146 4.62305L63.2387 5.16802C63.107 5.25113 63.0048 5.37374 62.9468 5.51835L62.5186 6.45259C62.4549 6.58754 62.3564 6.70302 62.2331 6.78706C62.1098 6.8711 61.9662 6.92065 61.8174 6.93057C61.6685 6.9405 61.5196 6.91044 61.3863 6.84351C61.2529 6.77658 61.1399 6.67521 61.0589 6.5499L60.5139 5.69352C60.4194 5.55968 60.2921 5.45243 60.1441 5.38211L59.2293 4.95392C59.0928 4.89525 58.9748 4.80047 58.8881 4.67978C58.8015 4.55909 58.7493 4.41706 58.7373 4.26894C58.7253 4.12083 58.7539 3.97224 58.82 3.83916C58.8861 3.70608 58.9873 3.59354 59.1125 3.51364L59.9884 2.94921C60.1156 2.86097 60.2165 2.73989 60.2803 2.59887L60.7085 1.66464C60.7722 1.52969 60.8708 1.41421 60.9941 1.33017C61.1174 1.24613 61.2609 1.19658 61.4098 1.18665C61.5587 1.17673 61.7075 1.20679 61.8408 1.27372C61.9742 1.34065 62.0873 1.44202 62.1683 1.56732Z" fill="#FFD255"/>
<path d="M26.2195 58.8669L27.0759 60.1515C27.204 60.3605 27.3947 60.524 27.6209 60.6186L29.0222 61.2414C29.2274 61.3335 29.4044 61.4787 29.5348 61.662C29.6652 61.8452 29.7444 62.06 29.7643 62.284C29.7841 62.5081 29.7438 62.7334 29.6476 62.9367C29.5514 63.14 29.4027 63.314 29.2168 63.4408L27.9323 64.2971C27.7237 64.417 27.5598 64.6015 27.4652 64.8226L26.8423 66.2435C26.7531 66.4524 26.6084 66.6331 26.4239 66.7657C26.2394 66.8984 26.0222 66.978 25.7956 66.9961C25.5691 67.0141 25.342 66.9698 25.1388 66.8681C24.9356 66.7663 24.7642 66.6109 24.643 66.4186L23.7866 65.1341C23.6527 64.9347 23.4632 64.779 23.2416 64.6864L21.8403 64.0636C21.6351 63.9715 21.4582 63.8263 21.3277 63.643C21.1973 63.4598 21.1181 63.245 21.0982 63.021C21.0784 62.7969 21.1187 62.5716 21.2149 62.3683C21.3111 62.165 21.4598 61.991 21.6457 61.8642L22.9497 61.0079C23.1442 60.8686 23.2985 60.6807 23.3973 60.4629L24.0202 59.0421C24.1142 58.8381 24.261 58.6628 24.4452 58.5343C24.6295 58.4057 24.8446 58.3286 25.0686 58.3107C25.2925 58.2929 25.5172 58.335 25.7195 58.4328C25.9217 58.5305 26.0943 58.6804 26.2195 58.8669Z" fill="#FDDED0"/>
<defs>
<linearGradient id="paint0_linear_336_48175" x1="16.9936" y1="19.2556" x2="-0.870481" y2="9.71455" gradientUnits="userSpaceOnUse">
<stop stop-color="#553730"/>
<stop offset="0.25" stop-color="#593A2E"/>
<stop offset="0.35" stop-color="#5D3C2C"/>
<stop offset="0.55" stop-color="#68432A"/>
<stop offset="0.65" stop-color="#6F4729"/>
<stop offset="0.97" stop-color="#7A4E2F"/>
</linearGradient>
<linearGradient id="paint1_linear_336_48175" x1="43.3945" y1="41.8557" x2="59.1911" y2="29.1368" gradientUnits="userSpaceOnUse">
<stop stop-color="#513134"/>
<stop offset="0.99" stop-color="#553730"/>
</linearGradient>
<linearGradient id="paint2_linear_336_48175" x1="72.5667" y1="88.3774" x2="69.1231" y2="89.1386" gradientUnits="userSpaceOnUse">
<stop stop-color="#FBC3AA"/>
<stop offset="0.26" stop-color="#FCCFC6"/>
<stop offset="0.34" stop-color="#FCD4D1"/>
<stop offset="0.7" stop-color="#FDDED0"/>
<stop offset="1" stop-color="#FEE3CC"/>
</linearGradient>
<linearGradient id="paint3_linear_336_48175" x1="69.8268" y1="85.622" x2="65.6617" y2="85.9969" gradientUnits="userSpaceOnUse">
<stop stop-color="#FBC3AA"/>
<stop offset="0.26" stop-color="#FCCFC6"/>
<stop offset="0.34" stop-color="#FCD4D1"/>
<stop offset="0.7" stop-color="#FDDED0"/>
<stop offset="1" stop-color="#FEE3CC"/>
</linearGradient>
<linearGradient id="paint4_linear_336_48175" x1="102.668" y1="67.1718" x2="100.55" y2="66.3065" gradientUnits="userSpaceOnUse">
<stop stop-color="#F15652"/>
<stop offset="0.48" stop-color="#F2665C"/>
<stop offset="0.94" stop-color="#F37065"/>
</linearGradient>
<linearGradient id="paint5_linear_336_48175" x1="52.6092" y1="24.5838" x2="50.5843" y2="3.68892" gradientUnits="userSpaceOnUse">
<stop stop-color="#F05355"/>
<stop offset="0.41" stop-color="#F15652"/>
<stop offset="0.71" stop-color="#F2665C"/>
<stop offset="0.94" stop-color="#F37065"/>
</linearGradient>
<linearGradient id="paint6_linear_336_48175" x1="76.993" y1="53.4071" x2="72.1279" y2="64.7541" gradientUnits="userSpaceOnUse">
<stop stop-color="#F05355"/>
<stop offset="0.33" stop-color="#F15652"/>
<stop offset="0.63" stop-color="#F2665C"/>
<stop offset="0.94" stop-color="#F37065"/>
</linearGradient>
<linearGradient id="paint7_linear_336_48175" x1="72.8437" y1="57.8813" x2="70.7611" y2="67.8791" gradientUnits="userSpaceOnUse">
<stop stop-color="#FBC3AA"/>
<stop offset="0.54" stop-color="#FCD7C6"/>
<stop offset="0.7" stop-color="#FDDED0"/>
<stop offset="1" stop-color="#FEE3CC"/>
</linearGradient>
<linearGradient id="paint8_linear_336_48175" x1="93.3964" y1="43.7512" x2="89.7147" y2="42.4339" gradientUnits="userSpaceOnUse">
<stop stop-color="#FBC3AA"/>
<stop offset="0.32" stop-color="#FCCFC6"/>
<stop offset="0.43" stop-color="#FCD4D1"/>
<stop offset="1" stop-color="#FDDED0"/>
</linearGradient>
<linearGradient id="paint9_linear_336_48175" x1="89.5553" y1="44.742" x2="61.1779" y2="47.296" gradientUnits="userSpaceOnUse">
<stop stop-color="#FBC3AA"/>
<stop offset="0.26" stop-color="#FCCFC6"/>
<stop offset="0.34" stop-color="#FCD4D1"/>
<stop offset="0.7" stop-color="#FDDED0"/>
<stop offset="1" stop-color="#FEE3CC"/>
</linearGradient>
<linearGradient id="paint10_linear_336_48175" x1="33.9238" y1="61.2891" x2="34.0605" y2="59.0119" gradientUnits="userSpaceOnUse">
<stop stop-color="#F05355"/>
<stop offset="0.41" stop-color="#F15652"/>
<stop offset="1" stop-color="#F2665C"/>
</linearGradient>
<linearGradient id="paint11_linear_336_48175" x1="74.9998" y1="18" x2="-26.0002" y2="112" gradientUnits="userSpaceOnUse">
<stop stop-color="#6FA1CC"/>
<stop offset="0.32" stop-color="#7DB7D1"/>
<stop offset="0.53" stop-color="#89C5D2"/>
<stop offset="0.75" stop-color="#97D1CB"/>
<stop offset="1" stop-color="#A5D9CC"/>
</linearGradient>
<linearGradient id="paint12_linear_336_48175" x1="43.4153" y1="-4.68124" x2="36.8951" y2="-4.61603" gradientUnits="userSpaceOnUse">
<stop stop-color="#A82823"/>
<stop offset="0.38" stop-color="#8C2B22"/>
<stop offset="0.39" stop-color="#8B2B22"/>
<stop offset="1" stop-color="#852D1E"/>
</linearGradient>
<linearGradient id="paint13_linear_336_48175" x1="41.1305" y1="-3.47104" x2="35.6224" y2="-3.41596" gradientUnits="userSpaceOnUse">
<stop stop-color="#F1637F"/>
<stop offset="0.49" stop-color="#F37F95"/>
<stop offset="1" stop-color="#F6A2B0"/>
</linearGradient>
<linearGradient id="paint14_linear_336_48175" x1="90.1063" y1="36.0396" x2="79.5573" y2="36.989" gradientUnits="userSpaceOnUse">
<stop stop-color="#513134"/>
<stop offset="0.99" stop-color="#553730"/>
</linearGradient>
<linearGradient id="paint15_linear_336_48175" x1="37.8711" y1="66.1786" x2="47.7303" y2="43.5025" gradientUnits="userSpaceOnUse">
<stop offset="0.17" stop-color="#6F4729"/>
<stop offset="0.33" stop-color="#68432A"/>
<stop offset="0.65" stop-color="#5D3C2C"/>
<stop offset="0.75" stop-color="#593A2E"/>
<stop offset="1" stop-color="#553730"/>
</linearGradient>
<linearGradient id="paint16_linear_336_48175" x1="74.4826" y1="41.4288" x2="68.2544" y2="41.9894" gradientUnits="userSpaceOnUse">
<stop stop-color="#513134"/>
<stop offset="0.99" stop-color="#553730"/>
</linearGradient>
<linearGradient id="paint17_linear_336_48175" x1="45.2546" y1="24.9622" x2="51.2337" y2="26.7061" gradientUnits="userSpaceOnUse">
<stop stop-color="#513134"/>
<stop offset="0.99" stop-color="#553730"/>
</linearGradient>
<linearGradient id="paint18_linear_336_48175" x1="85.4208" y1="51.4379" x2="82.0103" y2="50.8523" gradientUnits="userSpaceOnUse">
<stop stop-color="#242F3D"/>
<stop offset="1" stop-color="#212E5D"/>
</linearGradient>
<linearGradient id="paint19_linear_336_48175" x1="86.707" y1="50.6472" x2="84.9729" y2="50.3494" gradientUnits="userSpaceOnUse">
<stop stop-color="#242F3D"/>
<stop offset="1" stop-color="#212E5D"/>
</linearGradient>
<linearGradient id="paint20_linear_336_48175" x1="38.2844" y1="54.3484" x2="41.6789" y2="54.9365" gradientUnits="userSpaceOnUse">
<stop stop-color="#242F3D"/>
<stop offset="1" stop-color="#212E5D"/>
</linearGradient>
<linearGradient id="paint21_linear_336_48175" x1="37.3417" y1="53.1775" x2="39.0869" y2="53.4799" gradientUnits="userSpaceOnUse">
<stop stop-color="#242F3D"/>
<stop offset="1" stop-color="#212E5D"/>
</linearGradient>
<linearGradient id="paint22_linear_336_48175" x1="18.9995" y1="84.5" x2="97.4962" y2="26.3458" gradientUnits="userSpaceOnUse">
<stop stop-color="#AFDCD2"/>
<stop offset="0.07" stop-color="#B6DFD6"/>
<stop offset="0.48" stop-color="#DEF0EC"/>
<stop offset="0.8" stop-color="#F6FBFA"/>
<stop offset="1" stop-color="white"/>
</linearGradient>
<linearGradient id="paint23_linear_336_48175" x1="53.5738" y1="12.5355" x2="51.9552" y2="12.3066" gradientUnits="userSpaceOnUse">
<stop stop-color="#242F3D"/>
<stop offset="1" stop-color="#212E5D"/>
</linearGradient>
<linearGradient id="paint24_linear_336_48175" x1="52.922" y1="12.8365" x2="51.9585" y2="12.7002" gradientUnits="userSpaceOnUse">
<stop stop-color="#DE7C6B"/>
<stop offset="0.58" stop-color="#F39D98"/>
<stop offset="0.92" stop-color="#FAB397"/>
</linearGradient>
<linearGradient id="paint25_linear_336_48175" x1="93.2309" y1="41.4828" x2="91.6894" y2="41.2181" gradientUnits="userSpaceOnUse">
<stop stop-color="#242F3D"/>
<stop offset="1" stop-color="#212E5D"/>
</linearGradient>
<linearGradient id="paint26_linear_336_48175" x1="97.0971" y1="42.1864" x2="95.5557" y2="41.9217" gradientUnits="userSpaceOnUse">
<stop stop-color="#242F3D"/>
<stop offset="1" stop-color="#212E5D"/>
</linearGradient>
<linearGradient id="paint27_linear_336_48175" x1="48.9136" y1="67.2753" x2="46.4807" y2="67.2753" gradientUnits="userSpaceOnUse">
<stop stop-color="#242F3D"/>
<stop offset="1" stop-color="#212E5D"/>
</linearGradient>
<linearGradient id="paint28_linear_336_48175" x1="54.789" y1="72.3107" x2="52.0252" y2="72.2278" gradientUnits="userSpaceOnUse">
<stop stop-color="#242F3D"/>
<stop offset="1" stop-color="#212E5D"/>
</linearGradient>
<linearGradient id="paint29_linear_336_48175" x1="27.2103" y1="34.8997" x2="24.7632" y2="34.6031" gradientUnits="userSpaceOnUse">
<stop stop-color="#DE7C6B"/>
<stop offset="0.58" stop-color="#F39D98"/>
<stop offset="0.92" stop-color="#FAB397"/>
</linearGradient>
</defs>
</svg>
