<svg width="72" height="72" viewBox="0 0 72 72" fill="none" xmlns="http://www.w3.org/2000/svg">
<path d="M36.01 62.02C50.3749 62.02 62.02 50.3749 62.02 36.01C62.02 21.6451 50.3749 10 36.01 10C21.6451 10 10 21.6451 10 36.01C10 50.3749 21.6451 62.02 36.01 62.02Z" fill="#FFC648"/>
<mask id="mask0_336_48140" style="mask-type:luminance" maskUnits="userSpaceOnUse" x="10" y="10" width="53" height="53">
<path d="M36.01 62.02C50.3749 62.02 62.02 50.3749 62.02 36.01C62.02 21.6451 50.3749 10 36.01 10C21.6451 10 10 21.6451 10 36.01C10 50.3749 21.6451 62.02 36.01 62.02Z" fill="white"/>
</mask>
<g mask="url(#mask0_336_48140)">
<path d="M44.7956 34.9904C44.7956 34.9904 47.4639 30.001 50.848 31.0423C54.2321 32.0836 54.1236 35.2725 51.911 37.7672C51.911 37.7672 56.4665 39.6111 55.0348 43.4724C54.7894 44.1138 54.3294 44.6504 53.7332 44.991C53.0406 45.2962 52.2846 45.4299 51.5294 45.3808C50.7741 45.3317 50.0418 45.1013 49.3946 44.7089C49.3946 44.7089 51.0432 47.8978 46.184 48.9174C41.3247 49.937 38.8734 37.0296 38.8734 37.0296L44.7956 34.9904Z" fill="white"/>
<path d="M44.7956 34.9904C46.0538 32.8211 48.375 30.0444 51.1734 31.1073C54.3623 32.1052 53.9284 35.793 51.976 37.8105C53.0972 38.1219 54.0567 38.8505 54.6577 39.8468C55.2588 40.8432 55.4557 42.0317 55.2083 43.1687C54.666 45.7936 51.3035 45.9454 49.3512 44.7957L49.503 44.6438C50.8914 47.5507 46.8998 49.7634 44.4702 48.7655C43.6868 48.3178 43.0184 47.694 42.5179 46.9433C40.6637 43.8944 39.4256 40.5116 38.8734 36.9862L44.7956 34.9904ZM44.7956 34.9904L38.8734 37.0512C39.5326 40.5165 40.8034 43.8367 42.6263 46.8565C43.1124 47.5869 43.7672 48.1896 44.5353 48.6137C46.7046 49.5248 50.6094 47.4639 49.3078 44.7523C49.1342 44.3835 49.1125 44.4486 49.4596 44.6004C51.3252 45.6417 54.4707 45.62 55.0348 43.1036C55.5988 40.5872 53.8633 38.6348 51.8025 37.7888C53.7549 35.8581 54.2972 32.1703 51.1517 31.1724C48.3967 30.0878 46.0538 32.8645 44.7956 34.9904Z" fill="white"/>
<path d="M28.9164 36.1185C28.9164 36.1185 28.656 30.4566 25.1418 29.936C21.6275 29.4153 20.3693 32.3656 21.3021 35.5762C20.7755 35.5346 20.246 35.6015 19.7463 35.7727C19.2465 35.9439 18.7873 36.2159 18.3969 36.5717C18.0065 36.9276 17.6932 37.3597 17.4765 37.8414C17.2598 38.3232 17.1443 38.8443 17.137 39.3724C17.0543 40.0559 17.2324 40.7454 17.636 41.3031C18.1302 41.875 18.7549 42.3194 19.4572 42.5988C20.1596 42.8783 20.9188 42.9844 21.6709 42.9084C21.6709 42.9084 18.8074 45.0777 22.7555 48.0931C28.1788 52.1714 38.8735 39.0471 38.8735 39.0471L28.9164 36.1185Z" fill="white"/>
<path d="M28.9163 36.1185C28.6994 33.6671 27.7666 30.1529 24.8163 29.9359C21.8661 29.719 20.4777 33.038 21.3671 35.6195C20.8333 35.5774 20.2965 35.6467 19.7909 35.8232C19.2852 35.9997 18.8219 36.2794 18.4302 36.6446C18.0385 37.0097 17.727 37.4524 17.5156 37.9444C17.3042 38.4365 17.1974 38.9671 17.2021 39.5026C17.0502 41.8237 19.6751 42.9084 21.6708 42.7999C22.083 42.7999 21.9962 42.7999 21.6708 42.9952C19.7185 44.5788 21.2153 47.1168 22.9941 48.1147C28.5909 50.9131 35.3592 42.4962 38.7867 39.0904L28.8512 36.1185H28.9163ZM28.9163 36.1185C28.9163 36.1185 39.0687 38.9819 38.8951 38.9819C35.0988 43.3206 25.5322 54.1671 20.738 45.7936C20.5354 45.2581 20.5103 44.6717 20.6666 44.1209C20.8228 43.5701 21.1521 43.0841 21.6058 42.7348V42.9301C19.4364 43.0385 16.7899 41.8454 16.9634 39.3941C17.0106 38.2969 17.4582 37.255 18.2216 36.4655C18.6305 36.1014 19.1075 35.8218 19.6251 35.6431C20.1426 35.4644 20.6905 35.39 21.237 35.4243C20.3259 32.8211 21.5624 29.2201 24.838 29.7407C28.1137 30.2613 28.6994 33.4936 28.9163 35.9666V36.1185Z" fill="white"/>
<path d="M37.7237 43.711H35.9883C34.6907 43.7606 33.3964 43.5483 32.1825 43.0871C30.9687 42.6258 29.8601 41.9249 28.9229 41.0261C27.9856 40.1273 27.2389 39.0491 26.7272 37.8556C26.2155 36.6621 25.9493 35.3779 25.9444 34.0793V32.7344C25.847 31.5354 25.9915 30.329 26.3693 29.1869C26.747 28.0448 27.3504 26.9903 28.1436 26.0858C28.9367 25.1814 29.9035 24.4455 30.9865 23.9219C32.0695 23.3983 33.2466 23.0975 34.4481 23.0375L37.42 22.9074C38.6424 22.855 39.8631 23.0442 41.0123 23.4641C42.1615 23.884 43.2166 24.5264 44.1173 25.3545C45.0179 26.1827 45.7464 27.1802 46.2611 28.2902C46.7758 29.4002 47.0666 30.6008 47.1168 31.8232V32.474C47.1351 33.1545 47.0547 33.8341 46.8782 34.4915C44.9909 40.6957 42.865 43.4941 37.7237 43.711Z" fill="white"/>
<path d="M37.7238 43.7111C23.7968 46.0973 20.8899 23.3846 35.0555 22.9508C42.8 21.6058 49.373 28.2873 46.4227 35.9666C45.2947 40.0449 42.3227 43.928 37.7455 43.7544L37.7238 43.7111ZM37.7238 43.7111C42.3227 43.8412 45.2513 39.9582 46.401 35.9016C49.2428 28.3524 42.7783 21.8011 35.1423 23.1894C21.1503 23.5799 23.9487 45.9671 37.7889 43.7111H37.7238Z" fill="white"/>
<path d="M34.2094 19.9137C34.3613 21.74 34.3613 23.5758 34.2094 25.4021C34.0576 23.5758 34.0576 21.74 34.2094 19.9137Z" fill="white"/>
<path d="M25.4238 28.2439V28.3523C25.2351 30.287 25.4267 32.2399 25.9878 34.101V33.9708C26.2806 33.1458 26.7453 32.3923 27.3511 31.7603C27.957 31.1283 28.6901 30.6321 29.5021 30.3047C30.619 29.8306 31.6178 29.1165 32.4276 28.2129C33.2374 27.3094 33.8384 26.2386 34.1878 25.0767V19.6317C27.0941 20.5428 25.5973 25.0984 25.4238 28.2439Z" fill="white"/>
<path d="M25.4238 28.2439C25.2517 30.2045 25.428 32.1801 25.9444 34.0793C26.3244 33.1057 26.908 32.2247 27.6563 31.4951C28.4046 30.7655 29.3002 30.2043 30.283 29.8492C32.0757 28.8011 33.4137 27.1229 34.0359 25.1418V19.6317C31.8407 19.9851 29.7681 20.8797 28.0053 22.2349C26.3621 23.8103 25.4038 25.9684 25.337 28.2439H25.4238ZM25.4238 28.2439C25.4911 25.9301 26.4536 23.7327 28.1084 22.1143C29.7633 20.4958 31.9816 19.5825 34.2963 19.5666V25.0767C33.6677 27.1327 32.2686 28.866 30.3915 29.9142C29.4144 30.255 28.5216 30.8011 27.7732 31.5158C27.0248 32.2305 26.4382 33.0972 26.0529 34.0576C25.376 32.1763 25.1748 30.1567 25.4672 28.1788L25.4238 28.2439Z" fill="white"/>
<path d="M34.1444 24.0571C34.0142 25.337 35.0989 26.8989 37.1597 27.9402C38.3182 28.3643 39.5506 28.5488 40.7825 28.4825C41.7339 28.3915 42.6826 28.6802 43.4221 29.2856C44.1616 29.891 44.632 30.7641 44.7306 31.7148C45.0259 33.0189 45.8001 34.1647 46.8999 34.9253C46.8999 34.9253 50.4359 24.0788 41.8671 19.5016C41.075 19.0467 40.1774 18.8074 39.264 18.8074C38.3505 18.8074 37.453 19.0467 36.6608 19.5016C35.921 20.018 35.3095 20.6972 34.8732 21.4869C34.437 22.2766 34.1877 23.1559 34.1444 24.0571Z" fill="white"/>
<path d="M34.1443 24.0571C34.209 24.8232 34.4761 25.5583 34.9183 26.1873C35.3604 26.8162 35.9618 27.3163 36.6607 27.6365C38.0098 28.2851 39.5075 28.5622 40.9993 28.4391C41.7848 28.4234 42.5535 28.6681 43.1853 29.1351C43.8171 29.6021 44.2765 30.2651 44.4919 31.0206C44.7064 32.5278 45.481 33.8988 46.6612 34.8603C47.4639 30.8688 47.7459 24.9683 44.2099 21.5624C40.4787 17.5058 34.448 17.7228 33.9491 24.0571H34.1443ZM34.1443 24.0571C34.5999 17.5492 40.6523 17.4191 44.5136 21.454C46.0766 23.3016 47.1048 25.5412 47.4871 27.9308C47.8695 30.3205 47.5914 32.7691 46.6829 35.0121C45.437 34.041 44.6135 32.6269 44.3835 31.064C44.1822 30.3289 43.7431 29.6812 43.1348 29.222C42.5264 28.7628 41.7832 28.518 41.021 28.5259C39.4819 28.6627 37.9349 28.3699 36.5523 27.6799C35.8513 27.3532 35.2504 26.8451 34.8118 26.2081C34.3732 25.5712 34.1128 24.8285 34.0576 24.0571H34.1443Z" fill="white"/>
<path d="M25.337 27.9402C25.1642 29.9993 25.3701 32.0727 25.9444 34.0576V33.9492C26.5126 32.2169 27.7454 30.7812 29.3719 29.9576C31.8054 28.7594 33.7016 26.6929 34.6867 24.1656L39.5025 18.6121C26.4867 18.0264 25.5105 24.773 25.337 27.9402Z" fill="white"/>
<path d="M25.3369 27.9401C25.1823 30.0252 25.3729 32.1214 25.9009 34.1444C26.2823 33.0692 26.8904 32.0886 27.6838 31.269C28.4773 30.4493 29.4376 29.8097 30.4998 29.3936C32.3905 28.1277 33.845 26.3097 34.6649 24.1872L39.4808 18.6338C33.2549 18.8074 25.6623 19.4365 25.3369 27.9401ZM25.3369 27.9401C25.3094 26.3166 25.738 24.7178 26.574 23.3258C27.41 21.9337 28.6199 20.8042 30.066 20.0656C33.0618 18.7155 36.385 18.2633 39.6326 18.764L34.8168 24.3174C33.9395 26.4515 32.4241 28.2623 30.4781 29.502C29.4218 29.9039 28.4643 30.5284 27.6707 31.3332C26.8772 32.138 26.2662 33.1041 25.8792 34.1661C25.2116 32.1628 24.9967 30.0364 25.2501 27.9401H25.3369Z" fill="white"/>
<path d="M34.0576 23.7968C34.0576 25.055 35.0988 26.6603 37.1814 27.6365C38.344 28.0391 39.578 28.1943 40.8041 28.092C41.7552 27.9748 42.7141 28.2369 43.4734 28.8216C44.2326 29.4062 44.731 30.2664 44.8607 31.2158C45.2146 32.5742 45.8834 33.8302 46.8131 34.882C46.8131 34.882 50.6962 23.0375 41.5634 19.0243C40.7589 18.5951 39.8611 18.3706 38.9494 18.3706C38.0376 18.3706 37.1398 18.5951 36.3353 19.0243C35.6156 19.5923 35.0359 20.318 34.641 21.1455C34.2461 21.9729 34.0465 22.88 34.0576 23.7968Z" fill="white"/>
<path d="M34.0575 23.7968C34.1342 24.5768 34.4207 25.3215 34.8867 25.9518C35.3527 26.582 35.9807 27.0742 36.7041 27.3761C38.7649 28.6994 41.5199 27.3762 43.494 28.7645C44.0962 29.2816 44.5399 29.9584 44.7739 30.7169C45.142 32.2437 45.8879 33.6536 46.9432 34.8169H46.7913C48.0278 30.283 48.158 24.6862 44.622 21.1069C40.7607 17.2889 34.3612 17.2889 34.0575 23.7968ZM34.0575 23.7968C34.3178 17.1153 40.7824 17.1587 44.6871 21.0635C48.2448 24.5777 48.3966 30.6084 46.8564 34.9904C44.9691 33.3417 45.2294 30.4783 43.4723 28.8513C41.7152 27.2243 38.8083 28.8513 36.7474 27.4195C36.0099 27.1205 35.3689 26.6243 34.8945 25.9854C34.42 25.3464 34.1305 24.5893 34.0575 23.7968Z" fill="white"/>
<path d="M36.8343 42.7783C39.7397 42.7783 42.5262 43.9325 44.5806 45.9869C46.6351 48.0414 47.7893 50.8278 47.7893 53.7333V62.02H25.8793V53.7333C25.8793 50.8278 27.0335 48.0414 29.0879 45.9869C31.1424 43.9325 33.9288 42.7783 36.8343 42.7783Z" fill="white"/>
</g>
</svg>
