<svg width="38" height="38" viewBox="0 0 38 38" fill="none" xmlns="http://www.w3.org/2000/svg">
<path d="M18.65 37.7825C28.9501 37.7825 37.2999 29.4489 37.2999 19.1689C37.2999 8.88886 28.9501 0.555328 18.65 0.555328C8.3499 0.555328 0 8.88886 0 19.1689C0 29.4489 8.3499 37.7825 18.65 37.7825Z" fill="url(#paint0_linear_148_15447)"/>
<path d="M18.4042 35.0411C27.1873 35.0411 34.3075 27.9349 34.3075 19.1688C34.3075 10.4028 27.1873 3.29663 18.4042 3.29663C9.62106 3.29663 2.50098 10.4028 2.50098 19.1688C2.50098 27.9349 9.62106 35.0411 18.4042 35.0411Z" fill="url(#paint1_linear_148_15447)"/>
<path opacity="0.5" d="M18.4012 33.0674C26.0921 33.0674 32.3269 26.8448 32.3269 19.1689C32.3269 11.4929 26.0921 5.27032 18.4012 5.27032C10.7103 5.27032 4.47559 11.4929 4.47559 19.1689C4.47559 26.8448 10.7103 33.0674 18.4012 33.0674Z" stroke="#C66230" stroke-width="0.26" stroke-miterlimit="10"/>
<g opacity="0.5">
<path d="M13.2881 29.394C13.2881 28.7635 13.2881 28.1331 13.2881 27.53C13.2881 26.9269 13.2881 26.3237 13.2881 25.748C13.2881 25.1724 13.2881 24.5419 13.2881 23.9662V22.1021C13.2881 20.2654 13.2881 18.5384 13.2881 16.8662C13.2881 15.194 13.2881 13.7136 13.2881 12.3978C14.0572 12.3978 14.8537 12.2334 15.6777 12.1785H17.9025C21.7753 12.1785 23.698 13.3573 23.6705 15.6052C23.6715 16.4235 23.3902 17.2173 22.874 17.8531C22.3497 18.4494 21.6286 18.8385 20.8415 18.9496C21.9833 19.1019 23.0293 19.6678 23.7804 20.5395C24.4644 21.5146 24.785 22.6977 24.6868 23.884C24.7377 24.7255 24.5874 25.567 24.2483 26.3392C23.9093 27.1113 23.3911 27.7919 22.7367 28.3249C20.9864 29.4013 18.9336 29.8823 16.8862 29.6955H15.1558C14.6339 29.5585 13.9473 29.4763 13.2881 29.394ZM16.6939 17.9079H17.1884H17.5729C18.2 17.9352 18.8237 17.8031 19.3857 17.5241C19.5868 17.4179 19.7562 17.2606 19.8768 17.068C19.9974 16.8755 20.0649 16.6545 20.0724 16.4275C20.0764 16.226 20.0247 16.0273 19.9229 15.8532C19.8212 15.6791 19.6733 15.5364 19.4956 15.4407C18.9737 15.19 18.3991 15.0678 17.8201 15.0843H17.1884H16.7489L16.6939 17.9079ZM16.6939 23.8292C16.8946 23.8547 17.0976 23.8547 17.2982 23.8292H18.1223C18.8126 23.876 19.5033 23.7438 20.1273 23.4453C20.3387 23.3302 20.5145 23.1595 20.6356 22.9517C20.7566 22.7439 20.8183 22.5069 20.814 22.2666C20.8223 22.0181 20.7629 21.7721 20.642 21.5548C20.521 21.3375 20.3431 21.1571 20.1273 21.033C19.5071 20.7191 18.8171 20.5682 18.1223 20.5944H16.7214L16.6939 23.8292Z" fill="#C66230"/>
<path d="M24.4156 14.0977C24.8861 13.3252 25.135 12.4386 25.135 11.5346C25.135 10.6306 24.8861 9.74392 24.4156 8.97144C24.3565 8.87344 24.2682 8.79639 24.163 8.751C24.0578 8.70561 23.941 8.6942 23.829 8.71837C23.7169 8.74255 23.6153 8.80106 23.5383 8.88577C23.4613 8.97049 23.4127 9.07717 23.3994 9.19079C23.3994 10.3696 22.5479 11.9321 19.9111 13.851L23.1247 14.6186C23.3674 14.684 23.6248 14.6685 23.8578 14.5745C24.0908 14.4805 24.2867 14.313 24.4156 14.0977Z" fill="#C66230"/>
<path d="M12.3024 13.4669C11.9509 12.7288 11.7941 11.9132 11.8469 11.0976C11.8998 10.282 12.1606 9.4934 12.6045 8.80662C12.6668 8.70626 12.7598 8.62864 12.8697 8.58526C12.9797 8.54189 13.1008 8.53506 13.215 8.56585C13.3292 8.59665 13.4303 8.66341 13.5034 8.75618C13.5766 8.84894 13.6177 8.96279 13.6208 9.08077C13.6208 10.2595 14.3899 11.8221 16.9717 13.8233L14.2251 14.4264C13.8426 14.5226 13.4382 14.4786 13.0854 14.3026C12.7326 14.1265 12.4548 13.83 12.3024 13.4669Z" fill="#C66230"/>
</g>
<defs>
<linearGradient id="paint0_linear_148_15447" x1="5.73353" y1="35.0262" x2="60.0227" y2="-31.1692" gradientUnits="userSpaceOnUse">
<stop stop-color="#F9BF11"/>
<stop offset="0.59" stop-color="#E47711"/>
<stop offset="1" stop-color="#934118"/>
</linearGradient>
<linearGradient id="paint1_linear_148_15447" x1="68.7772" y1="25.5945" x2="153.314" y2="6.35318" gradientUnits="userSpaceOnUse">
<stop stop-color="#F9CB34"/>
<stop offset="0.88" stop-color="#DE8823"/>
</linearGradient>
</defs>
</svg>
