<svg width="72" height="72" viewBox="0 0 72 72" fill="none" xmlns="http://www.w3.org/2000/svg">
<path d="M31.751 14.0005C29.3008 13.9812 26.8803 14.5383 24.685 15.6269C22.4898 16.7155 20.5813 18.305 19.1136 20.2672C17.6459 22.2294 16.6602 24.5091 16.236 26.9225C15.8118 29.3358 15.961 31.8151 16.6716 34.1601C17.3822 36.5052 18.6343 38.6503 20.3268 40.4222C22.0192 42.1941 24.1046 43.5433 26.4146 44.3607C28.7246 45.1781 31.1944 45.4408 33.6247 45.1278C36.055 44.8147 38.3775 43.9345 40.4049 42.5584L49.0588 51.1104L53.0804 47.0889L44.4519 38.6132C46.3586 36.0028 47.4 32.8609 47.4299 29.6284C47.4299 27.5718 47.024 25.5355 46.2354 23.6361C45.4469 21.7367 44.2912 20.0116 42.8346 18.5598C41.378 17.1079 39.6492 15.9578 37.7472 15.1754C35.8453 14.3931 33.8076 13.9938 31.751 14.0005ZM31.9547 40.6239C29.7799 40.6239 27.6541 39.9791 25.8459 38.7709C24.0377 37.5627 22.6283 35.8454 21.7961 33.8362C20.9639 31.827 20.7461 29.6162 21.1704 27.4833C21.5947 25.3504 22.6419 23.3911 24.1796 21.8534C25.7174 20.3156 27.6766 19.2684 29.8095 18.8441C31.9425 18.4199 34.1533 18.6376 36.1625 19.4699C38.1716 20.3021 39.8889 21.7114 41.0971 23.5196C42.3053 25.3278 42.9502 27.4537 42.9502 29.6284C42.9502 32.5446 41.7917 35.3414 39.7297 37.4034C37.6676 39.4655 34.8709 40.6239 31.9547 40.6239Z" fill="#4D4D4D"/>
<path d="M48.5833 50.6651L52.4963 46.5049L54.1242 48.0361C55.273 49.1167 55.3283 50.924 54.2478 52.0728C53.1672 53.2215 51.3599 53.2769 50.2111 52.1963L48.5833 50.6651Z" fill="#4D4D4D"/>
</svg>
