<svg width="40" height="40" viewBox="0 0 40 40" fill="none" xmlns="http://www.w3.org/2000/svg">
<path d="M30 36.6667C28.6111 36.6667 27.4306 36.1806 26.4583 35.2083C25.4861 34.2361 25 33.0556 25 31.6667C25 31.4722 25.0139 31.2706 25.0417 31.0617C25.0694 30.8528 25.1111 30.6656 25.1667 30.5L13.4167 23.6667C12.9444 24.0833 12.4167 24.41 11.8333 24.6467C11.25 24.8833 10.6389 25.0011 10 25C8.61111 25 7.43056 24.5139 6.45833 23.5417C5.48611 22.5694 5 21.3889 5 20C5 18.6111 5.48611 17.4306 6.45833 16.4583C7.43056 15.4861 8.61111 15 10 15C10.6389 15 11.25 15.1183 11.8333 15.355C12.4167 15.5917 12.9444 15.9178 13.4167 16.3333L25.1667 9.5C25.1111 9.33334 25.0694 9.14611 25.0417 8.93834C25.0139 8.73056 25 8.52889 25 8.33334C25 6.94445 25.4861 5.76389 26.4583 4.79167C27.4306 3.81945 28.6111 3.33334 30 3.33334C31.3889 3.33334 32.5694 3.81945 33.5417 4.79167C34.5139 5.76389 35 6.94445 35 8.33334C35 9.72222 34.5139 10.9028 33.5417 11.875C32.5694 12.8472 31.3889 13.3333 30 13.3333C29.3611 13.3333 28.75 13.2156 28.1667 12.98C27.5833 12.7444 27.0556 12.4178 26.5833 12L14.8333 18.8333C14.8889 19 14.9306 19.1878 14.9583 19.3967C14.9861 19.6056 15 19.8067 15 20C15 20.1933 14.9861 20.395 14.9583 20.605C14.9306 20.815 14.8889 21.0022 14.8333 21.1667L26.5833 28C27.0556 27.5833 27.5833 27.2572 28.1667 27.0217C28.75 26.7861 29.3611 26.6678 30 26.6667C31.3889 26.6667 32.5694 27.1528 33.5417 28.125C34.5139 29.0972 35 30.2778 35 31.6667C35 33.0556 34.5139 34.2361 33.5417 35.2083C32.5694 36.1806 31.3889 36.6667 30 36.6667Z" fill="#BDBDBD"/>
</svg>
