<svg width="48" height="48" viewBox="0 0 48 48" fill="none" xmlns="http://www.w3.org/2000/svg">
<path d="M8 39.9841L10.2992 31.4358C8.46152 28.1071 7.88588 24.2273 8.67791 20.5085C9.46994 16.7896 11.5765 13.4811 14.6111 11.1901C17.6456 8.89912 21.4046 7.77928 25.1981 8.0361C28.9917 8.29293 32.5654 9.90919 35.2635 12.5883C37.9616 15.2674 39.603 18.8297 39.8865 22.6213C40.1701 26.413 39.0768 30.1797 36.8072 33.2304C34.5377 36.281 31.2441 38.4108 27.5309 39.2291C23.8178 40.0473 19.9341 39.499 16.5925 37.6849L8 39.9841ZM17.0199 34.4866L17.5652 34.8109C20.2611 36.4277 23.4552 37.003 26.5458 36.4282C29.6364 35.8534 32.4102 34.1684 34.3446 31.6904C36.2789 29.2124 37.2404 26.1126 37.0478 22.9749C36.8553 19.8372 35.522 16.8783 33.2992 14.6554C31.0763 12.4326 28.1173 11.0993 24.9797 10.9067C21.842 10.7142 18.7422 11.6756 16.2642 13.61C13.7862 15.5444 12.1011 18.3181 11.5264 21.4087C10.9516 24.4993 11.5268 27.6934 13.1437 30.3893L13.468 30.9347L12.1857 35.7099L17.0199 34.4866Z" fill="#61C161"/>
<path fill-rule="evenodd" clip-rule="evenodd" d="M29.9595 26.0123C29.648 25.7597 29.2828 25.5818 28.8919 25.4924C28.501 25.403 28.0948 25.4044 27.7045 25.4964C27.115 25.747 26.7465 26.6608 26.3633 27.1324C26.2832 27.2429 26.1646 27.3193 26.0309 27.3466C25.8972 27.3738 25.7581 27.35 25.6411 27.2798C23.482 26.4323 21.6775 24.8722 20.5269 22.8582C20.4263 22.7338 20.3779 22.5754 20.3916 22.416C20.4053 22.2566 20.4802 22.1088 20.6006 22.0034C21.0327 21.601 21.3526 21.0931 21.5291 20.5296C21.56 19.9083 21.4171 19.2908 21.1164 18.7462C20.8069 18.083 20.4679 17.1397 19.8047 16.7713C19.4869 16.619 19.131 16.5644 18.7822 16.6142C18.4333 16.6641 18.107 16.8162 17.8445 17.0513C17.3928 17.4403 17.034 17.9255 16.7943 18.4713C16.5545 19.017 16.44 19.6095 16.4591 20.2053C16.466 20.5433 16.5104 20.8794 16.5917 21.2075C16.8002 21.9877 17.123 22.7327 17.5497 23.4183C17.8543 23.929 18.189 24.4212 18.5519 24.8922C19.7234 26.5042 21.1946 27.8753 22.885 28.9305C23.7382 29.458 24.6478 29.8881 25.5969 30.2127C26.5821 30.6668 27.6735 30.8402 28.7509 30.7138C29.365 30.6215 29.9469 30.3797 30.4455 30.0096C30.9441 29.6395 31.3441 29.1525 31.6102 28.5915C31.7643 28.2499 31.8106 27.8694 31.7428 27.5009C31.5807 26.8229 30.5638 26.366 29.9595 26.0123Z" fill="#61C161"/>
</svg>
