<svg width="139" height="76" viewBox="0 0 139 76" fill="none" xmlns="http://www.w3.org/2000/svg">
<path d="M95.3331 75.8819C92.9433 75.8923 90.5749 75.4248 88.3636 74.5062C86.1522 73.5877 84.1413 72.2361 82.4461 70.5288C80.7508 68.8215 79.4044 66.7921 78.4839 64.5568C77.5635 62.3214 77.0871 59.924 77.082 57.5018V18.3801C77.082 16.3759 76.2965 14.4539 74.8982 13.0367C73.5 11.6196 71.6036 10.8234 69.6262 10.8234C67.6488 10.8234 65.7524 11.6196 64.3542 13.0367C62.9559 14.4539 62.1704 16.3759 62.1704 18.3801V57.5018C62.1704 62.4078 60.2475 67.1129 56.8248 70.582C53.402 74.0511 48.7598 76 43.9193 76C39.0787 76 34.4365 74.0511 31.0137 70.582C27.591 67.1129 25.6681 62.4078 25.6681 57.5018V31.0533C25.6681 29.0387 24.8785 27.1067 23.473 25.6821C22.0675 24.2576 20.1612 23.4573 18.1735 23.4573C16.1858 23.4573 14.2795 24.2576 12.874 25.6821C11.4685 27.1067 10.6789 29.0387 10.6789 31.0533V44.435C10.5647 45.7906 9.95272 47.0534 8.96399 47.9736C7.97526 48.8938 6.68179 49.4045 5.33943 49.4045C3.99707 49.4045 2.70359 48.8938 1.71486 47.9736C0.726134 47.0534 0.114166 45.7906 0 44.435V31.0533C0.21626 26.3103 2.22745 21.8342 5.6156 18.5552C9.00374 15.2763 13.5082 13.4466 18.1929 13.4466C22.8775 13.4466 27.382 15.2763 30.7702 18.5552C34.1583 21.8342 36.1695 26.3103 36.3858 31.0533V57.5018C36.5228 59.4372 37.3781 61.2482 38.7794 62.5703C40.1808 63.8923 42.0242 64.6274 43.9387 64.6274C45.8532 64.6274 47.6966 63.8923 49.0979 62.5703C50.4993 61.2482 51.3545 59.4372 51.4915 57.5018V18.3801C51.4915 13.5054 53.4022 8.83036 56.8031 5.38342C60.204 1.93648 64.8166 0 69.6262 0C74.4358 0 79.0484 1.93648 82.4493 5.38342C85.8503 8.83036 87.7608 13.5054 87.7608 18.3801V57.5018C87.8975 59.4271 88.7485 61.2284 90.1426 62.5434C91.5367 63.8584 93.3705 64.5894 95.2749 64.5894C97.1793 64.5894 99.0131 63.8584 100.407 62.5434C101.801 61.2284 102.652 59.4271 102.789 57.5018V31.2108C102.789 26.3465 104.695 21.6815 108.089 18.2419C111.483 14.8023 116.085 12.87 120.885 12.87C125.684 12.87 130.287 14.8023 133.68 18.2419C137.074 21.6815 138.981 26.3465 138.981 31.2108V44.435C139.044 45.1845 138.953 45.9391 138.713 46.651C138.473 47.3629 138.09 48.0165 137.588 48.5706C137.086 49.1246 136.476 49.5669 135.797 49.8695C135.117 50.1721 134.383 50.3283 133.641 50.3283C132.899 50.3283 132.165 50.1721 131.485 49.8695C130.806 49.5669 130.196 49.1246 129.694 48.5706C129.192 48.0165 128.809 47.3629 128.569 46.651C128.33 45.9391 128.239 45.1845 128.302 44.435V31.2108C128.302 29.2171 127.52 27.305 126.129 25.8952C124.738 24.4854 122.852 23.6934 120.885 23.6934C118.918 23.6934 117.031 24.4854 115.64 25.8952C114.249 27.305 113.468 29.2171 113.468 31.2108V57.5018C113.458 62.3733 111.544 67.0424 108.145 70.487C104.746 73.9317 100.14 75.8715 95.3331 75.8819Z" fill="white"/>
</svg>
