<svg width="271" height="64" viewBox="0 0 271 64" fill="none" xmlns="http://www.w3.org/2000/svg">
<path d="M1.07068 21.7754C0.673027 20.608 0.46261 19.3851 0.447266 18.1519C0.457257 16.9527 0.935443 15.8048 1.7798 14.9532C2.62416 14.1015 3.76786 13.6135 4.96695 13.5933C8.43463 13.5933 8.86322 15.5414 9.56455 18.3857L14.5128 39.8541L18.4091 20.3728C19.1494 16.4765 19.9286 13.5153 24.2535 13.6322C28.5783 13.7491 29.5914 16.4765 30.4096 20.3728L34.3059 39.8541L38.9035 18.3857C39.4489 15.5414 40.0334 13.5933 43.5011 13.5933C44.697 13.6233 45.8351 14.1143 46.6774 14.9639C47.5197 15.8135 48.001 16.9557 48.0207 18.1519C48.0054 19.3851 47.795 20.608 47.3973 21.7754L40.5399 45.153C39.2152 49.7896 38.2021 50.452 34.4617 50.452C30.7213 50.452 29.6303 49.2441 28.6563 45.3478L24.0587 26.1003L19.4611 45.3478C18.487 49.2441 17.5129 50.452 13.6166 50.452C9.72038 50.452 8.90218 49.7896 7.57745 45.153L1.07068 21.7754Z" fill="#333333"/>
<path d="M68.9011 13.5933C80.1224 13.5933 86.1616 21.6585 86.1616 31.9836C86.1616 42.3087 81.4471 50.452 68.9011 50.452C56.3551 50.452 51.6406 41.8022 51.6406 31.9836C51.6406 22.165 57.6409 13.5933 68.9011 13.5933ZM68.9011 43.2049C74.4338 43.2049 76.6936 37.9839 76.6936 31.9836C76.6936 25.9834 74.2 20.8403 68.9011 20.8403C63.6022 20.8403 61.1086 25.6327 61.1086 31.9836C61.1086 38.3346 63.3294 43.2049 68.9011 43.2049Z" fill="#333333"/>
<path d="M92.6679 5.29426C92.6086 4.64702 92.685 3.99455 92.892 3.37846C93.0991 2.76238 93.4323 2.19622 93.8704 1.71615C94.3086 1.23607 94.8419 0.852604 95.4366 0.590238C96.0312 0.327872 96.674 0.192383 97.324 0.192383C97.9739 0.192383 98.6167 0.327872 99.2114 0.590238C99.806 0.852604 100.339 1.23607 100.778 1.71615C101.216 2.19622 101.549 2.76238 101.756 3.37846C101.963 3.99455 102.039 4.64702 101.98 5.29426V45.5427C102.039 46.19 101.963 46.8424 101.756 47.4585C101.549 48.0746 101.216 48.6408 100.778 49.1208C100.339 49.6009 99.806 49.9844 99.2114 50.2468C98.6167 50.5091 97.9739 50.6446 97.324 50.6446C96.674 50.6446 96.0312 50.5091 95.4366 50.2468C94.8419 49.9844 94.3086 49.6009 93.8704 49.1208C93.4323 48.6408 93.0991 48.0746 92.892 47.4585C92.685 46.8424 92.6086 46.19 92.6679 45.5427V5.29426Z" fill="#333333"/>
<path d="M110.437 5.29426C110.378 4.64702 110.455 3.99455 110.662 3.37846C110.869 2.76238 111.202 2.19622 111.64 1.71615C112.078 1.23607 112.611 0.852604 113.206 0.590238C113.801 0.327872 114.444 0.192383 115.093 0.192383C115.743 0.192383 116.386 0.327872 116.981 0.590238C117.576 0.852604 118.109 1.23607 118.547 1.71615C118.985 2.19622 119.318 2.76238 119.525 3.37846C119.732 3.99455 119.809 4.64702 119.75 5.29426V45.5427C119.809 46.19 119.732 46.8424 119.525 47.4585C119.318 48.0746 118.985 48.6408 118.547 49.1208C118.109 49.6009 117.576 49.9844 116.981 50.2468C116.386 50.5091 115.743 50.6446 115.093 50.6446C114.444 50.6446 113.801 50.5091 113.206 50.2468C112.611 49.9844 112.078 49.6009 111.64 49.1208C111.202 48.6408 110.869 48.0746 110.662 47.4585C110.455 46.8424 110.378 46.19 110.437 45.5427V5.29426Z" fill="#333333"/>
<path d="M140.085 40.2053L145.735 17.9576C146.397 15.464 147.683 13.5938 150.216 13.5938C151.436 13.5617 152.621 14.0085 153.516 14.8385C154.412 15.6685 154.947 16.816 155.008 18.0355C154.95 19.0939 154.713 20.1347 154.307 21.1135L143.787 53.2967C141.566 59.9983 138.994 63.505 133.111 63.505C128.942 63.505 127.228 61.323 127.228 58.9853C127.225 58.4391 127.337 57.8985 127.557 57.3984C127.776 56.8984 128.099 56.4502 128.503 56.0828C128.907 55.7154 129.384 55.437 129.902 55.2658C130.421 55.0946 130.97 55.0344 131.513 55.089H132.487C133.695 55.089 135.02 55.089 135.721 51.972L125.903 22.711C125.285 21.2594 124.891 19.7223 124.734 18.1524C124.718 17.5421 124.825 16.9349 125.046 16.3661C125.268 15.7972 125.601 15.2783 126.025 14.8394C126.449 14.4006 126.957 14.0506 127.518 13.81C128.079 13.5694 128.682 13.4429 129.293 13.4379C130.426 13.402 131.535 13.7763 132.416 14.492C133.296 15.2077 133.889 16.2168 134.085 17.3342L140.085 40.2053Z" fill="#333333"/>
<path d="M159.646 5.29416C159.646 4.05414 160.139 2.86491 161.016 1.98808C161.893 1.11125 163.082 0.618652 164.322 0.618652C165.562 0.618652 166.751 1.11125 167.628 1.98808C168.505 2.86491 168.998 4.05414 168.998 5.29416V18.5805C169.935 16.9942 171.285 15.6923 172.905 14.8139C174.524 13.9355 176.352 13.5136 178.193 13.5932C188.05 13.5932 192.57 22.3988 192.57 31.7888C192.57 44.4907 185.751 50.452 177.959 50.452C175.871 50.6276 173.783 50.1229 172.006 49.0133C170.23 47.9036 168.86 46.2487 168.101 44.2958V45.8154C168.101 48.8545 166.621 50.452 163.854 50.452C161.088 50.452 159.646 48.8545 159.646 45.8154V5.29416ZM175.972 21.2689C170.283 21.2689 168.491 27.1133 168.491 32.1395C168.491 37.1656 170.517 42.8153 175.972 42.8153C181.427 42.8153 183.375 37.9059 183.375 32.1395C183.375 27.5808 181.894 21.2689 175.972 21.2689Z" fill="#333333"/>
<path d="M206.637 33.8929C206.541 35.0621 206.696 36.2383 207.091 37.343C207.486 38.4478 208.111 39.4558 208.926 40.2999C209.74 41.1441 210.726 41.805 211.816 42.2387C212.906 42.6724 214.076 42.869 215.247 42.8153C222.3 42.8153 222.3 37.9839 226.079 37.9839C227.112 37.9839 228.103 38.3944 228.834 39.1251C229.565 39.8558 229.975 40.8469 229.975 41.8802C229.975 47.8025 220.975 50.5299 215.325 50.5299C212.938 50.7073 210.54 50.371 208.294 49.5436C206.047 48.7161 204.004 47.4169 202.302 45.7333C200.6 44.0497 199.278 42.0209 198.427 39.7835C197.575 37.5461 197.212 35.1522 197.364 32.763C197.364 21.3469 203.948 13.6712 215.014 13.6712C217.188 13.5658 219.362 13.9027 221.402 14.6616C223.443 15.4205 225.308 16.5856 226.885 18.0863C228.462 19.587 229.719 21.3922 230.578 23.3925C231.437 25.3929 231.882 27.5468 231.885 29.7239C231.885 33.0747 230.949 33.9708 227.793 33.9708L206.637 33.8929ZM223.001 28.2433C222.915 26.2042 222.066 24.2717 220.623 22.8286C219.18 21.3854 217.248 20.5368 215.209 20.4507C213.075 20.4524 211.019 21.2535 209.447 22.6959C207.875 24.1384 206.9 26.1176 206.715 28.2433H223.001Z" fill="#333333"/>
<path d="M245.752 33.8929C245.657 35.0621 245.812 36.2383 246.206 37.343C246.601 38.4478 247.226 39.4558 248.041 40.2999C248.856 41.1441 249.841 41.805 250.931 42.2387C252.021 42.6724 253.191 42.869 254.363 42.8153C261.415 42.8153 261.415 37.9839 265.194 37.9839C266.228 37.9839 267.219 38.3944 267.949 39.1251C268.68 39.8558 269.091 40.8469 269.091 41.8802C269.091 47.8025 260.09 50.5299 254.441 50.5299C252.053 50.7073 249.655 50.371 247.409 49.5436C245.162 48.7161 243.119 47.4169 241.417 45.7333C239.715 44.0497 238.394 42.0209 237.542 39.7835C236.69 37.5461 236.327 35.1522 236.479 32.763C236.479 21.3469 243.064 13.6712 254.129 13.6712C256.304 13.5658 258.477 13.9027 260.517 14.6616C262.558 15.4205 264.423 16.5856 266 18.0863C267.578 19.587 268.834 21.3922 269.693 23.3925C270.553 25.3929 270.997 27.5468 271 29.7239C271 33.0747 270.065 33.9708 267.104 33.9708L245.752 33.8929ZM262.116 28.2433C262.03 26.2042 261.182 24.2717 259.738 22.8286C258.295 21.3854 256.363 20.5368 254.324 20.4507C252.19 20.4524 250.134 21.2535 248.562 22.6959C246.99 24.1384 246.015 26.1176 245.83 28.2433H262.116Z" fill="#333333"/>
</svg>
