<svg width="437" height="76" viewBox="0 0 437 76" fill="none" xmlns="http://www.w3.org/2000/svg">
<path d="M166.623 28.583C166.226 27.4156 166.015 26.1927 166 24.9595C166.01 23.7603 166.488 22.6124 167.333 21.7608C168.177 20.9092 169.321 20.4212 170.52 20.4009C173.987 20.4009 174.416 22.349 175.117 25.1933L180.066 46.6617L183.962 27.1804C184.702 23.2841 185.481 20.3229 189.806 20.4398C194.131 20.5567 195.144 23.2841 195.962 27.1804L199.859 46.6617L204.456 25.1933C205.002 22.349 205.586 20.4009 209.054 20.4009C210.25 20.4309 211.388 20.922 212.23 21.7715C213.072 22.6211 213.554 23.7633 213.573 24.9595C213.558 26.1927 213.348 27.4156 212.95 28.583L206.093 51.9607C204.768 56.5972 203.755 57.2596 200.014 57.2596C196.274 57.2596 195.183 56.0517 194.209 52.1555L189.611 32.9079L185.014 52.1555C184.04 56.0517 183.066 57.2596 179.169 57.2596C175.273 57.2596 174.455 56.5972 173.13 51.9607L166.623 28.583Z" fill="#333333"/>
<path d="M234.453 20.4009C245.674 20.4009 251.713 28.4661 251.713 38.7912C251.713 49.1164 246.999 57.2596 234.453 57.2596C221.907 57.2596 217.192 48.6098 217.192 38.7912C217.192 28.9726 223.193 20.4009 234.453 20.4009ZM234.453 50.0125C239.986 50.0125 242.245 44.7915 242.245 38.7912C242.245 32.791 239.752 27.6479 234.453 27.6479C229.154 27.6479 226.66 32.4403 226.66 38.7912C226.66 45.1422 228.881 50.0125 234.453 50.0125Z" fill="#333333"/>
<path d="M258.221 12.1019C258.161 11.4546 258.238 10.8022 258.445 10.1861C258.652 9.57 258.985 9.00384 259.423 8.52376C259.861 8.04369 260.395 7.66022 260.989 7.39786C261.584 7.13549 262.227 7 262.877 7C263.527 7 264.169 7.13549 264.764 7.39786C265.359 7.66022 265.892 8.04369 266.33 8.52376C266.768 9.00384 267.102 9.57 267.309 10.1861C267.516 10.8022 267.592 11.4546 267.533 12.1019V52.3504C267.592 52.9976 267.516 53.6501 267.309 54.2661C267.102 54.8822 266.768 55.4484 266.33 55.9285C265.892 56.4085 265.359 56.792 264.764 57.0544C264.169 57.3167 263.527 57.4523 262.877 57.4523C262.227 57.4523 261.584 57.3167 260.989 57.0544C260.395 56.792 259.861 56.4085 259.423 55.9285C258.985 55.4484 258.652 54.8822 258.445 54.2661C258.238 53.6501 258.161 52.9976 258.221 52.3504V12.1019Z" fill="#333333"/>
<path d="M275.99 12.1019C275.931 11.4546 276.007 10.8022 276.214 10.1861C276.421 9.57 276.755 9.00384 277.193 8.52376C277.631 8.04369 278.164 7.66022 278.759 7.39786C279.353 7.13549 279.996 7 280.646 7C281.296 7 281.939 7.13549 282.534 7.39786C283.128 7.66022 283.662 8.04369 284.1 8.52376C284.538 9.00384 284.871 9.57 285.078 10.1861C285.285 10.8022 285.362 11.4546 285.302 12.1019V52.3504C285.362 52.9976 285.285 53.6501 285.078 54.2661C284.871 54.8822 284.538 55.4484 284.1 55.9285C283.662 56.4085 283.128 56.792 282.534 57.0544C281.939 57.3167 281.296 57.4523 280.646 57.4523C279.996 57.4523 279.353 57.3167 278.759 57.0544C278.164 56.792 277.631 56.4085 277.193 55.9285C276.755 55.4484 276.421 54.8822 276.214 54.2661C276.007 53.6501 275.931 52.9976 275.99 52.3504V12.1019Z" fill="#333333"/>
<path d="M305.638 47.0129L311.288 24.7652C311.95 22.2716 313.236 20.4014 315.768 20.4014C316.989 20.3693 318.174 20.8161 319.069 21.6461C319.965 22.4761 320.5 23.6236 320.561 24.8431C320.503 25.9015 320.266 26.9423 319.859 27.9211L309.339 60.1043C307.119 66.8059 304.547 70.3126 298.664 70.3126C294.495 70.3126 292.78 68.1307 292.78 65.7929C292.778 65.2467 292.89 64.7061 293.109 64.2061C293.329 63.706 293.651 63.2578 294.056 62.8904C294.46 62.523 294.937 62.2446 295.455 62.0734C295.974 61.9022 296.523 61.842 297.066 61.8966H298.04C299.248 61.8966 300.573 61.8966 301.274 58.7796L291.456 29.5186C290.837 28.067 290.443 26.53 290.287 24.96C290.271 24.3497 290.377 23.7425 290.599 23.1737C290.821 22.6049 291.153 22.0859 291.578 21.6471C292.002 21.2082 292.509 20.8582 293.07 20.6176C293.632 20.377 294.235 20.2505 294.845 20.2455C295.979 20.2097 297.088 20.5839 297.968 21.2996C298.849 22.0153 299.441 23.0244 299.638 24.1418L305.638 47.0129Z" fill="#333333"/>
<path d="M325.199 12.1018C325.199 10.8618 325.692 9.67253 326.569 8.7957C327.445 7.91886 328.635 7.42627 329.875 7.42627C331.115 7.42627 332.304 7.91886 333.181 8.7957C334.058 9.67253 334.55 10.8618 334.55 12.1018V25.3881C335.487 23.8018 336.838 22.4999 338.457 21.6215C340.077 20.7431 341.905 20.3212 343.745 20.4009C353.603 20.4009 358.123 29.2064 358.123 38.5964C358.123 51.2983 351.304 57.2596 343.512 57.2596C341.424 57.4352 339.336 56.9305 337.559 55.8209C335.782 54.7112 334.412 53.0563 333.654 51.1035V52.623C333.654 55.6621 332.174 57.2596 329.407 57.2596C326.641 57.2596 325.199 55.6621 325.199 52.623V12.1018ZM341.525 28.0765C335.836 28.0765 334.044 33.9209 334.044 38.9471C334.044 43.9733 336.07 49.6229 341.525 49.6229C346.979 49.6229 348.928 44.7136 348.928 38.9471C348.928 34.3884 347.447 28.0765 341.525 28.0765Z" fill="#333333"/>
<path d="M372.19 40.7005C372.095 41.8698 372.25 43.0459 372.645 44.1506C373.039 45.2554 373.665 46.2634 374.48 47.1075C375.294 47.9517 376.279 48.6126 377.369 49.0463C378.459 49.48 379.629 49.6766 380.801 49.623C387.853 49.623 387.853 44.7916 391.633 44.7916C392.666 44.7916 393.657 45.2021 394.388 45.9327C395.119 46.6634 395.529 47.6545 395.529 48.6878C395.529 54.6102 386.529 57.3376 380.879 57.3376C378.492 57.5149 376.094 57.1786 373.847 56.3512C371.601 55.5238 369.558 54.2245 367.856 52.5409C366.154 50.8573 364.832 48.8285 363.98 46.5911C363.128 44.3538 362.766 41.9598 362.917 39.5706C362.917 28.1545 369.502 20.4788 380.567 20.4788C382.742 20.3734 384.915 20.7103 386.956 21.4692C388.996 22.2281 390.862 23.3932 392.439 24.8939C394.016 26.3946 395.272 28.1998 396.132 30.2001C396.991 32.2005 397.436 34.3544 397.438 36.5315C397.438 39.8823 396.503 40.7784 393.347 40.7784L372.19 40.7005ZM388.555 35.0509C388.469 33.0118 387.62 31.0793 386.177 29.6362C384.734 28.1931 382.801 27.3444 380.762 27.2583C378.628 27.26 376.573 28.0611 375.001 29.5036C373.428 30.946 372.453 32.9252 372.268 35.0509H388.555Z" fill="#333333"/>
<path d="M411.305 40.7005C411.209 41.8698 411.364 43.0459 411.759 44.1506C412.154 45.2554 412.779 46.2634 413.594 47.1075C414.409 47.9517 415.394 48.6126 416.484 49.0463C417.574 49.48 418.744 49.6766 419.915 49.623C426.968 49.623 426.968 44.7916 430.747 44.7916C431.78 44.7916 432.771 45.2021 433.502 45.9327C434.233 46.6634 434.643 47.6545 434.643 48.6878C434.643 54.6102 425.643 57.3376 419.993 57.3376C417.606 57.5149 415.208 57.1786 412.962 56.3512C410.715 55.5238 408.672 54.2245 406.97 52.5409C405.268 50.8573 403.946 48.8285 403.095 46.5911C402.243 44.3538 401.88 41.9598 402.032 39.5706C402.032 28.1545 408.616 20.4788 419.682 20.4788C421.856 20.3734 424.03 20.7103 426.07 21.4692C428.111 22.2281 429.976 23.3932 431.553 24.8939C433.13 26.3946 434.387 28.1998 435.246 30.2001C436.105 32.2005 436.55 34.3544 436.553 36.5315C436.553 39.8823 435.617 40.7784 432.656 40.7784L411.305 40.7005ZM427.669 35.0509C427.583 33.0118 426.734 31.0793 425.291 29.6362C423.848 28.1931 421.916 27.3444 419.876 27.2583C417.743 27.26 415.687 28.0611 414.115 29.5036C412.543 30.946 411.568 32.9252 411.383 35.0509H427.669Z" fill="#333333"/>
<path d="M95.3331 75.8819C92.9433 75.8923 90.5749 75.4248 88.3636 74.5062C86.1522 73.5877 84.1413 72.2361 82.4461 70.5288C80.7508 68.8215 79.4044 66.7921 78.4839 64.5568C77.5635 62.3214 77.0871 59.924 77.082 57.5018V18.3801C77.082 16.3759 76.2965 14.4539 74.8982 13.0367C73.5 11.6196 71.6036 10.8234 69.6262 10.8234C67.6488 10.8234 65.7524 11.6196 64.3542 13.0367C62.9559 14.4539 62.1704 16.3759 62.1704 18.3801V57.5018C62.1704 62.4078 60.2475 67.1129 56.8248 70.582C53.402 74.0511 48.7598 76 43.9193 76C39.0787 76 34.4365 74.0511 31.0137 70.582C27.591 67.1129 25.6681 62.4078 25.6681 57.5018V31.0533C25.6681 29.0387 24.8785 27.1067 23.473 25.6821C22.0675 24.2576 20.1612 23.4573 18.1735 23.4573C16.1858 23.4573 14.2795 24.2576 12.874 25.6821C11.4685 27.1067 10.6789 29.0387 10.6789 31.0533V44.435C10.5647 45.7906 9.95272 47.0534 8.96399 47.9736C7.97526 48.8938 6.68179 49.4045 5.33943 49.4045C3.99707 49.4045 2.70359 48.8938 1.71486 47.9736C0.726134 47.0534 0.114166 45.7906 0 44.435V31.0533C0.21626 26.3103 2.22745 21.8342 5.6156 18.5552C9.00374 15.2763 13.5082 13.4466 18.1929 13.4466C22.8775 13.4466 27.382 15.2763 30.7702 18.5552C34.1583 21.8342 36.1695 26.3103 36.3858 31.0533V57.5018C36.5228 59.4372 37.3781 61.2482 38.7794 62.5703C40.1808 63.8923 42.0242 64.6274 43.9387 64.6274C45.8532 64.6274 47.6966 63.8923 49.0979 62.5703C50.4993 61.2482 51.3545 59.4372 51.4915 57.5018V18.3801C51.4915 13.5054 53.4022 8.83036 56.8031 5.38342C60.204 1.93648 64.8166 0 69.6262 0C74.4358 0 79.0484 1.93648 82.4493 5.38342C85.8502 8.83036 87.7608 13.5054 87.7608 18.3801V57.5018C87.8975 59.4271 88.7485 61.2284 90.1426 62.5434C91.5367 63.8584 93.3705 64.5894 95.2749 64.5894C97.1793 64.5894 99.0131 63.8584 100.407 62.5434C101.801 61.2284 102.652 59.4271 102.789 57.5018V31.2108C102.789 26.3465 104.695 21.6815 108.089 18.2419C111.483 14.8023 116.085 12.87 120.885 12.87C125.684 12.87 130.287 14.8023 133.68 18.2419C137.074 21.6815 138.981 26.3465 138.981 31.2108V44.435C139.044 45.1845 138.953 45.9391 138.713 46.651C138.473 47.3629 138.09 48.0165 137.588 48.5706C137.086 49.1246 136.476 49.5669 135.797 49.8695C135.117 50.1721 134.383 50.3283 133.641 50.3283C132.899 50.3283 132.165 50.1721 131.485 49.8695C130.806 49.5669 130.196 49.1246 129.694 48.5706C129.192 48.0165 128.809 47.3629 128.569 46.651C128.33 45.9391 128.239 45.1845 128.302 44.435V31.2108C128.302 29.2171 127.52 27.305 126.129 25.8952C124.738 24.4854 122.852 23.6934 120.885 23.6934C118.918 23.6934 117.031 24.4854 115.64 25.8952C114.249 27.305 113.468 29.2171 113.468 31.2108V57.5018C113.458 62.3733 111.544 67.0424 108.145 70.487C104.746 73.9317 100.14 75.8715 95.3331 75.8819Z" fill="#FFC648"/>
</svg>
