<svg width="21" height="20" viewBox="0 0 21 20" fill="none" xmlns="http://www.w3.org/2000/svg">
<mask id="mask0_3072_534" style="mask-type:alpha" maskUnits="userSpaceOnUse" x="0" y="0" width="21" height="20">
<rect width="21" height="20" fill="white"/>
</mask>
<g mask="url(#mask0_3072_534)">
<path d="M8.77285 1.88193C9.36803 0.0381675 11.9748 0.0331894 12.5771 1.87466L13.2192 3.83816C13.4885 4.66169 14.2575 5.21815 15.1239 5.21649L17.1898 5.21254C19.1272 5.20884 19.9375 7.68653 18.3723 8.82832L16.7033 10.0458C16.0033 10.5564 15.7117 11.4597 15.981 12.2832L16.6231 14.2467C17.2254 16.0882 15.1193 17.6245 13.5497 16.4887L11.8761 15.2776C11.1742 14.7697 10.225 14.7715 9.52499 15.2821L7.85603 16.4995C6.29078 17.6413 4.17889 16.1131 4.77408 14.2694L5.4087 12.3034C5.67487 11.4789 5.37983 10.5767 4.67788 10.0688L3.00427 8.85768C1.43467 7.72188 2.23549 5.24111 4.17293 5.23741L6.23876 5.23346C7.10521 5.23181 7.87205 4.67242 8.13823 3.84787L8.77285 1.88193Z" fill="#8AC48A"/>
<path d="M4.76562 1.55389L6.54275 3.6192" stroke="#8AC48A" stroke-linecap="round"/>
<path d="M16.7656 2.12189L15.1105 4.06666" stroke="#8AC48A" stroke-linecap="round"/>
<path d="M20.6133 12.5504L17.7854 11.5752" stroke="#8AC48A" stroke-linecap="round"/>
<path d="M10.7109 19.4824L10.7035 16.6115" stroke="#8AC48A" stroke-linecap="round"/>
<path d="M0.648438 12.4969L3.60202 11.6022" stroke="#8AC48A" stroke-linecap="round"/>
</g>
</svg>
