<svg width="18" height="15" viewBox="0 0 18 15" fill="#FFFFFF" xmlns="http://www.w3.org/2000/svg">
<path d="M0 2C0 0.89543 0.895431 0 2 0H6.48284C7.58741 0 8.48284 0.89543 8.48284 2V6.4405C8.48284 6.71665 8.25898 6.9405 7.98284 6.9405H2C0.895431 6.9405 0 6.04507 0 4.9405V2Z" fill="#FFFFFF"/>
<path d="M0 9.71167C0 8.6071 0.895431 7.71167 2 7.71167H7.98284C8.25898 7.71167 8.48284 7.93553 8.48284 8.21167V12.6522C8.48284 13.7567 7.58741 14.6522 6.48284 14.6522H2C0.895431 14.6522 0 13.7567 0 12.6522V9.71167Z" fill="#FFFFFF"/>
<path d="M9.25391 2C9.25391 0.89543 10.1493 0 11.2539 0H15.7367C16.8413 0 17.7367 0.89543 17.7367 2V4.9405C17.7367 6.04507 16.8413 6.9405 15.7367 6.9405H9.75391C9.47776 6.9405 9.25391 6.71665 9.25391 6.4405V2Z" fill="#FFFFFF"/>
<path d="M9.25391 8.21167C9.25391 7.93553 9.47776 7.71167 9.75391 7.71167H15.7367C16.8413 7.71167 17.7367 8.6071 17.7367 9.71167V12.6522C17.7367 13.7567 16.8413 14.6522 15.7367 14.6522H11.2539C10.1493 14.6522 9.25391 13.7567 9.25391 12.6522V8.21167Z" fill="#FFFFFF"/>
</svg>
