<svg width="48" height="46" viewBox="0 0 48 46" fill="none" xmlns="http://www.w3.org/2000/svg">
<path d="M24.1533 44.932C36.3882 44.932 46.3066 35.0136 46.3066 22.7787C46.3066 10.5438 36.3882 0.625427 24.1533 0.625427C11.9184 0.625427 2 10.5438 2 22.7787C2 35.0136 11.9184 44.932 24.1533 44.932Z" fill="#9ED6CA"/>
<mask id="mask0_3089_526" style="mask-type:luminance" maskUnits="userSpaceOnUse" x="2" y="0" width="45" height="45">
<path d="M24.1533 44.932C36.3882 44.932 46.3066 35.0136 46.3066 22.7787C46.3066 10.5438 36.3882 0.625427 24.1533 0.625427C11.9184 0.625427 2 10.5438 2 22.7787C2 35.0136 11.9184 44.932 24.1533 44.932Z" fill="white"/>
</mask>
<g mask="url(#mask0_3089_526)">
<path d="M18.8776 17.356C18.8776 17.356 16.7979 11.8254 13.1621 12.4416C9.52641 13.0579 9.2183 16.3701 11.1594 19.2509C11.1594 19.2509 6.2142 20.5296 7.16935 24.7199C7.31802 25.4185 7.71827 26.0381 8.29396 26.4608C8.96884 26.8725 9.73359 27.1143 10.5225 27.1652C11.3114 27.2162 12.1009 27.0749 12.8232 26.7535C12.8232 26.7535 10.6972 29.8346 15.5654 31.5446C20.4336 33.2546 24.7318 20.2369 24.7318 20.2369L18.8776 17.356Z" fill="url(#paint0_linear_3089_526)"/>
<path d="M30.5704 20.5142C30.5704 20.5142 31.6026 14.66 35.2845 14.66C38.9664 14.66 39.9062 17.7412 38.5043 20.9917C38.5043 20.9917 43.6035 21.3461 43.4187 25.6134C43.3965 26.3302 43.105 27.0124 42.6022 27.5237C42.018 28.0504 41.3143 28.4266 40.5519 28.6199C39.7895 28.8132 38.9915 28.8177 38.227 28.6329C38.227 28.6329 40.9076 31.2827 36.4399 33.84C31.9723 36.3974 25.3633 24.4272 25.3633 24.4272L30.5704 20.5142Z" fill="url(#paint1_linear_3089_526)"/>
<path d="M24.9159 44.5007L23.9915 56.702L22.9132 55.9933L21.2031 44.1002L24.9159 44.5007Z" fill="url(#paint2_linear_3089_526)"/>
<path d="M21.9917 41.7893L22.9006 48.9838C22.9243 49.0851 22.9243 49.1905 22.9006 49.2919L20.8517 55.4541H19.3111L20.4819 49.5076C20.4896 49.4307 20.4896 49.3533 20.4819 49.2765L19.1724 42.1899C19.1417 41.9863 19.1548 41.7785 19.2108 41.5803C19.2667 41.3822 19.3643 41.1982 19.497 41.0408C19.6296 40.8833 19.7943 40.756 19.9801 40.6672C20.1659 40.5785 20.3685 40.5303 20.5744 40.5261C20.9241 40.5274 21.2612 40.6566 21.5223 40.8892C21.7834 41.1219 21.9503 41.4421 21.9917 41.7893Z" fill="url(#paint3_linear_3089_526)"/>
<path d="M36.828 42.4671V43.0372C36.8268 43.0946 36.8123 43.1509 36.7855 43.2017C36.7588 43.2525 36.7206 43.2964 36.674 43.3299L35.5185 44.1001C35.4612 44.1373 35.3943 44.157 35.326 44.157C35.2576 44.157 35.1907 44.1373 35.1334 44.1001L34.625 43.7304L35.2566 42.3131L36.828 42.4671Z" fill="url(#paint4_linear_3089_526)"/>
<path d="M27.5509 27.8934C27.5509 27.8934 36.9637 30.8667 36.9483 42.4364C36.9471 42.4698 36.9381 42.5026 36.9221 42.532C36.9061 42.5614 36.8834 42.5867 36.8559 42.6058L34.7915 43.9307C34.7319 43.9532 34.6662 43.9532 34.6067 43.9307C33.7902 43.5456 28.0747 40.5877 26.4571 31.2519C26.4571 31.2057 24.4081 27.8934 27.5509 27.8934Z" fill="url(#paint5_linear_3089_526)"/>
<path d="M27.5039 27.9243L27.9661 28.1091C28.2073 28.2053 28.4102 28.378 28.5438 28.6006C28.6773 28.8232 28.7342 29.0835 28.7056 29.3416L27.7967 36.9212L19.2773 35.3806L20.1092 26.9845L27.5039 27.9243Z" fill="url(#paint6_linear_3089_526)"/>
<path d="M27.8896 25.7521L27.5507 27.8318C27.2611 28.3681 26.8351 28.8186 26.3158 29.1378C25.7965 29.4569 25.2022 29.6335 24.5928 29.6497C23.8857 29.5913 23.2129 29.3201 22.6629 28.8719C22.1129 28.4236 21.7116 27.8193 21.5117 27.1386L21.7582 24.9048L27.8896 25.7521Z" fill="url(#paint7_linear_3089_526)"/>
<path d="M35.7781 21.0996C35.7781 21.0996 35.6856 18.8041 36.9027 18.8812C37.3371 19.0086 37.7186 19.2734 37.99 19.6358C38.2614 19.9982 38.408 20.4388 38.408 20.8916C38.408 21.3444 38.2614 21.785 37.99 22.1474C37.7186 22.5098 37.3371 22.7746 36.9027 22.902C36.7504 22.9729 36.5823 23.0031 36.4149 22.9896C36.2475 22.9761 36.0864 22.9194 35.9475 22.825C35.624 22.5939 35.3775 22.1009 35.7781 21.0996Z" fill="url(#paint8_linear_3089_526)"/>
<path d="M23.6071 27.1232L25.3942 27.4313C26.7508 27.6681 28.1407 27.6351 29.4846 27.3342C30.8284 27.0334 32.0998 26.4705 33.2259 25.6778C34.352 24.8851 35.3107 23.8781 36.0473 22.7145C36.7838 21.5509 37.2837 20.2535 37.5184 18.8965L37.7649 17.4946C38.1985 14.9619 37.6101 12.3605 36.1286 10.261C34.6471 8.16144 32.3934 6.7351 29.8618 6.29475L26.7807 5.75555C25.5252 5.53651 24.2388 5.56728 22.9952 5.84611C21.7516 6.12493 20.5753 6.64633 19.5335 7.38044C18.4917 8.11456 17.605 9.04697 16.9241 10.1243C16.2432 11.2016 15.7814 12.4026 15.5654 13.6586L15.4421 14.2903C15.3266 14.9942 15.3266 15.7123 15.4421 16.4162C16.5205 23.0253 18.3384 26.2142 23.6071 27.1232Z" fill="url(#paint9_linear_3089_526)"/>
<path d="M10.804 40.8496L10.2648 41.0498C10.2147 41.0755 10.1593 41.0889 10.103 41.0889C10.0468 41.0889 9.99132 41.0755 9.94127 41.0498L8.83207 40.2179C8.77921 40.1704 8.73993 40.1097 8.71828 40.0421C8.69662 39.9744 8.69335 39.9021 8.70882 39.8328L8.89369 39.2474L10.4343 39.386L10.804 40.8496Z" fill="url(#paint10_linear_3089_526)"/>
<path d="M20.9119 28.1091C20.8528 31.0367 19.8399 33.865 18.0271 36.1645C16.2142 38.4639 13.7004 40.1089 10.8674 40.8496C10.8079 40.8721 10.7421 40.8721 10.6826 40.8496L8.71064 39.309C8.68341 39.2933 8.66063 39.2709 8.64445 39.244C8.62828 39.217 8.61925 39.1864 8.61821 39.155C8.54118 38.1998 9.28065 31.7295 17.0605 27.6007C17.8623 27.1935 18.7493 26.9823 19.6486 26.9845C19.8057 26.9741 19.9633 26.9951 20.1122 27.0462C20.2611 27.0972 20.3983 27.1775 20.5159 27.2821C20.6335 27.3868 20.729 27.5138 20.797 27.6558C20.865 27.7978 20.9041 27.9519 20.9119 28.1091Z" fill="#F37065"/>
<path d="M28.7392 28.2786L27.6454 27.8934C27.5067 27.8934 27.5067 27.8934 27.4143 28.0013L26.7826 32.2686C26.777 32.3133 26.7624 32.3564 26.7399 32.3954C26.7174 32.4344 26.6873 32.4685 26.6515 32.4958C26.6156 32.523 26.5747 32.5429 26.5311 32.5541C26.4875 32.5654 26.4421 32.5678 26.3975 32.5613L21.329 31.714C21.2446 31.6989 21.1691 31.6524 21.1176 31.5837C21.0661 31.5151 21.0426 31.4296 21.0517 31.3443L21.4831 27.1848C21.4816 27.1574 21.472 27.1311 21.4556 27.1091C21.4391 27.0872 21.4165 27.0706 21.3907 27.0615L20.2044 26.9845C20.1882 26.9823 20.1718 26.9834 20.156 26.9877C20.1402 26.992 20.1254 26.9993 20.1125 27.0094C20.0996 27.0194 20.0888 27.0319 20.0808 27.0462C20.0728 27.0604 20.0677 27.0761 20.0658 27.0923L19.6806 31.6062C19.3854 33.1902 18.9259 34.7391 18.3095 36.2279C17.7794 37.9423 16.7297 39.4497 15.3054 40.5414C14.664 40.943 13.9948 41.2983 13.3027 41.6044C13.2608 41.6268 13.2258 41.6601 13.2014 41.7008C13.177 41.7415 13.1641 41.788 13.1641 41.8355C13.1641 41.883 13.177 41.9296 13.2014 41.9703C13.2258 42.011 13.2608 42.0443 13.3027 42.0666L18.2479 44.7472C18.2864 44.7737 18.3321 44.7879 18.3789 44.7879C18.4256 44.7879 18.4713 44.7737 18.5098 44.7472L18.9412 44.3774V44.8704C18.9363 44.9271 18.9524 44.9835 18.9865 45.029C19.0206 45.0744 19.0703 45.1058 19.126 45.1169L24.8877 46.488C24.9389 46.5004 24.9928 46.4949 25.0404 46.4725C25.088 46.4501 25.1265 46.4121 25.1496 46.3648L25.4269 45.841L25.6272 46.3185C25.6471 46.3657 25.6822 46.4049 25.7268 46.43C25.7714 46.4551 25.8231 46.4647 25.8737 46.4572L30.0794 46.0721C30.1212 46.0684 30.1616 46.0549 30.197 46.0324C30.2324 46.01 30.262 45.9793 30.2831 45.9431C30.3043 45.9069 30.3164 45.8661 30.3185 45.8242C30.3206 45.7823 30.3125 45.7405 30.2951 45.7023L28.5851 42.1744C27.9913 40.709 27.7232 39.132 27.7994 37.5527L28.2154 33.4703L28.9548 28.5251C28.9569 28.4947 28.953 28.4642 28.9433 28.4354C28.9336 28.4065 28.9182 28.3799 28.8982 28.357C28.8782 28.3341 28.8538 28.3154 28.8265 28.3019C28.7992 28.2885 28.7695 28.2805 28.7392 28.2786Z" fill="url(#paint11_linear_3089_526)"/>
<path d="M27.6749 37.1984C26.1767 37.5918 24.6115 37.6578 23.0855 37.3919C21.5596 37.1261 20.1089 36.5347 18.832 35.6579C20.1312 36.486 21.5815 37.0486 23.0993 37.313C24.6171 37.5774 26.1722 37.5385 27.6749 37.1984Z" fill="#3884C5"/>
<path d="M20.5701 40.1409C20.3335 41.6439 19.7651 43.0754 18.9062 44.3313C19.6664 43.0251 20.2272 41.6128 20.5701 40.1409Z" fill="#3884C5"/>
<path d="M25.0117 41.0652C25.3285 42.584 25.4374 44.1388 25.3352 45.6869C25.3206 44.1412 25.2126 42.5979 25.0117 41.0652Z" fill="#3884C5"/>
<path d="M27.4294 18.419C27.54 18.8639 27.6121 19.3175 27.6451 19.7747V19.6669C27.851 19.8625 28.0416 20.0737 28.2151 20.2985C28.5694 20.9763 27.5219 21.0534 27.1367 21.2382C27.337 21.038 27.7838 20.7453 27.9686 20.5912C27.9767 20.5771 27.981 20.5612 27.981 20.545C27.981 20.5288 27.9767 20.5128 27.9686 20.4988C27.7526 20.2928 27.5518 20.0714 27.3678 19.8363C27.3552 19.3607 27.3966 18.8853 27.491 18.419H27.4294Z" fill="#EC977E"/>
<path d="M32.3816 18.7351C32.614 17.3938 32.116 16.1875 31.2693 16.0407C30.4226 15.894 29.5478 16.8625 29.3154 18.2038C29.0829 19.5452 29.5809 20.7515 30.4277 20.8982C31.2744 21.0449 32.1492 20.0764 32.3816 18.7351Z" fill="white"/>
<path d="M32.2209 19.2817C32.452 17.9414 31.959 16.7397 31.1117 16.5857C30.2644 16.4316 29.7252 17.0787 29.3555 18.0184C29.6328 16.7706 30.4647 15.9078 31.2658 16.0465C32.0669 16.1851 32.6215 17.4022 32.3904 18.7425C32.34 18.9881 32.2731 19.23 32.1901 19.4665C32.1901 19.4665 32.2055 19.2817 32.2209 19.2817Z" fill="#1D1230"/>
<path d="M33.0522 16.6473C33.0522 16.6473 32.667 17.3252 32.3281 17.1711V17.7873C32.54 17.6797 32.7189 17.5171 32.8463 17.3165C32.9737 17.1159 33.0448 16.8848 33.0522 16.6473Z" fill="#1D1230"/>
<path d="M31.7801 19.6003C31.9079 18.8626 31.6378 18.1997 31.1767 18.1198C30.7156 18.04 30.2382 18.5732 30.1104 19.311C29.9825 20.0487 30.2527 20.7115 30.7138 20.7914C31.1749 20.8713 31.6523 20.338 31.7801 19.6003Z" fill="#1D1230"/>
<path d="M25.8777 17.747C26.1101 16.4057 25.6121 15.1994 24.7654 15.0527C23.9187 14.906 23.0439 15.8744 22.8114 17.2158C22.579 18.5571 23.077 19.7634 23.9237 19.9101C24.7705 20.0568 25.6453 19.0884 25.8777 17.747Z" fill="white"/>
<path d="M25.3895 18.5034C25.5173 17.7656 25.2471 17.1028 24.7861 17.0229C24.325 16.9431 23.8476 17.4763 23.7197 18.2141C23.5919 18.9518 23.8621 19.6146 24.3231 19.6945C24.7842 19.7744 25.2616 19.2411 25.3895 18.5034Z" fill="#1D1230"/>
<path d="M22.7731 17.7411C22.9272 16.37 23.7437 15.3378 24.6064 15.4303C25.4691 15.5227 25.8234 16.2776 25.9159 17.2943C25.9159 16.0157 25.4229 14.9373 24.591 14.8448C23.7591 14.7524 22.9118 15.8 22.7731 17.1711C22.7423 17.4269 22.7423 17.6855 22.7731 17.9414V17.7411Z" fill="#1D1230"/>
<path d="M22.6988 14.9373C22.6988 14.9373 22.8991 15.7076 23.2688 15.646L23.0377 16.2006C22.8768 16.0374 22.7609 15.8351 22.7015 15.6137C22.6421 15.3923 22.6412 15.1592 22.6988 14.9373Z" fill="#1D1230"/>
<path d="M37.8876 15.6306C37.8876 15.6306 41.092 5.97128 30.4467 3.0134L29.7227 8.68267C30.0488 10.6163 31.0463 12.3729 32.5397 13.6437C34.0331 14.9145 35.9268 15.6181 37.8876 15.6306Z" fill="#F7B4B7"/>
<path d="M31.2773 4.26124C31.2773 4.26124 32.9257 9.48374 28.381 11.0397C27.1257 11.2979 25.8311 11.2979 24.5758 11.0397C22.3882 10.6392 18.9682 11.4094 18.1517 13.6279C17.7627 14.8366 17.1743 15.9717 16.4108 16.9863C16.4108 16.9863 12.5132 5.12395 22.4344 2.02742C31.3389 -0.74559 31.2773 4.26124 31.2773 4.26124Z" fill="#F7B4B7"/>
<path d="M29.5508 22.0701C27.7983 22.1996 26.041 21.8926 24.4361 21.1766C24.3309 21.7052 24.3713 22.2526 24.5531 22.76C24.735 23.2674 25.0513 23.7159 25.4683 24.0574C25.7745 24.2708 26.1274 24.4074 26.4975 24.4556C26.8675 24.5039 27.2437 24.4624 27.5943 24.3347C28.0932 24.1668 28.5378 23.8681 28.882 23.4697C29.2261 23.0714 29.4571 22.5881 29.5508 22.0701Z" fill="url(#paint12_linear_3089_526)"/>
<mask id="mask1_3089_526" style="mask-type:luminance" maskUnits="userSpaceOnUse" x="24" y="21" width="6" height="4">
<path d="M29.5508 22.0701C27.7983 22.1996 26.041 21.8926 24.4361 21.1766C24.3309 21.7052 24.3713 22.2526 24.5531 22.76C24.735 23.2674 25.0513 23.7159 25.4683 24.0574C25.7745 24.2708 26.1274 24.4074 26.4975 24.4556C26.8675 24.5039 27.2437 24.4624 27.5943 24.3347C28.0932 24.1668 28.5378 23.8681 28.882 23.4697C29.2261 23.0714 29.4571 22.5881 29.5508 22.0701Z" fill="white"/>
</mask>
<g mask="url(#mask1_3089_526)">
<path d="M27.7346 24.2885C27.7346 24.2885 27.4573 21.8698 24.4686 22.5323C21.4799 23.1947 25.3313 26.661 27.7346 24.2885Z" fill="url(#paint13_linear_3089_526)"/>
</g>
<path d="M37.89 15.6305C37.89 15.6305 41.8493 5.35499 30.6186 2.42792L29.8945 8.09719C29.8945 8.09719 30.4491 14.0438 37.89 15.6305Z" fill="url(#paint14_linear_3089_526)"/>
<path d="M17.7227 13.3659C17.7227 13.3659 16.4749 16.9092 16.9833 18.342C16.9833 18.342 16.1822 18.1263 15.9203 16.1852C15.8966 15.5874 16.0566 14.9967 16.3789 14.4926C16.7012 13.9885 17.1702 13.5953 17.7227 13.3659Z" fill="#6F4729"/>
<path d="M31.941 4.95446C32.1995 6.2183 31.9634 7.53319 31.2812 8.62809C30.5991 9.72299 29.5229 10.5145 28.2744 10.8394C27.0087 11.0461 25.7141 10.9937 24.4692 10.6854C22.2971 10.177 18.8462 10.7778 17.9219 12.9346C17.2781 14.3392 16.4321 15.642 15.4107 16.8014C15.4107 16.8014 12.6994 4.07634 22.7592 1.519C31.8177 -0.745624 31.941 4.95446 31.941 4.95446Z" fill="url(#paint15_linear_3089_526)"/>
<path d="M15.9643 17.7411C15.9643 17.7411 16.3495 15.4765 15.117 15.4148C14.6758 15.4929 14.2712 15.7103 13.9626 16.0352C13.6541 16.3601 13.4578 16.7754 13.4027 17.2201C13.3475 17.6648 13.4364 18.1154 13.6562 18.5059C13.876 18.8963 14.2152 19.206 14.624 19.3895C14.7711 19.4762 14.9386 19.522 15.1093 19.522C15.28 19.522 15.4476 19.4762 15.5946 19.3895C15.9335 19.2817 16.2416 18.8349 15.9643 17.7411Z" fill="#FEE3CC"/>
<path d="M14.3789 16.8168C15.3186 16.5241 15.3032 17.8952 15.103 18.496C14.9522 18.1812 14.8583 17.8422 14.8257 17.4946C14.846 17.3467 14.8119 17.1964 14.7297 17.0718C14.6475 16.9471 14.5229 16.8565 14.3789 16.8168Z" fill="#EC977E"/>
<path d="M14.5938 17.6179C14.717 17.3714 14.8711 17.3406 15.0251 17.6179C14.9173 17.8644 14.7632 17.8798 14.5938 17.6179Z" fill="#EC977E"/>
<path d="M21.3429 14.4443C21.6605 14.2406 21.9897 14.0554 22.3288 13.8897C22.4912 13.8021 22.6614 13.7299 22.8372 13.674C23.6437 13.3709 24.4892 13.1842 25.3483 13.1194C25.492 13.1271 25.636 13.1271 25.7797 13.1194C25.9492 13.1194 26.0416 12.5648 25.9337 12.4416C25.8259 12.3183 25.1481 12.4416 24.7475 12.4416C24.5226 12.4235 24.2965 12.4551 24.0851 12.534L23.4689 12.7805C23.2686 12.8729 23.0683 12.9654 22.8834 13.0732C22.7029 13.1823 22.5281 13.3006 22.3596 13.4275C21.975 13.6647 21.6139 13.9381 21.2812 14.244L21.3429 14.4443Z" fill="#FBC3AA"/>
<path d="M21.2647 14.3519C21.5575 14.1516 21.7577 14.0284 22.1275 13.8127L22.6667 13.5508C23.5136 13.1738 24.4117 12.9246 25.3318 12.8113C25.4705 12.8113 25.6399 12.8113 25.794 12.8113C25.8328 12.8068 25.8696 12.7917 25.9005 12.7679C25.9315 12.744 25.9553 12.7121 25.9696 12.6758C25.9838 12.6394 25.9879 12.5998 25.9814 12.5613C25.9749 12.5228 25.958 12.4867 25.9327 12.457C25.6862 12.1335 25.0853 12.1335 24.654 12.1181C24.4109 12.1165 24.1699 12.1636 23.9453 12.2567L23.2829 12.5649L22.6821 12.9192C22.4972 13.0578 22.3123 13.1965 22.1429 13.3505C21.7913 13.6405 21.4758 13.9715 21.2031 14.3365L21.2647 14.3519Z" fill="url(#paint16_linear_3089_526)"/>
<path d="M34.3601 15.9387C34.1136 15.723 33.8209 15.4457 33.5128 15.2146C33.3634 15.0974 33.2035 14.9943 33.0352 14.9065C32.3068 14.4476 31.5117 14.1046 30.6781 13.8897C30.5549 13.8897 30.4008 13.8897 30.2622 13.7973C30.1235 13.7048 30.1081 13.1965 30.2622 13.0886C30.4162 12.9808 31.0171 13.2889 31.4176 13.3505C31.6397 13.3825 31.854 13.4556 32.0492 13.5662C32.2495 13.674 32.4344 13.7973 32.6192 13.9205L33.1276 14.3211L33.5744 14.7678C33.9087 15.0729 34.2083 15.4139 34.4679 15.7846L34.3601 15.9387Z" fill="#FBC3AA"/>
<path d="M34.4528 15.8771C34.2208 15.6311 33.9738 15.3995 33.7134 15.1838C33.5648 15.0474 33.405 14.9238 33.2358 14.8141C32.4717 14.2877 31.6365 13.8727 30.7555 13.5816C30.6322 13.5816 30.4474 13.5816 30.3087 13.4738C30.2782 13.4566 30.2524 13.4322 30.2335 13.4027C30.2145 13.3732 30.2031 13.3396 30.2 13.3047C30.197 13.2699 30.2025 13.2348 30.2161 13.2025C30.2296 13.1702 30.2509 13.1417 30.2779 13.1195C30.5706 12.8576 31.1714 12.9654 31.5874 13.0424C31.8274 13.0877 32.0572 13.1764 32.2652 13.3043L32.8507 13.7357C33.0355 13.8743 33.205 14.0438 33.3744 14.1979C33.5439 14.3519 33.6826 14.5368 33.8212 14.7217C34.1134 15.07 34.3617 15.4529 34.5607 15.8617L34.4528 15.8771Z" fill="url(#paint17_linear_3089_526)"/>
<path d="M41.3086 41.7739C42.1907 41.9153 43.0946 41.8196 43.9276 41.4966L44.0816 41.7431C43.2012 42.0473 42.269 42.173 41.3394 42.1128L41.3086 41.7739Z" fill="url(#paint18_linear_3089_526)"/>
<path d="M44.7433 41.9125C44.7433 41.9125 45.0206 41.9125 44.9127 41.666C44.8951 41.6381 44.8696 41.6159 44.8395 41.6022C44.8094 41.5885 44.776 41.5839 44.7433 41.589H44.9127C44.9574 41.575 44.9958 41.5457 45.0211 41.5063C45.0464 41.4669 45.0572 41.4198 45.0514 41.3733C45.0425 41.3375 45.0231 41.3051 44.9956 41.2804C44.9682 41.2557 44.9339 41.2398 44.8973 41.2347C44.6662 41.2347 44.6354 41.2347 44.6354 41.2347C44.6354 41.2347 44.9127 41.0806 44.7741 40.8649C44.6354 40.6493 44.1733 41.1422 44.1733 41.1422C44.1733 41.1422 44.05 40.6339 43.8189 40.6955C43.5879 40.7571 43.9268 41.512 43.9268 41.512L44.0808 41.7585C44.2788 41.881 44.5115 41.9351 44.7433 41.9125Z" fill="url(#paint19_linear_3089_526)"/>
<path d="M44.6636 41.2039C44.6251 41.245 44.5755 41.2742 44.5209 41.2878C44.4662 41.3015 44.4088 41.2991 44.3555 41.2809C44.4636 41.2868 44.5709 41.2599 44.6636 41.2039Z" fill="black"/>
<path d="M44.7413 41.589C44.6877 41.6119 44.6301 41.6237 44.5718 41.6237C44.5136 41.6237 44.4559 41.6119 44.4023 41.589C44.5148 41.6044 44.6288 41.6044 44.7413 41.589Z" fill="black"/>
<path d="M27.3965 39.309C26.5164 39.1437 25.6969 38.7446 25.0241 38.1536L24.793 38.3385C25.5177 38.9266 26.3572 39.3569 27.2579 39.6018L27.3965 39.309Z" fill="url(#paint20_linear_3089_526)"/>
<path d="M35.8709 32.5306C35.8331 32.0623 35.9342 31.5933 36.1617 31.1823C36.3891 30.7712 36.7327 30.4364 37.1495 30.2197C37.2375 30.1707 37.311 30.0993 37.3624 30.0127C37.4138 29.9261 37.4414 29.8275 37.4423 29.7268C37.4423 29.5111 37.1341 29.1259 36.4563 29.4803C35.2392 30.0657 35.8709 32.5306 35.8709 32.5306Z" fill="#E9F4F1"/>
<path d="M36.1953 33.1467C36.2973 32.6878 36.5308 32.2685 36.8674 31.9401C37.2039 31.6118 37.6289 31.3887 38.0902 31.2981C38.1885 31.2788 38.2794 31.2326 38.3529 31.1646C38.4263 31.0965 38.4794 31.0094 38.5062 30.9129C38.5062 30.6972 38.3983 30.2505 37.6434 30.4045C36.2877 30.728 36.1953 33.1467 36.1953 33.1467Z" fill="#E9F4F1"/>
<path d="M24.1169 38.3384C24.1169 38.3384 23.8396 38.246 24.0245 38.0457C24.0512 38.0257 24.0836 38.0149 24.1169 38.0149C24.1503 38.0149 24.1827 38.0257 24.2094 38.0457L24.1169 37.9225C24.0953 37.885 24.0839 37.8425 24.0839 37.7992C24.0839 37.756 24.0953 37.7134 24.1169 37.676C24.1448 37.6521 24.1803 37.639 24.2171 37.639C24.2538 37.639 24.2893 37.6521 24.3172 37.676C24.5329 37.676 24.5483 37.7992 24.5483 37.7992C24.5483 37.7992 24.348 37.5527 24.5483 37.4141C24.7485 37.2754 25.0259 37.8763 25.0259 37.8763C25.0259 37.8763 25.3186 37.4295 25.5188 37.5681C25.7191 37.7068 25.1337 38.2922 25.1337 38.2922L24.9026 38.4771C24.7691 38.5081 24.6306 38.5119 24.4956 38.488C24.3606 38.4642 24.2318 38.4133 24.1169 38.3384Z" fill="url(#paint21_linear_3089_526)"/>
<path d="M24.4258 37.7684C24.4985 37.8484 24.5879 37.9115 24.6877 37.9533C24.6317 37.9479 24.5781 37.928 24.5322 37.8956C24.4863 37.8631 24.4496 37.8193 24.4258 37.7684Z" fill="black"/>
<path d="M24.2227 38.0303C24.3254 38.0801 24.4341 38.1163 24.5462 38.1382C24.4877 38.1431 24.4289 38.1361 24.3733 38.1176C24.3177 38.099 24.2664 38.0694 24.2227 38.0303Z" fill="black"/>
<path d="M34.3774 45.9797C38.3763 45.9797 41.618 42.7379 41.618 38.739C41.618 34.7401 38.3763 31.4984 34.3774 31.4984C30.3785 31.4984 27.1367 34.7401 27.1367 38.739C27.1367 42.7379 30.3785 45.9797 34.3774 45.9797Z" fill="white" stroke="black" stroke-width="0.02" stroke-miterlimit="10"/>
<path d="M26.9507 40.9882C27.0111 40.7579 27.0132 40.5162 26.9567 40.2848C26.9002 40.0535 26.787 39.8399 26.6272 39.6634C26.3653 39.3332 26.1786 38.9498 26.0801 38.5401C25.9817 38.1303 25.9738 37.704 26.0572 37.2909C26.0988 36.7643 26.2909 36.2608 26.6104 35.8403C26.9299 35.4197 27.3635 35.0997 27.8596 34.9184C27.9809 34.8692 28.0858 34.7867 28.1621 34.6803C28.2385 34.574 28.2831 34.4483 28.291 34.3176C28.2619 33.9043 28.3165 33.4893 28.4515 33.0975C28.5865 32.7058 28.7991 32.3453 29.0767 32.0376C29.3871 31.8019 29.7542 31.6522 30.141 31.6035C30.5277 31.5548 30.9205 31.6089 31.2797 31.7603C31.4392 31.8278 31.6189 31.8302 31.7802 31.7668C31.9414 31.7035 32.0715 31.5794 32.1424 31.4213C32.2532 31.1437 32.433 30.8989 32.6649 30.7102C32.8967 30.5215 33.1729 30.3951 33.4673 30.343C33.9472 30.2728 34.4372 30.3413 34.8794 30.5406C35.3217 30.7399 35.6976 31.0615 35.963 31.4676C36.087 31.6012 36.2413 31.703 36.4128 31.7647C36.5844 31.8264 36.7682 31.846 36.9489 31.8219C37.3997 31.6919 37.8663 31.6245 38.3354 31.6216C38.9217 31.6014 39.4992 31.7687 39.9839 32.0992C40.4356 32.461 40.7803 32.9389 40.9812 33.4817C41.182 34.0244 41.2313 34.6116 41.1239 35.1803C41.1053 35.3698 41.1438 35.5605 41.2344 35.7279C41.325 35.8954 41.4635 36.0319 41.6323 36.1201C42.2331 36.4282 43.0188 36.9828 42.8647 37.7839C42.7667 38.329 42.5094 38.8329 42.1252 39.232C41.9852 39.3873 41.899 39.5836 41.8796 39.7918C41.8602 40 41.9085 40.2089 42.0174 40.3874C42.3803 41.1121 42.5013 41.9341 42.3627 42.7326C42.2241 43.5312 41.8331 44.2643 41.2471 44.8242C40.8205 45.2637 40.2842 45.5811 39.6937 45.7436C39.1033 45.9061 38.4801 45.9078 37.8887 45.7486C37.6164 45.7176 37.3414 45.7759 37.1052 45.9149C36.869 46.0538 36.6844 46.2658 36.5792 46.5189C36.4699 46.7942 36.3077 47.0454 36.1016 47.2583C35.7975 47.4233 35.4468 47.481 35.1058 47.4224C34.7649 47.3637 34.4536 47.1919 34.2221 46.9348C34.0175 46.7442 33.7561 46.6259 33.4778 46.5981C33.1996 46.5703 32.9199 46.6344 32.6816 46.7808C32.3294 47.0475 31.9057 47.2031 31.4645 47.2275C30.5556 47.2275 29.924 46.7808 29.924 45.5329C29.9248 45.2549 29.835 44.9842 29.6683 44.7618C29.5015 44.5395 29.2667 44.3775 28.9996 44.3005C28.6272 44.2578 28.2693 44.1314 27.9528 43.9306C27.6363 43.7298 27.3694 43.4598 27.1722 43.1411C26.975 42.8223 26.8526 42.463 26.8143 42.0901C26.7759 41.7172 26.8225 41.3405 26.9507 40.9882Z" fill="url(#paint22_linear_3089_526)"/>
<mask id="mask2_3089_526" style="mask-type:luminance" maskUnits="userSpaceOnUse" x="33" y="38" width="2" height="2">
<path d="M33.7333 38.8777C33.7154 38.9587 33.714 39.0426 33.7293 39.1241C33.7446 39.2057 33.7762 39.2834 33.8222 39.3524C33.8683 39.4215 33.9278 39.4805 33.9972 39.526C34.0666 39.5715 34.1445 39.6025 34.2262 39.6172C34.3893 39.6394 34.5546 39.5971 34.687 39.4993C34.8194 39.4014 34.9083 39.2558 34.9349 39.0934C34.9671 38.9281 34.9336 38.7569 34.8415 38.6159C34.7495 38.475 34.6061 38.3755 34.4419 38.3385C34.2765 38.3166 34.1092 38.3609 33.9764 38.462C33.8436 38.563 33.7562 38.7124 33.7333 38.8777Z" fill="white"/>
</mask>
<g mask="url(#mask2_3089_526)">
<path d="M35.0052 38.7236L33.7574 38.5079C33.7574 38.5079 33.4339 39.5555 34.2196 39.6633C35.0052 39.7712 35.0052 38.7236 35.0052 38.7236Z" fill="url(#paint23_linear_3089_526)"/>
<path d="M34.44 38.2768C34.44 38.2768 33.8238 38.2768 33.793 38.5233L34.3938 38.6157L34.9792 38.7236C34.9357 38.6088 34.8632 38.5073 34.7686 38.429C34.6741 38.3506 34.5609 38.2982 34.44 38.2768Z" fill="white"/>
<path d="M34.2382 39.6941C34.1278 39.6729 34.0196 39.642 33.9147 39.6017L33.6836 39.309C33.6836 39.1704 33.6836 39.0933 33.8993 39.0933C33.9685 39.0864 34.0384 39.0938 34.1046 39.115C34.1709 39.1362 34.2321 39.1708 34.2844 39.2166C34.3409 39.2742 34.3725 39.3516 34.3725 39.4323C34.3725 39.5129 34.3409 39.5903 34.2844 39.6479L34.2382 39.6941Z" fill="url(#paint24_linear_3089_526)"/>
</g>
<path d="M33.048 37.8609C33.6096 37.8609 34.0648 37.4057 34.0648 36.8441C34.0648 36.2826 33.6096 35.8274 33.048 35.8274C32.4865 35.8274 32.0312 36.2826 32.0312 36.8441C32.0312 37.4057 32.4865 37.8609 33.048 37.8609Z" fill="white"/>
<path d="M32.8662 37.1369C33.2066 37.1369 33.4825 36.861 33.4825 36.5206C33.4825 36.1803 33.2066 35.9044 32.8662 35.9044C32.5259 35.9044 32.25 36.1803 32.25 36.5206C32.25 36.861 32.5259 37.1369 32.8662 37.1369Z" fill="url(#paint25_linear_3089_526)"/>
<path d="M33.1575 36.7055C33.2596 36.7055 33.3424 36.6228 33.3424 36.5207C33.3424 36.4186 33.2596 36.3358 33.1575 36.3358C33.0554 36.3358 32.9727 36.4186 32.9727 36.5207C32.9727 36.6228 33.0554 36.7055 33.1575 36.7055Z" fill="white"/>
<path d="M36.1769 38.4001C36.7385 38.4001 37.1937 37.9449 37.1937 37.3833C37.1937 36.8218 36.7385 36.3666 36.1769 36.3666C35.6154 36.3666 35.1602 36.8218 35.1602 37.3833C35.1602 37.9449 35.6154 38.4001 36.1769 38.4001Z" fill="white"/>
<path d="M35.9014 37.7068C36.2417 37.7068 36.5176 37.4309 36.5176 37.0906C36.5176 36.7503 36.2417 36.4744 35.9014 36.4744C35.5611 36.4744 35.2852 36.7503 35.2852 37.0906C35.2852 37.4309 35.5611 37.7068 35.9014 37.7068Z" fill="url(#paint26_linear_3089_526)"/>
<path d="M36.1927 37.26C36.2948 37.26 36.3775 37.1772 36.3775 37.0751C36.3775 36.973 36.2948 36.8903 36.1927 36.8903C36.0906 36.8903 36.0078 36.973 36.0078 37.0751C36.0078 37.1772 36.0906 37.26 36.1927 37.26Z" fill="white"/>
<path d="M37.7502 35.1033L37.4113 34.826L37.2264 34.6873C36.9289 34.5234 36.6136 34.3942 36.2867 34.3022H36.1172C36.1172 34.3022 36.1172 34.0865 36.1172 34.0557C36.1172 34.0249 36.4253 34.1327 36.5794 34.1481C36.6668 34.1625 36.7505 34.1939 36.8258 34.2405L37.0569 34.3638L37.2572 34.5178L37.4421 34.6719C37.5681 34.7873 37.6865 34.9108 37.7964 35.0416L37.7502 35.1033Z" fill="#AFDCD2"/>
<path d="M32.4635 34.256C32.5934 34.1912 32.7272 34.1346 32.8641 34.0865H33.0643C33.3927 34.0121 33.7293 33.981 34.0657 33.9941H34.2352C34.2352 33.9941 34.343 33.8092 34.2352 33.763C34.1273 33.7168 33.9271 33.763 33.773 33.763C33.6812 33.7475 33.5875 33.7475 33.4957 33.763H33.2492L33.0181 33.8555L32.8024 33.9479C32.6518 34.0175 32.5075 34.0999 32.3711 34.1944L32.4635 34.256Z" fill="#AFDCD2"/>
<path d="M32.4323 34.2098L32.7866 34.0557H33.0023C33.3455 33.9452 33.7048 33.8931 34.0653 33.9017H34.2501C34.3272 33.9017 34.358 33.8246 34.2501 33.7784C34.1118 33.664 33.9366 33.6037 33.7572 33.609C33.6609 33.586 33.5607 33.586 33.4645 33.609H33.2026L32.9561 33.7168L32.7404 33.84C32.5969 33.9291 32.4627 34.0323 32.3398 34.1482L32.4323 34.2098Z" fill="url(#paint27_linear_3089_526)"/>
<path d="M29.6294 46.3185C29.2905 46.488 29.0594 45.2401 29.0594 45.2401C29.0428 45.1957 29.0363 45.1482 29.0401 45.101C29.044 45.0538 29.0582 45.0079 29.0817 44.9668C29.1052 44.9256 29.1375 44.8902 29.1762 44.8629C29.215 44.8356 29.2592 44.8171 29.3059 44.8088C29.3552 44.7997 29.406 44.8016 29.4546 44.8145C29.5031 44.8274 29.5481 44.8509 29.5865 44.8833C29.6248 44.9158 29.6554 44.9563 29.6762 45.002C29.6969 45.0477 29.7073 45.0975 29.7064 45.1477C29.6599 45.4541 29.6599 45.7657 29.7064 46.0721C29.7247 46.1156 29.727 46.1643 29.7129 46.2094C29.6988 46.2545 29.6693 46.2931 29.6294 46.3185Z" fill="#1C2530"/>
<path d="M35.1636 38.5387C34.9117 38.3725 34.6244 38.2678 34.3247 38.233C34.025 38.1982 33.7213 38.2343 33.4381 38.3385C33.3622 38.3664 33.2966 38.4167 33.2499 38.4827C33.2031 38.5487 33.1775 38.6273 33.1762 38.7082C33.1636 38.8434 33.1786 38.9799 33.2203 39.1091C33.262 39.2384 33.3296 39.3578 33.419 39.4602C33.5083 39.5625 33.6176 39.6455 33.74 39.7043C33.8625 39.7631 33.9957 39.7963 34.1314 39.802C34.2677 39.8358 34.4096 39.84 34.5476 39.8146C34.6857 39.7891 34.8167 39.7344 34.9319 39.6542C35.0472 39.5739 35.1439 39.47 35.2157 39.3494C35.2876 39.2288 35.3328 39.0942 35.3484 38.9547C35.3614 38.8749 35.3508 38.793 35.3179 38.7192C35.2851 38.6453 35.2315 38.5826 35.1636 38.5387Z" fill="url(#paint28_linear_3089_526)"/>
<mask id="mask3_3089_526" style="mask-type:luminance" maskUnits="userSpaceOnUse" x="33" y="38" width="3" height="2">
<path d="M35.192 38.3385C34.9348 38.171 34.6414 38.0669 34.3361 38.0347C34.0308 38.0026 33.7223 38.0433 33.4358 38.1536C33.2971 38.1536 33.1739 38.5387 33.1739 38.6928C33.159 38.8292 33.1723 38.9673 33.213 39.0984C33.2537 39.2295 33.321 39.3508 33.4105 39.4549C33.5001 39.5589 33.6101 39.6434 33.7337 39.7031C33.8573 39.7628 33.9919 39.7965 34.129 39.802C34.2653 39.8358 34.4072 39.8401 34.5453 39.8146C34.6833 39.7891 34.8144 39.7344 34.9296 39.6542C35.0448 39.5739 35.1416 39.47 35.2134 39.3494C35.2852 39.2288 35.3305 39.0942 35.3461 38.9547C35.3769 38.8006 35.3307 38.4309 35.192 38.3385Z" fill="white"/>
</mask>
<g mask="url(#mask3_3089_526)">
<path d="M35.1299 39.7249C35.1299 39.7249 34.4983 38.1844 33.4045 39.2936C32.3107 40.4028 35.1299 39.7249 35.1299 39.7249Z" fill="url(#paint29_linear_3089_526)"/>
</g>
</g>
<path d="M45.1823 24.5261C44.8035 24.7707 44.495 25.1124 44.2879 25.5167C44.0808 25.921 43.9824 26.3736 44.0026 26.8288C44.4555 26.9841 44.9369 27.0346 45.4116 26.9768C45.8862 26.919 46.3421 26.7542 46.7461 26.4946C47.1391 26.2578 47.4625 25.9185 47.6829 25.512C47.9032 25.1054 48.0123 24.6464 47.9989 24.1826C47.5346 24.0183 47.0396 23.9639 46.5514 24.0234C46.0633 24.0829 45.595 24.2549 45.1823 24.5261Z" fill="#66A36C"/>
<path d="M3.13847 8.99683L3.56412 9.77992C3.62806 9.90129 3.72694 10.0005 3.84789 10.0647L4.61405 10.4918C4.73025 10.5516 4.82777 10.6423 4.89587 10.7541C4.96397 10.8659 5 10.9944 5 11.1254C5 11.2564 4.96397 11.3849 4.89587 11.4967C4.82777 11.6085 4.73025 11.6993 4.61405 11.759L3.84789 12.1862C3.72694 12.2503 3.62806 12.3496 3.56412 12.4709L3.13847 13.254C3.07563 13.3667 2.984 13.4605 2.87302 13.5257C2.76204 13.591 2.63573 13.6254 2.50709 13.6254C2.37846 13.6254 2.25214 13.591 2.14117 13.5257C2.03019 13.4605 1.93856 13.3667 1.87572 13.254L1.45007 12.4709C1.37638 12.3522 1.27386 12.2542 1.15211 12.1862L0.385947 11.759C0.269744 11.6993 0.172226 11.6085 0.104129 11.4967C0.0360322 11.3849 0 11.2564 0 11.1254C0 10.9944 0.0360322 10.8659 0.104129 10.7541C0.172226 10.6423 0.269744 10.5516 0.385947 10.4918L1.15211 10.0647C1.27386 9.99662 1.37638 9.89863 1.45007 9.77992L1.87572 8.99683C1.93856 8.88419 2.03019 8.7904 2.14117 8.72512C2.25214 8.65984 2.37846 8.62543 2.50709 8.62543C2.63573 8.62543 2.76204 8.65984 2.87302 8.72512C2.984 8.7904 3.07563 8.88419 3.13847 8.99683Z" fill="#A5D9CC"/>
<path d="M36.1847 28.6062L36.7855 29.5613C36.8838 29.7141 37.0224 29.8367 37.1861 29.9156L38.2182 30.3778C38.3686 30.4476 38.4973 30.5566 38.5911 30.6932C38.6849 30.8299 38.7402 30.9893 38.7512 31.1547C38.7622 31.32 38.7286 31.4853 38.6538 31.6332C38.579 31.7812 38.4658 31.9062 38.3261 31.9954L37.3709 32.6116C37.2233 32.7115 37.1061 32.8501 37.032 33.0122L36.5544 34.0443C36.4794 34.1778 36.3724 34.2906 36.243 34.3724C36.1136 34.4543 35.9659 34.5028 35.8132 34.5135C35.6605 34.5242 35.5075 34.4968 35.3679 34.4337C35.2284 34.3706 35.1068 34.2739 35.0139 34.1522L34.413 33.197C34.3104 33.0519 34.1726 32.9353 34.0125 32.8581L32.9803 32.3805C32.83 32.3107 32.7012 32.2018 32.6074 32.0651C32.5137 31.9284 32.4584 31.7691 32.4474 31.6037C32.4363 31.4383 32.47 31.273 32.5448 31.1251C32.6196 30.9772 32.7328 30.8521 32.8725 30.7629L33.8276 30.1467C33.9712 30.0489 34.0878 29.9164 34.1666 29.7616L34.6441 28.7294C34.7178 28.5949 34.8237 28.4809 34.9523 28.3976C35.081 28.3142 35.2283 28.2642 35.3811 28.252C35.5339 28.2398 35.6874 28.2657 35.8277 28.3276C35.9679 28.3894 36.0906 28.4851 36.1847 28.6062Z" fill="#FFD255"/>
<path d="M45.7178 2.92821L46.1492 3.60605C46.2197 3.71585 46.3217 3.80177 46.4419 3.85254L47.1659 4.19147C47.2737 4.24033 47.3664 4.31715 47.4344 4.41396C47.5024 4.51076 47.5432 4.62401 47.5527 4.74194C47.5621 4.85986 47.5398 4.97817 47.488 5.08455C47.4363 5.19093 47.357 5.28152 47.2584 5.34689L46.5651 5.77825C46.4608 5.84403 46.3799 5.94108 46.334 6.05555L45.9951 6.79502C45.9447 6.90183 45.8667 6.99324 45.7691 7.05976C45.6715 7.12628 45.5579 7.1655 45.4401 7.17335C45.3222 7.18121 45.2044 7.15742 45.0989 7.10444C44.9933 7.05146 44.9038 6.97123 44.8397 6.87204L44.4083 6.1942C44.3336 6.08826 44.2328 6.00337 44.1156 5.94771L43.3916 5.60878C43.2835 5.56234 43.1901 5.48733 43.1215 5.3918C43.0529 5.29627 43.0116 5.18384 43.0021 5.06661C42.9926 4.94937 43.0152 4.83176 43.0676 4.72642C43.1199 4.62109 43.2 4.53201 43.2991 4.46877L43.9924 4.022C44.0931 3.95216 44.1729 3.85632 44.2235 3.7447L44.5624 3.00523C44.6128 2.89842 44.6908 2.80701 44.7884 2.74049C44.886 2.67397 44.9996 2.63475 45.1175 2.62689C45.2353 2.61904 45.3531 2.64283 45.4587 2.69581C45.5642 2.74879 45.6537 2.82902 45.7178 2.92821Z" fill="#FFD255"/>
<path d="M17.3634 41.8832L17.7583 42.4742C17.8173 42.5704 17.9052 42.6456 18.0095 42.6892L18.6556 42.9757C18.7502 43.0181 18.8318 43.0849 18.8919 43.1693C18.9521 43.2536 18.9886 43.3524 18.9977 43.4555C19.0069 43.5586 18.9883 43.6622 18.9439 43.7558C18.8996 43.8494 18.831 43.9294 18.7453 43.9877L18.1531 44.3818C18.0569 44.4369 17.9814 44.5218 17.9377 44.6236L17.6506 45.2773C17.6094 45.3735 17.5427 45.4566 17.4577 45.5176C17.3726 45.5787 17.2724 45.6153 17.168 45.6236C17.0636 45.6319 16.9588 45.6116 16.8652 45.5647C16.7715 45.5179 16.6924 45.4464 16.6366 45.3579L16.2417 44.7669C16.18 44.6751 16.0926 44.6035 15.9905 44.5609L15.3444 44.2743C15.2498 44.2319 15.1682 44.1651 15.1081 44.0808C15.0479 43.9965 15.0114 43.8977 15.0023 43.7946C14.9931 43.6915 15.0117 43.5878 15.0561 43.4943C15.1004 43.4007 15.169 43.3206 15.2547 43.2623L15.8559 42.8683C15.9455 42.8042 16.0167 42.7177 16.0623 42.6175L16.3494 41.9638C16.3928 41.8699 16.4604 41.7893 16.5454 41.7301C16.6303 41.671 16.7295 41.6355 16.8328 41.6273C16.936 41.6191 17.0396 41.6384 17.1329 41.6834C17.2261 41.7284 17.3057 41.7973 17.3634 41.8832Z" fill="#FDDED0"/>
<defs>
<linearGradient id="paint0_linear_3089_526" x1="7.86229" y1="11.2369" x2="-6.27761" y2="3.68493" gradientUnits="userSpaceOnUse">
<stop stop-color="#553730"/>
<stop offset="0.25" stop-color="#593A2E"/>
<stop offset="0.35" stop-color="#5D3C2C"/>
<stop offset="0.55" stop-color="#68432A"/>
<stop offset="0.65" stop-color="#6F4729"/>
<stop offset="0.97" stop-color="#7A4E2F"/>
</linearGradient>
<linearGradient id="paint1_linear_3089_526" x1="28.7592" y1="29.1255" x2="41.2626" y2="19.0581" gradientUnits="userSpaceOnUse">
<stop stop-color="#513134"/>
<stop offset="0.99" stop-color="#553730"/>
</linearGradient>
<linearGradient id="paint2_linear_3089_526" x1="51.8491" y1="65.9486" x2="49.1234" y2="66.5511" gradientUnits="userSpaceOnUse">
<stop stop-color="#FBC3AA"/>
<stop offset="0.26" stop-color="#FCCFC6"/>
<stop offset="0.34" stop-color="#FCD4D1"/>
<stop offset="0.7" stop-color="#FDDED0"/>
<stop offset="1" stop-color="#FEE3CC"/>
</linearGradient>
<linearGradient id="paint3_linear_3089_526" x1="49.6833" y1="63.7676" x2="46.3865" y2="64.0643" gradientUnits="userSpaceOnUse">
<stop stop-color="#FBC3AA"/>
<stop offset="0.26" stop-color="#FCCFC6"/>
<stop offset="0.34" stop-color="#FCD4D1"/>
<stop offset="0.7" stop-color="#FDDED0"/>
<stop offset="1" stop-color="#FEE3CC"/>
</linearGradient>
<linearGradient id="paint4_linear_3089_526" x1="75.6788" y1="49.1638" x2="74.0026" y2="48.4789" gradientUnits="userSpaceOnUse">
<stop stop-color="#F15652"/>
<stop offset="0.48" stop-color="#F2665C"/>
<stop offset="0.94" stop-color="#F37065"/>
</linearGradient>
<linearGradient id="paint5_linear_3089_526" x1="36.0529" y1="15.4543" x2="34.4501" y2="-1.08453" gradientUnits="userSpaceOnUse">
<stop stop-color="#F05355"/>
<stop offset="0.41" stop-color="#F15652"/>
<stop offset="0.71" stop-color="#F2665C"/>
<stop offset="0.94" stop-color="#F37065"/>
</linearGradient>
<linearGradient id="paint6_linear_3089_526" x1="55.3525" y1="38.2687" x2="51.5017" y2="47.2502" gradientUnits="userSpaceOnUse">
<stop stop-color="#F05355"/>
<stop offset="0.33" stop-color="#F15652"/>
<stop offset="0.63" stop-color="#F2665C"/>
<stop offset="0.94" stop-color="#F37065"/>
</linearGradient>
<linearGradient id="paint7_linear_3089_526" x1="52.0688" y1="41.8101" x2="50.4204" y2="49.7237" gradientUnits="userSpaceOnUse">
<stop stop-color="#FBC3AA"/>
<stop offset="0.54" stop-color="#FCD7C6"/>
<stop offset="0.7" stop-color="#FDDED0"/>
<stop offset="1" stop-color="#FEE3CC"/>
</linearGradient>
<linearGradient id="paint8_linear_3089_526" x1="68.3375" y1="30.6258" x2="65.4234" y2="29.5832" gradientUnits="userSpaceOnUse">
<stop stop-color="#FBC3AA"/>
<stop offset="0.32" stop-color="#FCCFC6"/>
<stop offset="0.43" stop-color="#FCD4D1"/>
<stop offset="1" stop-color="#FDDED0"/>
</linearGradient>
<linearGradient id="paint9_linear_3089_526" x1="65.2967" y1="31.4101" x2="42.8353" y2="33.4316" gradientUnits="userSpaceOnUse">
<stop stop-color="#FBC3AA"/>
<stop offset="0.26" stop-color="#FCCFC6"/>
<stop offset="0.34" stop-color="#FCD4D1"/>
<stop offset="0.7" stop-color="#FDDED0"/>
<stop offset="1" stop-color="#FEE3CC"/>
</linearGradient>
<linearGradient id="paint10_linear_3089_526" x1="21.2619" y1="44.5075" x2="21.3701" y2="42.705" gradientUnits="userSpaceOnUse">
<stop stop-color="#F05355"/>
<stop offset="0.41" stop-color="#F15652"/>
<stop offset="1" stop-color="#F2665C"/>
</linearGradient>
<linearGradient id="paint11_linear_3089_526" x1="41.9048" y1="-1.23408" x2="-21.4172" y2="80.6888" gradientUnits="userSpaceOnUse">
<stop stop-color="#6FA1CC"/>
<stop offset="0.32" stop-color="#7DB7D1"/>
<stop offset="0.53" stop-color="#89C5D2"/>
<stop offset="0.75" stop-color="#97D1CB"/>
<stop offset="1" stop-color="#A5D9CC"/>
</linearGradient>
<linearGradient id="paint12_linear_3089_526" x1="28.7728" y1="-7.70974" x2="23.6119" y2="-7.65813" gradientUnits="userSpaceOnUse">
<stop stop-color="#A82823"/>
<stop offset="0.38" stop-color="#8C2B22"/>
<stop offset="0.39" stop-color="#8B2B22"/>
<stop offset="1" stop-color="#852D1E"/>
</linearGradient>
<linearGradient id="paint13_linear_3089_526" x1="26.966" y1="-6.7518" x2="22.6062" y2="-6.7082" gradientUnits="userSpaceOnUse">
<stop stop-color="#F1637F"/>
<stop offset="0.49" stop-color="#F37F95"/>
<stop offset="1" stop-color="#F6A2B0"/>
</linearGradient>
<linearGradient id="paint14_linear_3089_526" x1="65.7348" y1="24.5219" x2="57.3849" y2="25.2734" gradientUnits="userSpaceOnUse">
<stop stop-color="#513134"/>
<stop offset="0.99" stop-color="#553730"/>
</linearGradient>
<linearGradient id="paint15_linear_3089_526" x1="24.3868" y1="48.3777" x2="32.1906" y2="30.4289" gradientUnits="userSpaceOnUse">
<stop offset="0.17" stop-color="#6F4729"/>
<stop offset="0.33" stop-color="#68432A"/>
<stop offset="0.65" stop-color="#5D3C2C"/>
<stop offset="0.75" stop-color="#593A2E"/>
<stop offset="1" stop-color="#553730"/>
</linearGradient>
<linearGradient id="paint16_linear_3089_526" x1="53.3656" y1="28.7876" x2="48.4358" y2="29.2313" gradientUnits="userSpaceOnUse">
<stop stop-color="#513134"/>
<stop offset="0.99" stop-color="#553730"/>
</linearGradient>
<linearGradient id="paint17_linear_3089_526" x1="30.2317" y1="15.7538" x2="34.9643" y2="17.1342" gradientUnits="userSpaceOnUse">
<stop stop-color="#513134"/>
<stop offset="0.99" stop-color="#553730"/>
</linearGradient>
<linearGradient id="paint18_linear_3089_526" x1="62.0245" y1="36.7101" x2="59.325" y2="36.2465" gradientUnits="userSpaceOnUse">
<stop stop-color="#242F3D"/>
<stop offset="1" stop-color="#212E5D"/>
</linearGradient>
<linearGradient id="paint19_linear_3089_526" x1="63.0419" y1="36.0841" x2="61.6693" y2="35.8484" gradientUnits="userSpaceOnUse">
<stop stop-color="#242F3D"/>
<stop offset="1" stop-color="#212E5D"/>
</linearGradient>
<linearGradient id="paint20_linear_3089_526" x1="24.7142" y1="39.0137" x2="27.4009" y2="39.4793" gradientUnits="userSpaceOnUse">
<stop stop-color="#242F3D"/>
<stop offset="1" stop-color="#212E5D"/>
</linearGradient>
<linearGradient id="paint21_linear_3089_526" x1="23.9697" y1="38.087" x2="25.351" y2="38.3263" gradientUnits="userSpaceOnUse">
<stop stop-color="#242F3D"/>
<stop offset="1" stop-color="#212E5D"/>
</linearGradient>
<linearGradient id="paint22_linear_3089_526" x1="12.6167" y1="65.2541" x2="41.5074" y2="20.1372" gradientUnits="userSpaceOnUse">
<stop stop-color="#AFDCD2"/>
<stop offset="0.07" stop-color="#B6DFD6"/>
<stop offset="0.48" stop-color="#DEF0EC"/>
<stop offset="0.8" stop-color="#F6FBFA"/>
<stop offset="1" stop-color="white"/>
</linearGradient>
<linearGradient id="paint23_linear_3089_526" x1="36.8143" y1="5.91775" x2="35.5332" y2="5.73658" gradientUnits="userSpaceOnUse">
<stop stop-color="#242F3D"/>
<stop offset="1" stop-color="#212E5D"/>
</linearGradient>
<linearGradient id="paint24_linear_3089_526" x1="36.3016" y1="6.15598" x2="35.5391" y2="6.04814" gradientUnits="userSpaceOnUse">
<stop stop-color="#DE7C6B"/>
<stop offset="0.58" stop-color="#F39D98"/>
<stop offset="0.92" stop-color="#FAB397"/>
</linearGradient>
<linearGradient id="paint25_linear_3089_526" x1="68.2064" y1="28.8303" x2="66.9863" y2="28.6208" gradientUnits="userSpaceOnUse">
<stop stop-color="#242F3D"/>
<stop offset="1" stop-color="#212E5D"/>
</linearGradient>
<linearGradient id="paint26_linear_3089_526" x1="71.2668" y1="29.3872" x2="70.0467" y2="29.1777" gradientUnits="userSpaceOnUse">
<stop stop-color="#242F3D"/>
<stop offset="1" stop-color="#212E5D"/>
</linearGradient>
<linearGradient id="paint27_linear_3089_526" x1="33.1255" y1="49.2457" x2="31.1998" y2="49.2457" gradientUnits="userSpaceOnUse">
<stop stop-color="#242F3D"/>
<stop offset="1" stop-color="#212E5D"/>
</linearGradient>
<linearGradient id="paint28_linear_3089_526" x1="37.7805" y1="53.2314" x2="35.5929" y2="53.1658" gradientUnits="userSpaceOnUse">
<stop stop-color="#242F3D"/>
<stop offset="1" stop-color="#212E5D"/>
</linearGradient>
<linearGradient id="paint29_linear_3089_526" x1="15.9485" y1="23.6196" x2="14.0115" y2="23.3848" gradientUnits="userSpaceOnUse">
<stop stop-color="#DE7C6B"/>
<stop offset="0.58" stop-color="#F39D98"/>
<stop offset="0.92" stop-color="#FAB397"/>
</linearGradient>
</defs>
</svg>
