<svg width="22" height="22" viewBox="0 0 22 22" fill="none" xmlns="http://www.w3.org/2000/svg">
<path d="M21.1828 10.8359L11.5289 1.18907C11.4594 1.11942 11.3768 1.06417 11.2859 1.02647C11.1951 0.988766 11.0976 0.96936 10.9992 0.96936C10.9008 0.96936 10.8034 0.988766 10.7125 1.02647C10.6216 1.06417 10.539 1.11942 10.4695 1.18907L0.815625 10.8359C0.534375 11.1172 0.375 11.4992 0.375 11.8977C0.375 12.725 1.04766 13.3977 1.875 13.3977H2.89219V20.2813C2.89219 20.6961 3.22734 21.0313 3.64219 21.0313H8.99922C9.27536 21.0313 9.49922 20.8074 9.49922 20.5313V16.2813C9.49922 16.0051 9.72308 15.7813 9.99922 15.7813H11.6242C11.9004 15.7813 12.1242 16.0051 12.1242 16.2813V20.5313C12.1242 20.8074 12.3481 21.0313 12.6242 21.0313H18.3563C18.7711 21.0313 19.1063 20.6961 19.1063 20.2813V13.3977H20.1234C20.5219 13.3977 20.9039 13.2406 21.1852 12.957C21.7687 12.3711 21.7687 11.4219 21.1828 10.8359Z" fill="#FFC648"/>
</svg>
