<svg width="307" height="215" viewBox="0 0 307 215" fill="none" xmlns="http://www.w3.org/2000/svg">
<path d="M115.047 80.3151C115.047 80.3151 123.231 74.4982 131.964 83.3254C134.316 85.6929 125.818 95.1316 125.818 95.1316L115.047 80.3151Z" fill="url(#paint0_linear_321_853)"/>
<path d="M119.235 113.052C116.35 105.809 114.029 79.2646 124.048 61.3124C127.074 55.8718 133.691 53.2848 140.668 54.837C150.279 56.9693 157.13 70.2023 156.472 80.4092C155.39 97.4991 148.021 116.204 141.812 123.589C138.488 127.524 132.405 128.512 127.058 125.674L126.807 125.533C122.496 123.071 121.038 117.395 119.235 113.052Z" fill="url(#paint1_linear_321_853)"/>
<path d="M125.317 129.343C118.622 121.284 106.785 102.846 115.048 80.3154C124.368 91.7348 137.413 99.5063 151.893 102.266L152.285 112.849C152.475 117.36 151.151 121.805 148.523 125.476C145.894 129.146 142.113 131.833 137.782 133.106C136.765 133.42 135.71 133.594 134.646 133.623C132.872 133.641 131.116 133.267 129.503 132.527C127.89 131.787 126.461 130.7 125.317 129.343Z" fill="url(#paint2_linear_321_853)"/>
<path d="M140.291 81.3499C145.527 81.4944 150.627 79.6716 154.586 76.2411C158.545 72.8106 161.075 68.0212 161.677 62.8176C162.956 50.9702 161.798 38.9864 158.274 27.603C157.428 24.8278 156.8 23.1659 154.151 21.9586C150.372 20.2653 145.465 24.0282 142.454 26.8661C135.65 33.2787 126.65 40.7104 124.267 61.1086C123.635 66.0766 124.968 71.095 127.983 75.0941C129.421 77.007 131.278 78.5653 133.411 79.6497C135.544 80.734 137.898 81.3156 140.291 81.3499Z" fill="url(#paint3_linear_321_853)"/>
<path d="M139.727 22.9307C139.727 22.9307 138.755 17.7097 136.497 15.2324C134.239 12.7552 136.999 11.1559 138.833 12.0966C140.076 12.6935 141.172 13.5562 142.045 14.6237C142.917 15.6912 143.544 16.9374 143.882 18.2741L144.603 18.0703C144.769 15.003 144.371 11.9312 143.427 9.00792C141.859 4.71192 142.988 4.11613 142.988 4.11613C142.988 4.11613 144.352 2.72072 146.375 4.36699C148.397 6.01326 149.26 13.1314 149.26 13.1314C149.611 9.74868 149.611 6.33866 149.26 2.9559C148.601 -0.948127 153.603 -0.759981 154.308 2.20331C155.014 5.16661 154.528 13.4607 154.528 13.4607C154.993 10.2362 155.224 6.98211 155.217 3.72416C155.197 3.28753 155.337 2.8585 155.609 2.51689C156.033 1.98381 156.879 1.52913 158.447 2.51689C161.128 4.08477 158.855 14.6993 158.855 14.6993C158.855 14.6993 159.357 14.5112 161.301 8.83545C161.301 8.83545 162.508 5.96623 165.032 8.75705C165.032 8.75705 166.475 12.128 163.276 17.4588C163.276 17.4588 163.637 32.777 151.345 31.5697C139.053 30.3624 139.727 22.9307 139.727 22.9307Z" fill="url(#paint4_linear_321_853)"/>
<path d="M143.881 18.3527C144.657 18.2215 145.453 18.2807 146.201 18.5252C146.953 18.7793 147.657 19.1554 148.287 19.6384C148.891 20.1515 149.419 20.748 149.854 21.4101C150.056 21.7397 150.239 22.0799 150.403 22.4292C150.547 22.7884 150.673 23.1547 150.779 23.5267C149.965 22.2853 148.984 21.1617 147.863 20.1871C146.714 19.2464 145.343 18.6149 143.881 18.3527Z" fill="#EC977E"/>
<path d="M147.551 13.774C149.613 13.1295 151.79 12.9423 153.932 13.2252C155.008 13.3871 156.061 13.6765 157.068 14.0876C158.059 14.5215 158.962 15.1325 159.733 15.8906C158.826 15.3553 157.864 14.919 156.864 14.5893C155.878 14.2756 154.865 14.0551 153.838 13.9308C152.799 13.7811 151.752 13.7025 150.702 13.6956C149.667 13.6799 148.617 13.7113 147.551 13.774Z" fill="#EC977E"/>
<path d="M254.557 152.673C256.125 174.545 259.809 176.473 266.567 175.297C273.324 174.122 297.642 166.784 297.642 166.784C297.642 166.784 311.596 162.41 303.663 157.58C302.895 157.121 302.05 156.802 301.17 156.64L274.689 151.434C274.485 151.395 274.296 151.302 274.141 151.164C273.986 151.026 273.872 150.848 273.811 150.65L272.744 147.232C272.744 147.232 254.165 147.358 254.557 152.673Z" fill="url(#paint5_linear_321_853)"/>
<path d="M279.691 169.762C266.693 173.651 259.136 173.619 259.136 173.619C258.425 172.928 257.93 172.046 257.709 171.079V170.985C257.709 170.985 268.684 170.735 287.499 164.134C287.707 164.059 287.929 164.032 288.149 164.055C288.369 164.078 288.581 164.15 288.769 164.266C288.957 164.382 289.117 164.539 289.236 164.725C289.356 164.911 289.432 165.122 289.459 165.341C289.479 165.679 289.389 166.014 289.202 166.297C289.015 166.58 288.742 166.794 288.424 166.909C285.131 168.069 282.246 168.994 279.691 169.762Z" fill="url(#paint6_linear_321_853)"/>
<path d="M288.611 169.433C288.611 169.433 283.124 159.524 293.754 155.103L301.107 156.561C302.438 156.807 303.688 157.378 304.745 158.223C306.877 159.979 308.32 163.209 297.721 166.815L288.611 169.433Z" fill="url(#paint7_linear_321_853)"/>
<path d="M275.018 152.03L271.412 156.969C271.337 157.076 271.288 157.2 271.269 157.33C271.25 157.46 271.261 157.592 271.302 157.717C271.343 157.842 271.413 157.955 271.505 158.049C271.598 158.142 271.711 158.212 271.835 158.254L274.469 159.101C274.646 159.164 274.839 159.165 275.016 159.102C275.194 159.039 275.344 158.917 275.441 158.756L279.126 152.814" stroke="url(#paint8_linear_321_853)" stroke-width="0.88" stroke-miterlimit="10" stroke-linecap="round"/>
<path d="M282.23 153.551L279.095 159.179C279.02 159.287 278.971 159.411 278.953 159.54C278.935 159.67 278.948 159.802 278.991 159.926C279.034 160.05 279.105 160.162 279.2 160.253C279.294 160.344 279.408 160.411 279.534 160.449L282.168 161.312C282.347 161.371 282.54 161.367 282.717 161.302C282.894 161.236 283.043 161.113 283.14 160.951L286.62 154.46" stroke="url(#paint9_linear_321_853)" stroke-width="0.88" stroke-miterlimit="10" stroke-linecap="round"/>
<path d="M253.757 188.828L257.567 188.185L260.499 173.478L257.207 171.44C256.938 171.271 256.633 171.17 256.317 171.146C256.001 171.121 255.683 171.173 255.392 171.298C255.101 171.423 254.844 171.617 254.644 171.863C254.444 172.108 254.306 172.399 254.243 172.71L251.515 186.507C251.452 186.818 251.466 187.14 251.556 187.445C251.645 187.749 251.806 188.028 252.027 188.256C252.248 188.484 252.52 188.656 252.822 188.755C253.123 188.855 253.444 188.88 253.757 188.828Z" fill="#E85454"/>
<path d="M256.438 191.431L262.114 191.635C263.913 191.612 265.69 192.032 267.288 192.858L280.599 200.352C281.867 201.003 283.268 201.351 284.693 201.368C286.118 201.386 287.527 201.072 288.81 200.452C290.093 199.832 291.214 198.922 292.086 197.795C292.957 196.667 293.555 195.353 293.832 193.955L296.2 182.008C296.482 180.611 296.435 179.167 296.063 177.792C295.691 176.416 295.004 175.145 294.057 174.081C293.109 173.016 291.927 172.186 290.604 171.657C289.28 171.128 287.852 170.915 286.432 171.033L271.082 172.601C269.276 172.744 267.462 172.442 265.798 171.723L260.687 170.014C260.481 169.936 260.26 169.903 260.04 169.917C259.821 169.931 259.606 169.99 259.411 170.092C259.215 170.195 259.044 170.337 258.907 170.509C258.77 170.682 258.672 170.882 258.617 171.096L254.949 189.565C254.905 189.788 254.911 190.018 254.965 190.238C255.019 190.459 255.121 190.665 255.262 190.842C255.404 191.019 255.583 191.164 255.786 191.266C255.989 191.367 256.211 191.424 256.438 191.431Z" fill="url(#paint10_linear_321_853)"/>
<path d="M280.6 200.352C281.868 201.004 283.269 201.351 284.694 201.369C286.119 201.386 287.528 201.072 288.811 200.452C290.094 199.832 291.215 198.922 292.087 197.795C292.958 196.668 293.556 195.353 293.833 193.956L296.201 182.008C296.483 180.611 296.436 179.168 296.064 177.792C295.692 176.416 295.006 175.146 294.058 174.081C293.11 173.016 291.928 172.187 290.605 171.658C289.281 171.129 287.853 170.915 286.433 171.033L288.455 173.667C282.184 176.913 277.025 190.02 283.485 198.753L280.6 200.352Z" fill="url(#paint11_linear_321_853)"/>
<path d="M273.575 189.377L275.661 178.401C275.691 178.227 275.755 178.061 275.851 177.913C275.947 177.765 276.072 177.638 276.219 177.54C276.366 177.441 276.531 177.374 276.705 177.341C276.878 177.309 277.056 177.312 277.229 177.351L279.392 177.759C279.564 177.792 279.727 177.86 279.872 177.957C280.018 178.054 280.142 178.18 280.238 178.326C280.335 178.472 280.401 178.635 280.433 178.807C280.466 178.979 280.464 179.155 280.427 179.326L278.216 190.302C278.183 190.473 278.116 190.636 278.018 190.78C277.92 190.925 277.795 191.048 277.648 191.143C277.502 191.238 277.338 191.303 277.166 191.334C276.995 191.364 276.819 191.36 276.649 191.321L274.626 190.929C274.282 190.86 273.978 190.659 273.782 190.369C273.585 190.078 273.511 189.722 273.575 189.377Z" stroke="url(#paint12_linear_321_853)" stroke-width="1.19" stroke-miterlimit="10" stroke-linecap="round"/>
<path d="M265.548 187.715L267.618 176.74C267.651 176.568 267.719 176.405 267.816 176.26C267.913 176.114 268.039 175.99 268.185 175.894C268.331 175.797 268.494 175.731 268.666 175.699C268.838 175.666 269.015 175.668 269.186 175.705L271.334 176.128C271.506 176.16 271.67 176.226 271.816 176.323C271.961 176.42 272.086 176.546 272.181 176.692C272.277 176.839 272.341 177.004 272.371 177.177C272.4 177.349 272.394 177.526 272.353 177.696L270.158 188.671C270.124 188.843 270.057 189.006 269.959 189.151C269.862 189.297 269.737 189.421 269.591 189.517C269.445 189.614 269.281 189.68 269.109 189.712C268.937 189.745 268.761 189.743 268.59 189.706L266.567 189.298C266.394 189.265 266.23 189.197 266.084 189.099C265.938 189 265.814 188.873 265.719 188.725C265.623 188.577 265.559 188.411 265.53 188.237C265.501 188.064 265.507 187.886 265.548 187.715Z" stroke="url(#paint13_linear_321_853)" stroke-width="1.19" stroke-miterlimit="10" stroke-linecap="round"/>
<path d="M200.324 163.005C200.324 163.005 241.716 148.095 257.975 165.2C284.88 190.694 241.497 205.589 197.424 202.939C193.786 188.985 200.324 163.005 200.324 163.005Z" fill="url(#paint14_linear_321_853)"/>
<path d="M175.678 140.318C175.678 140.318 196.389 101.497 219.923 103.284C256.972 104.147 234.787 144.285 200.309 171.879C188.252 163.977 175.678 140.318 175.678 140.318Z" fill="url(#paint15_linear_321_853)"/>
<path d="M247.769 169.747C247.769 169.747 201.344 142.042 204.182 118.618C206.722 81.6476 262.46 110.779 275.646 151.058C267.21 162.754 247.769 169.747 247.769 169.747Z" fill="url(#paint16_linear_321_853)"/>
<path d="M100.137 115.232C100.137 115.043 101.501 105.605 143.003 105.918C224.94 106.514 219.327 174.748 193.285 207.956C192.187 209.336 147.393 211.656 120.77 201.339C83.8939 187.04 84.1291 162.142 84.2075 161.986L100.137 115.232Z" fill="url(#paint17_linear_321_853)"/>
<path d="M60.4079 173.4C60.4079 173.4 57.1467 182.886 68.0905 188.781C71.0224 190.349 77.6703 179.531 77.6703 179.531L60.4079 173.4Z" fill="url(#paint18_linear_321_853)"/>
<path d="M93.0035 168.148C85.1641 167.427 59.1216 172.726 44.6501 187.433C40.2914 191.87 39.6798 198.957 43.0821 205.197C47.7858 213.82 62.4925 216.643 72.088 213.131C88.1744 207.251 104.026 194.896 109.356 186.837C112.194 182.541 111.41 176.411 107.177 172.099L106.973 171.911C103.524 168.43 97.6444 168.587 93.0035 168.148Z" fill="url(#paint19_linear_321_853)"/>
<path d="M110.345 169.387C100.734 165.232 79.6931 159.101 60.4082 173.401C74.0094 179.099 85.1675 189.408 91.9226 202.516L104.795 198.267C108.567 197.04 111.844 194.632 114.142 191.399C116.44 188.167 117.638 184.281 117.557 180.315C117.541 179.256 117.394 178.202 117.118 177.179C116.642 175.457 115.786 173.864 114.614 172.516C113.442 171.167 111.984 170.098 110.345 169.387Z" fill="#FFD250"/>
<path d="M35.917 60.1675C35.917 60.1675 16.5066 60.5751 0.122258 90.4432C0.00744394 90.6676 -0.027865 90.9242 0.0221127 91.1712C0.0720903 91.4182 0.204391 91.6409 0.397384 91.803C0.590377 91.965 0.83266 92.0568 1.08458 92.0633C1.33649 92.0698 1.58314 91.9906 1.78421 91.8387C6.76605 87.9672 12.6248 85.3825 18.8428 84.3128L28.7361 81.4123C30.5317 80.8834 32.1961 79.9831 33.6214 78.7697C35.0468 77.5563 36.2012 76.0569 37.0098 74.3687C37.8185 72.6805 38.2633 70.8412 38.3154 68.97C38.3675 67.0989 38.0258 65.2377 37.3124 63.5071L35.917 60.1675Z" fill="#794B33"/>
<path d="M13.5896 96.229C10.421 96.4946 7.32804 97.3395 4.46454 98.7219C4.25346 98.8655 3.99675 98.926 3.74376 98.8918C3.49076 98.8576 3.25933 98.7311 3.09398 98.5365C2.92864 98.342 2.84106 98.0933 2.84804 97.838C2.85503 97.5828 2.95609 97.3392 3.13183 97.154C7.83547 90.6473 17.133 86.5552 17.133 86.5552C19.3281 91.3842 13.5896 96.229 13.5896 96.229Z" fill="#794B33"/>
<path d="M121.867 63.5698C121.867 63.5698 74.8304 13.9464 34.3791 63.1308C-6.07222 112.315 18.7003 130.863 54.4166 158.082C54.4166 158.082 36.1508 167.583 45.558 179.436C61.3466 199.333 79.001 175.046 78.7501 169.417C78.7501 169.417 162.6 165.435 146.733 87.6995C146.733 87.6995 156.486 65.2788 136.025 56.8279C136.025 56.8279 125.081 52.8141 121.867 63.5698Z" fill="url(#paint20_linear_321_853)"/>
<path d="M57.9611 162.08C57.511 162.089 57.0769 162.249 56.7276 162.533C56.3783 162.817 56.1336 163.209 56.0325 163.648C55.9445 164.55 56.0569 165.46 56.3618 166.313C56.8459 168.113 57.8234 169.742 59.184 171.017C60.5466 172.263 62.1939 173.157 63.9817 173.619C65.8777 174.041 67.8617 173.774 69.579 172.867C68.8754 173.715 67.9741 174.378 66.9543 174.796C65.9345 175.214 64.8276 175.376 63.7309 175.266C61.4933 175.04 59.3878 174.1 57.7259 172.585C56.9 171.81 56.2156 170.897 55.7033 169.888C55.2112 168.902 54.8829 167.843 54.7313 166.752C54.5094 165.622 54.6182 164.451 55.0448 163.381C55.3051 162.827 55.7639 162.39 56.3304 162.158C56.8505 161.953 57.4237 161.926 57.9611 162.08Z" fill="#EC977E"/>
<path d="M66.3173 168.994C64.8802 168.338 63.2446 168.265 61.7548 168.79C61.0806 169.088 60.6102 169.606 59.9831 169.935C59.6381 170.076 59.356 170.327 58.9483 170.484C58.5529 170.715 58.1319 170.899 57.6939 171.033L57.5215 170.907C57.5429 169.919 57.9412 168.977 58.6347 168.273C59.3795 167.59 60.3379 167.185 61.3471 167.128C62.268 167.005 63.2051 167.091 64.0877 167.382C64.9702 167.673 65.7754 168.159 66.4427 168.806L66.3173 168.994Z" fill="#EC977E"/>
<path d="M125.003 71.2525C124.881 70.1001 125.087 68.9367 125.597 67.8964C126.108 66.8561 126.902 65.9813 127.888 65.3729C128.957 64.8229 130.136 64.5192 131.338 64.4839C132.54 64.4487 133.734 64.6828 134.834 65.1691C137 66.0805 138.757 67.7538 139.772 69.8727C140.281 70.9321 140.518 72.1013 140.462 73.275C140.374 74.4002 139.99 75.482 139.349 76.4108C139.575 75.4418 139.6 74.4367 139.422 73.4578C139.244 72.4789 138.867 71.5469 138.314 70.7194C137.256 69.1297 135.758 67.8823 134.003 67.1289C132.314 66.3669 130.4 66.2662 128.64 66.8467C127.755 67.2786 126.972 67.8954 126.344 68.6553C125.717 69.4153 125.26 70.3009 125.003 71.2525Z" fill="#EC977E"/>
<path d="M134.708 74.0905C133.999 73.5948 133.414 72.9422 132.998 72.1836C132.582 71.4249 132.346 70.5805 132.31 69.7161C132.19 68.7832 132.407 67.838 132.921 67.0507C133.451 66.3113 134.251 65.8101 135.147 65.6553L135.289 65.7964C135.249 66.2272 135.165 66.6528 135.038 67.0664C135.038 67.4427 134.803 67.7562 134.74 68.0855C134.536 68.7126 134.128 69.183 133.972 69.8415C133.709 71.2667 134.007 72.7381 134.803 73.9494L134.708 74.0905Z" fill="#EC977E"/>
<path d="M109.419 108.349C110.272 109.577 110.756 111.024 110.814 112.519C110.922 114.126 110.486 115.722 109.575 117.05C108.644 118.37 107.27 119.31 105.703 119.7C104.975 119.888 104.228 119.993 103.476 120.014C102.743 119.966 102.014 119.861 101.297 119.7C101.934 119.391 102.588 119.119 103.257 118.885C103.853 118.556 104.48 118.352 105.013 118.007C106.071 117.46 106.985 116.67 107.678 115.702C109.027 113.852 109.293 111.234 109.419 108.349Z" fill="#EC977E"/>
<path opacity="0.2" d="M122.12 63.1156C122.12 63.1156 89.445 14.6994 45.1367 47.6249C45.1367 47.6249 19.2666 82.0085 21.1794 82.1183C21.1794 82.1183 -4.09483 111.908 24.8012 142.09C24.8012 142.09 62.8223 161.578 62.4303 161.359C55.908 157.972 40.1351 134.36 39.7431 115.232C42.828 114.577 45.6842 113.116 48.0215 110.999C50.6523 108.542 52.5233 105.383 53.4126 101.895C54.3019 98.4075 54.1722 94.7379 53.0387 91.3217C53.0387 91.3217 79.8181 76.8188 69.5642 50.0081C69.5642 50.0081 90.8717 37.465 128.877 75.0942C127.182 70.8117 124.908 66.7815 122.12 63.1156Z" fill="#AB6238"/>
<path d="M122.604 61.7358C122.604 61.7358 86.872 13.0218 42.5637 45.8845C42.5637 45.8845 28.6409 57.1106 26.0696 67.2077C26.0696 67.2077 -9.25477 109.274 22.2439 140.396C32.5578 151.577 45.2736 160.272 59.4341 165.827C59.6354 165.878 59.8475 165.862 60.0393 165.783C60.2311 165.704 60.3927 165.566 60.5003 165.388C61.2685 164.291 64.7649 159.477 66.2544 157.439C66.3254 157.336 66.373 157.219 66.3941 157.095C66.4151 156.972 66.409 156.845 66.3762 156.724C66.3434 156.603 66.2846 156.491 66.204 156.395C66.1234 156.299 66.0229 156.222 65.9095 156.169C58.9011 153.033 37.4837 133.466 37.0918 114.479C40.3745 113.784 43.4275 112.268 45.966 110.074C48.5769 107.643 50.3962 104.483 51.1875 101.004C51.9788 97.5261 51.7055 93.8901 50.4031 90.5691C50.4031 90.5691 77.4177 76.3484 67.1638 49.5534C67.1638 49.5534 88.0165 35.9755 128.044 75.0941C128.115 75.1691 128.2 75.2289 128.294 75.2698C128.389 75.3106 128.49 75.3317 128.593 75.3317C128.696 75.3317 128.798 75.3106 128.892 75.2698C128.987 75.2289 129.072 75.1691 129.142 75.0941L130.193 73.7144C130.274 73.5912 130.318 73.4467 130.318 73.2989C130.318 73.1511 130.274 73.0066 130.193 72.8834C129.409 71.4723 126.916 67.5056 122.604 61.7358Z" fill="url(#paint21_linear_321_853)"/>
<path d="M123.217 112.723L108.777 133.717L107.037 133.482L104.34 132.102L107.727 128.684L110.862 125.109L113.998 120.406L117.62 114.134L119.893 109.321L123.217 112.723Z" fill="white"/>
<path d="M126.023 119.59C126.023 119.59 125.459 125.423 125.004 125.783C123.931 127.178 122.931 128.628 122.01 130.127L119.532 132.478L116.632 134.187L113.026 135.065L109.89 134.94L108.416 134.266L123.295 112.613L125.114 115.592L126.023 119.59Z" fill="url(#paint22_linear_321_853)"/>
<path d="M123.718 128.089C121.95 130.07 119.991 131.871 117.869 133.466L117.101 132.745C116.445 131.915 116.088 130.887 116.088 129.829C116.088 128.77 116.445 127.743 117.101 126.913C118.669 124.671 121.334 123.855 123.137 125.094C123.749 125.524 124.196 126.148 124.407 126.866C124.211 127.291 123.98 127.7 123.718 128.089Z" fill="#F59192"/>
<path d="M114.295 135.207C110.695 135.531 107.093 134.612 104.088 132.604L103.445 132.149L104.01 131.695C107.507 128.849 110.584 125.524 113.15 121.817C115.801 117.884 118.024 113.679 119.783 109.274L120.081 108.694L120.661 109.117C120.77 109.117 132.059 117.646 124.079 129.249C122.971 130.886 121.524 132.266 119.836 133.294C118.148 134.322 116.258 134.974 114.295 135.207ZM113.15 123.056C110.892 126.361 108.262 129.397 105.311 132.102C107.916 133.654 110.945 134.346 113.966 134.078C115.72 133.779 117.389 133.104 118.858 132.1C120.328 131.096 121.563 129.787 122.479 128.261C128.892 118.948 122.479 112.269 120.472 110.513C118.294 114.832 115.865 119.02 113.197 123.056H113.15Z" fill="#ED977E"/>
<path opacity="0.2" d="M99.9654 68.3519C94.5092 70.1236 78.0151 76.7401 77.7328 83.0429C77.725 83.4844 77.8263 83.9209 78.0277 84.3137C78.2291 84.7066 78.5244 85.0437 78.8874 85.295C79.2504 85.5463 79.6698 85.704 80.1084 85.7543C80.547 85.8045 80.9912 85.7456 81.4016 85.5829C83.3779 84.6406 85.131 83.2884 86.5443 81.6162C90.8769 77.3583 95.7346 73.6701 101 70.641C101.256 70.4761 101.444 70.2248 101.53 69.9329C101.616 69.641 101.595 69.3279 101.469 69.0506C101.344 68.7732 101.123 68.5502 100.847 68.4219C100.571 68.2937 100.258 68.2689 99.9654 68.3519Z" fill="#AB6238"/>
<path d="M99.7599 67.1604C94.0058 68.9321 76.5397 75.6112 76.3672 82.1336C76.3679 82.6007 76.4827 83.0606 76.7015 83.4733C76.9204 83.886 77.2367 84.239 77.623 84.5016C78.0093 84.7643 78.4538 84.9287 78.9181 84.9805C79.3823 85.0323 79.8522 84.97 80.2869 84.799C82.3794 83.8655 84.2418 82.4847 85.7431 80.7539C90.3039 76.3878 95.4106 72.6303 100.936 69.5749C101.224 69.4008 101.436 69.1253 101.531 68.8026C101.627 68.4799 101.598 68.1332 101.45 67.8308C101.303 67.5283 101.048 67.2918 100.735 67.1677C100.422 67.0437 100.075 67.0411 99.7599 67.1604Z" fill="url(#paint23_linear_321_853)"/>
<path opacity="0.2" d="M61.1589 121.785C60.7513 116.063 60.6415 98.2671 66.38 95.6488C66.7858 95.4717 67.2294 95.3984 67.6706 95.4357C68.1119 95.4731 68.5369 95.6197 68.9073 95.8625C69.2777 96.1052 69.5817 96.4364 69.7919 96.8262C70.0022 97.2159 70.112 97.6519 70.1115 98.0947C69.999 100.284 69.4161 102.423 68.4025 104.366C66.0876 109.988 64.5067 115.885 63.6989 121.911C63.6822 122.248 63.5325 122.564 63.2826 122.79C63.0327 123.017 62.703 123.135 62.3662 123.118C62.0294 123.101 61.713 122.952 61.4866 122.702C61.2602 122.452 61.1423 122.122 61.1589 121.785Z" fill="#AB6238"/>
<path d="M60.1094 121.88C59.5763 115.875 59.1686 97.1855 65.1422 94.5672C65.5758 94.3917 66.0456 94.3243 66.511 94.3707C66.9764 94.4171 67.4235 94.576 67.8139 94.8337C68.2042 95.0913 68.5261 95.44 68.7517 95.8498C68.9773 96.2595 69.1 96.7179 69.109 97.1855C69.0308 99.4727 68.4528 101.715 67.4157 103.755C65.0633 109.63 63.4822 115.786 62.712 122.068C62.6161 122.35 62.4292 122.593 62.1805 122.758C61.9319 122.923 61.6356 123.001 61.338 122.979C61.0404 122.958 60.7583 122.838 60.536 122.639C60.3137 122.44 60.1637 122.173 60.1094 121.88Z" fill="url(#paint24_linear_321_853)"/>
<path d="M106.173 102.924C113.941 102.924 120.237 96.6275 120.237 88.8603C120.237 81.093 113.941 74.7964 106.173 74.7964C98.406 74.7964 92.1094 81.093 92.1094 88.8603C92.1094 96.6275 98.406 102.924 106.173 102.924Z" fill="white"/>
<path d="M109.56 101.247C113.811 101.247 117.258 97.8 117.258 93.5484C117.258 89.2967 113.811 85.8501 109.56 85.8501C105.308 85.8501 101.861 89.2967 101.861 93.5484C101.861 97.8 105.308 101.247 109.56 101.247Z" fill="url(#paint25_linear_321_853)"/>
<path d="M81.1655 135.677C88.9328 135.677 95.2293 129.38 95.2293 121.613C95.2293 113.845 88.9328 107.549 81.1655 107.549C73.3982 107.549 67.1016 113.845 67.1016 121.613C67.1016 129.38 73.3982 135.677 81.1655 135.677Z" fill="white"/>
<path d="M83.1417 134.924C87.3934 134.924 90.84 131.477 90.84 127.226C90.84 122.974 87.3934 119.527 83.1417 119.527C78.8901 119.527 75.4434 122.974 75.4434 127.226C75.4434 131.477 78.8901 134.924 83.1417 134.924Z" fill="url(#paint26_linear_321_853)"/>
<path d="M60.6117 212.001C65.6815 210.679 70.0715 207.504 72.9159 203.104C75.7603 198.704 76.8525 193.398 75.9769 188.232C73.9067 176.481 69.4569 165.276 62.9008 155.307C61.3329 152.876 60.2354 151.45 57.3662 151.042C53.2584 150.462 49.6052 155.448 47.4886 159.007C42.7849 167.081 36.1841 176.708 39.6491 196.965C40.4195 201.916 43.0986 206.368 47.1122 209.367C49.0142 210.803 51.2185 211.787 53.5577 212.243C55.8969 212.7 58.3094 212.617 60.6117 212.001Z" fill="url(#paint27_linear_321_853)"/>
<path d="M43.8503 154.24C43.8503 154.24 40.4636 150.164 37.2808 149.098C34.098 148.032 35.713 145.303 37.8453 145.288C39.2181 145.206 40.5923 145.426 41.8709 145.932C43.1495 146.439 44.3014 147.22 45.2456 148.22L45.7788 147.702C44.4312 144.938 42.5871 142.446 40.3382 140.349C36.9202 137.339 37.5787 136.304 37.5787 136.304C37.5787 136.304 38.0805 134.422 40.7145 134.877C43.3485 135.332 47.4564 141.007 47.4564 141.007C46.0792 137.899 44.3931 134.936 42.4235 132.165C39.9462 129.029 44.399 126.787 46.4686 129.029C48.5382 131.271 52.1444 138.75 52.1444 138.75C51.0122 135.733 49.671 132.799 48.1306 129.97C47.9003 129.6 47.8112 129.161 47.8798 128.731C47.9895 128.041 48.5068 127.163 50.3413 127.304C53.477 127.414 56.6128 137.746 56.6128 137.746C56.6128 137.746 56.9578 137.339 55.8759 131.475C55.8759 131.475 55.5467 128.339 59.1057 129.593C59.1057 129.593 62.022 131.835 61.8025 138.06C61.8025 138.06 69.6419 151.261 58.2434 156.153C46.8449 161.045 43.8503 154.24 43.8503 154.24Z" fill="url(#paint28_linear_321_853)"/>
<defs>
<linearGradient id="paint0_linear_321_853" x1="110.847" y1="74.7682" x2="96.155" y2="65.0325" gradientUnits="userSpaceOnUse">
<stop offset="0.05" stop-color="#FCB446"/>
<stop offset="0.51" stop-color="#FCB850"/>
<stop offset="1" stop-color="#FCBA55"/>
</linearGradient>
<linearGradient id="paint1_linear_321_853" x1="149.903" y1="54.1399" x2="117.151" y2="114.164" gradientUnits="userSpaceOnUse">
<stop stop-color="#FEE3CC"/>
<stop offset="0.3" stop-color="#FED9BB"/>
<stop offset="0.59" stop-color="#FCCAB7"/>
<stop offset="0.68" stop-color="#FBC0AE"/>
<stop offset="0.86" stop-color="#F9B09F"/>
<stop offset="1" stop-color="#F8AA9A"/>
</linearGradient>
<linearGradient id="paint2_linear_321_853" x1="99.5486" y1="98.1933" x2="143.456" y2="127.289" gradientUnits="userSpaceOnUse">
<stop offset="0.05" stop-color="#FDC253"/>
<stop offset="0.8" stop-color="#FCBD54"/>
<stop offset="1" stop-color="#FCBA55"/>
</linearGradient>
<linearGradient id="paint3_linear_321_853" x1="120.808" y1="84.3206" x2="137.146" y2="24.0036" gradientUnits="userSpaceOnUse">
<stop stop-color="#FCCAB7"/>
<stop offset="0.7" stop-color="#FED9BB"/>
<stop offset="1" stop-color="#FEE3CC"/>
</linearGradient>
<linearGradient id="paint4_linear_321_853" x1="135.624" y1="14.5869" x2="165.001" y2="16.8009" gradientUnits="userSpaceOnUse">
<stop stop-color="#FCCAB7"/>
<stop offset="0.23" stop-color="#FDD3BA"/>
<stop offset="0.51" stop-color="#FED9BB"/>
<stop offset="1" stop-color="#FEE3CC"/>
</linearGradient>
<linearGradient id="paint5_linear_321_853" x1="255.644" y1="164.68" x2="303.064" y2="150.489" gradientUnits="userSpaceOnUse">
<stop offset="0.05" stop-color="#F05355"/>
<stop offset="0.39" stop-color="#F15652"/>
<stop offset="1" stop-color="#F2665C"/>
</linearGradient>
<linearGradient id="paint6_linear_321_853" x1="258.358" y1="173.474" x2="289.031" y2="164.295" gradientUnits="userSpaceOnUse">
<stop stop-color="#FDDED0"/>
<stop offset="0.95" stop-color="#FEE3CC"/>
</linearGradient>
<linearGradient id="paint7_linear_321_853" x1="286.613" y1="163.71" x2="305.479" y2="158.064" gradientUnits="userSpaceOnUse">
<stop offset="0.05" stop-color="#FDDED0"/>
<stop offset="0.12" stop-color="#FDDFCF"/>
<stop offset="1" stop-color="#FEE3CC"/>
</linearGradient>
<linearGradient id="paint8_linear_321_853" x1="270.297" y1="156.988" x2="280.151" y2="154.04" gradientUnits="userSpaceOnUse">
<stop stop-color="#FDDED0"/>
<stop offset="0.95" stop-color="#FEE3CC"/>
</linearGradient>
<linearGradient id="paint9_linear_321_853" x1="277.851" y1="158.82" x2="287.674" y2="155.88" gradientUnits="userSpaceOnUse">
<stop stop-color="#FDDED0"/>
<stop offset="0.95" stop-color="#FEE3CC"/>
</linearGradient>
<linearGradient id="paint10_linear_321_853" x1="273.078" y1="198.96" x2="279.035" y2="168.956" gradientUnits="userSpaceOnUse">
<stop offset="0.05" stop-color="#F05355"/>
<stop offset="0.39" stop-color="#F15652"/>
<stop offset="1" stop-color="#F2665C"/>
</linearGradient>
<linearGradient id="paint11_linear_321_853" x1="285.136" y1="201.354" x2="291.093" y2="171.35" gradientUnits="userSpaceOnUse">
<stop offset="0.05" stop-color="#FDDED0"/>
<stop offset="0.12" stop-color="#FDDFCF"/>
<stop offset="1" stop-color="#FEE3CC"/>
</linearGradient>
<linearGradient id="paint12_linear_321_853" x1="263.117" y1="166.105" x2="270.932" y2="177.687" gradientUnits="userSpaceOnUse">
<stop stop-color="#FDDED0"/>
<stop offset="0.95" stop-color="#FEE3CC"/>
</linearGradient>
<linearGradient id="paint13_linear_321_853" x1="255.08" y1="164.464" x2="262.885" y2="176.033" gradientUnits="userSpaceOnUse">
<stop stop-color="#FDDED0"/>
<stop offset="0.95" stop-color="#FEE3CC"/>
</linearGradient>
<linearGradient id="paint14_linear_321_853" x1="201.416" y1="158.968" x2="153.597" y2="113.355" gradientUnits="userSpaceOnUse">
<stop stop-color="#15489D"/>
<stop offset="0.15" stop-color="#18499E"/>
<stop offset="0.26" stop-color="#214C9F"/>
<stop offset="0.33" stop-color="#2D51A2"/>
<stop offset="0.55" stop-color="#375DAA"/>
<stop offset="0.95" stop-color="#4670B7"/>
</linearGradient>
<linearGradient id="paint15_linear_321_853" x1="173.703" y1="136.745" x2="107.641" y2="134.983" gradientUnits="userSpaceOnUse">
<stop stop-color="#15489D"/>
<stop offset="0.15" stop-color="#18499E"/>
<stop offset="0.26" stop-color="#214C9F"/>
<stop offset="0.33" stop-color="#2D51A2"/>
<stop offset="0.55" stop-color="#375DAA"/>
<stop offset="0.95" stop-color="#4670B7"/>
</linearGradient>
<linearGradient id="paint16_linear_321_853" x1="237.289" y1="170.865" x2="232.32" y2="240.179" gradientUnits="userSpaceOnUse">
<stop stop-color="#15489D"/>
<stop offset="0.15" stop-color="#18499E"/>
<stop offset="0.26" stop-color="#214C9F"/>
<stop offset="0.33" stop-color="#2D51A2"/>
<stop offset="0.55" stop-color="#375DAA"/>
<stop offset="0.95" stop-color="#4670B7"/>
</linearGradient>
<linearGradient id="paint17_linear_321_853" x1="-65.8238" y1="294.296" x2="171.516" y2="166.622" gradientUnits="userSpaceOnUse">
<stop stop-color="#FCBA55"/>
<stop offset="0.14" stop-color="#FDBF54"/>
<stop offset="0.46" stop-color="#FDC253"/>
<stop offset="0.81" stop-color="#FFD53F"/>
<stop offset="1" stop-color="#FDE045"/>
</linearGradient>
<linearGradient id="paint18_linear_321_853" x1="80.0074" y1="170.357" x2="66.3773" y2="159.029" gradientUnits="userSpaceOnUse">
<stop offset="0.05" stop-color="#FCB446"/>
<stop offset="0.51" stop-color="#FCB850"/>
<stop offset="1" stop-color="#FCBA55"/>
</linearGradient>
<linearGradient id="paint19_linear_321_853" x1="25.2055" y1="226.661" x2="94.1187" y2="156.889" gradientUnits="userSpaceOnUse">
<stop stop-color="#FEE3CC"/>
<stop offset="0.15" stop-color="#FED9BB"/>
<stop offset="0.37" stop-color="#FCCAB7"/>
<stop offset="0.57" stop-color="#FBC6B3"/>
<stop offset="0.79" stop-color="#FAB8A7"/>
<stop offset="0.94" stop-color="#F8AA9A"/>
</linearGradient>
<linearGradient id="paint20_linear_321_853" x1="131.556" y1="101.612" x2="34.0312" y2="166.743" gradientUnits="userSpaceOnUse">
<stop stop-color="#FEE3CC"/>
<stop offset="0.3" stop-color="#FED9BB"/>
<stop offset="0.66" stop-color="#FCCAB7"/>
<stop offset="0.69" stop-color="#FCC6B4"/>
<stop offset="1" stop-color="#F8AA9A"/>
</linearGradient>
<linearGradient id="paint21_linear_321_853" x1="102.638" y1="80.5294" x2="14.9027" y2="174.156" gradientUnits="userSpaceOnUse">
<stop stop-color="#9F603A"/>
<stop offset="0.63" stop-color="#794B33"/>
<stop offset="1" stop-color="#4A242F"/>
</linearGradient>
<linearGradient id="paint22_linear_321_853" x1="128.696" y1="92.2235" x2="114.243" y2="114.297" gradientUnits="userSpaceOnUse">
<stop offset="0.01" stop-color="#F14452"/>
<stop offset="0.63" stop-color="#BA3C44"/>
<stop offset="1" stop-color="#9E383D"/>
</linearGradient>
<linearGradient id="paint23_linear_321_853" x1="101.944" y1="30.3346" x2="77.5074" y2="54.2357" gradientUnits="userSpaceOnUse">
<stop stop-color="#4A242F"/>
<stop offset="1" stop-color="#794B33"/>
</linearGradient>
<linearGradient id="paint24_linear_321_853" x1="37.0148" y1="119.42" x2="49.932" y2="87.8278" gradientUnits="userSpaceOnUse">
<stop stop-color="#4A242F"/>
<stop offset="0.97" stop-color="#794B33"/>
</linearGradient>
<linearGradient id="paint25_linear_321_853" x1="115.376" y1="116.601" x2="105.984" y2="128.765" gradientUnits="userSpaceOnUse">
<stop stop-color="#182649"/>
<stop offset="1" stop-color="#273861"/>
</linearGradient>
<linearGradient id="paint26_linear_321_853" x1="88.8212" y1="150.071" x2="79.4292" y2="162.234" gradientUnits="userSpaceOnUse">
<stop stop-color="#182649"/>
<stop offset="1" stop-color="#273861"/>
</linearGradient>
<linearGradient id="paint27_linear_321_853" x1="43.1899" y1="228.938" x2="42.0975" y2="166.424" gradientUnits="userSpaceOnUse">
<stop stop-color="#FCCAB7"/>
<stop offset="0.7" stop-color="#FED9BB"/>
<stop offset="1" stop-color="#FEE3CC"/>
</linearGradient>
<linearGradient id="paint28_linear_321_853" x1="44.9897" y1="153.795" x2="59.0463" y2="127.907" gradientUnits="userSpaceOnUse">
<stop stop-color="#FEE3CC"/>
<stop offset="0.49" stop-color="#FED9BB"/>
<stop offset="0.77" stop-color="#FDD3BA"/>
<stop offset="1" stop-color="#FCCAB7"/>
</linearGradient>
</defs>
</svg>
