<svg width="112" height="145" viewBox="0 0 112 145" fill="none" xmlns="http://www.w3.org/2000/svg">
<path d="M57.9034 136.553C58.7054 136.553 59.3555 135.903 59.3555 135.101C59.3555 134.299 58.7054 133.648 57.9034 133.648C57.1013 133.648 56.4512 134.299 56.4512 135.101C56.4512 135.903 57.1013 136.553 57.9034 136.553Z" fill="#A9D3C9"/>
<path d="M79.4327 130.199C80.2347 130.199 80.8848 129.549 80.8848 128.747C80.8848 127.945 80.2347 127.295 79.4327 127.295C78.6306 127.295 77.9805 127.945 77.9805 128.747C77.9805 129.549 78.6306 130.199 79.4327 130.199Z" fill="#A9D3C9"/>
<path d="M103.193 87.0876C103.975 87.0876 104.609 86.4537 104.609 85.6717C104.609 84.8898 103.975 84.2559 103.193 84.2559C102.411 84.2559 101.777 84.8898 101.777 85.6717C101.777 86.4537 102.411 87.0876 103.193 87.0876Z" fill="#B4DED5"/>
<path d="M60.9165 134.465C83.0923 134.465 101.069 116.488 101.069 94.312C101.069 72.1362 83.0923 54.1592 60.9165 54.1592C38.7407 54.1592 20.7637 72.1362 20.7637 94.312C20.7637 116.488 38.7407 134.465 60.9165 134.465Z" fill="white" stroke="black" stroke-width="0.07" stroke-miterlimit="10"/>
<path d="M103.248 101.936C102.772 100.719 102.61 99.401 102.775 98.1041C102.94 96.8072 103.427 95.5722 104.192 94.5121C106.007 92.0979 107.423 87.9047 105.826 81.0432C105.256 78.1656 103.872 75.5121 101.838 73.398C99.8046 71.2839 97.2067 69.7981 94.3534 69.1171C93.6417 68.9486 92.9974 68.569 92.5051 68.0281C92.0127 67.4871 91.6953 66.8101 91.5943 66.0857C91.0315 62.6549 90.1602 57.1729 85.8218 54.0326C82.0098 51.2734 76.6368 52.2174 73.5146 54.0326C72.6766 54.5029 71.6863 54.6218 70.7608 54.3632C69.8353 54.1046 69.05 53.4896 68.5772 52.653C67.7723 51.2125 66.62 49.9962 65.225 49.1148C63.83 48.2334 62.2367 47.715 60.5902 47.6067C52.8391 47.0984 49.2268 52.7801 47.5387 55.4303C46.9376 56.2341 46.1565 56.886 45.2582 57.3336C44.3598 57.7812 43.369 58.0122 42.3653 58.0079C39.7847 57.5863 37.1586 57.5191 34.5598 57.8083C31.3337 58.0437 28.2705 59.3174 25.8286 61.4387C19.8746 66.6666 20.4736 74.5265 21.472 79.0646C21.6958 80.0879 21.606 81.1549 21.2141 82.1263C20.8223 83.0978 20.1467 83.9286 19.2756 84.5103C16.2079 86.5796 12.2507 90.1919 13.5213 94.5121C14.4436 97.4417 16.1891 100.044 18.5495 102.009C19.425 102.756 20.0294 103.771 20.269 104.897C20.5086 106.023 20.3699 107.196 19.8746 108.235C17.3878 113.518 17.7327 125.117 27.0085 132.178C35.2677 138.459 40.8042 136.244 46.1047 135.119C47.5784 134.803 49.1142 134.963 50.4909 135.577C51.8676 136.19 53.014 137.225 53.7649 138.531C54.5231 139.999 55.5878 141.287 56.8871 142.307C59.2832 143.977 63.8394 143.106 67.0342 139.294C68.0638 138.057 69.4813 137.204 71.0564 136.875C72.6316 136.545 74.272 136.758 75.711 137.479C77.8389 138.697 80.268 139.288 82.7178 139.185C87.7278 138.695 90.9952 135.7 90.2691 128.802C90.0999 127.272 90.4313 125.729 91.2135 124.403C91.9957 123.078 93.1866 122.041 94.6075 121.45C100.344 119 107.822 113.554 103.248 101.936Z" fill="url(#paint0_linear_321_785)"/>
<path d="M48.7185 61.1301C48.6139 58.5223 47.7487 56.002 46.2295 53.8797C44.7104 51.7574 42.6036 50.1258 40.1688 49.1859C39.6697 48.9793 39.2367 48.6401 38.9167 48.2049C38.5967 47.7697 38.402 47.2552 38.3536 46.7172C38.2265 45.4647 39.6242 43.0868 43.6177 44.7386C50.6427 47.4978 48.7185 61.1301 48.7185 61.1301Z" fill="white"/>
<path d="M47.3753 65.0329C46.516 62.568 44.9552 60.4079 42.8848 58.8181C40.8145 57.2282 38.3247 56.2778 35.7216 56.0838C35.1731 56.0403 34.6469 55.8484 34.1992 55.5286C33.7515 55.2088 33.3993 54.7733 33.1803 54.2686C32.7083 53.1068 33.3799 50.511 37.6639 50.8378C45.2515 51.4368 47.3753 65.0329 47.3753 65.0329Z" fill="white"/>
<path d="M68.2143 93.7313C71.3422 93.7313 73.8778 91.1957 73.8778 88.0678C73.8778 84.9399 71.3422 82.4043 68.2143 82.4043C65.0864 82.4043 62.5508 84.9399 62.5508 88.0678C62.5508 91.1957 65.0864 93.7313 68.2143 93.7313Z" fill="white"/>
<path d="M66.4894 92.4787C68.3841 92.4787 69.9202 90.9427 69.9202 89.048C69.9202 87.1532 68.3841 85.6172 66.4894 85.6172C64.5946 85.6172 63.0586 87.1532 63.0586 89.048C63.0586 90.9427 64.5946 92.4787 66.4894 92.4787Z" fill="url(#paint1_linear_321_785)"/>
<path d="M64.8011 90.155C65.3525 90.155 65.7995 89.708 65.7995 89.1566C65.7995 88.6052 65.3525 88.1582 64.8011 88.1582C64.2497 88.1582 63.8027 88.6052 63.8027 89.1566C63.8027 89.708 64.2497 90.155 64.8011 90.155Z" fill="white"/>
<path d="M51.9311 98.5418C55.059 98.5418 57.5946 96.0062 57.5946 92.8783C57.5946 89.7505 55.059 87.2148 51.9311 87.2148C48.8032 87.2148 46.2676 89.7505 46.2676 92.8783C46.2676 96.0062 48.8032 98.5418 51.9311 98.5418Z" fill="white"/>
<path d="M53.257 95.8372C55.1517 95.8372 56.6877 94.3011 56.6877 92.4064C56.6877 90.5116 55.1517 88.9756 53.257 88.9756C51.3622 88.9756 49.8262 90.5116 49.8262 92.4064C49.8262 94.3011 51.3622 95.8372 53.257 95.8372Z" fill="url(#paint2_linear_321_785)"/>
<path d="M54.9261 93.2233C55.4775 93.2233 55.9245 92.7763 55.9245 92.2249C55.9245 91.6736 55.4775 91.2266 54.9261 91.2266C54.3747 91.2266 53.9277 91.6736 53.9277 92.2249C53.9277 92.7763 54.3747 93.2233 54.9261 93.2233Z" fill="white"/>
<path d="M41.7839 84.0199C42.3139 83.4197 42.8775 82.85 43.4721 82.3136C43.7703 82.0398 44.0856 81.7852 44.416 81.5512C45.9118 80.4203 47.5545 79.4982 49.2989 78.8102C49.5712 78.6831 49.9161 78.6287 50.1884 78.5016C50.4607 78.3746 50.3881 77.2854 50.1884 77.1039C49.5531 76.7045 48.5728 77.7392 47.7378 77.9752C47.2599 78.1161 46.8067 78.3305 46.3946 78.6105C45.998 78.8867 45.6163 79.1836 45.251 79.5C44.8949 79.7956 44.5556 80.1107 44.2344 80.4439C43.9248 80.7658 43.6339 81.1052 43.3631 81.4604C42.715 82.1516 42.1373 82.9056 41.6387 83.7113L41.7839 84.0199Z" fill="#AFDCD2"/>
<path d="M41.5666 83.9112C42.0124 83.3506 42.4913 82.8172 43.0007 82.3138C43.3101 82.0044 43.6374 81.7135 43.9809 81.4425C45.5278 80.1504 47.244 79.0755 49.0817 78.2477C49.354 78.1025 49.717 78.048 50.0256 77.8846C50.3342 77.7212 50.4249 77.3037 50.0256 77.1041C49.3177 76.6866 48.0288 77.1041 47.1575 77.3582C46.6504 77.5327 46.173 77.7837 45.7417 78.1025C45.3242 78.4292 44.943 78.7922 44.5799 79.1371C44.2077 79.4667 43.8618 79.8248 43.5452 80.2081C43.2274 80.5786 42.9305 80.9664 42.6558 81.3699C42.1277 82.1464 41.6777 82.9734 41.3125 83.8386L41.5666 83.9112Z" fill="url(#paint3_linear_321_785)"/>
<path d="M72.6436 75.652C71.913 75.3595 71.1678 75.105 70.4109 74.8896C70.0297 74.7807 69.6303 74.7081 69.231 74.6355C67.3969 74.3186 65.5284 74.2514 63.6764 74.4358C63.4041 74.4358 63.0592 74.5447 62.7506 74.5629C62.442 74.581 62.0608 73.5645 62.2423 73.2559C62.6417 72.6206 64.0576 73.0926 64.82 72.911C65.3067 72.8298 65.8035 72.8298 66.2903 72.911C66.7804 72.911 67.2342 73.0744 67.688 73.1833C68.1418 73.2922 68.5775 73.4193 68.995 73.5645C69.4125 73.7097 69.83 73.8913 70.2293 74.0728C71.1035 74.3996 71.9427 74.8131 72.7344 75.3071L72.6436 75.652Z" fill="#AFDCD2"/>
<path d="M72.8069 75.4521C72.1653 75.1484 71.5043 74.8877 70.8283 74.6715C70.4108 74.5445 70.0114 74.4355 69.5758 74.3448C67.6309 73.8966 65.6334 73.7195 63.64 73.8184C63.3314 73.8184 62.9865 73.9273 62.6416 73.9273C62.2967 73.9273 62.0426 73.5824 62.2423 73.2556C62.6961 72.5658 64.0575 72.3299 64.9288 72.1847C65.4566 72.0849 65.9984 72.0849 66.5262 72.1847C67.0236 72.2817 67.5146 72.409 67.9965 72.5659C68.4665 72.6992 68.9274 72.8629 69.3761 73.056C69.8196 73.2384 70.2501 73.4506 70.6649 73.6913C71.4715 74.1396 72.2263 74.6753 72.9158 75.2887L72.8069 75.4521Z" fill="url(#paint4_linear_321_785)"/>
<path d="M92.7338 136.226C92.9642 136.335 93.2262 136.359 93.4724 136.292C93.7187 136.226 93.9331 136.073 94.0771 135.863L97.526 130.962C97.6876 130.732 97.7968 130.469 97.8459 130.192C97.8949 129.915 97.8827 129.631 97.81 129.359C97.7373 129.087 97.606 128.835 97.4252 128.619C97.2444 128.404 97.0185 128.231 96.7636 128.112C96.4983 127.988 96.2083 127.926 95.9155 127.931C95.6228 127.936 95.335 128.008 95.0742 128.141C94.8133 128.274 94.5863 128.465 94.4103 128.699C94.2344 128.933 94.1142 129.204 94.0589 129.491C93.6798 131.293 93.0697 133.038 92.2437 134.683C92.1693 134.815 92.1229 134.962 92.1074 135.113C92.0918 135.264 92.1075 135.416 92.1535 135.561C92.1995 135.706 92.2747 135.839 92.3745 135.954C92.4744 136.068 92.5966 136.161 92.7338 136.226Z" fill="#1C2530"/>
<path d="M62.7134 103.225C63.746 103.225 64.5831 102.388 64.5831 101.356C64.5831 100.323 63.746 99.4858 62.7134 99.4858C61.6808 99.4858 60.8438 100.323 60.8438 101.356C60.8438 102.388 61.6808 103.225 62.7134 103.225Z" fill="url(#paint5_linear_321_785)"/>
<path d="M67.1239 114.915C66.4088 116.348 65.414 117.622 64.198 118.664C62.9821 119.705 61.5698 120.492 60.0445 120.978C59.1914 121.214 54.254 117.221 56.1055 110.813C56.2507 110.305 64.1288 109.851 66.2163 111.176C66.6798 112.378 66.9849 113.635 67.1239 114.915Z" fill="url(#paint6_linear_321_785)"/>
<path d="M67.5059 110.813C69.1329 107.986 71.7846 105.893 74.912 104.968C75.747 104.768 80.3577 108.943 78.1975 115.151C78.0342 115.641 71.2089 116.113 68.3227 114.57C67.8745 113.363 67.5995 112.098 67.5059 110.813Z" fill="url(#paint7_linear_321_785)"/>
<g style="mix-blend-mode:multiply" opacity="0.24">
<path d="M65.0197 112.156C63.9517 111.878 62.8198 111.987 61.8249 112.465C61.7982 112.478 61.7758 112.499 61.7602 112.525C61.7446 112.55 61.7363 112.58 61.7363 112.61C61.7363 112.64 61.7446 112.669 61.7602 112.695C61.7758 112.721 61.7982 112.741 61.8249 112.755C62.8866 112.93 63.9756 112.824 64.9833 112.447C65.0024 112.449 65.0218 112.448 65.0403 112.442C65.0588 112.437 65.0762 112.429 65.0914 112.417C65.1065 112.405 65.1192 112.39 65.1287 112.374C65.1382 112.357 65.1443 112.339 65.1467 112.319C65.1491 112.3 65.1477 112.281 65.1426 112.263C65.1375 112.244 65.1288 112.227 65.117 112.211C65.1052 112.196 65.0906 112.184 65.0738 112.174C65.0571 112.165 65.0387 112.158 65.0197 112.156Z" fill="#45386F"/>
</g>
<g style="mix-blend-mode:multiply" opacity="0.24">
<path d="M65.6361 114.425C64.7665 114.766 64.0504 115.411 63.6212 116.241C63.6128 116.263 63.611 116.288 63.6162 116.312C63.6214 116.336 63.6333 116.358 63.6505 116.375C63.6677 116.392 63.6895 116.404 63.7133 116.409C63.737 116.414 63.7618 116.413 63.7846 116.404C64.6028 115.985 65.2973 115.359 65.7995 114.589C65.808 114.566 65.8098 114.541 65.8046 114.517C65.7994 114.494 65.7875 114.472 65.7703 114.455C65.7531 114.437 65.7313 114.426 65.7075 114.42C65.6837 114.415 65.659 114.417 65.6361 114.425Z" fill="#45386F"/>
</g>
<g style="mix-blend-mode:multiply" opacity="0.24">
<path d="M65.2197 113.409C63.8435 113.31 62.4778 113.71 61.3714 114.534C61.3418 114.562 61.3214 114.598 61.3129 114.638C61.3045 114.678 61.3084 114.719 61.3242 114.757C61.34 114.795 61.3669 114.826 61.4013 114.848C61.4357 114.87 61.4759 114.881 61.5166 114.879C62.8485 114.834 64.1473 114.454 65.2923 113.772C65.3255 113.75 65.3515 113.719 65.3668 113.682C65.3822 113.645 65.3862 113.605 65.3784 113.566C65.3706 113.527 65.3513 113.491 65.323 113.463C65.2948 113.435 65.2588 113.416 65.2197 113.409Z" fill="#45386F"/>
</g>
<g style="mix-blend-mode:multiply" opacity="0.24">
<path d="M69.0307 113.59C70.0549 114.006 71.1936 114.045 72.2436 113.699C72.2757 113.688 72.3034 113.667 72.3231 113.64C72.3427 113.612 72.3533 113.579 72.3533 113.545C72.3533 113.511 72.3427 113.478 72.3231 113.45C72.3034 113.423 72.2757 113.402 72.2436 113.391C71.2148 113.098 70.1291 113.067 69.0851 113.3C69.0466 113.293 69.0068 113.301 68.9745 113.323C68.9421 113.345 68.9199 113.379 68.9127 113.418C68.9055 113.456 68.9138 113.496 68.936 113.529C68.9581 113.561 68.9922 113.583 69.0307 113.59Z" fill="#45386F"/>
</g>
<g style="mix-blend-mode:multiply" opacity="0.24">
<path d="M68.7218 111.267C69.6187 111.04 70.4083 110.507 70.9546 109.76C70.973 109.738 70.9835 109.711 70.9846 109.683C70.9856 109.654 70.9771 109.626 70.9603 109.603C70.9436 109.58 70.9196 109.563 70.8922 109.556C70.8648 109.548 70.8357 109.549 70.8093 109.56C69.9569 109.871 69.1913 110.381 68.5766 111.049C68.504 111.14 68.5948 111.303 68.7218 111.267Z" fill="#45386F"/>
</g>
<g style="mix-blend-mode:multiply" opacity="0.24">
<path d="M68.9951 112.41C70.3455 112.681 71.7486 112.463 72.9523 111.793C72.9886 111.781 73.0202 111.758 73.0426 111.727C73.065 111.696 73.0771 111.659 73.0771 111.62C73.0771 111.582 73.065 111.545 73.0426 111.514C73.0202 111.483 72.9886 111.46 72.9523 111.448C71.6232 111.311 70.281 111.51 69.0495 112.029C69.0061 112.034 68.9658 112.054 68.9346 112.085C68.9034 112.115 68.8832 112.155 68.877 112.199C68.8708 112.242 68.879 112.286 68.9004 112.324C68.9217 112.362 68.9549 112.393 68.9951 112.41Z" fill="#45386F"/>
</g>
<path d="M66.2352 109.905C69.8657 108.671 71.3723 114.697 67.9052 115.623C67.147 115.845 66.3318 115.756 65.6391 115.376C64.9463 114.997 64.4327 114.357 64.2112 113.599C63.9898 112.841 64.0786 112.026 64.4582 111.333C64.8377 110.64 65.477 110.127 66.2352 109.905Z" fill="#E07B5C"/>
<path d="M94.9881 82.4411C93.6267 77.8123 88.3988 75.9789 84.0967 77.2314C82.7172 77.6307 83.4614 79.7364 84.841 79.337C86.3823 78.8976 88.0331 79.0623 89.4572 79.7974C90.8814 80.5326 91.9717 81.7829 92.5062 83.2939C93.0407 84.8048 92.9791 86.4627 92.334 87.9298C91.689 89.3969 90.5089 90.563 89.0342 91.1905L61.4609 100.92C61.2158 101.043 61.024 101.251 60.9215 101.505C60.819 101.76 60.8128 102.043 60.9042 102.301C60.9955 102.56 61.1781 102.776 61.4177 102.909C61.6572 103.043 61.9372 103.084 62.2051 103.026L89.851 93.2598C89.948 93.2323 90.0399 93.1894 90.1233 93.1328C92.1211 92.2749 93.7241 90.6983 94.6149 88.715C95.5057 86.7316 95.6195 84.4861 94.9337 82.4229" fill="#EF6596"/>
<mask id="mask0_321_785" style="mask-type:luminance" maskUnits="userSpaceOnUse" x="60" y="76" width="36" height="28">
<path d="M84.841 79.3367C86.3823 78.8972 88.0331 79.0619 89.4572 79.797C90.8814 80.5322 91.9717 81.7825 92.5062 83.2935C93.0407 84.8044 92.9791 86.4623 92.334 87.9294C91.689 89.3965 90.5089 90.5626 89.0342 91.1901L61.4609 100.92C61.2158 101.043 61.024 101.251 60.9215 101.505C60.819 101.759 60.8128 102.042 60.9042 102.301C60.9955 102.559 61.1781 102.776 61.4177 102.909C61.6572 103.042 61.9372 103.084 62.2051 103.025L89.851 93.2594C89.948 93.2319 90.0399 93.189 90.1233 93.1324C92.1211 92.2746 93.7241 90.6979 94.6149 88.7146C95.5057 86.7313 95.6195 84.4857 94.9337 82.4225C93.5722 77.7937 88.3444 75.9603 84.0423 77.2128C82.7898 77.6848 83.534 79.6816 84.8773 79.3004" fill="white"/>
</mask>
<g mask="url(#mask0_321_785)">
<g opacity="0.5">
<mask id="mask1_321_785" style="mask-type:luminance" maskUnits="userSpaceOnUse" x="42" y="56" width="74" height="88">
<path d="M90.1022 56.2166L42.8086 73.5049L68.5353 143.883L115.829 126.594L90.1022 56.2166Z" fill="white"/>
</mask>
<g mask="url(#mask1_321_785)">
<path d="M98.2018 78.3202L83.5711 138.386L81.1387 137.787L95.7875 77.7212L98.2018 78.3202Z" fill="white"/>
<path d="M91.3028 72.9834L76.6721 133.031L74.2578 132.432L88.8885 72.3662L91.3028 72.9834Z" fill="white"/>
<path d="M84.4245 67.6283L69.7756 127.694L67.3613 127.095L81.992 67.0293L84.4245 67.6283Z" fill="white"/>
<path d="M77.526 62.2919L62.8771 122.358L60.4629 121.741L75.1118 61.6929L77.526 62.2919Z" fill="white"/>
</g>
</g>
</g>
<path d="M23.2689 105.276C24.1111 105.276 24.7937 104.593 24.7937 103.751C24.7937 102.909 24.1111 102.227 23.2689 102.227C22.4268 102.227 21.7441 102.909 21.7441 103.751C21.7441 104.593 22.4268 105.276 23.2689 105.276Z" fill="#AFDCD2"/>
<path d="M102.703 87.4143C103.545 87.4143 104.227 86.7316 104.227 85.8895C104.227 85.0474 103.545 84.3647 102.703 84.3647C101.86 84.3647 101.178 85.0474 101.178 85.8895C101.178 86.7316 101.86 87.4143 102.703 87.4143Z" fill="#AFDCD2"/>
<path d="M81.2117 133.376C82.2142 133.376 83.0269 132.563 83.0269 131.561C83.0269 130.558 82.2142 129.746 81.2117 129.746C80.2092 129.746 79.3965 130.558 79.3965 131.561C79.3965 132.563 80.2092 133.376 81.2117 133.376Z" fill="#9ECFC4"/>
<path d="M57.3217 136.426C58.1638 136.426 58.8465 135.743 58.8465 134.901C58.8465 134.059 58.1638 133.376 57.3217 133.376C56.4796 133.376 55.7969 134.059 55.7969 134.901C55.7969 135.743 56.4796 136.426 57.3217 136.426Z" fill="#9ECFC4"/>
<path d="M23.2324 103.007C18.9257 102.925 14.7054 101.784 10.9433 99.6855L10.0176 100.884C14.1192 102.955 18.581 104.219 23.1598 104.605C23.3479 104.623 23.5363 104.572 23.6898 104.462C23.8434 104.352 23.9518 104.19 23.9948 104.006C24.0216 103.889 24.0223 103.768 23.9969 103.65C23.9714 103.533 23.9205 103.423 23.8478 103.328C23.775 103.233 23.6822 103.154 23.5758 103.099C23.4695 103.044 23.3522 103.012 23.2324 103.007Z" fill="url(#paint8_linear_321_785)"/>
<path d="M6.53319 101.229C6.53319 101.229 5.081 101.065 5.78894 99.8491C5.89254 99.7139 6.03502 99.6137 6.19725 99.5617C6.35948 99.5098 6.5337 99.5088 6.69655 99.5587L5.89786 99.1231C5.69236 99.011 5.52842 98.8357 5.43033 98.6232C5.33224 98.4107 5.30522 98.1722 5.35329 97.9431C5.41796 97.7601 5.54315 97.6045 5.70817 97.5022C5.87319 97.3999 6.06816 97.3569 6.2609 97.3804C7.45895 97.5256 7.53157 97.7798 7.53157 97.7798C7.53157 97.7798 6.2609 96.7633 7.0959 95.8012C7.93091 94.8391 10.0003 97.6164 10.0003 97.6164C10.0003 97.6164 10.9805 95.0751 12.1422 95.5652C13.304 96.0553 10.9442 99.6495 10.9442 99.6495L10.0184 100.848C8.93276 101.363 7.70471 101.498 6.53319 101.229Z" fill="url(#paint9_linear_321_785)"/>
<path d="M7.4043 97.6709C7.62109 97.8455 7.86685 97.9807 8.13039 98.0703C8.37474 98.2097 8.64817 98.2905 8.9291 98.3062C8.6428 98.3285 8.35531 98.2825 8.09024 98.172C7.82517 98.0616 7.59009 97.8899 7.4043 97.6709Z" fill="black"/>
<path d="M6.78711 99.5586C7.08192 99.6496 7.38669 99.7045 7.69472 99.722C7.98873 99.7762 8.29018 99.7762 8.58418 99.722C8.28959 99.8067 7.9821 99.8375 7.67657 99.8127C7.37299 99.7551 7.07529 99.6701 6.78711 99.5586Z" fill="black"/>
<path d="M102.794 85.1633C105.247 81.6225 106.793 77.5334 107.296 73.2554H108.821C108.095 77.7934 106.505 82.1501 104.137 86.089C104.033 86.249 103.876 86.3675 103.694 86.4239C103.512 86.4802 103.315 86.4709 103.139 86.3976C103.02 86.3562 102.913 86.2866 102.827 86.1949C102.741 86.1031 102.678 85.9918 102.644 85.8706C102.61 85.7493 102.606 85.6217 102.632 85.4985C102.658 85.3753 102.714 85.2603 102.794 85.1633Z" fill="url(#paint10_linear_321_785)"/>
<path d="M111.143 70.6051C111.143 70.6051 111.869 69.3162 110.472 69.171C110.298 69.1768 110.13 69.2355 109.991 69.3393C109.851 69.4431 109.747 69.5871 109.691 69.7519L109.818 68.8443C109.848 68.6109 109.802 68.3743 109.688 68.1686C109.573 67.963 109.397 67.7991 109.183 67.7007C108.996 67.6452 108.797 67.6566 108.618 67.7328C108.439 67.809 108.292 67.9453 108.203 68.1182C107.604 69.1529 107.767 69.3707 107.767 69.3707C107.767 69.3707 107.767 67.7552 106.424 67.8641C105.08 67.973 106.206 71.2949 106.206 71.2949C106.206 71.2949 103.574 70.6051 103.302 71.8394C103.029 73.0738 107.295 73.2553 107.295 73.2553H108.82C109.878 72.6675 110.699 71.7308 111.143 70.6051Z" fill="url(#paint11_linear_321_785)"/>
<path d="M107.748 69.2075C107.83 69.4839 107.837 69.7767 107.77 70.0569C107.703 70.3372 107.565 70.595 107.367 70.8049C107.529 70.5822 107.624 70.3175 107.639 70.0425C107.72 69.7718 107.757 69.4899 107.748 69.2075Z" fill="black"/>
<path d="M109.69 69.8428C109.633 70.1426 109.542 70.435 109.418 70.7141C109.258 70.9861 109.048 71.2261 108.801 71.422C109.013 71.1991 109.185 70.9412 109.309 70.6596C109.465 70.4018 109.593 70.128 109.69 69.8428Z" fill="black"/>
<path d="M54.8902 79.8804C82.923 75.5107 104.723 66.034 103.582 58.7138C102.441 51.3936 78.7908 49.0017 50.758 53.3715C22.7251 57.7413 0.925033 67.2179 2.06612 74.5382C3.2072 81.8584 26.8573 84.2502 54.8902 79.8804Z" fill="#D16B54"/>
<path d="M54.7031 77.9231C82.6201 73.5913 104.398 64.5786 103.345 57.7925C102.292 51.0064 78.807 49.0168 50.89 53.3486C22.973 57.6803 1.1954 66.6931 2.24836 73.4792C3.30133 80.2652 26.7861 82.2548 54.7031 77.9231Z" fill="url(#paint12_linear_321_785)"/>
<path d="M80.8295 60.2584C63.3042 66.6811 44.6725 69.5385 26.0278 68.6629L13.5391 12.5905L75.9284 2.95166L80.8295 60.2584Z" fill="url(#paint13_linear_321_785)"/>
<path d="M24.377 61.239L26.0288 68.6632C44.6734 69.5388 63.3052 66.6814 80.8305 60.2587L80.177 52.6348C62.1511 58.4444 43.3156 61.3488 24.377 61.239Z" fill="#FCC990"/>
<path d="M45.1729 10.6707C62.4053 8.02762 76.1728 4.56756 75.9235 2.94243C75.6743 1.3173 61.5026 2.1425 44.2703 4.78558C27.0379 7.42865 13.2704 10.8887 13.5197 12.5139C13.7689 14.139 27.9406 13.3138 45.1729 10.6707Z" fill="#F29494"/>
<path d="M58.4116 135.736L50.352 144.268C50.2341 144.379 50.0783 144.441 49.9164 144.441C49.7544 144.441 49.5986 144.379 49.4807 144.268C49.4141 144.206 49.361 144.132 49.3247 144.049C49.2883 143.966 49.2695 143.877 49.2695 143.787C49.2695 143.696 49.2883 143.607 49.3247 143.524C49.361 143.441 49.4141 143.367 49.4807 143.306C50.8966 141.872 54.9264 137.678 57.4858 134.683C57.5506 134.61 57.6302 134.551 57.7194 134.511C57.8086 134.471 57.9053 134.45 58.0032 134.45C58.101 134.45 58.1978 134.471 58.287 134.511C58.3762 134.551 58.4558 134.61 58.5205 134.683C58.5909 134.756 58.6445 134.843 58.6776 134.938C58.7107 135.033 58.7225 135.135 58.7121 135.235C58.7017 135.336 58.6695 135.432 58.6175 135.519C58.5656 135.606 58.4953 135.68 58.4116 135.736Z" fill="url(#paint14_linear_321_785)"/>
<path d="M50.1527 144.268C49.977 144.452 49.7404 144.567 49.4867 144.59C49.2331 144.614 48.9795 144.544 48.7731 144.395L43.8357 140.982C43.6064 140.82 43.4149 140.611 43.2744 140.368C43.134 140.125 43.0478 139.854 43.0219 139.575C42.9961 139.295 43.0311 139.013 43.1245 138.749C43.218 138.484 43.3677 138.243 43.5634 138.042C43.7697 137.83 44.0217 137.67 44.3001 137.571C44.5784 137.473 44.8756 137.44 45.1687 137.476C45.4617 137.511 45.7427 137.613 45.9901 137.774C46.2374 137.935 46.4443 138.151 46.5948 138.405C47.5413 139.969 48.6954 141.398 50.0256 142.652L50.1164 142.743C50.2198 142.84 50.3028 142.957 50.3607 143.087C50.4186 143.216 50.4501 143.356 50.4535 143.498C50.4569 143.64 50.432 143.781 50.3804 143.913C50.3287 144.045 50.2513 144.166 50.1527 144.268Z" fill="#1C2530"/>
<path d="M81.7566 132.957L93.247 135.735C93.4081 135.775 93.5785 135.752 93.7234 135.671C93.8684 135.59 93.9771 135.457 94.0276 135.299C94.0549 135.214 94.0642 135.125 94.0549 135.036C94.0455 134.948 94.0177 134.863 93.9732 134.786C93.9287 134.709 93.8685 134.642 93.7966 134.589C93.7247 134.537 93.6426 134.501 93.5556 134.482C91.577 134.046 85.8409 132.776 82.1378 131.596C82.0449 131.566 81.9467 131.555 81.8495 131.564C81.7522 131.574 81.658 131.604 81.5728 131.651C81.4875 131.699 81.4131 131.764 81.3541 131.842C81.2952 131.92 81.253 132.009 81.2302 132.104C81.2086 132.195 81.2051 132.289 81.2199 132.381C81.2347 132.472 81.2675 132.561 81.3164 132.64C81.3653 132.719 81.4294 132.788 81.5049 132.842C81.5804 132.897 81.666 132.936 81.7566 132.957Z" fill="url(#paint15_linear_321_785)"/>
<defs>
<linearGradient id="paint0_linear_321_785" x1="74.0323" y1="139.592" x2="48.0018" y2="51.5447" gradientUnits="userSpaceOnUse">
<stop stop-color="#AFDCD2"/>
<stop offset="0.07" stop-color="#B6DFD6"/>
<stop offset="0.48" stop-color="#DEF0EC"/>
<stop offset="0.8" stop-color="#F6FBFA"/>
<stop offset="1" stop-color="white"/>
</linearGradient>
<linearGradient id="paint1_linear_321_785" x1="63.1827" y1="90.0249" x2="69.7801" y2="88.0744" gradientUnits="userSpaceOnUse">
<stop stop-color="#242F3D"/>
<stop offset="1" stop-color="#212E5D"/>
</linearGradient>
<linearGradient id="paint2_linear_321_785" x1="56.4624" y1="91.3178" x2="49.9303" y2="93.4768" gradientUnits="userSpaceOnUse">
<stop stop-color="#242F3D"/>
<stop offset="1" stop-color="#212E5D"/>
</linearGradient>
<linearGradient id="paint3_linear_321_785" x1="66.481" y1="82.8482" x2="56.5778" y2="87.1539" gradientUnits="userSpaceOnUse">
<stop stop-color="#242F3D"/>
<stop offset="1" stop-color="#212E5D"/>
</linearGradient>
<linearGradient id="paint4_linear_321_785" x1="67.7215" y1="68.1521" x2="78.3769" y2="67.6194" gradientUnits="userSpaceOnUse">
<stop stop-color="#242F3D"/>
<stop offset="1" stop-color="#212E5D"/>
</linearGradient>
<linearGradient id="paint5_linear_321_785" x1="60.717" y1="101.796" x2="64.3946" y2="101.085" gradientUnits="userSpaceOnUse">
<stop stop-color="#242F3D"/>
<stop offset="1" stop-color="#212E5D"/>
</linearGradient>
<linearGradient id="paint6_linear_321_785" x1="29.1472" y1="150.66" x2="89.8731" y2="135.785" gradientUnits="userSpaceOnUse">
<stop stop-color="#EF6674"/>
<stop offset="0.2" stop-color="#F27772"/>
<stop offset="0.54" stop-color="#F69370"/>
<stop offset="0.68" stop-color="#F9A777"/>
<stop offset="0.88" stop-color="#FCBE7F"/>
<stop offset="1" stop-color="#FDC682"/>
</linearGradient>
<linearGradient id="paint7_linear_321_785" x1="28.8902" y1="149.582" x2="89.5986" y2="134.711" gradientUnits="userSpaceOnUse">
<stop stop-color="#EF6674"/>
<stop offset="0.2" stop-color="#F27772"/>
<stop offset="0.54" stop-color="#F69370"/>
<stop offset="0.68" stop-color="#F9A777"/>
<stop offset="0.88" stop-color="#FCBE7F"/>
<stop offset="1" stop-color="#FDC682"/>
</linearGradient>
<linearGradient id="paint8_linear_321_785" x1="45.74" y1="120.87" x2="59.6265" y2="120.453" gradientUnits="userSpaceOnUse">
<stop stop-color="#242F3D"/>
<stop offset="1" stop-color="#212E5D"/>
</linearGradient>
<linearGradient id="paint9_linear_321_785" x1="41.0103" y1="117.015" x2="48.2168" y2="116.799" gradientUnits="userSpaceOnUse">
<stop stop-color="#242F3D"/>
<stop offset="1" stop-color="#212E5D"/>
</linearGradient>
<linearGradient id="paint10_linear_321_785" x1="111.018" y1="99.7107" x2="102.547" y2="110.681" gradientUnits="userSpaceOnUse">
<stop stop-color="#242F3D"/>
<stop offset="1" stop-color="#212E5D"/>
</linearGradient>
<linearGradient id="paint11_linear_321_785" x1="110.675" y1="93.6321" x2="106.279" y2="99.3252" gradientUnits="userSpaceOnUse">
<stop stop-color="#242F3D"/>
<stop offset="1" stop-color="#212E5D"/>
</linearGradient>
<linearGradient id="paint12_linear_321_785" x1="-61.8044" y1="77.767" x2="130.592" y2="57.4764" gradientUnits="userSpaceOnUse">
<stop stop-color="#EF6674"/>
<stop offset="0.2" stop-color="#F27772"/>
<stop offset="0.54" stop-color="#F69370"/>
<stop offset="0.68" stop-color="#F9A777"/>
<stop offset="0.88" stop-color="#FCBE7F"/>
<stop offset="1" stop-color="#FDC682"/>
</linearGradient>
<linearGradient id="paint13_linear_321_785" x1="23.4936" y1="-14.975" x2="95.311" y2="117.767" gradientUnits="userSpaceOnUse">
<stop stop-color="#EF6674"/>
<stop offset="0.2" stop-color="#F27772"/>
<stop offset="0.54" stop-color="#F69370"/>
<stop offset="0.68" stop-color="#F9A777"/>
<stop offset="0.88" stop-color="#FCBE7F"/>
<stop offset="1" stop-color="#FDC682"/>
</linearGradient>
<linearGradient id="paint14_linear_321_785" x1="54.8214" y1="141.042" x2="52.6139" y2="137.833" gradientUnits="userSpaceOnUse">
<stop stop-color="#212E5D"/>
<stop offset="1" stop-color="#242F3D"/>
</linearGradient>
<linearGradient id="paint15_linear_321_785" x1="63.0556" y1="140.438" x2="63.1576" y2="136.556" gradientUnits="userSpaceOnUse">
<stop stop-color="#212E5D"/>
<stop offset="1" stop-color="#242F3D"/>
</linearGradient>
</defs>
</svg>
