<svg width="1440" height="526" viewBox="0 0 1440 526" fill="none" xmlns="http://www.w3.org/2000/svg">
<path d="M-430.436 213.816C-417.054 195.153 -397.913 181.301 -375.895 174.346C-353.876 167.391 -330.173 167.71 -308.354 175.255C-302.624 177.235 -297.075 179.694 -291.766 182.604C-278.28 169.009 -261.171 159.492 -242.433 155.164C-223.694 150.835 -204.1 151.873 -185.934 158.156C-166.638 164.804 -149.818 177.069 -137.678 193.344C-125.538 209.62 -118.642 229.148 -117.895 249.371C-112.159 250.255 -106.515 251.653 -101.033 253.547C-88.762 257.774 -77.4985 264.454 -67.9412 273.172C-49.7628 262.315 -28.4423 257.789 -7.36871 260.312C13.705 262.835 33.3225 272.263 48.3657 287.097C61.5466 280.335 76.1421 276.722 90.985 276.546C105.828 276.37 120.506 279.636 133.847 286.084C147.188 292.532 158.82 301.982 167.814 313.679C176.808 325.375 182.915 338.994 185.645 353.447C189.746 354.355 193.792 355.491 197.765 356.85C217.677 363.739 235.056 376.366 247.671 393.11C260.286 409.853 267.561 429.949 268.562 450.818C269.563 471.686 264.245 492.375 253.29 510.228C242.336 528.081 226.244 542.284 207.081 551.013C206.392 553.63 205.591 556.219 204.678 558.78C196.262 582.46 179.546 602.361 157.569 614.867C135.593 627.372 109.815 631.65 84.9234 626.922C60.032 622.195 37.6797 608.776 21.9313 589.107C6.18274 569.437 -1.91614 544.822 -0.892944 519.738C-15.26 525.969 -30.8457 528.959 -46.5225 528.492C-62.1993 528.025 -77.5753 524.112 -91.5382 517.037C-105.501 509.962 -117.702 499.901 -127.258 487.583C-136.814 475.264 -143.487 460.996 -146.793 445.81C-159.174 454.518 -173.484 460.158 -188.52 462.258C-203.557 464.357 -218.882 462.855 -233.212 457.877C-251.968 451.418 -268.193 439.27 -279.583 423.158C-298.646 428.738 -318.999 428.234 -337.757 421.717C-352.117 416.775 -365.065 408.483 -375.507 397.541C-389.57 409.439 -406.537 417.476 -424.715 420.85C-442.893 424.224 -461.647 422.817 -479.104 416.769C-505.599 407.608 -527.334 388.397 -539.529 363.362C-551.723 338.327 -553.378 309.52 -544.129 283.276C-536.12 260.522 -520.444 241.195 -499.738 228.544C-479.032 215.894 -454.559 210.693 -430.436 213.816Z" fill="rgba(255,255,255,0.630)"/>
<path d="M1160.83 431.508C1151.31 413.241 1136.06 398.53 1117.37 389.591C1098.68 380.652 1077.57 377.968 1057.21 381.945C1051.83 382.997 1046.56 384.499 1041.44 386.433C1030.87 372.238 1016.32 361.424 999.611 355.328C982.898 349.232 964.748 348.121 947.404 352.133C930.06 356.144 914.284 365.102 902.025 377.9C889.766 390.697 881.562 406.773 878.427 424.139C873.196 424.203 867.983 424.741 862.851 425.746C851.401 427.973 840.537 432.514 830.939 439.087C816.15 427.17 797.763 420.492 778.702 420.114C759.641 419.735 741 425.679 725.74 436.999C714.88 429.337 702.36 424.298 689.181 422.288C676.003 420.277 662.532 421.35 649.848 425.42C637.163 429.491 625.616 436.446 616.131 445.729C606.647 455.012 599.488 466.365 595.227 478.88C591.469 479.158 587.732 479.66 584.035 480.383C565.45 484.025 548.388 493.085 535.039 506.401C521.69 519.717 512.664 536.681 509.119 555.114C505.573 573.548 507.671 592.611 515.142 609.855C522.613 627.1 535.117 641.739 551.048 651.894C551.343 654.295 551.723 656.696 552.207 659.118C556.638 681.279 568.966 701.123 586.942 715.028C604.919 728.932 627.344 735.969 650.124 734.855C672.904 733.741 694.52 724.55 711.025 708.959C727.531 693.368 737.826 672.417 740.031 649.932C752.011 657.266 765.487 661.87 779.484 663.412C793.481 664.954 807.649 663.395 820.963 658.847C834.277 654.299 846.404 646.877 856.466 637.117C866.528 627.357 874.274 615.503 879.144 602.414C887.318 610.055 896.932 616.024 907.438 619.979C917.944 623.935 929.134 625.799 940.368 625.466C951.602 625.132 962.659 622.607 972.907 618.035C983.154 613.464 992.391 606.935 1000.09 598.823C1014.42 605.27 1030.27 607.671 1045.89 605.758C1061.51 603.846 1076.3 597.696 1088.61 587.987C1099.1 599.743 1112.38 608.718 1127.26 614.095C1142.14 619.473 1158.13 621.083 1173.8 618.779C1189.46 616.476 1204.3 610.332 1216.96 600.905C1229.61 591.479 1239.69 579.068 1246.28 564.802C1252.86 550.537 1255.74 534.867 1254.66 519.218C1253.57 503.569 1248.56 488.436 1240.07 475.194C1231.58 461.953 1219.88 451.023 1206.04 443.397C1192.21 435.771 1176.66 431.692 1160.83 431.529V431.508Z" fill="rgba(255,255,255,0.630)"/>
<path d="M1608.92 290.751C1588.99 273.768 1563.45 264.649 1537.17 265.134C1510.89 265.619 1485.71 275.675 1466.43 293.381C1449.53 283.058 1429.94 277.868 1410.09 278.45C1390.25 279.033 1371 285.363 1354.75 296.659C1338.49 307.956 1325.93 323.722 1318.62 342.011C1311.31 360.3 1309.57 380.309 1313.62 399.566C1308.24 401.796 1303.08 404.508 1298.19 407.666C1287.29 414.691 1277.97 423.858 1270.79 434.599C1250.49 428.36 1228.66 429.024 1208.78 436.484C1188.9 443.944 1172.11 457.772 1161.08 475.77C1146.63 472.321 1131.56 472.272 1117.08 475.625C1102.6 478.978 1089.12 485.64 1077.71 495.079C1066.3 504.518 1057.27 516.472 1051.36 529.984C1045.45 543.496 1042.81 558.19 1043.66 572.893C1039.89 574.766 1036.24 576.857 1032.72 579.156C1015.02 590.585 1001.18 606.992 992.962 626.271C984.747 645.549 982.536 666.82 986.614 687.352C990.692 707.884 1000.87 726.74 1015.85 741.5C1030.82 756.26 1049.91 766.25 1070.66 770.188C1071.96 772.547 1073.38 774.865 1074.87 777.161C1088.77 798.264 1109.86 813.714 1134.29 820.691C1158.73 827.668 1184.89 825.707 1207.99 815.165C1231.09 804.624 1249.59 786.205 1260.12 763.271C1270.65 740.338 1272.5 714.419 1265.33 690.247C1280.8 692.896 1296.68 692.105 1311.8 687.932C1326.93 683.759 1340.93 676.308 1352.8 666.118C1364.66 655.928 1374.09 643.254 1380.4 629.012C1386.71 614.77 1389.75 599.317 1389.29 583.77C1400.96 588.308 1413.41 590.521 1425.94 590.282C1438.47 590.044 1450.84 587.358 1462.32 582.38C1473.8 577.401 1484.18 570.227 1492.85 561.27C1501.53 552.312 1508.34 541.746 1512.89 530.177C1530.42 530.932 1547.83 526.88 1563.19 518.466C1578.55 510.053 1591.26 497.605 1599.94 482.492C1615.73 490.331 1633.24 494.138 1650.89 493.568C1668.54 492.999 1685.76 488.07 1701 479.23C1716.23 470.39 1729 457.919 1738.13 442.95C1747.27 427.981 1752.48 410.989 1753.3 393.517C1754.12 376.045 1750.52 358.648 1742.82 342.905C1735.13 327.163 1723.58 313.574 1709.24 303.375C1694.89 293.175 1678.2 286.687 1660.68 284.501C1643.16 282.314 1625.37 284.499 1608.92 290.855V290.751Z" fill="rgba(255,255,255,0.630)"/>
<path d="M238.277 417.542C247.656 399.195 262.801 384.365 281.429 375.286C300.057 366.207 321.16 363.371 341.558 367.205C346.964 368.178 352.275 369.617 357.429 371.506C367.892 357.229 382.35 346.302 399.016 340.077C415.682 333.851 433.824 332.601 451.2 336.479C468.575 340.357 484.422 349.195 496.781 361.899C509.141 374.603 517.47 390.616 520.739 407.959C525.974 407.988 531.195 408.491 536.337 409.462C547.762 411.635 558.611 416.12 568.206 422.636C582.895 410.595 601.228 403.767 620.287 403.237C639.346 402.708 658.036 408.507 673.384 419.713C684.185 411.952 696.672 406.805 709.843 404.687C723.014 402.568 736.504 403.535 749.229 407.511C761.955 411.488 773.563 418.362 783.122 427.584C792.682 436.805 799.927 448.117 804.277 460.612C808.047 460.861 811.799 461.335 815.511 462.032C834.107 465.547 851.219 474.482 864.655 487.693C878.09 500.903 887.236 517.788 890.92 536.181C894.605 554.574 892.66 573.637 885.334 590.928C878.009 608.219 865.637 622.949 849.805 633.23C849.531 635.631 849.172 638.032 848.709 640.433C844.464 662.64 832.295 682.594 814.425 696.649C796.554 710.703 774.175 717.92 751.376 716.98C728.577 716.04 706.881 707.007 690.251 691.53C673.621 676.054 663.167 655.167 660.801 632.687C648.875 640.107 635.433 644.809 621.448 646.453C607.462 648.098 593.283 646.644 579.934 642.197C566.586 637.75 554.402 630.42 544.263 620.738C534.124 611.056 526.283 599.264 521.308 586.213C513.197 593.92 503.629 599.966 493.155 604.004C482.68 608.042 471.503 609.993 460.266 609.745C449.028 609.497 437.951 607.054 427.668 602.558C417.386 598.061 408.1 591.599 400.343 583.541C386.07 590.071 370.255 592.577 354.637 590.783C339.019 588.989 324.203 582.965 311.817 573.373C301.425 585.21 288.212 594.288 273.378 599.78C258.543 605.273 242.559 607.006 226.876 604.824C211.193 602.641 196.31 596.611 183.578 587.282C170.847 577.953 160.67 565.621 153.974 551.405C147.278 537.19 144.274 521.543 145.236 505.885C146.198 490.228 151.094 475.056 159.481 461.75C167.867 448.444 179.477 437.424 193.257 429.692C207.036 421.961 222.548 417.762 238.382 417.479L238.277 417.542Z" fill="rgba(255,255,255,0.630)"/>
<path opacity="0.3" d="M193.423 23.2858C190.028 23.2866 186.683 24.0882 183.664 25.6241C183.798 24.6484 183.869 23.6651 183.874 22.6803C183.964 19.854 183.48 17.0386 182.45 14.4013C181.42 11.764 179.865 9.35865 177.879 7.32794C175.892 5.29723 173.514 3.68262 170.885 2.57998C168.256 1.47735 165.43 0.90918 162.575 0.90918C159.721 0.90918 156.895 1.47735 154.266 2.57998C151.637 3.68262 149.259 5.29723 147.272 7.32794C145.285 9.35865 143.731 11.764 142.701 14.4013C141.671 17.0386 141.187 19.854 141.276 22.6803V23.1188C137.492 19.133 132.572 16.3843 127.17 15.2391C121.769 14.0939 116.144 14.6066 111.044 16.7089C105.944 18.8112 101.613 22.4032 98.6268 27.006C95.6407 31.6089 94.1419 37.004 94.3303 42.4721C94.5186 47.9401 96.3851 53.2215 99.681 57.612C102.977 62.0026 107.546 65.2938 112.778 67.0469C118.01 68.8001 123.658 68.9319 128.968 67.4247C134.278 65.9175 138.998 62.843 142.499 58.611C144.774 60.8652 147.49 62.6346 150.481 63.8102C153.471 64.9858 156.674 65.5428 159.89 65.447C163.106 65.3512 166.268 64.6046 169.183 63.253C172.097 61.9015 174.701 59.9736 176.834 57.588C179.092 60.361 182.022 62.5223 185.351 63.8702C188.68 65.2181 192.3 65.7087 195.872 65.2961C199.444 64.8836 202.852 63.5813 205.779 61.5109C208.706 59.4405 211.055 56.6695 212.608 53.4564C214.161 50.2433 214.867 46.6928 214.659 43.1365C214.452 39.5801 213.339 36.1337 211.423 33.1189C209.507 30.104 206.851 27.6191 203.704 25.896C200.556 24.1729 197.019 23.2677 193.423 23.2649V23.2858Z" fill="#F1F1F1"/>
<path opacity="0.3" d="M183.601 195.463C183.253 193.97 183.076 192.443 183.074 190.912C183.074 178.719 194.329 168.823 208.219 168.823C212.328 168.751 216.396 169.644 220.089 171.43C223.782 173.215 226.995 175.842 229.466 179.095C231.974 176.502 234.993 174.447 238.336 173.057C241.679 171.667 245.274 170.972 248.899 171.015C262.811 171.015 274.066 180.911 274.066 193.125C274.059 196.01 273.419 198.859 272.19 201.476H272.359C288.715 201.476 301.973 213.126 301.973 227.489C301.973 241.853 288.715 253.503 272.359 253.503C265.645 253.553 259.086 251.5 253.621 247.636C247.703 251.513 240.754 253.555 233.66 253.503C225.261 253.585 217.108 250.698 210.664 245.361C204.221 250.698 196.068 253.585 187.669 253.503C169.352 253.503 154.492 240.475 154.492 224.379C154.492 209.493 167.202 197.133 183.601 195.463Z" fill="#F1F1F1"/>
</svg>
