<svg width="2304" height="824" viewBox="0 0 2304 824" fill="none" xmlns="http://www.w3.org/2000/svg">
<path fill-rule="evenodd" clip-rule="evenodd" d="M174.146 173.437C152.128 180.392 132.987 194.244 119.605 212.907C95.4823 209.784 71.0094 214.985 50.3033 227.635C29.5971 240.286 13.921 259.614 5.91192 282.368C-3.3369 308.611 -1.68206 337.418 10.5124 362.453C22.7069 387.488 44.4422 406.699 70.9367 415.86C88.3942 421.908 107.148 423.316 125.326 419.942C143.504 416.568 160.471 408.53 174.534 396.632C184.976 407.574 197.924 415.866 212.284 420.808C231.042 427.325 251.395 427.829 270.458 422.249C281.848 438.361 298.073 450.509 316.829 456.968C331.159 461.946 346.484 463.449 361.521 461.349C376.557 459.249 390.867 453.609 403.248 444.901C406.554 460.087 413.227 474.355 422.783 486.674C432.339 498.992 444.54 509.053 458.503 516.128C472.466 523.203 487.842 527.116 503.519 527.583C519.195 528.05 534.781 525.06 549.148 518.829C548.125 543.913 556.224 568.528 571.972 588.198C587.721 607.868 610.073 621.286 634.964 626.013C659.856 630.741 685.634 626.463 707.61 613.958C719.059 607.443 729.081 598.92 737.245 588.902C749.14 596.796 762.7 601.936 776.917 603.915C792.6 606.097 808.584 604.364 823.419 598.871C838.253 593.379 851.466 584.301 861.858 572.464C874.244 582.056 889.06 588.08 904.678 589.874C920.296 591.668 936.111 589.162 950.384 582.632C958.141 590.69 967.427 597.152 977.709 601.649C987.992 606.145 999.069 608.588 1010.31 608.836C1021.54 609.084 1032.72 607.133 1043.2 603.095C1049.2 600.78 1054.91 597.805 1060.21 594.236C1061.45 599.244 1063.11 604.165 1065.18 608.947C1072.65 626.191 1085.16 640.83 1101.09 650.985C1101.38 653.386 1101.76 655.787 1102.25 658.209C1106.68 680.37 1119.01 700.214 1136.98 714.119C1154.96 728.023 1177.38 735.061 1200.16 733.946C1222.94 732.832 1244.56 723.641 1261.07 708.05C1261.7 707.456 1262.32 706.854 1262.93 706.244C1274.82 712.125 1287.93 715.515 1301.42 716.071C1324.22 717.011 1346.59 709.794 1364.47 695.74C1381.23 682.558 1392.97 664.186 1397.87 643.633C1400.89 641.337 1403.77 638.859 1406.51 636.208C1416.16 626.846 1423.68 615.557 1428.58 603.099C1428.86 602.643 1429.14 602.184 1429.42 601.722C1437.54 609.259 1447.07 615.152 1457.48 619.07C1467.98 623.026 1479.17 624.89 1490.41 624.557C1501.64 624.223 1512.7 621.698 1522.95 617.126C1533.2 612.555 1542.43 606.026 1550.13 597.914C1552.6 599.024 1555.11 600.015 1557.66 600.884C1551.71 608.306 1546.76 616.533 1543 625.362C1534.79 644.64 1532.58 665.911 1536.66 686.443C1540.73 706.975 1550.91 725.831 1565.89 740.591C1580.86 755.351 1599.95 765.341 1620.7 769.279C1622.01 771.638 1623.42 773.956 1624.91 776.252C1638.81 797.355 1659.9 812.805 1684.34 819.782C1708.78 826.759 1734.93 824.798 1758.03 814.256C1781.13 803.715 1799.64 785.296 1810.16 762.362C1820.69 739.429 1822.54 713.51 1815.37 689.338C1830.85 691.987 1846.72 691.196 1861.85 687.023C1876.97 682.85 1890.97 675.399 1902.84 665.209C1914.7 655.019 1924.13 642.345 1930.44 628.103C1936.75 613.861 1939.79 598.408 1939.33 582.861C1951 587.399 1963.45 589.612 1975.98 589.374C1988.52 589.135 2000.88 586.449 2012.36 581.471C2023.84 576.492 2034.22 569.318 2042.9 560.361C2051.57 551.403 2058.38 540.837 2062.93 529.268C2080.46 530.023 2097.87 525.971 2113.23 517.557C2128.59 509.144 2141.31 496.696 2149.98 481.583C2165.77 489.422 2183.28 493.229 2200.93 492.659C2218.58 492.09 2235.8 487.161 2251.04 478.321C2266.28 469.481 2279.04 457.01 2288.18 442.041C2297.31 427.072 2302.52 410.08 2303.34 392.608C2304.16 375.136 2300.56 357.739 2292.86 341.997C2285.17 326.254 2273.62 312.666 2259.28 302.466C2244.93 292.266 2228.24 285.778 2210.72 283.592C2193.2 281.405 2175.41 283.59 2158.96 289.946V289.842C2139.03 272.859 2113.49 263.74 2087.21 264.225C2060.93 264.71 2035.75 274.766 2016.47 292.472C1999.57 282.15 1979.98 276.959 1960.14 277.541C1940.29 278.124 1921.04 284.454 1904.79 295.75C1888.53 307.047 1875.97 322.813 1868.66 341.102C1861.35 359.391 1859.62 379.4 1863.66 398.657C1858.28 400.887 1853.12 403.599 1848.23 406.757C1837.33 413.782 1828.01 422.949 1820.83 433.69C1800.53 427.451 1778.7 428.115 1758.82 435.575C1755.8 436.708 1752.86 437.988 1749.99 439.408C1737.75 433.766 1724.42 430.759 1710.87 430.62V430.599C1701.35 412.332 1686.1 397.621 1667.41 388.682C1648.72 379.743 1627.61 377.059 1607.25 381.036C1601.88 382.088 1596.6 383.59 1591.48 385.524C1580.91 371.329 1566.37 360.515 1549.65 354.419C1532.94 348.323 1514.79 347.212 1497.44 351.224C1480.1 355.235 1464.32 364.193 1452.07 376.991C1439.81 389.788 1431.6 405.864 1428.47 423.23C1423.24 423.294 1418.02 423.832 1412.89 424.837C1401.44 427.064 1390.58 431.605 1380.98 438.178C1366.19 426.261 1347.8 419.583 1328.74 419.205C1327.26 419.175 1325.79 419.184 1324.32 419.231C1316.75 413.696 1308.29 409.421 1299.27 406.603C1286.54 402.626 1273.06 401.659 1259.88 403.778C1246.71 405.896 1234.23 411.043 1223.43 418.804C1208.08 407.598 1189.39 401.799 1170.33 402.329C1151.27 402.858 1132.94 409.686 1118.25 421.727C1108.65 415.211 1097.8 410.726 1086.38 408.553C1081.24 407.582 1076.01 407.079 1070.78 407.05C1067.51 389.707 1059.18 373.694 1046.82 360.99C1034.46 348.286 1018.62 339.448 1001.24 335.57C983.865 331.692 965.723 332.942 949.057 339.168C932.391 345.393 917.933 356.32 907.47 370.597C902.316 368.708 897.005 367.269 891.599 366.296C871.201 362.462 850.098 365.298 831.47 374.377C819.915 380.009 809.701 387.853 801.371 397.376C800.207 395.619 798.986 393.893 797.712 392.201C785.097 375.457 767.718 362.83 747.806 355.941C743.833 354.582 739.787 353.446 735.686 352.538C732.956 338.085 726.849 324.466 717.855 312.77C708.861 301.073 697.229 291.623 683.888 285.175C670.547 278.727 655.869 275.461 641.026 275.637C626.183 275.813 611.588 279.426 598.407 286.188C583.364 271.354 563.746 261.926 542.672 259.403C521.599 256.88 500.278 261.406 482.1 272.263C472.543 263.545 461.279 256.865 449.008 252.638C443.526 250.744 437.882 249.347 432.146 248.462C431.399 228.239 424.503 208.711 412.363 192.436C400.223 176.16 383.403 163.895 364.107 157.247C345.941 150.964 326.347 149.926 307.608 154.255C288.87 158.583 271.761 168.1 258.275 181.695C252.966 178.785 247.417 176.327 241.687 174.346C219.868 166.801 196.165 166.482 174.146 173.437Z" fill="rgba(255,255,255,0.630)"/>
<path opacity="0.3" d="M743.464 22.3766C740.069 22.3774 736.724 23.179 733.705 24.7149C733.839 23.7393 733.91 22.7559 733.915 21.7712C734.005 18.9448 733.521 16.1294 732.491 13.4922C731.461 10.8549 729.906 8.44947 727.92 6.41876C725.933 4.38806 723.555 2.77344 720.926 1.6708C718.297 0.568166 715.471 0 712.616 0C709.762 0 706.936 0.568166 704.307 1.6708C701.678 2.77344 699.3 4.38806 697.313 6.41876C695.326 8.44947 693.772 10.8549 692.742 13.4922C691.712 16.1294 691.228 18.9448 691.317 21.7712V22.2096C687.533 18.2238 682.613 15.4751 677.211 14.3299C671.81 13.1847 666.185 13.6974 661.085 15.7997C655.985 17.902 651.654 21.494 648.668 26.0969C645.682 30.6997 644.183 36.0948 644.371 41.5629C644.56 47.031 646.426 52.3123 649.722 56.7029C653.018 61.0934 657.587 64.3846 662.819 66.1377C668.051 67.8909 673.699 68.0227 679.009 66.5155C684.319 65.0083 689.039 61.9338 692.54 57.7018C694.815 59.956 697.531 61.7254 700.522 62.901C703.513 64.0766 706.715 64.6337 709.931 64.5378C713.147 64.442 716.309 63.6954 719.224 62.3438C722.138 60.9923 724.742 59.0644 726.875 56.6788C729.133 59.4519 732.063 61.6131 735.392 62.961C738.721 64.3089 742.341 64.7995 745.913 64.3869C749.485 63.9744 752.893 62.6721 755.82 60.6017C758.747 58.5313 761.096 55.7603 762.649 52.5472C764.202 49.3341 764.908 45.7837 764.7 42.2273C764.493 38.6709 763.38 35.2245 761.464 32.2097C759.548 29.1949 756.892 26.7099 753.745 24.9868C750.597 23.2637 747.06 22.3585 743.464 22.3557V22.3766Z" fill="#F1F1F1"/>
<path opacity="0.3" d="M733.642 194.554C733.294 193.061 733.117 191.534 733.115 190.002C733.115 177.81 744.37 167.914 758.26 167.914C762.369 167.842 766.437 168.735 770.13 170.52C773.823 172.306 777.036 174.933 779.507 178.186C782.015 175.593 785.034 173.537 788.377 172.148C791.72 170.758 795.315 170.063 798.94 170.106C812.852 170.106 824.107 180.002 824.107 192.215C824.1 195.101 823.46 197.95 822.231 200.567H822.4C838.756 200.567 852.014 212.216 852.014 226.58C852.014 240.944 838.756 252.594 822.4 252.594C815.686 252.644 809.127 250.59 803.662 246.727C797.744 250.604 790.795 252.646 783.701 252.594C775.302 252.676 767.149 249.789 760.705 244.452C754.262 249.789 746.109 252.676 737.71 252.594C719.393 252.594 704.533 239.566 704.533 223.469C704.533 208.584 717.243 196.224 733.642 194.554Z" fill="#F1F1F1"/>
</svg>
