<svg width="234" height="309" viewBox="0 0 234 309" fill="none" xmlns="http://www.w3.org/2000/svg">
<path d="M91.7461 291.69C94.859 272.729 104.304 256.988 112.599 257.271C117.251 257.412 121.796 262.577 121.796 262.577C121.796 262.577 109.415 244.059 112.634 225.823C112.829 224.709 115.429 210.913 127.863 203.821C137.626 198.232 153.421 196.746 163.838 207.252C175.353 218.819 169.516 237.762 168.384 241.476C166.855 246.111 164.815 250.56 162.3 254.742C162.3 254.742 170.029 229.98 182.675 228.53C189.75 227.751 198.328 234.26 199.796 241.512C201.954 252.23 187.875 261.339 190.952 266.114C193.747 270.483 206.199 263.851 211.363 269.829C212.702 271.469 213.445 273.515 213.471 275.632C213.497 277.749 212.803 279.812 211.505 281.484C208.162 285.889 201.052 285.871 201.052 285.871C201.052 287.18 208.127 287.392 205.544 291.655L91.7461 291.69Z" fill="url(#paint0_linear_43_15271)"/>
<path d="M155.754 274.068C158.818 273.4 161.113 271.993 160.88 270.924C160.647 269.855 157.974 269.529 154.911 270.197C151.847 270.864 149.552 272.272 149.785 273.341C150.018 274.41 152.69 274.735 155.754 274.068Z" fill="#364A62"/>
<path d="M158.304 278.179C159.997 275.545 160.625 272.931 159.706 272.34C158.787 271.749 156.669 273.406 154.976 276.04C153.283 278.673 152.655 281.288 153.574 281.878C154.493 282.469 156.611 280.813 158.304 278.179Z" fill="#364A62"/>
<path d="M163.288 282.049C164.357 281.816 164.683 279.144 164.015 276.08C163.348 273.016 161.94 270.721 160.871 270.954C159.802 271.187 159.477 273.86 160.144 276.923C160.812 279.987 162.219 282.282 163.288 282.049Z" fill="#364A62"/>
<path d="M170.433 277.062C171.025 276.142 169.365 274.022 166.727 272.327C164.088 270.633 161.47 270.005 160.879 270.926C160.288 271.847 161.947 273.966 164.586 275.661C167.224 277.355 169.842 277.983 170.433 277.062Z" fill="#364A62"/>
<path d="M160.449 272.345C161.597 271.991 161.793 269.32 160.887 266.38C159.981 263.439 158.315 261.342 157.167 261.696C156.019 262.05 155.823 264.721 156.729 267.661C157.635 270.602 159.301 272.699 160.449 272.345Z" fill="#F8A977"/>
<path d="M165.76 269.532C167.786 267.217 168.696 264.698 167.792 263.907C166.888 263.115 164.512 264.351 162.486 266.667C160.459 268.982 159.549 271.501 160.454 272.292C161.358 273.083 163.733 271.848 165.76 269.532Z" fill="#F8A977"/>
<path d="M163.978 267.169C164.593 264.153 164.138 261.514 162.96 261.273C161.783 261.033 160.329 263.283 159.714 266.298C159.098 269.314 159.554 271.953 160.732 272.193C161.909 272.434 163.362 270.184 163.978 267.169Z" fill="#F8A977"/>
<path d="M132.383 239.153C133.74 237.04 134.24 234.943 133.5 234.468C132.76 233.993 131.061 235.32 129.704 237.432C128.348 239.545 127.848 241.642 128.587 242.117C129.327 242.592 131.027 241.265 132.383 239.153Z" fill="#364A62"/>
<path d="M135.43 243.343C136.289 243.156 136.552 241.016 136.018 238.563C135.483 236.11 134.354 234.273 133.495 234.46C132.636 234.648 132.373 236.788 132.907 239.241C133.441 241.694 134.571 243.53 135.43 243.343Z" fill="#364A62"/>
<path d="M140.031 240.765C140.506 240.027 139.181 238.329 137.073 236.974C134.964 235.618 132.87 235.118 132.395 235.856C131.92 236.595 133.245 238.292 135.353 239.648C137.462 241.004 139.557 241.504 140.031 240.765Z" fill="#364A62"/>
<path d="M138.256 235.05C140.709 234.515 142.545 233.386 142.358 232.527C142.171 231.668 140.031 231.405 137.578 231.939C135.125 232.474 133.288 233.603 133.476 234.462C133.663 235.321 135.803 235.584 138.256 235.05Z" fill="#364A62"/>
<path d="M134.042 235.525C134.49 234.679 133.088 233.06 130.912 231.91C128.736 230.759 126.609 230.512 126.162 231.358C125.714 232.205 127.116 233.823 129.292 234.974C131.468 236.125 133.595 236.372 134.042 235.525Z" fill="#F8A977"/>
<path d="M134.017 235.473C134.972 235.41 135.614 233.367 135.45 230.911C135.287 228.455 134.38 226.515 133.425 226.579C132.47 226.642 131.828 228.685 131.991 231.141C132.155 233.597 133.062 235.537 134.017 235.473Z" fill="#F8A977"/>
<path d="M128.695 235.198C129.49 234.672 129.036 232.589 127.682 230.546C126.328 228.503 124.587 227.273 123.792 227.8C122.998 228.326 123.451 230.409 124.805 232.452C126.159 234.495 127.901 235.725 128.695 235.198Z" fill="#F8A977"/>
<path d="M116.299 273.237C116.346 272.359 114.352 271.54 111.845 271.407C109.338 271.273 107.268 271.877 107.221 272.755C107.175 273.633 109.169 274.453 111.676 274.586C114.183 274.719 116.253 274.115 116.299 273.237Z" fill="#364A62"/>
<path d="M113.987 277.488C115.854 275.809 116.891 273.919 116.303 273.265C115.715 272.611 113.725 273.442 111.859 275.12C109.992 276.799 108.955 278.69 109.543 279.343C110.131 279.997 112.12 279.166 113.987 277.488Z" fill="#364A62"/>
<path d="M117.655 277.868C117.788 275.361 117.184 273.291 116.306 273.244C115.428 273.198 114.609 275.192 114.475 277.699C114.342 280.206 114.946 282.276 115.824 282.323C116.702 282.369 117.521 280.375 117.655 277.868Z" fill="#364A62"/>
<path d="M122.375 280.009C123.029 279.421 122.198 277.431 120.52 275.565C118.841 273.698 116.951 272.661 116.297 273.249C115.643 273.837 116.474 275.826 118.153 277.693C119.831 279.56 121.722 280.597 122.375 280.009Z" fill="#364A62"/>
<path d="M115.647 274.276C116.604 274.246 117.317 272.227 117.24 269.766C117.162 267.306 116.324 265.336 115.367 265.366C114.41 265.396 113.697 267.415 113.775 269.875C113.852 272.336 114.69 274.306 115.647 274.276Z" fill="#F8A977"/>
<path d="M120.343 273.189C122.396 271.831 123.632 270.083 123.104 269.284C122.576 268.486 120.484 268.939 118.431 270.297C116.377 271.655 115.141 273.403 115.669 274.202C116.197 275 118.29 274.547 120.343 273.189Z" fill="#F8A977"/>
<path d="M119.302 271.072C120.414 268.876 120.623 266.745 119.769 266.312C118.915 265.88 117.321 267.31 116.209 269.506C115.097 271.702 114.888 273.833 115.742 274.265C116.596 274.698 118.19 273.268 119.302 271.072Z" fill="#F8A977"/>
<path d="M183.786 248.18C185.05 246.576 185.619 244.918 185.059 244.477C184.499 244.036 183.021 244.978 181.758 246.582C180.495 248.186 179.925 249.844 180.485 250.285C181.045 250.726 182.523 249.784 183.786 248.18Z" fill="#364A62"/>
<path d="M185.913 251.813C186.621 251.728 187 250.017 186.759 247.989C186.517 245.962 185.748 244.387 185.04 244.471C184.332 244.555 183.953 246.267 184.194 248.294C184.435 250.322 185.205 251.897 185.913 251.813Z" fill="#364A62"/>
<path d="M190.871 249.051C191.312 248.491 190.369 247.013 188.766 245.75C187.162 244.487 185.504 243.917 185.063 244.477C184.621 245.037 185.564 246.516 187.168 247.779C188.772 249.042 190.43 249.612 190.871 249.051Z" fill="#364A62"/>
<path d="M188.855 245.323C190.882 245.082 192.457 244.312 192.373 243.604C192.289 242.896 190.577 242.517 188.55 242.758C186.522 242.999 184.947 243.769 185.031 244.477C185.116 245.185 186.827 245.564 188.855 245.323Z" fill="#364A62"/>
<path d="M187.667 239.559C188.096 238.903 187.081 237.478 185.399 236.376C183.717 235.275 182.005 234.914 181.575 235.571C181.145 236.227 182.16 237.652 183.843 238.753C185.525 239.855 187.237 240.216 187.667 239.559Z" fill="#F8A977"/>
<path d="M186.936 241.745C186.996 239.743 186.411 238.102 185.63 238.079C184.848 238.055 184.167 239.659 184.108 241.661C184.048 243.662 184.633 245.304 185.414 245.327C186.195 245.35 186.877 243.746 186.936 241.745Z" fill="#F8A977"/>
<path d="M185.411 245.415C186.102 245.049 185.9 243.318 184.961 241.549C184.022 239.78 182.702 238.644 182.011 239.01C181.321 239.376 181.523 241.107 182.462 242.876C183.401 244.645 184.721 245.782 185.411 245.415Z" fill="#F8A977"/>
<path d="M106.921 221.844C106.921 221.844 106.444 235.852 101.491 245.651C97.5295 253.469 87.3418 265.407 87.3418 265.407" stroke="#C2DB76" stroke-width="0.62" stroke-miterlimit="10" stroke-linecap="round"/>
<path d="M104.012 214.366L110.42 214.766L110.144 219.179C110.091 220.027 109.704 220.818 109.068 221.38C108.431 221.942 107.597 222.228 106.75 222.175C105.902 222.122 105.111 221.735 104.549 221.098C103.987 220.462 103.701 219.628 103.754 218.78L104.029 214.367L104.012 214.366Z" fill="#F9E873"/>
<path d="M109.44 215.475C109.624 213.07 108.842 211.048 107.693 210.96C106.544 210.871 105.462 212.75 105.278 215.156C105.093 217.562 105.875 219.583 107.024 219.671C108.174 219.76 109.255 217.881 109.44 215.475Z" fill="#F9E873"/>
<path d="M107.399 218.148C108.718 218.148 109.787 217.079 109.787 215.76C109.787 214.441 108.718 213.372 107.399 213.372C106.081 213.372 105.012 214.441 105.012 215.76C105.012 217.079 106.081 218.148 107.399 218.148Z" fill="white"/>
<path d="M107.051 220.256C108.03 219.791 108.033 217.747 107.057 215.691C106.081 213.635 104.495 212.345 103.516 212.81C102.536 213.275 102.534 215.319 103.51 217.375C104.486 219.431 106.072 220.721 107.051 220.256Z" fill="#F9E873"/>
<path d="M110.93 217.797C112.087 215.837 112.269 213.801 111.335 213.25C110.402 212.699 108.707 213.84 107.549 215.8C106.392 217.76 106.21 219.795 107.143 220.347C108.077 220.898 109.772 219.756 110.93 217.797Z" fill="#F9E873"/>
<path d="M96.0084 215.406C96.0084 215.406 94.5581 229.361 98.1485 239.744C101.014 248.039 109.468 261.233 109.468 261.233" stroke="#C2DB76" stroke-width="0.62" stroke-miterlimit="10" stroke-linecap="round"/>
<path d="M91.5446 218.555C90.6956 218.495 89.9049 218.101 89.3466 217.459C88.7883 216.816 88.5079 215.979 88.5674 215.129L88.8769 210.708L95.2973 211.157L94.9878 215.579C94.9582 216.001 94.8456 216.413 94.6563 216.791C94.4671 217.169 94.205 217.506 93.885 217.783C93.5651 218.059 93.1935 218.27 92.7919 218.402C92.3902 218.535 91.9664 218.587 91.5446 218.555Z" fill="#FFC851"/>
<path d="M98.5496 209.053C98.6932 206.645 97.8768 204.637 96.7261 204.568C95.5755 204.5 94.5264 206.397 94.3829 208.805C94.2394 211.213 95.0558 213.222 96.2064 213.29C97.357 213.359 98.4061 211.462 98.5496 209.053Z" fill="#FFC851"/>
<path d="M96.3447 211.71C97.6634 211.71 98.7325 210.641 98.7325 209.322C98.7325 208.003 97.6634 206.934 96.3447 206.934C95.026 206.934 93.957 208.003 93.957 209.322C93.957 210.641 95.026 211.71 96.3447 211.71Z" fill="white"/>
<path d="M99.9796 211.486C101.226 209.582 101.501 207.557 100.593 206.963C99.6861 206.369 97.9403 207.432 96.694 209.336C95.4477 211.241 95.173 213.266 96.0803 213.86C96.9876 214.453 98.7333 213.391 99.9796 211.486Z" fill="#FFC851"/>
<path d="M96.0549 213.754C97.0547 213.334 97.1511 211.292 96.2702 209.194C95.3893 207.095 93.8647 205.734 92.8649 206.154C91.8651 206.573 91.7688 208.615 92.6497 210.713C93.5306 212.812 95.0551 214.173 96.0549 213.754Z" fill="#FFC851"/>
<path d="M52.2147 233.836C52.2147 233.836 44.9454 245.828 43.7427 256.741C42.7876 265.46 44.7686 281.007 44.7686 281.007" stroke="#C2DB76" stroke-width="0.62" stroke-miterlimit="10" stroke-linecap="round"/>
<path d="M52.2142 234.235C51.4758 233.816 50.9342 233.12 50.7084 232.302C50.4827 231.483 50.5913 230.609 51.0104 229.87L53.1931 226.025L58.7767 229.194L56.594 233.04C56.3857 233.406 56.107 233.729 55.7738 233.987C55.4406 234.246 55.0596 234.437 54.6525 234.548C54.2455 234.659 53.8206 234.688 53.4021 234.635C52.9837 234.581 52.58 234.445 52.2142 234.235Z" fill="#F9E873"/>
<path d="M57.2319 229.194C58.3928 227.079 58.5147 224.914 57.5042 224.36C56.4938 223.805 54.7336 225.07 53.5727 227.185C52.4118 229.3 52.2898 231.465 53.3003 232.019C54.3108 232.574 56.071 231.309 57.2319 229.194Z" fill="#F9E873"/>
<path d="M55.1338 230.864C56.4525 230.864 57.5215 229.795 57.5215 228.477C57.5215 227.158 56.4525 226.089 55.1338 226.089C53.8151 226.089 52.7461 227.158 52.7461 228.477C52.7461 229.795 53.8151 230.864 55.1338 230.864Z" fill="white"/>
<path d="M57.4902 231.989C59.4318 230.801 60.5472 229.088 59.9815 228.163C59.4158 227.238 57.3831 227.451 55.4415 228.639C53.4998 229.826 52.3844 231.539 52.9501 232.464C53.5158 233.389 55.5485 233.176 57.4902 231.989Z" fill="#F9E873"/>
<path d="M60.6169 229.705C60.7307 227.429 59.944 225.54 58.8598 225.485C57.7755 225.431 56.8042 227.232 56.6904 229.508C56.5766 231.784 57.3634 233.673 58.4477 233.728C59.5319 233.782 60.5031 231.981 60.6169 229.705Z" fill="#F9E873"/>
<path d="M42.222 225.522C42.222 225.522 38.2778 238.982 39.9227 249.824C41.2492 258.508 47.1566 273.029 47.1566 273.029" stroke="#C2DB76" stroke-width="0.62" stroke-miterlimit="10" stroke-linecap="round"/>
<path d="M42.3248 225.883C41.5033 225.668 40.801 225.135 40.3721 224.403C39.9432 223.67 39.823 222.797 40.0378 221.975L41.1569 217.698L47.3511 219.318L46.2321 223.596C46.0172 224.417 45.4849 225.12 44.7521 225.548C44.0194 225.977 43.1462 226.098 42.3248 225.883Z" fill="#FFC851"/>
<path d="M45.8715 219.736C46.4486 217.393 46.0092 215.27 44.89 214.995C43.7708 214.719 42.3957 216.394 41.8185 218.737C41.2413 221.08 41.6808 223.203 42.8 223.478C43.9191 223.754 45.2943 222.078 45.8715 219.736Z" fill="#FFC851"/>
<path d="M43.6554 221.985C44.9741 221.985 46.0431 220.916 46.0431 219.598C46.0431 218.279 44.9741 217.21 43.6554 217.21C42.3367 217.21 41.2676 218.279 41.2676 219.598C41.2676 220.916 42.3367 221.985 43.6554 221.985Z" fill="white"/>
<path d="M46.838 222.404C48.4084 220.757 49.0453 218.815 48.2605 218.067C47.4757 217.318 45.5663 218.047 43.9959 219.695C42.4255 221.342 41.7885 223.284 42.5734 224.032C43.3582 224.781 45.2675 224.052 46.838 222.404Z" fill="#FFC851"/>
<path d="M42.5387 223.926C43.5979 223.694 44.0623 221.704 43.5759 219.481C43.0894 217.257 41.8365 215.643 40.7772 215.874C39.718 216.106 39.2537 218.096 39.7401 220.32C40.2265 222.543 41.4795 224.158 42.5387 223.926Z" fill="#FFC851"/>
<path d="M130.321 292.115C136.069 292.115 129.79 281.149 124.166 277.434C113.695 270.501 92.7005 284.774 92.0107 283.466C91.321 282.157 117.02 272.977 117.728 259.747C118.258 250.019 105.258 238.824 96.8924 240.751C88.1373 242.768 84.706 259.164 83.2026 258.633C81.6992 258.102 88.2788 245.792 83.5033 238.081C78.321 229.715 60.5102 227.752 55.6994 234.083C48.4477 243.546 69.849 271.456 67.8857 272.677C66.6653 273.437 60.8109 261.127 47.8993 255.131C46.5198 254.494 29.1865 246.747 19.8301 255.326C12.6491 261.923 12.0478 279.539 20.6437 292.115C20.6437 292.115 104.905 292.344 130.321 292.115Z" fill="url(#paint1_linear_43_15271)"/>
<path d="M74.7226 242.956C76.4014 241.614 77.1888 239.809 76.4815 238.924C75.7741 238.038 73.8396 238.408 72.1608 239.75C70.482 241.092 69.6946 242.897 70.4019 243.782C71.1093 244.667 73.0438 244.297 74.7226 242.956Z" fill="#6AA56E"/>
<path d="M34.7101 265.376C36.6963 264.556 37.9556 263.041 37.5229 261.994C37.0902 260.947 35.1293 260.763 33.1431 261.584C31.157 262.405 29.8977 263.919 30.3304 264.966C30.7631 266.013 32.724 266.197 34.7101 265.376Z" fill="#78B075"/>
<path d="M114.906 282.006C116.758 281.775 118.159 280.794 118.037 279.815C117.915 278.836 116.315 278.23 114.463 278.461C112.612 278.692 111.21 279.673 111.333 280.652C111.455 281.631 113.055 282.238 114.906 282.006Z" fill="#78B074"/>
<path d="M202.927 291.884C197.744 287.78 195.657 275.966 197.621 270.288C201.016 260.189 209.329 263.461 212.619 268.272C215.644 272.676 215.838 281.661 224.257 274.621C226.503 272.729 231.102 272.994 232.535 275.983C234.303 279.768 234.303 283.765 230.147 291.901L202.927 291.884Z" fill="url(#paint2_linear_43_15271)"/>
<path d="M27.0471 244.43C27.0471 244.43 20.5206 256.811 19.9723 267.812C19.5655 276.567 22.5015 291.973 22.5015 291.973" stroke="#C2DB76" stroke-width="0.62" stroke-miterlimit="10" stroke-linecap="round"/>
<path d="M26.8985 244.907C26.1356 244.535 25.552 243.874 25.276 243.071C25 242.268 25.0542 241.389 25.4268 240.626L27.3672 236.652L33.1364 239.47L31.1959 243.443C31.0108 243.822 30.7525 244.161 30.436 244.44C30.1195 244.719 29.7509 244.933 29.3516 245.069C28.9522 245.205 28.53 245.26 28.109 245.233C27.688 245.205 27.2766 245.094 26.8985 244.907Z" fill="#F9E873"/>
<path d="M31.7901 239.492C32.8182 237.309 32.8062 235.141 31.7635 234.65C30.7207 234.159 29.0419 235.53 28.0138 237.713C26.9858 239.896 26.9977 242.064 28.0405 242.555C29.0833 243.046 30.7621 241.675 31.7901 239.492Z" fill="#F9E873"/>
<path d="M29.6105 241.282C30.9292 241.282 31.9982 240.213 31.9982 238.895C31.9982 237.576 30.9292 236.507 29.6105 236.507C28.2918 236.507 27.2227 237.576 27.2227 238.895C27.2227 240.213 28.2918 241.282 29.6105 241.282Z" fill="white"/>
<path d="M32.2079 242.298C34.0725 240.993 35.08 239.215 34.4582 238.327C33.8365 237.439 31.8209 237.777 29.9563 239.082C28.0917 240.387 27.0841 242.165 27.7059 243.053C28.3277 243.942 30.3433 243.604 32.2079 242.298Z" fill="#F9E873"/>
<path d="M27.6753 242.943C28.7594 242.925 29.6073 241.065 29.5692 238.79C29.531 236.514 28.6213 234.684 27.5372 234.702C26.453 234.72 25.6051 236.58 25.6433 238.855C25.6814 241.131 26.5911 242.961 27.6753 242.943Z" fill="#F9E873"/>
<path d="M14.7719 244.571C14.7719 244.571 12.8439 258.473 16.063 268.962C18.6276 277.363 26.6752 290.858 26.6752 290.858" stroke="#C2DB76" stroke-width="0.62" stroke-miterlimit="10" stroke-linecap="round"/>
<path d="M14.8451 245.09C14.0011 244.997 13.2284 244.573 12.697 243.911C12.1657 243.249 11.9193 242.403 12.0119 241.559L12.494 237.163L18.8762 237.863L18.394 242.259C18.348 242.678 18.2196 243.084 18.0161 243.454C17.8126 243.823 17.538 244.149 17.2082 244.412C16.8784 244.675 16.4999 244.871 16.0943 244.987C15.6888 245.103 15.2642 245.138 14.8451 245.09Z" fill="#FFC851"/>
<path d="M17.5741 238.341C17.8033 235.939 17.0589 233.903 15.9114 233.793C14.764 233.684 13.648 235.542 13.4188 237.944C13.1897 240.346 13.9341 242.382 15.0816 242.491C16.229 242.601 17.345 240.742 17.5741 238.341Z" fill="#FFC851"/>
<path d="M15.3369 240.893C16.6556 240.893 17.7246 239.824 17.7246 238.505C17.7246 237.186 16.6556 236.117 15.3369 236.117C14.0182 236.117 12.9492 237.186 12.9492 238.505C12.9492 239.824 14.0182 240.893 15.3369 240.893Z" fill="white"/>
<path d="M18.8973 240.838C20.2106 238.979 20.5573 236.965 19.6717 236.34C18.7861 235.714 17.0036 236.714 15.6904 238.573C14.3771 240.432 14.0304 242.446 14.916 243.071C15.8016 243.697 17.5841 242.697 18.8973 240.838Z" fill="#FFC851"/>
<path d="M14.8707 242.97C15.8848 242.586 16.0539 240.549 15.2483 238.42C14.4426 236.292 12.9674 234.877 11.9533 235.261C10.9392 235.645 10.7703 237.682 11.5759 239.81C12.3815 241.939 13.8567 243.353 14.8707 242.97Z" fill="#FFC851"/>
<path d="M25.4901 293.281C40.5948 292.821 44.0968 295.598 47.6873 292.202C51.8968 288.24 52.2506 279.591 48.9785 277.239C43.4248 273.295 27.3119 287.108 26.4806 285.976C25.6493 284.844 43.3009 274.568 41.4968 266.202C40.4887 261.604 33.6084 257.783 29.452 259.428C22.2003 262.311 23.1201 281.891 22.6779 281.855C22.2358 281.82 26.2153 265.035 19.7064 260.419C15.4616 257.394 6.93646 259.676 5.38001 263.85C2.9392 270.376 17.5487 281.908 16.6466 282.828C16.0629 283.429 10.9338 277.38 5.43312 278.477C4.22926 278.659 3.09828 279.168 2.1629 279.947C1.22752 280.727 0.523454 281.748 0.127015 282.899C-0.704274 286.578 2.69157 290.486 6.03442 292.273C11.0222 294.873 15.4616 293.582 25.4901 293.281Z" fill="url(#paint3_linear_43_15271)"/>
<path opacity="0.2" d="M121.848 308.456C161.488 308.456 193.622 305.479 193.622 301.806C193.622 298.133 161.488 295.156 121.848 295.156C82.2084 295.156 50.0742 298.133 50.0742 301.806C50.0742 305.479 82.2084 308.456 121.848 308.456Z" fill="#333333"/>
<path d="M176.342 252.743C181.822 252.743 186.265 248.3 186.265 242.82C186.265 237.34 181.822 232.898 176.342 232.898C170.862 232.898 166.42 237.34 166.42 242.82C166.42 248.3 170.862 252.743 176.342 252.743Z" fill="url(#paint4_linear_43_15271)"/>
<path d="M121.725 166.377C118.515 163.506 114.433 161.797 110.135 161.524C105.837 161.251 101.571 162.431 98.0244 164.874C88.9426 171.238 80.7569 178.793 73.687 187.336C64.2245 198.444 57.6449 202.105 53.7891 203.255C52.2327 203.714 46.8205 207.358 48.8368 211.939C50.8531 216.52 59.6967 216.308 59.6967 216.308C59.6967 216.308 73.0326 218.536 96.2203 206.774C115.499 196.976 136.865 180.138 121.725 166.377Z" fill="url(#paint5_linear_43_15271)"/>
<path d="M49.3674 212.575C49.3674 212.575 42.6287 210.276 43.8845 207.163C43.8845 207.163 44.8042 205.395 51.26 209.268L56.7606 211.78L55.2572 215.122L49.3674 212.575Z" fill="url(#paint6_linear_43_15271)"/>
<path d="M44.2737 213.761C44.2737 213.761 43.9022 217.139 52.8872 216.449L55.4164 216.538V212.894L47.7226 211.886C47.7226 211.886 44.6274 211.533 44.2737 213.761Z" fill="url(#paint7_linear_43_15271)"/>
<path d="M61.2878 216.059C59.1021 217.74 57.2233 219.786 55.7342 222.107C53.3464 225.309 51.507 224.336 50.5165 223.275C50.2853 223.021 50.1572 222.69 50.1572 222.346C50.1572 222.003 50.2853 221.672 50.5165 221.418C52.4974 219.366 53.6648 214.767 54.16 212.433C54.231 212.073 54.1627 211.699 53.969 211.387C53.7754 211.075 53.4707 210.848 53.1164 210.752C50.6285 209.764 48.2562 208.507 46.0416 207.003C42.292 204.792 45.3165 203.978 47.6158 203.678C48.5206 203.572 49.4347 203.572 50.3396 203.678C51.7379 203.745 53.135 203.522 54.4429 203.023C55.923 202.505 57.5223 202.432 59.0436 202.812C60.5648 203.192 61.9414 204.01 63.0035 205.163C65.2674 207.64 66.3817 211.371 61.2878 216.059Z" fill="#3A3A3A"/>
<path d="M150.644 169.419C153.856 166.55 157.939 164.844 162.237 164.575C166.535 164.305 170.8 165.488 174.345 167.933C183.437 174.277 191.629 181.821 198.7 190.36C208.145 201.468 214.742 205.147 218.598 206.279C220.154 206.739 225.566 210.382 223.55 214.963C221.534 219.544 212.69 219.332 212.69 219.332C212.69 219.332 199.354 221.56 176.149 209.816C156.888 200.017 135.504 183.197 150.644 169.419Z" fill="url(#paint8_linear_43_15271)"/>
<path d="M223 215.636C223 215.636 229.757 213.337 228.483 210.241C228.483 210.241 227.581 208.473 221.108 212.328L215.625 214.84L217.128 218.183L223 215.636Z" fill="#171515"/>
<path d="M228.094 216.821C228.094 216.821 228.483 220.181 219.498 219.491L216.969 219.598V215.936L224.645 214.928C224.645 214.928 227.722 214.592 228.094 216.821Z" fill="#171515"/>
<path d="M211.097 219.172C213.274 220.856 215.152 222.895 216.65 225.204C219.038 228.405 220.878 227.432 221.956 226.371C222.191 226.119 222.322 225.787 222.322 225.443C222.322 225.098 222.191 224.766 221.956 224.514C219.993 222.462 218.826 217.881 218.419 215.529C218.344 215.173 218.408 214.802 218.599 214.492C218.79 214.183 219.093 213.958 219.445 213.866C221.926 212.863 224.297 211.607 226.52 210.117C230.252 207.888 227.227 207.075 224.928 206.774C224.028 206.677 223.121 206.677 222.222 206.774C220.824 206.85 219.427 206.633 218.118 206.137C216.638 205.611 215.035 205.531 213.51 205.909C211.985 206.286 210.604 207.104 209.54 208.26C207.099 210.7 206.003 214.415 211.097 219.172Z" fill="#313133"/>
<path d="M138.97 262.806C141.075 272.782 142.684 285.021 140.208 292.626C140.208 292.626 130.48 296.535 129.348 301.894C128.216 307.254 161.716 304.937 165.465 302.956C165.465 302.956 169.003 302.796 163.696 295.704L167.022 261.25C167.217 259.215 166.972 257.161 166.304 255.229C165.635 253.297 164.559 251.531 163.148 250.051C161.737 248.572 160.025 247.413 158.127 246.653C156.228 245.894 154.189 245.552 152.147 245.65C150.089 245.744 148.076 246.286 146.25 247.239C144.423 248.192 142.826 249.532 141.572 251.166C140.317 252.8 139.434 254.688 138.984 256.698C138.535 258.709 138.53 260.793 138.97 262.806Z" fill="url(#paint9_linear_43_15271)"/>
<path d="M95.7958 258.951L98.1305 289.338C98.1305 289.338 67.0191 301.241 105.754 301.719C127.173 302.037 123.246 298.977 120.345 292.15L125.51 260.101C125.856 257.961 125.733 255.77 125.149 253.682C124.565 251.594 123.534 249.658 122.127 248.008C120.721 246.358 118.973 245.033 117.004 244.125C115.035 243.217 112.892 242.748 110.724 242.75C108.654 242.75 106.606 243.18 104.711 244.011C102.815 244.842 101.112 246.057 99.7096 247.58C98.307 249.102 97.2351 250.898 96.5615 252.856C95.8879 254.813 95.6272 256.888 95.7958 258.951Z" fill="url(#paint10_linear_43_15271)"/>
<path d="M176.342 222.162C177.539 222.949 178.499 224.045 179.122 225.334C179.745 226.624 180.007 228.058 179.88 229.484C179.72 230.871 179.987 232.274 180.644 233.506C181.301 234.738 182.318 235.741 183.559 236.382L179.331 237.903C179.331 237.903 173.654 230.97 173.919 223.559L176.342 222.162Z" fill="#F9BEC8"/>
<path d="M179.244 212.346L174.221 216.148C173.408 216.793 172.852 217.706 172.651 218.724C172.45 219.741 172.618 220.797 173.124 221.702C173.629 222.609 174.439 223.308 175.411 223.674C176.382 224.04 177.452 224.049 178.43 223.701L184.302 221.419C184.723 221.256 185.103 221.005 185.418 220.682C185.733 220.36 185.975 219.973 186.128 219.549C186.28 219.125 186.34 218.672 186.303 218.223C186.265 217.774 186.132 217.338 185.912 216.944L183.895 213.407C183.684 213.007 183.388 212.657 183.029 212.381C182.669 212.105 182.254 211.911 181.813 211.81C181.371 211.709 180.913 211.705 180.47 211.797C180.026 211.89 179.608 212.077 179.244 212.346ZM183.4 216.821C183.497 216.952 183.564 217.103 183.596 217.263C183.628 217.423 183.625 217.588 183.586 217.747C183.547 217.906 183.474 218.054 183.372 218.181C183.269 218.308 183.14 218.411 182.993 218.483C181.225 219.367 177.846 220.818 177.846 220.818C177.503 220.935 177.129 220.928 176.79 220.799C176.451 220.67 176.168 220.426 175.989 220.11C175.706 219.597 178.996 216.573 180.694 215.158C180.812 215.052 180.951 214.972 181.102 214.924C181.253 214.876 181.412 214.861 181.569 214.879C181.727 214.897 181.878 214.949 182.014 215.031C182.15 215.112 182.267 215.222 182.357 215.352L183.4 216.821Z" fill="#F9BEC8"/>
<path d="M133.681 256.263C157.252 256.263 176.359 235.69 176.359 210.312C176.359 184.934 157.252 164.361 133.681 164.361C110.11 164.361 91.002 184.934 91.002 210.312C91.002 235.69 110.11 256.263 133.681 256.263Z" fill="url(#paint11_linear_43_15271)"/>
<path d="M80.7084 225.735C77.3301 250.355 98.5722 273.578 123.157 277.027C147.742 280.476 173.848 263.638 177.209 239.018C180.569 214.397 159.964 191.263 135.343 187.902C110.723 184.542 84.0689 201.132 80.7084 225.735Z" fill="url(#paint12_radial_43_15271)"/>
<path d="M162.033 223.559C166.694 221.956 171.269 220.114 175.741 218.041V221.349L163.837 229.962L162.033 223.559Z" fill="#F9BEC8"/>
<path d="M170.735 165.511C170.735 165.511 161.662 190.025 161.662 197.347C161.662 204.67 159.044 229.52 180.729 256.439L196.381 276.054C196.779 276.563 197.021 277.177 197.077 277.82C197.134 278.464 197.003 279.11 196.7 279.68C194.615 283.643 191.257 286.789 187.167 288.612C184.144 289.825 180.879 290.315 177.633 290.045C172.557 289.62 171.266 287.569 167.87 288.382C164.032 289.284 164.209 292.238 160.795 292.91C156.267 293.777 154.163 289.196 150.077 290.292C146.681 291.194 146.681 294.732 143.639 295.05C140.597 295.368 139.659 291.513 135.538 291C131.417 290.487 129.702 294.272 126.253 293.388C122.273 292.362 122.715 286.861 118.629 285.764C115.092 284.809 113.518 288.471 109.326 287.675C105.629 286.95 105.789 283.854 102.251 283.147C98.4309 282.369 97.1043 285.747 91.2853 286.242C88.4554 286.472 83.839 286.083 82.9547 283.854C82.1588 281.926 84.7234 280.034 86.4921 276.461C89.1274 271.067 87.9071 265.672 87.1996 261.445C86.7397 258.703 79.6472 238.841 82.8486 217.563C83.9628 210.241 91.303 197.63 96.8036 190.431L108.265 161.743L115.021 162.062L107.487 184.206C107.415 184.425 107.401 184.66 107.445 184.886C107.49 185.113 107.591 185.325 107.739 185.502C107.888 185.679 108.079 185.815 108.295 185.898C108.51 185.98 108.744 186.007 108.972 185.974C114.614 185.196 130.727 183.905 154.357 189.618C154.695 189.703 155.052 189.657 155.357 189.489C155.662 189.322 155.892 189.046 156.002 188.716L164.386 163.583L170.735 165.511Z" fill="url(#paint13_linear_43_15271)"/>
<path d="M164.492 225.665C158.073 227.706 151.447 229.023 144.735 229.591C138.012 230.237 131.243 230.237 124.519 229.591C121.141 229.361 117.834 228.672 114.508 228.141C111.199 227.483 107.928 226.645 104.71 225.629C98.2635 223.656 92.049 220.994 86.1738 217.688C92.2329 220.566 98.5219 222.932 104.975 224.763C108.159 225.736 111.466 226.337 114.721 227.062C117.975 227.787 121.3 228.194 124.643 228.389C131.288 229.084 137.982 229.197 144.647 228.725C151.34 228.298 157.981 227.274 164.492 225.665Z" fill="#F392AA"/>
<path d="M137.519 206.898L110.068 203.856L110.157 213.902C110.157 219.332 115.198 223.895 121.636 224.514C127.826 225.027 133.451 221.649 134.83 216.573L137.519 206.898Z" fill="#F9BEC8"/>
<path d="M137.572 206.715C137.617 206.248 131.522 205.275 123.958 204.542C116.394 203.808 110.225 203.592 110.18 204.058C110.134 204.525 116.23 205.498 123.794 206.232C131.358 206.965 137.527 207.182 137.572 206.715Z" fill="#F6AFC6"/>
<path d="M211.416 104.295C220.882 104.295 228.555 96.6222 228.555 87.1568C228.555 77.6913 220.882 70.0181 211.416 70.0181C201.951 70.0181 194.277 77.6913 194.277 87.1568C194.277 96.6222 201.951 104.295 211.416 104.295Z" fill="url(#paint14_linear_43_15271)"/>
<path d="M96.5743 64.1466C106.04 64.1466 113.713 56.4733 113.713 47.0079C113.713 37.5424 106.04 29.8691 96.5743 29.8691C87.1088 29.8691 79.4355 37.5424 79.4355 47.0079C79.4355 56.4733 87.1088 64.1466 96.5743 64.1466Z" fill="url(#paint15_linear_43_15271)"/>
<path d="M202.802 155.889C220.365 129.358 204.305 79.7284 170.063 59.2115C167.021 57.4428 135.485 39.1544 105.93 54.3653C73.9342 70.8319 63.0921 116.818 78.1791 145.312C100.712 187.867 180.251 189.918 202.802 155.889Z" fill="url(#paint16_radial_43_15271)"/>
<path d="M184.002 112.892C185.965 102.863 182.799 91.1193 174.38 84.2213C169.994 80.6839 161.132 75.8377 155.685 79.0921C152.307 81.1261 151.511 88.307 149.388 102.492C146.47 121.948 153.545 134.912 161.345 136.54C170.383 138.397 181.526 125.432 184.002 112.892Z" fill="url(#paint17_linear_43_15271)"/>
<path d="M99.7581 80.9317C101.648 76.9395 104.558 73.5172 108.195 71.0109C111.832 68.5045 116.066 67.003 120.47 66.6583C125.192 66.4638 133.47 67.7019 135.468 72.6012C136.689 75.6256 133.699 80.8079 127.969 91.2963C120.204 105.676 109.008 110.752 103.013 107.957C96.0616 104.685 95.1241 90.5004 99.7581 80.9317Z" fill="#414141"/>
<path d="M117.039 122.106L119.727 123.132C120.668 123.486 121.684 123.597 122.679 123.455C123.675 123.313 124.618 122.922 125.423 122.318L130.605 119.24C131.376 118.671 131.978 117.904 132.348 117.019C132.717 116.135 132.841 115.168 132.705 114.219C132.569 113.27 132.178 112.376 131.575 111.632C130.972 110.887 130.178 110.32 129.278 109.99L118.189 105.798C117.31 105.47 116.36 105.381 115.436 105.54C114.511 105.699 113.646 106.099 112.927 106.702C112.208 107.304 111.661 108.086 111.343 108.968C111.024 109.85 110.945 110.801 111.114 111.723L113.325 117.578C113.503 118.588 113.939 119.535 114.589 120.328C115.24 121.121 116.083 121.733 117.039 122.106Z" fill="url(#paint18_linear_43_15271)"/>
<path d="M153.35 31.5668C154.818 29.169 155.759 26.4858 156.109 23.696C156.474 21.0073 156.349 18.2746 155.738 15.6308L155.119 13.7206C154.888 13.113 154.617 12.5221 154.305 11.9519C153.81 10.7138 153.138 9.54643 152.696 8.27297C152.465 7.63114 152.193 7.00489 151.882 6.39815C151.634 5.74373 151.351 5.12469 151.122 4.43489C150.478 3.10563 149.957 1.72028 149.565 0.296139C149.549 0.237505 149.556 0.174788 149.586 0.121741C149.616 0.0686935 149.666 0.0296375 149.724 0.0131401C149.776 -0.00438005 149.832 -0.00438005 149.883 0.0131401C151.213 0.787782 152.453 1.70721 153.58 2.75463C154.635 3.8495 155.593 5.03299 156.445 6.29203C157.992 8.99804 158.894 12.0243 159.081 15.1355C159.406 18.1957 159.099 21.2901 158.179 24.2267C157.293 27.0962 155.748 29.7188 153.668 31.8851C153.649 31.9049 153.625 31.9206 153.599 31.9313C153.574 31.9421 153.546 31.9476 153.518 31.9476C153.49 31.9476 153.463 31.9421 153.437 31.9313C153.411 31.9206 153.387 31.9049 153.368 31.8851C153.342 31.8491 153.328 31.8057 153.328 31.7613C153.328 31.7169 153.342 31.6736 153.368 31.6375L153.35 31.5668Z" fill="url(#paint19_linear_43_15271)"/>
<path d="M179.88 68.3563C179.88 68.3563 169.409 54.7903 124.13 55.9754C124.13 55.9754 112.899 58.1686 113.147 48.9006C113.394 39.6326 142.224 45.3632 142.224 45.3632C142.224 45.3632 167.41 49.4666 179.88 68.3563Z" fill="#231F24"/>
<path d="M200.962 81.391C200.962 81.391 207.789 68.0019 193.215 49.0415C193.215 49.0415 181.648 35.5463 173.087 30.3109C173.087 30.3109 150.094 12.8715 129.17 14.5341C120.938 14.9926 113.185 18.5502 107.469 24.4919C103.224 29.1789 100.005 36.0238 104.126 44.6374C104.126 44.6374 107.875 53.2863 127.826 48.051C144.098 43.7707 162.97 54.9135 169.373 59.1761C170.716 60.0668 171.993 61.054 173.193 62.1299C178.065 66.4279 182.688 70.9985 187.042 75.8196C191.747 81.4794 198.008 86.5202 200.962 81.391Z" fill="url(#paint20_linear_43_15271)"/>
<path d="M138.544 133.975C138.544 133.975 132.796 143.385 119.602 140.006C109.166 137.318 107.521 125.008 107.521 125.008C111.939 127.808 116.693 130.036 121.671 131.64C127.169 133.156 132.842 133.941 138.544 133.975Z" fill="url(#paint21_linear_43_15271)"/>
<mask id="mask0_43_15271" style="mask-type:luminance" maskUnits="userSpaceOnUse" x="107" y="125" width="32" height="16">
<path d="M138.544 133.975C138.544 133.975 132.796 143.385 119.602 140.006C109.166 137.318 107.521 125.008 107.521 125.008C111.939 127.808 116.693 130.036 121.671 131.64C127.169 133.156 132.842 133.941 138.544 133.975Z" fill="white"/>
</mask>
<g mask="url(#mask0_43_15271)">
<path d="M129.17 141.917C129.17 141.917 124.041 130.986 110.829 134.842C97.6167 138.698 122.308 149.345 129.17 141.917Z" fill="url(#paint22_linear_43_15271)"/>
</g>
<path d="M162.193 120.267C169.148 120.267 174.786 114.629 174.786 107.674C174.786 100.719 169.148 95.0806 162.193 95.0806C155.238 95.0806 149.6 100.719 149.6 107.674C149.6 114.629 155.238 120.267 162.193 120.267Z" fill="white"/>
<path d="M160.956 110.735C164.707 110.735 167.748 107.694 167.748 103.943C167.748 100.192 164.707 97.1509 160.956 97.1509C157.205 97.1509 154.164 100.192 154.164 103.943C154.164 107.694 157.205 110.735 160.956 110.735Z" fill="url(#paint23_linear_43_15271)"/>
<path d="M154.889 97.3981C157.048 95.8607 159.637 95.0428 162.288 95.0608C164.939 95.0788 167.517 95.9317 169.655 97.4984C171.794 99.065 173.384 101.266 174.2 103.788C175.017 106.31 175.018 109.025 174.203 111.548" stroke="#0D0E0E" stroke-width="1.2" stroke-miterlimit="10" stroke-linecap="round"/>
<path d="M173.514 102.12L178.413 98.3882" stroke="#0D0E0E" stroke-width="1.2" stroke-miterlimit="10" stroke-linecap="round"/>
<path d="M175.123 104.685L179.722 104.702" stroke="#0D0E0E" stroke-width="1.2" stroke-miterlimit="10" stroke-linecap="round"/>
<path d="M111.308 100.475C118.263 100.475 123.901 94.8367 123.901 87.8817C123.901 80.9267 118.263 75.2886 111.308 75.2886C104.353 75.2886 98.7148 80.9267 98.7148 87.8817C98.7148 94.8367 104.353 100.475 111.308 100.475Z" fill="white"/>
<path d="M109.999 90.5524C113.75 90.5524 116.791 87.5116 116.791 83.7606C116.791 80.0095 113.75 76.9688 109.999 76.9688C106.248 76.9688 103.207 80.0095 103.207 83.7606C103.207 87.5116 106.248 90.5524 109.999 90.5524Z" fill="url(#paint24_linear_43_15271)"/>
<path d="M123.53 84.2562C122.805 81.7128 121.299 79.4616 119.225 77.8211C117.15 76.1806 114.613 75.2337 111.971 75.1144C109.329 74.9951 106.716 75.7095 104.502 77.1564C102.289 78.6033 100.586 80.7096 99.6348 83.1773" stroke="#0D0E0E" stroke-width="1.2" stroke-miterlimit="10" stroke-linecap="round"/>
<path d="M106.056 76.28L104.57 70.3018" stroke="#0D0E0E" stroke-width="1.2" stroke-miterlimit="10" stroke-linecap="round"/>
<path d="M103.208 77.2691L99.5996 74.4038" stroke="#0D0E0E" stroke-width="1.2" stroke-miterlimit="10" stroke-linecap="round"/>
<path d="M157.78 104.632C158.691 104.411 159.249 103.485 159.025 102.564C158.802 101.643 157.882 101.076 156.97 101.298C156.059 101.519 155.502 102.445 155.725 103.365C155.949 104.286 156.869 104.853 157.78 104.632Z" fill="white"/>
<path d="M158.772 107.5C159.352 107.359 159.707 106.776 159.566 106.197C159.426 105.618 158.842 105.262 158.263 105.403C157.684 105.544 157.329 106.127 157.469 106.706C157.61 107.285 158.193 107.641 158.772 107.5Z" fill="white"/>
<path d="M114.619 85.8213C114.967 84.94 114.534 83.9435 113.653 83.5955C112.772 83.2475 111.775 83.6797 111.427 84.561C111.079 85.4423 111.511 86.4389 112.393 86.7869C113.274 87.135 114.27 86.7026 114.619 85.8213Z" fill="white"/>
<path d="M111.429 88.1607C111.648 87.6065 111.376 86.9798 110.821 86.7609C110.267 86.5421 109.641 86.8139 109.422 87.3681C109.203 87.9223 109.475 88.549 110.029 88.7679C110.583 88.9867 111.21 88.7149 111.429 88.1607Z" fill="white"/>
<defs>
<linearGradient id="paint0_linear_43_15271" x1="97.8331" y1="230.119" x2="284.872" y2="348.85" gradientUnits="userSpaceOnUse">
<stop stop-color="#528265"/>
<stop offset="0.12" stop-color="#497366"/>
<stop offset="0.28" stop-color="#426867"/>
<stop offset="0.44" stop-color="#406467"/>
<stop offset="1" stop-color="#364A62"/>
</linearGradient>
<linearGradient id="paint1_linear_43_15271" x1="24.3923" y1="281.542" x2="160.23" y2="252.983" gradientUnits="userSpaceOnUse">
<stop stop-color="#A0D185"/>
<stop offset="0.26" stop-color="#90C57E"/>
<stop offset="1" stop-color="#66A36C"/>
</linearGradient>
<linearGradient id="paint2_linear_43_15271" x1="185.141" y1="291.846" x2="246.426" y2="264.708" gradientUnits="userSpaceOnUse">
<stop stop-color="#528265"/>
<stop offset="0.41" stop-color="#52845C"/>
<stop offset="1" stop-color="#4B8E42"/>
</linearGradient>
<linearGradient id="paint3_linear_43_15271" x1="64.8276" y1="289.85" x2="-21.4502" y2="246.42" gradientUnits="userSpaceOnUse">
<stop stop-color="#66A36C"/>
<stop offset="0.45" stop-color="#90C57E"/>
<stop offset="0.61" stop-color="#A0D185"/>
<stop offset="0.75" stop-color="#A4D285"/>
<stop offset="0.87" stop-color="#AFD684"/>
<stop offset="1" stop-color="#C3DC83"/>
</linearGradient>
<linearGradient id="paint4_linear_43_15271" x1="186.526" y1="245.636" x2="167.078" y2="249.605" gradientUnits="userSpaceOnUse">
<stop stop-color="#080808"/>
<stop offset="0.69" stop-color="#0A0A0A"/>
<stop offset="0.94" stop-color="#111111"/>
<stop offset="1" stop-color="#141414"/>
</linearGradient>
<linearGradient id="paint5_linear_43_15271" x1="126.854" y1="188.964" x2="48.3769" y2="188.964" gradientUnits="userSpaceOnUse">
<stop stop-color="#080808"/>
<stop offset="0.06" stop-color="#0B0B0B"/>
<stop offset="0.31" stop-color="#121212"/>
<stop offset="1" stop-color="#141414"/>
</linearGradient>
<linearGradient id="paint6_linear_43_15271" x1="56.7606" y1="210.948" x2="43.7253" y2="210.948" gradientUnits="userSpaceOnUse">
<stop stop-color="#080808"/>
<stop offset="0.06" stop-color="#0B0B0B"/>
<stop offset="0.31" stop-color="#121212"/>
<stop offset="1" stop-color="#141414"/>
</linearGradient>
<linearGradient id="paint7_linear_43_15271" x1="55.3988" y1="214.203" x2="44.2737" y2="214.203" gradientUnits="userSpaceOnUse">
<stop stop-color="#080808"/>
<stop offset="0.06" stop-color="#0B0B0B"/>
<stop offset="0.31" stop-color="#121212"/>
<stop offset="1" stop-color="#141414"/>
</linearGradient>
<linearGradient id="paint8_linear_43_15271" x1="145.515" y1="192.023" x2="223.992" y2="192.023" gradientUnits="userSpaceOnUse">
<stop stop-color="#080808"/>
<stop offset="0.69" stop-color="#0A0A0A"/>
<stop offset="0.94" stop-color="#111111"/>
<stop offset="1" stop-color="#141414"/>
</linearGradient>
<linearGradient id="paint9_linear_43_15271" x1="127.653" y1="277.005" x2="168.211" y2="274.261" gradientUnits="userSpaceOnUse">
<stop stop-color="#080808"/>
<stop offset="0.62" stop-color="#0E0E0E"/>
<stop offset="1" stop-color="#141414"/>
</linearGradient>
<linearGradient id="paint10_linear_43_15271" x1="125.705" y1="272.305" x2="86.3156" y2="272.305" gradientUnits="userSpaceOnUse">
<stop stop-color="#080808"/>
<stop offset="1" stop-color="#141414"/>
</linearGradient>
<linearGradient id="paint11_linear_43_15271" x1="176.342" y1="210.312" x2="91.002" y2="210.312" gradientUnits="userSpaceOnUse">
<stop stop-color="#080808"/>
<stop offset="1" stop-color="#141414"/>
</linearGradient>
<radialGradient id="paint12_radial_43_15271" cx="0" cy="0" r="1" gradientUnits="userSpaceOnUse" gradientTransform="translate(104.903 227.072) rotate(-171.951) scale(76.9269 76.9269)">
<stop stop-color="white"/>
<stop offset="0.37" stop-color="#FCFCFD"/>
<stop offset="0.65" stop-color="#F4F3F5"/>
<stop offset="0.85" stop-color="#E8E6EA"/>
</radialGradient>
<linearGradient id="paint13_linear_43_15271" x1="187.343" y1="244.784" x2="75.4377" y2="208.702" gradientUnits="userSpaceOnUse">
<stop offset="0.03" stop-color="#F392AA"/>
<stop offset="0.44" stop-color="#F9BEC8"/>
<stop offset="1" stop-color="#FBCCCA"/>
</linearGradient>
<linearGradient id="paint14_linear_43_15271" x1="221.844" y1="91.1548" x2="204.87" y2="61.2453" gradientUnits="userSpaceOnUse">
<stop stop-color="#080808"/>
<stop offset="1" stop-color="#141414"/>
</linearGradient>
<linearGradient id="paint15_linear_43_15271" x1="117.053" y1="56.677" x2="90.2416" y2="35.1477" gradientUnits="userSpaceOnUse">
<stop stop-color="#080808"/>
<stop offset="1" stop-color="#141414"/>
</linearGradient>
<radialGradient id="paint16_radial_43_15271" cx="0" cy="0" r="1" gradientUnits="userSpaceOnUse" gradientTransform="translate(148.751 113.236) rotate(-175.426) scale(88.0966 88.0966)">
<stop stop-color="white"/>
<stop offset="0.37" stop-color="#FCFCFD"/>
<stop offset="0.65" stop-color="#F4F3F5"/>
<stop offset="0.85" stop-color="#E8E6EA"/>
</radialGradient>
<linearGradient id="paint17_linear_43_15271" x1="185.437" y1="115.263" x2="156.631" y2="98.6299" gradientUnits="userSpaceOnUse">
<stop stop-color="#080808"/>
<stop offset="1" stop-color="#141414"/>
</linearGradient>
<linearGradient id="paint18_linear_43_15271" x1="143.533" y1="120.528" x2="127.233" y2="99.1246" gradientUnits="userSpaceOnUse">
<stop stop-color="#080808"/>
<stop offset="1" stop-color="#141414"/>
</linearGradient>
<linearGradient id="paint19_linear_43_15271" x1="142.579" y1="2.89612" x2="161.822" y2="28.0117" gradientUnits="userSpaceOnUse">
<stop stop-color="#574D37"/>
<stop offset="0.37" stop-color="#544B36"/>
<stop offset="0.6" stop-color="#4C4333"/>
<stop offset="0.79" stop-color="#3D362E"/>
<stop offset="0.96" stop-color="#292426"/>
<stop offset="1" stop-color="#231F24"/>
</linearGradient>
<linearGradient id="paint20_linear_43_15271" x1="211.769" y1="50.8682" x2="108.671" y2="42.6204" gradientUnits="userSpaceOnUse">
<stop stop-color="#323031"/>
<stop offset="0.29" stop-color="#3A393A"/>
<stop offset="0.45" stop-color="#414141"/>
<stop offset="0.69" stop-color="#47443E"/>
<stop offset="0.99" stop-color="#564D37"/>
<stop offset="1" stop-color="#574D37"/>
</linearGradient>
<linearGradient id="paint21_linear_43_15271" x1="147.197" y1="130.324" x2="115.537" y2="127.791" gradientUnits="userSpaceOnUse">
<stop stop-color="#704732"/>
<stop offset="0.06" stop-color="#623B2C"/>
<stop offset="0.14" stop-color="#553026"/>
<stop offset="0.26" stop-color="#4D2A22"/>
<stop offset="0.47" stop-color="#4B2821"/>
<stop offset="0.71" stop-color="#4D2A22"/>
<stop offset="0.82" stop-color="#553025"/>
<stop offset="0.9" stop-color="#623B2B"/>
<stop offset="0.96" stop-color="#704732"/>
</linearGradient>
<linearGradient id="paint22_linear_43_15271" x1="138.026" y1="135.713" x2="115.599" y2="133.919" gradientUnits="userSpaceOnUse">
<stop stop-color="#AD4950"/>
<stop offset="0.27" stop-color="#BB585C"/>
<stop offset="0.59" stop-color="#C76566"/>
<stop offset="0.77" stop-color="#C86768"/>
<stop offset="0.85" stop-color="#CA6F6F"/>
<stop offset="0.9" stop-color="#CD7878"/>
</linearGradient>
<linearGradient id="paint23_linear_43_15271" x1="154.203" y1="103.414" x2="167.742" y2="104.52" gradientUnits="userSpaceOnUse">
<stop stop-color="#352424"/>
<stop offset="1" stop-color="#231F24"/>
</linearGradient>
<linearGradient id="paint24_linear_43_15271" x1="103.233" y1="83.2422" x2="116.772" y2="84.3481" gradientUnits="userSpaceOnUse">
<stop stop-color="#352424"/>
<stop offset="1" stop-color="#231F24"/>
</linearGradient>
</defs>
</svg>
