<svg width="225" height="345" viewBox="0 0 225 345" fill="none" xmlns="http://www.w3.org/2000/svg">
<path d="M104.109 261.786L112.023 335.208L118.405 330.701L126.49 258.741L104.109 261.786Z" fill="url(#paint0_linear_321_658)"/>
<path d="M110.801 324.473C110.801 324.473 101.753 323.802 102.372 328.843C102.991 333.883 118.13 332.748 118.766 327.123C118.766 327.123 120.487 337.909 116.719 339.87C113.726 341.384 82.5713 351.035 79.9049 335.552C77.6513 321.927 99.3614 322.185 110.801 324.473Z" fill="url(#paint1_linear_321_658)"/>
<path d="M110.802 324.474C110.802 324.474 100.084 323.304 101.392 328.981C103.37 337.496 118.922 330.839 118.767 327.175C118.674 325.648 118.72 324.117 118.904 322.599L110.802 324.474Z" fill="url(#paint2_linear_321_658)"/>
<path d="M146.393 260.874L138.015 334.262L131.65 329.72L124.029 257.691L146.393 260.874Z" fill="url(#paint3_linear_321_658)"/>
<path d="M139.306 323.527C139.306 323.527 148.354 322.925 147.701 327.948C147.047 332.972 131.926 331.75 131.323 326.228C131.323 326.228 129.448 336.997 133.285 338.975C136.278 340.524 167.364 350.364 170.116 334.898C172.559 321.188 150.763 321.308 139.306 323.527Z" fill="url(#paint4_linear_321_658)"/>
<path d="M139.306 323.527C139.306 323.527 150.04 322.426 148.681 328.086C146.651 336.688 131.152 329.806 131.324 326.177C131.426 324.651 131.385 323.119 131.203 321.601L139.306 323.527Z" fill="url(#paint5_linear_321_658)"/>
<path d="M150.558 96.7921C150.558 96.7921 160.691 62.6787 182.814 64.8118C204.937 66.945 208.274 86.78 197.832 104.929C197.832 104.929 228.161 110.503 224.135 136.101C223.574 140.379 221.425 144.291 218.114 147.059C213.504 150.758 205.074 154.405 191.088 150.758C191.088 150.758 205.143 168.408 176.586 180.708C148.029 193.008 116.6 116.73 116.6 116.73L150.558 96.7921Z" fill="url(#paint6_linear_321_658)"/>
<path d="M68.7397 120.722C68.7397 120.722 60.1382 86.2126 37.7744 87.434C15.4106 88.6554 11.4367 108.318 21.0875 126.88C21.0875 126.88 -2.70414 129.805 0.254765 155.558C0.636963 159.855 2.62025 163.853 5.81133 166.757C10.2669 170.645 18.5243 174.619 32.6651 171.574C32.6651 171.574 17.819 188.777 45.8942 202.109C84.3771 220.43 133.629 126.261 133.629 126.261L68.7397 120.722Z" fill="url(#paint7_linear_321_658)"/>
<path d="M102.698 162.938C102.698 162.938 59.4326 164.658 52.8095 212.981C52.0698 218.314 55.3039 223.63 61.1185 226.744C62.691 227.555 64.4213 228.013 66.189 228.087C67.9567 228.162 69.7193 227.85 71.3543 227.174C82.8114 222.237 99.894 216.043 109.08 179.143C109.029 179.109 122.051 163.764 102.698 162.938Z" fill="url(#paint8_linear_321_658)"/>
<path d="M138.377 178.162C138.377 178.162 138.377 137.013 196.488 125.745C202.905 124.506 214.225 130.046 213.313 141.228C212.281 153.803 205.21 175.633 161.068 188.174C161.068 188.14 140.682 194.178 138.377 178.162Z" fill="url(#paint9_linear_321_658)"/>
<path d="M99.3616 161.424L96.5747 162.336C95.0899 162.83 93.8081 163.798 92.9257 165.091C92.0433 166.383 91.6089 167.929 91.6891 169.492L94.1491 215.39L146.068 209.334L144.347 158.276L99.3616 161.424Z" fill="url(#paint10_linear_321_658)"/>
<path d="M97.916 148.143L99.189 160.822C99.189 160.822 104.952 173.173 116.289 172.864C131.204 172.503 135.625 158.947 135.625 158.947L135.006 145.374L97.916 148.143Z" fill="url(#paint11_linear_321_658)"/>
<path d="M91.4999 163.058L98.2435 161.149C99.0176 160.994 99.0864 160.977 99.5509 161.871L101.736 187.779C101.748 188.057 101.818 188.33 101.939 188.581C102.061 188.831 102.233 189.054 102.444 189.236C102.655 189.418 102.9 189.555 103.166 189.639C103.432 189.723 103.712 189.751 103.989 189.723L134.8 186.592C135.312 186.536 135.784 186.289 136.122 185.899C136.46 185.51 136.639 185.008 136.623 184.493L135.66 159.274C135.654 159.098 135.715 158.926 135.829 158.792C135.944 158.658 136.104 158.572 136.279 158.551L143.762 158.207C143.86 158.195 143.959 158.203 144.054 158.231C144.148 158.259 144.236 158.305 144.311 158.368C144.387 158.431 144.449 158.509 144.494 158.596C144.538 158.684 144.565 158.78 144.571 158.878L145.139 186.317C146.177 194.865 147.974 203.305 150.506 211.536C151.177 213.669 151.779 215.82 152.33 217.987C154.05 224.868 158.97 240.747 168.397 247.576C172.111 250.453 175.988 253.112 180.009 255.541C180.272 255.665 180.494 255.861 180.649 256.106C180.805 256.351 180.887 256.636 180.887 256.926C180.887 257.216 180.805 257.501 180.649 257.746C180.494 257.991 180.272 258.187 180.009 258.311L149.044 270.353C148.78 270.473 148.487 270.51 148.202 270.461C147.916 270.412 147.652 270.279 147.444 270.078L145.053 267.755L144.279 269.923C144.138 270.322 144.023 270.73 143.934 271.144C143.864 271.409 143.72 271.648 143.519 271.834C143.318 272.019 143.068 272.144 142.799 272.194L108.393 273.914C108.078 273.967 107.754 273.913 107.473 273.76C107.193 273.607 106.971 273.365 106.845 273.071L105.434 269.802L103.989 272.589C103.855 272.856 103.639 273.073 103.373 273.209C103.107 273.345 102.805 273.393 102.51 273.346L77.2731 269.355C77.0285 269.319 76.7963 269.225 76.5962 269.079C76.3962 268.934 76.2343 268.742 76.1244 268.521C76.0145 268.299 75.9599 268.055 75.9652 267.808C75.9705 267.56 76.0356 267.318 76.1549 267.102C78.3225 263.145 83.4317 253.838 87.3368 246.751C94.0116 234.708 93.8739 218.899 93.8739 218.899L92.9622 194.196L90.4161 164.417C90.3988 164.097 90.4997 163.782 90.6995 163.532C90.8993 163.281 91.1841 163.113 91.4999 163.058Z" fill="url(#paint12_linear_321_658)"/>
<path d="M94.75 217.179C103.859 219.721 113.361 220.555 122.774 219.639C125.13 219.501 127.453 219.054 129.775 218.693C132.098 218.331 134.386 217.712 136.656 216.972C141.175 215.602 145.553 213.805 149.731 211.605C145.657 214.038 141.324 216.006 136.811 217.471C134.551 218.205 132.255 218.82 129.93 219.312C127.573 219.673 125.251 220.172 122.877 220.327C113.384 221.266 103.8 220.194 94.75 217.179Z" fill="#3884C5"/>
<path d="M139.22 240.299C138.996 242.639 138.996 244.995 139.22 247.335C139.45 249.652 139.835 251.951 140.373 254.216C141.476 258.791 143.014 263.25 144.966 267.532C144.415 266.499 143.83 265.467 143.245 264.401C142.661 263.334 142.23 262.267 141.818 261.149C140.946 258.942 140.228 256.677 139.667 254.371C139.155 252.049 138.821 249.691 138.669 247.318C138.547 244.965 138.732 242.605 139.22 240.299Z" fill="#3884C5"/>
<path d="M109.356 241.469C108.84 243.74 108.479 246.045 108.1 248.35C107.722 250.656 107.378 252.926 107.103 255.232C106.466 259.825 106.053 264.435 105.537 268.994C105.537 266.672 105.537 264.349 105.761 262.027C105.984 259.704 106.174 257.382 106.449 255.146C107.002 250.508 107.975 245.931 109.356 241.469Z" fill="#3884C5"/>
<path d="M45.6714 123.13C45.6714 123.13 43.4006 109.454 36.2786 111.484C29.3974 113.445 24.0301 131.284 41.3019 135.138C42.2949 135.363 43.3297 135.322 44.3022 135.02C45.2746 134.718 46.1503 134.166 46.8412 133.418C48.4067 131.749 49.3184 128.584 45.6714 123.13Z" fill="url(#paint13_linear_321_658)"/>
<path d="M34.6445 120.808C35.0857 120.365 35.649 120.065 36.2621 119.946C36.8753 119.826 37.5101 119.893 38.0851 120.137C38.7166 120.364 39.2792 120.749 39.7194 121.255C39.9345 121.52 40.1192 121.809 40.2699 122.115L40.614 122.82C41.0379 123.773 41.3887 124.756 41.6633 125.762C41.9807 126.8 42.1487 127.877 42.1622 128.962C41.3747 128.218 40.6814 127.38 40.0979 126.467C39.5321 125.588 39.0319 124.668 38.6012 123.715L38.3088 122.992L38.0507 122.511C37.8534 122.185 37.6035 121.894 37.311 121.651C36.548 121.067 35.6045 120.768 34.6445 120.808Z" fill="#EA957E"/>
<path d="M37.5859 124.902C37.5859 123.939 37.93 123.595 38.2912 123.388C38.5136 123.308 38.757 123.308 38.9794 123.388C39.3296 123.483 39.6495 123.667 39.9083 123.922C39.9153 124.278 39.8387 124.632 39.6847 124.954C39.5801 125.162 39.4112 125.331 39.203 125.435C38.7901 125.521 38.3257 125.521 37.5859 124.902Z" fill="#EA957E"/>
<path d="M167.811 102.745C167.811 102.745 165.833 88.9823 173.23 88.7931C180.352 88.5866 190.915 103.966 175.604 112.877C174.739 113.403 173.751 113.691 172.739 113.712C171.727 113.734 170.727 113.487 169.841 112.998C167.777 111.793 165.988 109.007 167.811 102.745Z" fill="#FEE3CC"/>
<path d="M177.549 97.2224C176.64 97.479 175.846 98.0371 175.296 98.8051C175.089 99.1275 174.938 99.4822 174.848 99.8544C174.848 100.044 174.848 100.216 174.762 100.388V101.179C174.638 102.213 174.437 103.237 174.16 104.241C173.893 105.293 173.488 106.305 172.956 107.252C172.643 106.213 172.475 105.136 172.457 104.052C172.419 103.007 172.46 101.96 172.578 100.921L172.698 100.147C172.741 99.8102 172.828 99.4806 172.956 99.1663C173.211 98.5467 173.627 98.0063 174.16 97.6009C174.627 97.215 175.196 96.9737 175.798 96.9064C176.4 96.8392 177.009 96.949 177.549 97.2224Z" fill="#EA957E"/>
<path d="M176.052 101.988C175.536 102.796 175.089 102.951 174.659 102.934C174.432 102.892 174.223 102.784 174.057 102.624C173.803 102.365 173.62 102.045 173.523 101.695C173.69 101.372 173.947 101.103 174.263 100.921C174.457 100.795 174.686 100.734 174.917 100.749C175.33 100.835 175.708 101.076 176.052 101.988Z" fill="#EA957E"/>
<path d="M126.302 157.656L115.67 160.288C81.7976 168.683 50.1442 147.489 41.6976 113.617L39.6332 105.29C31.9091 73.9467 48.4067 42.7577 79.7849 35.0336L98.0028 30.5092C113.052 26.7818 128.965 29.1817 142.246 37.1816C155.526 45.1814 165.087 58.1267 168.827 73.1725L169.773 76.9572C170.794 81.1126 171.125 85.4074 170.754 89.6702C167.227 129.891 157.645 149.88 126.302 157.656Z" fill="url(#paint14_linear_321_658)"/>
<path d="M31.2023 77.9036V78.5401C31.7528 94.6593 41.9198 113.273 41.9198 113.273L42.0918 112.464C44.4314 100.68 49.1966 92.8702 58.9507 85.8514C80.7984 70.1279 81.3145 47.7297 81.3145 47.7297L74.4333 13.9087C31.8045 28.3248 28.2434 58.3095 31.2023 77.9036Z" fill="#F7B4B5"/>
<path d="M79.5436 41.1754C80.3349 49.1747 89.0568 57.4838 102.991 61.2856C110.635 62.4688 118.441 62.0648 125.923 60.0986C138.962 56.8645 148.562 62.1113 154.359 75.0652C157.632 82.693 163.63 88.8268 171.184 92.2681C171.184 92.2681 179.458 21.2716 120.865 3.56973C106.999 -0.610583 95.5423 3.12246 88.6095 9.38433C78.7178 18.3127 78.7178 32.7975 79.5436 41.1754Z" fill="#F7B4B5"/>
<path d="M30.2749 76.0453C30.2749 76.2517 30.2749 76.4581 30.2749 76.6818C30.8082 92.8009 41.732 113.617 41.732 113.617L41.9041 112.791C44.2437 101.007 48.2692 91.0118 58.006 83.993C79.8538 68.2868 83.4148 41.6222 83.4148 41.6222L106.071 1.3501C24.8904 13.719 27.3848 56.4683 30.2749 76.0453Z" fill="url(#paint15_linear_321_658)"/>
<path d="M78.6838 39.8849C79.6987 47.8498 88.7475 56.2965 102.768 59.7027C110.439 60.6732 118.227 60.0525 125.648 57.8792C138.584 54.2837 148.338 59.2726 154.497 72.0544C158.426 79.9698 164.138 86.8655 171.184 92.199C171.184 92.199 180.216 14.2869 118.939 1.14385C104.763 -1.90107 93.6159 1.40189 86.8379 7.8702C77.2387 17.0566 77.6516 31.5931 78.6838 39.8849Z" fill="url(#paint16_linear_321_658)"/>
<path d="M106.724 105.411C107.445 108.084 107.9 110.821 108.083 113.583V113.944L107.842 114.271C107.154 115.182 106.501 116.111 105.778 116.971L104.763 118.227C104.714 118.295 104.688 118.376 104.688 118.46C104.688 118.543 104.714 118.624 104.763 118.692C104.763 118.795 104.763 118.795 105.038 118.95L105.778 119.38C106.26 119.655 106.759 119.965 107.24 120.274C108.218 120.883 109.155 121.555 110.044 122.287C108.916 122.06 107.801 121.767 106.707 121.41C106.156 121.238 105.606 121.066 104.987 120.859L104.195 120.584C103.772 120.436 103.401 120.167 103.129 119.81C102.827 119.428 102.651 118.962 102.623 118.475C102.595 117.989 102.718 117.506 102.974 117.092L104.04 115.647C104.711 114.718 105.451 113.927 106.174 112.98L105.95 113.669C105.936 110.897 106.195 108.131 106.724 105.411Z" fill="#EA957E"/>
<path d="M134.077 75.1337C132.076 74.0839 130.02 73.1421 127.918 72.3124C126.866 71.8967 125.785 71.5575 124.684 71.2974C119.681 69.9314 114.506 69.3054 109.322 69.4395C108.513 69.4395 107.601 69.6631 106.724 69.6115C105.847 69.5599 104.866 66.429 105.399 65.5516C106.518 63.7109 110.182 65.4312 112.521 65.1044C113.892 64.9168 115.285 64.9809 116.633 65.2936C117.957 65.6204 119.23 66.0333 120.469 66.4462C121.697 66.8653 122.903 67.3476 124.082 67.8912C125.252 68.4589 126.37 69.061 127.522 69.7148C129.952 70.9392 132.256 72.3968 134.403 74.0671L134.077 75.1337Z" fill="#FBC3AA"/>
<path d="M134.523 74.6008C132.763 73.5586 130.942 72.6223 129.07 71.7967C127.952 71.2891 126.803 70.8524 125.629 70.4893C120.337 68.6965 114.804 67.7163 109.218 67.582C108.375 67.4788 107.377 67.754 106.431 67.582C106.186 67.5796 105.947 67.5096 105.74 67.3797C105.533 67.2498 105.366 67.0651 105.257 66.846C105.148 66.6269 105.103 66.382 105.124 66.1384C105.146 65.8949 105.235 65.6622 105.382 65.466C106.672 63.4533 110.353 63.0576 112.882 62.7996C114.363 62.6677 115.855 62.8076 117.286 63.2125C118.679 63.6425 120.021 64.193 121.346 64.7091C122.647 65.2169 123.922 65.7911 125.165 66.4294C126.349 67.1105 127.497 67.8512 128.606 68.6486C130.849 70.2264 132.914 72.0434 134.764 74.0675L134.523 74.6008Z" fill="url(#paint17_linear_321_658)"/>
<path d="M65.9365 89.1195C67.393 87.3897 68.9376 85.7361 70.5641 84.165C71.3861 83.3915 72.2535 82.6678 73.1617 81.9975C77.2664 78.8151 81.8164 76.2532 86.666 74.3937C87.3713 74.0497 88.3863 73.9465 89.126 73.568C89.8657 73.1895 89.6249 69.921 88.7992 69.3189C87.0789 68.0287 84.3436 71.0392 82.0384 71.6069C80.7069 71.9536 79.4484 72.5362 78.3226 73.3272C77.2044 74.1185 76.2066 75.0475 75.2088 75.856C74.2532 76.717 73.3458 77.6302 72.4908 78.5913C71.6355 79.5337 70.8315 80.5214 70.0824 81.5502C68.2965 83.6071 66.7123 85.8307 65.3516 88.1905L65.9365 89.1195Z" fill="#FBC3AA"/>
<path d="M65.316 88.7759C66.5393 87.1382 67.8666 85.581 69.2899 84.1139C70.1193 83.2157 71.0103 82.3765 71.9564 81.6023C76.1647 77.9219 80.9099 74.9053 86.0284 72.6567C86.7681 72.2611 87.7487 72.1062 88.626 71.659C88.8524 71.5675 89.0486 71.4144 89.1925 71.2171C89.3363 71.0198 89.4221 70.7862 89.44 70.5427C89.4579 70.2992 89.4073 70.0555 89.2938 69.8393C89.1804 69.6231 89.0086 69.443 88.7981 69.3194C86.8369 67.9431 83.2931 68.9753 80.8503 69.6978C79.4306 70.1348 78.1058 70.8351 76.9452 71.7622C75.8098 72.6911 74.7605 73.6889 73.7455 74.6867C72.7453 75.674 71.7978 76.7133 70.907 77.8004C70.0469 78.9014 69.1867 80.0368 68.4986 81.241C67.0179 83.5427 65.7949 86.0003 64.8516 88.5694L65.316 88.7759Z" fill="url(#paint18_linear_321_658)"/>
<path d="M95.5586 129.237C95.5586 129.237 117.252 126.88 126.902 117.935C126.902 117.935 131.513 129.116 123.565 137.236C121.878 138.937 119.806 140.207 117.524 140.938C115.242 141.668 112.818 141.838 110.456 141.434C107.117 140.898 103.98 139.487 101.363 137.344C98.7461 135.202 96.7434 132.404 95.5586 129.237Z" fill="url(#paint19_linear_321_658)"/>
<mask id="mask0_321_658" style="mask-type:luminance" maskUnits="userSpaceOnUse" x="95" y="117" width="34" height="25">
<path d="M95.5586 129.237C95.5586 129.237 117.252 126.88 126.902 117.935C126.902 117.935 131.513 129.116 123.565 137.236C121.878 138.937 119.806 140.207 117.524 140.938C115.242 141.668 112.818 141.838 110.456 141.434C107.117 140.898 103.98 139.487 101.363 137.344C98.7461 135.202 96.7434 132.404 95.5586 129.237Z" fill="white"/>
</mask>
<g mask="url(#mask0_321_658)">
<path d="M104.332 142.345C104.332 142.345 106.895 126.983 125.819 132.23C144.742 137.477 119.023 158.396 104.332 142.345Z" fill="url(#paint20_linear_321_658)"/>
</g>
<path d="M123.6 117.78C124.124 117.541 124.693 117.417 125.268 117.417C125.844 117.417 126.413 117.541 126.937 117.78C127.479 117.973 127.989 118.246 128.451 118.588C128.897 118.937 129.272 119.369 129.552 119.861C129.124 119.525 128.676 119.214 128.21 118.932C127.744 118.677 127.255 118.47 126.748 118.313C125.76 117.872 124.677 117.689 123.6 117.78Z" fill="#ED977E"/>
<path d="M95.1284 132.626C94.9368 132.074 94.8607 131.488 94.9047 130.905C94.9538 130.302 95.1296 129.716 95.4208 129.185C95.6652 128.671 95.984 128.196 96.367 127.775C96.7561 127.36 97.2239 127.026 97.7432 126.794C97.3692 127.192 97.0189 127.611 96.6938 128.05C96.3854 128.484 96.1258 128.952 95.9197 129.443C95.3817 130.416 95.1088 131.514 95.1284 132.626Z" fill="#ED977E"/>
<path d="M125.68 110.868C130.715 109.62 133.198 102.157 131.225 94.1981C129.253 86.2396 123.572 80.7996 118.537 82.0475C113.502 83.2955 111.019 90.7588 112.991 98.7173C114.964 106.676 120.645 112.116 125.68 110.868Z" fill="white"/>
<path d="M131.564 97.308C130.119 89.1366 124.683 83.2532 119.522 84.1822C115.342 84.9219 112.641 89.8592 112.418 96.0178C111.437 88.3109 114.396 81.5846 119.299 80.7072C124.202 79.8299 129.844 85.6789 131.341 93.8503C131.62 95.3763 131.741 96.927 131.702 98.4778C131.685 98.0822 131.633 97.7037 131.564 97.308Z" fill="#1D1230"/>
<path d="M130.843 80.4839C130.843 80.4839 130.017 85.2147 127.746 84.9739L129.363 88.4144C130.294 87.344 130.921 86.0445 131.181 84.6503C131.441 83.2561 131.324 81.8178 130.843 80.4839Z" fill="#1D1230"/>
<path d="M126.776 109.75C129.414 109.096 130.715 105.187 129.681 101.019C128.648 96.8508 125.673 94.0016 123.035 94.6553C120.398 95.309 119.097 99.2179 120.13 103.386C121.163 107.555 124.139 110.404 126.776 109.75Z" fill="#1D1230"/>
<path d="M89.8041 118.69C94.8762 117.433 97.3778 109.918 95.3916 101.904C93.4054 93.89 87.6835 88.4126 82.6115 89.6696C77.5394 90.9267 75.0379 98.4423 77.0241 106.456C79.0102 114.47 84.7321 119.947 89.8041 118.69Z" fill="white"/>
<path d="M78.2526 109.677C76.2743 101.66 78.7687 94.1943 83.8436 92.8869C87.9379 91.872 92.4451 95.2437 95.0771 100.783C92.8579 93.3858 87.439 88.4658 82.6222 89.67C77.8053 90.8742 75.0357 98.4435 77.0312 106.443C77.396 107.938 77.9148 109.39 78.5795 110.778C78.459 110.417 78.3558 110.055 78.2526 109.677Z" fill="#1D1230"/>
<path d="M72.1289 94.0908C72.1289 94.0908 74.7782 98.0475 76.7393 96.9121V100.697C75.4487 100.111 74.3395 99.1883 73.5283 98.0259C72.7171 96.8636 72.2337 95.5044 72.1289 94.0908Z" fill="#1D1230"/>
<path d="M91.1419 117.436C93.674 116.919 95.064 113.255 94.2467 109.253C93.4294 105.25 90.7143 102.424 88.1823 102.941C85.6503 103.458 84.2602 107.122 85.0775 111.125C85.8948 115.127 88.6099 117.953 91.1419 117.436Z" fill="#1D1230"/>
<path d="M44.81 141.262C44.9304 142.552 44.9304 143.825 44.9476 145.116V145.288L44.7584 145.391C43.3984 146.036 42.2171 147.005 41.3178 148.212C40.8908 148.82 40.5547 149.486 40.32 150.191C40.0951 150.923 39.9565 151.679 39.9071 152.444C39.7523 151.666 39.7523 150.865 39.9071 150.087C40.0403 149.286 40.3455 148.523 40.8017 147.851C41.6863 146.488 42.9642 145.426 44.4659 144.806L44.2767 145.081C44.4659 143.808 44.5863 142.535 44.81 141.262Z" fill="#EA957E"/>
<path d="M36.3642 138.079C36.1138 136.909 36.1671 135.695 36.5191 134.552C36.6901 134.176 36.9389 133.84 37.2492 133.567C37.5595 133.294 37.9242 133.089 38.3192 132.967C38.7142 132.846 39.1306 132.809 39.5409 132.86C39.9511 132.91 40.346 133.048 40.6994 133.262C42.0068 134.225 42.2304 134.982 43.0906 137.081C45.2238 142.242 44.8109 141.261 44.8109 141.261C44.8109 141.261 44.6389 135.344 49.0772 136.101C50.4879 136.359 50.1954 148.143 50.1954 148.143C50.5377 150.639 50.0051 153.177 48.6879 155.325C47.3708 157.474 45.3504 159.099 42.9702 159.927C34.3687 163.367 30.4292 155.385 29.5519 153.286C27.3808 151.229 26.0299 148.454 25.75 145.476C25.7485 145.153 25.8219 144.835 25.9646 144.545C26.1073 144.256 26.3154 144.004 26.5723 143.809C26.8293 143.613 27.1281 143.481 27.4451 143.421C27.7622 143.361 28.0888 143.375 28.3993 143.463C28.3993 143.463 27.4703 139.214 31.7022 139.008C31.7022 139.008 32.4936 134.518 36.4675 135.756L36.3642 138.079Z" fill="url(#paint21_linear_321_658)"/>
<path d="M28.3984 143.584C28.3984 143.584 30.7208 149.76 32.4411 150.069C34.1614 150.379 38.1869 148.745 32.8884 142.775" fill="url(#paint22_linear_321_658)"/>
<path d="M25.8691 146.594C26.0893 147.612 26.4301 148.599 26.8841 149.536C27.5723 151.015 28.9657 152.977 29.7054 153.252C31.2193 153.647 34.8663 152.306 29.5334 146.147" fill="url(#paint23_linear_321_658)"/>
<path d="M36.4675 135.877C37.2905 137.527 37.9419 139.256 38.4114 141.038C38.6604 141.96 38.8046 142.906 38.8415 143.86C38.9195 144.384 38.8927 144.918 38.7628 145.432C38.6329 145.946 38.4024 146.429 38.0846 146.853C37.697 147.26 37.1666 147.5 36.6051 147.524C36.0543 147.514 35.527 147.299 35.1257 146.922C34.4152 146.246 33.8324 145.448 33.4054 144.565C33.0141 143.713 32.6695 142.84 32.3732 141.95C32.0394 141.072 31.831 140.151 31.7539 139.215C31.999 140.106 32.3332 140.971 32.7517 141.795C33.1301 142.638 33.5258 143.516 33.9731 144.272C34.3624 145.062 34.893 145.773 35.5385 146.371C35.6701 146.508 35.8278 146.616 36.0022 146.69C36.1766 146.764 36.3641 146.802 36.5535 146.802C36.743 146.802 36.9305 146.764 37.1049 146.69C37.2792 146.616 37.4369 146.508 37.5685 146.371C38.086 145.699 38.3372 144.86 38.2738 144.014C38.2666 143.102 38.1744 142.192 37.9986 141.296C37.609 139.458 37.0975 137.648 36.4675 135.877Z" fill="#EA957E"/>
<path d="M42.2137 135.018C43.0232 136.463 43.5652 138.042 43.8136 139.68C43.9676 140.537 43.8964 141.421 43.6072 142.243C43.4447 142.676 43.1748 143.062 42.8228 143.363C42.4708 143.664 42.0481 143.87 41.5944 143.963C41.1231 143.972 40.6577 143.858 40.2442 143.632C39.8307 143.406 39.4837 143.075 39.2376 142.673C38.7257 142.006 38.2981 141.277 37.9646 140.505C37.287 139.001 36.8016 137.417 36.5195 135.792C36.7845 136.563 37.1006 137.316 37.4657 138.045C37.7926 138.785 38.1194 139.525 38.5151 140.247C38.8561 140.958 39.2774 141.628 39.7709 142.243C39.9563 142.537 40.2091 142.782 40.5083 142.958C40.8074 143.135 41.1444 143.238 41.4912 143.258C41.8311 143.179 42.146 143.016 42.4073 142.785C42.6686 142.554 42.8682 142.261 42.9879 141.933C43.2483 141.206 43.3423 140.43 43.2631 139.662C43.117 138.075 42.7643 136.514 42.2137 135.018Z" fill="#EA957E"/>
<path d="M28.3984 143.584L30.0327 146.595C30.5285 147.584 31.1596 148.499 31.9079 149.313C32.0555 149.489 32.2447 149.625 32.4583 149.709C32.7035 149.745 32.9529 149.745 33.1981 149.709C33.7076 149.703 34.2041 149.547 34.6259 149.261C35.4689 148.677 35.4345 147.386 35.1592 146.303C35.4509 146.833 35.6268 147.419 35.6753 148.023C35.6952 148.344 35.6421 148.666 35.5199 148.964C35.3978 149.262 35.2098 149.528 34.97 149.743C34.4932 150.162 33.8841 150.399 33.2497 150.414C32.9363 150.464 32.6169 150.464 32.3035 150.414C31.9734 150.307 31.6729 150.125 31.4262 149.881C30.6161 148.985 29.9592 147.962 29.4822 146.853C29.0297 145.796 28.6671 144.703 28.3984 143.584Z" fill="#EA957E"/>
<path d="M36.4664 135.877C36.4664 135.877 40.4403 145.012 37.3781 146.819C34.9353 148.281 33.0774 143.189 32.4409 141.658C32.0855 140.868 31.8367 140.035 31.7012 139.18" fill="url(#paint24_linear_321_658)"/>
<path d="M41.8525 134.277C41.8525 134.277 45.293 141.623 42.2309 143.429C39.7881 144.874 37.9302 139.782 37.2937 138.268C36.9563 137.517 36.6969 136.733 36.5195 135.929" fill="url(#paint25_linear_321_658)"/>
<path d="M29.4824 153.407C30.1944 153.104 30.8336 152.652 31.3575 152.082C31.7902 151.449 32.0183 150.699 32.0113 149.932C32.252 150.307 32.3831 150.742 32.3897 151.188C32.3823 151.673 32.2195 152.144 31.9252 152.53C31.6297 152.876 31.2488 153.139 30.8204 153.293C30.3919 153.447 29.9307 153.486 29.4824 153.407Z" fill="#EA957E"/>
<path d="M38.7891 163.78L39.0815 161.114C39.1226 160.849 39.2249 160.598 39.3802 160.38C39.5355 160.162 39.7395 159.983 39.9761 159.858L45.8251 157.019C46.1208 156.874 46.454 156.822 46.7799 156.872C47.1058 156.921 47.4089 157.068 47.6486 157.295L49.7473 159.307L45.8767 165.432L38.7891 163.78Z" fill="url(#paint26_linear_321_658)"/>
<path d="M38.3258 204.328C36.2442 192.509 33.8014 172.915 38.2225 163.041C38.326 162.819 38.5109 162.647 38.7386 162.559L49.0604 158.585C49.2759 158.5 49.5158 158.5 49.7313 158.585C53.1719 159.875 80.6966 171.212 83.8103 200.681C86.1844 223.853 71.2522 233.366 55.5803 226.485C51.1132 224.482 47.2048 221.415 44.1969 217.553C41.189 213.69 39.1732 209.149 38.3258 204.328Z" fill="url(#paint27_linear_321_658)"/>
<path d="M211.575 124.489C207.068 113.29 198.742 95.244 189.762 89.2574C189.558 89.1266 189.312 89.0775 189.074 89.1198L178.15 91.2357C177.917 91.2691 177.707 91.3927 177.565 91.5798C175.363 94.4699 157.782 118.864 170.873 145.614C181.195 166.636 199 166.877 208.72 152.65C211.472 148.552 213.172 143.839 213.67 138.927C214.169 134.015 213.449 129.057 211.575 124.489Z" fill="url(#paint28_linear_321_658)"/>
<path d="M173.541 79.486C173.07 77.524 172.414 75.6115 171.58 73.7746C170.805 72.6392 168.363 69.9211 171.941 69.5427C175.519 69.1642 178.822 77.1464 178.822 77.1464C179.429 74.061 179.323 70.8778 178.512 67.8396C177.102 63.9689 180.577 63.3324 181.953 65.5688C183.329 67.8052 184.241 76.7507 184.241 76.7507C184.241 76.7507 185.72 71.349 189.97 73.895C190.49 74.3865 190.916 74.9697 191.225 75.6153C191.603 75.3211 192.047 75.1231 192.518 75.0382C192.99 74.9533 193.475 74.9841 193.931 75.1279C194.388 75.2717 194.803 75.5243 195.141 75.8639C195.479 76.2035 195.729 76.62 195.87 77.0776C196.354 78.274 196.532 79.5724 196.388 80.8551C196.244 82.1377 195.782 83.3641 195.044 84.4232C195.044 84.4232 199.792 94.0225 188.8 97.2394C177.807 100.456 177.222 94.8826 176.637 90.7367C175.871 86.9183 174.836 83.1587 173.541 79.486Z" fill="url(#paint29_linear_321_658)"/>
<path d="M177.893 80.1399C178.88 79.2656 180.058 78.6352 181.333 78.2991C181.97 78.1435 182.622 78.057 183.277 78.0411C183.937 78.0311 184.592 78.1539 185.204 78.4024C183.957 78.4785 182.722 78.6919 181.522 79.0389C180.284 79.3313 179.148 79.7614 177.893 80.1399Z" fill="#EB967E"/>
<path d="M187.166 94.4184C187.604 93.5963 187.738 92.6459 187.544 91.7347C187.28 90.8125 186.91 89.9236 186.443 89.0854C186.667 89.2231 186.856 89.3951 187.08 89.5499L187.596 90.1348C187.917 90.5675 188.15 91.0582 188.284 91.5799C188.392 92.1198 188.35 92.6789 188.164 93.197C187.992 93.7125 187.637 94.1471 187.166 94.4184Z" fill="#EB967E"/>
<path d="M186.649 77.2498C186.187 78.7044 186.023 80.2375 186.168 81.757C186.202 82.0963 186.307 82.4246 186.476 82.7209C186.645 83.0172 186.874 83.2748 187.148 83.4772C187.408 83.6853 187.714 83.827 188.041 83.8899C188.368 83.9529 188.705 83.9352 189.023 83.8385C189.336 83.733 189.622 83.5595 189.86 83.3305C190.098 83.1015 190.282 82.8226 190.4 82.5139C190.473 82.1629 190.513 81.8058 190.52 81.4473C190.52 81.0688 190.52 80.6732 190.623 80.2947C190.795 78.7292 190.967 77.181 191.225 75.6499C191.225 77.2154 191.225 78.7636 191.225 80.2947C191.225 80.6904 191.225 81.0688 191.225 81.4645C191.231 81.8805 191.191 82.2959 191.105 82.7031C190.979 83.1236 190.759 83.5097 190.461 83.8318C190.162 84.1539 189.794 84.4033 189.385 84.561C188.958 84.6689 188.512 84.6801 188.08 84.5938C187.648 84.5075 187.241 84.3258 186.888 84.062C186.535 83.7983 186.246 83.4591 186.041 83.0692C185.836 82.6794 185.72 82.2487 185.703 81.8086C185.616 80.2325 185.942 78.6611 186.649 77.2498Z" fill="#EB967E"/>
<path d="M191.879 78.8672C192.051 80.3122 192.016 81.7401 192.309 83.0475C192.367 83.3661 192.46 83.6775 192.584 83.9765C192.727 84.2337 192.942 84.4431 193.204 84.5786C193.489 84.7378 193.813 84.8126 194.139 84.7943C194.465 84.7761 194.779 84.6654 195.044 84.4753C194.823 84.8091 194.492 85.0552 194.109 85.1714C193.726 85.2876 193.315 85.2665 192.945 85.1119C192.539 84.9651 192.197 84.6785 191.982 84.3033C191.787 83.9606 191.648 83.5889 191.569 83.2023C191.334 81.7529 191.44 80.2685 191.879 78.8672Z" fill="#EB967E"/>
<path d="M178.994 88.6209C179.882 88.4078 180.705 87.9837 181.394 87.3848C182.082 86.7858 182.616 86.0297 182.951 85.1803C184.327 82.2042 188.903 81.9806 189.282 83.6321C189.66 85.2835 189.367 85.5072 187.406 87.864C185.445 90.2208 185.29 90.496 185.686 91.3906" fill="#FDDED0"/>
<path d="M178.994 88.6212C179.86 88.328 180.649 87.8431 181.301 87.2027C181.953 86.5623 182.453 85.7828 182.762 84.9225C183.24 84.0411 183.97 83.322 184.858 82.8564C185.747 82.3908 186.753 82.1998 187.75 82.3077C188.292 82.3335 188.81 82.5325 189.23 82.8754C189.457 83.0822 189.619 83.3515 189.694 83.6495C189.694 83.8904 189.694 84.1312 189.798 84.372C189.861 84.9067 189.74 85.447 189.454 85.9031C189.199 86.3092 188.905 86.6895 188.576 87.0385L186.718 89.1028C186.168 89.791 185.308 90.4963 185.686 91.4424C185.564 91.2338 185.499 90.9963 185.499 90.7543C185.499 90.5124 185.564 90.2748 185.686 90.0662C185.902 89.6523 186.149 89.2555 186.426 88.8792L188.146 86.6772C188.697 85.9203 189.316 85.2494 189.144 84.4408C189.119 84.2261 189.079 84.0134 189.023 83.8043C189.011 83.7282 188.983 83.6554 188.942 83.5903C188.901 83.5252 188.846 83.4693 188.783 83.4259C188.466 83.1996 188.088 83.0738 187.699 83.0646C186.843 82.9792 185.981 83.1394 185.213 83.5263C184.446 83.9133 183.804 84.511 183.364 85.2494C182.948 86.1088 182.363 86.8753 181.643 87.503C180.88 88.1128 179.963 88.4998 178.994 88.6212Z" fill="#EB967E"/>
<defs>
<linearGradient id="paint0_linear_321_658" x1="106.982" y1="294.75" x2="123.49" y2="297.899" gradientUnits="userSpaceOnUse">
<stop stop-color="#FBC3AA"/>
<stop offset="0.26" stop-color="#FCCFC6"/>
<stop offset="0.34" stop-color="#FCD4D1"/>
<stop offset="0.7" stop-color="#FDDED0"/>
<stop offset="1" stop-color="#FEE3CC"/>
</linearGradient>
<linearGradient id="paint1_linear_321_658" x1="79.7238" y1="332.839" x2="119.027" y2="335.25" gradientUnits="userSpaceOnUse">
<stop stop-color="#72B3AC"/>
<stop offset="0.6" stop-color="#689AA1"/>
<stop offset="1" stop-color="#4F80A1"/>
</linearGradient>
<linearGradient id="paint2_linear_321_658" x1="101.284" y1="327.251" x2="118.66" y2="328.316" gradientUnits="userSpaceOnUse">
<stop stop-color="#FBC3AA"/>
<stop offset="0.26" stop-color="#FCCFC6"/>
<stop offset="0.34" stop-color="#FCD4D1"/>
<stop offset="0.7" stop-color="#FDDED0"/>
<stop offset="1" stop-color="#FEE3CC"/>
</linearGradient>
<linearGradient id="paint3_linear_321_658" x1="151.282" y1="336.076" x2="134.719" y2="339.042" gradientUnits="userSpaceOnUse">
<stop stop-color="#FEE3CC"/>
<stop offset="0.3" stop-color="#FDDED0"/>
<stop offset="0.66" stop-color="#FCD4D1"/>
<stop offset="0.74" stop-color="#FCCFC6"/>
<stop offset="1" stop-color="#FBC3AA"/>
</linearGradient>
<linearGradient id="paint4_linear_321_658" x1="178.141" y1="374.502" x2="138.764" y2="376.471" gradientUnits="userSpaceOnUse">
<stop stop-color="#72B3AC"/>
<stop offset="0.6" stop-color="#689AA1"/>
<stop offset="1" stop-color="#4F80A1"/>
</linearGradient>
<linearGradient id="paint5_linear_321_658" x1="156.62" y1="368.68" x2="139.211" y2="369.55" gradientUnits="userSpaceOnUse">
<stop stop-color="#FEE3CC"/>
<stop offset="0.3" stop-color="#FDDED0"/>
<stop offset="0.66" stop-color="#FCD4D1"/>
<stop offset="0.74" stop-color="#FCCFC6"/>
<stop offset="1" stop-color="#FBC3AA"/>
</linearGradient>
<linearGradient id="paint6_linear_321_658" x1="133.651" y1="149.751" x2="215.472" y2="97.926" gradientUnits="userSpaceOnUse">
<stop stop-color="#553730"/>
<stop offset="0.25" stop-color="#593A2E"/>
<stop offset="0.35" stop-color="#5D3C2C"/>
<stop offset="0.55" stop-color="#68432A"/>
<stop offset="0.65" stop-color="#6F4729"/>
<stop offset="0.97" stop-color="#7A4E2F"/>
</linearGradient>
<linearGradient id="paint7_linear_321_658" x1="91.0975" y1="180.478" x2="-1.34183" y2="116.221" gradientUnits="userSpaceOnUse">
<stop stop-color="#513134"/>
<stop offset="0.99" stop-color="#553730"/>
</linearGradient>
<linearGradient id="paint8_linear_321_658" x1="89.6527" y1="224.648" x2="97.5335" y2="155.912" gradientUnits="userSpaceOnUse">
<stop stop-color="#F05355"/>
<stop offset="0.41" stop-color="#F15652"/>
<stop offset="0.71" stop-color="#F2665C"/>
<stop offset="0.94" stop-color="#F37065"/>
</linearGradient>
<linearGradient id="paint9_linear_321_658" x1="213.212" y1="148.454" x2="133.488" y2="164.384" gradientUnits="userSpaceOnUse">
<stop stop-color="#F05355"/>
<stop offset="0.41" stop-color="#F15652"/>
<stop offset="0.71" stop-color="#F2665C"/>
<stop offset="0.94" stop-color="#F37065"/>
</linearGradient>
<linearGradient id="paint10_linear_321_658" x1="98.381" y1="128.043" x2="117.889" y2="183.415" gradientUnits="userSpaceOnUse">
<stop stop-color="#F05355"/>
<stop offset="0.33" stop-color="#F15652"/>
<stop offset="0.63" stop-color="#F2665C"/>
<stop offset="0.94" stop-color="#F37065"/>
</linearGradient>
<linearGradient id="paint11_linear_321_658" x1="116.69" y1="150.586" x2="123.357" y2="198.718" gradientUnits="userSpaceOnUse">
<stop stop-color="#FBC3AA"/>
<stop offset="0.54" stop-color="#FCD7C6"/>
<stop offset="0.7" stop-color="#FDDED0"/>
<stop offset="1" stop-color="#FEE3CC"/>
</linearGradient>
<linearGradient id="paint12_linear_321_658" x1="102.885" y1="207.132" x2="180.957" y2="278.3" gradientUnits="userSpaceOnUse">
<stop stop-color="#6FA1CC"/>
<stop offset="0.32" stop-color="#7DB7D1"/>
<stop offset="0.53" stop-color="#89C5D2"/>
<stop offset="0.75" stop-color="#97D1CB"/>
<stop offset="1" stop-color="#A5D9CC"/>
</linearGradient>
<linearGradient id="paint13_linear_321_658" x1="30.0434" y1="125.034" x2="46.7974" y2="121.613" gradientUnits="userSpaceOnUse">
<stop stop-color="#FBC3AA"/>
<stop offset="0.32" stop-color="#FCCFC6"/>
<stop offset="0.43" stop-color="#FCD4D1"/>
<stop offset="1" stop-color="#FDDED0"/>
</linearGradient>
<linearGradient id="paint14_linear_321_658" x1="37.6841" y1="94.1368" x2="170.702" y2="96.9232" gradientUnits="userSpaceOnUse">
<stop stop-color="#FBC3AA"/>
<stop offset="0.26" stop-color="#FCCFC6"/>
<stop offset="0.34" stop-color="#FCD4D1"/>
<stop offset="0.7" stop-color="#FDDED0"/>
<stop offset="1" stop-color="#FEE3CC"/>
</linearGradient>
<linearGradient id="paint15_linear_321_658" x1="27.6356" y1="66.4602" x2="115.805" y2="48.4578" gradientUnits="userSpaceOnUse">
<stop stop-color="#513134"/>
<stop offset="0.99" stop-color="#553730"/>
</linearGradient>
<linearGradient id="paint16_linear_321_658" x1="156.223" y1="125.873" x2="106.889" y2="22.6158" gradientUnits="userSpaceOnUse">
<stop offset="0.17" stop-color="#6F4729"/>
<stop offset="0.33" stop-color="#68432A"/>
<stop offset="0.65" stop-color="#5D3C2C"/>
<stop offset="0.75" stop-color="#593A2E"/>
<stop offset="1" stop-color="#553730"/>
</linearGradient>
<linearGradient id="paint17_linear_321_658" x1="106.035" y1="67.5992" x2="135.745" y2="67.5992" gradientUnits="userSpaceOnUse">
<stop stop-color="#513134"/>
<stop offset="0.99" stop-color="#553730"/>
</linearGradient>
<linearGradient id="paint18_linear_321_658" x1="49.8809" y1="76.5694" x2="22.5481" y2="87.859" gradientUnits="userSpaceOnUse">
<stop stop-color="#513134"/>
<stop offset="0.99" stop-color="#553730"/>
</linearGradient>
<linearGradient id="paint19_linear_321_658" x1="100.545" y1="134.719" x2="133.363" y2="129.083" gradientUnits="userSpaceOnUse">
<stop stop-color="#A82823"/>
<stop offset="0.38" stop-color="#8C2B22"/>
<stop offset="0.39" stop-color="#8B2B22"/>
<stop offset="1" stop-color="#852D1E"/>
</linearGradient>
<linearGradient id="paint20_linear_321_658" x1="104.531" y1="138.966" x2="132.422" y2="140.584" gradientUnits="userSpaceOnUse">
<stop stop-color="#F1637F"/>
<stop offset="0.49" stop-color="#F37F95"/>
<stop offset="1" stop-color="#F6A2B0"/>
</linearGradient>
<linearGradient id="paint21_linear_321_658" x1="45.4556" y1="125.103" x2="56.6259" y2="149.306" gradientUnits="userSpaceOnUse">
<stop stop-color="#FEE3CC"/>
<stop offset="0.3" stop-color="#FDDED0"/>
<stop offset="0.66" stop-color="#FCD4D1"/>
<stop offset="0.74" stop-color="#FCCFC6"/>
<stop offset="1" stop-color="#FBC3AA"/>
</linearGradient>
<linearGradient id="paint22_linear_321_658" x1="33.2949" y1="149.616" x2="26.3309" y2="129.297" gradientUnits="userSpaceOnUse">
<stop stop-color="#FEE3CC"/>
<stop offset="0.3" stop-color="#FDDED0"/>
<stop offset="0.66" stop-color="#FCD4D1"/>
<stop offset="0.74" stop-color="#FCCFC6"/>
<stop offset="1" stop-color="#FBC3AA"/>
</linearGradient>
<linearGradient id="paint23_linear_321_658" x1="29.6656" y1="150.827" x2="22.7012" y2="130.525" gradientUnits="userSpaceOnUse">
<stop stop-color="#FEE3CC"/>
<stop offset="0.3" stop-color="#FDDED0"/>
<stop offset="0.66" stop-color="#FCD4D1"/>
<stop offset="0.74" stop-color="#FCCFC6"/>
<stop offset="1" stop-color="#FBC3AA"/>
</linearGradient>
<linearGradient id="paint24_linear_321_658" x1="34.4768" y1="138.789" x2="30.831" y2="124.426" gradientUnits="userSpaceOnUse">
<stop stop-color="#FEE3CC"/>
<stop offset="0.3" stop-color="#FDDED0"/>
<stop offset="0.66" stop-color="#FCD4D1"/>
<stop offset="0.74" stop-color="#FCCFC6"/>
<stop offset="1" stop-color="#FBC3AA"/>
</linearGradient>
<linearGradient id="paint25_linear_321_658" x1="40.0762" y1="137.956" x2="33.1118" y2="117.654" gradientUnits="userSpaceOnUse">
<stop stop-color="#FEE3CC"/>
<stop offset="0.3" stop-color="#FDDED0"/>
<stop offset="0.66" stop-color="#FCD4D1"/>
<stop offset="0.74" stop-color="#FCCFC6"/>
<stop offset="1" stop-color="#FBC3AA"/>
</linearGradient>
<linearGradient id="paint26_linear_321_658" x1="68.3724" y1="134.285" x2="75.706" y2="138.499" gradientUnits="userSpaceOnUse">
<stop stop-color="#F15652"/>
<stop offset="0.48" stop-color="#F2665C"/>
<stop offset="0.94" stop-color="#F37065"/>
</linearGradient>
<linearGradient id="paint27_linear_321_658" x1="74.8125" y1="224.814" x2="18.1873" y2="196.926" gradientUnits="userSpaceOnUse">
<stop stop-color="#F05355"/>
<stop offset="0.41" stop-color="#F15652"/>
<stop offset="0.71" stop-color="#F2665C"/>
<stop offset="0.94" stop-color="#F37065"/>
</linearGradient>
<linearGradient id="paint28_linear_321_658" x1="189.631" y1="156.204" x2="223.45" y2="102.136" gradientUnits="userSpaceOnUse">
<stop stop-color="#F05355"/>
<stop offset="0.41" stop-color="#F15652"/>
<stop offset="0.71" stop-color="#F2665C"/>
<stop offset="0.94" stop-color="#F37065"/>
</linearGradient>
<linearGradient id="paint29_linear_321_658" x1="177.536" y1="80.0797" x2="199.606" y2="87.5663" gradientUnits="userSpaceOnUse">
<stop stop-color="#FEE3CC"/>
<stop offset="0.3" stop-color="#FDDED0"/>
<stop offset="0.66" stop-color="#FCD4D1"/>
<stop offset="0.74" stop-color="#FCCFC6"/>
<stop offset="1" stop-color="#FBC3AA"/>
</linearGradient>
</defs>
</svg>
