<svg width="73" height="72" viewBox="0 0 73 72" fill="none" xmlns="http://www.w3.org/2000/svg">
<path d="M40.0936 61.8254C55.5509 61.8254 68.0816 49.2947 68.0816 33.8373C68.0816 18.3799 55.5509 5.84924 40.0936 5.84924C24.6362 5.84924 12.1055 18.3799 12.1055 33.8373C12.1055 49.2947 24.6362 61.8254 40.0936 61.8254Z" fill="#9ED6CA"/>
<mask id="mask0_1113_8384" style="mask-type:luminance" maskUnits="userSpaceOnUse" x="12" y="5" width="57" height="57">
<path d="M40.0936 61.8254C55.5509 61.8254 68.0816 49.2947 68.0816 33.8373C68.0816 18.3799 55.5509 5.84924 40.0936 5.84924C24.6362 5.84924 12.1055 18.3799 12.1055 33.8373C12.1055 49.2947 24.6362 61.8254 40.0936 61.8254Z" fill="white"/>
</mask>
<g mask="url(#mask0_1113_8384)">
<path d="M30.9077 26.9863C30.9077 26.9863 28.2802 19.9991 23.6869 20.7776C19.0935 21.5561 18.7043 25.7407 21.1566 29.3803C21.1566 29.3803 14.9089 30.9958 16.1157 36.2898C16.3035 37.1723 16.8092 37.9551 17.5365 38.4891C18.3891 39.0093 19.3553 39.3147 20.352 39.3791C21.3487 39.4435 22.3462 39.265 23.2587 38.8589C23.2587 38.8589 20.5727 42.7515 26.7231 44.912C32.8735 47.0724 38.3037 30.626 38.3037 30.626L30.9077 26.9863Z" fill="url(#paint0_linear_1113_8384)"/>
<path d="M45.6801 30.9762C45.6801 30.9762 46.9842 23.5802 51.6359 23.5802C56.2876 23.5802 57.4748 27.4728 55.7037 31.5796C55.7037 31.5796 62.146 32.0272 61.9124 37.4185C61.8845 38.3242 61.5161 39.1859 60.8809 39.832C60.1429 40.4973 59.2538 40.9727 58.2906 41.2169C57.3274 41.4611 56.3192 41.4667 55.3533 41.2333C55.3533 41.2333 58.7399 44.581 53.0956 47.8119C47.4513 51.0428 39.1016 35.9199 39.1016 35.9199L45.6801 30.9762Z" fill="url(#paint1_linear_1113_8384)"/>
<path d="M38.5383 61.2805L37.3705 76.6953L36.0081 75.8L33.8477 60.7744L38.5383 61.2805Z" fill="url(#paint2_linear_1113_8384)"/>
<path d="M34.84 57.855L35.9884 66.9443C36.0183 67.0724 36.0183 67.2056 35.9884 67.3336L33.3998 75.1189H31.4534L32.9326 67.6061C32.9424 67.509 32.9424 67.4112 32.9326 67.3141L31.2783 58.3611C31.2395 58.1038 31.256 57.8413 31.3267 57.591C31.3974 57.3406 31.5206 57.1082 31.6883 56.9093C31.8559 56.7104 32.064 56.5495 32.2987 56.4374C32.5334 56.3252 32.7894 56.2644 33.0494 56.259C33.4913 56.2607 33.9172 56.4239 34.247 56.7179C34.5769 57.0118 34.7878 57.4163 34.84 57.855Z" fill="url(#paint3_linear_1113_8384)"/>
<path d="M53.584 58.7114V59.4315C53.5825 59.504 53.5641 59.5752 53.5304 59.6394C53.4966 59.7036 53.4483 59.759 53.3894 59.8013L51.9297 60.7745C51.8572 60.8214 51.7727 60.8463 51.6864 60.8463C51.6 60.8463 51.5155 60.8214 51.4431 60.7745L50.8008 60.3073L51.5988 58.5167L53.584 58.7114Z" fill="url(#paint4_linear_1113_8384)"/>
<path d="M41.8673 40.2992C41.8673 40.2992 53.7593 44.0556 53.7398 58.6725C53.7383 58.7148 53.727 58.7561 53.7067 58.7933C53.6865 58.8305 53.6578 58.8624 53.6231 58.8866L51.015 60.5604C50.9397 60.5888 50.8567 60.5888 50.7814 60.5604C49.7499 60.0738 42.529 56.3369 40.4854 44.5422C40.4854 44.4838 37.8968 40.2992 41.8673 40.2992Z" fill="url(#paint5_linear_1113_8384)"/>
<path d="M41.8074 40.3381L42.3913 40.5717C42.696 40.6932 42.9523 40.9114 43.1211 41.1926C43.2898 41.4739 43.3617 41.8027 43.3255 42.1288L42.1772 51.7046L31.4141 49.7583L32.4651 39.1509L41.8074 40.3381Z" fill="url(#paint6_linear_1113_8384)"/>
<path d="M42.2921 37.5937L41.8639 40.2212C41.498 40.8988 40.9598 41.4679 40.3037 41.8711C39.6477 42.2743 38.8968 42.4974 38.127 42.5179C37.2337 42.4441 36.3836 42.1015 35.6888 41.5352C34.9939 40.9689 34.4869 40.2054 34.2344 39.3454L34.5458 36.5232L42.2921 37.5937Z" fill="url(#paint7_linear_1113_8384)"/>
<path d="M52.2586 31.7159C52.2586 31.7159 52.1418 28.8158 53.6794 28.9132C54.2282 29.0742 54.7102 29.4087 55.0531 29.8666C55.3959 30.3245 55.5812 30.8811 55.5812 31.4531C55.5812 32.0251 55.3959 32.5818 55.0531 33.0396C54.7102 33.4975 54.2282 33.832 53.6794 33.9931C53.487 34.0826 53.2747 34.1208 53.0632 34.1037C52.8516 34.0867 52.6482 34.015 52.4726 33.8957C52.0639 33.6038 51.7525 32.981 52.2586 31.7159Z" fill="url(#paint8_linear_1113_8384)"/>
<path d="M36.882 39.3259L39.1397 39.7152C40.8537 40.0144 42.6097 39.9728 44.3075 39.5926C46.0053 39.2125 47.6115 38.5014 49.0342 37.4999C50.4569 36.4984 51.6682 35.2262 52.5987 33.7562C53.5293 32.2861 54.1608 30.647 54.4573 28.9326L54.7687 27.1614C55.3166 23.9616 54.5731 20.6751 52.7014 18.0226C50.8297 15.37 47.9825 13.568 44.7841 13.0117L40.8914 12.3305C39.3053 12.0538 37.6801 12.0926 36.109 12.4449C34.5379 12.7972 33.0517 13.4559 31.7355 14.3833C30.4193 15.3108 29.299 16.4888 28.4388 17.8499C27.5785 19.2109 26.9952 20.7283 26.7222 22.3151L26.5665 23.1131C26.4205 24.0025 26.4205 24.9097 26.5665 25.799C27.9289 34.1487 30.2256 38.1776 36.882 39.3259Z" fill="url(#paint9_linear_1113_8384)"/>
<path d="M20.7099 56.6677L20.0287 56.9208C19.9655 56.9532 19.8954 56.9701 19.8243 56.9701C19.7533 56.9701 19.6832 56.9532 19.62 56.9208L18.2186 55.8697C18.1518 55.8097 18.1022 55.733 18.0749 55.6475C18.0475 55.562 18.0434 55.4708 18.0629 55.3832L18.2965 54.6436L20.2428 54.8187L20.7099 56.6677Z" fill="url(#paint10_linear_1113_8384)"/>
<path d="M33.4754 40.5717C33.4007 44.2703 32.1211 47.8435 29.8307 50.7486C27.5403 53.6538 24.3644 55.732 20.7854 56.6678C20.7101 56.6961 20.6271 56.6961 20.5518 56.6678L18.0605 54.7214C18.0261 54.7016 17.9973 54.6733 17.9769 54.6393C17.9564 54.6052 17.945 54.5665 17.9437 54.5268C17.8464 53.3201 18.7806 45.1455 28.6096 39.9294C29.6226 39.4149 30.7432 39.1481 31.8794 39.1509C32.0778 39.1377 32.2769 39.1642 32.465 39.2287C32.6531 39.2933 32.8265 39.3946 32.9751 39.5269C33.1236 39.6591 33.2443 39.8196 33.3302 39.999C33.4161 40.1784 33.4655 40.373 33.4754 40.5717Z" fill="#F37065"/>
<path d="M43.3648 40.7857L41.9829 40.2991C41.8077 40.2991 41.8077 40.2991 41.691 40.4353L40.893 45.8267C40.8858 45.8831 40.8675 45.9376 40.839 45.9868C40.8106 46.0361 40.7726 46.0792 40.7273 46.1137C40.682 46.1481 40.6303 46.1731 40.5752 46.1874C40.5201 46.2016 40.4627 46.2047 40.4064 46.1965L34.003 45.126C33.8963 45.1069 33.8009 45.0481 33.7359 44.9614C33.6709 44.8747 33.6411 44.7666 33.6527 44.6589L34.1976 39.4038C34.1957 39.3692 34.1836 39.3359 34.1629 39.3082C34.1421 39.2805 34.1135 39.2596 34.0809 39.2481L32.5822 39.1508C32.5617 39.1481 32.5409 39.1494 32.521 39.1548C32.501 39.1602 32.4824 39.1695 32.4661 39.1822C32.4498 39.1949 32.4362 39.2107 32.426 39.2287C32.4159 39.2467 32.4094 39.2665 32.407 39.287L31.9204 44.9897C31.5475 46.991 30.9669 48.9479 30.1882 50.8287C29.5185 52.9947 28.1922 54.8991 26.3929 56.2784C25.5826 56.7857 24.737 57.2346 23.8627 57.6214C23.8098 57.6496 23.7655 57.6916 23.7347 57.7431C23.7038 57.7945 23.6875 57.8533 23.6875 57.9133C23.6875 57.9733 23.7038 58.0321 23.7347 58.0835C23.7655 58.135 23.8098 58.177 23.8627 58.2053L30.1104 61.5918C30.159 61.6253 30.2167 61.6432 30.2758 61.6432C30.3349 61.6432 30.3926 61.6253 30.4412 61.5918L30.9862 61.1247V61.7476C30.98 61.8191 31.0004 61.8904 31.0435 61.9479C31.0866 62.0053 31.1493 62.0449 31.2198 62.059L38.499 63.7912C38.5636 63.8068 38.6317 63.7999 38.6918 63.7716C38.752 63.7432 38.8007 63.6952 38.8299 63.6355L39.1802 62.9737L39.4332 63.5771C39.4584 63.6367 39.5027 63.6862 39.559 63.7179C39.6154 63.7496 39.6807 63.7617 39.7446 63.7523L45.0581 63.2657C45.1109 63.2611 45.1618 63.2439 45.2066 63.2156C45.2514 63.1872 45.2887 63.1485 45.3154 63.1028C45.3421 63.057 45.3574 63.0054 45.3601 62.9525C45.3627 62.8996 45.3526 62.8468 45.3306 62.7986L43.1702 58.3415C42.42 56.4901 42.0813 54.4978 42.1775 52.5025L42.7031 47.3448L43.6373 41.0971C43.6399 41.0587 43.635 41.0202 43.6227 40.9838C43.6104 40.9474 43.5911 40.9137 43.5657 40.8848C43.5404 40.8558 43.5096 40.8322 43.4752 40.8152C43.4407 40.7982 43.4032 40.7882 43.3648 40.7857Z" fill="url(#paint11_linear_1113_8384)"/>
<path d="M42.0234 52.0548C40.1307 52.5518 38.1532 52.6351 36.2254 52.2993C34.2976 51.9634 32.4647 51.2162 30.8516 50.1085C32.4929 51.1548 34.3252 51.8655 36.2427 52.1996C38.1603 52.5336 40.125 52.4845 42.0234 52.0548Z" fill="#3884C5"/>
<path d="M33.0473 55.7725C32.7485 57.6713 32.0304 59.4798 30.9453 61.0664C31.9057 59.4163 32.6142 57.632 33.0473 55.7725Z" fill="#3884C5"/>
<path d="M38.6562 56.9402C39.0565 58.859 39.194 60.8233 39.065 62.7791C39.0465 60.8264 38.9101 58.8765 38.6562 56.9402Z" fill="#3884C5"/>
<path d="M41.7096 28.3293C41.8493 28.8914 41.9405 29.4644 41.9821 30.0421V29.9059C42.2423 30.153 42.483 30.4198 42.7023 30.7039C43.1499 31.5602 41.8264 31.6576 41.3398 31.8911C41.5929 31.6381 42.1573 31.2683 42.3909 31.0737C42.4011 31.0559 42.4065 31.0358 42.4065 31.0153C42.4065 30.9948 42.4011 30.9746 42.3909 30.9569C42.1179 30.6967 41.8642 30.4169 41.6318 30.12C41.6159 29.5191 41.6682 28.9184 41.7875 28.3293H41.7096Z" fill="#EC977E"/>
<path d="M47.968 28.7286C48.2616 27.0339 47.6325 25.5099 46.5627 25.3246C45.493 25.1392 44.3878 26.3627 44.0942 28.0573C43.8005 29.752 44.4297 31.276 45.4994 31.4613C46.5692 31.6467 47.6744 30.4232 47.968 28.7286Z" fill="white"/>
<path d="M47.7647 29.4192C48.0566 27.7259 47.4338 26.2078 46.3633 26.0131C45.2929 25.8185 44.6116 26.636 44.1445 27.8232C44.4949 26.2467 45.5459 25.1568 46.558 25.3319C47.5701 25.5071 48.2707 27.0447 47.9788 28.738C47.9151 29.0483 47.8306 29.3539 47.7258 29.6528C47.7258 29.6528 47.7452 29.4192 47.7647 29.4192Z" fill="#1D1230"/>
<path d="M48.8132 26.0909C48.8132 26.0909 48.3266 26.9473 47.8984 26.7527V27.5312C48.1661 27.3952 48.3922 27.1898 48.5531 26.9364C48.7141 26.683 48.8039 26.391 48.8132 26.0909Z" fill="#1D1230"/>
<path d="M47.2066 29.8217C47.3681 28.8897 47.0268 28.0523 46.4443 27.9513C45.8617 27.8504 45.2586 28.5241 45.0971 29.4562C44.9356 30.3882 45.2769 31.2256 45.8594 31.3266C46.442 31.4275 47.0451 30.7537 47.2066 29.8217Z" fill="#1D1230"/>
<path d="M39.7493 27.4803C40.0429 25.7856 39.4137 24.2616 38.344 24.0763C37.2743 23.8909 36.169 25.1144 35.8754 26.8091C35.5818 28.5037 36.2109 30.0277 37.2807 30.2131C38.3504 30.3984 39.4556 29.1749 39.7493 27.4803Z" fill="white"/>
<path d="M39.1363 28.436C39.2978 27.5039 38.9565 26.6665 38.374 26.5656C37.7914 26.4647 37.1883 27.1384 37.0268 28.0704C36.8653 29.0025 37.2066 29.8399 37.7891 29.9408C38.3717 30.0417 38.9748 29.368 39.1363 28.436Z" fill="#1D1230"/>
<path d="M35.83 27.4728C36.0246 25.7405 37.0562 24.4365 38.1461 24.5533C39.236 24.6701 39.6837 25.6238 39.8005 26.9083C39.8005 25.2929 39.1777 23.9305 38.1266 23.8137C37.0756 23.6969 36.0052 25.0204 35.83 26.7526C35.791 27.0758 35.791 27.4026 35.83 27.7258V27.4728Z" fill="#1D1230"/>
<path d="M35.7334 23.9305C35.7334 23.9305 35.9865 24.9037 36.4536 24.8258L36.1616 25.5265C35.9583 25.3203 35.8119 25.0648 35.7369 24.7851C35.6618 24.5053 35.6606 24.2109 35.7334 23.9305Z" fill="#1D1230"/>
<path d="M54.9249 24.8065C54.9249 24.8065 58.9732 12.603 45.5241 8.86609L44.6094 16.0285C45.0215 18.4714 46.2817 20.6908 48.1684 22.2963C50.0551 23.9018 52.4475 24.7906 54.9249 24.8065Z" fill="#F7B4B7"/>
<path d="M46.5752 10.4425C46.5752 10.4425 48.6577 17.0406 42.9161 19.0064C41.3302 19.3325 39.6945 19.3325 38.1087 19.0064C35.3449 18.5003 31.0241 19.4735 29.9925 22.2762C29.5011 23.8032 28.7578 25.2374 27.7932 26.5191C27.7932 26.5191 22.869 11.5325 35.4033 7.62038C46.653 4.117 46.5752 10.4425 46.5752 10.4425Z" fill="#F7B4B7"/>
<path d="M44.3935 32.9421C42.1793 33.1057 39.9592 32.7179 37.9317 31.8132C37.7987 32.4811 37.8498 33.1726 38.0795 33.8137C38.3092 34.4548 38.7089 35.0214 39.2357 35.4529C39.6225 35.7224 40.0684 35.8949 40.5359 35.9559C41.0034 36.0169 41.4787 35.9645 41.9216 35.8032C42.5519 35.591 43.1137 35.2136 43.5485 34.7104C43.9832 34.2071 44.275 33.5965 44.3935 32.9421Z" fill="url(#paint12_linear_1113_8384)"/>
<mask id="mask1_1113_8384" style="mask-type:luminance" maskUnits="userSpaceOnUse" x="37" y="31" width="8" height="5">
<path d="M44.3935 32.9421C42.1793 33.1057 39.9592 32.7179 37.9317 31.8132C37.7987 32.4811 37.8498 33.1726 38.0795 33.8137C38.3092 34.4548 38.7089 35.0214 39.2357 35.4529C39.6225 35.7224 40.0684 35.8949 40.5359 35.9559C41.0034 36.0169 41.4787 35.9645 41.9216 35.8032C42.5519 35.591 43.1137 35.2136 43.5485 34.7104C43.9832 34.2071 44.275 33.5965 44.3935 32.9421Z" fill="white"/>
</mask>
<g mask="url(#mask1_1113_8384)">
<path d="M42.0966 35.7448C42.0966 35.7448 41.7463 32.6891 37.9704 33.526C34.1946 34.3629 39.0604 38.7421 42.0966 35.7448Z" fill="url(#paint13_linear_1113_8384)"/>
</g>
<path d="M54.9256 24.8064C54.9256 24.8064 59.9277 11.8245 45.739 8.12646L44.8242 15.2889C44.8242 15.2889 45.5249 22.8017 54.9256 24.8064Z" fill="url(#paint14_linear_1113_8384)"/>
<path d="M29.4481 21.9453C29.4481 21.9453 27.8715 26.4218 28.5138 28.2319C28.5138 28.2319 27.5017 27.9594 27.1709 25.5071C27.1409 24.7518 27.3432 24.0055 27.7503 23.3687C28.1575 22.7319 28.75 22.2351 29.4481 21.9453Z" fill="#6F4729"/>
<path d="M47.4136 11.3184C47.7403 12.9151 47.442 14.5763 46.5801 15.9596C45.7183 17.3429 44.3586 18.3428 42.7814 18.7533C41.1822 19.0145 39.5467 18.9483 37.974 18.5587C35.2296 17.9164 30.8699 18.6755 29.7021 21.4003C28.8888 23.1749 27.82 24.8208 26.5296 26.2856C26.5296 26.2856 23.1041 10.209 35.8135 6.9781C47.2579 4.11701 47.4136 11.3184 47.4136 11.3184Z" fill="url(#paint15_linear_1113_8384)"/>
<path d="M27.2292 27.4729C27.2292 27.4729 27.7158 24.6118 26.1587 24.5339C25.6012 24.6325 25.0901 24.9072 24.7003 25.3177C24.3104 25.7282 24.0625 26.2529 23.9928 26.8147C23.9231 27.3765 24.0354 27.9458 24.3131 28.4391C24.5908 28.9324 25.0194 29.3237 25.5359 29.5554C25.7216 29.665 25.9333 29.7228 26.149 29.7228C26.3646 29.7228 26.5763 29.665 26.7621 29.5554C27.1902 29.4192 27.5795 28.8548 27.2292 27.4729Z" fill="#FEE3CC"/>
<path d="M25.2227 26.305C26.4099 25.9352 26.3904 27.6674 26.1374 28.4265C25.9469 28.0288 25.8283 27.6005 25.7871 27.1614C25.8127 26.9745 25.7696 26.7846 25.6658 26.6271C25.562 26.4696 25.4045 26.3552 25.2227 26.305Z" fill="#EC977E"/>
<path d="M25.4961 27.3172C25.6518 27.0058 25.8464 26.9669 26.0411 27.3172C25.9048 27.6286 25.7102 27.6481 25.4961 27.3172Z" fill="#EC977E"/>
<path d="M34.0232 23.3078C34.4245 23.0504 34.8404 22.8164 35.2688 22.6071C35.4739 22.4965 35.689 22.4052 35.9111 22.3346C36.93 21.9516 37.9982 21.7157 39.0836 21.634C39.2651 21.6437 39.447 21.6437 39.6286 21.634C39.8427 21.634 39.9594 20.9333 39.8232 20.7776C39.687 20.6219 38.8306 20.7776 38.3245 20.7776C38.0404 20.7547 37.7547 20.7946 37.4876 20.8944L36.7091 21.2058C36.4561 21.3225 36.203 21.4393 35.9695 21.5756C35.7414 21.7134 35.5205 21.8628 35.3077 22.0232C34.8217 22.3228 34.3655 22.6683 33.9453 23.0548L34.0232 23.3078Z" fill="#FBC3AA"/>
<path d="M33.9255 23.191C34.2953 22.938 34.5483 22.7823 35.0154 22.5098L35.6967 22.1789C36.7666 21.7026 37.9014 21.3877 39.0638 21.2447C39.239 21.2447 39.4531 21.2447 39.6477 21.2447C39.6967 21.2389 39.7432 21.2199 39.7823 21.1897C39.8214 21.1595 39.8515 21.1193 39.8695 21.0734C39.8875 21.0274 39.8926 20.9774 39.8844 20.9287C39.8762 20.8801 39.8549 20.8345 39.8229 20.797C39.5114 20.3883 38.7524 20.3883 38.2074 20.3688C37.9003 20.3668 37.5958 20.4263 37.3121 20.544L36.4752 20.9333L35.7161 21.3809C35.4826 21.5561 35.249 21.7312 35.0349 21.9259C34.5908 22.2922 34.1922 22.7104 33.8477 23.1715L33.9255 23.191Z" fill="url(#paint16_linear_1113_8384)"/>
<path d="M50.4683 25.1957C50.1569 24.9232 49.7871 24.5728 49.3978 24.2809C49.2091 24.1328 49.0072 24.0025 48.7945 23.8916C47.8743 23.3119 46.8697 22.8786 45.8166 22.607C45.6609 22.607 45.4663 22.607 45.2911 22.4903C45.1159 22.3735 45.0965 21.7312 45.2911 21.595C45.4857 21.4587 46.2448 21.848 46.7509 21.9258C47.0315 21.9662 47.3021 22.0586 47.5488 22.1983C47.8019 22.3346 48.0354 22.4903 48.269 22.646L48.9113 23.152L49.4757 23.7164C49.898 24.1019 50.2766 24.5327 50.6046 25.001L50.4683 25.1957Z" fill="#FBC3AA"/>
<path d="M50.5849 25.1178C50.2917 24.807 49.9797 24.5145 49.6507 24.2419C49.463 24.0696 49.2611 23.9134 49.0473 23.7748C48.0819 23.1098 47.0268 22.5855 45.9137 22.2178C45.758 22.2178 45.5245 22.2178 45.3493 22.0815C45.3108 22.0597 45.2781 22.0289 45.2542 21.9917C45.2303 21.9545 45.2158 21.912 45.212 21.8679C45.2081 21.8239 45.2151 21.7795 45.2322 21.7387C45.2494 21.698 45.2762 21.662 45.3104 21.6339C45.6802 21.303 46.4392 21.4392 46.9647 21.5366C47.268 21.5937 47.5582 21.7058 47.8211 21.8674L48.5607 22.4124C48.7943 22.5876 49.0084 22.8017 49.2225 22.9963C49.4366 23.1909 49.6117 23.4245 49.7869 23.658C50.156 24.0981 50.4698 24.5818 50.7211 25.0983L50.5849 25.1178Z" fill="url(#paint17_linear_1113_8384)"/>
<path d="M59.2461 57.8354C60.3606 58.0141 61.5025 57.8932 62.5548 57.4851L62.7495 57.7965C61.6372 58.1809 60.4594 58.3397 59.285 58.2636L59.2461 57.8354Z" fill="url(#paint18_linear_1113_8384)"/>
<path d="M63.5861 58.0107C63.5861 58.0107 63.9364 58.0107 63.8002 57.6993C63.7779 57.6639 63.7457 57.6359 63.7077 57.6186C63.6697 57.6013 63.6274 57.5955 63.5861 57.602H63.8002C63.8566 57.5842 63.9051 57.5472 63.9371 57.4974C63.9691 57.4476 63.9826 57.3882 63.9754 57.3295C63.9641 57.2842 63.9396 57.2433 63.9049 57.212C63.8702 57.1808 63.827 57.1607 63.7807 57.1543C63.4888 57.1543 63.4499 57.1543 63.4499 57.1543C63.4499 57.1543 63.8002 56.9597 63.625 56.6872C63.4499 56.4147 62.866 57.0375 62.866 57.0375C62.866 57.0375 62.7103 56.3952 62.4183 56.4731C62.1264 56.551 62.5545 57.5046 62.5545 57.5046L62.7492 57.8161C62.9993 57.9708 63.2933 58.0392 63.5861 58.0107Z" fill="url(#paint19_linear_1113_8384)"/>
<path d="M63.4869 57.1154C63.4383 57.1673 63.3757 57.2041 63.3066 57.2214C63.2376 57.2387 63.165 57.2356 63.0977 57.2127C63.2342 57.22 63.3699 57.1861 63.4869 57.1154Z" fill="black"/>
<path d="M63.5844 57.6019C63.5168 57.6308 63.4439 57.6457 63.3703 57.6457C63.2968 57.6457 63.2239 57.6308 63.1562 57.6019C63.2983 57.6214 63.4424 57.6214 63.5844 57.6019Z" fill="black"/>
<path d="M41.6721 54.7213C40.5601 54.5125 39.5248 54.0083 38.6748 53.2616L38.3828 53.4952C39.2984 54.2382 40.3591 54.7818 41.4969 55.0911L41.6721 54.7213Z" fill="url(#paint20_linear_1113_8384)"/>
<path d="M52.375 46.1575C52.3272 45.566 52.455 44.9734 52.7423 44.4541C53.0297 43.9348 53.4638 43.5118 53.9904 43.2381C54.1016 43.1762 54.1944 43.0859 54.2593 42.9765C54.3243 42.8671 54.3591 42.7425 54.3602 42.6152C54.3602 42.3428 53.971 41.8562 53.1146 42.3038C51.577 43.0434 52.375 46.1575 52.375 46.1575Z" fill="#E9F4F1"/>
<path d="M52.7852 46.9361C52.914 46.3562 53.2091 45.8265 53.6342 45.4117C54.0594 44.9969 54.5963 44.715 55.1791 44.6005C55.3033 44.5762 55.4182 44.5178 55.511 44.4319C55.6038 44.3459 55.6709 44.2358 55.7046 44.1139C55.7046 43.8414 55.5684 43.277 54.6147 43.4716C52.9019 43.8804 52.7852 46.9361 52.7852 46.9361Z" fill="#E9F4F1"/>
<path d="M37.5252 53.4952C37.5252 53.4952 37.1749 53.3784 37.4084 53.1254C37.4421 53.1001 37.4831 53.0865 37.5252 53.0865C37.5673 53.0865 37.6083 53.1001 37.642 53.1254L37.5252 52.9697C37.4979 52.9223 37.4835 52.8686 37.4835 52.814C37.4835 52.7593 37.4979 52.7056 37.5252 52.6583C37.5604 52.6281 37.6053 52.6115 37.6517 52.6115C37.6981 52.6115 37.743 52.6281 37.7782 52.6583C38.0507 52.6583 38.0702 52.814 38.0702 52.814C38.0702 52.814 37.8171 52.5026 38.0702 52.3274C38.3232 52.1522 38.6735 52.9113 38.6735 52.9113C38.6735 52.9113 39.0433 52.3469 39.2963 52.522C39.5494 52.6972 38.8098 53.4368 38.8098 53.4368L38.5178 53.6703C38.3491 53.7096 38.1742 53.7143 38.0036 53.6842C37.833 53.6541 37.6703 53.5898 37.5252 53.4952Z" fill="url(#paint21_linear_1113_8384)"/>
<path d="M37.9141 52.775C38.0059 52.8761 38.1189 52.9559 38.2449 53.0086C38.1742 53.0018 38.1066 52.9766 38.0485 52.9357C37.9905 52.8947 37.9442 52.8393 37.9141 52.775Z" fill="black"/>
<path d="M37.6602 53.106C37.79 53.1688 37.9273 53.2146 38.0689 53.2422C37.9951 53.2485 37.9208 53.2396 37.8505 53.2162C37.7802 53.1928 37.7154 53.1553 37.6602 53.106Z" fill="black"/>
<path d="M50.4876 63.1489C55.5397 63.1489 59.6353 59.0534 59.6353 54.0012C59.6353 48.9491 55.5397 44.8535 50.4876 44.8535C45.4354 44.8535 41.3398 48.9491 41.3398 54.0012C41.3398 59.0534 45.4354 63.1489 50.4876 63.1489Z" fill="white" stroke="black" stroke-width="0.02" stroke-miterlimit="10"/>
<path d="M41.1073 56.8429C41.1837 56.5519 41.1863 56.2465 41.1149 55.9542C41.0435 55.662 40.9005 55.3921 40.6986 55.169C40.3677 54.7519 40.1319 54.2676 40.0075 53.7499C39.8831 53.2322 39.8732 52.6936 39.9785 52.1717C40.0311 51.5065 40.2737 50.8704 40.6774 50.339C41.0811 49.8077 41.6289 49.4034 42.2557 49.1744C42.4089 49.1122 42.5414 49.0079 42.6378 48.8736C42.7343 48.7393 42.7907 48.5804 42.8006 48.4153C42.7639 47.8931 42.8329 47.3688 43.0034 46.8739C43.174 46.3789 43.4426 45.9235 43.7933 45.5347C44.1855 45.237 44.6493 45.0478 45.1379 44.9863C45.6265 44.9248 46.1227 44.9931 46.5765 45.1844C46.7781 45.2698 47.0051 45.2727 47.2088 45.1927C47.4126 45.1126 47.5769 44.956 47.6664 44.7562C47.8064 44.4054 48.0336 44.0962 48.3265 43.8578C48.6195 43.6194 48.9684 43.4597 49.3403 43.3938C49.9466 43.3051 50.5657 43.3918 51.1244 43.6435C51.6831 43.8953 52.1581 44.3016 52.4933 44.8146C52.65 44.9834 52.8449 45.1121 53.0617 45.19C53.2784 45.2679 53.5107 45.2927 53.739 45.2623C54.3085 45.098 54.8979 45.0128 55.4906 45.0092C56.2313 44.9837 56.9609 45.1951 57.5732 45.6126C58.1439 46.0697 58.5795 46.6734 58.8332 47.3592C59.0869 48.0449 59.1492 48.7868 59.0135 49.5052C58.99 49.7446 59.0387 49.9855 59.1531 50.1971C59.2675 50.4086 59.4426 50.5811 59.6558 50.6925C60.4148 51.0818 61.4075 51.7824 61.2128 52.7945C61.089 53.4833 60.7639 54.1199 60.2786 54.6241C60.1017 54.8202 59.9928 55.0683 59.9683 55.3313C59.9437 55.5944 60.0048 55.8583 60.1423 56.0838C60.6009 56.9994 60.7538 58.0378 60.5786 59.0467C60.4035 60.0556 59.9095 60.9818 59.1692 61.6892C58.6302 62.2444 57.9527 62.6454 57.2067 62.8507C56.4607 63.056 55.6733 63.0582 54.9262 62.857C54.5822 62.8178 54.2348 62.8916 53.9364 63.0671C53.638 63.2426 53.4047 63.5105 53.2718 63.8302C53.1338 64.178 52.9288 64.4954 52.6685 64.7644C52.2843 64.9728 51.8411 65.0458 51.4104 64.9716C50.9796 64.8975 50.5864 64.6805 50.294 64.3557C50.0355 64.1149 49.7051 63.9654 49.3536 63.9303C49.0021 63.8951 48.6487 63.9762 48.3477 64.161C47.9028 64.4981 47.3674 64.6946 46.8101 64.7255C45.6617 64.7255 44.8637 64.161 44.8637 62.5845C44.8648 62.2333 44.7514 61.8913 44.5407 61.6104C44.3299 61.3294 44.0334 61.1248 43.6959 61.0275C43.2254 60.9736 42.7733 60.8139 42.3734 60.5602C41.9735 60.3065 41.6363 59.9654 41.3872 59.5627C41.1381 59.16 40.9834 58.706 40.935 58.2349C40.8865 57.7638 40.9454 57.2879 41.1073 56.8429Z" fill="url(#paint22_linear_1113_8384)"/>
<mask id="mask2_1113_8384" style="mask-type:luminance" maskUnits="userSpaceOnUse" x="49" y="53" width="3" height="3">
<path d="M49.6707 54.1764C49.6481 54.2788 49.6463 54.3847 49.6657 54.4878C49.685 54.5909 49.7249 54.6889 49.7831 54.7762C49.8413 54.8634 49.9165 54.938 50.0042 54.9955C50.0919 55.053 50.1903 55.0922 50.2935 55.1107C50.4995 55.1388 50.7084 55.0853 50.8756 54.9617C51.0428 54.8381 51.1552 54.6541 51.1888 54.4489C51.2294 54.2402 51.1871 54.0238 51.0708 53.8457C50.9546 53.6677 50.7735 53.5419 50.566 53.4952C50.357 53.4675 50.1456 53.5236 49.9779 53.6512C49.8101 53.7788 49.6997 53.9677 49.6707 54.1764Z" fill="white"/>
</mask>
<g mask="url(#mask2_1113_8384)">
<path d="M51.2849 53.9817L49.7084 53.7092C49.7084 53.7092 49.2996 55.0327 50.2923 55.169C51.2849 55.3052 51.2849 53.9817 51.2849 53.9817Z" fill="url(#paint23_linear_1113_8384)"/>
<path d="M50.5675 53.4174C50.5675 53.4174 49.7889 53.4174 49.75 53.7288L50.5091 53.8455L51.2487 53.9818C51.1937 53.8368 51.1021 53.7085 50.9827 53.6096C50.8632 53.5106 50.7202 53.4444 50.5675 53.4174Z" fill="white"/>
<path d="M50.314 55.208C50.1745 55.1812 50.0378 55.1421 49.9052 55.0912L49.6133 54.7214C49.6133 54.5463 49.6133 54.449 49.8858 54.449C49.9732 54.4403 50.0615 54.4496 50.1452 54.4764C50.2289 54.5031 50.3062 54.5468 50.3723 54.6047C50.4437 54.6774 50.4836 54.7753 50.4836 54.8772C50.4836 54.979 50.4437 55.0769 50.3723 55.1496L50.314 55.208Z" fill="url(#paint24_linear_1113_8384)"/>
</g>
<path d="M48.8119 52.8918C49.5214 52.8918 50.0965 52.3167 50.0965 51.6072C50.0965 50.8978 49.5214 50.3226 48.8119 50.3226C48.1025 50.3226 47.5273 50.8978 47.5273 51.6072C47.5273 52.3167 48.1025 52.8918 48.8119 52.8918Z" fill="white"/>
<path d="M48.5793 51.9771C49.0093 51.9771 49.3578 51.6285 49.3578 51.1986C49.3578 50.7686 49.0093 50.42 48.5793 50.42C48.1493 50.42 47.8008 50.7686 47.8008 51.1986C47.8008 51.6285 48.1493 51.9771 48.5793 51.9771Z" fill="url(#paint25_linear_1113_8384)"/>
<path d="M48.9484 51.4322C49.0774 51.4322 49.182 51.3276 49.182 51.1986C49.182 51.0697 49.0774 50.9651 48.9484 50.9651C48.8194 50.9651 48.7148 51.0697 48.7148 51.1986C48.7148 51.3276 48.8194 51.4322 48.9484 51.4322Z" fill="white"/>
<path d="M52.765 53.573C53.4745 53.573 54.0496 52.9979 54.0496 52.2885C54.0496 51.579 53.4745 51.0039 52.765 51.0039C52.0556 51.0039 51.4805 51.579 51.4805 52.2885C51.4805 52.9979 52.0556 53.573 52.765 53.573Z" fill="white"/>
<path d="M52.4152 52.6972C52.8452 52.6972 53.1938 52.3486 53.1938 51.9187C53.1938 51.4887 52.8452 51.1401 52.4152 51.1401C51.9853 51.1401 51.6367 51.4887 51.6367 51.9187C51.6367 52.3486 51.9853 52.6972 52.4152 52.6972Z" fill="url(#paint26_linear_1113_8384)"/>
<path d="M52.7843 52.1328C52.9133 52.1328 53.0179 52.0282 53.0179 51.8992C53.0179 51.7702 52.9133 51.6656 52.7843 51.6656C52.6553 51.6656 52.5508 51.7702 52.5508 51.8992C52.5508 52.0282 52.6553 52.1328 52.7843 52.1328Z" fill="white"/>
<path d="M54.7506 49.4078L54.3224 49.0575L54.0888 48.8823C53.713 48.6752 53.3147 48.512 52.9016 48.3958H52.6875C52.6875 48.3958 52.6875 48.1233 52.6875 48.0843C52.6875 48.0454 53.0768 48.1817 53.2714 48.2011C53.3818 48.2193 53.4876 48.259 53.5828 48.3179L53.8748 48.4736L54.1278 48.6682L54.3613 48.8629C54.5206 49.0087 54.6701 49.1647 54.809 49.33L54.7506 49.4078Z" fill="#AFDCD2"/>
<path d="M48.0738 48.3375C48.2379 48.2557 48.4069 48.1842 48.5799 48.1234H48.8329C49.2477 48.0294 49.673 47.9901 50.098 48.0066H50.3121C50.3121 48.0066 50.4483 47.7731 50.3121 47.7147C50.1758 47.6563 49.9228 47.7147 49.7282 47.7147C49.6122 47.6951 49.4938 47.6951 49.3778 47.7147H49.0664L48.7745 47.8314L48.502 47.9482C48.3117 48.0361 48.1294 48.1403 47.957 48.2596L48.0738 48.3375Z" fill="#AFDCD2"/>
<path d="M48.0348 48.2791L48.4824 48.0844H48.7549C49.1885 47.9448 49.6425 47.879 50.0978 47.8898H50.3314C50.4287 47.8898 50.4677 47.7925 50.3314 47.7341C50.1567 47.5895 49.9353 47.5134 49.7086 47.52C49.587 47.4911 49.4603 47.4911 49.3388 47.52H49.0079L48.6965 47.6563L48.424 47.812C48.2427 47.9245 48.0732 48.0549 47.918 48.2012L48.0348 48.2791Z" fill="url(#paint27_linear_1113_8384)"/>
<path d="M44.4919 63.5771C44.0637 63.7912 43.7718 62.2147 43.7718 62.2147C43.7509 62.1586 43.7426 62.0986 43.7474 62.0389C43.7523 61.9792 43.7702 61.9213 43.7999 61.8694C43.8297 61.8174 43.8704 61.7725 43.9194 61.7381C43.9683 61.7036 44.0242 61.6802 44.0832 61.6697C44.1455 61.6582 44.2097 61.6607 44.271 61.6769C44.3323 61.6932 44.3893 61.7229 44.4377 61.7639C44.4861 61.8049 44.5248 61.8561 44.551 61.9139C44.5772 61.9716 44.5903 62.0345 44.5892 62.0979C44.5305 62.485 44.5305 62.8787 44.5892 63.2657C44.6124 63.3208 44.6153 63.3822 44.5975 63.4392C44.5796 63.4962 44.5423 63.5451 44.4919 63.5771Z" fill="#1C2530"/>
<path d="M51.4811 53.7482C51.163 53.5382 50.8 53.4059 50.4213 53.3619C50.0427 53.318 49.659 53.3636 49.3012 53.4952C49.2054 53.5305 49.1224 53.5941 49.0634 53.6774C49.0043 53.7608 48.9719 53.8601 48.9703 53.9623C48.9544 54.1332 48.9733 54.3055 49.026 54.4688C49.0787 54.6321 49.1641 54.783 49.277 54.9123C49.3899 55.0416 49.5279 55.1465 49.6826 55.2208C49.8374 55.295 50.0056 55.337 50.1771 55.3442C50.3492 55.3868 50.5285 55.3923 50.7029 55.36C50.8774 55.3278 51.0429 55.2587 51.1885 55.1574C51.334 55.0561 51.4563 54.9248 51.547 54.7724C51.6378 54.62 51.6949 54.45 51.7147 54.2737C51.731 54.1729 51.7176 54.0695 51.6761 53.9762C51.6347 53.8828 51.5669 53.8036 51.4811 53.7482Z" fill="url(#paint28_linear_1113_8384)"/>
<mask id="mask3_1113_8384" style="mask-type:luminance" maskUnits="userSpaceOnUse" x="48" y="53" width="4" height="3">
<path d="M51.5181 53.4952C51.1931 53.2836 50.8225 53.1521 50.4368 53.1115C50.0511 53.0709 49.6612 53.1224 49.2993 53.2616C49.1241 53.2616 48.9684 53.7482 48.9684 53.9429C48.9496 54.1153 48.9664 54.2897 49.0178 54.4553C49.0693 54.6209 49.1542 54.7742 49.2674 54.9056C49.3805 55.0371 49.5195 55.1438 49.6757 55.2193C49.8318 55.2947 50.0018 55.3372 50.1751 55.3442C50.3473 55.3869 50.5266 55.3923 50.701 55.3601C50.8754 55.3279 51.041 55.2588 51.1865 55.1574C51.3321 55.0561 51.4543 54.9248 51.5451 54.7724C51.6358 54.62 51.693 54.45 51.7127 54.2737C51.7516 54.0791 51.6933 53.612 51.5181 53.4952Z" fill="white"/>
</mask>
<g mask="url(#mask3_1113_8384)">
<path d="M51.4398 55.2469C51.4398 55.2469 50.6418 53.3006 49.2599 54.7019C47.8781 56.1033 51.4398 55.2469 51.4398 55.2469Z" fill="url(#paint29_linear_1113_8384)"/>
</g>
</g>
<path d="M66.5631 38.7421C65.7571 39.2547 65.1005 39.9709 64.6596 40.8184C64.2188 41.6659 64.0093 42.6146 64.0524 43.5689C65.0164 43.8943 66.0409 44.0003 67.0511 43.8791C68.0613 43.7578 69.0317 43.4125 69.8914 42.8683C70.7279 42.3719 71.4163 41.6607 71.8852 40.8085C72.354 39.9563 72.5863 38.9942 72.5578 38.0219C71.5697 37.6775 70.516 37.5634 69.4771 37.6882C68.4382 37.813 67.4415 38.1735 66.5631 38.7421Z" fill="#66A36C"/>
<path d="M5.58655 26.1882L6.17044 27.2587C6.25815 27.4246 6.3938 27.5603 6.55971 27.648L7.61072 28.2319C7.77012 28.3135 7.9039 28.4376 7.99731 28.5904C8.09073 28.7433 8.14016 28.9189 8.14016 29.098C8.14016 29.2771 8.09073 29.4527 7.99731 29.6055C7.9039 29.7584 7.77012 29.8824 7.61072 29.9641L6.55971 30.548C6.3938 30.6357 6.25815 30.7714 6.17044 30.9373L5.58655 32.0077C5.50034 32.1617 5.37464 32.2899 5.22241 32.3792C5.07017 32.4684 4.8969 32.5154 4.72044 32.5154C4.54397 32.5154 4.3707 32.4684 4.21846 32.3792C4.06622 32.2899 3.94053 32.1617 3.85432 32.0077L3.27043 30.9373C3.16934 30.775 3.02871 30.641 2.8617 30.548L1.81068 29.9641C1.65128 29.8824 1.51751 29.7584 1.42409 29.6055C1.33068 29.4527 1.28125 29.2771 1.28125 29.098C1.28125 28.9189 1.33068 28.7433 1.42409 28.5904C1.51751 28.4376 1.65128 28.3135 1.81068 28.2319L2.8617 27.648C3.02871 27.5549 3.16934 27.421 3.27043 27.2587L3.85432 26.1882C3.94053 26.0343 4.06622 25.9061 4.21846 25.8168C4.3707 25.7276 4.54397 25.6805 4.72044 25.6805C4.8969 25.6805 5.07017 25.7276 5.22241 25.8168C5.37464 25.9061 5.50034 26.0343 5.58655 26.1882Z" fill="#A5D9CC"/>
<path d="M43.2086 44.9897L43.9677 46.1965C44.0919 46.3895 44.267 46.5444 44.4737 46.6441L45.7778 47.228C45.9677 47.3162 46.1304 47.4539 46.2489 47.6265C46.3673 47.7992 46.4372 48.0005 46.4511 48.2095C46.465 48.4184 46.4225 48.6273 46.328 48.8141C46.2336 49.001 46.0906 49.159 45.914 49.2717L44.7073 50.0502C44.5208 50.1763 44.3727 50.3514 44.2791 50.5562L43.6758 51.8603C43.581 52.0289 43.4458 52.1713 43.2823 52.2748C43.1189 52.3782 42.9323 52.4395 42.7393 52.453C42.5464 52.4665 42.353 52.4318 42.1768 52.3522C42.0005 52.2725 41.8468 52.1503 41.7294 51.9965L40.9704 50.7898C40.8407 50.6064 40.6666 50.4591 40.4643 50.3616L39.1603 49.7582C38.9704 49.67 38.8077 49.5324 38.6892 49.3597C38.5707 49.187 38.5009 48.9857 38.487 48.7768C38.473 48.5678 38.5155 48.359 38.61 48.1721C38.7045 47.9852 38.8475 47.8272 39.0241 47.7146L40.2308 46.9361C40.4122 46.8125 40.5595 46.6451 40.659 46.4495L41.2623 45.1455C41.3553 44.9756 41.4891 44.8315 41.6517 44.7262C41.8142 44.6209 42.0004 44.5577 42.1935 44.5423C42.3865 44.5268 42.5804 44.5597 42.7576 44.6378C42.9348 44.7159 43.0898 44.8368 43.2086 44.9897Z" fill="#FFD255"/>
<path d="M62.168 1.56734L62.713 2.42372C62.802 2.56243 62.9309 2.67099 63.0828 2.73513L63.9976 3.16332C64.1337 3.22505 64.2508 3.32211 64.3367 3.44441C64.4226 3.56671 64.4742 3.70979 64.4861 3.85878C64.4981 4.00776 64.4699 4.15723 64.4045 4.29163C64.3391 4.42603 64.2389 4.54047 64.1143 4.62306L63.2385 5.16803C63.1067 5.25114 63.0045 5.37375 62.9466 5.51837L62.5184 6.4526C62.4547 6.58755 62.3561 6.70303 62.2328 6.78707C62.1095 6.87111 61.966 6.92066 61.8171 6.93059C61.6682 6.94051 61.5194 6.91045 61.386 6.84352C61.2527 6.77659 61.1396 6.67522 61.0586 6.54992L60.5137 5.69354C60.4192 5.5597 60.2918 5.45244 60.1438 5.38213L59.2291 4.95394C59.0926 4.89527 58.9746 4.80049 58.8879 4.6798C58.8012 4.55911 58.7491 4.41707 58.737 4.26896C58.725 4.12084 58.7536 3.97226 58.8197 3.83918C58.8859 3.7061 58.987 3.59356 59.1123 3.51366L59.9881 2.94923C60.1153 2.86098 60.2162 2.73991 60.2801 2.59889L60.7083 1.66465C60.7719 1.5297 60.8705 1.41423 60.9938 1.33019C61.1171 1.24614 61.2606 1.19659 61.4095 1.18667C61.5584 1.17674 61.7072 1.2068 61.8406 1.27373C61.974 1.34066 62.087 1.44203 62.168 1.56734Z" fill="#FFD255"/>
<path d="M26.2199 58.8669L27.0763 60.1515C27.2044 60.3606 27.3951 60.524 27.6213 60.6186L29.0226 61.2414C29.2278 61.3336 29.4048 61.4787 29.5352 61.662C29.6656 61.8453 29.7449 62.06 29.7647 62.2841C29.7845 62.5081 29.7442 62.7334 29.648 62.9367C29.5518 63.1401 29.4031 63.314 29.2173 63.4408L27.9327 64.2972C27.7241 64.417 27.5602 64.6015 27.4656 64.8227L26.8428 66.2435C26.7535 66.4525 26.6088 66.6331 26.4243 66.7657C26.2398 66.8984 26.0226 66.978 25.7961 66.9961C25.5695 67.0141 25.3424 66.9699 25.1392 66.8681C24.9361 66.7663 24.7646 66.6109 24.6434 66.4186L23.787 65.1341C23.6531 64.9347 23.4636 64.7791 23.2421 64.6864L21.8407 64.0636C21.6355 63.9715 21.4586 63.8263 21.3281 63.643C21.1977 63.4598 21.1185 63.245 21.0987 63.021C21.0788 62.7969 21.1191 62.5716 21.2153 62.3683C21.3116 62.165 21.4602 61.991 21.6461 61.8643L22.9501 61.0079C23.1446 60.8687 23.299 60.6807 23.3978 60.4629L24.0206 59.0421C24.1147 58.8381 24.2614 58.6628 24.4456 58.5343C24.6299 58.4057 24.8451 58.3286 25.069 58.3108C25.2929 58.2929 25.5176 58.335 25.7199 58.4328C25.9222 58.5305 26.0948 58.6804 26.2199 58.8669Z" fill="#FDDED0"/>
<defs>
<linearGradient id="paint0_linear_1113_8384" x1="16.9911" y1="19.2556" x2="-0.872984" y2="9.7145" gradientUnits="userSpaceOnUse">
<stop stop-color="#553730"/>
<stop offset="0.25" stop-color="#593A2E"/>
<stop offset="0.35" stop-color="#5D3C2C"/>
<stop offset="0.55" stop-color="#68432A"/>
<stop offset="0.65" stop-color="#6F4729"/>
<stop offset="0.97" stop-color="#7A4E2F"/>
</linearGradient>
<linearGradient id="paint1_linear_1113_8384" x1="43.3919" y1="41.8556" x2="59.1885" y2="29.1367" gradientUnits="userSpaceOnUse">
<stop stop-color="#513134"/>
<stop offset="0.99" stop-color="#553730"/>
</linearGradient>
<linearGradient id="paint2_linear_1113_8384" x1="72.5652" y1="88.3773" x2="69.1216" y2="89.1385" gradientUnits="userSpaceOnUse">
<stop stop-color="#FBC3AA"/>
<stop offset="0.26" stop-color="#FCCFC6"/>
<stop offset="0.34" stop-color="#FCD4D1"/>
<stop offset="0.7" stop-color="#FDDED0"/>
<stop offset="1" stop-color="#FEE3CC"/>
</linearGradient>
<linearGradient id="paint3_linear_1113_8384" x1="69.8251" y1="85.622" x2="65.66" y2="85.9969" gradientUnits="userSpaceOnUse">
<stop stop-color="#FBC3AA"/>
<stop offset="0.26" stop-color="#FCCFC6"/>
<stop offset="0.34" stop-color="#FCD4D1"/>
<stop offset="0.7" stop-color="#FDDED0"/>
<stop offset="1" stop-color="#FEE3CC"/>
</linearGradient>
<linearGradient id="paint4_linear_1113_8384" x1="102.668" y1="67.1718" x2="100.55" y2="66.3065" gradientUnits="userSpaceOnUse">
<stop stop-color="#F15652"/>
<stop offset="0.48" stop-color="#F2665C"/>
<stop offset="0.94" stop-color="#F37065"/>
</linearGradient>
<linearGradient id="paint5_linear_1113_8384" x1="52.6086" y1="24.5838" x2="50.5837" y2="3.68891" gradientUnits="userSpaceOnUse">
<stop stop-color="#F05355"/>
<stop offset="0.41" stop-color="#F15652"/>
<stop offset="0.71" stop-color="#F2665C"/>
<stop offset="0.94" stop-color="#F37065"/>
</linearGradient>
<linearGradient id="paint6_linear_1113_8384" x1="76.9908" y1="53.4071" x2="72.1258" y2="64.7541" gradientUnits="userSpaceOnUse">
<stop stop-color="#F05355"/>
<stop offset="0.33" stop-color="#F15652"/>
<stop offset="0.63" stop-color="#F2665C"/>
<stop offset="0.94" stop-color="#F37065"/>
</linearGradient>
<linearGradient id="paint7_linear_1113_8384" x1="72.8396" y1="57.8811" x2="70.7571" y2="67.879" gradientUnits="userSpaceOnUse">
<stop stop-color="#FBC3AA"/>
<stop offset="0.54" stop-color="#FCD7C6"/>
<stop offset="0.7" stop-color="#FDDED0"/>
<stop offset="1" stop-color="#FEE3CC"/>
</linearGradient>
<linearGradient id="paint8_linear_1113_8384" x1="93.3937" y1="43.7511" x2="89.712" y2="42.4339" gradientUnits="userSpaceOnUse">
<stop stop-color="#FBC3AA"/>
<stop offset="0.32" stop-color="#FCCFC6"/>
<stop offset="0.43" stop-color="#FCD4D1"/>
<stop offset="1" stop-color="#FDDED0"/>
</linearGradient>
<linearGradient id="paint9_linear_1113_8384" x1="89.552" y1="44.742" x2="61.1746" y2="47.2959" gradientUnits="userSpaceOnUse">
<stop stop-color="#FBC3AA"/>
<stop offset="0.26" stop-color="#FCCFC6"/>
<stop offset="0.34" stop-color="#FCD4D1"/>
<stop offset="0.7" stop-color="#FDDED0"/>
<stop offset="1" stop-color="#FEE3CC"/>
</linearGradient>
<linearGradient id="paint10_linear_1113_8384" x1="33.9223" y1="61.2891" x2="34.0589" y2="59.0119" gradientUnits="userSpaceOnUse">
<stop stop-color="#F05355"/>
<stop offset="0.41" stop-color="#F15652"/>
<stop offset="1" stop-color="#F2665C"/>
</linearGradient>
<linearGradient id="paint11_linear_1113_8384" x1="59.9981" y1="3.49992" x2="-20.0019" y2="107" gradientUnits="userSpaceOnUse">
<stop stop-color="#6FA1CC"/>
<stop offset="0.32" stop-color="#7DB7D1"/>
<stop offset="0.53" stop-color="#89C5D2"/>
<stop offset="0.75" stop-color="#97D1CB"/>
<stop offset="1" stop-color="#A5D9CC"/>
</linearGradient>
<linearGradient id="paint12_linear_1113_8384" x1="43.4106" y1="-4.68126" x2="36.8904" y2="-4.61606" gradientUnits="userSpaceOnUse">
<stop stop-color="#A82823"/>
<stop offset="0.38" stop-color="#8C2B22"/>
<stop offset="0.39" stop-color="#8B2B22"/>
<stop offset="1" stop-color="#852D1E"/>
</linearGradient>
<linearGradient id="paint13_linear_1113_8384" x1="41.1256" y1="-3.47101" x2="35.6175" y2="-3.41593" gradientUnits="userSpaceOnUse">
<stop stop-color="#F1637F"/>
<stop offset="0.49" stop-color="#F37F95"/>
<stop offset="1" stop-color="#F6A2B0"/>
</linearGradient>
<linearGradient id="paint14_linear_1113_8384" x1="90.1042" y1="36.0396" x2="79.5551" y2="36.989" gradientUnits="userSpaceOnUse">
<stop stop-color="#513134"/>
<stop offset="0.99" stop-color="#553730"/>
</linearGradient>
<linearGradient id="paint15_linear_1113_8384" x1="37.8698" y1="66.1786" x2="47.729" y2="43.5024" gradientUnits="userSpaceOnUse">
<stop offset="0.17" stop-color="#6F4729"/>
<stop offset="0.33" stop-color="#68432A"/>
<stop offset="0.65" stop-color="#5D3C2C"/>
<stop offset="0.75" stop-color="#593A2E"/>
<stop offset="1" stop-color="#553730"/>
</linearGradient>
<linearGradient id="paint16_linear_1113_8384" x1="74.4812" y1="41.4288" x2="68.2529" y2="41.9893" gradientUnits="userSpaceOnUse">
<stop stop-color="#513134"/>
<stop offset="0.99" stop-color="#553730"/>
</linearGradient>
<linearGradient id="paint17_linear_1113_8384" x1="45.252" y1="24.9621" x2="51.2311" y2="26.706" gradientUnits="userSpaceOnUse">
<stop stop-color="#513134"/>
<stop offset="0.99" stop-color="#553730"/>
</linearGradient>
<linearGradient id="paint18_linear_1113_8384" x1="85.4183" y1="51.4379" x2="82.0077" y2="50.8522" gradientUnits="userSpaceOnUse">
<stop stop-color="#242F3D"/>
<stop offset="1" stop-color="#212E5D"/>
</linearGradient>
<linearGradient id="paint19_linear_1113_8384" x1="86.7043" y1="50.6472" x2="84.9701" y2="50.3494" gradientUnits="userSpaceOnUse">
<stop stop-color="#242F3D"/>
<stop offset="1" stop-color="#212E5D"/>
</linearGradient>
<linearGradient id="paint20_linear_1113_8384" x1="38.2833" y1="54.3483" x2="41.6777" y2="54.9364" gradientUnits="userSpaceOnUse">
<stop stop-color="#242F3D"/>
<stop offset="1" stop-color="#212E5D"/>
</linearGradient>
<linearGradient id="paint21_linear_1113_8384" x1="37.3392" y1="53.1775" x2="39.0843" y2="53.4799" gradientUnits="userSpaceOnUse">
<stop stop-color="#242F3D"/>
<stop offset="1" stop-color="#212E5D"/>
</linearGradient>
<linearGradient id="paint22_linear_1113_8384" x1="22.9981" y1="87.5" x2="59.498" y2="30.5" gradientUnits="userSpaceOnUse">
<stop stop-color="#AFDCD2"/>
<stop offset="0.07" stop-color="#B6DFD6"/>
<stop offset="0.48" stop-color="#DEF0EC"/>
<stop offset="0.8" stop-color="#F6FBFA"/>
<stop offset="1" stop-color="white"/>
</linearGradient>
<linearGradient id="paint23_linear_1113_8384" x1="53.5704" y1="12.5354" x2="51.9519" y2="12.3065" gradientUnits="userSpaceOnUse">
<stop stop-color="#242F3D"/>
<stop offset="1" stop-color="#212E5D"/>
</linearGradient>
<linearGradient id="paint24_linear_1113_8384" x1="52.9209" y1="12.8365" x2="51.9574" y2="12.7002" gradientUnits="userSpaceOnUse">
<stop stop-color="#DE7C6B"/>
<stop offset="0.58" stop-color="#F39D98"/>
<stop offset="0.92" stop-color="#FAB397"/>
</linearGradient>
<linearGradient id="paint25_linear_1113_8384" x1="93.2275" y1="41.4827" x2="91.686" y2="41.218" gradientUnits="userSpaceOnUse">
<stop stop-color="#242F3D"/>
<stop offset="1" stop-color="#212E5D"/>
</linearGradient>
<linearGradient id="paint26_linear_1113_8384" x1="97.0953" y1="42.1863" x2="95.5538" y2="41.9216" gradientUnits="userSpaceOnUse">
<stop stop-color="#242F3D"/>
<stop offset="1" stop-color="#212E5D"/>
</linearGradient>
<linearGradient id="paint27_linear_1113_8384" x1="48.9106" y1="67.2752" x2="46.4777" y2="67.2752" gradientUnits="userSpaceOnUse">
<stop stop-color="#242F3D"/>
<stop offset="1" stop-color="#212E5D"/>
</linearGradient>
<linearGradient id="paint28_linear_1113_8384" x1="54.7873" y1="72.3106" x2="52.0235" y2="72.2277" gradientUnits="userSpaceOnUse">
<stop stop-color="#242F3D"/>
<stop offset="1" stop-color="#212E5D"/>
</linearGradient>
<linearGradient id="paint29_linear_1113_8384" x1="27.2063" y1="34.8997" x2="24.7592" y2="34.603" gradientUnits="userSpaceOnUse">
<stop stop-color="#DE7C6B"/>
<stop offset="0.58" stop-color="#F39D98"/>
<stop offset="0.92" stop-color="#FAB397"/>
</linearGradient>
</defs>
</svg>
