<svg width="743" height="428" viewBox="0 0 743 428" fill="none" xmlns="http://www.w3.org/2000/svg">
<path opacity="0.5" d="M88.4987 15.0162C71.7904 15.0125 55.4564 19.9068 41.5621 29.0802C27.6679 38.2535 16.8377 51.2938 10.4411 66.5519C4.04457 81.8101 2.36901 98.6006 5.62633 114.8C8.88366 131 16.9276 145.88 28.7408 157.561C40.554 169.241 55.6058 177.196 71.9928 180.419C88.3797 183.643 105.366 181.99 120.802 175.67C136.239 169.351 149.433 158.648 158.716 144.915C167.999 131.183 172.954 115.037 172.954 98.5207C172.954 76.3772 164.057 55.1403 148.219 39.4807C132.381 23.8211 110.899 15.0212 88.4987 15.0162ZM213.349 0.0746951C194.486 0.0746951 176.046 5.60418 160.361 15.9639C144.677 26.3236 132.452 41.0483 125.233 58.2759C118.014 75.5035 116.126 94.4603 119.806 112.749C123.486 131.038 132.569 147.837 145.908 161.022C159.247 174.208 176.241 183.187 194.742 186.825C213.243 190.463 232.42 188.596 249.848 181.46C267.276 174.324 282.171 162.24 292.651 146.735C303.132 131.231 308.725 113.003 308.725 94.3557C308.735 81.9683 306.276 69.7003 301.487 58.253C296.698 46.8057 289.674 36.4034 280.817 27.6407C271.959 18.8779 261.442 11.9266 249.865 7.18384C238.289 2.4411 225.88 -3.88895e-06 213.349 0V0.0746951ZM72.5523 161.48C58.2055 161.473 44.1788 165.673 32.2473 173.548C20.3157 181.423 11.0155 192.62 5.52347 205.722C0.0314487 218.824 -1.40554 233.242 1.39431 247.152C4.19416 261.061 11.105 273.837 21.2524 283.862C31.3998 293.888 44.3277 300.713 58.4001 303.473C72.4726 306.234 87.0571 304.806 100.308 299.37C113.559 293.934 124.882 284.735 132.842 272.936C140.803 261.138 145.044 247.27 145.029 233.088C145.029 214.083 137.394 195.856 123.803 182.414C110.212 168.972 91.7778 161.416 72.5523 161.406V161.48ZM174.107 152.142C159.764 152.142 145.743 156.347 133.818 164.224C121.892 172.101 112.598 183.298 107.11 196.397C101.622 209.496 100.187 223.91 102.987 237.815C105.786 251.721 112.695 264.493 122.838 274.517C132.981 284.542 145.904 291.367 159.971 294.131C174.039 296.895 188.62 295.472 201.87 290.044C215.12 284.616 226.444 275.425 234.409 263.635C242.375 251.844 246.625 237.983 246.621 223.805C246.641 214.38 244.78 205.044 241.144 196.331C237.509 187.618 232.17 179.699 225.435 173.029C218.699 166.358 210.698 161.066 201.89 157.457C193.083 153.847 183.641 151.99 174.107 151.993V152.142ZM263.89 152.142C246.873 152.142 230.237 157.13 216.088 166.476C201.938 175.822 190.91 189.106 184.397 204.648C177.885 220.189 176.181 237.291 179.501 253.79C182.821 270.289 191.016 285.444 203.049 297.339C215.082 309.234 230.413 317.335 247.104 320.617C263.795 323.899 281.095 322.215 296.817 315.777C312.539 309.339 325.977 298.438 335.432 284.451C344.886 270.463 349.933 254.019 349.933 237.197C349.955 226.014 347.746 214.937 343.432 204.599C339.117 194.261 332.783 184.866 324.79 176.952C316.798 169.037 307.305 162.759 296.855 158.476C286.405 154.193 275.203 151.99 263.89 151.993V152.142ZM638.63 93.6833C617.988 93.6833 597.809 99.7342 580.646 111.071C563.482 122.407 550.105 138.521 542.206 157.373C534.306 176.225 532.239 196.969 536.266 216.982C540.293 236.996 550.234 255.379 564.83 269.808C579.426 284.236 598.023 294.062 618.269 298.043C638.515 302.024 659.5 299.981 678.571 292.172C697.642 284.364 713.942 271.14 725.41 254.173C736.879 237.207 743 217.26 743 196.855C743.02 183.293 740.335 169.861 735.099 157.327C729.863 144.792 722.178 133.401 712.484 123.805C702.791 114.209 691.278 106.596 678.606 101.402C665.933 96.2075 652.349 93.5339 638.63 93.5339V93.6833ZM632.83 219.08C612.188 219.08 592.009 225.131 574.845 236.468C557.682 247.804 544.305 263.917 536.405 282.769C528.506 301.621 526.439 322.366 530.466 342.379C534.493 362.392 544.433 380.776 559.03 395.204C573.626 409.633 592.223 419.459 612.469 423.44C632.714 427.421 653.7 425.378 672.771 417.569C691.842 409.76 708.142 396.537 719.61 379.57C731.078 362.604 737.199 342.657 737.199 322.251C737.219 308.69 734.534 295.258 729.298 282.724C724.062 270.189 716.377 258.798 706.684 249.202C696.99 239.605 685.478 231.993 672.805 226.798C660.133 221.604 646.549 218.931 632.83 218.931V219.08ZM480.092 8.4793C463.075 8.4793 446.439 13.4677 432.29 22.8136C418.14 32.1595 407.112 45.4432 400.599 60.9849C394.087 76.5266 392.383 93.6283 395.703 110.127C399.023 126.626 407.218 141.782 419.251 153.677C431.284 165.572 446.616 173.672 463.306 176.954C479.997 180.236 497.297 178.552 513.019 172.114C528.741 165.677 542.18 154.775 551.634 140.788C561.089 126.801 566.135 110.356 566.135 93.5339C566.135 70.976 557.07 49.3421 540.933 33.3912C524.797 17.4404 502.912 8.4793 480.092 8.4793ZM645.394 8.4793C629.7 8.4793 614.357 13.0799 601.308 21.6993C588.258 30.3188 578.087 42.5699 572.081 56.9035C566.075 71.237 564.503 87.0093 567.565 102.226C570.627 117.442 578.185 131.419 589.283 142.39C600.38 153.36 614.52 160.831 629.913 163.858C645.306 166.885 661.262 165.331 675.762 159.394C690.262 153.457 702.655 143.403 711.375 130.503C720.094 117.603 724.748 102.437 724.748 86.9223C724.761 76.6176 722.717 66.4116 718.733 56.8889C714.75 47.3662 708.905 38.7139 701.534 31.4273C694.163 24.1408 685.41 18.3632 675.777 14.4254C666.143 10.4876 655.819 8.46701 645.394 8.4793ZM553.022 31.676C537.328 31.676 521.985 36.2766 508.936 44.896C495.886 53.5155 485.715 65.7666 479.709 80.1002C473.703 94.4338 472.131 110.206 475.193 125.422C478.255 140.639 485.813 154.616 496.911 165.587C508.009 176.557 522.148 184.028 537.541 187.055C552.934 190.081 568.89 188.528 583.39 182.591C597.89 176.654 610.283 166.6 619.003 153.7C627.722 140.8 632.377 125.634 632.377 110.119C632.389 99.8099 630.346 89.5994 626.363 80.0715C622.381 70.5436 616.538 61.8851 609.168 54.5911C601.798 47.2971 593.046 41.5106 583.412 37.5627C573.778 33.6147 563.451 31.5826 553.022 31.5826V31.676ZM493.431 231.519C473.774 231.519 454.558 237.282 438.214 248.078C421.87 258.874 409.132 274.22 401.611 292.173C394.09 310.126 392.124 329.881 395.962 348.939C399.8 367.997 409.269 385.501 423.171 399.239C437.074 412.977 454.785 422.33 474.066 426.117C493.347 429.903 513.33 427.952 531.489 420.511C549.648 413.07 565.167 400.472 576.082 384.312C586.998 368.151 592.82 349.154 592.813 329.722C592.803 303.674 582.328 278.695 563.691 260.28C545.055 241.864 519.782 231.519 493.431 231.519ZM480.092 125.061C463.078 125.061 446.445 130.047 432.298 139.39C418.15 148.732 407.121 162.012 400.607 177.549C394.092 193.086 392.384 210.184 395.698 226.681C399.011 243.178 407.199 258.333 419.224 270.231C431.25 282.13 446.574 290.236 463.26 293.526C479.946 296.817 497.243 295.143 512.967 288.717C528.69 282.291 542.134 271.401 551.597 257.423C561.061 243.446 566.12 227.009 566.135 210.19C566.13 187.635 557.062 166.006 540.927 150.059C524.791 134.112 502.909 125.154 480.092 125.154V125.061ZM342.281 6.87309C325.262 6.86939 308.625 11.8546 294.473 21.1983C280.321 30.542 269.29 43.8244 262.774 59.3658C256.259 74.9072 254.552 92.0094 257.87 108.51C261.188 125.01 269.381 140.167 281.414 152.064C293.446 163.961 308.778 172.063 325.469 175.347C342.16 178.63 359.461 176.947 375.184 170.51C390.908 164.073 404.347 153.171 413.802 139.183C423.258 125.196 428.304 108.751 428.304 91.9277C428.304 69.373 419.242 47.7419 403.11 31.7916C386.978 15.8413 365.097 6.87804 342.281 6.87309ZM371.755 130.981C354.737 130.981 338.102 135.969 323.952 145.315C309.803 154.661 298.774 167.945 292.262 183.487C285.75 199.028 284.046 216.13 287.366 232.629C290.686 249.128 298.881 264.283 310.914 276.178C322.947 288.074 338.278 296.174 354.969 299.456C371.66 302.738 388.96 301.054 404.682 294.616C420.404 288.178 433.842 277.277 443.297 263.29C452.751 249.302 457.798 232.858 457.798 216.036C457.798 193.478 448.732 171.844 432.596 155.893C416.46 139.942 394.575 130.981 371.755 130.981ZM93.3922 244.705C76.373 244.705 59.7361 249.694 45.5856 259.042C31.4352 268.389 20.4069 281.675 13.8957 297.219C7.38443 312.763 5.68272 329.867 9.00575 346.367C12.3288 362.867 20.5273 378.022 32.5643 389.915C44.6014 401.809 59.9362 409.907 76.6293 413.184C93.3224 416.462 110.624 414.772 126.345 408.329C142.067 401.886 155.502 390.978 164.952 376.986C174.402 362.994 179.442 346.546 179.435 329.722C179.425 307.171 170.355 285.546 154.22 269.603C138.085 253.661 116.206 244.705 93.3922 244.705ZM213.349 258.6C199.022 258.6 185.017 262.8 173.104 270.668C161.192 278.537 151.907 289.72 146.424 302.805C140.942 315.889 139.507 330.287 142.302 344.178C145.097 358.068 151.996 370.827 162.127 380.842C172.258 390.856 185.165 397.676 199.217 400.439C213.269 403.202 227.834 401.784 241.07 396.364C254.307 390.944 265.62 381.766 273.58 369.991C281.54 358.215 285.788 344.37 285.788 330.208C285.788 311.216 278.156 293.003 264.571 279.574C250.986 266.145 232.561 258.6 213.349 258.6ZM348.648 244.574C330.367 244.574 312.497 249.933 297.297 259.972C282.097 270.012 270.251 284.281 263.255 300.977C256.259 317.672 254.429 336.043 257.995 353.766C261.562 371.49 270.365 387.77 283.291 400.548C296.217 413.326 312.687 422.028 330.616 425.553C348.545 429.079 367.13 427.269 384.019 420.354C400.908 413.439 415.343 401.728 425.499 386.702C435.656 371.677 441.077 354.012 441.077 335.941C441.077 323.943 438.686 312.062 434.041 300.977C429.396 289.891 422.588 279.819 414.005 271.335C405.422 262.851 395.233 256.121 384.019 251.529C372.805 246.937 360.786 244.574 348.648 244.574Z" fill="white"/>
</svg>
