<svg width="325" height="474" viewBox="0 0 325 474" fill="none" xmlns="http://www.w3.org/2000/svg">
<path d="M177.452 213.744C177.452 213.744 185.603 214.135 186.583 217.014C186.583 217.014 183.711 260.089 190.52 295.363C190.52 295.363 210.278 410.281 223.897 449.234C224.272 450.312 224.263 451.484 223.872 452.556C223.481 453.628 222.731 454.536 221.748 455.127C207.424 463.796 150.438 492.683 78.5259 454.752C77.5318 454.226 76.7453 453.384 76.293 452.361C75.8408 451.339 75.749 450.195 76.0326 449.115C80.9333 430.192 102.978 344.655 106.245 298.599C106.245 298.599 116.82 244.777 111.765 217.252C112.968 216.009 114.538 215.174 116.249 214.868C117.96 214.562 119.725 214.801 121.291 215.549L177.452 213.744Z" fill="url(#paint0_linear_56_41077)"/>
<path d="M24.71 207.647C13.9456 216.402 9.23399 225.327 11.7101 228.784C14.1863 232.242 22.4918 227.916 33.7376 218.395C44.055 209.725 49.8154 201.362 47.3221 197.956C44.8287 194.549 35.1133 199.182 24.71 207.647Z" fill="#8C5BA1"/>
<path d="M52.9459 254.298C41.4765 236.176 36.593 223.538 24.281 217.236C21.3921 215.754 26.396 208.243 26.396 208.243C29.1817 204.598 34.5123 201.43 37.3152 205.143C45.655 216.044 45.5003 218.99 68.4391 239.991C68.9034 241.575 53.2039 254.775 52.9459 254.298Z" fill="url(#paint1_linear_56_41077)"/>
<path d="M105.959 237.76L69.6075 230.947L47.6144 198.228L47.4769 198.5C39.8762 212.746 27.0701 223.578 11.6758 228.784L51.2255 256.649L100.68 265.591C102.78 265.969 104.939 265.876 106.998 265.319C109.058 264.761 110.964 263.753 112.578 262.369C114.192 260.984 115.471 259.259 116.323 257.32C117.174 255.381 117.575 253.278 117.497 251.165C117.389 247.967 116.189 244.899 114.093 242.465C111.998 240.03 109.13 238.371 105.959 237.76Z" fill="url(#paint2_linear_56_41077)"/>
<path d="M47.4757 198.501L47.6133 198.228L55.592 210.151C55.592 210.151 49.3672 229.823 23.8834 237.403L11.709 228.886C27.0905 223.673 39.8832 212.842 47.4757 198.603" fill="url(#paint3_linear_56_41077)"/>
<g opacity="0.5">
<path d="M54.3201 208.226C52.8972 211.65 51.0549 214.887 48.8347 217.866C46.6275 220.851 44.0833 223.577 41.2515 225.991C39.8285 227.203 38.3419 228.34 36.7979 229.397C35.2217 230.393 33.585 231.292 31.8971 232.088C28.5321 233.678 24.9708 234.823 21.3047 235.495C24.9443 234.699 28.4766 233.482 31.8284 231.867C35.1983 230.296 38.3157 228.242 41.0796 225.769C43.9249 223.391 46.4812 220.693 48.6972 217.73C50.9225 214.779 52.8085 211.591 54.3201 208.226Z" fill="white"/>
</g>
<g opacity="0.5">
<path d="M53.3744 207.084C51.939 210.506 50.0914 213.743 47.8719 216.725C45.6657 219.716 43.1214 222.448 40.2886 224.866C38.869 226.083 37.3822 227.22 35.835 228.273C34.261 229.272 32.624 230.171 30.9342 230.964C27.5692 232.554 24.0079 233.699 20.3418 234.37C23.9822 233.578 27.5147 232.36 30.8655 230.743C32.5388 229.944 34.1585 229.039 35.7146 228.034C37.2106 226.927 38.7582 225.905 40.1339 224.628C42.9808 222.253 45.5478 219.568 47.7859 216.623C49.9948 213.655 51.8688 210.456 53.3744 207.084Z" fill="white"/>
</g>
<g opacity="0.5">
<path d="M47.614 198.228L49.2132 206.114L49.987 210.066C49.987 210.406 50.1246 210.713 50.1761 211.07C50.189 211.42 50.0929 211.765 49.901 212.058C49.7034 212.36 49.4052 212.583 49.0584 212.689C48.7206 212.767 48.373 212.796 48.0267 212.774L39.9104 212.995C39.2484 212.979 38.5863 213.024 37.9329 213.131C37.6332 213.24 37.3788 213.445 37.2105 213.714C37.0421 213.982 36.9696 214.299 37.0044 214.613V218.633V222.652V224.662C37.0282 225.012 36.9934 225.363 36.9012 225.701C36.7705 226.037 36.5357 226.323 36.2306 226.519C35.9157 226.707 35.548 226.791 35.1816 226.757C34.8205 226.757 34.5282 226.587 34.1843 226.519L32.31 225.991L28.3722 224.986L24.4516 223.998C24.1258 223.9 23.7756 223.918 23.4617 224.049C23.1477 224.179 22.8897 224.414 22.7321 224.713C22.4913 225.327 22.285 225.974 22.0443 226.604L19.293 234.166L21.9239 226.553C22.1646 225.923 22.3538 225.293 22.6117 224.662C22.7737 224.363 23.0277 224.123 23.3368 223.976C23.6459 223.829 23.9941 223.783 24.3313 223.845L28.269 224.833L32.2068 225.804L34.1671 226.297C34.8205 226.468 35.4912 226.706 36.0414 226.297C36.3141 226.115 36.5232 225.853 36.6401 225.548C36.7571 225.243 36.7762 224.91 36.6949 224.594V222.584V218.565V214.545C36.6693 214.184 36.7605 213.824 36.9553 213.518C37.1501 213.212 37.4383 212.975 37.7782 212.842C38.4588 212.721 39.1508 212.676 39.8416 212.706L47.9579 212.518C48.2832 212.562 48.6128 212.562 48.9381 212.518C49.2428 212.413 49.507 212.216 49.6947 211.956C50.1246 211.411 49.901 210.73 49.6947 210.083L48.9552 206.131L47.614 198.228Z" fill="white"/>
</g>
<path d="M36.9885 194.175C36.9885 194.175 33.2399 188.35 33.1883 183.955C33.1367 179.561 29.0442 180.549 28.1844 183.121C27.5341 184.794 27.2618 186.589 27.3866 188.378C27.5113 190.167 28.0302 191.907 28.9066 193.476L28.0297 193.919C25.1192 191.148 22.742 187.876 21.0139 184.262C18.6237 178.828 17.0589 179.152 17.0589 179.152C17.0589 179.152 14.4968 179.05 14.0325 182.405C13.5682 185.761 19.0192 193.187 19.0192 193.187C15.6712 190.254 12.6347 186.989 9.95715 183.444C7.1027 179.135 2.44271 183.768 4.43739 187.208C6.43207 190.649 14.3248 198.109 14.3248 198.109C10.9986 195.497 7.86667 192.651 4.95325 189.593C4.57908 189.161 4.06017 188.877 3.49163 188.792C2.59746 188.656 1.39378 188.98 0.740348 191.279C-0.377362 195.214 11.264 203.202 11.264 203.202C11.264 203.202 10.6278 203.457 3.66358 199.795C3.66358 199.795 -0.0678428 198.092 0.000939354 203.049C0.000939354 203.049 1.72049 207.545 9.51007 209.759C9.51007 209.759 22.9226 224.629 33.5838 212.519C44.245 200.409 36.9885 194.175 36.9885 194.175Z" fill="url(#paint4_linear_56_41077)"/>
<path d="M28.8714 193.527C27.7241 195.079 26.98 196.886 26.7048 198.79C26.5843 199.734 26.5497 200.685 26.6016 201.635C26.6016 202.606 26.7907 203.559 26.9111 204.564C26.6704 204.121 26.4812 203.662 26.2749 203.202C26.0685 202.742 25.9826 202.231 25.8966 201.72C25.6987 200.716 25.6639 199.686 25.7934 198.671C25.9462 197.646 26.2902 196.659 26.8079 195.759C27.2968 194.856 28.0062 194.089 28.8714 193.527Z" fill="#EB967E"/>
<path d="M21.2725 192.437C19.1325 194.161 17.1581 196.076 15.3745 198.16C14.522 199.237 13.7518 200.376 13.0703 201.567C12.4143 202.764 11.8842 204.026 11.4883 205.331C11.5464 203.928 11.8671 202.547 12.434 201.26C13.0112 199.967 13.7632 198.758 14.6695 197.666C15.5642 196.575 16.5793 195.587 17.6959 194.72C18.7858 193.812 19.9877 193.045 21.2725 192.437Z" fill="#EB967E"/>
<path d="M287.372 210.134C297.156 219.945 300.922 229.312 298.085 232.48C295.248 235.648 287.458 230.505 277.261 219.876C267.976 210.219 263.058 201.345 265.912 198.16C268.767 194.975 277.915 200.647 287.372 210.134Z" fill="#8C5BA1"/>
<path d="M254.443 253.617C267.77 236.772 273.943 224.662 286.857 219.706C289.883 218.548 285.688 210.56 285.688 210.56C283.298 206.625 278.328 202.997 275.147 206.353C265.707 216.317 265.569 219.28 240.549 237.794C239.862 239.327 254.134 254.077 254.443 253.617Z" fill="url(#paint5_linear_56_41077)"/>
<path d="M203.407 231.714L240.274 228.716L265.568 198.398L265.689 198.671C271.739 213.621 283.328 225.716 298.085 232.48L255.853 256.087L205.728 259.885C203.602 260.043 201.467 259.727 199.481 258.961C197.494 258.195 195.706 256.997 194.248 255.457C192.79 253.916 191.699 252.071 191.055 250.058C190.411 248.045 190.231 245.915 190.527 243.824C190.977 240.661 192.495 237.742 194.834 235.543C197.173 233.344 200.194 231.994 203.407 231.714Z" fill="url(#paint6_linear_56_41077)"/>
<path d="M265.688 198.739L265.568 198.467L256.402 209.452C256.402 209.452 260.529 229.67 285.084 239.804L298.084 232.548C283.327 225.784 271.738 213.689 265.688 198.739Z" fill="url(#paint7_linear_56_41077)"/>
<g opacity="0.5">
<path d="M257.848 207.647C259.008 211.159 260.553 214.535 262.456 217.713C264.353 220.886 266.608 223.835 269.18 226.502C270.448 227.847 271.792 229.121 273.203 230.317C274.653 231.47 276.169 232.539 277.743 233.519C280.91 235.469 284.298 237.041 287.837 238.203C284.258 237.141 280.835 235.618 277.657 233.673C276.07 232.693 274.538 231.63 273.066 230.488C271.642 229.293 270.281 228.025 268.99 226.689C266.427 223.987 264.183 221.004 262.301 217.799C260.41 214.605 258.914 211.196 257.848 207.647Z" fill="white"/>
</g>
<g opacity="0.5">
<path d="M258.932 206.625C260.089 210.13 261.629 213.499 263.523 216.674C265.425 219.849 267.68 222.803 270.246 225.48C271.526 226.815 272.874 228.083 274.287 229.278C275.731 230.439 277.247 231.508 278.827 232.48C281.988 234.439 285.378 236.012 288.921 237.164C285.339 236.109 281.916 234.585 278.741 232.633C277.149 231.662 275.616 230.598 274.15 229.448C272.72 228.253 271.354 226.986 270.057 225.65C267.496 222.95 265.257 219.967 263.385 216.759C261.486 213.575 259.99 210.171 258.932 206.625Z" fill="white"/>
</g>
<g opacity="0.5">
<path d="M265.568 198.398L263.281 206.114L262.129 209.98C261.923 210.611 261.63 211.275 262.009 211.854C262.156 212.137 262.4 212.36 262.696 212.484C263.008 212.585 263.332 212.642 263.659 212.655L271.724 213.677C272.41 213.726 273.089 213.84 273.753 214.017C274.073 214.184 274.332 214.447 274.492 214.768C274.653 215.089 274.707 215.452 274.647 215.806L274.183 219.808L273.719 223.794L273.478 225.804C273.378 226.101 273.369 226.421 273.452 226.724C273.534 227.027 273.705 227.299 273.942 227.507C274.458 227.95 275.146 227.779 275.817 227.677L277.828 227.405L281.835 226.826L285.859 226.263C286.216 226.212 286.58 226.281 286.892 226.461C287.204 226.64 287.446 226.919 287.578 227.251C287.785 227.916 287.905 228.563 288.06 229.21L289.9 237.045L287.939 229.244C287.785 228.597 287.647 227.916 287.458 227.302C287.335 227.003 287.113 226.753 286.83 226.592C286.546 226.432 286.216 226.37 285.893 226.417L281.887 226.996L277.863 227.592L275.868 227.882C275.527 227.946 275.183 227.991 274.836 228.018C274.476 228.003 274.13 227.877 273.846 227.657C273.562 227.437 273.355 227.134 273.254 226.791C273.185 226.449 273.185 226.095 273.254 225.752L273.478 223.76L273.925 219.757L274.407 215.771C274.471 215.464 274.432 215.144 274.296 214.861C274.159 214.578 273.932 214.347 273.65 214.205C273.008 214.034 272.352 213.92 271.69 213.864L263.642 212.808C263.297 212.794 262.955 212.731 262.628 212.62C262.294 212.477 262.021 212.225 261.854 211.905C261.691 211.59 261.631 211.233 261.682 210.883C261.768 210.543 261.888 210.236 261.974 209.912L263.161 206.063L265.568 198.398Z" fill="white"/>
</g>
<path d="M278.071 200.902C278.071 200.902 272.654 204.905 278.57 213.642C278.57 213.642 277.572 232.685 305.429 219.757C305.429 219.757 310.88 187.464 278.071 200.902Z" fill="url(#paint8_linear_56_41077)"/>
<path d="M302.987 190.07C302.987 190.07 306.056 191.384 301.62 196.132C301.62 196.132 300.496 197.034 299.523 196.527L302.987 190.07Z" fill="#FEE3CC"/>
<path d="M298.515 192.488C299.306 191.176 300.234 188.69 297.173 187.906L284.294 191.926C284.294 191.926 281.216 192.846 277.227 201.873C277.227 201.873 281.302 209.64 286.271 202.759C291.241 195.877 287.011 198.398 297.156 193.714C297.726 193.455 298.201 193.026 298.515 192.488Z" fill="url(#paint9_linear_56_41077)"/>
<path d="M321.196 57.1655C321.525 56.8973 321.928 56.7337 322.352 56.6961C322.777 56.6585 323.203 56.7487 323.574 56.9548C323.946 57.161 324.246 57.4735 324.435 57.8515C324.625 58.2294 324.695 58.6552 324.635 59.0731C323.587 65.6647 320.749 75.2028 312.977 78.473C300.665 83.5828 311.171 64.5065 311.171 64.5065C314.762 62.4115 318.122 59.9512 321.196 57.1655Z" fill="url(#paint10_linear_56_41077)"/>
<path d="M319.27 46.6223C319.27 46.6223 305.72 58.017 317.757 79.1713C329.794 100.326 321.54 115.297 311.997 128.054C311.997 128.054 308.145 139.432 311.326 149.345C314.507 159.258 310.483 174.008 303.227 190.904C295.97 207.8 295.695 200.255 287.751 238.884C279.807 277.514 271.467 342.68 271.467 342.68C271.467 342.68 268.836 359.184 263.918 350.208L275.336 258.574C275.336 258.574 279.996 224.798 287.373 199.062C293.941 176.188 302.161 174.689 299.771 157.725C299.262 154.21 298.297 150.775 296.899 147.505C293.244 138.849 292.835 129.182 295.747 120.253C295.93 119.716 295.994 119.146 295.935 118.581C295.875 118.017 295.694 117.472 295.403 116.983C291.964 110.903 280.787 88.0281 298.842 70.9957L306.804 87.6023C306.804 87.6023 302.694 98.2476 305.084 102.625C305.084 102.625 309.297 100.837 306.804 87.6023C306.804 87.6023 294.939 78.2686 298.206 60.6911C301.473 43.1137 319.597 41.8873 319.27 46.6223Z" fill="url(#paint11_linear_56_41077)"/>
<path d="M309.332 82.0669C310.95 85.0561 312.208 88.223 313.081 91.5028C314.024 94.7858 314.6 98.1614 314.8 101.569C314.973 105.003 314.654 108.443 313.854 111.788C313.065 115.1 311.717 118.256 309.865 121.122C310.175 120.339 310.484 119.555 310.828 118.789L311.292 117.631L311.653 116.421C311.877 115.621 312.169 114.837 312.376 114.02L312.857 111.584C313.433 108.313 313.64 104.988 313.476 101.671C313.311 98.3496 312.88 95.0463 312.186 91.7924C311.843 90.0892 311.447 88.5222 310.966 86.9211C310.484 85.3201 309.899 83.6679 309.332 82.0669Z" fill="#573A41"/>
<path d="M295.402 88.522C294.749 91.4175 294.061 94.2278 293.683 97.0382C293.459 98.4519 293.322 99.8826 293.236 101.313C293.203 102.764 293.272 104.215 293.442 105.657C292.762 104.303 292.342 102.836 292.204 101.33C292.098 99.8297 292.155 98.3221 292.376 96.8338C292.811 93.8899 293.84 91.063 295.402 88.522Z" fill="#573A41"/>
<path d="M301.559 105.061C302.05 107.569 302.05 110.148 301.559 112.657C301.132 115.18 300.19 117.591 298.791 119.742C299.272 117.239 299.823 114.854 300.253 112.419C300.683 109.983 301.044 107.615 301.559 105.061Z" fill="#573A41"/>
<path d="M305.721 126.266C305.998 127.887 306.027 129.541 305.807 131.171C305.651 132.808 305.239 134.411 304.586 135.923C304.086 132.661 304.478 129.327 305.721 126.266Z" fill="#573A41"/>
<path d="M300.132 128.446C299.566 130.875 299.443 133.384 299.771 135.855C300.026 138.314 300.515 140.744 301.232 143.111C301.937 145.462 302.849 147.812 303.588 150.231C304.347 152.643 304.95 155.101 305.394 157.589C306.339 162.626 305.918 167.822 304.173 172.645C303.237 174.971 302.175 177.246 300.992 179.458C299.618 181.561 298.575 183.858 297.896 186.271C298.007 185.017 298.333 183.79 298.859 182.643C299.358 181.468 299.891 180.344 300.407 179.237C301.467 176.984 302.402 174.675 303.21 172.322C304.743 167.637 305.045 162.643 304.087 157.81C303.667 155.37 303.093 152.958 302.367 150.588C301.714 148.204 300.768 145.87 300.183 143.384C299.083 138.512 298.447 133.232 300.132 128.446Z" fill="#573A41"/>
<path d="M288.921 195.69C290.158 200.911 290.679 206.274 290.468 211.633C290.336 217.058 289.022 222.392 286.617 227.268C285.409 229.594 284.479 232.052 283.848 234.592C283.237 237.151 282.789 239.745 282.507 242.359C282.017 247.651 282.017 252.976 282.507 258.267C281.53 252.995 281.212 247.623 281.561 242.274C281.829 236.861 283.173 231.553 285.516 226.655C286.728 224.333 287.668 221.881 288.319 219.348C288.908 216.785 289.316 214.184 289.54 211.564C289.883 206.266 289.676 200.947 288.921 195.69Z" fill="#573A41"/>
<path d="M275.044 261.333C276.269 263.93 277.026 266.72 277.279 269.576C277.572 272.44 277.52 275.327 277.125 278.178C276.699 281.016 275.973 283.802 274.958 286.49C274.494 287.852 273.84 289.13 273.238 290.441C272.637 291.753 271.863 292.945 271.141 294.171C272.155 291.497 273.187 288.891 273.961 286.183C274.755 283.496 275.364 280.759 275.783 277.99C276.165 275.225 276.314 272.434 276.23 269.645C276.169 266.837 275.771 264.047 275.044 261.333Z" fill="#573A41"/>
<path d="M308.488 46.0093C308.168 47.5611 308.023 49.1436 308.058 50.7273C308.077 52.2812 308.226 53.8308 308.505 55.3601C308.792 56.9025 309.171 58.4268 309.64 59.9248C310.122 61.4236 310.672 62.9054 311.205 64.4383C310.706 63.8081 310.276 63.1268 309.812 62.4455C309.348 61.7642 308.987 61.0319 308.677 60.2824C308.004 58.7826 307.508 57.2109 307.198 55.5985C306.918 53.9729 306.86 52.3171 307.026 50.6762C307.168 49.0343 307.666 47.4421 308.488 46.0093Z" fill="#573A41"/>
<path d="M319.89 62.9734C318.395 66.6456 316.113 69.9523 313.201 72.6648C311.778 74.0566 310.197 75.2798 308.489 76.3098C306.808 77.3703 304.992 78.2064 303.09 78.7965C304.809 77.7064 306.391 76.6675 307.905 75.39C309.445 74.2338 310.909 72.9823 312.289 71.6429C313.688 70.3172 315.014 68.9185 316.262 67.4529C317.517 66.0733 318.738 64.5744 319.89 62.9734Z" fill="#573A41"/>
<path d="M294.371 203.594C294.371 203.594 291.447 202.708 293.115 199.455C294.783 196.202 304.568 195.844 304.568 195.844C304.568 195.844 309.726 195.401 309.262 199.54C309.096 200.525 308.606 201.429 307.869 202.112C308.375 202.581 308.776 203.151 309.046 203.783C309.316 204.415 309.45 205.097 309.439 205.783C309.428 206.47 309.271 207.146 308.98 207.769C308.689 208.393 308.27 208.949 307.749 209.402C308.096 210.371 308.162 211.418 307.94 212.423C307.718 213.429 307.217 214.352 306.494 215.09C306.494 215.09 309.675 221.086 300.578 222.295C291.482 223.504 291.413 219.723 292.737 217.185C292.022 216.836 291.417 216.298 290.99 215.631C290.562 214.965 290.328 214.194 290.312 213.404C290.358 212.685 290.653 212.003 291.148 211.475C291.644 210.947 292.308 210.606 293.029 210.509C292.306 210.166 291.707 209.611 291.313 208.92C290.919 208.228 290.75 207.433 290.828 206.642C291.258 204.088 294.371 203.594 294.371 203.594Z" fill="url(#paint12_linear_56_41077)"/>
<path d="M294.371 203.593C295.121 203.369 295.885 203.193 296.658 203.065C297.432 202.929 298.206 202.861 298.979 202.776C299.753 202.691 300.527 202.691 301.301 202.776C302.083 202.782 302.865 202.839 303.64 202.946C302.892 203.186 302.128 203.368 301.352 203.491C300.596 203.627 299.822 203.696 299.048 203.781C298.274 203.866 297.501 203.866 296.71 203.781C295.927 203.777 295.145 203.714 294.371 203.593Z" fill="#EB967E"/>
<path d="M293.029 210.662C293.818 210.428 294.622 210.251 295.437 210.134C296.228 209.981 297.036 209.913 297.844 209.828C298.652 209.785 299.461 209.785 300.269 209.828C301.091 209.819 301.913 209.87 302.728 209.981C301.945 210.219 301.146 210.401 300.337 210.526C299.535 210.664 298.726 210.761 297.913 210.815C297.105 210.815 296.296 210.918 295.488 210.901C294.664 210.88 293.842 210.8 293.029 210.662Z" fill="#EB967E"/>
<path d="M292.736 217.253C293.457 217.027 294.192 216.851 294.937 216.725C295.66 216.589 296.416 216.521 297.156 216.453C297.9 216.41 298.646 216.41 299.391 216.453C300.146 216.457 300.899 216.519 301.644 216.64C300.923 216.866 300.188 217.043 299.443 217.168C298.703 217.304 297.964 217.373 297.224 217.441C296.485 217.509 295.728 217.526 294.989 217.441C294.234 217.437 293.481 217.375 292.736 217.253Z" fill="#EB967E"/>
<mask id="mask0_56_41077" style="mask-type:luminance" maskUnits="userSpaceOnUse" x="75" y="211" width="149" height="261">
<path d="M176.977 211.241C176.977 211.241 185.128 211.633 186.108 214.511C186.108 214.511 183.236 257.586 190.046 292.86C190.046 292.86 209.804 407.778 223.422 446.731C223.798 447.809 223.789 448.981 223.398 450.053C223.007 451.126 222.257 452.033 221.273 452.624C206.949 461.294 149.963 490.181 78.0513 452.25C77.0572 451.723 76.2707 450.881 75.8184 449.859C75.3662 448.836 75.2744 447.692 75.558 446.612C80.4587 427.689 102.503 342.05 105.788 295.994C105.788 295.994 116.346 242.274 111.29 214.75C112.493 213.506 114.063 212.672 115.774 212.366C117.485 212.06 119.251 212.298 120.817 213.046L176.977 211.241Z" fill="white"/>
</mask>
<g mask="url(#mask0_56_41077)">
<g opacity="0.7">
<path d="M151.476 325.954C151.356 350.072 151.786 374.207 152.955 398.308C153.488 410.35 154.296 422.392 155.449 434.399C156.406 446.446 158.285 458.403 161.071 470.167C158.251 458.406 156.337 446.449 155.345 434.399C154.199 422.386 153.333 410.355 152.749 398.308C151.665 374.173 151.287 350.072 151.476 325.954Z" fill="#57549A"/>
<path d="M145.527 325.954C145.716 350.072 145.355 374.207 144.254 398.308C143.704 410.367 142.844 422.397 141.675 434.399C140.677 446.449 138.757 458.406 135.932 470.167C138.723 458.404 140.609 446.446 141.572 434.399C142.718 422.386 143.544 410.355 144.048 398.308C145.217 374.173 145.647 350.072 145.527 325.954Z" fill="#57549A"/>
</g>
</g>
<path d="M188.946 440.395C200.689 437.165 211.892 432.253 222.202 425.815C222.573 425.574 222.836 425.2 222.935 424.772C223.035 424.343 222.963 423.893 222.735 423.516C204.508 394.101 190.768 292.656 190.768 292.656C183.89 257.433 186.108 214.511 186.108 214.511C185.128 211.633 176.978 211.241 176.978 211.241C176.978 211.241 183.185 251.08 156.566 274.363C156.566 274.363 159.868 352.32 168.999 393.692C171.949 408.035 175.779 422.187 180.468 436.069C181.043 437.735 182.247 439.117 183.827 439.923C185.408 440.73 187.242 440.899 188.946 440.395Z" fill="url(#paint13_linear_56_41077)"/>
<path d="M108.058 440.395C96.317 437.16 85.1141 432.248 74.802 425.815C74.4335 425.572 74.1742 425.197 74.0781 424.768C73.982 424.34 74.0565 423.891 74.2861 423.516C92.4962 394.101 106.253 292.656 106.253 292.656C113.045 257.433 110.913 214.511 110.913 214.511C111.876 211.633 120.043 211.241 120.043 211.241C120.043 211.241 113.819 251.08 140.437 274.363C140.437 274.363 137.136 352.32 128.005 393.692C122.984 416.43 118.943 429.46 116.536 436.069C115.961 437.735 114.757 439.117 113.177 439.923C111.596 440.73 109.762 440.899 108.058 440.395Z" fill="url(#paint14_linear_56_41077)"/>
<path d="M177.287 256.888L164.803 309.858L161.846 345.558L155.432 269.645L177.287 256.888Z" fill="url(#paint15_linear_56_41077)"/>
<g opacity="0.5">
<path d="M157.564 268.061L160.144 302.79L162.517 337.519L159.92 302.807L157.564 268.061Z" fill="white"/>
</g>
<path d="M120.008 256.888L132.492 309.858L135.432 345.558L141.863 269.645L120.008 256.888Z" fill="url(#paint16_linear_56_41077)"/>
<g opacity="0.5">
<path d="M139.732 268.061L137.359 302.807L134.779 337.519L137.152 302.79L139.732 268.061Z" fill="white"/>
</g>
<path d="M220.396 435.916C209.823 442.293 198.331 447.038 186.314 449.984C174.335 453.069 161.996 454.564 149.619 454.43C143.432 454.382 137.256 453.916 131.134 453.033C128.073 452.675 125.047 452.028 122.003 451.483C118.959 450.938 115.967 450.189 112.993 449.337C101.077 446.095 89.5472 441.596 78.6016 435.916C89.5513 441.561 101.081 446.026 112.993 449.235C115.95 450.069 118.994 450.683 122.003 451.347C125.012 452.011 128.056 452.522 131.134 452.863C137.246 453.726 143.411 454.181 149.585 454.225C161.945 454.384 174.272 452.924 186.246 449.882C198.279 446.971 209.795 442.262 220.396 435.916Z" fill="#564DA0"/>
<path d="M220.345 438.896C209.769 445.267 198.277 450.011 186.264 452.965C174.283 456.041 161.944 457.536 149.568 457.41C143.387 457.357 137.217 456.885 131.1 455.997C128.022 455.639 124.996 454.992 121.952 454.464C118.909 453.936 115.917 453.169 112.942 452.318C101.027 449.073 89.498 444.573 78.5508 438.896C89.5034 444.535 101.032 449 112.942 452.216C115.917 453.05 118.943 453.646 121.952 454.328C124.962 455.009 128.022 455.486 131.083 455.844C137.195 456.709 143.36 457.159 149.534 457.189C161.899 457.362 174.233 455.908 186.212 452.863C198.236 449.941 209.745 445.232 220.345 438.896Z" fill="#564DA0"/>
<path d="M223.389 450.035L217.542 446.084L214.585 444.108C214.351 443.93 214.063 443.833 213.768 443.833C213.473 443.833 213.186 443.93 212.951 444.108C212.453 444.466 212.435 445.13 212.263 445.675L210.458 452.488L209.564 455.895L209.099 457.598C209.034 457.889 208.871 458.15 208.637 458.339C208.403 458.528 208.111 458.632 207.81 458.637C207.197 458.545 206.61 458.324 206.09 457.99L204.508 457.206L201.344 455.639L195.034 452.505C194.523 452.226 193.995 451.982 193.452 451.773C193.166 451.727 192.874 451.778 192.621 451.917C192.369 452.056 192.171 452.275 192.059 452.539L190.821 455.809L188.344 462.367C187.897 463.457 187.553 464.547 187.055 465.637C186.879 465.89 186.621 466.076 186.325 466.166C186.028 466.255 185.71 466.243 185.421 466.131C184.871 465.841 184.441 465.484 183.942 465.16L178.096 461.226L172.267 457.274C171.785 456.934 171.287 456.559 170.719 456.746C170.152 456.934 169.894 457.427 169.601 457.938L167.882 461.004L164.443 467.119L163.583 468.652C163.273 469.112 163.101 469.776 162.482 470.048C162.19 470.176 161.864 470.205 161.553 470.131C161.243 470.057 160.965 469.885 160.763 469.64L159.542 468.379L149.723 458.347C149.507 458.181 149.24 458.092 148.967 458.092C148.693 458.092 148.427 458.181 148.21 458.347L147.024 459.625L144.651 462.214L139.87 467.323L138.684 468.618C138.254 469.01 137.979 469.572 137.343 469.793C137.031 469.908 136.688 469.911 136.374 469.802C136.06 469.693 135.795 469.479 135.623 469.197L134.608 467.766L130.533 462.043L126.458 456.32C126.307 456.085 126.082 455.905 125.818 455.809C125.553 455.714 125.264 455.708 124.996 455.792C124.494 456.083 124.017 456.413 123.569 456.78L120.749 458.858L115.074 463.048L113.664 464.104C113.221 464.496 112.716 464.813 112.168 465.041C111.863 465.101 111.547 465.058 111.27 464.919C110.993 464.78 110.77 464.553 110.638 464.274L109.898 462.69L106.958 456.337L105.479 453.152L104.74 451.568C104.499 451.04 104.293 450.444 103.691 450.274C103.405 450.225 103.112 450.239 102.832 450.315C102.553 450.392 102.294 450.529 102.074 450.717L100.544 451.585L97.4661 453.289L91.3101 456.695C91.0807 456.9 90.7962 457.035 90.491 457.083C90.1859 457.132 89.8731 457.092 89.5905 456.968C89.3138 456.847 89.0928 456.629 88.9715 456.354C88.8621 456.084 88.7758 455.805 88.7136 455.52L87.8194 452.113L86.0998 445.3C85.9799 444.72 85.8131 444.151 85.6012 443.597C85.4429 443.352 85.205 443.168 84.9267 443.075C84.6484 442.982 84.3465 442.986 84.0708 443.086C83.0562 443.665 82.1105 444.381 81.1303 445.028L75.5762 449.116L81.3882 445.13C82.3684 444.483 83.297 443.767 84.3115 443.171C84.5946 443.077 84.9014 443.077 85.1843 443.172C85.4672 443.268 85.7104 443.453 85.8763 443.699C86.093 444.253 86.2655 444.822 86.3922 445.403L88.1117 452.216L89.0059 455.622C89.1262 456.184 89.2638 456.814 89.8485 457.053C90.1214 457.157 90.4181 457.185 90.7061 457.134C90.9942 457.083 91.2626 456.955 91.482 456.763L97.6208 453.357L100.699 451.653L102.229 450.785C102.458 450.578 102.734 450.43 103.034 450.353C103.333 450.276 103.647 450.272 103.949 450.342C104.244 450.429 104.5 450.616 104.671 450.87C104.814 451.128 104.941 451.396 105.049 451.671L105.806 453.255L107.285 456.423L110.242 462.776L110.982 464.377C111.103 464.63 111.305 464.836 111.557 464.962C111.81 465.089 112.097 465.128 112.375 465.075C112.925 464.939 113.338 464.445 113.836 464.138L115.246 463.082L120.904 458.892L123.724 456.797C124.186 456.42 124.681 456.084 125.202 455.792C125.498 455.696 125.819 455.7 126.112 455.805C126.405 455.91 126.654 456.11 126.819 456.371L130.911 462.077L134.987 467.8L136.018 469.231C136.163 469.464 136.382 469.642 136.64 469.738C136.899 469.834 137.182 469.841 137.446 469.759C137.962 469.589 138.271 469.027 138.701 468.635L139.887 467.34L144.651 462.231L147.024 459.642C147.436 459.199 147.797 458.773 148.227 458.347C148.475 458.162 148.777 458.062 149.087 458.062C149.397 458.062 149.699 458.162 149.947 458.347L159.783 468.413L161.004 469.674C161.173 469.895 161.414 470.052 161.685 470.12C161.957 470.188 162.244 470.163 162.5 470.048C163.015 469.844 163.205 469.214 163.514 468.737L164.374 467.204L167.813 461.089L169.533 458.041C169.662 457.774 169.811 457.518 169.98 457.274C170.161 457.019 170.43 456.838 170.736 456.763C171.041 456.689 171.362 456.719 171.648 456.848C171.912 456.987 172.165 457.147 172.404 457.325L178.234 461.277L184.063 465.245C184.544 465.552 185.026 465.927 185.524 466.199C185.787 466.298 186.076 466.306 186.344 466.222C186.612 466.139 186.844 465.969 187.003 465.739C187.485 464.7 187.863 463.576 188.293 462.486L190.786 455.946L192.024 452.675C192.141 452.395 192.352 452.162 192.621 452.016C192.89 451.871 193.201 451.821 193.503 451.875C194.063 452.07 194.604 452.316 195.119 452.607L201.43 455.758L204.594 457.325L206.159 458.109C206.709 458.33 207.191 458.756 207.775 458.756C208.066 458.751 208.346 458.649 208.571 458.467C208.796 458.284 208.952 458.032 209.013 457.751L209.478 456.048L210.389 452.641L212.109 445.828C212.298 445.3 212.315 444.636 212.814 444.261C213.055 444.062 213.359 443.953 213.673 443.953C213.988 443.953 214.292 444.062 214.533 444.261L217.457 446.254L223.389 450.035Z" fill="#564DA0"/>
<path d="M219.743 106.474L217.25 84.9451C215.53 69.8033 206.589 56.5862 193.881 50.2501L192.643 49.637L202.84 111.567C202.84 111.567 209.271 145.632 192.523 146.977C175.774 148.323 111.325 160.194 111.325 160.194C111.325 160.194 97.9643 165.304 96.0212 126.504L91.4988 63.0755L89.7792 62.7178C79.1008 72.4774 74.2001 87.9769 76.9857 103.255L83.1761 137.32L96.6746 173.871L180.176 185.522L208.979 159.189L219.743 106.474Z" fill="url(#paint17_linear_56_41077)"/>
<path d="M211.713 109.983C210.991 102.676 217.559 97.2941 223.75 100.207C228.135 102.302 232.674 106.321 231.058 116.49C227.344 139.926 213.329 125.67 213.329 125.67L211.713 109.983Z" fill="#FED9BB"/>
<path d="M221.669 111.874C220.503 111.885 219.376 112.287 218.47 113.015C217.668 113.766 217.142 114.761 216.974 115.842C216.691 118.173 216.691 120.529 216.974 122.86C216.49 121.735 216.144 120.557 215.943 119.351C215.727 118.122 215.727 116.866 215.943 115.638C216.046 114.989 216.279 114.368 216.628 113.81C216.976 113.251 217.433 112.767 217.972 112.385C218.511 112.033 219.123 111.805 219.762 111.716C220.401 111.628 221.053 111.682 221.669 111.874Z" fill="#FCCAB7"/>
<path d="M92.4961 125.125C91.344 117.869 83.6233 114.31 78.3958 118.67C74.6988 121.787 71.3285 126.811 75.4726 136.247C85.0505 157.998 94.9723 140.71 94.9723 140.71L92.4961 125.125Z" fill="#FCCAB7"/>
<path d="M83.3301 129.468C83.8788 129.137 84.4934 128.928 85.1315 128.854C85.7697 128.781 86.4164 128.845 87.0271 129.042C88.2684 129.537 89.2672 130.49 89.8128 131.7C90.3375 132.834 90.6576 134.05 90.7586 135.293C90.8619 136.508 90.8273 137.731 90.6554 138.938C90.3502 136.609 89.7732 134.323 88.9358 132.125C88.4877 131.127 87.7284 130.297 86.7692 129.758C85.6863 129.289 84.4774 129.187 83.3301 129.468Z" fill="#E8B8AB"/>
<path d="M78.9449 219.178C78.3854 215.332 78.7137 211.41 79.9051 207.707C81.0964 204.005 83.1198 200.618 85.8231 197.802C86.0522 197.586 86.1982 197.298 86.2359 196.987C86.2735 196.676 86.2006 196.362 86.0295 196.099C83.8428 192.41 82.4385 188.319 81.9026 184.074C81.3467 180.129 81.5815 176.114 82.5935 172.26C83.6056 168.405 85.375 164.785 87.8006 161.608C87.969 161.399 88.0705 161.144 88.0919 160.877C88.1134 160.61 88.0538 160.343 87.921 160.109C86.0508 156.655 84.8329 152.892 84.3271 149.004C82.2809 133.198 92.2027 118.908 106.492 117.103C120.782 115.297 134.005 126.624 136.068 142.43C137.221 151.287 192.006 137.133 191.094 130.746C189.839 121.037 195.926 112.248 204.696 111.141C213.466 110.034 221.616 117 222.872 126.709C223.231 129.265 223.047 131.868 222.33 134.35C221.614 136.831 220.38 139.137 218.71 141.118C218.57 141.285 218.472 141.482 218.424 141.694C218.376 141.906 218.381 142.126 218.436 142.336C218.492 142.546 218.597 142.74 218.743 142.901C218.89 143.063 219.073 143.187 219.278 143.264C223.602 145.061 227.362 147.972 230.165 151.695C232.968 155.418 234.713 159.818 235.218 164.436C235.799 168.458 235.439 172.559 234.166 176.422C232.893 180.285 230.741 183.806 227.875 186.714C227.703 186.885 227.581 187.098 227.52 187.332C227.46 187.566 227.464 187.812 227.533 188.044C227.602 188.275 227.732 188.484 227.91 188.649C228.088 188.814 228.308 188.928 228.546 188.979C231.895 190.034 234.872 192.013 237.126 194.684C239.381 197.355 240.819 200.607 241.274 204.059C241.729 207.511 241.181 211.02 239.694 214.174C238.207 217.329 235.843 219.998 232.879 221.869C232.602 222.017 232.385 222.256 232.266 222.545C232.146 222.834 232.132 223.155 232.226 223.453C232.654 224.81 232.965 226.2 233.154 227.609C234.736 239.889 227.033 250.977 215.959 252.391H215.323C215.089 252.413 214.865 252.493 214.67 252.624C214.476 252.755 214.319 252.932 214.212 253.139C214.106 253.347 214.054 253.577 214.062 253.81C214.07 254.042 214.137 254.269 214.257 254.469C215.917 257.201 216.983 260.247 217.386 263.411C218.882 274.908 211.66 285.298 201.257 286.626C199.972 286.779 198.673 286.779 197.388 286.626C197.072 286.591 196.755 286.666 196.488 286.836C196.222 287.007 196.023 287.264 195.926 287.563C194.974 291.057 193.02 294.204 190.301 296.622C187.582 299.04 184.215 300.626 180.605 301.189C178.889 301.41 177.15 301.369 175.446 301.07C175.227 301.027 175.001 301.038 174.788 301.104C174.575 301.169 174.381 301.286 174.225 301.444C170.991 304.689 166.754 306.77 162.188 307.355C152.731 308.564 143.841 303.062 139.422 294.274C139.272 293.969 139.013 293.73 138.695 293.604C138.377 293.478 138.023 293.474 137.702 293.592C136.744 293.896 135.76 294.113 134.762 294.24C124.135 295.585 114.265 287.137 112.751 275.368C112.458 273.103 112.498 270.808 112.872 268.555C112.93 268.224 112.859 267.884 112.674 267.603C112.489 267.321 112.203 267.12 111.874 267.039C102.967 264.637 95.7794 256.377 94.4037 245.8C94.19 244.071 94.1382 242.326 94.249 240.588C94.2655 240.313 94.1969 240.041 94.0524 239.806C93.908 239.572 93.6945 239.387 93.4408 239.276C89.4906 237.434 86.0835 234.619 83.5455 231.1C81.0075 227.581 79.4235 223.476 78.9449 219.178Z" fill="url(#paint18_linear_56_41077)"/>
<path d="M154.614 182.118L166.195 180.646C195.283 176.95 215.838 150.597 212.107 121.785L206.272 76.729C202.54 47.9171 175.935 27.5566 146.847 31.2526L135.266 32.7241C106.179 36.4201 85.6231 62.773 89.3545 91.5849L95.1897 136.641C98.9211 165.453 125.526 185.814 154.614 182.118Z" fill="url(#paint19_linear_56_41077)"/>
<path d="M161.656 62.701C158.746 62.9624 155.914 63.7778 153.316 65.1026C152.057 65.7664 150.899 66.6037 149.877 67.5893C148.872 68.585 148.036 69.7354 147.401 70.9958C147.332 71.1174 147.218 71.2071 147.083 71.2454C146.947 71.2837 146.802 71.2674 146.679 71.2002C146.617 71.1685 146.563 71.1216 146.524 71.0639C145.606 69.9847 144.514 69.0638 143.291 68.3388C140.791 66.8532 137.918 66.0975 135.003 66.1586C134.262 66.1531 133.52 66.1986 132.785 66.2949C132.063 66.2949 131.341 66.5333 130.584 66.6526C131.998 66.1434 133.471 65.8115 134.969 65.6647C136.485 65.5168 138.015 65.5914 139.508 65.8861C141.015 66.2171 142.456 66.7926 143.773 67.5893C145.129 68.3517 146.339 69.3432 147.35 70.5189H146.473C147.183 69.1737 148.113 67.9537 149.224 66.9081C150.319 65.8699 151.58 65.0181 152.955 64.3872C154.32 63.77 155.751 63.3072 157.22 63.0076C158.682 62.7358 160.171 62.6329 161.656 62.701Z" fill="#FCCAB7"/>
<path d="M165.113 71.3027C161.766 71.5735 158.506 72.4937 155.518 74.0109C154.061 74.778 152.719 75.7409 151.529 76.8723C150.374 78.0204 149.411 79.3427 148.674 80.7897C148.642 80.8514 148.597 80.9061 148.543 80.9506C148.489 80.9951 148.427 81.0286 148.36 81.0492C148.292 81.0698 148.222 81.077 148.152 81.0705C148.082 81.064 148.014 81.0438 147.952 81.0112C147.89 80.9795 147.836 80.9326 147.797 80.8749C146.74 79.6551 145.485 78.6189 144.083 77.8091C141.209 76.0771 137.884 75.2184 134.522 75.3394C133.671 75.3315 132.821 75.3827 131.977 75.4927C131.152 75.6119 130.258 75.7992 129.467 75.9355C131.09 75.3703 132.776 74.9986 134.488 74.8284C136.213 74.6827 137.949 74.7802 139.647 75.1179C141.368 75.4697 143.018 76.1029 144.53 76.9915C146.079 77.882 147.459 79.035 148.605 80.398H147.728C149.352 77.3151 151.957 74.8486 155.14 73.3806C156.704 72.6721 158.341 72.1353 160.023 71.7796C161.697 71.4336 163.404 71.2736 165.113 71.3027Z" fill="#FCCAB7"/>
<path d="M176.926 167.297C176.926 167.297 183.236 196.831 162.155 202.111C141.073 207.391 137.066 172.373 137.066 172.373C137.066 172.373 156.48 160.229 176.926 167.297Z" fill="url(#paint20_linear_56_41077)"/>
<mask id="mask1_56_41077" style="mask-type:luminance" maskUnits="userSpaceOnUse" x="137" y="165" width="41" height="38">
<path d="M176.926 167.297C176.926 167.297 183.236 196.831 162.155 202.111C141.073 207.391 137.066 172.373 137.066 172.373C137.066 172.373 156.48 160.229 176.926 167.297Z" fill="white"/>
</mask>
<g mask="url(#mask1_56_41077)">
<path d="M174.621 196.474C174.621 196.474 157.958 183.784 146.214 202.588C134.469 221.392 184.422 224.287 174.621 196.474Z" fill="url(#paint21_linear_56_41077)"/>
</g>
<path d="M163.72 150.384C158.248 152.002 152.538 152.682 146.834 152.393L143.395 152.189C124.48 150.912 120.766 164.793 120.044 170.226C119.969 170.825 119.707 171.386 119.294 171.829C118.88 172.272 118.336 172.576 117.739 172.696C112.581 173.786 100.217 177.806 102.263 190.631C103.433 197.785 108.437 203.729 114.919 204.921C119.476 205.756 124.79 204.376 128.383 195.894C128.625 195.323 129.043 194.842 129.577 194.521C130.112 194.2 130.735 194.054 131.358 194.106C134.797 194.378 141.366 193.748 145.407 185.59C145.658 185.081 146.055 184.657 146.547 184.37C147.039 184.082 147.605 183.944 148.176 183.972C151.46 184.108 157.943 184.278 160.728 183.546C164.348 183.016 167.915 182.179 171.39 181.042C171.937 180.872 172.524 180.863 173.076 181.018C173.629 181.172 174.124 181.482 174.502 181.911C180.486 188.724 187.037 187.736 190.253 186.629C190.843 186.425 191.483 186.411 192.082 186.589C192.681 186.766 193.208 187.126 193.589 187.617C199.229 194.923 204.732 194.94 208.91 192.982C214.894 190.205 218.213 183.205 217.508 175.949C216.27 162.988 203.236 162.221 198.008 162.46C197.398 162.487 196.795 162.324 196.283 161.994C195.771 161.664 195.376 161.184 195.154 160.62C193.073 155.51 185.971 143.026 167.968 149.021C166.626 149.515 165.148 149.958 163.72 150.384Z" fill="url(#paint22_linear_56_41077)"/>
<path d="M155.844 158.713C162.957 158.713 168.724 153.001 168.724 145.956C168.724 138.91 162.957 133.198 155.844 133.198C148.731 133.198 142.965 138.91 142.965 145.956C142.965 153.001 148.731 158.713 155.844 158.713Z" fill="url(#paint23_linear_56_41077)"/>
<path d="M181.841 138.579C191.525 137.348 198.349 128.432 197.084 118.663C195.819 108.894 186.943 101.972 177.26 103.203C167.577 104.433 160.752 113.35 162.017 123.118C163.282 132.887 172.158 139.809 181.841 138.579Z" fill="url(#paint24_linear_56_41077)"/>
<path d="M183.512 134.886C188.796 134.198 192.506 129.316 191.798 123.979C191.091 118.643 186.234 114.875 180.95 115.562C175.666 116.249 171.956 121.132 172.664 126.468C173.371 131.804 178.228 135.573 183.512 134.886Z" fill="url(#paint25_linear_56_41077)"/>
<path d="M130.461 145.104C140.144 143.873 146.968 134.957 145.703 125.188C144.438 115.419 135.562 108.497 125.879 109.728C116.196 110.958 109.371 119.875 110.636 129.644C111.902 139.412 120.777 146.334 130.461 145.104Z" fill="url(#paint26_linear_56_41077)"/>
<path d="M134.468 141.617C139.762 140.944 143.492 136.065 142.799 130.718C142.107 125.372 137.254 121.584 131.96 122.256C126.666 122.929 122.936 127.808 123.629 133.154C124.321 138.501 129.174 142.289 134.468 141.617Z" fill="url(#paint27_linear_56_41077)"/>
<g opacity="0.05">
<path d="M184.527 148.766C174.416 150.043 165.044 141.953 163.6 130.831L200.226 126.181C201.67 137.422 194.655 147.471 184.527 148.766Z" stroke="#404041" stroke-width="0.68" stroke-miterlimit="10"/>
<path d="M130.532 155.613C120.421 156.907 111.05 148.8 109.605 137.678L146.232 133.028C147.676 144.235 140.643 154.335 130.532 155.613Z" stroke="#404041" stroke-width="0.68" stroke-miterlimit="10"/>
<path d="M163.6 130.831L146.232 133.028" stroke="#404041" stroke-width="0.68" stroke-miterlimit="10"/>
<path d="M109.605 137.677L93.0977 129.178" stroke="#404041" stroke-width="0.68" stroke-miterlimit="10" stroke-linecap="round"/>
<path d="M199.641 126.249L211.746 113.747" stroke="#404041" stroke-width="0.68" stroke-miterlimit="10" stroke-linecap="round"/>
</g>
<path d="M184.216 146.365C174.105 147.642 164.733 139.552 163.289 128.429L199.916 123.78C201.36 134.97 194.327 145.087 184.216 146.365Z" stroke="#B8B7BE" stroke-width="0.68" stroke-miterlimit="10"/>
<path d="M130.222 153.229C120.111 154.506 110.739 146.416 109.295 135.294L145.921 130.644C147.366 141.834 140.333 151.934 130.222 153.229Z" stroke="#B8B7BE" stroke-width="0.68" stroke-miterlimit="10"/>
<path d="M163.289 128.429L145.922 130.643" stroke="#B8B7BE" stroke-width="0.68" stroke-miterlimit="10"/>
<path d="M109.295 135.293L92.7871 126.777" stroke="#B8B7BE" stroke-width="0.68" stroke-miterlimit="10" stroke-linecap="round"/>
<path d="M200 123.911L211 112" stroke="#B8B7BE" stroke-width="0.68" stroke-miterlimit="10" stroke-linecap="round"/>
<path style="mix-blend-mode:multiply" opacity="0.1" d="M194.122 82.9183C194.122 82.9183 185.524 59.3795 162.155 75.0663C162.155 75.0663 146.542 82.8842 161.742 87.9428C162.668 88.2317 163.656 88.2704 164.602 88.0548C165.548 87.8392 166.419 87.3772 167.125 86.7165C167.365 86.4944 167.659 86.3361 167.978 86.2559C168.297 86.1758 168.631 86.1765 168.95 86.2579C169.268 86.3394 169.561 86.4989 169.801 86.722C170.041 86.945 170.221 87.2243 170.323 87.5341C171.647 91.5367 175.069 95.6755 183.804 87.5341C184.165 87.2109 184.634 87.0319 185.12 87.0319C185.606 87.0319 186.075 87.2109 186.435 87.5341C190.511 90.9916 201.55 99.5589 194.122 82.9183Z" fill="url(#paint28_linear_56_41077)"/>
<path d="M194.379 81.8284C194.379 81.8284 185.678 58.2896 162.413 73.9765C162.413 73.9765 146.799 81.7944 162 86.8359C162.924 87.1307 163.912 87.1739 164.858 86.9612C165.805 86.7484 166.677 86.2875 167.382 85.6266C167.623 85.4046 167.917 85.2462 168.236 85.1661C168.555 85.0859 168.889 85.0866 169.208 85.1681C169.526 85.2495 169.819 85.4091 170.059 85.6321C170.299 85.8551 170.478 86.1344 170.581 86.4442C171.905 90.4468 175.327 94.5857 184.062 86.4442C184.424 86.1246 184.892 85.9479 185.378 85.9479C185.863 85.9479 186.331 86.1246 186.693 86.4442C190.717 89.8337 201.808 98.3839 194.379 81.8284Z" fill="url(#paint29_linear_56_41077)"/>
<path style="mix-blend-mode:multiply" opacity="0.1" d="M131.547 80.6875C131.547 80.6875 109.692 67.9983 101.833 94.8414C101.833 94.8414 94.8003 110.699 109.76 105.061C110.673 104.712 111.473 104.126 112.079 103.365C112.684 102.603 113.071 101.695 113.199 100.735C113.244 100.412 113.369 100.106 113.564 99.8436C113.759 99.5815 114.017 99.3721 114.315 99.2347C114.613 99.0974 114.941 99.0364 115.269 99.0574C115.597 99.0784 115.914 99.1807 116.192 99.355C119.785 101.603 125.082 102.659 126.612 90.8388C126.679 90.3604 126.921 89.9229 127.292 89.6091C127.662 89.2953 128.136 89.1268 128.624 89.1356C133.851 89.1696 147.917 88.7949 131.547 80.6875Z" fill="url(#paint30_linear_56_41077)"/>
<path d="M130.996 79.6312C130.996 79.6312 109.192 66.9251 101.282 93.7C101.282 93.7 94.2495 109.557 109.21 103.919C110.122 103.57 110.923 102.984 111.528 102.223C112.133 101.462 112.52 100.554 112.649 99.5932C112.693 99.2706 112.818 98.9642 113.013 98.7021C113.208 98.44 113.466 98.2307 113.764 98.0933C114.062 97.9559 114.39 97.8949 114.718 97.916C115.046 97.937 115.363 98.0393 115.641 98.2136C119.235 100.462 124.531 101.501 126.061 89.6974C126.128 89.219 126.37 88.7815 126.741 88.4677C127.112 88.1538 127.586 87.9854 128.073 87.9941C133.301 88.1134 147.366 87.7387 130.996 79.6312Z" fill="url(#paint31_linear_56_41077)"/>
<path d="M182.995 7.4312L195.789 24.4636L152.68 23.3054L177.957 6.49442C178.759 5.98356 179.727 5.796 180.664 5.9702C181.601 6.1444 182.435 6.66715 182.995 7.4312Z" fill="#F68F64"/>
<path d="M125.322 26.1835L99.2359 16.492C98.3941 16.1836 97.4683 16.186 96.6283 16.4989C95.7882 16.8117 95.09 17.414 94.6619 18.1953L82.625 38.9918L125.322 26.1835Z" fill="#F68F64"/>
<path d="M208.221 11.0931L205.109 53.5719C205.085 53.9325 204.988 54.2848 204.825 54.6079C204.662 54.9311 204.435 55.2186 204.158 55.4535C203.88 55.6884 203.559 55.866 203.211 55.9758C202.863 56.0855 202.497 56.1253 202.134 56.0927C163.307 53.5925 124.359 58.5608 87.4395 70.7236C86.7553 70.9407 86.0124 70.8841 85.3698 70.5658C84.7271 70.2475 84.2356 69.6928 84.0004 69.0203L69.6594 28.7898C69.4068 28.086 69.3495 27.3279 69.4936 26.5947C69.6377 25.8616 69.9779 25.1801 70.4785 24.6216C70.9792 24.063 71.6221 23.6478 72.34 23.4193C73.0579 23.1908 73.8246 23.1573 74.5601 23.3224L101.385 29.3178C102.143 29.4867 102.931 29.4662 103.678 29.258C104.426 29.0499 105.109 28.6607 105.667 28.1255L133.953 1.16321C134.592 0.555811 135.407 0.163087 136.284 0.0407894C137.161 -0.0815086 138.054 0.0728318 138.837 0.481907L174.38 18.928C175.048 19.2686 175.787 19.4463 176.538 19.4463C177.289 19.4463 178.029 19.2686 178.696 18.928L202.099 7.09049C202.764 6.75394 203.506 6.59811 204.251 6.63895C204.996 6.67979 205.716 6.91583 206.339 7.32293C206.962 7.73003 207.464 8.29357 207.795 8.95599C208.125 9.6184 208.272 10.3559 208.221 11.0931Z" fill="url(#paint32_linear_56_41077)"/>
<path d="M145.648 49.3647L151.701 38.2255C152.051 37.5736 152.188 36.8299 152.092 36.0975C151.997 35.365 151.673 34.6802 151.168 34.1378L142.467 24.8551C142.079 24.4443 141.599 24.1306 141.065 23.94C140.532 23.7494 139.96 23.6873 139.397 23.7588C138.834 23.8304 138.297 24.0335 137.829 24.3515C137.361 24.6694 136.976 25.0931 136.706 25.5875L130.653 36.7437C130.298 37.3943 130.158 38.1392 130.254 38.8728C130.35 39.6064 130.676 40.2916 131.186 40.8315L139.887 50.0971C140.273 50.5115 140.753 50.8284 141.287 51.0212C141.821 51.2141 142.395 51.2773 142.959 51.2056C143.523 51.1339 144.061 50.9293 144.529 50.609C144.997 50.2887 145.381 49.8621 145.648 49.3647Z" fill="url(#paint33_linear_56_41077)"/>
<path d="M186.848 46.7585L190.528 39.9455C190.746 39.5501 190.832 39.0963 190.773 38.6495C190.714 38.2026 190.514 37.7857 190.201 37.4588L184.922 31.8211C184.687 31.5822 184.399 31.4009 184.081 31.2914C183.764 31.1819 183.424 31.1473 183.091 31.1903C182.757 31.2332 182.438 31.3527 182.159 31.539C181.88 31.7254 181.648 31.9735 181.483 32.2639L177.803 39.0769C177.589 39.4693 177.504 39.9181 177.559 40.3607C177.615 40.8033 177.808 41.2178 178.113 41.5466L183.409 47.1843C183.641 47.4272 183.927 47.6126 184.245 47.7255C184.562 47.8384 184.902 47.8756 185.237 47.8342C185.572 47.7927 185.892 47.6737 186.172 47.4868C186.452 47.3 186.683 47.0504 186.848 46.7585Z" fill="url(#paint34_linear_56_41077)"/>
<path d="M102.658 57.4552L106.338 50.6422C106.552 50.2497 106.637 49.801 106.581 49.3584C106.526 48.9158 106.333 48.5013 106.028 48.1725L100.732 42.5348C100.499 42.2926 100.212 42.1082 99.8931 41.9966C99.5746 41.885 99.2341 41.8494 98.8991 41.8925C98.5641 41.9357 98.2442 42.0564 97.9651 42.2449C97.686 42.4334 97.4557 42.6845 97.2929 42.9776L93.6131 49.7906C93.3948 50.186 93.3089 50.6398 93.3676 51.0867C93.4263 51.5335 93.6266 51.9504 93.9398 52.2773L99.2188 57.9151C99.4549 58.1532 99.7437 58.3335 100.062 58.4416C100.381 58.5498 100.721 58.5829 101.055 58.5382C101.388 58.4936 101.707 58.3725 101.986 58.1844C102.264 57.9964 102.494 57.7467 102.658 57.4552Z" fill="url(#paint35_linear_56_41077)"/>
<defs>
<linearGradient id="paint0_linear_56_41077" x1="178.931" y1="313.417" x2="100.002" y2="468.751" gradientUnits="userSpaceOnUse">
<stop stop-color="#7C76B7"/>
<stop offset="0.63" stop-color="#6B65AD"/>
<stop offset="1" stop-color="#57549A"/>
</linearGradient>
<linearGradient id="paint1_linear_56_41077" x1="76.0976" y1="243.23" x2="39.0314" y2="204.064" gradientUnits="userSpaceOnUse">
<stop stop-color="#FEE3CC"/>
<stop offset="0.3" stop-color="#FED9BB"/>
</linearGradient>
<linearGradient id="paint2_linear_56_41077" x1="44.2149" y1="266.096" x2="102.571" y2="217.128" gradientUnits="userSpaceOnUse">
<stop stop-color="#8C5BA1"/>
<stop offset="0.69" stop-color="#A671B0"/>
<stop offset="1" stop-color="#AA75B2"/>
</linearGradient>
<linearGradient id="paint3_linear_56_41077" x1="20.8488" y1="239.052" x2="60.4182" y2="205.849" gradientUnits="userSpaceOnUse">
<stop stop-color="#B293C4"/>
<stop offset="0.18" stop-color="#B69BC8"/>
<stop offset="0.46" stop-color="#C2B2D3"/>
<stop offset="0.65" stop-color="#CCC5DC"/>
<stop offset="1" stop-color="#D4CEE2"/>
</linearGradient>
<linearGradient id="paint4_linear_56_41077" x1="70.0012" y1="142.76" x2="43.9522" y2="171.379" gradientUnits="userSpaceOnUse">
<stop stop-color="#FCCAB7"/>
<stop offset="0.23" stop-color="#FDD3BA"/>
<stop offset="0.51" stop-color="#FED9BB"/>
<stop offset="1" stop-color="#FEE3CC"/>
</linearGradient>
<linearGradient id="paint5_linear_56_41077" x1="251.712" y1="238.96" x2="292.484" y2="203.751" gradientUnits="userSpaceOnUse">
<stop stop-color="#FEE3CC"/>
<stop offset="0.3" stop-color="#FED9BB"/>
</linearGradient>
<linearGradient id="paint6_linear_56_41077" x1="277.623" y1="263.843" x2="224.667" y2="208.853" gradientUnits="userSpaceOnUse">
<stop stop-color="#8C5BA1"/>
<stop offset="0.69" stop-color="#A671B0"/>
<stop offset="1" stop-color="#AA75B2"/>
</linearGradient>
<linearGradient id="paint7_linear_56_41077" x1="303.822" y1="239.328" x2="267.922" y2="202.049" gradientUnits="userSpaceOnUse">
<stop stop-color="#B293C4"/>
<stop offset="0.18" stop-color="#B69BC8"/>
<stop offset="0.46" stop-color="#C2B2D3"/>
<stop offset="0.65" stop-color="#CCC5DC"/>
<stop offset="1" stop-color="#D4CEE2"/>
</linearGradient>
<linearGradient id="paint8_linear_56_41077" x1="257.311" y1="189.57" x2="231.007" y2="197.956" gradientUnits="userSpaceOnUse">
<stop stop-color="#FCCAB7"/>
<stop offset="0.23" stop-color="#FDD3BA"/>
<stop offset="0.51" stop-color="#FED9BB"/>
<stop offset="1" stop-color="#FEE3CC"/>
</linearGradient>
<linearGradient id="paint9_linear_56_41077" x1="253.243" y1="176.535" x2="229.777" y2="184.016" gradientUnits="userSpaceOnUse">
<stop stop-color="#FCCAB7"/>
<stop offset="0.23" stop-color="#FDD3BA"/>
<stop offset="0.51" stop-color="#FED9BB"/>
<stop offset="1" stop-color="#FEE3CC"/>
</linearGradient>
<linearGradient id="paint10_linear_56_41077" x1="287.78" y1="115.439" x2="272.395" y2="113.557" gradientUnits="userSpaceOnUse">
<stop stop-color="#7D525C"/>
<stop offset="0.5" stop-color="#814A5B"/>
</linearGradient>
<linearGradient id="paint11_linear_56_41077" x1="275.682" y1="247.187" x2="240.283" y2="242.855" gradientUnits="userSpaceOnUse">
<stop stop-color="#7D525C"/>
<stop offset="0.26" stop-color="#814A5B"/>
<stop offset="0.61" stop-color="#6C3F51"/>
<stop offset="1" stop-color="#4F3043"/>
</linearGradient>
<linearGradient id="paint12_linear_56_41077" x1="290.049" y1="209.891" x2="310.087" y2="208.313" gradientUnits="userSpaceOnUse">
<stop stop-color="#FCCAB7"/>
<stop offset="0.23" stop-color="#FDD3BA"/>
<stop offset="0.51" stop-color="#FED9BB"/>
<stop offset="1" stop-color="#FEE3CC"/>
</linearGradient>
<linearGradient id="paint13_linear_56_41077" x1="183.013" y1="335.714" x2="204.367" y2="459.115" gradientUnits="userSpaceOnUse">
<stop stop-color="#AA75B2"/>
<stop offset="0.53" stop-color="#A671B0"/>
<stop offset="1" stop-color="#8C5BA1"/>
</linearGradient>
<linearGradient id="paint14_linear_56_41077" x1="117.653" y1="312.924" x2="91.6529" y2="442.74" gradientUnits="userSpaceOnUse">
<stop stop-color="#AA75B2"/>
<stop offset="0.31" stop-color="#A671B0"/>
<stop offset="1" stop-color="#8C5BA1"/>
</linearGradient>
<linearGradient id="paint15_linear_56_41077" x1="166.351" y1="370.766" x2="166.351" y2="281.755" gradientUnits="userSpaceOnUse">
<stop stop-color="#D4CEE2"/>
<stop offset="0.35" stop-color="#CCC5DC"/>
<stop offset="0.54" stop-color="#C2B2D3"/>
<stop offset="0.82" stop-color="#B69BC8"/>
<stop offset="1" stop-color="#B293C4"/>
</linearGradient>
<linearGradient id="paint16_linear_56_41077" x1="130.927" y1="370.766" x2="130.927" y2="281.755" gradientUnits="userSpaceOnUse">
<stop stop-color="#D4CEE2"/>
<stop offset="0.35" stop-color="#CCC5DC"/>
<stop offset="0.54" stop-color="#C2B2D3"/>
<stop offset="0.82" stop-color="#B69BC8"/>
<stop offset="1" stop-color="#B293C4"/>
</linearGradient>
<linearGradient id="paint17_linear_56_41077" x1="135.035" y1="31.8832" x2="154.061" y2="166.138" gradientUnits="userSpaceOnUse">
<stop offset="0.2" stop-color="#F1F1F2"/>
<stop offset="0.53" stop-color="#E4DEEB"/>
<stop offset="0.81" stop-color="#D4CEE2"/>
<stop offset="1" stop-color="#CCC5DC"/>
</linearGradient>
<linearGradient id="paint18_linear_56_41077" x1="199.823" y1="131.331" x2="98.2613" y2="257.324" gradientUnits="userSpaceOnUse">
<stop offset="0.2" stop-color="#F1F1F2"/>
<stop offset="0.53" stop-color="#E4DEEB"/>
<stop offset="0.81" stop-color="#D4CEE2"/>
<stop offset="1" stop-color="#CCC5DC"/>
</linearGradient>
<linearGradient id="paint19_linear_56_41077" x1="186.916" y1="59.8012" x2="116.996" y2="152.12" gradientUnits="userSpaceOnUse">
<stop stop-color="#FEE3CC"/>
<stop offset="0.26" stop-color="#FEDFC6"/>
<stop offset="0.49" stop-color="#FED9BB"/>
<stop offset="0.7" stop-color="#FDD1B9"/>
<stop offset="1" stop-color="#FCCAB7"/>
</linearGradient>
<linearGradient id="paint20_linear_56_41077" x1="170.253" y1="209.683" x2="162.555" y2="173.415" gradientUnits="userSpaceOnUse">
<stop stop-color="#431918"/>
<stop offset="1" stop-color="#622424"/>
</linearGradient>
<linearGradient id="paint21_linear_56_41077" x1="176.834" y1="215.584" x2="145.347" y2="206.369" gradientUnits="userSpaceOnUse">
<stop stop-color="#D88EAA"/>
<stop offset="0.38" stop-color="#F4A4C7"/>
<stop offset="1" stop-color="#F6BBD5"/>
</linearGradient>
<linearGradient id="paint22_linear_56_41077" x1="242.508" y1="146.722" x2="129.762" y2="173.929" gradientUnits="userSpaceOnUse">
<stop offset="0.2" stop-color="#F1F1F2"/>
<stop offset="0.53" stop-color="#E4DEEB"/>
<stop offset="0.81" stop-color="#D4CEE2"/>
<stop offset="1" stop-color="#CCC5DC"/>
</linearGradient>
<linearGradient id="paint23_linear_56_41077" x1="167.711" y1="116.519" x2="143.678" y2="148.755" gradientUnits="userSpaceOnUse">
<stop stop-color="#FED9BB"/>
<stop offset="0.17" stop-color="#FDCFB8"/>
<stop offset="0.36" stop-color="#FCCAB7"/>
<stop offset="0.42" stop-color="#FAC7B4"/>
<stop offset="0.69" stop-color="#F2BCA9"/>
<stop offset="1" stop-color="#F0B8A5"/>
</linearGradient>
<linearGradient id="paint24_linear_56_41077" x1="177.909" y1="104.202" x2="181.25" y2="139.064" gradientUnits="userSpaceOnUse">
<stop stop-color="white"/>
<stop offset="0.35" stop-color="#FCFBFD"/>
<stop offset="0.69" stop-color="#F2EFF6"/>
<stop offset="1" stop-color="#E4DEEB"/>
</linearGradient>
<linearGradient id="paint25_linear_56_41077" x1="189.852" y1="128.503" x2="172.186" y2="120.771" gradientUnits="userSpaceOnUse">
<stop stop-color="#001633"/>
<stop offset="1" stop-color="#273861"/>
</linearGradient>
<linearGradient id="paint26_linear_56_41077" x1="126.179" y1="112.042" x2="130.594" y2="146.787" gradientUnits="userSpaceOnUse">
<stop stop-color="white"/>
<stop offset="0.35" stop-color="#FCFBFD"/>
<stop offset="0.69" stop-color="#F2EFF6"/>
<stop offset="1" stop-color="#E4DEEB"/>
</linearGradient>
<linearGradient id="paint27_linear_56_41077" x1="140.375" y1="136.092" x2="123.758" y2="126.296" gradientUnits="userSpaceOnUse">
<stop stop-color="#001633"/>
<stop offset="1" stop-color="#273861"/>
</linearGradient>
<linearGradient id="paint28_linear_56_41077" x1="176.807" y1="81.6402" x2="184.757" y2="44.1862" gradientUnits="userSpaceOnUse">
<stop stop-color="#F1F1F2"/>
<stop offset="0.14" stop-color="#CBCBCC"/>
<stop offset="0.35" stop-color="#9A9A9B"/>
<stop offset="0.55" stop-color="#737374"/>
<stop offset="0.73" stop-color="#575758"/>
<stop offset="0.88" stop-color="#464647"/>
<stop offset="1" stop-color="#404041"/>
</linearGradient>
<linearGradient id="paint29_linear_56_41077" x1="193.923" y1="86.8446" x2="152.456" y2="41.8035" gradientUnits="userSpaceOnUse">
<stop stop-color="#F1F1F2"/>
<stop offset="0.53" stop-color="#E4DEEB"/>
<stop offset="0.81" stop-color="#D4CEE2"/>
<stop offset="1" stop-color="#CCC5DC"/>
</linearGradient>
<linearGradient id="paint30_linear_56_41077" x1="132.462" y1="93.0736" x2="115.889" y2="60.7019" gradientUnits="userSpaceOnUse">
<stop stop-color="#F1F1F2"/>
<stop offset="0.14" stop-color="#CBCBCC"/>
<stop offset="0.35" stop-color="#9A9A9B"/>
<stop offset="0.55" stop-color="#737374"/>
<stop offset="0.73" stop-color="#575758"/>
<stop offset="0.88" stop-color="#464647"/>
<stop offset="1" stop-color="#404041"/>
</linearGradient>
<linearGradient id="paint31_linear_56_41077" x1="150.61" y1="85.3763" x2="92.7924" y2="77.5188" gradientUnits="userSpaceOnUse">
<stop stop-color="#F1F1F2"/>
<stop offset="0.52" stop-color="#E4DEEB"/>
<stop offset="0.81" stop-color="#D4CEE2"/>
<stop offset="1" stop-color="#CCC5DC"/>
</linearGradient>
<linearGradient id="paint32_linear_56_41077" x1="205.366" y1="14.4338" x2="66.8564" y2="32.7962" gradientUnits="userSpaceOnUse">
<stop stop-color="#FCCB7D"/>
<stop offset="0.42" stop-color="#FBB672"/>
<stop offset="0.67" stop-color="#FBB471"/>
<stop offset="0.81" stop-color="#FAAB6E"/>
<stop offset="0.92" stop-color="#F89D69"/>
<stop offset="1" stop-color="#F68F64"/>
</linearGradient>
<linearGradient id="paint33_linear_56_41077" x1="138.589" y1="42.2276" x2="134.688" y2="12.2373" gradientUnits="userSpaceOnUse">
<stop stop-color="#564DA0"/>
<stop offset="0.69" stop-color="#766AB0"/>
<stop offset="1" stop-color="#7C76B7"/>
</linearGradient>
<linearGradient id="paint34_linear_56_41077" x1="180.815" y1="39.0164" x2="178.445" y2="20.7995" gradientUnits="userSpaceOnUse">
<stop stop-color="#564DA0"/>
<stop offset="0.69" stop-color="#766AB0"/>
<stop offset="1" stop-color="#7C76B7"/>
</linearGradient>
<linearGradient id="paint35_linear_56_41077" x1="96.7858" y1="49.9461" x2="94.4164" y2="31.7292" gradientUnits="userSpaceOnUse">
<stop stop-color="#564DA0"/>
<stop offset="0.69" stop-color="#766AB0"/>
<stop offset="1" stop-color="#7C76B7"/>
</linearGradient>
</defs>
</svg>
