<svg width="217" height="208" viewBox="0 0 217 208" fill="none" xmlns="http://www.w3.org/2000/svg">
<path d="M30.332 145.607C23.9216 135.031 21.2413 127.682 14.2501 123.93C12.6084 123.059 15.5344 118.759 15.5344 118.759C17.1649 116.671 20.2473 114.917 21.822 117.062C26.5014 123.427 26.3785 125.136 39.3334 137.477C39.6238 138.393 30.5107 145.897 30.332 145.607Z" fill="url(#paint0_linear_0_1)"/>
<path d="M60.8644 136.472L40.1366 132.273L27.8518 113.153L27.7736 113.298C23.3018 121.466 15.8794 127.618 7.02344 130.497L29.4488 146.936L57.6815 152.52C58.8798 152.759 60.1165 152.727 61.3005 152.424C62.4844 152.122 63.5853 151.558 64.5221 150.773C65.4589 149.989 66.2076 149.004 66.713 147.891C67.2185 146.779 67.4677 145.567 67.4424 144.345C67.4094 142.479 66.7389 140.68 65.5423 139.248C64.3456 137.816 62.6949 136.836 60.8644 136.472Z" fill="url(#paint1_linear_0_1)"/>
<path d="M27.7306 113.298L27.8088 113.153L32.276 120.088C32.276 120.088 28.5347 131.401 13.8711 135.556L6.98047 130.497C15.8365 127.618 23.2588 121.466 27.7306 113.298Z" fill="url(#paint2_linear_0_1)"/>
<g opacity="0.5">
<path d="M31.5594 118.994C28.209 126.811 20.9274 133.077 12.4062 134.484C16.5929 133.592 20.5098 131.725 23.8381 129.033C27.1664 126.341 29.812 122.901 31.5594 118.994Z" fill="white"/>
</g>
<g opacity="0.5">
<path d="M31.0242 118.324C27.6738 126.141 20.3811 132.407 11.8711 133.814C16.0578 132.922 19.9747 131.055 23.303 128.363C26.6313 125.671 29.2768 122.231 31.0242 118.324Z" fill="white"/>
</g>
<g opacity="0.5">
<path d="M27.8528 113.153C28.1431 114.694 28.8467 118.536 29.1148 120.021C29.4051 120.937 28.9807 121.674 27.998 121.562L23.3409 121.618C22.6261 121.618 21.621 121.54 21.6657 122.523C21.6657 123.64 21.6657 126.018 21.6657 127.18C21.5987 127.817 21.8891 129.056 21.1966 129.414C21.0211 129.492 20.8307 129.533 20.6382 129.533C20.4457 129.533 20.2554 129.492 20.0798 129.414L18.963 129.101L16.7294 128.487L14.4958 127.872C14.3142 127.825 14.1219 127.84 13.9497 127.915C13.7776 127.99 13.6356 128.12 13.5466 128.286C13.2339 129.045 11.8043 132.876 11.4805 133.713C11.8043 132.831 13.1668 129.023 13.4795 128.241C13.5772 128.063 13.7311 127.923 13.917 127.842C14.1029 127.761 14.3105 127.744 14.507 127.794L16.7406 128.397L18.9742 128.989L20.091 129.291C20.4707 129.402 20.8504 129.548 21.2078 129.291C21.3613 129.188 21.4805 129.041 21.5501 128.87C21.6198 128.699 21.6367 128.511 21.5987 128.33C21.5987 127.593 21.5987 125.605 21.5987 124.846V122.512C21.5987 121.395 22.6373 121.462 23.4079 121.484H28.065C28.2475 121.521 28.4367 121.508 28.612 121.445C28.7873 121.382 28.9419 121.272 29.0589 121.127C29.3158 120.825 29.1929 120.423 29.1259 120.01C28.8691 118.536 28.2101 114.649 27.9533 113.131L27.8528 113.153Z" fill="white"/>
</g>
<path d="M21.7684 110.718C21.7684 110.718 19.6688 107.312 19.6688 104.799C19.6688 102.286 17.3347 102.778 16.8209 104.274C16.4351 105.235 16.2632 106.268 16.3172 107.302C16.3712 108.336 16.6498 109.345 17.1336 110.26L16.6311 110.517C14.9977 108.906 13.6663 107.014 12.6999 104.933C11.3821 101.773 10.4663 101.985 10.4663 101.985C10.4663 101.985 9.00332 101.896 8.71295 103.828C8.42258 105.76 11.4603 110.115 11.4603 110.115C9.57237 108.388 7.86597 106.472 6.36767 104.397C4.75947 101.884 2.06798 104.52 3.17362 106.53C4.27925 108.541 8.75762 112.918 8.75762 112.918C6.87729 111.386 5.10829 109.721 3.46399 107.937C3.25643 107.684 2.96177 107.517 2.63755 107.468C2.12382 107.379 1.4314 107.558 1.04052 108.876C0.370442 111.109 6.95957 115.867 6.95957 115.867C6.95957 115.867 6.59102 116.012 2.63755 113.834C2.63755 113.834 0.515625 112.851 0.515625 115.677C0.515625 115.677 1.42023 118.29 5.8986 119.641C5.8986 119.641 13.4482 128.353 19.6576 121.451C25.867 114.549 21.7684 110.718 21.7684 110.718Z" fill="url(#paint3_linear_0_1)"/>
<path d="M17.1353 110.26C16.5022 111.181 16.0671 112.223 15.8575 113.321C15.648 114.419 15.6686 115.548 15.918 116.637C14.8012 114.605 15.0916 111.601 17.1353 110.26Z" fill="#EB967E"/>
<path d="M12.7766 109.568C10.3308 111.545 7.99671 113.834 7.05859 116.905C7.27079 113.622 9.92878 110.908 12.7766 109.568Z" fill="#EB967E"/>
<path d="M182.579 150.499C189.514 140.258 192.563 133.054 199.733 129.659C201.419 128.866 198.705 124.421 198.705 124.421C197.186 122.255 194.238 120.356 192.518 122.411C187.526 128.542 187.56 130.229 174.002 141.922C173.667 142.826 182.389 150.778 182.579 150.499Z" fill="url(#paint4_linear_0_1)"/>
<path d="M152.536 139.878L173.487 136.695L186.732 118.212L186.799 118.368C190.861 126.744 197.961 133.258 206.656 136.583L183.438 151.872L154.948 156.038C153.739 156.215 152.506 156.119 151.34 155.755C150.173 155.392 149.103 154.772 148.208 153.94C147.313 153.109 146.616 152.087 146.169 150.95C145.721 149.813 145.535 148.59 145.623 147.372C145.754 145.524 146.509 143.775 147.766 142.413C149.022 141.051 150.704 140.157 152.536 139.878Z" fill="url(#paint5_linear_0_1)"/>
<path d="M186.799 118.368L186.732 118.212L181.93 124.913C181.93 124.913 185.09 136.405 199.519 141.285L206.656 136.583C197.961 133.258 190.86 126.744 186.799 118.368Z" fill="url(#paint6_linear_0_1)"/>
<g opacity="0.5">
<path d="M182.688 123.852C184.233 127.845 186.701 131.416 189.89 134.273C193.079 137.13 196.898 139.192 201.037 140.291C192.605 138.46 185.681 131.859 182.688 123.852Z" fill="white"/>
</g>
<g opacity="0.5">
<path d="M183.258 123.215C186.43 131.133 193.242 137.633 201.607 139.655C193.175 137.823 186.251 131.223 183.258 123.215Z" fill="white"/>
</g>
<g opacity="0.5">
<path d="M186.733 118.212C186.398 119.742 185.56 123.55 185.214 125.025C184.901 125.884 185.214 126.566 186.208 126.51L190.854 126.778C191.625 126.778 192.697 126.778 192.607 127.895L192.507 130.218C192.507 130.977 192.373 132.954 192.339 133.702C192.172 134.64 192.931 135.02 193.747 134.707L194.863 134.461L197.097 133.97L199.331 133.49C199.532 133.447 199.741 133.474 199.926 133.565C200.11 133.656 200.258 133.807 200.347 133.992C200.626 134.785 201.787 138.694 202.056 139.576L200.626 135.109C200.414 134.461 200.28 133.378 199.353 133.557L194.807 134.562L193.691 134.808C193.515 134.887 193.325 134.927 193.132 134.927C192.94 134.927 192.749 134.887 192.574 134.808C191.893 134.428 192.25 133.2 192.217 132.574C192.272 131.457 192.373 129.09 192.44 127.928C192.54 126.957 191.524 126.968 190.809 126.945L186.163 126.655C185.158 126.722 184.756 125.94 185.102 125.047C185.426 123.595 186.342 119.753 186.7 118.257L186.733 118.212Z" fill="white"/>
</g>
<path d="M205.313 113.499C205.715 112.706 206.184 111.265 204.364 110.908L197.16 113.734C197.16 113.734 195.44 114.37 193.52 119.742C193.52 119.742 196.166 124.064 198.724 119.887C201.281 115.71 198.981 117.352 204.587 114.303C204.908 114.119 205.163 113.837 205.313 113.499Z" fill="url(#paint7_linear_0_1)"/>
<path d="M212.82 34.5524C212.992 34.3658 213.217 34.2373 213.464 34.1846C213.712 34.132 213.97 34.1578 214.202 34.2586C214.434 34.3594 214.629 34.53 214.76 34.7468C214.891 34.9636 214.95 35.2157 214.931 35.4681C214.596 39.3099 213.356 44.9275 209.046 47.1164C202.222 50.5896 207.46 39.1424 207.46 39.1424C209.397 37.7978 211.193 36.2599 212.82 34.5524Z" fill="url(#paint8_linear_0_1)"/>
<path d="M211.357 28.544C211.357 28.544 204.097 35.6468 211.77 47.3733C219.442 59.0997 215.377 68.0564 210.441 75.7958C210.441 75.7958 208.687 82.4966 210.899 88.0806C213.11 93.6646 211.412 102.342 207.928 112.371C204.444 122.4 204.008 118.067 200.981 140.66C197.955 163.253 195.822 201.246 195.822 201.246C195.822 201.246 194.973 210.873 191.812 205.892L194.672 152.587C194.672 152.587 195.989 132.92 199.139 117.776C201.987 104.319 206.621 103.135 204.578 93.4413C204.144 91.445 203.457 89.5122 202.534 87.6898C200.093 82.8327 199.475 77.2615 200.792 71.9875C200.876 71.6736 200.893 71.3455 200.843 71.0244C200.793 70.7032 200.677 70.396 200.501 70.1225C198.268 66.7721 190.986 53.9624 200.579 43.5091L205.795 52.7674C205.795 52.7674 203.863 59.0773 205.382 61.5008C205.382 61.5008 207.727 60.3058 205.795 52.7674C203.555 50.9801 201.821 48.6381 200.765 45.9739C199.709 43.3096 199.368 40.4156 199.775 37.5789C200.959 27.2708 211.357 25.7967 211.357 28.544Z" fill="url(#paint9_linear_0_1)"/>
<path d="M207.078 49.3612C211.132 55.9168 212.662 64.8289 208.898 71.8424C209.227 70.9281 209.502 69.996 209.725 69.0504C211.344 62.439 209.725 55.5036 207.078 49.3612Z" fill="#573A41"/>
<path d="M199.372 53.6497C198.87 57.0001 198.256 60.25 198.903 63.6339C197.183 60.5962 197.853 56.6427 199.372 53.6497Z" fill="#573A41"/>
<path d="M203.563 62.9749C204.299 65.8659 203.933 68.9275 202.535 71.5631C202.948 68.6483 203.228 65.901 203.563 62.9749Z" fill="#573A41"/>
<path d="M206.757 75.0476C207.177 76.8987 207.084 78.8293 206.489 80.6316C206.058 78.7815 206.151 76.848 206.757 75.0476Z" fill="#573A41"/>
<path d="M203.684 76.4994C202.735 82.4184 206.576 87.5222 207.849 93.0951C208.589 95.9639 208.554 98.9774 207.749 101.828C207.045 104.654 205.258 107.1 204.711 109.948C204.853 108.504 205.23 107.093 205.828 105.771C206.346 104.43 206.79 103.062 207.157 101.672C208.274 97.5064 207.291 93.1397 205.85 89.1639C204.41 85.1881 202.5 80.7991 203.617 76.4994H203.684Z" fill="#573A41"/>
<path d="M199.954 115.721C201.708 121.607 202.333 128.218 199.899 134.026C199.304 135.417 198.87 136.87 198.603 138.359C197.926 142.92 197.967 147.559 198.726 152.107C197.285 146.132 196.839 139.599 199.184 133.758C201.618 128.096 201.06 121.685 199.932 115.755L199.954 115.721Z" fill="#573A41"/>
<path d="M194.651 154.128C197.443 159.277 196.884 165.698 194.796 170.992C194.461 171.751 194.115 172.5 193.746 173.226C195.745 167.094 196.795 160.371 194.651 154.128Z" fill="#573A41"/>
<path d="M205.171 28.6221C204.657 32.3076 205.964 35.8255 207.46 39.1424C205.025 36.3839 203.574 32.1177 205.171 28.6221Z" fill="#573A41"/>
<path d="M212.352 37.9474C211.647 40.1225 210.486 42.1217 208.945 43.811C207.404 45.5002 205.519 46.8405 203.418 47.7418C207.019 45.1046 210.056 41.7747 212.352 37.9474Z" fill="#573A41"/>
<path d="M203.382 120.077C203.382 120.077 201.684 119.675 202.511 117.721C203.337 115.766 208.899 115.197 208.899 115.197C208.899 115.197 211.858 114.728 211.736 117.14C211.675 117.713 211.428 118.251 211.032 118.67C211.341 118.921 211.595 119.234 211.775 119.589C211.956 119.944 212.061 120.333 212.082 120.731C212.103 121.129 212.04 121.527 211.898 121.899C211.755 122.271 211.537 122.609 211.255 122.891C211.501 123.438 211.587 124.043 211.501 124.636C211.416 125.23 211.165 125.786 210.775 126.242C210.775 126.242 212.83 129.592 207.682 130.631C202.533 131.67 202.343 129.514 202.991 128.029C202.57 127.856 202.204 127.571 201.935 127.205C201.665 126.838 201.501 126.405 201.461 125.951C201.458 125.534 201.6 125.129 201.863 124.805C202.126 124.481 202.493 124.259 202.902 124.176C202.473 124.008 202.107 123.712 201.853 123.328C201.599 122.944 201.47 122.492 201.483 122.032C201.628 120.468 203.382 120.077 203.382 120.077Z" fill="url(#paint10_linear_0_1)"/>
<path d="M203.383 120.077C205.069 119.463 206.862 119.197 208.654 119.295C206.967 119.906 205.175 120.172 203.383 120.077Z" fill="#EB967E"/>
<path d="M202.902 124.187C204.667 123.56 206.537 123.283 208.408 123.372C206.642 123.993 204.773 124.27 202.902 124.187Z" fill="#EB967E"/>
<path d="M202.992 128.006C204.612 127.407 206.339 127.153 208.062 127.258C206.445 127.868 204.716 128.123 202.992 128.006Z" fill="#EB967E"/>
<path d="M160.733 73.8414L163.469 61.646C165.39 53.0354 163.078 44.1569 157.394 38.316L156.846 37.7353L150.637 73.4729C150.637 73.4729 147.644 93.3296 138.352 90.8726C129.06 88.4157 91.8822 82.8652 91.8822 82.8652C91.8822 82.8652 83.6848 83.1555 89.9836 61.5901L99.5434 26.0982L98.6388 25.5621C91.0111 28.9125 85.427 36.4398 84.0422 45.3072L80.9375 65.0969L81.306 87.6004L124.292 109.635L144.863 100.645L160.733 73.8414Z" fill="url(#paint11_linear_0_1)"/>
<path d="M155.786 74.2658C156.769 70.1448 161.37 68.425 164.128 71.1835C166.105 73.1379 167.792 76.1867 165 81.4469C158.544 93.553 153.664 83.1332 153.664 83.1332L155.786 74.2658Z" fill="#FED9BB"/>
<path d="M160.798 77.1806C160.178 76.9383 159.491 76.9369 158.87 77.1768C158.25 77.4166 157.742 77.8802 157.447 78.4761C156.857 79.696 156.415 80.982 156.129 82.3068C156.088 81.6049 156.126 80.9007 156.241 80.2072C156.476 77.9736 158.475 75.6171 160.708 77.1806H160.798Z" fill="#FCCAB7"/>
<path d="M88.3859 60.1607C89.1342 55.9839 85.6274 52.5888 81.9755 53.996C79.3845 54.9899 76.6037 57.1118 77.0616 63.0532C78.1784 76.7229 86.7666 69.1398 86.7666 69.1398L88.3859 60.1607Z" fill="#FCCAB7"/>
<path d="M82.6211 60.8307C86.4182 60.2723 86.139 65.108 84.7877 67.3639C85.0581 66.0381 85.1668 64.6843 85.1116 63.3323C85.0794 62.6811 84.807 62.065 84.347 61.603C83.887 61.1409 83.2721 60.8658 82.6211 60.8307Z" fill="#E8B8AB"/>
<path d="M64.2398 113.801C64.5649 111.575 65.39 109.453 66.6531 107.592C67.9161 105.731 69.5844 104.181 71.5325 103.057C71.6818 102.976 71.8 102.847 71.8687 102.692C71.9374 102.536 71.9527 102.362 71.9122 102.197C71.3115 99.7976 71.2089 97.3004 71.6107 94.8597C72.2996 90.2607 74.786 86.1233 78.5237 83.3567C78.6488 83.2653 78.7449 83.1398 78.8004 82.9952C78.8558 82.8505 78.8683 82.693 78.8364 82.5414C78.3679 80.337 78.3149 78.0645 78.68 75.8406C80.1319 66.7387 87.9272 60.4287 96.0686 61.7354C104.21 63.042 109.638 71.4739 108.175 80.5758C107.36 85.6684 139.769 86.6959 140.361 83.0104C141.254 77.4264 146.034 73.54 151.038 74.3441C156.041 75.1482 159.369 80.3301 158.475 85.9141C158.256 87.392 157.729 88.8074 156.928 90.0692C156.128 91.331 155.073 92.4113 153.83 93.2403C153.728 93.3138 153.645 93.4104 153.588 93.522C153.532 93.6336 153.502 93.7572 153.502 93.8825C153.502 94.0078 153.532 94.1314 153.588 94.243C153.645 94.3546 153.728 94.4511 153.83 94.5247C155.905 96.2241 157.487 98.4482 158.412 100.966C159.337 103.484 159.571 106.203 159.09 108.842C158.755 111.168 157.889 113.386 156.558 115.322C155.228 117.259 153.468 118.863 151.417 120.01C151.296 120.078 151.196 120.177 151.126 120.297C151.056 120.416 151.019 120.553 151.019 120.691C151.019 120.83 151.056 120.966 151.126 121.086C151.196 121.206 151.296 121.305 151.417 121.373C153.098 122.496 154.421 124.077 155.231 125.929C156.042 127.781 156.305 129.826 155.99 131.822C155.676 133.819 154.796 135.684 153.455 137.196C152.114 138.709 150.369 139.806 148.424 140.358C148.248 140.396 148.09 140.493 147.976 140.634C147.862 140.774 147.8 140.948 147.799 141.129C147.815 141.951 147.759 142.773 147.631 143.586C146.515 150.655 140.45 155.558 134.129 154.542L133.772 154.486C133.64 154.456 133.502 154.46 133.373 154.499C133.243 154.538 133.126 154.61 133.032 154.708C132.939 154.806 132.873 154.927 132.84 155.058C132.807 155.189 132.809 155.327 132.845 155.457C133.307 157.24 133.395 159.1 133.102 160.918C132.041 167.541 126.401 172.086 120.448 171.182C119.716 171.064 119.001 170.862 118.315 170.579C118.149 170.507 117.964 170.495 117.79 170.546C117.616 170.597 117.466 170.707 117.366 170.858C116.274 172.647 114.685 174.079 112.794 174.981C110.902 175.883 108.789 176.216 106.712 175.939C105.738 175.783 104.793 175.482 103.909 175.046C103.796 174.988 103.672 174.958 103.546 174.958C103.419 174.958 103.295 174.988 103.183 175.046C100.885 176.319 98.2286 176.79 95.6331 176.386C90.2389 175.526 86.252 171.026 85.2692 165.442C85.2346 165.258 85.1358 165.093 84.9904 164.977C84.845 164.86 84.6626 164.799 84.4762 164.805C83.904 164.819 83.3318 164.778 82.7675 164.682C76.7033 163.71 72.6605 157.434 73.755 150.655C73.9627 149.346 74.3616 148.074 74.9388 146.88C75.0196 146.705 75.0336 146.506 74.9781 146.321C74.9225 146.136 74.8013 145.977 74.6372 145.875C72.2974 144.308 70.4698 142.088 69.3816 139.491C68.2935 136.894 67.9929 134.034 68.5172 131.267C68.6752 130.273 68.9295 129.297 69.2766 128.353C69.3327 128.204 69.3413 128.041 69.3013 127.887C69.2613 127.733 69.1747 127.595 69.0532 127.493C67.1283 125.827 65.6716 123.688 64.8274 121.286C63.9832 118.885 63.7806 116.304 64.2398 113.801Z" fill="url(#paint12_linear_0_1)"/>
<path d="M111.23 102.934L117.777 104.304C134.216 107.744 150.332 97.2065 153.772 80.7674L159.15 55.0682C162.591 38.629 152.053 22.5136 135.614 19.0733L129.066 17.703C112.627 14.2627 96.5116 24.8003 93.0713 41.2394L87.6931 66.9387C84.2528 83.3778 94.7904 99.4933 111.23 102.934Z" fill="url(#paint13_linear_0_1)"/>
<path d="M137.649 39.042C134.466 38.2826 130.78 38.5059 128.368 40.8959C128.31 40.9525 128.232 40.9842 128.15 40.9842C128.069 40.9842 127.991 40.9525 127.933 40.8959C127.467 39.733 126.75 38.6875 125.833 37.8341C124.916 36.9807 123.821 36.3406 122.628 35.9596C121.822 35.6895 120.992 35.5024 120.148 35.4012C121.907 35.3063 123.651 35.7563 125.144 36.6897C126.638 37.6231 127.806 38.9945 128.491 40.6167L128 40.4938C130.546 38.0257 134.544 37.7912 137.705 39.0643L137.649 39.042Z" fill="#FCCAB7"/>
<path d="M137.892 44.4025C134.24 43.4868 129.974 43.7436 127.193 46.4909C127.135 46.5476 127.057 46.5792 126.975 46.5792C126.894 46.5792 126.816 46.5476 126.758 46.4909C126.213 45.1446 125.375 43.9367 124.305 42.9552C123.235 41.9737 121.959 41.2434 120.571 40.8176C119.643 40.5233 118.689 40.3177 117.723 40.2034C119.737 40.1127 121.731 40.6396 123.437 41.7134C125.144 42.7872 126.481 44.3567 127.271 46.2117L126.78 46.0889C129.695 43.2634 134.24 42.9954 137.892 44.4249V44.4025Z" fill="#FCCAB7"/>
<path d="M126.089 99.0476C126.089 99.0476 123.911 116.369 111.57 115.297C99.2295 114.225 103.63 94.3458 103.63 94.3458C103.63 94.3458 116.372 91.3528 126.089 99.0476Z" fill="url(#paint14_linear_0_1)"/>
<mask id="mask0_0_1" style="mask-type:luminance" maskUnits="userSpaceOnUse" x="102" y="93" width="25" height="23">
<path d="M126.089 99.0476C126.089 99.0476 123.911 116.369 111.57 115.297C99.2295 114.225 103.63 94.3458 103.63 94.3458C103.63 94.3458 116.372 91.3528 126.089 99.0476Z" fill="white"/>
</mask>
<g mask="url(#mask0_0_1)">
<path d="M119.333 114.56C119.333 114.56 112.722 104.509 102.793 112.561C92.8648 120.613 119.355 131.614 119.333 114.56Z" fill="url(#paint15_linear_0_1)"/>
</g>
<path d="M122.146 87.3324C118.879 87.1891 115.662 86.4904 112.63 85.2663L110.776 84.4957C100.725 80.2296 96.1464 87.1314 94.7281 89.9569C94.5731 90.2708 94.3242 90.5287 94.016 90.6948C93.7078 90.8609 93.3556 90.927 93.0082 90.8838C90.0375 90.5153 82.5661 90.3701 81.2594 97.7857C80.5447 101.907 82.1194 106.095 85.4139 107.971C87.7145 109.278 90.8527 109.512 94.3483 105.57C94.5851 105.298 94.9032 105.11 95.2552 105.034C95.6073 104.957 95.9746 104.997 96.3027 105.145C98.0784 105.927 101.775 106.821 105.505 103.124C105.739 102.895 106.034 102.738 106.355 102.672C106.676 102.607 107.009 102.636 107.314 102.755C109.52 103.71 111.823 104.422 114.183 104.877C116.245 105.27 118.338 105.483 120.437 105.514C120.764 105.524 121.082 105.63 121.35 105.818C121.618 106.007 121.824 106.27 121.944 106.575C123.888 111.444 127.629 112.159 129.572 112.159C129.924 112.156 130.269 112.261 130.559 112.461C130.849 112.661 131.07 112.945 131.192 113.276C132.867 118.312 135.837 119.362 138.473 119.083C142.226 118.681 145.364 115.476 146.291 111.411C148.078 104.096 141.176 101.248 138.294 100.388C137.961 100.285 137.667 100.082 137.454 99.8059C137.24 99.5302 137.116 99.1952 137.099 98.8466C136.932 95.6861 135.469 87.5223 124.591 87.4106C123.888 87.3994 123.005 87.3324 122.146 87.3324Z" fill="url(#paint16_linear_0_1)"/>
<path d="M118.73 90.8057C122.801 90.8057 126.101 87.5057 126.101 83.4348C126.101 79.364 122.801 76.064 118.73 76.064C114.659 76.064 111.359 79.364 111.359 83.4348C111.359 87.5057 114.659 90.8057 118.73 90.8057Z" fill="url(#paint17_linear_0_1)"/>
<path d="M146.196 76.2708C147.362 70.6985 143.874 65.2533 138.404 64.1087C132.934 62.964 127.555 66.5533 126.389 72.1256C125.223 77.6979 128.711 83.143 134.181 84.2877C139.651 85.4323 145.03 81.8431 146.196 76.2708Z" fill="url(#paint18_linear_0_1)"/>
<path d="M139.093 78.3899C139.731 75.3412 137.821 72.3617 134.826 71.735C131.832 71.1084 128.887 73.0719 128.249 76.1206C127.611 79.1694 129.521 82.1489 132.516 82.7755C135.51 83.4022 138.455 81.4387 139.093 78.3899Z" fill="url(#paint19_linear_0_1)"/>
<path d="M117.161 70.2002C118.327 64.6279 114.838 59.1828 109.369 58.0381C103.899 56.8935 98.5198 60.4828 97.3537 66.055C96.1875 71.6273 99.6762 77.0725 105.146 78.2171C110.615 79.3618 115.995 75.7725 117.161 70.2002Z" fill="url(#paint20_linear_0_1)"/>
<path d="M113.663 73.0541C114.301 70.0054 112.391 67.0259 109.396 66.3992C106.402 65.7726 103.457 67.7361 102.819 70.7848C102.181 73.8336 104.092 76.8131 107.086 77.4397C110.08 78.0664 113.025 76.1029 113.663 73.0541Z" fill="url(#paint21_linear_0_1)"/>
<g opacity="0.05">
<path d="M133.728 90.3478C128.01 89.1529 124.458 83.0105 125.798 76.6224L146.493 80.9555C145.153 87.3325 139.435 91.5428 133.728 90.3478Z" stroke="#404041" stroke-width="0.6" stroke-miterlimit="10"/>
<path d="M103.204 83.982C97.4863 82.787 93.9348 76.6446 95.275 70.2565L115.925 74.5674C114.64 80.9555 108.922 85.1546 103.204 83.982Z" stroke="#404041" stroke-width="0.6" stroke-miterlimit="10"/>
<path d="M125.797 76.6224L115.969 74.5675" stroke="#404041" stroke-width="0.6" stroke-miterlimit="10"/>
<path d="M95.276 70.2342L87.9609 62.4948" stroke="#404041" stroke-width="0.6" stroke-miterlimit="10" stroke-linecap="round"/>
<path d="M146.168 80.8885L155.08 76.3208" stroke="#404041" stroke-width="0.6" stroke-miterlimit="10" stroke-linecap="round"/>
</g>
<path d="M134.005 88.9852C128.298 87.7903 124.747 81.6367 126.076 75.2598L146.781 79.593C145.441 85.9699 139.723 90.1802 134.005 88.9852Z" stroke="#B8B7BE" stroke-width="0.6" stroke-miterlimit="10"/>
<path d="M103.497 82.5972C97.7792 81.4022 94.2278 75.2598 95.568 68.8717L116.262 73.2049C114.922 79.5818 109.226 83.7922 103.497 82.5972Z" stroke="#B8B7BE" stroke-width="0.6" stroke-miterlimit="10"/>
<path d="M126.078 75.2597L116.262 73.2048" stroke="#B8B7BE" stroke-width="0.6" stroke-miterlimit="10"/>
<path d="M95.565 68.8718L88.25 61.1323" stroke="#B8B7BE" stroke-width="0.6" stroke-miterlimit="10" stroke-linecap="round"/>
<path d="M146.445 79.5148L155.369 74.9583" stroke="#B8B7BE" stroke-width="0.6" stroke-miterlimit="10" stroke-linecap="round"/>
<path style="mix-blend-mode:multiply" opacity="0.1" d="M151.372 56.2183C151.372 56.2183 151.126 41.6999 135.558 45.9325C135.558 45.9325 125.63 47.2727 132.9 52.879C133.343 53.2143 133.869 53.4235 134.421 53.4845C134.974 53.5454 135.532 53.4558 136.038 53.2253C136.211 53.1476 136.4 53.1151 136.589 53.1307C136.777 53.1463 136.959 53.2095 137.116 53.3144C137.273 53.4194 137.402 53.5626 137.488 53.7306C137.575 53.8986 137.618 54.0859 137.613 54.275C137.613 56.7097 138.64 59.6133 144.906 56.8213C145.161 56.7041 145.451 56.6873 145.718 56.7742C145.985 56.8611 146.209 57.0454 146.346 57.2904C147.865 59.9037 152.254 66.6604 151.372 56.2183Z" fill="url(#paint22_linear_0_1)"/>
<path d="M151.73 55.6263C151.73 55.6263 151.485 41.1079 135.916 45.3406C135.916 45.3406 125.999 46.6919 133.258 52.2983C133.703 52.6303 134.229 52.8374 134.78 52.8983C135.332 52.9592 135.89 52.8715 136.397 52.6445C136.569 52.5648 136.758 52.5302 136.948 52.544C137.137 52.5579 137.319 52.6197 137.478 52.7236C137.637 52.8275 137.766 52.9701 137.854 53.138C137.943 53.3059 137.987 53.4935 137.983 53.6831C137.983 56.1177 138.999 59.0326 145.264 56.2406C145.518 56.1224 145.807 56.1039 146.074 56.1887C146.34 56.2735 146.566 56.4555 146.705 56.6985C148.235 59.3118 152.613 66.1131 151.73 55.6263Z" fill="url(#paint23_linear_0_1)"/>
<path style="mix-blend-mode:multiply" opacity="0.1" d="M117.947 43.2188C117.947 43.2188 108.555 32.1959 99.2075 45.3295C99.2075 45.3295 92.3951 52.6781 101.564 52.3877C102.119 52.3605 102.657 52.1857 103.122 51.8815C103.588 51.5772 103.963 51.1544 104.211 50.6567C104.294 50.4862 104.42 50.3398 104.576 50.2315C104.732 50.1231 104.913 50.0562 105.102 50.0372C105.291 50.0182 105.481 50.0477 105.656 50.1229C105.83 50.198 105.982 50.3164 106.098 50.4668C107.617 52.3654 110.286 53.9289 113.346 47.7977C113.468 47.5449 113.68 47.3471 113.941 47.2436C114.201 47.1402 114.492 47.1386 114.753 47.2393C117.59 48.2444 125.274 50.7237 117.947 43.2188Z" fill="url(#paint24_linear_0_1)"/>
<path d="M117.847 42.5375C117.847 42.5375 108.454 31.5147 99.1066 44.6483C99.1066 44.6483 92.3053 51.9968 101.474 51.7065C102.029 51.6792 102.567 51.5045 103.033 51.2002C103.498 50.896 103.874 50.4732 104.121 49.9754C104.204 49.8065 104.329 49.6614 104.483 49.5536C104.638 49.4458 104.817 49.3787 105.004 49.3586C105.191 49.3386 105.38 49.3662 105.554 49.4389C105.728 49.5115 105.88 49.627 105.997 49.7744C107.516 51.6841 110.185 53.2477 113.245 47.1164C113.367 46.8636 113.579 46.6659 113.84 46.5624C114.101 46.4589 114.391 46.4574 114.652 46.558C117.489 47.6078 125.173 50.0424 117.847 42.5375Z" fill="url(#paint25_linear_0_1)"/>
<path d="M159.67 12.8643L163.355 24.5795L140.215 15.8573L157.067 11.3901C157.608 11.2514 158.18 11.3275 158.666 11.6024C159.151 11.8773 159.511 12.3296 159.67 12.8643Z" fill="#F68F64"/>
<path d="M124.859 12.2722L112.574 2.06463C112.186 1.7342 111.693 1.55273 111.184 1.55273C110.674 1.55273 110.181 1.7342 109.793 2.06463L99.3398 11.1666L124.859 12.2722Z" fill="#F68F64"/>
<path d="M172.624 19.5873L162.885 42.2137C162.803 42.4053 162.683 42.5786 162.533 42.7235C162.383 42.8684 162.206 42.9821 162.012 43.058C161.817 43.1338 161.61 43.1703 161.401 43.1653C161.193 43.1604 160.987 43.114 160.797 43.029C140.263 34.3765 118.247 29.7837 95.9666 29.5045C95.5507 29.4987 95.1536 29.331 94.8595 29.0369C94.5654 28.7428 94.3977 28.3456 94.3919 27.9298L94.2579 3.25968C94.2548 2.82816 94.3675 2.40372 94.5843 2.0306C94.8011 1.65748 95.1141 1.34935 95.4905 1.13833C95.8669 0.92731 96.293 0.821121 96.7244 0.830843C97.1559 0.840565 97.5768 0.965832 97.9433 1.1936L111.345 9.51378C111.725 9.74471 112.155 9.87962 112.599 9.90686C113.042 9.9341 113.486 9.85285 113.891 9.67013L134.318 0.221984C134.778 0.0089975 135.294 -0.0527667 135.791 0.0455413C136.289 0.143849 136.742 0.397186 137.087 0.769223L152.834 17.5212C153.128 17.8334 153.492 18.0711 153.896 18.2148C154.3 18.3585 154.732 18.404 155.157 18.3477L170.066 16.2592C170.488 16.2035 170.917 16.2597 171.31 16.4222C171.703 16.5847 172.046 16.8478 172.306 17.1851C172.565 17.5224 172.731 17.9219 172.786 18.3436C172.842 18.7653 172.786 19.1942 172.624 19.5873Z" fill="url(#paint26_linear_0_1)"/>
<path d="M131.559 28.7562L136.954 23.7976C137.267 23.5094 137.482 23.1302 137.568 22.7134C137.654 22.2967 137.607 21.8634 137.434 21.4746L134.485 14.7738C134.354 14.477 134.154 14.2157 133.902 14.0114C133.65 13.8072 133.353 13.666 133.035 13.5994C132.718 13.5328 132.389 13.5428 132.076 13.6286C131.763 13.7143 131.475 13.8734 131.236 14.0926L125.841 19.0512C125.53 19.3403 125.316 19.7195 125.23 20.1358C125.144 20.5522 125.19 20.9851 125.361 21.3741L128.31 28.0749C128.441 28.3717 128.641 28.6331 128.893 28.8373C129.145 29.0415 129.442 29.1828 129.76 29.2494C130.077 29.3159 130.406 29.3059 130.719 29.2202C131.032 29.1344 131.32 28.9753 131.559 28.7562Z" fill="url(#paint27_linear_0_1)"/>
<path d="M154.298 35.0661L157.57 32.0508C157.761 31.8768 157.892 31.6477 157.946 31.3954C158 31.1432 157.974 30.8804 157.872 30.6436L156.129 26.5673C156.05 26.3863 155.929 26.2268 155.775 26.1023C155.622 25.9777 155.441 25.8916 155.248 25.8512C155.054 25.8107 154.854 25.8171 154.663 25.8698C154.473 25.9225 154.298 26.02 154.153 26.1541L150.881 29.1694C150.689 29.3428 150.558 29.5726 150.506 29.8256C150.453 30.0786 150.483 30.3416 150.59 30.5766L152.377 34.6529C152.459 34.8244 152.578 34.9748 152.727 35.0926C152.876 35.2104 153.05 35.2924 153.236 35.3323C153.421 35.3723 153.614 35.369 153.798 35.3229C153.982 35.2767 154.153 35.1889 154.298 35.0661Z" fill="url(#paint28_linear_0_1)"/>
<path d="M106.722 25.1042L109.994 22.1C110.186 21.9248 110.318 21.693 110.37 21.4381C110.422 21.1832 110.392 20.9183 110.284 20.6816L108.497 16.6165C108.418 16.4355 108.297 16.276 108.143 16.1515C107.99 16.0269 107.809 15.9408 107.615 15.9004C107.422 15.8599 107.222 15.8663 107.031 15.919C106.841 15.9717 106.666 16.0692 106.521 16.2033L103.248 19.2075C103.057 19.3833 102.925 19.6143 102.871 19.8685C102.817 20.1227 102.844 20.3873 102.947 20.6258L104.745 24.6909C104.824 24.872 104.946 25.0314 105.099 25.1559C105.252 25.2805 105.433 25.3666 105.627 25.407C105.82 25.4475 106.02 25.4411 106.211 25.3884C106.401 25.3357 106.576 25.2383 106.722 25.1042Z" fill="url(#paint29_linear_0_1)"/>
<defs>
<linearGradient id="paint0_linear_0_1" x1="25.8505" y1="155.174" x2="4.86975" y2="132.319" gradientUnits="userSpaceOnUse">
<stop stop-color="#FEE3CC"/>
<stop offset="0.3" stop-color="#FED9BB"/>
</linearGradient>
<linearGradient id="paint1_linear_0_1" x1="23.8892" y1="149.967" x2="57.9134" y2="122.454" gradientUnits="userSpaceOnUse">
<stop stop-color="#8C5BA1"/>
<stop offset="0.69" stop-color="#A671B0"/>
<stop offset="1" stop-color="#AA75B2"/>
</linearGradient>
<linearGradient id="paint2_linear_0_1" x1="10.7443" y1="134.17" x2="33.8092" y2="115.519" gradientUnits="userSpaceOnUse">
<stop stop-color="#B293C4"/>
<stop offset="0.18" stop-color="#B69BC8"/>
<stop offset="0.46" stop-color="#C2B2D3"/>
<stop offset="0.65" stop-color="#CCC5DC"/>
<stop offset="1" stop-color="#D4CEE2"/>
</linearGradient>
<linearGradient id="paint3_linear_0_1" x1="44.9095" y1="68.6704" x2="29.6132" y2="84.8534" gradientUnits="userSpaceOnUse">
<stop stop-color="#FCCAB7"/>
<stop offset="0.23" stop-color="#FDD3BA"/>
<stop offset="0.51" stop-color="#FED9BB"/>
<stop offset="1" stop-color="#FEE3CC"/>
</linearGradient>
<linearGradient id="paint4_linear_0_1" x1="191.084" y1="150.558" x2="213.218" y2="128.741" gradientUnits="userSpaceOnUse">
<stop stop-color="#FEE3CC"/>
<stop offset="0.3" stop-color="#FED9BB"/>
</linearGradient>
<linearGradient id="paint5_linear_0_1" x1="183.582" y1="179.253" x2="151.203" y2="149.936" gradientUnits="userSpaceOnUse">
<stop stop-color="#8C5BA1"/>
<stop offset="0.69" stop-color="#A671B0"/>
<stop offset="1" stop-color="#AA75B2"/>
</linearGradient>
<linearGradient id="paint6_linear_0_1" x1="197.572" y1="164.233" x2="175.622" y2="144.359" gradientUnits="userSpaceOnUse">
<stop stop-color="#B293C4"/>
<stop offset="0.18" stop-color="#B69BC8"/>
<stop offset="0.46" stop-color="#C2B2D3"/>
<stop offset="0.65" stop-color="#CCC5DC"/>
<stop offset="1" stop-color="#D4CEE2"/>
</linearGradient>
<linearGradient id="paint7_linear_0_1" x1="185.21" y1="153.569" x2="172.03" y2="158.671" gradientUnits="userSpaceOnUse">
<stop stop-color="#FCCAB7"/>
<stop offset="0.23" stop-color="#FDD3BA"/>
<stop offset="0.51" stop-color="#FED9BB"/>
<stop offset="1" stop-color="#FEE3CC"/>
</linearGradient>
<linearGradient id="paint8_linear_0_1" x1="224.544" y1="69.2955" x2="215.654" y2="68.851" gradientUnits="userSpaceOnUse">
<stop stop-color="#7D525C"/>
<stop offset="0.5" stop-color="#814A5B"/>
</linearGradient>
<linearGradient id="paint9_linear_0_1" x1="223.01" y1="146.079" x2="202.528" y2="145.055" gradientUnits="userSpaceOnUse">
<stop stop-color="#7D525C"/>
<stop offset="0.26" stop-color="#814A5B"/>
<stop offset="0.61" stop-color="#6C3F51"/>
<stop offset="1" stop-color="#4F3043"/>
</linearGradient>
<linearGradient id="paint10_linear_0_1" x1="201.11" y1="124.347" x2="212.5" y2="122.663" gradientUnits="userSpaceOnUse">
<stop stop-color="#FCCAB7"/>
<stop offset="0.23" stop-color="#FDD3BA"/>
<stop offset="0.51" stop-color="#FED9BB"/>
<stop offset="1" stop-color="#FEE3CC"/>
</linearGradient>
<linearGradient id="paint11_linear_0_1" x1="137.211" y1="5.59909" x2="122.397" y2="82.71" gradientUnits="userSpaceOnUse">
<stop offset="0.2" stop-color="#F1F1F2"/>
<stop offset="0.53" stop-color="#E4DEEB"/>
<stop offset="0.81" stop-color="#D4CEE2"/>
<stop offset="1" stop-color="#CCC5DC"/>
</linearGradient>
<linearGradient id="paint12_linear_0_1" x1="154.631" y1="97.771" x2="77.2054" y2="150.39" gradientUnits="userSpaceOnUse">
<stop offset="0.2" stop-color="#F1F1F2"/>
<stop offset="0.53" stop-color="#E4DEEB"/>
<stop offset="0.81" stop-color="#D4CEE2"/>
<stop offset="1" stop-color="#CCC5DC"/>
</linearGradient>
<linearGradient id="paint13_linear_0_1" x1="151.897" y1="42.1859" x2="96.2398" y2="78.9848" gradientUnits="userSpaceOnUse">
<stop stop-color="#FEE3CC"/>
<stop offset="0.26" stop-color="#FEDFC6"/>
<stop offset="0.49" stop-color="#FED9BB"/>
<stop offset="0.7" stop-color="#FDD1B9"/>
<stop offset="1" stop-color="#FCCAB7"/>
</linearGradient>
<linearGradient id="paint14_linear_0_1" x1="101.692" y1="115.106" x2="104.258" y2="93.9336" gradientUnits="userSpaceOnUse">
<stop stop-color="#431918"/>
<stop offset="1" stop-color="#622424"/>
</linearGradient>
<linearGradient id="paint15_linear_0_1" x1="104.13" y1="119.53" x2="88.8317" y2="108.757" gradientUnits="userSpaceOnUse">
<stop stop-color="#D88EAA"/>
<stop offset="0.38" stop-color="#F4A4C7"/>
<stop offset="1" stop-color="#F6BBD5"/>
</linearGradient>
<linearGradient id="paint16_linear_0_1" x1="173.836" y1="88.568" x2="107.571" y2="82.1129" gradientUnits="userSpaceOnUse">
<stop offset="0.2" stop-color="#F1F1F2"/>
<stop offset="0.53" stop-color="#E4DEEB"/>
<stop offset="0.81" stop-color="#D4CEE2"/>
<stop offset="1" stop-color="#CCC5DC"/>
</linearGradient>
<linearGradient id="paint17_linear_0_1" x1="138.966" y1="58.0576" x2="119.727" y2="71.0495" gradientUnits="userSpaceOnUse">
<stop stop-color="#FED9BB"/>
<stop offset="0.17" stop-color="#FDCFB8"/>
<stop offset="0.36" stop-color="#FCCAB7"/>
<stop offset="0.42" stop-color="#FAC7B4"/>
<stop offset="0.69" stop-color="#F2BCA9"/>
<stop offset="1" stop-color="#F0B8A5"/>
</linearGradient>
<linearGradient id="paint18_linear_0_1" x1="138.56" y1="64.7803" x2="133.803" y2="84.4595" gradientUnits="userSpaceOnUse">
<stop stop-color="white"/>
<stop offset="0.35" stop-color="#FCFBFD"/>
<stop offset="0.69" stop-color="#F2EFF6"/>
<stop offset="1" stop-color="#E4DEEB"/>
</linearGradient>
<linearGradient id="paint19_linear_0_1" x1="137.173" y1="80.4756" x2="129.026" y2="72.9516" gradientUnits="userSpaceOnUse">
<stop stop-color="#001633"/>
<stop offset="1" stop-color="#273861"/>
</linearGradient>
<linearGradient id="paint20_linear_0_1" x1="109.09" y1="59.3717" x2="104.945" y2="79.1791" gradientUnits="userSpaceOnUse">
<stop stop-color="white"/>
<stop offset="0.35" stop-color="#FCFBFD"/>
<stop offset="0.69" stop-color="#F2EFF6"/>
<stop offset="1" stop-color="#E4DEEB"/>
</linearGradient>
<linearGradient id="paint21_linear_0_1" x1="111.322" y1="75.5193" x2="104.111" y2="67.1188" gradientUnits="userSpaceOnUse">
<stop stop-color="#001633"/>
<stop offset="1" stop-color="#273861"/>
</linearGradient>
<linearGradient id="paint22_linear_0_1" x1="127.231" y1="54.9931" x2="138.712" y2="36.2259" gradientUnits="userSpaceOnUse">
<stop stop-color="#F1F1F2"/>
<stop offset="0.14" stop-color="#CBCBCC"/>
<stop offset="0.35" stop-color="#9A9A9B"/>
<stop offset="0.55" stop-color="#737374"/>
<stop offset="0.73" stop-color="#575758"/>
<stop offset="0.88" stop-color="#464647"/>
<stop offset="1" stop-color="#404041"/>
</linearGradient>
<linearGradient id="paint23_linear_0_1" x1="135.434" y1="61.0547" x2="121.446" y2="28.924" gradientUnits="userSpaceOnUse">
<stop stop-color="#F1F1F2"/>
<stop offset="0.53" stop-color="#E4DEEB"/>
<stop offset="0.81" stop-color="#D4CEE2"/>
<stop offset="1" stop-color="#CCC5DC"/>
</linearGradient>
<linearGradient id="paint24_linear_0_1" x1="109.892" y1="51.3813" x2="106.96" y2="30.6506" gradientUnits="userSpaceOnUse">
<stop stop-color="#F1F1F2"/>
<stop offset="0.14" stop-color="#CBCBCC"/>
<stop offset="0.35" stop-color="#9A9A9B"/>
<stop offset="0.55" stop-color="#737374"/>
<stop offset="0.73" stop-color="#575758"/>
<stop offset="0.88" stop-color="#464647"/>
<stop offset="1" stop-color="#404041"/>
</linearGradient>
<linearGradient id="paint25_linear_0_1" x1="121.152" y1="50.6234" x2="91.4169" y2="35.4988" gradientUnits="userSpaceOnUse">
<stop stop-color="#F1F1F2"/>
<stop offset="0.52" stop-color="#E4DEEB"/>
<stop offset="0.81" stop-color="#D4CEE2"/>
<stop offset="1" stop-color="#CCC5DC"/>
</linearGradient>
<linearGradient id="paint26_linear_0_1" x1="178.655" y1="9.20106" x2="100.105" y2="-6.8295" gradientUnits="userSpaceOnUse">
<stop stop-color="#FCCB7D"/>
<stop offset="0.42" stop-color="#FBB672"/>
<stop offset="0.67" stop-color="#FBB471"/>
<stop offset="0.81" stop-color="#FAAB6E"/>
<stop offset="0.92" stop-color="#F89D69"/>
<stop offset="1" stop-color="#F68F64"/>
</linearGradient>
<linearGradient id="paint27_linear_0_1" x1="137.181" y1="11.9322" x2="140.683" y2="-5.22899" gradientUnits="userSpaceOnUse">
<stop stop-color="#564DA0"/>
<stop offset="0.69" stop-color="#766AB0"/>
<stop offset="1" stop-color="#7C76B7"/>
</linearGradient>
<linearGradient id="paint28_linear_0_1" x1="160.692" y1="18.0642" x2="162.818" y2="7.64486" gradientUnits="userSpaceOnUse">
<stop stop-color="#564DA0"/>
<stop offset="0.69" stop-color="#766AB0"/>
<stop offset="1" stop-color="#7C76B7"/>
</linearGradient>
<linearGradient id="paint29_linear_0_1" x1="113.049" y1="8.3412" x2="115.176" y2="-2.07811" gradientUnits="userSpaceOnUse">
<stop stop-color="#564DA0"/>
<stop offset="0.69" stop-color="#766AB0"/>
<stop offset="1" stop-color="#7C76B7"/>
</linearGradient>
</defs>
</svg>
