<svg width="1440" height="1006" viewBox="0 0 1440 1006" fill="none" xmlns="http://www.w3.org/2000/svg">
<path d="M1608.71 1H-172V1369.29H1608.71V1Z" fill="url(#paint0_linear_1777_473)" stroke="#221F1F" stroke-width="0.55" stroke-miterlimit="10"/>
<path d="M319.089 274.737L316.665 274.486C316.289 274.441 315.932 274.297 315.632 274.069L313.735 272.565C313.455 272.346 313.121 272.205 312.767 272.158C312.413 272.111 312.053 272.16 311.725 272.299C311.397 272.438 311.112 272.662 310.902 272.948C310.692 273.234 310.564 273.57 310.531 273.922L310.278 276.323C310.25 276.69 310.11 277.039 309.878 277.325L308.36 279.225C308.139 279.501 307.997 279.831 307.948 280.179C307.9 280.528 307.947 280.884 308.085 281.208C308.223 281.533 308.446 281.814 308.732 282.024C309.018 282.233 309.355 282.363 309.709 282.399L312.133 282.628C312.509 282.673 312.866 282.817 313.166 283.046L315.063 284.549C315.341 284.768 315.674 284.909 316.026 284.957C316.378 285.005 316.737 284.958 317.064 284.822C317.392 284.685 317.676 284.463 317.888 284.18C318.1 283.897 318.23 283.563 318.266 283.213L318.519 280.812C318.552 280.437 318.699 280.08 318.941 279.789L320.437 277.91C320.659 277.634 320.801 277.305 320.849 276.956C320.898 276.607 320.85 276.252 320.713 275.927C320.575 275.603 320.351 275.321 320.065 275.112C319.78 274.902 319.442 274.773 319.089 274.737Z" fill="#FFD255"/>
<path d="M75.8719 599.992L73.5112 600.597C73.1535 600.701 72.7729 600.701 72.4152 600.597L70.0966 599.866C69.7588 599.758 69.3978 599.741 69.0512 599.818C68.7047 599.895 68.3855 600.063 68.1269 600.304C67.8684 600.545 67.68 600.851 67.5816 601.189C67.4831 601.527 67.4782 601.885 67.5673 602.225L68.1996 604.564C68.305 604.918 68.305 605.295 68.1996 605.649L67.4619 607.946C67.3523 608.281 67.3356 608.638 67.4133 608.981C67.4911 609.325 67.6606 609.641 67.9041 609.897C68.1476 610.153 68.4561 610.34 68.7973 610.437C69.1385 610.535 69.4999 610.54 69.8437 610.451L72.2044 609.846C72.5677 609.731 72.9582 609.731 73.3215 609.846L75.619 610.577C75.9568 610.685 76.3179 610.702 76.6644 610.625C77.0109 610.548 77.3302 610.38 77.5887 610.139C77.8473 609.897 78.0356 609.592 78.1341 609.254C78.2325 608.916 78.2375 608.558 78.1483 608.217L77.5371 605.879C77.4317 605.525 77.4317 605.148 77.5371 604.793L78.2959 602.497C78.3704 602.162 78.3604 601.814 78.2668 601.483C78.1732 601.153 77.9989 600.851 77.7593 600.603C77.5196 600.355 77.2221 600.17 76.8929 600.063C76.5637 599.957 76.213 599.932 75.8719 599.992Z" fill="#FFD255"/>
<path d="M1199.19 225.424L1196.76 226.05C1196.39 226.165 1195.98 226.165 1195.61 226.05L1193.22 225.278C1192.88 225.189 1192.51 225.189 1192.17 225.278C1191.82 225.367 1191.5 225.542 1191.24 225.786C1190.98 226.03 1190.79 226.336 1190.68 226.675C1190.58 227.013 1190.56 227.373 1190.63 227.72L1191.26 230.121C1191.37 230.496 1191.37 230.894 1191.26 231.269L1190.48 233.629C1190.39 233.972 1190.39 234.332 1190.48 234.676C1190.57 235.019 1190.75 235.334 1191 235.591C1191.24 235.848 1191.55 236.038 1191.89 236.144C1192.24 236.25 1192.6 236.268 1192.95 236.197L1195.37 235.57C1195.75 235.467 1196.14 235.467 1196.51 235.57L1198.91 236.343C1199.26 236.432 1199.62 236.432 1199.97 236.343C1200.32 236.254 1200.64 236.079 1200.9 235.834C1201.15 235.59 1201.35 235.284 1201.45 234.946C1201.56 234.607 1201.58 234.247 1201.51 233.9L1200.87 231.499C1200.76 231.132 1200.76 230.739 1200.87 230.372L1201.63 227.992C1201.72 227.65 1201.72 227.292 1201.63 226.951C1201.54 226.61 1201.37 226.297 1201.13 226.04C1200.88 225.784 1200.58 225.593 1200.24 225.485C1199.9 225.377 1199.54 225.356 1199.19 225.424Z" fill="#F7EA2F"/>
<path fill-rule="evenodd" clip-rule="evenodd" d="M593.499 180.327C593.2 180.462 592.948 180.682 592.774 180.958C592.601 181.234 592.514 181.555 592.524 181.881C592.535 182.206 592.642 182.521 592.833 182.786C593.023 183.051 593.289 183.254 593.596 183.37C593.903 183.486 594.238 183.509 594.558 183.437C594.878 183.365 595.17 183.2 595.396 182.964C595.622 182.728 595.773 182.431 595.829 182.111C595.885 181.79 595.845 181.46 595.712 181.162C595.623 180.963 595.495 180.783 595.335 180.633C595.175 180.482 594.987 180.365 594.781 180.287C594.576 180.21 594.356 180.173 594.136 180.18C593.916 180.187 593.699 180.237 593.499 180.327Z" fill="white"/>
<path style="mix-blend-mode:screen" opacity="0.61" fill-rule="evenodd" clip-rule="evenodd" d="M591.391 175.776C590.183 176.316 589.164 177.198 588.462 178.31C587.76 179.423 587.406 180.717 587.446 182.029C587.486 183.341 587.918 184.611 588.687 185.68C589.455 186.749 590.526 187.568 591.765 188.034C593.003 188.501 594.353 188.593 595.645 188.299C596.936 188.006 598.111 187.34 599.02 186.386C599.93 185.432 600.533 184.232 600.755 182.938C600.976 181.644 600.805 180.314 600.264 179.117C599.906 178.317 599.392 177.596 598.751 176.995C598.11 176.394 597.355 175.925 596.53 175.614C595.705 175.303 594.826 175.158 593.944 175.186C593.062 175.214 592.194 175.414 591.391 175.776Z" fill="url(#paint1_radial_1777_473)"/>
<path style="mix-blend-mode:screen" opacity="0.61" fill-rule="evenodd" clip-rule="evenodd" d="M592.909 179.012C592.358 179.276 591.897 179.694 591.585 180.215C591.272 180.736 591.121 181.337 591.15 181.942C591.179 182.548 591.388 183.131 591.749 183.62C592.111 184.109 592.61 184.482 593.183 184.692C593.757 184.903 594.381 184.941 594.977 184.803C595.573 184.665 596.114 184.356 596.534 183.916C596.954 183.475 597.234 182.921 597.339 182.324C597.444 181.727 597.37 181.113 597.124 180.557C596.956 180.176 596.713 179.833 596.407 179.548C596.102 179.262 595.742 179.041 595.348 178.897C594.955 178.752 594.536 178.688 594.117 178.708C593.698 178.728 593.287 178.831 592.909 179.012Z" fill="url(#paint2_radial_1777_473)"/>
<path fill-rule="evenodd" clip-rule="evenodd" d="M850.647 677.636C850.089 677.897 849.62 678.315 849.3 678.838C848.98 679.361 848.823 679.966 848.848 680.577C848.874 681.188 849.08 681.778 849.442 682.274C849.804 682.769 850.305 683.148 850.884 683.363C851.462 683.577 852.091 683.619 852.693 683.481C853.294 683.343 853.842 683.033 854.266 682.589C854.691 682.145 854.974 681.587 855.08 680.985C855.186 680.382 855.111 679.762 854.863 679.202C854.692 678.823 854.447 678.481 854.142 678.197C853.837 677.913 853.478 677.691 853.086 677.546C852.694 677.4 852.276 677.333 851.858 677.348C851.439 677.364 851.028 677.462 850.647 677.636Z" fill="white"/>
<path style="mix-blend-mode:screen" opacity="0.61" fill-rule="evenodd" clip-rule="evenodd" d="M846.706 669.055C844.424 670.073 842.499 671.737 841.172 673.839C839.846 675.941 839.179 678.385 839.256 680.862C839.333 683.339 840.149 685.738 841.603 687.756C843.056 689.773 845.081 691.318 847.422 692.195C849.762 693.072 852.312 693.241 854.75 692.682C857.188 692.123 859.403 690.86 861.116 689.053C862.829 687.247 863.962 684.977 864.372 682.532C864.782 680.088 864.451 677.577 863.421 675.319C862.041 672.294 859.505 669.936 856.371 668.762C853.238 667.588 849.761 667.693 846.706 669.055Z" fill="url(#paint3_radial_1777_473)"/>
<path style="mix-blend-mode:screen" opacity="0.61" fill-rule="evenodd" clip-rule="evenodd" d="M849.467 675.151C848.405 675.629 847.509 676.407 846.893 677.389C846.277 678.37 845.969 679.51 846.007 680.665C846.045 681.82 846.428 682.938 847.107 683.877C847.786 684.817 848.731 685.536 849.822 685.944C850.913 686.352 852.102 686.43 853.239 686.169C854.375 685.908 855.408 685.32 856.207 684.477C857.006 683.635 857.534 682.578 857.727 681.438C857.919 680.298 857.766 679.128 857.287 678.074C856.97 677.371 856.516 676.737 855.951 676.209C855.385 675.681 854.72 675.269 853.992 674.997C853.265 674.725 852.491 674.599 851.714 674.626C850.937 674.652 850.174 674.831 849.467 675.151Z" fill="url(#paint4_radial_1777_473)"/>
<path fill-rule="evenodd" clip-rule="evenodd" d="M171.501 153.938C170.942 154.198 170.474 154.616 170.154 155.14C169.834 155.663 169.677 156.268 169.702 156.879C169.727 157.49 169.934 158.08 170.296 158.575C170.658 159.071 171.159 159.45 171.737 159.664C172.315 159.879 172.944 159.92 173.546 159.783C174.148 159.645 174.695 159.335 175.12 158.891C175.544 158.447 175.827 157.889 175.934 157.286C176.04 156.684 175.964 156.064 175.717 155.504C175.546 155.125 175.301 154.783 174.996 154.499C174.691 154.214 174.332 153.993 173.939 153.847C173.547 153.702 173.13 153.635 172.711 153.65C172.292 153.666 171.881 153.763 171.501 153.938Z" fill="white"/>
<path style="mix-blend-mode:screen" opacity="0.61" fill-rule="evenodd" clip-rule="evenodd" d="M167.603 145.357C165.321 146.374 163.395 148.039 162.069 150.141C160.743 152.242 160.076 154.686 160.152 157.164C160.229 159.641 161.046 162.04 162.499 164.057C163.953 166.075 165.978 167.619 168.318 168.496C170.659 169.373 173.209 169.543 175.646 168.984C178.084 168.425 180.299 167.162 182.012 165.355C183.725 163.548 184.858 161.279 185.269 158.834C185.679 156.389 185.348 153.879 184.317 151.62C182.937 148.596 180.402 146.238 177.268 145.064C174.134 143.889 170.658 143.995 167.603 145.357Z" fill="url(#paint5_radial_1777_473)"/>
<path style="mix-blend-mode:screen" opacity="0.61" fill-rule="evenodd" clip-rule="evenodd" d="M170.364 151.454C169.301 151.931 168.406 152.71 167.79 153.691C167.174 154.672 166.866 155.812 166.904 156.967C166.942 158.122 167.324 159.24 168.003 160.18C168.682 161.119 169.627 161.838 170.718 162.246C171.81 162.654 172.999 162.733 174.135 162.472C175.272 162.211 176.305 161.622 177.103 160.78C177.902 159.938 178.431 158.88 178.623 157.74C178.815 156.601 178.662 155.43 178.183 154.376C177.867 153.673 177.413 153.039 176.847 152.511C176.282 151.983 175.616 151.571 174.889 151.299C174.162 151.028 173.387 150.901 172.611 150.928C171.834 150.954 171.07 151.133 170.364 151.454Z" fill="url(#paint6_radial_1777_473)"/>
<path fill-rule="evenodd" clip-rule="evenodd" d="M384.829 604.021C384.271 604.282 383.802 604.7 383.482 605.223C383.162 605.746 383.005 606.351 383.03 606.962C383.055 607.573 383.262 608.163 383.624 608.659C383.986 609.154 384.487 609.533 385.065 609.748C385.643 609.962 386.273 610.004 386.874 609.866C387.476 609.728 388.023 609.418 388.448 608.974C388.873 608.53 389.156 607.972 389.262 607.37C389.368 606.767 389.292 606.147 389.045 605.587C388.876 605.206 388.632 604.862 388.328 604.577C388.023 604.291 387.664 604.068 387.271 603.922C386.878 603.776 386.459 603.71 386.04 603.727C385.62 603.744 385.209 603.844 384.829 604.021Z" fill="white"/>
<path style="mix-blend-mode:screen" opacity="0.61" fill-rule="evenodd" clip-rule="evenodd" d="M381.015 595.44C378.733 596.457 376.807 598.122 375.481 600.224C374.155 602.325 373.488 604.769 373.565 607.247C373.641 609.724 374.458 612.123 375.912 614.14C377.365 616.158 379.39 617.702 381.73 618.579C384.071 619.456 386.621 619.626 389.059 619.067C391.496 618.508 393.712 617.245 395.424 615.438C397.137 613.631 398.27 611.362 398.681 608.917C399.091 606.472 398.76 603.962 397.729 601.703C396.349 598.679 393.814 596.321 390.68 595.147C387.546 593.972 384.07 594.078 381.015 595.44Z" fill="url(#paint7_radial_1777_473)"/>
<path style="mix-blend-mode:screen" opacity="0.61" fill-rule="evenodd" clip-rule="evenodd" d="M383.776 601.516C382.71 601.989 381.811 602.764 381.19 603.743C380.57 604.722 380.256 605.862 380.29 607.018C380.323 608.173 380.702 609.293 381.377 610.236C382.053 611.179 382.996 611.901 384.087 612.313C385.178 612.725 386.368 612.807 387.505 612.549C388.643 612.291 389.678 611.705 390.48 610.864C391.281 610.024 391.813 608.966 392.008 607.826C392.203 606.686 392.052 605.515 391.574 604.46C390.934 603.045 389.753 601.94 388.291 601.388C386.828 600.836 385.204 600.882 383.776 601.516Z" fill="url(#paint8_radial_1777_473)"/>
<path fill-rule="evenodd" clip-rule="evenodd" d="M342.675 751.293C342.269 751.44 341.898 751.667 341.585 751.962C341.272 752.257 341.024 752.613 340.856 753.007C340.688 753.401 340.604 753.825 340.61 754.253C340.615 754.681 340.709 755.103 340.886 755.493C341.063 755.883 341.32 756.233 341.64 756.52C341.96 756.807 342.336 757.026 342.745 757.163C343.154 757.3 343.588 757.352 344.018 757.315C344.448 757.279 344.866 757.155 345.246 756.951C345.652 756.805 346.023 756.577 346.336 756.282C346.648 755.987 346.896 755.631 347.064 755.237C347.232 754.843 347.316 754.419 347.311 753.991C347.306 753.563 347.212 753.141 347.034 752.751C346.857 752.361 346.6 752.012 346.281 751.724C345.961 751.437 345.584 751.218 345.175 751.081C344.766 750.944 344.333 750.892 343.903 750.929C343.472 750.965 343.054 751.089 342.675 751.293Z" fill="white"/>
<path style="mix-blend-mode:screen" opacity="0.61" fill-rule="evenodd" clip-rule="evenodd" d="M338.69 742.691C336.409 743.708 334.483 745.373 333.157 747.475C331.831 749.576 331.164 752.02 331.24 754.498C331.317 756.975 332.134 759.374 333.587 761.391C335.041 763.409 337.066 764.953 339.406 765.83C341.746 766.707 344.297 766.877 346.734 766.318C349.172 765.759 351.387 764.496 353.1 762.689C354.813 760.882 355.946 758.613 356.356 756.168C356.767 753.723 356.436 751.213 355.405 748.954C354.025 745.93 351.49 743.572 348.356 742.398C345.222 741.223 341.746 741.329 338.69 742.691Z" fill="url(#paint9_radial_1777_473)"/>
<path style="mix-blend-mode:screen" opacity="0.61" fill-rule="evenodd" clip-rule="evenodd" d="M341.451 748.787C340.386 749.262 339.487 750.039 338.868 751.02C338.249 752 337.938 753.141 337.973 754.297C338.009 755.453 338.39 756.573 339.068 757.514C339.747 758.456 340.692 759.177 341.784 759.586C342.876 759.996 344.066 760.075 345.204 759.814C346.342 759.553 347.375 758.963 348.175 758.12C348.974 757.277 349.503 756.218 349.694 755.077C349.886 753.936 349.731 752.764 349.25 751.71C348.606 750.299 347.423 749.199 345.961 748.651C344.499 748.103 342.877 748.152 341.451 748.787Z" fill="url(#paint10_radial_1777_473)"/>
<path fill-rule="evenodd" clip-rule="evenodd" d="M2.24759 611.516C2.06734 611.595 1.90465 611.709 1.76888 611.851C1.6331 611.992 1.52691 612.159 1.4564 612.341C1.38589 612.524 1.35246 612.718 1.35802 612.913C1.36357 613.108 1.40801 613.301 1.48879 613.479C1.56121 613.672 1.67289 613.848 1.81692 613.996C1.96095 614.145 2.13425 614.263 2.32607 614.342C2.51789 614.421 2.72414 614.461 2.93202 614.458C3.1399 614.455 3.34498 614.41 3.53454 614.326C3.72411 614.241 3.89411 614.119 4.034 613.967C4.17389 613.814 4.28068 613.635 4.34776 613.44C4.41484 613.245 4.44078 613.039 4.42395 612.833C4.40713 612.628 4.34791 612.429 4.24996 612.247C4.16823 612.068 4.05129 611.906 3.90593 611.772C3.76058 611.638 3.58974 611.534 3.40336 611.466C3.21698 611.398 3.0188 611.367 2.82037 611.376C2.62194 611.385 2.42723 611.432 2.24759 611.516Z" fill="white"/>
<path style="mix-blend-mode:screen" opacity="0.61" fill-rule="evenodd" clip-rule="evenodd" d="M0.392947 607.382C-0.70423 607.867 -1.63156 608.663 -2.27165 609.67C-2.91173 610.677 -3.23579 611.849 -3.20279 613.039C-3.16978 614.228 -2.78121 615.381 -2.08626 616.352C-1.3913 617.323 -0.421222 618.067 0.701172 618.491C1.82357 618.916 3.04781 619 4.21889 618.735C5.38997 618.47 6.45525 617.866 7.27984 617.001C8.10443 616.135 8.65126 615.047 8.85111 613.874C9.05095 612.701 8.89482 611.495 8.40248 610.409C7.74387 608.957 6.53087 607.823 5.02944 607.256C3.528 606.688 1.86065 606.734 0.392947 607.382Z" fill="url(#paint11_radial_1777_473)"/>
<path style="mix-blend-mode:screen" opacity="0.61" fill-rule="evenodd" clip-rule="evenodd" d="M1.71988 610.305C1.38081 610.456 1.07503 610.671 0.820027 610.939C0.565021 611.207 0.365771 611.522 0.233657 611.866C0.101542 612.21 0.0391526 612.577 0.0500435 612.945C0.0609345 613.313 0.14489 613.675 0.297129 614.011C0.449367 614.347 0.666906 614.65 0.937314 614.902C1.20772 615.155 1.52571 615.352 1.87312 615.483C2.22053 615.614 2.59056 615.676 2.96208 615.665C3.33361 615.654 3.69935 615.571 4.03843 615.42C4.72322 615.116 5.25783 614.554 5.52464 613.859C5.79146 613.164 5.76863 612.393 5.46117 611.714C5.15371 611.036 4.58681 610.506 3.88518 610.242C3.18355 609.978 2.40468 610 1.71988 610.305Z" fill="url(#paint12_radial_1777_473)"/>
<path fill-rule="evenodd" clip-rule="evenodd" d="M48.1969 442.302C47.8366 442.466 47.5566 442.764 47.4183 443.132C47.28 443.5 47.2947 443.907 47.4592 444.264C47.5387 444.443 47.6536 444.604 47.797 444.738C47.9404 444.872 48.1095 444.976 48.2941 445.044C48.4788 445.112 48.6754 445.143 48.8723 445.134C49.0692 445.126 49.2624 445.079 49.4405 444.995C49.783 444.821 50.0445 444.522 50.1706 444.162C50.2967 443.802 50.2776 443.407 50.1175 443.06C49.9573 442.713 49.6683 442.441 49.3106 442.3C48.9529 442.158 48.554 442.159 48.1969 442.302Z" fill="white"/>
<path style="mix-blend-mode:screen" opacity="0.61" fill-rule="evenodd" clip-rule="evenodd" d="M46.3431 438.272C45.2553 438.756 44.3364 439.547 43.7029 440.548C43.0693 441.548 42.7495 442.712 42.7837 443.893C42.818 445.073 43.2049 446.217 43.8955 447.179C44.5861 448.142 45.5493 448.88 46.6635 449.301C47.7776 449.721 48.9925 449.805 50.1547 449.541C51.3169 449.278 52.374 448.679 53.1926 447.82C54.0111 446.962 54.5541 445.882 54.7531 444.717C54.9521 443.553 54.7981 442.356 54.3105 441.279C53.9867 440.563 53.5238 439.918 52.9481 439.379C52.3725 438.841 51.6954 438.42 50.9555 438.141C50.2156 437.862 49.4275 437.73 48.6361 437.752C47.8447 437.775 47.0656 437.952 46.3431 438.272Z" fill="url(#paint13_radial_1777_473)"/>
<path style="mix-blend-mode:screen" opacity="0.61" fill-rule="evenodd" clip-rule="evenodd" d="M47.5865 441.174C47.0811 441.4 46.6545 441.768 46.3605 442.233C46.0666 442.699 45.9184 443.24 45.9348 443.789C45.9512 444.337 46.1314 444.869 46.4526 445.316C46.7738 445.763 47.2217 446.106 47.7396 446.302C48.2575 446.497 48.8222 446.536 49.3624 446.413C49.9025 446.291 50.394 446.012 50.7746 445.613C51.1552 445.215 51.4078 444.713 51.5006 444.172C51.5935 443.63 51.5223 443.074 51.2961 442.573C51.1479 442.238 50.9337 441.935 50.6661 441.683C50.3985 441.43 50.0828 441.233 49.7374 441.103C49.3921 440.973 49.024 440.912 48.6547 440.924C48.2854 440.937 47.9223 441.022 47.5865 441.174Z" fill="url(#paint14_radial_1777_473)"/>
<path fill-rule="evenodd" clip-rule="evenodd" d="M192.453 609.533C192.136 609.587 191.837 609.712 191.576 609.898C191.316 610.084 191.102 610.327 190.951 610.607C190.8 610.888 190.716 611.199 190.704 611.517C190.693 611.835 190.755 612.151 190.886 612.441C191.017 612.732 191.213 612.989 191.459 613.192C191.706 613.396 191.996 613.542 192.308 613.618C192.619 613.694 192.945 613.698 193.258 613.631C193.572 613.563 193.866 613.425 194.118 613.228C194.434 613.174 194.734 613.049 194.994 612.863C195.254 612.677 195.468 612.434 195.619 612.154C195.77 611.873 195.855 611.562 195.866 611.244C195.877 610.926 195.815 610.61 195.684 610.32C195.554 610.029 195.358 609.773 195.111 609.569C194.865 609.365 194.575 609.219 194.263 609.143C193.951 609.067 193.626 609.063 193.312 609.131C192.999 609.198 192.705 609.336 192.453 609.533Z" fill="white"/>
<path style="mix-blend-mode:screen" opacity="0.61" fill-rule="evenodd" clip-rule="evenodd" d="M189.902 603.937C188.414 604.593 187.156 605.671 186.286 607.034C185.416 608.398 184.974 609.986 185.014 611.598C185.055 613.21 185.576 614.775 186.513 616.093C187.451 617.412 188.761 618.427 190.28 619.009C191.798 619.591 193.457 619.714 195.046 619.363C196.635 619.012 198.084 618.203 199.209 617.037C200.335 615.872 201.086 614.402 201.369 612.814C201.652 611.225 201.454 609.59 200.799 608.113C199.913 606.128 198.267 604.573 196.223 603.79C194.18 603.007 191.906 603.06 189.902 603.937Z" fill="url(#paint15_radial_1777_473)"/>
<path style="mix-blend-mode:screen" opacity="0.61" fill-rule="evenodd" clip-rule="evenodd" d="M191.715 607.904C191.024 608.214 190.441 608.72 190.04 609.358C189.64 609.996 189.439 610.737 189.463 611.488C189.487 612.238 189.736 612.965 190.177 613.576C190.618 614.187 191.232 614.655 191.942 614.92C192.652 615.186 193.425 615.237 194.163 615.067C194.902 614.898 195.574 614.515 196.093 613.967C196.612 613.42 196.956 612.732 197.081 611.991C197.206 611.25 197.106 610.489 196.794 609.804C196.587 609.349 196.291 608.938 195.924 608.596C195.556 608.254 195.124 607.987 194.652 607.811C194.18 607.634 193.678 607.552 193.174 607.568C192.67 607.584 192.174 607.698 191.715 607.904Z" fill="url(#paint16_radial_1777_473)"/>
<path fill-rule="evenodd" clip-rule="evenodd" d="M72.1617 282.608C71.8454 282.662 71.5456 282.786 71.2854 282.973C71.0252 283.159 70.8114 283.402 70.6602 283.682C70.5091 283.963 70.4247 284.274 70.4134 284.592C70.4021 284.909 70.4643 285.225 70.5951 285.516C70.726 285.806 70.9221 286.063 71.1684 286.267C71.4148 286.471 71.7049 286.616 72.0166 286.692C72.3284 286.768 72.6535 286.773 72.9673 286.705C73.281 286.638 73.575 286.5 73.8269 286.303C74.1945 286.015 74.4548 285.614 74.5667 285.163C74.6786 284.713 74.6356 284.238 74.4446 283.814C74.2536 283.39 73.9255 283.041 73.5121 282.823C73.0986 282.604 72.6235 282.529 72.1617 282.608Z" fill="white"/>
<path style="mix-blend-mode:screen" opacity="0.61" fill-rule="evenodd" clip-rule="evenodd" d="M69.6127 277.033C68.1252 277.689 66.8671 278.767 65.9973 280.13C65.1274 281.494 64.6848 283.082 64.7252 284.694C64.7656 286.306 65.2873 287.871 66.2244 289.189C67.1615 290.508 68.4721 291.523 69.9906 292.105C71.5092 292.687 73.1678 292.81 74.757 292.459C76.3462 292.108 77.7949 291.299 78.9203 290.133C80.0456 288.968 80.7972 287.498 81.0801 285.91C81.363 284.321 81.1646 282.686 80.5099 281.209C80.0756 280.223 79.4482 279.331 78.6639 278.586C77.8796 277.841 76.954 277.258 75.9407 276.87C74.9273 276.481 73.8463 276.296 72.7601 276.324C71.674 276.352 70.6042 276.593 69.6127 277.033Z" fill="url(#paint17_radial_1777_473)"/>
<path style="mix-blend-mode:screen" opacity="0.61" fill-rule="evenodd" clip-rule="evenodd" d="M71.4256 280.979C70.7344 281.288 70.1509 281.792 69.7487 282.428C69.3465 283.064 69.1436 283.805 69.1657 284.555C69.1878 285.305 69.4338 286.033 69.8728 286.645C70.3118 287.257 70.9239 287.726 71.6321 287.994C72.3402 288.262 73.1126 288.316 73.8517 288.149C74.5907 287.983 75.2634 287.603 75.7848 287.058C76.3061 286.513 76.6528 285.827 76.7811 285.087C76.9093 284.347 76.8133 283.586 76.5053 282.9C76.082 281.984 75.3123 281.27 74.3622 280.91C73.412 280.551 72.3574 280.576 71.4256 280.979Z" fill="url(#paint18_radial_1777_473)"/>
<path fill-rule="evenodd" clip-rule="evenodd" d="M413.559 200.12C413.323 200.225 413.124 200.397 412.987 200.614C412.85 200.831 412.782 201.084 412.79 201.34C412.798 201.596 412.882 201.844 413.032 202.052C413.183 202.26 413.392 202.42 413.634 202.51C413.876 202.601 414.139 202.618 414.391 202.561C414.643 202.503 414.871 202.372 415.048 202.186C415.225 201.999 415.343 201.765 415.385 201.512C415.427 201.26 415.393 201 415.287 200.767C415.144 200.454 414.882 200.21 414.558 200.089C414.234 199.967 413.874 199.978 413.559 200.12Z" fill="white"/>
<path style="mix-blend-mode:screen" opacity="0.61" fill-rule="evenodd" clip-rule="evenodd" d="M411.934 196.612C410.985 197.036 410.184 197.729 409.632 198.604C409.079 199.478 408.801 200.495 408.832 201.526C408.864 202.557 409.202 203.556 409.806 204.397C410.41 205.237 411.252 205.882 412.225 206.249C413.198 206.616 414.259 206.689 415.275 206.459C416.29 206.229 417.213 205.706 417.929 204.956C418.644 204.207 419.119 203.264 419.294 202.247C419.469 201.23 419.336 200.185 418.911 199.243C418.628 198.615 418.223 198.05 417.719 197.578C417.215 197.106 416.622 196.737 415.974 196.493C415.326 196.248 414.636 196.133 413.942 196.153C413.249 196.174 412.567 196.33 411.934 196.612Z" fill="url(#paint19_radial_1777_473)"/>
<path style="mix-blend-mode:screen" opacity="0.61" fill-rule="evenodd" clip-rule="evenodd" d="M413.074 199.159C412.479 199.436 412.019 199.936 411.796 200.549C411.572 201.161 411.604 201.837 411.884 202.427C412.163 203.016 412.668 203.472 413.286 203.693C413.905 203.914 414.587 203.883 415.182 203.606C415.477 203.469 415.742 203.276 415.961 203.037C416.18 202.799 416.35 202.52 416.461 202.217C416.571 201.913 416.621 201.591 416.605 201.269C416.59 200.947 416.511 200.631 416.373 200.339C416.235 200.047 416.04 199.785 415.799 199.567C415.558 199.35 415.277 199.182 414.97 199.072C414.664 198.963 414.339 198.914 414.014 198.929C413.688 198.944 413.369 199.022 413.074 199.159Z" fill="url(#paint20_radial_1777_473)"/>
<path fill-rule="evenodd" clip-rule="evenodd" d="M210.685 417.353C210.512 417.456 210.362 417.594 210.245 417.758C210.129 417.922 210.048 418.108 210.009 418.305C209.969 418.501 209.971 418.704 210.015 418.899C210.059 419.095 210.143 419.279 210.263 419.441C210.43 419.666 210.66 419.838 210.924 419.936C211.188 420.034 211.475 420.054 211.75 419.993C212.025 419.933 212.277 419.794 212.474 419.595C212.671 419.395 212.806 419.143 212.861 418.87C212.916 418.596 212.89 418.312 212.785 418.053C212.681 417.793 212.502 417.57 212.272 417.409C212.041 417.248 211.768 417.157 211.487 417.147C211.205 417.137 210.926 417.209 210.685 417.353Z" fill="white"/>
<path style="mix-blend-mode:screen" opacity="0.61" fill-rule="evenodd" clip-rule="evenodd" d="M208.241 413.72C207.273 414.352 206.516 415.254 206.066 416.312C205.615 417.37 205.492 418.536 205.711 419.664C205.93 420.791 206.482 421.829 207.296 422.645C208.111 423.462 209.152 424.021 210.287 424.252C211.423 424.483 212.602 424.375 213.675 423.942C214.749 423.509 215.668 422.77 216.318 421.819C216.968 420.868 217.318 419.748 217.325 418.6C217.331 417.452 216.994 416.328 216.356 415.37C215.934 414.732 215.389 414.182 214.752 413.754C214.115 413.325 213.399 413.026 212.645 412.872C211.89 412.719 211.113 412.715 210.357 412.861C209.601 413.006 208.882 413.298 208.241 413.72Z" fill="url(#paint21_radial_1777_473)"/>
<path style="mix-blend-mode:screen" opacity="0.61" fill-rule="evenodd" clip-rule="evenodd" d="M209.884 416.309C209.432 416.606 209.08 417.03 208.871 417.525C208.662 418.021 208.607 418.567 208.712 419.094C208.817 419.621 209.077 420.106 209.46 420.486C209.843 420.866 210.331 421.126 210.863 421.231C211.395 421.336 211.946 421.283 212.447 421.078C212.948 420.873 213.377 420.525 213.678 420.078C213.98 419.632 214.14 419.106 214.14 418.569C214.14 418.032 213.979 417.507 213.678 417.061C213.275 416.463 212.649 416.049 211.938 415.908C211.226 415.767 210.488 415.911 209.884 416.309Z" fill="url(#paint22_radial_1777_473)"/>
<path fill-rule="evenodd" clip-rule="evenodd" d="M1432.6 174.148C1432.36 174.16 1432.11 174.099 1431.9 173.974C1431.69 173.849 1431.52 173.665 1431.42 173.445C1431.31 173.225 1431.27 172.979 1431.31 172.738C1431.35 172.497 1431.45 172.272 1431.62 172.092C1431.78 171.911 1432 171.783 1432.24 171.723C1432.47 171.663 1432.73 171.675 1432.96 171.757C1433.19 171.838 1433.39 171.986 1433.54 172.181C1433.68 172.376 1433.77 172.61 1433.78 172.853C1433.79 173.016 1433.77 173.179 1433.72 173.333C1433.66 173.487 1433.58 173.628 1433.47 173.749C1433.36 173.87 1433.23 173.967 1433.08 174.036C1432.93 174.104 1432.77 174.142 1432.6 174.148Z" fill="white"/>
<path style="mix-blend-mode:screen" opacity="0.61" fill-rule="evenodd" clip-rule="evenodd" d="M1432.79 177.906C1431.8 177.954 1430.81 177.709 1429.96 177.202C1429.1 176.695 1428.42 175.949 1427.99 175.057C1427.57 174.166 1427.42 173.169 1427.56 172.194C1427.71 171.218 1428.14 170.307 1428.81 169.575C1429.48 168.843 1430.35 168.324 1431.32 168.083C1432.28 167.842 1433.3 167.89 1434.24 168.221C1435.17 168.552 1435.99 169.15 1436.59 169.941C1437.18 170.732 1437.53 171.68 1437.58 172.665C1437.64 173.988 1437.17 175.281 1436.28 176.263C1435.38 177.245 1434.13 177.836 1432.79 177.906Z" fill="url(#paint23_radial_1777_473)"/>
<path style="mix-blend-mode:screen" opacity="0.61" fill-rule="evenodd" clip-rule="evenodd" d="M1432.67 175.233C1432.2 175.278 1431.74 175.185 1431.32 174.965C1430.91 174.744 1430.58 174.408 1430.36 173.998C1430.15 173.588 1430.06 173.124 1430.11 172.665C1430.17 172.206 1430.36 171.772 1430.66 171.421C1430.96 171.07 1431.37 170.816 1431.82 170.693C1432.27 170.57 1432.74 170.583 1433.18 170.73C1433.63 170.877 1434.01 171.152 1434.3 171.519C1434.58 171.886 1434.75 172.329 1434.77 172.791C1434.82 173.39 1434.62 173.981 1434.22 174.438C1433.83 174.894 1433.27 175.18 1432.67 175.233Z" fill="url(#paint24_radial_1777_473)"/>
<path fill-rule="evenodd" clip-rule="evenodd" d="M491.757 792.61C491.447 792.625 491.137 792.58 490.845 792.476C490.552 792.373 490.284 792.213 490.054 792.006C489.824 791.8 489.637 791.551 489.504 791.273C489.372 790.995 489.295 790.694 489.28 790.387C489.265 790.08 489.311 789.773 489.416 789.483C489.52 789.194 489.681 788.927 489.89 788.7C490.098 788.472 490.35 788.287 490.63 788.155C490.911 788.024 491.215 787.949 491.525 787.933C492.151 787.903 492.764 788.12 493.228 788.537C493.693 788.954 493.971 789.537 494.002 790.157C494.032 790.777 493.813 791.384 493.392 791.844C492.971 792.304 492.383 792.58 491.757 792.61Z" fill="white"/>
<path style="mix-blend-mode:screen" opacity="0.61" fill-rule="evenodd" clip-rule="evenodd" d="M492.116 799.667C490.238 799.759 488.375 799.298 486.762 798.342C485.148 797.386 483.858 795.977 483.052 794.295C482.247 792.612 481.964 790.73 482.239 788.888C482.513 787.046 483.333 785.326 484.594 783.945C485.855 782.564 487.502 781.585 489.325 781.131C491.148 780.677 493.067 780.768 494.837 781.394C496.608 782.02 498.152 783.152 499.273 784.647C500.394 786.141 501.043 787.932 501.137 789.792C501.199 791.027 501.016 792.262 500.596 793.427C500.176 794.592 499.529 795.663 498.692 796.58C497.854 797.497 496.842 798.242 495.714 798.771C494.585 799.301 493.363 799.605 492.116 799.667Z" fill="url(#paint25_radial_1777_473)"/>
<path style="mix-blend-mode:screen" opacity="0.61" fill-rule="evenodd" clip-rule="evenodd" d="M491.861 794.656C490.988 794.696 490.123 794.479 489.374 794.033C488.625 793.586 488.026 792.93 487.653 792.147C487.281 791.364 487.15 790.489 487.278 789.632C487.407 788.776 487.788 787.977 488.375 787.335C488.961 786.693 489.727 786.237 490.574 786.025C491.422 785.813 492.314 785.855 493.137 786.145C493.961 786.434 494.68 786.959 495.203 787.652C495.726 788.346 496.03 789.178 496.077 790.042C496.134 791.207 495.723 792.348 494.932 793.213C494.142 794.078 493.038 794.597 491.861 794.656Z" fill="url(#paint26_radial_1777_473)"/>
<path fill-rule="evenodd" clip-rule="evenodd" d="M1341.99 291.982C1341.21 292.022 1340.45 291.834 1339.78 291.441C1339.11 291.048 1338.58 290.468 1338.24 289.774C1337.91 289.08 1337.79 288.304 1337.9 287.544C1338.02 286.783 1338.35 286.073 1338.87 285.502C1339.39 284.932 1340.07 284.527 1340.82 284.339C1341.58 284.151 1342.37 284.188 1343.1 284.446C1343.83 284.704 1344.47 285.171 1344.93 285.787C1345.39 286.404 1345.66 287.143 1345.7 287.911C1345.75 288.937 1345.39 289.943 1344.69 290.706C1344 291.469 1343.03 291.928 1341.99 291.982Z" fill="white"/>
<path style="mix-blend-mode:screen" opacity="0.61" fill-rule="evenodd" clip-rule="evenodd" d="M1342.58 303.632C1339.47 303.785 1336.39 303.021 1333.71 301.437C1331.04 299.854 1328.91 297.521 1327.57 294.735C1326.24 291.948 1325.77 288.832 1326.22 285.782C1326.68 282.731 1328.03 279.882 1330.12 277.595C1332.21 275.307 1334.94 273.685 1337.95 272.932C1340.97 272.179 1344.15 272.329 1347.08 273.364C1350.02 274.399 1352.57 276.271 1354.43 278.745C1356.29 281.219 1357.37 284.184 1357.52 287.264C1357.63 289.31 1357.33 291.358 1356.63 293.289C1355.94 295.219 1354.87 296.996 1353.48 298.516C1352.09 300.036 1350.41 301.27 1348.54 302.148C1346.67 303.026 1344.65 303.53 1342.58 303.632Z" fill="url(#paint27_radial_1777_473)"/>
<path style="mix-blend-mode:screen" opacity="0.61" fill-rule="evenodd" clip-rule="evenodd" d="M1342.16 295.322C1340.7 295.395 1339.26 295.039 1338.01 294.299C1336.76 293.56 1335.77 292.47 1335.14 291.168C1334.52 289.866 1334.3 288.41 1334.51 286.984C1334.72 285.558 1335.36 284.227 1336.33 283.158C1337.31 282.089 1338.58 281.331 1339.99 280.979C1341.4 280.627 1342.89 280.698 1344.26 281.182C1345.63 281.666 1346.82 282.542 1347.69 283.699C1348.56 284.856 1349.06 286.242 1349.13 287.681C1349.19 288.637 1349.05 289.594 1348.72 290.496C1348.4 291.398 1347.9 292.228 1347.25 292.938C1346.6 293.648 1345.82 294.225 1344.94 294.634C1344.07 295.043 1343.12 295.277 1342.16 295.322Z" fill="url(#paint28_radial_1777_473)"/>
<path fill-rule="evenodd" clip-rule="evenodd" d="M424.477 541.033C424.061 541.05 423.655 540.904 423.347 540.626C423.039 540.349 422.854 539.962 422.832 539.55C422.821 539.348 422.85 539.146 422.919 538.956C422.987 538.765 423.093 538.59 423.23 538.44C423.368 538.291 423.534 538.17 423.719 538.084C423.904 537.999 424.104 537.951 424.308 537.943C424.513 537.932 424.718 537.96 424.912 538.028C425.105 538.095 425.283 538.2 425.436 538.336C425.589 538.471 425.713 538.636 425.802 538.819C425.89 539.002 425.941 539.201 425.952 539.404C425.969 539.813 425.825 540.212 425.549 540.516C425.273 540.82 424.888 541.006 424.477 541.033Z" fill="white"/>
<path style="mix-blend-mode:screen" opacity="0.61" fill-rule="evenodd" clip-rule="evenodd" d="M424.707 545.689C423.455 545.758 422.21 545.457 421.131 544.823C420.051 544.19 419.187 543.253 418.647 542.131C418.107 541.01 417.916 539.754 418.098 538.525C418.281 537.295 418.828 536.148 419.671 535.227C420.514 534.307 421.614 533.656 422.831 533.356C424.049 533.057 425.329 533.123 426.508 533.546C427.688 533.97 428.714 534.731 429.455 535.733C430.197 536.735 430.62 537.933 430.672 539.175C430.741 540.819 430.154 542.424 429.038 543.643C427.922 544.862 426.366 545.597 424.707 545.689Z" fill="url(#paint29_radial_1777_473)"/>
<path style="mix-blend-mode:screen" opacity="0.61" fill-rule="evenodd" clip-rule="evenodd" d="M424.54 542.39C423.764 542.424 423.006 542.154 422.43 541.638C421.854 541.122 421.506 540.402 421.463 539.634C421.434 539.061 421.578 538.493 421.875 538.001C422.173 537.509 422.611 537.115 423.135 536.869C423.658 536.624 424.243 536.537 424.816 536.621C425.389 536.705 425.924 536.955 426.354 537.339C426.783 537.724 427.088 538.226 427.23 538.782C427.371 539.339 427.343 539.924 427.149 540.464C426.955 541.005 426.604 541.476 426.139 541.819C425.675 542.162 425.118 542.36 424.54 542.39Z" fill="url(#paint30_radial_1777_473)"/>
<path style="mix-blend-mode:screen" opacity="0.61" fill-rule="evenodd" clip-rule="evenodd" d="M1446.03 619.93C1444.44 620.007 1442.86 619.614 1441.49 618.803C1440.13 617.991 1439.04 616.796 1438.36 615.37C1437.68 613.943 1437.44 612.349 1437.67 610.789C1437.91 609.229 1438.6 607.773 1439.68 606.604C1440.75 605.436 1442.14 604.609 1443.69 604.227C1445.23 603.844 1446.86 603.924 1448.36 604.457C1449.85 604.989 1451.16 605.95 1452.11 607.218C1453.06 608.486 1453.6 610.003 1453.68 611.579C1453.78 613.691 1453.03 615.758 1451.6 617.324C1450.17 618.89 1448.16 619.827 1446.03 619.93Z" fill="url(#paint31_radial_1777_473)"/>
<path fill-rule="evenodd" clip-rule="evenodd" d="M836.861 279.455C836.708 279.494 836.548 279.498 836.392 279.469C836.237 279.439 836.09 279.375 835.962 279.283C835.835 279.19 835.729 279.071 835.653 278.934C835.577 278.796 835.533 278.643 835.523 278.487C835.514 278.33 835.539 278.174 835.598 278.028C835.657 277.883 835.747 277.752 835.863 277.645C835.979 277.538 836.117 277.457 836.268 277.409C836.418 277.361 836.578 277.347 836.735 277.367C836.876 277.359 837.018 277.378 837.151 277.424C837.285 277.47 837.408 277.541 837.514 277.634C837.62 277.727 837.706 277.84 837.768 277.966C837.829 278.093 837.865 278.229 837.873 278.369C837.879 278.507 837.857 278.643 837.809 278.772C837.762 278.901 837.689 279.019 837.595 279.12C837.501 279.221 837.388 279.302 837.262 279.36C837.136 279.417 837 279.45 836.861 279.455Z" fill="white"/>
<path style="mix-blend-mode:screen" opacity="0.61" fill-rule="evenodd" clip-rule="evenodd" d="M837.01 282.649C836.191 282.647 835.389 282.408 834.704 281.962C834.02 281.515 833.481 280.881 833.155 280.136C832.829 279.391 832.729 278.568 832.867 277.768C833.006 276.967 833.377 276.224 833.936 275.63C834.494 275.035 835.215 274.615 836.011 274.42C836.807 274.225 837.643 274.265 838.416 274.533C839.19 274.802 839.868 275.288 840.367 275.932C840.866 276.577 841.164 277.351 841.226 278.161C841.269 278.735 841.193 279.312 841 279.855C840.808 280.398 840.505 280.896 840.109 281.318C839.713 281.739 839.233 282.075 838.7 282.304C838.167 282.534 837.592 282.651 837.01 282.649Z" fill="url(#paint32_radial_1777_473)"/>
<path style="mix-blend-mode:screen" opacity="0.61" fill-rule="evenodd" clip-rule="evenodd" d="M836.905 280.374C836.482 280.411 836.057 280.322 835.687 280.117C835.316 279.912 835.017 279.6 834.828 279.224C834.639 278.847 834.569 278.423 834.628 278.006C834.686 277.59 834.87 277.2 835.156 276.889C835.442 276.578 835.816 276.36 836.229 276.263C836.642 276.166 837.075 276.195 837.472 276.346C837.868 276.497 838.209 276.763 838.45 277.109C838.691 277.455 838.821 277.865 838.823 278.286C838.825 278.808 838.629 279.313 838.274 279.699C837.919 280.086 837.43 280.327 836.905 280.374Z" fill="url(#paint33_radial_1777_473)"/>
<path fill-rule="evenodd" clip-rule="evenodd" d="M872.611 189.054C872.391 189.062 872.174 189.006 871.986 188.892C871.799 188.778 871.649 188.612 871.557 188.414C871.464 188.216 871.433 187.996 871.466 187.781C871.499 187.565 871.596 187.365 871.744 187.204C871.892 187.042 872.085 186.928 872.299 186.875C872.512 186.822 872.736 186.833 872.944 186.906C873.151 186.978 873.332 187.11 873.464 187.284C873.596 187.459 873.673 187.668 873.686 187.885C873.694 188.032 873.673 188.179 873.623 188.318C873.573 188.457 873.496 188.585 873.396 188.694C873.296 188.802 873.175 188.89 873.04 188.952C872.905 189.014 872.759 189.049 872.611 189.054Z" fill="white"/>
<path style="mix-blend-mode:screen" opacity="0.61" fill-rule="evenodd" clip-rule="evenodd" d="M872.778 192.416C871.885 192.472 870.996 192.265 870.223 191.82C869.45 191.375 868.828 190.713 868.436 189.917C868.043 189.121 867.899 188.228 868.02 187.35C868.142 186.473 868.524 185.651 869.118 184.989C869.712 184.327 870.491 183.855 871.357 183.632C872.222 183.41 873.135 183.447 873.979 183.74C874.823 184.032 875.56 184.567 876.097 185.275C876.633 185.984 876.946 186.834 876.993 187.718C877.051 188.892 876.642 190.041 875.854 190.92C875.066 191.798 873.961 192.335 872.778 192.416Z" fill="url(#paint34_radial_1777_473)"/>
<path style="mix-blend-mode:screen" opacity="0.61" fill-rule="evenodd" clip-rule="evenodd" d="M872.653 190.036C872.236 190.036 871.828 189.913 871.482 189.684C871.135 189.454 870.865 189.128 870.705 188.747C870.546 188.365 870.504 187.946 870.585 187.541C870.667 187.136 870.867 186.764 871.162 186.472C871.457 186.18 871.833 185.981 872.241 185.9C872.65 185.82 873.074 185.861 873.459 186.019C873.844 186.177 874.174 186.445 874.405 186.788C874.637 187.131 874.76 187.535 874.76 187.948C874.76 188.502 874.538 189.033 874.143 189.424C873.748 189.816 873.212 190.036 872.653 190.036Z" fill="url(#paint35_radial_1777_473)"/>
<path fill-rule="evenodd" clip-rule="evenodd" d="M772.933 832.883C772.529 832.9 772.134 832.758 771.834 832.489C771.534 832.219 771.353 831.843 771.332 831.442C771.314 831.039 771.457 830.646 771.728 830.345C772 830.045 772.38 829.862 772.786 829.835C772.988 829.826 773.19 829.858 773.38 829.927C773.57 829.995 773.744 830.101 773.893 830.237C774.042 830.372 774.162 830.536 774.247 830.718C774.332 830.899 774.38 831.096 774.388 831.296C774.399 831.495 774.37 831.695 774.303 831.883C774.236 832.071 774.132 832.244 773.996 832.391C773.861 832.539 773.697 832.659 773.515 832.743C773.332 832.827 773.135 832.875 772.933 832.883Z" fill="white"/>
<path style="mix-blend-mode:screen" opacity="0.61" fill-rule="evenodd" clip-rule="evenodd" d="M773.165 837.476C771.945 837.533 770.736 837.23 769.69 836.606C768.645 835.982 767.809 835.065 767.289 833.971C766.769 832.876 766.588 831.654 766.769 830.458C766.951 829.262 767.485 828.146 768.307 827.252C769.128 826.357 770.198 825.723 771.383 825.43C772.567 825.138 773.813 825.199 774.962 825.608C776.111 826.016 777.112 826.752 777.839 827.724C778.566 828.696 778.986 829.859 779.045 831.067C779.085 831.87 778.964 832.674 778.69 833.431C778.416 834.188 777.994 834.884 777.447 835.48C776.901 836.075 776.242 836.558 775.507 836.901C774.772 837.243 773.976 837.439 773.165 837.476Z" fill="url(#paint36_radial_1777_473)"/>
<path style="mix-blend-mode:screen" opacity="0.61" fill-rule="evenodd" clip-rule="evenodd" d="M773.017 834.219C772.618 834.285 772.21 834.268 771.818 834.168C771.427 834.068 771.061 833.887 770.744 833.638C770.427 833.389 770.167 833.077 769.98 832.722C769.793 832.366 769.683 831.976 769.658 831.577C769.633 831.177 769.693 830.776 769.834 830.401C769.975 830.025 770.194 829.683 770.477 829.397C770.759 829.111 771.1 828.887 771.476 828.739C771.852 828.592 772.255 828.524 772.659 828.54C773.038 828.521 773.417 828.576 773.775 828.702C774.133 828.828 774.462 829.023 774.744 829.275C775.026 829.527 775.255 829.831 775.418 830.171C775.581 830.511 775.675 830.879 775.694 831.254C775.713 831.63 775.658 832.006 775.531 832.36C775.403 832.714 775.207 833.041 774.953 833.32C774.698 833.599 774.391 833.826 774.048 833.987C773.705 834.149 773.333 834.242 772.954 834.261L773.017 834.219Z" fill="url(#paint37_radial_1777_473)"/>
<path fill-rule="evenodd" clip-rule="evenodd" d="M1149 805.763C1148.6 805.78 1148.2 805.639 1147.89 805.37C1147.59 805.101 1147.41 804.725 1147.38 804.322C1147.36 804.022 1147.44 803.723 1147.59 803.464C1147.75 803.205 1147.98 802.997 1148.25 802.867C1148.53 802.737 1148.83 802.69 1149.13 802.733C1149.43 802.775 1149.72 802.905 1149.94 803.106C1150.17 803.307 1150.33 803.57 1150.41 803.862C1150.48 804.154 1150.47 804.461 1150.37 804.746C1150.27 805.03 1150.08 805.278 1149.84 805.459C1149.6 805.64 1149.31 805.746 1149 805.763Z" fill="white"/>
<path style="mix-blend-mode:screen" opacity="0.61" fill-rule="evenodd" clip-rule="evenodd" d="M1149.23 810.377C1148.01 810.437 1146.8 810.138 1145.76 809.518C1144.71 808.897 1143.87 807.983 1143.35 806.891C1142.82 805.798 1142.64 804.577 1142.82 803.381C1142.99 802.184 1143.52 801.067 1144.34 800.169C1145.16 799.271 1146.23 798.634 1147.41 798.337C1148.59 798.041 1149.84 798.098 1150.99 798.502C1152.14 798.907 1153.14 799.64 1153.88 800.609C1154.61 801.578 1155.03 802.739 1155.09 803.947C1155.17 805.568 1154.6 807.155 1153.5 808.36C1152.41 809.566 1150.87 810.291 1149.23 810.377Z" fill="url(#paint38_radial_1777_473)"/>
<path style="mix-blend-mode:screen" opacity="0.61" fill-rule="evenodd" clip-rule="evenodd" d="M1149.07 807.099C1148.49 807.128 1147.93 806.987 1147.44 806.696C1146.95 806.405 1146.55 805.977 1146.31 805.465C1146.07 804.953 1145.98 804.381 1146.06 803.82C1146.15 803.26 1146.4 802.738 1146.78 802.319C1147.17 801.9 1147.67 801.603 1148.23 801.467C1148.78 801.33 1149.36 801.36 1149.9 801.552C1150.44 801.744 1150.91 802.091 1151.25 802.547C1151.59 803.003 1151.78 803.548 1151.81 804.114C1151.83 804.488 1151.77 804.863 1151.64 805.217C1151.52 805.57 1151.32 805.895 1151.06 806.172C1150.81 806.45 1150.5 806.675 1150.16 806.834C1149.82 806.993 1149.44 807.083 1149.07 807.099Z" fill="url(#paint39_radial_1777_473)"/>
<path fill-rule="evenodd" clip-rule="evenodd" d="M1104.97 151.12C1104.75 151.098 1104.55 151.013 1104.38 150.875C1104.22 150.738 1104.09 150.555 1104.03 150.348C1103.97 150.142 1103.97 149.922 1104.04 149.717C1104.1 149.512 1104.23 149.33 1104.39 149.195C1104.56 149.06 1104.77 148.978 1104.99 148.958C1105.2 148.939 1105.42 148.984 1105.61 149.088C1105.8 149.191 1105.95 149.348 1106.05 149.539C1106.15 149.73 1106.2 149.946 1106.17 150.159C1106.14 150.444 1106 150.705 1105.77 150.885C1105.55 151.064 1105.26 151.149 1104.97 151.12Z" fill="white"/>
<path style="mix-blend-mode:screen" opacity="0.61" fill-rule="evenodd" clip-rule="evenodd" d="M1104.59 154.376C1103.72 154.28 1102.91 153.931 1102.24 153.374C1101.57 152.817 1101.09 152.077 1100.85 151.248C1100.61 150.418 1100.62 149.536 1100.89 148.714C1101.15 147.891 1101.66 147.165 1102.34 146.627C1103.02 146.089 1103.85 145.764 1104.72 145.692C1105.58 145.62 1106.46 145.805 1107.22 146.223C1107.98 146.642 1108.6 147.275 1109 148.042C1109.4 148.81 1109.56 149.677 1109.46 150.535C1109.33 151.683 1108.74 152.733 1107.83 153.453C1106.91 154.173 1105.75 154.505 1104.59 154.376Z" fill="url(#paint40_radial_1777_473)"/>
<path style="mix-blend-mode:screen" opacity="0.61" fill-rule="evenodd" clip-rule="evenodd" d="M1104.87 152.101C1104.33 152.028 1103.85 151.756 1103.51 151.341C1103.17 150.925 1103.01 150.398 1103.05 149.867C1103.09 149.45 1103.25 149.053 1103.51 148.727C1103.77 148.401 1104.13 148.16 1104.53 148.037C1104.94 147.914 1105.37 147.914 1105.77 148.037C1106.18 148.159 1106.53 148.399 1106.8 148.725C1107.06 149.051 1107.22 149.448 1107.26 149.864C1107.29 150.281 1107.2 150.698 1106.99 151.062C1106.78 151.426 1106.47 151.719 1106.09 151.904C1105.71 152.09 1105.28 152.158 1104.87 152.101Z" fill="url(#paint41_radial_1777_473)"/>
<defs>
<linearGradient id="paint0_linear_1777_473" x1="716.236" y1="1572.01" x2="721.634" y2="-738.47" gradientUnits="userSpaceOnUse">
<stop offset="0.185634" stop-color="#F7EA2F"/>
<stop offset="0.26" stop-color="#FBD9AB"/>
<stop offset="0.29" stop-color="#FCD4D1"/>
<stop offset="0.35" stop-color="#F0C9CF"/>
<stop offset="0.45" stop-color="#CEADC8"/>
<stop offset="0.56" stop-color="#A58AC0"/>
<stop offset="0.67" stop-color="#7F77B6"/>
</linearGradient>
<radialGradient id="paint1_radial_1777_473" cx="0" cy="0" r="1" gradientUnits="userSpaceOnUse" gradientTransform="translate(596.422 180.019) rotate(65.5409) scale(6.63726 6.67914)">
<stop stop-color="#F47E20"/>
<stop offset="0.1" stop-color="#CF6B1B"/>
<stop offset="0.29" stop-color="#914B13"/>
<stop offset="0.46" stop-color="#5D300C"/>
<stop offset="0.63" stop-color="#351B07"/>
<stop offset="0.78" stop-color="#180C03"/>
<stop offset="0.91" stop-color="#060301"/>
<stop offset="1"/>
</radialGradient>
<radialGradient id="paint2_radial_1777_473" cx="0" cy="0" r="1" gradientUnits="userSpaceOnUse" gradientTransform="translate(596.423 180.019) rotate(65.541) scale(3.08904 3.10851)">
<stop stop-color="#F47E20"/>
<stop offset="0.1" stop-color="#CF6B1B"/>
<stop offset="0.29" stop-color="#914B13"/>
<stop offset="0.46" stop-color="#5D300C"/>
<stop offset="0.63" stop-color="#351B07"/>
<stop offset="0.78" stop-color="#180C03"/>
<stop offset="0.91" stop-color="#060301"/>
<stop offset="1"/>
</radialGradient>
<radialGradient id="paint3_radial_1777_473" cx="0" cy="0" r="1" gradientUnits="userSpaceOnUse" gradientTransform="translate(853.846 677.572) rotate(65.5409) scale(12.5231 12.6021)">
<stop stop-color="#F47E20"/>
<stop offset="0.1" stop-color="#CF6B1B"/>
<stop offset="0.29" stop-color="#914B13"/>
<stop offset="0.46" stop-color="#5D300C"/>
<stop offset="0.63" stop-color="#351B07"/>
<stop offset="0.78" stop-color="#180C03"/>
<stop offset="0.91" stop-color="#060301"/>
<stop offset="1"/>
</radialGradient>
<radialGradient id="paint4_radial_1777_473" cx="0" cy="0" r="1" gradientUnits="userSpaceOnUse" gradientTransform="translate(853.846 677.571) rotate(65.5409) scale(5.84411 5.88097)">
<stop stop-color="#F47E20"/>
<stop offset="0.1" stop-color="#CF6B1B"/>
<stop offset="0.29" stop-color="#914B13"/>
<stop offset="0.46" stop-color="#5D300C"/>
<stop offset="0.63" stop-color="#351B07"/>
<stop offset="0.78" stop-color="#180C03"/>
<stop offset="0.91" stop-color="#060301"/>
<stop offset="1"/>
</radialGradient>
<radialGradient id="paint5_radial_1777_473" cx="0" cy="0" r="1" gradientUnits="userSpaceOnUse" gradientTransform="translate(175.843 155.204) rotate(65.5409) scale(12.5231 12.6021)">
<stop stop-color="#F47E20"/>
<stop offset="0.1" stop-color="#CF6B1B"/>
<stop offset="0.29" stop-color="#914B13"/>
<stop offset="0.46" stop-color="#5D300C"/>
<stop offset="0.63" stop-color="#351B07"/>
<stop offset="0.78" stop-color="#180C03"/>
<stop offset="0.91" stop-color="#060301"/>
<stop offset="1"/>
</radialGradient>
<radialGradient id="paint6_radial_1777_473" cx="0" cy="0" r="1" gradientUnits="userSpaceOnUse" gradientTransform="translate(175.843 155.204) rotate(65.5409) scale(5.84412 5.88099)">
<stop stop-color="#F47E20"/>
<stop offset="0.1" stop-color="#CF6B1B"/>
<stop offset="0.29" stop-color="#914B13"/>
<stop offset="0.46" stop-color="#5D300C"/>
<stop offset="0.63" stop-color="#351B07"/>
<stop offset="0.78" stop-color="#180C03"/>
<stop offset="0.91" stop-color="#060301"/>
<stop offset="1"/>
</radialGradient>
<radialGradient id="paint7_radial_1777_473" cx="0" cy="0" r="1" gradientUnits="userSpaceOnUse" gradientTransform="translate(389.027 604.299) rotate(65.5409) scale(12.5231 12.6021)">
<stop stop-color="#F47E20"/>
<stop offset="0.1" stop-color="#CF6B1B"/>
<stop offset="0.29" stop-color="#914B13"/>
<stop offset="0.46" stop-color="#5D300C"/>
<stop offset="0.63" stop-color="#351B07"/>
<stop offset="0.78" stop-color="#180C03"/>
<stop offset="0.91" stop-color="#060301"/>
<stop offset="1"/>
</radialGradient>
<radialGradient id="paint8_radial_1777_473" cx="0" cy="0" r="1" gradientUnits="userSpaceOnUse" gradientTransform="translate(389.027 604.299) rotate(65.5409) scale(5.84413 5.881)">
<stop stop-color="#F47E20"/>
<stop offset="0.1" stop-color="#CF6B1B"/>
<stop offset="0.29" stop-color="#914B13"/>
<stop offset="0.46" stop-color="#5D300C"/>
<stop offset="0.63" stop-color="#351B07"/>
<stop offset="0.78" stop-color="#180C03"/>
<stop offset="0.91" stop-color="#060301"/>
<stop offset="1"/>
</radialGradient>
<radialGradient id="paint9_radial_1777_473" cx="0" cy="0" r="1" gradientUnits="userSpaceOnUse" gradientTransform="translate(346.842 751.298) rotate(65.5409) scale(12.5231 12.6021)">
<stop stop-color="#F47E20"/>
<stop offset="0.1" stop-color="#CF6B1B"/>
<stop offset="0.29" stop-color="#914B13"/>
<stop offset="0.46" stop-color="#5D300C"/>
<stop offset="0.63" stop-color="#351B07"/>
<stop offset="0.78" stop-color="#180C03"/>
<stop offset="0.91" stop-color="#060301"/>
<stop offset="1"/>
</radialGradient>
<radialGradient id="paint10_radial_1777_473" cx="0" cy="0" r="1" gradientUnits="userSpaceOnUse" gradientTransform="translate(346.842 751.298) rotate(65.5409) scale(5.84413 5.88099)">
<stop stop-color="#F47E20"/>
<stop offset="0.1" stop-color="#CF6B1B"/>
<stop offset="0.29" stop-color="#914B13"/>
<stop offset="0.46" stop-color="#5D300C"/>
<stop offset="0.63" stop-color="#351B07"/>
<stop offset="0.78" stop-color="#180C03"/>
<stop offset="0.91" stop-color="#060301"/>
<stop offset="1"/>
</radialGradient>
<radialGradient id="paint11_radial_1777_473" cx="0" cy="0" r="1" gradientUnits="userSpaceOnUse" gradientTransform="translate(6.449 610.475) rotate(65.5409) scale(6.01111 6.04903)">
<stop stop-color="#F47E20"/>
<stop offset="0.1" stop-color="#CF6B1B"/>
<stop offset="0.29" stop-color="#914B13"/>
<stop offset="0.46" stop-color="#5D300C"/>
<stop offset="0.63" stop-color="#351B07"/>
<stop offset="0.78" stop-color="#180C03"/>
<stop offset="0.91" stop-color="#060301"/>
<stop offset="1"/>
</radialGradient>
<radialGradient id="paint12_radial_1777_473" cx="0" cy="0" r="1" gradientUnits="userSpaceOnUse" gradientTransform="translate(6.44803 610.475) rotate(65.541) scale(2.79684 2.81448)">
<stop stop-color="#F47E20"/>
<stop offset="0.1" stop-color="#CF6B1B"/>
<stop offset="0.29" stop-color="#914B13"/>
<stop offset="0.46" stop-color="#5D300C"/>
<stop offset="0.63" stop-color="#351B07"/>
<stop offset="0.78" stop-color="#180C03"/>
<stop offset="0.91" stop-color="#060301"/>
<stop offset="1"/>
</radialGradient>
<radialGradient id="paint13_radial_1777_473" cx="0" cy="0" r="1" gradientUnits="userSpaceOnUse" gradientTransform="translate(52.2261 441.646) rotate(65.5409) scale(5.96936 6.00702)">
<stop stop-color="#F47E20"/>
<stop offset="0.1" stop-color="#CF6B1B"/>
<stop offset="0.29" stop-color="#914B13"/>
<stop offset="0.46" stop-color="#5D300C"/>
<stop offset="0.63" stop-color="#351B07"/>
<stop offset="0.78" stop-color="#180C03"/>
<stop offset="0.91" stop-color="#060301"/>
<stop offset="1"/>
</radialGradient>
<radialGradient id="paint14_radial_1777_473" cx="0" cy="0" r="1" gradientUnits="userSpaceOnUse" gradientTransform="translate(52.2259 441.646) rotate(65.541) scale(2.77596 2.79347)">
<stop stop-color="#F47E20"/>
<stop offset="0.1" stop-color="#CF6B1B"/>
<stop offset="0.29" stop-color="#914B13"/>
<stop offset="0.46" stop-color="#5D300C"/>
<stop offset="0.63" stop-color="#351B07"/>
<stop offset="0.78" stop-color="#180C03"/>
<stop offset="0.91" stop-color="#060301"/>
<stop offset="1"/>
</radialGradient>
<radialGradient id="paint15_radial_1777_473" cx="0" cy="0" r="1" gradientUnits="userSpaceOnUse" gradientTransform="translate(196.489 608.904) rotate(65.5409) scale(8.14002 8.19139)">
<stop stop-color="#F47E20"/>
<stop offset="0.1" stop-color="#CF6B1B"/>
<stop offset="0.29" stop-color="#914B13"/>
<stop offset="0.46" stop-color="#5D300C"/>
<stop offset="0.63" stop-color="#351B07"/>
<stop offset="0.78" stop-color="#180C03"/>
<stop offset="0.91" stop-color="#060301"/>
<stop offset="1"/>
</radialGradient>
<radialGradient id="paint16_radial_1777_473" cx="0" cy="0" r="1" gradientUnits="userSpaceOnUse" gradientTransform="translate(196.489 608.904) rotate(65.5409) scale(3.79868 3.82264)">
<stop stop-color="#F47E20"/>
<stop offset="0.1" stop-color="#CF6B1B"/>
<stop offset="0.29" stop-color="#914B13"/>
<stop offset="0.46" stop-color="#5D300C"/>
<stop offset="0.63" stop-color="#351B07"/>
<stop offset="0.78" stop-color="#180C03"/>
<stop offset="0.91" stop-color="#060301"/>
<stop offset="1"/>
</radialGradient>
<radialGradient id="paint17_radial_1777_473" cx="0" cy="0" r="1" gradientUnits="userSpaceOnUse" gradientTransform="translate(76.3013 282.684) rotate(65.5409) scale(8.14003 8.19139)">
<stop stop-color="#F47E20"/>
<stop offset="0.1" stop-color="#CF6B1B"/>
<stop offset="0.29" stop-color="#914B13"/>
<stop offset="0.46" stop-color="#5D300C"/>
<stop offset="0.63" stop-color="#351B07"/>
<stop offset="0.78" stop-color="#180C03"/>
<stop offset="0.91" stop-color="#060301"/>
<stop offset="1"/>
</radialGradient>
<radialGradient id="paint18_radial_1777_473" cx="0" cy="0" r="1" gradientUnits="userSpaceOnUse" gradientTransform="translate(76.3015 282.684) rotate(65.5409) scale(3.79869 3.82265)">
<stop stop-color="#F47E20"/>
<stop offset="0.1" stop-color="#CF6B1B"/>
<stop offset="0.29" stop-color="#914B13"/>
<stop offset="0.46" stop-color="#5D300C"/>
<stop offset="0.63" stop-color="#351B07"/>
<stop offset="0.78" stop-color="#180C03"/>
<stop offset="0.91" stop-color="#060301"/>
<stop offset="1"/>
</radialGradient>
<radialGradient id="paint19_radial_1777_473" cx="0" cy="0" r="1" gradientUnits="userSpaceOnUse" gradientTransform="translate(416.682 199.62) rotate(65.5409) scale(5.21798 5.2509)">
<stop stop-color="#F47E20"/>
<stop offset="0.1" stop-color="#CF6B1B"/>
<stop offset="0.29" stop-color="#914B13"/>
<stop offset="0.46" stop-color="#5D300C"/>
<stop offset="0.63" stop-color="#351B07"/>
<stop offset="0.78" stop-color="#180C03"/>
<stop offset="0.91" stop-color="#060301"/>
<stop offset="1"/>
</radialGradient>
<radialGradient id="paint20_radial_1777_473" cx="0" cy="0" r="1" gradientUnits="userSpaceOnUse" gradientTransform="translate(416.684 199.62) rotate(65.541) scale(2.44201 2.45741)">
<stop stop-color="#F47E20"/>
<stop offset="0.1" stop-color="#CF6B1B"/>
<stop offset="0.29" stop-color="#914B13"/>
<stop offset="0.46" stop-color="#5D300C"/>
<stop offset="0.63" stop-color="#351B07"/>
<stop offset="0.78" stop-color="#180C03"/>
<stop offset="0.91" stop-color="#060301"/>
<stop offset="1"/>
</radialGradient>
<radialGradient id="paint21_radial_1777_473" cx="0" cy="0" r="1" gradientUnits="userSpaceOnUse" gradientTransform="translate(217.746 414.613) rotate(56.2177) scale(5.79596 5.8173)">
<stop stop-color="#F47E20"/>
<stop offset="0.1" stop-color="#CF6B1B"/>
<stop offset="0.29" stop-color="#914B13"/>
<stop offset="0.46" stop-color="#5D300C"/>
<stop offset="0.63" stop-color="#351B07"/>
<stop offset="0.78" stop-color="#180C03"/>
<stop offset="0.91" stop-color="#060301"/>
<stop offset="1"/>
</radialGradient>
<radialGradient id="paint22_radial_1777_473" cx="0" cy="0" r="1" gradientUnits="userSpaceOnUse" gradientTransform="translate(217.745 414.613) rotate(56.2177) scale(2.71034 2.72032)">
<stop stop-color="#F47E20"/>
<stop offset="0.1" stop-color="#CF6B1B"/>
<stop offset="0.29" stop-color="#914B13"/>
<stop offset="0.46" stop-color="#5D300C"/>
<stop offset="0.63" stop-color="#351B07"/>
<stop offset="0.78" stop-color="#180C03"/>
<stop offset="0.91" stop-color="#060301"/>
<stop offset="1"/>
</radialGradient>
<radialGradient id="paint23_radial_1777_473" cx="0" cy="0" r="1" gradientUnits="userSpaceOnUse" gradientTransform="translate(1432.15 173.43) rotate(-92.8898) scale(4.99614 5.04379)">
<stop stop-color="#F47E20"/>
<stop offset="0.1" stop-color="#CF6B1B"/>
<stop offset="0.29" stop-color="#914B13"/>
<stop offset="0.46" stop-color="#5D300C"/>
<stop offset="0.63" stop-color="#351B07"/>
<stop offset="0.78" stop-color="#180C03"/>
<stop offset="0.91" stop-color="#060301"/>
<stop offset="1"/>
</radialGradient>
<radialGradient id="paint24_radial_1777_473" cx="0" cy="0" r="1" gradientUnits="userSpaceOnUse" gradientTransform="translate(1432.15 173.429) rotate(-92.8897) scale(2.34129 2.36358)">
<stop stop-color="#F47E20"/>
<stop offset="0.1" stop-color="#CF6B1B"/>
<stop offset="0.29" stop-color="#914B13"/>
<stop offset="0.46" stop-color="#5D300C"/>
<stop offset="0.63" stop-color="#351B07"/>
<stop offset="0.78" stop-color="#180C03"/>
<stop offset="0.91" stop-color="#060301"/>
<stop offset="1"/>
</radialGradient>
<radialGradient id="paint25_radial_1777_473" cx="0" cy="0" r="1" gradientUnits="userSpaceOnUse" gradientTransform="translate(490.099 791.452) rotate(-92.8898) scale(9.42787 9.5177)">
<stop stop-color="#F47E20"/>
<stop offset="0.1" stop-color="#CF6B1B"/>
<stop offset="0.29" stop-color="#914B13"/>
<stop offset="0.46" stop-color="#5D300C"/>
<stop offset="0.63" stop-color="#351B07"/>
<stop offset="0.78" stop-color="#180C03"/>
<stop offset="0.91" stop-color="#060301"/>
<stop offset="1"/>
</radialGradient>
<radialGradient id="paint26_radial_1777_473" cx="0" cy="0" r="1" gradientUnits="userSpaceOnUse" gradientTransform="translate(490.097 791.452) rotate(-92.8898) scale(4.38991 4.43175)">
<stop stop-color="#F47E20"/>
<stop offset="0.1" stop-color="#CF6B1B"/>
<stop offset="0.29" stop-color="#914B13"/>
<stop offset="0.46" stop-color="#5D300C"/>
<stop offset="0.63" stop-color="#351B07"/>
<stop offset="0.78" stop-color="#180C03"/>
<stop offset="0.91" stop-color="#060301"/>
<stop offset="1"/>
</radialGradient>
<radialGradient id="paint27_radial_1777_473" cx="0" cy="0" r="1" gradientUnits="userSpaceOnUse" gradientTransform="translate(1341.27 288.671) rotate(-92.8898) scale(15.6365 15.7854)">
<stop stop-color="#F47E20"/>
<stop offset="0.1" stop-color="#CF6B1B"/>
<stop offset="0.29" stop-color="#914B13"/>
<stop offset="0.46" stop-color="#5D300C"/>
<stop offset="0.63" stop-color="#351B07"/>
<stop offset="0.78" stop-color="#180C03"/>
<stop offset="0.91" stop-color="#060301"/>
<stop offset="1"/>
</radialGradient>
<radialGradient id="paint28_radial_1777_473" cx="0" cy="0" r="1" gradientUnits="userSpaceOnUse" gradientTransform="translate(1341.27 288.671) rotate(-92.8898) scale(7.29563 7.36511)">
<stop stop-color="#F47E20"/>
<stop offset="0.1" stop-color="#CF6B1B"/>
<stop offset="0.29" stop-color="#914B13"/>
<stop offset="0.46" stop-color="#5D300C"/>
<stop offset="0.63" stop-color="#351B07"/>
<stop offset="0.78" stop-color="#180C03"/>
<stop offset="0.91" stop-color="#060301"/>
<stop offset="1"/>
</radialGradient>
<radialGradient id="paint29_radial_1777_473" cx="0" cy="0" r="1" gradientUnits="userSpaceOnUse" gradientTransform="translate(422.779 540.362) rotate(-92.8898) scale(6.22948 6.28885)">
<stop stop-color="#F47E20"/>
<stop offset="0.1" stop-color="#CF6B1B"/>
<stop offset="0.29" stop-color="#914B13"/>
<stop offset="0.46" stop-color="#5D300C"/>
<stop offset="0.63" stop-color="#351B07"/>
<stop offset="0.78" stop-color="#180C03"/>
<stop offset="0.91" stop-color="#060301"/>
<stop offset="1"/>
</radialGradient>
<radialGradient id="paint30_radial_1777_473" cx="0" cy="0" r="1" gradientUnits="userSpaceOnUse" gradientTransform="translate(422.78 540.362) rotate(-92.8898) scale(2.90572 2.93339)">
<stop stop-color="#F47E20"/>
<stop offset="0.1" stop-color="#CF6B1B"/>
<stop offset="0.29" stop-color="#914B13"/>
<stop offset="0.46" stop-color="#5D300C"/>
<stop offset="0.63" stop-color="#351B07"/>
<stop offset="0.78" stop-color="#180C03"/>
<stop offset="0.91" stop-color="#060301"/>
<stop offset="1"/>
</radialGradient>
<radialGradient id="paint31_radial_1777_473" cx="0" cy="0" r="1" gradientUnits="userSpaceOnUse" gradientTransform="translate(1445.23 613.002) rotate(-92.8898) scale(7.98545 8.0615)">
<stop stop-color="#F47E20"/>
<stop offset="0.1" stop-color="#CF6B1B"/>
<stop offset="0.29" stop-color="#914B13"/>
<stop offset="0.46" stop-color="#5D300C"/>
<stop offset="0.63" stop-color="#351B07"/>
<stop offset="0.78" stop-color="#180C03"/>
<stop offset="0.91" stop-color="#060301"/>
<stop offset="1"/>
</radialGradient>
<radialGradient id="paint32_radial_1777_473" cx="0" cy="0" r="1" gradientUnits="userSpaceOnUse" gradientTransform="translate(835.681 278.987) rotate(-92.8898) scale(4.28539 4.32622)">
<stop stop-color="#F47E20"/>
<stop offset="0.1" stop-color="#CF6B1B"/>
<stop offset="0.29" stop-color="#914B13"/>
<stop offset="0.46" stop-color="#5D300C"/>
<stop offset="0.63" stop-color="#351B07"/>
<stop offset="0.78" stop-color="#180C03"/>
<stop offset="0.91" stop-color="#060301"/>
<stop offset="1"/>
</radialGradient>
<radialGradient id="paint33_radial_1777_473" cx="0" cy="0" r="1" gradientUnits="userSpaceOnUse" gradientTransform="translate(835.681 278.987) rotate(-92.8898) scale(2.00682 2.02594)">
<stop stop-color="#F47E20"/>
<stop offset="0.1" stop-color="#CF6B1B"/>
<stop offset="0.29" stop-color="#914B13"/>
<stop offset="0.46" stop-color="#5D300C"/>
<stop offset="0.63" stop-color="#351B07"/>
<stop offset="0.78" stop-color="#180C03"/>
<stop offset="0.91" stop-color="#060301"/>
<stop offset="1"/>
</radialGradient>
<radialGradient id="paint34_radial_1777_473" cx="0" cy="0" r="1" gradientUnits="userSpaceOnUse" gradientTransform="translate(871.49 188.45) rotate(-92.8898) scale(4.49443 4.53727)">
<stop stop-color="#F47E20"/>
<stop offset="0.1" stop-color="#CF6B1B"/>
<stop offset="0.29" stop-color="#914B13"/>
<stop offset="0.46" stop-color="#5D300C"/>
<stop offset="0.63" stop-color="#351B07"/>
<stop offset="0.78" stop-color="#180C03"/>
<stop offset="0.91" stop-color="#060301"/>
<stop offset="1"/>
</radialGradient>
<radialGradient id="paint35_radial_1777_473" cx="0" cy="0" r="1" gradientUnits="userSpaceOnUse" gradientTransform="translate(871.491 188.45) rotate(-92.8898) scale(2.09043 2.11035)">
<stop stop-color="#F47E20"/>
<stop offset="0.1" stop-color="#CF6B1B"/>
<stop offset="0.29" stop-color="#914B13"/>
<stop offset="0.46" stop-color="#5D300C"/>
<stop offset="0.63" stop-color="#351B07"/>
<stop offset="0.78" stop-color="#180C03"/>
<stop offset="0.91" stop-color="#060301"/>
<stop offset="1"/>
</radialGradient>
<radialGradient id="paint36_radial_1777_473" cx="0" cy="0" r="1" gradientUnits="userSpaceOnUse" gradientTransform="translate(771.646 832.617) rotate(-92.8898) scale(6.12497 6.18335)">
<stop stop-color="#F47E20"/>
<stop offset="0.1" stop-color="#CF6B1B"/>
<stop offset="0.29" stop-color="#914B13"/>
<stop offset="0.46" stop-color="#5D300C"/>
<stop offset="0.63" stop-color="#351B07"/>
<stop offset="0.78" stop-color="#180C03"/>
<stop offset="0.91" stop-color="#060301"/>
<stop offset="1"/>
</radialGradient>
<radialGradient id="paint37_radial_1777_473" cx="0" cy="0" r="1" gradientUnits="userSpaceOnUse" gradientTransform="translate(771.646 832.617) rotate(-92.8898) scale(2.86389 2.89118)">
<stop stop-color="#F47E20"/>
<stop offset="0.1" stop-color="#CF6B1B"/>
<stop offset="0.29" stop-color="#914B13"/>
<stop offset="0.46" stop-color="#5D300C"/>
<stop offset="0.63" stop-color="#351B07"/>
<stop offset="0.78" stop-color="#180C03"/>
<stop offset="0.91" stop-color="#060301"/>
<stop offset="1"/>
</radialGradient>
<radialGradient id="paint38_radial_1777_473" cx="0" cy="0" r="1" gradientUnits="userSpaceOnUse" gradientTransform="translate(1148.15 805.494) rotate(-92.8898) scale(6.12497 6.18335)">
<stop stop-color="#F47E20"/>
<stop offset="0.1" stop-color="#CF6B1B"/>
<stop offset="0.29" stop-color="#914B13"/>
<stop offset="0.46" stop-color="#5D300C"/>
<stop offset="0.63" stop-color="#351B07"/>
<stop offset="0.78" stop-color="#180C03"/>
<stop offset="0.91" stop-color="#060301"/>
<stop offset="1"/>
</radialGradient>
<radialGradient id="paint39_radial_1777_473" cx="0" cy="0" r="1" gradientUnits="userSpaceOnUse" gradientTransform="translate(1148.15 805.494) rotate(-92.8898) scale(2.8639 2.89121)">
<stop stop-color="#F47E20"/>
<stop offset="0.1" stop-color="#CF6B1B"/>
<stop offset="0.29" stop-color="#914B13"/>
<stop offset="0.46" stop-color="#5D300C"/>
<stop offset="0.63" stop-color="#351B07"/>
<stop offset="0.78" stop-color="#180C03"/>
<stop offset="0.91" stop-color="#060301"/>
<stop offset="1"/>
</radialGradient>
<radialGradient id="paint40_radial_1777_473" cx="0" cy="0" r="1" gradientUnits="userSpaceOnUse" gradientTransform="translate(1107.76 147.973) rotate(-83.5996) scale(4.34691 4.38748)">
<stop stop-color="#F47E20"/>
<stop offset="0.1" stop-color="#CF6B1B"/>
<stop offset="0.29" stop-color="#914B13"/>
<stop offset="0.46" stop-color="#5D300C"/>
<stop offset="0.63" stop-color="#351B07"/>
<stop offset="0.78" stop-color="#180C03"/>
<stop offset="0.91" stop-color="#060301"/>
<stop offset="1"/>
</radialGradient>
<radialGradient id="paint41_radial_1777_473" cx="0" cy="0" r="1" gradientUnits="userSpaceOnUse" gradientTransform="translate(1107.77 147.973) rotate(-83.5996) scale(2.03827 2.05731)">
<stop stop-color="#F47E20"/>
<stop offset="0.1" stop-color="#CF6B1B"/>
<stop offset="0.29" stop-color="#914B13"/>
<stop offset="0.46" stop-color="#5D300C"/>
<stop offset="0.63" stop-color="#351B07"/>
<stop offset="0.78" stop-color="#180C03"/>
<stop offset="0.91" stop-color="#060301"/>
<stop offset="1"/>
</radialGradient>
</defs>
</svg>
