<svg width="113" height="60" viewBox="0 0 113 60" fill="none" xmlns="http://www.w3.org/2000/svg">
<path opacity="0.8" d="M18.1056 47.6674C28.105 47.6674 36.211 39.5612 36.211 29.5618C36.211 19.5624 28.105 11.4563 18.1056 11.4563C8.10614 11.4563 0 19.5624 0 29.5618C0 39.5612 8.10614 47.6674 18.1056 47.6674Z" fill="#F37065"/>
<path opacity="0.8" d="M49.8041 53.7488C63.1622 53.7488 73.991 42.9199 73.991 29.5619C73.991 16.2038 63.1622 5.375 49.8041 5.375C36.4461 5.375 25.6172 16.2038 25.6172 29.5619C25.6172 42.9199 36.4461 53.7488 49.8041 53.7488Z" fill="#FFC64A"/>
<path opacity="0.8" d="M83.1067 59.1235C99.4332 59.1235 112.668 45.8883 112.668 29.5618C112.668 13.2353 99.4332 0 83.1067 0C66.7802 0 53.5449 13.2353 53.5449 29.5618C53.5449 45.8883 66.7802 59.1235 83.1067 59.1235Z" fill="#99CC99"/>
</svg>
