<svg width="164" height="181" viewBox="0 0 164 181" fill="none" xmlns="http://www.w3.org/2000/svg">
<path d="M86.3419 158.296C86.3419 158.296 91.5277 155.479 93.248 155.952C94.9683 156.426 89.5581 159.493 87.5885 159.717C85.6188 159.941 85.6438 159.293 86.3419 158.296Z" fill="#F05355"/>
<path d="M118.728 149.395C118.728 149.395 112.844 149.62 111.597 150.891C110.35 152.163 116.583 152.038 118.403 151.24C120.224 150.442 119.85 149.894 118.728 149.395Z" fill="#F05355"/>
<path d="M86.3419 158.296C86.3419 158.296 91.5277 155.479 93.248 155.952C94.9683 156.426 89.5581 159.493 87.5885 159.717C85.6188 159.941 85.6438 159.293 86.3419 158.296Z" fill="#F05355"/>
<path d="M88.5367 140.844C88.5367 140.844 89.0104 143.038 88.5367 162.235C88.5302 162.467 88.4591 162.693 88.3314 162.887C88.2036 163.081 88.0243 163.235 87.8136 163.332C85.3204 164.38 77.8409 167.97 80.1346 170.538C80.2543 170.67 80.4091 170.767 80.5812 170.815C80.7532 170.864 80.9355 170.863 81.1069 170.812C85.0914 169.654 88.7021 167.47 91.5783 164.479C91.65 164.407 91.7067 164.321 91.7452 164.227C91.7837 164.133 91.8032 164.032 91.8027 163.931C91.9523 161.612 90.7805 148.423 91.1794 140.146L88.5367 140.844Z" fill="url(#paint0_linear_377_6126)"/>
<path d="M106.309 135.658C106.309 135.658 107.007 137.777 117.379 153.983C117.501 154.177 117.677 154.332 117.884 154.429C118.092 154.526 118.323 154.562 118.551 154.531C121.169 154.207 129.521 153.384 128.848 156.8C128.808 156.973 128.722 157.131 128.599 157.259C128.476 157.386 128.321 157.477 128.149 157.523C124.139 158.594 119.918 158.594 115.908 157.523C115.712 157.457 115.544 157.325 115.434 157.149C114.113 155.254 108.378 143.312 103.791 136.406L106.309 135.658Z" fill="url(#paint1_linear_377_6126)"/>
<path d="M85.395 140.595C119.557 140.595 147.251 112.901 147.251 78.7387C147.251 44.5766 119.557 16.8828 85.395 16.8828C51.2329 16.8828 23.5391 44.5766 23.5391 78.7387C23.5391 112.901 51.2329 140.595 85.395 140.595Z" fill="white" stroke="black" stroke-width="0.08" stroke-miterlimit="10"/>
<path d="M152.062 80.2841C154.804 76.6191 157.248 70.3114 155.004 59.5907C154.194 55.1313 152.118 50.9992 149.023 47.6879C145.928 44.3765 141.946 42.0259 137.551 40.9167C136.47 40.613 135.5 40.0009 134.761 39.1553C134.022 38.3096 133.544 37.267 133.388 36.1547C132.64 30.8442 131.443 22.3923 124.861 17.406C119.077 13.0429 110.75 14.464 105.888 16.9323C104.585 17.57 103.09 17.6905 101.702 17.2696C100.314 16.8486 99.1371 15.9174 98.4084 14.6635C97.2162 12.4219 95.4793 10.5163 93.3575 9.12208C91.2357 7.72787 88.7972 6.88989 86.2666 6.68528C82.6755 6.36914 79.066 7.03213 75.8217 8.60378C72.5774 10.1754 69.8197 12.597 67.8419 15.6109C67.2436 10.0012 65.3487 4.01755 60.0881 1.87341C53.9798 -0.619776 51.7609 2.82083 51.9105 4.76551C51.9864 5.61114 52.2943 6.41938 52.8002 7.10124C53.3061 7.78309 53.9903 8.3121 54.7776 8.62996C59.5455 10.5008 63.4109 14.1342 65.5731 18.7772C64.9287 19.6106 64.1232 20.3059 63.2046 20.8216C60.9607 15.8353 57.4952 11.2478 52.1598 10.8489C45.5778 10.2007 44.4808 14.1898 45.1789 15.9848C45.4876 16.7734 46.0108 17.4599 46.6893 17.9666C47.3678 18.4733 48.1746 18.78 49.0184 18.852C52.4534 19.1516 55.7561 20.3183 58.6171 22.2427H57.8692C53.9148 21.52 49.8808 21.3355 45.877 21.6942C40.9 21.9686 36.144 23.8396 32.314 27.0296C23.0145 34.933 23.6876 46.9751 25.1087 54.0807C25.4254 55.6736 25.2547 57.325 24.6187 58.8194C23.9827 60.3138 22.911 61.5817 21.5435 62.4578C16.7565 65.5494 10.5485 70.9845 12.3935 77.6912C13.7064 82.2288 16.304 86.2897 19.873 89.3842C21.1921 90.5652 22.0853 92.1479 22.4143 93.8875C22.7433 95.6272 22.4898 97.4268 21.6931 99.0079C17.7289 107.086 17.9283 124.937 31.9899 136.082C44.4558 146.054 53.1571 142.788 61.3347 141.193C63.611 140.742 65.9716 141.029 68.0741 142.011C70.1765 142.992 71.9117 144.618 73.0277 146.653C74.1584 148.943 75.7649 150.966 77.7399 152.586C81.3799 155.229 88.4107 154.008 93.4719 148.223C95.0951 146.351 97.3059 145.084 99.7425 144.631C102.179 144.178 104.697 144.566 106.885 145.73C110.127 147.652 113.838 148.636 117.606 148.572C125.36 147.974 130.471 143.436 129.548 132.791C129.337 130.426 129.896 128.057 131.14 126.035C132.384 124.014 134.248 122.448 136.454 121.571C145.355 118.081 157.023 109.903 150.341 91.8774C149.617 89.9584 149.395 87.8862 149.696 85.8573C149.997 83.8284 150.811 81.91 152.062 80.2841Z" fill="url(#paint2_linear_377_6126)" stroke="#B5DFE5" stroke-width="0.5" stroke-miterlimit="10"/>
<path d="M100.154 90.182C104.973 90.182 108.88 86.2752 108.88 81.4559C108.88 76.6366 104.973 72.7297 100.154 72.7297C95.3346 72.7297 91.4277 76.6366 91.4277 81.4559C91.4277 86.2752 95.3346 90.182 100.154 90.182Z" fill="white"/>
<path d="M102.196 85.1707C105.115 85.1707 107.481 82.8043 107.481 79.8852C107.481 76.9661 105.115 74.5996 102.196 74.5996C99.2766 74.5996 96.9102 76.9661 96.9102 79.8852C96.9102 82.8043 99.2766 85.1707 102.196 85.1707Z" fill="url(#paint3_linear_377_6126)"/>
<path d="M101.522 79.1623C102.376 79.1623 103.068 78.4703 103.068 77.6166C103.068 76.7629 102.376 76.0708 101.522 76.0708C100.669 76.0708 99.9766 76.7629 99.9766 77.6166C99.9766 78.4703 100.669 79.1623 101.522 79.1623Z" fill="white"/>
<path d="M104.315 80.8828C104.88 80.8828 105.337 80.4251 105.337 79.8606C105.337 79.296 104.88 78.8384 104.315 78.8384C103.751 78.8384 103.293 79.296 103.293 79.8606C103.293 80.4251 103.751 80.8828 104.315 80.8828Z" fill="white"/>
<path d="M74.0719 97.3627C78.8912 97.3627 82.798 93.4559 82.798 88.6365C82.798 83.8172 78.8912 79.9104 74.0719 79.9104C69.2525 79.9104 65.3457 83.8172 65.3457 88.6365C65.3457 93.4559 69.2525 97.3627 74.0719 97.3627Z" fill="white"/>
<path d="M76.4984 92.7505C79.4176 92.7505 81.784 90.3841 81.784 87.465C81.784 84.5459 79.4176 82.1794 76.4984 82.1794C73.5793 82.1794 71.2129 84.5459 71.2129 87.465C71.2129 90.3841 73.5793 92.7505 76.4984 92.7505Z" fill="url(#paint4_linear_377_6126)"/>
<path d="M77.4481 86.2681C78.3019 86.2681 78.9939 85.576 78.9939 84.7223C78.9939 83.8686 78.3019 83.1765 77.4481 83.1765C76.5944 83.1765 75.9023 83.8686 75.9023 84.7223C75.9023 85.576 76.5944 86.2681 77.4481 86.2681Z" fill="white"/>
<path d="M75.6492 88.9109C76.2137 88.9109 76.6713 88.4532 76.6713 87.8887C76.6713 87.3241 76.2137 86.8665 75.6492 86.8665C75.0846 86.8665 74.627 87.3241 74.627 87.8887C74.627 88.4532 75.0846 88.9109 75.6492 88.9109Z" fill="white"/>
<path d="M59.6868 79.4363C60.4597 78.6384 61.3572 77.716 62.3545 76.9431C62.8318 76.5415 63.3312 76.1669 63.8504 75.8212C66.206 74.1537 68.7712 72.804 71.4796 71.8071C71.9034 71.6326 72.427 71.5578 72.8758 71.3584C73.3245 71.1589 73.2248 69.5134 72.8758 69.2142C71.9284 68.5909 70.3826 70.1367 69.0612 70.4608C68.3129 70.6386 67.6032 70.9512 66.9669 71.3833C66.3436 71.7822 65.7702 72.2559 65.1968 72.6798C64.6233 73.1036 64.0997 73.6022 63.5762 74.1009C63.0526 74.5995 62.6288 75.0981 62.18 75.6217C61.1733 76.6828 60.256 77.8252 59.4375 79.0373L59.6868 79.4363Z" fill="#AFDCD2"/>
<path d="M59.4619 79.2619C60.169 78.3798 60.9354 77.5468 61.7556 76.7687C62.2336 76.296 62.7416 75.8546 63.2764 75.4473C65.6845 73.5512 68.3444 71.9989 71.1798 70.8349C71.6037 70.6105 72.1771 70.5357 72.6259 70.3113C73.0746 70.087 73.2741 69.4387 72.7755 69.1146C71.7034 68.4415 69.7088 69.1146 68.3376 69.3889C67.5509 69.6313 66.8096 70.002 66.1436 70.4859C65.5017 70.9593 64.8858 71.467 64.2986 72.0067C63.7252 72.5303 63.1767 73.0539 62.6531 73.6273C62.1296 74.2007 61.7057 74.7742 61.2569 75.3725C60.406 76.5492 59.6791 77.8109 59.0879 79.1372L59.4619 79.2619Z" fill="url(#paint5_linear_377_6126)"/>
<path d="M105.486 67.395C104.342 66.9985 103.177 66.6656 101.996 66.3977C101.398 66.2496 100.789 66.1496 100.176 66.0985C97.3297 65.712 94.4448 65.712 91.599 66.0985C91.1502 66.0985 90.6516 66.3229 90.1779 66.3478C89.7042 66.3728 89.0559 64.8769 89.3052 64.3782C89.8537 63.381 91.948 64.0043 93.2445 63.6802C93.9861 63.4983 94.7526 63.4393 95.5133 63.5056C96.2612 63.5056 96.9593 63.7051 97.6823 63.8297C98.4054 63.9544 99.0536 64.1289 99.7267 64.3034L101.647 65.0015C103.014 65.4511 104.334 66.0357 105.586 66.7468L105.486 67.395Z" fill="#AFDCD2"/>
<path d="M105.711 67.0954C104.703 66.6774 103.671 66.3194 102.62 66.0233C101.98 65.8464 101.331 65.7049 100.675 65.5995C97.6495 65.0439 94.5596 64.9263 91.5003 65.2504C91.0266 65.2504 90.4781 65.4499 89.9545 65.4499C89.431 65.4499 89.0071 65.0011 89.3063 64.4526C89.9545 63.3556 91.974 62.9068 93.3702 62.6076C94.194 62.4524 95.0396 62.4524 95.8634 62.6076C96.6612 62.7323 97.4092 62.9068 98.1571 63.0814C98.8918 63.2562 99.616 63.4726 100.326 63.7296C101.024 63.9955 101.697 64.2947 102.346 64.6271C103.633 65.25 104.839 66.0287 105.936 66.9458L105.711 67.0954Z" fill="url(#paint6_linear_377_6126)"/>
<path d="M86.144 159.243C86.144 159.243 92.726 157.623 93.6235 156.302C93.6235 156.302 94.0225 160.814 95.1693 161.911C97.0392 163.731 100.929 169.391 98.5351 172.009C96.1416 174.626 88.2632 181.059 81.4318 180.012C74.6005 178.965 73.2542 165.701 87.59 165.177C87.59 165.177 88.2632 164.404 86.144 159.243Z" fill="url(#paint7_linear_377_6126)"/>
<path d="M98.6566 167.621C96.1634 170.438 87.5619 177.419 80.1821 176.297C78.7312 176.058 77.4184 175.295 76.4922 174.153C76.5347 175.551 77.0516 176.892 77.9578 177.957C78.8641 179.022 80.1057 179.746 81.4786 180.012C88.3099 181.059 96.1634 174.602 98.5818 172.009C99.0362 171.348 99.2999 170.575 99.3439 169.775C99.3879 168.975 99.2104 168.177 98.8311 167.471L98.6566 167.621Z" fill="#DEECF4"/>
<path d="M89.0863 166.698C89.4603 163.357 91.3551 156.002 84.8728 157.224C78.3905 158.446 82.3796 166.15 85.3216 167.197C85.8451 167.521 88.9866 167.596 89.0863 166.698Z" fill="#FDBB40"/>
<path d="M83.0504 161.936C83.2982 161.936 83.4991 161.735 83.4991 161.487C83.4991 161.239 83.2982 161.038 83.0504 161.038C82.8025 161.038 82.6016 161.239 82.6016 161.487C82.6016 161.735 82.8025 161.936 83.0504 161.936Z" fill="#E8A63F"/>
<path d="M83.4742 163.182C83.722 163.182 83.9229 162.981 83.9229 162.733C83.9229 162.486 83.722 162.285 83.4742 162.285C83.2263 162.285 83.0254 162.486 83.0254 162.733C83.0254 162.981 83.2263 163.182 83.4742 163.182Z" fill="#E8A63F"/>
<path d="M87.3374 162.235C87.5853 162.235 87.7862 162.034 87.7862 161.786C87.7862 161.539 87.5853 161.338 87.3374 161.338C87.0896 161.338 86.8887 161.539 86.8887 161.786C86.8887 162.034 87.0896 162.235 87.3374 162.235Z" fill="#E8A63F"/>
<path d="M87.6402 163.457C87.8881 163.457 88.089 163.256 88.089 163.008C88.089 162.76 87.8881 162.559 87.6402 162.559C87.3923 162.559 87.1914 162.76 87.1914 163.008C87.1914 163.256 87.3923 163.457 87.6402 163.457Z" fill="#E8A63F"/>
<path d="M83.8218 164.479C84.0697 164.479 84.2706 164.278 84.2706 164.03C84.2706 163.782 84.0697 163.581 83.8218 163.581C83.574 163.581 83.373 163.782 83.373 164.03C83.373 164.278 83.574 164.479 83.8218 164.479Z" fill="#E8A63F"/>
<path d="M86.9644 160.939C87.2122 160.939 87.4132 160.738 87.4132 160.49C87.4132 160.242 87.2122 160.041 86.9644 160.041C86.7165 160.041 86.5156 160.242 86.5156 160.49C86.5156 160.738 86.7165 160.939 86.9644 160.939Z" fill="#E8A63F"/>
<path d="M83.125 161.487C84.2529 160.796 85.5713 160.482 86.8897 160.59" stroke="#DEECF4" stroke-width="0.17" stroke-miterlimit="10" stroke-linecap="round"/>
<path d="M83.4531 162.709C84.6197 162.021 85.9661 161.699 87.3176 161.786" stroke="#DEECF4" stroke-width="0.17" stroke-miterlimit="10" stroke-linecap="round"/>
<path d="M83.7715 163.881C84.9193 163.149 86.2831 162.832 87.6359 162.983" stroke="#DEECF4" stroke-width="0.17" stroke-miterlimit="10" stroke-linecap="round"/>
<path d="M77.9387 168.767C79.1541 167.308 80.8058 166.276 82.6508 165.825C83.9813 165.425 85.3946 165.387 86.7445 165.716C88.0945 166.045 89.3322 166.728 90.3298 167.695C92.3493 169.715 94.2192 174.551 91.5515 176.172C91.5515 176.172 81.4292 182.28 77.7143 177.668C76.793 176.356 76.3174 174.783 76.3578 173.181C76.3982 171.578 76.9524 170.031 77.9387 168.767Z" fill="#DEECF4"/>
<path d="M28.7232 112.746C29.8798 112.746 30.8174 111.808 30.8174 110.651C30.8174 109.495 29.8798 108.557 28.7232 108.557C27.5665 108.557 26.6289 109.495 26.6289 110.651C26.6289 111.808 27.5665 112.746 28.7232 112.746Z" fill="#AFDCD2"/>
<path d="M86.144 159.243C86.144 159.243 92.726 157.623 93.6235 156.302C93.6235 156.302 94.0225 160.814 95.1693 161.911C97.0392 163.731 100.929 169.391 98.5351 172.009C96.1416 174.626 88.2632 181.059 81.4318 180.012C74.6005 178.965 73.2542 165.701 87.59 165.177C87.59 165.177 88.2632 164.404 86.144 159.243Z" fill="url(#paint8_linear_377_6126)"/>
<path d="M98.6566 167.621C96.1634 170.438 87.5619 177.419 80.1821 176.297C78.7312 176.058 77.4184 175.295 76.4922 174.153C76.5347 175.551 77.0516 176.892 77.9578 177.957C78.8641 179.022 80.1057 179.746 81.4786 180.012C88.3099 181.059 96.1634 174.602 98.5818 172.009C99.0362 171.348 99.2999 170.575 99.3439 169.775C99.3879 168.975 99.2104 168.177 98.8311 167.471L98.6566 167.621Z" fill="#FDDED0"/>
<path d="M89.0863 166.698C89.4603 163.357 91.3551 156.002 84.8728 157.224C78.3905 158.446 82.3796 166.15 85.3216 167.197C85.8451 167.521 88.9866 167.596 89.0863 166.698Z" fill="#FDBB40"/>
<path d="M83.0504 161.936C83.2982 161.936 83.4991 161.735 83.4991 161.487C83.4991 161.239 83.2982 161.038 83.0504 161.038C82.8025 161.038 82.6016 161.239 82.6016 161.487C82.6016 161.735 82.8025 161.936 83.0504 161.936Z" fill="#E8A63F"/>
<path d="M83.4742 163.182C83.722 163.182 83.9229 162.981 83.9229 162.733C83.9229 162.486 83.722 162.285 83.4742 162.285C83.2263 162.285 83.0254 162.486 83.0254 162.733C83.0254 162.981 83.2263 163.182 83.4742 163.182Z" fill="#E8A63F"/>
<path d="M87.3374 162.235C87.5853 162.235 87.7862 162.034 87.7862 161.786C87.7862 161.539 87.5853 161.338 87.3374 161.338C87.0896 161.338 86.8887 161.539 86.8887 161.786C86.8887 162.034 87.0896 162.235 87.3374 162.235Z" fill="#E8A63F"/>
<path d="M87.6402 163.457C87.8881 163.457 88.089 163.256 88.089 163.008C88.089 162.76 87.8881 162.559 87.6402 162.559C87.3923 162.559 87.1914 162.76 87.1914 163.008C87.1914 163.256 87.3923 163.457 87.6402 163.457Z" fill="#E8A63F"/>
<path d="M83.8218 164.479C84.0697 164.479 84.2706 164.278 84.2706 164.03C84.2706 163.782 84.0697 163.581 83.8218 163.581C83.574 163.581 83.373 163.782 83.373 164.03C83.373 164.278 83.574 164.479 83.8218 164.479Z" fill="#E8A63F"/>
<path d="M86.9644 160.939C87.2122 160.939 87.4132 160.738 87.4132 160.49C87.4132 160.242 87.2122 160.041 86.9644 160.041C86.7165 160.041 86.5156 160.242 86.5156 160.49C86.5156 160.738 86.7165 160.939 86.9644 160.939Z" fill="#E8A63F"/>
<path d="M83.125 161.487C84.2529 160.796 85.5713 160.482 86.8897 160.59" stroke="#FFE6B2" stroke-width="0.17" stroke-miterlimit="10" stroke-linecap="round"/>
<path d="M83.4531 162.709C84.6197 162.021 85.9661 161.699 87.3176 161.786" stroke="#FFE6B2" stroke-width="0.17" stroke-miterlimit="10" stroke-linecap="round"/>
<path d="M83.7715 163.881C84.9193 163.149 86.2831 162.832 87.6359 162.983" stroke="#FFE6B2" stroke-width="0.17" stroke-miterlimit="10" stroke-linecap="round"/>
<path d="M77.9387 168.767C79.1541 167.308 80.8058 166.276 82.6508 165.825C83.9813 165.425 85.3946 165.387 86.7445 165.716C88.0945 166.045 89.3322 166.728 90.3298 167.695C92.3493 169.715 94.2192 174.551 91.5515 176.172C91.5515 176.172 81.4292 182.28 77.7143 177.668C76.793 176.356 76.3174 174.783 76.3578 173.181C76.3982 171.578 76.9524 170.031 77.9387 168.767Z" fill="#FDDED0"/>
<path d="M119.301 150.094C119.301 150.094 112.844 152.063 111.373 151.39C111.373 151.39 113.343 155.479 112.919 157C112.246 159.493 111.797 166.374 115.188 167.396C118.578 168.418 128.651 169.889 133.986 165.526C139.322 161.163 133.687 149.046 121.096 155.928C121.171 155.928 120.224 155.603 119.301 150.094Z" fill="url(#paint9_linear_377_6126)"/>
<path d="M112.921 163.706C116.611 164.803 127.481 166.424 133.216 161.687C134.346 160.747 135.092 159.425 135.31 157.972C135.962 159.18 136.193 160.571 135.968 161.925C135.742 163.279 135.072 164.52 134.063 165.451C128.728 169.839 118.68 168.318 115.265 167.321C114.547 166.978 113.936 166.447 113.497 165.784C113.058 165.121 112.807 164.351 112.771 163.556L112.921 163.706Z" fill="#FDDED0"/>
<path d="M120.675 158.097C118.631 155.429 113.196 150.069 119.429 147.8C125.662 145.531 126.11 154.232 124.215 156.701C123.866 157.05 121.199 158.72 120.675 158.097Z" fill="#FDBB40"/>
<path d="M123.191 150.891C123.439 150.891 123.64 150.69 123.64 150.442C123.64 150.195 123.439 149.994 123.191 149.994C122.943 149.994 122.742 150.195 122.742 150.442C122.742 150.69 122.943 150.891 123.191 150.891Z" fill="#E8A63F"/>
<path d="M123.466 152.188C123.714 152.188 123.915 151.987 123.915 151.739C123.915 151.491 123.714 151.29 123.466 151.29C123.218 151.29 123.018 151.491 123.018 151.739C123.018 151.987 123.218 152.188 123.466 152.188Z" fill="#E8A63F"/>
<path d="M119.654 153.334C119.902 153.334 120.103 153.133 120.103 152.886C120.103 152.638 119.902 152.437 119.654 152.437C119.406 152.437 119.205 152.638 119.205 152.886C119.205 153.133 119.406 153.334 119.654 153.334Z" fill="#E8A63F"/>
<path d="M120.021 154.531C120.269 154.531 120.47 154.33 120.47 154.082C120.47 153.834 120.269 153.633 120.021 153.633C119.773 153.633 119.572 153.834 119.572 154.082C119.572 154.33 119.773 154.531 120.021 154.531Z" fill="#E8A63F"/>
<path d="M123.839 153.459C124.087 153.459 124.288 153.258 124.288 153.011C124.288 152.763 124.087 152.562 123.839 152.562C123.592 152.562 123.391 152.763 123.391 153.011C123.391 153.258 123.592 153.459 123.839 153.459Z" fill="#E8A63F"/>
<path d="M119.3 152.038C119.548 152.038 119.749 151.837 119.749 151.589C119.749 151.342 119.548 151.141 119.3 151.141C119.052 151.141 118.852 151.342 118.852 151.589C118.852 151.837 119.052 152.038 119.3 152.038Z" fill="#E8A63F"/>
<path d="M123.114 150.467C121.763 150.446 120.441 150.866 119.35 151.664" stroke="#FFE6B2" stroke-width="0.17" stroke-miterlimit="10" stroke-linecap="round"/>
<path d="M123.466 151.689C122.12 151.702 120.808 152.119 119.701 152.885" stroke="#FFE6B2" stroke-width="0.17" stroke-miterlimit="10" stroke-linecap="round"/>
<path d="M123.79 152.886C122.439 152.84 121.112 153.253 120.025 154.058" stroke="#FFE6B2" stroke-width="0.17" stroke-miterlimit="10" stroke-linecap="round"/>
<path d="M131.295 154.082C129.499 153.484 127.556 153.484 125.76 154.082C124.407 154.421 123.169 155.115 122.174 156.092C121.179 157.07 120.463 158.295 120.1 159.642C119.427 162.385 120.275 167.521 123.416 167.521C123.416 167.521 135.209 167.521 136.032 161.737C136.18 160.119 135.798 158.498 134.944 157.117C134.089 155.736 132.808 154.671 131.295 154.082Z" fill="#FDDED0"/>
<path d="M135.78 82.0547C136.936 82.0547 137.874 81.1171 137.874 79.9605C137.874 78.8038 136.936 77.8662 135.78 77.8662C134.623 77.8662 133.686 78.8038 133.686 79.9605C133.686 81.1171 134.623 82.0547 135.78 82.0547Z" fill="#AFDCD2"/>
<path d="M136.284 78.5142C143.076 76.4544 149.258 72.7556 154.284 67.7437L156.279 69.2147C150.709 74.3463 144.198 78.3509 137.106 81.0074C136.813 81.1173 136.49 81.1172 136.196 81.0072C135.903 80.8972 135.659 80.6847 135.511 80.409C135.412 80.238 135.354 80.0467 135.341 79.8498C135.328 79.6528 135.359 79.4555 135.434 79.2727C135.508 79.0899 135.624 78.9266 135.771 78.7951C135.918 78.6637 136.094 78.5676 136.284 78.5142Z" fill="url(#paint10_linear_377_6126)"/>
<path d="M161.987 68.3417C161.987 68.3417 164.231 67.4192 162.56 65.8485C162.326 65.6855 162.048 65.5981 161.763 65.5981C161.477 65.5981 161.199 65.6855 160.965 65.8485L162.037 64.8014C162.323 64.5376 162.513 64.1858 162.576 63.8018C162.639 63.4179 162.572 63.0237 162.386 62.6821C162.201 62.4206 161.931 62.2307 161.622 62.1444C161.313 62.0582 160.985 62.0808 160.69 62.2084C158.87 62.9315 158.846 63.4052 158.846 63.4052C158.846 63.4052 160.416 61.2112 158.646 60.0643C156.876 58.9174 154.856 64.3027 154.856 64.3027C154.856 64.3027 152.189 60.7126 150.568 62.009C148.948 63.3055 154.283 67.9428 154.283 67.9428L156.278 69.4137C158.247 69.7129 160.26 69.3349 161.987 68.3417Z" fill="url(#paint11_linear_377_6126)"/>
<path d="M158.994 62.9565C158.818 63.3987 158.531 63.7875 158.159 64.0847C157.787 64.382 157.345 64.5775 156.875 64.6519C157.715 64.277 158.444 63.6933 158.994 62.9565Z" fill="black"/>
<path d="M160.967 65.6489C160.605 66.0136 160.174 66.3011 159.698 66.494C159.222 66.6868 158.712 66.781 158.199 66.7709C159.175 66.5451 160.109 66.1665 160.967 65.6489Z" fill="black"/>
<path d="M29.7012 108.383C22.6036 108.43 15.6051 106.717 9.33186 103.396L7.83594 105.416C14.6672 108.692 22.0654 110.622 29.6264 111.1C29.9425 111.119 30.2548 111.024 30.5065 110.832C30.7582 110.639 30.9325 110.363 30.9976 110.053C31.0519 109.855 31.0593 109.648 31.0193 109.446C30.9792 109.245 30.8929 109.056 30.7671 108.894C30.6413 108.732 30.4795 108.601 30.2945 108.513C30.1095 108.424 29.9063 108.379 29.7012 108.383Z" fill="url(#paint12_linear_377_6126)"/>
<path d="M2.12135 106.064C2.12135 106.064 -0.371842 105.839 0.824886 103.795C0.991769 103.566 1.22421 103.394 1.49136 103.3C1.75852 103.207 2.04779 103.197 2.32081 103.271L0.999428 102.598C0.651676 102.426 0.368966 102.146 0.193677 101.8C0.0183884 101.454 -0.0400446 101.06 0.0270871 100.678C0.127894 100.37 0.331286 100.105 0.603438 99.9282C0.875591 99.7513 1.20008 99.6729 1.52298 99.706C3.49259 99.8806 3.6422 100.329 3.6422 100.329C3.6422 100.329 1.49804 98.6838 2.84436 97.0882C4.19068 95.4925 7.83073 100.005 7.83073 100.005C7.83073 100.005 9.35157 95.7918 11.2963 96.5646C13.2409 97.3375 9.45132 103.321 9.45132 103.321L7.9554 105.341C6.15287 106.249 4.09113 106.505 2.12135 106.064Z" fill="url(#paint13_linear_377_6126)"/>
<path d="M3.41992 100.13C4.15291 100.669 5.01089 101.012 5.91311 101.128C5.44675 101.192 4.97178 101.133 4.53473 100.958C4.09768 100.784 3.71354 100.498 3.41992 100.13Z" fill="black"/>
<path d="M2.32031 103.247C3.28788 103.498 4.28992 103.591 5.28721 103.521C4.80028 103.681 4.28565 103.739 3.77527 103.692C3.26489 103.645 2.76965 103.493 2.32031 103.247Z" fill="black"/>
<path d="M81.9026 97.537C83.9758 95.645 86.4746 94.2809 89.1873 93.5604C91.8999 92.8399 94.7463 92.7843 97.485 93.3983C98.2054 93.5696 98.8593 93.9495 99.3648 94.4905C99.8704 95.0316 100.205 95.7097 100.327 96.44C100.951 100.08 100.527 105.241 93.0472 107.659C85.5676 110.078 82.3015 105.316 80.8804 101.626C80.6056 100.922 80.5564 100.151 80.7395 99.4184C80.9227 98.6858 81.3292 98.0283 81.9026 97.537Z" fill="url(#paint14_linear_377_6126)"/>
<mask id="mask0_377_6126" style="mask-type:luminance" maskUnits="userSpaceOnUse" x="80" y="91" width="21" height="18">
<path d="M81.3773 95.7672C83.4685 93.8644 85.9905 92.498 88.7266 91.7858C91.4627 91.0735 94.3309 91.0367 97.0844 91.6784C98.4806 92.0025 100.026 94.9444 100.276 96.3406C100.899 99.9807 100.525 105.216 92.9956 107.66C85.4662 110.103 82.25 105.316 80.8289 101.626C80.4779 100.67 80.345 99.6483 80.4399 98.6346C80.5348 97.6209 80.8551 96.6412 81.3773 95.7672Z" fill="white"/>
</mask>
<g mask="url(#mask0_377_6126)">
<path d="M83.7246 108.407C83.7246 108.407 87.614 94.0715 98.8832 102.1C110.152 110.128 83.7246 108.407 83.7246 108.407Z" fill="url(#paint15_linear_377_6126)"/>
</g>
<defs>
<linearGradient id="paint0_linear_377_6126" x1="76.3984" y1="158.133" x2="94.6432" y2="153.111" gradientUnits="userSpaceOnUse">
<stop stop-color="#212E5D"/>
<stop offset="1" stop-color="#242F3D"/>
</linearGradient>
<linearGradient id="paint1_linear_377_6126" x1="127.538" y1="142.062" x2="109.372" y2="147.171" gradientUnits="userSpaceOnUse">
<stop stop-color="#212E5D"/>
<stop offset="1" stop-color="#242F3D"/>
</linearGradient>
<linearGradient id="paint2_linear_377_6126" x1="83.9728" y1="150.218" x2="83.9728" y2="2.77096" gradientUnits="userSpaceOnUse">
<stop stop-color="#AFDCD2"/>
<stop offset="0.07" stop-color="#B6DFD6"/>
<stop offset="0.48" stop-color="#DEF0EC"/>
<stop offset="0.8" stop-color="#F6FBFA"/>
<stop offset="1" stop-color="white"/>
</linearGradient>
<linearGradient id="paint3_linear_377_6126" x1="97.0858" y1="81.299" x2="107.302" y2="78.487" gradientUnits="userSpaceOnUse">
<stop stop-color="#242F3D"/>
<stop offset="1" stop-color="#212E5D"/>
</linearGradient>
<linearGradient id="paint4_linear_377_6126" x1="71.3783" y1="88.8691" x2="81.5944" y2="86.0571" gradientUnits="userSpaceOnUse">
<stop stop-color="#242F3D"/>
<stop offset="1" stop-color="#212E5D"/>
</linearGradient>
<linearGradient id="paint5_linear_377_6126" x1="74.9637" y1="78.1163" x2="59.5446" y2="84.2507" gradientUnits="userSpaceOnUse">
<stop stop-color="#242F3D"/>
<stop offset="1" stop-color="#212E5D"/>
</linearGradient>
<linearGradient id="paint6_linear_377_6126" x1="89.2737" y1="65.774" x2="105.629" y2="64.2135" gradientUnits="userSpaceOnUse">
<stop stop-color="#242F3D"/>
<stop offset="1" stop-color="#212E5D"/>
</linearGradient>
<linearGradient id="paint7_linear_377_6126" x1="68.0049" y1="174.045" x2="129.157" y2="157.213" gradientUnits="userSpaceOnUse">
<stop stop-color="#F47959"/>
<stop offset="0.91" stop-color="#F05355"/>
</linearGradient>
<linearGradient id="paint8_linear_377_6126" x1="68.0049" y1="174.045" x2="129.157" y2="157.213" gradientUnits="userSpaceOnUse">
<stop stop-color="#F47959"/>
<stop offset="0.91" stop-color="#F05355"/>
</linearGradient>
<linearGradient id="paint9_linear_377_6126" x1="135.913" y1="141.589" x2="75.0479" y2="158.708" gradientUnits="userSpaceOnUse">
<stop stop-color="#F47959"/>
<stop offset="0.91" stop-color="#F05355"/>
</linearGradient>
<linearGradient id="paint10_linear_377_6126" x1="100.417" y1="45.9086" x2="78.2163" y2="51.4015" gradientUnits="userSpaceOnUse">
<stop stop-color="#242F3D"/>
<stop offset="1" stop-color="#212E5D"/>
</linearGradient>
<linearGradient id="paint11_linear_377_6126" x1="106.212" y1="37.6987" x2="94.6763" y2="40.5529" gradientUnits="userSpaceOnUse">
<stop stop-color="#242F3D"/>
<stop offset="1" stop-color="#212E5D"/>
</linearGradient>
<linearGradient id="paint12_linear_377_6126" x1="-62.5801" y1="227.019" x2="-39.6927" y2="225.646" gradientUnits="userSpaceOnUse">
<stop stop-color="#242F3D"/>
<stop offset="1" stop-color="#212E5D"/>
</linearGradient>
<linearGradient id="paint13_linear_377_6126" x1="-70.5843" y1="220.893" x2="-58.6918" y2="220.179" gradientUnits="userSpaceOnUse">
<stop stop-color="#242F3D"/>
<stop offset="1" stop-color="#212E5D"/>
</linearGradient>
<linearGradient id="paint14_linear_377_6126" x1="75.3363" y1="103.615" x2="95.0784" y2="100.19" gradientUnits="userSpaceOnUse">
<stop stop-color="#242F3D"/>
<stop offset="1" stop-color="#212E5D"/>
</linearGradient>
<linearGradient id="paint15_linear_377_6126" x1="83.3298" y1="106.938" x2="100.805" y2="102.127" gradientUnits="userSpaceOnUse">
<stop stop-color="#DE7C6B"/>
<stop offset="0.58" stop-color="#F39D98"/>
<stop offset="0.92" stop-color="#FAB397"/>
</linearGradient>
</defs>
</svg>
