<svg width="62" height="82" viewBox="0 0 62 82" fill="none" xmlns="http://www.w3.org/2000/svg">
<path d="M15.3008 39.9962C15.3008 31.6662 21.6008 24.8262 29.9208 24.8262C38.2408 24.8262 44.8108 31.0262 44.8108 39.3562C44.8108 45.7062 39.1408 49.6662 37.6408 53.1962C36.8208 55.1362 37.1808 61.6962 37.1808 61.6962H23.5508C23.5508 61.6962 24.1708 55.0062 23.1008 53.1962C20.4108 48.6262 15.3008 45.6862 15.3008 39.9962Z" fill="url(#paint0_linear_1901_620)"/>
<path d="M32.5494 62.0563C32.5494 58.9463 34.5494 45.9063 36.2594 46.4963C37.9694 47.0863 35.4794 52.3263 32.1794 51.1663C28.8794 50.0063 29.8594 42.0563 31.1794 43.4163C32.4994 44.7763 30.9594 51.7463 28.0394 51.1663C25.1194 50.5863 23.7594 45.5263 25.7094 47.0763C27.6594 48.6263 27.5494 60.4563 27.5494 61.7763" stroke="#1F1A19" stroke-width="0.45" stroke-miterlimit="10"/>
<path d="M23.5508 61.4863H37.3308V69.5563L33.8908 75.9163L31.2908 80.5963C31.2001 80.7366 31.0758 80.852 30.929 80.9319C30.7823 81.0118 30.6179 81.0537 30.4508 81.0537C30.2837 81.0537 30.1193 81.0118 29.9725 80.9319C29.8258 80.852 29.7014 80.7366 29.6108 80.5963L27.0108 75.9163L23.5508 69.7763V61.4863Z" fill="url(#paint1_linear_1901_620)"/>
<path d="M32.5509 78.1762L31.1109 80.7762C31.0396 80.9032 30.9358 81.0089 30.8102 81.0824C30.6845 81.156 30.5415 81.1948 30.3959 81.1948C30.2503 81.1948 30.1073 81.156 29.9817 81.0824C29.856 81.0089 29.7522 80.9032 29.6809 80.7762L28.2109 78.1362L32.5509 78.1762Z" fill="#333333"/>
<path d="M37.2602 69.5563L35.2302 68.4663L33.5702 69.5563L31.5402 68.4663L30.0602 69.5563L28.2102 68.4663L27.0502 69.5563L25.2202 68.4663L23.4902 69.7563V61.4863H37.2702L37.2602 69.5563Z" fill="#F37065"/>
<path d="M13.7291 19.5163V29.7763C13.7158 30.7977 13.9402 31.8082 14.3845 32.728C14.8288 33.6478 15.4808 34.4517 16.2891 35.0763C24.9957 41.5429 34.4157 41.5329 44.5491 35.0463C45.4749 34.4427 46.2346 33.6166 46.7587 32.6435C47.2828 31.6704 47.5546 30.5815 47.5491 29.4763V17.8763L13.7291 19.5163Z" fill="url(#paint2_linear_1901_620)"/>
<path d="M61.5495 33.5063L60.3095 31.1163L60.0195 30.5563C59.4717 29.4231 59.3545 28.1295 59.6895 26.9163C59.7304 26.7664 59.7506 26.6116 59.7495 26.4563C59.7474 26.0563 59.6255 25.6662 59.3995 25.3363C58.8941 24.5683 58.6327 23.6655 58.6495 22.7463V12.9063C58.6495 12.6649 58.5536 12.4335 58.3829 12.2628C58.2123 12.0922 57.9808 11.9963 57.7395 11.9963C57.62 11.9963 57.5016 12.0198 57.3912 12.0655C57.2808 12.1113 57.1805 12.1783 57.096 12.2628C57.0115 12.3473 56.9445 12.4476 56.8987 12.558C56.853 12.6684 56.8295 12.7868 56.8295 12.9063V22.7763C56.8463 23.6955 56.5848 24.5983 56.0795 25.3663C55.8534 25.6962 55.7315 26.0863 55.7295 26.4863C55.7306 26.7255 55.7746 26.9626 55.8595 27.1863C56.08 27.8208 56.1663 28.4942 56.113 29.1638C56.0596 29.8335 55.8677 30.4847 55.5495 31.0763L54.3195 33.4663C54.191 33.7003 54.1247 33.9634 54.127 34.2303C54.1293 34.4973 54.2 34.7592 54.3325 34.991C54.4649 35.2228 54.6547 35.4167 54.8835 35.5542C55.1123 35.6917 55.3726 35.7682 55.6395 35.7763H60.1495C60.4164 35.7754 60.6788 35.7064 60.9116 35.5759C61.1445 35.4454 61.3403 35.2577 61.4804 35.0304C61.6206 34.8032 61.7005 34.544 61.7126 34.2773C61.7246 34.0106 61.6685 33.7452 61.5495 33.5063Z" fill="url(#paint3_linear_1901_620)"/>
<path d="M1.48021 13.4563L29.3402 27.6263C29.4957 27.703 29.6668 27.7429 29.8402 27.7429C30.0136 27.7429 30.1847 27.703 30.3402 27.6263L58.2302 13.7763C58.4279 13.6797 58.5935 13.528 58.7069 13.3394C58.8202 13.1508 58.8767 12.9335 58.8693 12.7136C58.8619 12.4937 58.791 12.2806 58.6651 12.1001C58.5393 11.9196 58.364 11.7793 58.1602 11.6963L30.6402 0.0862567C30.3616 -0.0287522 30.0488 -0.0287522 29.7702 0.0862567L1.55022 11.3663C1.347 11.4512 1.17246 11.5927 1.04734 11.774C0.922213 11.9553 0.851768 12.1687 0.844395 12.3888C0.837022 12.6089 0.893026 12.8265 1.00574 13.0158C1.11846 13.205 1.28313 13.3579 1.48021 13.4563Z" fill="url(#paint4_linear_1901_620)"/>
<defs>
<linearGradient id="paint0_linear_1901_620" x1="44.8208" y1="43.2562" x2="15.3108" y2="43.2562" gradientUnits="userSpaceOnUse">
<stop stop-color="#F9D879"/>
<stop offset="1" stop-color="#FFD033"/>
</linearGradient>
<linearGradient id="paint1_linear_1901_620" x1="34.6108" y1="77.5563" x2="28.3808" y2="59.9363" gradientUnits="userSpaceOnUse">
<stop stop-color="#F2BF84"/>
<stop offset="0.66" stop-color="#E2A869"/>
</linearGradient>
<linearGradient id="paint2_linear_1901_620" x1="13.7291" y1="28.8963" x2="111.589" y2="28.8963" gradientUnits="userSpaceOnUse">
<stop stop-color="#42444C"/>
<stop offset="1" stop-color="#53585E"/>
</linearGradient>
<linearGradient id="paint3_linear_1901_620" x1="57.8895" y1="35.7863" x2="57.8895" y2="-74.6537" gradientUnits="userSpaceOnUse">
<stop stop-color="#53585E"/>
<stop offset="1" stop-color="#42444C"/>
</linearGradient>
<linearGradient id="paint4_linear_1901_620" x1="0.850218" y1="13.8763" x2="58.8702" y2="13.8763" gradientUnits="userSpaceOnUse">
<stop stop-color="#42444C"/>
<stop offset="1" stop-color="#53585E"/>
</linearGradient>
</defs>
</svg>
