<svg width="87" height="74" viewBox="0 0 87 74" fill="none" xmlns="http://www.w3.org/2000/svg">
<path d="M59.3906 19.0863C59.4294 17.9979 59.7318 16.9352 60.2718 15.9894C60.8117 15.0436 61.5731 14.243 62.4906 13.6563C62.0261 12.1222 61.3745 10.6512 60.5506 9.27628C59.5053 9.49269 58.4234 9.45584 57.3953 9.16879C56.3672 8.88175 55.4226 8.35286 54.6406 7.62628C53.9313 6.86956 53.4097 5.95675 53.1179 4.96146C52.8261 3.96616 52.7722 2.91621 52.9606 1.89627C51.521 1.10245 49.9896 0.487888 48.4006 0.0662842C47.8327 0.930714 47.0587 1.6404 46.1484 2.1315C45.2381 2.6226 44.22 2.8797 43.1856 2.8797C42.1513 2.8797 41.1332 2.6226 40.2229 2.1315C39.3126 1.6404 38.5386 0.930714 37.9706 0.0662842C36.3816 0.487888 34.8502 1.10245 33.4106 1.89627C33.599 2.91621 33.5452 3.96616 33.2534 4.96146C32.9615 5.95675 32.44 6.86956 31.7306 7.62628C30.9466 8.35299 30.0004 8.88188 28.9706 9.16888C27.9409 9.45589 26.8575 9.4927 25.8106 9.27628C24.9949 10.6554 24.3438 12.1255 23.8706 13.6563C24.7906 14.2412 25.5544 15.0412 26.0962 15.9872C26.638 16.9332 26.9416 17.9968 26.9806 19.0863C26.9334 20.2211 26.6031 21.3261 26.0197 22.3007C25.4364 23.2753 24.6185 24.0885 23.6406 24.6663C24.0328 26.1629 24.5965 27.6091 25.3206 28.9763C26.447 28.6198 27.6504 28.5841 28.7959 28.8732C29.9414 29.1623 30.9838 29.7648 31.8061 30.6131C32.6284 31.4614 33.1982 32.5219 33.4516 33.6759C33.7049 34.8298 33.6319 36.0315 33.2406 37.1463C34.5633 37.8935 35.9653 38.4906 37.4206 38.9263C37.9408 37.8383 38.7582 36.9198 39.7783 36.2768C40.7985 35.6337 41.9797 35.2925 43.1856 35.2925C44.3915 35.2925 45.5728 35.6337 46.593 36.2768C47.6131 36.9198 48.4305 37.8383 48.9506 38.9263C50.4059 38.4906 51.808 37.8935 53.1306 37.1463C52.7393 36.0315 52.6663 34.8298 52.9197 33.6759C53.1731 32.5219 53.7428 31.4614 54.5652 30.6131C55.3875 29.7648 56.4298 29.1623 57.5753 28.8732C58.7209 28.5841 59.9243 28.6198 61.0506 28.9763C61.7747 27.6091 62.3384 26.1629 62.7306 24.6663C61.7527 24.0885 60.9349 23.2753 60.3515 22.3007C59.7682 21.3261 59.4378 20.2211 59.3906 19.0863Z" fill="#F37065"/>
<path d="M43.1796 31.8962C49.9893 31.8962 55.5096 26.3759 55.5096 19.5662C55.5096 12.7566 49.9893 7.23621 43.1796 7.23621C36.37 7.23621 30.8496 12.7566 30.8496 19.5662C30.8496 26.3759 36.37 31.8962 43.1796 31.8962Z" fill="#DB655A"/>
<path d="M43.1805 28.7662C48.2615 28.7662 52.3805 24.6472 52.3805 19.5662C52.3805 14.4852 48.2615 10.3662 43.1805 10.3662C38.0995 10.3662 33.9805 14.4852 33.9805 19.5662C33.9805 24.6472 38.0995 28.7662 43.1805 28.7662Z" fill="white"/>
<path d="M7.32946 30.1462L0.459463 60.0663C0.105343 61.5943 0.0944475 63.1819 0.427542 64.7147C0.760636 66.2475 1.42942 67.6873 2.38579 68.9306C3.34216 70.1739 4.5623 71.1896 5.95836 71.9048C7.35443 72.6199 8.89169 73.0166 10.4595 73.0663C12.256 73.1243 14.038 72.7253 15.6383 71.9068C17.2386 71.0883 18.605 69.8769 19.6095 68.3862L25.7795 59.2463C26.7775 57.7658 28.1327 56.5608 29.7198 55.7428C31.3069 54.9248 33.0746 54.5202 34.8595 54.5663L50.9094 54.9963C52.4301 55.0347 53.9246 55.4002 55.2912 56.068C56.6579 56.7358 57.8647 57.6902 58.8295 58.8662L67.2495 69.1162C68.305 70.3985 69.6463 71.4155 71.1659 72.0858C72.6854 72.7561 74.3408 73.0611 75.9995 72.9763H76.1294C77.7083 72.8945 79.2488 72.4609 80.6385 71.7072C82.0283 70.9535 83.232 69.8988 84.1617 68.6202C85.0915 67.3415 85.7237 65.8713 86.0123 64.317C86.3008 62.7626 86.2384 61.1634 85.8295 59.6362L77.8295 29.7962C77.2254 27.5318 75.8899 25.5305 74.0308 24.1036C72.1716 22.6767 69.8931 21.9042 67.5495 21.9063H17.6795C15.2765 21.9062 12.9446 22.7211 11.0647 24.2178C9.18477 25.7144 7.86797 27.8044 7.32946 30.1462Z" fill="#3884C5"/>
<path d="M41.7593 30.7863H35.0893C34.6419 30.7863 34.2793 31.1489 34.2793 31.5963V33.5963C34.2793 34.0436 34.6419 34.4062 35.0893 34.4062H41.7593C42.2066 34.4062 42.5693 34.0436 42.5693 33.5963V31.5963C42.5693 31.1489 42.2066 30.7863 41.7593 30.7863Z" fill="#4670B7"/>
<path d="M41.5493 30.7863H35.0393C34.6195 30.7863 34.2793 31.1265 34.2793 31.5462V33.3463C34.2793 33.766 34.6195 34.1062 35.0393 34.1062H41.5493C41.969 34.1062 42.3093 33.766 42.3093 33.3463V31.5462C42.3093 31.1265 41.969 30.7863 41.5493 30.7863Z" fill="white"/>
<path d="M51.2808 30.7863H44.6108C44.1634 30.7863 43.8008 31.1489 43.8008 31.5963V33.5963C43.8008 34.0436 44.1634 34.4062 44.6108 34.4062H51.2808C51.7281 34.4062 52.0908 34.0436 52.0908 33.5963V31.5963C52.0908 31.1489 51.7281 30.7863 51.2808 30.7863Z" fill="#4670B7"/>
<path d="M51.0108 30.7863H44.5608C44.1411 30.7863 43.8008 31.1265 43.8008 31.5462V33.3463C43.8008 33.766 44.1411 34.1062 44.5608 34.1062H51.0108C51.4305 34.1062 51.7708 33.766 51.7708 33.3463V31.5462C51.7708 31.1265 51.4305 30.7863 51.0108 30.7863Z" fill="white"/>
<path d="M37.3592 43.5462C37.7237 43.5462 38.0192 43.2507 38.0192 42.8862C38.0192 42.5217 37.7237 42.2263 37.3592 42.2263C36.9947 42.2263 36.6992 42.5217 36.6992 42.8862C36.6992 43.2507 36.9947 43.5462 37.3592 43.5462Z" fill="#4670B7"/>
<path d="M39.3006 43.5462C39.6651 43.5462 39.9606 43.2507 39.9606 42.8862C39.9606 42.5217 39.6651 42.2263 39.3006 42.2263C38.9361 42.2263 38.6406 42.5217 38.6406 42.8862C38.6406 43.2507 38.9361 43.5462 39.3006 43.5462Z" fill="#4670B7"/>
<path d="M41.2401 43.5462C41.6046 43.5462 41.9001 43.2507 41.9001 42.8862C41.9001 42.5217 41.6046 42.2263 41.2401 42.2263C40.8756 42.2263 40.5801 42.5217 40.5801 42.8862C40.5801 43.2507 40.8756 43.5462 41.2401 43.5462Z" fill="#4670B7"/>
<path d="M43.1795 43.5462C43.544 43.5462 43.8395 43.2507 43.8395 42.8862C43.8395 42.5217 43.544 42.2263 43.1795 42.2263C42.815 42.2263 42.5195 42.5217 42.5195 42.8862C42.5195 43.2507 42.815 43.5462 43.1795 43.5462Z" fill="#4670B7"/>
<path d="M45.1307 43.5462C45.4952 43.5462 45.7907 43.2507 45.7907 42.8862C45.7907 42.5217 45.4952 42.2263 45.1307 42.2263C44.7662 42.2263 44.4707 42.5217 44.4707 42.8862C44.4707 43.2507 44.7662 43.5462 45.1307 43.5462Z" fill="#4670B7"/>
<path d="M47.0702 43.5462C47.4347 43.5462 47.7302 43.2507 47.7302 42.8862C47.7302 42.5217 47.4347 42.2263 47.0702 42.2263C46.7057 42.2263 46.4102 42.5217 46.4102 42.8862C46.4102 43.2507 46.7057 43.5462 47.0702 43.5462Z" fill="#4670B7"/>
<path d="M49.0096 43.5462C49.3741 43.5462 49.6696 43.2507 49.6696 42.8862C49.6696 42.5217 49.3741 42.2263 49.0096 42.2263C48.6451 42.2263 48.3496 42.5217 48.3496 42.8862C48.3496 43.2507 48.6451 43.5462 49.0096 43.5462Z" fill="#4670B7"/>
<path d="M37.3592 45.8962C37.7237 45.8962 38.0192 45.6007 38.0192 45.2362C38.0192 44.8717 37.7237 44.5762 37.3592 44.5762C36.9947 44.5762 36.6992 44.8717 36.6992 45.2362C36.6992 45.6007 36.9947 45.8962 37.3592 45.8962Z" fill="#4670B7"/>
<path d="M39.3006 45.8962C39.6651 45.8962 39.9606 45.6007 39.9606 45.2362C39.9606 44.8717 39.6651 44.5762 39.3006 44.5762C38.9361 44.5762 38.6406 44.8717 38.6406 45.2362C38.6406 45.6007 38.9361 45.8962 39.3006 45.8962Z" fill="#4670B7"/>
<path d="M41.2401 45.8962C41.6046 45.8962 41.9001 45.6007 41.9001 45.2362C41.9001 44.8717 41.6046 44.5762 41.2401 44.5762C40.8756 44.5762 40.5801 44.8717 40.5801 45.2362C40.5801 45.6007 40.8756 45.8962 41.2401 45.8962Z" fill="#4670B7"/>
<path d="M43.1795 45.8962C43.544 45.8962 43.8395 45.6007 43.8395 45.2362C43.8395 44.8717 43.544 44.5762 43.1795 44.5762C42.815 44.5762 42.5195 44.8717 42.5195 45.2362C42.5195 45.6007 42.815 45.8962 43.1795 45.8962Z" fill="#4670B7"/>
<path d="M45.1307 45.8962C45.4952 45.8962 45.7907 45.6007 45.7907 45.2362C45.7907 44.8717 45.4952 44.5762 45.1307 44.5762C44.7662 44.5762 44.4707 44.8717 44.4707 45.2362C44.4707 45.6007 44.7662 45.8962 45.1307 45.8962Z" fill="#4670B7"/>
<path d="M47.0702 45.8962C47.4347 45.8962 47.7302 45.6007 47.7302 45.2362C47.7302 44.8717 47.4347 44.5762 47.0702 44.5762C46.7057 44.5762 46.4102 44.8717 46.4102 45.2362C46.4102 45.6007 46.7057 45.8962 47.0702 45.8962Z" fill="#4670B7"/>
<path d="M49.0096 45.8962C49.3741 45.8962 49.6696 45.6007 49.6696 45.2362C49.6696 44.8717 49.3741 44.5762 49.0096 44.5762C48.6451 44.5762 48.3496 44.8717 48.3496 45.2362C48.3496 45.6007 48.6451 45.8962 49.0096 45.8962Z" fill="#4670B7"/>
<path d="M37.3592 48.2463C37.7237 48.2463 38.0192 47.9508 38.0192 47.5863C38.0192 47.2218 37.7237 46.9263 37.3592 46.9263C36.9947 46.9263 36.6992 47.2218 36.6992 47.5863C36.6992 47.9508 36.9947 48.2463 37.3592 48.2463Z" fill="#4670B7"/>
<path d="M39.3006 48.2463C39.6651 48.2463 39.9606 47.9508 39.9606 47.5863C39.9606 47.2218 39.6651 46.9263 39.3006 46.9263C38.9361 46.9263 38.6406 47.2218 38.6406 47.5863C38.6406 47.9508 38.9361 48.2463 39.3006 48.2463Z" fill="#4670B7"/>
<path d="M41.2401 48.2463C41.6046 48.2463 41.9001 47.9508 41.9001 47.5863C41.9001 47.2218 41.6046 46.9263 41.2401 46.9263C40.8756 46.9263 40.5801 47.2218 40.5801 47.5863C40.5801 47.9508 40.8756 48.2463 41.2401 48.2463Z" fill="#4670B7"/>
<path d="M43.1795 48.2463C43.544 48.2463 43.8395 47.9508 43.8395 47.5863C43.8395 47.2218 43.544 46.9263 43.1795 46.9263C42.815 46.9263 42.5195 47.2218 42.5195 47.5863C42.5195 47.9508 42.815 48.2463 43.1795 48.2463Z" fill="#4670B7"/>
<path d="M45.1307 48.2463C45.4952 48.2463 45.7907 47.9508 45.7907 47.5863C45.7907 47.2218 45.4952 46.9263 45.1307 46.9263C44.7662 46.9263 44.4707 47.2218 44.4707 47.5863C44.4707 47.9508 44.7662 48.2463 45.1307 48.2463Z" fill="#4670B7"/>
<path d="M47.0702 48.2463C47.4347 48.2463 47.7302 47.9508 47.7302 47.5863C47.7302 47.2218 47.4347 46.9263 47.0702 46.9263C46.7057 46.9263 46.4102 47.2218 46.4102 47.5863C46.4102 47.9508 46.7057 48.2463 47.0702 48.2463Z" fill="#4670B7"/>
<path d="M49.0096 48.2463C49.3741 48.2463 49.6696 47.9508 49.6696 47.5863C49.6696 47.2218 49.3741 46.9263 49.0096 46.9263C48.6451 46.9263 48.3496 47.2218 48.3496 47.5863C48.3496 47.9508 48.6451 48.2463 49.0096 48.2463Z" fill="#4670B7"/>
<path d="M64.9402 48.9463C70.7116 48.9463 75.3902 44.2677 75.3902 38.4963C75.3902 32.7249 70.7116 28.0463 64.9402 28.0463C59.1689 28.0463 54.4902 32.7249 54.4902 38.4963C54.4902 44.2677 59.1689 48.9463 64.9402 48.9463Z" fill="white"/>
<path d="M64.9593 36.3262C66.3013 36.3262 67.3893 35.2383 67.3893 33.8962C67.3893 32.5542 66.3013 31.4662 64.9593 31.4662C63.6172 31.4662 62.5293 32.5542 62.5293 33.8962C62.5293 35.2383 63.6172 36.3262 64.9593 36.3262Z" fill="#F37065"/>
<path d="M60.4905 40.6162C61.8326 40.6162 62.9205 39.5283 62.9205 38.1862C62.9205 36.8442 61.8326 35.7562 60.4905 35.7562C59.1485 35.7562 58.0605 36.8442 58.0605 38.1862C58.0605 39.5283 59.1485 40.6162 60.4905 40.6162Z" fill="#FFC74B"/>
<path d="M65.1393 45.5263C66.5807 45.5263 67.7493 44.3578 67.7493 42.9163C67.7493 41.4748 66.5807 40.3063 65.1393 40.3063C63.6978 40.3063 62.5293 41.4748 62.5293 42.9163C62.5293 44.3578 63.6978 45.5263 65.1393 45.5263Z" fill="#3984C5"/>
<path d="M69.3909 40.6162C70.733 40.6162 71.8209 39.5283 71.8209 38.1862C71.8209 36.8442 70.733 35.7562 69.3909 35.7562C68.0489 35.7562 66.9609 36.8442 66.9609 38.1862C66.9609 39.5283 68.0489 40.6162 69.3909 40.6162Z" fill="#89C58B"/>
<path d="M21.4305 48.9463C27.2019 48.9463 31.8805 44.2677 31.8805 38.4963C31.8805 32.7249 27.2019 28.0463 21.4305 28.0463C15.6591 28.0463 10.9805 32.7249 10.9805 38.4963C10.9805 44.2677 15.6591 48.9463 21.4305 48.9463Z" fill="white"/>
<path d="M22.3394 31.3463H20.5094C19.9185 31.3463 19.4395 31.8253 19.4395 32.4163V44.5663C19.4395 45.1572 19.9185 45.6362 20.5094 45.6362H22.3394C22.9304 45.6362 23.4094 45.1572 23.4094 44.5663V32.4163C23.4094 31.8253 22.9304 31.3463 22.3394 31.3463Z" fill="#F37065"/>
<path d="M27.4993 36.5062H15.3493C14.7583 36.5062 14.2793 36.9853 14.2793 37.5762V39.4062C14.2793 39.9972 14.7583 40.4762 15.3493 40.4762H27.4993C28.0902 40.4762 28.5693 39.9972 28.5693 39.4062V37.5762C28.5693 36.9853 28.0902 36.5062 27.4993 36.5062Z" fill="#F37065"/>
</svg>
