<svg width="430" height="459" viewBox="0 0 430 459" fill="none" xmlns="http://www.w3.org/2000/svg">
<path d="M116.979 234.151L117.397 291.003L127.169 289.991L139.737 236.77C138.637 232.368 139.737 233.733 134.521 229.573L129.899 226.536C122.899 225.435 116.935 227.526 116.979 234.151Z" fill="url(#paint0_linear_377_6125)"/>
<path d="M237.791 358.111C237.791 358.111 229.956 397.553 248.488 407.81C248.488 407.81 246.287 402.968 247.278 401.207C248.268 399.446 250.073 400.283 252.472 402.462C256.104 405.785 275.583 418.881 297.086 412.872C297.086 412.872 291.43 407.678 290.748 405.389C290.065 403.1 332.567 425.396 355.369 389.982C355.369 389.982 337.981 389.586 333.117 380.099C321.54 357.539 308.576 353.687 308.576 353.687C308.576 353.687 319.933 355.624 322.112 351.684C322.112 351.684 313.484 349.153 309.39 335.309C305.296 321.465 284.012 328.464 280.271 329.498C276.529 330.533 277.365 327.848 279.743 327.297C282.12 326.747 286.83 324.37 290.902 324.194C290.902 324.194 266.955 311.978 254.211 335.001C241.467 358.023 237.791 358.111 237.791 358.111Z" fill="url(#paint1_linear_377_6125)"/>
<path d="M237.948 355.162C237.948 355.162 230.817 401.185 284.609 407.04C284.609 407.04 279.195 402 277.808 397.377C276.422 392.755 279.371 395.837 282.959 398.038C286.546 400.239 313.883 413.577 338.116 392.821C338.116 392.821 321.278 390.334 317.228 376.688C314.037 365.925 301.997 351.244 293.303 347.393C288.505 345.192 292.533 346.138 292.533 346.138C292.533 346.138 301.645 349.836 309.415 345.324C309.415 345.324 304.132 346.028 296.495 337.444C293.303 333.878 281.088 324.238 246.532 339.029L237.948 355.162Z" fill="url(#paint2_linear_377_6125)"/>
<path d="M228.155 350.386C228.155 350.386 226.79 384.524 273.451 386.262C273.451 386.262 264.515 380.298 263.635 377.458C262.754 374.619 265.616 374.575 267.663 376.182C269.71 377.789 289.276 399.204 311.903 386.681C311.903 386.681 296.65 383.247 288.572 361.435C279.922 338.06 250.759 325.801 240.282 330.995C231.192 335.397 228.155 350.386 228.155 350.386Z" fill="url(#paint3_linear_377_6125)"/>
<path d="M361.05 425.792C360.827 426.191 360.492 426.516 360.086 426.724C359.679 426.933 359.22 427.016 358.767 426.964C358.313 426.912 357.885 426.727 357.536 426.431C357.188 426.136 356.935 425.744 356.809 425.305C356.683 424.866 356.69 424.4 356.829 423.965C356.968 423.53 357.233 423.145 357.59 422.861C357.947 422.576 358.381 422.404 358.836 422.365C359.291 422.327 359.747 422.424 360.147 422.645C360.414 422.792 360.648 422.99 360.838 423.228C361.027 423.466 361.168 423.739 361.252 424.031C361.336 424.324 361.361 424.63 361.326 424.932C361.292 425.234 361.198 425.527 361.05 425.792ZM347.844 350.078C347.501 349.889 347.111 349.806 346.721 349.839C346.331 349.872 345.96 350.02 345.654 350.263C345.348 350.507 345.121 350.835 345.002 351.207C344.882 351.58 344.876 351.979 344.983 352.355C345.09 352.731 345.306 353.067 345.603 353.321C345.901 353.574 346.267 353.734 346.655 353.78C347.043 353.826 347.437 353.756 347.785 353.579C348.134 353.402 348.422 353.126 348.614 352.785C348.742 352.557 348.824 352.306 348.855 352.046C348.886 351.786 348.865 351.522 348.793 351.271C348.722 351.019 348.601 350.784 348.438 350.579C348.275 350.374 348.073 350.204 347.844 350.078ZM333.185 370.943C332.567 370.61 331.864 370.469 331.165 370.536C330.466 370.603 329.803 370.877 329.26 371.321C328.717 371.766 328.318 372.362 328.114 373.034C327.91 373.706 327.91 374.423 328.114 375.094C328.319 375.766 328.718 376.362 329.261 376.806C329.805 377.251 330.468 377.524 331.167 377.591C331.866 377.658 332.568 377.516 333.186 377.182C333.804 376.849 334.309 376.34 334.638 375.719C335.08 374.901 335.182 373.941 334.923 373.047C334.663 372.154 334.063 371.398 333.251 370.943H333.185ZM269.488 420.686C268.895 420.354 268.217 420.205 267.54 420.258C266.862 420.311 266.216 420.564 265.682 420.985C265.149 421.406 264.752 421.976 264.543 422.622C264.333 423.268 264.32 423.962 264.505 424.616C264.69 425.27 265.065 425.854 265.582 426.295C266.099 426.735 266.736 427.013 267.411 427.091C268.086 427.17 268.769 427.047 269.374 426.737C269.978 426.428 270.478 425.946 270.808 425.352C271.256 424.566 271.376 423.635 271.141 422.761C270.906 421.887 270.336 421.142 269.554 420.686H269.488ZM314.344 331.171C314.078 331.027 313.787 330.936 313.486 330.904C313.185 330.872 312.88 330.9 312.59 330.986C312.3 331.072 312.029 331.214 311.794 331.404C311.559 331.595 311.363 331.83 311.219 332.095C311.074 332.361 310.984 332.653 310.952 332.954C310.92 333.255 310.948 333.559 311.034 333.85C311.12 334.14 311.262 334.41 311.452 334.646C311.643 334.881 311.877 335.076 312.143 335.221C312.68 335.513 313.311 335.579 313.897 335.406C314.484 335.233 314.977 334.834 315.269 334.296C315.561 333.759 315.627 333.128 315.454 332.542C315.28 331.956 314.881 331.463 314.344 331.171ZM360.675 386.196C360.12 385.892 359.486 385.759 358.855 385.814C358.224 385.869 357.623 386.109 357.128 386.505C356.633 386.9 356.266 387.433 356.073 388.036C355.88 388.64 355.869 389.287 356.043 389.896C356.217 390.506 356.566 391.05 357.049 391.461C357.531 391.872 358.124 392.131 358.753 392.206C359.382 392.281 360.019 392.169 360.585 391.883C361.15 391.596 361.618 391.15 361.93 390.598C362.153 390.231 362.298 389.822 362.359 389.396C362.419 388.971 362.394 388.537 362.283 388.122C362.172 387.707 361.978 387.318 361.713 386.98C361.448 386.641 361.118 386.36 360.741 386.152L360.675 386.196ZM314.63 410.187C314.25 409.99 313.807 409.948 313.396 410.071C312.985 410.195 312.639 410.473 312.429 410.847C312.325 411.035 312.259 411.242 312.235 411.455C312.211 411.669 312.229 411.885 312.288 412.091C312.347 412.298 312.447 412.49 312.58 412.658C312.714 412.826 312.88 412.966 313.068 413.07C313.256 413.175 313.462 413.241 313.675 413.265C313.889 413.289 314.105 413.271 314.311 413.212C314.518 413.152 314.711 413.053 314.879 412.919C315.047 412.786 315.187 412.62 315.291 412.432C315.405 412.244 315.48 412.034 315.512 411.816C315.544 411.598 315.532 411.376 315.476 411.162C315.421 410.949 315.324 410.749 315.19 410.574C315.056 410.399 314.888 410.252 314.696 410.143L314.63 410.187ZM337.829 441.177C337.544 441.013 337.216 440.939 336.888 440.962C336.56 440.986 336.246 441.107 335.987 441.311C335.728 441.514 335.536 441.79 335.436 442.103C335.335 442.416 335.33 442.753 335.421 443.069C335.513 443.385 335.697 443.666 335.95 443.877C336.203 444.087 336.513 444.218 336.84 444.251C337.167 444.284 337.497 444.219 337.787 444.064C338.077 443.908 338.314 443.669 338.467 443.378C338.686 443.004 338.748 442.559 338.641 442.139C338.534 441.719 338.266 441.357 337.895 441.133L337.829 441.177ZM322.268 361.215C321.891 361.01 321.448 360.962 321.036 361.081C320.624 361.201 320.276 361.478 320.067 361.853C319.857 362.233 319.806 362.68 319.926 363.097C320.045 363.514 320.326 363.866 320.705 364.076C321.085 364.286 321.532 364.337 321.949 364.217C322.366 364.098 322.718 363.817 322.928 363.438C323.042 363.251 323.117 363.043 323.148 362.827C323.18 362.61 323.168 362.39 323.112 362.178C323.057 361.967 322.959 361.768 322.826 361.595C322.692 361.422 322.525 361.278 322.334 361.171L322.268 361.215ZM327.11 336.784C326.922 336.68 326.716 336.614 326.502 336.589C326.289 336.565 326.073 336.583 325.866 336.642C325.66 336.702 325.467 336.801 325.299 336.935C325.131 337.069 324.991 337.234 324.887 337.422C324.783 337.61 324.717 337.816 324.693 338.03C324.668 338.243 324.687 338.459 324.746 338.666C324.805 338.872 324.904 339.065 325.038 339.233C325.172 339.401 325.337 339.541 325.525 339.645C325.905 339.855 326.352 339.906 326.769 339.786C327.186 339.666 327.538 339.386 327.748 339.007C327.959 338.627 328.009 338.18 327.89 337.763C327.77 337.346 327.49 336.994 327.11 336.784ZM335.914 417.517C335.533 417.319 335.091 417.278 334.68 417.401C334.269 417.524 333.922 417.802 333.713 418.177C333.503 418.556 333.452 419.004 333.572 419.421C333.692 419.837 333.972 420.19 334.351 420.4C334.731 420.61 335.178 420.661 335.595 420.541C336.012 420.421 336.364 420.141 336.574 419.762C336.79 419.394 336.856 418.958 336.757 418.544C336.659 418.13 336.404 417.769 336.046 417.539L335.914 417.517ZM316.105 431.053C315.522 430.731 314.857 430.59 314.193 430.646C313.53 430.702 312.898 430.954 312.377 431.37C311.857 431.785 311.472 432.346 311.27 432.98C311.068 433.615 311.058 434.295 311.243 434.935C311.428 435.575 311.798 436.145 312.307 436.575C312.815 437.004 313.44 437.273 314.102 437.348C314.764 437.422 315.432 437.299 316.024 436.993C316.616 436.688 317.103 436.214 317.426 435.631C317.652 435.246 317.8 434.82 317.859 434.378C317.919 433.936 317.889 433.486 317.772 433.055C317.655 432.625 317.454 432.222 317.179 431.87C316.904 431.519 316.561 431.226 316.171 431.009L316.105 431.053ZM296.296 424.009C295.917 423.799 295.469 423.749 295.052 423.868C294.635 423.988 294.283 424.268 294.073 424.648C293.863 425.027 293.812 425.475 293.932 425.892C294.051 426.308 294.332 426.661 294.711 426.871C294.899 426.975 295.106 427.041 295.319 427.065C295.533 427.089 295.749 427.071 295.955 427.012C296.161 426.953 296.354 426.853 296.522 426.72C296.69 426.586 296.83 426.42 296.934 426.233C297.038 426.045 297.104 425.838 297.129 425.625C297.153 425.411 297.135 425.195 297.076 424.989C297.016 424.782 296.917 424.59 296.783 424.422C296.649 424.254 296.484 424.114 296.296 424.009ZM347.403 374.663C346.932 374.409 346.38 374.35 345.866 374.498C345.352 374.646 344.916 374.99 344.652 375.455C344.458 375.806 344.373 376.206 344.406 376.605C344.44 377.004 344.591 377.384 344.841 377.698C345.09 378.011 345.427 378.243 345.809 378.365C346.19 378.486 346.6 378.492 346.984 378.381C347.369 378.27 347.713 378.048 347.971 377.742C348.23 377.436 348.391 377.06 348.436 376.662C348.481 376.264 348.407 375.862 348.223 375.506C348.039 375.15 347.754 374.857 347.403 374.663ZM246.157 405.741C245.686 405.487 245.134 405.428 244.62 405.576C244.106 405.724 243.67 406.068 243.406 406.534C243.271 406.767 243.184 407.024 243.149 407.291C243.115 407.559 243.134 407.83 243.206 408.09C243.278 408.349 243.401 408.592 243.568 408.803C243.735 409.015 243.942 409.191 244.178 409.321C244.414 409.451 244.673 409.533 244.941 409.562C245.209 409.591 245.48 409.566 245.738 409.489C245.996 409.412 246.236 409.284 246.444 409.113C246.652 408.942 246.824 408.731 246.949 408.492C247.081 408.256 247.165 407.995 247.195 407.726C247.225 407.457 247.202 407.185 247.126 406.925C247.05 406.665 246.924 406.422 246.754 406.212C246.583 406.001 246.373 405.826 246.135 405.697L246.157 405.741Z" fill="url(#paint4_linear_377_6125)"/>
<path fill-rule="evenodd" clip-rule="evenodd" d="M426.335 392.095C426.307 391.848 426.183 391.621 425.989 391.465C425.796 391.308 425.548 391.234 425.3 391.259C425.055 391.292 424.832 391.417 424.676 391.61C424.521 391.802 424.445 392.047 424.464 392.293C424.497 392.537 424.623 392.758 424.816 392.91C425.009 393.062 425.254 393.133 425.498 393.108C425.62 393.097 425.738 393.062 425.846 393.005C425.954 392.948 426.05 392.87 426.127 392.776C426.205 392.682 426.264 392.573 426.299 392.456C426.335 392.339 426.347 392.217 426.335 392.095Z" fill="white"/>
<path style="mix-blend-mode:screen" opacity="0.61" fill-rule="evenodd" clip-rule="evenodd" d="M429.146 391.787C429.038 390.794 428.54 389.886 427.762 389.26C426.984 388.635 425.99 388.344 424.997 388.452C424.005 388.56 423.096 389.058 422.471 389.836C421.845 390.614 421.555 391.609 421.663 392.601C421.771 393.594 422.269 394.502 423.047 395.128C423.825 395.753 424.819 396.044 425.812 395.936C426.804 395.828 427.713 395.33 428.338 394.552C428.963 393.774 429.254 392.779 429.146 391.787Z" fill="url(#paint5_radial_377_6125)"/>
<path style="mix-blend-mode:screen" opacity="0.61" fill-rule="evenodd" clip-rule="evenodd" d="M427.082 392.007C427.045 391.661 426.906 391.333 426.683 391.066C426.46 390.798 426.163 390.603 425.829 390.504C425.494 390.406 425.139 390.409 424.806 390.513C424.474 390.617 424.179 390.817 423.961 391.088C423.742 391.359 423.609 391.689 423.577 392.036C423.546 392.383 423.619 392.731 423.785 393.037C423.952 393.343 424.206 393.592 424.515 393.754C424.823 393.915 425.173 393.981 425.519 393.944C425.983 393.894 426.408 393.662 426.701 393.299C426.994 392.936 427.131 392.471 427.082 392.007Z" fill="url(#paint6_radial_377_6125)"/>
<path fill-rule="evenodd" clip-rule="evenodd" d="M394.965 390.709C394.949 390.467 394.884 390.23 394.775 390.014C394.665 389.797 394.513 389.605 394.327 389.448C394.142 389.292 393.926 389.175 393.694 389.103C393.462 389.032 393.218 389.008 392.977 389.033C392.735 389.059 392.502 389.132 392.289 389.25C392.077 389.367 391.891 389.527 391.741 389.718C391.592 389.909 391.483 390.129 391.42 390.364C391.358 390.598 391.343 390.843 391.377 391.083C391.394 391.325 391.458 391.562 391.568 391.778C391.677 391.995 391.83 392.187 392.015 392.344C392.201 392.5 392.416 392.617 392.648 392.689C392.88 392.76 393.124 392.784 393.365 392.759C393.607 392.733 393.841 392.66 394.053 392.542C394.265 392.424 394.452 392.265 394.601 392.074C394.75 391.882 394.86 391.663 394.922 391.428C394.985 391.194 394.999 390.949 394.965 390.709Z" fill="white"/>
<path style="mix-blend-mode:screen" opacity="0.61" fill-rule="evenodd" clip-rule="evenodd" d="M400.385 390.114C400.229 388.691 399.654 387.347 398.734 386.25C397.815 385.153 396.59 384.354 395.216 383.953C393.842 383.551 392.38 383.566 391.015 383.996C389.649 384.425 388.441 385.25 387.544 386.365C386.647 387.48 386.101 388.837 385.974 390.262C385.847 391.688 386.146 393.119 386.832 394.376C387.518 395.632 388.561 396.656 389.83 397.32C391.098 397.983 392.535 398.256 393.958 398.104C394.905 398.002 395.823 397.715 396.659 397.258C397.494 396.802 398.232 396.185 398.829 395.442C399.426 394.7 399.871 393.848 400.138 392.933C400.405 392.019 400.489 391.061 400.385 390.114Z" fill="url(#paint7_radial_377_6125)"/>
<path style="mix-blend-mode:screen" opacity="0.61" fill-rule="evenodd" clip-rule="evenodd" d="M396.552 390.532C396.521 390.077 396.398 389.633 396.191 389.227C395.984 388.821 395.697 388.461 395.347 388.168C394.997 387.875 394.592 387.656 394.156 387.523C393.719 387.391 393.261 387.348 392.807 387.396C392.354 387.445 391.915 387.585 391.517 387.808C391.119 388.03 390.77 388.331 390.491 388.691C390.211 389.052 390.008 389.465 389.892 389.906C389.776 390.348 389.751 390.807 389.817 391.259C389.944 392.126 390.403 392.91 391.096 393.447C391.789 393.983 392.663 394.231 393.534 394.137C394.406 394.043 395.207 393.615 395.77 392.943C396.332 392.271 396.613 391.407 396.552 390.532Z" fill="url(#paint8_radial_377_6125)"/>
<path fill-rule="evenodd" clip-rule="evenodd" d="M306.027 356.681C306.01 356.519 305.962 356.361 305.884 356.218C305.807 356.075 305.701 355.948 305.574 355.846C305.447 355.743 305.301 355.667 305.145 355.622C304.988 355.576 304.824 355.562 304.662 355.58C304.5 355.598 304.344 355.647 304.201 355.725C304.058 355.803 303.932 355.908 303.829 356.035C303.727 356.161 303.651 356.307 303.605 356.463C303.559 356.619 303.544 356.783 303.562 356.945C303.579 357.107 303.628 357.264 303.706 357.407C303.784 357.549 303.889 357.676 304.016 357.778C304.143 357.88 304.288 357.956 304.445 358.002C304.601 358.048 304.764 358.063 304.926 358.045C305.089 358.029 305.246 357.98 305.389 357.903C305.533 357.825 305.659 357.72 305.762 357.593C305.864 357.466 305.94 357.32 305.986 357.163C306.031 357.007 306.045 356.843 306.027 356.681Z" fill="white"/>
<path style="mix-blend-mode:screen" opacity="0.61" fill-rule="evenodd" clip-rule="evenodd" d="M309.703 356.263C309.593 355.281 309.193 354.354 308.555 353.599C307.917 352.844 307.07 352.295 306.12 352.022C305.171 351.748 304.161 351.763 303.22 352.063C302.278 352.364 301.447 352.936 300.831 353.709C300.215 354.482 299.842 355.421 299.76 356.405C299.677 357.39 299.888 358.377 300.367 359.242C300.846 360.107 301.57 360.81 302.448 361.263C303.326 361.716 304.319 361.899 305.301 361.787C306.617 361.638 307.821 360.972 308.646 359.936C309.472 358.9 309.852 357.579 309.703 356.263Z" fill="url(#paint9_radial_377_6125)"/>
<path style="mix-blend-mode:screen" opacity="0.61" fill-rule="evenodd" clip-rule="evenodd" d="M307.058 356.549C307.011 356.084 306.827 355.643 306.529 355.283C306.231 354.923 305.832 354.66 305.384 354.527C304.936 354.394 304.458 354.398 304.012 354.537C303.566 354.677 303.171 354.946 302.879 355.31C302.586 355.675 302.408 356.118 302.368 356.584C302.328 357.049 302.427 357.516 302.654 357.925C302.88 358.334 303.223 358.667 303.639 358.88C304.055 359.094 304.525 359.179 304.989 359.124C305.294 359.091 305.59 358.999 305.859 358.851C306.128 358.704 306.365 358.505 306.558 358.266C306.75 358.027 306.893 357.752 306.979 357.457C307.065 357.163 307.091 356.854 307.058 356.549Z" fill="url(#paint10_radial_377_6125)"/>
<path fill-rule="evenodd" clip-rule="evenodd" d="M256.59 437.348C256.572 437.197 256.509 437.055 256.41 436.94C256.312 436.825 256.181 436.741 256.035 436.699C255.889 436.658 255.733 436.661 255.589 436.708C255.444 436.754 255.317 436.842 255.222 436.961C255.127 437.08 255.07 437.225 255.057 437.376C255.045 437.527 255.077 437.679 255.15 437.812C255.224 437.945 255.335 438.054 255.469 438.124C255.604 438.194 255.756 438.223 255.908 438.207C256.11 438.179 256.294 438.075 256.421 437.915C256.548 437.755 256.609 437.552 256.59 437.348Z" fill="white"/>
<path style="mix-blend-mode:screen" opacity="0.61" fill-rule="evenodd" clip-rule="evenodd" d="M258.927 437.15C258.858 436.536 258.609 435.957 258.211 435.485C257.813 435.012 257.285 434.668 256.692 434.496C256.099 434.324 255.468 434.332 254.879 434.518C254.29 434.704 253.77 435.06 253.383 435.542C252.997 436.023 252.762 436.609 252.707 437.224C252.653 437.839 252.782 438.456 253.079 438.998C253.375 439.54 253.825 439.982 254.373 440.268C254.92 440.554 255.54 440.671 256.154 440.606C256.563 440.562 256.96 440.438 257.321 440.24C257.682 440.042 258.001 439.775 258.258 439.454C258.516 439.133 258.708 438.764 258.822 438.369C258.937 437.973 258.973 437.559 258.927 437.15Z" fill="url(#paint11_radial_377_6125)"/>
<path style="mix-blend-mode:screen" opacity="0.61" fill-rule="evenodd" clip-rule="evenodd" d="M257.273 437.348C257.232 436.962 257.04 436.609 256.738 436.366C256.437 436.122 256.051 436.008 255.666 436.049C255.281 436.09 254.928 436.282 254.684 436.584C254.44 436.885 254.327 437.271 254.368 437.656C254.412 438.04 254.605 438.391 254.905 438.634C255.206 438.876 255.59 438.992 255.974 438.955C256.165 438.935 256.351 438.878 256.52 438.787C256.689 438.696 256.838 438.572 256.959 438.422C257.08 438.273 257.17 438.101 257.223 437.916C257.277 437.732 257.294 437.539 257.273 437.348Z" fill="url(#paint12_radial_377_6125)"/>
<path fill-rule="evenodd" clip-rule="evenodd" d="M361.713 371.714C361.686 371.511 361.581 371.327 361.421 371.2C361.261 371.073 361.058 371.012 360.855 371.031C360.752 371.039 360.652 371.068 360.562 371.116C360.471 371.165 360.391 371.231 360.327 371.312C360.263 371.392 360.216 371.485 360.189 371.585C360.163 371.684 360.157 371.788 360.173 371.89C360.195 372.09 360.295 372.274 360.451 372.402C360.608 372.529 360.808 372.59 361.009 372.572C361.215 372.55 361.405 372.447 361.537 372.287C361.668 372.126 361.732 371.92 361.713 371.714Z" fill="white"/>
<path style="mix-blend-mode:screen" opacity="0.61" fill-rule="evenodd" clip-rule="evenodd" d="M364.044 371.45C363.954 370.624 363.539 369.867 362.891 369.347C362.243 368.827 361.415 368.586 360.589 368.676C359.763 368.767 359.006 369.182 358.486 369.83C357.966 370.478 357.725 371.306 357.816 372.132C357.86 372.541 357.985 372.937 358.183 373.298C358.381 373.659 358.648 373.977 358.969 374.234C359.29 374.492 359.658 374.684 360.053 374.799C360.448 374.914 360.862 374.95 361.271 374.905C361.68 374.86 362.076 374.736 362.437 374.538C362.798 374.34 363.116 374.073 363.373 373.752C363.631 373.431 363.823 373.062 363.938 372.667C364.053 372.272 364.089 371.859 364.044 371.45Z" fill="url(#paint13_radial_377_6125)"/>
<path style="mix-blend-mode:screen" opacity="0.61" fill-rule="evenodd" clip-rule="evenodd" d="M362.396 371.648C362.364 371.363 362.249 371.094 362.065 370.874C361.88 370.655 361.635 370.495 361.36 370.415C361.085 370.334 360.792 370.337 360.519 370.423C360.245 370.508 360.003 370.673 359.823 370.896C359.643 371.119 359.533 371.39 359.506 371.676C359.48 371.961 359.538 372.248 359.675 372.5C359.811 372.752 360.019 372.958 360.272 373.093C360.525 373.227 360.813 373.283 361.098 373.255C361.479 373.205 361.827 373.01 362.069 372.711C362.31 372.412 362.428 372.031 362.396 371.648Z" fill="url(#paint14_radial_377_6125)"/>
<path fill-rule="evenodd" clip-rule="evenodd" d="M331.731 400.195C331.737 400.072 331.718 399.949 331.676 399.833C331.633 399.717 331.568 399.611 331.484 399.521C331.4 399.43 331.299 399.358 331.186 399.307C331.074 399.257 330.952 399.229 330.829 399.227C330.707 399.218 330.584 399.234 330.468 399.273C330.353 399.313 330.246 399.376 330.156 399.459C330.065 399.541 329.992 399.641 329.941 399.753C329.891 399.864 329.863 399.985 329.86 400.107C329.855 400.228 329.873 400.35 329.914 400.464C329.955 400.579 330.018 400.684 330.1 400.774C330.182 400.864 330.28 400.937 330.39 400.988C330.5 401.04 330.619 401.07 330.741 401.075C330.864 401.084 330.988 401.069 331.105 401.029C331.222 400.989 331.33 400.926 331.422 400.844C331.514 400.762 331.589 400.663 331.642 400.551C331.695 400.439 331.726 400.318 331.731 400.195Z" fill="white"/>
<path style="mix-blend-mode:screen" opacity="0.61" fill-rule="evenodd" clip-rule="evenodd" d="M334.64 400.349C334.678 399.606 334.495 398.868 334.114 398.229C333.733 397.59 333.171 397.078 332.5 396.758C331.828 396.438 331.077 396.325 330.34 396.432C329.604 396.538 328.916 396.861 328.363 397.359C327.81 397.856 327.417 398.507 327.233 399.228C327.05 399.949 327.084 400.708 327.332 401.409C327.58 402.111 328.03 402.723 328.625 403.169C329.221 403.615 329.935 403.874 330.678 403.915C331.172 403.941 331.667 403.87 332.134 403.705C332.601 403.54 333.031 403.285 333.399 402.954C333.767 402.623 334.066 402.222 334.279 401.775C334.492 401.328 334.614 400.843 334.64 400.349Z" fill="url(#paint15_radial_377_6125)"/>
<path style="mix-blend-mode:screen" opacity="0.61" fill-rule="evenodd" clip-rule="evenodd" d="M332.551 400.239C332.568 399.891 332.481 399.546 332.302 399.248C332.123 398.949 331.86 398.71 331.545 398.562C331.231 398.413 330.879 398.36 330.535 398.411C330.19 398.462 329.869 398.614 329.611 398.847C329.353 399.081 329.17 399.386 329.085 399.723C329 400.061 329.017 400.416 329.133 400.744C329.25 401.072 329.461 401.358 329.741 401.566C330.02 401.773 330.354 401.894 330.702 401.912C331.168 401.93 331.622 401.765 331.967 401.452C332.313 401.14 332.522 400.704 332.551 400.239Z" fill="url(#paint16_radial_377_6125)"/>
<path fill-rule="evenodd" clip-rule="evenodd" d="M345.296 440.979C345.277 440.531 345.093 440.105 344.778 439.786C344.463 439.466 344.04 439.275 343.592 439.251C343.144 439.226 342.703 439.369 342.354 439.652C342.006 439.935 341.776 440.338 341.708 440.781C341.67 441.03 341.685 441.284 341.751 441.527C341.817 441.769 341.933 441.996 342.092 442.191C342.25 442.386 342.448 442.546 342.672 442.66C342.896 442.775 343.142 442.841 343.393 442.855C343.644 442.869 343.895 442.83 344.131 442.741C344.366 442.652 344.58 442.515 344.759 442.338C344.938 442.161 345.079 441.949 345.171 441.715C345.263 441.481 345.306 441.231 345.296 440.979Z" fill="white"/>
<path style="mix-blend-mode:screen" opacity="0.61" fill-rule="evenodd" clip-rule="evenodd" d="M350.723 441.266C350.795 439.836 350.442 438.417 349.708 437.188C348.974 435.96 347.892 434.976 346.6 434.361C345.307 433.747 343.861 433.53 342.445 433.736C341.028 433.943 339.705 434.565 338.642 435.524C337.579 436.483 336.824 437.735 336.472 439.122C336.12 440.509 336.188 441.97 336.665 443.319C337.143 444.669 338.011 445.846 339.157 446.703C340.304 447.559 341.679 448.057 343.108 448.133C344.059 448.183 345.011 448.046 345.909 447.727C346.807 447.409 347.633 446.917 348.341 446.28C349.048 445.642 349.623 444.87 350.032 444.01C350.441 443.15 350.676 442.217 350.723 441.266Z" fill="url(#paint17_radial_377_6125)"/>
<path style="mix-blend-mode:screen" opacity="0.61" fill-rule="evenodd" clip-rule="evenodd" d="M346.874 441.067C346.927 440.608 346.885 440.142 346.75 439.699C346.616 439.257 346.393 438.846 346.094 438.493C345.795 438.14 345.427 437.852 345.012 437.646C344.597 437.441 344.145 437.322 343.683 437.298C343.221 437.274 342.759 437.345 342.325 437.506C341.892 437.667 341.496 437.916 341.162 438.236C340.827 438.556 340.563 438.941 340.383 439.367C340.203 439.794 340.113 440.252 340.117 440.715C340.126 441.578 340.462 442.405 341.059 443.028C341.656 443.651 342.469 444.023 343.33 444.068C344.192 444.113 345.038 443.827 345.697 443.27C346.356 442.712 346.777 441.925 346.874 441.067Z" fill="url(#paint18_radial_377_6125)"/>
<path fill-rule="evenodd" clip-rule="evenodd" d="M285.139 431.317C285.152 431.09 285.097 430.865 284.981 430.669C284.866 430.474 284.694 430.317 284.489 430.219C284.284 430.121 284.055 430.087 283.83 430.12C283.605 430.153 283.395 430.252 283.227 430.404C283.059 430.557 282.94 430.756 282.885 430.977C282.831 431.197 282.843 431.429 282.92 431.643C282.998 431.856 283.137 432.042 283.321 432.176C283.504 432.31 283.723 432.386 283.95 432.396C284.099 432.404 284.249 432.383 284.39 432.334C284.531 432.284 284.661 432.207 284.771 432.106C284.882 432.006 284.972 431.884 285.035 431.749C285.098 431.613 285.133 431.466 285.139 431.317Z" fill="white"/>
<path style="mix-blend-mode:screen" opacity="0.61" fill-rule="evenodd" clip-rule="evenodd" d="M288.595 431.516C288.633 430.609 288.401 429.711 287.93 428.936C287.459 428.16 286.769 427.541 285.947 427.157C285.125 426.772 284.207 426.64 283.31 426.776C282.413 426.912 281.576 427.31 280.904 427.92C280.233 428.531 279.757 429.326 279.536 430.206C279.316 431.087 279.361 432.012 279.665 432.867C279.97 433.722 280.52 434.468 281.247 435.011C281.975 435.553 282.846 435.869 283.752 435.918C284.361 435.953 284.97 435.867 285.545 435.664C286.12 435.461 286.648 435.145 287.099 434.735C287.55 434.325 287.915 433.829 288.172 433.276C288.428 432.723 288.572 432.125 288.595 431.516Z" fill="url(#paint19_radial_377_6125)"/>
<path style="mix-blend-mode:screen" opacity="0.61" fill-rule="evenodd" clip-rule="evenodd" d="M286.223 431.383C286.258 430.942 286.16 430.5 285.941 430.116C285.721 429.732 285.391 429.422 284.993 429.228C284.596 429.035 284.149 428.965 283.711 429.029C283.273 429.093 282.865 429.287 282.539 429.587C282.213 429.887 281.985 430.278 281.885 430.709C281.785 431.14 281.817 431.591 281.977 432.003C282.137 432.416 282.418 432.771 282.783 433.021C283.148 433.272 283.58 433.406 284.022 433.408C284.577 433.41 285.111 433.202 285.519 432.827C285.927 432.451 286.179 431.936 286.223 431.383Z" fill="url(#paint20_radial_377_6125)"/>
<g style="mix-blend-mode:screen" opacity="0.61">
<path fill-rule="evenodd" clip-rule="evenodd" d="M293.193 389.476C293.199 389.375 293.185 389.274 293.151 389.178C293.118 389.082 293.066 388.994 292.999 388.918C292.931 388.843 292.85 388.781 292.758 388.737C292.667 388.693 292.568 388.667 292.467 388.662C292.26 388.65 292.057 388.719 291.9 388.854C291.744 388.99 291.647 389.182 291.63 389.388C291.624 389.491 291.639 389.594 291.674 389.691C291.708 389.788 291.762 389.878 291.832 389.954C291.902 390.03 291.986 390.091 292.08 390.134C292.174 390.176 292.275 390.2 292.378 390.202C292.48 390.208 292.581 390.194 292.677 390.161C292.773 390.128 292.861 390.076 292.936 390.008C293.012 389.941 293.074 389.859 293.118 389.768C293.162 389.676 293.187 389.577 293.193 389.476Z" fill="white"/>
<path style="mix-blend-mode:screen" opacity="0.61" fill-rule="evenodd" clip-rule="evenodd" d="M295.527 389.608C295.561 388.99 295.411 388.376 295.096 387.844C294.781 387.311 294.315 386.884 293.757 386.617C293.199 386.35 292.574 386.254 291.962 386.342C291.349 386.43 290.777 386.698 290.317 387.112C289.857 387.526 289.53 388.067 289.377 388.666C289.225 389.266 289.254 389.897 289.461 390.48C289.668 391.064 290.043 391.572 290.539 391.942C291.035 392.312 291.63 392.526 292.248 392.557C292.657 392.581 293.067 392.523 293.455 392.388C293.842 392.252 294.198 392.041 294.503 391.766C294.808 391.492 295.055 391.16 295.231 390.79C295.407 390.419 295.508 390.017 295.527 389.608Z" fill="url(#paint21_radial_377_6125)"/>
<path style="mix-blend-mode:screen" opacity="0.61" fill-rule="evenodd" clip-rule="evenodd" d="M293.879 389.52C293.9 389.228 293.834 388.935 293.689 388.681C293.544 388.426 293.325 388.22 293.063 388.09C292.8 387.96 292.504 387.911 292.213 387.95C291.923 387.989 291.65 388.113 291.43 388.308C291.211 388.502 291.054 388.758 290.981 389.042C290.907 389.326 290.92 389.625 291.017 389.902C291.115 390.178 291.293 390.42 291.528 390.595C291.763 390.77 292.045 390.871 292.338 390.885C292.529 390.897 292.72 390.871 292.901 390.809C293.082 390.746 293.249 390.649 293.392 390.522C293.535 390.395 293.652 390.242 293.735 390.07C293.819 389.898 293.868 389.711 293.879 389.52Z" fill="url(#paint22_radial_377_6125)"/>
</g>
<path fill-rule="evenodd" clip-rule="evenodd" d="M281.943 379.923C281.946 379.842 281.933 379.762 281.905 379.686C281.877 379.61 281.834 379.54 281.779 379.481C281.723 379.422 281.657 379.374 281.583 379.34C281.51 379.307 281.43 379.288 281.349 379.285C281.269 379.279 281.189 379.289 281.113 379.315C281.038 379.341 280.968 379.382 280.908 379.435C280.849 379.489 280.8 379.554 280.766 379.626C280.733 379.699 280.714 379.777 280.711 379.857C280.711 379.938 280.727 380.018 280.758 380.093C280.789 380.168 280.834 380.236 280.891 380.293C280.949 380.35 281.017 380.396 281.091 380.427C281.166 380.458 281.246 380.474 281.327 380.474C281.408 380.474 281.488 380.458 281.563 380.427C281.638 380.396 281.706 380.35 281.763 380.293C281.82 380.236 281.866 380.168 281.897 380.093C281.928 380.018 281.943 379.938 281.943 379.857V379.923Z" fill="white"/>
<path style="mix-blend-mode:screen" opacity="0.61" fill-rule="evenodd" clip-rule="evenodd" d="M283.812 380.122C283.837 379.626 283.715 379.133 283.46 378.706C283.206 378.279 282.83 377.938 282.381 377.725C281.932 377.512 281.43 377.437 280.938 377.51C280.447 377.583 279.988 377.8 279.62 378.134C279.252 378.468 278.991 378.904 278.871 379.386C278.751 379.868 278.777 380.375 278.945 380.843C279.114 381.311 279.417 381.717 279.817 382.012C280.218 382.307 280.696 382.476 281.193 382.499C281.855 382.529 282.502 382.296 282.992 381.85C283.483 381.405 283.778 380.784 283.812 380.122Z" fill="url(#paint23_radial_377_6125)"/>
<path style="mix-blend-mode:screen" opacity="0.61" fill-rule="evenodd" clip-rule="evenodd" d="M282.499 379.967C282.511 379.659 282.403 379.359 282.198 379.129C281.993 378.899 281.706 378.757 281.398 378.735C281.245 378.723 281.09 378.742 280.944 378.792C280.797 378.841 280.663 378.919 280.547 379.022C280.432 379.125 280.339 379.25 280.274 379.39C280.208 379.53 280.171 379.681 280.166 379.835C280.148 380.145 280.255 380.448 280.461 380.68C280.667 380.911 280.957 381.05 281.266 381.068C281.576 381.085 281.879 380.979 282.111 380.773C282.342 380.567 282.481 380.277 282.499 379.967Z" fill="url(#paint24_radial_377_6125)"/>
<path fill-rule="evenodd" clip-rule="evenodd" d="M280.472 371.89C280.433 371.56 280.265 371.259 280.005 371.053C279.745 370.847 279.415 370.752 279.085 370.789C278.923 370.806 278.765 370.854 278.622 370.932C278.479 371.009 278.352 371.115 278.25 371.242C278.147 371.369 278.071 371.515 278.026 371.671C277.98 371.828 277.966 371.992 277.984 372.154C278.043 372.464 278.215 372.74 278.469 372.929C278.722 373.117 279.036 373.203 279.35 373.17C279.663 373.136 279.953 372.986 280.161 372.749C280.369 372.512 280.48 372.205 280.472 371.89Z" fill="white"/>
<path style="mix-blend-mode:screen" opacity="0.61" fill-rule="evenodd" clip-rule="evenodd" d="M284.211 371.472C284.103 370.483 283.705 369.548 283.066 368.787C282.426 368.025 281.575 367.47 280.62 367.193C279.665 366.916 278.649 366.929 277.701 367.23C276.753 367.531 275.916 368.107 275.297 368.885C274.677 369.663 274.302 370.607 274.22 371.599C274.138 372.59 274.353 373.583 274.836 374.452C275.319 375.321 276.05 376.027 276.935 376.48C277.821 376.933 278.821 377.113 279.809 376.996C281.125 376.847 282.328 376.181 283.153 375.145C283.979 374.109 284.359 372.788 284.211 371.472Z" fill="url(#paint25_radial_377_6125)"/>
<path style="mix-blend-mode:screen" opacity="0.61" fill-rule="evenodd" clip-rule="evenodd" d="M281.551 371.758C281.5 371.3 281.315 370.866 281.018 370.513C280.722 370.16 280.327 369.903 279.884 369.774C279.441 369.645 278.97 369.65 278.53 369.788C278.091 369.927 277.702 370.193 277.413 370.552C277.124 370.912 276.948 371.349 276.907 371.808C276.867 372.268 276.963 372.729 277.185 373.133C277.406 373.538 277.743 373.868 278.151 374.081C278.56 374.295 279.023 374.383 279.482 374.333C280.095 374.261 280.656 373.951 281.043 373.469C281.43 372.987 281.612 372.373 281.551 371.758Z" fill="url(#paint26_radial_377_6125)"/>
<path fill-rule="evenodd" clip-rule="evenodd" d="M315.823 362.822C315.795 362.619 315.69 362.435 315.53 362.308C315.37 362.181 315.168 362.12 314.964 362.139C314.862 362.147 314.762 362.176 314.671 362.225C314.58 362.273 314.5 362.339 314.436 362.42C314.372 362.5 314.325 362.593 314.299 362.693C314.272 362.792 314.266 362.896 314.282 362.998C314.304 363.198 314.404 363.382 314.561 363.51C314.717 363.638 314.917 363.699 315.118 363.68C315.325 363.658 315.514 363.555 315.646 363.395C315.778 363.234 315.841 363.029 315.823 362.822Z" fill="white"/>
<path style="mix-blend-mode:screen" opacity="0.61" fill-rule="evenodd" clip-rule="evenodd" d="M318.154 362.513C318.063 361.687 317.648 360.931 317 360.411C316.352 359.891 315.524 359.65 314.698 359.74C313.872 359.831 313.116 360.245 312.596 360.894C312.076 361.542 311.834 362.37 311.925 363.196C312.015 364.022 312.43 364.778 313.078 365.298C313.726 365.818 314.554 366.059 315.38 365.969C316.206 365.878 316.963 365.464 317.483 364.816C318.003 364.167 318.244 363.339 318.154 362.513Z" fill="url(#paint27_radial_377_6125)"/>
<path style="mix-blend-mode:screen" opacity="0.61" fill-rule="evenodd" clip-rule="evenodd" d="M316.501 362.756C316.456 362.368 316.26 362.013 315.955 361.77C315.649 361.526 315.26 361.414 314.872 361.457C314.49 361.501 314.141 361.695 313.901 361.997C313.662 362.298 313.552 362.682 313.595 363.064C313.614 363.255 313.671 363.441 313.763 363.61C313.854 363.779 313.978 363.928 314.127 364.049C314.277 364.169 314.449 364.259 314.633 364.313C314.818 364.367 315.011 364.384 315.202 364.362C315.583 364.313 315.931 364.118 316.173 363.819C316.415 363.52 316.532 363.139 316.501 362.756Z" fill="url(#paint28_radial_377_6125)"/>
<path fill-rule="evenodd" clip-rule="evenodd" d="M336.202 386.923C336.174 386.721 336.07 386.537 335.91 386.409C335.75 386.282 335.547 386.222 335.344 386.241C335.242 386.252 335.144 386.284 335.055 386.333C334.966 386.382 334.888 386.449 334.825 386.529C334.761 386.608 334.714 386.7 334.686 386.798C334.658 386.895 334.65 386.998 334.661 387.099C334.673 387.2 334.704 387.298 334.754 387.387C334.803 387.476 334.869 387.555 334.949 387.618C335.029 387.681 335.12 387.728 335.218 387.756C335.316 387.784 335.419 387.793 335.52 387.781C335.722 387.754 335.906 387.649 336.033 387.489C336.16 387.329 336.221 387.126 336.202 386.923Z" fill="white"/>
<path style="mix-blend-mode:screen" opacity="0.61" fill-rule="evenodd" clip-rule="evenodd" d="M338.536 386.725C338.467 386.111 338.218 385.532 337.821 385.059C337.423 384.587 336.894 384.243 336.301 384.071C335.708 383.899 335.077 383.906 334.488 384.093C333.9 384.279 333.379 384.635 332.993 385.116C332.606 385.598 332.371 386.183 332.317 386.798C332.263 387.414 332.392 388.031 332.688 388.573C332.985 389.114 333.435 389.556 333.982 389.842C334.529 390.128 335.149 390.246 335.763 390.18C336.172 390.137 336.569 390.012 336.93 389.815C337.291 389.617 337.61 389.35 337.868 389.029C338.125 388.708 338.317 388.339 338.432 387.944C338.547 387.548 338.582 387.134 338.536 386.725Z" fill="url(#paint29_radial_377_6125)"/>
<path style="mix-blend-mode:screen" opacity="0.61" fill-rule="evenodd" clip-rule="evenodd" d="M336.835 386.857C336.795 386.471 336.602 386.118 336.301 385.874C336 385.631 335.614 385.517 335.229 385.558C334.843 385.599 334.49 385.791 334.247 386.092C334.003 386.394 333.889 386.779 333.93 387.165C333.95 387.355 334.008 387.54 334.1 387.709C334.191 387.877 334.315 388.026 334.464 388.147C334.614 388.267 334.785 388.357 334.969 388.412C335.153 388.466 335.346 388.484 335.537 388.463C335.727 388.443 335.912 388.385 336.081 388.294C336.249 388.202 336.398 388.078 336.519 387.929C336.639 387.78 336.729 387.608 336.784 387.424C336.838 387.24 336.856 387.047 336.835 386.857Z" fill="url(#paint30_radial_377_6125)"/>
<path fill-rule="evenodd" clip-rule="evenodd" d="M306.224 415.338C306.23 415.216 306.211 415.095 306.17 414.98C306.129 414.866 306.066 414.761 305.984 414.671C305.902 414.581 305.804 414.508 305.694 414.456C305.584 414.404 305.465 414.375 305.343 414.369C305.219 414.357 305.094 414.371 304.976 414.409C304.858 414.448 304.748 414.51 304.655 414.593C304.562 414.676 304.488 414.777 304.435 414.89C304.383 415.003 304.355 415.125 304.353 415.25C304.347 415.371 304.365 415.493 304.406 415.607C304.447 415.721 304.51 415.827 304.592 415.917C304.674 416.007 304.772 416.079 304.882 416.131C304.993 416.183 305.112 416.213 305.233 416.218C305.357 416.23 305.482 416.217 305.6 416.178C305.719 416.14 305.828 416.077 305.921 415.995C306.014 415.912 306.089 415.811 306.141 415.698C306.193 415.585 306.221 415.462 306.224 415.338Z" fill="white"/>
<path style="mix-blend-mode:screen" opacity="0.61" fill-rule="evenodd" clip-rule="evenodd" d="M309.046 415.558C309.084 414.815 308.901 414.077 308.52 413.438C308.139 412.799 307.578 412.287 306.906 411.967C306.234 411.647 305.483 411.533 304.747 411.64C304.01 411.747 303.322 412.07 302.769 412.567C302.216 413.065 301.823 413.716 301.64 414.437C301.456 415.157 301.491 415.917 301.738 416.618C301.986 417.32 302.436 417.932 303.031 418.378C303.627 418.824 304.341 419.083 305.084 419.123C305.579 419.15 306.073 419.079 306.54 418.914C307.007 418.749 307.437 418.494 307.805 418.163C308.173 417.831 308.472 417.431 308.685 416.984C308.898 416.537 309.021 416.052 309.046 415.558Z" fill="url(#paint31_radial_377_6125)"/>
<path style="mix-blend-mode:screen" opacity="0.61" fill-rule="evenodd" clip-rule="evenodd" d="M307.042 415.448C307.057 415.218 307.026 414.987 306.951 414.769C306.876 414.551 306.758 414.35 306.604 414.178C306.45 414.006 306.264 413.866 306.056 413.767C305.848 413.667 305.622 413.61 305.392 413.599C305.16 413.587 304.929 413.621 304.711 413.699C304.493 413.776 304.292 413.896 304.12 414.052C303.948 414.207 303.809 414.395 303.71 414.604C303.611 414.814 303.554 415.04 303.543 415.272C303.528 415.502 303.559 415.733 303.634 415.951C303.709 416.169 303.827 416.37 303.981 416.542C304.135 416.714 304.321 416.854 304.529 416.953C304.737 417.053 304.963 417.109 305.193 417.121C305.425 417.132 305.656 417.099 305.874 417.021C306.092 416.943 306.293 416.823 306.465 416.668C306.637 416.512 306.776 416.325 306.875 416.115C306.974 415.906 307.031 415.679 307.042 415.448Z" fill="url(#paint32_radial_377_6125)"/>
<path fill-rule="evenodd" clip-rule="evenodd" d="M318.466 451.589C318.487 451.232 318.402 450.876 318.221 450.568C318.04 450.259 317.771 450.011 317.449 449.856C317.127 449.7 316.766 449.644 316.412 449.694C316.058 449.744 315.727 449.898 315.46 450.136C315.194 450.375 315.004 450.687 314.916 451.034C314.827 451.38 314.843 451.745 314.963 452.082C315.082 452.42 315.298 452.714 315.585 452.928C315.872 453.142 316.216 453.265 316.573 453.283C317.048 453.307 317.514 453.143 317.868 452.825C318.223 452.508 318.437 452.064 318.466 451.589Z" fill="white"/>
<path style="mix-blend-mode:screen" opacity="0.61" fill-rule="evenodd" clip-rule="evenodd" d="M323.895 451.874C323.967 450.445 323.614 449.026 322.88 447.797C322.146 446.568 321.064 445.585 319.771 444.97C318.479 444.356 317.033 444.138 315.616 444.345C314.2 444.552 312.877 445.174 311.814 446.133C310.751 447.091 309.996 448.343 309.644 449.731C309.292 451.118 309.36 452.579 309.837 453.928C310.315 455.277 311.182 456.455 312.329 457.311C313.476 458.168 314.85 458.666 316.28 458.742C317.231 458.792 318.183 458.654 319.081 458.336C319.979 458.018 320.805 457.526 321.513 456.888C322.22 456.25 322.795 455.479 323.203 454.619C323.612 453.758 323.847 452.826 323.895 451.874Z" fill="url(#paint33_radial_377_6125)"/>
<path style="mix-blend-mode:screen" opacity="0.61" fill-rule="evenodd" clip-rule="evenodd" d="M320.047 451.677C320.085 451.007 319.924 450.341 319.583 449.763C319.243 449.185 318.738 448.721 318.134 448.43C317.529 448.139 316.852 448.033 316.188 448.127C315.524 448.221 314.902 448.51 314.402 448.958C313.902 449.405 313.547 449.991 313.38 450.641C313.213 451.291 313.243 451.975 313.465 452.608C313.688 453.241 314.093 453.794 314.63 454.196C315.167 454.598 315.811 454.832 316.481 454.868C316.926 454.895 317.371 454.833 317.791 454.687C318.211 454.541 318.598 454.313 318.93 454.016C319.261 453.719 319.531 453.36 319.722 452.958C319.914 452.557 320.025 452.121 320.047 451.677Z" fill="url(#paint34_radial_377_6125)"/>
<path fill-rule="evenodd" clip-rule="evenodd" d="M263.545 439.549C263.558 439.322 263.503 439.097 263.387 438.901C263.272 438.706 263.1 438.549 262.895 438.451C262.69 438.353 262.461 438.318 262.236 438.351C262.011 438.384 261.802 438.484 261.633 438.636C261.465 438.789 261.346 438.988 261.291 439.209C261.237 439.429 261.249 439.661 261.327 439.875C261.404 440.088 261.543 440.274 261.727 440.408C261.91 440.542 262.129 440.618 262.356 440.627C262.656 440.639 262.949 440.533 263.171 440.331C263.394 440.13 263.528 439.849 263.545 439.549Z" fill="white"/>
<path style="mix-blend-mode:screen" opacity="0.61" fill-rule="evenodd" clip-rule="evenodd" d="M267.001 439.549C267.039 438.642 266.807 437.745 266.336 436.969C265.865 436.193 265.175 435.575 264.353 435.19C263.531 434.806 262.613 434.673 261.716 434.809C260.819 434.945 259.982 435.343 259.31 435.954C258.639 436.564 258.163 437.36 257.943 438.24C257.722 439.12 257.767 440.046 258.071 440.901C258.376 441.756 258.926 442.501 259.654 443.044C260.381 443.587 261.253 443.902 262.159 443.951C262.766 443.981 263.373 443.89 263.945 443.685C264.517 443.479 265.043 443.163 265.493 442.754C265.943 442.346 266.307 441.852 266.566 441.302C266.825 440.752 266.973 440.156 267.001 439.549Z" fill="url(#paint35_radial_377_6125)"/>
<path style="mix-blend-mode:screen" opacity="0.61" fill-rule="evenodd" clip-rule="evenodd" d="M264.561 439.549C264.563 438.994 264.355 438.46 263.98 438.052C263.605 437.643 263.089 437.392 262.536 437.348C261.953 437.316 261.38 437.517 260.945 437.907C260.509 438.297 260.246 438.844 260.214 439.428C260.182 440.012 260.383 440.584 260.773 441.02C261.163 441.455 261.71 441.718 262.294 441.75C262.589 441.759 262.882 441.708 263.157 441.602C263.432 441.495 263.682 441.334 263.893 441.129C264.105 440.924 264.273 440.678 264.388 440.407C264.502 440.135 264.561 439.843 264.561 439.549Z" fill="url(#paint36_radial_377_6125)"/>
<g style="mix-blend-mode:screen" opacity="0.61">
<path fill-rule="evenodd" clip-rule="evenodd" d="M267.688 404.685C267.696 404.533 267.66 404.382 267.582 404.251C267.505 404.12 267.39 404.015 267.253 403.948C267.116 403.882 266.962 403.858 266.812 403.88C266.661 403.901 266.52 403.966 266.406 404.068C266.292 404.169 266.211 404.302 266.173 404.449C266.135 404.596 266.141 404.752 266.191 404.896C266.241 405.039 266.333 405.165 266.454 405.257C266.576 405.349 266.722 405.403 266.874 405.411C266.975 405.417 267.076 405.403 267.172 405.37C267.268 405.337 267.356 405.285 267.432 405.217C267.507 405.15 267.569 405.068 267.613 404.977C267.657 404.885 267.682 404.786 267.688 404.685Z" fill="white"/>
<path style="mix-blend-mode:screen" opacity="0.61" fill-rule="evenodd" clip-rule="evenodd" d="M270.043 404.817C270.077 404.2 269.927 403.588 269.613 403.056C269.298 402.524 268.833 402.097 268.277 401.83C267.72 401.562 267.096 401.465 266.485 401.552C265.873 401.638 265.301 401.904 264.84 402.316C264.379 402.727 264.051 403.266 263.896 403.864C263.742 404.462 263.768 405.093 263.971 405.676C264.175 406.259 264.546 406.769 265.039 407.141C265.533 407.513 266.125 407.731 266.742 407.767C267.152 407.79 267.563 407.733 267.952 407.597C268.34 407.462 268.698 407.251 269.005 406.977C269.311 406.703 269.561 406.371 269.739 406.001C269.917 405.63 270.021 405.228 270.043 404.817Z" fill="url(#paint37_radial_377_6125)"/>
<path style="mix-blend-mode:screen" opacity="0.61" fill-rule="evenodd" clip-rule="evenodd" d="M268.372 404.73C268.388 404.443 268.32 404.158 268.175 403.91C268.03 403.662 267.815 403.463 267.556 403.338C267.298 403.212 267.008 403.166 266.724 403.205C266.44 403.244 266.173 403.367 265.958 403.557C265.743 403.747 265.59 403.997 265.517 404.275C265.444 404.552 265.454 404.845 265.548 405.117C265.641 405.388 265.813 405.626 266.041 405.8C266.27 405.974 266.544 406.076 266.831 406.094C267.022 406.106 267.213 406.08 267.394 406.018C267.575 405.956 267.741 405.859 267.885 405.732C268.028 405.605 268.144 405.451 268.228 405.279C268.312 405.107 268.36 404.92 268.372 404.73Z" fill="url(#paint38_radial_377_6125)"/>
</g>
<path fill-rule="evenodd" clip-rule="evenodd" d="M256.435 395.133C256.441 394.973 256.385 394.817 256.278 394.698C256.172 394.579 256.023 394.506 255.863 394.494C255.741 394.486 255.618 394.514 255.512 394.575C255.406 394.636 255.32 394.728 255.266 394.838C255.212 394.948 255.192 395.072 255.209 395.194C255.226 395.315 255.279 395.429 255.361 395.521C255.443 395.612 255.55 395.677 255.669 395.707C255.788 395.737 255.913 395.731 256.029 395.689C256.144 395.647 256.245 395.572 256.317 395.473C256.389 395.374 256.431 395.255 256.435 395.133Z" fill="white"/>
<path style="mix-blend-mode:screen" opacity="0.61" fill-rule="evenodd" clip-rule="evenodd" d="M258.335 395.243C258.361 394.747 258.239 394.256 257.985 393.829C257.731 393.403 257.356 393.062 256.909 392.849C256.461 392.636 255.96 392.56 255.469 392.631C254.978 392.702 254.52 392.917 254.151 393.249C253.782 393.581 253.52 394.015 253.398 394.495C253.276 394.976 253.298 395.482 253.463 395.95C253.629 396.417 253.929 396.825 254.326 397.123C254.723 397.42 255.199 397.593 255.694 397.62C256.358 397.65 257.008 397.417 257.502 396.972C257.996 396.528 258.296 395.906 258.335 395.243Z" fill="url(#paint39_radial_377_6125)"/>
<path style="mix-blend-mode:screen" opacity="0.61" fill-rule="evenodd" clip-rule="evenodd" d="M256.991 395.176C257.003 395.022 256.984 394.868 256.934 394.721C256.885 394.575 256.807 394.44 256.704 394.325C256.601 394.21 256.476 394.117 256.336 394.051C256.197 393.986 256.045 393.949 255.891 393.944C255.581 393.926 255.278 394.032 255.046 394.239C254.815 394.445 254.676 394.735 254.658 395.044C254.641 395.354 254.747 395.657 254.953 395.888C255.16 396.12 255.449 396.259 255.759 396.277C255.913 396.289 256.067 396.27 256.214 396.22C256.36 396.171 256.495 396.092 256.61 395.989C256.725 395.887 256.818 395.762 256.884 395.622C256.949 395.482 256.986 395.331 256.991 395.176Z" fill="url(#paint40_radial_377_6125)"/>
<path d="M170.576 260.915C241.779 236.352 243.87 261.245 283.025 315.676L238.587 314.091L170.576 260.915Z" fill="url(#paint41_linear_377_6125)"/>
<path d="M129.682 344.906C154.157 416.064 175.154 402.374 242.197 399.645L213.584 365.573L129.682 344.906Z" fill="url(#paint42_linear_377_6125)"/>
<path d="M72.323 334.407C39.7041 317.085 18.5964 285.171 6.689 261.092C4.73465 257.171 3.70653 252.854 3.68397 248.474C3.66141 244.093 4.64497 239.766 6.55882 235.826C8.47268 231.885 11.2657 228.437 14.7227 225.746C18.1797 223.056 22.2083 221.195 26.4981 220.307C52.9101 214.915 90.9435 211.811 124.751 226.91C183.716 253.168 264.383 324.525 264.383 324.525L235.33 384.194C235.33 384.194 129.351 364.715 72.323 334.407Z" fill="url(#paint43_linear_377_6125)"/>
<path d="M23.9888 290.232C15.2454 277.812 7.78259 264.539 1.71462 250.614C0.530501 247.92 -0.0532885 245 0.0038202 242.057C0.0609289 239.114 0.757587 236.219 2.04537 233.572C3.33315 230.925 5.18134 228.59 7.46164 226.729C9.74193 224.868 12.3998 223.525 15.2509 222.794C29.9357 219.017 44.9639 216.731 60.1074 215.97L23.9888 290.232Z" fill="url(#paint44_linear_377_6125)"/>
<path d="M112.036 311.128C129.162 305.421 138.419 286.912 132.712 269.786C127.005 252.661 108.495 243.404 91.3698 249.111C74.2443 254.818 64.9877 273.327 70.6945 290.453C76.4014 307.578 94.9107 316.835 112.036 311.128Z" fill="#92B569"/>
<path d="M119.671 296.565C128.701 286.67 127.999 271.329 118.103 262.299C108.208 253.27 92.8665 253.972 83.8372 263.867C74.8079 273.763 75.51 289.104 85.4053 298.133C95.3006 307.163 110.642 306.461 119.671 296.565Z" fill="#E4F3F0"/>
<path d="M206.499 93.9913C206.499 93.9913 227.65 62.8911 211.099 46.2074C194.547 29.5238 176.081 40.0886 168.223 60.7561C168.223 60.7561 143.374 39.6704 125.127 60.0958C122.011 63.4162 120.245 67.7799 120.175 72.3334C120.175 78.5842 122.904 87.9165 135.23 96.9406C135.23 96.9406 111.393 97.2268 120.417 128.833C129.441 160.44 212.859 135.106 212.859 135.106L206.499 93.9913Z" fill="url(#paint45_linear_377_6125)"/>
<path d="M126.026 66.0824C125.86 63.464 126.273 60.8411 127.237 58.4008C128.712 55.6716 125.872 54.8132 124.442 56.1998C123.452 57.0184 122.654 58.0434 122.103 59.2031C121.551 60.3627 121.26 61.6289 121.25 62.9129H120.568C119.722 60.1727 119.386 57.3005 119.577 54.439C119.996 50.2351 117.993 49.6849 117.993 49.6849C117.993 49.6849 116.716 49.3107 115.792 50.9174C114.669 53.1184 115.087 59.3693 115.087 59.3693C113.332 56.6903 112.099 53.703 111.456 50.5653C111.192 46.8676 108.132 47.814 108.154 50.5653C108.627 54.0372 109.401 57.4616 110.465 60.7999C109.106 58.0553 108.008 55.1886 107.186 52.238C107.11 51.8431 106.89 51.4903 106.569 51.2476C106.063 50.8514 105.117 50.3011 104.368 51.8639C103.202 54.5271 106.702 62.8689 106.702 62.8689C106.702 62.8689 105.315 63.5072 102.3 58.797C102.3 58.797 100.715 56.1998 99.7903 58.797C99.7903 58.797 99.24 62.1866 103.334 66.2805C103.334 66.2805 106.437 80.2348 117.266 76.339C128.095 72.4433 126.026 66.0824 126.026 66.0824Z" fill="url(#paint46_linear_377_6125)"/>
<path d="M121.252 62.8689C120.021 63.4975 118.935 64.3762 118.063 65.4488C117.191 66.5214 116.553 67.7643 116.19 69.0977C116.15 67.626 116.639 66.1887 117.568 65.0462C118.496 63.9036 119.803 63.1313 121.252 62.8689Z" fill="#EB967E"/>
<path d="M116.916 59.5454C113.012 60.0106 109.334 61.6273 106.352 64.1896C107.562 62.569 109.171 61.2894 111.022 60.4756C112.873 59.6617 114.904 59.3412 116.916 59.5454Z" fill="#EB967E"/>
<path d="M127.349 75.3485L124.224 73.1475C123.911 72.9189 123.545 72.7729 123.16 72.7229C122.775 72.6729 122.384 72.7205 122.023 72.8613L113.351 76.383C112.904 76.5438 112.52 76.8451 112.259 77.2418C111.997 77.6386 111.87 78.1094 111.898 78.584V82.7439L122.155 84.5927L127.349 75.3485Z" fill="url(#paint47_linear_377_6125)"/>
<path d="M173.967 178.752C173.967 178.752 192.147 118.599 128.054 74.7545C127.866 74.6257 127.648 74.5462 127.422 74.5231C127.195 74.5 126.966 74.5342 126.755 74.6224L111.855 81.2254C111.654 81.3137 111.479 81.4505 111.344 81.6234C111.21 81.7963 111.12 81.9999 111.084 82.2159C110.072 88.1586 104.745 131.056 150.372 175.451C150.328 175.428 168.707 193.169 173.967 178.752Z" fill="url(#paint48_linear_377_6125)"/>
<path d="M273.916 131.562C273.916 131.562 307.965 115.583 321.81 134.577C335.654 153.572 322.36 170.101 300.702 174.613C300.702 174.613 317.606 202.478 294.561 217.269C290.788 219.826 286.195 220.878 281.686 220.218C275.523 219.184 266.741 215.09 259.675 201.466C259.675 201.466 255.626 224.973 225.846 211.062C196.066 197.152 234.232 118.752 234.232 118.752L273.916 131.562Z" fill="url(#paint49_linear_377_6125)"/>
<path d="M181.34 143.668H180.438C177.048 143.205 174.627 145.45 173.307 148.598L154.576 193.41L206.762 211.503L228.574 162.112L181.34 143.668Z" fill="url(#paint50_linear_377_6125)"/>
<path d="M187.174 130.263L181.584 143.668C181.584 143.668 184.225 158.194 195.164 163.124C199.04 165.017 203.438 165.555 207.655 164.653C211.873 163.752 215.666 161.462 218.429 158.15L224.107 144.944L187.174 130.263Z" fill="url(#paint51_linear_377_6125)"/>
<path d="M234.23 170.19C243.656 180.178 249.66 192.904 251.376 206.529C252.587 218.238 252.235 234.878 240.679 236.969C229.674 238.972 211.01 226.58 207.532 215.905C203.768 203.511 203.373 190.337 206.388 177.74C206.981 174.991 208.276 172.444 210.146 170.345C212.017 168.247 214.4 166.669 217.063 165.766C220.044 164.747 223.258 164.622 226.309 165.409C229.359 166.195 232.113 167.857 234.23 170.19Z" fill="#F37065"/>
<path d="M155.127 252.64C153.292 252.73 151.498 253.213 149.866 254.055C148.235 254.898 146.803 256.082 145.668 257.526C144.533 258.97 143.721 260.64 143.287 262.425C142.853 264.21 142.807 266.067 143.153 267.871C143.458 269.588 144.118 271.224 145.091 272.672C146.064 274.12 147.328 275.349 148.803 276.281C150.277 277.214 151.93 277.828 153.656 278.085C155.381 278.342 157.142 278.237 158.824 277.775" fill="url(#paint52_linear_377_6125)"/>
<path d="M158.382 274.738L196.723 264.151L196.151 246.609L154.662 249.69" fill="url(#paint53_linear_377_6125)"/>
<path d="M176.717 140.586L181.119 141.356C181.912 141.555 182 141.577 182.022 142.655L172.337 167.989C172.224 168.261 172.166 168.554 172.168 168.849C172.17 169.144 172.231 169.436 172.348 169.707C172.466 169.978 172.636 170.223 172.85 170.427C173.063 170.631 173.316 170.79 173.592 170.894L205.462 182.559C205.981 182.733 206.545 182.707 207.045 182.487C207.546 182.268 207.946 181.87 208.17 181.371L218.933 156.631C219.01 156.457 219.15 156.317 219.325 156.24C219.5 156.163 219.697 156.153 219.879 156.213L228.683 159.955C228.782 159.991 228.872 160.047 228.949 160.12C229.025 160.192 229.086 160.28 229.127 160.377C229.169 160.474 229.19 160.578 229.189 160.684C229.188 160.789 229.166 160.893 229.123 160.989L216.952 187.666C213.589 197.535 211.23 207.719 209.909 218.062C209.909 218.062 206.453 240.072 220.914 268.993C221.508 270.225 220.913 271.656 219.571 271.634L183.606 266.264C183.302 266.259 183.006 266.162 182.758 265.985C182.511 265.808 182.323 265.56 182.22 265.273L181.031 261.928L179.733 264.811C179.579 265.14 179.312 265.403 178.981 265.553C178.65 265.702 178.276 265.728 177.928 265.625L141.611 255.17C141.288 255.073 141.007 254.871 140.812 254.596C140.617 254.321 140.518 253.989 140.533 253.652L140.731 249.844L138.046 251.869C137.79 252.055 137.482 252.155 137.165 252.155C136.849 252.155 136.541 252.055 136.285 251.869L109.102 233.204C108.889 233.052 108.715 232.85 108.595 232.617C108.475 232.383 108.412 232.124 108.412 231.862C108.412 231.599 108.475 231.34 108.595 231.107C108.715 230.873 108.889 230.672 109.102 230.519L129.154 216.059C137.672 209.72 145.76 202.823 153.365 195.413L163.952 171.202L175.331 141.356C175.453 141.1 175.652 140.887 175.901 140.749C176.149 140.611 176.435 140.554 176.717 140.586Z" fill="url(#paint54_linear_377_6125)"/>
<path d="M154.752 194.225C161.982 200.854 170.45 205.99 179.67 209.341C188.889 212.691 198.679 214.188 208.478 213.748C206.035 213.748 203.57 214.144 201.127 214.056C183.698 213.658 167.09 206.564 154.752 194.247V194.225Z" fill="#3884C5"/>
<path d="M184.97 233.116C182.358 242.498 181.018 252.189 180.987 261.927C180.069 252.145 181.433 242.283 184.97 233.116Z" fill="#3884C5"/>
<path d="M157.368 224.356C151.359 232.258 146.187 240.71 140.971 249.162C145.211 240.146 150.734 231.791 157.368 224.356Z" fill="#3884C5"/>
<path d="M180.083 73.5435C180.083 73.5435 190.735 63.4849 184.749 58.4226C178.762 53.3603 160.163 59.347 166.965 76.757C167.331 77.7959 167.97 78.7176 168.814 79.426C169.658 80.1344 170.676 80.6036 171.763 80.7848C174.162 81.0489 177.419 79.9484 180.083 73.5435Z" fill="url(#paint55_linear_377_6125)"/>
<path d="M285.318 146.485C285.318 146.485 293.66 134.423 299.559 139.574C305.458 144.724 302.332 164.027 284.152 159.933C283.104 159.709 282.133 159.216 281.334 158.501C280.535 157.787 279.936 156.877 279.596 155.861C278.781 153.418 279.376 150.05 285.318 146.485Z" fill="#FEE3CC"/>
<path d="M296.823 149.192C295.995 148.752 295.04 148.612 294.121 148.796C293.202 148.981 292.375 149.479 291.782 150.205C290.103 151.709 288.143 152.868 286.016 153.616C287.355 151.048 289.362 148.888 291.826 147.365C292.271 147.139 292.758 147.006 293.256 146.976C293.755 146.946 294.254 147.019 294.723 147.19C295.191 147.362 295.62 147.628 295.981 147.972C296.342 148.317 296.629 148.732 296.823 149.192Z" fill="#EA957E"/>
<path d="M292.25 151.812C290.511 152.208 289.829 151.438 290.511 149.787C292.25 149.369 292.91 150.183 292.25 151.812Z" fill="#EA957E"/>
<path d="M208.808 155.157L199.278 148.554C192.04 143.599 185.85 137.267 181.061 129.919C176.272 122.57 172.978 114.351 171.368 105.729C169.757 97.107 169.861 88.2523 171.674 79.6707C173.487 71.0892 176.973 62.9491 181.934 55.7155L187.04 48.2321C196.338 34.729 210.618 25.4716 226.74 22.4956C242.862 19.5197 259.506 23.0689 273.011 32.3628L289.365 43.566C296.064 48.1543 301.793 54.0172 306.226 60.8198C310.659 67.6224 313.708 75.2316 315.2 83.2128C316.692 91.194 316.597 99.3909 314.921 107.336C313.245 115.28 310.021 122.817 305.432 129.515L303.099 132.927C300.535 136.654 297.374 139.933 293.745 142.633C259.497 167.989 236.981 174.46 208.808 155.157Z" fill="url(#paint56_linear_377_6125)"/>
<path d="M194.791 39.2082C194.791 39.2082 223.03 -19.1625 284.856 14.755L262.846 43.8963C262.846 43.8963 227.784 70.2864 194.791 39.2082Z" fill="#F7B4B5"/>
<path d="M275.539 16.6697C275.539 16.6697 244.725 33.1773 258.525 60.4698C263.004 67.3126 268.84 73.1633 275.671 77.6596C287.424 85.6052 299.596 104.358 293.521 118.048C289.908 126.452 289.386 135.862 292.047 144.614C292.047 144.614 354.401 100.088 325.964 45.9651C298.187 -6.90305 275.539 16.6697 275.539 16.6697Z" fill="#F7B4B5"/>
<path d="M194.791 39.2079C194.791 39.2079 222.392 -25.3476 286.705 11.2111L264.695 40.3524C264.695 40.3524 235.84 65.0477 194.791 39.2079Z" fill="url(#paint57_linear_377_6125)"/>
<path d="M270.634 17.6381C270.634 17.6381 245.587 33.5734 259.938 60.5357C264.593 67.2823 270.586 72.9988 277.546 77.3293C289.475 85.0108 302.087 103.477 296.32 117.3C292.698 126.452 290.472 136.098 289.717 145.913C289.717 145.913 359.291 102.355 327.134 44.4683C296.782 -9.85251 270.634 17.6381 270.634 17.6381Z" fill="url(#paint58_linear_377_6125)"/>
<path d="M296.405 123.683C296.405 123.683 286.346 145.385 277.586 149.743C277.586 149.743 282.252 152.252 292.047 144.614C301.841 136.977 296.405 123.683 296.405 123.683Z" fill="#6F4729"/>
<path d="M222.488 89.1073C227.387 81.9577 227.693 73.6496 223.17 70.5507C218.648 67.4518 211.01 70.7356 206.111 77.8852C201.212 85.0349 200.906 93.343 205.429 96.4418C209.951 99.5407 217.589 96.2569 222.488 89.1073Z" fill="white"/>
<path d="M221.359 90.1018C224.046 86.181 224.216 81.6267 221.739 79.9296C219.262 78.2324 215.077 80.035 212.39 83.9558C209.703 87.8766 209.533 92.4308 212.01 94.1279C214.487 95.8251 218.673 94.0226 221.359 90.1018Z" fill="#1D1230"/>
<path d="M204.407 81.0492C209.293 73.8959 216.931 70.6164 221.465 73.7198C225.118 76.2289 225.625 82.1057 223.115 88.0484C227.363 81.1372 227.517 73.4557 223.115 70.4403C218.713 67.4249 210.944 70.6164 206.058 77.7697C205.129 79.0974 204.347 80.5217 203.725 82.0176C203.967 81.7315 204.165 81.4013 204.407 81.0492Z" fill="#1D1230"/>
<path d="M212.332 65.3779C212.332 65.3779 211.077 70.1981 213.344 70.9685L210.329 73.5437C209.905 72.1276 209.867 70.6239 210.219 69.1883C210.571 67.7527 211.301 66.4373 212.332 65.3779Z" fill="#1D1230"/>
<path d="M256.679 113.523C261.579 106.374 261.884 98.0657 257.361 94.9668C252.839 91.8679 245.201 95.1516 240.302 102.301C235.403 109.451 235.098 117.759 239.62 120.858C244.143 123.957 251.78 120.673 256.679 113.523Z" fill="white"/>
<path d="M249.203 110.328C251.89 106.407 252.06 101.853 249.583 100.155C247.106 98.4582 242.92 100.261 240.234 104.182C237.547 108.102 237.377 112.657 239.854 114.354C242.331 116.051 246.516 114.248 249.203 110.328Z" fill="#1D1230"/>
<path d="M254.415 116.001C259.852 109.112 260.71 100.748 256.352 97.2924C252.852 94.5192 246.998 95.8178 242.023 100.022C247.416 93.8369 254.811 91.4378 258.971 94.7173C263.131 97.9968 262.449 106.537 257.012 113.426C256.008 114.714 254.872 115.895 253.623 116.947L254.415 116.001Z" fill="#1D1230"/>
<path d="M267.18 103.543C267.18 103.543 262.778 106.207 261.457 104.248L259.895 107.945C261.39 107.924 262.853 107.505 264.134 106.732C265.414 105.958 266.465 104.858 267.18 103.543Z" fill="#1D1230"/>
<path d="M275.564 107.329C275.026 104.999 274.365 102.699 273.583 100.44C273.185 99.3131 272.722 98.2107 272.196 97.138C269.869 92.1742 266.829 87.5769 263.172 83.4918C262.666 82.8095 261.808 82.2592 261.257 81.5109C260.707 80.7626 262.534 77.8572 263.612 77.6811C265.813 77.307 266.98 81.4229 268.873 83.0956C269.947 84.0824 270.847 85.2432 271.536 86.5292C272.174 87.8058 272.703 89.1264 273.231 90.403C273.74 91.6772 274.181 92.9776 274.551 94.2987C274.904 95.6193 275.168 96.94 275.388 98.2606C276.076 101.053 276.489 103.906 276.62 106.778L275.564 107.329Z" fill="#FBC3AA"/>
<path d="M276.313 107.307C275.942 105.173 275.443 103.063 274.817 100.99C274.473 99.7492 274.039 98.5354 273.518 97.3582C271.35 91.8653 268.343 86.7421 264.604 82.1712C264.098 81.4229 263.195 80.7846 262.645 79.9702C262.5 79.7738 262.41 79.5428 262.383 79.3003C262.357 79.0579 262.394 78.8127 262.492 78.5895C262.591 78.3662 262.746 78.1728 262.943 78.0288C263.14 77.8848 263.371 77.7953 263.614 77.7692C266.123 77.4171 268.962 80.1023 270.899 81.9511C272.028 83.0464 272.939 84.3459 273.584 85.7809C274.2 87.2115 274.685 88.6422 275.169 90.1829C275.645 91.6255 276.035 93.0955 276.335 94.5849C276.624 96.0402 276.837 97.5095 276.974 98.9869C277.282 101.869 277.282 104.776 276.974 107.659L276.313 107.307Z" fill="url(#paint59_linear_377_6125)"/>
<path d="M209.467 56.3098C211.857 56.3362 214.245 56.4831 216.62 56.75C217.807 56.8935 218.983 57.1141 220.142 57.4103C225.49 58.6102 230.636 60.5825 235.417 63.265C236.187 63.6171 236.913 64.3215 237.75 64.7176C238.586 65.1138 241.051 62.6707 241.007 61.5702C240.875 59.3692 236.605 59.1051 234.58 57.6304C233.397 56.7762 232.07 56.1424 230.662 55.7596C229.254 55.4074 227.867 55.1653 226.503 54.9232C225.138 54.6811 223.773 54.571 222.409 54.483C221.044 54.3949 219.701 54.483 218.359 54.483C215.484 54.4095 212.61 54.6159 209.775 55.0993L209.467 56.3098Z" fill="#FBC3AA"/>
<path d="M209.337 55.5836C211.492 55.454 213.653 55.454 215.808 55.5836C217.101 55.6568 218.388 55.8186 219.66 56.0678C225.485 57.0149 231.132 58.8404 236.409 61.4822C237.246 61.8344 238.06 62.5607 238.984 62.9349C239.213 63.0581 239.472 63.1147 239.731 63.0981C239.99 63.0815 240.239 62.9924 240.45 62.8409C240.662 62.6895 240.826 62.4819 240.925 62.2417C241.023 62.0015 241.053 61.7383 241.009 61.4822C240.811 58.9731 237.576 56.7721 235.331 55.2754C233.992 54.4039 232.497 53.7986 230.929 53.4926C229.388 53.1845 227.869 53.0304 226.373 52.8543C224.91 52.7027 223.441 52.6365 221.971 52.6562C220.498 52.6761 219.028 52.7863 217.569 52.9864C214.694 53.3304 211.866 53.9949 209.139 54.9673L209.337 55.5836Z" fill="url(#paint60_linear_377_6125)"/>
<path d="M226.793 164.885C226.793 164.885 223.975 163.411 222.611 162.816L176.39 213.44C176.39 213.44 170.777 218.326 173.066 219.866C175.355 221.407 176.39 220.021 181.078 214.892C185.766 209.764 226.793 164.885 226.793 164.885Z" fill="url(#paint61_linear_377_6125)"/>
<path d="M179.381 214.65L154.994 198.517C154.367 198.102 153.605 197.946 152.866 198.082C152.128 198.217 151.47 198.633 151.032 199.243L134.194 222.332C133.747 222.953 133.561 223.725 133.676 224.482C133.791 225.239 134.198 225.921 134.811 226.381L158.845 244.364L179.381 214.65Z" fill="url(#paint62_linear_377_6125)"/>
<path d="M154.355 199.397C154.44 199.281 154.494 199.145 154.511 199.002C154.528 198.859 154.508 198.715 154.452 198.582C154.397 198.449 154.308 198.333 154.195 198.244C154.082 198.156 153.947 198.098 153.805 198.077C153.281 197.999 152.745 198.067 152.256 198.273C151.767 198.479 151.344 198.814 151.032 199.243L134.194 222.332C133.747 222.953 133.561 223.725 133.676 224.482C133.791 225.239 134.198 225.921 134.811 226.382L154.355 199.397Z" fill="#A17A2C"/>
<path d="M164.479 235.648L175.99 222.001C176.107 221.864 176.194 221.703 176.247 221.53C176.299 221.358 176.316 221.176 176.295 220.996C176.274 220.817 176.217 220.643 176.127 220.487C176.036 220.33 175.915 220.194 175.77 220.086L151.383 201.642C151.239 201.534 151.074 201.457 150.899 201.415C150.724 201.374 150.542 201.368 150.365 201.399C150.188 201.43 150.019 201.497 149.868 201.595C149.718 201.694 149.589 201.822 149.49 201.972L139.607 216.851C139.417 217.13 139.342 217.472 139.4 217.805C139.457 218.138 139.642 218.435 139.916 218.634L162.674 235.846C162.943 236.05 163.28 236.143 163.616 236.106C163.951 236.069 164.26 235.905 164.479 235.648Z" fill="url(#paint63_linear_377_6125)"/>
<mask id="mask0_377_6125" style="mask-type:luminance" maskUnits="userSpaceOnUse" x="139" y="201" width="38" height="36">
<path d="M164.475 235.648L175.986 222.001C176.103 221.864 176.19 221.703 176.243 221.53C176.295 221.358 176.312 221.176 176.291 220.996C176.27 220.817 176.213 220.643 176.123 220.487C176.032 220.33 175.911 220.194 175.766 220.086L151.379 201.642C151.235 201.534 151.07 201.457 150.895 201.415C150.72 201.374 150.538 201.368 150.361 201.399C150.184 201.43 150.015 201.497 149.864 201.595C149.714 201.694 149.585 201.822 149.486 201.972L139.603 216.851C139.413 217.13 139.338 217.472 139.396 217.805C139.453 218.138 139.639 218.435 139.912 218.634L162.67 235.846C162.939 236.05 163.276 236.143 163.612 236.106C163.948 236.069 164.256 235.905 164.475 235.648Z" fill="white"/>
</mask>
<g mask="url(#mask0_377_6125)">
<path d="M158.422 204.745L164.078 243.021L188.818 219.756L158.422 204.745Z" fill="#EFB280"/>
<path d="M174.225 213.528L133.639 218.942L151.467 197.196L174.225 213.528Z" fill="#EFB280"/>
<path d="M183.032 218.48L156.07 222.354C155.673 222.404 155.273 222.296 154.956 222.052C154.638 221.809 154.43 221.451 154.375 221.055L150.611 193.961L183.032 218.48Z" fill="url(#paint64_linear_377_6125)"/>
</g>
<path d="M144.803 207.783L134.194 222.332C133.747 222.953 133.561 223.725 133.676 224.482C133.791 225.239 134.198 225.921 134.811 226.381L158.845 244.364L170.841 226.998L144.803 207.783Z" fill="url(#paint65_linear_377_6125)"/>
<path d="M145.837 211.106L165.646 225.435C166.195 225.878 166.897 226.085 167.599 226.011C168.3 225.936 168.944 225.587 169.388 225.039L177.796 213.373L155.191 198.627C154.571 198.172 153.801 197.974 153.039 198.072C152.277 198.171 151.582 198.558 151.097 199.155L145.067 207.453C144.685 208.039 144.551 208.754 144.696 209.439C144.84 210.124 145.251 210.724 145.837 211.106Z" fill="#8D6627"/>
<path d="M156.358 242.625L158.361 244.077C158.625 244.27 158.925 244.408 159.243 244.485C159.561 244.562 159.891 244.575 160.214 244.524C160.537 244.472 160.847 244.358 161.125 244.187C161.404 244.016 161.647 243.792 161.839 243.527L180.239 218.216C180.433 217.953 180.573 217.654 180.651 217.337C180.729 217.02 180.744 216.69 180.695 216.367C180.646 216.044 180.534 215.734 180.365 215.455C180.196 215.175 179.974 214.932 179.711 214.738L177.708 213.263C177.443 213.071 177.144 212.932 176.826 212.856C176.508 212.779 176.178 212.766 175.855 212.817C175.532 212.868 175.222 212.983 174.943 213.154C174.664 213.325 174.422 213.549 174.23 213.814L155.808 239.125C155.423 239.664 155.266 240.333 155.369 240.987C155.471 241.641 155.827 242.229 156.358 242.625Z" fill="url(#paint66_linear_377_6125)"/>
<path d="M230.201 98.3929C228.725 100.854 227.007 103.162 225.072 105.282H224.654C223.07 105.502 221.331 105.678 219.724 105.81C219.638 105.808 219.554 105.835 219.486 105.887C219.418 105.939 219.37 106.013 219.35 106.096C219.548 107.901 220.318 110.102 220.428 112.347C219.366 110.655 218.438 108.881 217.655 107.043C217.458 106.64 217.389 106.187 217.457 105.744C217.532 105.267 217.749 104.824 218.078 104.471C218.408 104.118 218.835 103.872 219.306 103.763L221.067 103.521C222.189 103.367 223.268 103.301 224.434 103.213L223.796 103.521C225.761 101.596 227.905 99.8643 230.201 98.3489V98.3929Z" fill="#EA957E"/>
<path d="M205.132 105.635C205.132 105.635 219.372 120.161 231.544 122.076C231.544 122.076 225.997 131.915 215.454 130.88C213.236 130.627 211.112 129.842 209.261 128.593C207.41 127.344 205.888 125.667 204.824 123.705C203.26 120.939 202.464 117.805 202.518 114.628C202.572 111.451 203.475 108.346 205.132 105.635Z" fill="url(#paint67_linear_377_6125)"/>
<mask id="mask1_377_6125" style="mask-type:luminance" maskUnits="userSpaceOnUse" x="202" y="105" width="30" height="26">
<path d="M205.13 105.634C205.13 105.634 219.37 120.161 231.542 122.076C231.542 122.076 225.995 131.914 215.452 130.88C213.234 130.626 211.11 129.842 209.259 128.593C207.409 127.344 205.886 125.667 204.822 123.705C203.258 120.938 202.462 117.805 202.516 114.627C202.57 111.45 203.473 108.346 205.13 105.634Z" fill="white"/>
</mask>
<g mask="url(#mask1_377_6125)">
<path d="M204.355 122.758C204.355 122.758 215.36 113.118 225.925 127.996C236.49 142.875 205.632 143.007 204.355 122.758Z" fill="url(#paint68_linear_377_6125)"/>
</g>
<path d="M143.86 272.515L165.363 331.149L175.224 326.527L168.621 266.902C165.826 262.72 167.388 263.777 160.499 261.377L154.534 259.925C146.831 261.267 141.35 265.669 143.86 272.515Z" fill="url(#paint69_linear_377_6125)"/>
<path d="M164.589 328.486C164.589 328.486 158.47 329.102 160.187 333.857C161.904 338.611 176.408 333.857 175.704 328.31C175.704 328.31 180.106 338.325 176.761 341.164C174.229 343.365 146.299 360.159 140.026 345.786C134.545 333.086 152.924 328.992 164.589 328.486Z" fill="url(#paint70_linear_377_6125)"/>
<path d="M167.364 327.605C167.364 327.605 156.667 329.036 159.286 334.208C163.248 342 176.74 331.831 175.727 328.31C175.263 326.877 174.938 325.403 174.759 323.908L167.364 327.605Z" fill="url(#paint71_linear_377_6125)"/>
<path d="M278.21 226.976L280.257 225.941C280.466 225.839 280.646 225.683 280.777 225.49C280.908 225.297 280.987 225.073 281.005 224.841L281.555 219.316C281.584 219.034 281.526 218.75 281.388 218.502C281.25 218.254 281.04 218.054 280.785 217.93L278.584 216.851L274.82 221.781L278.21 226.976Z" fill="url(#paint72_linear_377_6125)"/>
<path d="M285.865 211.481C288.426 210.782 290.801 209.527 292.821 207.805C295.022 205.494 296.694 207.937 295.88 209.764C295.443 210.976 294.745 212.077 293.836 212.989C292.928 213.902 291.829 214.604 290.62 215.046L290.862 215.707C293.753 215.604 296.602 214.978 299.269 213.858C303.187 212.075 304.354 213.858 304.354 213.858C304.581 214.251 304.657 214.714 304.568 215.159C304.479 215.605 304.231 216.003 303.87 216.279C302.175 218.062 295.99 219.712 295.99 219.712C299.159 220.525 302.454 220.72 305.696 220.285C309.306 219.338 309.416 222.486 306.665 223.476C303.191 224.169 299.663 224.552 296.122 224.621C299.193 225.026 302.296 225.136 305.388 224.951C305.796 224.904 306.207 224.997 306.555 225.215C307.105 225.567 307.941 226.315 306.555 227.416C304.354 229.397 295.154 228.803 295.154 228.803C295.154 228.803 295 230.343 300.48 231.686C300.48 231.686 303.473 232.346 301.25 234.107C301.25 234.107 298.191 235.758 292.909 233.16C292.909 233.16 278.558 234.767 278.712 223.124C278.866 211.481 285.865 211.481 285.865 211.481Z" fill="url(#paint73_linear_377_6125)"/>
<path d="M290.621 215.046C290.841 216.533 290.517 218.048 289.708 219.314C288.899 220.58 287.66 221.511 286.219 221.936C287.392 221.157 288.39 220.143 289.148 218.956C289.906 217.77 290.408 216.438 290.621 215.046Z" fill="#EB967E"/>
<path d="M295.022 218.084C295.874 219.938 296.231 221.981 296.057 224.014C295.883 226.047 295.185 228 294.031 229.683C295.516 226.003 295.861 221.962 295.022 218.084Z" fill="#EB967E"/>
<path d="M245.633 239.257C255.758 237.408 272.222 233.535 278.781 227.064C278.857 226.994 278.918 226.909 278.959 226.814C279.001 226.719 279.023 226.617 279.023 226.513V217.027C279.028 216.832 278.957 216.642 278.825 216.499C276.8 214.144 259.434 195.281 234.805 201.642C215.48 206.616 212.222 221.451 222.457 232.016C225.424 235.039 229.093 237.282 233.136 238.545C237.18 239.809 241.473 240.053 245.633 239.257Z" fill="#F37065"/>
<defs>
<linearGradient id="paint0_linear_377_6125" x1="106.898" y1="309.271" x2="141.234" y2="205.626" gradientUnits="userSpaceOnUse">
<stop stop-color="#FBC3AA"/>
<stop offset="0.26" stop-color="#FCCFC6"/>
<stop offset="0.34" stop-color="#FCD4D1"/>
<stop offset="0.7" stop-color="#FDDED0"/>
<stop offset="1" stop-color="#FEE3CC"/>
</linearGradient>
<linearGradient id="paint1_linear_377_6125" x1="218.282" y1="391.654" x2="321.808" y2="449.436" gradientUnits="userSpaceOnUse">
<stop offset="0.03" stop-color="#FDB72E"/>
<stop offset="0.24" stop-color="#FBA62B"/>
<stop offset="0.74" stop-color="#F68224"/>
<stop offset="1" stop-color="#F47421"/>
</linearGradient>
<linearGradient id="paint2_linear_377_6125" x1="217.474" y1="390.027" x2="310.386" y2="441.885" gradientUnits="userSpaceOnUse">
<stop stop-color="#F4B01B"/>
<stop offset="0.22" stop-color="#F4AB29"/>
<stop offset="0.63" stop-color="#F59F4D"/>
<stop offset="0.97" stop-color="#F69370"/>
</linearGradient>
<linearGradient id="paint3_linear_377_6125" x1="205.857" y1="385.493" x2="286.845" y2="430.695" gradientUnits="userSpaceOnUse">
<stop offset="0.03" stop-color="#FDF57E"/>
<stop offset="0.44" stop-color="#F9D34D"/>
<stop offset="0.81" stop-color="#F5BA29"/>
<stop offset="1" stop-color="#F4B01B"/>
</linearGradient>
<linearGradient id="paint4_linear_377_6125" x1="263.926" y1="408.449" x2="347.299" y2="327.393" gradientUnits="userSpaceOnUse">
<stop offset="0.03" stop-color="#FFDE71"/>
<stop offset="1" stop-color="#F4B01B"/>
</linearGradient>
<linearGradient id="paint41_linear_377_6125" x1="283.025" y1="283.541" x2="170.576" y2="283.541" gradientUnits="userSpaceOnUse">
<stop stop-color="#F2665C"/>
<stop offset="0.15" stop-color="#F36E5D"/>
<stop offset="0.38" stop-color="#F58561"/>
<stop offset="0.67" stop-color="#F9AA68"/>
<stop offset="1" stop-color="#FFDE71"/>
</linearGradient>
<linearGradient id="paint42_linear_377_6125" x1="290.487" y1="373.695" x2="70.0124" y2="373.695" gradientUnits="userSpaceOnUse">
<stop stop-color="#F15652"/>
<stop offset="0.13" stop-color="#F25E54"/>
<stop offset="0.35" stop-color="#F47559"/>
<stop offset="0.61" stop-color="#F89A62"/>
<stop offset="0.91" stop-color="#FDCD6D"/>
<stop offset="1" stop-color="#FFDE71"/>
</linearGradient>
<linearGradient id="paint43_linear_377_6125" x1="406.898" y1="405.368" x2="-124.997" y2="191.386" gradientUnits="userSpaceOnUse">
<stop stop-color="#92B569"/>
<stop offset="0.97" stop-color="#FDEA0D"/>
</linearGradient>
<linearGradient id="paint44_linear_377_6125" x1="87.7961" y1="274.011" x2="-60.5519" y2="206.33" gradientUnits="userSpaceOnUse">
<stop stop-color="#F2665C"/>
<stop offset="0.15" stop-color="#F36E5D"/>
<stop offset="0.38" stop-color="#F58561"/>
<stop offset="0.67" stop-color="#F9AA68"/>
<stop offset="1" stop-color="#FFDE71"/>
</linearGradient>
<linearGradient id="paint45_linear_377_6125" x1="167.036" y1="144.199" x2="154.752" y2="42.8535" gradientUnits="userSpaceOnUse">
<stop stop-color="#513134"/>
<stop offset="0.99" stop-color="#553730"/>
</linearGradient>
<linearGradient id="paint46_linear_377_6125" x1="151.85" y1="59.25" x2="125.775" y2="67.7585" gradientUnits="userSpaceOnUse">
<stop stop-color="#FBC3AA"/>
<stop offset="0.26" stop-color="#FCCFC6"/>
<stop offset="0.34" stop-color="#FCD4D1"/>
<stop offset="0.7" stop-color="#FDDED0"/>
<stop offset="1" stop-color="#FEE3CC"/>
</linearGradient>
<linearGradient id="paint47_linear_377_6125" x1="100.949" y1="56.5196" x2="98.4071" y2="68.383" gradientUnits="userSpaceOnUse">
<stop stop-color="#F15652"/>
<stop offset="0.48" stop-color="#F2665C"/>
<stop offset="0.94" stop-color="#F37065"/>
</linearGradient>
<linearGradient id="paint48_linear_377_6125" x1="101.465" y1="93.4996" x2="186.766" y2="164.351" gradientUnits="userSpaceOnUse">
<stop stop-color="#F05355"/>
<stop offset="0.41" stop-color="#F15652"/>
<stop offset="0.71" stop-color="#F2665C"/>
<stop offset="0.94" stop-color="#F37065"/>
</linearGradient>
<linearGradient id="paint49_linear_377_6125" x1="220.081" y1="155.6" x2="318.489" y2="183.799" gradientUnits="userSpaceOnUse">
<stop stop-color="#553730"/>
<stop offset="0.25" stop-color="#593A2E"/>
<stop offset="0.35" stop-color="#5D3C2C"/>
<stop offset="0.55" stop-color="#68432A"/>
<stop offset="0.65" stop-color="#6F4729"/>
<stop offset="0.97" stop-color="#7A4E2F"/>
</linearGradient>
<linearGradient id="paint50_linear_377_6125" x1="191.39" y1="112.875" x2="184.424" y2="174.769" gradientUnits="userSpaceOnUse">
<stop stop-color="#F05355"/>
<stop offset="0.33" stop-color="#F15652"/>
<stop offset="0.63" stop-color="#F2665C"/>
<stop offset="0.94" stop-color="#F37065"/>
</linearGradient>
<linearGradient id="paint51_linear_377_6125" x1="196.36" y1="142.349" x2="180.434" y2="191.563" gradientUnits="userSpaceOnUse">
<stop stop-color="#FBC3AA"/>
<stop offset="0.54" stop-color="#FCD7C6"/>
<stop offset="0.7" stop-color="#FDDED0"/>
<stop offset="1" stop-color="#FEE3CC"/>
</linearGradient>
<linearGradient id="paint52_linear_377_6125" x1="155.845" y1="368.227" x2="154.517" y2="212.569" gradientUnits="userSpaceOnUse">
<stop stop-color="#FBC3AA"/>
<stop offset="0.26" stop-color="#FCCFC6"/>
<stop offset="0.34" stop-color="#FCD4D1"/>
<stop offset="0.7" stop-color="#FDDED0"/>
<stop offset="1" stop-color="#FEE3CC"/>
</linearGradient>
<linearGradient id="paint53_linear_377_6125" x1="180.863" y1="372.628" x2="179.421" y2="203.015" gradientUnits="userSpaceOnUse">
<stop stop-color="#FBC3AA"/>
<stop offset="0.26" stop-color="#FCCFC6"/>
<stop offset="0.34" stop-color="#FCD4D1"/>
<stop offset="0.7" stop-color="#FDDED0"/>
<stop offset="1" stop-color="#FEE3CC"/>
</linearGradient>
<linearGradient id="paint54_linear_377_6125" x1="157.943" y1="189.796" x2="199.608" y2="293.792" gradientUnits="userSpaceOnUse">
<stop stop-color="#6FA1CC"/>
<stop offset="0.32" stop-color="#7DB7D1"/>
<stop offset="0.53" stop-color="#89C5D2"/>
<stop offset="0.75" stop-color="#97D1CB"/>
<stop offset="1" stop-color="#A5D9CC"/>
</linearGradient>
<linearGradient id="paint55_linear_377_6125" x1="168.199" y1="65.0425" x2="186.094" y2="73.1547" gradientUnits="userSpaceOnUse">
<stop stop-color="#FBC3AA"/>
<stop offset="0.32" stop-color="#FCCFC6"/>
<stop offset="0.43" stop-color="#FCD4D1"/>
<stop offset="1" stop-color="#FDDED0"/>
</linearGradient>
<linearGradient id="paint56_linear_377_6125" x1="162.058" y1="84.3154" x2="332.786" y2="118.39" gradientUnits="userSpaceOnUse">
<stop stop-color="#FBC3AA"/>
<stop offset="0.26" stop-color="#FCCFC6"/>
<stop offset="0.34" stop-color="#FCD4D1"/>
<stop offset="0.7" stop-color="#FDDED0"/>
<stop offset="1" stop-color="#FEE3CC"/>
</linearGradient>
<linearGradient id="paint57_linear_377_6125" x1="226.14" y1="0.72617" x2="260.776" y2="41.2238" gradientUnits="userSpaceOnUse">
<stop stop-color="#513134"/>
<stop offset="0.99" stop-color="#553730"/>
</linearGradient>
<linearGradient id="paint58_linear_377_6125" x1="250.827" y1="162.172" x2="300.147" y2="45.8277" gradientUnits="userSpaceOnUse">
<stop offset="0.17" stop-color="#6F4729"/>
<stop offset="0.33" stop-color="#68432A"/>
<stop offset="0.65" stop-color="#5D3C2C"/>
<stop offset="0.75" stop-color="#593A2E"/>
<stop offset="1" stop-color="#553730"/>
</linearGradient>
<linearGradient id="paint59_linear_377_6125" x1="263.368" y1="75.0063" x2="283.783" y2="98.8766" gradientUnits="userSpaceOnUse">
<stop stop-color="#513134"/>
<stop offset="0.99" stop-color="#553730"/>
</linearGradient>
<linearGradient id="paint60_linear_377_6125" x1="225.768" y1="66.4686" x2="198.129" y2="51.7067" gradientUnits="userSpaceOnUse">
<stop stop-color="#513134"/>
<stop offset="0.99" stop-color="#553730"/>
</linearGradient>
<linearGradient id="paint61_linear_377_6125" x1="192.12" y1="233.601" x2="209.073" y2="167.822" gradientUnits="userSpaceOnUse">
<stop stop-color="#8D6627"/>
<stop offset="0.57" stop-color="#A57D2C"/>
<stop offset="0.75" stop-color="#AD822F"/>
<stop offset="1" stop-color="#B48631"/>
</linearGradient>
<linearGradient id="paint62_linear_377_6125" x1="161.886" y1="232.103" x2="163.024" y2="187.051" gradientUnits="userSpaceOnUse">
<stop stop-color="#8D6627"/>
<stop offset="0.57" stop-color="#A57D2C"/>
<stop offset="0.75" stop-color="#AD822F"/>
<stop offset="1" stop-color="#B48631"/>
</linearGradient>
<linearGradient id="paint63_linear_377_6125" x1="145.986" y1="253.973" x2="126.08" y2="202.235" gradientUnits="userSpaceOnUse">
<stop stop-color="#DD975F"/>
<stop offset="0.46" stop-color="#F2B585"/>
<stop offset="1" stop-color="#FBC78B"/>
</linearGradient>
<linearGradient id="paint64_linear_377_6125" x1="156.665" y1="214.226" x2="130.41" y2="223.443" gradientUnits="userSpaceOnUse">
<stop stop-color="#DD975F"/>
<stop offset="0.46" stop-color="#F2B585"/>
<stop offset="1" stop-color="#FBC78B"/>
</linearGradient>
<linearGradient id="paint65_linear_377_6125" x1="151.854" y1="244.158" x2="152.678" y2="207.915" gradientUnits="userSpaceOnUse">
<stop stop-color="#8D6627"/>
<stop offset="0.57" stop-color="#A57D2C"/>
<stop offset="0.75" stop-color="#AD822F"/>
<stop offset="1" stop-color="#B48631"/>
</linearGradient>
<linearGradient id="paint66_linear_377_6125" x1="163.122" y1="248.798" x2="182.332" y2="222.097" gradientUnits="userSpaceOnUse">
<stop stop-color="#8D6627"/>
<stop offset="0.49" stop-color="#8D6627"/>
<stop offset="1" stop-color="#7A5522"/>
</linearGradient>
<linearGradient id="paint67_linear_377_6125" x1="202.212" y1="108.774" x2="225.151" y2="129.545" gradientUnits="userSpaceOnUse">
<stop stop-color="#A82823"/>
<stop offset="0.38" stop-color="#8C2B22"/>
<stop offset="0.39" stop-color="#8B2B22"/>
<stop offset="1" stop-color="#852D1E"/>
</linearGradient>
<linearGradient id="paint68_linear_377_6125" x1="206.516" y1="120.278" x2="225.85" y2="137.785" gradientUnits="userSpaceOnUse">
<stop stop-color="#F1637F"/>
<stop offset="0.49" stop-color="#F37F95"/>
<stop offset="1" stop-color="#F6A2B0"/>
</linearGradient>
<linearGradient id="paint69_linear_377_6125" x1="160.924" y1="344.653" x2="158.035" y2="224.388" gradientUnits="userSpaceOnUse">
<stop stop-color="#FBC3AA"/>
<stop offset="0.26" stop-color="#FCCFC6"/>
<stop offset="0.34" stop-color="#FCD4D1"/>
<stop offset="0.7" stop-color="#FDDED0"/>
<stop offset="1" stop-color="#FEE3CC"/>
</linearGradient>
<linearGradient id="paint70_linear_377_6125" x1="144.062" y1="342.107" x2="182.651" y2="335.019" gradientUnits="userSpaceOnUse">
<stop stop-color="#72B3AC"/>
<stop offset="0.6" stop-color="#689AA1"/>
<stop offset="1" stop-color="#4F80A1"/>
</linearGradient>
<linearGradient id="paint71_linear_377_6125" x1="171.742" y1="360.474" x2="170.3" y2="191.001" gradientUnits="userSpaceOnUse">
<stop stop-color="#FBC3AA"/>
<stop offset="0.26" stop-color="#FCCFC6"/>
<stop offset="0.34" stop-color="#FCD4D1"/>
<stop offset="0.7" stop-color="#FDDED0"/>
<stop offset="1" stop-color="#FEE3CC"/>
</linearGradient>
<linearGradient id="paint72_linear_377_6125" x1="313.098" y1="236.165" x2="307.539" y2="231.545" gradientUnits="userSpaceOnUse">
<stop stop-color="#F15652"/>
<stop offset="0.48" stop-color="#F2665C"/>
<stop offset="0.94" stop-color="#F37065"/>
</linearGradient>
<linearGradient id="paint73_linear_377_6125" x1="319.331" y1="217.893" x2="319.609" y2="245.669" gradientUnits="userSpaceOnUse">
<stop stop-color="#FBC3AA"/>
<stop offset="0.26" stop-color="#FCCFC6"/>
<stop offset="0.34" stop-color="#FCD4D1"/>
<stop offset="0.7" stop-color="#FDDED0"/>
<stop offset="1" stop-color="#FEE3CC"/>
</linearGradient>
</defs>
</svg>
