<svg width="98" height="96" viewBox="0 0 98 96" fill="none" xmlns="http://www.w3.org/2000/svg">
<path d="M63.5492 90.6462H33.9492C38.6559 83.3129 39.9292 75.9796 37.7692 68.6462H59.7692C57.7092 76.5662 59.2192 83.8462 63.5492 90.6462Z" fill="#3884C5"/>
<path d="M37.7202 86.8962H59.7802C62.0504 86.8962 64.2277 87.7981 65.833 89.4034C67.4383 91.0087 68.3402 93.186 68.3402 95.4562H29.1602C29.1602 93.186 30.062 91.0087 31.6673 89.4034C33.2726 87.7981 35.4499 86.8962 37.7202 86.8962Z" fill="#3884C5"/>
<path d="M89.52 0.0662842H7.99C3.57724 0.0662842 0 3.64352 0 8.05627V71.6763C0 76.089 3.57724 79.6663 7.99 79.6663H89.52C93.9328 79.6663 97.51 76.089 97.51 71.6763V8.05627C97.51 3.64352 93.9328 0.0662842 89.52 0.0662842Z" fill="#3884C5"/>
<path d="M84.4106 5.68628H13.1006C9.67094 5.68628 6.89062 8.46658 6.89062 11.8963V55.4063C6.89062 58.836 9.67094 61.6163 13.1006 61.6163H84.4106C87.8403 61.6163 90.6206 58.836 90.6206 55.4063V11.8963C90.6206 8.46658 87.8403 5.68628 84.4106 5.68628Z" fill="white"/>
<path d="M48.7506 72.6062C50.4682 72.6062 51.8606 71.2139 51.8606 69.4962C51.8606 67.7786 50.4682 66.3862 48.7506 66.3862C47.033 66.3862 45.6406 67.7786 45.6406 69.4962C45.6406 71.2139 47.033 72.6062 48.7506 72.6062Z" fill="#FEF1F1"/>
<path d="M42.9709 50.8862L39.6309 42.7563L47.0209 25.9062H51.2009L58.2309 42.5462L55.0009 50.8862H42.9709Z" fill="#F37065"/>
<path d="M42.9902 54.6362V52.2662H54.8602L54.7502 54.6362H42.9902Z" fill="#F37065"/>
<path d="M31.7598 31.1163C31.7598 31.1163 35.3098 19.0263 44.6698 17.4563C54.0298 15.8863 62.2698 18.1363 66.3198 31.6863" stroke="#F37065" stroke-width="1.6" stroke-linecap="round" stroke-linejoin="round"/>
<path d="M33.8496 16.8262H63.0496" stroke="#F37065" stroke-width="1.6" stroke-linecap="round" stroke-linejoin="round"/>
<path d="M31.1896 19.9162C32.8962 19.9162 34.2796 18.5328 34.2796 16.8262C34.2796 15.1196 32.8962 13.7362 31.1896 13.7362C29.483 13.7362 28.0996 15.1196 28.0996 16.8262C28.0996 18.5328 29.483 19.9162 31.1896 19.9162Z" fill="#F37065"/>
<path d="M66.3205 19.9162C68.027 19.9162 69.4105 18.5328 69.4105 16.8262C69.4105 15.1196 68.027 13.7362 66.3205 13.7362C64.6139 13.7362 63.2305 15.1196 63.2305 16.8262C63.2305 18.5328 64.6139 19.9162 66.3205 19.9162Z" fill="#F37065"/>
<path d="M52.3193 12.6663H45.7893C45.2315 12.6663 44.7793 13.1184 44.7793 13.6762V20.2062C44.7793 20.764 45.2315 21.2162 45.7893 21.2162H52.3193C52.8771 21.2162 53.3293 20.764 53.3293 20.2062V13.6762C53.3293 13.1184 52.8771 12.6663 52.3193 12.6663Z" fill="#F37065"/>
<path d="M34.1106 30.9463H28.9406C28.4988 30.9463 28.1406 31.3044 28.1406 31.7463V36.9163C28.1406 37.3581 28.4988 37.7163 28.9406 37.7163H34.1106C34.5525 37.7163 34.9106 37.3581 34.9106 36.9163V31.7463C34.9106 31.3044 34.5525 30.9463 34.1106 30.9463Z" fill="#F37065"/>
<path d="M68.6009 31.3063H63.4309C62.989 31.3063 62.6309 31.6644 62.6309 32.1063V37.2763C62.6309 37.7181 62.989 38.0763 63.4309 38.0763H68.6009C69.0427 38.0763 69.4009 37.7181 69.4009 37.2763V32.1063C69.4009 31.6644 69.0427 31.3063 68.6009 31.3063Z" fill="#F37065"/>
<path d="M48.9199 25.8562V41.2162" stroke="white" stroke-miterlimit="10"/>
<path d="M48.9291 43.5763C49.8348 43.5763 50.5691 42.842 50.5691 41.9363C50.5691 41.0305 49.8348 40.2963 48.9291 40.2963C48.0233 40.2963 47.2891 41.0305 47.2891 41.9363C47.2891 42.842 48.0233 43.5763 48.9291 43.5763Z" fill="white"/>
</svg>
