<svg width="140" height="140" viewBox="0 0 140 140" fill="none" xmlns="http://www.w3.org/2000/svg">
<mask id="mask0_3448_4503" style="mask-type:alpha" maskUnits="userSpaceOnUse" x="0" y="0" width="140" height="140">
<rect width="140" height="140" fill="white"/>
</mask>
<g mask="url(#mask0_3448_4503)">
<mask id="mask1_3448_4503" style="mask-type:luminance" maskUnits="userSpaceOnUse" x="-4" y="-6" width="133" height="135">
<path d="M128.874 70.3459C128.673 85.7115 122.428 100.38 111.491 111.174C100.554 121.969 85.8058 128.021 70.4389 128.021C55.0721 128.021 40.3236 121.969 29.3868 111.174C18.4499 100.38 12.2049 85.7115 12.0039 70.3459C12.0039 64.6359 -5.42607 55.4159 -3.90607 50.2059C-3.33607 48.2059 6.83393 15.6059 7.59393 13.7459C16.3239 -7.54407 66.6539 -5.97406 91.0939 -5.97406C123.364 -5.96406 128.874 38.0759 128.874 70.3459Z" fill="white"/>
</mask>
<g mask="url(#mask1_3448_4503)">
<path d="M70.4439 128.796C102.719 128.796 128.884 102.632 128.884 70.356C128.884 38.0805 102.719 11.916 70.4439 11.916C38.1684 11.916 12.0039 38.0805 12.0039 70.356C12.0039 102.632 38.1684 128.796 70.4439 128.796Z" fill="#3984C5"/>
<path d="M79.7238 100.546H63.1438C62.1496 100.546 61.3438 101.352 61.3438 102.346V129.876C61.3438 130.87 62.1496 131.676 63.1438 131.676H79.7238C80.7179 131.676 81.5238 130.87 81.5238 129.876V102.346C81.5238 101.352 80.7179 100.546 79.7238 100.546Z" fill="#557F59"/>
<path d="M79.7846 100.546H64.4646C63.5036 100.546 62.7246 101.325 62.7246 102.286V129.936C62.7246 130.897 63.5036 131.676 64.4646 131.676H79.7846C80.7456 131.676 81.5246 130.897 81.5246 129.936V102.286C81.5246 101.325 80.7456 100.546 79.7846 100.546Z" fill="#8AC48A"/>
<path d="M57.4737 112.516H40.7137C40.0509 112.516 39.5137 113.053 39.5137 113.716V130.476C39.5137 131.139 40.0509 131.676 40.7137 131.676H57.4737C58.1364 131.676 58.6737 131.139 58.6737 130.476V113.716C58.6737 113.053 58.1364 112.516 57.4737 112.516Z" fill="#557F59"/>
<path d="M57.5238 112.516H41.9937C41.3586 112.516 40.8438 113.031 40.8438 113.666V130.526C40.8438 131.161 41.3586 131.676 41.9937 131.676H57.5238C58.1589 131.676 58.6738 131.161 58.6738 130.526V113.666C58.6738 113.031 58.1589 112.516 57.5238 112.516Z" fill="#8AC48A"/>
<path d="M101.424 92.226H86.0444C85.0447 92.226 84.2344 93.0363 84.2344 94.036V129.866C84.2344 130.866 85.0447 131.676 86.0444 131.676H101.424C102.424 131.676 103.234 130.866 103.234 129.866V94.036C103.234 93.0363 102.424 92.226 101.424 92.226Z" fill="#557F59"/>
<path d="M101.494 92.226H87.4236C86.4626 92.226 85.6836 93.005 85.6836 93.966V129.936C85.6836 130.897 86.4626 131.676 87.4236 131.676H101.494C102.455 131.676 103.234 130.897 103.234 129.936V93.966C103.234 93.005 102.455 92.226 101.494 92.226Z" fill="#8AC48A"/>
<path d="M123.955 81.036H108.465C107.311 81.036 106.375 81.9717 106.375 83.126V129.596C106.375 130.75 107.311 131.686 108.465 131.686H123.955C125.109 131.686 126.045 130.75 126.045 129.596V83.126C126.045 81.9717 125.109 81.036 123.955 81.036Z" fill="#557F59"/>
<path d="M124.064 81.036H110.084C108.985 81.036 108.094 81.927 108.094 83.026V129.696C108.094 130.795 108.985 131.686 110.084 131.686H124.064C125.163 131.686 126.054 130.795 126.054 129.696V83.026C126.054 81.927 125.163 81.036 124.064 81.036Z" fill="#8AC48A"/>
<path d="M122.953 46.576L124.083 42.806L125.203 39.046C125.226 38.9494 125.226 38.8489 125.205 38.7521C125.183 38.6553 125.14 38.5646 125.078 38.4868C125.017 38.409 124.939 38.346 124.849 38.3026C124.76 38.2591 124.662 38.2364 124.563 38.236L120.643 38.506L116.723 38.776C116.313 38.776 116.173 39.286 116.463 39.646L117.463 40.936L107.033 49.276C106.959 49.3328 106.896 49.4039 106.849 49.4851C106.802 49.5662 106.772 49.6559 106.76 49.7489C106.748 49.8418 106.754 49.9363 106.779 50.0268C106.803 50.1172 106.846 50.2019 106.903 50.276L109.543 53.586C109.664 53.7305 109.837 53.8212 110.025 53.8381C110.212 53.8549 110.399 53.7966 110.543 53.676L121.053 45.346L122.053 46.636C122.373 46.996 122.873 46.966 122.953 46.576Z" fill="#5A8A5B"/>
<path d="M122.363 46.216L123.493 42.456L124.623 38.686C124.644 38.5887 124.643 38.4881 124.62 38.3913C124.597 38.2946 124.553 38.2042 124.491 38.1266C124.428 38.0491 124.35 37.9864 124.26 37.943C124.171 37.8996 124.073 37.8767 123.973 37.876L120.053 38.146L116.133 38.426C115.733 38.426 115.583 38.936 115.873 39.296L116.873 40.586L106.443 48.926C106.295 49.0424 106.198 49.2124 106.174 49.3994C106.15 49.5864 106.2 49.7755 106.313 49.926L108.953 53.236C109.012 53.3083 109.085 53.3682 109.167 53.4124C109.25 53.4565 109.34 53.4841 109.433 53.4933C109.525 53.5026 109.619 53.4935 109.709 53.4665C109.798 53.4395 109.881 53.3951 109.953 53.336L120.383 44.996L121.383 46.286C121.753 46.636 122.253 46.606 122.363 46.216Z" fill="#8AC48A"/>
<path d="M69.3441 47.986C58.9541 42.346 66.2641 42.726 48.7841 34.876C43.2241 32.386 37.2941 31.726 29.7841 31.396C21.7841 31.056 9.39407 34.736 4.15407 36.116C3.89849 36.1863 3.67163 36.3355 3.50574 36.5423C3.33985 36.749 3.24339 37.0028 3.2301 37.2676C3.21681 37.5323 3.28734 37.7945 3.43169 38.0169C3.57603 38.2392 3.78683 38.4104 4.03407 38.506C5.65362 39.0276 7.04693 40.0858 7.98407 41.506C10.2341 45.316 4.07407 55.286 7.47407 59.506C10.7341 63.506 26.0341 73.016 25.9241 86.726C25.9208 86.9297 25.9674 87.1312 26.0598 87.3128C26.1522 87.4945 26.2876 87.6508 26.4542 87.7681C26.6209 87.8854 26.8136 87.9602 27.0158 87.986C27.2179 88.0118 27.4233 87.9877 27.6141 87.916C32.3841 86.116 45.0641 80.386 45.9341 70.146C46.9941 57.506 54.6341 54.556 60.1341 50.236C65.6341 45.916 69.3441 47.986 69.3441 47.986Z" fill="url(#paint0_linear_3448_4503)"/>
<path d="M89.8438 38.776C89.8438 38.776 92.8437 38.776 93.4337 42.366C93.5937 43.366 89.9438 44.186 89.9438 44.186L89.8438 38.776Z" fill="url(#paint1_linear_3448_4503)"/>
<path d="M85.323 47.406C85.843 45.166 89.773 38.346 95.243 35.676C96.1152 35.2976 97.0869 35.214 98.0109 35.4377C98.9349 35.6615 99.7606 36.1805 100.363 36.916C102.363 39.056 101.753 43.426 99.873 45.786C96.713 49.786 91.773 53.016 89.013 53.786C88.2294 53.9514 87.4128 53.8431 86.6994 53.4791C85.986 53.1151 85.419 52.5175 85.093 51.786V51.706C84.413 50.346 85.003 48.746 85.323 47.406Z" fill="url(#paint2_linear_3448_4503)"/>
<path d="M84.0435 52.346C83.7835 49.266 84.0435 42.796 89.8435 38.746C90.1557 43.1046 91.9973 47.2129 95.0435 50.346L92.6435 53.546C91.9476 54.4878 90.9673 55.181 89.8473 55.5231C88.7273 55.8652 87.527 55.8382 86.4235 55.446C86.1191 55.3413 85.8299 55.1967 85.5635 55.016C85.1248 54.7148 84.7601 54.318 84.4968 53.8556C84.2336 53.3931 84.0786 52.877 84.0435 52.346Z" fill="url(#paint3_linear_3448_4503)"/>
<path d="M95.3449 42.4259C96.4534 43.507 97.9268 44.1334 99.4744 44.1815C101.022 44.2296 102.531 43.696 103.705 42.6859C106.347 40.364 108.49 37.5301 110.005 34.3559C110.204 34.067 110.33 33.7335 110.37 33.3847C110.41 33.0359 110.364 32.6826 110.235 32.3559C109.765 31.2259 107.945 31.0659 106.715 31.0759C103.955 31.0759 100.515 30.9259 95.9249 34.8759C94.7938 35.8293 94.0768 37.1844 93.9249 38.6559C93.8623 39.3507 93.9575 40.0507 94.2034 40.7035C94.4493 41.3563 94.8395 41.9451 95.3449 42.4259Z" fill="url(#paint4_linear_3448_4503)"/>
<path d="M114.854 27.726C115.145 27.4933 115.372 27.1905 115.514 26.846C115.674 26.456 115.714 25.996 115.164 25.846C114.164 25.536 113.534 26.776 112.004 27.556C110.474 28.336 110.764 28.206 110.764 28.206C110.764 28.206 111.764 26.936 110.764 26.156C110.764 26.156 110.154 25.606 109.764 26.816C109.424 27.6279 108.854 28.3229 108.124 28.816C107.546 29.344 107.169 30.0565 107.058 30.8317C106.946 31.6068 107.108 32.3966 107.514 33.066C108.904 35.606 111.414 34.456 112.034 34.136C112.962 34.0704 113.835 33.6728 114.494 33.016C114.558 32.9393 114.604 32.8487 114.627 32.7514C114.65 32.6541 114.649 32.5528 114.626 32.4555C114.603 32.3583 114.557 32.2679 114.492 32.1916C114.428 32.1153 114.346 32.0551 114.254 32.016C114.391 31.9219 114.505 31.7977 114.587 31.6529C114.669 31.5081 114.716 31.3465 114.726 31.1805C114.735 31.0145 114.707 30.8485 114.642 30.6952C114.578 30.5419 114.479 30.4053 114.354 30.296C114.354 30.296 115.044 29.066 113.854 28.576L114.854 27.726Z" fill="url(#paint5_linear_3448_4503)"/>
<path d="M112.613 29.0959C112.774 28.9368 112.964 28.811 113.173 28.7259C113.378 28.632 113.598 28.5777 113.823 28.5659C113.66 28.7188 113.47 28.8408 113.263 28.9259C113.057 29.0174 112.838 29.0748 112.613 29.0959Z" fill="#ED987F"/>
<path d="M113.005 29.4459C112.584 29.6518 112.191 29.9105 111.835 30.2159C111.664 30.3434 111.543 30.5277 111.495 30.7359C111.493 30.8313 111.52 30.925 111.571 31.0051C111.623 31.0853 111.697 31.1482 111.785 31.1859C112.231 31.2503 112.685 31.1622 113.075 30.9359C113.51 30.7573 113.929 30.5398 114.325 30.2859C113.97 30.6074 113.573 30.8798 113.145 31.0959C112.719 31.3717 112.204 31.4754 111.705 31.3859C111.575 31.3316 111.465 31.2376 111.391 31.1173C111.318 30.997 111.284 30.8565 111.295 30.7159C111.349 30.4574 111.504 30.2309 111.725 30.0859C112.113 29.8021 112.545 29.5857 113.005 29.4459Z" fill="#ED987F"/>
<path d="M114.223 32.0059C113.935 32.2139 113.631 32.3979 113.313 32.5559C112.999 32.7206 112.662 32.8385 112.313 32.9059C112.209 32.9147 112.105 32.8994 112.007 32.8612C111.91 32.8231 111.823 32.7631 111.753 32.6859C111.603 32.5567 111.501 32.3805 111.463 32.1859C111.458 31.9943 111.518 31.8066 111.632 31.6526C111.746 31.4986 111.908 31.3871 112.093 31.3359C111.813 31.5359 111.553 31.8459 111.633 32.1459C111.713 32.4459 112.023 32.7459 112.293 32.6859C112.636 32.6306 112.971 32.5367 113.293 32.4059L114.223 32.0059Z" fill="#ED987F"/>
<path d="M112.004 34.126C111.881 34.0549 111.778 33.953 111.706 33.8303C111.634 33.7075 111.596 33.5682 111.594 33.426C111.602 33.2789 111.658 33.1385 111.754 33.026C111.841 32.9147 111.96 32.8313 112.094 32.786C111.935 32.9673 111.84 33.1956 111.824 33.436C111.83 33.6767 111.892 33.9127 112.004 34.126Z" fill="#ED987F"/>
<path d="M110.763 28.1959C110.563 28.5459 110.343 28.8759 110.123 29.1959V29.0959C110.363 29.539 110.461 30.0453 110.403 30.5459C110.346 31.0448 110.094 31.5011 109.703 31.8159C109.991 31.4435 110.165 30.9953 110.203 30.5259C110.229 30.0666 110.147 29.6076 109.963 29.1859V29.1259C110.223 28.7859 110.483 28.4859 110.763 28.1959Z" fill="#ED987F"/>
<path d="M85.5436 84.3459C84.0536 90.7359 84.9436 91.6059 86.9836 91.8659C89.0236 92.1259 96.6036 92.2059 96.6036 92.2059C96.6036 92.2059 100.974 92.2059 99.1336 90.1159C98.956 89.9121 98.7424 89.7427 98.5036 89.6159L91.4036 85.7759C91.3485 85.7453 91.3026 85.7003 91.2709 85.6457C91.2392 85.5912 91.2229 85.529 91.2236 85.4659V84.4059C91.2236 84.4059 85.9536 82.8159 85.5436 84.3459Z" fill="url(#paint6_linear_3448_4503)"/>
<path d="M91.214 91.476C89.1211 91.5145 87.0326 91.2723 85.004 90.756C84.8609 90.4969 84.7982 90.2009 84.824 89.906C87.8101 90.561 90.8743 90.7866 93.924 90.576C93.9818 90.576 94.039 90.5874 94.0924 90.6095C94.1458 90.6316 94.1943 90.664 94.2352 90.7049C94.276 90.7457 94.3084 90.7942 94.3305 90.8476C94.3526 90.901 94.364 90.9582 94.364 91.016C94.364 91.0738 94.3526 91.131 94.3305 91.1844C94.3084 91.2378 94.276 91.2863 94.2352 91.3271C94.1943 91.368 94.1458 91.4004 94.0924 91.4225C94.039 91.4446 93.9818 91.456 93.924 91.456C92.954 91.466 92.014 91.476 91.214 91.476Z" fill="url(#paint7_linear_3448_4503)"/>
<path d="M93.7948 92.166C93.6887 91.7423 93.6787 91.3003 93.7654 90.8723C93.8521 90.4443 94.0335 90.041 94.2961 89.6921C94.5588 89.3432 94.8961 89.0574 95.2835 88.8556C95.6708 88.6539 96.0983 88.5412 96.5348 88.526L98.5348 89.596C98.8933 89.7847 99.1991 90.0596 99.4248 90.396C99.8848 91.086 100.005 92.136 96.6548 92.226L93.7948 92.166Z" fill="url(#paint8_linear_3448_4503)"/>
<path d="M91.455 85.996L89.955 87.086C89.922 87.1079 89.8949 87.1376 89.8762 87.1725C89.8574 87.2074 89.8477 87.2464 89.8477 87.286C89.8477 87.3256 89.8574 87.3646 89.8762 87.3995C89.8949 87.4344 89.922 87.4641 89.955 87.486L90.625 87.966C90.6683 88.0026 90.7232 88.0227 90.78 88.0227C90.8367 88.0227 90.8917 88.0026 90.935 87.966L92.515 86.596" stroke="url(#paint9_linear_3448_4503)" stroke-width="0.41" stroke-miterlimit="10" stroke-linecap="round"/>
<path d="M93.375 87.0659L91.975 88.3959C91.944 88.4192 91.9188 88.4494 91.9014 88.4841C91.884 88.5188 91.875 88.5571 91.875 88.5959C91.875 88.6347 91.884 88.673 91.9014 88.7077C91.9188 88.7424 91.944 88.7726 91.975 88.7959L92.655 89.2759C92.6983 89.3126 92.7532 89.3327 92.81 89.3327C92.8668 89.3327 92.9217 89.3126 92.965 89.2759L94.535 87.7359" stroke="url(#paint10_linear_3448_4503)" stroke-width="0.41" stroke-miterlimit="10" stroke-linecap="round"/>
<path d="M75.5843 72.1159L83.4643 65.3459C84.0343 64.7159 86.2343 64.8459 86.9343 65.3459L93.4243 69.7659C93.529 69.8355 93.6233 69.9197 93.7043 70.0159C94.4004 70.7612 94.9016 71.667 95.1632 72.6527C95.4249 73.6384 95.439 74.6735 95.2043 75.6659L91.7743 84.5459C91.7046 84.8272 91.5643 85.086 91.3665 85.2978C91.1687 85.5095 90.9201 85.6673 90.6443 85.7559L86.9543 86.9059C86.6951 86.9893 86.4197 87.0093 86.1512 86.9641C85.8828 86.9189 85.6291 86.8098 85.4115 86.6462C85.194 86.4825 85.0189 86.269 84.901 86.0236C84.7832 85.7782 84.726 85.508 84.7343 85.2359L84.8743 80.8159C84.8822 80.5685 84.8344 80.3224 84.7343 80.0959C84.2649 78.9941 83.4023 78.1065 82.3143 77.6059L76.1443 74.8059C75.9002 74.6956 75.6857 74.5291 75.5181 74.3202C75.3506 74.1112 75.2348 73.8655 75.1802 73.6033C75.1256 73.3411 75.1338 73.0697 75.204 72.8112C75.2742 72.5527 75.4045 72.3145 75.5843 72.1159Z" fill="url(#paint11_linear_3448_4503)"/>
<path d="M62.7437 92.906C61.3337 99.226 62.2237 100.086 64.2337 100.326C66.2437 100.566 73.7437 100.566 73.7437 100.566C73.7437 100.566 78.0537 100.566 76.2237 98.476C76.0459 98.2776 75.8321 98.1148 75.5937 97.996L68.5937 94.266C68.54 94.2362 68.4951 94.1927 68.4635 94.1401C68.4319 94.0874 68.4148 94.0274 68.4137 93.966V92.906C68.4137 92.906 63.0937 91.346 62.7437 92.906Z" fill="url(#paint12_linear_3448_4503)"/>
<path d="M68.4147 99.876C66.3482 99.9342 64.2832 99.7156 62.2747 99.226C62.1333 98.9696 62.0674 98.6783 62.0847 98.386C65.0419 99.0066 68.0724 99.2019 71.0847 98.966C71.1493 98.9621 71.2138 98.9728 71.2736 98.9973C71.3335 99.0218 71.387 99.0595 71.4302 99.1076C71.4735 99.1556 71.5053 99.2128 71.5234 99.2748C71.5415 99.3369 71.5454 99.4022 71.5347 99.466C71.5185 99.5668 71.4678 99.6589 71.3911 99.7264C71.3145 99.7939 71.2168 99.8326 71.1147 99.836C70.0947 99.856 69.2047 99.876 68.4147 99.876Z" fill="url(#paint13_linear_3448_4503)"/>
<path d="M70.9538 100.536C70.8444 100.119 70.8299 99.6823 70.9112 99.2587C70.9924 98.835 71.1675 98.435 71.4236 98.0878C71.6796 97.7407 72.0101 97.4553 72.3908 97.2525C72.7716 97.0497 73.1929 96.9348 73.6238 96.916L75.5738 97.916C75.9337 98.0931 76.2432 98.3579 76.4738 98.686C76.9238 99.366 77.0538 100.406 73.7538 100.526L70.9538 100.536Z" fill="url(#paint14_linear_3448_4503)"/>
<path d="M68.5947 94.4559L67.1547 95.5559C67.1236 95.5792 67.0984 95.6094 67.0811 95.6441C67.0637 95.6788 67.0547 95.7171 67.0547 95.7559C67.0547 95.7947 67.0637 95.833 67.0811 95.8677C67.0984 95.9025 67.1236 95.9326 67.1547 95.9559L67.8247 96.4159C67.868 96.4526 67.9229 96.4727 67.9797 96.4727C68.0364 96.4727 68.0913 96.4526 68.1347 96.4159L69.6747 95.0459" stroke="url(#paint15_linear_3448_4503)" stroke-width="0.41" stroke-miterlimit="10" stroke-linecap="round"/>
<path d="M70.5032 95.506L69.1332 96.826C69.1021 96.8493 69.077 96.8795 69.0596 96.9142C69.0422 96.9489 69.0332 96.9872 69.0332 97.026C69.0332 97.0648 69.0422 97.1031 69.0596 97.1378C69.077 97.1725 69.1021 97.2027 69.1332 97.226L69.8132 97.686C69.8549 97.7219 69.9081 97.7416 69.9632 97.7416C70.0182 97.7416 70.0715 97.7219 70.1132 97.686L71.6432 96.146" stroke="url(#paint16_linear_3448_4503)" stroke-width="0.41" stroke-miterlimit="10" stroke-linecap="round"/>
<path d="M70.3434 67.346C71.4963 67.4437 72.6076 67.8225 73.5802 68.4492C74.5528 69.0758 75.357 69.9313 75.9224 70.9408C76.4878 71.9502 76.7972 73.0829 76.8235 74.2396C76.8499 75.3963 76.5923 76.5418 76.0734 77.576C73.4734 82.736 70.5834 88.296 69.7734 89.166C68.4934 90.566 68.9334 92.846 69.1634 93.686C69.1891 93.7788 69.1787 93.8779 69.1341 93.9633C69.0896 94.0487 69.0142 94.114 68.9234 94.146C67.8734 94.566 64.5634 95.726 62.3434 94.736C62.1874 94.6747 62.0539 94.5671 61.9609 94.4276C61.868 94.2881 61.82 94.1235 61.8234 93.956C61.8203 93.8904 61.8303 93.8248 61.8526 93.763C61.8749 93.7013 61.9091 93.6445 61.9534 93.596C62.0734 93.476 62.0034 93.306 61.8834 93.126C61.723 92.8995 61.6178 92.6387 61.5761 92.3644C61.5344 92.0901 61.5575 91.8098 61.6434 91.546L61.7334 91.246C61.778 91.1027 61.778 90.9492 61.7334 90.806L60.7334 85.576L58.8134 75.576C58.5834 74.4958 58.6094 73.3769 58.8891 72.3085C59.1688 71.2402 59.6945 70.2521 60.4243 69.4232C61.154 68.5943 62.0676 67.9477 63.0919 67.5349C64.1162 67.1221 65.2228 66.9547 66.3234 67.046L70.3434 67.346Z" fill="url(#paint17_linear_3448_4503)"/>
<path d="M78.2935 44.516H78.4635C79.3835 44.516 86.5335 44.516 90.0735 56.236C93.7735 68.456 94.7635 68.166 93.5835 69.436C93.3041 69.6268 93.0017 69.7813 92.6835 69.896C89.3135 71.716 72.9435 78.566 60.6035 76.896C60.3511 76.8597 60.1173 76.7427 59.9371 76.5624C59.7568 76.3821 59.6398 76.1483 59.6035 75.896C59.3735 74.506 58.8035 71.026 57.4835 62.696C55.6435 51.166 62.8335 47.896 63.7935 47.516L63.9935 47.456L78.2935 44.516Z" fill="url(#paint18_linear_3448_4503)"/>
<path d="M52.2754 57.5061C52.2754 57.5061 53.3454 60.2761 56.9354 59.5061C57.9354 59.3061 57.3554 55.5961 57.3554 55.5961L52.2754 57.5061Z" fill="url(#paint19_linear_3448_4503)"/>
<path d="M58.6645 50.146C56.7645 51.456 51.8545 57.596 51.3745 63.676C51.3372 64.6218 51.6101 65.5539 52.1517 66.3302C52.6934 67.1065 53.4739 67.6845 54.3745 67.976C57.0945 69.026 60.9445 66.896 62.4445 64.276C64.9745 59.896 66.2245 54.096 65.9045 51.276C65.7755 50.4878 65.3809 49.7674 64.786 49.2345C64.1912 48.7015 63.432 48.388 62.6345 48.346H62.5545C61.1045 48.216 59.7945 49.346 58.6645 50.146Z" fill="url(#paint20_linear_3448_4503)"/>
<path d="M62.8254 47.136C59.8254 48.016 53.9354 50.616 52.2754 57.506C56.4373 56.2198 60.9191 56.4393 64.9354 58.126L67.0454 54.726C67.6653 53.7318 67.9503 52.5651 67.8585 51.3971C67.7667 50.229 67.303 49.1212 66.5354 48.236C66.3221 47.9981 66.0841 47.7835 65.8254 47.596C65.3907 47.3017 64.896 47.1078 64.3772 47.0282C63.8583 46.9486 63.3283 46.9855 62.8254 47.136Z" fill="url(#paint21_linear_3448_4503)"/>
<path d="M55.3549 60.256C53.872 60.6994 52.6094 61.6831 51.8169 63.0126C51.0244 64.3422 50.7596 65.9207 51.0749 67.436C51.8147 70.8741 53.2509 74.1242 55.2949 76.986C55.7949 77.686 56.1249 78.096 56.9849 78.186C58.1949 78.316 59.2249 76.806 59.8049 75.726C61.1149 73.346 62.9549 70.346 61.7249 64.446C61.4392 62.9942 60.6 61.7104 59.3849 60.866C58.8033 60.4657 58.1383 60.2027 57.4402 60.097C56.742 59.9914 56.029 60.0457 55.3549 60.256Z" fill="url(#paint22_linear_3448_4503)"/>
<path d="M60.1941 78.006C60.4064 78.8108 60.7883 79.5608 61.3141 80.206C62.0341 80.876 61.2641 81.416 60.6941 81.206C60.3161 81.0558 59.9754 80.8249 59.6956 80.5296C59.4158 80.2343 59.2037 79.8816 59.0741 79.496L58.8741 79.576C58.8931 80.4814 59.076 81.3759 59.4141 82.216C59.9541 83.446 59.6541 83.646 59.6541 83.646C59.6541 83.646 59.2841 84.086 58.6541 83.646C58.0241 83.206 57.6541 81.166 57.6541 81.166C57.6371 82.1718 57.7208 83.1768 57.9041 84.166C58.1941 85.296 56.7141 85.356 56.4441 84.496C56.2362 83.4048 56.1291 82.2968 56.1241 81.186C56.0566 82.1348 56.0566 83.0872 56.1241 84.036C56.1351 84.1658 56.1035 84.2957 56.0341 84.406C55.9141 84.576 55.6841 84.726 55.1941 84.476C54.3741 84.056 54.8041 80.906 54.8041 80.906C54.8041 80.906 54.6641 80.966 54.2141 82.686C54.2141 82.686 53.9241 83.556 53.1241 82.786C52.9774 82.3566 52.9299 81.8996 52.9854 81.4492C53.0408 80.9989 53.1977 80.5669 53.4441 80.186C53.4441 80.186 53.0041 75.686 56.6441 75.776C60.2841 75.866 60.1941 78.006 60.1941 78.006Z" fill="url(#paint23_linear_3448_4503)"/>
<path d="M77.4139 11.996C77.4139 11.996 73.8339 7.50597 63.8939 8.99597C63.8226 9.01393 63.7594 9.05516 63.7142 9.11312C63.6691 9.17109 63.6445 9.24248 63.6445 9.31597C63.6445 9.38946 63.6691 9.46085 63.7142 9.51882C63.7594 9.57679 63.8226 9.61802 63.8939 9.63597C65.691 10.1272 67.3372 11.0586 68.6839 12.346L71.1439 14.146C71.5896 14.4716 72.0987 14.6999 72.6382 14.8162C73.1777 14.9325 73.7357 14.9341 74.2759 14.821C74.8161 14.7079 75.3266 14.4825 75.7741 14.1595C76.2217 13.8365 76.5963 13.423 76.8739 12.946L77.4139 11.996Z" fill="#7A4B34"/>
<path d="M59.875 44.626C59.875 44.626 69.395 55.406 79.875 47.626L59.875 44.626Z" fill="url(#paint24_linear_3448_4503)"/>
<path d="M64.9533 13.1959C64.322 12.5026 63.5697 11.9299 62.7333 11.5059C62.6677 11.4807 62.6131 11.4333 62.5789 11.3719C62.5447 11.3105 62.5332 11.239 62.5463 11.17C62.5594 11.101 62.5963 11.0387 62.6506 10.9941C62.7048 10.9495 62.7731 10.9254 62.8433 10.9259C64.5929 11.0101 66.3013 11.4851 67.8433 12.3159C67.1133 13.6959 64.9533 13.1959 64.9533 13.1959Z" fill="#7A4B34"/>
<path d="M92.0135 32.776C92.0135 32.776 95.2135 12.836 76.4335 12.166C57.6535 11.496 57.7435 20.636 57.7435 33.876C57.7435 33.876 52.2335 31.296 51.1435 35.626C49.3035 42.896 58.1435 42.686 59.4435 41.626C59.4435 41.626 75.3935 60.626 90.8035 42.936C90.8035 42.936 97.8035 41.216 96.1335 34.936C96.1335 34.896 95.1135 31.606 92.0135 32.776Z" fill="url(#paint25_linear_3448_4503)"/>
<path d="M57.4534 35.416C57.3705 35.31 57.2534 35.236 57.1221 35.2068C56.9907 35.1776 56.8533 35.195 56.7334 35.256C56.5038 35.3934 56.3088 35.5815 56.1634 35.806C55.8388 36.2411 55.6384 36.756 55.5834 37.296C55.5312 37.8419 55.6172 38.3921 55.8334 38.896C56.0679 39.4155 56.4839 39.8315 57.0034 40.066C56.6798 40.0529 56.3642 39.9615 56.0837 39.7995C55.8033 39.6375 55.5664 39.4098 55.3934 39.136C55.0494 38.5652 54.8953 37.8999 54.9534 37.236C55.0191 36.5721 55.3165 35.9526 55.7934 35.486C56.0178 35.2336 56.309 35.0499 56.6334 34.956C56.8028 34.9172 56.9805 34.9428 57.1321 35.0279C57.2837 35.1129 57.3982 35.2512 57.4534 35.416Z" fill="#ED987F"/>
<path d="M57.3149 38.626C57.2088 38.1741 56.9331 37.7803 56.5449 37.526C56.3449 37.426 56.1549 37.396 55.9549 37.316C55.7272 37.2144 55.5067 37.0975 55.2949 36.966V36.906C55.5362 36.7442 55.8256 36.6701 56.1149 36.696C56.4081 36.7455 56.674 36.898 56.8649 37.126C57.0593 37.3205 57.207 37.5565 57.2971 37.8163C57.3872 38.0761 57.4172 38.3529 57.3849 38.626H57.3149Z" fill="#ED987F"/>
<path d="M90.7637 34.896C91.0131 34.6611 91.3234 34.501 91.6593 34.4339C91.9951 34.3667 92.3432 34.3951 92.6637 34.5159C92.9853 34.6671 93.269 34.8884 93.494 35.1635C93.719 35.4387 93.8794 35.7607 93.9637 36.1059C94.1279 36.7797 94.0427 37.4902 93.7237 38.1059C93.5759 38.4094 93.3496 38.6678 93.0682 38.8542C92.7869 39.0406 92.4607 39.1482 92.1237 39.166C92.3912 39.0455 92.6312 38.8716 92.829 38.6549C93.0268 38.4382 93.1781 38.1833 93.2737 37.906C93.4561 37.3709 93.4804 36.7945 93.3437 36.246C93.219 35.7143 92.902 35.2477 92.4537 34.936C92.191 34.8095 91.9044 34.7405 91.613 34.7336C91.3216 34.7267 91.032 34.7821 90.7637 34.896Z" fill="#ED987F"/>
<path d="M91.8435 37.676C91.8318 37.4213 91.8799 37.1673 91.9841 36.9346C92.0883 36.7019 92.2457 36.4968 92.4435 36.336C92.6385 36.1391 92.8974 36.0185 93.1735 35.996C93.4477 35.997 93.7116 36.1005 93.9135 36.286V36.346C93.7067 36.4535 93.4929 36.547 93.2735 36.626C93.0935 36.686 92.9135 36.686 92.7235 36.756C92.3448 36.9513 92.055 37.284 91.9135 37.686L91.8435 37.676Z" fill="#ED987F"/>
<path d="M79.2741 37.876C79.1346 38.3095 78.8705 38.6925 78.5149 38.977C78.1592 39.2615 77.7277 39.435 77.2741 39.476C76.7956 39.492 76.3272 39.3359 75.9541 39.036C75.7829 38.8981 75.6255 38.7441 75.4841 38.576C75.3677 38.3916 75.2609 38.2013 75.1641 38.006C75.5092 38.2169 75.8665 38.4072 76.2341 38.576C76.5447 38.728 76.8884 38.8002 77.2341 38.786C77.9867 38.6825 78.6943 38.3669 79.2741 37.876Z" fill="#ED987F"/>
<path opacity="0.2" d="M92.1636 32.756C92.1636 32.756 97.6636 16.426 82.0036 11.906C82.0036 11.906 69.3036 11.996 69.6136 12.476C69.6136 12.476 58.0736 11.886 56.1836 24.076C56.1836 24.076 58.4236 36.486 58.3936 36.356C58.0236 34.216 60.7436 26.286 65.1636 22.766C65.8707 23.3728 66.7267 23.7802 67.6436 23.946C68.6896 24.1222 69.7641 23.9955 70.7404 23.5809C71.7167 23.1662 72.554 22.481 73.1536 21.606C73.1536 21.606 81.3636 25.286 85.8136 18.076C85.8136 18.076 92.5636 20.846 90.5436 36.506C91.2493 35.3343 91.7942 34.073 92.1636 32.756Z" fill="#AB6338"/>
<path d="M92.5844 32.5959C92.5844 32.5959 97.5844 15.4859 81.9644 10.9659C81.9644 10.9659 76.8344 9.71594 73.9644 10.9159C73.9644 10.9159 57.7644 10.1659 56.0944 23.1359C55.3182 27.5584 55.5575 32.0995 56.7944 36.4159C56.8175 36.4727 56.858 36.5208 56.9101 36.5531C56.9622 36.5855 57.0233 36.6005 57.0844 36.5959L59.9844 36.5159C60.0209 36.5156 60.0567 36.5069 60.0893 36.4906C60.1219 36.4744 60.1504 36.4509 60.1725 36.422C60.1947 36.3931 60.21 36.3595 60.2172 36.3238C60.2245 36.2881 60.2235 36.2512 60.2144 36.2159C59.7044 34.0059 60.4544 25.4759 64.8444 21.9759C65.5947 22.6205 66.4961 23.0643 67.4644 23.2659C68.5034 23.4436 69.5719 23.3051 70.5312 22.8682C71.4905 22.4314 72.2964 21.7164 72.8444 20.8159C72.8444 20.8159 81.0144 24.6159 85.4744 17.4059C85.4744 17.4059 92.3944 19.8659 90.3844 36.2659C90.3802 36.2964 90.3824 36.3274 90.3909 36.357C90.3995 36.3866 90.4141 36.414 90.4339 36.4376C90.4537 36.4611 90.4782 36.4803 90.5058 36.4938C90.5335 36.5073 90.5637 36.5148 90.5944 36.5159H91.1044C91.149 36.5144 91.1922 36.5005 91.2293 36.4758C91.2664 36.451 91.2959 36.4165 91.3144 36.3759C91.5044 35.9659 91.9544 34.6659 92.5844 32.5959Z" fill="url(#paint26_linear_3448_4503)"/>
<path d="M80.8933 42.6959L73.5133 42.5359L73.3633 41.3459L75.6433 41.6659C76.6494 41.8525 77.6787 41.8795 78.6933 41.7459L81.1733 41.4859L80.8933 42.6959Z" fill="white"/>
<path d="M73.8327 43.026L73.5527 42.536L80.8927 42.696L80.4027 43.366C80.0192 43.8956 79.5092 44.3208 78.9193 44.603C78.3295 44.8851 77.6783 45.0152 77.0253 44.9814C76.3723 44.9476 75.7381 44.751 75.1805 44.4095C74.6229 44.068 74.1596 43.5924 73.8327 43.026Z" fill="url(#paint27_linear_3448_4503)"/>
<path d="M75.1035 44.3959C75.2235 43.9259 75.7135 43.5759 76.5435 43.6059C78.0635 43.6659 78.0535 44.7459 77.9135 44.8859C76.9485 45.0338 75.9615 44.8617 75.1035 44.3959Z" fill="#F59192"/>
<path d="M73.2935 41.106C74.464 41.3796 75.6615 41.5205 76.8635 41.526C78.322 41.5483 79.7806 41.4949 81.2335 41.366C81.229 41.8858 81.1146 42.3988 80.898 42.8713C80.6813 43.3439 80.3673 43.7653 79.9764 44.108C79.5855 44.4508 79.1267 44.707 78.6298 44.86C78.133 45.0131 77.6095 45.0594 77.0935 44.996C72.8635 44.896 73.2935 41.106 73.2935 41.106ZM76.8535 41.886C75.6768 41.8699 74.5058 41.7189 73.3635 41.436C73.4179 42.1691 73.6973 42.8676 74.1635 43.436C74.5408 43.8308 74.9986 44.1396 75.506 44.3415C76.0133 44.5434 76.5582 44.6336 77.1035 44.606C80.3935 44.686 81.0335 42.386 81.1035 41.656C79.6923 41.8127 78.2734 41.8895 76.8535 41.886Z" fill="#ED977E"/>
<path opacity="0.2" d="M88.0544 28.576C86.7644 27.486 82.5244 24.346 80.9544 25.346C80.8416 25.4116 80.747 25.5044 80.6794 25.616C80.6118 25.7275 80.5732 25.8543 80.5672 25.9846C80.5613 26.115 80.5881 26.2447 80.6452 26.362C80.7024 26.4793 80.7881 26.5804 80.8944 26.656C81.4368 27.0147 82.0512 27.2503 82.6944 27.346C84.4355 27.7673 86.1158 28.4092 87.6944 29.256C87.7846 29.3037 87.89 29.3137 87.9875 29.2837C88.085 29.2537 88.1666 29.1862 88.2144 29.096C88.2621 29.0058 88.2721 28.9004 88.2421 28.8028C88.2121 28.7053 88.1446 28.6237 88.0544 28.576Z" fill="#AB6338"/>
<path d="M88.3246 28.346C86.9746 27.176 82.5846 23.836 80.9246 24.806C80.8076 24.8791 80.7103 24.9797 80.6409 25.0989C80.5714 25.2181 80.5321 25.3524 80.5262 25.4902C80.5203 25.628 80.548 25.7652 80.607 25.8899C80.6659 26.0146 80.7543 26.1231 80.8646 26.206C81.4221 26.5874 82.0574 26.8401 82.7246 26.946C84.5506 27.4006 86.309 28.0932 87.9546 29.006C88.0366 29.0209 88.1212 29.0099 88.1966 28.9744C88.272 28.9389 88.3344 28.8807 88.3752 28.8081C88.4159 28.7354 88.433 28.6518 88.4239 28.5689C88.4148 28.4861 88.3801 28.4081 88.3246 28.346Z" fill="url(#paint28_linear_3448_4503)"/>
<path opacity="0.2" d="M66.2745 28.576C67.5645 27.486 71.8044 24.376 73.4244 25.296C73.5352 25.3632 73.6277 25.4567 73.6937 25.5682C73.7598 25.6796 73.7975 25.8056 73.8034 25.935C73.8094 26.0644 73.7834 26.1933 73.7277 26.3103C73.6721 26.4273 73.5886 26.5289 73.4844 26.606C72.9412 26.963 72.3272 27.1984 71.6844 27.296C69.9433 27.7173 68.263 28.3591 66.6844 29.206C66.6016 29.2438 66.508 29.2507 66.4205 29.2253C66.3331 29.1999 66.2577 29.144 66.208 29.0676C66.1583 28.9913 66.1377 28.8997 66.1499 28.8095C66.1621 28.7192 66.2063 28.6364 66.2745 28.576Z" fill="#AB6338"/>
<path d="M66.0633 28.346C67.4133 27.176 71.8033 23.836 73.4633 24.806C73.5802 24.8791 73.6776 24.9797 73.747 25.0989C73.8164 25.2181 73.8558 25.3524 73.8617 25.4902C73.8676 25.628 73.8399 25.7652 73.7809 25.8899C73.722 26.0146 73.6336 26.1231 73.5233 26.206C72.9658 26.5874 72.3305 26.8401 71.6633 26.946C69.851 27.4039 68.1063 28.0964 66.4733 29.006C66.3882 29.0337 66.2962 29.0322 66.2122 29.0015C66.1281 28.9708 66.0567 28.9128 66.0094 28.8368C65.9622 28.7607 65.9418 28.6711 65.9516 28.5821C65.9614 28.4931 66.0007 28.41 66.0633 28.346Z" fill="url(#paint29_linear_3448_4503)"/>
<path d="M83.2633 37.776C85.5553 37.776 87.4133 35.9179 87.4133 33.6259C87.4133 31.334 85.5553 29.476 83.2633 29.476C80.9713 29.476 79.1133 31.334 79.1133 33.6259C79.1133 35.9179 80.9713 37.776 83.2633 37.776Z" fill="white"/>
<path d="M84.4731 36.146C85.7268 36.146 86.7431 35.1296 86.7431 33.876C86.7431 32.6223 85.7268 31.606 84.4731 31.606C83.2194 31.606 82.2031 32.6223 82.2031 33.876C82.2031 35.1296 83.2194 36.146 84.4731 36.146Z" fill="url(#paint30_linear_3448_4503)"/>
<path d="M71.0934 37.776C73.3853 37.776 75.2433 35.9179 75.2433 33.6259C75.2433 31.334 73.3853 29.476 71.0934 29.476C68.8014 29.476 66.9434 31.334 66.9434 33.6259C66.9434 35.9179 68.8014 37.776 71.0934 37.776Z" fill="white"/>
<path d="M72.2837 36.146C73.5374 36.146 74.5537 35.1296 74.5537 33.876C74.5537 32.6223 73.5374 31.606 72.2837 31.606C71.03 31.606 70.0137 32.6223 70.0137 33.876C70.0137 35.1296 71.03 36.146 72.2837 36.146Z" fill="url(#paint31_linear_3448_4503)"/>
<path d="M12.3047 41.0959C13.8347 41.7259 15.3747 42.2959 16.9447 42.8059C18.5147 43.3159 20.0747 43.8059 21.6547 44.2559C24.8188 45.1357 28.0307 45.8335 31.2747 46.3459C34.5189 46.8738 37.7981 47.1579 41.0847 47.1959H43.5447C44.3647 47.1959 45.1847 47.0659 46.0047 47.0159C47.6447 46.9559 49.2547 46.5859 50.8947 46.3659C47.677 47.1156 44.3882 47.5179 41.0847 47.5659C37.7763 47.578 34.4723 47.3238 31.2047 46.8059C27.9473 46.2678 24.7275 45.523 21.5647 44.5759C18.3975 43.6426 15.3026 42.4796 12.3047 41.0959Z" fill="#F3796A"/>
<path d="M48.3045 52.5559C45.7198 53.8109 43.0208 54.8155 40.2445 55.5559C37.4638 56.301 34.6228 56.7996 31.7545 57.0459C28.8839 57.2847 25.9955 57.1974 23.1445 56.7859C20.2968 56.3497 17.5214 55.5289 14.8945 54.3459L16.8945 55.0359L17.8945 55.3859L18.8945 55.6259C19.5945 55.7859 20.2845 55.9759 20.9845 56.1159L23.0945 56.4259C25.924 56.7841 28.7837 56.8377 31.6245 56.5859C34.47 56.3555 37.2923 55.8974 40.0645 55.2159C41.4545 54.8659 42.8345 54.4859 44.1845 54.0359C45.5846 53.6203 46.9601 53.1262 48.3045 52.5559Z" fill="#F3796A"/>
<path d="M45.6244 59.636C43.4102 63.4787 40.5166 66.8873 37.0844 69.696C35.3691 71.1018 33.5006 72.3095 31.5144 73.296C29.5227 74.2586 27.4104 74.9481 25.2344 75.346L26.8244 74.906L27.6144 74.676L28.3844 74.376C28.8944 74.166 29.3844 73.996 29.9144 73.776L31.3944 73.046C33.3436 72.0359 35.1805 70.8225 36.8744 69.426C38.5744 68.0359 40.1596 66.511 41.6144 64.866C43.0814 63.2266 44.4219 61.4782 45.6244 59.636Z" fill="#F3796A"/>
</g>
</g>
<defs>
<linearGradient id="paint0_linear_3448_4503" x1="3.19408" y1="59.676" x2="69.3441" y2="59.676" gradientUnits="userSpaceOnUse">
<stop stop-color="#F37065"/>
<stop offset="0.93" stop-color="#DB443B"/>
</linearGradient>
<linearGradient id="paint1_linear_3448_4503" x1="86.5348" y1="46.3254" x2="84.5997" y2="41.4615" gradientUnits="userSpaceOnUse">
<stop offset="0.05" stop-color="#FCB447"/>
<stop offset="0.52" stop-color="#FDB852"/>
<stop offset="1" stop-color="#FDB957"/>
</linearGradient>
<linearGradient id="paint2_linear_3448_4503" x1="104.769" y1="40.1798" x2="86.627" y2="49.272" gradientUnits="userSpaceOnUse">
<stop stop-color="#FEE2CC"/>
<stop offset="0.3" stop-color="#FED9BB"/>
<stop offset="0.59" stop-color="#FCCAB7"/>
<stop offset="0.68" stop-color="#FBC0AE"/>
<stop offset="0.86" stop-color="#F9B09F"/>
<stop offset="1" stop-color="#F8AA9A"/>
</linearGradient>
<linearGradient id="paint3_linear_3448_4503" x1="85.0307" y1="42.3884" x2="88.1128" y2="50.1353" gradientUnits="userSpaceOnUse">
<stop stop-color="#FDB957"/>
<stop offset="0.65" stop-color="#FDBC57"/>
<stop offset="0.95" stop-color="#FEC156"/>
</linearGradient>
<linearGradient id="paint4_linear_3448_4503" x1="96.4089" y1="41.6744" x2="112.009" y2="31.8075" gradientUnits="userSpaceOnUse">
<stop stop-color="#FCCAB7"/>
<stop offset="0.7" stop-color="#FED9BB"/>
<stop offset="1" stop-color="#FEE2CC"/>
</linearGradient>
<linearGradient id="paint5_linear_3448_4503" x1="116.128" y1="24.7291" x2="106.867" y2="29.1538" gradientUnits="userSpaceOnUse">
<stop stop-color="#FCCAB7"/>
<stop offset="0.23" stop-color="#FDD3BA"/>
<stop offset="0.51" stop-color="#FED9BB"/>
<stop offset="1" stop-color="#FEE2CC"/>
</linearGradient>
<linearGradient id="paint6_linear_3448_4503" x1="84.8077" y1="87.8894" x2="99.617" y2="88.0315" gradientUnits="userSpaceOnUse">
<stop offset="0.05" stop-color="#F05455"/>
<stop offset="0.39" stop-color="#F05753"/>
<stop offset="1" stop-color="#F2665C"/>
</linearGradient>
<linearGradient id="paint7_linear_3448_4503" x1="84.8017" y1="90.6395" x2="94.3813" y2="90.7315" gradientUnits="userSpaceOnUse">
<stop stop-color="#FDDED0"/>
<stop offset="0.95" stop-color="#FEE2CC"/>
</linearGradient>
<linearGradient id="paint8_linear_3448_4503" x1="93.7456" y1="90.3553" x2="99.6354" y2="90.4119" gradientUnits="userSpaceOnUse">
<stop offset="0.05" stop-color="#FDDED0"/>
<stop offset="1" stop-color="#FEE2CC"/>
</linearGradient>
<linearGradient id="paint9_linear_3448_4503" x1="89.678" y1="86.9861" x2="92.7478" y2="87.0156" gradientUnits="userSpaceOnUse">
<stop stop-color="#FDDED0"/>
<stop offset="0.95" stop-color="#FEE2CC"/>
</linearGradient>
<linearGradient id="paint10_linear_3448_4503" x1="91.6666" y1="88.1852" x2="94.7364" y2="88.2147" gradientUnits="userSpaceOnUse">
<stop stop-color="#FDDED0"/>
<stop offset="0.95" stop-color="#FEE2CC"/>
</linearGradient>
<linearGradient id="paint11_linear_3448_4503" x1="82.2869" y1="79.6863" x2="92.056" y2="71.4004" gradientUnits="userSpaceOnUse">
<stop stop-color="#164B9C"/>
<stop offset="0.15" stop-color="#194C9D"/>
<stop offset="0.25" stop-color="#224E9F"/>
<stop offset="0.33" stop-color="#3052A2"/>
<stop offset="0.54" stop-color="#385DAA"/>
<stop offset="0.95" stop-color="#4670B7"/>
</linearGradient>
<linearGradient id="paint12_linear_3448_4503" x1="62.0537" y1="96.396" x2="76.6737" y2="96.396" gradientUnits="userSpaceOnUse">
<stop offset="0.05" stop-color="#F05455"/>
<stop offset="0.39" stop-color="#F05753"/>
<stop offset="1" stop-color="#F2665C"/>
</linearGradient>
<linearGradient id="paint13_linear_3448_4503" x1="62.0747" y1="99.116" x2="71.5347" y2="99.116" gradientUnits="userSpaceOnUse">
<stop stop-color="#FDDED0"/>
<stop offset="0.95" stop-color="#FEE2CC"/>
</linearGradient>
<linearGradient id="paint14_linear_3448_4503" x1="70.8938" y1="98.746" x2="76.7138" y2="98.746" gradientUnits="userSpaceOnUse">
<stop offset="0.05" stop-color="#FDDED0"/>
<stop offset="1" stop-color="#FEE2CC"/>
</linearGradient>
<linearGradient id="paint15_linear_3448_4503" x1="66.8547" y1="95.4559" x2="69.8947" y2="95.4559" gradientUnits="userSpaceOnUse">
<stop stop-color="#FDDED0"/>
<stop offset="0.95" stop-color="#FEE2CC"/>
</linearGradient>
<linearGradient id="paint16_linear_3448_4503" x1="68.8332" y1="96.616" x2="71.8632" y2="96.616" gradientUnits="userSpaceOnUse">
<stop stop-color="#FDDED0"/>
<stop offset="0.95" stop-color="#FEE2CC"/>
</linearGradient>
<linearGradient id="paint17_linear_3448_4503" x1="59.9734" y1="75.076" x2="72.9734" y2="85.636" gradientUnits="userSpaceOnUse">
<stop stop-color="#164B9C"/>
<stop offset="0.45" stop-color="#194C9D"/>
<stop offset="0.75" stop-color="#224E9F"/>
<stop offset="1" stop-color="#3052A2"/>
</linearGradient>
<linearGradient id="paint18_linear_3448_4503" x1="64.8633" y1="53.3479" x2="93.2424" y2="70.6852" gradientUnits="userSpaceOnUse">
<stop stop-color="#FDB957"/>
<stop offset="0.14" stop-color="#FEBE56"/>
<stop offset="0.46" stop-color="#FEC156"/>
<stop offset="0.81" stop-color="#FFD540"/>
<stop offset="1" stop-color="#FDE045"/>
</linearGradient>
<linearGradient id="paint19_linear_3448_4503" x1="57.5054" y1="57.6461" x2="52.2854" y2="57.6461" gradientUnits="userSpaceOnUse">
<stop offset="0.05" stop-color="#FCB447"/>
<stop offset="0.52" stop-color="#FDB852"/>
<stop offset="1" stop-color="#FDB957"/>
</linearGradient>
<linearGradient id="paint20_linear_3448_4503" x1="57.5145" y1="71.696" x2="59.2545" y2="51.496" gradientUnits="userSpaceOnUse">
<stop stop-color="#FEE2CC"/>
<stop offset="0.3" stop-color="#FED9BB"/>
<stop offset="0.59" stop-color="#FCCAB7"/>
<stop offset="0.68" stop-color="#FBC0AE"/>
<stop offset="0.86" stop-color="#F9B09F"/>
<stop offset="1" stop-color="#F8AA9A"/>
</linearGradient>
<linearGradient id="paint21_linear_3448_4503" x1="52.2854" y1="52.556" x2="60.6054" y2="52.556" gradientUnits="userSpaceOnUse">
<stop stop-color="#FDB957"/>
<stop offset="0.65" stop-color="#FDBC57"/>
<stop offset="0.95" stop-color="#FEC156"/>
</linearGradient>
<linearGradient id="paint22_linear_3448_4503" x1="55.4498" y1="60.5165" x2="56.5604" y2="78.9312" gradientUnits="userSpaceOnUse">
<stop stop-color="#FCCAB7"/>
<stop offset="0.7" stop-color="#FED9BB"/>
<stop offset="1" stop-color="#FEE2CC"/>
</linearGradient>
<linearGradient id="paint23_linear_3448_4503" x1="59.8141" y1="77.966" x2="52.8341" y2="83.166" gradientUnits="userSpaceOnUse">
<stop stop-color="#FEE2CC"/>
<stop offset="0.49" stop-color="#FED9BB"/>
<stop offset="0.77" stop-color="#FDD3BA"/>
<stop offset="1" stop-color="#FCCAB7"/>
</linearGradient>
<linearGradient id="paint24_linear_3448_4503" x1="75.155" y1="48.976" x2="58.685" y2="45.876" gradientUnits="userSpaceOnUse">
<stop stop-color="#F05455"/>
<stop offset="0.93" stop-color="#E5443C"/>
</linearGradient>
<linearGradient id="paint25_linear_3448_4503" x1="91.4835" y1="36.336" x2="58.5935" y2="25.276" gradientUnits="userSpaceOnUse">
<stop stop-color="#FEE2CC"/>
<stop offset="0.3" stop-color="#FED9BB"/>
<stop offset="0.66" stop-color="#FCCAB7"/>
<stop offset="0.69" stop-color="#FCC6B4"/>
<stop offset="1" stop-color="#F8AA9A"/>
</linearGradient>
<linearGradient id="paint26_linear_3448_4503" x1="91.1944" y1="25.7559" x2="53.4044" y2="22.1359" gradientUnits="userSpaceOnUse">
<stop stop-color="#9F603A"/>
<stop offset="0.63" stop-color="#7A4B34"/>
<stop offset="1" stop-color="#4A252F"/>
</linearGradient>
<linearGradient id="paint27_linear_3448_4503" x1="80.8927" y1="43.766" x2="73.5527" y2="43.766" gradientUnits="userSpaceOnUse">
<stop offset="0.01" stop-color="#EF4553"/>
<stop offset="0.62" stop-color="#BA3D45"/>
<stop offset="1" stop-color="#9E383D"/>
</linearGradient>
<linearGradient id="paint28_linear_3448_4503" x1="89.6803" y1="29.1609" x2="79.9555" y2="26.8338" gradientUnits="userSpaceOnUse">
<stop stop-color="#4A252F"/>
<stop offset="1" stop-color="#7A4B34"/>
</linearGradient>
<linearGradient id="paint29_linear_3448_4503" x1="66.4814" y1="27.5229" x2="76.2248" y2="25.1551" gradientUnits="userSpaceOnUse">
<stop stop-color="#4A252F"/>
<stop offset="0.97" stop-color="#7A4B34"/>
</linearGradient>
<linearGradient id="paint30_linear_3448_4503" x1="86.7431" y1="33.876" x2="82.2031" y2="33.876" gradientUnits="userSpaceOnUse">
<stop stop-color="#162649"/>
<stop offset="1" stop-color="#273861"/>
</linearGradient>
<linearGradient id="paint31_linear_3448_4503" x1="74.5637" y1="33.876" x2="70.0137" y2="33.876" gradientUnits="userSpaceOnUse">
<stop stop-color="#162649"/>
<stop offset="1" stop-color="#273861"/>
</linearGradient>
</defs>
</svg>
