<svg width="73" height="75" viewBox="0 0 73 75" fill="none" xmlns="http://www.w3.org/2000/svg">
<path d="M66.251 35.3487C54.8554 34.0331 41.7171 55.0476 33.5846 39.4832C28.63 30.0011 46.3129 25.4395 50.5158 17.0849C58.1357 1.98188 39.8718 2.19118e-06 37.2237 2.19118e-06C30.6227 -0.00226279 24.1399 1.75145 18.4403 5.08126C12.7407 8.41107 8.02938 13.1971 4.78972 18.9484C1.55006 24.6998 -0.101373 31.2094 0.00481637 37.8096C0.111006 44.4097 1.97101 50.8628 5.39401 56.5069C8.81701 62.1511 13.6798 66.7831 19.4836 69.9278C25.2874 73.0726 31.8232 74.6168 38.4207 74.4022C45.0183 74.1876 51.44 72.2219 57.0271 68.7066C62.6143 65.1913 67.1657 60.2531 70.2147 54.3984C73.1704 47.4961 74.0246 36.2371 66.251 35.3487Z" fill="#FEE3CC"/>
<path d="M37.5834 9.90914C37.5834 11.1222 37.2236 12.3081 36.5497 13.3167C35.8757 14.3254 34.9178 15.1115 33.7971 15.5757C32.6763 16.0399 31.4431 16.1614 30.2533 15.9248C29.0635 15.6881 27.9707 15.1039 27.1129 14.2462C26.2551 13.3884 25.6709 12.2955 25.4343 11.1057C25.1976 9.91595 25.3191 8.68269 25.7833 7.56194C26.2475 6.44119 27.0337 5.4833 28.0423 4.80934C29.051 4.13538 30.2368 3.77566 31.4499 3.77566C32.256 3.7734 33.0546 3.93051 33.7998 4.23795C34.5449 4.54539 35.2219 4.99708 35.7919 5.56708C36.3619 6.13707 36.8136 6.81412 37.1211 7.55928C37.4285 8.30445 37.5856 9.10304 37.5834 9.90914Z" fill="#99CC99"/>
<path d="M18.6342 26.2937C18.6342 27.5067 18.2744 28.6926 17.6005 29.7013C16.9265 30.7099 15.9686 31.4961 14.8478 31.9603C13.7271 32.4245 12.4939 32.546 11.3041 32.3093C10.1143 32.0726 9.02145 31.4885 8.16366 30.6307C7.30588 29.7729 6.72171 28.68 6.48505 27.4902C6.24838 26.3005 6.36984 25.0672 6.83407 23.9465C7.29829 22.8257 8.08445 21.8678 9.09309 21.1938C10.1017 20.5199 11.2876 20.1602 12.5007 20.1602C13.3068 20.1579 14.1053 20.315 14.8505 20.6224C15.5957 20.9299 16.2727 21.3816 16.8427 21.9516C17.4127 22.5216 17.8644 23.1986 18.1719 23.9438C18.4793 24.689 18.6364 25.4876 18.6342 26.2937Z" fill="#FFC64A"/>
<path d="M18.6342 49.8024C18.6342 51.0155 18.2744 52.2013 17.6005 53.21C16.9265 54.2186 15.9686 55.0048 14.8478 55.469C13.7271 55.9332 12.4939 56.0548 11.3041 55.8181C10.1143 55.5814 9.02145 54.9973 8.16366 54.1395C7.30588 53.2817 6.72171 52.1888 6.48505 50.999C6.24838 49.8093 6.36984 48.576 6.83407 47.4553C7.29829 46.3345 8.08445 45.3766 9.09309 44.7026C10.1017 44.0287 11.2876 43.669 12.5007 43.669C13.3068 43.6667 14.1053 43.8238 14.8505 44.1312C15.5957 44.4387 16.2727 44.8904 16.8427 45.4604C17.4127 46.0304 17.8644 46.7074 18.1719 47.4526C18.4793 48.1978 18.6364 48.9964 18.6342 49.8024Z" fill="#F37065"/>
<path d="M41.0502 65.8622C41.0502 67.0753 40.6904 68.2612 40.0165 69.2698C39.3425 70.2785 38.3846 71.0646 37.2638 71.5288C36.1431 71.993 34.9099 72.1145 33.7201 71.8779C32.5303 71.6412 31.4375 71.057 30.5797 70.1993C29.7219 69.3415 29.1377 68.2486 28.9011 67.0588C28.6644 65.869 28.7859 64.6358 29.2501 63.515C29.7143 62.3943 30.5005 61.4364 31.5091 60.7624C32.5178 60.0885 33.7036 59.7288 34.9167 59.7288C36.5434 59.7288 38.1035 60.375 39.2537 61.5252C40.404 62.6755 41.0502 64.2355 41.0502 65.8622Z" fill="#4C9FD5"/>
<path d="M65.3626 53.0144C65.3626 54.2275 65.0029 55.4133 64.329 56.422C63.655 57.4306 62.6971 58.2168 61.5763 58.681C60.4556 59.1452 59.2223 59.2667 58.0326 59.03C56.8428 58.7933 55.7499 58.2092 54.8921 57.3514C54.0343 56.4937 53.4502 55.4007 53.2136 54.211C52.9769 53.0212 53.0984 51.788 53.5626 50.6672C54.0268 49.5465 54.813 48.5885 55.8216 47.9146C56.8303 47.2406 58.0161 46.8809 59.2292 46.8809C60.0352 46.8786 60.8338 47.0358 61.579 47.3432C62.3242 47.6506 63.0012 48.1023 63.5712 48.6723C64.1412 49.2423 64.5929 49.9194 64.9004 50.6646C65.2078 51.4097 65.3649 52.2083 65.3626 53.0144Z" fill="#9C6FB0"/>
</svg>
