<svg width="60" height="74" viewBox="0 0 60 74" fill="none" xmlns="http://www.w3.org/2000/svg">
<path d="M31.3608 60.0962V51.7762C31.3608 51.221 31.5807 50.6884 31.9723 50.2948C32.364 49.9013 32.8956 49.6789 33.4508 49.6762H36.1808V46.1862C36.1799 42.9262 35.2843 39.729 33.5915 36.943C31.8987 34.157 29.4737 31.889 26.5808 30.3862C24.0689 31.7578 21.2527 32.4765 18.3908 32.4765C15.5288 32.4765 12.7127 31.7578 10.2008 30.3862C7.29921 31.8831 4.86465 34.1484 3.16287 36.9347C1.46109 39.721 0.557523 42.9213 0.550781 46.1862V59.4162C0.553365 59.5958 0.625839 59.7672 0.752808 59.8942C0.879777 60.0212 1.05123 60.0936 1.23077 60.0962H31.3608Z" fill="#FFC648"/>
<path d="M18.3908 29.6663C26.3105 29.6663 32.7308 23.246 32.7308 15.3263C32.7308 7.4065 26.3105 0.986267 18.3908 0.986267C10.471 0.986267 4.05078 7.4065 4.05078 15.3263C4.05078 23.246 10.471 29.6663 18.3908 29.6663Z" fill="#FFC648"/>
<path d="M37.2505 63.6063V51.7762C37.2518 51.6704 37.2321 51.5652 37.1924 51.467C37.1528 51.3688 37.0941 51.2794 37.0197 51.2041C36.9453 51.1287 36.8566 51.0689 36.7589 51.0281C36.6612 50.9873 36.5563 50.9662 36.4504 50.9662H33.4504C33.3445 50.9662 33.2397 50.9873 33.142 51.0281C33.0443 51.0689 32.9556 51.1287 32.8812 51.2041C32.8068 51.2794 32.748 51.3688 32.7084 51.467C32.6688 51.5652 32.6491 51.6704 32.6505 51.7762V64.1362C32.6505 64.3484 32.7347 64.5519 32.8848 64.7019C33.0348 64.852 33.2383 64.9363 33.4504 64.9363H35.2205L37.2505 63.6063Z" fill="url(#paint0_linear_1901_621)"/>
<path d="M44.5008 46.5262H41.7008C41.2037 46.5262 40.8008 46.9292 40.8008 47.4262V61.7362C40.8008 62.2333 41.2037 62.6362 41.7008 62.6362H44.5008C44.9978 62.6362 45.4008 62.2333 45.4008 61.7362V47.4262C45.4008 46.9292 44.9978 46.5262 44.5008 46.5262Z" fill="url(#paint1_linear_1901_621)"/>
<path d="M51.4105 58.4663C51.2653 58.3005 51.1703 58.0967 51.1366 57.8789C51.103 57.6611 51.1321 57.4382 51.2206 57.2363C51.3102 57.0329 51.4574 56.8602 51.6439 56.7394C51.8305 56.6186 52.0483 56.5549 52.2705 56.5563H54.6005V42.6763C54.6005 42.4111 54.4952 42.1567 54.3076 41.9692C54.1201 41.7816 53.8657 41.6763 53.6005 41.6763H51.0605C50.7953 41.6763 50.541 41.7816 50.3534 41.9692C50.1659 42.1567 50.0605 42.4111 50.0605 42.6763V59.8763C50.0605 60.1415 50.1659 60.3958 50.3534 60.5834C50.541 60.7709 50.7953 60.8763 51.0605 60.8763H51.2305L52.5005 59.6263L51.4105 58.4663Z" fill="url(#paint2_linear_1901_621)"/>
<path d="M38.3701 69.3162C38.5514 69.1846 38.7673 69.1087 38.9911 69.0981C39.215 69.0874 39.437 69.1424 39.6301 69.2562L46.2101 73.2562L56.2101 63.3962C56.4097 63.1946 56.678 63.0755 56.9614 63.0625C57.2449 63.0495 57.5228 63.1437 57.7401 63.3262L59.0301 64.3862L59.2001 57.8962H52.6001L53.5301 58.8962C53.7224 59.1155 53.8242 59.3996 53.8149 59.6911C53.8056 59.9826 53.6859 60.2597 53.4801 60.4662L46.3801 67.4662C46.2063 67.6369 45.9825 67.7474 45.7413 67.7816C45.5002 67.8158 45.2544 67.7719 45.0401 67.6562L38.5501 64.2862L29.3301 70.2862L31.9401 73.8862L38.3701 69.3162Z" fill="url(#paint3_linear_1901_621)"/>
<defs>
<linearGradient id="paint0_linear_1901_621" x1="34.5605" y1="39.9362" x2="35.1305" y2="66.0263" gradientUnits="userSpaceOnUse">
<stop stop-color="#F2665C"/>
<stop offset="0.84" stop-color="#ED977E"/>
</linearGradient>
<linearGradient id="paint1_linear_1901_621" x1="43.0608" y1="32.2662" x2="43.1208" y2="67.6062" gradientUnits="userSpaceOnUse">
<stop stop-color="#F2665C"/>
<stop offset="0.84" stop-color="#ED977E"/>
</linearGradient>
<linearGradient id="paint2_linear_1901_621" x1="52.5605" y1="32.2763" x2="52.1005" y2="63.3563" gradientUnits="userSpaceOnUse">
<stop stop-color="#F2665C"/>
<stop offset="0.84" stop-color="#ED977E"/>
</linearGradient>
<linearGradient id="paint3_linear_1901_621" x1="8.51008" y1="86.6162" x2="68.9701" y2="54.7362" gradientUnits="userSpaceOnUse">
<stop stop-color="#F2665C"/>
<stop offset="0.84" stop-color="#ED977E"/>
</linearGradient>
</defs>
</svg>
