<svg width="97" height="61" viewBox="0 0 97 61" fill="none" xmlns="http://www.w3.org/2000/svg">
<path d="M93.3743 5.78965L96.5123 1.245C96.6056 1.12005 96.6591 0.969995 96.6662 0.814261C96.6732 0.658526 96.6334 0.504287 96.5518 0.371439C96.4702 0.238591 96.3507 0.133266 96.2086 0.0690919C96.0666 0.00491746 95.9085 -0.0151811 95.7549 0.0114359L90.4961 0.768889L93.3743 5.78965Z" fill="black"/>
<path d="M10.2231 38.749L2.88671 42.9474C2.24075 43.3018 1.67165 43.7809 1.21244 44.3571C0.753229 44.9333 0.413063 45.5949 0.211717 46.3037C0.010372 47.0124 -0.0481615 47.7541 0.039542 48.4856C0.127245 49.2172 0.359427 49.924 0.722597 50.5651L4.59638 57.3387C5.32479 58.6363 6.53753 59.5925 7.96922 59.9981C9.40091 60.4036 10.935 60.2256 12.2357 59.5029L19.5504 55.3045L10.2231 38.749Z" fill="#FFD552"/>
<path d="M13.0569 38.7709L10.3301 38.9657L14.9397 46.9729L19.5276 55.0018L21.0641 52.7295L24.4401 52.1885L26.5826 49.5699L29.3743 49.3535L24.7647 41.3462L20.1552 33.3174L18.5753 35.6113L15.2426 36.1307L13.0569 38.7709Z" fill="white"/>
<path d="M78.5499 13.1476L80.3677 7.10972L76.7537 5.37845L74.806 2.00244L20.1621 33.3172L23.062 38.3812L26.4597 44.3108L29.3812 49.3533L84.0251 18.0169L82.1423 14.7707L78.5499 13.1476Z" fill="url(#paint0_linear_377_5864)"/>
<path d="M76.7543 5.37826L80.3684 7.10952L78.5505 13.1474L82.143 14.7705L84.0258 18.0167L93.3747 5.83271L90.4965 0.812012L74.8066 1.98059V2.00225L76.7543 5.37826Z" fill="#FEE3CC"/>
<defs>
<linearGradient id="paint0_linear_377_5864" x1="24.7114" y1="41.4131" x2="102.156" y2="-2.81394" gradientUnits="userSpaceOnUse">
<stop stop-color="#F2665C"/>
<stop offset="0.84" stop-color="#ED977E"/>
</linearGradient>
</defs>
</svg>
