<svg width="98" height="75" viewBox="0 0 98 75" fill="none" xmlns="http://www.w3.org/2000/svg">
<path d="M22.5497 31.8263H75.4697C75.902 31.8263 76.3166 31.998 76.6223 32.3037C76.928 32.6094 77.0997 33.024 77.0997 33.4563V72.5763C77.0997 72.789 77.0578 72.9997 76.9764 73.1962C76.895 73.3928 76.7756 73.5714 76.6252 73.7218C76.4748 73.8722 76.2962 73.9916 76.0996 74.073C75.9031 74.1544 75.6924 74.1963 75.4797 74.1963H22.5497C22.3369 74.1963 22.1263 74.1544 21.9297 74.073C21.7332 73.9916 21.5546 73.8722 21.4042 73.7218C21.2537 73.5714 21.1344 73.3928 21.053 73.1962C20.9716 72.9997 20.9297 72.789 20.9297 72.5763V33.4563C20.9297 33.0257 21.1 32.6126 21.4036 32.3072C21.7071 32.0018 22.1191 31.8289 22.5497 31.8263Z" fill="#F37065"/>
<path d="M22.5497 31.8262H75.5497C75.9661 31.8262 76.3654 31.9916 76.6598 32.2861C76.9543 32.5805 77.1197 32.9798 77.1197 33.3962V41.9362H20.9297V33.3962C20.9296 33.1858 20.9718 32.9775 21.0538 32.7836C21.1358 32.5898 21.2559 32.4145 21.4071 32.268C21.5582 32.1216 21.7372 32.007 21.9335 31.9311C22.1298 31.8552 22.3393 31.8195 22.5497 31.8262Z" fill="#DB655A"/>
<path d="M28.8206 39.5662C30.3008 39.5662 31.5006 38.3664 31.5006 36.8862C31.5006 35.4061 30.3008 34.2062 28.8206 34.2062C27.3405 34.2062 26.1406 35.4061 26.1406 36.8862C26.1406 38.3664 27.3405 39.5662 28.8206 39.5662Z" fill="white"/>
<path d="M37.1507 39.5662C38.6308 39.5662 39.8307 38.3664 39.8307 36.8862C39.8307 35.4061 38.6308 34.2062 37.1507 34.2062C35.6706 34.2062 34.4707 35.4061 34.4707 36.8862C34.4707 38.3664 35.6706 39.5662 37.1507 39.5662Z" fill="white"/>
<path d="M45.5999 39.5662C47.0801 39.5662 48.2799 38.3664 48.2799 36.8862C48.2799 35.4061 47.0801 34.2062 45.5999 34.2062C44.1198 34.2062 42.9199 35.4061 42.9199 36.8862C42.9199 38.3664 44.1198 39.5662 45.5999 39.5662Z" fill="white"/>
<path d="M34.22 53.5563H29.38C29.0321 53.5563 28.75 53.8383 28.75 54.1863V59.8163C28.75 60.1642 29.0321 60.4463 29.38 60.4463H34.22C34.5679 60.4463 34.85 60.1642 34.85 59.8163V54.1863C34.85 53.8383 34.5679 53.5563 34.22 53.5563Z" fill="white"/>
<path d="M42.7596 49.7762V64.3162C42.7596 64.8362 42.0796 64.9562 41.4196 64.5862L34.4196 60.6562C34.3242 60.599 34.2449 60.5185 34.1889 60.4224C34.133 60.3262 34.1023 60.2175 34.0996 60.1062V53.9862C34.1023 53.875 34.133 53.7663 34.1889 53.6701C34.2449 53.574 34.3242 53.4935 34.4196 53.4362L41.4196 49.5062C42.0796 49.1562 42.7596 49.2762 42.7596 49.7762Z" fill="white"/>
<path d="M46.3906 53.6263V60.5063" stroke="white" stroke-width="0.71" stroke-linecap="round" stroke-linejoin="round"/>
<path d="M52.7402 53.6863V60.5763" stroke="white" stroke-width="0.71" stroke-linecap="round" stroke-linejoin="round"/>
<path d="M55.5391 54.2162V61.1062" stroke="white" stroke-width="0.71" stroke-linecap="round" stroke-linejoin="round"/>
<path d="M63.0996 53.6863V58.6363" stroke="white" stroke-width="0.71" stroke-linecap="round" stroke-linejoin="round"/>
<path d="M65.8906 53.6863V58.6363" stroke="white" stroke-width="0.71" stroke-linecap="round" stroke-linejoin="round"/>
<path d="M68.4199 53.9662V58.9062" stroke="white" stroke-width="0.71" stroke-linecap="round" stroke-linejoin="round"/>
<path d="M49.8809 49.8862V64.3662" stroke="white" stroke-width="0.71" stroke-linecap="round" stroke-linejoin="round"/>
<path d="M58.0391 49.8263V64.3063" stroke="white" stroke-width="0.71" stroke-linecap="round" stroke-linejoin="round"/>
<path d="M60.5996 60.0663V52.0463" stroke="white" stroke-width="0.71" stroke-linecap="round" stroke-linejoin="round"/>
<path d="M88.6506 47.6163H82.3706C82.5511 42.9393 82.3303 38.2555 81.7106 33.6163C80.8206 28.3463 78.6206 20.8763 73.2606 15.2363C67.5006 9.16629 59.0906 6.23628 48.2606 6.52628C37.0506 6.83628 28.6006 10.2463 23.1406 16.6663C18.4006 22.2563 16.7206 29.2263 16.1406 34.0963C15.7251 38.7073 15.5582 43.3373 15.6406 47.9663H9.40058C9.25539 43.1614 9.40901 38.3521 9.86057 33.5663C10.2464 30.0598 11.0384 26.61 12.2206 23.2863C13.6031 19.4054 15.6615 15.7998 18.3006 12.6363C24.9706 4.76628 34.9906 0.636282 48.0806 0.236282C60.7906 -0.113718 70.8006 3.48628 77.8506 10.9263C80.8255 14.1428 83.1967 17.869 84.8506 21.9263C86.3007 25.4114 87.3443 29.0521 87.9606 32.7763C88.6355 37.6922 88.8665 42.6589 88.6506 47.6163Z" fill="#8AC48A"/>
<path d="M94.1899 55.4062H95.2899C96.3282 55.4062 97.1699 54.5645 97.1699 53.5262V49.1362C97.1699 48.098 96.3282 47.2562 95.2899 47.2562H94.1899C93.1516 47.2562 92.3099 48.098 92.3099 49.1362V53.5262C92.3099 54.5645 93.1516 55.4062 94.1899 55.4062Z" fill="#FFC648"/>
<path d="M88.9491 63.1462H85.8191V40.2363H88.9491C90.6518 40.2363 92.2848 40.9126 93.4888 42.1166C94.6928 43.3206 95.3691 44.9536 95.3691 46.6562V56.7262C95.3691 58.4289 94.6928 60.0619 93.4888 61.2659C92.2848 62.4699 90.6518 63.1462 88.9491 63.1462Z" fill="#8AC48A"/>
<path d="M83.8898 64.0663H83.8998C85.2032 64.0663 86.2598 63.0097 86.2598 61.7063V41.4263C86.2598 40.1229 85.2032 39.0663 83.8998 39.0663H83.8898C82.5864 39.0663 81.5298 40.1229 81.5298 41.4263V61.7063C81.5298 63.0097 82.5864 64.0663 83.8898 64.0663Z" fill="#FFC648"/>
<path d="M3.69093 47.8263H2.59093C1.55263 47.8263 0.710938 48.668 0.710938 49.7063V54.0963C0.710938 55.1346 1.55263 55.9763 2.59093 55.9763H3.69093C4.72923 55.9763 5.57094 55.1346 5.57094 54.0963V49.7063C5.57094 48.668 4.72923 47.8263 3.69093 47.8263Z" fill="#FFC648"/>
<path d="M8.92983 40.7762H12.0598V63.6862H8.92983C7.22714 63.6862 5.59419 63.0099 4.39021 61.8059C3.18622 60.6019 2.50984 58.9689 2.50984 57.2663V47.2262C2.50588 46.3806 2.66903 45.5426 2.98989 44.7602C3.31076 43.9778 3.78303 43.2666 4.37957 42.6672C4.97612 42.0679 5.68519 41.5923 6.46606 41.2678C7.24693 40.9433 8.08422 40.7762 8.92983 40.7762Z" fill="#8AC48A"/>
<path d="M13.9794 39.6362H13.9694C12.666 39.6362 11.6094 40.6928 11.6094 41.9962V62.2762C11.6094 63.5796 12.666 64.6362 13.9694 64.6362H13.9794C15.2828 64.6362 16.3394 63.5796 16.3394 62.2762V41.9962C16.3394 40.6928 15.2828 39.6362 13.9794 39.6362Z" fill="#FFC648"/>
</svg>
