<svg width="78" height="77" viewBox="0 0 78 77" fill="none" xmlns="http://www.w3.org/2000/svg">
<path d="M72.4596 16.3862H5.25961C2.68596 16.3862 0.599609 18.4726 0.599609 21.0462V71.5162C0.599609 74.0899 2.68596 76.1762 5.25961 76.1762H72.4596C75.0333 76.1762 77.1196 74.0899 77.1196 71.5162V21.0462C77.1196 18.4726 75.0333 16.3862 72.4596 16.3862Z" fill="#8AC48A"/>
<path d="M67.4896 22.3663H10.2396C8.36736 22.3663 6.84961 23.884 6.84961 25.7563V66.3463C6.84961 68.2185 8.36736 69.7363 10.2396 69.7363H67.4896C69.3619 69.7363 70.8796 68.2185 70.8796 66.3463V25.7563C70.8796 23.884 69.3619 22.3663 67.4896 22.3663Z" fill="white"/>
<path d="M48.7405 46.2562C48.5655 45.938 48.3174 45.666 48.0166 45.4625C47.7158 45.2591 47.3709 45.1301 47.0105 45.0863C46.2973 44.9904 45.5726 45.1346 44.9505 45.4963C43.7456 46.3097 42.6529 47.278 41.7005 48.3763C40.5951 49.4368 39.1574 50.0832 37.6305 50.2062C36.8644 50.2673 36.0941 50.1651 35.3705 49.9063C34.6574 49.6509 33.9966 49.268 33.4205 48.7763C32.3671 47.7175 31.4068 46.5699 30.5505 45.3463C29.7088 44.1797 28.5926 43.2386 27.3005 42.6063C25.9659 42.0531 24.5222 41.8136 23.0805 41.9063C21.6182 41.9866 20.1641 42.1771 18.7305 42.4763C20.1509 42.0935 21.5984 41.8194 23.0605 41.6563C24.5521 41.5134 26.0568 41.7118 27.4605 42.2363C28.8358 42.8605 30.0274 43.8282 30.9205 45.0463C31.7704 46.2228 32.7206 47.3236 33.7605 48.3363C34.2704 48.8203 34.8744 49.1944 35.535 49.4352C36.1956 49.676 36.8986 49.7785 37.6005 49.7363C39.0257 49.622 40.3727 49.0382 41.4305 48.0763C42.4377 46.9927 43.5844 46.0478 44.8405 45.2663C45.5169 44.9261 46.2862 44.8172 47.0305 44.9562C47.398 45.0222 47.7447 45.1744 48.0419 45.4004C48.3392 45.6264 48.5786 45.9197 48.7405 46.2562Z" fill="#6D6E71"/>
<path d="M53.3792 41.4563L49.5492 45.9463C49.411 46.0894 49.236 46.1915 49.0434 46.2415C48.8508 46.2914 48.6482 46.2872 48.4579 46.2292C48.2676 46.1713 48.0969 46.0619 47.9648 45.9132C47.8327 45.7644 47.7443 45.5821 47.7092 45.3863L46.9492 39.5063L57.9492 2.93627C58.1932 2.07312 58.761 1.33749 59.5342 0.882877C60.3074 0.42826 61.2263 0.289758 62.0992 0.496265C62.5421 0.616711 62.9562 0.825064 63.3169 1.10892C63.6775 1.39278 63.9774 1.74633 64.1985 2.1485C64.4197 2.55068 64.5576 2.99325 64.6041 3.44986C64.6506 3.90646 64.6047 4.36776 64.4692 4.80626L53.3792 41.4563Z" fill="#F47673"/>
<path d="M62.829 10.0276L56.3359 8.07593L56.1114 8.82291L62.6044 10.7746L62.829 10.0276Z" fill="#FEF1ED"/>
<path d="M53.5946 40.7116L47.1016 38.7599L46.877 39.5069L53.37 41.4586L53.5946 40.7116Z" fill="#FEF1ED"/>
</svg>
