<svg width="93" height="53" viewBox="0 0 93 53" fill="none" xmlns="http://www.w3.org/2000/svg">
<path d="M64.3499 10.5363L73.2099 13.2763C73.2844 13.2998 73.3531 13.3387 73.4117 13.3903C73.4702 13.442 73.5173 13.5053 73.5499 13.5763L78.6299 23.7763C78.7114 23.9352 78.7537 24.1113 78.7533 24.2898C78.7529 24.4684 78.7098 24.6443 78.6276 24.8028C78.5454 24.9614 78.4265 25.0979 78.2808 25.2012C78.135 25.3044 77.9668 25.3713 77.7899 25.3963L77.0299 25.5063C76.8799 25.5312 76.726 25.5176 76.5826 25.4669C76.4392 25.4162 76.311 25.33 76.2099 25.2163L63.7499 11.4863C63.6616 11.3926 63.6069 11.2723 63.5945 11.1441C63.5821 11.016 63.6127 10.8874 63.6814 10.7785C63.7502 10.6697 63.8532 10.5868 63.9742 10.5429C64.0952 10.4991 64.2274 10.4967 64.3499 10.5363Z" fill="#FEE2CC"/>
<path d="M73.5499 13.5763C73.5172 13.5053 73.4701 13.442 73.4116 13.3903C73.353 13.3386 73.2843 13.2998 73.2099 13.2763L64.3499 10.5363C64.3289 10.6285 64.3316 10.7246 64.3579 10.8156C64.3841 10.9065 64.433 10.9893 64.4999 11.0563L77.4399 24.3263C77.5434 24.4354 77.673 24.5164 77.8164 24.5619C77.9598 24.6074 78.1123 24.6158 78.2599 24.5863L78.7499 24.4963C78.8086 24.2467 78.7767 23.9844 78.6599 23.7563L73.5499 13.5763Z" fill="#FFC648"/>
<path d="M67.1602 16.7763L85.4402 0.866271C85.9002 0.476271 86.8002 1.08627 86.6102 1.66627L78.6102 25.4963L67.1602 16.7763Z" fill="#89C58B"/>
<path d="M28.8097 6.49626L23.6497 19.3863L2.1197 10.7763C2.02476 10.7485 1.93395 10.7081 1.8497 10.6563C1.46282 10.4365 1.1365 10.1242 0.899948 9.74739C0.6634 9.37054 0.524021 8.94091 0.494293 8.49698C0.464565 8.05304 0.545419 7.60866 0.72961 7.20365C0.913802 6.79863 1.19558 6.44563 1.5497 6.17626L3.6497 4.50626C5.17592 3.29109 6.97232 2.46132 8.88698 2.08709C10.8016 1.71286 12.7783 1.80518 14.6497 2.35626L28.8097 6.49626Z" fill="#FEE2CC"/>
<path d="M28.8109 6.49626L14.6209 2.35626C12.7495 1.80518 10.7729 1.71286 8.85821 2.08709C6.94354 2.46132 5.14715 3.29109 3.62093 4.50626L1.55093 6.17626L1.40093 6.31626C1.23832 6.88506 1.27455 7.4923 1.50363 8.03773C1.73271 8.58315 2.14095 9.03415 2.66093 9.31626L2.93093 9.43626L24.2309 17.9563L28.8109 6.49626Z" fill="#FFC648"/>
<path d="M46.1196 37.7763C66.7033 37.7763 83.3896 32.4216 83.3896 25.8163C83.3896 19.2109 66.7033 13.8563 46.1196 13.8563C25.536 13.8563 8.84961 19.2109 8.84961 25.8163C8.84961 32.4216 25.536 37.7763 46.1196 37.7763Z" fill="#F37065"/>
<path d="M8.84961 25.6363C8.84961 28.9663 12.5196 31.9363 19.3796 34.1063C19.0796 28.5563 19.8896 22.9563 19.5496 17.4263C12.8896 19.5863 8.84961 22.3563 8.84961 25.6363Z" fill="#3984C5"/>
<mask id="mask0_1901_618" style="mask-type:luminance" maskUnits="userSpaceOnUse" x="8" y="13" width="76" height="25">
<path d="M46.1196 37.7763C66.7033 37.7763 83.3896 32.4216 83.3896 25.8163C83.3896 19.2109 66.7033 13.8563 46.1196 13.8563C25.536 13.8563 8.84961 19.2109 8.84961 25.8163C8.84961 32.4216 25.536 37.7763 46.1196 37.7763Z" fill="white"/>
</mask>
<g mask="url(#mask0_1901_618)">
<path d="M19.7787 12.7863H16.8887V39.6063H19.7787V12.7863Z" fill="#89C58B"/>
</g>
<path d="M32.8904 27.0462L52.3604 26.6462C52.9552 26.6277 53.537 26.8228 54.0004 27.1962L77.5504 45.7762C77.882 46.0371 78.1441 46.376 78.3131 46.7626C78.4822 47.1493 78.553 47.5717 78.5193 47.9923C78.4857 48.413 78.3486 48.8188 78.1202 49.1736C77.8919 49.5285 77.5793 49.8214 77.2104 50.0262L74.2104 51.6962C73.2008 52.2566 72.0651 52.5506 70.9104 52.5506C69.7557 52.5506 68.62 52.2566 67.6104 51.6962L31.7004 31.8562C31.2099 31.5808 30.8233 31.1521 30.6 30.6358C30.3766 30.1195 30.3288 29.5442 30.4639 28.9981C30.599 28.452 30.9095 27.9654 31.3478 27.6128C31.7862 27.2602 32.3281 27.0612 32.8904 27.0462Z" fill="#FEE2CC"/>
<path d="M77.5505 45.7763L53.9705 27.1763C53.5071 26.8028 52.9253 26.6077 52.3305 26.6263L32.8605 27.0263C32.6434 27.0278 32.4277 27.0615 32.2205 27.1263C32.0696 27.6758 32.1101 28.2603 32.3355 28.7837C32.5608 29.3071 32.9576 29.7383 33.4605 30.0063L69.3805 49.8763C70.3898 50.4321 71.5233 50.7236 72.6755 50.7236C73.8277 50.7236 74.9612 50.4321 75.9705 49.8763L78.4205 48.5163C78.5679 48.025 78.5636 47.5008 78.4084 47.012C78.2532 46.5232 77.9543 46.0925 77.5505 45.7763Z" fill="#FFC648"/>
<path d="M70.4199 18.3563L85.7499 1.11628C85.8401 1.03429 85.9531 0.981698 86.0739 0.965517C86.1947 0.949336 86.3176 0.970328 86.4262 1.0257C86.5347 1.08108 86.6239 1.16821 86.6817 1.2755C86.7396 1.38278 86.7633 1.50514 86.7499 1.62628L83.0499 26.5563L70.4199 18.3563Z" fill="url(#paint0_linear_1901_618)"/>
<path d="M73.6992 24.6662L82.9692 24.3362C83.048 24.3323 83.1267 24.3444 83.2007 24.3719C83.2746 24.3994 83.3422 24.4417 83.3992 24.4962L91.5492 32.5662C92.0992 33.1062 92.7792 34.4362 92.0992 34.7962L91.4192 35.1562C91.2854 35.228 91.136 35.2656 90.9842 35.2656C90.8324 35.2656 90.6829 35.228 90.5492 35.1562L73.4492 25.7762C73.3351 25.7155 73.2442 25.6189 73.1904 25.5014C73.1365 25.3839 73.1227 25.252 73.1511 25.126C73.1795 24.9999 73.2485 24.8866 73.3475 24.8036C73.4465 24.7205 73.5701 24.6723 73.6992 24.6662Z" fill="#FEE2CC"/>
<path d="M83.3995 24.4962C83.3425 24.4417 83.2749 24.3994 83.201 24.3719C83.127 24.3444 83.0483 24.3323 82.9695 24.3362L75.5995 24.6062C75.4852 24.6306 75.3813 24.6895 75.3016 24.7749C75.2219 24.8603 75.1704 24.9682 75.1541 25.0838C75.1377 25.1995 75.1573 25.3174 75.2101 25.4215C75.2629 25.5257 75.3465 25.6111 75.4495 25.6662L91.7295 34.5162C91.9065 34.6016 92.1048 34.6329 92.2995 34.6062C92.5995 34.1062 92.0295 33.0362 91.5495 32.6062L83.3995 24.4962Z" fill="#FFC648"/>
<path d="M56.8307 18.5663L21.4707 16.8363L24.6907 4.66627C25.0607 2.20627 29.1807 1.25627 33.3607 2.39627L58.2507 9.20627C59.3769 9.51421 60.3507 10.2253 60.9868 11.2044C61.6229 12.1834 61.877 13.3621 61.7007 14.5163C61.5272 15.6712 60.9351 16.7221 60.0371 17.4689C59.1391 18.2156 57.9979 18.6062 56.8307 18.5663Z" fill="#89C58B"/>
<path d="M36.3607 3.21627L35.2107 17.5063L21.4707 16.8363L24.5507 4.92627C25.1507 2.55627 27.7107 0.196271 36.3607 3.21627Z" fill="#3884C5"/>
<path d="M42.2391 13.2963C43.41 13.2963 44.3591 12.3471 44.3591 11.1763C44.3591 10.0054 43.41 9.05627 42.2391 9.05627C41.0683 9.05627 40.1191 10.0054 40.1191 11.1763C40.1191 12.3471 41.0683 13.2963 42.2391 13.2963Z" fill="white"/>
<path d="M47.4193 13.2862C48.325 13.2862 49.0593 12.552 49.0593 11.6462C49.0593 10.7405 48.325 10.0062 47.4193 10.0062C46.5135 10.0062 45.7793 10.7405 45.7793 11.6462C45.7793 12.552 46.5135 13.2862 47.4193 13.2862Z" fill="white"/>
<path d="M52.5593 13.6962C53.2662 13.6962 53.8393 13.1232 53.8393 12.4162C53.8393 11.7093 53.2662 11.1362 52.5593 11.1362C51.8524 11.1362 51.2793 11.7093 51.2793 12.4162C51.2793 13.1232 51.8524 13.6962 52.5593 13.6962Z" fill="white"/>
<defs>
<linearGradient id="paint0_linear_1901_618" x1="70.4199" y1="13.7363" x2="86.7999" y2="13.7363" gradientUnits="userSpaceOnUse">
<stop offset="0.99" stop-color="#F37065"/>
<stop offset="1" stop-color="#99BA5F"/>
</linearGradient>
</defs>
</svg>
