<svg width="89" height="80" viewBox="0 0 89 80" fill="none" xmlns="http://www.w3.org/2000/svg">
<path d="M64.6895 0.41626H9.09943C4.31664 0.41626 0.439453 4.29348 0.439453 9.07626V56.5863C0.439453 61.369 4.31664 65.2463 9.09943 65.2463H64.6895C69.4722 65.2463 73.3494 61.369 73.3494 56.5863V9.07626C73.3494 4.29348 69.4722 0.41626 64.6895 0.41626Z" fill="#3884C5"/>
<path d="M12.9395 0.41626V65.2463" stroke="#00A7E2" stroke-width="3.93" stroke-miterlimit="10"/>
<path d="M0.439453 17.4263H13.9794" stroke="#00A7E2" stroke-width="3.93" stroke-miterlimit="10"/>
<path d="M0.439453 28.9562H12.9395" stroke="#00A7E2" stroke-width="3.93" stroke-miterlimit="10"/>
<path d="M0.439453 40.1263H12.5894" stroke="#00A7E2" stroke-width="3.93" stroke-miterlimit="10"/>
<path d="M0.439453 52.0862H11.0194" stroke="#00A7E2" stroke-width="3.93" stroke-miterlimit="10"/>
<path d="M29.5495 32.8362V22.8962C29.5498 22.358 29.6916 21.8292 29.9607 21.3631C30.2298 20.8969 30.6167 20.5096 31.0827 20.2402C31.5487 19.9707 32.0773 19.8285 32.6156 19.8278C33.1539 19.8271 33.6829 19.968 34.1495 20.2363L42.7595 25.2363L51.3695 30.2363C51.8345 30.5062 52.2204 30.8935 52.4887 31.3594C52.7569 31.8254 52.8981 32.3536 52.8981 32.8913C52.8981 33.4289 52.7569 33.9571 52.4887 34.4231C52.2204 34.889 51.8345 35.2763 51.3695 35.5463L42.7595 40.5463L34.1495 45.5463C33.6752 45.8231 33.1352 45.9672 32.586 45.9635C32.0369 45.9597 31.4988 45.8083 31.0283 45.525C30.5578 45.2417 30.1723 44.837 29.9121 44.3533C29.6519 43.8697 29.5267 43.325 29.5495 42.7762V32.8362Z" fill="white"/>
<path d="M59.5506 74.2063L52.3906 79.6363C52.141 79.8056 51.8496 79.9028 51.5484 79.9172C51.2471 79.9315 50.9478 79.8626 50.6832 79.7179C50.4186 79.5732 50.199 79.3583 50.0486 79.097C49.8982 78.8356 49.8228 78.5378 49.8306 78.2363L50.5506 69.2363L78.3106 18.5263C78.9397 17.3245 80.0087 16.4122 81.2945 15.9798C82.5802 15.5475 83.9833 15.6287 85.2106 16.2063C85.8305 16.5236 86.3799 16.9627 86.8262 17.4972C87.2725 18.0317 87.6065 18.6507 87.8081 19.3172C88.0097 19.9837 88.0749 20.684 87.9998 21.3763C87.9246 22.0686 87.7106 22.7386 87.3706 23.3463L59.5506 74.2063Z" fill="#FFC648"/>
<path d="M83.4691 30.5981L74.4688 25.6725L73.9071 26.6989L82.9075 31.6244L83.4691 30.5981Z" fill="#FEF1ED"/>
</svg>
