<svg width="92" height="91" viewBox="0 0 92 91" fill="none" xmlns="http://www.w3.org/2000/svg">
<path d="M60.1008 85.5663H32.3008C36.7208 78.6863 37.9174 71.813 35.8908 64.9463H56.5508C54.6108 72.3463 56.0308 79.1763 60.1008 85.5663Z" fill="#89C58B"/>
<path d="M35.8408 82.0462H56.5508C58.6725 82.0462 60.7074 82.8891 62.2076 84.3894C63.7079 85.8897 64.5508 87.9245 64.5508 90.0462H27.8008C27.8008 88.9923 28.009 87.9488 28.4135 86.9755C28.8181 86.0023 29.4109 85.1186 30.1581 84.3752C30.9052 83.6318 31.7918 83.0434 32.767 82.6437C33.7423 82.244 34.7868 82.041 35.8408 82.0462Z" fill="#89C58B"/>
<path d="M84.4799 0.506226H7.91992C3.77779 0.506226 0.419922 3.86409 0.419922 8.00623V67.7562C0.419922 71.8984 3.77779 75.2562 7.91992 75.2562H84.4799C88.6221 75.2562 91.9799 71.8984 91.9799 67.7562V8.00623C91.9799 3.86409 88.6221 0.506226 84.4799 0.506226Z" fill="#8AC48A"/>
<path d="M79.6906 5.78625H12.7206C9.50081 5.78625 6.89062 8.39642 6.89062 11.6162V52.4763C6.89062 55.6961 9.50081 58.3062 12.7206 58.3062H79.6906C82.9105 58.3062 85.5206 55.6961 85.5206 52.4763V11.6162C85.5206 8.39642 82.9105 5.78625 79.6906 5.78625Z" fill="white"/>
<path d="M50.3294 15.6062L39.6094 48.4862" stroke="#89C58B" stroke-width="3.75" stroke-linecap="round" stroke-linejoin="round"/>
<path d="M36.3002 23.8063L23.4102 32.1263L36.3002 40.2863" stroke="#89C58B" stroke-width="2.98" stroke-linecap="round" stroke-linejoin="round"/>
<path d="M56.0898 23.8063L68.9899 32.1263L56.0898 40.2863" stroke="#89C58B" stroke-width="2.98" stroke-linecap="round" stroke-linejoin="round"/>
<path d="M46.1993 68.6263C47.812 68.6263 49.1193 67.3189 49.1193 65.7062C49.1193 64.0936 47.812 62.7863 46.1993 62.7863C44.5866 62.7863 43.2793 64.0936 43.2793 65.7062C43.2793 67.3189 44.5866 68.6263 46.1993 68.6263Z" fill="white"/>
</svg>
