<svg width="140" height="140" viewBox="0 0 140 140" fill="none" xmlns="http://www.w3.org/2000/svg">
<mask id="mask0_3448_4504" style="mask-type:alpha" maskUnits="userSpaceOnUse" x="0" y="0" width="140" height="140">
<rect width="140" height="140" fill="white"/>
</mask>
<g mask="url(#mask0_3448_4504)">
<path d="M70.44 128.601C102.716 128.601 128.88 102.436 128.88 70.1606C128.88 37.8851 102.716 11.7206 70.44 11.7206C38.1645 11.7206 12 37.8851 12 70.1606C12 102.436 38.1645 128.601 70.44 128.601Z" fill="#89C58B"/>
<path d="M77.9896 71.5506C77.1235 70.6713 76.371 69.6869 75.7496 68.6206C74.8596 67.1506 73.6596 66.5506 73.4696 65.7306C73.3349 65.003 73.0299 64.3177 72.5796 63.7306C71.4196 62.3606 70.9096 62.4506 69.5796 63.4406C68.8696 63.9606 69.8096 64.8306 70.1196 65.8406C70.3174 66.5044 70.6324 67.1276 71.0496 67.6806C72.0254 69.2404 73.2917 70.5983 74.7796 71.6806C75.3096 72.0906 76.0196 72.9106 76.5296 73.3406C78.4696 75.0406 79.5096 73.0306 77.9896 71.5506Z" fill="url(#paint0_linear_3448_4504)"/>
<path d="M81.8193 58.5305C81.237 59.809 80.8074 61.1516 80.5393 62.5305C80.1475 63.8323 79.6423 65.0971 79.0292 66.3105C78.3792 67.7105 76.7592 70.8005 76.5192 71.6205C76.1292 73.0005 76.5192 73.3705 77.9592 73.9905C78.7792 74.3305 81.9593 68.4405 82.3193 65.3005C82.3993 64.6305 83.7392 59.1505 83.8392 59.2005L81.8193 58.5305Z" fill="url(#paint1_linear_3448_4504)"/>
<path d="M70.7896 67.5506L74.1596 66.1406C74.2024 66.1233 74.2413 66.0973 74.2738 66.0645C74.3063 66.0316 74.3318 65.9924 74.3486 65.9494C74.3655 65.9063 74.3733 65.8603 74.3718 65.814C74.3702 65.7678 74.3593 65.7224 74.3396 65.6806L71.9196 60.9006C71.7856 60.6108 71.5951 60.3506 71.3592 60.1354C71.1234 59.9201 70.847 59.7541 70.5462 59.647C70.2454 59.5399 69.9262 59.4939 69.6074 59.5117C69.2886 59.5295 68.9766 59.6107 68.6896 59.7506C68.388 59.917 68.1242 60.1441 67.9149 60.4176C67.7056 60.6912 67.5553 61.0051 67.4735 61.3397C67.3918 61.6743 67.3803 62.0222 67.4399 62.3615C67.4994 62.7007 67.6287 63.0239 67.8196 63.3106L70.3796 67.4706C70.427 67.5308 70.4945 67.5721 70.5697 67.5867C70.645 67.6014 70.723 67.5886 70.7896 67.5506Z" fill="url(#paint2_linear_3448_4504)"/>
<path d="M80.6989 58.0306C80.7453 57.249 80.594 56.4683 80.2589 55.7606C79.8389 54.5606 80.4289 54.4306 80.7489 54.4606C81.2789 54.4606 82.0589 55.3206 82.2389 56.5806C82.2389 56.5806 83.8889 55.2006 84.8789 56.6506C85.2282 57.1886 85.4787 57.7846 85.6189 58.4106C85.8789 59.5206 84.0289 61.3406 81.9989 60.4706C81.9989 60.4706 80.3789 59.5206 80.6989 58.0306Z" fill="url(#paint3_linear_3448_4504)"/>
<path d="M81.9883 60.4406C82.1483 60.2506 82.3383 60.1306 82.4683 59.9506C82.6353 59.8071 82.7453 59.6084 82.7783 59.3906C82.8983 59.6306 82.7783 59.8906 82.5983 60.0706C82.4282 60.2419 82.2187 60.3689 81.9883 60.4406Z" fill="#AE4C43"/>
<path d="M58.1801 94.5805C52.2301 92.0405 41.7301 85.8305 37.6101 72.5805C37.5478 72.3806 37.4192 72.208 37.2455 72.0911C37.0719 71.9741 36.8635 71.9199 36.6549 71.9374C36.4463 71.9549 36.2499 72.043 36.0981 72.1872C35.9463 72.3314 35.8482 72.5231 35.8201 72.7305C34.9401 79.2405 35.6201 92.9105 52.6601 104.581C53.4469 105.123 54.3569 105.461 55.3073 105.563C56.2578 105.665 57.2187 105.528 58.1028 105.164C58.9869 104.801 59.7662 104.222 60.3699 103.481C60.9737 102.74 61.3828 101.86 61.5601 100.921C61.8022 99.6369 61.5992 98.309 60.9847 97.1563C60.3701 96.0036 59.3808 95.095 58.1801 94.5805Z" fill="url(#paint4_linear_3448_4504)"/>
<path d="M32.509 57.5205L16.459 93.5205" stroke="#37596A" stroke-width="1.15" stroke-miterlimit="10"/>
<path d="M32.6387 57.5105L50.2987 92.8005" stroke="#37596A" stroke-width="1.15" stroke-miterlimit="10"/>
<path d="M108.649 59.4305L92.5488 94.2305" stroke="#37596A" stroke-width="1.15" stroke-miterlimit="10"/>
<path d="M108.76 59.4305L124.84 94.2905" stroke="#37596A" stroke-width="1.15" stroke-miterlimit="10"/>
<path d="M107.77 58.5005L68.9199 57.9205V56.6705L107.79 57.4605L107.77 58.5005Z" fill="url(#paint5_linear_3448_4504)"/>
<path d="M108.73 59.5005C108.406 59.4905 108.092 59.3846 107.828 59.1962C107.564 59.0078 107.362 58.7454 107.247 58.4421C107.132 58.1388 107.11 57.8083 107.183 57.4923C107.256 57.1763 107.421 56.8891 107.657 56.6669C107.893 56.4446 108.19 56.2974 108.51 56.2439C108.829 56.1903 109.158 56.2327 109.454 56.3658C109.749 56.4989 109.999 56.7167 110.171 56.9917C110.343 57.2666 110.43 57.5864 110.42 57.9105C110.413 58.1259 110.365 58.3379 110.276 58.5345C110.188 58.731 110.061 58.9081 109.904 59.0558C109.747 59.2034 109.563 59.3187 109.361 59.395C109.16 59.4713 108.945 59.5072 108.73 59.5005ZM108.81 57.0605C108.651 57.0546 108.495 57.096 108.36 57.1793C108.225 57.2627 108.118 57.3843 108.052 57.5287C107.986 57.673 107.965 57.8337 107.991 57.9902C108.017 58.1467 108.088 58.292 108.197 58.4076C108.306 58.5232 108.446 58.604 108.601 58.6396C108.755 58.6752 108.917 58.664 109.065 58.6075C109.213 58.551 109.341 58.4518 109.433 58.3223C109.525 58.1929 109.576 58.0391 109.58 57.8805C109.584 57.7759 109.567 57.6716 109.53 57.5736C109.494 57.4756 109.438 57.3858 109.366 57.3095C109.295 57.2332 109.209 57.1719 109.113 57.1292C109.018 57.0864 108.915 57.0631 108.81 57.0605Z" fill="url(#paint6_linear_3448_4504)"/>
<path d="M68.9193 57.9206L33.7793 57.1206L33.8093 55.9406L68.9193 56.6706V57.9206Z" fill="url(#paint7_linear_3448_4504)"/>
<path d="M32.5287 57.9705C32.2046 57.9605 31.8907 57.8546 31.6267 57.6662C31.3627 57.4778 31.1606 57.2153 31.0457 56.9121C30.9309 56.6088 30.9085 56.2783 30.9815 55.9623C31.0545 55.6463 31.2195 55.359 31.4557 55.1368C31.6919 54.9146 31.9886 54.7674 32.3085 54.7138C32.6283 54.6602 32.9569 54.7027 33.2526 54.8358C33.5483 54.9689 33.7979 55.1867 33.9699 55.4616C34.1418 55.7366 34.2284 56.0563 34.2187 56.3805C34.2031 56.8146 34.0168 57.2251 33.7004 57.5227C33.384 57.8204 32.963 57.9813 32.5287 57.9705ZM32.6087 55.5305C32.4502 55.5246 32.2935 55.566 32.1586 55.6493C32.0236 55.7327 31.9165 55.8543 31.8508 55.9986C31.7851 56.143 31.7638 56.3036 31.7896 56.4601C31.8155 56.6167 31.8872 56.7619 31.9958 56.8776C32.1044 56.9932 32.2449 57.0739 32.3994 57.1095C32.554 57.1451 32.7157 57.134 32.8639 57.0775C33.0121 57.021 33.1402 56.9217 33.2318 56.7923C33.3235 56.6628 33.3746 56.5091 33.3787 56.3505C33.3827 56.2467 33.3662 56.1432 33.3302 56.0458C33.2942 55.9484 33.2393 55.8591 33.1687 55.7829C33.0981 55.7068 33.0132 55.6453 32.9188 55.602C32.8245 55.5586 32.7225 55.5344 32.6187 55.5305H32.6087Z" fill="url(#paint8_linear_3448_4504)"/>
<path d="M68.9291 59.5505C70.0668 59.5505 70.9891 58.6282 70.9891 57.4905C70.9891 56.3528 70.0668 55.4305 68.9291 55.4305C67.7914 55.4305 66.8691 56.3528 66.8691 57.4905C66.8691 58.6282 67.7914 59.5505 68.9291 59.5505Z" fill="url(#paint9_linear_3448_4504)"/>
<path d="M69.9595 57.4105C69.9698 57.6051 69.923 57.7984 69.8249 57.9668C69.7267 58.1351 69.5816 58.2711 69.4072 58.358C69.2328 58.445 69.0369 58.4791 68.8434 58.4562C68.6499 58.4333 68.4673 58.3544 68.3181 58.2291C68.1688 58.1038 68.0594 57.9377 68.0033 57.7511C67.9472 57.5645 67.9468 57.3656 68.0022 57.1788C68.0576 56.992 68.1663 56.8255 68.3151 56.6996C68.4639 56.5738 68.6461 56.4942 68.8395 56.4705C68.9757 56.4539 69.1137 56.4654 69.2452 56.5044C69.3767 56.5434 69.4988 56.609 69.6038 56.6972C69.7088 56.7853 69.7946 56.8941 69.8558 57.0169C69.917 57.1396 69.9523 57.2736 69.9595 57.4105Z" fill="#586F9D"/>
<path d="M125.87 84.2305C125.87 84.2305 116.35 83.8405 116.27 95.5805C127.84 93.5605 125.87 84.2305 125.87 84.2305Z" fill="url(#paint10_linear_3448_4504)"/>
<path d="M120.069 93.9105C119.689 93.8305 119.319 93.7705 118.959 93.7205C118.599 93.6705 118.409 93.6405 118.129 93.6105L119.349 92.1305L120.249 92.2005C120.519 92.2005 120.939 92.2005 121.249 92.2005C120.989 92.1405 120.569 92.0705 120.309 92.0305H120.239L119.499 91.9305L120.719 90.4505H121.529H122.379L121.529 90.3105H121.469L120.819 90.2205L122.039 88.7405H122.089H122.809H123.549L122.799 88.6105H122.739L122.179 88.5205L123.399 87.0405H123.459H124.089H124.729L124.059 86.9205L123.539 86.8305L125.229 84.7705L123.489 86.7705L123.299 86.2705L123.079 85.6405L123.199 86.2605L123.329 86.8805V86.9405L122.069 88.3905C122.009 88.1905 121.889 87.8705 121.869 87.8005C121.849 87.7305 121.649 87.1605 121.609 87.0705L121.689 87.4305L121.769 87.8105C121.769 87.8905 121.899 88.4305 121.929 88.5105L120.659 89.9705C120.589 89.7505 120.489 89.4305 120.439 89.3005C120.389 89.1705 120.219 88.6405 120.149 88.4705C120.149 88.5505 120.209 88.7905 120.229 88.8805L120.329 89.3105C120.329 89.4705 120.479 89.9405 120.529 90.1005L119.249 91.5805C119.179 91.3305 119.089 91.0305 119.019 90.8205C118.949 90.6105 118.799 90.1605 118.699 89.8905C118.699 90.0205 118.759 90.2305 118.789 90.3605C118.819 90.4905 118.869 90.7105 118.909 90.8505C118.949 90.9905 119.059 91.4805 119.129 91.7105L117.839 93.2005C117.766 92.9205 117.686 92.6405 117.599 92.3605C117.499 92.0205 117.389 91.6805 117.249 91.3605C117.249 91.5305 117.309 91.7105 117.349 91.8905C117.389 92.0705 117.429 92.2505 117.479 92.4305C117.529 92.6105 117.649 93.0505 117.739 93.3505L116.279 95.3105C116.279 95.4105 116.279 95.5005 116.279 95.5905H116.559L118.009 93.8405L119.009 93.9205C119.359 93.8905 119.709 93.9105 120.069 93.9105Z" fill="#B5D77E"/>
<path d="M89.3099 82.3105C89.3099 82.3105 86.6299 91.4605 98.0099 94.3605C98.8399 82.6005 89.3099 82.3105 89.3099 82.3105Z" fill="url(#paint11_linear_3448_4504)"/>
<path d="M97.2989 90.2405C97.1289 90.5805 96.9889 90.9205 96.8489 91.2405C96.7089 91.5605 96.6389 91.7505 96.5389 92.0105L95.3989 90.4705C95.4789 90.2405 95.6089 89.8505 95.6789 89.6205C95.7489 89.3905 95.8889 88.9505 95.9489 88.6905C95.8289 88.9305 95.6589 89.3305 95.5589 89.5705V89.6305C95.4789 89.8205 95.3589 90.1105 95.2789 90.3205L94.1389 88.7805C94.1889 88.6305 94.3289 88.1705 94.3789 88.0105C94.4289 87.8505 94.5789 87.3605 94.6189 87.1905C94.5389 87.3505 94.3389 87.8205 94.2689 87.9805V88.0405L94.0089 88.6405L92.8689 87.1105V87.0605C92.8689 86.9805 93.0489 86.4405 93.0789 86.3705C93.1089 86.3005 93.2589 85.7405 93.2789 85.6505C93.2789 85.7305 92.9989 86.2705 92.9689 86.3505C92.9689 86.4105 92.8089 86.7005 92.7389 86.8805L91.6189 85.3105V85.2505L91.7889 84.6405L91.9589 84.0305L91.6889 84.6405L91.4689 85.1305L89.8789 83.0005L91.4089 85.1705L90.8789 85.2305L90.2089 85.3005H90.8389H91.4789H91.5389L92.6389 86.8805H92.0289L91.2489 86.9505H91.6189H91.9989C92.0789 86.9505 92.6389 86.9505 92.7189 86.9505L93.8389 88.5405H93.1289C92.9589 88.5405 92.4389 88.6005 92.2489 88.6305H92.6789H93.9489L95.0689 90.2305H94.2789L93.2789 90.3205H93.7589H95.1489L96.2789 91.9305H95.4089C95.0489 91.9305 94.6989 91.9305 94.3189 92.0305H94.8589H95.4189C95.7389 92.0305 96.0589 92.0305 96.4189 92.0305L97.7489 93.9205L98.0189 93.9905C98.0189 93.9005 98.0189 93.8005 98.0189 93.7105L96.6589 91.8805C96.7789 91.5705 96.8889 91.2505 96.9889 90.8805C97.0889 90.5105 97.2089 90.5805 97.2989 90.2405Z" fill="#B5D77E"/>
<path d="M118.449 99.5505L99.1689 99.9205C98.2942 99.9377 97.4248 99.7825 96.6101 99.4636C95.7955 99.1448 95.0517 98.6685 94.4211 98.0621C93.7906 97.4557 93.2857 96.7311 92.9353 95.9295C92.5849 95.1279 92.3958 94.2652 92.3789 93.3905L124.989 92.7605C125.021 94.5279 124.35 96.2357 123.124 97.5089C121.898 98.782 120.216 99.5163 118.449 99.5505Z" fill="url(#paint12_linear_3448_4504)"/>
<path d="M126.17 94.2405L91.2605 94.9205C91.1612 94.9232 91.0623 94.9061 90.9697 94.8702C90.877 94.8343 90.7924 94.7804 90.7208 94.7116C90.6491 94.6427 90.5919 94.5603 90.5523 94.4692C90.5128 94.378 90.4918 94.2799 90.4905 94.1805C90.4878 94.0812 90.505 93.9824 90.5408 93.8897C90.5767 93.797 90.6306 93.7124 90.6995 93.6408C90.7683 93.5691 90.8507 93.5119 90.9419 93.4724C91.033 93.4328 91.1311 93.4118 91.2305 93.4105L126.14 92.7305C126.34 92.7278 126.533 92.804 126.677 92.9425C126.822 93.081 126.905 93.2707 126.911 93.4705C126.913 93.5699 126.896 93.6687 126.86 93.7614C126.824 93.8541 126.77 93.9387 126.702 94.0103C126.633 94.0819 126.55 94.1392 126.459 94.1787C126.368 94.2182 126.27 94.2393 126.17 94.2405Z" fill="url(#paint13_linear_3448_4504)"/>
<path d="M88.7802 76.1405C91.3317 76.1405 93.4001 74.0721 93.4001 71.5205C93.4001 68.969 91.3317 66.9005 88.7802 66.9005C86.2286 66.9005 84.1602 68.969 84.1602 71.5205C84.1602 74.0721 86.2286 76.1405 88.7802 76.1405Z" fill="url(#paint14_linear_3448_4504)"/>
<path d="M88.7787 74.5806C90.4687 74.5806 91.8387 73.2106 91.8387 71.5206C91.8387 69.8306 90.4687 68.4606 88.7787 68.4606C87.0888 68.4606 85.7188 69.8306 85.7188 71.5206C85.7188 73.2106 87.0888 74.5806 88.7787 74.5806Z" fill="url(#paint15_linear_3448_4504)"/>
<path d="M88.4805 70.5005L88.5105 71.9805L90.0205 71.9505" stroke="#333333" stroke-width="0.36" stroke-miterlimit="10"/>
<path d="M25.5795 87.6105C29.3406 87.6105 32.3895 84.5615 32.3895 80.8005C32.3895 77.0394 29.3406 73.9905 25.5795 73.9905C21.8185 73.9905 18.7695 77.0394 18.7695 80.8005C18.7695 84.5615 21.8185 87.6105 25.5795 87.6105Z" fill="url(#paint16_linear_3448_4504)"/>
<path d="M25.4995 86.6505C28.7082 86.6505 31.3094 84.0493 31.3094 80.8405C31.3094 77.6317 28.7082 75.0305 25.4995 75.0305C22.2907 75.0305 19.6895 77.6317 19.6895 80.8405C19.6895 84.0493 22.2907 86.6505 25.4995 86.6505Z" fill="url(#paint17_linear_3448_4504)"/>
<path opacity="0.5" d="M25.4999 85.9205C28.3055 85.9205 30.5799 83.6461 30.5799 80.8405C30.5799 78.0349 28.3055 75.7605 25.4999 75.7605C22.6943 75.7605 20.4199 78.0349 20.4199 80.8405C20.4199 83.6461 22.6943 85.9205 25.4999 85.9205Z" stroke="#C7632E" stroke-width="0.26" stroke-miterlimit="10"/>
<g opacity="0.5">
<path d="M25.3486 85.0305C25.2553 84.8105 25.1652 84.6005 25.0786 84.4005C24.9886 84.1905 24.9086 83.9905 24.8186 83.7905C24.7286 83.5905 24.6486 83.4005 24.5586 83.2005L24.2886 82.5705L23.5086 80.8305C23.2586 80.2705 23.0186 79.8305 22.8086 79.3505C23.0586 79.2005 23.3086 79.0505 23.5786 78.9205C23.8486 78.7905 24.0886 78.6605 24.3086 78.5705C25.6019 77.9972 26.4119 78.0872 26.7386 78.8405C26.8683 79.1081 26.8968 79.4136 26.8186 79.7005C26.7381 79.9822 26.5565 80.2244 26.3086 80.3805C26.7111 80.255 27.1459 80.2835 27.5286 80.4605C27.9084 80.6875 28.1954 81.0418 28.3386 81.4605C28.476 81.7371 28.5475 82.0417 28.5475 82.3505C28.5475 82.6593 28.476 82.964 28.3386 83.2405C27.9169 83.8618 27.307 84.3315 26.5986 84.5805C26.4286 84.6605 26.2286 84.7405 26.0086 84.8205L25.3486 85.0305ZM24.7386 80.6805C24.7975 80.6727 24.8548 80.6558 24.9086 80.6305L25.0386 80.5705C25.2503 80.4864 25.4364 80.3485 25.5786 80.1705C25.6313 80.1055 25.6648 80.0271 25.6754 79.944C25.686 79.861 25.6733 79.7767 25.6386 79.7005C25.6111 79.6339 25.5657 79.5763 25.5075 79.5339C25.4492 79.4915 25.3804 79.4661 25.3086 79.4605C25.0965 79.4524 24.8859 79.5007 24.6986 79.6005L24.4886 79.7005L24.3486 79.8005L24.7386 80.6805ZM25.6086 82.6805L25.8386 82.6205L26.1186 82.5105C26.3532 82.423 26.5603 82.2746 26.7186 82.0805C26.7645 82.0052 26.7888 81.9187 26.7888 81.8305C26.7888 81.7423 26.7645 81.6558 26.7186 81.5805C26.6834 81.4964 26.6255 81.4237 26.5513 81.3707C26.4771 81.3177 26.3896 81.2865 26.2986 81.2805C26.0486 81.269 25.8001 81.3242 25.5786 81.4405L25.3786 81.5305L25.1186 81.6705L25.6086 82.6805Z" fill="#C7632E"/>
<path d="M26.7287 78.2405C26.7733 77.9131 26.7258 77.5796 26.5916 77.2776C26.4574 76.9756 26.2417 76.7169 25.9688 76.5305C25.934 76.5076 25.893 76.4961 25.8515 76.4976C25.8099 76.499 25.7699 76.5134 25.7368 76.5387C25.7038 76.564 25.6795 76.599 25.6673 76.6388C25.6551 76.6785 25.6556 76.7211 25.6687 76.7605C25.755 77.1188 25.7593 77.4918 25.6814 77.852C25.6035 78.2121 25.4453 78.55 25.2188 78.8405L26.3987 78.6106C26.4852 78.5905 26.5634 78.5441 26.6224 78.4779C26.6815 78.4117 26.7186 78.3287 26.7287 78.2405Z" fill="#C7632E"/>
<path d="M22.6187 79.8706C22.3918 79.6784 22.2177 79.4315 22.1127 79.1533C22.0077 78.8751 21.9754 78.5748 22.0187 78.2806C22.0266 78.2406 22.0466 78.204 22.0759 78.1756C22.1052 78.1473 22.1425 78.1286 22.1828 78.1221C22.2231 78.1156 22.2644 78.1215 22.3012 78.1391C22.3379 78.1567 22.3685 78.1851 22.3887 78.2206C22.5941 78.5263 22.8648 78.7827 23.1812 78.9711C23.4977 79.1596 23.852 79.2756 24.2187 79.3106L23.3787 79.9406C23.2623 80.0153 23.1243 80.0491 22.9866 80.0364C22.8489 80.0237 22.7194 79.9653 22.6187 79.8706Z" fill="#C7632E"/>
</g>
<path d="M21.1401 93.7006C24.9011 93.7006 27.9501 90.6516 27.9501 86.8906C27.9501 83.1295 24.9011 80.0806 21.1401 80.0806C17.379 80.0806 14.3301 83.1295 14.3301 86.8906C14.3301 90.6516 17.379 93.7006 21.1401 93.7006Z" fill="url(#paint18_linear_3448_4504)"/>
<path d="M21.06 92.7405C24.2688 92.7405 26.87 90.1393 26.87 86.9305C26.87 83.7217 24.2688 81.1205 21.06 81.1205C17.8512 81.1205 15.25 83.7217 15.25 86.9305C15.25 90.1393 17.8512 92.7405 21.06 92.7405Z" fill="url(#paint19_linear_3448_4504)"/>
<path opacity="0.5" d="M21.0605 92.0106C23.8661 92.0106 26.1405 89.7362 26.1405 86.9306C26.1405 84.125 23.8661 81.8506 21.0605 81.8506C18.2549 81.8506 15.9805 84.125 15.9805 86.9306C15.9805 89.7362 18.2549 92.0106 21.0605 92.0106Z" stroke="#C7632E" stroke-width="0.26" stroke-miterlimit="10"/>
<g opacity="0.5">
<path d="M20.8991 91.1105L20.6292 90.4905C20.5492 90.2805 20.4592 90.0805 20.3792 89.8805L20.1191 89.2805L19.8391 88.6605C19.5791 88.0538 19.3191 87.4738 19.0591 86.9205C18.8091 86.3605 18.5791 85.9205 18.3691 85.4405C18.6091 85.2905 18.8692 85.1405 19.1292 85.0105C19.3892 84.8805 19.6391 84.7505 19.8591 84.6605C21.1591 84.0905 21.9691 84.1805 22.2991 84.9305C22.4255 85.1993 22.4504 85.5048 22.3691 85.7905C22.2952 86.07 22.116 86.31 21.8691 86.4605C22.2735 86.3436 22.7063 86.3756 23.0891 86.5505C23.4635 86.7812 23.7462 87.1346 23.8891 87.5505C24.032 87.8254 24.1066 88.1306 24.1066 88.4405C24.1066 88.7503 24.032 89.0555 23.8891 89.3305C23.4695 89.9537 22.8589 90.424 22.1491 90.6705C21.9791 90.7505 21.7892 90.8305 21.5692 90.9105C21.3492 90.9905 21.1491 91.0405 20.8991 91.1105ZM20.2991 86.7705H20.4591L20.5891 86.7105C20.8066 86.6317 20.9949 86.4887 21.1292 86.3005C21.1821 86.2375 21.2159 86.1608 21.2265 86.0792C21.2371 85.9977 21.2242 85.9149 21.1891 85.8405C21.1617 85.7739 21.1163 85.7162 21.058 85.6739C20.9998 85.6315 20.9309 85.6061 20.8591 85.6005C20.6471 85.5933 20.4368 85.6415 20.2491 85.7405L20.0392 85.8405C19.9905 85.8663 19.9466 85.9001 19.9091 85.9405L20.2991 86.7705ZM21.1691 88.7705L21.3891 88.7105L21.6691 88.6005C21.9065 88.5128 22.1168 88.3646 22.2791 88.1705C22.3303 88.0974 22.3613 88.0121 22.3692 87.9233C22.3771 87.8344 22.3615 87.7451 22.3241 87.6641C22.2866 87.5832 22.2286 87.5134 22.1558 87.4619C22.083 87.4104 21.998 87.3788 21.9091 87.3705C21.656 87.3591 21.4043 87.4143 21.1791 87.5305L20.9891 87.6205L20.7291 87.7605L21.1691 88.7705Z" fill="#C7632E"/>
<path d="M22.2795 84.3105C22.3241 83.983 22.2766 83.6496 22.1424 83.3476C22.0081 83.0455 21.7925 82.7869 21.5195 82.6005C21.4848 82.5776 21.4438 82.566 21.4023 82.5675C21.3607 82.569 21.3206 82.5834 21.2876 82.6087C21.2546 82.634 21.2303 82.6689 21.2181 82.7087C21.2059 82.7485 21.2064 82.791 21.2195 82.8305C21.3058 83.1887 21.3101 83.5618 21.2322 83.9219C21.1543 84.282 20.9961 84.6199 20.7695 84.9105L21.9595 84.6805C22.0448 84.66 22.1216 84.6133 22.179 84.5469C22.2363 84.4805 22.2715 84.3979 22.2795 84.3105Z" fill="#C7632E"/>
<path d="M18.1589 85.9605C17.9316 85.769 17.7577 85.5219 17.6543 85.2433C17.5509 84.9646 17.5215 84.6639 17.5689 84.3705C17.5754 84.3298 17.5942 84.2921 17.6229 84.2625C17.6516 84.2329 17.6888 84.2129 17.7292 84.2053C17.7697 84.1976 17.8116 84.2026 17.8492 84.2197C17.8867 84.2367 17.918 84.265 17.9389 84.3005C18.1438 84.6073 18.4161 84.8632 18.735 85.0487C19.0539 85.2341 19.4109 85.3442 19.7789 85.3705L18.9289 86.0005C18.8149 86.0818 18.6767 86.122 18.5369 86.1148C18.3971 86.1075 18.2639 86.0531 18.1589 85.9605Z" fill="#C7632E"/>
</g>
<path d="M42.6697 99.1506L23.3797 99.2506C21.6124 99.2585 19.9142 98.5648 18.658 97.3217C17.4018 96.0786 16.6903 94.3878 16.6797 92.6206L49.2997 92.4506C49.3077 94.2178 48.6139 95.916 47.3708 97.1722C46.1278 98.4285 44.4369 99.14 42.6697 99.1506Z" fill="url(#paint20_linear_3448_4504)"/>
<g style="mix-blend-mode:multiply">
<path d="M43.1201 97.3105L22.9102 97.4105C21.7228 97.4125 20.5534 97.1204 19.5064 96.5602C18.4594 96.0001 17.5674 95.1894 16.9102 94.2005C17.2832 95.6362 18.1235 96.9069 19.2986 97.8122C20.4737 98.7176 21.9168 99.206 23.4001 99.2005L42.6902 99.1005C44.1757 99.0893 45.615 98.5825 46.7798 97.6604C47.9446 96.7384 48.7683 95.4538 49.1201 94.0105C48.4733 95.0161 47.5859 95.8444 46.5382 96.4206C45.4906 96.9969 44.3158 97.3027 43.1201 97.3105Z" fill="url(#paint21_linear_3448_4504)"/>
</g>
<path d="M50.4594 93.9606L15.5394 94.1306C15.4397 94.1333 15.3405 94.1158 15.2477 94.0792C15.1549 94.0426 15.0705 93.9876 14.9995 93.9175C14.9285 93.8475 14.8724 93.7638 14.8346 93.6715C14.7968 93.5793 14.778 93.4803 14.7794 93.3806C14.7794 93.1807 14.8581 92.9889 14.9984 92.8467C15.1388 92.7044 15.3295 92.6232 15.5294 92.6206L50.4494 92.4506C50.6492 92.4505 50.841 92.5292 50.9833 92.6696C51.1255 92.81 51.2067 93.0007 51.2094 93.2006C51.2068 93.3996 51.1273 93.59 50.9875 93.7317C50.8477 93.8734 50.6584 93.9554 50.4594 93.9606Z" fill="url(#paint22_linear_3448_4504)"/>
<path d="M34.1201 77.9405V75.5905C34.1201 75.3253 34.2255 75.071 34.413 74.8834C34.6006 74.6959 34.8549 74.5905 35.1201 74.5905H42.2301C42.4953 74.5905 42.7497 74.6959 42.9372 74.8834C43.1248 75.071 43.2301 75.3253 43.2301 75.5905V77.9405H44.3201V75.5305C44.3019 74.992 44.0744 74.4818 43.686 74.1084C43.2976 73.7349 42.7789 73.5276 42.2401 73.5305H35.1301C34.8596 73.5319 34.592 73.5864 34.3426 73.6912C34.0931 73.7959 33.8667 73.9488 33.6764 74.141C33.486 74.3332 33.3354 74.561 33.2331 74.8115C33.1308 75.0619 33.0788 75.33 33.0801 75.6005V77.9505L34.1201 77.9405Z" fill="url(#paint23_linear_3448_4504)"/>
<path d="M48.4215 77.5137L28.8617 77.6127C28.1161 77.6164 27.5148 78.2239 27.5186 78.9695L27.5806 91.2293C27.5844 91.9749 28.1919 92.5763 28.9374 92.5725L48.4972 92.4735C49.2427 92.4697 49.8441 91.8622 49.8403 91.1167L49.7783 78.8568C49.7745 78.1112 49.167 77.5099 48.4215 77.5137Z" fill="url(#paint24_linear_3448_4504)"/>
<g style="mix-blend-mode:multiply" opacity="0.25">
<path d="M49.0527 91.3955L49.0015 81.2657C48.9985 80.6803 48.5215 80.2081 47.9361 80.2111L29.3563 80.3051C28.7709 80.3081 28.2988 80.785 28.3017 81.3704L28.353 91.5003C28.356 92.0857 28.8329 92.5579 29.4183 92.5549L47.9981 92.4609C48.5835 92.4579 49.0557 91.981 49.0527 91.3955Z" fill="#A77D52"/>
</g>
<g style="mix-blend-mode:screen" opacity="0.47">
<path d="M31.4512 75.9668L46.7712 75.8136L46.8042 79.1136C46.8074 79.4372 46.682 79.7488 46.4555 79.9798C46.229 80.2109 45.9199 80.3426 45.5964 80.3458L32.7164 80.4746C32.3928 80.4778 32.0812 80.3524 31.8501 80.1259C31.619 79.8994 31.4874 79.5904 31.4842 79.2668L31.4512 75.9668Z" fill="#C59C6D"/>
</g>
<path opacity="0.1" d="M107.849 94.7769C111.29 94.7613 114.075 93.8622 114.07 92.7687C114.065 91.6751 111.272 90.8013 107.832 90.8169C104.391 90.8326 101.606 91.7317 101.611 92.8252C101.616 93.9187 104.409 94.7925 107.849 94.7769Z" fill="#333333"/>
<path d="M107.811 93.0706C112.229 93.0706 115.811 89.4888 115.811 85.0706C115.811 80.6523 112.229 77.0706 107.811 77.0706C103.392 77.0706 99.8105 80.6523 99.8105 85.0706C99.8105 89.4888 103.392 93.0706 107.811 93.0706Z" fill="white" stroke="#010101" stroke-width="0.03" stroke-miterlimit="10"/>
<path d="M115.489 88.8805C115.464 88.6209 115.505 88.3593 115.608 88.1199C115.711 87.8804 115.873 87.6708 116.079 87.5105C116.428 87.2014 116.704 86.8186 116.887 86.3897C117.071 85.9608 117.157 85.4966 117.139 85.0305C117.197 84.4486 117.085 83.8622 116.815 83.3434C116.545 82.8246 116.129 82.3961 115.619 82.1105C115.495 82.0364 115.395 81.9281 115.331 81.7986C115.267 81.6691 115.242 81.5239 115.259 81.3805C115.364 80.9354 115.38 80.4739 115.306 80.0226C115.232 79.5712 115.07 79.1389 114.829 78.7505C114.534 78.4359 114.161 78.2054 113.748 78.0823C113.335 77.9593 112.897 77.9483 112.479 78.0505C112.292 78.09 112.097 78.0559 111.935 77.9553C111.773 77.8546 111.656 77.6953 111.609 77.5105C111.532 77.1908 111.378 76.895 111.16 76.6491C110.942 76.4031 110.667 76.2147 110.359 76.1005C109.848 75.933 109.3 75.9166 108.78 76.0532C108.26 76.1898 107.791 76.4736 107.429 76.8705C107.27 76.9926 107.085 77.0753 106.889 77.1118C106.692 77.1483 106.49 77.1376 106.299 77.0805C105.828 76.8581 105.33 76.6968 104.819 76.6005C104.189 76.4681 103.533 76.5417 102.949 76.8105C102.392 77.1234 101.93 77.5797 101.61 78.132C101.29 78.6842 101.124 79.3122 101.129 79.9505C101.12 80.16 101.046 80.3615 100.917 80.5266C100.788 80.6917 100.61 80.812 100.409 80.8705C99.7087 81.1005 98.7487 81.5705 98.7487 82.4605C98.7674 83.074 98.958 83.6699 99.2986 84.1805C99.4296 84.3699 99.4912 84.5987 99.473 84.8283C99.4547 85.0579 99.3578 85.2741 99.1986 85.4405C98.6613 86.1632 98.3711 87.0399 98.3711 87.9405C98.3711 88.8411 98.6613 89.7177 99.1986 90.4405C99.5821 90.9982 100.108 91.4428 100.722 91.7278C101.336 92.0127 102.015 92.1276 102.689 92.0605C102.987 92.0836 103.271 92.2005 103.499 92.3945C103.727 92.5885 103.888 92.8496 103.959 93.1405C104.024 93.4644 104.157 93.771 104.349 94.0405C104.644 94.2888 105.018 94.4249 105.404 94.4249C105.79 94.4249 106.163 94.2888 106.459 94.0405C106.724 93.8604 107.042 93.7753 107.361 93.7989C107.681 93.8225 107.983 93.9534 108.219 94.1705C108.558 94.5195 108.987 94.7685 109.459 94.8905C110.459 95.0705 111.239 94.6805 111.459 93.3205C111.513 93.0194 111.663 92.7438 111.886 92.5347C112.11 92.3257 112.395 92.1944 112.699 92.1605C113.112 92.1743 113.524 92.0946 113.902 91.9272C114.281 91.7598 114.617 91.5091 114.885 91.1938C115.153 90.8785 115.347 90.5067 115.451 90.1062C115.556 89.7056 115.569 89.2866 115.489 88.8805Z" fill="url(#paint25_linear_3448_4504)"/>
<path d="M107.329 78.0406C107.45 77.5331 107.42 77.0013 107.242 76.5108C107.064 76.0203 106.747 75.5926 106.329 75.2806C106.241 75.2167 106.173 75.1293 106.132 75.0285C106.091 74.9278 106.08 74.8176 106.099 74.7106C106.149 74.4606 106.539 74.1006 107.219 74.6206C108.449 75.5406 107.329 78.0406 107.329 78.0406Z" fill="white"/>
<path d="M106.85 78.7205C106.827 78.2004 106.65 77.6988 106.342 77.2789C106.034 76.859 105.609 76.5394 105.12 76.3605C105.018 76.3221 104.928 76.256 104.861 76.1694C104.794 76.0829 104.752 75.9794 104.74 75.8705C104.74 75.6205 104.98 75.1605 105.74 75.4605C107.21 75.9905 106.85 78.7205 106.85 78.7205Z" fill="white"/>
<path d="M106.9 87.3806C107.172 87.2394 107.474 87.1658 107.78 87.1658C108.087 87.1658 108.389 87.2394 108.66 87.3806C108.732 87.4189 108.79 87.4771 108.829 87.5481C108.868 87.619 108.886 87.6998 108.88 87.7806C108.881 87.9198 108.852 88.0577 108.797 88.1852C108.741 88.3128 108.659 88.4274 108.556 88.5215C108.454 88.6156 108.333 88.6873 108.201 88.7319C108.069 88.7765 107.929 88.7931 107.79 88.7806C107.649 88.7976 107.506 88.7844 107.371 88.7419C107.235 88.6993 107.11 88.6284 107.004 88.5337C106.898 88.4391 106.814 88.323 106.756 88.1931C106.699 88.0633 106.669 87.9226 106.67 87.7806C106.661 87.6981 106.679 87.6148 106.72 87.5429C106.761 87.471 106.824 87.4141 106.9 87.3806Z" fill="url(#paint26_linear_3448_4504)"/>
<mask id="mask1_3448_4504" style="mask-type:luminance" maskUnits="userSpaceOnUse" x="106" y="86" width="3" height="3">
<path d="M106.9 87.1806C107.172 87.0352 107.476 86.9592 107.785 86.9592C108.093 86.9592 108.397 87.0352 108.67 87.1806C108.81 87.2506 108.89 87.6006 108.88 87.7606C108.88 87.8998 108.852 88.0376 108.796 88.1652C108.74 88.2928 108.658 88.4074 108.556 88.5015C108.453 88.5956 108.332 88.6673 108.2 88.7119C108.068 88.7565 107.928 88.7731 107.79 88.7606C107.649 88.7776 107.506 88.7644 107.37 88.7219C107.235 88.6793 107.11 88.6083 107.004 88.5137C106.898 88.4191 106.813 88.303 106.756 88.1731C106.698 88.0433 106.669 87.9026 106.67 87.7606C106.62 87.6206 106.74 87.2506 106.9 87.1806Z" fill="white"/>
</mask>
<g mask="url(#mask1_3448_4504)">
<path d="M106.779 88.5806C106.779 88.5806 107.599 87.1806 108.559 88.3506C109.519 89.5206 106.779 88.5806 106.779 88.5806Z" fill="url(#paint27_linear_3448_4504)"/>
</g>
<path d="M106.069 87.0505C106.694 87.0505 107.199 86.5446 107.199 85.9205C107.199 85.2964 106.694 84.7905 106.069 84.7905C105.445 84.7905 104.939 85.2964 104.939 85.9205C104.939 86.5446 105.445 87.0505 106.069 87.0505Z" fill="white"/>
<path d="M106.28 86.6806C106.655 86.6806 106.96 86.3761 106.96 86.0006C106.96 85.625 106.655 85.3206 106.28 85.3206C105.904 85.3206 105.6 85.625 105.6 86.0006C105.6 86.3761 105.904 86.6806 106.28 86.6806Z" fill="url(#paint28_linear_3448_4504)"/>
<path d="M106.6 86.1306C106.711 86.1306 106.8 86.0411 106.8 85.9306C106.8 85.8201 106.711 85.7306 106.6 85.7306C106.49 85.7306 106.4 85.8201 106.4 85.9306C106.4 86.0411 106.49 86.1306 106.6 86.1306Z" fill="white"/>
<path d="M109.56 87.0305C110.184 87.0305 110.69 86.5246 110.69 85.9005C110.69 85.2764 110.184 84.7705 109.56 84.7705C108.936 84.7705 108.43 85.2764 108.43 85.9005C108.43 86.5246 108.936 87.0305 109.56 87.0305Z" fill="white"/>
<path d="M109.75 86.6605C110.126 86.6605 110.43 86.3561 110.43 85.9805C110.43 85.605 110.126 85.3005 109.75 85.3005C109.375 85.3005 109.07 85.605 109.07 85.9805C109.07 86.3561 109.375 86.6605 109.75 86.6605Z" fill="url(#paint29_linear_3448_4504)"/>
<path d="M110.071 86.1106C110.182 86.1106 110.271 86.021 110.271 85.9106C110.271 85.8001 110.182 85.7106 110.071 85.7106C109.961 85.7106 109.871 85.8001 109.871 85.9106C109.871 86.021 109.961 86.1106 110.071 86.1106Z" fill="white"/>
<path d="M104.62 84.3106C104.754 84.2238 104.894 84.147 105.04 84.0806C105.112 84.0404 105.189 84.0101 105.27 83.9906C105.619 83.8652 105.981 83.7813 106.35 83.7406H106.54C106.62 83.7406 106.65 83.5206 106.6 83.4706C106.55 83.4206 106.26 83.4706 106.09 83.4706C105.99 83.4555 105.889 83.4555 105.79 83.4706L105.53 83.5806C105.444 83.6145 105.36 83.6546 105.28 83.7006L105.05 83.8406C104.888 83.9425 104.735 84.0561 104.59 84.1806L104.62 84.3106Z" fill="#AFDCD2"/>
<path d="M104.55 84.2506L104.91 84.0306L105.15 83.9206C105.517 83.7639 105.904 83.6563 106.3 83.6006H106.51C106.59 83.6006 106.62 83.5106 106.56 83.4506C106.5 83.3906 106.19 83.3406 106 83.3406C105.893 83.3401 105.788 83.3604 105.69 83.4006L105.41 83.5306L105.15 83.6706L104.91 83.8406C104.77 83.9638 104.639 84.0975 104.52 84.2406L104.55 84.2506Z" fill="url(#paint30_linear_3448_4504)"/>
<path d="M110.699 84.3104C110.572 84.2182 110.438 84.1346 110.299 84.0604C110.229 84.0244 110.155 83.9943 110.079 83.9704C109.738 83.8251 109.378 83.7308 109.009 83.6904H108.829C108.749 83.6904 108.729 83.4704 108.829 83.4204C108.929 83.3704 109.179 83.4204 109.349 83.4204C109.449 83.4201 109.548 83.4405 109.639 83.4804L109.899 83.5904L110.139 83.7204L110.349 83.8704C110.506 83.9734 110.654 84.0906 110.789 84.2204L110.699 84.3104Z" fill="#AFDCD2"/>
<path d="M110.74 84.3105L110.39 84.0705L110.16 83.9505C109.802 83.7811 109.421 83.6632 109.03 83.6005C108.97 83.6005 108.9 83.6005 108.83 83.6005C108.76 83.6005 108.73 83.5105 108.83 83.4605C108.93 83.4105 109.22 83.3505 109.4 83.3605C109.506 83.3684 109.611 83.392 109.71 83.4305L109.98 83.5705L110.23 83.7305C110.31 83.7818 110.384 83.8422 110.45 83.9105C110.591 84.0298 110.716 84.1677 110.82 84.3205L110.74 84.3105Z" fill="url(#paint31_linear_3448_4504)"/>
<path d="M110.19 93.4805C110.377 93.4805 110.53 93.3283 110.53 93.1405C110.53 92.9528 110.377 92.8005 110.19 92.8005C110.002 92.8005 109.85 92.9528 109.85 93.1405C109.85 93.3283 110.002 93.4805 110.19 93.4805Z" fill="#97D0CB"/>
<path d="M110.119 93.3105L111.519 94.2005C111.553 94.2171 111.592 94.2211 111.629 94.212C111.665 94.2028 111.697 94.1811 111.719 94.1505C111.742 94.1146 111.749 94.0714 111.74 94.0302C111.73 93.989 111.705 93.9531 111.669 93.9305C111.249 93.7005 111.05 93.5305 110.29 93.0205C110.271 93.0082 110.25 92.9999 110.228 92.9963C110.205 92.9926 110.183 92.9937 110.161 92.9993C110.139 93.005 110.119 93.0151 110.102 93.0291C110.084 93.0431 110.07 93.0606 110.059 93.0805C110.037 93.1191 110.031 93.1647 110.043 93.2077C110.054 93.2507 110.081 93.2876 110.119 93.3105Z" fill="url(#paint32_linear_3448_4504)"/>
<path d="M112.209 96.0005H112.109C112.089 96.0016 112.07 95.9964 112.054 95.9856C112.037 95.9747 112.025 95.9589 112.019 95.9405L111.479 94.0705C111.474 94.0541 111.473 94.0368 111.476 94.02C111.479 94.0032 111.485 93.9871 111.495 93.9729C111.504 93.9587 111.517 93.9467 111.531 93.9377C111.546 93.9286 111.562 93.9228 111.579 93.9205C111.596 93.9161 111.614 93.9152 111.631 93.9179C111.649 93.9206 111.665 93.9268 111.68 93.9361C111.695 93.9455 111.708 93.9578 111.718 93.9723C111.728 93.9868 111.735 94.0032 111.739 94.0205L112.279 95.8805C112.286 95.8927 112.289 95.9066 112.289 95.9207C112.289 95.9348 112.286 95.9487 112.279 95.9608C112.271 95.973 112.261 95.9831 112.249 95.9901C112.237 95.9971 112.223 96.0007 112.209 96.0005Z" fill="url(#paint33_linear_3448_4504)"/>
<path d="M112.17 95.7606H112.28C112.48 95.6806 113.14 95.4406 113.43 95.6106C113.72 95.7806 112.93 96.1906 112.24 96.1906C112.185 96.1886 112.133 96.1675 112.093 96.1309C112.053 96.0943 112.027 96.0445 112.02 95.9906C112.01 95.8706 112.03 95.8006 112.17 95.7606Z" fill="url(#paint34_linear_3448_4504)"/>
<path d="M105.13 93.5005C105.328 93.5005 105.49 93.3393 105.49 93.1405C105.49 92.9417 105.328 92.7805 105.13 92.7805C104.931 92.7805 104.77 92.9417 104.77 93.1405C104.77 93.3393 104.931 93.5005 105.13 93.5005Z" fill="#97D0CB"/>
<path d="M105.21 93.3105L103.75 94.2605C103.72 94.2866 103.681 94.3009 103.64 94.3009C103.6 94.3009 103.561 94.2866 103.53 94.2605C103.518 94.2418 103.51 94.2207 103.506 94.1986C103.502 94.1765 103.503 94.1539 103.509 94.1322C103.515 94.1105 103.525 94.0903 103.539 94.0727C103.553 94.0552 103.57 94.0409 103.59 94.0305C104.02 93.7905 104.23 93.6105 105.02 93.0305C105.041 93.0178 105.063 93.0093 105.087 93.0054C105.11 93.0015 105.135 93.0024 105.158 93.008C105.181 93.0136 105.203 93.0238 105.222 93.038C105.242 93.0521 105.258 93.07 105.27 93.0905C105.287 93.1285 105.29 93.1711 105.28 93.2112C105.269 93.2513 105.244 93.2864 105.21 93.3105Z" fill="url(#paint35_linear_3448_4504)"/>
<path d="M103.18 96.0405H103.29C103.309 96.0436 103.33 96.0391 103.346 96.028C103.363 96.0169 103.375 96 103.38 95.9805L103.79 94.1405C103.793 94.1051 103.784 94.0696 103.764 94.0403C103.744 94.011 103.714 93.9898 103.68 93.9805C103.644 93.9769 103.609 93.986 103.579 94.0061C103.55 94.0263 103.529 94.0562 103.52 94.0905L103.12 95.9205C103.115 95.9323 103.113 95.9449 103.113 95.9576C103.114 95.9702 103.117 95.9826 103.123 95.9939C103.128 96.0053 103.136 96.0153 103.146 96.0233C103.156 96.0313 103.167 96.0372 103.18 96.0405Z" fill="url(#paint36_linear_3448_4504)"/>
<path d="M103.22 95.7806H103.1C102.89 95.7006 102.2 95.4606 101.89 95.6306C101.58 95.8006 102.42 96.2406 103.14 96.2306C103.199 96.231 103.256 96.2099 103.3 96.1712C103.345 96.1325 103.373 96.0789 103.38 96.0206C103.39 95.9006 103.36 95.8206 103.22 95.7806Z" fill="url(#paint37_linear_3448_4504)"/>
<path d="M107.679 89.1106C107.396 88.8728 107.053 88.7179 106.688 88.6632C106.322 88.6085 105.949 88.656 105.609 88.8006C105.334 88.9337 105.097 89.133 104.919 89.3806C104.718 89.629 104.581 89.9235 104.522 90.2377C104.462 90.5519 104.482 90.8759 104.579 91.1806C104.65 91.3887 104.758 91.582 104.899 91.7506C105.34 92.3363 105.847 92.8698 106.409 93.3406C106.828 93.7272 107.291 94.0629 107.789 94.3406C108.109 94.4006 109.789 92.8806 109.789 92.8806C110.699 92.0706 111.299 91.2306 111.119 90.2806C111.057 89.9818 110.927 89.7013 110.739 89.4606C110.589 89.2435 110.395 89.0607 110.169 88.9245C109.943 88.7883 109.69 88.7017 109.428 88.6705C109.166 88.6393 108.901 88.6642 108.649 88.7435C108.398 88.8228 108.166 88.9548 107.969 89.1306C107.925 89.1594 107.873 89.1731 107.821 89.1695C107.768 89.1659 107.718 89.1452 107.679 89.1106Z" fill="#F3797F"/>
<path d="M114.402 88.7252C114.546 88.7225 114.66 88.5904 114.656 88.4303C114.653 88.2701 114.534 88.1426 114.391 88.1454C114.247 88.1481 114.133 88.2802 114.136 88.4403C114.14 88.6005 114.258 88.728 114.402 88.7252Z" fill="#AFDCD2"/>
<path d="M112.359 92.3906C111.843 92.3874 111.333 92.2821 110.859 92.0806C110.837 92.0729 110.816 92.0607 110.799 92.0447C110.781 92.0287 110.768 92.0092 110.758 91.9876C110.749 91.966 110.744 91.9426 110.744 91.919C110.744 91.8954 110.749 91.8721 110.759 91.8506C110.777 91.8073 110.811 91.7726 110.854 91.7539C110.897 91.7353 110.945 91.7341 110.989 91.7506C111.346 91.9531 111.749 92.0595 112.159 92.0595C112.569 92.0595 112.972 91.9531 113.329 91.7506C114.459 90.8906 114.219 88.5606 114.219 88.5306C114.219 88.4828 114.238 88.4371 114.272 88.4033C114.305 88.3695 114.351 88.3506 114.399 88.3506C114.447 88.3506 114.492 88.3695 114.526 88.4033C114.56 88.4371 114.579 88.4828 114.579 88.5306C114.579 88.6406 114.839 91.0906 113.579 92.0806C113.216 92.3125 112.788 92.4213 112.359 92.3906Z" fill="url(#paint38_linear_3448_4504)"/>
<path d="M109.94 92.2506C109.94 92.2506 109.62 92.1406 109.82 91.8906C109.85 91.8686 109.887 91.8568 109.925 91.8568C109.962 91.8568 109.999 91.8686 110.03 91.8906L109.86 91.7506C109.816 91.7133 109.785 91.6636 109.771 91.6081C109.757 91.5527 109.76 91.4942 109.78 91.4406C109.797 91.4022 109.828 91.3717 109.867 91.355C109.906 91.3384 109.95 91.3368 109.99 91.3506C110.26 91.4406 110.27 91.5106 110.27 91.5106C110.27 91.5106 110.01 91.2006 110.27 91.0206C110.53 90.8406 111.04 91.3906 111.04 91.3906C111.04 91.2006 111.26 91.3906 111.04 91.9806C111.015 92.0662 110.97 92.1449 110.91 92.2106C110.828 92.298 110.718 92.3545 110.6 92.3706C110.373 92.3941 110.144 92.3525 109.94 92.2506Z" fill="url(#paint39_linear_3448_4504)"/>
<path d="M110.24 91.4506C110.327 91.5491 110.437 91.6246 110.56 91.6706C110.493 91.6616 110.43 91.637 110.374 91.5987C110.318 91.5605 110.273 91.5098 110.24 91.4506Z" fill="#010101"/>
<path d="M110.029 91.8606C110.151 91.9278 110.283 91.9751 110.419 92.0006C110.348 92.0052 110.277 91.9952 110.21 91.9711C110.143 91.947 110.081 91.9094 110.029 91.8606Z" fill="#010101"/>
<path d="M101.24 88.9904C101.383 88.9876 101.497 88.8555 101.494 88.6954C101.491 88.5353 101.372 88.4077 101.229 88.4105C101.085 88.4133 100.971 88.5453 100.974 88.7055C100.977 88.8656 101.096 88.9932 101.24 88.9904Z" fill="#AFDCD2"/>
<path d="M103.419 92.5605C102.988 92.5832 102.561 92.4599 102.209 92.2105C100.889 91.2805 101.039 88.8205 101.049 88.7105C101.049 88.6628 101.068 88.617 101.102 88.5832C101.135 88.5495 101.181 88.5305 101.229 88.5305C101.277 88.5305 101.323 88.5495 101.356 88.5832C101.39 88.617 101.409 88.6628 101.409 88.7105C101.409 88.7105 101.269 91.0705 102.409 91.8905C102.766 92.0911 103.169 92.1965 103.579 92.1965C103.989 92.1965 104.392 92.0911 104.749 91.8905C104.771 91.8805 104.794 91.8749 104.818 91.874C104.842 91.8731 104.865 91.8769 104.888 91.8853C104.91 91.8937 104.931 91.9064 104.948 91.9228C104.965 91.9391 104.979 91.9587 104.989 91.9805C105.006 92.0257 105.005 92.0757 104.986 92.1203C104.968 92.1649 104.933 92.2007 104.889 92.2205C104.424 92.4243 103.926 92.5396 103.419 92.5605Z" fill="url(#paint40_linear_3448_4504)"/>
<path d="M105.829 92.3105C105.829 92.3105 106.139 92.1905 105.939 91.9405C105.909 91.917 105.872 91.9042 105.834 91.9042C105.796 91.9042 105.759 91.917 105.729 91.9405L105.889 91.8005C105.93 91.7597 105.959 91.7077 105.971 91.6509C105.984 91.5941 105.979 91.5349 105.959 91.4805C105.939 91.4415 105.906 91.4115 105.865 91.3966C105.824 91.3817 105.779 91.3831 105.739 91.4005C105.479 91.5005 105.479 91.5705 105.479 91.5705C105.479 91.5705 105.719 91.2505 105.479 91.0805C105.239 90.9105 104.729 91.4805 104.729 91.4805C104.729 91.2905 104.509 91.4805 104.729 92.0705C104.757 92.1569 104.805 92.2356 104.869 92.3005C104.957 92.3807 105.07 92.4298 105.189 92.4405C105.41 92.4566 105.631 92.4117 105.829 92.3105Z" fill="url(#paint41_linear_3448_4504)"/>
<path d="M105.499 91.5405C105.471 91.6014 105.427 91.6542 105.373 91.6943C105.319 91.7344 105.256 91.7606 105.189 91.7705C105.309 91.718 105.415 91.6394 105.499 91.5405Z" fill="#010101"/>
<path d="M105.728 91.9404C105.678 91.9932 105.618 92.0341 105.55 92.0601C105.483 92.0861 105.41 92.0964 105.338 92.0904C105.476 92.0642 105.608 92.0134 105.728 91.9404Z" fill="#010101"/>
<g style="mix-blend-mode:multiply" opacity="0.09">
<path d="M98.6193 115.191C98.6193 118.621 85.2893 121.191 66.6193 121.191C47.9493 121.191 32.7793 118.411 32.7793 114.981C32.7793 111.551 47.9293 108.771 66.6193 108.771C85.3093 108.771 98.6193 111.761 98.6193 115.191Z" fill="#525557"/>
</g>
<path d="M61.9893 89.5006C61.9893 89.5006 67.8693 85.6406 68.6393 94.8406C68.6393 94.8406 69.3793 98.4706 65.7493 104.931C62.1193 111.391 65.3793 110.341 65.3793 110.341C65.3793 110.341 69.2293 110.961 76.4893 109.261C83.7493 107.561 85.4893 111.871 84.1593 112.501C84.1593 112.501 85.0193 114.951 81.4493 114.961C81.4493 114.961 80.5793 116.701 74.8893 116.051C74.8893 116.051 67.1293 114.271 65.8893 114.051C64.6493 113.831 61.8893 113.591 61.8893 113.591C61.8893 113.591 59.7993 113.431 60.0393 110.591C60.2793 107.751 61.9593 106.661 59.8593 103.301C57.7593 99.9406 59.3693 92.8006 61.9893 89.5006Z" fill="url(#paint42_linear_3448_4504)"/>
<path d="M84.1588 112.5C84.1588 112.5 83.8588 111.11 80.2188 110.5" stroke="#AE4C43" stroke-width="0.3" stroke-miterlimit="10" stroke-linecap="round"/>
<path d="M81.4503 114.961C81.4503 114.961 81.1703 112.751 76.0703 112.041" stroke="#AE4C43" stroke-width="0.3" stroke-miterlimit="10" stroke-linecap="round"/>
<path d="M66.6197 52.7005C66.6197 52.7005 68.6197 58.8205 65.3397 61.7005C64.5823 63.1777 64.1784 64.8106 64.1597 66.4705C64.0297 69.3705 62.9497 74.3905 62.2397 75.6605C61.7297 76.5805 60.8397 79.4105 60.3697 80.1605C59.2897 81.8905 56.6197 84.7505 55.7697 85.9605C53.6697 88.9605 51.7697 91.1805 51.3497 94.8205C50.7697 99.7205 51.7097 105.82 58.3497 109.46C70.8797 116.46 79.5597 102.46 79.5597 102.46C79.5597 102.46 86.1697 95.6305 76.1297 81.6705C76.1297 81.6705 72.3997 75.7405 71.7697 72.7305C71.1397 69.7205 71.5097 61.8105 71.5097 61.8105C71.4655 58.7351 71.6024 55.6598 71.9197 52.6005C71.9197 52.6005 71.0697 48.0705 66.6197 52.7005Z" fill="url(#paint43_linear_3448_4504)"/>
<path d="M56.4487 91.5406C58.7887 91.1706 62.0387 91.7306 62.5187 97.5406C62.5187 97.5406 63.2587 101.161 59.6287 107.621C55.9987 114.081 59.2587 113.041 59.2587 113.041C59.2587 113.041 63.1087 113.651 70.3687 111.961C77.6287 110.271 79.3687 114.561 78.0387 115.191C78.0387 115.191 78.8987 117.641 75.3387 117.661C75.3387 117.661 74.4587 119.391 68.7687 118.751C68.7687 118.751 61.0087 116.971 59.7687 116.751C58.5287 116.531 55.7087 116.301 55.7087 116.301C55.7087 116.301 53.6187 116.141 53.8587 113.301C54.0987 110.461 55.7787 109.381 53.6787 106.011C51.9987 103.301 51.5487 98.2406 52.7987 94.6506C53.0652 93.8484 53.5463 93.1345 54.1897 92.5862C54.8331 92.038 55.6143 91.6764 56.4487 91.5406Z" fill="url(#paint44_linear_3448_4504)"/>
<path d="M78.0396 115.191C78.0396 115.191 77.7396 113.801 74.0996 113.191" stroke="#AE4C43" stroke-width="0.3" stroke-miterlimit="10" stroke-linecap="round"/>
<path d="M75.3392 117.661C75.3392 117.661 75.0492 115.441 69.9492 114.731" stroke="#AE4C43" stroke-width="0.3" stroke-miterlimit="10" stroke-linecap="round"/>
<path d="M60.3691 80.2006C60.3691 80.2006 63.8191 87.1106 63.8591 92.5406C63.8591 98.1406 62.2091 102.881 62.2991 103.861C62.3036 103.938 62.3293 104.012 62.3734 104.076C62.4176 104.139 62.4784 104.189 62.5491 104.221C64.5991 105.221 72.7091 111.221 81.8291 99.8706C82.0612 99.5849 82.2039 99.237 82.2391 98.8706C82.4491 96.7906 82.2391 88.4006 74.9291 79.7206L60.3691 80.2006Z" fill="url(#paint45_linear_3448_4504)"/>
<mask id="mask2_3448_4504" style="mask-type:luminance" maskUnits="userSpaceOnUse" x="58" y="79" width="25" height="28">
<path d="M60.3704 80.2006C59.3144 83.9384 58.5981 87.7639 58.2304 91.6306C57.8504 97.2206 62.2304 102.881 62.3004 103.861C62.3049 103.938 62.3306 104.012 62.3747 104.076C62.4188 104.139 62.4796 104.189 62.5504 104.221C64.6004 105.221 72.7104 111.221 81.8304 99.8706C82.0625 99.5849 82.2051 99.237 82.2404 98.8706C82.4504 96.7906 82.2404 88.4006 74.9304 79.7206L60.3704 80.2006Z" fill="white"/>
</mask>
<g mask="url(#mask2_3448_4504)">
<g opacity="0.5">
<path d="M80.9745 88.1542C86.0306 87.9847 90.1194 87.552 90.1072 87.1877C90.095 86.8234 85.9863 86.6655 80.9303 86.8349C75.8742 87.0044 71.7853 87.4372 71.7975 87.8015C71.8097 88.1658 75.9184 88.3237 80.9745 88.1542Z" fill="#F39C50"/>
<path d="M71.8105 87.7806C71.8105 87.7806 72.5205 98.4306 81.8905 97.4706C91.2605 96.5106 90.1105 87.1606 90.1105 87.1606C90.1105 87.1606 83.9905 88.8606 71.8105 87.7806Z" fill="url(#paint46_linear_3448_4504)"/>
</g>
</g>
<path d="M64.2101 64.0405L62.9102 79.5805C62.9102 79.5805 65.1302 79.2005 69.2502 78.5805C70.6802 78.3705 72.3702 81.3905 74.2502 79.9005C74.2967 79.8641 74.3323 79.8155 74.3529 79.7601C74.3735 79.7048 74.3784 79.6447 74.367 79.5868C74.3556 79.5288 74.3284 79.4751 74.2884 79.4316C74.2483 79.3881 74.197 79.3566 74.1401 79.3405C72.8301 78.9705 71.2901 76.5705 71.9301 62.0805L69.2701 60.9005H68.5501L66.4801 61.3905C65.8727 61.5404 65.3273 61.8764 64.9203 62.3515C64.5132 62.8267 64.2649 63.4173 64.2101 64.0405Z" fill="url(#paint47_linear_3448_4504)"/>
<path d="M65.3492 61.7905C64.2992 61.7905 63.9291 65.5505 63.8991 66.1005C63.8691 66.6505 63.8292 67.1005 63.7592 67.6005C63.4192 70.0205 61.9291 76.9005 60.3691 80.2005C60.3691 80.2005 76.3691 82.5605 74.9291 79.7505C73.1309 76.9009 72.0976 73.6358 71.9291 70.2705C71.8291 67.8205 71.7791 65.9905 71.7791 65.9905C70.1191 65.9905 70.5491 64.5105 70.4391 62.8505C70.4391 62.5805 70.4391 62.2605 70.4391 61.9805C70.4406 61.9499 70.4356 61.9194 70.4245 61.8908C70.4135 61.8623 70.3966 61.8363 70.3749 61.8147C70.3533 61.793 70.3274 61.7761 70.2988 61.7651C70.2703 61.754 70.2397 61.7491 70.2091 61.7505L65.3492 61.7905Z" fill="url(#paint48_linear_3448_4504)"/>
<path d="M60.3691 80.2005L64.2291 80.4705C65.5191 80.5605 66.7991 80.6605 68.0891 80.7105C69.3791 80.7605 70.6591 80.8305 71.9391 80.8305C72.5807 80.8287 73.2216 80.792 73.8591 80.7205C74.1761 80.6931 74.4866 80.6154 74.7791 80.4905C74.8517 80.4671 74.9177 80.4269 74.9716 80.3729C75.0255 80.319 75.0658 80.2531 75.0891 80.1805C75.0937 80.1016 75.0819 80.0227 75.0543 79.9487C75.0268 79.8747 74.9841 79.8072 74.9291 79.7505C75.0499 79.866 75.1215 80.0236 75.1292 80.1905C75.1054 80.2715 75.0645 80.3464 75.0093 80.4102C74.9541 80.474 74.8858 80.5253 74.8091 80.5605C74.5171 80.7095 74.2032 80.8108 73.8792 80.8605C73.2405 80.9667 72.596 81.0334 71.9491 81.0605C70.6491 81.0605 69.3592 81.0605 68.0692 81.0605C65.4892 80.8505 62.9191 80.6105 60.3691 80.2005Z" fill="#F89A31"/>
<path d="M69.0791 73.6105C68.9241 72.3888 68.9241 71.1523 69.0791 69.9305C69.2891 68.2305 68.7191 67.0105 69.0791 66.2405C69.4195 65.5928 69.598 64.8722 69.5991 64.1405C69.5291 62.3505 69.0791 62.1405 67.3891 62.0405C66.5091 62.0405 66.7091 63.2705 66.3391 64.2505C66.0869 64.8882 65.9481 65.5651 65.9291 66.2505C65.7347 68.0745 65.8977 69.9189 66.4091 71.6805C66.5691 72.3405 66.6292 73.4105 66.7592 74.0705C67.2992 76.6605 69.3591 75.7205 69.0791 73.6105Z" fill="url(#paint49_linear_3448_4504)"/>
<path d="M79.9993 66.8306C79.9993 66.8306 78.8593 65.9306 76.4493 67.8306C75.352 68.6008 74.1872 69.2702 72.9693 69.8306C71.5993 70.5506 68.4293 71.9906 67.7293 72.5006C66.5793 73.3506 66.6693 73.8906 67.4193 75.2506C67.8593 76.0206 73.9793 73.3206 76.1893 71.0506C77.5612 69.9511 79.008 68.9487 80.5193 68.0506L79.9993 66.8306Z" fill="url(#paint50_linear_3448_4504)"/>
<path d="M69.46 69.4205L65.82 69.7405C65.7734 69.7462 65.7262 69.7419 65.6814 69.7279C65.6366 69.7139 65.5954 69.6905 65.5603 69.6592C65.5253 69.628 65.4974 69.5897 65.4783 69.5468C65.4593 69.5039 65.4496 69.4574 65.45 69.4105L65.36 64.0605C65.3452 63.741 65.394 63.4218 65.5034 63.1212C65.6128 62.8207 65.7807 62.5448 65.9973 62.3095C66.214 62.0743 66.4751 61.8843 66.7657 61.7506C67.0562 61.6169 67.3704 61.5421 67.69 61.5305C68.0287 61.5414 68.3617 61.6214 68.6684 61.7654C68.9752 61.9095 69.2493 62.1147 69.4739 62.3684C69.6986 62.6221 69.8691 62.919 69.9751 63.2409C70.081 63.5628 70.1201 63.903 70.09 64.2405L69.76 69.1105C69.7555 69.1896 69.7228 69.2644 69.6677 69.3213C69.6126 69.3782 69.5389 69.4134 69.46 69.4205Z" fill="url(#paint51_linear_3448_4504)"/>
<path d="M78.6205 64.9205C79.2076 64.3623 79.7156 63.7264 80.1305 63.0305C80.4205 62.3305 81.0605 62.6405 81.0405 63.0905C80.9501 63.8532 80.5964 64.5605 80.0405 65.0905L80.1605 65.2005C80.8779 64.7567 81.5481 64.2407 82.1605 63.6605C82.9205 62.8705 83.1605 62.9905 83.1605 62.9905C83.1605 62.9905 83.6005 63.0705 83.4705 63.6405C83.3405 64.2105 81.8205 65.4105 81.8205 65.4105C82.6052 64.9708 83.3662 64.4901 84.1005 63.9705C84.8705 63.3805 85.3605 64.3105 84.8005 64.8005C84.2405 65.2905 82.2705 66.4305 82.2705 66.4305C82.2705 66.4305 83.7505 65.6505 84.5505 65.1705C84.6413 65.118 84.7458 65.0936 84.8505 65.1005C85.0205 65.1005 85.2005 65.2105 85.1705 65.6105C85.1005 66.3005 82.4605 67.3905 82.4605 67.3905C82.9447 67.1893 83.4519 67.0482 83.9705 66.9705C83.9705 66.9705 84.4905 66.8905 84.4705 67.3205C84.4588 67.428 84.423 67.5314 84.3659 67.6232C84.3088 67.7149 84.2317 67.7926 84.1405 67.8505C83.577 68.1619 82.9704 68.3877 82.3405 68.5205C82.3405 68.5205 79.0705 70.4205 78.0305 68.0305C76.9905 65.6405 78.6205 64.9205 78.6205 64.9205Z" fill="url(#paint52_linear_3448_4504)"/>
<path d="M66.4905 59.5205L71.9305 62.0905L71.3805 63.9405C71.3396 63.9882 71.2852 64.0223 71.2245 64.0384C71.1638 64.0544 71.0996 64.0517 71.0405 64.0305L65.3505 61.8405C65.3326 61.8352 65.3163 61.8255 65.3031 61.8121C65.29 61.7988 65.2805 61.7824 65.2755 61.7644C65.2705 61.7464 65.2702 61.7274 65.2745 61.7092C65.2789 61.691 65.2878 61.6742 65.3005 61.6605L66.1105 59.6605C66.1256 59.6258 66.1475 59.5944 66.175 59.5684C66.2026 59.5424 66.235 59.5223 66.2706 59.5092C66.3061 59.4961 66.3439 59.4904 66.3817 59.4923C66.4195 59.4942 66.4565 59.5038 66.4905 59.5205Z" fill="#405B3F"/>
<path d="M83.3288 17.1006C83.3288 17.1006 93.1488 15.2206 94.1888 1.94058C94.1973 1.81751 94.1799 1.69402 94.1375 1.57813C94.0952 1.46225 94.029 1.35656 93.9432 1.26792C93.8574 1.17928 93.7539 1.10967 93.6394 1.06362C93.525 1.01756 93.4021 0.996087 93.2788 1.00059C89.9787 1.14368 86.8023 2.29779 84.18 4.30653C81.5577 6.31528 79.6163 9.08156 78.6188 12.2306C78.6188 12.2306 76.6188 18.6806 83.3288 17.1006Z" fill="url(#paint53_linear_3448_4504)"/>
<path d="M92.2401 4.31054C92.2401 4.31054 88.0701 3.76054 84.9301 10.1605C84.252 11.5676 83.4059 12.8872 82.4101 14.0905C81.5501 15.0905 80.6101 16.0905 80.0801 16.0205C80.0801 15.9705 90.1301 15.6105 92.2401 4.31054Z" fill="url(#paint54_linear_3448_4504)"/>
<path d="M56.2399 26.8906C56.2399 26.8906 58.1699 9.78057 72.6199 10.8006C87.0699 11.8206 85.4299 27.5406 85.4299 27.5406C85.4299 27.5406 101.97 43.2906 79.8599 50.5406L71.6199 53.8306C71.1447 54.0198 70.6151 54.0198 70.1399 53.8306L61.5699 50.5206C58.9068 49.5051 56.4578 47.999 54.3499 46.0806C49.9399 42.0306 45.8399 35.0506 56.2399 26.8906Z" fill="url(#paint55_linear_3448_4504)"/>
<path d="M59.48 17.6506C59.48 17.6506 49.6201 15.8206 48.5401 2.54057C48.5299 2.41844 48.546 2.29556 48.5872 2.18016C48.6285 2.06476 48.6939 1.9595 48.7791 1.87144C48.8643 1.78337 48.9674 1.71454 49.0814 1.66955C49.1954 1.62456 49.3177 1.60445 49.44 1.61057C52.7399 1.73375 55.9221 2.86862 58.5552 4.86135C61.1883 6.85408 63.145 9.60827 64.16 12.7506C64.16 12.7506 66.16 19.1906 59.48 17.6506Z" fill="url(#paint56_linear_3448_4504)"/>
<path d="M50.5 4.86053C50.5 4.86053 54.67 4.28053 57.84 10.6605C58.5251 12.0682 59.378 13.3878 60.38 14.5905C61.25 15.5905 62.19 16.5905 62.73 16.5005C62.73 16.5005 52.68 16.1905 50.5 4.86053Z" fill="url(#paint57_linear_3448_4504)"/>
<path d="M73.1296 49.8105C77.1502 49.8105 80.4096 46.5511 80.4096 42.5305C80.4096 38.5099 77.1502 35.2505 73.1296 35.2505C69.109 35.2505 65.8496 38.5099 65.8496 42.5305C65.8496 46.5511 69.109 49.8105 73.1296 49.8105Z" fill="url(#paint58_radial_3448_4504)"/>
<mask id="mask3_3448_4504" style="mask-type:luminance" maskUnits="userSpaceOnUse" x="68" y="41" width="10" height="5">
<path d="M69.3301 41.8605C69.2685 41.852 69.2057 41.8588 69.1472 41.8803C69.0888 41.9018 69.0366 41.9373 68.9951 41.9838C68.9536 42.0302 68.9242 42.0861 68.9093 42.1465C68.8945 42.207 68.8948 42.2702 68.9101 42.3305C69.2101 43.4305 70.1801 45.3305 73.3401 45.3305C73.9634 45.3793 74.5899 45.2929 75.1768 45.0772C75.7636 44.8614 76.2969 44.5215 76.7401 44.0805C77.1825 43.5771 77.4858 42.967 77.6201 42.3105C77.6345 42.2489 77.6333 42.1848 77.6167 42.1238C77.6 42.0629 77.5684 42.007 77.5247 41.9613C77.481 41.9157 77.4266 41.8816 77.3665 41.8622C77.3063 41.8429 77.2423 41.8389 77.1801 41.8505C76.0354 42.0578 74.8734 42.1549 73.7101 42.1405C72.246 42.1296 70.7837 42.0361 69.3301 41.8605Z" fill="white"/>
</mask>
<g mask="url(#mask3_3448_4504)">
<path d="M69.0593 42.9605L77.5193 43.0205L77.7293 41.6105L75.1093 41.9005C73.9529 42.0806 72.7757 42.0806 71.6193 41.9005L68.7793 41.5205L69.0593 42.9605Z" fill="white"/>
<path d="M77.1286 43.5804L77.4686 43.0204L69.0586 42.9604L69.5986 43.7504C70.0218 44.3666 70.5918 44.8677 71.2571 45.2083C71.9225 45.549 72.6623 45.7186 73.4096 45.7017C74.1569 45.6848 74.8882 45.4821 75.5375 45.1117C76.1868 44.7414 76.7337 44.2151 77.1286 43.5804Z" fill="url(#paint59_linear_3448_4504)"/>
<path d="M75.6202 45.0904C75.4902 44.5604 74.9502 44.0904 73.9902 44.1504C72.2502 44.1504 72.2202 45.4004 72.3802 45.5704C74.7602 45.7504 75.6202 45.0904 75.6202 45.0904Z" fill="url(#paint60_linear_3448_4504)"/>
</g>
<path d="M71.2595 34.4905L75.5995 34.6005C75.9042 34.6107 76.1999 34.7061 76.4532 34.876C76.7064 35.0458 76.9068 35.2833 77.0318 35.5614C77.1568 35.8395 77.2013 36.1471 77.1602 36.4492C77.1191 36.7513 76.9941 37.0359 76.7994 37.2705L74.6194 39.8705C74.4675 40.0566 74.2761 40.2066 74.059 40.3096C73.842 40.4127 73.6047 40.4661 73.3644 40.4661C73.1242 40.4661 72.8869 40.4127 72.6699 40.3096C72.4528 40.2066 72.2614 40.0566 72.1094 39.8705L69.9494 37.1505C69.7474 36.9098 69.6198 36.6155 69.582 36.3035C69.5443 35.9915 69.5981 35.6752 69.737 35.3933C69.8758 35.1113 70.0937 34.8759 70.364 34.7156C70.6343 34.5553 70.9455 34.4771 71.2595 34.4905Z" fill="url(#paint61_radial_3448_4504)"/>
<path d="M67.5598 33.3206C70.4869 33.3206 72.8597 30.9477 72.8597 28.0206C72.8597 25.0935 70.4869 22.7206 67.5598 22.7206C64.6326 22.7206 62.2598 25.0935 62.2598 28.0206C62.2598 30.9477 64.6326 33.3206 67.5598 33.3206Z" fill="url(#paint62_linear_3448_4504)"/>
<path d="M67.399 33.2406C69.807 33.2406 71.7591 31.2886 71.7591 28.8806C71.7591 26.4727 69.807 24.5206 67.399 24.5206C64.9911 24.5206 63.0391 26.4727 63.0391 28.8806C63.0391 31.2886 64.9911 33.2406 67.399 33.2406Z" fill="white"/>
<path d="M68.5395 31.1706C69.8373 31.1706 70.8894 30.1184 70.8894 28.8206C70.8894 27.5227 69.8373 26.4706 68.5395 26.4706C67.2416 26.4706 66.1895 27.5227 66.1895 28.8206C66.1895 30.1184 67.2416 31.1706 68.5395 31.1706Z" fill="url(#paint63_linear_3448_4504)"/>
<path d="M69.8887 28.1306C69.8159 27.9079 69.6848 27.7088 69.5089 27.554C69.333 27.3992 69.1188 27.2945 68.8887 27.2506" stroke="white" stroke-width="0.39" stroke-miterlimit="10" stroke-linecap="round"/>
<path d="M78.0598 33.6906C80.9869 33.6906 83.3597 31.3177 83.3597 28.3906C83.3597 25.4635 80.9869 23.0906 78.0598 23.0906C75.1326 23.0906 72.7598 25.4635 72.7598 28.3906C72.7598 31.3177 75.1326 33.6906 78.0598 33.6906Z" fill="url(#paint64_linear_3448_4504)"/>
<path d="M78.0299 33.7006C80.4379 33.7006 82.3899 31.7486 82.3899 29.3406C82.3899 26.9326 80.4379 24.9806 78.0299 24.9806C75.622 24.9806 73.6699 26.9326 73.6699 29.3406C73.6699 31.7486 75.622 33.7006 78.0299 33.7006Z" fill="white"/>
<path d="M79.1703 31.6205C80.4682 31.6205 81.5203 30.5684 81.5203 29.2705C81.5203 27.9727 80.4682 26.9205 79.1703 26.9205C77.8724 26.9205 76.8203 27.9727 76.8203 29.2705C76.8203 30.5684 77.8724 31.6205 79.1703 31.6205Z" fill="url(#paint65_linear_3448_4504)"/>
<path d="M80.5195 28.5906C80.4468 28.3679 80.3156 28.1688 80.1397 28.014C79.9639 27.8592 79.7497 27.7544 79.5195 27.7106" stroke="white" stroke-width="0.39" stroke-miterlimit="10" stroke-linecap="round"/>
<g style="mix-blend-mode:multiply" opacity="0.1">
<path d="M64.6201 21.0105C66.5877 20.4053 68.7021 20.4828 70.6201 21.2305C70.7374 21.2798 70.8383 21.3614 70.9109 21.4659C70.9835 21.5704 71.0248 21.6934 71.0301 21.8205C71.0347 21.9284 71.0127 22.0358 70.9661 22.1332C70.9195 22.2307 70.8497 22.3152 70.7628 22.3793C70.6759 22.4435 70.5746 22.4854 70.4678 22.5013C70.361 22.5172 70.2519 22.5066 70.1501 22.4705C68.5063 21.8804 66.7137 21.8488 65.0501 22.3805C64.9507 22.4133 64.8451 22.4224 64.7415 22.4071C64.638 22.3917 64.5396 22.3523 64.454 22.292C64.3685 22.2318 64.2982 22.1523 64.2489 22.06C64.1996 21.9677 64.1726 21.8651 64.1701 21.7605V21.6505C64.167 21.5098 64.2091 21.3718 64.29 21.2566C64.371 21.1415 64.4866 21.0553 64.6201 21.0105Z" fill="#231F20"/>
</g>
<path d="M64.6199 20.7805C65.1499 20.4805 67.1199 18.8905 70.6199 20.9905C70.7322 21.0467 70.8285 21.1301 70.9002 21.2332C70.9718 21.3363 71.0164 21.4557 71.0299 21.5805C71.0345 21.6884 71.0125 21.7958 70.9659 21.8932C70.9193 21.9906 70.8495 22.0751 70.7627 22.1393C70.6758 22.2035 70.5745 22.2454 70.4677 22.2612C70.3608 22.2771 70.2517 22.2666 70.1499 22.2305C68.5042 21.6506 66.7151 21.619 65.0499 22.1405C64.9506 22.1733 64.8449 22.1824 64.7414 22.167C64.6379 22.1517 64.5394 22.1123 64.4539 22.052C64.3683 21.9917 64.2981 21.9123 64.2487 21.82C64.1994 21.7277 64.1724 21.6251 64.1699 21.5205V21.4205C64.1765 21.2821 64.2223 21.1484 64.302 21.0351C64.3817 20.9218 64.4919 20.8335 64.6199 20.7805Z" fill="url(#paint66_linear_3448_4504)"/>
<g style="mix-blend-mode:multiply" opacity="0.1">
<path d="M75.5394 21.1104C77.5507 20.6283 79.6662 20.8433 81.5394 21.7204C81.6519 21.7791 81.7455 21.8685 81.8093 21.9782C81.873 22.088 81.9042 22.2136 81.8994 22.3404C81.8967 22.4482 81.8676 22.5537 81.8147 22.6477C81.7618 22.7417 81.6866 22.8213 81.5959 22.8795C81.5051 22.9377 81.4014 22.9728 81.294 22.9817C81.1865 22.9905 81.0785 22.973 80.9793 22.9304C79.3797 22.2311 77.5938 22.08 75.8994 22.5004C75.7976 22.5273 75.6909 22.5297 75.588 22.5077C75.4851 22.4856 75.3888 22.4395 75.307 22.3733C75.2252 22.3071 75.1602 22.2225 75.1171 22.1265C75.0741 22.0304 75.0543 21.9256 75.0594 21.8204V21.7204C75.0615 21.5802 75.1096 21.4446 75.1963 21.3344C75.283 21.2242 75.4036 21.1455 75.5394 21.1104Z" fill="#231F20"/>
</g>
<path d="M75.5495 20.8705C76.5495 20.4905 78.9095 19.1205 81.5495 21.4905C81.6518 21.5583 81.7374 21.6484 81.7997 21.7541C81.8621 21.8597 81.8996 21.9782 81.9095 22.1005C81.9068 22.2083 81.8777 22.3138 81.8248 22.4078C81.7719 22.5017 81.6968 22.5813 81.606 22.6395C81.5152 22.6977 81.4116 22.7328 81.3041 22.7417C81.1966 22.7506 81.0886 22.733 80.9895 22.6905C79.3873 22.0013 77.6048 21.8504 75.9095 22.2605C75.8082 22.2877 75.7019 22.2904 75.5993 22.2684C75.4968 22.2463 75.401 22.2001 75.3199 22.1337C75.2387 22.0672 75.1746 21.9823 75.1328 21.8861C75.091 21.7899 75.0727 21.6852 75.0795 21.5805V21.4805C75.0932 21.3451 75.1445 21.2163 75.2275 21.1085C75.3106 21.0007 75.4221 20.9183 75.5495 20.8705Z" fill="url(#paint67_linear_3448_4504)"/>
<path d="M82.679 57.8406C82.679 57.8406 82.249 58.1506 82.019 57.5806C81.789 57.0106 82.779 55.6506 82.779 55.6506C82.779 55.6506 83.279 54.8906 83.779 55.3806C83.89 55.5088 83.9535 55.6711 83.959 55.8406C84.0713 55.8164 84.1876 55.8179 84.2992 55.8451C84.4108 55.8723 84.5147 55.9244 84.6033 55.9976C84.6918 56.0707 84.7626 56.163 84.8104 56.2674C84.8582 56.3718 84.8816 56.4857 84.8791 56.6006C85.0416 56.6529 85.1852 56.7519 85.2919 56.8853C85.3986 57.0186 85.4637 57.1805 85.479 57.3506C85.479 57.3506 86.579 57.5306 85.769 58.9006C84.959 60.2706 84.459 59.9006 84.279 59.4606C84.1625 59.521 84.0313 59.5474 83.9004 59.5368C83.7696 59.5261 83.6444 59.4789 83.5391 59.4006C83.4532 59.3136 83.3987 59.2006 83.3842 59.0793C83.3698 58.9579 83.3961 58.8353 83.459 58.7306C83.3437 58.7954 83.2106 58.8217 83.0792 58.8055C82.9479 58.7893 82.8252 58.7315 82.729 58.6406C82.6459 58.5256 82.5971 58.3894 82.5882 58.2478C82.5794 58.1062 82.6108 57.965 82.679 57.8406Z" fill="url(#paint68_linear_3448_4504)"/>
<path d="M82.6797 57.8405C82.8843 57.3337 83.1906 56.8743 83.5797 56.4905C83.4717 56.7418 83.3412 56.9827 83.1897 57.2105C83.037 57.4339 82.8665 57.6446 82.6797 57.8405Z" fill="#AE4C43"/>
<path d="M83.4297 58.7306C83.5466 58.4735 83.6837 58.226 83.8397 57.9906C83.999 57.7572 84.1762 57.5365 84.3697 57.3306C84.2523 57.5888 84.1187 57.8393 83.9697 58.0806C83.8037 58.3085 83.6233 58.5256 83.4297 58.7306Z" fill="#AE4C43"/>
<path d="M84.25 59.4605C84.3551 59.2212 84.4788 58.9905 84.62 58.7705C84.7702 58.5573 84.9374 58.3567 85.12 58.1705C85.0126 58.4055 84.889 58.6327 84.75 58.8505C84.5974 59.065 84.4303 59.2688 84.25 59.4605Z" fill="#AE4C43"/>
</g>
<defs>
<linearGradient id="paint0_linear_3448_4504" x1="75.1956" y1="76.0181" x2="72.1668" y2="63.7767" gradientUnits="userSpaceOnUse">
<stop stop-color="#CE7241"/>
<stop offset="0.44" stop-color="#C86E45"/>
<stop offset="0.63" stop-color="#C36B48"/>
<stop offset="0.77" stop-color="#C16847"/>
<stop offset="0.89" stop-color="#BA5E46"/>
<stop offset="0.99" stop-color="#AF4D43"/>
<stop offset="1" stop-color="#AE4C43"/>
</linearGradient>
<linearGradient id="paint1_linear_3448_4504" x1="85.5039" y1="60.8181" x2="70.7287" y2="75.5008" gradientUnits="userSpaceOnUse">
<stop stop-color="#AE4C43"/>
<stop offset="0.01" stop-color="#AF4D43"/>
<stop offset="0.11" stop-color="#BA5E46"/>
<stop offset="0.23" stop-color="#C16847"/>
<stop offset="0.37" stop-color="#C36B48"/>
<stop offset="0.56" stop-color="#C86E45"/>
<stop offset="1" stop-color="#CE7241"/>
</linearGradient>
<linearGradient id="paint2_linear_3448_4504" x1="72.1111" y1="67.0146" x2="69.0174" y2="59.6153" gradientUnits="userSpaceOnUse">
<stop stop-color="#4B8E42"/>
<stop offset="0.32" stop-color="#4D7F48"/>
<stop offset="0.55" stop-color="#4E724E"/>
<stop offset="1" stop-color="#476747"/>
</linearGradient>
<linearGradient id="paint3_linear_3448_4504" x1="86.56" y1="59.2333" x2="85.2059" y2="50.3475" gradientUnits="userSpaceOnUse">
<stop stop-color="#AE4C43"/>
<stop offset="0.01" stop-color="#AF4D43"/>
<stop offset="0.11" stop-color="#BA5E46"/>
<stop offset="0.23" stop-color="#C16847"/>
<stop offset="0.37" stop-color="#C36B48"/>
<stop offset="0.56" stop-color="#C86E45"/>
<stop offset="1" stop-color="#CE7241"/>
</linearGradient>
<linearGradient id="paint4_linear_3448_4504" x1="46.8101" y1="103.253" x2="50.5577" y2="72.3353" gradientUnits="userSpaceOnUse">
<stop stop-color="#AE4C43"/>
<stop offset="0.27" stop-color="#B75A45"/>
<stop offset="0.53" stop-color="#C36B48"/>
<stop offset="0.66" stop-color="#C86E45"/>
<stop offset="0.99" stop-color="#CE7241"/>
</linearGradient>
<linearGradient id="paint5_linear_3448_4504" x1="93.7267" y1="57.3945" x2="74.7798" y2="57.0156" gradientUnits="userSpaceOnUse">
<stop stop-color="#4A5D83"/>
<stop offset="1" stop-color="#364769"/>
</linearGradient>
<linearGradient id="paint6_linear_3448_4504" x1="93.697" y1="56.5699" x2="76.6371" y2="56.0581" gradientUnits="userSpaceOnUse">
<stop stop-color="#4A5D83"/>
<stop offset="1" stop-color="#364769"/>
</linearGradient>
<linearGradient id="paint7_linear_3448_4504" x1="50.7796" y1="56.1733" x2="66.6796" y2="56.6503" gradientUnits="userSpaceOnUse">
<stop stop-color="#4A5D83"/>
<stop offset="1" stop-color="#364769"/>
</linearGradient>
<linearGradient id="paint8_linear_3448_4504" x1="31.3281" y1="55.6197" x2="34.6081" y2="55.7181" gradientUnits="userSpaceOnUse">
<stop stop-color="#4A5D83"/>
<stop offset="1" stop-color="#364769"/>
</linearGradient>
<linearGradient id="paint9_linear_3448_4504" x1="68.997" y1="58.3134" x2="68.7473" y2="55.3338" gradientUnits="userSpaceOnUse">
<stop stop-color="#4A5D83"/>
<stop offset="1" stop-color="#364769"/>
</linearGradient>
<linearGradient id="paint10_linear_3448_4504" x1="134.56" y1="79.6321" x2="119.132" y2="91.2532" gradientUnits="userSpaceOnUse">
<stop stop-color="#009444"/>
<stop offset="1" stop-color="#64A644"/>
</linearGradient>
<linearGradient id="paint11_linear_3448_4504" x1="98.563" y1="97.2328" x2="86.2502" y2="74.939" gradientUnits="userSpaceOnUse">
<stop stop-color="#64A644"/>
<stop offset="1" stop-color="#009444"/>
</linearGradient>
<linearGradient id="paint12_linear_3448_4504" x1="108.708" y1="94.2856" x2="108.8" y2="99.0347" gradientUnits="userSpaceOnUse">
<stop stop-color="#4A5383"/>
<stop offset="1" stop-color="#363E69"/>
</linearGradient>
<linearGradient id="paint13_linear_3448_4504" x1="108.692" y1="93.3458" x2="108.712" y2="94.4156" gradientUnits="userSpaceOnUse">
<stop stop-color="#4A5383"/>
<stop offset="1" stop-color="#363E69"/>
</linearGradient>
<linearGradient id="paint14_linear_3448_4504" x1="88.8352" y1="74.1269" x2="88.6723" y2="65.7184" gradientUnits="userSpaceOnUse">
<stop stop-color="#EC2227"/>
<stop offset="1" stop-color="#F15B27"/>
</linearGradient>
<linearGradient id="paint15_linear_3448_4504" x1="85.7336" y1="71.5665" x2="91.8425" y2="71.4481" gradientUnits="userSpaceOnUse">
<stop stop-color="white"/>
<stop offset="1" stop-color="#EBE7F3"/>
</linearGradient>
<linearGradient id="paint16_linear_3448_4504" x1="23.7126" y1="88.0263" x2="31.7483" y2="57.8074" gradientUnits="userSpaceOnUse">
<stop stop-color="#F7BF15"/>
<stop offset="0.59" stop-color="#E37825"/>
<stop offset="1" stop-color="#944320"/>
</linearGradient>
<linearGradient id="paint17_linear_3448_4504" x1="22.3915" y1="82.6765" x2="47.5374" y2="63.7045" gradientUnits="userSpaceOnUse">
<stop stop-color="#F9CC36"/>
<stop offset="0.88" stop-color="#DD8826"/>
</linearGradient>
<linearGradient id="paint18_linear_3448_4504" x1="19.2596" y1="94.117" x2="27.3044" y2="63.894" gradientUnits="userSpaceOnUse">
<stop stop-color="#F7BF15"/>
<stop offset="0.59" stop-color="#E37825"/>
<stop offset="1" stop-color="#944320"/>
</linearGradient>
<linearGradient id="paint19_linear_3448_4504" x1="17.924" y1="88.7525" x2="43.076" y2="69.7885" gradientUnits="userSpaceOnUse">
<stop stop-color="#F9CC36"/>
<stop offset="0.88" stop-color="#DD8826"/>
</linearGradient>
<linearGradient id="paint20_linear_3448_4504" x1="32.9959" y1="93.7537" x2="33.02" y2="98.5136" gradientUnits="userSpaceOnUse">
<stop stop-color="#4A5383"/>
<stop offset="1" stop-color="#363E69"/>
</linearGradient>
<linearGradient id="paint21_linear_3448_4504" x1="33.0031" y1="95.0736" x2="33.0213" y2="98.6836" gradientUnits="userSpaceOnUse">
<stop stop-color="white"/>
<stop offset="1" stop-color="#BFCFEB"/>
</linearGradient>
<linearGradient id="paint22_linear_3448_4504" x1="32.9908" y1="92.8137" x2="32.9963" y2="93.8937" gradientUnits="userSpaceOnUse">
<stop stop-color="#4A5383"/>
<stop offset="1" stop-color="#363E69"/>
</linearGradient>
<linearGradient id="paint23_linear_3448_4504" x1="38.6196" y1="74.625" x2="38.6334" y2="77.3449" gradientUnits="userSpaceOnUse">
<stop stop-color="#412312"/>
<stop offset="1" stop-color="#27160D"/>
</linearGradient>
<linearGradient id="paint24_linear_3448_4504" x1="38.6316" y1="77.5632" x2="38.7073" y2="92.523" gradientUnits="userSpaceOnUse">
<stop stop-color="#8D633A"/>
<stop offset="1" stop-color="#603A17"/>
</linearGradient>
<linearGradient id="paint25_linear_3448_4504" x1="107.802" y1="94.4659" x2="107.719" y2="76.1861" gradientUnits="userSpaceOnUse">
<stop stop-color="#AFDCD2"/>
<stop offset="0.07" stop-color="#B6DFD6"/>
<stop offset="0.48" stop-color="#DEF0EC"/>
<stop offset="0.8" stop-color="#F6FBFA"/>
<stop offset="1" stop-color="white"/>
</linearGradient>
<linearGradient id="paint26_linear_3448_4504" x1="106.656" y1="87.8656" x2="108.857" y2="88.0639" gradientUnits="userSpaceOnUse">
<stop stop-color="#242F3D"/>
<stop offset="1" stop-color="#212E5D"/>
</linearGradient>
<linearGradient id="paint27_linear_3448_4504" x1="106.775" y1="88.4305" x2="108.755" y2="88.4216" gradientUnits="userSpaceOnUse">
<stop stop-color="#DE7C6B"/>
<stop offset="0.58" stop-color="#F39D98"/>
<stop offset="0.92" stop-color="#FAB397"/>
</linearGradient>
<linearGradient id="paint28_linear_3448_4504" x1="106.46" y1="113.101" x2="105.09" y2="113.101" gradientUnits="userSpaceOnUse">
<stop stop-color="#242F3D"/>
<stop offset="1" stop-color="#212E5D"/>
</linearGradient>
<linearGradient id="paint29_linear_3448_4504" x1="109.93" y1="113.101" x2="108.56" y2="113.101" gradientUnits="userSpaceOnUse">
<stop stop-color="#242F3D"/>
<stop offset="1" stop-color="#212E5D"/>
</linearGradient>
<linearGradient id="paint30_linear_3448_4504" x1="107.256" y1="83.386" x2="105.138" y2="83.6428" gradientUnits="userSpaceOnUse">
<stop stop-color="#242F3D"/>
<stop offset="1" stop-color="#212E5D"/>
</linearGradient>
<linearGradient id="paint31_linear_3448_4504" x1="108.736" y1="83.598" x2="110.826" y2="83.9545" gradientUnits="userSpaceOnUse">
<stop stop-color="#242F3D"/>
<stop offset="1" stop-color="#212E5D"/>
</linearGradient>
<linearGradient id="paint32_linear_3448_4504" x1="96.1355" y1="62.7448" x2="96.3676" y2="62.0275" gradientUnits="userSpaceOnUse">
<stop stop-color="#212E5D"/>
<stop offset="1" stop-color="#242F3D"/>
</linearGradient>
<linearGradient id="paint33_linear_3448_4504" x1="110.583" y1="92.5145" x2="111.74" y2="92.2854" gradientUnits="userSpaceOnUse">
<stop stop-color="#212E5D"/>
<stop offset="1" stop-color="#242F3D"/>
</linearGradient>
<linearGradient id="paint34_linear_3448_4504" x1="107.6" y1="78.5705" x2="111.057" y2="76.5203" gradientUnits="userSpaceOnUse">
<stop stop-color="#212E5D"/>
<stop offset="1" stop-color="#242F3D"/>
</linearGradient>
<linearGradient id="paint35_linear_3448_4504" x1="141.708" y1="100.225" x2="141.464" y2="99.4687" gradientUnits="userSpaceOnUse">
<stop stop-color="#212E5D"/>
<stop offset="1" stop-color="#242F3D"/>
</linearGradient>
<linearGradient id="paint36_linear_3448_4504" x1="105.447" y1="94.3577" x2="104.554" y2="94.1903" gradientUnits="userSpaceOnUse">
<stop stop-color="#212E5D"/>
<stop offset="1" stop-color="#242F3D"/>
</linearGradient>
<linearGradient id="paint37_linear_3448_4504" x1="94.7434" y1="91.5566" x2="91.0633" y2="89.4415" gradientUnits="userSpaceOnUse">
<stop stop-color="#212E5D"/>
<stop offset="1" stop-color="#242F3D"/>
</linearGradient>
<linearGradient id="paint38_linear_3448_4504" x1="99.8731" y1="68.4454" x2="97.7227" y2="72.951" gradientUnits="userSpaceOnUse">
<stop stop-color="#242F3D"/>
<stop offset="1" stop-color="#212E5D"/>
</linearGradient>
<linearGradient id="paint39_linear_3448_4504" x1="109.777" y1="91.5392" x2="111.105" y2="91.7171" gradientUnits="userSpaceOnUse">
<stop stop-color="#242F3D"/>
<stop offset="1" stop-color="#212E5D"/>
</linearGradient>
<linearGradient id="paint40_linear_3448_4504" x1="100.252" y1="90.7519" x2="102.57" y2="95.1366" gradientUnits="userSpaceOnUse">
<stop stop-color="#242F3D"/>
<stop offset="1" stop-color="#212E5D"/>
</linearGradient>
<linearGradient id="paint41_linear_3448_4504" x1="98.6107" y1="105.086" x2="97.284" y2="105.314" gradientUnits="userSpaceOnUse">
<stop stop-color="#242F3D"/>
<stop offset="1" stop-color="#212E5D"/>
</linearGradient>
<linearGradient id="paint42_linear_3448_4504" x1="76.4889" y1="94.3478" x2="65.7757" y2="115.795" gradientUnits="userSpaceOnUse">
<stop stop-color="#CE7241"/>
<stop offset="0.44" stop-color="#C86E45"/>
<stop offset="0.63" stop-color="#C36B48"/>
<stop offset="0.91" stop-color="#B45544"/>
<stop offset="1" stop-color="#AE4C43"/>
</linearGradient>
<linearGradient id="paint43_linear_3448_4504" x1="66.9385" y1="111.413" x2="64.9065" y2="50.7975" gradientUnits="userSpaceOnUse">
<stop stop-color="#AE4C43"/>
<stop offset="0.04" stop-color="#B85842"/>
<stop offset="0.1" stop-color="#C56742"/>
<stop offset="0.17" stop-color="#CC6F41"/>
<stop offset="0.29" stop-color="#CE7241"/>
<stop offset="0.53" stop-color="#C86E45"/>
<stop offset="0.63" stop-color="#C36B48"/>
<stop offset="0.77" stop-color="#C16847"/>
<stop offset="0.89" stop-color="#BA5E46"/>
<stop offset="0.99" stop-color="#AF4D43"/>
<stop offset="1" stop-color="#AE4C43"/>
</linearGradient>
<linearGradient id="paint44_linear_3448_4504" x1="69.5907" y1="96.9846" x2="59.0107" y2="118.175" gradientUnits="userSpaceOnUse">
<stop stop-color="#CE7241"/>
<stop offset="0.44" stop-color="#C86E45"/>
<stop offset="0.63" stop-color="#C36B48"/>
<stop offset="0.91" stop-color="#B45544"/>
<stop offset="1" stop-color="#AE4C43"/>
</linearGradient>
<linearGradient id="paint45_linear_3448_4504" x1="61.8571" y1="93.5638" x2="80.9764" y2="92.9229" gradientUnits="userSpaceOnUse">
<stop stop-color="#FAA74F"/>
<stop offset="0.27" stop-color="#FCB350"/>
<stop offset="0.45" stop-color="#FDBD51"/>
<stop offset="0.75" stop-color="#FECD50"/>
<stop offset="1" stop-color="#FFD34F"/>
</linearGradient>
<linearGradient id="paint46_linear_3448_4504" x1="81.5088" y1="92.3295" x2="93.2039" y2="92.4212" gradientUnits="userSpaceOnUse">
<stop stop-color="#FAA74F"/>
<stop offset="0.56" stop-color="#FCB64D"/>
<stop offset="0.99" stop-color="#FFD34F"/>
<stop offset="1" stop-color="#FFD34F"/>
</linearGradient>
<linearGradient id="paint47_linear_3448_4504" x1="68.4151" y1="79.0359" x2="71.0531" y2="57.1452" gradientUnits="userSpaceOnUse">
<stop stop-color="#4B8E42"/>
<stop offset="0.03" stop-color="#4C8645"/>
<stop offset="0.12" stop-color="#4D7B4A"/>
<stop offset="0.23" stop-color="#4E744D"/>
<stop offset="0.55" stop-color="#4E724E"/>
<stop offset="0.71" stop-color="#4F6A53"/>
<stop offset="0.96" stop-color="#525361"/>
<stop offset="1" stop-color="#534F64"/>
</linearGradient>
<linearGradient id="paint48_linear_3448_4504" x1="64.9719" y1="71.567" x2="76.3555" y2="71.1854" gradientUnits="userSpaceOnUse">
<stop stop-color="#FAA74F"/>
<stop offset="0.23" stop-color="#FCB750"/>
<stop offset="0.41" stop-color="#FDBD51"/>
<stop offset="1" stop-color="#FFD34F"/>
</linearGradient>
<linearGradient id="paint49_linear_3448_4504" x1="65.2853" y1="74.4519" x2="70.4847" y2="62.9527" gradientUnits="userSpaceOnUse">
<stop stop-color="#CE7241"/>
<stop offset="0.44" stop-color="#C86E45"/>
<stop offset="0.63" stop-color="#C36B48"/>
<stop offset="0.77" stop-color="#C16847"/>
<stop offset="0.89" stop-color="#BA5E46"/>
<stop offset="0.99" stop-color="#AF4D43"/>
<stop offset="1" stop-color="#AE4C43"/>
</linearGradient>
<linearGradient id="paint50_linear_3448_4504" x1="80.7452" y1="70.1474" x2="61.0634" y2="72.5675" gradientUnits="userSpaceOnUse">
<stop stop-color="#AE4C43"/>
<stop offset="0.01" stop-color="#AF4D43"/>
<stop offset="0.11" stop-color="#BA5E46"/>
<stop offset="0.23" stop-color="#C16847"/>
<stop offset="0.37" stop-color="#C36B48"/>
<stop offset="0.56" stop-color="#C86E45"/>
<stop offset="1" stop-color="#CE7241"/>
</linearGradient>
<linearGradient id="paint51_linear_3448_4504" x1="64.3253" y1="68.3361" x2="63.6035" y2="60.3161" gradientUnits="userSpaceOnUse">
<stop stop-color="#4B8E42"/>
<stop offset="0.32" stop-color="#4D7F48"/>
<stop offset="0.55" stop-color="#4E724E"/>
<stop offset="1" stop-color="#476747"/>
</linearGradient>
<linearGradient id="paint52_linear_3448_4504" x1="76.8905" y1="68.2905" x2="84.9005" y2="63.7905" gradientUnits="userSpaceOnUse">
<stop stop-color="#AE4C43"/>
<stop offset="0.01" stop-color="#AF4D43"/>
<stop offset="0.11" stop-color="#BA5E46"/>
<stop offset="0.23" stop-color="#C16847"/>
<stop offset="0.37" stop-color="#C36B48"/>
<stop offset="0.56" stop-color="#C86E45"/>
<stop offset="1" stop-color="#CE7241"/>
</linearGradient>
<linearGradient id="paint53_linear_3448_4504" x1="77.7968" y1="12.3431" x2="86.3108" y2="18.5031" gradientUnits="userSpaceOnUse">
<stop stop-color="#7C4347"/>
<stop offset="0.15" stop-color="#824649"/>
<stop offset="0.35" stop-color="#94504F"/>
<stop offset="0.59" stop-color="#B26059"/>
<stop offset="0.63" stop-color="#B7635B"/>
<stop offset="0.85" stop-color="#B8665E"/>
<stop offset="1" stop-color="#BC6E65"/>
</linearGradient>
<linearGradient id="paint54_linear_3448_4504" x1="99.9583" y1="-1.97326" x2="101.381" y2="-14.774" gradientUnits="userSpaceOnUse">
<stop stop-color="#FDD8CC"/>
<stop offset="0.28" stop-color="#FDDBD2"/>
<stop offset="0.63" stop-color="#FDE1E2"/>
<stop offset="0.82" stop-color="#FDE4E4"/>
<stop offset="0.97" stop-color="#FEEEEB"/>
<stop offset="1" stop-color="#FEF1ED"/>
</linearGradient>
<linearGradient id="paint55_linear_3448_4504" x1="48.158" y1="44.9438" x2="84.9394" y2="24.92" gradientUnits="userSpaceOnUse">
<stop stop-color="#AE4C43"/>
<stop offset="0.09" stop-color="#B45544"/>
<stop offset="0.37" stop-color="#C36B48"/>
<stop offset="0.56" stop-color="#C86E45"/>
<stop offset="1" stop-color="#CE7241"/>
</linearGradient>
<linearGradient id="paint56_linear_3448_4504" x1="54.0124" y1="10.8717" x2="62.4959" y2="5.63622" gradientUnits="userSpaceOnUse">
<stop stop-color="#7C4347"/>
<stop offset="0.15" stop-color="#824649"/>
<stop offset="0.35" stop-color="#94504F"/>
<stop offset="0.59" stop-color="#B26059"/>
<stop offset="0.63" stop-color="#B7635B"/>
<stop offset="0.85" stop-color="#B8665E"/>
<stop offset="1" stop-color="#BC6E65"/>
</linearGradient>
<linearGradient id="paint57_linear_3448_4504" x1="57.3315" y1="17.1159" x2="55.9003" y2="4.27543" gradientUnits="userSpaceOnUse">
<stop stop-color="#FDD8CC"/>
<stop offset="0.28" stop-color="#FDDBD2"/>
<stop offset="0.63" stop-color="#FDE1E2"/>
<stop offset="0.82" stop-color="#FDE4E4"/>
<stop offset="0.97" stop-color="#FEEEEB"/>
<stop offset="1" stop-color="#FEF1ED"/>
</linearGradient>
<radialGradient id="paint58_radial_3448_4504" cx="0" cy="0" r="1" gradientUnits="userSpaceOnUse" gradientTransform="translate(75.6301 44.0562) rotate(-150) scale(7.28)">
<stop offset="0.49" stop-color="#C36B48"/>
<stop offset="0.68" stop-color="#BE6447"/>
<stop offset="0.96" stop-color="#B15044"/>
<stop offset="1" stop-color="#AE4C43"/>
</radialGradient>
<linearGradient id="paint59_linear_3448_4504" x1="69.1211" y1="44.5426" x2="77.5311" y2="44.7949" gradientUnits="userSpaceOnUse">
<stop offset="0.02" stop-color="#6C3E36"/>
<stop offset="0.09" stop-color="#5D3632"/>
<stop offset="0.21" stop-color="#4D2E2D"/>
<stop offset="0.34" stop-color="#44292A"/>
<stop offset="0.52" stop-color="#412729"/>
<stop offset="0.66" stop-color="#45292A"/>
<stop offset="0.82" stop-color="#52302E"/>
<stop offset="0.97" stop-color="#673B35"/>
<stop offset="1" stop-color="#6C3E36"/>
</linearGradient>
<linearGradient id="paint60_linear_3448_4504" x1="74.9086" y1="47.1885" x2="73.3847" y2="44.2702" gradientUnits="userSpaceOnUse">
<stop stop-color="#D24F67"/>
<stop offset="0.98" stop-color="#BF2B47"/>
</linearGradient>
<radialGradient id="paint61_radial_3448_4504" cx="0" cy="0" r="1" gradientUnits="userSpaceOnUse" gradientTransform="translate(75.4177 35.9745) rotate(-3.29001) scale(3.43999 3.44)">
<stop stop-color="#6C3E36"/>
<stop offset="1" stop-color="#352424"/>
</radialGradient>
<linearGradient id="paint62_linear_3448_4504" x1="71.9124" y1="25.0108" x2="63.1809" y2="31.0208" gradientUnits="userSpaceOnUse">
<stop stop-color="#AE4C43"/>
<stop offset="0.09" stop-color="#B45544"/>
<stop offset="0.37" stop-color="#C36B48"/>
<stop offset="0.56" stop-color="#C86E45"/>
<stop offset="1" stop-color="#CE7241"/>
</linearGradient>
<linearGradient id="paint63_linear_3448_4504" x1="70.246" y1="29.9508" x2="65.5461" y2="30.2328" gradientUnits="userSpaceOnUse">
<stop stop-color="#6C3E36"/>
<stop offset="1" stop-color="#352424"/>
</linearGradient>
<linearGradient id="paint64_linear_3448_4504" x1="74.751" y1="23.3975" x2="82.3902" y2="30.7184" gradientUnits="userSpaceOnUse">
<stop stop-color="#AE4C43"/>
<stop offset="0.09" stop-color="#B45544"/>
<stop offset="0.37" stop-color="#C36B48"/>
<stop offset="0.56" stop-color="#C86E45"/>
<stop offset="1" stop-color="#CE7241"/>
</linearGradient>
<linearGradient id="paint65_linear_3448_4504" x1="80.7611" y1="30.5965" x2="76.0611" y2="30.8785" gradientUnits="userSpaceOnUse">
<stop stop-color="#6C3E36"/>
<stop offset="1" stop-color="#352424"/>
</linearGradient>
<linearGradient id="paint66_linear_3448_4504" x1="64.3951" y1="20.4718" x2="70.7767" y2="22.412" gradientUnits="userSpaceOnUse">
<stop stop-color="#6C3E36"/>
<stop offset="1" stop-color="#8B5032"/>
</linearGradient>
<linearGradient id="paint67_linear_3448_4504" x1="75.39" y1="20.4794" x2="81.6371" y2="22.8449" gradientUnits="userSpaceOnUse">
<stop stop-color="#8B5032"/>
<stop offset="1" stop-color="#6C3E36"/>
</linearGradient>
<linearGradient id="paint68_linear_3448_4504" x1="91.2612" y1="54.7163" x2="85.9165" y2="60.3088" gradientUnits="userSpaceOnUse">
<stop stop-color="#AE4C43"/>
<stop offset="0.01" stop-color="#AF4D43"/>
<stop offset="0.11" stop-color="#BA5E46"/>
<stop offset="0.23" stop-color="#C16847"/>
<stop offset="0.37" stop-color="#C36B48"/>
<stop offset="0.56" stop-color="#C86E45"/>
<stop offset="1" stop-color="#CE7241"/>
</linearGradient>
</defs>
</svg>
