<svg  viewBox="0 0 331 281" fill="none" xmlns="http://www.w3.org/2000/svg">
<path d="M50.5157 8.68435C40.9765 8.68221 31.6509 11.5128 23.7182 16.818C15.7856 22.1233 9.60236 29.6649 5.95038 38.4891C2.2984 47.3134 1.34177 57.0239 3.20147 66.3926C5.06117 75.7613 9.65367 84.3674 16.3982 91.1224C23.1426 97.8774 31.7362 102.478 41.0919 104.342C50.4477 106.207 60.1455 105.251 68.9588 101.596C77.772 97.941 85.305 91.7512 90.6049 83.8092C95.9048 75.8671 98.7337 66.5297 98.7337 56.9777C98.7337 44.1714 93.6539 31.8894 84.6116 22.833C75.5693 13.7765 63.3049 8.68721 50.5157 8.68435ZM121.796 0.0431821C111.027 0.0431821 100.499 3.24106 91.5439 9.23243C82.5892 15.2238 75.6098 23.7396 71.4884 33.7028C67.367 43.6661 66.2887 54.6294 68.3897 65.2064C70.4908 75.7834 75.6769 85.4989 83.2923 93.1245C90.9077 100.75 100.61 105.943 111.173 108.047C121.736 110.151 132.685 109.071 142.635 104.944C152.585 100.817 161.089 93.8286 167.072 84.8619C173.056 75.8951 176.249 65.3531 176.249 54.569C176.254 47.4053 174.848 40.311 172.114 33.6913C169.379 27.0716 165.369 21.0561 160.312 15.9887C155.256 10.9212 149.252 6.90093 142.643 4.15755C136.034 1.41417 128.95 0.00141756 121.796 0V0.0431821ZM41.4114 93.3462C33.2227 93.3441 25.2173 95.7736 18.4075 100.328C11.5978 104.882 6.28972 111.355 3.15455 118.93C0.0193818 126.505 -0.802029 134.841 0.794205 142.883C2.39044 150.926 6.33261 158.313 12.1222 164.112C17.9117 169.911 25.2886 173.86 33.3198 175.461C41.351 177.061 49.6759 176.241 57.2415 173.104C64.8071 169.966 71.2736 164.653 75.8232 157.835C80.3729 151.017 82.8012 143.002 82.8012 134.802C82.8012 123.809 78.4409 113.266 70.6791 105.492C62.9173 97.718 52.3897 93.3491 41.4114 93.3462ZM99.3917 87.9455C91.203 87.9455 83.1982 90.3771 76.3896 94.9328C69.5811 99.4885 64.2747 105.964 61.1415 113.539C58.0083 121.115 57.189 129.451 58.7874 137.493C60.3857 145.535 64.3298 152.922 70.1208 158.719C75.9119 164.516 83.2898 168.464 91.3214 170.062C99.3531 171.661 107.678 170.838 115.243 167.699C122.807 164.559 129.272 159.244 133.82 152.425C138.368 145.607 140.794 137.59 140.792 129.391C140.798 123.943 139.731 118.549 137.653 113.515C135.575 108.48 132.526 103.906 128.681 100.053C124.836 96.1995 120.27 93.143 115.244 91.0581C110.218 88.9732 104.832 87.9008 99.3917 87.9023V87.9455ZM150.662 87.9455C140.947 87.954 131.451 90.8473 123.378 96.2595C115.304 101.672 109.015 109.36 105.304 118.351C101.594 127.343 100.63 137.234 102.534 146.774C104.438 156.314 109.124 165.075 116 171.948C122.876 178.822 131.633 183.499 141.164 185.388C150.695 187.278 160.571 186.295 169.544 182.564C178.517 178.833 186.184 172.522 191.575 164.428C196.966 156.334 199.838 146.821 199.83 137.092C199.83 130.629 198.558 124.229 196.086 118.258C193.615 112.287 189.993 106.863 185.426 102.294C180.86 97.7261 175.44 94.1037 169.475 91.6342C163.51 89.1647 157.117 87.8966 150.662 87.9023V87.9455ZM274.088 4.89306C264.372 4.89306 254.874 7.77799 246.796 13.183C238.717 18.5881 232.421 26.2705 228.703 35.2587C224.985 44.247 224.012 54.1375 225.907 63.6794C227.803 73.2213 232.481 81.9861 239.352 88.8654C246.222 95.7447 254.975 100.43 264.504 102.328C274.033 104.226 283.91 103.251 292.887 99.5284C301.863 95.8053 309.535 89.5005 314.933 81.4113C320.331 73.3221 323.212 63.8117 323.212 54.0829C323.217 47.6195 321.951 41.2185 319.485 35.2455C317.019 29.2725 313.401 23.8448 308.839 19.2725C304.277 14.7002 298.859 11.073 292.897 8.59832C286.934 6.12359 280.542 4.84984 274.088 4.84984V4.89306ZM277.982 137.665C267.493 137.665 257.241 140.78 248.521 146.616C239.801 152.451 233.005 160.746 228.994 170.45C224.983 180.154 223.936 190.831 225.986 201.131C228.036 211.431 233.091 220.89 240.511 228.313C247.931 235.735 257.383 240.787 267.671 242.829C277.96 244.872 288.621 243.813 298.308 239.786C307.995 235.76 316.272 228.947 322.091 220.209C327.91 211.472 331.011 201.202 331 190.7C330.997 176.622 325.41 163.121 315.467 153.167C305.525 143.213 292.041 137.621 277.982 137.621V137.665ZM277.982 68.5352C267.493 68.5352 257.241 71.6503 248.521 77.4862C239.801 83.3221 233.005 91.6167 228.994 101.321C224.983 111.025 223.936 121.702 225.986 132.001C228.036 142.301 233.091 151.761 240.511 159.183C247.931 166.606 257.383 171.658 267.671 173.7C277.96 175.742 288.621 174.683 298.308 170.657C307.995 166.63 316.272 159.817 322.091 151.08C327.91 142.342 331.011 132.073 331 121.57C330.997 107.491 325.41 93.9894 315.468 84.0339C305.526 74.0783 292.042 68.4841 277.982 68.4812V68.5352ZM195.407 3.97493C185.691 3.97493 176.194 6.85985 168.115 12.2649C160.037 17.67 153.74 25.3523 150.022 34.3406C146.304 43.3289 145.331 53.2193 147.227 62.7612C149.122 72.3031 153.801 81.0679 160.671 87.9472C167.541 94.8266 176.294 99.5114 185.823 101.409C195.353 103.307 205.23 102.333 214.206 98.6103C223.182 94.8872 230.854 88.5824 236.252 80.4932C241.65 72.404 244.531 62.8936 244.531 53.1648C244.531 40.1188 239.356 27.6072 230.143 18.3823C220.93 9.15741 208.436 3.97493 195.407 3.97493ZM212.278 75.7506C202.562 75.7506 193.064 78.6356 184.986 84.0406C176.908 89.4457 170.611 97.1281 166.893 106.116C163.175 115.105 162.202 124.995 164.098 134.537C165.993 144.079 170.672 152.844 177.542 159.723C184.412 166.602 193.165 171.287 202.694 173.185C212.223 175.083 222.101 174.109 231.077 170.386C240.053 166.663 247.725 160.358 253.123 152.269C258.521 144.18 261.402 134.669 261.402 124.94C261.402 118.481 260.131 112.084 257.663 106.116C255.194 100.148 251.576 94.7257 247.014 90.158C242.452 85.5903 237.037 81.967 231.077 79.495C225.117 77.023 218.729 75.7506 212.278 75.7506ZM48.5956 146.241C39.8161 146.249 31.2361 148.864 23.9404 153.755C16.6446 158.645 10.9605 165.592 7.60666 173.716C4.25279 181.841 3.37968 190.778 5.09771 199.4C6.81574 208.021 11.0478 215.939 17.2589 222.152C23.4699 228.365 31.3812 232.595 39.9927 234.307C48.6042 236.019 57.5292 235.136 65.6396 231.77C73.75 228.404 80.6817 222.706 85.5585 215.395C90.4352 208.085 93.0381 199.491 93.0381 190.7C93.0381 184.858 91.8883 179.073 89.6543 173.676C87.4203 168.279 84.146 163.376 80.0186 159.247C75.8912 155.118 70.9915 151.844 65.5998 149.613C60.208 147.381 54.4298 146.235 48.5956 146.241ZM121.796 149.557C113.617 149.557 105.621 151.986 98.8194 156.536C92.0182 161.087 86.7173 167.555 83.587 175.122C80.4568 182.689 79.6378 191.016 81.2336 199.049C82.8293 207.082 86.7683 214.461 92.5522 220.253C98.3362 226.045 105.705 229.989 113.728 231.587C121.75 233.185 130.066 232.365 137.623 229.23C145.18 226.096 151.639 220.788 156.184 213.978C160.728 207.167 163.154 199.16 163.154 190.97C163.154 179.986 158.797 169.453 151.04 161.687C143.284 153.92 132.765 149.557 121.796 149.557ZM199.042 141.445C188.605 141.445 178.403 144.544 169.725 150.35C161.047 156.157 154.283 164.409 150.289 174.065C146.295 183.72 145.25 194.344 147.286 204.595C149.322 214.845 154.348 224.26 161.728 231.65C169.108 239.04 178.511 244.072 188.747 246.111C198.984 248.15 209.594 247.104 219.237 243.104C228.879 239.105 237.121 232.332 242.919 223.643C248.717 214.953 251.812 204.737 251.812 194.286C251.812 180.272 246.253 166.831 236.356 156.922C226.46 147.012 213.038 141.445 199.042 141.445ZM276.709 181.961C267.385 181.959 258.27 184.726 250.517 189.911C242.763 195.097 236.72 202.468 233.15 211.093C229.581 219.718 228.646 229.209 230.463 238.366C232.281 247.523 236.77 255.935 243.362 262.537C249.954 269.139 258.353 273.636 267.498 275.458C276.642 277.281 286.121 276.346 294.735 272.774C303.349 269.202 310.712 263.152 315.892 255.389C321.072 247.626 323.837 238.5 323.837 229.164C323.839 222.963 322.62 216.822 320.25 211.094C317.88 205.365 314.406 200.16 310.026 195.776C305.646 191.392 300.447 187.916 294.724 185.545C289.002 183.175 282.869 181.957 276.677 181.961H276.709ZM199.83 171.257C189.392 171.257 179.189 174.356 170.511 180.163C161.833 185.97 155.069 194.223 151.075 203.879C147.082 213.535 146.037 224.16 148.074 234.411C150.111 244.661 155.138 254.076 162.519 261.466C169.901 268.855 179.304 273.887 189.541 275.925C199.778 277.962 210.389 276.914 220.031 272.913C229.674 268.912 237.915 262.138 243.712 253.447C249.509 244.756 252.602 234.538 252.6 224.087C252.6 217.148 251.235 210.278 248.583 203.867C245.931 197.457 242.043 191.633 237.143 186.727C232.243 181.821 226.425 177.93 220.023 175.275C213.621 172.621 206.759 171.256 199.83 171.257ZM124.86 170.285C114.42 170.274 104.211 173.365 95.5254 179.165C86.8399 184.966 80.0678 193.216 76.0661 202.872C72.0644 212.528 71.013 223.155 73.0448 233.409C75.0766 243.664 80.1003 253.084 87.4804 260.478C94.8604 267.873 104.265 272.909 114.504 274.95C124.744 276.991 135.357 275.944 145.003 271.943C154.648 267.942 162.891 261.166 168.689 252.472C174.488 243.779 177.58 233.558 177.576 223.104C177.57 209.094 172.008 195.659 162.112 185.754C152.217 175.849 138.798 170.285 124.806 170.285H124.86ZM58.7354 175.318C48.2975 175.316 38.0935 178.414 29.4138 184.219C20.7342 190.025 13.9688 198.277 9.97341 207.933C5.97803 217.589 4.9321 228.214 6.9679 238.465C9.0037 248.716 14.0298 258.133 21.4105 265.523C28.7912 272.914 38.1949 277.947 48.4323 279.985C58.6697 282.024 69.2809 280.976 78.9238 276.976C88.5668 272.975 96.8082 266.201 102.606 257.509C108.403 248.818 111.497 238.6 111.495 228.148C111.493 221.207 110.126 214.333 107.471 207.92C104.815 201.508 100.924 195.682 96.0197 190.776C91.1151 185.87 85.2931 181.98 78.8865 179.327C72.4798 176.675 65.6141 175.313 58.6815 175.318H58.7354Z" fill="rgba(255,255,255,0.630)"/>
</svg>
