<svg width="331" height="423" viewBox="0 0 331 423" fill="none" xmlns="http://www.w3.org/2000/svg">
<path d="M74.6092 118.402C68.3775 123.36 65.5854 128.453 66.9815 130.497C68.3775 132.541 73.1574 130.095 79.6906 124.689C85.632 119.764 89.0383 115.007 87.6423 112.985C86.2463 110.964 80.6399 113.6 74.6092 118.402Z" fill="#8C5BA1"/>
<path d="M90.332 145.607C83.9216 135.031 81.2413 127.682 74.2501 123.93C72.6084 123.059 75.5344 118.759 75.5344 118.759C77.1649 116.671 80.2473 114.917 81.822 117.062C86.5014 123.427 86.3785 125.136 99.3334 137.477C99.6238 138.393 90.5107 145.897 90.332 145.607Z" fill="url(#paint0_linear_2923_534)"/>
<path d="M120.864 136.472L100.137 132.273L87.8518 113.153L87.7736 113.298C83.3018 121.466 75.8794 127.618 67.0234 130.497L89.4488 146.936L117.682 152.52C118.88 152.759 120.117 152.727 121.3 152.424C122.484 152.122 123.585 151.558 124.522 150.773C125.459 149.989 126.208 149.004 126.713 147.891C127.218 146.779 127.468 145.567 127.442 144.345C127.409 142.479 126.739 140.68 125.542 139.248C124.346 137.816 122.695 136.836 120.864 136.472Z" fill="url(#paint1_linear_2923_534)"/>
<path d="M87.7306 113.298L87.8088 113.153L92.276 120.088C92.276 120.088 88.5347 131.401 73.8711 135.556L66.9805 130.497C75.8365 127.618 83.2588 121.466 87.7306 113.298Z" fill="url(#paint2_linear_2923_534)"/>
<g opacity="0.5">
<path d="M91.5594 118.994C88.209 126.811 80.9274 133.077 72.4062 134.484C76.5929 133.592 80.5098 131.725 83.8381 129.033C87.1664 126.341 89.812 122.901 91.5594 118.994Z" fill="white"/>
</g>
<g opacity="0.5">
<path d="M91.0242 118.324C87.6738 126.141 80.3811 132.407 71.8711 133.814C76.0578 132.922 79.9747 131.055 83.303 128.363C86.6313 125.671 89.2768 122.231 91.0242 118.324Z" fill="white"/>
</g>
<g opacity="0.5">
<path d="M87.8528 113.153C88.1431 114.694 88.8467 118.536 89.1148 120.021C89.4051 120.937 88.9807 121.674 87.998 121.562L83.3409 121.618C82.6261 121.618 81.621 121.54 81.6657 122.523C81.6657 123.64 81.6657 126.018 81.6657 127.18C81.5987 127.817 81.8891 129.056 81.1966 129.414C81.0211 129.492 80.8307 129.533 80.6382 129.533C80.4457 129.533 80.2554 129.492 80.0798 129.414L78.963 129.101L76.7294 128.487L74.4958 127.872C74.3142 127.825 74.1219 127.84 73.9497 127.915C73.7776 127.99 73.6356 128.12 73.5466 128.286C73.2339 129.045 71.8043 132.876 71.4805 133.713C71.8043 132.831 73.1668 129.023 73.4795 128.241C73.5772 128.063 73.7311 127.923 73.917 127.842C74.1029 127.761 74.3105 127.744 74.507 127.794L76.7406 128.397L78.9742 128.989L80.091 129.291C80.4707 129.402 80.8504 129.548 81.2078 129.291C81.3613 129.188 81.4805 129.041 81.5501 128.87C81.6198 128.699 81.6367 128.511 81.5987 128.33C81.5987 127.593 81.5987 125.605 81.5987 124.846V122.512C81.5987 121.395 82.6373 121.462 83.4079 121.484H88.065C88.2475 121.521 88.4367 121.508 88.612 121.445C88.7873 121.382 88.9419 121.272 89.0589 121.127C89.3158 120.825 89.1929 120.423 89.1259 120.01C88.8691 118.536 88.2101 114.649 87.9533 113.131L87.8528 113.153Z" fill="white"/>
</g>
<path d="M81.7684 110.718C81.7684 110.718 79.6688 107.312 79.6688 104.799C79.6688 102.286 77.3347 102.778 76.8209 104.274C76.4351 105.235 76.2632 106.268 76.3172 107.302C76.3712 108.336 76.6498 109.345 77.1336 110.26L76.6311 110.517C74.9977 108.906 73.6663 107.014 72.6999 104.933C71.3821 101.773 70.4663 101.985 70.4663 101.985C70.4663 101.985 69.0033 101.896 68.7129 103.828C68.4226 105.76 71.4603 110.115 71.4603 110.115C69.5724 108.388 67.866 106.472 66.3677 104.397C64.7595 101.884 62.068 104.52 63.1736 106.53C64.2792 108.541 68.7576 112.918 68.7576 112.918C66.8773 111.386 65.1083 109.721 63.464 107.937C63.2564 107.684 62.9618 107.517 62.6375 107.468C62.1238 107.379 61.4314 107.558 61.0405 108.876C60.3704 111.109 66.9596 115.867 66.9596 115.867C66.9596 115.867 66.591 116.012 62.6375 113.834C62.6375 113.834 60.5156 112.851 60.5156 115.677C60.5156 115.677 61.4202 118.29 65.8986 119.641C65.8986 119.641 73.4482 128.353 79.6576 121.451C85.867 114.549 81.7684 110.718 81.7684 110.718Z" fill="url(#paint3_linear_2923_534)"/>
<path d="M77.1353 110.26C76.5022 111.181 76.0671 112.223 75.8575 113.321C75.648 114.419 75.6686 115.548 75.918 116.637C74.8012 114.605 75.0916 111.601 77.1353 110.26Z" fill="#EB967E"/>
<path d="M72.7766 109.568C70.3308 111.545 67.9967 113.834 67.0586 116.905C67.2708 113.622 69.9288 110.908 72.7766 109.568Z" fill="#EB967E"/>
<path d="M259.652 124.12C265.627 129.38 268.151 134.64 266.654 136.583C265.158 138.527 260.512 135.869 254.258 130.139C248.573 124.924 245.413 120.01 246.909 118.056C248.406 116.101 253.867 119.016 259.652 124.12Z" fill="#8C5BA1"/>
<path d="M242.579 150.499C249.514 140.258 252.563 133.054 259.733 129.659C261.419 128.866 258.705 124.421 258.705 124.421C257.186 122.255 254.238 120.356 252.518 122.411C247.526 128.542 247.56 130.229 234.002 141.922C233.667 142.826 242.389 150.778 242.579 150.499Z" fill="url(#paint4_linear_2923_534)"/>
<path d="M212.536 139.878L233.487 136.695L246.732 118.212L246.799 118.368C250.861 126.744 257.961 133.258 266.656 136.583L243.438 151.872L214.948 156.038C213.739 156.215 212.506 156.119 211.34 155.755C210.173 155.392 209.103 154.772 208.208 153.94C207.313 153.109 206.616 152.087 206.169 150.95C205.721 149.813 205.535 148.59 205.623 147.372C205.754 145.524 206.509 143.775 207.766 142.413C209.022 141.051 210.704 140.157 212.536 139.878Z" fill="url(#paint5_linear_2923_534)"/>
<path d="M246.799 118.368L246.732 118.212L241.93 124.913C241.93 124.913 245.09 136.405 259.519 141.285L266.656 136.583C257.961 133.258 250.86 126.744 246.799 118.368Z" fill="url(#paint6_linear_2923_534)"/>
<g opacity="0.5">
<path d="M242.688 123.852C244.233 127.845 246.701 131.416 249.89 134.273C253.079 137.13 256.898 139.192 261.037 140.291C252.605 138.46 245.681 131.859 242.688 123.852Z" fill="white"/>
</g>
<g opacity="0.5">
<path d="M243.258 123.215C246.43 131.133 253.242 137.633 261.607 139.655C253.175 137.823 246.251 131.223 243.258 123.215Z" fill="white"/>
</g>
<g opacity="0.5">
<path d="M246.733 118.212C246.398 119.742 245.56 123.55 245.214 125.025C244.901 125.884 245.214 126.566 246.208 126.51L250.854 126.778C251.625 126.778 252.697 126.778 252.607 127.895L252.507 130.218C252.507 130.977 252.373 132.954 252.339 133.702C252.172 134.64 252.931 135.02 253.747 134.707L254.863 134.461L257.097 133.97L259.331 133.49C259.532 133.447 259.741 133.474 259.926 133.565C260.11 133.656 260.258 133.807 260.347 133.992C260.626 134.785 261.787 138.694 262.056 139.576L260.626 135.109C260.414 134.461 260.28 133.378 259.353 133.557L254.807 134.562L253.691 134.808C253.515 134.887 253.325 134.927 253.132 134.927C252.94 134.927 252.749 134.887 252.574 134.808C251.893 134.428 252.25 133.2 252.217 132.574C252.272 131.457 252.373 129.09 252.44 127.928C252.54 126.957 251.524 126.968 250.809 126.945L246.163 126.655C245.158 126.722 244.756 125.94 245.102 125.047C245.426 123.595 246.342 119.753 246.7 118.257L246.733 118.212Z" fill="white"/>
</g>
<path d="M253.966 119.161C253.966 119.161 251.029 121.685 254.759 126.487C254.759 126.487 254.949 137.51 270.338 128.956C270.338 128.956 272.181 110.115 253.966 119.161Z" fill="url(#paint7_linear_2923_534)"/>
<path d="M265.313 113.499C265.715 112.706 266.184 111.265 264.364 110.908L257.16 113.734C257.16 113.734 255.44 114.37 253.52 119.742C253.52 119.742 256.166 124.064 258.724 119.887C261.281 115.71 258.981 117.352 264.587 114.303C264.908 114.119 265.163 113.837 265.313 113.499Z" fill="url(#paint8_linear_2923_534)"/>
<path d="M264.03 111.042C264.03 111.042 264.722 112.46 261.696 112.796C261.696 112.796 261.026 112.796 260.836 112.293L264.03 111.042Z" fill="#FEE3CC"/>
<path d="M272.82 34.5524C272.992 34.3658 273.217 34.2373 273.464 34.1846C273.712 34.132 273.97 34.1578 274.202 34.2586C274.434 34.3594 274.629 34.53 274.76 34.7468C274.891 34.9636 274.95 35.2157 274.931 35.4681C274.596 39.3099 273.356 44.9275 269.046 47.1164C262.222 50.5896 267.46 39.1424 267.46 39.1424C269.397 37.7978 271.193 36.2599 272.82 34.5524Z" fill="url(#paint9_linear_2923_534)"/>
<path d="M271.357 28.544C271.357 28.544 264.097 35.6468 271.77 47.3733C279.442 59.0997 275.377 68.0564 270.441 75.7958C270.441 75.7958 268.687 82.4966 270.899 88.0806C273.11 93.6646 271.412 102.342 267.928 112.371C264.444 122.4 264.008 118.067 260.981 140.66C257.955 163.253 255.822 201.246 255.822 201.246C255.822 201.246 254.973 210.873 251.812 205.892L254.672 152.587C254.672 152.587 255.989 132.92 259.139 117.776C261.987 104.319 266.621 103.135 264.578 93.4413C264.144 91.445 263.457 89.5122 262.534 87.6898C260.093 82.8327 259.475 77.2615 260.792 71.9875C260.876 71.6736 260.893 71.3455 260.843 71.0244C260.793 70.7032 260.677 70.396 260.501 70.1225C258.268 66.7721 250.986 53.9624 260.579 43.5091L265.795 52.7674C265.795 52.7674 263.863 59.0773 265.382 61.5008C265.382 61.5008 267.727 60.3058 265.795 52.7674C263.555 50.9801 261.821 48.6381 260.765 45.9739C259.709 43.3096 259.368 40.4156 259.775 37.5789C260.959 27.2708 271.357 25.7967 271.357 28.544Z" fill="url(#paint10_linear_2923_534)"/>
<path d="M267.078 49.3612C271.132 55.9168 272.662 64.8289 268.898 71.8424C269.227 70.9281 269.502 69.996 269.725 69.0504C271.344 62.439 269.725 55.5036 267.078 49.3612Z" fill="#573A41"/>
<path d="M259.372 53.6497C258.87 57.0001 258.256 60.25 258.903 63.6339C257.183 60.5962 257.853 56.6427 259.372 53.6497Z" fill="#573A41"/>
<path d="M263.563 62.9749C264.299 65.8659 263.933 68.9275 262.535 71.5631C262.948 68.6483 263.228 65.901 263.563 62.9749Z" fill="#573A41"/>
<path d="M266.757 75.0476C267.177 76.8987 267.084 78.8293 266.489 80.6316C266.058 78.7815 266.151 76.848 266.757 75.0476Z" fill="#573A41"/>
<path d="M263.684 76.4994C262.735 82.4184 266.576 87.5222 267.849 93.0951C268.589 95.9639 268.554 98.9774 267.749 101.828C267.045 104.654 265.258 107.1 264.711 109.948C264.853 108.504 265.23 107.093 265.828 105.771C266.346 104.43 266.79 103.062 267.157 101.672C268.274 97.5064 267.291 93.1397 265.85 89.1639C264.41 85.1881 262.5 80.7991 263.617 76.4994H263.684Z" fill="#573A41"/>
<path d="M259.954 115.721C261.708 121.607 262.333 128.218 259.899 134.026C259.304 135.417 258.87 136.87 258.603 138.359C257.926 142.92 257.967 147.559 258.726 152.107C257.285 146.132 256.839 139.599 259.184 133.758C261.618 128.096 261.06 121.685 259.932 115.755L259.954 115.721Z" fill="#573A41"/>
<path d="M254.651 154.128C257.443 159.277 256.884 165.698 254.796 170.992C254.461 171.751 254.115 172.5 253.746 173.226C255.745 167.094 256.795 160.371 254.651 154.128Z" fill="#573A41"/>
<path d="M265.171 28.6221C264.657 32.3076 265.964 35.8255 267.46 39.1424C265.025 36.3839 263.574 32.1177 265.171 28.6221Z" fill="#573A41"/>
<path d="M272.352 37.9474C271.647 40.1225 270.486 42.1217 268.945 43.811C267.404 45.5002 265.519 46.8405 263.418 47.7418C267.019 45.1046 270.056 41.7747 272.352 37.9474Z" fill="#573A41"/>
<path d="M263.382 120.077C263.382 120.077 261.684 119.675 262.511 117.721C263.337 115.766 268.899 115.197 268.899 115.197C268.899 115.197 271.858 114.728 271.736 117.14C271.675 117.713 271.428 118.251 271.032 118.67C271.341 118.921 271.595 119.234 271.775 119.589C271.956 119.944 272.061 120.333 272.082 120.731C272.103 121.129 272.04 121.527 271.898 121.899C271.755 122.271 271.537 122.609 271.255 122.891C271.501 123.438 271.587 124.043 271.501 124.636C271.416 125.23 271.165 125.786 270.775 126.242C270.775 126.242 272.83 129.592 267.682 130.631C262.533 131.67 262.343 129.514 262.991 128.029C262.57 127.856 262.204 127.571 261.935 127.205C261.665 126.838 261.501 126.405 261.461 125.951C261.458 125.534 261.6 125.129 261.863 124.805C262.126 124.481 262.493 124.259 262.902 124.176C262.473 124.008 262.107 123.712 261.853 123.328C261.599 122.944 261.47 122.492 261.483 122.032C261.628 120.468 263.382 120.077 263.382 120.077Z" fill="url(#paint11_linear_2923_534)"/>
<path d="M263.383 120.077C265.069 119.463 266.862 119.197 268.654 119.295C266.967 119.906 265.175 120.172 263.383 120.077Z" fill="#EB967E"/>
<path d="M262.902 124.187C264.667 123.56 266.537 123.283 268.408 123.372C266.642 123.993 264.773 124.27 262.902 124.187Z" fill="#EB967E"/>
<path d="M262.992 128.006C264.612 127.407 266.339 127.153 268.062 127.258C266.445 127.868 264.716 128.123 262.992 128.006Z" fill="#EB967E"/>
<path d="M174.964 120.401C174.964 120.401 179.644 120.3 180.314 121.931C180.314 121.931 180.403 146.891 185.697 166.938C185.697 166.938 201.567 232.438 210.903 254.372C211.159 254.98 211.2 255.656 211.019 256.289C210.838 256.923 210.447 257.476 209.909 257.857C202.091 263.441 170.665 282.337 128.059 263.296C127.471 263.031 126.99 262.577 126.692 262.005C126.394 261.434 126.298 260.779 126.417 260.146C128.461 249.045 137.641 198.823 137.674 172.131C137.674 172.131 141.572 140.671 137.585 125.002C138.22 124.235 139.082 123.689 140.048 123.442C141.013 123.195 142.031 123.26 142.957 123.628L174.964 120.401Z" fill="url(#paint12_linear_2923_534)"/>
<mask id="mask0_2923_534" style="mask-type:luminance" maskUnits="userSpaceOnUse" x="126" y="120" width="86" height="152">
<path d="M174.964 120.401C174.964 120.401 179.644 120.3 180.314 121.931C180.314 121.931 180.403 146.891 185.697 166.938C185.697 166.938 201.567 232.438 210.903 254.372C211.159 254.98 211.2 255.656 211.019 256.289C210.838 256.923 210.447 257.476 209.909 257.857C202.091 263.441 170.665 282.337 128.059 263.296C127.471 263.031 126.99 262.577 126.692 262.005C126.394 261.434 126.298 260.779 126.417 260.146C128.461 249.045 137.641 198.722 137.674 172.075C137.674 172.075 141.572 140.671 137.585 125.002C138.22 124.235 139.082 123.689 140.048 123.442C141.013 123.195 142.031 123.26 142.957 123.628L174.964 120.401Z" fill="white"/>
</mask>
<g mask="url(#mask0_2923_534)">
<g opacity="0.7">
<path d="M164.98 187.588C165.874 201.503 167.091 215.407 168.711 229.256C170.33 243.104 172.061 257.03 176.215 270.354C174.131 263.694 172.559 256.884 171.514 249.983C168.085 229.345 166.321 208.45 164.98 187.588Z" fill="#57549A"/>
<path d="M161.562 187.845C163.104 208.695 164.243 229.624 163.673 250.542C163.591 257.521 162.975 264.484 161.831 271.37C164.142 257.6 163.796 243.539 163.606 229.624C163.416 215.709 162.59 201.704 161.562 187.845Z" fill="#57549A"/>
</g>
</g>
<g opacity="0.5">
<path d="M173.758 178.977C170.527 180.629 166.996 181.61 163.376 181.861C159.757 182.113 156.123 181.629 152.695 180.44C159.652 182.605 167.168 182.083 173.758 178.977Z" fill="#57549A"/>
</g>
<g opacity="0.5">
<path d="M173.59 176.677C170.358 178.324 166.826 179.302 163.207 179.551C159.588 179.801 155.955 179.317 152.527 178.128C159.483 180.297 166.998 179.779 173.59 176.677Z" fill="#57549A"/>
</g>
<g opacity="0.5">
<path d="M173.926 181.389C170.694 183.036 167.162 184.013 163.543 184.263C159.924 184.512 156.291 184.029 152.863 182.841C159.819 185.009 167.334 184.491 173.926 181.389Z" fill="#57549A"/>
</g>
<path d="M190.958 252.116C197.537 249.786 203.741 246.509 209.374 242.389C209.577 242.238 209.713 242.013 209.753 241.762C209.792 241.512 209.732 241.256 209.586 241.049C197.994 224.788 186.133 166.815 186.133 166.815C180.84 146.769 180.348 121.931 180.348 121.931C179.678 120.3 174.999 120.401 174.999 120.401C174.999 120.401 180.147 143.139 165.863 157.624C165.863 157.624 170.867 202.452 177.735 225.961C179.985 234.118 182.734 242.129 185.966 249.95C186.373 250.873 187.113 251.608 188.038 252.01C188.963 252.411 190.006 252.449 190.958 252.116Z" fill="url(#paint13_linear_2923_534)"/>
<path d="M144.744 255.31C137.904 253.909 131.305 251.516 125.156 248.208C124.935 248.085 124.771 247.881 124.698 247.639C124.625 247.397 124.649 247.137 124.765 246.912C134.001 229.222 137.809 170.154 137.809 170.154C140.288 149.572 137.362 124.902 137.362 124.902C137.798 123.204 142.444 122.668 142.444 122.668C142.444 122.668 140.478 145.886 156.616 158.272C156.616 158.272 157.844 203.357 154.271 227.591C153.165 235.981 151.543 244.295 149.413 252.485C149.139 253.461 148.505 254.297 147.638 254.821C146.77 255.346 145.736 255.521 144.744 255.31Z" fill="url(#paint14_linear_2923_534)"/>
<path d="M176.964 146.724L171.95 177.771L171.682 198.476L164.992 154.944L176.964 146.724Z" fill="url(#paint15_linear_2923_534)"/>
<g opacity="0.5">
<path d="M166.145 153.95C167.608 163.878 170.411 183.869 171.729 193.819C170.277 183.891 167.462 163.889 166.145 153.95Z" fill="white"/>
</g>
<g opacity="0.5">
<path d="M167.148 153.503C168.388 162.292 170.756 179.993 171.873 188.794C170.633 180.005 168.265 162.303 167.148 153.503Z" fill="white"/>
</g>
<g opacity="0.5">
<path d="M167.316 153.347L173.291 157.088C173.827 157.479 175.067 157.881 174.609 158.763C173.068 160.449 171.259 162.214 169.718 163.856C168.913 164.548 168.947 165.051 169.852 165.598L172.733 167.742C172.907 167.864 173.026 168.049 173.066 168.257C173.105 168.466 173.062 168.682 172.945 168.859L170.086 172.6C169.966 172.749 169.901 172.934 169.901 173.125C169.901 173.316 169.966 173.501 170.086 173.65L170.589 174.767L171.571 176.9L171.817 177.436C172.163 177.972 171.739 178.553 171.605 179.122L170.857 181.356L171.583 179.122C171.717 178.575 172.141 178.006 171.795 177.447L171.549 176.911L170.544 174.789L170.041 173.672C169.916 173.513 169.848 173.316 169.848 173.114C169.848 172.911 169.916 172.715 170.041 172.556L172.878 168.803C172.98 168.647 173.016 168.458 172.978 168.276C172.94 168.094 172.832 167.934 172.677 167.831L169.84 165.743L169.36 165.386C169.207 165.245 169.114 165.05 169.099 164.843C169.085 164.635 169.15 164.43 169.282 164.269C170.991 162.493 172.945 160.595 174.609 158.808C175.056 157.97 173.827 157.579 173.325 157.2L167.372 153.414L167.316 153.347Z" fill="white"/>
</g>
<path d="M144.242 148.98L153.489 179.055L156.605 199.526L157.242 155.48L144.242 148.98Z" fill="url(#paint16_linear_2923_534)"/>
<g opacity="0.5">
<path d="M154.962 154.341C155.062 163.219 155.163 181.077 155.141 189.955C155.04 181.077 154.951 163.219 154.962 154.341Z" fill="white"/>
</g>
<g opacity="0.5">
<path d="M154.729 154.218L149.346 158.808C148.91 159.243 147.738 159.813 148.296 160.572C150.195 162.125 152.384 163.733 154.327 165.263C154.478 165.405 154.57 165.6 154.582 165.808C154.595 166.016 154.527 166.22 154.394 166.38L153.981 166.793L151.445 169.25C151.309 169.376 151.226 169.55 151.216 169.735C151.206 169.921 151.268 170.103 151.39 170.244L154.74 173.594C154.885 173.737 154.979 173.924 155.008 174.126C155.036 174.328 154.997 174.534 154.896 174.711L154.539 175.828L153.835 178.061L153.668 178.62C153.4 179.2 153.902 179.737 154.103 180.25L155.131 182.361L154.092 180.25C153.88 179.737 153.366 179.189 153.634 178.609L153.813 178.05L154.494 175.817L154.841 174.7C154.935 174.533 154.972 174.34 154.946 174.15C154.92 173.96 154.832 173.785 154.695 173.65L151.345 170.3C151.2 170.15 151.119 169.95 151.119 169.741C151.119 169.533 151.2 169.333 151.345 169.183L153.858 166.704C154.673 166.033 154.651 165.531 153.757 164.961C151.97 163.543 149.96 162.046 148.173 160.595C147.592 159.779 148.765 159.21 149.29 158.752L154.707 154.218H154.729Z" fill="white"/>
</g>
<path d="M208.739 248.286C185.208 264.937 153.535 265.551 127.715 253.87C153.401 265.406 185.308 264.77 208.739 248.286Z" fill="#564DA0"/>
<path d="M208.84 249.983C185.298 266.635 153.625 267.249 127.805 255.567C153.491 267.104 185.398 266.467 208.84 249.983Z" fill="#564DA0"/>
<path d="M211.017 256.316L207.521 254.261L205.779 253.245C205.641 253.146 205.474 253.098 205.306 253.108C205.137 253.118 204.977 253.186 204.852 253.3C204.573 253.524 204.595 253.903 204.517 254.227C204.16 256.092 203.523 259.353 203.188 261.174C202.942 262.112 202.149 261.833 201.524 261.52L200.586 261.129C198.911 260.448 195.761 259.063 194.052 258.438C193.889 258.422 193.725 258.461 193.587 258.551C193.449 258.64 193.345 258.773 193.293 258.929L192.712 260.861C192.288 262.257 191.406 265.328 190.959 266.68C190.49 267.439 189.686 266.869 189.15 266.534L185.665 264.491L182.17 262.447C181.891 262.268 181.589 262.067 181.265 262.201C180.941 262.335 180.818 262.626 180.684 262.927L179.824 264.77L178.105 268.433L177.68 269.349C177.524 269.628 177.446 270.008 177.099 270.198C176.441 270.6 175.815 269.706 175.368 269.349L169.382 263.955C168.69 263.519 168.266 264.413 167.897 264.826L166.646 266.412L163.497 270.365C163.273 270.611 163.128 270.957 162.782 271.102C162.614 271.169 162.428 271.178 162.254 271.127C162.08 271.077 161.928 270.97 161.822 270.823L161.174 270.03L158.628 266.892L156.037 263.787C155.534 263.117 154.842 263.787 154.406 264.167C153.01 265.351 150.43 267.584 149.034 268.779C148.554 269.248 147.839 269.818 147.314 269.003L146.834 268.12L143.484 261.9C143.327 261.609 143.171 261.274 142.825 261.207C142.479 261.14 142.199 261.33 141.931 261.52L141.083 262.078C139.966 262.816 137.174 264.669 136.012 265.429C135.892 265.55 135.741 265.635 135.575 265.674C135.409 265.713 135.236 265.706 135.074 265.652C134.717 265.529 134.605 265.15 134.516 264.848L133.868 262.927L132.528 259.052C132.003 256.74 130.83 258.248 129.68 259.108C130.797 258.214 132.003 256.729 132.55 259.052L133.835 262.883L134.482 264.803C134.583 265.116 134.683 265.473 135.03 265.596C135.189 265.647 135.359 265.652 135.521 265.61C135.683 265.569 135.83 265.483 135.945 265.362C137.062 264.58 139.888 262.76 141.004 262.011C141.898 261.475 142.825 260.37 143.473 261.844C144.333 263.43 145.985 266.434 146.879 268.053L147.359 268.936C147.85 269.695 148.476 269.148 148.978 268.69L154.339 264.066C154.819 263.62 155.512 262.95 156.092 263.709L158.65 266.836L161.219 269.974C162.011 270.979 162.458 271.649 163.363 270.298C164.815 268.489 166.948 265.753 168.4 263.955C168.53 263.826 168.7 263.744 168.883 263.724C169.065 263.704 169.249 263.746 169.405 263.843L175.424 269.271L176.173 269.952C176.831 270.533 177.289 269.952 177.569 269.304L179.724 264.725L180.584 262.894C180.718 262.603 180.852 262.212 181.232 262.112C181.611 262.011 181.935 262.201 182.203 262.369C184.347 263.62 187.888 265.719 190.021 266.97C191.138 267.193 191.082 265.474 191.45 264.736L192.567 260.861L193.148 258.918C193.449 258.069 194.354 258.493 194.912 258.762L200.496 261.107L201.423 261.498C202.004 261.799 202.831 262.101 203.043 261.185L203.233 260.191C203.501 258.896 204.126 255.556 204.349 254.227C204.428 253.915 204.416 253.524 204.696 253.3C204.823 253.187 204.985 253.12 205.155 253.11C205.325 253.1 205.494 253.147 205.634 253.245L207.387 254.272L210.872 256.327L211.017 256.316Z" fill="#564DA0"/>
<path style="mix-blend-mode:multiply" opacity="0.1" d="M182.19 87.8351C178.941 87.6974 175.741 86.9984 172.731 85.769C172.15 85.5345 171.525 85.2776 170.877 84.9873C160.893 80.6987 156.247 87.7346 154.829 90.5713C154.675 90.8873 154.427 91.1475 154.119 91.3157C153.81 91.4839 153.457 91.5516 153.109 91.5094C150.149 91.152 142.7 91.0292 141.371 98.5676C140.634 102.756 142.198 107.011 145.459 108.898C147.748 110.227 150.875 110.461 154.393 106.441C154.629 106.169 154.947 105.98 155.299 105.902C155.65 105.823 156.018 105.86 156.347 106.005C158.123 106.798 161.809 107.692 165.55 103.928C165.779 103.692 166.074 103.529 166.396 103.462C166.719 103.394 167.054 103.424 167.359 103.549C169.558 104.515 171.858 105.235 174.216 105.693C176.278 106.087 178.371 106.296 180.47 106.318C180.806 106.332 181.13 106.446 181.4 106.644C181.671 106.843 181.876 107.119 181.989 107.435C183.921 112.394 187.662 113.019 189.617 113.019C189.977 113.02 190.328 113.137 190.618 113.352C190.907 113.567 191.12 113.869 191.225 114.214C192.889 119.351 195.871 120.412 198.507 120.122C202.293 119.709 205.442 116.436 206.447 112.304C208.267 104.833 201.343 101.94 198.462 101.069C198.123 100.967 197.824 100.761 197.608 100.481C197.392 100.2 197.269 99.8595 197.256 99.5057C197.111 96.2893 195.67 87.958 184.759 87.8798C183.899 87.9021 183.05 87.8798 182.19 87.8351Z" fill="url(#paint17_linear_2923_534)"/>
<path d="M50.5157 150.684C40.9765 150.682 31.6509 153.513 23.7182 158.818C15.7856 164.123 9.60236 171.665 5.95038 180.489C2.2984 189.313 1.34177 199.024 3.20147 208.393C5.06117 217.761 9.65367 226.367 16.3982 233.122C23.1426 239.877 31.7362 244.478 41.0919 246.342C50.4477 248.207 60.1455 247.251 68.9588 243.596C77.772 239.941 85.305 233.751 90.6049 225.809C95.9048 217.867 98.7337 208.53 98.7337 198.978C98.7337 186.171 93.6539 173.889 84.6116 164.833C75.5693 155.777 63.3049 150.687 50.5157 150.684ZM121.796 142.043C111.027 142.043 100.499 145.241 91.5439 151.232C82.5892 157.224 75.6098 165.74 71.4884 175.703C67.367 185.666 66.2887 196.629 68.3897 207.206C70.4908 217.783 75.6769 227.499 83.2923 235.125C90.9077 242.75 100.61 247.943 111.173 250.047C121.736 252.151 132.685 251.071 142.635 246.944C152.585 242.817 161.089 235.829 167.072 226.862C173.056 217.895 176.249 207.353 176.249 196.569C176.254 189.405 174.848 182.311 172.114 175.691C169.379 169.072 165.369 163.056 160.312 157.989C155.256 152.921 149.252 148.901 142.643 146.158C136.034 143.414 128.95 142.001 121.796 142V142.043ZM41.4114 235.346C33.2227 235.344 25.2173 237.774 18.4075 242.328C11.5978 246.882 6.28972 253.355 3.15455 260.93C0.0193818 268.505 -0.802029 276.841 0.794205 284.883C2.39044 292.926 6.33261 300.313 12.1222 306.112C17.9117 311.911 25.2886 315.86 33.3198 317.461C41.351 319.061 49.6759 318.241 57.2415 315.104C64.8071 311.966 71.2736 306.653 75.8232 299.835C80.3729 293.017 82.8012 285.002 82.8012 276.802C82.8012 265.809 78.4409 255.266 70.6791 247.492C62.9173 239.718 52.3897 235.349 41.4114 235.346ZM99.3917 229.945C91.203 229.945 83.1982 232.377 76.3896 236.933C69.5811 241.489 64.2747 247.964 61.1415 255.539C58.0083 263.115 57.189 271.451 58.7874 279.493C60.3857 287.535 64.3298 294.922 70.1208 300.719C75.9119 306.516 83.2898 310.464 91.3214 312.062C99.3531 313.661 107.678 312.838 115.243 309.699C122.807 306.559 129.272 301.244 133.82 294.425C138.368 287.607 140.794 279.59 140.792 271.391C140.798 265.943 139.731 260.549 137.653 255.515C135.575 250.48 132.526 245.906 128.681 242.053C124.836 238.199 120.27 235.143 115.244 233.058C110.218 230.973 104.832 229.901 99.3917 229.902V229.945ZM150.662 229.945C140.947 229.954 131.451 232.847 123.378 238.259C115.304 243.672 109.015 251.36 105.304 260.351C101.594 269.343 100.63 279.234 102.534 288.774C104.438 298.314 109.124 307.075 116 313.948C122.876 320.822 131.633 325.499 141.164 327.388C150.695 329.278 160.571 328.295 169.544 324.564C178.517 320.833 186.184 314.522 191.575 306.428C196.966 298.334 199.838 288.821 199.83 279.092C199.83 272.629 198.558 266.229 196.086 260.258C193.615 254.287 189.993 248.863 185.426 244.294C180.86 239.726 175.44 236.104 169.475 233.634C163.51 231.165 157.117 229.897 150.662 229.902V229.945ZM274.088 146.893C264.372 146.893 254.874 149.778 246.796 155.183C238.717 160.588 232.421 168.27 228.703 177.259C224.985 186.247 224.012 196.137 225.907 205.679C227.803 215.221 232.481 223.986 239.352 230.865C246.222 237.745 254.975 242.43 264.504 244.328C274.033 246.226 283.91 245.251 292.887 241.528C301.863 237.805 309.535 231.501 314.933 223.411C320.331 215.322 323.212 205.812 323.212 196.083C323.217 189.62 321.951 183.218 319.485 177.245C317.019 171.273 313.401 165.845 308.839 161.273C304.277 156.7 298.859 153.073 292.897 150.598C286.934 148.124 280.542 146.85 274.088 146.85V146.893ZM277.982 279.665C267.493 279.665 257.241 282.78 248.521 288.616C239.801 294.451 233.005 302.746 228.994 312.45C224.983 322.154 223.936 332.831 225.986 343.131C228.036 353.431 233.091 362.89 240.511 370.313C247.931 377.735 257.383 382.787 267.671 384.829C277.96 386.872 288.621 385.813 298.308 381.786C307.995 377.76 316.272 370.947 322.091 362.209C327.91 353.472 331.011 343.202 331 332.7C330.997 318.622 325.41 305.121 315.467 295.167C305.525 285.213 292.041 279.621 277.982 279.621V279.665ZM277.982 210.535C267.493 210.535 257.241 213.65 248.521 219.486C239.801 225.322 233.005 233.617 228.994 243.321C224.983 253.025 223.936 263.702 225.986 274.001C228.036 284.301 233.091 293.761 240.511 301.183C247.931 308.606 257.383 313.658 267.671 315.7C277.96 317.742 288.621 316.683 298.308 312.657C307.995 308.63 316.272 301.817 322.091 293.08C327.91 284.342 331.011 274.073 331 263.57C330.997 249.491 325.41 235.989 315.468 226.034C305.526 216.078 292.042 210.484 277.982 210.481V210.535ZM195.407 145.975C185.691 145.975 176.194 148.86 168.115 154.265C160.037 159.67 153.74 167.352 150.022 176.341C146.304 185.329 145.331 195.219 147.227 204.761C149.122 214.303 153.801 223.068 160.671 229.947C167.541 236.827 176.294 241.511 185.823 243.409C195.353 245.307 205.23 244.333 214.206 240.61C223.182 236.887 230.854 230.582 236.252 222.493C241.65 214.404 244.531 204.894 244.531 195.165C244.531 182.119 239.356 169.607 230.143 160.382C220.93 151.157 208.436 145.975 195.407 145.975ZM212.278 217.751C202.562 217.751 193.064 220.636 184.986 226.041C176.908 231.446 170.611 239.128 166.893 248.116C163.175 257.105 162.202 266.995 164.098 276.537C165.993 286.079 170.672 294.844 177.542 301.723C184.412 308.602 193.165 313.287 202.694 315.185C212.223 317.083 222.101 316.109 231.077 312.386C240.053 308.663 247.725 302.358 253.123 294.269C258.521 286.18 261.402 276.669 261.402 266.94C261.402 260.481 260.131 254.084 257.663 248.116C255.194 242.148 251.576 236.726 247.014 232.158C242.452 227.59 237.037 223.967 231.077 221.495C225.117 219.023 218.729 217.751 212.278 217.751ZM48.5956 288.241C39.8161 288.249 31.2361 290.864 23.9404 295.755C16.6446 300.645 10.9605 307.592 7.60666 315.716C4.25279 323.841 3.37968 332.778 5.09771 341.4C6.81574 350.021 11.0478 357.939 17.2589 364.152C23.4699 370.365 31.3812 374.595 39.9927 376.307C48.6042 378.019 57.5292 377.136 65.6396 373.77C73.75 370.404 80.6817 364.706 85.5585 357.395C90.4352 350.085 93.0381 341.491 93.0381 332.7C93.0381 326.858 91.8883 321.073 89.6543 315.676C87.4203 310.279 84.146 305.376 80.0186 301.247C75.8912 297.118 70.9915 293.844 65.5998 291.613C60.208 289.381 54.4298 288.235 48.5956 288.241ZM121.796 291.557C113.617 291.557 105.621 293.986 98.8194 298.536C92.0182 303.087 86.7173 309.555 83.587 317.122C80.4568 324.689 79.6378 333.016 81.2336 341.049C82.8293 349.082 86.7683 356.461 92.5522 362.253C98.3362 368.045 105.705 371.989 113.728 373.587C121.75 375.185 130.066 374.365 137.623 371.23C145.18 368.096 151.639 362.788 156.184 355.978C160.728 349.167 163.154 341.16 163.154 332.97C163.154 321.986 158.797 311.453 151.04 303.687C143.284 295.92 132.765 291.557 121.796 291.557ZM199.042 283.445C188.605 283.445 178.403 286.544 169.725 292.35C161.047 298.157 154.283 306.409 150.289 316.065C146.295 325.72 145.25 336.344 147.286 346.595C149.322 356.845 154.348 366.26 161.728 373.65C169.108 381.04 178.511 386.072 188.747 388.111C198.984 390.15 209.594 389.104 219.237 385.104C228.879 381.105 237.121 374.332 242.919 365.643C248.717 356.953 251.812 346.737 251.812 336.286C251.812 322.272 246.253 308.831 236.356 298.922C226.46 289.012 213.038 283.445 199.042 283.445ZM276.709 323.961C267.385 323.959 258.27 326.726 250.517 331.911C242.763 337.097 236.72 344.468 233.15 353.093C229.581 361.718 228.646 371.209 230.463 380.366C232.281 389.523 236.77 397.935 243.362 404.537C249.954 411.139 258.353 415.636 267.498 417.458C276.642 419.281 286.121 418.346 294.735 414.774C303.349 411.202 310.712 405.152 315.892 397.389C321.072 389.626 323.837 380.5 323.837 371.164C323.839 364.963 322.62 358.822 320.25 353.094C317.88 347.365 314.406 342.16 310.026 337.776C305.646 333.392 300.447 329.916 294.724 327.545C289.002 325.175 282.869 323.957 276.677 323.961H276.709ZM199.83 313.257C189.392 313.257 179.189 316.356 170.511 322.163C161.833 327.97 155.069 336.223 151.075 345.879C147.082 355.535 146.037 366.16 148.074 376.411C150.111 386.661 155.138 396.076 162.519 403.466C169.901 410.855 179.304 415.887 189.541 417.925C199.778 419.962 210.389 418.914 220.031 414.913C229.674 410.912 237.915 404.138 243.712 395.447C249.509 386.756 252.602 376.538 252.6 366.087C252.6 359.148 251.235 352.278 248.583 345.867C245.931 339.457 242.043 333.633 237.143 328.727C232.243 323.821 226.425 319.93 220.023 317.275C213.621 314.621 206.759 313.256 199.83 313.257ZM124.86 312.285C114.42 312.274 104.211 315.365 95.5254 321.165C86.8399 326.966 80.0678 335.216 76.0661 344.872C72.0644 354.528 71.013 365.155 73.0448 375.409C75.0766 385.664 80.1003 395.084 87.4804 402.478C94.8604 409.873 104.265 414.909 114.504 416.95C124.744 418.991 135.357 417.944 145.003 413.943C154.648 409.942 162.891 403.166 168.689 394.472C174.488 385.779 177.58 375.558 177.576 365.104C177.57 351.094 172.008 337.659 162.112 327.754C152.217 317.849 138.798 312.285 124.806 312.285H124.86ZM58.7354 317.318C48.2975 317.316 38.0935 320.414 29.4138 326.219C20.7342 332.025 13.9688 340.277 9.97341 349.933C5.97803 359.589 4.9321 370.214 6.9679 380.465C9.0037 390.716 14.0298 400.133 21.4105 407.523C28.7912 414.914 38.1949 419.947 48.4323 421.985C58.6697 424.024 69.2809 422.976 78.9238 418.976C88.5668 414.975 96.8082 408.201 102.606 399.509C108.403 390.818 111.497 380.6 111.495 370.148C111.493 363.207 110.126 356.333 107.471 349.92C104.815 343.508 100.924 337.682 96.0197 332.776C91.1151 327.87 85.2931 323.98 78.8865 321.327C72.4798 318.675 65.6141 317.313 58.6815 317.318H58.7354Z" fill="white"/>
<path d="M220.733 73.8414L223.469 61.646C225.39 53.0354 223.078 44.1569 217.394 38.316L216.846 37.7353L210.637 73.4729C210.637 73.4729 207.644 93.3296 198.352 90.8726C189.06 88.4157 151.882 82.8652 151.882 82.8652C151.882 82.8652 143.685 83.1555 149.984 61.5901L159.543 26.0982L158.639 25.5621C151.011 28.9125 145.427 36.4398 144.042 45.3072L140.938 65.0969L141.306 87.6004L184.292 109.635L204.863 100.645L220.733 73.8414Z" fill="url(#paint18_linear_2923_534)"/>
<path d="M215.786 74.2658C216.769 70.1448 221.37 68.425 224.128 71.1835C226.105 73.1379 227.792 76.1867 225 81.4469C218.544 93.553 213.664 83.1332 213.664 83.1332L215.786 74.2658Z" fill="#FED9BB"/>
<path d="M220.798 77.1806C220.178 76.9383 219.491 76.9369 218.87 77.1768C218.25 77.4166 217.742 77.8802 217.447 78.4761C216.857 79.696 216.415 80.982 216.129 82.3068C216.088 81.6049 216.126 80.9007 216.241 80.2072C216.476 77.9736 218.475 75.6171 220.708 77.1806H220.798Z" fill="#FCCAB7"/>
<path d="M148.386 60.1607C149.134 55.9839 145.627 52.5888 141.975 53.996C139.385 54.9899 136.604 57.1118 137.062 63.0532C138.178 76.7229 146.767 69.1398 146.767 69.1398L148.386 60.1607Z" fill="#FCCAB7"/>
<path d="M142.621 60.8307C146.418 60.2723 146.139 65.108 144.788 67.3639C145.058 66.0381 145.167 64.6843 145.112 63.3323C145.079 62.6811 144.807 62.065 144.347 61.603C143.887 61.1409 143.272 60.8658 142.621 60.8307Z" fill="#E8B8AB"/>
<path d="M124.24 113.801C124.565 111.575 125.39 109.453 126.653 107.592C127.916 105.731 129.584 104.181 131.533 103.057C131.682 102.976 131.8 102.847 131.869 102.692C131.937 102.536 131.953 102.362 131.912 102.197C131.312 99.7976 131.209 97.3004 131.611 94.8597C132.3 90.2607 134.786 86.1233 138.524 83.3567C138.649 83.2653 138.745 83.1398 138.8 82.9952C138.856 82.8505 138.868 82.693 138.836 82.5414C138.368 80.337 138.315 78.0645 138.68 75.8406C140.132 66.7387 147.927 60.4287 156.069 61.7354C164.21 63.042 169.638 71.4739 168.175 80.5758C167.36 85.6684 199.769 86.6959 200.361 83.0104C201.254 77.4264 206.034 73.54 211.038 74.3441C216.041 75.1482 219.369 80.3301 218.475 85.9141C218.256 87.392 217.729 88.8074 216.928 90.0692C216.128 91.331 215.073 92.4113 213.83 93.2403C213.728 93.3138 213.645 93.4104 213.588 93.522C213.532 93.6336 213.502 93.7572 213.502 93.8825C213.502 94.0078 213.532 94.1314 213.588 94.243C213.645 94.3546 213.728 94.4511 213.83 94.5247C215.905 96.2241 217.487 98.4482 218.412 100.966C219.337 103.484 219.571 106.203 219.09 108.842C218.755 111.168 217.889 113.386 216.558 115.322C215.228 117.259 213.468 118.863 211.417 120.01C211.296 120.078 211.196 120.177 211.126 120.297C211.056 120.416 211.019 120.553 211.019 120.691C211.019 120.83 211.056 120.966 211.126 121.086C211.196 121.206 211.296 121.305 211.417 121.373C213.098 122.496 214.421 124.077 215.231 125.929C216.042 127.781 216.305 129.826 215.99 131.822C215.676 133.819 214.796 135.684 213.455 137.196C212.114 138.709 210.369 139.806 208.424 140.358C208.248 140.396 208.09 140.493 207.976 140.634C207.862 140.774 207.8 140.948 207.799 141.129C207.815 141.951 207.759 142.773 207.631 143.586C206.515 150.655 200.45 155.558 194.129 154.542L193.772 154.486C193.64 154.456 193.502 154.46 193.373 154.499C193.243 154.538 193.126 154.61 193.032 154.708C192.939 154.806 192.873 154.927 192.84 155.058C192.807 155.189 192.809 155.327 192.845 155.457C193.307 157.24 193.395 159.1 193.102 160.918C192.041 167.541 186.401 172.086 180.448 171.182C179.716 171.064 179.001 170.862 178.315 170.579C178.149 170.507 177.964 170.495 177.79 170.546C177.616 170.597 177.466 170.707 177.366 170.858C176.274 172.647 174.685 174.079 172.794 174.981C170.902 175.883 168.789 176.216 166.712 175.939C165.738 175.783 164.793 175.482 163.909 175.046C163.796 174.988 163.672 174.958 163.546 174.958C163.419 174.958 163.295 174.988 163.183 175.046C160.885 176.319 158.229 176.79 155.633 176.386C150.239 175.526 146.252 171.026 145.269 165.442C145.235 165.258 145.136 165.093 144.99 164.977C144.845 164.86 144.663 164.799 144.476 164.805C143.904 164.819 143.332 164.778 142.768 164.682C136.703 163.71 132.661 157.434 133.755 150.655C133.963 149.346 134.362 148.074 134.939 146.88C135.02 146.705 135.034 146.506 134.978 146.321C134.923 146.136 134.801 145.977 134.637 145.875C132.297 144.308 130.47 142.088 129.382 139.491C128.293 136.894 127.993 134.034 128.517 131.267C128.675 130.273 128.929 129.297 129.277 128.353C129.333 128.204 129.341 128.041 129.301 127.887C129.261 127.733 129.175 127.595 129.053 127.493C127.128 125.827 125.672 123.688 124.827 121.286C123.983 118.885 123.781 116.304 124.24 113.801Z" fill="url(#paint19_linear_2923_534)"/>
<path d="M171.23 102.934L177.777 104.304C194.216 107.744 210.332 97.2065 213.772 80.7674L219.15 55.0682C222.591 38.629 212.053 22.5136 195.614 19.0733L189.066 17.703C172.627 14.2627 156.512 24.8003 153.071 41.2394L147.693 66.9387C144.253 83.3778 154.79 99.4933 171.23 102.934Z" fill="url(#paint20_linear_2923_534)"/>
<path d="M197.649 39.042C194.466 38.2826 190.78 38.5059 188.368 40.8959C188.31 40.9525 188.232 40.9842 188.15 40.9842C188.069 40.9842 187.991 40.9525 187.933 40.8959C187.467 39.733 186.75 38.6875 185.833 37.8341C184.916 36.9807 183.821 36.3406 182.628 35.9596C181.822 35.6895 180.992 35.5024 180.148 35.4012C181.907 35.3063 183.651 35.7563 185.144 36.6897C186.638 37.6231 187.806 38.9945 188.491 40.6167L188 40.4938C190.546 38.0257 194.544 37.7912 197.705 39.0643L197.649 39.042Z" fill="#FCCAB7"/>
<path d="M197.892 44.4025C194.24 43.4868 189.974 43.7436 187.193 46.4909C187.135 46.5476 187.057 46.5792 186.975 46.5792C186.894 46.5792 186.816 46.5476 186.758 46.4909C186.213 45.1446 185.375 43.9367 184.305 42.9552C183.235 41.9737 181.959 41.2434 180.571 40.8176C179.643 40.5233 178.689 40.3177 177.723 40.2034C179.737 40.1127 181.731 40.6396 183.437 41.7134C185.144 42.7872 186.481 44.3567 187.271 46.2117L186.78 46.0889C189.695 43.2634 194.24 42.9954 197.892 44.4249V44.4025Z" fill="#FCCAB7"/>
<path d="M186.089 99.0476C186.089 99.0476 183.911 116.369 171.57 115.297C159.229 114.225 163.63 94.3458 163.63 94.3458C163.63 94.3458 176.372 91.3528 186.089 99.0476Z" fill="url(#paint21_linear_2923_534)"/>
<mask id="mask1_2923_534" style="mask-type:luminance" maskUnits="userSpaceOnUse" x="162" y="93" width="25" height="23">
<path d="M186.089 99.0476C186.089 99.0476 183.911 116.369 171.57 115.297C159.229 114.225 163.63 94.3458 163.63 94.3458C163.63 94.3458 176.372 91.3528 186.089 99.0476Z" fill="white"/>
</mask>
<g mask="url(#mask1_2923_534)">
<path d="M179.333 114.56C179.333 114.56 172.722 104.509 162.793 112.561C152.865 120.613 179.355 131.614 179.333 114.56Z" fill="url(#paint22_linear_2923_534)"/>
</g>
<path d="M182.146 87.3324C178.879 87.1891 175.662 86.4904 172.63 85.2663L170.776 84.4957C160.725 80.2296 156.146 87.1314 154.728 89.9569C154.573 90.2708 154.324 90.5287 154.016 90.6948C153.708 90.8609 153.356 90.927 153.008 90.8838C150.037 90.5153 142.566 90.3701 141.259 97.7857C140.545 101.907 142.119 106.095 145.414 107.971C147.715 109.278 150.853 109.512 154.348 105.57C154.585 105.298 154.903 105.11 155.255 105.034C155.607 104.957 155.975 104.997 156.303 105.145C158.078 105.927 161.775 106.821 165.505 103.124C165.739 102.895 166.034 102.738 166.355 102.672C166.676 102.607 167.009 102.636 167.314 102.755C169.52 103.71 171.823 104.422 174.183 104.877C176.245 105.27 178.338 105.483 180.437 105.514C180.764 105.524 181.082 105.63 181.35 105.818C181.618 106.007 181.824 106.27 181.944 106.575C183.888 111.444 187.629 112.159 189.572 112.159C189.924 112.156 190.269 112.261 190.559 112.461C190.849 112.661 191.07 112.945 191.192 113.276C192.867 118.312 195.837 119.362 198.473 119.083C202.226 118.681 205.364 115.476 206.291 111.411C208.078 104.096 201.176 101.248 198.294 100.388C197.961 100.285 197.667 100.082 197.454 99.8059C197.24 99.5302 197.116 99.1952 197.099 98.8466C196.932 95.6861 195.469 87.5223 184.591 87.4106C183.888 87.3994 183.005 87.3324 182.146 87.3324Z" fill="url(#paint23_linear_2923_534)"/>
<path d="M178.73 90.8057C182.801 90.8057 186.101 87.5057 186.101 83.4348C186.101 79.364 182.801 76.064 178.73 76.064C174.659 76.064 171.359 79.364 171.359 83.4348C171.359 87.5057 174.659 90.8057 178.73 90.8057Z" fill="url(#paint24_linear_2923_534)"/>
<path d="M206.196 76.2708C207.362 70.6985 203.874 65.2533 198.404 64.1087C192.934 62.964 187.555 66.5533 186.389 72.1256C185.223 77.6979 188.711 83.143 194.181 84.2877C199.651 85.4323 205.03 81.8431 206.196 76.2708Z" fill="url(#paint25_linear_2923_534)"/>
<path d="M199.093 78.3899C199.731 75.3412 197.821 72.3617 194.826 71.735C191.832 71.1084 188.887 73.0719 188.249 76.1206C187.611 79.1694 189.521 82.1489 192.516 82.7755C195.51 83.4022 198.455 81.4387 199.093 78.3899Z" fill="url(#paint26_linear_2923_534)"/>
<path d="M177.161 70.2002C178.327 64.6279 174.838 59.1828 169.369 58.0381C163.899 56.8935 158.52 60.4828 157.354 66.055C156.188 71.6273 159.676 77.0725 165.146 78.2171C170.615 79.3618 175.995 75.7725 177.161 70.2002Z" fill="url(#paint27_linear_2923_534)"/>
<path d="M173.663 73.0541C174.301 70.0054 172.391 67.0259 169.396 66.3992C166.402 65.7726 163.457 67.7361 162.819 70.7848C162.181 73.8336 164.092 76.8131 167.086 77.4397C170.08 78.0664 173.025 76.1029 173.663 73.0541Z" fill="url(#paint28_linear_2923_534)"/>
<g opacity="0.05">
<path d="M193.728 90.3478C188.01 89.1529 184.458 83.0105 185.798 76.6224L206.493 80.9555C205.153 87.3325 199.435 91.5428 193.728 90.3478Z" stroke="#404041" stroke-width="0.6" stroke-miterlimit="10"/>
<path d="M163.204 83.982C157.486 82.787 153.935 76.6446 155.275 70.2565L175.925 74.5674C174.64 80.9555 168.922 85.1546 163.204 83.982Z" stroke="#404041" stroke-width="0.6" stroke-miterlimit="10"/>
<path d="M185.797 76.6224L175.969 74.5675" stroke="#404041" stroke-width="0.6" stroke-miterlimit="10"/>
<path d="M155.276 70.2342L147.961 62.4948" stroke="#404041" stroke-width="0.6" stroke-miterlimit="10" stroke-linecap="round"/>
<path d="M206.168 80.8885L215.08 76.3208" stroke="#404041" stroke-width="0.6" stroke-miterlimit="10" stroke-linecap="round"/>
</g>
<path d="M194.005 88.9852C188.298 87.7903 184.747 81.6367 186.076 75.2598L206.781 79.593C205.441 85.9699 199.723 90.1802 194.005 88.9852Z" stroke="#B8B7BE" stroke-width="0.6" stroke-miterlimit="10"/>
<path d="M163.497 82.5972C157.779 81.4022 154.228 75.2598 155.568 68.8717L176.262 73.2049C174.922 79.5818 169.226 83.7922 163.497 82.5972Z" stroke="#B8B7BE" stroke-width="0.6" stroke-miterlimit="10"/>
<path d="M186.078 75.2597L176.262 73.2048" stroke="#B8B7BE" stroke-width="0.6" stroke-miterlimit="10"/>
<path d="M155.565 68.8718L148.25 61.1323" stroke="#B8B7BE" stroke-width="0.6" stroke-miterlimit="10" stroke-linecap="round"/>
<path d="M206.445 79.5148L215.369 74.9583" stroke="#B8B7BE" stroke-width="0.6" stroke-miterlimit="10" stroke-linecap="round"/>
<path style="mix-blend-mode:multiply" opacity="0.1" d="M211.372 56.2183C211.372 56.2183 211.126 41.6999 195.558 45.9325C195.558 45.9325 185.63 47.2727 192.9 52.879C193.343 53.2143 193.869 53.4235 194.421 53.4845C194.974 53.5454 195.532 53.4558 196.038 53.2253C196.211 53.1476 196.4 53.1151 196.589 53.1307C196.777 53.1463 196.959 53.2095 197.116 53.3144C197.273 53.4194 197.402 53.5626 197.488 53.7306C197.575 53.8986 197.618 54.0859 197.613 54.275C197.613 56.7097 198.64 59.6133 204.906 56.8213C205.161 56.7041 205.451 56.6873 205.718 56.7742C205.985 56.8611 206.209 57.0454 206.346 57.2904C207.865 59.9037 212.254 66.6604 211.372 56.2183Z" fill="url(#paint29_linear_2923_534)"/>
<path d="M211.73 55.6263C211.73 55.6263 211.485 41.1079 195.916 45.3406C195.916 45.3406 185.999 46.6919 193.258 52.2983C193.703 52.6303 194.229 52.8374 194.78 52.8983C195.332 52.9592 195.89 52.8715 196.397 52.6445C196.569 52.5648 196.758 52.5302 196.948 52.544C197.137 52.5579 197.319 52.6197 197.478 52.7236C197.637 52.8275 197.766 52.9701 197.854 53.138C197.943 53.3059 197.987 53.4935 197.983 53.6831C197.983 56.1177 198.999 59.0326 205.264 56.2406C205.518 56.1224 205.807 56.1039 206.074 56.1887C206.34 56.2735 206.566 56.4555 206.705 56.6985C208.235 59.3118 212.613 66.1131 211.73 55.6263Z" fill="url(#paint30_linear_2923_534)"/>
<path style="mix-blend-mode:multiply" opacity="0.1" d="M177.947 43.2188C177.947 43.2188 168.555 32.1959 159.208 45.3295C159.208 45.3295 152.395 52.6781 161.564 52.3877C162.119 52.3605 162.657 52.1857 163.122 51.8815C163.588 51.5772 163.963 51.1544 164.211 50.6567C164.294 50.4862 164.42 50.3398 164.576 50.2315C164.732 50.1231 164.913 50.0562 165.102 50.0372C165.291 50.0182 165.481 50.0477 165.656 50.1229C165.83 50.198 165.982 50.3164 166.098 50.4668C167.617 52.3654 170.286 53.9289 173.346 47.7977C173.468 47.5449 173.68 47.3471 173.941 47.2436C174.201 47.1402 174.492 47.1386 174.753 47.2393C177.59 48.2444 185.274 50.7237 177.947 43.2188Z" fill="url(#paint31_linear_2923_534)"/>
<path d="M177.847 42.5375C177.847 42.5375 168.454 31.5147 159.107 44.6483C159.107 44.6483 152.305 51.9968 161.474 51.7065C162.029 51.6792 162.567 51.5045 163.033 51.2002C163.498 50.896 163.874 50.4732 164.121 49.9754C164.204 49.8065 164.329 49.6614 164.483 49.5536C164.638 49.4458 164.817 49.3787 165.004 49.3586C165.191 49.3386 165.38 49.3662 165.554 49.4389C165.728 49.5115 165.88 49.627 165.997 49.7744C167.516 51.6841 170.185 53.2477 173.245 47.1164C173.367 46.8636 173.579 46.6659 173.84 46.5624C174.101 46.4589 174.391 46.4574 174.652 46.558C177.489 47.6078 185.173 50.0424 177.847 42.5375Z" fill="url(#paint32_linear_2923_534)"/>
<path d="M219.67 12.8643L223.355 24.5795L200.215 15.8573L217.067 11.3901C217.608 11.2514 218.18 11.3275 218.666 11.6024C219.151 11.8773 219.511 12.3296 219.67 12.8643Z" fill="#F68F64"/>
<path d="M184.859 12.2722L172.574 2.06463C172.186 1.7342 171.693 1.55273 171.184 1.55273C170.674 1.55273 170.181 1.7342 169.793 2.06463L159.34 11.1666L184.859 12.2722Z" fill="#F68F64"/>
<path d="M232.624 19.5873L222.885 42.2137C222.803 42.4053 222.683 42.5786 222.533 42.7235C222.383 42.8684 222.206 42.9821 222.012 43.058C221.817 43.1338 221.61 43.1703 221.401 43.1653C221.193 43.1604 220.987 43.114 220.797 43.029C200.263 34.3765 178.247 29.7837 155.967 29.5045C155.551 29.4987 155.154 29.331 154.859 29.0369C154.565 28.7428 154.398 28.3456 154.392 27.9298L154.258 3.25968C154.255 2.82816 154.368 2.40372 154.584 2.0306C154.801 1.65748 155.114 1.34935 155.49 1.13833C155.867 0.92731 156.293 0.821121 156.724 0.830843C157.156 0.840565 157.577 0.965832 157.943 1.1936L171.345 9.51378C171.725 9.74471 172.155 9.87962 172.599 9.90686C173.042 9.9341 173.486 9.85285 173.891 9.67013L194.318 0.221984C194.778 0.0089975 195.294 -0.0527667 195.791 0.0455413C196.289 0.143849 196.742 0.397186 197.087 0.769223L212.834 17.5212C213.128 17.8334 213.492 18.0711 213.896 18.2148C214.3 18.3585 214.732 18.404 215.157 18.3477L230.066 16.2592C230.488 16.2035 230.917 16.2597 231.31 16.4222C231.703 16.5847 232.046 16.8478 232.306 17.1851C232.565 17.5224 232.731 17.9219 232.786 18.3436C232.842 18.7653 232.786 19.1942 232.624 19.5873Z" fill="url(#paint33_linear_2923_534)"/>
<path d="M191.559 28.7562L196.954 23.7976C197.267 23.5094 197.482 23.1302 197.568 22.7134C197.654 22.2967 197.607 21.8634 197.434 21.4746L194.485 14.7738C194.354 14.477 194.154 14.2157 193.902 14.0114C193.65 13.8072 193.353 13.666 193.035 13.5994C192.718 13.5328 192.389 13.5428 192.076 13.6286C191.763 13.7143 191.475 13.8734 191.236 14.0926L185.841 19.0512C185.53 19.3403 185.316 19.7195 185.23 20.1358C185.144 20.5522 185.19 20.9851 185.361 21.3741L188.31 28.0749C188.441 28.3717 188.641 28.6331 188.893 28.8373C189.145 29.0415 189.442 29.1828 189.76 29.2494C190.077 29.3159 190.406 29.3059 190.719 29.2202C191.032 29.1344 191.32 28.9753 191.559 28.7562Z" fill="url(#paint34_linear_2923_534)"/>
<path d="M214.298 35.0661L217.57 32.0508C217.761 31.8768 217.892 31.6477 217.946 31.3954C218 31.1432 217.974 30.8804 217.872 30.6436L216.129 26.5673C216.05 26.3863 215.929 26.2268 215.775 26.1023C215.622 25.9777 215.441 25.8916 215.248 25.8512C215.054 25.8107 214.854 25.8171 214.663 25.8698C214.473 25.9225 214.298 26.02 214.153 26.1541L210.881 29.1694C210.689 29.3428 210.558 29.5726 210.506 29.8256C210.453 30.0786 210.483 30.3416 210.59 30.5766L212.377 34.6529C212.459 34.8244 212.578 34.9748 212.727 35.0926C212.876 35.2104 213.05 35.2924 213.236 35.3323C213.421 35.3723 213.614 35.369 213.798 35.3229C213.982 35.2767 214.153 35.1889 214.298 35.0661Z" fill="url(#paint35_linear_2923_534)"/>
<path d="M166.722 25.1042L169.994 22.1C170.186 21.9248 170.318 21.693 170.37 21.4381C170.422 21.1832 170.392 20.9183 170.284 20.6816L168.497 16.6165C168.418 16.4355 168.297 16.276 168.143 16.1515C167.99 16.0269 167.809 15.9408 167.615 15.9004C167.422 15.8599 167.222 15.8663 167.031 15.919C166.841 15.9717 166.666 16.0692 166.521 16.2033L163.248 19.2075C163.057 19.3833 162.925 19.6143 162.871 19.8685C162.817 20.1227 162.844 20.3873 162.947 20.6258L164.745 24.6909C164.824 24.872 164.946 25.0314 165.099 25.1559C165.252 25.2805 165.433 25.3666 165.627 25.407C165.82 25.4475 166.02 25.4411 166.211 25.3884C166.401 25.3357 166.576 25.2383 166.722 25.1042Z" fill="url(#paint36_linear_2923_534)"/>
<defs>
<linearGradient id="paint0_linear_2923_534" x1="85.8505" y1="155.174" x2="64.8697" y2="132.319" gradientUnits="userSpaceOnUse">
<stop stop-color="#FEE3CC"/>
<stop offset="0.3" stop-color="#FED9BB"/>
</linearGradient>
<linearGradient id="paint1_linear_2923_534" x1="83.8892" y1="149.967" x2="117.913" y2="122.454" gradientUnits="userSpaceOnUse">
<stop stop-color="#8C5BA1"/>
<stop offset="0.69" stop-color="#A671B0"/>
<stop offset="1" stop-color="#AA75B2"/>
</linearGradient>
<linearGradient id="paint2_linear_2923_534" x1="70.7443" y1="134.17" x2="93.8092" y2="115.519" gradientUnits="userSpaceOnUse">
<stop stop-color="#B293C4"/>
<stop offset="0.18" stop-color="#B69BC8"/>
<stop offset="0.46" stop-color="#C2B2D3"/>
<stop offset="0.65" stop-color="#CCC5DC"/>
<stop offset="1" stop-color="#D4CEE2"/>
</linearGradient>
<linearGradient id="paint3_linear_2923_534" x1="104.909" y1="68.6704" x2="89.6132" y2="84.8534" gradientUnits="userSpaceOnUse">
<stop stop-color="#FCCAB7"/>
<stop offset="0.23" stop-color="#FDD3BA"/>
<stop offset="0.51" stop-color="#FED9BB"/>
<stop offset="1" stop-color="#FEE3CC"/>
</linearGradient>
<linearGradient id="paint4_linear_2923_534" x1="251.084" y1="150.558" x2="273.218" y2="128.741" gradientUnits="userSpaceOnUse">
<stop stop-color="#FEE3CC"/>
<stop offset="0.3" stop-color="#FED9BB"/>
</linearGradient>
<linearGradient id="paint5_linear_2923_534" x1="243.582" y1="179.253" x2="211.203" y2="149.936" gradientUnits="userSpaceOnUse">
<stop stop-color="#8C5BA1"/>
<stop offset="0.69" stop-color="#A671B0"/>
<stop offset="1" stop-color="#AA75B2"/>
</linearGradient>
<linearGradient id="paint6_linear_2923_534" x1="257.572" y1="164.233" x2="235.622" y2="144.359" gradientUnits="userSpaceOnUse">
<stop stop-color="#B293C4"/>
<stop offset="0.18" stop-color="#B69BC8"/>
<stop offset="0.46" stop-color="#C2B2D3"/>
<stop offset="0.65" stop-color="#CCC5DC"/>
<stop offset="1" stop-color="#D4CEE2"/>
</linearGradient>
<linearGradient id="paint7_linear_2923_534" x1="248.012" y1="160.963" x2="233.243" y2="166.68" gradientUnits="userSpaceOnUse">
<stop stop-color="#FCCAB7"/>
<stop offset="0.23" stop-color="#FDD3BA"/>
<stop offset="0.51" stop-color="#FED9BB"/>
<stop offset="1" stop-color="#FEE3CC"/>
</linearGradient>
<linearGradient id="paint8_linear_2923_534" x1="245.21" y1="153.569" x2="232.03" y2="158.671" gradientUnits="userSpaceOnUse">
<stop stop-color="#FCCAB7"/>
<stop offset="0.23" stop-color="#FDD3BA"/>
<stop offset="0.51" stop-color="#FED9BB"/>
<stop offset="1" stop-color="#FEE3CC"/>
</linearGradient>
<linearGradient id="paint9_linear_2923_534" x1="284.544" y1="69.2955" x2="275.654" y2="68.851" gradientUnits="userSpaceOnUse">
<stop stop-color="#7D525C"/>
<stop offset="0.5" stop-color="#814A5B"/>
</linearGradient>
<linearGradient id="paint10_linear_2923_534" x1="283.01" y1="146.079" x2="262.528" y2="145.055" gradientUnits="userSpaceOnUse">
<stop stop-color="#7D525C"/>
<stop offset="0.26" stop-color="#814A5B"/>
<stop offset="0.61" stop-color="#6C3F51"/>
<stop offset="1" stop-color="#4F3043"/>
</linearGradient>
<linearGradient id="paint11_linear_2923_534" x1="261.11" y1="124.347" x2="272.5" y2="122.663" gradientUnits="userSpaceOnUse">
<stop stop-color="#FCCAB7"/>
<stop offset="0.23" stop-color="#FDD3BA"/>
<stop offset="0.51" stop-color="#FED9BB"/>
<stop offset="1" stop-color="#FEE3CC"/>
</linearGradient>
<linearGradient id="paint12_linear_2923_534" x1="189.946" y1="175.637" x2="150.307" y2="268.306" gradientUnits="userSpaceOnUse">
<stop stop-color="#7C76B7"/>
<stop offset="0.63" stop-color="#6B65AD"/>
<stop offset="1" stop-color="#57549A"/>
</linearGradient>
<linearGradient id="paint13_linear_2923_534" x1="193.552" y1="189.784" x2="211.007" y2="260.219" gradientUnits="userSpaceOnUse">
<stop stop-color="#AA75B2"/>
<stop offset="0.53" stop-color="#A671B0"/>
<stop offset="1" stop-color="#8C5BA1"/>
</linearGradient>
<linearGradient id="paint14_linear_2923_534" x1="155.205" y1="179.225" x2="145.289" y2="255.291" gradientUnits="userSpaceOnUse">
<stop stop-color="#AA75B2"/>
<stop offset="0.31" stop-color="#A671B0"/>
<stop offset="1" stop-color="#8C5BA1"/>
</linearGradient>
<linearGradient id="paint15_linear_2923_534" x1="185.433" y1="210.721" x2="181.831" y2="159.259" gradientUnits="userSpaceOnUse">
<stop stop-color="#D4CEE2"/>
<stop offset="0.35" stop-color="#CCC5DC"/>
<stop offset="0.54" stop-color="#C2B2D3"/>
<stop offset="0.82" stop-color="#B69BC8"/>
<stop offset="1" stop-color="#B293C4"/>
</linearGradient>
<linearGradient id="paint16_linear_2923_534" x1="155.091" y1="214.295" x2="151.537" y2="162.956" gradientUnits="userSpaceOnUse">
<stop stop-color="#D4CEE2"/>
<stop offset="0.35" stop-color="#CCC5DC"/>
<stop offset="0.54" stop-color="#C2B2D3"/>
<stop offset="0.82" stop-color="#B69BC8"/>
<stop offset="1" stop-color="#B293C4"/>
</linearGradient>
<linearGradient id="paint17_linear_2923_534" x1="179.722" y1="98.082" x2="185.617" y2="69.199" gradientUnits="userSpaceOnUse">
<stop stop-color="#F1F1F2"/>
<stop offset="0.14" stop-color="#CBCBCC"/>
<stop offset="0.35" stop-color="#9A9A9B"/>
<stop offset="0.55" stop-color="#737374"/>
<stop offset="0.73" stop-color="#575758"/>
<stop offset="0.88" stop-color="#464647"/>
<stop offset="1" stop-color="#404041"/>
</linearGradient>
<linearGradient id="paint18_linear_2923_534" x1="197.211" y1="5.59909" x2="182.397" y2="82.71" gradientUnits="userSpaceOnUse">
<stop offset="0.2" stop-color="#F1F1F2"/>
<stop offset="0.53" stop-color="#E4DEEB"/>
<stop offset="0.81" stop-color="#D4CEE2"/>
<stop offset="1" stop-color="#CCC5DC"/>
</linearGradient>
<linearGradient id="paint19_linear_2923_534" x1="214.631" y1="97.771" x2="137.205" y2="150.39" gradientUnits="userSpaceOnUse">
<stop offset="0.2" stop-color="#F1F1F2"/>
<stop offset="0.53" stop-color="#E4DEEB"/>
<stop offset="0.81" stop-color="#D4CEE2"/>
<stop offset="1" stop-color="#CCC5DC"/>
</linearGradient>
<linearGradient id="paint20_linear_2923_534" x1="211.897" y1="42.1859" x2="156.24" y2="78.9848" gradientUnits="userSpaceOnUse">
<stop stop-color="#FEE3CC"/>
<stop offset="0.26" stop-color="#FEDFC6"/>
<stop offset="0.49" stop-color="#FED9BB"/>
<stop offset="0.7" stop-color="#FDD1B9"/>
<stop offset="1" stop-color="#FCCAB7"/>
</linearGradient>
<linearGradient id="paint21_linear_2923_534" x1="161.692" y1="115.106" x2="164.258" y2="93.9336" gradientUnits="userSpaceOnUse">
<stop stop-color="#431918"/>
<stop offset="1" stop-color="#622424"/>
</linearGradient>
<linearGradient id="paint22_linear_2923_534" x1="164.13" y1="119.53" x2="148.832" y2="108.757" gradientUnits="userSpaceOnUse">
<stop stop-color="#D88EAA"/>
<stop offset="0.38" stop-color="#F4A4C7"/>
<stop offset="1" stop-color="#F6BBD5"/>
</linearGradient>
<linearGradient id="paint23_linear_2923_534" x1="233.836" y1="88.568" x2="167.571" y2="82.1129" gradientUnits="userSpaceOnUse">
<stop offset="0.2" stop-color="#F1F1F2"/>
<stop offset="0.53" stop-color="#E4DEEB"/>
<stop offset="0.81" stop-color="#D4CEE2"/>
<stop offset="1" stop-color="#CCC5DC"/>
</linearGradient>
<linearGradient id="paint24_linear_2923_534" x1="198.966" y1="58.0576" x2="179.727" y2="71.0495" gradientUnits="userSpaceOnUse">
<stop stop-color="#FED9BB"/>
<stop offset="0.17" stop-color="#FDCFB8"/>
<stop offset="0.36" stop-color="#FCCAB7"/>
<stop offset="0.42" stop-color="#FAC7B4"/>
<stop offset="0.69" stop-color="#F2BCA9"/>
<stop offset="1" stop-color="#F0B8A5"/>
</linearGradient>
<linearGradient id="paint25_linear_2923_534" x1="198.56" y1="64.7803" x2="193.803" y2="84.4595" gradientUnits="userSpaceOnUse">
<stop stop-color="white"/>
<stop offset="0.35" stop-color="#FCFBFD"/>
<stop offset="0.69" stop-color="#F2EFF6"/>
<stop offset="1" stop-color="#E4DEEB"/>
</linearGradient>
<linearGradient id="paint26_linear_2923_534" x1="197.173" y1="80.4756" x2="189.026" y2="72.9516" gradientUnits="userSpaceOnUse">
<stop stop-color="#001633"/>
<stop offset="1" stop-color="#273861"/>
</linearGradient>
<linearGradient id="paint27_linear_2923_534" x1="169.09" y1="59.3717" x2="164.945" y2="79.1791" gradientUnits="userSpaceOnUse">
<stop stop-color="white"/>
<stop offset="0.35" stop-color="#FCFBFD"/>
<stop offset="0.69" stop-color="#F2EFF6"/>
<stop offset="1" stop-color="#E4DEEB"/>
</linearGradient>
<linearGradient id="paint28_linear_2923_534" x1="171.322" y1="75.5193" x2="164.111" y2="67.1188" gradientUnits="userSpaceOnUse">
<stop stop-color="#001633"/>
<stop offset="1" stop-color="#273861"/>
</linearGradient>
<linearGradient id="paint29_linear_2923_534" x1="187.231" y1="54.9931" x2="198.712" y2="36.2259" gradientUnits="userSpaceOnUse">
<stop stop-color="#F1F1F2"/>
<stop offset="0.14" stop-color="#CBCBCC"/>
<stop offset="0.35" stop-color="#9A9A9B"/>
<stop offset="0.55" stop-color="#737374"/>
<stop offset="0.73" stop-color="#575758"/>
<stop offset="0.88" stop-color="#464647"/>
<stop offset="1" stop-color="#404041"/>
</linearGradient>
<linearGradient id="paint30_linear_2923_534" x1="195.434" y1="61.0547" x2="181.446" y2="28.924" gradientUnits="userSpaceOnUse">
<stop stop-color="#F1F1F2"/>
<stop offset="0.53" stop-color="#E4DEEB"/>
<stop offset="0.81" stop-color="#D4CEE2"/>
<stop offset="1" stop-color="#CCC5DC"/>
</linearGradient>
<linearGradient id="paint31_linear_2923_534" x1="169.892" y1="51.3813" x2="166.96" y2="30.6506" gradientUnits="userSpaceOnUse">
<stop stop-color="#F1F1F2"/>
<stop offset="0.14" stop-color="#CBCBCC"/>
<stop offset="0.35" stop-color="#9A9A9B"/>
<stop offset="0.55" stop-color="#737374"/>
<stop offset="0.73" stop-color="#575758"/>
<stop offset="0.88" stop-color="#464647"/>
<stop offset="1" stop-color="#404041"/>
</linearGradient>
<linearGradient id="paint32_linear_2923_534" x1="181.152" y1="50.6234" x2="151.417" y2="35.4988" gradientUnits="userSpaceOnUse">
<stop stop-color="#F1F1F2"/>
<stop offset="0.52" stop-color="#E4DEEB"/>
<stop offset="0.81" stop-color="#D4CEE2"/>
<stop offset="1" stop-color="#CCC5DC"/>
</linearGradient>
<linearGradient id="paint33_linear_2923_534" x1="238.655" y1="9.20106" x2="160.105" y2="-6.8295" gradientUnits="userSpaceOnUse">
<stop stop-color="#FCCB7D"/>
<stop offset="0.42" stop-color="#FBB672"/>
<stop offset="0.67" stop-color="#FBB471"/>
<stop offset="0.81" stop-color="#FAAB6E"/>
<stop offset="0.92" stop-color="#F89D69"/>
<stop offset="1" stop-color="#F68F64"/>
</linearGradient>
<linearGradient id="paint34_linear_2923_534" x1="197.181" y1="11.9322" x2="200.683" y2="-5.22899" gradientUnits="userSpaceOnUse">
<stop stop-color="#564DA0"/>
<stop offset="0.69" stop-color="#766AB0"/>
<stop offset="1" stop-color="#7C76B7"/>
</linearGradient>
<linearGradient id="paint35_linear_2923_534" x1="220.692" y1="18.0642" x2="222.818" y2="7.64486" gradientUnits="userSpaceOnUse">
<stop stop-color="#564DA0"/>
<stop offset="0.69" stop-color="#766AB0"/>
<stop offset="1" stop-color="#7C76B7"/>
</linearGradient>
<linearGradient id="paint36_linear_2923_534" x1="173.049" y1="8.3412" x2="175.176" y2="-2.07811" gradientUnits="userSpaceOnUse">
<stop stop-color="#564DA0"/>
<stop offset="0.69" stop-color="#766AB0"/>
<stop offset="1" stop-color="#7C76B7"/>
</linearGradient>
</defs>
</svg>
