<svg width="1020" height="604" viewBox="0 0 1020 604" fill="none" xmlns="http://www.w3.org/2000/svg">
<path opacity="0.1" d="M932.045 588.035C932.102 579.282 893.876 571.94 846.666 571.635C799.456 571.33 761.139 578.178 761.083 586.93C761.026 595.683 799.252 603.025 846.462 603.33C893.671 603.635 931.988 596.787 932.045 588.035Z" fill="#231F20"/>
<path d="M888.149 342.312C883.682 342.703 876.546 350.484 873.509 355.809C873.358 356.078 873.299 356.389 873.341 356.694C873.383 356.999 873.524 357.283 873.742 357.501C873.96 357.719 874.243 357.86 874.548 357.903C874.853 357.946 875.164 357.888 875.433 357.738C878.611 355.972 883.487 353.861 887.287 354.769L888.149 342.312Z" fill="#71C491"/>
<path d="M845.619 453.926C841.148 454.316 834.016 462.097 830.979 467.427C830.828 467.695 830.768 468.006 830.81 468.311C830.851 468.616 830.992 468.899 831.209 469.117C831.427 469.335 831.71 469.476 832.015 469.519C832.32 469.561 832.63 469.502 832.899 469.352C836.077 467.586 840.957 465.479 844.757 466.383L845.619 453.926Z" fill="#71C491"/>
<path d="M883.388 361.52C878.916 361.91 871.78 369.691 868.743 375.016C868.592 375.285 868.534 375.596 868.576 375.902C868.618 376.207 868.758 376.49 868.976 376.708C869.194 376.927 869.477 377.068 869.782 377.111C870.087 377.154 870.398 377.096 870.668 376.946C873.846 375.18 878.721 373.069 882.526 373.977L883.388 361.52Z" fill="#71C491"/>
<path d="M835.651 486.775C831.179 487.165 824.043 494.947 821.01 500.272C820.857 500.54 820.796 500.851 820.837 501.158C820.877 501.464 821.017 501.749 821.235 501.968C821.453 502.187 821.737 502.328 822.043 502.37C822.35 502.412 822.661 502.353 822.93 502.201C826.108 500.435 830.984 498.324 834.788 499.232L835.651 486.775Z" fill="#71C491"/>
<path d="M842.239 468.97C837.772 469.361 830.635 477.142 827.598 482.471C827.446 482.74 827.385 483.052 827.427 483.358C827.468 483.664 827.609 483.948 827.828 484.167C828.046 484.385 828.33 484.526 828.637 484.568C828.943 484.609 829.254 484.549 829.523 484.396C832.701 482.63 837.576 480.524 841.376 481.427L842.239 468.97Z" fill="#71C491"/>
<path d="M870.089 385.884C863.511 387.333 858.544 395.522 857.105 400.797C857.019 401.089 857.029 401.401 857.134 401.687C857.239 401.972 857.434 402.216 857.689 402.382C857.945 402.548 858.247 402.627 858.55 402.607C858.854 402.588 859.143 402.47 859.375 402.273C862.553 399.703 868.05 396.112 872.018 398.228L870.089 385.884Z" fill="#71C491"/>
<path d="M860.703 435.063C854.493 432.998 847.392 438.454 843.865 442.826C843.669 443.062 843.555 443.355 843.541 443.662C843.526 443.968 843.612 444.271 843.785 444.524C843.957 444.777 844.208 444.968 844.499 445.066C844.789 445.164 845.104 445.165 845.395 445.069C848.891 443.929 853.889 443.098 856.027 446.639L860.703 435.063Z" fill="#71C491"/>
<path d="M976.538 378.071C981.5 381.876 983.575 393.016 982.83 399.158C982.658 400.598 979.907 400.475 978.994 399C976.665 395.232 972.639 389.92 967.418 387.537L976.538 378.071Z" fill="#BDDB8C"/>
<path d="M942.804 467.027C947.762 470.832 949.837 481.972 949.092 488.114C948.919 489.549 946.168 489.431 945.256 487.955C942.927 484.187 938.9 478.876 933.68 476.493L942.804 467.027Z" fill="#BDDB8C"/>
<path d="M966.511 395.391C971.469 399.199 973.544 410.335 972.799 416.482C972.627 417.917 969.875 417.799 968.963 416.319C966.634 412.551 962.607 407.239 957.387 404.856L966.511 395.391Z" fill="#BDDB8C"/>
<path d="M920.901 521.436C925.859 525.24 927.934 536.376 927.194 542.523C927.021 543.957 924.265 543.839 923.353 542.364C921.029 538.596 916.997 533.284 911.781 530.901L920.901 521.436Z" fill="#BDDB8C"/>
<path d="M925.558 499.554C930.516 503.363 932.59 514.499 931.85 520.646C931.673 522.08 928.922 521.962 928.01 520.487C925.681 516.719 921.654 511.408 916.434 509.024L925.558 499.554Z" fill="#BDDB8C"/>
<path d="M960.788 422.529C967.37 428.744 966.567 438.445 963.965 443.303C963.312 444.524 960.665 444.02 960.107 442.567C958.459 438.245 954.886 431.363 948.48 429.72L960.788 422.529Z" fill="#BDDB8C"/>
<path d="M930.733 484.192C939.74 487.642 943.68 497.107 944.284 502.977C944.438 504.462 941.882 504.725 940.652 503.345C937.474 499.781 932.231 495.246 926.824 496.05L930.733 484.192Z" fill="#BDDB8C"/>
<path d="M921.801 283.691C905.853 287.677 872.491 300.783 890.432 338.517L919.854 321.584C919.854 321.584 909.163 308.532 924.634 287.99C924.979 287.541 925.176 286.995 925.196 286.429C925.217 285.863 925.061 285.305 924.749 284.831C924.437 284.358 923.986 283.994 923.458 283.79C922.929 283.585 922.35 283.551 921.801 283.691Z" fill="url(#paint0_linear_3762_865)"/>
<path d="M994.687 312.586C1003.57 326.419 1018.89 358.819 979.965 374.008L970.141 341.545C970.141 341.545 986.869 339.361 989.661 313.807C989.708 313.237 989.933 312.695 990.305 312.259C990.677 311.824 991.177 311.517 991.733 311.382C992.29 311.246 992.875 311.29 993.405 311.506C993.935 311.722 994.384 312.1 994.687 312.586Z" fill="url(#paint1_linear_3762_865)"/>
<path d="M977.682 385.805C987.95 359.912 975.282 330.597 949.389 320.329C923.495 310.062 894.18 322.729 883.913 348.623L829.588 485.622C819.32 511.516 831.987 540.83 857.881 551.098C883.775 561.366 913.089 548.699 923.357 522.805L977.682 385.805Z" fill="url(#paint2_linear_3762_865)"/>
<mask id="mask0_3762_865" style="mask-type:luminance" maskUnits="userSpaceOnUse" x="826" y="316" width="156" height="239">
<path d="M977.678 385.805C987.946 359.912 975.278 330.597 949.385 320.329C923.491 310.062 894.176 322.729 883.909 348.623L829.584 485.622C819.316 511.516 831.983 540.831 857.877 551.098C883.771 561.366 913.085 548.699 923.353 522.805L977.678 385.805Z" fill="white"/>
</mask>
<g mask="url(#mask0_3762_865)">
<path d="M903.072 311.17L877.591 320.431C876.376 320.896 875.306 321.675 874.49 322.689C873.674 323.702 873.141 324.914 872.946 326.201C872.551 329.22 873.981 333.319 881.29 337.627C890.651 343.147 902.255 335.326 909.391 329.002C909.55 328.813 909.777 328.694 910.022 328.673C910.268 328.651 910.512 328.728 910.701 328.886C910.89 329.044 911.008 329.271 911.03 329.517C911.052 329.762 910.975 330.007 910.817 330.196C906.994 336.379 901.905 344.005 901.601 349.471C901.102 358.378 912.742 366.822 930.542 339.597C931.137 338.689 932.485 339.062 932.308 340.133L926.061 356.476C925.048 358.941 924.945 361.687 925.771 364.221C926.318 365.86 927.253 367.343 928.496 368.544C929.74 369.744 931.254 370.627 932.912 371.117C938.881 372.846 952.065 367.603 952.473 344.854C952.488 344.638 952.578 344.434 952.727 344.276C952.876 344.119 953.076 344.019 953.291 343.993C953.506 343.967 953.724 344.017 953.906 344.135C954.088 344.252 954.224 344.43 954.289 344.637C956.958 355.191 963.518 374.599 973.183 376.047C988.019 378.317 1007.78 353.348 967.327 327.386L962.787 319.94L932.771 300.379L904.511 304.501L903.072 311.17Z" fill="url(#paint3_linear_3762_865)"/>
</g>
<path d="M935.243 452.854C934.843 453.861 934.858 454.985 935.283 455.982C935.708 456.978 936.509 457.766 937.513 458.175C945.18 461.312 964.392 467.368 991.694 463.473L994.926 455.301C994.926 455.301 974.33 460.118 940.218 450.403C939.233 450.118 938.176 450.212 937.256 450.665C936.335 451.119 935.618 451.899 935.243 452.854Z" fill="url(#paint4_linear_3762_865)"/>
<path d="M992.595 455.778C992.595 455.778 996.89 442.431 1002.39 443.634C1007.89 444.837 1003.41 452.845 1003.41 452.845C1003.41 452.845 1017.08 448.26 1018.99 454.661C1020.91 461.062 1009.84 461.017 1009.84 461.017C1009.84 461.017 1021.29 462.833 1018.14 469.415C1014.99 475.998 1003.61 468.221 1003.61 468.221C1003.61 468.221 1010.06 476.642 1002.91 477.941C995.764 479.239 990.82 463.563 990.82 463.563L992.595 455.778Z" fill="url(#paint5_linear_3762_865)"/>
<path d="M1000.64 463.695C1002.07 462.326 1003.08 460.584 1003.58 458.667C1004.07 456.749 1004.01 454.733 1003.41 452.845" stroke="#4AB087" stroke-width="1.51" stroke-miterlimit="10" stroke-linecap="round"/>
<path d="M864.173 420.64L862.289 428.126C862.289 428.126 838.006 421.93 815.344 393.561L818.576 385.39C818.576 385.39 830.157 403.893 864.173 420.64Z" fill="url(#paint6_linear_3762_865)"/>
<path d="M819.952 387.333C819.952 387.333 825.967 374.667 821.137 371.775C816.306 368.883 814.077 377.781 814.077 377.781C814.077 377.781 807.268 365.07 801.48 368.438C795.692 371.807 803.781 379.334 803.781 379.334C803.781 379.334 794.194 372.815 791.978 379.788C789.763 386.761 803.377 388.867 803.377 388.867C803.377 388.867 792.936 390.588 797.226 396.43C801.516 402.273 815.884 394.237 815.884 394.237L819.952 387.333Z" fill="url(#paint7_linear_3762_865)"/>
<path d="M808.675 387.591C808.571 385.615 809.023 383.648 809.978 381.915C810.934 380.181 812.355 378.749 814.081 377.781" stroke="#4AB087" stroke-width="1.51" stroke-miterlimit="10" stroke-linecap="round"/>
<path d="M843.866 589.781C857.186 589.781 867.985 578.982 867.985 565.662C867.985 552.341 857.186 541.542 843.866 541.542C830.545 541.542 819.746 552.341 819.746 565.662C819.746 578.982 830.545 589.781 843.866 589.781Z" fill="#242F3D"/>
<path d="M857.928 595.356C871.249 595.356 882.048 584.557 882.048 571.236C882.048 557.915 871.249 547.117 857.928 547.117C844.607 547.117 833.809 557.915 833.809 571.236C833.809 584.557 844.607 595.356 857.928 595.356Z" fill="url(#paint8_linear_3762_865)"/>
<path d="M857.928 595.356C871.249 595.356 882.048 584.557 882.048 571.236C882.048 557.915 871.249 547.117 857.928 547.117C844.607 547.117 833.809 557.915 833.809 571.236C833.809 584.557 844.607 595.356 857.928 595.356Z" fill="url(#paint9_linear_3762_865)"/>
<path d="M857.929 581.673C863.693 581.673 868.366 577 868.366 571.236C868.366 565.472 863.693 560.8 857.929 560.8C852.165 560.8 847.492 565.472 847.492 571.236C847.492 577 852.165 581.673 857.929 581.673Z" fill="url(#paint10_linear_3762_865)"/>
<path d="M857.932 579.258C862.362 579.258 865.954 575.667 865.954 571.236C865.954 566.806 862.362 563.215 857.932 563.215C853.502 563.215 849.91 566.806 849.91 571.236C849.91 575.667 853.502 579.258 857.932 579.258Z" fill="url(#paint11_linear_3762_865)"/>
<path d="M837.075 583.73C837.075 583.73 842.146 591.479 853.059 594.875C853.059 594.875 837.756 592.246 827.637 583.525L837.075 583.73Z" fill="#242F3D"/>
<path d="M826.015 540.707C823.691 542.446 821.744 544.637 820.29 547.149C819.291 548.901 820.449 551.235 822.769 552.142L882.225 575.726C884.55 576.634 886.997 575.726 887.464 573.765C888.218 570.587 888.372 565.24 884.84 557.735C880.886 549.323 872.951 542.3 863.272 538.478L861.638 537.829C849.054 532.844 835.085 533.757 826.015 540.707Z" fill="#75C692"/>
<path d="M839.221 545.946C837.129 547.854 835.374 550.103 834.032 552.596C833.808 553.014 833.675 553.475 833.641 553.948C833.608 554.421 833.675 554.896 833.837 555.341C834 555.787 834.256 556.193 834.586 556.533C834.917 556.872 835.316 557.138 835.757 557.313L883.624 576.289C884.066 576.465 884.54 576.544 885.015 576.523C885.49 576.502 885.955 576.38 886.38 576.165C886.804 575.951 887.178 575.648 887.477 575.278C887.776 574.909 887.993 574.479 888.114 574.019C888.949 570.873 889.435 565.657 887.001 558.584C885.636 554.669 883.441 551.095 880.566 548.106C877.691 545.118 874.205 542.786 870.345 541.27L869.033 540.748C858.91 536.753 847.234 538.569 839.221 545.946Z" fill="url(#paint12_linear_3762_865)"/>
<path d="M869.764 441.856C871.745 442.611 873.685 443.401 875.608 444.291C877.547 445.19 879.417 446.229 881.204 447.401C884.802 449.812 887.972 452.806 890.583 456.261C891.882 457.97 893.081 459.705 894.202 461.532C895.311 463.389 896.257 465.338 897.029 467.358C898.557 471.32 899.613 475.449 900.176 479.659C898.344 475.849 896.626 472.052 894.713 468.411C893.791 466.612 892.765 464.868 891.642 463.188C891.082 462.341 890.466 461.503 889.862 460.678C889.259 459.852 888.654 459.021 888.029 458.214C885.587 454.981 882.791 452.03 879.694 449.418C878.141 448.102 876.497 446.865 874.813 445.641C873.129 444.417 871.394 443.211 869.764 441.856Z" fill="#4AB087"/>
<path d="M907.033 443.466C926.244 443.466 941.817 427.893 941.817 408.683C941.817 389.473 926.244 373.9 907.033 373.9C887.823 373.9 872.25 389.473 872.25 408.683C872.25 427.893 887.823 443.466 907.033 443.466Z" fill="url(#paint13_linear_3762_865)"/>
<path d="M893.429 424.522C903.783 424.522 912.178 416.128 912.178 405.773C912.178 395.418 903.783 387.024 893.429 387.024C883.074 387.024 874.68 395.418 874.68 405.773C874.68 416.128 883.074 424.522 893.429 424.522Z" fill="url(#paint14_linear_3762_865)"/>
<path d="M887.928 402.607C888.952 400.024 888.361 397.367 886.608 396.672C884.856 395.977 882.605 397.507 881.581 400.09C880.557 402.672 881.147 405.329 882.9 406.024C884.653 406.719 886.904 405.189 887.928 402.607Z" fill="white"/>
<path d="M883.787 411.532C884.192 410.511 883.299 409.2 881.794 408.603C880.288 408.006 878.739 408.349 878.335 409.37C877.93 410.391 878.822 411.702 880.328 412.3C881.833 412.897 883.382 412.553 883.787 411.532Z" fill="white"/>
<path d="M893.425 424.522C903.78 424.522 912.174 416.128 912.174 405.773C912.174 395.418 903.78 387.024 893.425 387.024C883.07 387.024 874.676 395.418 874.676 405.773C874.676 416.128 883.07 424.522 893.425 424.522Z" fill="url(#paint15_linear_3762_865)"/>
<path d="M901.676 395.513C903.185 396.727 904.407 398.259 905.256 399.999C906.105 401.739 906.56 403.646 906.588 405.582" stroke="url(#paint16_linear_3762_865)" stroke-width="4.18" stroke-miterlimit="10" stroke-linecap="round"/>
<path d="M122.985 592.627C135.463 592.627 145.579 582.511 145.579 570.033C145.579 557.555 135.463 547.439 122.985 547.439C110.506 547.439 100.391 557.555 100.391 570.033C100.391 582.511 110.506 592.627 122.985 592.627Z" fill="url(#paint17_linear_3762_865)"/>
<path d="M122.982 579.812C128.382 579.812 132.76 575.434 132.76 570.033C132.76 564.632 128.382 560.254 122.982 560.254C117.581 560.254 113.203 564.632 113.203 570.033C113.203 575.434 117.581 579.812 122.982 579.812Z" fill="url(#paint18_linear_3762_865)"/>
<path d="M122.982 577.546C127.131 577.546 130.495 574.182 130.495 570.033C130.495 565.884 127.131 562.52 122.982 562.52C118.833 562.52 115.469 565.884 115.469 570.033C115.469 574.182 118.833 577.546 122.982 577.546Z" fill="url(#paint19_linear_3762_865)"/>
<path d="M100.403 570.709C100.775 583.18 100.929 591.991 113.368 592.922C137.374 594.738 145.941 581.827 145.568 569.357C145.196 556.886 136.035 545.854 113.382 547.734C101.252 548.742 100.03 558.225 100.403 570.709Z" fill="#282425"/>
<path d="M113.211 592.918C125.69 592.918 135.806 582.802 135.806 570.323C135.806 557.845 125.69 547.729 113.211 547.729C100.733 547.729 90.6172 557.845 90.6172 570.323C90.6172 582.802 100.733 592.918 113.211 592.918Z" fill="url(#paint20_linear_3762_865)"/>
<path d="M113.212 580.102C118.613 580.102 122.991 575.724 122.991 570.323C122.991 564.923 118.613 560.545 113.212 560.545C107.812 560.545 103.434 564.923 103.434 570.323C103.434 575.724 107.812 580.102 113.212 580.102Z" fill="url(#paint21_linear_3762_865)"/>
<path d="M113.212 577.837C117.362 577.837 120.726 574.473 120.726 570.323C120.726 566.174 117.362 562.81 113.212 562.81C109.063 562.81 105.699 566.174 105.699 570.323C105.699 574.473 109.063 577.837 113.212 577.837Z" fill="url(#paint22_linear_3762_865)"/>
<path d="M145.81 553.3C146.956 555.488 147.724 557.855 148.08 560.3C148.139 560.709 148.11 561.127 147.997 561.524C147.883 561.922 147.687 562.292 147.421 562.608C147.155 562.925 146.825 563.182 146.452 563.362C146.08 563.543 145.674 563.642 145.26 563.655L100.349 565.017C99.9355 565.03 99.524 564.955 99.1414 564.798C98.7588 564.64 98.4139 564.404 98.1292 564.104C97.8445 563.803 97.6265 563.447 97.4896 563.056C97.3526 562.666 97.2998 562.251 97.3346 561.839C97.5797 559.01 98.7374 554.575 102.832 549.509C105.116 546.703 107.98 544.423 111.227 542.826C114.474 541.229 118.028 540.353 121.645 540.257L122.88 540.216C132.381 539.907 141.429 544.869 145.81 553.3Z" fill="url(#paint23_linear_3762_865)"/>
<path d="M145.81 553.3C146.956 555.488 147.724 557.855 148.08 560.3C148.139 560.709 148.11 561.127 147.997 561.524C147.883 561.922 147.687 562.292 147.421 562.608C147.155 562.925 146.825 563.182 146.452 563.362C146.08 563.543 145.674 563.642 145.26 563.655L100.349 565.017C99.9355 565.03 99.524 564.955 99.1414 564.798C98.7588 564.64 98.4139 564.404 98.1292 564.104C97.8445 563.804 97.6265 563.447 97.4896 563.056C97.3526 562.666 97.2998 562.251 97.3346 561.839C97.5797 559.011 98.7374 554.575 102.832 549.509C107.426 543.816 106.659 540.765 113.973 540.548L122.88 540.216C131.954 539.921 141.429 544.869 145.81 553.3Z" fill="#76C2D3"/>
<path d="M135.103 553.617C136.249 555.807 137.017 558.176 137.373 560.622C137.432 561.032 137.404 561.449 137.29 561.847C137.177 562.245 136.981 562.614 136.714 562.931C136.448 563.247 136.118 563.504 135.746 563.685C135.374 563.865 134.967 563.965 134.554 563.977L89.6378 565.339C89.2245 565.352 88.8132 565.277 88.4308 565.12C88.0484 564.963 87.7037 564.726 87.4194 564.426C87.135 564.126 86.9175 563.769 86.7811 563.378C86.6447 562.988 86.5925 562.573 86.628 562.161C86.8731 559.333 88.0307 554.898 92.1256 549.831C94.4095 547.024 97.2729 544.744 100.52 543.146C103.767 541.549 107.321 540.671 110.938 540.575L112.173 540.538C121.679 540.225 130.722 545.187 135.103 553.617Z" fill="url(#paint24_linear_3762_865)"/>
<path d="M129.781 313.571C146.578 324.87 179.663 354.011 143.096 390.142L116.152 358.228C116.152 358.228 133.989 347.61 124.696 317.371C124.488 316.706 124.491 315.993 124.705 315.33C124.919 314.667 125.334 314.086 125.892 313.669C126.45 313.252 127.124 313.019 127.821 313.001C128.517 312.983 129.202 313.182 129.781 313.571Z" fill="url(#paint25_linear_3762_865)"/>
<path d="M149.522 519.638C153.785 519.374 171.145 517.477 184.601 503.785L186.385 498.682L181.881 494.179L180.61 499.077C180.61 499.077 167.658 512.206 149.804 513.368C149.296 513.395 148.804 513.551 148.374 513.822L147.738 514.235C147.325 514.505 146.987 514.874 146.754 515.308C146.521 515.743 146.402 516.229 146.406 516.722C146.411 517.215 146.539 517.699 146.78 518.129C147.021 518.559 147.366 518.922 147.783 519.184C148.302 519.511 148.91 519.67 149.522 519.638Z" fill="url(#paint26_linear_3762_865)"/>
<path d="M179.108 500.811C180.841 502.289 182.851 503.405 185.022 504.094C187.192 504.783 189.479 505.032 191.746 504.824C194.239 504.575 196.531 503.753 197.489 501.765C199.223 498.187 195.015 497.543 195.015 497.543C195.015 497.543 201.62 491.346 193.199 490.07C193.199 490.07 197.139 482.584 189.74 484.546C182.34 486.507 181.164 490.901 181.164 490.901C181.164 490.901 176.974 484.037 172.897 486.443C168.821 488.849 173.251 496.036 176.888 498.991C177.682 499.636 178.427 500.253 179.108 500.811Z" fill="url(#paint27_linear_3762_865)"/>
<path d="M194.997 497.543C194.584 497.962 194.115 498.323 193.603 498.614C193.094 498.917 192.554 499.163 191.992 499.35C191.422 499.528 190.831 499.63 190.235 499.654C189.64 499.669 189.048 499.563 188.496 499.34C189.065 499.35 189.635 499.315 190.198 499.236C190.75 499.136 191.294 499.001 191.828 498.832C192.908 498.464 193.967 498.033 194.997 497.543Z" fill="#6D9FCC"/>
<path d="M193.181 490.07C192.761 490.647 192.273 491.171 191.729 491.632C191.191 492.102 190.614 492.524 190.004 492.894C189.704 493.085 189.386 493.248 189.073 493.421C188.76 493.593 188.428 493.734 188.088 493.847C187.426 494.111 186.736 494.296 186.031 494.401C186.667 494.079 187.302 493.797 187.915 493.466C188.528 493.135 189.136 492.803 189.731 492.436C190.911 491.718 192.046 490.915 193.181 490.07Z" fill="#6D9FCC"/>
<path d="M153.443 382.915L160.575 392.448C160.674 392.582 160.741 392.737 160.772 392.901C160.803 393.064 160.796 393.233 160.753 393.394C160.709 393.554 160.629 393.703 160.52 393.829C160.411 393.954 160.274 394.054 160.121 394.119L150.52 398.386L153.443 382.915Z" fill="url(#paint28_linear_3762_865)"/>
<path d="M157.905 403.139L166.045 420.427C166.137 420.623 166.169 420.843 166.137 421.058C166.105 421.273 166.01 421.473 165.865 421.635C165.72 421.796 165.531 421.912 165.321 421.966C165.11 422.021 164.889 422.013 164.683 421.943L155 418.593L157.905 403.139Z" fill="url(#paint29_linear_3762_865)"/>
<path d="M158.546 424.526L163.453 440.828C163.513 441.023 163.517 441.231 163.465 441.428C163.414 441.625 163.309 441.804 163.161 441.946C163.014 442.087 162.831 442.184 162.632 442.227C162.432 442.27 162.225 442.258 162.033 442.19L155.641 439.979L158.546 424.526Z" fill="url(#paint30_linear_3762_865)"/>
<path d="M159.963 471.925L164.871 488.223C164.93 488.417 164.934 488.624 164.882 488.821C164.831 489.018 164.726 489.196 164.579 489.337C164.433 489.478 164.25 489.576 164.052 489.619C163.853 489.663 163.647 489.651 163.454 489.585L157.062 487.374L159.963 471.925Z" fill="url(#paint31_linear_3762_865)"/>
<path d="M157.214 521.966L149.996 509.223L158.867 510.204L159.28 521.381C159.291 521.629 159.218 521.874 159.072 522.075C158.927 522.276 158.718 522.423 158.479 522.49C158.24 522.558 157.985 522.543 157.755 522.448C157.526 522.353 157.335 522.183 157.214 521.966Z" fill="url(#paint32_linear_3762_865)"/>
<path d="M157.164 452.2L165.553 467.009C165.654 467.186 165.704 467.388 165.697 467.592C165.691 467.796 165.628 467.994 165.515 468.165C165.403 468.335 165.246 468.471 165.061 468.558C164.876 468.645 164.671 468.679 164.468 468.657L157.745 467.912L157.164 452.2Z" fill="url(#paint33_linear_3762_865)"/>
<path d="M13.8056 382.47L0.131959 405.813C-0.208519 406.399 0.131957 407.084 0.899169 407.307L14.6727 411.334L13.8056 382.47Z" fill="url(#paint34_linear_3762_865)"/>
<path d="M14.6774 411.547L1.29881 439.739C0.940172 440.492 1.68015 441.282 2.6925 441.219L15.5444 440.388L14.6774 411.547Z" fill="url(#paint35_linear_3762_865)"/>
<path d="M12.3371 450.943L14.5797 469.764L5.43215 466.586C5.29446 466.554 5.16472 466.495 5.05079 466.411C4.93687 466.327 4.84114 466.221 4.7694 466.099C4.69766 465.977 4.65141 465.842 4.63346 465.702C4.6155 465.562 4.62621 465.419 4.66494 465.284L12.3371 450.943Z" fill="url(#paint36_linear_3762_865)"/>
<path d="M14.6969 473.682L16.245 500.693L6.04422 500.48C5.16806 500.48 4.54158 499.813 4.74586 499.118L14.6969 473.682Z" fill="url(#paint37_linear_3762_865)"/>
<path d="M16.591 512.279L23.8909 530.211L12.8594 528.626L16.591 512.279Z" fill="url(#paint38_linear_3762_865)"/>
<path d="M72.1926 559.574L103.462 558.635C136.156 557.653 161.864 530.353 160.883 497.659L157.995 401.501C157.013 368.806 129.713 343.098 97.0189 344.08L65.7498 345.019C33.0554 346.001 7.34726 373.301 8.32903 405.995L11.2165 502.153C12.1983 534.847 39.4982 560.556 72.1926 559.574Z" fill="url(#paint39_linear_3762_865)"/>
<mask id="mask1_3762_865" style="mask-type:luminance" maskUnits="userSpaceOnUse" x="8" y="344" width="153" height="216">
<path d="M72.1887 559.574L103.458 558.635C136.152 557.653 161.86 530.353 160.879 497.659L157.991 401.501C157.009 368.806 129.709 343.098 97.015 344.08L65.7459 345.019C33.0515 346.001 7.34336 373.301 8.32513 405.995L11.2126 502.153C12.1944 534.847 39.4943 560.555 72.1887 559.574Z" fill="white"/>
</mask>
<g mask="url(#mask1_3762_865)">
<path d="M16.4414 367.684C39.9526 343.024 65.0845 345.026 82.4307 344.504L116.306 343.492C133.625 342.974 149.446 350.715 160.405 363.317L160.341 363.376L152.678 378.452C152.024 379.824 151.005 380.988 149.732 381.819C148.46 382.649 146.983 383.113 145.465 383.16C143.946 383.207 142.444 382.835 141.122 382.085C139.801 381.334 138.712 380.235 137.974 378.906L133.194 370.735C132.881 370.169 132.419 369.7 131.857 369.379C131.295 369.059 130.656 368.899 130.009 368.919C129.363 368.938 128.734 369.135 128.192 369.488C127.65 369.841 127.216 370.337 126.938 370.921L122.653 379.36C121.998 380.732 120.979 381.896 119.707 382.727C118.434 383.557 116.958 384.021 115.439 384.068C113.92 384.115 112.418 383.743 111.097 382.993C109.775 382.242 108.686 381.143 107.948 379.814L103.164 371.643C102.851 371.078 102.388 370.61 101.827 370.29C101.265 369.971 100.627 369.812 99.9813 369.831C99.3356 369.85 98.7077 370.047 98.1664 370.399C97.6251 370.752 97.1913 371.246 96.9124 371.829L92.6269 380.268C91.9726 381.64 90.9533 382.804 89.6808 383.635C88.4084 384.465 86.9319 384.929 85.4132 384.976C83.8945 385.023 82.3921 384.651 81.0709 383.9C79.7497 383.15 78.6605 382.051 77.9228 380.722L73.1379 372.551C72.8249 371.986 72.3624 371.518 71.8011 371.198C71.2397 370.879 70.6013 370.72 69.9556 370.739C69.31 370.758 68.6821 370.955 68.1407 371.307C67.5994 371.66 67.1656 372.154 66.8867 372.737L62.6012 381.172C54.1029 397.469 16.4414 367.684 16.4414 367.684Z" fill="url(#paint40_linear_3762_865)"/>
<path opacity="0.2" d="M16.4414 367.684C44.5422 343.279 66.4464 346.388 83.7972 345.866L117.668 344.854C134.987 344.332 150.831 352.077 161.767 364.679L161.703 364.738L154.04 379.814C153.387 381.186 152.368 382.351 151.096 383.181C149.824 384.012 148.347 384.476 146.829 384.523C145.31 384.57 143.808 384.198 142.487 383.447C141.166 382.697 140.078 381.597 139.341 380.268L134.556 372.097C134.242 371.532 133.778 371.065 133.216 370.746C132.654 370.427 132.016 370.268 131.37 370.288C130.724 370.308 130.096 370.505 129.555 370.857C129.013 371.21 128.579 371.705 128.3 372.287L124.015 380.722C123.361 382.094 122.342 383.259 121.07 384.089C119.798 384.92 118.322 385.384 116.803 385.431C115.285 385.478 113.782 385.106 112.462 384.355C111.141 383.605 110.052 382.505 109.315 381.176L104.53 373.005C104.216 372.44 103.753 371.973 103.191 371.654C102.629 371.335 101.99 371.176 101.344 371.196C100.698 371.216 100.07 371.413 99.5289 371.765C98.9875 372.118 98.5535 372.613 98.2743 373.195L93.9888 381.63C93.3352 383.002 92.3165 384.167 91.0444 384.997C89.7723 385.828 88.296 386.292 86.7774 386.339C85.2589 386.386 83.7568 386.014 82.4359 385.263C81.1149 384.512 80.0263 383.413 79.2892 382.084L74.5044 373.913C74.1903 373.348 73.7269 372.881 73.165 372.562C72.6031 372.243 71.9643 372.084 71.3185 372.104C70.6726 372.124 70.0446 372.321 69.5032 372.673C68.9618 373.026 68.5278 373.521 68.2486 374.103L63.9631 382.534C56.9447 397.932 16.4414 367.684 16.4414 367.684Z" fill="url(#paint41_linear_3762_865)"/>
</g>
<path d="M39.3441 572.534C39.7163 585.009 39.8707 593.817 52.3095 594.752C76.3155 596.545 84.882 583.657 84.5052 571.182C84.1284 558.706 74.9718 547.679 52.3231 549.563C40.193 550.567 38.9718 560.064 39.3441 572.534Z" fill="#282425"/>
<path d="M52.1528 594.747C64.6312 594.747 74.7469 584.631 74.7469 572.153C74.7469 559.675 64.6312 549.559 52.1528 549.559C39.6743 549.559 29.5586 559.675 29.5586 572.153C29.5586 584.631 39.6743 594.747 52.1528 594.747Z" fill="url(#paint42_linear_3762_865)"/>
<path d="M52.1536 581.932C57.5541 581.932 61.9321 577.553 61.9321 572.153C61.9321 566.752 57.5541 562.374 52.1536 562.374C46.753 562.374 42.375 566.752 42.375 572.153C42.375 577.553 46.753 581.932 52.1536 581.932Z" fill="url(#paint43_linear_3762_865)"/>
<path d="M52.1539 579.666C56.3033 579.666 59.6671 576.302 59.6671 572.153C59.6671 568.004 56.3033 564.64 52.1539 564.64C48.0044 564.64 44.6406 568.004 44.6406 572.153C44.6406 576.302 48.0044 579.666 52.1539 579.666Z" fill="url(#paint44_linear_3762_865)"/>
<path d="M17.3672 504.697C17.3672 504.697 44.4466 526.719 72.6609 514.412" stroke="url(#paint45_linear_3762_865)" stroke-width="6" stroke-linecap="round" stroke-linejoin="round"/>
<path d="M85.6773 555.097C86.8229 557.288 87.5904 559.656 87.9471 562.102C88.0054 562.511 87.9767 562.928 87.863 563.326C87.7492 563.724 87.5529 564.093 87.2869 564.409C87.0209 564.726 86.6911 564.983 86.3191 565.163C85.9471 565.344 85.5413 565.444 85.128 565.457L40.212 566.819C39.7987 566.832 39.3874 566.757 39.005 566.6C38.6226 566.442 38.2779 566.206 37.9936 565.906C37.7093 565.606 37.4917 565.248 37.3553 564.858C37.2189 564.468 37.1667 564.053 37.2022 563.641C37.4473 560.813 38.605 556.377 42.6998 551.311C47.294 545.618 46.5222 542.568 53.8357 542.35L62.7426 542.018C71.8266 541.719 81.2965 546.667 85.6773 555.097Z" fill="#76C2D3"/>
<path d="M74.9733 555.42C76.1214 557.607 76.8889 559.975 77.2432 562.42C77.3022 562.829 77.2741 563.247 77.1606 563.644C77.0471 564.042 76.8509 564.412 76.5847 564.728C76.3186 565.045 75.9885 565.302 75.6161 565.482C75.2438 565.663 74.8376 565.762 74.424 565.775L29.5126 567.137C29.0994 567.149 28.6882 567.074 28.3059 566.916C27.9237 566.759 27.579 566.522 27.2945 566.222C27.01 565.922 26.792 565.565 26.6547 565.175C26.5175 564.785 26.4642 564.371 26.4983 563.959C26.7479 561.131 27.901 556.695 32.0004 551.629C34.2799 548.813 37.1422 546.524 40.3905 544.92C43.6388 543.316 47.196 542.435 50.8175 542.336L52.0523 542.3C61.5494 542.027 70.6061 546.989 74.9733 555.42Z" fill="url(#paint46_linear_3762_865)"/>
<path d="M69.3971 512.719C70.2102 514.846 71.4403 516.789 73.0151 518.434C74.5899 520.079 76.4776 521.393 78.5673 522.298C80.8735 523.269 83.2795 523.66 85.0773 522.366C88.3095 520.051 84.9275 517.472 84.9275 517.472C84.9275 517.472 93.6936 515.202 86.9068 510.041C86.9068 510.041 93.9569 505.356 86.5209 503.535C79.0848 501.715 75.9524 504.997 75.9524 504.997C75.9524 504.997 75.562 496.966 70.8316 497.125C66.1013 497.284 66.5461 505.714 68.3257 510.05C68.7207 511.012 69.0793 511.92 69.3971 512.719Z" fill="url(#paint47_linear_3762_865)"/>
<path d="M84.9264 517.472C84.3615 517.64 83.7768 517.731 83.1877 517.744C82.5963 517.763 82.0044 517.721 81.4218 517.617C80.8368 517.5 80.2692 517.307 79.733 517.045C79.2068 516.773 78.743 516.394 78.3711 515.933C78.8643 516.217 79.3806 516.458 79.9146 516.655C80.4454 516.843 80.9884 516.995 81.5398 517.109C82.661 517.294 83.7916 517.415 84.9264 517.472Z" fill="#6D9FCC"/>
<path d="M86.9071 510.041C86.2628 510.345 85.5847 510.572 84.887 510.717C84.1898 510.872 83.4804 510.966 82.7669 510.998C82.4128 510.998 82.0542 510.998 81.7001 510.998C81.346 510.998 80.9828 510.967 80.6332 510.903C79.9244 510.819 79.228 510.651 78.5586 510.404C79.2713 510.404 79.9659 510.485 80.6605 510.485C81.3551 510.485 82.0496 510.485 82.7397 510.449C84.1288 510.399 85.5044 510.236 86.9071 510.041Z" fill="#6D9FCC"/>
<path d="M27.5036 316.853C11.433 329.11 -19.8684 360.203 18.7964 394.083L33.5323 379.61L43.7784 360.616C43.7784 360.616 25.3381 351.082 32.8059 320.339C32.9736 319.664 32.9273 318.952 32.6735 318.304C32.4197 317.655 31.9709 317.102 31.3891 316.719C30.8072 316.336 30.121 316.144 29.425 316.168C28.729 316.192 28.0577 316.431 27.5036 316.853Z" fill="url(#paint48_linear_3762_865)"/>
<path d="M15.6176 384.427C18.8125 384.538 21.998 384.018 24.9921 382.898C27.9862 381.778 30.7304 380.079 33.068 377.898C35.4055 375.718 37.2906 373.098 38.6156 370.189C39.9406 367.279 40.6796 364.138 40.7903 360.943C40.813 360.225 40.7903 359.513 40.7903 358.809C40.7715 358.339 40.8929 357.875 41.1392 357.475C41.3854 357.074 41.7454 356.756 42.1731 356.562C42.6007 356.367 43.0768 356.304 43.5404 356.381C44.004 356.458 44.4343 356.671 44.7762 356.993C47.343 359.366 49.3673 362.265 50.7109 365.493C52.0546 368.72 52.6859 372.199 52.5618 375.692C52.4511 378.887 51.7121 382.029 50.3871 384.938C49.0621 387.847 47.177 390.467 44.8394 392.648C42.5019 394.829 39.7577 396.528 36.7636 397.648C33.7694 398.768 30.584 399.287 27.3891 399.176C23.25 399.034 19.2158 397.837 15.6686 395.699C12.1214 393.561 9.17873 390.553 7.11927 386.96C6.89118 386.55 6.78988 386.082 6.82825 385.615C6.86662 385.148 7.04292 384.703 7.33478 384.336C7.62663 383.969 8.02088 383.698 8.46747 383.555C8.91407 383.413 9.39287 383.407 9.8431 383.537C11.725 384.065 13.6639 384.364 15.6176 384.427Z" fill="url(#paint49_linear_3762_865)"/>
<path d="M132.811 484.096C143.489 484.096 152.146 475.44 152.146 464.761C152.146 454.083 143.489 445.427 132.811 445.427C122.133 445.427 113.477 454.083 113.477 464.761C113.477 475.44 122.133 484.096 132.811 484.096Z" fill="url(#paint50_linear_3762_865)"/>
<path d="M139.308 472.538C145.183 472.538 149.945 467.776 149.945 461.901C149.945 456.027 145.183 451.265 139.308 451.265C133.434 451.265 128.672 456.027 128.672 461.901C128.672 467.776 133.434 472.538 139.308 472.538Z" fill="url(#paint51_linear_3762_865)"/>
<path d="M138.12 455.296C136.92 455.463 135.785 455.942 134.829 456.685C133.873 457.429 133.129 458.41 132.672 459.532" stroke="white" stroke-width="3.13" stroke-miterlimit="10" stroke-linecap="round"/>
<path d="M70.6745 485.957C81.3527 485.957 90.0091 477.301 90.0091 466.623C90.0091 455.944 81.3527 447.288 70.6745 447.288C59.9963 447.288 51.3398 455.944 51.3398 466.623C51.3398 477.301 59.9963 485.957 70.6745 485.957Z" fill="url(#paint52_linear_3762_865)"/>
<path d="M77.5077 474.39C83.3821 474.39 88.1442 469.628 88.1442 463.754C88.1442 457.879 83.3821 453.117 77.5077 453.117C71.6332 453.117 66.8711 457.879 66.8711 463.754C66.8711 469.628 71.6332 474.39 77.5077 474.39Z" fill="url(#paint53_linear_3762_865)"/>
<path d="M76.7602 457.135C75.5603 457.3 74.4251 457.779 73.4689 458.523C72.5126 459.266 71.7689 460.248 71.3125 461.37" stroke="white" stroke-width="3.13" stroke-miterlimit="10" stroke-linecap="round"/>
<path d="M88.6368 483.261C87.688 493.339 121.454 492.34 119.906 482.326C118.567 473.7 111.363 465.134 103.75 465.365C96.1364 465.597 89.454 474.576 88.6368 483.261Z" fill="url(#paint54_linear_3762_865)"/>
<path d="M112.609 488.441C115.511 487.006 117.062 484.224 116.075 482.229C115.088 480.233 111.936 479.779 109.034 481.214C106.133 482.649 104.581 485.43 105.569 487.426C106.556 489.422 109.708 489.876 112.609 488.441Z" fill="#1E2C49"/>
<path d="M103.5 487.727C104.24 485.627 102.365 483.053 99.3125 481.977C96.2597 480.902 93.1851 481.732 92.4452 483.832C91.7053 485.932 93.5803 488.506 96.6332 489.582C99.686 490.657 102.761 489.827 103.5 487.727Z" fill="#1E2C49"/>
<g opacity="0.3">
<path d="M121.452 429.856C131.357 428.562 139.234 432.752 144.908 436.838C146.647 438.091 149.335 435.567 148.322 433.76L146.629 432.234C141.721 423.468 132.147 419.21 123.762 424.748L119.282 425.239C118.047 427.164 119.341 430.128 121.452 429.856Z" fill="url(#paint55_linear_3762_865)"/>
</g>
<path d="M121.181 428.616C131.5 427.445 139.486 431.562 145.051 436.252C145.418 436.557 145.877 436.729 146.354 436.739C146.831 436.748 147.297 436.596 147.677 436.307C148.056 436.017 148.325 435.608 148.441 435.145C148.557 434.682 148.513 434.194 148.315 433.76L147.158 431.19C146.114 428.868 144.579 426.8 142.659 425.128C140.739 423.456 138.479 422.221 136.036 421.507C133.592 420.793 131.022 420.617 128.504 420.991C125.986 421.366 123.579 422.282 121.449 423.677L119.806 424.753C119.411 425.013 119.115 425.398 118.965 425.846C118.815 426.294 118.819 426.779 118.978 427.224C119.136 427.669 119.44 428.049 119.839 428.301C120.239 428.553 120.711 428.664 121.181 428.616Z" fill="url(#paint56_linear_3762_865)"/>
<g opacity="0.3">
<path d="M79.938 431.113C69.9779 430.414 62.3602 435.067 56.9443 439.484C55.2828 440.846 52.45 438.481 53.3534 436.615L54.9514 434.995C59.3277 425.951 68.625 421.126 77.3277 426.151L81.8311 426.374C83.1703 428.208 82.0626 431.245 79.938 431.113Z" fill="url(#paint57_linear_3762_865)"/>
</g>
<path d="M80.1395 429.847C69.7708 429.293 62.0442 433.882 56.7735 438.899C56.4245 439.223 55.976 439.419 55.5012 439.456C55.0264 439.493 54.553 439.368 54.158 439.102C53.763 438.836 53.4696 438.444 53.3255 437.99C53.1814 437.536 53.195 437.047 53.3642 436.602L54.363 433.969C55.2664 431.589 56.675 429.433 58.4918 427.649C60.3085 425.866 62.4903 424.498 64.8867 423.638C67.2831 422.779 69.8373 422.45 72.3733 422.673C74.9093 422.896 77.3668 423.666 79.5765 424.93L81.2835 425.906C81.6942 426.141 82.014 426.508 82.1913 426.947C82.3686 427.386 82.3933 427.872 82.2613 428.326C82.1293 428.781 81.8483 429.178 81.4635 429.454C81.0787 429.729 80.6124 429.868 80.1395 429.847Z" fill="url(#paint58_linear_3762_865)"/>
<mask id="mask2_3762_865" style="mask-type:luminance" maskUnits="userSpaceOnUse" x="88" y="500" width="34" height="16">
<path d="M90.3356 501.778C90.0635 501.762 89.7916 501.812 89.5429 501.924C89.2942 502.035 89.0762 502.205 88.9073 502.419C88.7384 502.633 88.6236 502.885 88.5727 503.152C88.5219 503.42 88.5364 503.696 88.615 503.957C89.9769 508.601 94.1308 516.464 106.247 515.838C111.586 515.561 115.672 513.727 118.386 510.39C120.597 507.666 121.492 504.434 121.85 502.028C121.891 501.754 121.865 501.475 121.773 501.214C121.68 500.953 121.525 500.719 121.321 500.532C121.117 500.345 120.87 500.211 120.603 500.142C120.335 500.072 120.054 500.07 119.785 500.135C115.547 501.135 111.227 501.743 106.878 501.951C101.365 502.193 95.8426 502.136 90.3356 501.778Z" fill="white"/>
</mask>
<g mask="url(#mask2_3762_865)">
<path d="M94.6264 513.654C94.6264 513.654 101.277 516.891 101.967 516.632C102.657 516.373 108.604 516.287 108.604 516.287L112.753 515.175L116.508 513.191L119.84 509.886L121.76 506.432L122.005 504.402L88.9336 506.123L90.9356 510.045L94.6264 513.654Z" fill="url(#paint59_radial_3762_865)"/>
<path d="M105.28 516.787C108.099 516.632 114.908 514.036 114.908 514.036L114.654 512.742C114.032 510.431 111.772 508.779 108.712 508.937C105.293 509.114 102.27 511.484 102.415 514.217C102.474 515.162 102.846 516.06 103.473 516.768C104.074 516.818 104.678 516.824 105.28 516.787Z" fill="url(#paint60_linear_3762_865)"/>
<path d="M91.1016 503.054L94.234 510.372C94.3653 510.68 94.5888 510.94 94.8737 511.117C95.1586 511.293 95.491 511.377 95.8255 511.357C96.16 511.337 96.4802 511.215 96.7422 511.006C97.0042 510.797 97.1953 510.512 97.2892 510.19L99.4546 502.804L91.1016 503.054Z" fill="url(#paint61_linear_3762_865)"/>
<path d="M110.004 502.486L113.136 509.804C113.268 510.113 113.491 510.373 113.776 510.549C114.061 510.726 114.393 510.81 114.728 510.79C115.062 510.77 115.383 510.647 115.645 510.438C115.907 510.229 116.098 509.945 116.192 509.623L118.357 502.237L110.004 502.486Z" fill="url(#paint62_linear_3762_865)"/>
<path d="M89.0995 506.114L121.177 504.448L122.085 502.414L122.203 500.916C122.224 500.65 122.183 500.384 122.082 500.138C121.98 499.892 121.822 499.673 121.621 499.499C121.419 499.326 121.179 499.203 120.92 499.139C120.662 499.076 120.392 499.075 120.133 499.136L116.501 499.994L110.563 501.025L103.454 501.392L94.3201 501.147L90.0755 500.693C89.8045 500.664 89.5304 500.701 89.2768 500.801C89.0232 500.901 88.7975 501.061 88.6191 501.267C88.4406 501.473 88.3147 501.719 88.2522 501.985C88.1896 502.25 88.1921 502.527 88.2596 502.791L89.0995 506.114Z" fill="white"/>
</g>
<path d="M325.724 438.727L328.725 255.908C328.741 254.879 328.552 253.857 328.17 252.902C327.788 251.947 327.219 251.077 326.498 250.344C325.776 249.611 324.916 249.028 323.967 248.63C323.018 248.232 322 248.027 320.971 248.027H282.524C281.339 248.027 280.17 248.299 279.107 248.821C278.044 249.344 277.115 250.103 276.391 251.041L120.824 452.314C119.774 453.671 119.204 455.338 119.203 457.053V510.459C119.203 512.515 120.02 514.487 121.474 515.941C122.928 517.396 124.901 518.213 126.957 518.213H248.022C249.053 518.212 250.074 518.418 251.025 518.817C251.975 519.217 252.837 519.802 253.559 520.538C254.28 521.275 254.848 522.148 255.228 523.106C255.608 524.065 255.793 525.09 255.771 526.121L254.791 574.759C254.768 575.792 254.952 576.819 255.331 577.78C255.711 578.741 256.279 579.616 257.002 580.354C257.725 581.092 258.588 581.678 259.54 582.078C260.493 582.477 261.516 582.682 262.549 582.681H322.401C324.456 582.681 326.428 581.865 327.882 580.412C329.336 578.958 330.153 576.987 330.155 574.932V521.545C330.155 520.516 330.359 519.498 330.756 518.549C331.154 517.601 331.736 516.741 332.469 516.02C333.202 515.298 334.072 514.73 335.026 514.348C335.981 513.966 337.003 513.779 338.031 513.795L362.645 514.19C363.674 514.207 364.695 514.019 365.65 513.637C366.605 513.255 367.474 512.687 368.207 511.966C368.94 511.245 369.523 510.385 369.92 509.436C370.317 508.488 370.522 507.469 370.522 506.441V454.357C370.521 452.301 369.703 450.33 368.249 448.877C366.795 447.424 364.824 446.608 362.768 446.608H333.478C332.449 446.607 331.43 446.402 330.482 446.004C329.533 445.606 328.672 445.024 327.951 444.29C327.229 443.557 326.661 442.687 326.278 441.732C325.896 440.777 325.708 439.755 325.724 438.727ZM254.133 451.892L203.878 450.398C201.863 450.338 199.95 449.495 198.546 448.049C197.141 446.602 196.356 444.665 196.356 442.649C196.357 440.783 197.031 438.979 198.253 437.569L248.508 379.601C253.206 374.181 262.127 377.504 262.127 384.681V444.152C262.128 445.19 261.919 446.219 261.515 447.176C261.11 448.132 260.517 448.998 259.772 449.721C259.026 450.444 258.142 451.011 257.174 451.386C256.205 451.761 255.171 451.938 254.133 451.905V451.892Z" fill="#FFDE71"/>
<path d="M316.626 437.787L319.622 254.963C319.639 253.935 319.451 252.914 319.069 251.959C318.688 251.004 318.119 250.135 317.398 249.402C316.677 248.668 315.817 248.086 314.868 247.689C313.92 247.292 312.902 247.087 311.873 247.087H273.444C272.26 247.087 271.091 247.358 270.028 247.88C268.965 248.401 268.036 249.16 267.311 250.097L111.722 451.406C110.673 452.764 110.105 454.43 110.105 456.146V509.555C110.105 510.573 110.306 511.581 110.696 512.522C111.086 513.462 111.657 514.317 112.377 515.036C113.097 515.756 113.952 516.327 114.892 516.716C115.833 517.105 116.841 517.305 117.859 517.305H238.943C239.969 517.309 240.985 517.518 241.93 517.918C242.876 518.318 243.733 518.902 244.451 519.636C245.168 520.37 245.734 521.24 246.113 522.194C246.492 523.148 246.678 524.168 246.66 525.195L245.675 573.838C245.654 574.868 245.84 575.893 246.22 576.851C246.6 577.81 247.168 578.682 247.889 579.419C248.611 580.155 249.472 580.74 250.422 581.14C251.373 581.539 252.393 581.746 253.424 581.746H313.303C314.322 581.745 315.331 581.544 316.272 581.153C317.213 580.762 318.068 580.19 318.788 579.468C319.508 578.747 320.078 577.891 320.467 576.949C320.855 576.007 321.054 574.997 321.052 573.978V520.609C321.053 519.581 321.258 518.563 321.655 517.614C322.053 516.666 322.635 515.806 323.368 515.084C324.101 514.363 324.97 513.794 325.925 513.412C326.879 513.029 327.9 512.84 328.929 512.856L353.543 513.255C354.572 513.271 355.593 513.083 356.548 512.7C357.503 512.318 358.372 511.75 359.105 511.028C359.838 510.306 360.421 509.446 360.818 508.497C361.215 507.548 361.42 506.53 361.42 505.501V453.422C361.42 451.366 360.603 449.395 359.15 447.941C357.697 446.487 355.726 445.669 353.67 445.668H324.376C323.347 445.668 322.328 445.463 321.379 445.066C320.43 444.668 319.57 444.085 318.849 443.352C318.128 442.618 317.559 441.748 317.178 440.793C316.796 439.837 316.609 438.816 316.626 437.787ZM245.035 450.952L194.78 449.459C192.765 449.399 190.851 448.557 189.447 447.11C188.042 445.663 187.257 443.726 187.258 441.709C187.258 439.845 187.93 438.043 189.151 436.634L239.397 378.68C244.1 373.259 253.016 376.582 253.016 383.755V443.225C253.013 444.261 252.803 445.286 252.398 446.238C251.993 447.191 251.401 448.054 250.657 448.774C249.913 449.494 249.032 450.058 248.066 450.432C247.101 450.806 246.07 450.983 245.035 450.952Z" fill="#FCBB2E"/>
<path d="M825.675 440.511L828.898 243.9C828.917 242.794 828.715 241.695 828.304 240.667C827.894 239.64 827.283 238.704 826.507 237.915C825.731 237.126 824.806 236.5 823.785 236.072C822.765 235.645 821.669 235.424 820.563 235.425H779.215C777.941 235.425 776.684 235.718 775.541 236.279C774.397 236.841 773.398 237.658 772.619 238.666L605.317 455.133C604.189 456.593 603.578 458.386 603.578 460.231V517.663C603.578 518.758 603.793 519.842 604.211 520.854C604.63 521.866 605.244 522.785 606.018 523.56C606.792 524.334 607.711 524.949 608.722 525.368C609.734 525.787 610.818 526.003 611.913 526.003H742.108C743.216 526.002 744.314 526.223 745.336 526.653C746.359 527.082 747.285 527.711 748.061 528.503C748.838 529.295 749.448 530.234 749.857 531.264C750.266 532.295 750.465 533.397 750.442 534.506L749.389 586.817C749.367 587.925 749.566 589.027 749.975 590.058C750.384 591.089 750.994 592.027 751.77 592.819C752.547 593.611 753.473 594.24 754.495 594.669C755.518 595.099 756.615 595.32 757.724 595.32H822.102C824.312 595.32 826.432 594.442 827.996 592.878C829.559 591.315 830.437 589.195 830.437 586.985V529.553C830.437 528.447 830.658 527.352 831.085 526.332C831.513 525.312 832.139 524.387 832.927 523.612C833.716 522.836 834.65 522.225 835.677 521.814C836.704 521.403 837.802 521.2 838.908 521.218L865.379 521.645C866.485 521.663 867.583 521.46 868.61 521.05C869.637 520.639 870.571 520.028 871.359 519.252C872.147 518.476 872.773 517.551 873.2 516.531C873.627 515.511 873.846 514.416 873.846 513.31V457.308C873.846 455.097 872.967 452.977 871.404 451.414C869.841 449.851 867.721 448.973 865.511 448.973H834.01C832.904 448.973 831.81 448.753 830.79 448.326C829.771 447.9 828.846 447.274 828.071 446.487C827.295 445.699 826.684 444.765 826.272 443.739C825.861 442.713 825.658 441.616 825.675 440.511ZM748.686 454.679L694.663 453.072C692.496 453.01 690.438 452.104 688.927 450.549C687.417 448.993 686.572 446.91 686.573 444.742C686.576 442.74 687.299 440.806 688.612 439.294L742.634 376.955C747.687 371.121 757.266 374.685 757.266 382.402V446.344C757.264 447.458 757.038 448.561 756.603 449.586C756.168 450.611 755.532 451.539 754.732 452.315C753.932 453.09 752.985 453.697 751.946 454.1C750.908 454.503 749.799 454.694 748.686 454.661V454.679Z" fill="#FFDE71"/>
<path d="M816.628 438.618L819.851 242.007C819.87 240.901 819.668 239.802 819.257 238.774C818.847 237.747 818.236 236.811 817.46 236.022C816.684 235.233 815.759 234.607 814.739 234.179C813.718 233.752 812.623 233.531 811.516 233.531H770.168C768.894 233.532 767.637 233.824 766.494 234.386C765.35 234.948 764.351 235.765 763.572 236.773L596.27 453.222C595.142 454.682 594.531 456.475 594.531 458.32V515.752C594.531 516.847 594.746 517.931 595.164 518.943C595.583 519.955 596.197 520.874 596.971 521.649C597.745 522.423 598.664 523.037 599.675 523.457C600.687 523.876 601.771 524.091 602.866 524.091H733.065C734.174 524.092 735.271 524.313 736.293 524.743C737.315 525.173 738.24 525.802 739.016 526.593C739.792 527.385 740.402 528.324 740.81 529.354C741.219 530.385 741.418 531.486 741.396 532.594L740.342 584.901C740.319 586.01 740.518 587.112 740.927 588.144C741.335 589.175 741.946 590.114 742.722 590.907C743.498 591.699 744.425 592.328 745.447 592.758C746.47 593.187 747.568 593.409 748.677 593.408H813.055C815.266 593.408 817.386 592.53 818.949 590.967C820.512 589.404 821.39 587.284 821.39 585.073V527.673C821.39 526.567 821.61 525.472 822.037 524.452C822.464 523.432 823.091 522.507 823.879 521.731C824.668 520.955 825.603 520.344 826.63 519.933C827.657 519.523 828.755 519.32 829.861 519.338L856.332 519.765C857.438 519.783 858.537 519.581 859.564 519.17C860.591 518.759 861.526 518.148 862.314 517.373C863.102 516.597 863.729 515.672 864.156 514.652C864.583 513.631 864.803 512.536 864.803 511.43V455.424C864.802 453.213 863.923 451.093 862.359 449.53C860.795 447.967 858.675 447.089 856.464 447.089H824.963C823.857 447.089 822.761 446.869 821.741 446.442C820.721 446.014 819.796 445.388 819.02 444.6C818.245 443.811 817.633 442.876 817.223 441.849C816.812 440.822 816.61 439.724 816.628 438.618ZM739.639 452.768L685.616 451.161C683.449 451.098 681.391 450.193 679.881 448.638C678.37 447.082 677.525 444.999 677.526 442.831C677.529 440.829 678.252 438.895 679.565 437.383L733.587 375.044C738.64 369.21 748.223 372.774 748.223 380.491V444.433C748.223 445.549 747.999 446.653 747.565 447.681C747.13 448.708 746.494 449.638 745.693 450.415C744.893 451.193 743.944 451.801 742.904 452.205C741.864 452.609 740.754 452.801 739.639 452.768Z" fill="#FCBB2E"/>
<path d="M484.084 203.379C410.468 203.379 350.789 268.692 350.789 349.262C350.789 429.833 410.486 495.151 484.084 495.151C557.682 495.151 617.379 429.833 617.379 349.262C617.379 268.692 557.718 203.379 484.084 203.379ZM484.084 421.934C450.2 421.934 422.73 389.398 422.73 349.262C422.73 309.127 450.2 276.591 484.084 276.591C517.969 276.591 545.438 309.127 545.438 349.262C545.438 389.398 517.987 421.934 484.084 421.934Z" fill="#FFDE71"/>
<path d="M475.212 203.379C401.596 203.379 341.922 268.692 341.922 349.262C341.922 429.833 401.596 495.151 475.212 495.151C548.828 495.151 608.508 429.833 608.508 349.262C608.508 268.692 548.828 203.379 475.212 203.379ZM475.212 421.934C441.328 421.934 413.863 389.398 413.863 349.262C413.863 309.127 441.328 276.591 475.212 276.591C509.097 276.591 536.567 309.127 536.567 349.262C536.567 389.398 509.097 421.934 475.212 421.934Z" fill="#FCBB2E"/>
<path d="M497.187 132.718C503.445 132.718 508.518 127.645 508.518 121.387C508.518 115.129 503.445 110.056 497.187 110.056C490.929 110.056 485.855 115.129 485.855 121.387C485.855 127.645 490.929 132.718 497.187 132.718Z" fill="url(#paint63_linear_3762_865)"/>
<path d="M501.926 115.077C503.5 116.321 504.61 118.059 505.076 120.011" stroke="white" stroke-width="3.22" stroke-miterlimit="10" stroke-linecap="round"/>
<path d="M472.137 231.295C482.492 231.295 490.887 222.9 490.887 212.545C490.887 202.19 482.492 193.795 472.137 193.795C461.781 193.795 453.387 202.19 453.387 212.545C453.387 222.9 461.781 231.295 472.137 231.295Z" fill="url(#paint64_linear_3762_865)"/>
<path d="M472.134 220.66C476.616 220.66 480.249 217.027 480.249 212.545C480.249 208.064 476.616 204.431 472.134 204.431C467.653 204.431 464.02 208.064 464.02 212.545C464.02 217.027 467.653 220.66 472.134 220.66Z" fill="url(#paint65_linear_3762_865)"/>
<path d="M472.134 218.777C475.576 218.777 478.367 215.987 478.367 212.545C478.367 209.103 475.576 206.313 472.134 206.313C468.693 206.313 465.902 209.103 465.902 212.545C465.902 215.987 468.693 218.777 472.134 218.777Z" fill="url(#paint66_linear_3762_865)"/>
<path d="M453.495 199.99C452.506 201.775 451.828 203.716 451.489 205.729C451.434 206.066 451.45 206.411 451.537 206.742C451.624 207.073 451.78 207.382 451.995 207.648C452.21 207.914 452.478 208.132 452.783 208.288C453.088 208.443 453.422 208.532 453.763 208.55L490.824 210.427C491.165 210.444 491.507 210.389 491.825 210.265C492.144 210.141 492.433 209.951 492.673 209.707C492.913 209.464 493.099 209.172 493.219 208.851C493.338 208.531 493.388 208.188 493.366 207.847C493.21 205.503 492.331 201.829 489.038 197.571C487.199 195.214 484.874 193.283 482.22 191.908C479.566 190.533 476.646 189.748 473.661 189.607L472.642 189.553C464.806 189.156 457.255 193.103 453.495 199.99Z" fill="url(#paint67_linear_3762_865)"/>
<path d="M456.129 229.595C456.129 229.595 467.762 233.44 476.826 230.802C485.89 228.163 464.008 226.747 463.632 226.661C463.257 226.576 456.129 229.595 456.129 229.595Z" fill="#3D1216"/>
<path d="M462.812 230.823C473.168 230.823 481.562 222.429 481.562 212.073C481.562 201.718 473.168 193.323 462.812 193.323C452.457 193.323 444.062 201.718 444.062 212.073C444.062 222.429 452.457 230.823 462.812 230.823Z" fill="#3D1216"/>
<path d="M472.473 231.311C482.828 231.311 491.223 222.917 491.223 212.561C491.223 202.206 482.828 193.811 472.473 193.811C462.117 193.811 453.723 202.206 453.723 212.561C453.723 222.917 462.117 231.311 472.473 231.311Z" fill="url(#paint68_linear_3762_865)"/>
<path d="M472.474 220.676C476.956 220.676 480.589 217.043 480.589 212.561C480.589 208.08 476.956 204.447 472.474 204.447C467.992 204.447 464.359 208.08 464.359 212.561C464.359 217.043 467.992 220.676 472.474 220.676Z" fill="url(#paint69_linear_3762_865)"/>
<path d="M472.474 218.793C475.916 218.793 478.706 216.003 478.706 212.561C478.706 209.119 475.916 206.329 472.474 206.329C469.032 206.329 466.242 209.119 466.242 212.561C466.242 216.003 469.032 218.793 472.474 218.793Z" fill="url(#paint70_linear_3762_865)"/>
<path d="M445.063 199.561C443.902 201.293 443.094 203.238 442.687 205.283C442.419 206.71 443.722 208.04 445.487 208.131L490.63 210.416C492.394 210.502 493.848 209.311 493.697 207.863C493.477 205.519 492.367 201.835 488.307 197.533C483.759 192.706 476.857 189.767 469.504 189.397L468.265 189.333C458.718 188.85 449.568 192.717 445.063 199.561Z" fill="#F48931"/>
<path d="M453.826 200.006C452.841 201.795 452.163 203.736 451.82 205.75C451.766 206.087 451.783 206.432 451.87 206.762C451.958 207.092 452.114 207.4 452.328 207.666C452.543 207.931 452.811 208.149 453.116 208.304C453.42 208.459 453.753 208.548 454.094 208.566L491.155 210.443C491.496 210.46 491.838 210.405 492.157 210.281C492.475 210.157 492.764 209.967 493.004 209.723C493.245 209.48 493.43 209.188 493.55 208.867C493.669 208.547 493.719 208.204 493.697 207.863C493.541 205.519 492.662 201.851 489.369 197.587C487.53 195.23 485.205 193.299 482.551 191.924C479.897 190.55 476.978 189.764 473.992 189.623L472.973 189.574C465.137 189.177 457.586 193.119 453.826 200.006Z" fill="url(#paint71_linear_3762_865)"/>
<path d="M413.563 67.6137C413.563 67.6137 389.032 34.8978 411.772 2.58414C415.129 -2.18916 422.643 0.0741427 422.766 5.90937C423.04 19.0869 430.178 37.9066 458.041 59.9657L413.563 67.6137Z" fill="url(#paint72_linear_3762_865)"/>
<path d="M571.452 70.7083C571.452 70.7083 584.726 87.6401 577.985 106.91C577.882 107.197 577.704 107.45 577.47 107.644C577.235 107.838 576.953 107.966 576.652 108.013C576.351 108.06 576.044 108.025 575.761 107.913C575.478 107.8 575.231 107.613 575.046 107.372C573.673 105.596 571.763 103.178 570.219 101.418C570.219 101.418 571.565 107.854 570.251 113.309C570.169 113.641 569.989 113.942 569.734 114.17C569.478 114.398 569.16 114.543 568.82 114.587C568.48 114.63 568.136 114.57 567.831 114.414C567.526 114.257 567.276 114.012 567.113 113.711C565.923 111.566 564.019 109.453 561.401 110.611C561.401 110.611 564.158 118.699 563.08 126.266C563.036 126.631 562.875 126.971 562.621 127.237C562.367 127.502 562.034 127.678 561.672 127.739C561.31 127.799 560.938 127.741 560.611 127.572C560.285 127.403 560.022 127.133 559.862 126.803C558.302 123.713 555.931 120.12 553.378 120.27C553.378 120.27 547.478 134.123 541.128 146.631C541.128 146.631 546.969 152.353 539.444 173.002C538.908 174.52 536.602 174.192 536.259 172.616C535.406 168.743 533.931 163.729 531.85 162.64C531.85 162.64 533.105 178.263 525.511 188.083C525.291 188.366 524.988 188.572 524.645 188.673C524.302 188.774 523.936 188.764 523.599 188.645C523.261 188.527 522.97 188.305 522.765 188.012C522.561 187.718 522.453 187.368 522.459 187.011C522.491 183.884 522.094 180.183 520.11 179.69C520.11 179.69 520.217 143.659 522.024 141.89C523.832 140.12 563.488 97.7928 563.488 97.7928L571.452 70.7083ZM406.73 69.5445C406.73 69.5445 397.79 77.1656 398.294 91.9897C398.308 92.3171 398.415 92.6337 398.604 92.9014C398.793 93.1692 399.055 93.3769 399.359 93.4997C399.663 93.6225 399.996 93.6551 400.317 93.5937C400.639 93.5323 400.937 93.3795 401.174 93.1536C403.094 91.2925 405.62 89.0828 407.025 88.7986C407.025 88.7986 402.585 96.7684 407.83 111.405C407.919 111.656 408.067 111.883 408.26 112.068C408.454 112.252 408.688 112.388 408.943 112.465C409.199 112.543 409.469 112.559 409.732 112.512C409.995 112.466 410.244 112.358 410.458 112.199C412.336 110.782 414.307 109.494 416.357 108.342C416.357 108.342 412.356 118.876 416.588 129.259C416.7 129.535 416.882 129.776 417.116 129.96C417.35 130.143 417.628 130.262 417.923 130.305C418.217 130.348 418.518 130.313 418.794 130.204C419.071 130.095 419.315 129.915 419.5 129.683C421.109 127.666 423.791 125.607 426.891 128.916C426.891 128.916 437.644 134.531 441.286 154.933C441.286 154.933 439.586 164.383 444.413 176.064C444.543 176.372 444.761 176.635 445.039 176.819C445.318 177.004 445.645 177.103 445.979 177.103C446.313 177.103 446.64 177.004 446.918 176.819C447.197 176.635 447.415 176.372 447.545 176.064C448.923 172.878 451.176 168.556 453.686 167.408C462.267 163.402 490.156 177.598 490.156 177.598L406.73 69.5445Z" fill="url(#paint73_radial_3762_865)"/>
<path d="M510.447 195.324L571.883 105.832C588.289 81.9283 572.146 49.2875 543.195 47.8233L438.22 42.5137C409.258 41.0495 389.908 71.8936 403.82 97.3262L455.913 192.567C469.675 217.726 494.212 218.965 510.447 195.324Z" fill="url(#paint74_radial_3762_865)"/>
<path d="M437.041 135.684C437.521 135.684 437.91 135.295 437.91 134.815C437.91 134.336 437.521 133.947 437.041 133.947C436.561 133.947 436.172 134.336 436.172 134.815C436.172 135.295 436.561 135.684 437.041 135.684Z" fill="#CB5E4E"/>
<path d="M433.65 140.484C434.13 140.484 434.519 140.095 434.519 139.615C434.519 139.136 434.13 138.747 433.65 138.747C433.17 138.747 432.781 139.136 432.781 139.615C432.781 140.095 433.17 140.484 433.65 140.484Z" fill="#CB5E4E"/>
<path d="M439.787 140.795C440.267 140.795 440.656 140.406 440.656 139.927C440.656 139.447 440.267 139.058 439.787 139.058C439.307 139.058 438.918 139.447 438.918 139.927C438.918 140.406 439.307 140.795 439.787 140.795Z" fill="#CB5E4E"/>
<path d="M508.896 139.32C509.376 139.32 509.765 138.931 509.765 138.452C509.765 137.972 509.376 137.583 508.896 137.583C508.416 137.583 508.027 137.972 508.027 138.452C508.027 138.931 508.416 139.32 508.896 139.32Z" fill="#CB5E4E"/>
<path d="M505.509 144.121C505.989 144.121 506.378 143.732 506.378 143.252C506.378 142.772 505.989 142.383 505.509 142.383C505.03 142.383 504.641 142.772 504.641 143.252C504.641 143.732 505.03 144.121 505.509 144.121Z" fill="#CB5E4E"/>
<path d="M511.642 144.432C512.122 144.432 512.511 144.043 512.511 143.563C512.511 143.083 512.122 142.694 511.642 142.694C511.162 142.694 510.773 143.083 510.773 143.563C510.773 144.043 511.162 144.432 511.642 144.432Z" fill="#CB5E4E"/>
<path d="M523.481 144.367C523.481 144.367 545.937 149.387 565.036 136.226L567.9 131.319L564.146 125.762L561.856 130.589C561.856 130.589 545.396 141.852 526.378 139.09L520.43 141.509L523.481 144.367Z" fill="url(#paint75_linear_3762_865)"/>
<path d="M561.766 130.316C562.547 132.57 563.771 134.645 565.367 136.419C566.962 138.193 568.896 139.63 571.055 140.645C573.447 141.75 575.962 142.227 577.893 140.94C581.379 138.623 577.893 135.791 577.893 135.791C577.893 135.791 587.188 133.705 580.231 128.052C580.231 128.052 587.804 123.376 580.055 121.198C572.305 119.021 568.894 122.367 568.894 122.367C568.894 122.367 568.765 113.915 563.782 113.915C558.8 113.915 558.955 122.796 560.698 127.414C561.106 128.46 561.455 129.431 561.766 130.316Z" fill="url(#paint76_linear_3762_865)"/>
<path d="M577.913 135.791C577.313 135.951 576.694 136.029 576.073 136.022C575.451 136.02 574.831 135.954 574.223 135.824C573.612 135.682 573.022 135.46 572.469 135.164C571.921 134.858 571.441 134.444 571.059 133.947C571.572 134.262 572.11 134.535 572.668 134.762C573.22 134.978 573.786 135.157 574.362 135.298C575.535 135.53 576.721 135.695 577.913 135.791Z" fill="#F58442"/>
<path d="M580.247 128.052C578.856 128.62 577.368 128.913 575.865 128.916C575.113 128.932 574.36 128.878 573.618 128.755C572.882 128.639 572.162 128.438 571.473 128.154C572.224 128.213 572.953 128.288 573.682 128.315C574.412 128.342 575.141 128.369 575.871 128.347C576.6 128.326 577.329 128.304 578.059 128.256C578.788 128.208 579.507 128.138 580.247 128.052Z" fill="#F58442"/>
<path d="M570.366 63.8916C576.802 52.0602 583.136 32.2055 571.01 10.6398C568.156 5.5715 560.444 7.06248 559.747 12.8387C558.674 21.4789 554.384 32.2644 542.987 44.1065C534.212 53.2241 538.288 68.3699 550.495 71.7595L551.31 71.9848C554.934 72.9893 558.791 72.736 562.252 71.2661C565.712 69.7962 568.573 67.1966 570.366 63.8916Z" fill="url(#paint77_linear_3762_865)"/>
<path d="M481.59 232.121C481.59 232.121 493.223 235.961 502.287 233.328C511.351 230.694 489.468 229.268 489.093 229.187C488.718 229.107 481.59 232.121 481.59 232.121Z" fill="#3D1216"/>
<path d="M488.27 233.349C498.625 233.349 507.019 224.955 507.019 214.599C507.019 204.244 498.625 195.849 488.27 195.849C477.914 195.849 469.52 204.244 469.52 214.599C469.52 224.955 477.914 233.349 488.27 233.349Z" fill="#3D1216"/>
<path d="M497.93 233.837C508.285 233.837 516.68 225.443 516.68 215.087C516.68 204.732 508.285 196.337 497.93 196.337C487.574 196.337 479.18 204.732 479.18 215.087C479.18 225.443 487.574 233.837 497.93 233.837Z" fill="url(#paint78_linear_3762_865)"/>
<path d="M497.931 223.202C502.413 223.202 506.046 219.569 506.046 215.087C506.046 210.606 502.413 206.973 497.931 206.973C493.449 206.973 489.816 210.606 489.816 215.087C489.816 219.569 493.449 223.202 497.931 223.202Z" fill="url(#paint79_linear_3762_865)"/>
<path d="M497.931 221.319C501.373 221.319 504.163 218.529 504.163 215.087C504.163 211.645 501.373 208.855 497.931 208.855C494.489 208.855 491.699 211.645 491.699 215.087C491.699 218.529 494.489 221.319 497.931 221.319Z" fill="url(#paint80_linear_3762_865)"/>
<path d="M470.555 202.087C469.396 203.82 468.589 205.765 468.179 207.809C467.911 209.236 469.22 210.566 470.979 210.657L516.122 212.937C517.886 213.028 519.34 211.864 519.189 210.384C518.975 208.045 517.865 204.355 513.826 200.059C509.273 195.233 502.37 192.293 495.017 191.918L493.778 191.859C484.183 191.376 475.034 195.238 470.555 202.087Z" fill="#F48931"/>
<path d="M479.291 202.527C478.306 204.315 477.628 206.257 477.285 208.271C477.231 208.608 477.248 208.953 477.335 209.284C477.423 209.614 477.579 209.922 477.793 210.188C478.008 210.455 478.276 210.672 478.58 210.828C478.884 210.984 479.218 211.074 479.559 211.092L516.625 212.964C516.966 212.981 517.307 212.926 517.626 212.802C517.945 212.678 518.233 212.488 518.473 212.244C518.713 212 518.898 211.708 519.017 211.388C519.135 211.067 519.185 210.725 519.162 210.384C519.006 208.045 518.132 204.372 514.833 200.113C512.997 197.756 510.673 195.824 508.019 194.449C505.366 193.074 502.447 192.29 499.462 192.149L498.443 192.095C490.602 191.698 483.051 195.646 479.291 202.527Z" fill="url(#paint81_linear_3762_865)"/>
<mask id="mask3_3762_865" style="mask-type:luminance" maskUnits="userSpaceOnUse" x="451" y="141" width="44" height="21">
<path d="M451.137 141.89C451.512 146.303 454.172 161.31 472.804 161.841C479.626 162.039 485.011 160.125 488.814 156.156C493.212 151.565 494.332 145.343 494.611 142.705C488.168 143.974 481.598 144.491 475.035 144.244C467.029 143.937 459.049 143.151 451.137 141.89Z" fill="white"/>
</mask>
<g mask="url(#mask3_3762_865)">
<path d="M458.215 157.856C458.215 157.856 466.345 162.651 467.246 162.393C468.147 162.136 475.731 162.635 475.731 162.635L481.094 161.648L486.071 159.502L490.652 155.641L493.457 151.436L493.993 148.883L451.73 147.676L453.876 152.873L458.215 157.856Z" fill="url(#paint82_radial_3762_865)"/>
<path d="M471.471 162.951C475.07 163.042 484.005 160.441 484.005 160.441L483.812 158.768C483.276 155.764 480.551 153.404 476.642 153.313C472.276 153.19 468.184 155.898 468.087 159.39C468.061 160.595 468.439 161.775 469.16 162.742C469.924 162.869 470.697 162.939 471.471 162.951Z" fill="url(#paint83_linear_3762_865)"/>
<path d="M454.844 144.019L458.062 153.673C458.197 154.079 458.455 154.434 458.8 154.688C459.145 154.942 459.56 155.083 459.988 155.092C460.417 155.101 460.837 154.977 461.192 154.737C461.547 154.497 461.82 154.154 461.972 153.753L465.485 144.576L454.844 144.019Z" fill="url(#paint84_linear_3762_865)"/>
<path d="M478.949 145.242L482.167 154.895C482.305 155.3 482.564 155.651 482.908 155.903C483.253 156.156 483.667 156.295 484.094 156.304C484.521 156.313 484.94 156.19 485.295 155.953C485.65 155.715 485.923 155.374 486.077 154.976L489.59 145.794L478.949 145.242Z" fill="url(#paint85_linear_3762_865)"/>
<path d="M451.978 147.709L492.97 148.883L494.31 146.389L495.083 141.562L487.435 142.726L479.803 143.429L470.717 143.166L459.122 141.916L450.707 140.307L451.978 147.709Z" fill="white"/>
</g>
<path d="M498.174 130.353C508.924 130.353 517.638 121.639 517.638 110.89C517.638 100.141 508.924 91.4266 498.174 91.4266C487.425 91.4266 478.711 100.141 478.711 110.89C478.711 121.639 487.425 130.353 498.174 130.353Z" fill="url(#paint86_linear_3762_865)"/>
<path d="M493.512 124.041C500.905 124.041 506.898 118.047 506.898 110.654C506.898 103.261 500.905 97.2672 493.512 97.2672C486.118 97.2672 480.125 103.261 480.125 110.654C480.125 118.047 486.118 124.041 493.512 124.041Z" fill="url(#paint87_linear_3762_865)"/>
<path d="M449.51 127.891C460.259 127.891 468.973 119.177 468.973 108.428C468.973 97.6789 460.259 88.9649 449.51 88.9649C438.761 88.9649 430.047 97.6789 430.047 108.428C430.047 119.177 438.761 127.891 449.51 127.891Z" fill="url(#paint88_linear_3762_865)"/>
<path d="M445.512 121.611C452.905 121.611 458.898 115.618 458.898 108.224C458.898 100.831 452.905 94.8376 445.512 94.8376C438.118 94.8376 432.125 100.831 432.125 108.224C432.125 115.618 438.118 121.611 445.512 121.611Z" fill="url(#paint89_linear_3762_865)"/>
<path d="M449.469 107.146C451.519 107.146 453.181 105.485 453.181 103.435C453.181 101.385 451.519 99.7236 449.469 99.7236C447.419 99.7236 445.758 101.385 445.758 103.435C445.758 105.485 447.419 107.146 449.469 107.146Z" fill="white"/>
<path d="M453.957 112.247C454.996 112.247 455.839 111.404 455.839 110.364C455.839 109.325 454.996 108.482 453.957 108.482C452.917 108.482 452.074 109.325 452.074 110.364C452.074 111.404 452.917 112.247 453.957 112.247Z" fill="white"/>
<path d="M445.512 121.611C452.905 121.611 458.898 115.618 458.898 108.224C458.898 100.831 452.905 94.8376 445.512 94.8376C438.118 94.8376 432.125 100.831 432.125 108.224C432.125 115.618 438.118 121.611 445.512 121.611Z" fill="url(#paint90_linear_3762_865)"/>
<path d="M451.16 100.775C453.019 102.243 454.328 104.295 454.877 106.599" stroke="white" stroke-width="3.22" stroke-miterlimit="10" stroke-linecap="round"/>
<path d="M495 105C496.859 106.468 498.168 108.52 498.717 110.825" stroke="white" stroke-width="3.22" stroke-miterlimit="10" stroke-linecap="round"/>
<path opacity="0.1" d="M429.121 78.2544C433.841 73.5133 442.653 68.0052 456.415 66.7932C458.217 66.6323 458.426 63.7414 456.812 62.9316C448.547 58.7858 433.707 56.4152 425.592 75.1706C424.857 76.8707 427.818 79.5523 429.121 78.2544Z" fill="url(#paint91_linear_3762_865)"/>
<path d="M428.592 76.7313C433.644 72.3441 442.606 66.997 456.416 66.7931C456.806 66.7891 457.184 66.658 457.492 66.4197C457.801 66.1815 458.023 65.8491 458.126 65.473C458.228 65.0969 458.205 64.6976 458.06 64.3358C457.915 63.9739 457.656 63.6692 457.323 63.4679C449.38 58.7322 435.205 56.6244 425.749 74.7308C424.891 76.388 427.192 77.9434 428.592 76.7313Z" fill="url(#paint92_linear_3762_865)"/>
<path opacity="0.1" d="M519.992 82.7703C515.412 77.8951 507.71 72.2476 494.308 68.8258C492.554 68.386 492.5 66.2997 494.136 65.5328C502.519 61.623 515.766 61.4835 523.344 80.4641C524.031 82.234 521.263 84.1272 519.992 82.7703Z" fill="url(#paint93_linear_3762_865)"/>
<path d="M520.205 81.3705C515.625 76.4953 507.248 70.2686 493.528 68.6703C493.141 68.6275 492.778 68.4593 492.494 68.1913C492.211 67.9232 492.022 67.5699 491.958 67.1852C491.894 66.8004 491.957 66.4051 492.138 66.0595C492.318 65.7138 492.607 65.4366 492.96 65.27C501.337 61.3602 515.652 60.6951 523.236 79.6757C523.922 81.3973 521.503 82.7221 520.205 81.3705Z" fill="url(#paint94_linear_3762_865)"/>
<path d="M432.623 147.419C428.102 146.883 409.701 143.665 397.504 128.444L396.223 123.081L401.237 118.994L402.015 124.073C402.015 124.073 413.964 138.934 432.157 141.772C432.352 141.799 432.543 141.852 432.725 141.927L433.932 142.42C434.362 142.596 434.738 142.883 435.019 143.253C435.301 143.623 435.478 144.061 435.533 144.523C435.588 144.984 435.518 145.452 435.331 145.878C435.143 146.303 434.845 146.67 434.468 146.942C433.935 147.328 433.276 147.499 432.623 147.419Z" fill="#F58442"/>
<path d="M402.181 114.258C403.136 115.046 404.911 115.829 404.761 119.578C404.653 121.833 403.865 124.002 402.5 125.799C401.134 127.596 399.256 128.937 397.113 129.645L396.19 129.956C394.884 130.396 393.501 130.563 392.127 130.447C390.753 130.331 389.418 129.934 388.204 129.28L387.287 128.787C387.164 128.723 387.046 128.649 386.933 128.567C385.964 127.899 385.15 127.031 384.545 126.021C383.941 125.011 383.56 123.884 383.43 122.714C383.299 121.544 383.421 120.36 383.788 119.242C384.154 118.123 384.757 117.097 385.555 116.232C386.665 115.02 387.877 113.743 389.079 112.477C389.974 111.554 391.074 110.853 392.291 110.433C393.507 110.012 394.805 109.883 396.08 110.056C397.355 110.23 398.571 110.7 399.631 111.43C400.691 112.16 401.564 113.129 402.181 114.258Z" fill="url(#paint95_linear_3762_865)"/>
<path d="M394.935 114.381C394.725 114.658 394.534 114.949 394.361 115.25C394.184 115.544 394.03 115.85 393.9 116.167C393.637 116.782 393.512 117.446 393.535 118.114C393.585 118.785 393.756 119.441 394.039 120.05C394.181 120.366 394.338 120.674 394.511 120.973C394.662 121.284 394.833 121.59 394.978 121.911C394.523 121.372 394.107 120.8 393.734 120.2C393.367 119.57 393.15 118.863 393.101 118.136C393.072 117.399 393.244 116.668 393.6 116.022C393.931 115.392 394.385 114.834 394.935 114.381Z" fill="#F58442"/>
<path d="M383.623 125.049C381.521 124.319 380.518 123.145 380.116 120.903C379.713 118.661 380.368 117.835 381.971 116.43C379.649 115.218 379.864 111.904 381.505 110.273C383.371 108.412 386.509 108.417 389.013 108.997L389.432 109.731C390.232 111.137 390.714 112.702 390.842 114.315C390.97 115.928 390.741 117.549 390.172 119.064L390.097 119.267L390.579 119.385C391.076 119.504 391.528 119.763 391.88 120.132C392.233 120.501 392.471 120.964 392.567 121.465C392.663 121.967 392.612 122.485 392.42 122.958C392.228 123.431 391.904 123.839 391.486 124.132L390.949 124.518C391.491 124.642 391.995 124.895 392.418 125.256C392.841 125.616 393.17 126.073 393.379 126.588C393.569 127.09 393.608 127.637 393.492 128.161C393.376 128.685 393.109 129.163 392.725 129.538C392.183 130.168 391.433 130.583 390.612 130.707C387.474 131.538 380.984 129.087 383.623 125.049Z" fill="url(#paint96_linear_3762_865)"/>
<path d="M381.992 116.35C382.529 116.591 383.065 116.795 383.569 117.015C383.826 117.127 384.105 117.251 384.336 117.39C384.567 117.53 384.835 117.658 385.098 117.798C384.95 117.793 384.804 117.78 384.658 117.76C384.515 117.732 384.376 117.692 384.239 117.642C383.966 117.551 383.703 117.444 383.43 117.331C383.16 117.218 382.9 117.084 382.652 116.929C382.401 116.774 382.178 116.579 381.992 116.35Z" fill="#F58442"/>
<path d="M383.582 124.604C384.365 124.89 385.185 125.058 386.017 125.103C386.842 125.147 387.669 125.102 388.484 124.968C388.881 124.893 389.315 124.829 389.712 124.732C390.106 124.634 390.487 124.492 390.849 124.309C391.214 124.15 391.539 123.914 391.804 123.617C392.063 123.305 392.279 122.961 392.447 122.593C392.557 122.223 392.57 121.832 392.485 121.455C392.394 121.071 392.23 120.707 392.002 120.383C391.753 120.075 391.445 119.82 391.096 119.632C390.733 119.448 390.349 119.308 389.954 119.214C390.363 119.263 390.763 119.368 391.144 119.525C391.532 119.688 391.878 119.935 392.158 120.249C392.421 120.584 392.617 120.966 392.737 121.375C392.86 121.799 392.86 122.249 392.737 122.673C392.561 123.069 392.333 123.44 392.061 123.778C391.768 124.119 391.401 124.39 390.989 124.572C390.601 124.764 390.193 124.91 389.771 125.006C389.348 125.097 388.951 125.151 388.522 125.226C387.679 125.344 386.825 125.355 385.979 125.258C385.56 125.213 385.145 125.131 384.74 125.011C384.34 124.919 383.952 124.782 383.582 124.604Z" fill="#F58442"/>
<path d="M392.397 129.811C392.566 129.584 392.716 129.343 392.848 129.093C392.993 128.86 393.111 128.612 393.202 128.353C393.372 127.845 393.391 127.299 393.256 126.781C393.116 126.266 392.822 125.806 392.414 125.462C392.022 125.086 391.464 124.926 391.035 124.545C391.578 124.717 392.098 124.953 392.585 125.247C393.079 125.598 393.436 126.11 393.593 126.695C393.743 127.281 393.696 127.899 393.459 128.455C393.336 128.72 393.177 128.967 392.987 129.189C392.816 129.419 392.618 129.628 392.397 129.811Z" fill="#F58442"/>
<path d="M386.384 116.736C386.55 115.819 386.974 114.886 387.124 113.904C387.29 112.783 386.915 110.804 387.473 109.785C388.497 107.913 391.307 106.567 393.372 106.717C396.622 106.969 404.689 112.687 401.358 118.457L393.56 113.309C393.26 115.02 392.053 118.468 390.224 119.122C388.272 119.83 385.955 119.101 386.384 116.736Z" fill="url(#paint97_linear_3762_865)"/>
<path d="M393.623 113.26C393.596 113.754 393.51 114.242 393.366 114.714C393.237 115.191 393.082 115.658 392.91 116.124C392.562 117.064 392.034 117.925 391.355 118.661C390.999 119.041 390.541 119.31 390.035 119.434C389.544 119.573 389.032 119.627 388.523 119.594C388.264 119.578 388.009 119.531 387.761 119.455C387.51 119.368 387.275 119.241 387.064 119.08C386.637 118.767 386.317 118.331 386.147 117.83C386.081 117.567 386.057 117.296 386.077 117.025C386.101 116.761 386.155 116.5 386.238 116.248C386.302 115.996 386.388 115.77 386.458 115.545C386.528 115.32 386.597 115.084 386.656 114.853C386.769 114.387 386.85 113.915 386.919 113.437C386.957 112.772 386.882 112.091 386.946 111.399C386.946 111.056 386.989 110.724 387.032 110.37C387.127 110.026 387.278 109.7 387.477 109.404C387.883 108.844 388.393 108.368 388.979 107.999C389.549 107.619 390.172 107.326 390.829 107.13C390.189 107.36 389.587 107.683 389.043 108.09C388.499 108.481 388.027 108.964 387.649 109.517C387.472 109.79 387.341 110.091 387.262 110.407C387.262 110.724 387.225 111.078 387.209 111.41C387.171 112.075 387.257 112.756 387.209 113.448C387.151 113.935 387.067 114.419 386.957 114.896C386.903 115.138 386.839 115.374 386.764 115.61C386.689 115.846 386.608 116.076 386.56 116.296C386.404 116.748 386.378 117.235 386.485 117.701C386.632 118.131 386.907 118.505 387.273 118.774C387.454 118.914 387.654 119.026 387.869 119.106C388.092 119.175 388.322 119.22 388.555 119.24C389.03 119.275 389.507 119.227 389.966 119.101C390.425 118.995 390.846 118.765 391.183 118.436C391.52 118.09 391.823 117.713 392.089 117.31C392.348 116.897 392.574 116.465 392.765 116.017C392.964 115.572 393.141 115.111 393.302 114.644C393.464 114.197 393.572 113.733 393.623 113.26Z" fill="#F58442"/>
<defs>
<linearGradient id="paint0_linear_3762_865" x1="888.748" y1="303.923" x2="921.614" y2="316.956" gradientUnits="userSpaceOnUse">
<stop stop-color="#182649"/>
<stop offset="0.44" stop-color="#273861"/>
<stop offset="0.79" stop-color="#344A7B"/>
</linearGradient>
<linearGradient id="paint1_linear_3762_865" x1="1003.09" y1="348.728" x2="970.217" y2="335.648" gradientUnits="userSpaceOnUse">
<stop offset="0.21" stop-color="#344A7B"/>
<stop offset="0.56" stop-color="#273861"/>
<stop offset="1" stop-color="#182649"/>
</linearGradient>
<linearGradient id="paint2_linear_3762_865" x1="834.244" y1="419.025" x2="993.206" y2="457.25" gradientUnits="userSpaceOnUse">
<stop stop-color="#4AB087"/>
<stop offset="0.26" stop-color="#71C491"/>
<stop offset="0.48" stop-color="#88CB9B"/>
<stop offset="0.7" stop-color="#ADD694"/>
<stop offset="1" stop-color="#BDDB8C"/>
</linearGradient>
<linearGradient id="paint3_linear_3762_865" x1="884.095" y1="366.66" x2="998.885" y2="313.749" gradientUnits="userSpaceOnUse">
<stop stop-color="#D65E92"/>
<stop offset="0.26" stop-color="#ED889C"/>
<stop offset="0.48" stop-color="#F6A0A1"/>
<stop offset="0.7" stop-color="#FAB397"/>
<stop offset="1" stop-color="#F39D98"/>
</linearGradient>
<linearGradient id="paint4_linear_3762_865" x1="1036.35" y1="465.877" x2="933.332" y2="453.575" gradientUnits="userSpaceOnUse">
<stop stop-color="#BDDB8C"/>
<stop offset="0.3" stop-color="#ADD694"/>
<stop offset="0.52" stop-color="#88CB9B"/>
<stop offset="0.74" stop-color="#71C491"/>
</linearGradient>
<linearGradient id="paint5_linear_3762_865" x1="1049.84" y1="472.649" x2="951.926" y2="448.493" gradientUnits="userSpaceOnUse">
<stop stop-color="#BDDB8C"/>
<stop offset="0.3" stop-color="#ADD694"/>
<stop offset="0.52" stop-color="#88CB9B"/>
<stop offset="0.74" stop-color="#71C491"/>
</linearGradient>
<linearGradient id="paint6_linear_3762_865" x1="930.905" y1="472.603" x2="798.899" y2="379.773" gradientUnits="userSpaceOnUse">
<stop stop-color="#BDDB8C"/>
<stop offset="0.3" stop-color="#ADD694"/>
<stop offset="0.52" stop-color="#88CB9B"/>
<stop offset="0.74" stop-color="#71C491"/>
</linearGradient>
<linearGradient id="paint7_linear_3762_865" x1="767.79" y1="351.043" x2="844.728" y2="412.665" gradientUnits="userSpaceOnUse">
<stop stop-color="#BDDB8C"/>
<stop offset="0.3" stop-color="#ADD694"/>
<stop offset="0.52" stop-color="#88CB9B"/>
<stop offset="0.74" stop-color="#71C491"/>
</linearGradient>
<linearGradient id="paint8_linear_3762_865" x1="848.953" y1="593.624" x2="866.736" y2="548.777" gradientUnits="userSpaceOnUse">
<stop stop-color="#212E5D"/>
<stop offset="1" stop-color="#242F3D"/>
</linearGradient>
<linearGradient id="paint9_linear_3762_865" x1="848.953" y1="593.624" x2="866.736" y2="548.777" gradientUnits="userSpaceOnUse">
<stop stop-color="#212E5D"/>
<stop offset="1" stop-color="#242F3D"/>
</linearGradient>
<linearGradient id="paint10_linear_3762_865" x1="848.145" y1="567.351" x2="867.548" y2="575.046" gradientUnits="userSpaceOnUse">
<stop stop-color="#D65E92"/>
<stop offset="0.26" stop-color="#ED889C"/>
<stop offset="0.48" stop-color="#F6A0A1"/>
<stop offset="0.7" stop-color="#FAB397"/>
<stop offset="1" stop-color="#F39D98"/>
</linearGradient>
<linearGradient id="paint11_linear_3762_865" x1="854.892" y1="578.655" x2="860.804" y2="563.746" gradientUnits="userSpaceOnUse">
<stop stop-color="#242F3D"/>
<stop offset="1" stop-color="#212E5D"/>
</linearGradient>
<linearGradient id="paint12_linear_3762_865" x1="859.61" y1="566.763" x2="869.799" y2="541.067" gradientUnits="userSpaceOnUse">
<stop stop-color="#88CB9B"/>
<stop offset="0.58" stop-color="#ADD694"/>
<stop offset="1" stop-color="#BDDB8C"/>
</linearGradient>
<linearGradient id="paint13_linear_3762_865" x1="874.512" y1="408.335" x2="944.088" y2="409.016" gradientUnits="userSpaceOnUse">
<stop stop-color="#E6E7E8"/>
<stop offset="0.22" stop-color="#F0F1F1"/>
<stop offset="0.59" stop-color="#FBFBFC"/>
<stop offset="1" stop-color="white"/>
</linearGradient>
<linearGradient id="paint14_linear_3762_865" x1="875.925" y1="398.825" x2="910.787" y2="412.649" gradientUnits="userSpaceOnUse">
<stop stop-color="#242F3D"/>
<stop offset="1" stop-color="#212E5D"/>
</linearGradient>
<linearGradient id="paint15_linear_3762_865" x1="875.921" y1="398.825" x2="910.783" y2="412.649" gradientUnits="userSpaceOnUse">
<stop stop-color="#242F3D"/>
<stop offset="1" stop-color="#212E5D"/>
</linearGradient>
<linearGradient id="paint16_linear_3762_865" x1="899.336" y1="398.64" x2="908.793" y2="402.39" gradientUnits="userSpaceOnUse">
<stop stop-color="#E6E7E8"/>
<stop offset="0.22" stop-color="#F0F1F1"/>
<stop offset="0.59" stop-color="#FBFBFC"/>
<stop offset="1" stop-color="white"/>
</linearGradient>
<linearGradient id="paint17_linear_3762_865" x1="124.506" y1="592.926" x2="123.151" y2="547.742" gradientUnits="userSpaceOnUse">
<stop stop-color="#404041"/>
<stop offset="0.04" stop-color="#403F40"/>
<stop offset="1" stop-color="#353435"/>
</linearGradient>
<linearGradient id="paint18_linear_3762_865" x1="133.599" y1="570.039" x2="114.047" y2="570.625" gradientUnits="userSpaceOnUse">
<stop stop-color="#527B95"/>
<stop offset="0.53" stop-color="#6699A0"/>
<stop offset="0.86" stop-color="#73B0A9"/>
</linearGradient>
<linearGradient id="paint19_linear_3762_865" x1="124.051" y1="577.845" x2="123.6" y2="562.823" gradientUnits="userSpaceOnUse">
<stop offset="0.21" stop-color="#344A7B"/>
<stop offset="0.65" stop-color="#273861"/>
<stop offset="1" stop-color="#182649"/>
</linearGradient>
<linearGradient id="paint20_linear_3762_865" x1="114.724" y1="593.22" x2="113.368" y2="548.036" gradientUnits="userSpaceOnUse">
<stop stop-color="#404041"/>
<stop offset="0.04" stop-color="#403F40"/>
<stop offset="1" stop-color="#353435"/>
</linearGradient>
<linearGradient id="paint21_linear_3762_865" x1="123.825" y1="570.332" x2="104.272" y2="570.919" gradientUnits="userSpaceOnUse">
<stop stop-color="#527B95"/>
<stop offset="0.53" stop-color="#6699A0"/>
<stop offset="0.86" stop-color="#73B0A9"/>
</linearGradient>
<linearGradient id="paint22_linear_3762_865" x1="114.272" y1="578.139" x2="113.822" y2="563.117" gradientUnits="userSpaceOnUse">
<stop offset="0.21" stop-color="#344A7B"/>
<stop offset="0.65" stop-color="#273861"/>
<stop offset="1" stop-color="#182649"/>
</linearGradient>
<linearGradient id="paint23_linear_3762_865" x1="123.656" y1="564.626" x2="122.933" y2="540.502" gradientUnits="userSpaceOnUse">
<stop stop-color="#9ED6CA"/>
<stop offset="0.23" stop-color="#8CC8D1"/>
<stop offset="0.92" stop-color="#85C3D5"/>
</linearGradient>
<linearGradient id="paint24_linear_3762_865" x1="112.945" y1="564.947" x2="112.221" y2="540.823" gradientUnits="userSpaceOnUse">
<stop stop-color="#9ED6CA"/>
<stop offset="0.23" stop-color="#8CC8D1"/>
<stop offset="0.92" stop-color="#85C3D5"/>
</linearGradient>
<linearGradient id="paint25_linear_3762_865" x1="160.298" y1="351.049" x2="116.798" y2="352.354" gradientUnits="userSpaceOnUse">
<stop stop-color="#182649"/>
<stop offset="0.44" stop-color="#273861"/>
<stop offset="0.79" stop-color="#344A7B"/>
</linearGradient>
<linearGradient id="paint26_linear_3762_865" x1="194.284" y1="498.651" x2="136.42" y2="516.99" gradientUnits="userSpaceOnUse">
<stop stop-color="#6D9FCC"/>
<stop offset="1" stop-color="#85C3D5"/>
</linearGradient>
<linearGradient id="paint27_linear_3762_865" x1="197.928" y1="479.686" x2="178.628" y2="501.463" gradientUnits="userSpaceOnUse">
<stop stop-color="#8CC8D1"/>
<stop offset="0.46" stop-color="#85C3D5"/>
<stop offset="1" stop-color="#6D9FCC"/>
</linearGradient>
<linearGradient id="paint28_linear_3762_865" x1="151.79" y1="398.306" x2="142.263" y2="395.453" gradientUnits="userSpaceOnUse">
<stop stop-color="#6D9FCC"/>
<stop offset="0.5" stop-color="#6EA1CD"/>
<stop offset="0.72" stop-color="#73A8CE"/>
<stop offset="0.89" stop-color="#7CB5D2"/>
<stop offset="1" stop-color="#85C3D5"/>
</linearGradient>
<linearGradient id="paint29_linear_3762_865" x1="158.963" y1="419.572" x2="146.562" y2="415.861" gradientUnits="userSpaceOnUse">
<stop stop-color="#6D9FCC"/>
<stop offset="0.5" stop-color="#6EA1CD"/>
<stop offset="0.72" stop-color="#73A8CE"/>
<stop offset="0.89" stop-color="#7CB5D2"/>
<stop offset="1" stop-color="#85C3D5"/>
</linearGradient>
<linearGradient id="paint30_linear_3762_865" x1="156.221" y1="439.822" x2="147.144" y2="437.105" gradientUnits="userSpaceOnUse">
<stop stop-color="#6D9FCC"/>
<stop offset="0.5" stop-color="#6EA1CD"/>
<stop offset="0.72" stop-color="#73A8CE"/>
<stop offset="0.89" stop-color="#7CB5D2"/>
<stop offset="1" stop-color="#85C3D5"/>
</linearGradient>
<linearGradient id="paint31_linear_3762_865" x1="157.459" y1="487.077" x2="148.382" y2="484.36" gradientUnits="userSpaceOnUse">
<stop stop-color="#6D9FCC"/>
<stop offset="0.5" stop-color="#6EA1CD"/>
<stop offset="0.72" stop-color="#73A8CE"/>
<stop offset="0.89" stop-color="#7CB5D2"/>
<stop offset="1" stop-color="#85C3D5"/>
</linearGradient>
<linearGradient id="paint32_linear_3762_865" x1="158.126" y1="522.815" x2="168.169" y2="523.509" gradientUnits="userSpaceOnUse">
<stop stop-color="#6D9FCC"/>
<stop offset="0.5" stop-color="#6EA1CD"/>
<stop offset="0.72" stop-color="#73A8CE"/>
<stop offset="0.89" stop-color="#7CB5D2"/>
<stop offset="1" stop-color="#85C3D5"/>
</linearGradient>
<linearGradient id="paint33_linear_3762_865" x1="166.216" y1="472.397" x2="156.718" y2="471.741" gradientUnits="userSpaceOnUse">
<stop stop-color="#6D9FCC"/>
<stop offset="0.5" stop-color="#6EA1CD"/>
<stop offset="0.72" stop-color="#73A8CE"/>
<stop offset="0.89" stop-color="#7CB5D2"/>
<stop offset="1" stop-color="#85C3D5"/>
</linearGradient>
<linearGradient id="paint34_linear_3762_865" x1="20.6659" y1="401.88" x2="7.0833" y2="394.572" gradientUnits="userSpaceOnUse">
<stop stop-color="#9ED6CA"/>
<stop offset="1" stop-color="#AFDCD2"/>
</linearGradient>
<linearGradient id="paint35_linear_3762_865" x1="20.5791" y1="432.758" x2="7.85561" y2="425.915" gradientUnits="userSpaceOnUse">
<stop stop-color="#9ED6CA"/>
<stop offset="1" stop-color="#AFDCD2"/>
</linearGradient>
<linearGradient id="paint36_linear_3762_865" x1="18.4043" y1="466.288" x2="8.27311" y2="462.325" gradientUnits="userSpaceOnUse">
<stop stop-color="#9ED6CA"/>
<stop offset="1" stop-color="#AFDCD2"/>
</linearGradient>
<linearGradient id="paint37_linear_3762_865" x1="19.7259" y1="493.206" x2="8.4449" y2="490.608" gradientUnits="userSpaceOnUse">
<stop stop-color="#9ED6CA"/>
<stop offset="1" stop-color="#AFDCD2"/>
</linearGradient>
<linearGradient id="paint38_linear_3762_865" x1="22.8757" y1="531.356" x2="11.8389" y2="529.747" gradientUnits="userSpaceOnUse">
<stop stop-color="#8CC8D1"/>
<stop offset="1" stop-color="#9ED6CA"/>
</linearGradient>
<linearGradient id="paint39_linear_3762_865" x1="157.515" y1="480.969" x2="-31.6853" y2="405.344" gradientUnits="userSpaceOnUse">
<stop stop-color="#6D9FCC"/>
<stop offset="0.24" stop-color="#85C3D5"/>
<stop offset="0.47" stop-color="#8CC8D1"/>
<stop offset="0.74" stop-color="#9ED6CA"/>
<stop offset="1" stop-color="#AFDCD2"/>
</linearGradient>
<linearGradient id="paint40_linear_3762_865" x1="89.8313" y1="385.569" x2="88.5976" y2="344.449" gradientUnits="userSpaceOnUse">
<stop stop-color="#527B95"/>
<stop offset="0.53" stop-color="#6699A0"/>
<stop offset="0.86" stop-color="#73B0A9"/>
</linearGradient>
<linearGradient id="paint41_linear_3762_865" x1="90.5318" y1="386.807" x2="89.2987" y2="345.704" gradientUnits="userSpaceOnUse">
<stop stop-color="#527B95"/>
<stop offset="0.53" stop-color="#6699A0"/>
<stop offset="0.86" stop-color="#73B0A9"/>
</linearGradient>
<linearGradient id="paint42_linear_3762_865" x1="53.6377" y1="595.052" x2="52.2822" y2="549.868" gradientUnits="userSpaceOnUse">
<stop stop-color="#404041"/>
<stop offset="0.04" stop-color="#403F40"/>
<stop offset="1" stop-color="#353435"/>
</linearGradient>
<linearGradient id="paint43_linear_3762_865" x1="62.7347" y1="572.165" x2="43.1821" y2="572.751" gradientUnits="userSpaceOnUse">
<stop stop-color="#527B95"/>
<stop offset="0.53" stop-color="#6699A0"/>
<stop offset="0.86" stop-color="#73B0A9"/>
</linearGradient>
<linearGradient id="paint44_linear_3762_865" x1="53.1864" y1="579.971" x2="52.7357" y2="564.949" gradientUnits="userSpaceOnUse">
<stop offset="0.21" stop-color="#344A7B"/>
<stop offset="0.65" stop-color="#273861"/>
<stop offset="1" stop-color="#182649"/>
</linearGradient>
<linearGradient id="paint45_linear_3762_865" x1="34.4661" y1="519.654" x2="59.6348" y2="492.512" gradientUnits="userSpaceOnUse">
<stop stop-color="#6D9FCC"/>
<stop offset="1" stop-color="#85C3D5"/>
</linearGradient>
<linearGradient id="paint46_linear_3762_865" x1="52.7881" y1="566.752" x2="52.0644" y2="542.628" gradientUnits="userSpaceOnUse">
<stop stop-color="#9ED6CA"/>
<stop offset="0.23" stop-color="#8CC8D1"/>
<stop offset="0.92" stop-color="#85C3D5"/>
</linearGradient>
<linearGradient id="paint47_linear_3762_865" x1="135.289" y1="510.241" x2="58.6517" y2="505.334" gradientUnits="userSpaceOnUse">
<stop stop-color="#8CC8D1"/>
<stop offset="0.46" stop-color="#85C3D5"/>
<stop offset="1" stop-color="#6D9FCC"/>
</linearGradient>
<linearGradient id="paint48_linear_3762_865" x1="0.170139" y1="355.606" x2="43.6501" y2="354.3" gradientUnits="userSpaceOnUse">
<stop offset="0.21" stop-color="#344A7B"/>
<stop offset="0.56" stop-color="#273861"/>
<stop offset="1" stop-color="#182649"/>
</linearGradient>
<linearGradient id="paint49_linear_3762_865" x1="47.7051" y1="395.647" x2="26.6322" y2="357.742" gradientUnits="userSpaceOnUse">
<stop stop-color="#9ED6CA"/>
<stop offset="0.53" stop-color="#8CC8D1"/>
<stop offset="0.76" stop-color="#85C3D5"/>
<stop offset="1" stop-color="#6D9FCC"/>
</linearGradient>
<linearGradient id="paint50_linear_3762_865" x1="152.988" y1="464.436" x2="125.245" y2="465.269" gradientUnits="userSpaceOnUse">
<stop offset="0.02" stop-color="#E6E7E8"/>
<stop offset="0.5" stop-color="#F0F0F1"/>
<stop offset="1" stop-color="white"/>
</linearGradient>
<linearGradient id="paint51_linear_3762_865" x1="147.64" y1="469.718" x2="132.664" y2="454.595" gradientUnits="userSpaceOnUse">
<stop stop-color="#451416"/>
<stop offset="0.34" stop-color="#350E2A"/>
<stop offset="0.69" stop-color="#2B0A38"/>
<stop offset="1" stop-color="#27093D"/>
</linearGradient>
<linearGradient id="paint52_linear_3762_865" x1="51.4109" y1="466.975" x2="79.1406" y2="466.142" gradientUnits="userSpaceOnUse">
<stop offset="0.02" stop-color="#E6E7E8"/>
<stop offset="0.5" stop-color="#F0F0F1"/>
<stop offset="1" stop-color="white"/>
</linearGradient>
<linearGradient id="paint53_linear_3762_865" x1="85.8072" y1="471.573" x2="70.8361" y2="456.45" gradientUnits="userSpaceOnUse">
<stop stop-color="#451416"/>
<stop offset="0.34" stop-color="#350E2A"/>
<stop offset="0.69" stop-color="#2B0A38"/>
<stop offset="1" stop-color="#27093D"/>
</linearGradient>
<linearGradient id="paint54_linear_3762_865" x1="120.624" y1="477.635" x2="89.273" y2="478.575" gradientUnits="userSpaceOnUse">
<stop stop-color="#182649"/>
<stop offset="0.35" stop-color="#273861"/>
<stop offset="0.79" stop-color="#344A7B"/>
</linearGradient>
<linearGradient id="paint55_linear_3762_865" x1="160.707" y1="440.786" x2="130.647" y2="433.348" gradientUnits="userSpaceOnUse">
<stop stop-color="#182649"/>
<stop offset="0.44" stop-color="#273861"/>
<stop offset="0.79" stop-color="#344A7B"/>
</linearGradient>
<linearGradient id="paint56_linear_3762_865" x1="149.54" y1="431.706" x2="119.853" y2="423.031" gradientUnits="userSpaceOnUse">
<stop stop-color="#182649"/>
<stop offset="0.44" stop-color="#273861"/>
<stop offset="0.79" stop-color="#344A7B"/>
</linearGradient>
<linearGradient id="paint57_linear_3762_865" x1="53.9992" y1="432.161" x2="83.5532" y2="423.233" gradientUnits="userSpaceOnUse">
<stop stop-color="#182649"/>
<stop offset="0.44" stop-color="#273861"/>
<stop offset="0.79" stop-color="#344A7B"/>
</linearGradient>
<linearGradient id="paint58_linear_3762_865" x1="48.0526" y1="428.555" x2="77.1217" y2="418.041" gradientUnits="userSpaceOnUse">
<stop stop-color="#182649"/>
<stop offset="0.44" stop-color="#273861"/>
<stop offset="0.79" stop-color="#344A7B"/>
</linearGradient>
<radialGradient id="paint59_radial_3762_865" cx="0" cy="0" r="1" gradientUnits="userSpaceOnUse" gradientTransform="translate(105.71 510.668) rotate(-1.72) scale(12.407 12.4071)">
<stop stop-color="#A92B4A"/>
<stop offset="0.52" stop-color="#88203A"/>
<stop offset="1" stop-color="#66142A"/>
</radialGradient>
<linearGradient id="paint60_linear_3762_865" x1="103.174" y1="514.736" x2="114.76" y2="510.037" gradientUnits="userSpaceOnUse">
<stop stop-color="#ED977E"/>
<stop offset="1" stop-color="#F59192"/>
</linearGradient>
<linearGradient id="paint61_linear_3762_865" x1="91.4749" y1="508.125" x2="99.1088" y2="504.771" gradientUnits="userSpaceOnUse">
<stop stop-color="white"/>
<stop offset="0.41" stop-color="#FCFCFC"/>
<stop offset="0.76" stop-color="#F1F2F2"/>
<stop offset="0.98" stop-color="#E6E7E8"/>
</linearGradient>
<linearGradient id="paint62_linear_3762_865" x1="111.795" y1="504.081" x2="118.938" y2="507.818" gradientUnits="userSpaceOnUse">
<stop offset="0.02" stop-color="#E6E7E8"/>
<stop offset="0.24" stop-color="#F1F2F2"/>
<stop offset="0.59" stop-color="#FCFCFC"/>
<stop offset="1" stop-color="white"/>
</linearGradient>
<linearGradient id="paint63_linear_3762_865" x1="487.217" y1="130.778" x2="503.701" y2="115.226" gradientUnits="userSpaceOnUse">
<stop stop-color="#451416"/>
<stop offset="0.33" stop-color="#360F29"/>
<stop offset="0.69" stop-color="#2B0A38"/>
<stop offset="1" stop-color="#27093D"/>
</linearGradient>
<linearGradient id="paint64_linear_3762_865" x1="489.425" y1="189.426" x2="468.047" y2="220.181" gradientUnits="userSpaceOnUse">
<stop stop-color="#451416"/>
<stop offset="0.56" stop-color="#5B2225"/>
<stop offset="1" stop-color="#662A2D"/>
</linearGradient>
<linearGradient id="paint65_linear_3762_865" x1="483.357" y1="198.152" x2="474.109" y2="211.455" gradientUnits="userSpaceOnUse">
<stop offset="0.02" stop-color="#FCCBB8"/>
<stop offset="0.45" stop-color="#FEE3C8"/>
<stop offset="1" stop-color="#FFF0E2"/>
</linearGradient>
<linearGradient id="paint66_linear_3762_865" x1="482.287" y1="199.691" x2="475.18" y2="209.916" gradientUnits="userSpaceOnUse">
<stop stop-color="#27093D"/>
<stop offset="1" stop-color="#4D316F"/>
</linearGradient>
<linearGradient id="paint67_linear_3762_865" x1="472.251" y1="209.503" x2="473.259" y2="189.604" gradientUnits="userSpaceOnUse">
<stop offset="0.46" stop-color="#F9A045"/>
<stop offset="1" stop-color="#F58442"/>
</linearGradient>
<linearGradient id="paint68_linear_3762_865" x1="453.705" y1="211.63" x2="491.157" y2="213.527" gradientUnits="userSpaceOnUse">
<stop stop-color="#451416"/>
<stop offset="0.56" stop-color="#5B2225"/>
<stop offset="1" stop-color="#662A2D"/>
</linearGradient>
<linearGradient id="paint69_linear_3762_865" x1="464.328" y1="212.168" x2="480.536" y2="212.989" gradientUnits="userSpaceOnUse">
<stop offset="0.02" stop-color="#FCCBB8"/>
<stop offset="0.45" stop-color="#FEE3C8"/>
<stop offset="1" stop-color="#FFF0E2"/>
</linearGradient>
<linearGradient id="paint70_linear_3762_865" x1="466.203" y1="212.263" x2="478.657" y2="212.894" gradientUnits="userSpaceOnUse">
<stop stop-color="#27093D"/>
<stop offset="1" stop-color="#4D316F"/>
</linearGradient>
<linearGradient id="paint71_linear_3762_865" x1="472.582" y1="209.52" x2="473.59" y2="189.621" gradientUnits="userSpaceOnUse">
<stop offset="0.3" stop-color="#F9A045"/>
<stop offset="0.69" stop-color="#F68D43"/>
<stop offset="1" stop-color="#F58442"/>
</linearGradient>
<linearGradient id="paint72_linear_3762_865" x1="402.639" y1="39.9212" x2="433.765" y2="30.9026" gradientUnits="userSpaceOnUse">
<stop offset="0.02" stop-color="#FCCBB8"/>
<stop offset="0.45" stop-color="#FEE3C8"/>
<stop offset="1" stop-color="#FFF0E2"/>
</linearGradient>
<radialGradient id="paint73_radial_3762_865" cx="0" cy="0" r="1" gradientUnits="userSpaceOnUse" gradientTransform="translate(486.016 128.13) rotate(-177.138) scale(77.1341)">
<stop stop-color="#FCBE38"/>
<stop offset="0.29" stop-color="#FBB33D"/>
<stop offset="0.61" stop-color="#F9A045"/>
<stop offset="1" stop-color="#F58442"/>
</radialGradient>
<radialGradient id="paint74_radial_3762_865" cx="0" cy="0" r="1" gradientUnits="userSpaceOnUse" gradientTransform="translate(534.156 85.4552) rotate(2.70063) scale(103.008 97.1905)">
<stop stop-color="#FCBE38"/>
<stop offset="0.29" stop-color="#FBB33D"/>
<stop offset="0.61" stop-color="#F9A045"/>
<stop offset="1" stop-color="#F58442"/>
</radialGradient>
<linearGradient id="paint75_linear_3762_865" x1="541.472" y1="135.19" x2="516.909" y2="138.215" gradientUnits="userSpaceOnUse">
<stop stop-color="#FCBE38"/>
<stop offset="0.46" stop-color="#FBB33D"/>
<stop offset="0.99" stop-color="#F9A045"/>
</linearGradient>
<linearGradient id="paint76_linear_3762_865" x1="579.713" y1="120.701" x2="550.653" y2="130.31" gradientUnits="userSpaceOnUse">
<stop stop-color="#F58442"/>
<stop offset="0.23" stop-color="#F7943F"/>
<stop offset="0.72" stop-color="#FBB33A"/>
<stop offset="1" stop-color="#FCBE38"/>
</linearGradient>
<linearGradient id="paint77_linear_3762_865" x1="554.508" y1="40.268" x2="579.831" y2="39.5854" gradientUnits="userSpaceOnUse">
<stop offset="0.02" stop-color="#FCCBB8"/>
<stop offset="0.45" stop-color="#FEE3C8"/>
<stop offset="1" stop-color="#FFF0E2"/>
</linearGradient>
<linearGradient id="paint78_linear_3762_865" x1="479.163" y1="214.155" x2="516.615" y2="216.052" gradientUnits="userSpaceOnUse">
<stop stop-color="#451416"/>
<stop offset="0.56" stop-color="#5B2225"/>
<stop offset="1" stop-color="#662A2D"/>
</linearGradient>
<linearGradient id="paint79_linear_3762_865" x1="489.786" y1="214.693" x2="505.995" y2="215.514" gradientUnits="userSpaceOnUse">
<stop offset="0.02" stop-color="#FCCBB8"/>
<stop offset="0.45" stop-color="#FEE3C8"/>
<stop offset="1" stop-color="#FFF0E2"/>
</linearGradient>
<linearGradient id="paint80_linear_3762_865" x1="491.661" y1="214.788" x2="504.115" y2="215.419" gradientUnits="userSpaceOnUse">
<stop stop-color="#27093D"/>
<stop offset="1" stop-color="#4D316F"/>
</linearGradient>
<linearGradient id="paint81_linear_3762_865" x1="498.048" y1="212.045" x2="499.056" y2="192.146" gradientUnits="userSpaceOnUse">
<stop offset="0.3" stop-color="#F9A045"/>
<stop offset="0.69" stop-color="#F68D43"/>
<stop offset="1" stop-color="#F58442"/>
</linearGradient>
<radialGradient id="paint82_radial_3762_865" cx="0" cy="0" r="1" gradientUnits="userSpaceOnUse" gradientTransform="translate(472.501 155.277) rotate(2.9) scale(15.8377 15.8377)">
<stop stop-color="#A92B4A"/>
<stop offset="0.52" stop-color="#88203A"/>
<stop offset="1" stop-color="#66142A"/>
</radialGradient>
<linearGradient id="paint83_linear_3762_865" x1="468.857" y1="160.189" x2="484.082" y2="155.402" gradientUnits="userSpaceOnUse">
<stop stop-color="#ED977E"/>
<stop offset="1" stop-color="#F59192"/>
</linearGradient>
<linearGradient id="paint84_linear_3762_865" x1="454.655" y1="150.577" x2="464.713" y2="147.091" gradientUnits="userSpaceOnUse">
<stop stop-color="white"/>
<stop offset="0.41" stop-color="#FCFCFC"/>
<stop offset="0.76" stop-color="#F1F2F2"/>
<stop offset="0.98" stop-color="#E6E7E8"/>
</linearGradient>
<linearGradient id="paint85_linear_3762_865" x1="480.933" y1="147.52" x2="489.634" y2="153.009" gradientUnits="userSpaceOnUse">
<stop offset="0.02" stop-color="#E6E7E8"/>
<stop offset="0.24" stop-color="#F1F2F2"/>
<stop offset="0.59" stop-color="#FCFCFC"/>
<stop offset="1" stop-color="white"/>
</linearGradient>
<linearGradient id="paint86_linear_3762_865" x1="478.695" y1="109.923" x2="517.572" y2="111.893" gradientUnits="userSpaceOnUse">
<stop stop-color="white"/>
<stop offset="0.48" stop-color="#F0F1F1"/>
<stop offset="0.98" stop-color="#E6E7E8"/>
</linearGradient>
<linearGradient id="paint87_linear_3762_865" x1="481.735" y1="121.747" x2="501.209" y2="103.374" gradientUnits="userSpaceOnUse">
<stop stop-color="#451416"/>
<stop offset="0.33" stop-color="#360F29"/>
<stop offset="0.69" stop-color="#2B0A38"/>
<stop offset="1" stop-color="#27093D"/>
</linearGradient>
<linearGradient id="paint88_linear_3762_865" x1="430.034" y1="107.459" x2="457.92" y2="108.871" gradientUnits="userSpaceOnUse">
<stop offset="0.02" stop-color="#E6E7E8"/>
<stop offset="0.5" stop-color="#F0F0F1"/>
<stop offset="1" stop-color="white"/>
</linearGradient>
<linearGradient id="paint89_linear_3762_865" x1="435.862" y1="117.554" x2="455.086" y2="98.9216" gradientUnits="userSpaceOnUse">
<stop stop-color="#451416"/>
<stop offset="0.34" stop-color="#350E2A"/>
<stop offset="0.69" stop-color="#2B0A38"/>
<stop offset="1" stop-color="#27093D"/>
</linearGradient>
<linearGradient id="paint90_linear_3762_865" x1="435.862" y1="117.554" x2="455.086" y2="98.9216" gradientUnits="userSpaceOnUse">
<stop stop-color="#451416"/>
<stop offset="0.34" stop-color="#350E2A"/>
<stop offset="0.69" stop-color="#2B0A38"/>
<stop offset="1" stop-color="#27093D"/>
</linearGradient>
<linearGradient id="paint91_linear_3762_865" x1="424.457" y1="72.5262" x2="457.434" y2="62.9079" gradientUnits="userSpaceOnUse">
<stop stop-color="#451416"/>
<stop offset="0.56" stop-color="#5B2225"/>
<stop offset="1" stop-color="#662A2D"/>
</linearGradient>
<linearGradient id="paint92_linear_3762_865" x1="425.608" y1="71.8408" x2="459.105" y2="64.663" gradientUnits="userSpaceOnUse">
<stop stop-color="#451416"/>
<stop offset="0.56" stop-color="#5B2225"/>
<stop offset="1" stop-color="#662A2D"/>
</linearGradient>
<linearGradient id="paint93_linear_3762_865" x1="524.586" y1="72.8406" x2="492.839" y2="62.4808" gradientUnits="userSpaceOnUse">
<stop stop-color="#451416"/>
<stop offset="0.56" stop-color="#5B2225"/>
<stop offset="1" stop-color="#662A2D"/>
</linearGradient>
<linearGradient id="paint94_linear_3762_865" x1="524.527" y1="71.9308" x2="492.056" y2="61.335" gradientUnits="userSpaceOnUse">
<stop stop-color="#451416"/>
<stop offset="0.56" stop-color="#5B2225"/>
<stop offset="1" stop-color="#662A2D"/>
</linearGradient>
<linearGradient id="paint95_linear_3762_865" x1="408.779" y1="125.777" x2="388.029" y2="122.633" gradientUnits="userSpaceOnUse">
<stop offset="0.24" stop-color="#F9A045"/>
<stop offset="1" stop-color="#F58442"/>
</linearGradient>
<linearGradient id="paint96_linear_3762_865" x1="392.946" y1="126.512" x2="369.877" y2="85.3965" gradientUnits="userSpaceOnUse">
<stop offset="0.24" stop-color="#F9A045"/>
<stop offset="1" stop-color="#F58442"/>
</linearGradient>
<linearGradient id="paint97_linear_3762_865" x1="399.21" y1="107.849" x2="372.819" y2="93.4225" gradientUnits="userSpaceOnUse">
<stop offset="0.24" stop-color="#F9A045"/>
<stop offset="1" stop-color="#F58442"/>
</linearGradient>
</defs>
</svg>
