<svg width="1440" height="720" viewBox="0 0 1440 720" fill="none" xmlns="http://www.w3.org/2000/svg">
<path d="M1440 216H0V720H1440V216Z" fill="#FFC648"/>
<mask id="mask0_340_62499" style="mask-type:luminance" maskUnits="userSpaceOnUse" x="0" y="0" width="1441" height="487">
<path d="M1440 0H0V487H1440V0Z" fill="white"/>
</mask>
<g mask="url(#mask0_340_62499)">
<path d="M-83.4428 115.226C-21.5721 43.8712 138.714 46.726 172.29 47.3278C273.943 49.1796 284.255 77.1722 406.037 83.3293C505.711 88.3754 506.66 69.9966 623.265 69.9657C758.308 69.9657 781.097 94.5788 907.871 94.656C1004.45 94.656 1004.8 80.4128 1131.99 69.9657C1306.83 55.5991 1450.09 43.8403 1518.33 103.915C1575.5 154.221 1577.89 253.044 1515.59 305.542C1426.08 380.97 1252.92 318.751 968.36 298.351C387.043 256.686 88.9496 443.128 -55.931 315.834C-117.74 261.516 -130.093 169.035 -83.4428 115.226Z" fill="#FFC648"/>
</g>
</svg>
