<svg width="1440" height="327" viewBox="0 0 1440 327" fill="none" xmlns="http://www.w3.org/2000/svg">
<path d="M1440 86H0V327H1440V86Z" fill="white"/>
<path d="M-77.5011 241.074C-23.881 241.074 19.5866 197.606 19.5866 143.986C19.5866 90.3661 -23.881 46.8984 -77.5011 46.8984C-131.121 46.8984 -174.589 90.3661 -174.589 143.986C-174.589 197.606 -131.121 241.074 -77.5011 241.074Z" fill="white"/>
<path d="M56.0707 217.141C99.7402 217.141 135.141 181.74 135.141 138.071C135.141 94.4011 99.7402 59 56.0707 59C12.4011 59 -23 94.4011 -23 138.071C-23 181.74 12.4011 217.141 56.0707 217.141Z" fill="white"/>
<path d="M197.656 183.973C245.063 183.973 283.493 145.543 283.493 98.1362C283.493 50.7298 245.063 12.2993 197.656 12.2993C150.25 12.2993 111.819 50.7298 111.819 98.1362C111.819 145.543 150.25 183.973 197.656 183.973Z" fill="white"/>
<path d="M490.048 237.525C547.984 237.525 594.951 190.558 594.951 132.622C594.951 74.6854 547.984 27.7188 490.048 27.7188C432.111 27.7188 385.145 74.6854 385.145 132.622C385.145 190.558 432.111 237.525 490.048 237.525Z" fill="white"/>
<path d="M651.052 207.131C694.055 207.131 728.916 172.27 728.916 129.267C728.916 86.2639 694.055 51.4028 651.052 51.4028C608.049 51.4028 573.188 86.2639 573.188 129.267C573.188 172.27 608.049 207.131 651.052 207.131Z" fill="white"/>
<path d="M808.037 236.635C869.551 236.635 919.418 186.768 919.418 125.254C919.418 63.7399 869.551 13.873 808.037 13.873C746.523 13.873 696.656 63.7399 696.656 125.254C696.656 186.768 746.523 236.635 808.037 236.635Z" fill="white"/>
<path d="M1001.93 244.004C1063.44 244.004 1113.31 194.137 1113.31 132.623C1113.31 71.1096 1063.44 21.2427 1001.93 21.2427C940.412 21.2427 890.545 71.1096 890.545 132.623C890.545 194.137 940.412 244.004 1001.93 244.004Z" fill="white"/>
<path d="M1146.61 203.38C1187.54 203.38 1220.72 170.198 1220.72 129.266C1220.72 88.3338 1187.54 55.1519 1146.61 55.1519C1105.68 55.1519 1072.5 88.3338 1072.5 129.266C1072.5 170.198 1105.68 203.38 1146.61 203.38Z" fill="white"/>
<path d="M1465.99 215.976C1525.53 215.976 1573.8 167.706 1573.8 108.162C1573.8 48.6181 1525.53 0.348145 1465.99 0.348145C1406.44 0.348145 1358.17 48.6181 1358.17 108.162C1358.17 167.706 1406.44 215.976 1465.99 215.976Z" fill="white"/>
<path d="M1288.05 299.236C1370.68 299.236 1437.67 232.25 1437.67 149.618C1437.67 66.9862 1370.68 0 1288.05 0C1205.42 0 1138.43 66.9862 1138.43 149.618C1138.43 232.25 1205.42 299.236 1288.05 299.236Z" fill="white"/>
<path d="M330.938 263.331C388.875 263.331 435.841 216.364 435.841 158.428C435.841 100.492 388.875 53.5249 330.938 53.5249C273.002 53.5249 226.035 100.492 226.035 158.428C226.035 216.364 273.002 263.331 330.938 263.331Z" fill="white"/>
<path d="M232.824 178.344V165.024C232.824 163.272 233.736 162.72 235.128 162.72H241.152C244.464 162.72 247.128 164.352 247.128 168.192C247.128 171.336 244.944 173.664 241.128 173.664H236.76V178.344C236.76 179.52 235.992 180.312 234.792 180.312C233.592 180.312 232.824 179.52 232.824 178.344ZM236.76 165.744V170.64H240.432C242.016 170.64 243.192 169.68 243.192 168.192C243.192 166.464 241.968 165.744 240.024 165.744H236.76ZM249.482 178.56V168.768C249.482 167.712 250.178 167.136 251.066 167.136C251.954 167.136 252.65 167.712 252.65 168.768V170.112H252.698C253.106 168.648 253.898 167.136 255.602 167.136C256.706 167.136 257.522 167.856 257.522 168.84C257.522 170.136 256.658 170.592 255.794 170.592H255.17C253.754 170.592 252.986 171.576 252.986 174.48V178.56C252.986 179.496 252.602 180.312 251.234 180.312C249.866 180.312 249.482 179.496 249.482 178.56ZM259.256 178.56V168.888C259.256 167.952 259.64 167.136 261.008 167.136C262.376 167.136 262.76 167.952 262.76 168.888V178.56C262.76 179.496 262.376 180.312 261.008 180.312C259.64 180.312 259.256 179.496 259.256 178.56ZM259.184 164.136C259.184 163.128 260 162.312 261.008 162.312C262.016 162.312 262.832 163.128 262.832 164.136C262.832 165.144 262.016 165.96 261.008 165.96C260 165.96 259.184 165.144 259.184 164.136ZM268.048 179.064L264.736 169.848C264.64 169.56 264.52 169.176 264.52 168.96C264.52 167.712 265.384 167.136 266.224 167.136C267.544 167.136 267.88 168.24 267.976 168.6L270.328 176.52H270.376L272.728 168.6C272.824 168.24 273.16 167.136 274.48 167.136C275.32 167.136 276.184 167.712 276.184 168.96C276.184 169.176 276.064 169.56 275.968 169.848L272.656 179.064C272.32 180 272.104 180.312 270.352 180.312C268.6 180.312 268.384 180 268.048 179.064ZM289.384 170.736V176.616C289.384 178.08 289.744 178.416 289.744 178.968C289.744 179.76 289 180.312 288.16 180.312C286.648 180.312 286.144 179.352 286.096 178.272C284.728 179.784 283.144 180.312 281.296 180.312C279.304 180.312 277.336 178.944 277.336 176.736C277.336 173.832 279.544 173.016 282.232 172.704L284.368 172.464C285.208 172.368 285.88 172.176 285.88 171.168C285.88 170.16 284.848 169.728 283.672 169.728C281.08 169.728 281.008 171.648 279.616 171.648C278.728 171.648 278.128 171.024 278.128 170.304C278.128 168.912 280.096 167.136 283.696 167.136C287.056 167.136 289.384 168.216 289.384 170.736ZM285.88 175.464V174.096C285.496 174.456 284.776 174.576 284.368 174.648L283.096 174.84C281.632 175.056 280.84 175.512 280.84 176.568C280.84 177.36 281.584 178.008 282.784 178.008C284.704 178.008 285.88 176.76 285.88 175.464ZM291.743 173.976C291.743 169.944 294.023 167.136 298.319 167.136C301.247 167.136 303.431 168.792 303.431 170.424C303.431 171.432 302.687 171.936 301.799 171.936C300.143 171.936 300.743 169.872 298.223 169.872C296.855 169.872 295.247 170.808 295.247 173.976C295.247 176.16 296.279 177.576 298.199 177.576C300.647 177.576 300.119 175.32 301.967 175.32C302.855 175.32 303.431 175.968 303.431 176.664C303.431 178.2 301.703 180.312 298.103 180.312C293.783 180.312 291.743 177.648 291.743 173.976ZM307.706 168.456L309.962 176.64H310.01L312.146 168.696C312.386 167.808 312.866 167.136 313.826 167.136C315.218 167.136 315.626 168.288 315.626 168.72C315.626 169.008 315.53 169.368 315.362 169.824L311.306 181.32C310.466 183.72 309.506 184.968 307.298 184.968C305.738 184.968 305.09 184.2 305.09 183.36C305.09 182.424 305.762 181.944 306.698 181.944H307.058C307.514 181.944 308.018 181.92 308.282 180.84L304.634 170.448C304.346 169.608 304.202 169.224 304.202 168.816C304.202 167.856 304.97 167.136 305.906 167.136C306.842 167.136 307.49 167.664 307.706 168.456ZM325.074 178.344V165.024C325.074 163.272 325.986 162.72 327.378 162.72H333.402C336.714 162.72 339.378 164.352 339.378 168.192C339.378 171.336 337.194 173.664 333.378 173.664H329.01V178.344C329.01 179.52 328.242 180.312 327.042 180.312C325.842 180.312 325.074 179.52 325.074 178.344ZM329.01 165.744V170.64H332.682C334.266 170.64 335.442 169.68 335.442 168.192C335.442 166.464 334.218 165.744 332.274 165.744H329.01ZM343.79 173.712C343.79 175.848 344.678 177.72 346.766 177.72C348.854 177.72 349.742 175.848 349.742 173.712C349.742 171.432 348.806 169.728 346.766 169.728C344.726 169.728 343.79 171.432 343.79 173.712ZM340.286 173.712C340.286 170.016 342.542 167.136 346.766 167.136C350.99 167.136 353.246 170.016 353.246 173.712C353.246 177.216 351.542 180.312 346.766 180.312C341.99 180.312 340.286 177.216 340.286 173.712ZM355.701 178.56V164.16C355.701 163.008 356.397 162.408 357.453 162.408C358.509 162.408 359.205 163.008 359.205 164.16V178.56C359.205 179.712 358.509 180.312 357.453 180.312C356.397 180.312 355.701 179.712 355.701 178.56ZM362.381 178.56V168.888C362.381 167.952 362.765 167.136 364.133 167.136C365.501 167.136 365.885 167.952 365.885 168.888V178.56C365.885 179.496 365.501 180.312 364.133 180.312C362.765 180.312 362.381 179.496 362.381 178.56ZM362.309 164.136C362.309 163.128 363.125 162.312 364.133 162.312C365.141 162.312 365.957 163.128 365.957 164.136C365.957 165.144 365.141 165.96 364.133 165.96C363.125 165.96 362.309 165.144 362.309 164.136ZM368.197 173.976C368.197 169.944 370.477 167.136 374.773 167.136C377.701 167.136 379.885 168.792 379.885 170.424C379.885 171.432 379.141 171.936 378.253 171.936C376.597 171.936 377.197 169.872 374.677 169.872C373.309 169.872 371.701 170.808 371.701 173.976C371.701 176.16 372.733 177.576 374.653 177.576C377.101 177.576 376.573 175.32 378.421 175.32C379.309 175.32 379.885 175.968 379.885 176.664C379.885 178.2 378.157 180.312 374.557 180.312C370.237 180.312 368.197 177.648 368.197 173.976ZM384.159 168.456L386.415 176.64H386.463L388.599 168.696C388.839 167.808 389.319 167.136 390.279 167.136C391.671 167.136 392.079 168.288 392.079 168.72C392.079 169.008 391.983 169.368 391.815 169.824L387.759 181.32C386.919 183.72 385.959 184.968 383.751 184.968C382.191 184.968 381.543 184.2 381.543 183.36C381.543 182.424 382.215 181.944 383.151 181.944H383.511C383.967 181.944 384.471 181.92 384.735 180.84L381.087 170.448C380.799 169.608 380.655 169.224 380.655 168.816C380.655 167.856 381.423 167.136 382.359 167.136C383.295 167.136 383.943 167.664 384.159 168.456Z" fill="#FFFFFF"/>
<path d="M473.048 178.344V166.032H469.328C468.2 166.032 467.288 165.456 467.288 164.376C467.288 163.296 468.2 162.72 469.328 162.72H480.704C481.832 162.72 482.744 163.296 482.744 164.376C482.744 165.456 481.832 166.032 480.704 166.032H476.984V178.344C476.984 179.52 476.216 180.312 475.016 180.312C473.816 180.312 473.048 179.52 473.048 178.344ZM492.038 174.384H484.118C484.118 176.232 485.318 177.576 487.358 177.576C489.998 177.576 489.998 175.848 491.414 175.848C492.254 175.848 492.854 176.568 492.854 177.216C492.854 179.328 489.47 180.312 487.358 180.312C482.462 180.312 480.614 177 480.614 173.952C480.614 169.872 483.086 167.136 487.238 167.136C491.27 167.136 493.574 169.992 493.574 172.872C493.574 174.072 493.214 174.384 492.038 174.384ZM484.118 172.368H490.262C490.07 170.76 488.87 169.584 487.31 169.584C485.558 169.584 484.502 170.664 484.118 172.368ZM496.029 178.56V168.768C496.029 167.712 496.725 167.136 497.613 167.136C498.501 167.136 499.197 167.712 499.197 168.768V170.112H499.245C499.653 168.648 500.445 167.136 502.149 167.136C503.253 167.136 504.069 167.856 504.069 168.84C504.069 170.136 503.205 170.592 502.341 170.592H501.717C500.301 170.592 499.533 171.576 499.533 174.48V178.56C499.533 179.496 499.149 180.312 497.781 180.312C496.413 180.312 496.029 179.496 496.029 178.56ZM505.611 178.56V168.888C505.611 167.832 506.235 167.136 507.267 167.136C508.299 167.136 508.923 167.832 508.923 168.888V169.344H508.971C509.883 167.952 511.419 167.136 513.195 167.136C514.395 167.136 515.907 167.688 516.555 169.344C517.539 167.976 518.787 167.136 520.683 167.136C523.107 167.136 525.051 168.24 525.051 171.384V178.56C525.051 179.496 524.667 180.312 523.299 180.312C521.931 180.312 521.547 179.496 521.547 178.56V172.272C521.547 171.024 520.995 170.016 519.627 170.016C518.283 170.016 517.083 171.096 517.083 172.728V178.56C517.083 179.496 516.699 180.312 515.331 180.312C513.963 180.312 513.579 179.496 513.579 178.56V172.272C513.579 171.024 513.027 170.016 511.659 170.016C510.315 170.016 509.115 171.096 509.115 172.728V178.56C509.115 179.496 508.731 180.312 507.363 180.312C505.995 180.312 505.611 179.496 505.611 178.56ZM527.278 171.048C527.278 168.192 530.11 167.136 532.534 167.136C535.198 167.136 537.886 168.192 537.886 169.8C537.886 170.616 537.334 171.336 536.422 171.336C535.054 171.336 535.006 169.728 532.798 169.728C531.574 169.728 530.782 170.064 530.782 170.808C530.782 171.624 531.574 171.816 532.654 172.056L534.118 172.392C536.11 172.848 538.486 173.688 538.486 176.136C538.486 178.992 535.726 180.312 533.086 180.312C529.918 180.312 527.278 178.896 527.278 177.168C527.278 176.4 527.71 175.704 528.694 175.704C530.206 175.704 530.35 177.864 532.942 177.864C534.19 177.864 534.982 177.312 534.982 176.592C534.982 175.704 534.214 175.56 532.966 175.248L530.902 174.744C528.862 174.24 527.278 173.4 527.278 171.048ZM559.696 170.736V176.616C559.696 178.08 560.056 178.416 560.056 178.968C560.056 179.76 559.312 180.312 558.472 180.312C556.96 180.312 556.456 179.352 556.408 178.272C555.04 179.784 553.456 180.312 551.608 180.312C549.616 180.312 547.648 178.944 547.648 176.736C547.648 173.832 549.856 173.016 552.544 172.704L554.68 172.464C555.52 172.368 556.192 172.176 556.192 171.168C556.192 170.16 555.16 169.728 553.984 169.728C551.392 169.728 551.32 171.648 549.928 171.648C549.04 171.648 548.44 171.024 548.44 170.304C548.44 168.912 550.408 167.136 554.008 167.136C557.368 167.136 559.696 168.216 559.696 170.736ZM556.192 175.464V174.096C555.808 174.456 555.088 174.576 554.68 174.648L553.408 174.84C551.944 175.056 551.152 175.512 551.152 176.568C551.152 177.36 551.896 178.008 553.096 178.008C555.016 178.008 556.192 176.76 556.192 175.464ZM562.728 178.56V168.888C562.728 167.832 563.208 167.136 564.312 167.136C565.416 167.136 565.896 167.832 565.896 168.888V169.344H565.944C566.928 168.048 568.2 167.136 570.192 167.136C572.304 167.136 574.608 168.192 574.608 171.744V178.56C574.608 179.496 574.224 180.312 572.856 180.312C571.488 180.312 571.104 179.496 571.104 178.56V172.44C571.104 171.024 570.408 170.016 568.896 170.016C567.672 170.016 566.232 171.024 566.232 172.776V178.56C566.232 179.496 565.848 180.312 564.48 180.312C563.112 180.312 562.728 179.496 562.728 178.56ZM589.28 164.16V178.656C589.28 179.736 588.776 180.312 587.696 180.312C586.664 180.312 586.112 179.736 586.112 178.656V178.104H586.064C585.488 179.592 584.072 180.312 582.368 180.312C579.44 180.312 576.872 178.176 576.872 173.64C576.872 170.28 578.576 167.136 582.272 167.136C583.832 167.136 585.032 167.784 585.728 168.912H585.776V164.16C585.776 163.008 586.472 162.408 587.528 162.408C588.584 162.408 589.28 163.008 589.28 164.16ZM580.376 173.76C580.376 175.824 581.288 177.528 583.16 177.576C585.2 177.576 585.968 175.752 585.968 173.76C585.968 171.96 585.296 169.848 583.16 169.872C580.928 169.872 580.376 172.128 580.376 173.76ZM599.288 171.36C599.288 166.488 602.168 162.312 607.736 162.312C612.248 162.312 614.72 165.144 614.72 166.824C614.72 167.928 614.12 168.6 612.944 168.6C610.664 168.6 611.336 165.48 607.736 165.48C605.264 165.48 603.224 167.616 603.224 171.36C603.224 174.504 604.472 177.24 607.88 177.24C610.976 177.24 610.904 173.928 612.8 173.928C613.76 173.928 614.72 174.48 614.72 175.44C614.72 177.936 611.696 180.408 607.88 180.408C602.48 180.408 599.288 177.312 599.288 171.36ZM619.704 173.712C619.704 175.848 620.592 177.72 622.68 177.72C624.768 177.72 625.656 175.848 625.656 173.712C625.656 171.432 624.72 169.728 622.68 169.728C620.64 169.728 619.704 171.432 619.704 173.712ZM616.2 173.712C616.2 170.016 618.456 167.136 622.68 167.136C626.904 167.136 629.16 170.016 629.16 173.712C629.16 177.216 627.456 180.312 622.68 180.312C617.904 180.312 616.2 177.216 616.2 173.712ZM631.423 178.56V168.888C631.423 167.832 631.903 167.136 633.007 167.136C634.111 167.136 634.591 167.832 634.591 168.888V169.344H634.639C635.623 168.048 636.895 167.136 638.887 167.136C640.999 167.136 643.303 168.192 643.303 171.744V178.56C643.303 179.496 642.919 180.312 641.551 180.312C640.183 180.312 639.799 179.496 639.799 178.56V172.44C639.799 171.024 639.103 170.016 637.591 170.016C636.367 170.016 634.927 171.024 634.927 172.776V178.56C634.927 179.496 634.543 180.312 633.175 180.312C631.807 180.312 631.423 179.496 631.423 178.56ZM657.975 164.16V178.656C657.975 179.736 657.471 180.312 656.391 180.312C655.359 180.312 654.807 179.736 654.807 178.656V178.104H654.759C654.183 179.592 652.767 180.312 651.063 180.312C648.135 180.312 645.567 178.176 645.567 173.64C645.567 170.28 647.271 167.136 650.967 167.136C652.527 167.136 653.727 167.784 654.423 168.912H654.471V164.16C654.471 163.008 655.167 162.408 656.223 162.408C657.279 162.408 657.975 163.008 657.975 164.16ZM649.071 173.76C649.071 175.824 649.983 177.528 651.855 177.576C653.895 177.576 654.663 175.752 654.663 173.76C654.663 171.96 653.991 169.848 651.855 169.872C649.623 169.872 649.071 172.128 649.071 173.76ZM660.959 178.56V168.888C660.959 167.952 661.343 167.136 662.711 167.136C664.079 167.136 664.463 167.952 664.463 168.888V178.56C664.463 179.496 664.079 180.312 662.711 180.312C661.343 180.312 660.959 179.496 660.959 178.56ZM660.887 164.136C660.887 163.128 661.703 162.312 662.711 162.312C663.719 162.312 664.535 163.128 664.535 164.136C664.535 165.144 663.719 165.96 662.711 165.96C661.703 165.96 660.887 165.144 660.887 164.136ZM668.359 177.192V169.752H667.759C666.775 169.752 666.367 169.368 666.367 168.6C666.367 167.832 666.775 167.448 667.759 167.448H668.359V165.312C668.359 164.16 669.055 163.56 670.111 163.56C671.167 163.56 671.863 164.16 671.863 165.312V167.448H672.919C673.951 167.448 674.503 167.76 674.503 168.6C674.503 169.44 673.951 169.752 672.919 169.752H671.863V176.76C671.863 177.288 672.151 177.576 672.775 177.576H673.279C674.047 177.576 674.503 178.008 674.503 178.752C674.503 179.76 673.639 180.312 671.959 180.312C669.415 180.312 668.359 179.256 668.359 177.192ZM676.521 178.56V168.888C676.521 167.952 676.906 167.136 678.274 167.136C679.642 167.136 680.026 167.952 680.026 168.888V178.56C680.026 179.496 679.642 180.312 678.274 180.312C676.906 180.312 676.521 179.496 676.521 178.56ZM676.45 164.136C676.45 163.128 677.266 162.312 678.274 162.312C679.282 162.312 680.098 163.128 680.098 164.136C680.098 165.144 679.282 165.96 678.274 165.96C677.266 165.96 676.45 165.144 676.45 164.136ZM685.985 173.712C685.985 175.848 686.873 177.72 688.961 177.72C691.049 177.72 691.937 175.848 691.937 173.712C691.937 171.432 691.001 169.728 688.961 169.728C686.921 169.728 685.985 171.432 685.985 173.712ZM682.481 173.712C682.481 170.016 684.737 167.136 688.961 167.136C693.185 167.136 695.441 170.016 695.441 173.712C695.441 177.216 693.737 180.312 688.961 180.312C684.185 180.312 682.481 177.216 682.481 173.712ZM697.705 178.56V168.888C697.705 167.832 698.185 167.136 699.289 167.136C700.393 167.136 700.873 167.832 700.873 168.888V169.344H700.921C701.905 168.048 703.177 167.136 705.169 167.136C707.281 167.136 709.585 168.192 709.585 171.744V178.56C709.585 179.496 709.201 180.312 707.833 180.312C706.465 180.312 706.081 179.496 706.081 178.56V172.44C706.081 171.024 705.385 170.016 703.873 170.016C702.648 170.016 701.209 171.024 701.209 172.776V178.56C701.209 179.496 700.825 180.312 699.457 180.312C698.089 180.312 697.705 179.496 697.705 178.56ZM711.824 171.048C711.824 168.192 714.656 167.136 717.08 167.136C719.744 167.136 722.432 168.192 722.432 169.8C722.432 170.616 721.88 171.336 720.968 171.336C719.6 171.336 719.552 169.728 717.344 169.728C716.12 169.728 715.328 170.064 715.328 170.808C715.328 171.624 716.12 171.816 717.2 172.056L718.664 172.392C720.656 172.848 723.032 173.688 723.032 176.136C723.032 178.992 720.272 180.312 717.632 180.312C714.464 180.312 711.824 178.896 711.824 177.168C711.824 176.4 712.256 175.704 713.24 175.704C714.752 175.704 714.896 177.864 717.488 177.864C718.736 177.864 719.528 177.312 719.528 176.592C719.528 175.704 718.76 175.56 717.512 175.248L715.448 174.744C713.408 174.24 711.824 173.4 711.824 171.048Z" fill="#FFFFFF"/>
<path d="M799.824 178.344V165.024C799.824 163.272 800.736 162.72 802.128 162.72H808.68C813.36 162.72 814.608 165.288 814.608 167.52C814.608 169.392 813.504 171.24 811.632 171.672V171.72C813.648 172.008 814.008 173.472 814.008 175.224C814.008 177.216 814.536 177.96 814.536 178.776C814.536 179.688 813.6 180.312 812.688 180.312C810.528 180.312 810.36 178.224 810.36 177.528C810.36 174.504 809.808 173.28 807.648 173.28H803.76V178.344C803.76 179.52 802.992 180.312 801.792 180.312C800.592 180.312 799.824 179.52 799.824 178.344ZM803.76 165.744V170.4H807.696C809.184 170.4 810.672 170.016 810.672 168.072C810.672 166.224 809.544 165.744 807.816 165.744H803.76ZM828.077 174.384H820.157C820.157 176.232 821.357 177.576 823.397 177.576C826.037 177.576 826.037 175.848 827.453 175.848C828.293 175.848 828.893 176.568 828.893 177.216C828.893 179.328 825.509 180.312 823.397 180.312C818.501 180.312 816.653 177 816.653 173.952C816.653 169.872 819.125 167.136 823.277 167.136C827.309 167.136 829.613 169.992 829.613 172.872C829.613 174.072 829.253 174.384 828.077 174.384ZM820.157 172.368H826.301C826.109 170.76 824.909 169.584 823.349 169.584C821.597 169.584 820.541 170.664 820.157 172.368ZM832.788 177.192V169.752H832.188C831.204 169.752 830.796 169.368 830.796 168.6C830.796 167.832 831.204 167.448 832.188 167.448H832.788V165.312C832.788 164.16 833.484 163.56 834.54 163.56C835.596 163.56 836.292 164.16 836.292 165.312V167.448H837.348C838.38 167.448 838.932 167.76 838.932 168.6C838.932 169.44 838.38 169.752 837.348 169.752H836.292V176.76C836.292 177.288 836.58 177.576 837.204 177.576H837.708C838.476 177.576 838.932 178.008 838.932 178.752C838.932 179.76 838.068 180.312 836.388 180.312C833.844 180.312 832.788 179.256 832.788 177.192ZM852.639 168.888V178.56C852.639 179.616 852.159 180.312 851.055 180.312C849.951 180.312 849.471 179.616 849.471 178.56V178.104H849.423C848.439 179.4 847.167 180.312 845.175 180.312C843.063 180.312 840.759 179.256 840.759 175.704V168.888C840.759 167.952 841.143 167.136 842.511 167.136C843.879 167.136 844.263 167.952 844.263 168.888V175.008C844.263 176.424 844.959 177.432 846.471 177.432C847.695 177.432 849.135 176.424 849.135 174.672V168.888C849.135 167.952 849.519 167.136 850.887 167.136C852.255 167.136 852.639 167.952 852.639 168.888ZM855.623 178.56V168.768C855.623 167.712 856.319 167.136 857.207 167.136C858.095 167.136 858.791 167.712 858.791 168.768V170.112H858.839C859.247 168.648 860.039 167.136 861.743 167.136C862.847 167.136 863.663 167.856 863.663 168.84C863.663 170.136 862.799 170.592 861.935 170.592H861.311C859.895 170.592 859.127 171.576 859.127 174.48V178.56C859.127 179.496 858.743 180.312 857.375 180.312C856.007 180.312 855.623 179.496 855.623 178.56ZM865.205 178.56V168.888C865.205 167.832 865.685 167.136 866.789 167.136C867.893 167.136 868.373 167.832 868.373 168.888V169.344H868.421C869.405 168.048 870.677 167.136 872.669 167.136C874.781 167.136 877.085 168.192 877.085 171.744V178.56C877.085 179.496 876.701 180.312 875.333 180.312C873.965 180.312 873.581 179.496 873.581 178.56V172.44C873.581 171.024 872.885 170.016 871.373 170.016C870.148 170.016 868.709 171.024 868.709 172.776V178.56C868.709 179.496 868.325 180.312 866.957 180.312C865.589 180.312 865.205 179.496 865.205 178.56ZM887.644 178.344V165.024C887.644 163.272 888.556 162.72 889.948 162.72H895.972C899.284 162.72 901.948 164.352 901.948 168.192C901.948 171.336 899.764 173.664 895.948 173.664H891.58V178.344C891.58 179.52 890.812 180.312 889.612 180.312C888.412 180.312 887.644 179.52 887.644 178.344ZM891.58 165.744V170.64H895.252C896.836 170.64 898.012 169.68 898.012 168.192C898.012 166.464 896.788 165.744 894.844 165.744H891.58ZM906.36 173.712C906.36 175.848 907.248 177.72 909.336 177.72C911.424 177.72 912.312 175.848 912.312 173.712C912.312 171.432 911.376 169.728 909.336 169.728C907.296 169.728 906.36 171.432 906.36 173.712ZM902.856 173.712C902.856 170.016 905.112 167.136 909.336 167.136C913.56 167.136 915.816 170.016 915.816 173.712C915.816 177.216 914.112 180.312 909.336 180.312C904.56 180.312 902.856 177.216 902.856 173.712ZM918.271 178.56V164.16C918.271 163.008 918.968 162.408 920.024 162.408C921.08 162.408 921.776 163.008 921.776 164.16V178.56C921.776 179.712 921.08 180.312 920.024 180.312C918.968 180.312 918.271 179.712 918.271 178.56ZM924.951 178.56V168.888C924.951 167.952 925.335 167.136 926.703 167.136C928.071 167.136 928.455 167.952 928.455 168.888V178.56C928.455 179.496 928.071 180.312 926.703 180.312C925.335 180.312 924.951 179.496 924.951 178.56ZM924.879 164.136C924.879 163.128 925.695 162.312 926.703 162.312C927.711 162.312 928.527 163.128 928.527 164.136C928.527 165.144 927.711 165.96 926.703 165.96C925.695 165.96 924.879 165.144 924.879 164.136ZM930.767 173.976C930.767 169.944 933.047 167.136 937.343 167.136C940.271 167.136 942.455 168.792 942.455 170.424C942.455 171.432 941.711 171.936 940.823 171.936C939.167 171.936 939.767 169.872 937.247 169.872C935.879 169.872 934.271 170.808 934.271 173.976C934.271 176.16 935.303 177.576 937.223 177.576C939.671 177.576 939.143 175.32 940.991 175.32C941.879 175.32 942.455 175.968 942.455 176.664C942.455 178.2 940.727 180.312 937.127 180.312C932.807 180.312 930.767 177.648 930.767 173.976ZM946.73 168.456L948.986 176.64H949.034L951.17 168.696C951.41 167.808 951.89 167.136 952.85 167.136C954.242 167.136 954.65 168.288 954.65 168.72C954.65 169.008 954.554 169.368 954.386 169.824L950.33 181.32C949.49 183.72 948.53 184.968 946.322 184.968C944.762 184.968 944.114 184.2 944.114 183.36C944.114 182.424 944.786 181.944 945.722 181.944H946.082C946.538 181.944 947.042 181.92 947.306 180.84L943.658 170.448C943.37 169.608 943.226 169.224 943.226 168.816C943.226 167.856 943.994 167.136 944.93 167.136C945.866 167.136 946.514 167.664 946.73 168.456Z" fill="#FFFFFF"/>
<path d="M1036.58 169.248L1039.87 169.992C1043.47 170.808 1044.38 172.944 1044.38 174.96C1044.38 178.08 1042.03 180.408 1037.28 180.408C1032.29 180.408 1030.06 177.912 1030.06 176.04C1030.06 175.08 1030.75 174.408 1031.71 174.408C1033.85 174.408 1033.3 177.528 1037.28 177.528C1039.32 177.528 1040.45 176.4 1040.45 175.248C1040.45 174.552 1040.11 173.784 1038.77 173.448L1034.33 172.32C1030.75 171.408 1030.1 169.44 1030.1 167.592C1030.1 163.752 1033.66 162.312 1036.99 162.312C1040.06 162.312 1043.69 164.04 1043.69 166.344C1043.69 167.328 1042.85 167.904 1041.89 167.904C1040.06 167.904 1040.4 165.336 1036.73 165.336C1034.9 165.336 1033.9 166.176 1033.9 167.376C1033.9 168.576 1035.34 168.96 1036.58 169.248ZM1046.82 178.56V164.16C1046.82 163.008 1047.52 162.408 1048.57 162.408C1049.63 162.408 1050.33 163.008 1050.33 164.16V168.984H1050.37C1051.07 168.072 1052.29 167.136 1054.29 167.136C1056.4 167.136 1058.7 168.192 1058.7 171.744V178.56C1058.7 179.496 1058.32 180.312 1056.95 180.312C1055.58 180.312 1055.2 179.496 1055.2 178.56V172.44C1055.2 171.024 1054.5 170.016 1052.99 170.016C1051.77 170.016 1050.33 171.024 1050.33 172.776V178.56C1050.33 179.496 1049.94 180.312 1048.57 180.312C1047.21 180.312 1046.82 179.496 1046.82 178.56ZM1061.69 178.56V168.888C1061.69 167.952 1062.07 167.136 1063.44 167.136C1064.81 167.136 1065.19 167.952 1065.19 168.888V178.56C1065.19 179.496 1064.81 180.312 1063.44 180.312C1062.07 180.312 1061.69 179.496 1061.69 178.56ZM1061.61 164.136C1061.61 163.128 1062.43 162.312 1063.44 162.312C1064.45 162.312 1065.26 163.128 1065.26 164.136C1065.26 165.144 1064.45 165.96 1063.44 165.96C1062.43 165.96 1061.61 165.144 1061.61 164.136ZM1068.17 183.216V168.792C1068.17 167.712 1068.68 167.136 1069.76 167.136C1070.79 167.136 1071.34 167.712 1071.34 168.792V169.344H1071.39C1071.97 167.856 1073.38 167.136 1075.09 167.136C1078.01 167.136 1080.58 169.272 1080.58 173.808C1080.58 177.168 1078.88 180.312 1075.18 180.312C1073.57 180.312 1072.37 179.664 1071.73 178.536H1071.68V183.216C1071.68 184.368 1070.98 184.968 1069.93 184.968C1068.87 184.968 1068.17 184.368 1068.17 183.216ZM1077.08 173.688C1077.08 171.624 1076.17 169.92 1074.29 169.872C1072.25 169.872 1071.49 171.696 1071.49 173.688C1071.49 175.488 1072.16 177.6 1074.29 177.576C1076.53 177.576 1077.08 175.32 1077.08 173.688ZM1082.85 183.216V168.792C1082.85 167.712 1083.35 167.136 1084.43 167.136C1085.46 167.136 1086.01 167.712 1086.01 168.792V169.344H1086.06C1086.64 167.856 1088.05 167.136 1089.76 167.136C1092.69 167.136 1095.25 169.272 1095.25 173.808C1095.25 177.168 1093.55 180.312 1089.85 180.312C1088.25 180.312 1087.05 179.664 1086.4 178.536H1086.35V183.216C1086.35 184.368 1085.65 184.968 1084.6 184.968C1083.54 184.968 1082.85 184.368 1082.85 183.216ZM1091.75 173.688C1091.75 171.624 1090.84 169.92 1088.97 169.872C1086.93 169.872 1086.16 171.696 1086.16 173.688C1086.16 175.488 1086.83 177.6 1088.97 177.576C1091.2 177.576 1091.75 175.32 1091.75 173.688ZM1097.71 178.56V168.888C1097.71 167.952 1098.09 167.136 1099.46 167.136C1100.83 167.136 1101.21 167.952 1101.21 168.888V178.56C1101.21 179.496 1100.83 180.312 1099.46 180.312C1098.09 180.312 1097.71 179.496 1097.71 178.56ZM1097.64 164.136C1097.64 163.128 1098.45 162.312 1099.46 162.312C1100.47 162.312 1101.29 163.128 1101.29 164.136C1101.29 165.144 1100.47 165.96 1099.46 165.96C1098.45 165.96 1097.64 165.144 1097.64 164.136ZM1104.2 178.56V168.888C1104.2 167.832 1104.68 167.136 1105.78 167.136C1106.88 167.136 1107.36 167.832 1107.36 168.888V169.344H1107.41C1108.4 168.048 1109.67 167.136 1111.66 167.136C1113.77 167.136 1116.08 168.192 1116.08 171.744V178.56C1116.08 179.496 1115.69 180.312 1114.32 180.312C1112.96 180.312 1112.57 179.496 1112.57 178.56V172.44C1112.57 171.024 1111.88 170.016 1110.36 170.016C1109.14 170.016 1107.7 171.024 1107.7 172.776V178.56C1107.7 179.496 1107.32 180.312 1105.95 180.312C1104.58 180.312 1104.2 179.496 1104.2 178.56ZM1121.84 173.688C1121.84 175.296 1122.64 177.072 1124.63 177.072C1126.19 177.072 1127.39 176.04 1127.39 173.544C1127.39 171 1126.43 169.872 1124.8 169.872C1122.54 169.872 1121.84 171.528 1121.84 173.688ZM1130.75 168.792V178.968C1130.75 183.192 1128.16 185.136 1124.51 185.136C1121.84 185.136 1119.23 183.936 1119.23 182.232C1119.23 181.368 1119.9 180.744 1120.67 180.744C1122.13 180.744 1122.42 182.544 1124.39 182.544C1126.52 182.544 1127.39 181.464 1127.39 178.704V177.984H1127.34C1126.72 178.896 1125.35 179.664 1123.96 179.664C1120.26 179.664 1118.34 177.264 1118.34 173.808C1118.34 169.272 1120.88 167.136 1123.84 167.136C1125.54 167.136 1126.88 167.928 1127.53 169.224H1127.58V168.792C1127.58 167.712 1128.13 167.136 1129.16 167.136C1130.24 167.136 1130.75 167.712 1130.75 168.792ZM1141.31 178.344V165.024C1141.31 163.272 1142.22 162.72 1143.61 162.72H1149.64C1152.95 162.72 1155.61 164.352 1155.61 168.192C1155.61 171.336 1153.43 173.664 1149.61 173.664H1145.24V178.344C1145.24 179.52 1144.48 180.312 1143.28 180.312C1142.08 180.312 1141.31 179.52 1141.31 178.344ZM1145.24 165.744V170.64H1148.92C1150.5 170.64 1151.68 169.68 1151.68 168.192C1151.68 166.464 1150.45 165.744 1148.51 165.744H1145.24ZM1160.02 173.712C1160.02 175.848 1160.91 177.72 1163 177.72C1165.09 177.72 1165.98 175.848 1165.98 173.712C1165.98 171.432 1165.04 169.728 1163 169.728C1160.96 169.728 1160.02 171.432 1160.02 173.712ZM1156.52 173.712C1156.52 170.016 1158.78 167.136 1163 167.136C1167.22 167.136 1169.48 170.016 1169.48 173.712C1169.48 177.216 1167.78 180.312 1163 180.312C1158.22 180.312 1156.52 177.216 1156.52 173.712ZM1171.94 178.56V164.16C1171.94 163.008 1172.63 162.408 1173.69 162.408C1174.74 162.408 1175.44 163.008 1175.44 164.16V178.56C1175.44 179.712 1174.74 180.312 1173.69 180.312C1172.63 180.312 1171.94 179.712 1171.94 178.56ZM1178.62 178.56V168.888C1178.62 167.952 1179 167.136 1180.37 167.136C1181.74 167.136 1182.12 167.952 1182.12 168.888V178.56C1182.12 179.496 1181.74 180.312 1180.37 180.312C1179 180.312 1178.62 179.496 1178.62 178.56ZM1178.54 164.136C1178.54 163.128 1179.36 162.312 1180.37 162.312C1181.38 162.312 1182.19 163.128 1182.19 164.136C1182.19 165.144 1181.38 165.96 1180.37 165.96C1179.36 165.96 1178.54 165.144 1178.54 164.136ZM1184.43 173.976C1184.43 169.944 1186.71 167.136 1191.01 167.136C1193.93 167.136 1196.12 168.792 1196.12 170.424C1196.12 171.432 1195.37 171.936 1194.49 171.936C1192.83 171.936 1193.43 169.872 1190.91 169.872C1189.54 169.872 1187.93 170.808 1187.93 173.976C1187.93 176.16 1188.97 177.576 1190.89 177.576C1193.33 177.576 1192.81 175.32 1194.65 175.32C1195.54 175.32 1196.12 175.968 1196.12 176.664C1196.12 178.2 1194.39 180.312 1190.79 180.312C1186.47 180.312 1184.43 177.648 1184.43 173.976ZM1200.39 168.456L1202.65 176.64H1202.7L1204.83 168.696C1205.07 167.808 1205.55 167.136 1206.51 167.136C1207.91 167.136 1208.31 168.288 1208.31 168.72C1208.31 169.008 1208.22 169.368 1208.05 169.824L1203.99 181.32C1203.15 183.72 1202.19 184.968 1199.99 184.968C1198.43 184.968 1197.78 184.2 1197.78 183.36C1197.78 182.424 1198.45 181.944 1199.39 181.944H1199.75C1200.2 181.944 1200.71 181.92 1200.97 180.84L1197.32 170.448C1197.03 169.608 1196.89 169.224 1196.89 168.816C1196.89 167.856 1197.66 167.136 1198.59 167.136C1199.53 167.136 1200.18 167.664 1200.39 168.456Z" fill="#FFFFFF"/>
</svg>
