<svg width="364" height="8" viewBox="0 0 364 8" fill="none" xmlns="http://www.w3.org/2000/svg">
<path d="M2 0H248.712L248.674 2.625L241.867 6.41667L233.561 2.625L226.777 6.41667L219.541 2.625L212.078 6.41667L203.711 2.625L196.475 6.41667L189.239 2.625L181.776 6.41667L174.766 2.625L167.078 6.41667L159.841 2.625L151.927 6.41667L144.69 2.625L136.776 6.41667L129.992 2.625L122.303 6.41667L114.925 2.625L107.831 6.41667L100.509 3.0625L93.5842 6.41667L86.1218 3.5L80.6946 6.41667L72.3277 3.5L66.6743 6.41667L57.629 3.5L50.845 6.41667L43.8348 3.5L37.0508 6.125L28.6839 3.5L23.4828 5.83333L15.1158 3.79167C15.1158 3.79167 10.3028 7 8.00667 7C5.18073 7 2.22621 4.08333 2.22621 4.08333L2 0Z" fill="white"/>
<path d="M2.22168 1.75C2.47495 2.28083 4.12573 5.64667 7.36848 6.335C8.85644 6.60991 10.3743 6.32324 11.7387 5.50961C13.103 4.69597 14.2556 3.39019 15.057 1.75C16.5473 3.81368 18.5349 5.16645 20.6968 5.58833C25.4456 6.46333 28.7879 2.21667 29.1361 1.75C30.7741 4.02786 32.9892 5.476 35.3819 5.83333C40.1895 6.49833 43.4278 2.24583 43.7941 1.75C45.1609 3.87494 47.0593 5.31889 49.1625 5.83333C54.0877 6.95333 57.6199 2.0475 57.828 1.75C58.6475 3.08327 59.6747 4.18015 60.8432 4.96988C62.0117 5.75961 63.2956 6.22465 64.612 6.335C69.2748 6.62083 72.0699 2.1525 72.3005 1.75C73.6495 4.05275 75.6299 5.6033 77.8363 6.08416C79.3825 6.35638 80.957 6.09921 82.4018 5.33846C83.8466 4.57771 85.1108 3.34015 86.0675 1.75C86.8324 2.98523 87.7793 4.01294 88.8536 4.77384C89.9279 5.53474 91.1084 6.01379 92.3269 6.18334C97.0803 6.76667 100.092 2.1 100.309 1.75C101.884 4.10913 104.07 5.64949 106.46 6.08416C111.485 6.91833 114.891 2.16417 115.175 1.75C116.714 4.13308 118.883 5.69598 121.263 6.13667C126.27 6.97667 129.639 2.12333 129.888 1.75C130.822 3.05528 131.955 4.09697 133.216 4.80945C134.478 5.52193 135.84 5.88976 137.217 5.88976C138.594 5.88976 139.956 5.52193 141.217 4.80945C142.479 4.09697 143.612 3.05528 144.546 1.75C146.388 4.24561 148.905 5.72731 151.574 5.88583C153.028 5.93367 154.473 5.59066 155.819 4.87863C157.164 4.16659 158.38 3.10111 159.389 1.75C161.047 4.18083 163.338 5.74189 165.829 6.13667C170.868 6.85417 174.224 2.21083 174.549 1.75C175.399 3.18997 176.496 4.35719 177.754 5.16068C179.011 5.96416 180.396 6.3822 181.799 6.3822C183.202 6.3822 184.587 5.96416 185.844 5.16068C187.102 4.35719 188.199 3.18997 189.049 1.75C190.76 4.029 193.032 5.47208 195.476 5.83333C200.405 6.51 203.757 2.29833 204.177 1.75C206.036 4.22416 208.551 5.70134 211.219 5.88583C212.697 5.94329 214.169 5.60551 215.541 4.89374C216.913 4.18197 218.157 3.11161 219.192 1.75C220.024 3.06906 221.061 4.14943 222.235 4.9219C223.41 5.69437 224.696 6.14191 226.013 6.23583C230.585 6.475 233.326 2.18167 233.593 1.75C235.152 4.2882 237.407 5.95841 239.893 6.41667C245.044 7.23917 248.436 2.1175 248.649 1.785" stroke="#FFCB56" stroke-width="2.8" stroke-linecap="round" stroke-linejoin="round"/>
<path d="M248.674 0L362 0.347788V2.625L353.991 6.125L346.783 2.625L339.575 6.5625L332.768 2.625L325.96 6.5625L319.153 2.625L311.144 6.5625L304.336 2.625L297.519 6.41667L290.321 2.625L283.113 6.125L275.905 2.625L268.296 6.125L261.889 2.1875C261.889 2.1875 257.378 6.5625 255.081 6.5625C252.255 6.5625 248.674 2.625 248.674 2.625V0Z" fill="white"/>
<path d="M248.896 1.75C249.149 2.28083 250.8 5.64667 254.043 6.335C255.531 6.60991 257.049 6.32324 258.413 5.5096C259.777 4.69597 260.93 3.39019 261.731 1.75C263.222 3.81368 265.209 5.16645 267.371 5.58833C272.12 6.46333 275.462 2.21667 275.81 1.75C277.448 4.02786 279.663 5.476 282.056 5.83333C286.864 6.49833 290.102 2.24583 290.468 1.75C291.835 3.87494 293.734 5.31889 295.837 5.83333C300.762 6.95333 304.294 2.0475 304.502 1.75C305.322 3.08327 306.349 4.18015 307.518 4.96988C308.686 5.75961 309.97 6.22465 311.286 6.335C315.949 6.62083 318.744 2.1525 318.975 1.75C320.324 4.05275 322.304 5.60329 324.511 6.08416C326.057 6.35638 327.631 6.09921 329.076 5.33846C330.521 4.5777 331.785 3.34015 332.742 1.75C333.507 2.98523 334.454 4.01294 335.528 4.77384C336.602 5.53474 337.783 6.01378 339.001 6.18334C343.755 6.76667 346.767 2.1 346.984 1.75C348.559 4.10913 350.745 5.64949 353.135 6.08416C358.159 6.91833 361.565 2.16417 361.85 1.75" stroke="#FFCB56" stroke-width="2.8" stroke-linecap="round" stroke-linejoin="round"/>
</svg>
