<svg width="1982" height="16" viewBox="0 0 1982 16" fill="none" xmlns="http://www.w3.org/2000/svg">
<path d="M3 1H1433.5L1425 10.5L1402 7L1385.5 12L1368.5 5.5L1352.5 12L1335 5.5L1319.5 10.5L1304 5.5L1289.5 12L1271 5.5L1253.5 13L1237 5.5L1222 10.5L1205 5.5L1187.5 10.5L1171.5 5.5L1157 10.5L1139 5.5L1124 10.5L1106.5 5.5L1092 10.5L1074.5 5.5L1058.5 10.5L1040 5.5L1026 10.5L1008 5.5L993 10.5L975 5.5L958.5 10.5L940.5 5.5L924 10.5L909.5 5.5L894.5 11.5L876.5 5.5L859.5 11.5L843 5.5L826.5 12L810.5 5.5L794.5 12L778 5.5L760.5 12L745.5 6.5L727 10.5L713 5.5L696 10.5L679.5 5.5L662.5 12L646 6.5L630.5 12L616.5 6.5L598 10.5L580.5 5.5L564 12L549 5.5L532.5 12L515 5.5L500 12L484 5.5L467.5 12L449 5.5L433 12L417 5.5L400.5 12L385 5.5L368 12L352 5.5L334.5 12L318.5 5.5L301 12L286 5.5L269 12L252.5 7L237 12L220 7L205.5 12L189 7L177 12L158.5 7L146 12L126 7L111 12L95.5002 7L80.5002 11.5L62.0002 7L50.5002 11L32.0002 7.5C32.0002 7.5 22.077 14.5 17.0002 14.5C10.7518 14.5 3.50016 8 3.50016 8L3 1Z" fill="white"/>
<path d="M3.49023 4.00001C4.05023 4.91001 7.70023 10.68 14.8702 11.86C18.1602 12.3313 21.5163 11.8398 24.5331 10.445C27.5498 9.05024 30.0981 6.81176 31.8702 4.00001C35.1652 7.53774 39.5601 9.85677 44.3402 10.58C54.8402 12.08 62.2302 4.80001 63.0002 4.00001C66.622 7.90491 71.5197 10.3874 76.8102 11C87.4402 12.14 94.6002 4.85001 95.4102 4.00001C98.4324 7.64276 102.63 10.1181 107.28 11C118.17 12.92 125.98 4.51001 126.44 4.00001C128.252 6.28562 130.524 8.16598 133.107 9.5198C135.691 10.8736 138.53 11.6708 141.44 11.86C151.75 12.35 157.93 4.69001 158.44 4.00001C161.423 7.94758 165.802 10.6057 170.68 11.43C174.099 11.8967 177.58 11.4558 180.775 10.1516C183.97 8.8475 186.765 6.72597 188.88 4.00001C190.571 6.11755 192.665 7.87933 195.04 9.18374C197.416 10.4881 200.026 11.3094 202.72 11.6C213.23 12.6 219.89 4.60001 220.37 4.00001C223.852 8.04423 228.686 10.6848 233.97 11.43C245.08 12.86 252.61 4.71001 253.24 4.00001C256.642 8.08529 261.438 10.7645 266.7 11.52C277.77 12.96 285.22 4.64001 285.77 4.00001C287.835 6.23763 290.341 8.02338 293.13 9.24477C295.919 10.4662 298.931 11.0967 301.975 11.0967C305.02 11.0967 308.032 10.4662 310.821 9.24477C313.61 8.02338 316.115 6.23763 318.18 4.00001C322.253 8.2782 327.82 10.8183 333.72 11.09C336.935 11.172 340.131 10.584 343.106 9.36336C346.081 8.14273 348.77 6.3162 351 4.00001C354.665 8.16715 359.732 10.8432 365.24 11.52C376.38 12.75 383.8 4.79001 384.52 4.00001C386.4 6.46853 388.825 8.46948 391.606 9.84688C394.386 11.2243 397.447 11.9409 400.55 11.9409C403.653 11.9409 406.714 11.2243 409.495 9.84688C412.275 8.46948 414.7 6.46853 416.58 4.00001C420.365 7.90687 425.386 10.3807 430.79 11C441.69 12.16 449.1 4.94001 450.03 4.00001C454.141 8.24143 459.702 10.7737 465.6 11.09C468.869 11.1885 472.123 10.6095 475.157 9.38927C478.191 8.16909 480.94 6.33419 483.23 4.00001C485.07 6.26125 487.361 8.11332 489.958 9.43755C492.555 10.7618 495.4 11.529 498.31 11.69C508.42 12.1 514.48 4.74001 515.07 4.00001C518.519 8.35121 523.504 11.2144 529 12C540.39 13.41 547.89 4.63 548.36 4.06C552.141 7.88719 557.168 10.2324 562.53 10.67C565.747 10.8436 568.964 10.3396 571.974 9.19062C574.983 8.0416 577.718 6.27321 580 4.00001C584.209 7.67642 589.445 9.97308 595 10.58C606.35 11.75 614.32 5.19001 615.72 4.00001C617.484 6.06939 619.651 7.75744 622.089 8.961C624.527 10.1646 627.185 10.8584 629.9 11C639.28 11.36 644.99 4.75001 645.62 4.00001C650.188 8.54208 656.368 11.0916 662.81 11.0916C669.252 11.0916 675.432 8.54208 680 4.00001C683.927 7.85168 689.094 10.1836 694.58 10.58C697.811 10.7413 701.04 10.2409 704.07 9.10941C707.1 7.97791 709.866 6.23921 712.2 4.00001C716.105 8.00388 721.326 10.4615 726.9 10.92C737.28 11.7 744.13 4.92001 745.07 4.00001C747.172 6.21623 749.702 7.98123 752.508 9.18738C755.314 10.3935 758.336 11.0156 761.39 11.0156C764.444 11.0156 767.466 10.3935 770.272 9.18738C773.078 7.98123 775.609 6.21623 777.71 4.00001C781.912 8.0002 787.424 10.3384 793.22 10.58C799.613 10.748 805.813 8.38294 810.47 4.00001C812.39 6.18262 814.724 7.96303 817.337 9.23833C819.949 10.5136 822.788 11.2585 825.69 11.43C835.91 11.92 842.26 4.86001 843 4.00001C846.87 7.93536 851.983 10.4089 857.47 11C868.35 12.08 875.71 5.00001 876.68 4.00001C880.026 8.08365 884.776 10.7694 890 11.53C901 12.95 908.34 4.61 908.84 4.01C912.725 7.77059 917.777 10.092 923.16 10.59C933.53 11.48 940.54 5.02 941.6 4.01C943.665 6.36764 946.21 8.25692 949.064 9.55129C951.918 10.8457 955.016 11.5153 958.15 11.5153C961.284 11.5153 964.382 10.8457 967.236 9.55129C970.091 8.25692 972.635 6.36764 974.7 4.01C978.687 8.08307 984.017 10.5704 989.7 11.01C1000.15 11.74 1007 5.01 1007.96 4.01C1009.9 6.42073 1012.36 8.36554 1015.16 9.70167C1017.95 11.0378 1021.01 11.7313 1024.11 11.7313C1027.2 11.7313 1030.26 11.0378 1033.05 9.70167C1035.85 8.36554 1038.31 6.42073 1040.25 4.01C1042.27 6.32431 1044.73 8.20277 1047.5 9.53025C1050.27 10.8577 1053.27 11.6063 1056.34 11.73C1059.62 11.7691 1062.87 11.0995 1065.86 9.76714C1068.86 8.43474 1071.53 6.47091 1073.7 4.01C1077.35 8.41253 1082.6 11.1886 1088.29 11.73C1098.99 12.59 1105.76 4.73 1106.35 4.01C1110.82 8.23653 1116.75 10.5912 1122.9 10.5912C1129.05 10.5912 1134.98 8.23653 1139.45 4.01C1143.7 8.24306 1149.45 10.6198 1155.45 10.6198C1161.45 10.6198 1167.2 8.24306 1171.45 4.01C1175.49 7.84302 1180.72 10.167 1186.27 10.59C1189.59 10.772 1192.91 10.2832 1196.04 9.15264C1199.17 8.02211 1202.03 6.27309 1204.47 4.01C1208.84 8.23861 1214.69 10.6023 1220.78 10.6023C1226.86 10.6023 1232.71 8.23861 1237.08 4.01C1239.1 6.42855 1241.62 8.37438 1244.47 9.70969C1247.32 11.045 1250.43 11.7372 1253.58 11.7372C1256.73 11.7372 1259.84 11.045 1262.69 9.70969C1265.54 8.37438 1268.06 6.42855 1270.08 4.01C1274.99 8.50324 1281.49 10.8689 1288.14 10.59C1293.88 10.2488 1299.32 7.92262 1303.53 4.01C1307.55 7.93248 1312.86 10.2692 1318.47 10.59C1321.64 10.7069 1324.8 10.1845 1327.76 9.05404C1330.72 7.92355 1333.43 6.20809 1335.71 4.01C1339.96 8.23026 1345.7 10.5991 1351.69 10.5991C1357.67 10.5991 1363.41 8.23026 1367.66 4.01C1372.41 8.25003 1378.55 10.5938 1384.91 10.5938C1391.27 10.5938 1397.41 8.25003 1402.16 4.01C1405.86 7.85102 1410.84 10.1937 1416.16 10.59C1424.7 11.1438 1430.69 6.22579 1433 3.93823" stroke="#FFCB56" stroke-width="6.19" stroke-linecap="round" stroke-linejoin="round"/>
<path d="M1433 1H1978.5L1962.5 12L1945 5.5L1930 12L1914 5.5L1897.5 12L1879 5.5L1863 12L1847 5.5L1830.5 12L1815 5.5L1798 12L1782 5.5L1764.5 12L1748.5 5.5L1731 12L1716 5.5L1699 12L1682.5 7L1667 12L1650 7L1635.5 12L1619 7L1607 12L1588.5 7L1576 12L1556 7L1541 12L1525.5 7L1510.5 11.5L1492 7L1480.5 11L1462 7.5C1462 7.5 1452.08 14.5 1447 14.5C1440.75 14.5 1433.5 8 1433.5 8L1433 1Z" fill="white"/>
<path d="M1433.49 4C1434.05 4.91 1437.7 10.68 1444.87 11.86C1448.16 12.3313 1451.52 11.8398 1454.53 10.445C1457.55 9.05024 1460.1 6.81175 1461.87 4C1465.17 7.53773 1469.56 9.85676 1474.34 10.58C1484.84 12.08 1492.23 4.8 1493 4C1496.62 7.90491 1501.52 10.3874 1506.81 11C1517.44 12.14 1524.6 4.85 1525.41 4C1528.43 7.64275 1532.63 10.1181 1537.28 11C1548.17 12.92 1555.98 4.51 1556.44 4C1558.25 6.28561 1560.52 8.16597 1563.11 9.51979C1565.69 10.8736 1568.53 11.6708 1571.44 11.86C1581.75 12.35 1587.93 4.69 1588.44 4C1591.42 7.94758 1595.8 10.6056 1600.68 11.43C1604.1 11.8967 1607.58 11.4558 1610.77 10.1516C1613.97 8.84749 1616.76 6.72597 1618.88 4C1620.57 6.11754 1622.66 7.87933 1625.04 9.18373C1627.42 10.4881 1630.03 11.3093 1632.72 11.6C1643.23 12.6 1649.89 4.6 1650.37 4C1653.85 8.04423 1658.69 10.6848 1663.97 11.43C1675.08 12.86 1682.61 4.71 1683.24 4C1686.64 8.08529 1691.44 10.7645 1696.7 11.52C1707.77 12.96 1715.22 4.64 1715.77 4C1717.84 6.23762 1720.34 8.02337 1723.13 9.24477C1725.92 10.4662 1728.93 11.0967 1731.98 11.0967C1735.02 11.0967 1738.03 10.4662 1740.82 9.24477C1743.61 8.02337 1746.12 6.23762 1748.18 4C1752.25 8.27819 1757.82 10.8182 1763.72 11.09C1766.93 11.172 1770.13 10.584 1773.11 9.36336C1776.08 8.14272 1778.77 6.3162 1781 4C1784.66 8.16714 1789.73 10.8432 1795.24 11.52C1806.38 12.75 1813.8 4.79 1814.52 4C1816.4 6.46852 1818.83 8.46947 1821.61 9.84688C1824.39 11.2243 1827.45 11.9409 1830.55 11.9409C1833.65 11.9409 1836.71 11.2243 1839.49 9.84688C1842.28 8.46947 1844.7 6.46852 1846.58 4C1850.36 7.90686 1855.39 10.3807 1860.79 11C1871.69 12.16 1879.1 4.94 1880.03 4C1884.14 8.24142 1889.7 10.7737 1895.6 11.09C1898.87 11.1885 1902.12 10.6094 1905.16 9.38927C1908.19 8.16909 1910.94 6.33419 1913.23 4C1915.07 6.26124 1917.36 8.11331 1919.96 9.43755C1922.55 10.7618 1925.4 11.529 1928.31 11.69C1938.42 12.1 1944.48 4.74 1945.07 4C1948.52 8.3512 1953.5 11.2144 1959 12C1970.39 13.41 1977.89 4.63 1978.36 4.06" stroke="#FFCB56" stroke-width="6.19" stroke-linecap="round" stroke-linejoin="round"/>
</svg>
