<svg width="360" height="160" viewBox="0 0 360 160" fill="none" xmlns="http://www.w3.org/2000/svg">
<path d="M359 39.5H-12L-11.8594 8.98279C1.46704 5.61193 22.2457 0.64147 48.961 0.0796596C92.19 -0.833282 108.766 6.32199 151.573 10.2235C204.066 14.9832 206.66 2.55318 276.854 2.76386C321.458 2.89651 336.222 7.96061 359 10.8867V39.5Z" fill="#FFC648"/>
<path d="M359.312 37.5H-12V230C8.15124 220.213 28.3338 212.629 65.163 212.312C104.276 211.971 122.941 223.808 168.595 228.191C224.668 233.603 236.292 217.723 305.726 217.94C330.759 218.017 344.84 220.12 360 222.779L359.312 37.5Z" fill="#FFC649"/>
</svg>
