<svg width="363" height="724" viewBox="0 0 363 724" fill="none" xmlns="http://www.w3.org/2000/svg">
<mask id="mask0_3428_2452" style="mask-type:luminance" maskUnits="userSpaceOnUse" x="0" y="0" width="363" height="724">
<path d="M363 0H0V723.802H363V0Z" fill="white"/>
</mask>
<g mask="url(#mask0_3428_2452)">
<path d="M-5.10753 649.412C-5.68574 649.59 -9.31269 650.655 -12.1091 648.681C-15.9568 646.006 -16.3143 639.279 -12.9081 636.312C-10.5217 634.223 -6.86319 634.505 -4.49778 635.518C-0.0823643 637.398 1.61021 642.496 1.80996 642.381C2.24099 642.162 -8.13525 626.952 -4.29804 622.324C-1.68032 619.19 7.86539 620.559 10.8931 625.458C14.5095 631.371 8.34898 641.64 8.79053 641.828C9.23207 642.016 12.428 631.089 15.9393 631.245C18.0419 631.329 20.4493 635.581 19.5873 638.663C18.7252 641.744 14.8985 643.04 15.1508 643.541C15.4978 644.22 21.7424 640.292 24.6124 642.434C26.1578 643.604 26.2525 646.257 25.6007 647.991C24.5494 650.948 20.5965 652.849 16.2021 651.94L-5.10753 649.412Z" fill="url(#paint0_linear_3428_2452)"/>
<path opacity="0.3" d="M-5.10753 649.412C-5.68574 649.59 -9.31269 650.655 -12.1091 648.681C-15.9568 646.006 -16.3143 639.279 -12.9081 636.312C-10.5217 634.223 -6.86319 634.505 -4.49778 635.518C-0.0823643 637.398 1.61021 642.496 1.80996 642.381C2.24099 642.162 -8.13525 626.952 -4.29804 622.324C-1.68032 619.19 7.86539 620.559 10.8931 625.458C14.5095 631.371 8.34898 641.64 8.79053 641.828C9.23207 642.016 12.428 631.089 15.9393 631.245C18.0419 631.329 20.4493 635.581 19.5873 638.663C18.7252 641.744 14.8985 643.04 15.1508 643.541C15.4978 644.22 21.7424 640.292 24.6124 642.434C26.1578 643.604 26.2525 646.257 25.6007 647.991C24.5494 650.948 20.5965 652.849 16.2021 651.94L-5.10753 649.412Z" fill="black"/>
<mask id="mask1_3428_2452" style="mask-type:luminance" maskUnits="userSpaceOnUse" x="-25" y="0" width="416" height="728">
<path d="M390.767 0H-24.3242V727.04H390.767V0Z" fill="white"/>
</mask>
<g mask="url(#mask1_3428_2452)">
<path d="M486.268 -66.0967H-177.559V888.169H486.268V-66.0967Z" fill="url(#paint1_linear_3428_2452)"/>
<path d="M300.782 679.227L301.402 678.777C301.428 678.753 301.461 678.74 301.497 678.74C301.532 678.74 301.566 678.753 301.591 678.777L302.128 679.373C302.233 679.498 302.401 679.373 302.369 679.206L302.212 678.328C302.206 678.29 302.21 678.251 302.223 678.215C302.236 678.178 302.257 678.146 302.285 678.119L302.916 677.67C303.042 677.576 303 677.346 302.863 677.325L302.138 677.231C302.075 677.231 302.022 677.169 302.001 677.085L301.854 676.208C301.854 676.03 301.633 676.009 301.581 676.208L301.286 677.033C301.275 677.068 301.252 677.098 301.222 677.118C301.192 677.139 301.155 677.15 301.118 677.148L300.403 677.054C300.256 677.054 300.183 677.252 300.288 677.367L300.824 677.973C300.844 678.006 300.855 678.044 300.855 678.083C300.855 678.121 300.844 678.159 300.824 678.192L300.53 679.018C300.509 679.153 300.656 679.31 300.782 679.227Z" fill="#FFD788"/>
<path d="M20.6371 674.933L20.9841 673.596C20.9934 673.54 21.0213 673.489 21.0632 673.451C21.1052 673.414 21.1588 673.391 21.2153 673.387H22.3507C22.561 673.387 22.6556 673.042 22.4769 672.885L21.5623 672.05C21.52 672.006 21.4899 671.952 21.4752 671.894C21.4604 671.835 21.4614 671.774 21.4782 671.715L21.8251 670.378C21.8882 670.128 21.6569 669.908 21.4782 670.065L20.5636 670.89C20.5448 670.91 20.5221 670.927 20.4968 670.938C20.4714 670.949 20.444 670.954 20.4164 670.954C20.3887 670.954 20.3613 670.949 20.336 670.938C20.3106 670.927 20.2879 670.91 20.2692 670.89L19.3546 670.065C19.1758 669.908 18.9446 670.128 19.0076 670.378L19.3546 671.715C19.3713 671.774 19.3723 671.835 19.3576 671.894C19.3428 671.952 19.3128 672.006 19.2705 672.05L18.3558 672.885C18.1771 673.042 18.2717 673.387 18.482 673.387H19.6174C19.674 673.391 19.7276 673.414 19.7695 673.451C19.8115 673.489 19.8394 673.54 19.8487 673.596L20.1956 674.933C20.1956 674.991 20.2189 675.047 20.2603 675.088C20.3017 675.129 20.3578 675.152 20.4164 675.152C20.4749 675.152 20.5311 675.129 20.5725 675.088C20.6139 675.047 20.6371 674.991 20.6371 674.933Z" fill="#FFD788"/>
<path d="M108.107 676.907L107.676 675.706C107.647 675.659 107.632 675.604 107.632 675.549C107.632 675.494 107.647 675.44 107.676 675.392L108.464 674.504C108.611 674.337 108.464 674.024 108.296 674.055L107.245 674.201C107.193 674.202 107.143 674.186 107.102 674.156C107.06 674.126 107.029 674.083 107.013 674.034L106.582 672.843C106.498 672.614 106.225 672.645 106.183 672.896L105.973 674.181C105.964 674.232 105.941 674.281 105.906 674.32C105.87 674.359 105.824 674.387 105.773 674.4L104.722 674.536C104.522 674.536 104.469 674.901 104.648 675.027L105.563 675.674C105.606 675.711 105.639 675.758 105.657 675.812C105.676 675.865 105.679 675.922 105.668 675.977L105.447 677.252C105.447 677.503 105.647 677.67 105.804 677.503L106.582 676.625C106.619 676.594 106.666 676.576 106.714 676.576C106.762 676.576 106.809 676.594 106.845 676.625L107.76 677.283C107.991 677.367 108.191 677.137 108.107 676.907Z" fill="#FFD788"/>
<path d="M239.706 726.539L239.969 725.494C239.976 725.454 239.996 725.416 240.026 725.388C240.057 725.359 240.096 725.342 240.137 725.338H240.978C241.136 725.338 241.199 725.087 241.073 724.962L240.4 724.356C240.368 724.323 240.344 724.284 240.331 724.24C240.318 724.196 240.317 724.15 240.326 724.105L240.589 723.123C240.642 722.925 240.463 722.768 240.326 722.883L239.654 723.499C239.625 723.525 239.587 723.539 239.549 723.539C239.51 723.539 239.472 723.525 239.443 723.499L238.771 722.883C238.634 722.768 238.455 722.883 238.508 723.123L238.771 724.105C238.78 724.15 238.779 724.196 238.766 724.24C238.753 724.284 238.729 724.323 238.697 724.356L238.024 724.962C237.898 725.087 237.961 725.338 238.119 725.338H238.96C239.001 725.342 239.04 725.359 239.071 725.388C239.101 725.416 239.121 725.454 239.128 725.494L239.391 726.539C239.391 726.581 239.407 726.621 239.437 726.65C239.467 726.679 239.507 726.696 239.549 726.696C239.59 726.696 239.63 726.679 239.66 726.65C239.69 726.621 239.706 726.581 239.706 726.539Z" fill="#FFD788"/>
<path d="M189.123 667.944L189.943 667.359C189.974 667.329 190.016 667.313 190.059 667.313C190.102 667.313 190.143 667.329 190.174 667.359L190.868 668.132C191.005 668.289 191.215 668.132 191.183 667.913L190.984 666.774C190.975 666.724 190.979 666.673 190.995 666.626C191.012 666.578 191.04 666.536 191.078 666.502L191.898 665.928C192.056 665.813 192.003 665.51 191.825 665.489L190.889 665.364C190.842 665.357 190.799 665.334 190.767 665.3C190.734 665.266 190.715 665.222 190.71 665.176L190.511 664.037C190.511 663.807 190.237 663.776 190.164 664.037L189.775 665.082C189.765 665.126 189.739 665.165 189.702 665.192C189.666 665.219 189.62 665.231 189.575 665.228L188.639 665.113C188.461 665.113 188.355 665.364 188.492 665.51L189.196 666.293C189.222 666.336 189.236 666.385 189.236 666.434C189.236 666.484 189.222 666.533 189.196 666.575L188.818 667.62C188.797 667.85 188.965 668.059 189.123 667.944Z" fill="#FFD788"/>
<path d="M393.798 728.482C395.901 726.476 383.969 713.857 386.965 709.678C388.121 708.059 391.433 707.85 393.399 708.937C396.3 710.535 396.363 714.943 397.12 714.87C398.087 714.776 396.437 707.85 399.959 703.807C402.524 700.861 408.232 699.002 411.397 701.718C413.972 703.974 411.481 709.542 412.995 710.075C414.509 710.608 415.98 705.897 420.354 704.852C421.569 704.528 422.847 704.514 424.069 704.812C425.291 705.11 426.418 705.709 427.345 706.555C429.447 708.801 429.1 712.499 428.964 713.867C428.711 716.291 427.913 717.565 428.407 717.962C429.269 718.6 431.56 715.152 435.639 714.828C436.144 714.828 439.046 714.557 440.286 716.207C441.926 718.412 439.897 723.06 437.048 725.369C435.745 726.414 434.283 726.988 434.346 727.124C434.409 727.26 437.879 724.93 441.842 725.453C444.195 725.796 446.315 727.05 447.74 728.942C448.487 730.13 448.915 731.49 448.98 732.891C448.98 732.891 446.447 714.087 449.517 711.789C450.272 711.15 451.251 710.835 452.239 710.911C452.975 711.047 453.133 711.454 453.406 711.381C454.72 711.026 451.241 701.76 455.13 697.414C455.288 697.226 456.949 695.419 458.957 695.628C461.333 695.868 463.341 698.835 463.541 701.415C463.646 702.784 463.225 703.734 463.541 703.87C464.266 704.194 466.148 698.594 469.691 698.218C470.916 698.176 472.116 698.569 473.076 699.326C476.23 701.363 476.703 705.353 476.724 705.594C476.871 706.91 476.64 707.683 476.955 707.777C477.922 708.153 480.456 701.133 483.263 701.436C483.904 701.509 484.314 701.937 485.008 702.637C485.665 703.3 486.156 704.106 486.441 704.992C486.725 705.877 486.797 706.817 486.648 707.735C486.426 708.457 486.137 709.156 485.786 709.825C486.122 710.086 490.307 702.188 495.784 702.021C496.817 702.01 497.841 702.223 498.783 702.646C499.725 703.068 500.564 703.689 501.24 704.465C502.449 705.962 503.092 707.832 503.059 709.751C503.059 710.911 502.722 711.318 503.059 711.841C503.805 713 505.939 712.081 508.389 712.75C510.376 713.293 512.815 714.954 513.319 717.074C514.234 720.877 508.925 725.891 505.214 726.633C505.13 726.633 503.742 726.915 503.763 727.155C503.784 727.396 505.782 727.009 507.085 728.117C507.518 728.542 507.846 729.062 508.043 729.635C508.24 730.207 508.301 730.818 508.221 731.418C508.102 732.217 507.792 732.976 507.316 733.632C507.411 733.695 511.522 724.993 515.422 725.275C516.134 725.367 516.813 725.628 517.402 726.035C517.991 726.442 518.473 726.984 518.807 727.615C519.28 728.66 518.996 729.579 519.228 729.631C519.837 729.798 520.479 722.726 524.873 720.323C527.207 719.059 530.518 719.143 531.486 720.522C532.211 721.567 531.486 723.144 531.759 723.217C532.2 723.353 532.915 717.994 536.616 715.56C538.582 714.243 541.725 713.533 543.828 714.891C544.802 715.546 545.539 716.494 545.93 717.597C546.148 718.271 546.241 718.979 546.204 719.686C546.204 719.686 545.152 713.147 547.959 707.453C549.358 704.559 550.535 704.319 550.955 704.319C552.312 704.319 552.932 706.043 553.815 705.834C555.192 705.51 553.973 701.123 556.422 698.521C557.778 697.08 559.639 696.819 562.089 696.484C564.86 696.101 567.682 696.351 570.341 697.216C578.468 700.203 583.64 711.715 580.507 716.395C578.489 719.425 573.327 719.122 573.39 720.188C573.464 721.681 583.367 720.188 586.521 724.92C588.718 728.221 587.446 734.217 583.588 737.602C579.561 741.133 573.201 739.367 573.075 740.036C572.917 741.227 593.049 740.6 598.001 750.065C601.365 756.458 597.507 766.894 592.933 767.981C589.506 768.806 585.427 764.46 585.459 764.418C585.49 764.377 598.253 769.777 602.479 780.088C605.633 787.787 603.983 797.973 599.42 799.937C594.595 802.026 586.331 794.902 586.678 794.254C587.13 793.408 605.412 798.077 609.943 809.715C612.698 816.766 610.343 826.241 605.833 828.028C601.869 829.595 596.676 825.019 596.15 825.792C595.488 826.743 604.897 831.444 607.998 840.532C609.565 845.139 610.101 852.473 606.201 855.889C601.028 860.464 591.304 855.105 589.675 858.114C588.266 860.705 595.488 864.726 598.442 874.943C598.894 876.51 601.207 884.523 598.001 886.967C594.794 889.412 588.14 883.99 586.1 886.058C583.619 888.586 592.87 897.153 590.148 904.862C588.287 910.169 581.17 913.94 577.059 912.352C572.78 910.702 572.938 903.703 570.562 903.64C567.082 903.546 564.969 918.516 561.763 918.401C559.156 918.296 558.325 908.289 555.855 908.257C553.195 908.257 553.752 919.749 546.855 923.488C542.745 925.672 536.038 908.007 530.897 916.792C527.585 922.444 518.723 947.651 509.987 944.141C506.465 942.721 508.683 934.687 504.184 932.378C500.725 930.603 494.585 932.943 492.251 937.006C488.866 942.898 495.016 949.824 492.094 952.467C489.171 955.11 480.845 951.527 480.74 948.821C480.74 947.516 482.632 946.586 482.38 946.158C481.97 945.426 476.903 949.177 471.163 949.041C465.423 948.905 458.957 944.779 457.496 939.639C456.56 936.348 458.253 934.687 456.812 933.089C454.447 930.446 449.064 934.134 443.797 931.731C440.854 930.404 437.616 927.657 437.931 925.118C438.368 923.301 439.499 921.724 441.085 920.72C441.989 920.135 442.599 920.041 442.631 919.675C442.704 918.725 437.258 919.519 435.419 916.834C433.8 914.483 435.093 909.73 437.395 908.644C437.879 908.414 438.394 908.351 438.446 908.122C438.446 907.432 433.474 907.735 431.865 905.416C430.73 903.776 431.708 901.436 433.043 898.103C433.968 895.795 435.24 892.629 437.868 891.835C438.268 891.71 438.615 891.668 438.688 891.428C439.025 890.383 431.203 889.798 429.784 885.902C428.827 883.3 430.74 879.425 433.2 878.411C433.89 878.21 434.593 878.052 435.303 877.941C435.303 877.649 427.681 878.307 426.893 876.03C426.735 875.58 426.798 874.922 426.609 874.901C426.42 874.88 426.083 875.946 425.768 876.5C424.622 878.673 420.932 878.892 419.933 878.955C418.934 879.017 413.415 879.352 410.566 875.006C408.863 872.405 408.464 868.226 410.051 866.022C410.345 865.593 411.008 864.852 410.755 864.267C410.503 863.682 409.41 863.692 408.401 863.504C406.403 863.028 404.64 861.862 403.428 860.213C401.788 858.03 401.126 854.551 402.513 853.005C403.039 852.42 403.733 852.264 403.67 851.961C403.554 851.418 400.852 852.326 398.613 851.282C395.028 849.61 394.765 843.969 394.755 843.572C394.755 842.601 394.618 839.498 396.353 838.422C396.815 838.14 397.194 838.119 397.404 837.785C397.856 836.803 394.25 835.695 394.05 833.533C393.966 832.739 394.408 832.718 394.902 830.681C395.322 828.936 395.585 827.881 395.102 827.432C394.313 826.68 392.589 828.675 389.561 828.717C386.534 828.759 385.577 826.931 383.832 827.672C382.518 828.257 382.781 829.448 381.519 830.618C379.227 832.708 375.012 831.924 372.646 830.932C370.281 829.939 366.917 827.537 366.727 824.486C366.643 823.212 367.169 822.585 366.727 822.104C365.676 820.861 361.282 825.238 357.077 825.238C350.632 825.176 344.797 817.466 345.786 814.604C346.162 813.462 346.923 812.484 347.941 811.835C348.435 811.564 348.908 811.449 348.898 811.386C348.887 811.324 344.062 813.277 340.393 811.564C339.299 811.051 338.36 810.262 337.67 809.276C337.449 808.952 335.756 806.445 336.419 804.053C336.513 803.718 336.65 803.395 336.513 803.29C336.093 802.956 334.211 805.954 332.119 805.797C330.416 805.672 329.322 803.53 328.965 802.841C328.472 801.832 328.216 800.724 328.216 799.602C328.216 798.481 328.472 797.373 328.965 796.364C329.456 795.316 330.209 794.409 331.152 793.731C332.203 793.021 332.907 793.021 332.96 792.687C333.118 791.82 325.885 792.499 323.698 788.957C322.952 787.756 322.647 785.823 323.561 784.716C323.91 784.332 324.358 784.05 324.857 783.903C325.356 783.755 325.886 783.747 326.389 783.88C327.199 784.131 327.567 784.8 327.64 784.747C327.714 784.695 323.32 781.248 323.13 777.268C323.036 775.45 323.582 773.288 325.044 772.253C325.365 771.992 325.738 771.801 326.138 771.691C326.538 771.582 326.957 771.556 327.367 771.616C328.082 771.804 328.418 772.368 328.524 772.306C328.629 772.243 324.497 768.409 324.592 764.627C324.665 761.378 327.378 758.432 328.345 758.704C328.723 758.809 329.06 759.446 329.301 759.916C329.701 760.699 329.711 761.222 329.785 761.222C330.185 761.222 328.25 747.578 333.99 743.87C334.866 743.324 335.861 742.994 336.892 742.909C338.718 742.768 340.543 743.196 342.114 744.132C343.684 745.067 344.924 746.466 345.66 748.132C346.164 749.48 345.933 750.326 346.311 750.42C347.573 750.754 348.54 741.018 355.3 737.038C358.339 735.261 361.955 734.729 365.382 735.554C366.519 735.928 367.593 736.47 368.567 737.163C368.921 737.421 369.233 737.731 369.492 738.083C370.207 739.127 370.049 739.911 370.302 739.984C370.975 740.161 371.868 734.071 375.411 731.313C378.302 729.067 382.844 728.179 384.778 730.007C386.292 731.418 386.418 734.656 386.439 735.293C386.439 736.338 386.366 737.383 386.439 737.383C386.513 737.383 386.071 729.955 389.288 728.367C391.159 727.469 392.978 729.245 393.798 728.482Z" fill="url(#paint2_linear_3428_2452)"/>
<g opacity="0.2">
<path d="M393.794 728.482C395.897 726.476 383.965 713.857 386.961 709.678C388.117 708.059 391.429 707.85 393.395 708.937C396.296 710.535 396.359 714.943 397.116 714.87C398.083 714.776 396.433 707.85 399.955 703.807C402.52 700.861 408.228 699.002 411.393 701.718C413.968 703.974 411.477 709.542 412.991 710.075C414.505 710.608 415.976 705.897 420.35 704.852C421.565 704.528 422.843 704.514 424.065 704.812C425.287 705.11 426.414 705.709 427.341 706.555C429.443 708.801 429.097 712.499 428.96 713.867C428.708 716.291 427.909 717.565 428.403 717.962C429.265 718.6 431.557 715.152 435.636 714.828C436.14 714.828 439.042 714.557 440.282 716.207C441.922 718.412 439.893 723.06 437.044 725.369C435.741 726.414 434.279 726.988 434.342 727.124C434.406 727.26 437.875 724.93 441.838 725.453C444.191 725.796 446.311 727.05 447.736 728.942C448.484 730.13 448.911 731.49 448.976 732.891C448.976 732.891 446.443 714.087 449.513 711.789C450.268 711.15 451.247 710.835 452.235 710.911C452.971 711.047 453.129 711.454 453.402 711.381C454.716 711.026 451.237 701.76 455.126 697.414C455.284 697.226 456.945 695.419 458.953 695.628C461.329 695.868 463.337 698.835 463.537 701.415C463.642 702.784 463.221 703.734 463.537 703.87C464.262 704.194 466.144 698.594 469.687 698.218C470.912 698.176 472.112 698.569 473.072 699.326C476.226 701.363 476.699 705.353 476.72 705.594C476.867 706.91 476.636 707.683 476.951 707.777C477.918 708.153 480.452 701.133 483.259 701.436C483.9 701.509 484.31 701.937 485.004 702.637C485.661 703.3 486.152 704.106 486.437 704.992C486.722 705.877 486.793 706.817 486.644 707.735C486.422 708.457 486.134 709.156 485.782 709.825C486.119 710.086 490.303 702.188 495.78 702.021C496.813 702.01 497.837 702.223 498.779 702.646C499.721 703.068 500.56 703.689 501.236 704.465C502.445 705.962 503.088 707.832 503.055 709.751C503.055 710.911 502.718 711.318 503.055 711.841C503.801 713 505.935 712.081 508.385 712.75C510.372 713.293 512.811 714.954 513.315 717.074C514.23 720.877 508.921 725.891 505.21 726.633C505.126 726.633 503.738 726.915 503.759 727.155C503.78 727.396 505.778 727.009 507.081 728.117C507.514 728.542 507.842 729.062 508.039 729.635C508.236 730.207 508.297 730.818 508.217 731.418C508.098 732.217 507.788 732.976 507.313 733.632C507.407 733.695 511.518 724.993 515.418 725.275C516.13 725.367 516.809 725.628 517.398 726.035C517.987 726.442 518.469 726.984 518.803 727.615C519.276 728.66 518.992 729.579 519.224 729.631C519.833 729.798 520.475 722.726 524.869 720.323C527.203 719.059 530.514 719.143 531.482 720.522C532.207 721.567 531.482 723.144 531.755 723.217C532.197 723.353 532.911 717.994 536.612 715.56C538.578 714.243 541.721 713.533 543.824 714.891C544.798 715.546 545.536 716.494 545.926 717.597C546.144 718.271 546.237 718.979 546.2 719.686C546.2 719.686 545.148 713.147 547.955 707.453C549.354 704.559 550.531 704.319 550.952 704.319C552.308 704.319 552.928 706.043 553.811 705.834C555.188 705.51 553.969 701.123 556.418 698.521C557.774 697.08 559.635 696.819 562.085 696.484C564.856 696.101 567.678 696.351 570.337 697.216C578.464 700.203 583.636 711.715 580.503 716.395C578.485 719.425 573.323 719.122 573.386 720.188C573.46 721.681 583.363 720.188 586.517 724.92C588.714 728.221 587.442 734.217 583.584 737.602C579.557 741.133 573.197 739.367 573.071 740.036C572.913 741.227 593.045 740.6 597.997 750.065C601.361 756.458 597.503 766.894 592.93 767.981C589.502 768.806 585.423 764.46 585.455 764.418C585.486 764.377 598.249 769.777 602.475 780.088C605.629 787.787 603.979 797.973 599.416 799.937C594.591 802.026 586.327 794.902 586.674 794.254C587.126 793.408 605.408 798.077 609.939 809.715C612.694 816.766 610.339 826.241 605.829 828.028C601.866 829.595 596.672 825.019 596.147 825.792C595.484 826.743 604.893 831.444 607.995 840.532C609.561 845.139 610.097 852.473 606.197 855.889C601.025 860.464 591.3 855.105 589.671 858.114C588.262 860.705 595.484 864.726 598.438 874.943C598.89 876.51 601.203 884.523 597.997 886.967C594.79 889.412 588.136 883.99 586.096 886.058C583.615 888.586 592.867 897.153 590.144 904.862C588.283 910.169 581.166 913.94 577.055 912.352C572.776 910.702 572.934 903.703 570.558 903.64C567.078 903.546 564.965 918.516 561.759 918.401C559.152 918.296 558.321 908.289 555.851 908.257C553.191 908.257 553.748 919.749 546.852 923.488C542.741 925.672 536.034 908.007 530.893 916.792C527.581 922.444 518.719 947.651 509.983 944.141C506.461 942.721 508.679 934.687 504.18 932.378C500.721 930.603 494.581 932.943 492.248 937.006C488.862 942.898 495.012 949.824 492.09 952.467C489.167 955.11 480.841 951.527 480.736 948.821C480.736 947.516 482.628 946.586 482.376 946.158C481.966 945.426 476.899 949.177 471.159 949.041C465.419 948.905 458.953 944.779 457.492 939.639C456.556 936.348 458.249 934.687 456.809 933.089C454.443 930.446 449.061 934.134 443.794 931.731C440.85 930.404 437.612 927.657 437.927 925.118C438.364 923.301 439.495 921.724 441.081 920.72C441.985 920.135 442.595 920.041 442.627 919.675C442.7 918.725 437.255 919.519 435.415 916.834C433.796 914.483 435.089 909.73 437.391 908.644C437.875 908.414 438.39 908.351 438.443 908.122C438.443 907.432 433.47 907.735 431.861 905.416C430.726 903.776 431.704 901.436 433.039 898.103C433.964 895.795 435.236 892.629 437.864 891.835C438.264 891.71 438.611 891.668 438.684 891.428C439.021 890.383 431.199 889.798 429.78 885.902C428.823 883.3 430.737 879.425 433.197 878.411C433.886 878.21 434.589 878.052 435.299 877.941C435.299 877.649 427.677 878.307 426.889 876.03C426.731 875.58 426.794 874.922 426.605 874.901C426.416 874.88 426.079 875.946 425.764 876.5C424.618 878.673 420.928 878.892 419.929 878.955C418.931 879.017 413.411 879.352 410.562 875.006C408.859 872.405 408.46 868.226 410.047 866.022C410.342 865.593 411.004 864.852 410.752 864.267C410.499 863.682 409.406 863.692 408.397 863.504C406.399 863.028 404.636 861.862 403.424 860.213C401.784 858.03 401.122 854.551 402.509 853.005C403.035 852.42 403.729 852.264 403.666 851.961C403.55 851.418 400.848 852.326 398.609 851.282C395.024 849.61 394.761 843.969 394.751 843.572C394.751 842.601 394.614 839.498 396.349 838.422C396.811 838.14 397.19 838.119 397.4 837.785C397.852 836.803 394.246 835.695 394.047 833.533C393.962 832.739 394.404 832.718 394.898 830.681C395.319 828.936 395.581 827.881 395.098 827.432C394.309 826.68 392.585 828.675 389.558 828.717C386.53 828.759 385.573 826.931 383.828 827.672C382.514 828.257 382.777 829.448 381.515 830.618C379.223 832.708 375.008 831.924 372.642 830.932C370.277 829.939 366.913 827.537 366.723 824.486C366.639 823.212 367.165 822.585 366.723 822.104C365.672 820.861 361.278 825.238 357.073 825.238C350.628 825.176 344.794 817.466 345.782 814.604C346.158 813.462 346.92 812.484 347.937 811.835C348.431 811.564 348.904 811.449 348.894 811.386C348.883 811.324 344.058 813.277 340.389 811.564C339.295 811.051 338.356 810.262 337.666 809.276C337.445 808.952 335.753 806.445 336.415 804.053C336.509 803.718 336.646 803.395 336.509 803.29C336.089 802.956 334.207 805.954 332.115 805.797C330.412 805.672 329.319 803.53 328.961 802.841C328.468 801.832 328.212 800.724 328.212 799.602C328.212 798.481 328.468 797.373 328.961 796.364C329.452 795.316 330.205 794.409 331.148 793.731C332.199 793.021 332.903 793.021 332.956 792.687C333.114 791.82 325.881 792.499 323.694 788.957C322.948 787.756 322.643 785.823 323.558 784.716C323.906 784.332 324.354 784.05 324.853 783.903C325.352 783.755 325.882 783.747 326.385 783.88C327.195 784.131 327.563 784.8 327.637 784.747C327.71 784.695 323.316 781.248 323.126 777.268C323.032 775.45 323.579 773.288 325.04 772.253C325.361 771.992 325.734 771.801 326.134 771.691C326.534 771.582 326.953 771.556 327.363 771.616C328.078 771.804 328.414 772.368 328.52 772.306C328.625 772.243 324.493 768.409 324.588 764.627C324.661 761.378 327.374 758.432 328.341 758.704C328.719 758.809 329.056 759.446 329.298 759.916C329.697 760.699 329.708 761.222 329.781 761.222C330.181 761.222 328.246 747.578 333.986 743.87C334.862 743.324 335.857 742.994 336.888 742.909C338.714 742.768 340.539 743.196 342.11 744.132C343.681 745.067 344.92 746.466 345.656 748.132C346.16 749.48 345.929 750.326 346.307 750.42C347.569 750.754 348.536 741.018 355.296 737.038C358.335 735.261 361.951 734.729 365.378 735.554C366.515 735.928 367.589 736.47 368.563 737.163C368.917 737.421 369.229 737.731 369.488 738.083C370.203 739.127 370.046 739.911 370.298 739.984C370.971 740.161 371.864 734.071 375.407 731.313C378.298 729.067 382.84 728.179 384.774 730.007C386.288 731.418 386.414 734.656 386.435 735.293C386.435 736.338 386.362 737.383 386.435 737.383C386.509 737.383 386.067 729.955 389.284 728.367C391.155 727.469 392.974 729.245 393.794 728.482Z" fill="#231F20"/>
</g>
</g>
<path d="M12.541 498.655L13.1613 498.3C13.1886 498.28 13.2218 498.269 13.2559 498.269C13.29 498.269 13.3232 498.28 13.3505 498.3L13.8867 498.791C13.9096 498.811 13.9382 498.823 13.9686 498.826C13.9989 498.829 14.0295 498.823 14.056 498.808C14.0826 498.793 14.1038 498.77 14.1168 498.743C14.1297 498.716 14.1338 498.685 14.1285 498.655L13.9708 497.945C13.9654 497.913 13.9695 497.88 13.9826 497.85C13.9957 497.821 14.0171 497.795 14.0444 497.778L14.6751 497.412C14.7037 497.404 14.7288 497.387 14.7467 497.363C14.7646 497.34 14.7743 497.311 14.7743 497.281C14.7743 497.252 14.7646 497.223 14.7467 497.2C14.7288 497.176 14.7037 497.159 14.6751 497.151L13.9497 497.078C13.918 497.07 13.8888 497.055 13.8648 497.033C13.8409 497.011 13.8231 496.983 13.8131 496.952L13.6659 496.242C13.655 496.215 13.6361 496.191 13.6118 496.175C13.5874 496.159 13.5587 496.15 13.5292 496.15C13.4998 496.15 13.4711 496.159 13.4467 496.175C13.4223 496.191 13.4035 496.215 13.3926 496.242L13.0877 496.9C13.0759 496.93 13.0534 496.956 13.0245 496.971C12.9955 496.986 12.962 496.991 12.93 496.984L12.2151 496.911C12.1848 496.908 12.1544 496.914 12.128 496.93C12.1017 496.945 12.0808 496.968 12.0681 496.995C12.0554 497.023 12.0516 497.053 12.0572 497.083C12.0628 497.113 12.0776 497.14 12.0995 497.161L12.6356 497.652C12.6544 497.676 12.6646 497.705 12.6646 497.736C12.6646 497.766 12.6544 497.795 12.6356 497.819L12.3413 498.488C12.3354 498.514 12.3368 498.541 12.3454 498.567C12.354 498.592 12.3695 498.614 12.3901 498.632C12.4107 498.649 12.4357 498.66 12.4623 498.664C12.4889 498.668 12.5161 498.665 12.541 498.655Z" fill="#FFD788"/>
<path d="M323.285 460.243L323.916 459.877C323.942 459.859 323.973 459.849 324.005 459.849C324.037 459.849 324.068 459.859 324.095 459.877L324.631 460.358C324.654 460.378 324.682 460.39 324.713 460.393C324.743 460.396 324.773 460.39 324.8 460.375C324.827 460.36 324.848 460.337 324.861 460.31C324.874 460.282 324.878 460.252 324.872 460.222L324.725 459.522C324.714 459.49 324.716 459.455 324.73 459.424C324.743 459.393 324.768 459.368 324.799 459.355L325.419 458.989C325.446 458.974 325.467 458.951 325.48 458.923C325.492 458.895 325.496 458.864 325.49 458.835C325.485 458.805 325.469 458.777 325.447 458.756C325.425 458.735 325.397 458.722 325.367 458.717L324.641 458.644C324.609 458.641 324.579 458.628 324.555 458.608C324.53 458.587 324.513 458.56 324.504 458.529L324.357 457.819C324.346 457.792 324.328 457.769 324.303 457.752C324.279 457.736 324.25 457.727 324.221 457.727C324.191 457.727 324.162 457.736 324.138 457.752C324.114 457.769 324.095 457.792 324.084 457.819L323.79 458.477C323.777 458.507 323.754 458.533 323.726 458.549C323.698 458.566 323.665 458.574 323.632 458.571L322.907 458.498C322.876 458.495 322.846 458.502 322.819 458.517C322.793 458.532 322.772 458.555 322.759 458.583C322.747 458.61 322.743 458.641 322.749 458.671C322.754 458.7 322.769 458.728 322.791 458.749L323.338 459.229C323.356 459.255 323.365 459.286 323.365 459.318C323.365 459.35 323.356 459.381 323.338 459.407L323.043 460.065C323.02 460.097 323.01 460.137 323.015 460.176C323.021 460.215 323.043 460.25 323.075 460.274C323.107 460.298 323.147 460.307 323.186 460.302C323.226 460.296 323.261 460.274 323.285 460.243Z" fill="#FFD788"/>
<path d="M46.7092 498.77L47.403 498.373C47.4314 498.355 47.4642 498.346 47.4976 498.346C47.5311 498.346 47.5639 498.355 47.5923 498.373L48.1915 498.906C48.2159 498.929 48.2471 498.944 48.2805 498.948C48.3139 498.952 48.3478 498.945 48.3771 498.929C48.4065 498.913 48.4298 498.887 48.4437 498.857C48.4576 498.826 48.4613 498.792 48.4543 498.76L48.2861 497.976C48.2795 497.941 48.2841 497.906 48.2992 497.874C48.3143 497.842 48.3391 497.816 48.3702 497.799L49.0641 497.402C49.0933 497.385 49.1166 497.36 49.1304 497.329C49.1441 497.299 49.1478 497.265 49.1407 497.232C49.1337 497.2 49.1164 497.17 49.0912 497.148C49.0661 497.126 49.0345 497.112 49.001 497.109L48.202 497.025C48.166 497.022 48.1323 497.006 48.1058 496.982C48.0793 496.957 48.0614 496.925 48.0548 496.89L47.8866 496.117C47.8777 496.083 47.8579 496.054 47.8304 496.033C47.8028 496.011 47.769 496 47.7342 496C47.6994 496 47.6656 496.011 47.638 496.033C47.6104 496.054 47.5907 496.083 47.5817 496.117L47.2559 496.837C47.2441 496.871 47.221 496.9 47.1903 496.919C47.1597 496.938 47.1235 496.946 47.0876 496.942L46.2992 496.858C46.2658 496.854 46.232 496.86 46.2026 496.877C46.1732 496.893 46.1497 496.918 46.1356 496.948C46.1215 496.978 46.1176 497.012 46.1243 497.045C46.131 497.078 46.1481 497.108 46.173 497.13L46.7617 497.663C46.7816 497.692 46.7923 497.727 46.7923 497.762C46.7923 497.797 46.7816 497.832 46.7617 497.861L46.4358 498.582C46.4234 498.6 46.4146 498.62 46.41 498.641C46.4054 498.662 46.4051 498.684 46.409 498.706C46.4129 498.727 46.421 498.747 46.4328 498.766C46.4446 498.784 46.46 498.8 46.4779 498.812C46.4958 498.824 46.5161 498.833 46.5374 498.837C46.5587 498.842 46.5808 498.842 46.6022 498.839C46.6237 498.835 46.6442 498.827 46.6626 498.815C46.6809 498.803 46.6967 498.788 46.7092 498.77Z" fill="#FFD788"/>
<path d="M87.3132 459.721L87.6602 458.676C87.6776 458.629 87.7092 458.589 87.7507 458.561C87.7921 458.533 87.8413 458.518 87.8915 458.519H89.0268C89.0754 458.518 89.1223 458.501 89.1609 458.472C89.1995 458.442 89.2277 458.402 89.2417 458.355C89.2557 458.309 89.2546 458.26 89.2387 458.214C89.2228 458.169 89.1928 458.129 89.153 458.101L88.2384 457.443C88.1971 457.413 88.1667 457.37 88.1516 457.321C88.1365 457.272 88.1374 457.22 88.1543 457.172L88.5012 456.127C88.52 456.081 88.5229 456.031 88.5094 455.984C88.4959 455.936 88.4668 455.895 88.4268 455.866C88.3868 455.837 88.3382 455.823 88.2888 455.824C88.2394 455.826 88.192 455.844 88.1543 455.876L87.2396 456.534C87.1984 456.564 87.1487 456.58 87.0977 456.58C87.0467 456.58 86.9971 456.564 86.9558 456.534L86.0307 455.876C85.9929 455.844 85.9456 455.826 85.8961 455.824C85.8467 455.823 85.7981 455.837 85.7581 455.866C85.7181 455.895 85.689 455.936 85.6756 455.984C85.6621 456.031 85.665 456.081 85.6837 456.127L86.0307 457.172C86.0493 457.22 86.0512 457.273 86.0359 457.322C86.0207 457.371 85.9892 457.414 85.9466 457.443L85.0319 458.101C84.9915 458.13 84.9612 458.17 84.9455 458.217C84.9298 458.263 84.9296 458.314 84.9449 458.36C84.9602 458.407 84.9902 458.448 85.0304 458.476C85.0707 458.505 85.1191 458.52 85.1686 458.519H86.2935C86.3436 458.518 86.3928 458.533 86.4343 458.561C86.4757 458.589 86.5073 458.629 86.5248 458.676L86.8822 459.721C86.8991 459.764 86.9287 459.801 86.9672 459.827C87.0056 459.853 87.0511 459.867 87.0977 459.867C87.1443 459.867 87.1898 459.853 87.2283 459.827C87.2667 459.801 87.2963 459.764 87.3132 459.721Z" fill="#FFD788"/>
<path d="M146.297 550.052L145.919 549.122C145.902 549.08 145.897 549.034 145.907 548.989C145.916 548.944 145.939 548.904 145.971 548.872L146.76 548.161C146.79 548.131 146.81 548.092 146.818 548.05C146.825 548.008 146.819 547.964 146.801 547.925C146.782 547.886 146.752 547.854 146.715 547.833C146.678 547.812 146.635 547.802 146.592 547.806L145.54 547.911C145.494 547.916 145.446 547.906 145.405 547.884C145.364 547.861 145.33 547.827 145.309 547.785L144.878 546.835C144.864 546.793 144.837 546.756 144.802 546.731C144.766 546.705 144.723 546.691 144.678 546.691C144.634 546.691 144.591 546.705 144.555 546.731C144.519 546.756 144.492 546.793 144.479 546.835L144.268 547.879C144.258 547.926 144.233 547.968 144.197 548C144.161 548.032 144.116 548.052 144.069 548.057L143.017 548.172C142.974 548.179 142.935 548.198 142.904 548.228C142.873 548.258 142.852 548.297 142.844 548.339C142.835 548.382 142.841 548.425 142.859 548.465C142.877 548.504 142.906 548.537 142.944 548.558L143.858 549.081C143.899 549.104 143.932 549.14 143.951 549.183C143.97 549.227 143.974 549.275 143.963 549.321L143.753 550.366C143.744 550.409 143.749 550.454 143.767 550.494C143.785 550.535 143.815 550.568 143.854 550.59C143.892 550.613 143.937 550.622 143.981 550.617C144.025 550.612 144.067 550.594 144.1 550.564L144.878 549.864C144.915 549.834 144.962 549.818 145.009 549.818C145.057 549.818 145.104 549.834 145.141 549.864L146.055 550.386C146.1 550.408 146.151 550.413 146.199 550.401C146.247 550.389 146.289 550.36 146.318 550.32C146.347 550.28 146.36 550.232 146.357 550.183C146.353 550.133 146.332 550.087 146.297 550.052Z" fill="#FFD788"/>
<path d="M214.369 422.008C214.416 422.006 214.461 421.99 214.498 421.962C214.535 421.934 214.563 421.896 214.578 421.851C214.593 421.807 214.594 421.76 214.581 421.715C214.568 421.67 214.542 421.63 214.505 421.601L213.591 420.943C213.546 420.915 213.513 420.873 213.495 420.823C213.478 420.774 213.478 420.72 213.496 420.671L213.854 419.626C213.867 419.58 213.866 419.531 213.85 419.486C213.834 419.441 213.804 419.402 213.765 419.374C213.726 419.347 213.678 419.332 213.63 419.332C213.582 419.332 213.535 419.348 213.496 419.376L212.582 420.034C212.541 420.065 212.491 420.082 212.44 420.082C212.388 420.082 212.338 420.065 212.298 420.034L211.383 419.376C211.345 419.344 211.298 419.326 211.249 419.324C211.199 419.322 211.15 419.337 211.11 419.366C211.07 419.395 211.041 419.436 211.028 419.483C211.014 419.531 211.017 419.581 211.036 419.626L211.383 420.671C211.4 420.719 211.401 420.772 211.386 420.821C211.371 420.869 211.34 420.912 211.299 420.943L210.374 421.601C210.338 421.63 210.311 421.67 210.298 421.715C210.285 421.76 210.286 421.807 210.301 421.851C210.316 421.896 210.344 421.934 210.381 421.962C210.419 421.99 210.464 422.006 210.51 422.008H211.646C211.697 422.01 211.746 422.026 211.788 422.056C211.829 422.086 211.86 422.128 211.877 422.175L212.224 423.22C212.241 423.263 212.271 423.3 212.309 423.326C212.348 423.353 212.393 423.367 212.44 423.367C212.486 423.367 212.532 423.353 212.57 423.326C212.609 423.3 212.638 423.263 212.655 423.22L213.002 422.175" fill="#FFD788"/>
<path d="M297.306 535.417L297.558 534.623C297.57 534.588 297.592 534.558 297.623 534.537C297.653 534.516 297.69 534.506 297.726 534.508H298.567C298.603 534.507 298.637 534.495 298.665 534.474C298.693 534.453 298.714 534.424 298.725 534.39C298.735 534.357 298.735 534.321 298.724 534.288C298.712 534.254 298.691 534.225 298.662 534.205L297.989 533.714C297.958 533.693 297.934 533.662 297.923 533.626C297.911 533.59 297.913 533.551 297.926 533.515L298.178 532.721C298.188 532.689 298.188 532.654 298.177 532.621C298.166 532.589 298.146 532.561 298.118 532.54C298.091 532.52 298.058 532.508 298.023 532.507C297.989 532.506 297.955 532.515 297.926 532.533L297.243 533.024C297.214 533.05 297.176 533.064 297.138 533.064C297.099 533.064 297.061 533.05 297.033 533.024L296.36 532.533C296.33 532.517 296.296 532.509 296.262 532.511C296.228 532.513 296.196 532.525 296.168 532.544C296.141 532.564 296.119 532.591 296.107 532.623C296.094 532.654 296.091 532.688 296.097 532.721L296.36 533.515C296.372 533.551 296.372 533.589 296.361 533.625C296.349 533.66 296.327 533.692 296.297 533.714L295.613 534.205C295.584 534.226 295.562 534.256 295.551 534.29C295.54 534.324 295.54 534.361 295.552 534.395C295.564 534.429 295.587 534.459 295.617 534.479C295.646 534.499 295.682 534.509 295.718 534.508H296.549C296.587 534.507 296.624 534.517 296.656 534.538C296.688 534.558 296.713 534.588 296.728 534.623L296.98 535.417C296.989 535.453 297.01 535.485 297.04 535.507C297.069 535.53 297.106 535.542 297.143 535.542C297.18 535.542 297.217 535.53 297.246 535.507C297.276 535.485 297.297 535.453 297.306 535.417Z" fill="#FFD788"/>
<path d="M263.663 307.806L263.915 307.023C263.928 306.986 263.952 306.954 263.984 306.932C264.016 306.909 264.054 306.897 264.094 306.897H264.924C264.959 306.897 264.994 306.885 265.022 306.864C265.05 306.843 265.071 306.813 265.081 306.78C265.092 306.746 265.091 306.71 265.08 306.677C265.069 306.644 265.047 306.615 265.019 306.594L264.346 306.114C264.317 306.091 264.295 306.059 264.284 306.024C264.273 305.989 264.273 305.951 264.283 305.915L264.535 305.121C264.545 305.089 264.544 305.054 264.534 305.021C264.523 304.989 264.502 304.961 264.475 304.94C264.447 304.92 264.414 304.908 264.38 304.907C264.346 304.906 264.312 304.915 264.283 304.933L263.61 305.424C263.579 305.445 263.542 305.456 263.505 305.456C263.467 305.456 263.431 305.445 263.4 305.424L262.727 304.933C262.698 304.911 262.663 304.898 262.626 304.897C262.59 304.896 262.554 304.907 262.524 304.928C262.494 304.95 262.472 304.98 262.461 305.015C262.451 305.05 262.452 305.087 262.464 305.121L262.727 305.915C262.736 305.952 262.734 305.99 262.721 306.026C262.708 306.061 262.684 306.092 262.653 306.114L261.981 306.594C261.951 306.615 261.929 306.645 261.918 306.68C261.907 306.714 261.908 306.751 261.919 306.785C261.931 306.819 261.954 306.848 261.984 306.869C262.014 306.889 262.049 306.899 262.086 306.897H262.916C262.954 306.898 262.991 306.91 263.021 306.933C263.051 306.955 263.073 306.987 263.084 307.023L263.347 307.806C263.359 307.838 263.381 307.866 263.409 307.885C263.437 307.905 263.471 307.915 263.505 307.915C263.539 307.915 263.573 307.905 263.601 307.885C263.629 307.866 263.651 307.838 263.663 307.806Z" fill="#FFD788"/>
<path d="M277.906 183.105L278.536 182.74C278.565 182.722 278.597 182.713 278.631 182.713C278.664 182.713 278.697 182.722 278.726 182.74L279.262 183.22C279.285 183.24 279.313 183.253 279.344 183.256C279.374 183.259 279.404 183.252 279.431 183.237C279.458 183.223 279.479 183.2 279.492 183.172C279.505 183.145 279.509 183.114 279.503 183.084L279.346 182.374C279.342 182.342 279.346 182.31 279.359 182.28C279.372 182.251 279.393 182.226 279.419 182.207L280.05 181.852C280.077 181.841 280.101 181.822 280.117 181.798C280.134 181.774 280.143 181.745 280.143 181.716C280.143 181.687 280.134 181.658 280.117 181.634C280.101 181.61 280.077 181.591 280.05 181.58L279.325 181.507C279.292 181.502 279.262 181.487 279.237 181.465C279.213 181.443 279.196 181.414 279.188 181.382L279.041 180.682C279.032 180.651 279.014 180.624 278.988 180.604C278.963 180.585 278.931 180.574 278.899 180.574C278.867 180.574 278.835 180.585 278.81 180.604C278.784 180.624 278.766 180.651 278.757 180.682L278.463 181.34C278.45 181.37 278.427 181.395 278.399 181.412C278.371 181.429 278.338 181.437 278.305 181.434L277.59 181.361C277.56 181.358 277.529 181.365 277.503 181.38C277.477 181.395 277.456 181.418 277.443 181.445C277.43 181.473 277.427 181.504 277.432 181.533C277.438 181.563 277.453 181.59 277.475 181.611L278.011 182.092C278.03 182.118 278.041 182.149 278.041 182.181C278.041 182.213 278.03 182.244 278.011 182.27L277.716 182.928C277.709 182.953 277.709 182.98 277.716 183.006C277.723 183.032 277.738 183.055 277.757 183.073C277.776 183.091 277.801 183.104 277.827 183.11C277.853 183.115 277.88 183.114 277.906 183.105Z" fill="#FFD788"/>
<path d="M322.144 351.943L322.765 351.578C322.793 351.56 322.826 351.551 322.859 351.551C322.893 351.551 322.925 351.56 322.954 351.578L323.49 352.058C323.513 352.078 323.542 352.091 323.572 352.094C323.602 352.097 323.633 352.09 323.659 352.076C323.686 352.061 323.707 352.038 323.72 352.01C323.733 351.983 323.737 351.952 323.732 351.922L323.574 351.212C323.57 351.182 323.574 351.151 323.587 351.123C323.6 351.095 323.621 351.071 323.648 351.055L324.278 350.69C324.305 350.675 324.326 350.652 324.339 350.624C324.352 350.596 324.355 350.565 324.35 350.535C324.344 350.505 324.329 350.478 324.307 350.457C324.284 350.436 324.256 350.422 324.226 350.418L323.501 350.345C323.468 350.34 323.437 350.325 323.413 350.303C323.389 350.28 323.372 350.252 323.364 350.22L323.217 349.52C323.206 349.493 323.187 349.469 323.163 349.453C323.138 349.436 323.109 349.428 323.08 349.428C323.051 349.428 323.022 349.436 322.997 349.453C322.973 349.469 322.954 349.493 322.943 349.52L322.638 350.178C322.629 350.21 322.607 350.238 322.578 350.255C322.549 350.273 322.514 350.278 322.481 350.272L321.766 350.199C321.736 350.196 321.705 350.203 321.679 350.218C321.652 350.233 321.632 350.256 321.619 350.283C321.606 350.311 321.602 350.342 321.608 350.371C321.614 350.401 321.628 350.428 321.65 350.449L322.186 350.93C322.206 350.956 322.217 350.987 322.217 351.019C322.217 351.051 322.206 351.082 322.186 351.108L321.892 351.766C321.868 351.799 321.859 351.84 321.866 351.88C321.873 351.921 321.895 351.956 321.929 351.98C321.962 352.003 322.004 352.013 322.044 352.006C322.085 351.999 322.121 351.977 322.144 351.943Z" fill="#FFD788"/>
<path d="M80.3713 400.321L81.0652 399.924C81.0934 399.901 81.1286 399.889 81.1651 399.889C81.2015 399.889 81.2367 399.901 81.2649 399.924L81.8536 400.457C81.8785 400.482 81.911 400.498 81.9461 400.503C81.9812 400.507 82.0168 400.5 82.0471 400.482C82.0774 400.463 82.1007 400.436 82.1133 400.403C82.1259 400.37 82.127 400.334 82.1165 400.3L81.9483 399.527C81.9416 399.493 81.9462 399.457 81.9613 399.425C81.9764 399.393 82.0013 399.367 82.0324 399.35L82.7262 398.953C82.7539 398.934 82.7754 398.908 82.788 398.877C82.8006 398.847 82.8038 398.813 82.797 398.78C82.7902 398.748 82.7739 398.718 82.7501 398.695C82.7262 398.672 82.696 398.656 82.6631 398.65L81.8642 398.566C81.8285 398.567 81.7939 398.554 81.7669 398.531C81.7398 398.508 81.7221 398.476 81.717 398.441L81.5488 397.658C81.5352 397.629 81.5137 397.604 81.4867 397.587C81.4597 397.57 81.4284 397.561 81.3963 397.561C81.3643 397.561 81.333 397.57 81.306 397.587C81.279 397.604 81.2574 397.629 81.2439 397.658L80.9285 398.389C80.9118 398.421 80.8857 398.447 80.8538 398.463C80.8219 398.48 80.7856 398.487 80.7498 398.483L79.9613 398.399C79.9281 398.398 79.8954 398.407 79.8673 398.425C79.8392 398.443 79.8171 398.468 79.8036 398.498C79.7901 398.529 79.7859 398.562 79.7915 398.595C79.7971 398.627 79.8123 398.657 79.8352 398.681L80.4239 399.214C80.4444 399.241 80.4554 399.274 80.4554 399.308C80.4554 399.342 80.4444 399.375 80.4239 399.402L80.098 400.133C80.0729 400.169 80.0632 400.214 80.0711 400.257C80.079 400.3 80.1038 400.338 80.14 400.363C80.1763 400.388 80.221 400.398 80.2644 400.39C80.3078 400.382 80.3462 400.357 80.3713 400.321Z" fill="#FFD788"/>
<path d="M42.0104 366.568L42.3573 365.523C42.3743 365.476 42.4056 365.434 42.4468 365.404C42.4881 365.374 42.5376 365.358 42.5886 365.356H43.724C43.77 365.352 43.8137 365.335 43.8496 365.306C43.8855 365.277 43.9119 365.239 43.9254 365.195C43.939 365.151 43.9391 365.104 43.9257 365.06C43.9123 365.017 43.886 364.978 43.8502 364.949L42.8935 364.218C42.8522 364.187 42.8218 364.144 42.8067 364.095C42.7916 364.047 42.7925 363.994 42.8094 363.946L43.1563 362.901C43.1751 362.856 43.178 362.805 43.1645 362.758C43.151 362.711 43.1219 362.669 43.0819 362.641C43.0419 362.612 42.9933 362.597 42.9439 362.599C42.8945 362.601 42.8471 362.619 42.8094 362.651L41.8948 363.309C41.8519 363.339 41.8004 363.356 41.7476 363.356C41.6948 363.356 41.6433 363.339 41.6004 363.309L40.6858 362.651C40.6481 362.619 40.6007 362.601 40.5513 362.599C40.5018 362.597 40.4532 362.612 40.4132 362.641C40.3732 362.669 40.3442 362.711 40.3307 362.758C40.3172 362.805 40.3201 362.856 40.3389 362.901L40.6858 363.946C40.7027 363.994 40.7036 364.047 40.6885 364.095C40.6734 364.144 40.643 364.187 40.6017 364.218L39.6871 364.876C39.6513 364.905 39.625 364.943 39.6116 364.987C39.5981 365.031 39.5982 365.078 39.6118 365.122C39.6254 365.166 39.6518 365.204 39.6877 365.233C39.7236 365.262 39.7673 365.279 39.8132 365.283H40.9486C40.9997 365.284 41.0491 365.301 41.0904 365.331C41.1317 365.361 41.1629 365.402 41.1799 365.45L41.5268 366.495C41.5171 366.559 41.5332 366.624 41.5716 366.676C41.6101 366.727 41.6677 366.762 41.7318 366.772C41.7959 366.782 41.8613 366.765 41.9136 366.727C41.9658 366.689 42.0007 366.632 42.0104 366.568Z" fill="#FFD788"/>
<path d="M120.112 341.674L119.681 340.713C119.661 340.672 119.655 340.624 119.664 340.579C119.674 340.534 119.698 340.493 119.734 340.463L120.512 339.752C120.549 339.726 120.576 339.687 120.588 339.643C120.599 339.599 120.596 339.553 120.577 339.511C120.559 339.47 120.527 339.436 120.486 339.415C120.445 339.394 120.399 339.388 120.354 339.397L119.303 339.501C119.256 339.506 119.209 339.497 119.167 339.475C119.126 339.452 119.093 339.418 119.071 339.376L118.64 338.415C118.622 338.374 118.591 338.34 118.551 338.318C118.512 338.296 118.466 338.287 118.421 338.293C118.376 338.299 118.334 338.319 118.302 338.351C118.27 338.382 118.248 338.423 118.241 338.467L118.031 339.512C118.02 339.558 117.995 339.601 117.959 339.632C117.924 339.664 117.879 339.684 117.831 339.69L116.78 339.804C116.736 339.809 116.695 339.828 116.663 339.857C116.63 339.887 116.608 339.925 116.598 339.968C116.589 340.01 116.594 340.055 116.611 340.095C116.628 340.135 116.658 340.168 116.696 340.191L117.621 340.713C117.662 340.737 117.694 340.773 117.713 340.816C117.732 340.859 117.737 340.908 117.726 340.954L117.505 341.998C117.5 342.042 117.507 342.086 117.527 342.125C117.547 342.164 117.578 342.196 117.616 342.217C117.655 342.239 117.699 342.248 117.743 342.244C117.786 342.241 117.828 342.224 117.862 342.197L118.64 341.497C118.678 341.467 118.724 341.451 118.772 341.451C118.82 341.451 118.866 341.467 118.903 341.497L119.818 342.019C119.864 342.058 119.924 342.077 119.984 342.072C120.044 342.067 120.1 342.039 120.139 341.993C120.178 341.947 120.197 341.888 120.192 341.828C120.187 341.769 120.158 341.713 120.112 341.674Z" fill="#FFD788"/>
<path d="M352.432 223.67C352.478 223.666 352.522 223.648 352.558 223.619C352.593 223.591 352.62 223.552 352.633 223.508C352.647 223.464 352.647 223.418 352.634 223.374C352.62 223.33 352.594 223.291 352.558 223.262L351.644 222.594C351.602 222.563 351.572 222.52 351.557 222.471C351.542 222.423 351.543 222.37 351.559 222.322L351.906 221.277C351.925 221.232 351.928 221.181 351.915 221.134C351.901 221.087 351.872 221.045 351.832 221.017C351.792 220.988 351.743 220.973 351.694 220.975C351.645 220.977 351.597 220.995 351.559 221.027L350.634 221.685C350.594 221.716 350.544 221.733 350.492 221.733C350.441 221.733 350.391 221.716 350.35 221.685L349.436 221.027C349.398 220.995 349.351 220.977 349.301 220.975C349.252 220.973 349.203 220.988 349.163 221.017C349.123 221.045 349.094 221.087 349.081 221.134C349.067 221.181 349.07 221.232 349.089 221.277L349.436 222.322C349.453 222.37 349.454 222.423 349.438 222.471C349.423 222.52 349.393 222.563 349.352 222.594L348.437 223.262C348.401 223.291 348.375 223.33 348.362 223.374C348.348 223.418 348.348 223.464 348.362 223.508C348.375 223.552 348.402 223.591 348.438 223.619C348.474 223.648 348.517 223.666 348.563 223.67H349.699C349.75 223.668 349.801 223.683 349.843 223.713C349.885 223.744 349.916 223.787 349.93 223.837L350.277 224.881C350.292 224.928 350.321 224.969 350.361 224.998C350.4 225.027 350.448 225.043 350.498 225.043C350.547 225.043 350.595 225.027 350.635 224.998C350.674 224.969 350.704 224.928 350.718 224.881L351.065 223.837" fill="#FFD788"/>
<path d="M339.358 397.438L339.61 396.654C339.622 396.619 339.645 396.589 339.675 396.566C339.705 396.544 339.741 396.531 339.778 396.529H340.619C340.655 396.528 340.689 396.517 340.717 396.496C340.745 396.474 340.766 396.445 340.777 396.412C340.787 396.378 340.787 396.342 340.775 396.309C340.764 396.276 340.743 396.247 340.714 396.226L340.041 395.735C340.011 395.713 339.989 395.682 339.977 395.646C339.966 395.61 339.966 395.572 339.978 395.537L340.23 394.753C340.24 394.72 340.239 394.686 340.229 394.653C340.218 394.621 340.197 394.592 340.17 394.572C340.142 394.551 340.109 394.54 340.075 394.539C340.041 394.537 340.007 394.547 339.978 394.565L339.295 395.056C339.265 395.076 339.23 395.086 339.195 395.086C339.159 395.086 339.124 395.076 339.095 395.056L338.412 394.565C338.383 394.547 338.349 394.537 338.315 394.539C338.28 394.54 338.247 394.551 338.22 394.572C338.192 394.592 338.172 394.621 338.161 394.653C338.15 394.686 338.149 394.72 338.159 394.753L338.412 395.537C338.423 395.572 338.424 395.61 338.412 395.646C338.401 395.682 338.379 395.713 338.348 395.735L337.676 396.226C337.647 396.247 337.625 396.276 337.614 396.309C337.603 396.342 337.603 396.378 337.613 396.412C337.623 396.445 337.644 396.474 337.673 396.496C337.701 396.517 337.735 396.528 337.77 396.529H338.611C338.649 396.531 338.685 396.544 338.715 396.566C338.745 396.589 338.767 396.619 338.78 396.654L339.032 397.438C339.041 397.474 339.062 397.506 339.092 397.529C339.121 397.551 339.157 397.564 339.195 397.564C339.232 397.564 339.268 397.551 339.298 397.529C339.327 397.506 339.348 397.474 339.358 397.438Z" fill="#FFD788"/>
<path d="M340.919 309.446L341.182 308.652C341.191 308.616 341.213 308.583 341.244 308.56C341.274 308.538 341.312 308.526 341.35 308.527H342.18C342.214 308.526 342.247 308.515 342.274 308.495C342.301 308.475 342.321 308.448 342.333 308.416C342.344 308.385 342.346 308.351 342.337 308.318C342.329 308.286 342.311 308.257 342.286 308.235L341.602 307.744C341.572 307.721 341.55 307.69 341.538 307.654C341.527 307.619 341.527 307.581 341.539 307.545L341.802 306.751C341.811 306.718 341.809 306.682 341.797 306.65C341.785 306.617 341.763 306.589 341.734 306.569C341.705 306.55 341.671 306.54 341.636 306.541C341.601 306.541 341.567 306.553 341.539 306.574L340.866 307.054C340.837 307.08 340.8 307.094 340.761 307.094C340.722 307.094 340.685 307.08 340.656 307.054L339.983 306.574C339.955 306.553 339.921 306.541 339.886 306.541C339.851 306.54 339.817 306.55 339.788 306.569C339.759 306.589 339.737 306.617 339.725 306.65C339.713 306.682 339.711 306.718 339.72 306.751L339.983 307.545C339.995 307.581 339.995 307.619 339.984 307.654C339.973 307.69 339.95 307.721 339.92 307.744L339.237 308.235C339.211 308.257 339.193 308.286 339.185 308.318C339.177 308.351 339.178 308.385 339.189 308.416C339.201 308.448 339.221 308.475 339.249 308.495C339.276 308.515 339.308 308.526 339.342 308.527H340.172C340.211 308.526 340.248 308.538 340.279 308.56C340.309 308.583 340.331 308.616 340.341 308.652L340.603 309.446C340.615 309.478 340.637 309.506 340.665 309.525C340.693 309.545 340.727 309.555 340.761 309.555C340.795 309.555 340.829 309.545 340.857 309.525C340.885 309.506 340.907 309.478 340.919 309.446Z" fill="#FFD788"/>
<path d="M79.855 224.401L80.1179 223.617C80.129 223.582 80.1512 223.55 80.1814 223.528C80.2117 223.505 80.2483 223.493 80.2861 223.492H81.1271C81.1624 223.491 81.1966 223.48 81.2248 223.458C81.253 223.437 81.2739 223.408 81.2843 223.374C81.2948 223.341 81.2944 223.305 81.2831 223.272C81.2719 223.238 81.2504 223.21 81.2217 223.189L80.5489 222.709C80.5173 222.687 80.4939 222.656 80.4825 222.62C80.471 222.584 80.4722 222.545 80.4858 222.51L80.7381 221.716C80.7479 221.683 80.7473 221.648 80.7365 221.616C80.7257 221.584 80.7052 221.555 80.6778 221.535C80.6503 221.514 80.6172 221.503 80.5829 221.502C80.5485 221.5 80.5147 221.51 80.4858 221.528L79.8025 222.019C79.7713 222.04 79.7348 222.051 79.6973 222.051C79.6599 222.051 79.6233 222.04 79.5922 222.019L78.9194 221.528C78.8905 221.51 78.8566 221.5 78.8223 221.502C78.788 221.503 78.7549 221.514 78.7274 221.535C78.6999 221.555 78.6794 221.584 78.6687 221.616C78.6579 221.648 78.6573 221.683 78.6671 221.716L78.9194 222.51C78.9297 222.546 78.9292 222.583 78.918 222.619C78.9068 222.654 78.8853 222.685 78.8563 222.709L78.1835 223.189C78.1548 223.21 78.1333 223.238 78.122 223.272C78.1108 223.305 78.1104 223.341 78.1208 223.374C78.1313 223.408 78.1521 223.437 78.1804 223.458C78.2086 223.48 78.2428 223.491 78.2781 223.492H79.1191C79.1565 223.494 79.1924 223.507 79.2224 223.529C79.2523 223.552 79.2749 223.582 79.2873 223.617L79.5396 224.401C79.5516 224.433 79.5731 224.46 79.6013 224.48C79.6295 224.499 79.663 224.51 79.6973 224.51C79.7317 224.51 79.7652 224.499 79.7934 224.48C79.8216 224.46 79.8431 224.433 79.855 224.401Z" fill="#FFD788"/>
<path d="M210.488 360.969L211.308 360.499C211.342 360.476 211.383 360.464 211.424 360.464C211.465 360.464 211.505 360.476 211.539 360.499L212.233 361.125C212.263 361.153 212.3 361.171 212.341 361.176C212.381 361.181 212.422 361.173 212.457 361.153C212.493 361.133 212.521 361.103 212.537 361.066C212.554 361.029 212.558 360.987 212.549 360.948L212.349 360.039C212.338 359.997 212.342 359.953 212.359 359.914C212.376 359.874 212.406 359.841 212.443 359.82L213.263 359.349C213.3 359.331 213.33 359.302 213.348 359.266C213.366 359.23 213.373 359.188 213.365 359.148C213.358 359.109 213.338 359.072 213.309 359.044C213.279 359.016 213.241 358.999 213.2 358.994L212.265 358.9C212.222 358.897 212.181 358.88 212.149 358.851C212.117 358.823 212.095 358.785 212.086 358.744L211.886 357.824C211.877 357.786 211.854 357.752 211.823 357.727C211.791 357.703 211.753 357.689 211.713 357.689C211.673 357.689 211.634 357.703 211.603 357.727C211.571 357.752 211.549 357.786 211.539 357.824L211.15 358.67C211.136 358.711 211.109 358.745 211.073 358.768C211.036 358.791 210.993 358.801 210.951 358.796L210.015 358.691C209.976 358.688 209.936 358.697 209.902 358.716C209.869 358.736 209.842 358.766 209.825 358.801C209.809 358.837 209.805 358.877 209.812 358.915C209.82 358.953 209.839 358.988 209.868 359.015L210.572 359.642C210.596 359.676 210.609 359.716 210.609 359.757C210.609 359.798 210.596 359.838 210.572 359.872L210.194 360.728C210.162 360.767 210.146 360.817 210.151 360.867C210.156 360.917 210.181 360.963 210.22 360.995C210.259 361.027 210.309 361.042 210.359 361.037C210.41 361.032 210.456 361.008 210.488 360.969Z" fill="#FFD788"/>
<path d="M333.396 494.142L334.205 493.672C334.238 493.647 334.279 493.633 334.321 493.633C334.363 493.633 334.403 493.647 334.437 493.672L335.141 494.288C335.171 494.312 335.207 494.326 335.245 494.329C335.284 494.332 335.322 494.323 335.355 494.304C335.388 494.284 335.414 494.256 335.43 494.221C335.447 494.187 335.452 494.148 335.446 494.111L335.257 493.202C335.248 493.16 335.252 493.117 335.269 493.077C335.286 493.038 335.315 493.005 335.351 492.983L336.161 492.523C336.198 492.504 336.227 492.474 336.245 492.437C336.263 492.4 336.268 492.358 336.26 492.317C336.252 492.277 336.23 492.241 336.199 492.213C336.168 492.186 336.128 492.17 336.087 492.168L335.151 492.074C335.109 492.069 335.069 492.051 335.038 492.023C335.006 491.995 334.983 491.958 334.973 491.917L334.783 491.008C334.771 490.971 334.746 490.939 334.714 490.917C334.682 490.894 334.644 490.882 334.605 490.882C334.565 490.882 334.527 490.894 334.495 490.917C334.463 490.939 334.439 490.971 334.426 491.008L334.048 491.865C334.027 491.902 333.997 491.933 333.96 491.953C333.922 491.973 333.88 491.983 333.837 491.98L332.902 491.886C332.862 491.882 332.823 491.891 332.789 491.91C332.755 491.93 332.728 491.96 332.712 491.995C332.696 492.031 332.691 492.071 332.699 492.109C332.706 492.148 332.726 492.183 332.754 492.209L333.459 492.836C333.489 492.863 333.51 492.899 333.52 492.938C333.529 492.977 333.526 493.018 333.511 493.056L333.122 493.912C333.108 493.949 333.106 493.989 333.115 494.027C333.125 494.065 333.146 494.099 333.176 494.124C333.207 494.15 333.244 494.165 333.283 494.168C333.323 494.171 333.362 494.162 333.396 494.142Z" fill="#FFD788"/>
<path d="M115.506 138.269L116.326 137.799C116.361 137.776 116.401 137.764 116.442 137.764C116.483 137.764 116.523 137.776 116.558 137.799L117.251 138.425C117.281 138.453 117.319 138.471 117.359 138.476C117.399 138.481 117.44 138.473 117.476 138.453C117.511 138.433 117.539 138.403 117.555 138.366C117.572 138.329 117.576 138.287 117.567 138.248L117.367 137.329C117.358 137.288 117.362 137.246 117.379 137.208C117.396 137.17 117.425 137.139 117.462 137.12L118.282 136.65C118.314 136.629 118.34 136.599 118.355 136.564C118.37 136.528 118.373 136.489 118.365 136.452C118.357 136.414 118.338 136.38 118.31 136.354C118.282 136.328 118.246 136.31 118.208 136.305L117.273 136.211C117.23 136.207 117.189 136.19 117.157 136.162C117.125 136.134 117.103 136.096 117.094 136.054L116.894 135.135C116.884 135.096 116.862 135.062 116.831 135.038C116.799 135.013 116.761 135 116.721 135C116.681 135 116.642 135.013 116.61 135.038C116.579 135.062 116.557 135.096 116.547 135.135L116.158 135.981C116.141 136.019 116.113 136.052 116.078 136.074C116.042 136.097 116 136.108 115.958 136.106L115.023 136.002C114.984 135.998 114.944 136.007 114.91 136.027C114.876 136.046 114.849 136.076 114.833 136.112C114.817 136.147 114.812 136.187 114.82 136.225C114.828 136.264 114.847 136.299 114.876 136.326L115.569 136.953C115.603 136.979 115.627 137.016 115.636 137.058C115.646 137.1 115.641 137.144 115.622 137.182L115.244 138.039C115.231 138.074 115.23 138.112 115.239 138.148C115.249 138.184 115.269 138.217 115.297 138.241C115.326 138.266 115.36 138.282 115.398 138.287C115.435 138.292 115.473 138.285 115.506 138.269Z" fill="#FFD788"/>
<path d="M356.713 526.881L357.533 526.411C357.568 526.389 357.608 526.377 357.649 526.377C357.69 526.377 357.73 526.389 357.765 526.411L358.469 527.038C358.499 527.062 358.535 527.076 358.574 527.079C358.612 527.081 358.65 527.073 358.683 527.053C358.716 527.034 358.742 527.005 358.759 526.971C358.775 526.936 358.78 526.898 358.774 526.86L358.574 525.941C358.567 525.9 358.574 525.857 358.593 525.82C358.611 525.782 358.642 525.751 358.679 525.732L359.489 525.262C359.521 525.241 359.547 525.212 359.562 525.176C359.577 525.141 359.58 525.102 359.572 525.064C359.564 525.027 359.545 524.993 359.517 524.966C359.489 524.94 359.453 524.923 359.415 524.917L358.48 524.823C358.437 524.818 358.398 524.801 358.366 524.773C358.334 524.745 358.311 524.708 358.301 524.667L358.112 523.747C358.099 523.71 358.075 523.678 358.043 523.656C358.01 523.633 357.972 523.621 357.933 523.621C357.894 523.621 357.855 523.633 357.823 523.656C357.791 523.678 357.767 523.71 357.754 523.747L357.365 524.594C357.348 524.632 357.32 524.664 357.285 524.687C357.249 524.709 357.208 524.72 357.165 524.719L356.23 524.614C356.191 524.611 356.151 524.62 356.117 524.639C356.083 524.659 356.056 524.689 356.04 524.724C356.024 524.76 356.019 524.8 356.027 524.838C356.035 524.876 356.054 524.911 356.083 524.938L356.787 525.565C356.811 525.599 356.824 525.639 356.824 525.68C356.824 525.721 356.811 525.761 356.787 525.795L356.408 526.651C356.378 526.692 356.364 526.742 356.371 526.792C356.378 526.842 356.405 526.887 356.445 526.918C356.486 526.948 356.537 526.962 356.587 526.955C356.637 526.948 356.683 526.921 356.713 526.881Z" fill="#FFD788"/>
<path d="M43.1047 278.713L43.7355 278.357C43.7603 278.336 43.792 278.324 43.8249 278.324C43.8577 278.324 43.8894 278.336 43.9142 278.357L44.4609 278.848C44.4844 278.87 44.5143 278.883 44.5461 278.886C44.578 278.89 44.61 278.882 44.6373 278.866C44.6646 278.849 44.6858 278.824 44.6976 278.795C44.7094 278.765 44.7112 278.733 44.7027 278.702L44.545 278.002C44.5396 277.97 44.5437 277.937 44.5568 277.908C44.5699 277.878 44.5913 277.853 44.6186 277.835L45.2494 277.469C45.2779 277.461 45.303 277.444 45.3209 277.421C45.3388 277.397 45.3485 277.368 45.3485 277.339C45.3485 277.309 45.3388 277.281 45.3209 277.257C45.303 277.233 45.2779 277.216 45.2494 277.208L44.524 277.125C44.4916 277.123 44.4607 277.111 44.436 277.09C44.4113 277.069 44.3942 277.041 44.3873 277.01L44.2401 276.299C44.2316 276.269 44.2131 276.241 44.1874 276.222C44.1618 276.202 44.1304 276.192 44.0982 276.192C44.0659 276.192 44.0346 276.202 44.009 276.222C43.9833 276.241 43.9648 276.269 43.9563 276.299L43.6619 276.968C43.6485 276.997 43.6258 277.021 43.5973 277.036C43.5688 277.051 43.5361 277.057 43.5042 277.052L42.7893 276.978C42.759 276.976 42.7286 276.982 42.7023 276.998C42.6759 277.013 42.655 277.036 42.6423 277.063C42.6296 277.091 42.6258 277.121 42.6314 277.151C42.6371 277.181 42.6518 277.208 42.6737 277.229L43.2099 277.71C43.2266 277.736 43.2356 277.767 43.2356 277.798C43.2356 277.83 43.2266 277.861 43.2099 277.887L42.8945 278.556C42.8839 278.583 42.8826 278.614 42.8908 278.642C42.899 278.67 42.9164 278.695 42.9401 278.713C42.9639 278.731 42.9928 278.74 43.0225 278.74C43.0522 278.74 43.0811 278.73 43.1047 278.713Z" fill="#FFD788"/>
<path d="M51.2154 155.694L51.5097 154.795C51.5196 154.754 51.5442 154.717 51.5789 154.692C51.6137 154.668 51.6563 154.656 51.6989 154.66H52.6451C52.6831 154.657 52.7194 154.643 52.7492 154.619C52.7791 154.596 52.8011 154.564 52.8125 154.528C52.8238 154.492 52.824 154.453 52.8129 154.417C52.8018 154.381 52.7799 154.349 52.7502 154.325L51.9828 153.772C51.95 153.744 51.9263 153.708 51.9151 153.666C51.9038 153.625 51.9054 153.582 51.9197 153.542L52.2036 152.654C52.2138 152.617 52.2126 152.578 52.2001 152.542C52.1877 152.506 52.1646 152.475 52.1338 152.452C52.1031 152.43 52.0662 152.417 52.028 152.416C51.9897 152.414 51.952 152.424 51.9197 152.445L51.1523 152.999C51.1169 153.023 51.0747 153.037 51.0314 153.037C50.9881 153.037 50.9459 153.023 50.9105 152.999L50.1536 152.445C50.1214 152.42 50.0822 152.407 50.0417 152.406C50.0013 152.406 49.9617 152.418 49.9287 152.441C49.8958 152.465 49.8713 152.498 49.8587 152.536C49.8462 152.574 49.8464 152.616 49.8592 152.654L50.1536 153.542C50.1652 153.583 50.1645 153.627 50.1514 153.668C50.1383 153.708 50.1135 153.745 50.08 153.772L49.3125 154.325C49.2823 154.349 49.2603 154.382 49.2496 154.42C49.2388 154.457 49.2398 154.496 49.2525 154.533C49.2651 154.569 49.2887 154.601 49.3202 154.624C49.3516 154.646 49.3893 154.659 49.4282 154.66H50.3743C50.4162 154.66 50.457 154.673 50.491 154.697C50.5249 154.721 50.5503 154.756 50.5636 154.795L50.8579 155.694C50.8708 155.731 50.895 155.763 50.927 155.785C50.959 155.808 50.9973 155.82 51.0366 155.82C51.0759 155.82 51.1142 155.808 51.1463 155.785C51.1783 155.763 51.2024 155.731 51.2154 155.694Z" fill="#FFD788"/>
<path d="M329.894 145.279L330.682 144.829C330.715 144.804 330.756 144.79 330.798 144.79C330.84 144.79 330.881 144.804 330.914 144.829L331.586 145.435C331.616 145.459 331.653 145.473 331.691 145.476C331.729 145.479 331.767 145.47 331.8 145.451C331.833 145.431 331.86 145.403 331.876 145.368C331.892 145.334 331.898 145.295 331.891 145.258L331.702 144.37C331.693 144.331 331.698 144.29 331.715 144.254C331.732 144.218 331.761 144.189 331.797 144.171L332.585 143.712C332.62 143.694 332.647 143.665 332.664 143.629C332.68 143.594 332.685 143.555 332.676 143.517C332.668 143.479 332.647 143.445 332.618 143.419C332.588 143.394 332.551 143.38 332.512 143.377L331.607 143.283C331.566 143.279 331.527 143.262 331.497 143.233C331.466 143.205 331.446 143.168 331.439 143.127L331.24 142.239C331.227 142.204 331.204 142.174 331.174 142.153C331.144 142.132 331.108 142.121 331.071 142.121C331.035 142.121 330.999 142.132 330.969 142.153C330.938 142.174 330.916 142.204 330.903 142.239L330.525 143.064C330.511 143.101 330.484 143.133 330.45 143.154C330.416 143.175 330.375 143.184 330.335 143.179L329.421 143.085C329.382 143.08 329.343 143.087 329.309 143.106C329.276 143.125 329.249 143.155 329.233 143.19C329.218 143.226 329.215 143.265 329.224 143.303C329.233 143.34 329.254 143.374 329.284 143.398L329.957 144.004C329.988 144.033 330.01 144.07 330.019 144.111C330.028 144.152 330.025 144.195 330.01 144.234L329.642 145.059C329.629 145.093 329.626 145.13 329.635 145.165C329.644 145.201 329.663 145.232 329.691 145.256C329.718 145.28 329.753 145.295 329.789 145.299C329.825 145.303 329.862 145.296 329.894 145.279Z" fill="#FFD788"/>
</g>
<defs>
<linearGradient id="paint0_linear_3428_2452" x1="-3.2705" y1="615.566" x2="17.7845" y2="665.588" gradientUnits="userSpaceOnUse">
<stop stop-color="#C2DB76"/>
<stop offset="0.92" stop-color="#BDD171"/>
</linearGradient>
<linearGradient id="paint1_linear_3428_2452" x1="158.991" y1="741.739" x2="146.794" y2="-52.7261" gradientUnits="userSpaceOnUse">
<stop offset="0.09" stop-color="#311F5A"/>
<stop offset="0.16" stop-color="#332661"/>
<stop offset="0.36" stop-color="#363471"/>
<stop offset="0.52" stop-color="#373977"/>
<stop offset="0.65" stop-color="#38417D"/>
<stop offset="0.84" stop-color="#3A578E"/>
<stop offset="0.97" stop-color="#3C6A9D"/>
</linearGradient>
<linearGradient id="paint2_linear_3428_2452" x1="224.717" y1="598.007" x2="691.316" y2="962.605" gradientUnits="userSpaceOnUse">
<stop stop-color="#2F6E39"/>
<stop offset="0.52" stop-color="#175A28"/>
<stop offset="1" stop-color="#064B1B"/>
</linearGradient>
</defs>
</svg>
