<svg width="1440" height="1594" viewBox="0 0 1440 1594" fill="none" xmlns="http://www.w3.org/2000/svg">
<rect width="1440" height="1594" fill="url(#paint0_linear_3419_691)"/>
<path d="M44.6964 981.68L46.9349 980.374C47.0291 980.308 47.1413 980.273 47.2562 980.273C47.3712 980.273 47.4834 980.308 47.5775 980.374L49.5051 982.094C49.5869 982.167 49.6894 982.211 49.7981 982.222C49.9067 982.232 50.0159 982.209 50.1101 982.153C50.2044 982.098 50.2788 982.015 50.3227 981.915C50.3667 981.815 50.3779 981.704 50.3549 981.597L49.816 979.068C49.793 978.955 49.8068 978.838 49.8553 978.734C49.9038 978.629 49.9844 978.543 50.0854 978.488L52.324 977.182C52.4146 977.125 52.4855 977.042 52.527 976.944C52.5686 976.845 52.5787 976.737 52.556 976.632C52.5333 976.528 52.479 976.433 52.4003 976.361C52.3217 976.289 52.2226 976.242 52.1167 976.228L49.5466 975.959C49.4329 975.942 49.327 975.891 49.2421 975.814C49.1572 975.736 49.0973 975.635 49.0698 975.524L48.5309 972.995C48.4946 972.895 48.4284 972.809 48.3412 972.748C48.2541 972.686 48.1502 972.654 48.0438 972.654C47.9374 972.654 47.8336 972.686 47.7464 972.748C47.6593 972.809 47.5931 972.895 47.5567 972.995L46.4997 975.358C46.4519 975.463 46.3717 975.55 46.271 975.606C46.1703 975.662 46.0543 975.684 45.94 975.669L43.3699 975.399C43.2621 975.394 43.1552 975.421 43.063 975.478C42.9708 975.534 42.8977 975.616 42.853 975.715C42.8083 975.813 42.7942 975.922 42.8124 976.029C42.8307 976.135 42.8805 976.234 42.9553 976.311L44.883 978.032C44.9694 978.112 45.0296 978.216 45.0555 978.33C45.0814 978.445 45.0718 978.565 45.028 978.674L43.971 981.037C43.9337 981.136 43.9272 981.243 43.9523 981.345C43.9775 981.447 44.0332 981.539 44.1119 981.609C44.1906 981.679 44.2887 981.723 44.3931 981.735C44.4975 981.748 44.6033 981.729 44.6964 981.68Z" fill="#FFD788"/>
<path d="M317.98 1037.58L320.446 1036.15C320.549 1036.08 320.672 1036.04 320.799 1036.04C320.925 1036.04 321.049 1036.08 321.151 1036.15L323.224 1038.04C323.311 1038.12 323.424 1038.18 323.545 1038.19C323.666 1038.21 323.788 1038.18 323.894 1038.12C324 1038.06 324.082 1037.97 324.13 1037.85C324.177 1037.74 324.186 1037.62 324.156 1037.5L323.576 1034.72C323.547 1034.6 323.56 1034.47 323.612 1034.35C323.665 1034.23 323.754 1034.14 323.866 1034.08L326.312 1032.65C326.422 1032.59 326.51 1032.5 326.563 1032.39C326.615 1032.28 326.63 1032.15 326.604 1032.03C326.578 1031.91 326.513 1031.8 326.419 1031.72C326.325 1031.64 326.207 1031.6 326.084 1031.59L323.265 1031.3C323.141 1031.28 323.025 1031.23 322.932 1031.14C322.84 1031.06 322.775 1030.95 322.747 1030.82L322.146 1028.05C322.117 1027.93 322.054 1027.83 321.965 1027.75C321.877 1027.67 321.767 1027.63 321.65 1027.61C321.533 1027.6 321.415 1027.62 321.311 1027.68C321.207 1027.73 321.122 1027.82 321.068 1027.92L319.907 1030.53C319.854 1030.65 319.768 1030.74 319.661 1030.8C319.554 1030.86 319.43 1030.89 319.306 1030.89L316.467 1030.6C316.349 1030.58 316.229 1030.61 316.126 1030.67C316.023 1030.72 315.941 1030.81 315.892 1030.92C315.844 1031.03 315.831 1031.15 315.856 1031.27C315.881 1031.39 315.943 1031.49 316.031 1031.57L318.104 1033.48C318.198 1033.56 318.263 1033.68 318.289 1033.81C318.315 1033.93 318.301 1034.06 318.249 1034.18L317.109 1036.77C317.002 1036.89 316.945 1037.04 316.951 1037.2C316.957 1037.36 317.025 1037.5 317.14 1037.61C317.256 1037.72 317.409 1037.78 317.567 1037.77C317.724 1037.76 317.873 1037.7 317.98 1037.58Z" fill="#FFD788"/>
<path d="M998.758 1004.81L999.67 1001.97C999.712 1001.85 999.793 1001.74 999.901 1001.66C1000.01 1001.58 1000.14 1001.54 1000.27 1001.54H1003.26C1003.38 1001.53 1003.5 1001.49 1003.6 1001.42C1003.7 1001.34 1003.77 1001.24 1003.81 1001.12C1003.85 1001 1003.85 1000.88 1003.82 1000.76C1003.78 1000.64 1003.71 1000.53 1003.61 1000.46L1001.2 998.717C1001.09 998.637 1001.01 998.524 1000.96 998.394C1000.92 998.264 1000.92 998.124 1000.95 997.992L1001.89 995.173C1001.93 995.053 1001.93 994.924 1001.89 994.804C1001.85 994.684 1001.78 994.578 1001.68 994.503C1001.58 994.427 1001.45 994.385 1001.33 994.383C1001.2 994.38 1001.08 994.417 1000.98 994.489L998.55 996.251C998.443 996.332 998.312 996.375 998.177 996.375C998.043 996.375 997.912 996.332 997.804 996.251L995.4 994.489C995.296 994.417 995.173 994.38 995.047 994.383C994.921 994.385 994.798 994.427 994.698 994.503C994.597 994.578 994.522 994.684 994.485 994.804C994.447 994.924 994.448 995.053 994.488 995.173L995.4 997.992C995.444 998.121 995.446 998.262 995.405 998.392C995.364 998.523 995.282 998.637 995.172 998.717L992.767 1000.46C992.67 1000.53 992.597 1000.64 992.56 1000.75C992.522 1000.87 992.522 1001 992.558 1001.11C992.594 1001.23 992.665 1001.33 992.762 1001.41C992.859 1001.49 992.976 1001.53 993.099 1001.54H996.084C996.217 1001.53 996.348 1001.58 996.456 1001.65C996.565 1001.73 996.645 1001.84 996.685 1001.97L997.618 1004.81C997.658 1004.93 997.734 1005.03 997.836 1005.11C997.939 1005.18 998.062 1005.22 998.188 1005.22C998.314 1005.22 998.436 1005.18 998.539 1005.11C998.641 1005.03 998.718 1004.93 998.758 1004.81Z" fill="#FFD788"/>
<path d="M1363.18 922.773L1364.09 919.955C1364.13 919.825 1364.21 919.711 1364.32 919.629C1364.43 919.547 1364.56 919.501 1364.7 919.499H1367.66C1367.78 919.496 1367.9 919.454 1368 919.38C1368.1 919.306 1368.18 919.203 1368.22 919.084C1368.26 918.966 1368.26 918.839 1368.22 918.72C1368.18 918.601 1368.11 918.497 1368.01 918.421L1365.61 916.68C1365.5 916.6 1365.42 916.49 1365.38 916.364C1365.34 916.237 1365.34 916.102 1365.38 915.975L1366.29 913.156C1366.34 913.036 1366.35 912.902 1366.31 912.777C1366.28 912.652 1366.2 912.543 1366.1 912.466C1365.99 912.39 1365.86 912.351 1365.73 912.356C1365.6 912.361 1365.48 912.409 1365.38 912.493L1362.98 914.234C1362.87 914.315 1362.74 914.358 1362.6 914.358C1362.47 914.358 1362.34 914.315 1362.23 914.234L1359.82 912.493C1359.73 912.409 1359.6 912.361 1359.47 912.356C1359.34 912.351 1359.21 912.39 1359.11 912.466C1359 912.543 1358.93 912.652 1358.89 912.777C1358.86 912.902 1358.86 913.036 1358.91 913.156L1359.82 915.975C1359.87 916.101 1359.87 916.238 1359.83 916.365C1359.79 916.492 1359.71 916.602 1359.6 916.68L1357.19 918.421C1357.09 918.497 1357.02 918.601 1356.98 918.72C1356.95 918.839 1356.95 918.966 1356.99 919.084C1357.03 919.203 1357.1 919.306 1357.2 919.38C1357.3 919.454 1357.42 919.496 1357.54 919.499H1360.53C1360.66 919.501 1360.8 919.547 1360.9 919.629C1361.01 919.711 1361.09 919.825 1361.13 919.955L1362.04 922.773C1362.08 922.893 1362.16 922.997 1362.26 923.071C1362.36 923.144 1362.49 923.184 1362.61 923.184C1362.74 923.184 1362.86 923.144 1362.96 923.071C1363.07 922.997 1363.14 922.893 1363.18 922.773Z" fill="#FFD788"/>
<path d="M88.7621 451.005L90.0058 447.17C90.0654 446.997 90.177 446.846 90.3254 446.739C90.4737 446.631 90.6516 446.572 90.8348 446.569H94.8559C95.0238 446.567 95.1866 446.511 95.3218 446.412C95.457 446.312 95.5578 446.173 95.6102 446.013C95.6626 445.854 95.6641 445.682 95.6143 445.522C95.5646 445.361 95.4661 445.22 95.3326 445.118L92.0785 442.735C91.9269 442.634 91.8137 442.485 91.7573 442.312C91.7008 442.139 91.7045 441.952 91.7675 441.781L93.0112 437.947C93.0666 437.784 93.0686 437.608 93.0169 437.444C92.9653 437.28 92.8626 437.136 92.7239 437.035C92.5852 436.933 92.4177 436.878 92.2457 436.878C92.0737 436.878 91.9062 436.933 91.7675 437.035L88.4927 439.398C88.3506 439.509 88.1755 439.569 87.9952 439.569C87.815 439.569 87.6399 439.509 87.4978 439.398L84.2229 437.035C84.0843 436.933 83.9168 436.878 83.7448 436.878C83.5728 436.878 83.4052 436.933 83.2665 437.035C83.1278 437.136 83.0252 437.28 82.9735 437.444C82.9219 437.608 82.9239 437.784 82.9793 437.947L84.2229 441.781C84.286 441.952 84.2896 442.139 84.2332 442.312C84.1768 442.485 84.0636 442.634 83.912 442.735L80.6578 445.118C80.5243 445.22 80.4259 445.361 80.3761 445.522C80.3264 445.682 80.3278 445.854 80.3802 446.013C80.4326 446.173 80.5334 446.312 80.6686 446.412C80.8038 446.511 80.9667 446.567 81.1346 446.569H85.1556C85.3388 446.572 85.5168 446.631 85.6651 446.739C85.8135 446.846 85.9251 446.997 85.9847 447.17L87.2283 451.005C87.282 451.166 87.3849 451.306 87.5225 451.405C87.6602 451.504 87.8256 451.558 87.9952 451.558C88.1649 451.558 88.3303 451.504 88.4679 451.405C88.6055 451.306 88.7085 451.166 88.7621 451.005Z" fill="#FFD788"/>
<path d="M135.567 58.7041C135.735 58.7013 135.898 58.6462 136.033 58.5466C136.168 58.447 136.269 58.3077 136.321 58.1482C136.374 57.9887 136.375 57.8168 136.325 57.6564C136.276 57.496 136.177 57.3551 136.044 57.2532L132.789 54.8696C132.638 54.7689 132.525 54.62 132.468 54.4469C132.412 54.2739 132.415 54.0869 132.478 53.9162L133.722 50.0816C133.778 49.9188 133.78 49.7426 133.728 49.5785C133.676 49.4145 133.574 49.2711 133.435 49.1694C133.296 49.0677 133.129 49.0129 132.957 49.0129C132.785 49.013 132.617 49.0679 132.478 49.1697L129.204 51.5325C129.062 51.6435 128.886 51.7037 128.706 51.7037C128.526 51.7037 128.351 51.6435 128.209 51.5325L124.934 49.1697C124.795 49.0679 124.628 49.013 124.456 49.0129C124.284 49.0129 124.116 49.0677 123.977 49.1694C123.839 49.2711 123.736 49.4145 123.684 49.5785C123.633 49.7426 123.635 49.9188 123.69 50.0816L124.934 53.9162C124.997 54.0869 125.001 54.2739 124.944 54.4469C124.888 54.62 124.775 54.7689 124.623 54.8696L121.369 57.2532C121.235 57.3551 121.137 57.496 121.087 57.6564C121.037 57.8168 121.039 57.9887 121.091 58.1482C121.144 58.3077 121.244 58.447 121.38 58.5466C121.515 58.6462 121.678 58.7013 121.846 58.7041H125.867C126.05 58.7069 126.228 58.7661 126.376 58.8737C126.524 58.9813 126.636 59.1319 126.696 59.3052L127.939 63.1397C127.993 63.3007 128.096 63.4407 128.233 63.5399C128.371 63.6391 128.537 63.6925 128.706 63.6925C128.876 63.6925 129.041 63.6391 129.179 63.5399C129.316 63.4407 129.419 63.3007 129.473 63.1397L130.717 59.3052" fill="#FFD788"/>
<path d="M942.885 707.523L943.797 704.683C943.84 704.558 943.921 704.448 944.029 704.37C944.136 704.292 944.266 704.25 944.398 704.248H947.383C947.508 704.245 947.628 704.204 947.728 704.13C947.828 704.056 947.902 703.952 947.941 703.834C947.98 703.716 947.981 703.588 947.944 703.47C947.907 703.351 947.834 703.246 947.736 703.17L945.331 701.409C945.217 701.336 945.132 701.226 945.09 701.097C945.049 700.969 945.053 700.829 945.103 700.704L946.015 697.864C946.049 697.746 946.045 697.62 946.005 697.504C945.964 697.388 945.89 697.287 945.79 697.215C945.691 697.143 945.572 697.103 945.449 697.1C945.326 697.098 945.205 697.133 945.103 697.201L942.678 698.963C942.567 699.035 942.438 699.073 942.305 699.073C942.173 699.073 942.043 699.035 941.932 698.963L939.528 697.201C939.425 697.133 939.305 697.098 939.182 697.1C939.059 697.103 938.94 697.143 938.841 697.215C938.741 697.287 938.666 697.388 938.626 697.504C938.586 697.62 938.582 697.746 938.616 697.864L939.528 700.704C939.574 700.83 939.576 700.968 939.535 701.095C939.494 701.223 939.411 701.333 939.3 701.409L936.895 703.17C936.797 703.246 936.724 703.351 936.687 703.47C936.65 703.588 936.651 703.716 936.69 703.834C936.729 703.952 936.803 704.056 936.903 704.13C937.003 704.204 937.123 704.245 937.248 704.248H940.212C940.345 704.246 940.476 704.288 940.584 704.366C940.693 704.445 940.773 704.556 940.813 704.683L941.745 707.523C941.786 707.643 941.862 707.746 941.964 707.82C942.067 707.894 942.189 707.933 942.315 707.933C942.441 707.933 942.564 707.894 942.667 707.82C942.769 707.746 942.845 707.643 942.885 707.523Z" fill="#FFD788"/>
<path d="M855.787 570.144L858.689 568.465C858.81 568.381 858.955 568.335 859.103 568.335C859.251 568.335 859.396 568.381 859.518 568.465L862.005 570.704C862.108 570.799 862.239 570.858 862.378 570.874C862.518 570.89 862.658 570.862 862.78 570.793C862.903 570.724 862.999 570.618 863.058 570.49C863.116 570.362 863.132 570.219 863.103 570.082L862.419 566.807C862.386 566.661 862.4 566.507 862.459 566.369C862.519 566.231 862.621 566.116 862.751 566.04L865.653 564.361C865.779 564.293 865.879 564.185 865.938 564.055C865.998 563.925 866.013 563.779 865.983 563.639C865.953 563.499 865.878 563.372 865.77 563.278C865.662 563.185 865.526 563.128 865.383 563.118L862.067 562.765C861.915 562.752 861.77 562.69 861.655 562.59C861.54 562.489 861.459 562.355 861.425 562.206L860.741 558.931C860.713 558.791 860.641 558.663 860.536 558.568C860.43 558.472 860.296 558.412 860.155 558.398C860.013 558.384 859.87 558.417 859.748 558.49C859.626 558.564 859.53 558.675 859.476 558.806L858.108 561.853C858.05 561.993 857.947 562.109 857.816 562.184C857.685 562.259 857.532 562.289 857.383 562.268L854.046 561.936C853.906 561.923 853.766 561.955 853.645 562.026C853.524 562.098 853.429 562.206 853.374 562.335C853.319 562.464 853.306 562.608 853.337 562.745C853.368 562.881 853.442 563.005 853.548 563.097L856.015 565.335C856.13 565.431 856.211 565.562 856.245 565.708C856.278 565.854 856.263 566.007 856.201 566.144L854.833 569.211C854.752 569.344 854.718 569.499 854.737 569.653C854.756 569.807 854.827 569.95 854.938 570.058C855.049 570.167 855.193 570.234 855.347 570.25C855.502 570.265 855.656 570.228 855.787 570.144Z" fill="#FFD788"/>
<path d="M574.333 1245.29L577.235 1243.61C577.367 1243.54 577.517 1243.51 577.665 1243.53C577.814 1243.55 577.953 1243.61 578.064 1243.71L580.551 1245.93C580.654 1246.02 580.785 1246.08 580.924 1246.1C581.064 1246.12 581.204 1246.09 581.326 1246.02C581.449 1245.95 581.546 1245.84 581.604 1245.72C581.662 1245.59 581.678 1245.44 581.649 1245.31L580.965 1242.03C580.932 1241.89 580.946 1241.73 581.005 1241.59C581.065 1241.46 581.167 1241.34 581.297 1241.27L584.199 1239.59C584.325 1239.52 584.425 1239.41 584.484 1239.28C584.544 1239.15 584.56 1239 584.529 1238.86C584.499 1238.72 584.424 1238.6 584.316 1238.5C584.208 1238.41 584.072 1238.35 583.929 1238.34L580.613 1237.99C580.462 1237.98 580.319 1237.92 580.207 1237.82C580.094 1237.72 580.018 1237.58 579.991 1237.43L579.287 1234.16C579.259 1234.02 579.187 1233.89 579.082 1233.79C578.976 1233.7 578.842 1233.64 578.701 1233.62C578.559 1233.61 578.416 1233.64 578.294 1233.72C578.172 1233.79 578.076 1233.9 578.022 1234.03L576.654 1237.08C576.594 1237.22 576.492 1237.33 576.362 1237.41C576.231 1237.49 576.08 1237.53 575.929 1237.51L572.612 1237.16C572.471 1237.14 572.327 1237.17 572.202 1237.24C572.078 1237.31 571.979 1237.42 571.921 1237.55C571.863 1237.68 571.848 1237.83 571.879 1237.96C571.911 1238.1 571.986 1238.23 572.094 1238.32L574.581 1240.56C574.692 1240.66 574.768 1240.8 574.798 1240.95C574.827 1241.1 574.81 1241.25 574.747 1241.39L573.4 1244.44C573.342 1244.56 573.326 1244.71 573.355 1244.84C573.383 1244.98 573.454 1245.11 573.558 1245.2C573.661 1245.3 573.792 1245.35 573.931 1245.37C574.07 1245.39 574.211 1245.36 574.333 1245.29Z" fill="#FFD788"/>
<path d="M1398.32 1037.35L1401.22 1035.67C1401.34 1035.59 1401.49 1035.54 1401.64 1035.54C1401.79 1035.54 1401.93 1035.59 1402.05 1035.67L1404.54 1037.91C1404.64 1038.01 1404.78 1038.07 1404.92 1038.09C1405.06 1038.1 1405.21 1038.07 1405.33 1038C1405.45 1037.93 1405.55 1037.82 1405.61 1037.69C1405.66 1037.56 1405.67 1037.41 1405.64 1037.27L1404.95 1033.99C1404.92 1033.85 1404.93 1033.69 1404.99 1033.56C1405.05 1033.42 1405.16 1033.3 1405.29 1033.23L1408.19 1031.55C1408.31 1031.48 1408.41 1031.37 1408.47 1031.24C1408.53 1031.11 1408.55 1030.97 1408.52 1030.83C1408.49 1030.69 1408.41 1030.56 1408.3 1030.47C1408.2 1030.37 1408.06 1030.32 1407.92 1030.31L1404.6 1029.95C1404.45 1029.94 1404.3 1029.88 1404.19 1029.78C1404.07 1029.68 1403.99 1029.54 1403.96 1029.39L1403.27 1026.12C1403.25 1025.98 1403.18 1025.85 1403.07 1025.76C1402.96 1025.66 1402.83 1025.6 1402.69 1025.59C1402.55 1025.57 1402.4 1025.6 1402.28 1025.68C1402.16 1025.75 1402.06 1025.86 1402.01 1025.99L1400.64 1029.04C1400.58 1029.18 1400.48 1029.3 1400.35 1029.38C1400.22 1029.45 1400.07 1029.49 1399.92 1029.48L1396.6 1029.12C1396.46 1029.11 1396.32 1029.13 1396.19 1029.2C1396.07 1029.27 1395.97 1029.38 1395.91 1029.51C1395.85 1029.64 1395.84 1029.79 1395.87 1029.93C1395.9 1030.07 1395.97 1030.19 1396.08 1030.28L1398.57 1032.52C1398.68 1032.63 1398.76 1032.76 1398.79 1032.91C1398.82 1033.06 1398.8 1033.21 1398.74 1033.35L1397.45 1036.5C1397.4 1036.62 1397.39 1036.76 1397.42 1036.88C1397.45 1037.01 1397.51 1037.12 1397.61 1037.21C1397.7 1037.3 1397.82 1037.36 1397.94 1037.39C1398.07 1037.41 1398.2 1037.4 1398.32 1037.35Z" fill="#FFD788"/>
<path d="M1290.35 1185.2L1293.25 1183.52C1293.37 1183.44 1293.52 1183.39 1293.67 1183.39C1293.81 1183.39 1293.96 1183.44 1294.08 1183.52L1296.57 1185.76C1296.67 1185.85 1296.81 1185.91 1296.95 1185.92C1297.09 1185.93 1297.23 1185.9 1297.35 1185.83C1297.48 1185.76 1297.58 1185.66 1297.64 1185.53C1297.69 1185.4 1297.71 1185.26 1297.69 1185.12L1296.98 1181.86C1296.95 1181.72 1296.96 1181.56 1297.02 1181.42C1297.08 1181.29 1297.18 1181.17 1297.31 1181.09L1300.22 1179.42C1300.34 1179.35 1300.44 1179.24 1300.5 1179.11C1300.56 1178.98 1300.58 1178.83 1300.55 1178.69C1300.52 1178.55 1300.44 1178.43 1300.33 1178.33C1300.22 1178.24 1300.09 1178.18 1299.95 1178.17L1296.63 1177.82C1296.48 1177.8 1296.34 1177.74 1296.23 1177.64C1296.12 1177.54 1296.04 1177.41 1296.01 1177.26L1295.3 1173.99C1295.28 1173.85 1295.2 1173.72 1295.1 1173.62C1294.99 1173.53 1294.86 1173.47 1294.72 1173.45C1294.58 1173.44 1294.43 1173.47 1294.31 1173.54C1294.19 1173.62 1294.09 1173.73 1294.04 1173.86L1292.67 1176.91C1292.61 1177.05 1292.51 1177.16 1292.38 1177.24C1292.25 1177.31 1292.1 1177.34 1291.95 1177.32L1288.63 1176.97C1288.49 1176.96 1288.35 1176.99 1288.23 1177.07C1288.1 1177.14 1288.01 1177.25 1287.95 1177.38C1287.9 1177.51 1287.88 1177.65 1287.91 1177.79C1287.94 1177.93 1288.01 1178.05 1288.11 1178.15L1290.6 1180.39C1290.71 1180.49 1290.78 1180.62 1290.81 1180.77C1290.84 1180.91 1290.82 1181.06 1290.76 1181.2L1289.42 1184.27C1289.31 1184.39 1289.26 1184.55 1289.27 1184.72C1289.28 1184.88 1289.35 1185.04 1289.46 1185.15C1289.58 1185.27 1289.73 1185.34 1289.9 1185.35C1290.06 1185.35 1290.22 1185.3 1290.35 1185.2Z" fill="#FFD788"/>
<path d="M522.163 88.9862L524.401 87.7012C524.495 87.6352 524.607 87.5998 524.722 87.5998C524.837 87.5998 524.95 87.6352 525.044 87.7012L526.971 89.4422C527.053 89.5146 527.156 89.5592 527.264 89.5698C527.373 89.5804 527.482 89.5564 527.576 89.5013C527.671 89.4461 527.745 89.3626 527.789 89.2627C527.833 89.1628 527.844 89.0515 527.821 88.9448L527.282 86.4161C527.258 86.3003 527.271 86.1797 527.319 86.0717C527.368 85.9637 527.449 85.8738 527.552 85.815L529.79 84.5299C529.889 84.477 529.969 84.3933 530.016 84.2914C530.064 84.1894 530.077 84.0748 530.053 83.9648C530.03 83.8548 529.971 83.7554 529.887 83.6816C529.802 83.6079 529.695 83.5637 529.583 83.5558L527.013 83.2863C526.894 83.276 526.782 83.2282 526.693 83.15C526.604 83.0717 526.541 82.967 526.515 82.851L525.976 80.3223C525.94 80.2223 525.874 80.1359 525.787 80.0748C525.7 80.0137 525.596 79.981 525.489 79.981C525.383 79.981 525.279 80.0137 525.192 80.0748C525.105 80.1359 525.039 80.2223 525.002 80.3223L523.945 82.6852C523.904 82.7961 523.826 82.8895 523.724 82.9498C523.622 83.0101 523.503 83.0338 523.386 83.0169L520.815 82.7474C520.709 82.7401 520.603 82.7657 520.512 82.8207C520.421 82.8758 520.349 82.9576 520.306 83.0549C520.263 83.1523 520.251 83.2606 520.272 83.3651C520.292 83.4695 520.345 83.565 520.422 83.6387L522.328 85.3797C522.42 85.4557 522.484 85.56 522.511 85.6763C522.537 85.7925 522.524 85.9142 522.474 86.0223L521.416 88.3852C521.387 88.4836 521.388 88.5885 521.419 88.6864C521.449 88.7844 521.508 88.8711 521.588 88.9355C521.668 88.9999 521.766 89.0391 521.868 89.0481C521.97 89.0571 522.073 89.0356 522.163 88.9862Z" fill="#FFD788"/>
<path d="M1023.47 68.7773L1021.92 65.3574C1021.85 65.2053 1021.83 65.0349 1021.86 64.8709C1021.89 64.7069 1021.98 64.5579 1022.1 64.4454L1024.9 61.9167C1025.03 61.8113 1025.11 61.6681 1025.15 61.509C1025.18 61.3499 1025.17 61.1836 1025.1 61.0356C1025.03 60.8876 1024.91 60.7659 1024.77 60.6892C1024.63 60.6125 1024.46 60.585 1024.3 60.6109L1020.57 61.0254C1020.4 61.04 1020.23 61.0018 1020.09 60.9164C1019.94 60.8309 1019.83 60.7024 1019.76 60.5487L1018.14 57.1287C1018.08 56.9856 1017.97 56.8671 1017.83 56.79C1017.69 56.713 1017.54 56.6814 1017.38 56.6998C1017.22 56.7182 1017.08 56.7857 1016.96 56.8925C1016.85 56.9994 1016.77 57.1401 1016.74 57.2946L1016.07 60.9632C1016.04 61.1289 1015.95 61.2788 1015.82 61.3908C1015.7 61.5028 1015.54 61.5709 1015.37 61.5851L1011.64 61.9996C1011.48 62.0231 1011.34 62.0935 1011.22 62.2015C1011.11 62.3094 1011.03 62.4496 1011 62.6032C1010.97 62.7568 1010.98 62.9164 1011.05 63.0605C1011.11 63.2046 1011.21 63.3262 1011.35 63.409L1014.6 65.2745C1014.75 65.3553 1014.87 65.4815 1014.94 65.6345C1015.01 65.7875 1015.03 65.9591 1014.99 66.1243L1014.23 69.793C1014.2 69.9475 1014.22 70.1068 1014.29 70.2493C1014.35 70.3918 1014.46 70.5106 1014.6 70.5897C1014.73 70.6688 1014.89 70.7044 1015.04 70.6917C1015.2 70.6789 1015.35 70.6184 1015.47 70.5184L1018.14 67.9897C1018.28 67.8962 1018.44 67.8461 1018.61 67.8461C1018.78 67.8461 1018.94 67.8962 1019.08 67.9897L1022.33 69.8551C1022.47 70.0063 1022.67 70.0945 1022.88 70.1004C1023.09 70.1062 1023.29 70.0292 1023.44 69.8862C1023.59 69.7433 1023.68 69.5462 1023.69 69.3382C1023.69 69.1303 1023.61 68.9285 1023.47 68.7773Z" fill="#FFD788"/>
<path d="M1393.13 331.493L1394.07 328.653C1394.11 328.527 1394.19 328.418 1394.3 328.34C1394.41 328.262 1394.54 328.219 1394.67 328.218H1397.63C1397.76 328.215 1397.88 328.174 1397.98 328.1C1398.08 328.025 1398.15 327.922 1398.19 327.804C1398.23 327.685 1398.23 327.558 1398.19 327.439C1398.16 327.32 1398.08 327.216 1397.98 327.14L1395.58 325.399C1395.47 325.322 1395.39 325.211 1395.35 325.084C1395.31 324.957 1395.31 324.821 1395.35 324.694L1396.26 321.855C1396.3 321.736 1396.29 321.611 1396.25 321.495C1396.21 321.379 1396.14 321.278 1396.04 321.205C1395.94 321.133 1395.82 321.093 1395.7 321.091C1395.57 321.088 1395.45 321.123 1395.35 321.191L1392.95 322.933C1392.84 323.013 1392.71 323.057 1392.57 323.057C1392.44 323.057 1392.31 323.013 1392.2 322.933L1389.8 321.191C1389.69 321.123 1389.57 321.088 1389.45 321.091C1389.33 321.093 1389.21 321.133 1389.11 321.205C1389.01 321.278 1388.94 321.379 1388.9 321.495C1388.86 321.611 1388.85 321.736 1388.89 321.855L1389.8 324.694C1389.84 324.821 1389.84 324.957 1389.8 325.084C1389.76 325.211 1389.68 325.322 1389.57 325.399L1387.16 327.14C1387.07 327.216 1386.99 327.32 1386.96 327.439C1386.92 327.558 1386.92 327.685 1386.96 327.804C1387 327.922 1387.07 328.025 1387.17 328.1C1387.27 328.174 1387.39 328.215 1387.52 328.218H1390.48C1390.61 328.216 1390.75 328.258 1390.85 328.336C1390.96 328.414 1391.04 328.526 1391.08 328.653L1392.01 331.493C1392.05 331.615 1392.12 331.724 1392.22 331.801C1392.32 331.878 1392.45 331.919 1392.57 331.919C1392.7 331.919 1392.83 331.878 1392.93 331.801C1393.03 331.724 1393.1 331.615 1393.13 331.493Z" fill="#FFD788"/>
<path d="M1042.58 214.737L1043.62 211.545C1043.66 211.401 1043.75 211.276 1043.88 211.187C1044 211.097 1044.15 211.049 1044.3 211.048H1047.66C1047.8 211.042 1047.93 210.994 1048.04 210.909C1048.16 210.825 1048.24 210.708 1048.28 210.574C1048.32 210.441 1048.33 210.297 1048.28 210.163C1048.24 210.029 1048.16 209.911 1048.05 209.825L1045.34 207.856C1045.21 207.765 1045.12 207.638 1045.07 207.494C1045.03 207.349 1045.02 207.194 1045.07 207.048L1046.1 203.856C1046.15 203.72 1046.16 203.571 1046.11 203.433C1046.07 203.295 1045.98 203.174 1045.87 203.09C1045.75 203.005 1045.61 202.962 1045.46 202.965C1045.32 202.969 1045.18 203.019 1045.07 203.109L1042.35 205.182C1042.23 205.273 1042.09 205.322 1041.94 205.322C1041.79 205.322 1041.64 205.273 1041.52 205.182L1038.81 203.109C1038.69 203.019 1038.55 202.969 1038.41 202.965C1038.27 202.962 1038.12 203.005 1038.01 203.09C1037.89 203.174 1037.8 203.295 1037.76 203.433C1037.72 203.571 1037.72 203.72 1037.77 203.856L1038.81 207.048C1038.85 207.194 1038.85 207.349 1038.8 207.494C1038.75 207.638 1038.66 207.765 1038.54 207.856L1035.82 209.825C1035.71 209.911 1035.63 210.029 1035.59 210.163C1035.55 210.297 1035.55 210.441 1035.59 210.574C1035.63 210.708 1035.72 210.825 1035.83 210.909C1035.94 210.994 1036.08 211.042 1036.22 211.048H1039.57C1039.73 211.049 1039.87 211.097 1040 211.187C1040.12 211.276 1040.21 211.401 1040.26 211.545L1041.29 214.737C1041.34 214.869 1041.43 214.983 1041.54 215.063C1041.66 215.144 1041.8 215.187 1041.94 215.187C1042.08 215.187 1042.21 215.144 1042.33 215.063C1042.44 214.983 1042.53 214.869 1042.58 214.737Z" fill="#FFD788"/>
<path d="M419.901 862.395L418.346 858.976C418.277 858.818 418.26 858.643 418.297 858.475C418.334 858.308 418.424 858.156 418.553 858.043L421.331 855.535C421.455 855.429 421.541 855.286 421.577 855.127C421.612 854.968 421.594 854.802 421.526 854.654C421.458 854.506 421.343 854.384 421.199 854.307C421.056 854.231 420.891 854.203 420.73 854.229L416.999 854.623C416.833 854.642 416.666 854.609 416.52 854.527C416.375 854.445 416.26 854.319 416.19 854.167L414.636 850.747C414.572 850.604 414.464 850.484 414.328 850.406C414.192 850.328 414.035 850.294 413.879 850.31C413.723 850.326 413.576 850.391 413.459 850.496C413.341 850.6 413.26 850.739 413.227 850.892L412.46 854.581C412.425 854.747 412.337 854.897 412.21 855.009C412.083 855.121 411.924 855.189 411.755 855.203L408.024 855.618C407.868 855.635 407.721 855.701 407.604 855.807C407.487 855.913 407.407 856.053 407.375 856.207C407.343 856.361 407.36 856.521 407.425 856.665C407.489 856.808 407.597 856.928 407.734 857.006L410.988 858.872C411.14 858.954 411.261 859.083 411.332 859.241C411.403 859.398 411.421 859.574 411.382 859.742L410.615 863.411C410.579 863.568 410.595 863.731 410.66 863.878C410.725 864.025 410.835 864.147 410.975 864.226C411.114 864.305 411.276 864.337 411.435 864.317C411.594 864.298 411.743 864.227 411.859 864.116L414.636 861.587C414.763 861.478 414.92 861.409 415.086 861.391C415.253 861.372 415.421 861.405 415.569 861.484L418.844 863.349C418.98 863.429 419.139 863.464 419.297 863.448C419.455 863.432 419.604 863.366 419.722 863.26C419.84 863.154 419.921 863.012 419.953 862.857C419.985 862.702 419.967 862.54 419.901 862.395Z" fill="#FFD788"/>
<path d="M619.288 710.943L621.982 709.368C622.094 709.288 622.228 709.246 622.365 709.246C622.503 709.246 622.637 709.288 622.749 709.368L625.07 711.44C625.168 711.535 625.293 711.596 625.428 711.613C625.563 711.629 625.699 711.602 625.817 711.533C625.934 711.465 626.026 711.36 626.079 711.235C626.131 711.11 626.141 710.971 626.107 710.839L625.464 707.792C625.436 707.657 625.451 707.517 625.507 707.39C625.563 707.264 625.656 707.158 625.775 707.088L628.47 705.512C628.585 705.447 628.677 705.347 628.731 705.226C628.785 705.105 628.8 704.97 628.772 704.841C628.744 704.711 628.676 704.594 628.577 704.506C628.477 704.418 628.353 704.364 628.221 704.352L625.133 704.041C624.991 704.025 624.858 703.965 624.753 703.868C624.649 703.77 624.578 703.642 624.552 703.502L623.889 700.455C623.863 700.325 623.796 700.206 623.698 700.117C623.6 700.027 623.476 699.971 623.344 699.957C623.212 699.943 623.079 699.972 622.964 700.039C622.85 700.107 622.76 700.209 622.707 700.331L621.443 703.191C621.384 703.319 621.286 703.426 621.164 703.497C621.041 703.567 620.9 703.598 620.759 703.585L617.671 703.253C617.541 703.241 617.411 703.27 617.299 703.336C617.187 703.402 617.098 703.502 617.045 703.621C616.993 703.74 616.979 703.872 617.005 704C617.032 704.127 617.098 704.243 617.194 704.331L619.495 706.404C619.603 706.495 619.678 706.62 619.708 706.759C619.738 706.898 619.722 707.042 619.661 707.171L618.396 710.01C618.335 710.069 618.286 710.139 618.252 710.216C618.217 710.294 618.199 710.377 618.197 710.462C618.195 710.547 618.21 710.631 618.24 710.71C618.271 710.789 618.317 710.861 618.376 710.922C618.434 710.983 618.504 711.033 618.582 711.067C618.659 711.101 618.743 711.119 618.827 711.121C618.912 711.123 618.996 711.109 619.075 711.078C619.154 711.047 619.226 711.001 619.288 710.943Z" fill="#FFD788"/>
<defs>
<linearGradient id="paint0_linear_3419_691" x1="720" y1="1594" x2="720" y2="-645.5" gradientUnits="userSpaceOnUse">
<stop stop-color="#332863"/>
<stop offset="0.779477" stop-color="#3A588F"/>
</linearGradient>
</defs>
</svg>
