<svg width="1440" height="980" viewBox="0 0 1440 980" fill="none" xmlns="http://www.w3.org/2000/svg">
<path d="M1597 952.123C1392.29 891.369 1216.03 878.08 1099.62 912.928C958.873 955.153 853.683 987.12 716.429 978.625C568.646 969.46 509.518 874.926 365.468 902.446C290.189 916.828 282.747 947.155 199.571 965.362C89.2368 989.529 -10.33 960.866 -78 932.252V56.805C71.7689 -26.3533 275.497 0.943895 371.857 33.1094C413.086 46.8697 433.856 57.5749 480.325 66.2186C629.185 93.9629 705.254 38.1763 840.857 26.4775C973.948 15.0022 991.416 60.928 1143.96 76.1539C1249.92 86.7598 1402.89 80.6993 1597 0V952.123Z" fill="#8AC48A"/>
</svg>
