<svg viewBox="0 0 1440 1640" fill="none" xmlns="http://www.w3.org/2000/svg">
<mask id="mask0_3120_7872" style="mask-type:alpha" maskUnits="userSpaceOnUse" x="0" y="0" width="1440" height="1640">
<rect width="1440" height="1640" fill="white"/>
</mask>
<g mask="url(#mask0_3120_7872)">
<mask id="mask1_3120_7872" style="mask-type:luminance" maskUnits="userSpaceOnUse" x="-3" y="628" width="1476" height="1009">
<path d="M-3 628V1541.15H-2.6206V1620.93C54.2893 1594.06 132.108 1549.13 228.159 1564.56C327.709 1580.51 338.965 1608.82 417.543 1614.25C556.909 1623.87 578.872 1538.71 708.415 1544.66C830.055 1550.25 843.566 1626.9 965.564 1624C1058.83 1621.78 1079.38 1576.29 1173.52 1561.36C1238.54 1551.05 1337.92 1555.45 1472.82 1636.52V628H-3Z" fill="white"/>
</mask>
<g mask="url(#mask1_3120_7872)">
<path d="M1608.71 632H-172V2000.29H1608.71V632Z" fill="url(#paint0_linear_3120_7872)" stroke="#221F1F" stroke-width="0.55" stroke-miterlimit="10"/>
<g opacity="0.63">
<path fill-rule="evenodd" clip-rule="evenodd" d="M-375.895 1285.35C-397.913 1292.3 -417.054 1306.15 -430.436 1324.82C-454.559 1321.69 -479.032 1326.89 -499.738 1339.54C-520.444 1352.19 -536.12 1371.52 -544.129 1394.28C-553.378 1420.52 -551.723 1449.33 -539.529 1474.36C-527.334 1499.4 -505.599 1518.61 -479.104 1527.77C-461.647 1533.82 -442.893 1535.22 -424.715 1531.85C-406.537 1528.48 -389.57 1520.44 -375.507 1508.54C-365.065 1519.48 -352.117 1527.78 -337.757 1532.72C-318.999 1539.23 -298.646 1539.74 -279.583 1534.16C-268.193 1550.27 -251.968 1562.42 -233.212 1568.88C-218.882 1573.86 -203.557 1575.36 -188.52 1573.26C-173.484 1571.16 -159.174 1565.52 -146.793 1556.81C-143.487 1572 -136.814 1586.26 -127.258 1598.58C-117.702 1610.9 -105.501 1620.96 -91.5382 1628.04C-77.5753 1635.11 -62.1993 1639.02 -46.5225 1639.49C-30.8457 1639.96 -15.26 1636.97 -0.892944 1630.74C-1.91614 1655.82 6.18274 1680.44 21.9313 1700.11C37.6797 1719.78 60.032 1733.2 84.9234 1737.92C109.815 1742.65 135.593 1738.37 157.569 1725.87C169.018 1719.35 179.04 1710.83 187.204 1700.81C199.099 1708.71 212.659 1713.85 226.876 1715.82C242.559 1718.01 258.543 1716.27 273.378 1710.78C288.212 1705.29 301.425 1696.21 311.817 1684.37C324.203 1693.97 339.019 1699.99 354.637 1701.78C370.255 1703.58 386.07 1701.07 400.343 1694.54C408.1 1702.6 417.386 1709.06 427.668 1713.56C437.951 1718.05 449.028 1720.5 460.266 1720.75C471.503 1720.99 482.68 1719.04 493.155 1715C499.16 1712.69 504.867 1709.71 510.172 1706.14C511.412 1711.15 513.07 1716.07 515.142 1720.86C522.613 1738.1 535.117 1752.74 551.048 1762.89C551.343 1765.3 551.723 1767.7 552.207 1770.12C556.638 1792.28 568.966 1812.12 586.942 1826.03C604.919 1839.93 627.344 1846.97 650.124 1845.86C672.904 1844.74 694.52 1835.55 711.025 1819.96C711.655 1819.36 712.275 1818.76 712.885 1818.15C724.782 1824.03 737.886 1827.42 751.376 1827.98C774.175 1828.92 796.554 1821.7 814.425 1807.65C831.186 1794.47 842.932 1776.1 847.827 1755.54C850.847 1753.25 853.733 1750.77 856.466 1748.12C866.118 1738.75 873.639 1727.47 878.534 1715.01C878.819 1714.55 879.1 1714.09 879.377 1713.63C887.5 1721.17 897.032 1727.06 907.438 1730.98C917.944 1734.93 929.134 1736.8 940.368 1736.47C951.602 1736.13 962.659 1733.61 972.907 1729.04C983.154 1724.46 992.391 1717.94 1000.09 1709.82C1002.56 1710.93 1005.07 1711.92 1007.62 1712.79C1001.67 1720.22 996.724 1728.44 992.962 1737.27C984.747 1756.55 982.536 1777.82 986.614 1798.35C990.692 1818.88 1000.87 1837.74 1015.85 1852.5C1030.82 1867.26 1049.91 1877.25 1070.66 1881.19C1071.96 1883.55 1073.38 1885.86 1074.87 1888.16C1088.77 1909.26 1109.86 1924.71 1134.29 1931.69C1158.73 1938.67 1184.89 1936.71 1207.99 1926.17C1231.09 1915.62 1249.59 1897.21 1260.12 1874.27C1270.65 1851.34 1272.5 1825.42 1265.33 1801.25C1280.8 1803.9 1296.68 1803.11 1311.8 1798.93C1326.93 1794.76 1340.93 1787.31 1352.8 1777.12C1364.66 1766.93 1374.09 1754.25 1380.4 1740.01C1386.71 1725.77 1389.75 1710.32 1389.29 1694.77C1400.96 1699.31 1413.41 1701.52 1425.94 1701.28C1438.47 1701.04 1450.84 1698.36 1462.32 1693.38C1473.8 1688.4 1484.18 1681.23 1492.85 1672.27C1501.53 1663.31 1508.34 1652.75 1512.89 1641.18C1530.42 1641.93 1547.83 1637.88 1563.19 1629.47C1578.55 1621.05 1591.26 1608.6 1599.94 1593.49C1615.73 1601.33 1633.24 1605.14 1650.89 1604.57C1668.54 1604 1685.76 1599.07 1701 1590.23C1716.23 1581.39 1729 1568.92 1738.13 1553.95C1747.27 1538.98 1752.48 1521.99 1753.3 1504.52C1754.12 1487.05 1750.52 1469.65 1742.82 1453.91C1735.13 1438.16 1723.58 1424.57 1709.24 1414.37C1694.89 1404.18 1678.2 1397.69 1660.68 1395.5C1643.16 1393.31 1625.37 1395.5 1608.92 1401.86V1401.75C1588.99 1384.77 1563.45 1375.65 1537.17 1376.13C1510.89 1376.62 1485.71 1386.68 1466.43 1404.38C1449.53 1394.06 1429.94 1388.87 1410.09 1389.45C1390.25 1390.03 1371 1396.36 1354.75 1407.66C1338.49 1418.96 1325.93 1434.72 1318.62 1453.01C1311.31 1471.3 1309.57 1491.31 1313.62 1510.57C1308.24 1512.8 1303.08 1515.51 1298.19 1518.67C1287.29 1525.69 1277.97 1534.86 1270.79 1545.6C1250.49 1539.36 1228.66 1540.02 1208.78 1547.48C1205.76 1548.62 1202.81 1549.9 1199.95 1551.32C1187.71 1545.68 1174.38 1542.67 1160.83 1542.53V1542.51C1151.31 1524.24 1136.06 1509.53 1117.37 1500.59C1098.68 1491.65 1077.57 1488.97 1057.21 1492.94C1051.83 1494 1046.56 1495.5 1041.44 1497.43C1030.87 1483.24 1016.32 1472.42 999.611 1466.33C982.898 1460.23 964.748 1459.12 947.404 1463.13C930.06 1467.14 914.284 1476.1 902.025 1488.9C889.766 1501.7 881.562 1517.77 878.427 1535.14C873.196 1535.2 867.983 1535.74 862.851 1536.75C851.401 1538.97 840.537 1543.51 830.939 1550.09C816.15 1538.17 797.763 1531.49 778.702 1531.11C777.223 1531.08 775.747 1531.09 774.274 1531.14C766.708 1525.61 758.25 1521.33 749.229 1518.51C736.504 1514.54 723.014 1513.57 709.843 1515.69C696.672 1517.81 684.185 1522.95 673.384 1530.71C658.036 1519.51 639.346 1513.71 620.287 1514.24C601.228 1514.77 582.895 1521.6 568.206 1533.64C558.611 1527.12 547.762 1522.64 536.337 1520.46C531.195 1519.49 525.974 1518.99 520.739 1518.96C517.47 1501.62 509.141 1485.6 496.781 1472.9C484.422 1460.2 468.575 1451.36 451.2 1447.48C433.824 1443.6 415.682 1444.85 399.016 1451.08C382.35 1457.3 367.892 1468.23 357.429 1482.51C352.275 1480.62 346.964 1479.18 341.557 1478.21C321.16 1474.37 300.057 1477.21 281.429 1486.29C269.874 1491.92 259.66 1499.76 251.33 1509.29C250.166 1507.53 248.945 1505.8 247.671 1504.11C235.056 1487.37 217.677 1474.74 197.765 1467.85C193.792 1466.49 189.746 1465.36 185.645 1464.45C182.915 1449.99 176.808 1436.38 167.814 1424.68C158.82 1412.98 147.188 1403.53 133.847 1397.08C120.506 1390.64 105.828 1387.37 90.985 1387.55C76.1421 1387.72 61.5466 1391.34 48.3657 1398.1C33.3225 1383.26 13.705 1373.84 -7.36871 1371.31C-28.4423 1368.79 -49.7628 1373.32 -67.9412 1384.17C-77.4985 1375.45 -88.762 1368.77 -101.033 1364.55C-106.515 1362.65 -112.159 1361.26 -117.895 1360.37C-118.642 1340.15 -125.538 1320.62 -137.678 1304.34C-149.818 1288.07 -166.638 1275.8 -185.934 1269.16C-204.1 1262.87 -223.694 1261.84 -242.433 1266.16C-261.171 1270.49 -278.28 1280.01 -291.766 1293.6C-297.075 1290.69 -302.624 1288.24 -308.354 1286.26C-330.173 1278.71 -353.876 1278.39 -375.895 1285.35Z" fill="white"/>
</g>
<path d="M319.089 905.737L316.665 905.486C316.289 905.441 315.932 905.297 315.632 905.069L313.735 903.565C313.455 903.346 313.121 903.205 312.767 903.158C312.413 903.111 312.053 903.16 311.725 903.299C311.397 903.438 311.112 903.662 310.902 903.948C310.692 904.234 310.564 904.57 310.531 904.922L310.278 907.323C310.25 907.69 310.11 908.039 309.878 908.325L308.36 910.225C308.139 910.501 307.997 910.831 307.948 911.179C307.9 911.528 307.947 911.884 308.085 912.208C308.223 912.533 308.446 912.814 308.732 913.024C309.018 913.233 309.355 913.363 309.709 913.399L312.133 913.628C312.509 913.673 312.866 913.817 313.166 914.046L315.063 915.549C315.341 915.768 315.674 915.909 316.026 915.957C316.378 916.005 316.737 915.958 317.064 915.822C317.392 915.685 317.676 915.463 317.888 915.18C318.1 914.897 318.23 914.563 318.266 914.213L318.519 911.812C318.552 911.437 318.699 911.08 318.941 910.789L320.437 908.91C320.659 908.634 320.801 908.305 320.849 907.956C320.898 907.607 320.85 907.252 320.713 906.927C320.575 906.603 320.351 906.321 320.065 906.112C319.78 905.902 319.442 905.773 319.089 905.737Z" fill="#FFD255"/>
<path d="M75.8719 1230.99L73.5112 1231.6C73.1535 1231.7 72.7729 1231.7 72.4152 1231.6L70.0966 1230.87C69.7588 1230.76 69.3978 1230.74 69.0512 1230.82C68.7047 1230.9 68.3855 1231.06 68.1269 1231.3C67.8684 1231.55 67.68 1231.85 67.5816 1232.19C67.4831 1232.53 67.4782 1232.88 67.5673 1233.23L68.1996 1235.56C68.305 1235.92 68.305 1236.3 68.1996 1236.65L67.4619 1238.95C67.3523 1239.28 67.3356 1239.64 67.4133 1239.98C67.4911 1240.32 67.6606 1240.64 67.9041 1240.9C68.1476 1241.15 68.4561 1241.34 68.7973 1241.44C69.1385 1241.53 69.4999 1241.54 69.8437 1241.45L72.2044 1240.85C72.5677 1240.73 72.9582 1240.73 73.3215 1240.85L75.619 1241.58C75.9568 1241.69 76.3179 1241.7 76.6644 1241.62C77.0109 1241.55 77.3302 1241.38 77.5887 1241.14C77.8473 1240.9 78.0356 1240.59 78.1341 1240.25C78.2325 1239.92 78.2375 1239.56 78.1483 1239.22L77.5371 1236.88C77.4317 1236.52 77.4317 1236.15 77.5371 1235.79L78.2959 1233.5C78.3704 1233.16 78.3604 1232.81 78.2668 1232.48C78.1732 1232.15 77.9989 1231.85 77.7593 1231.6C77.5196 1231.36 77.2221 1231.17 76.8929 1231.06C76.5637 1230.96 76.213 1230.93 75.8719 1230.99Z" fill="#FFD255"/>
<path d="M1199.19 856.424L1196.76 857.05C1196.39 857.165 1195.98 857.165 1195.61 857.05L1193.22 856.278C1192.88 856.189 1192.51 856.189 1192.17 856.278C1191.82 856.367 1191.5 856.542 1191.24 856.786C1190.98 857.03 1190.79 857.336 1190.68 857.675C1190.58 858.013 1190.56 858.373 1190.63 858.72L1191.26 861.121C1191.37 861.496 1191.37 861.894 1191.26 862.269L1190.48 864.629C1190.39 864.972 1190.39 865.332 1190.48 865.676C1190.57 866.019 1190.75 866.334 1191 866.591C1191.24 866.848 1191.55 867.038 1191.89 867.144C1192.24 867.25 1192.6 867.268 1192.95 867.197L1195.37 866.57C1195.75 866.467 1196.14 866.467 1196.51 866.57L1198.91 867.343C1199.26 867.432 1199.62 867.432 1199.97 867.343C1200.32 867.254 1200.64 867.079 1200.9 866.834C1201.15 866.59 1201.35 866.284 1201.45 865.946C1201.56 865.607 1201.58 865.247 1201.51 864.9L1200.87 862.499C1200.76 862.132 1200.76 861.739 1200.87 861.372L1201.63 858.992C1201.72 858.65 1201.72 858.292 1201.63 857.951C1201.54 857.61 1201.37 857.297 1201.13 857.04C1200.88 856.784 1200.58 856.593 1200.24 856.485C1199.9 856.377 1199.54 856.356 1199.19 856.424Z" fill="#F7EA2F"/>
<path fill-rule="evenodd" clip-rule="evenodd" d="M593.499 811.328C593.2 811.463 592.948 811.682 592.774 811.958C592.601 812.235 592.514 812.556 592.524 812.881C592.535 813.206 592.642 813.521 592.833 813.786C593.023 814.051 593.289 814.254 593.596 814.37C593.903 814.486 594.238 814.509 594.558 814.437C594.878 814.365 595.17 814.201 595.396 813.965C595.622 813.729 595.773 813.432 595.829 813.111C595.885 812.791 595.845 812.461 595.712 812.163C595.623 811.963 595.495 811.783 595.335 811.633C595.175 811.483 594.987 811.365 594.781 811.288C594.576 811.21 594.356 811.174 594.136 811.181C593.916 811.187 593.699 811.237 593.499 811.328Z" fill="white"/>
<path style="mix-blend-mode:screen" opacity="0.61" fill-rule="evenodd" clip-rule="evenodd" d="M591.391 806.776C590.183 807.316 589.164 808.198 588.462 809.311C587.76 810.424 587.406 811.718 587.446 813.029C587.486 814.341 587.918 815.611 588.687 816.68C589.455 817.749 590.526 818.568 591.765 819.035C593.003 819.501 594.353 819.593 595.645 819.3C596.936 819.006 598.111 818.34 599.02 817.386C599.93 816.432 600.533 815.232 600.755 813.938C600.976 812.644 600.805 811.315 600.264 810.117C599.906 809.318 599.392 808.597 598.751 807.996C598.11 807.394 597.355 806.925 596.53 806.614C595.705 806.304 594.826 806.158 593.944 806.186C593.062 806.214 592.194 806.414 591.391 806.776Z" fill="url(#paint1_radial_3120_7872)"/>
<path style="mix-blend-mode:screen" opacity="0.61" fill-rule="evenodd" clip-rule="evenodd" d="M592.909 810.013C592.358 810.276 591.897 810.695 591.585 811.216C591.272 811.737 591.121 812.337 591.15 812.943C591.179 813.548 591.388 814.132 591.749 814.621C592.111 815.11 592.61 815.483 593.183 815.693C593.757 815.903 594.381 815.942 594.977 815.804C595.573 815.665 596.114 815.357 596.534 814.916C596.954 814.475 597.234 813.922 597.339 813.325C597.444 812.728 597.37 812.113 597.124 811.558C596.956 811.177 596.713 810.833 596.407 810.548C596.102 810.263 595.742 810.041 595.348 809.897C594.955 809.753 594.536 809.689 594.117 809.709C593.698 809.728 593.287 809.832 592.909 810.013Z" fill="url(#paint2_radial_3120_7872)"/>
<path fill-rule="evenodd" clip-rule="evenodd" d="M850.647 1308.64C850.089 1308.9 849.62 1309.31 849.3 1309.84C848.98 1310.36 848.823 1310.97 848.848 1311.58C848.874 1312.19 849.08 1312.78 849.442 1313.27C849.804 1313.77 850.305 1314.15 850.884 1314.36C851.462 1314.58 852.091 1314.62 852.693 1314.48C853.294 1314.34 853.842 1314.03 854.266 1313.59C854.691 1313.14 854.974 1312.59 855.08 1311.98C855.186 1311.38 855.111 1310.76 854.863 1310.2C854.692 1309.82 854.447 1309.48 854.142 1309.2C853.837 1308.91 853.478 1308.69 853.086 1308.55C852.694 1308.4 852.276 1308.33 851.858 1308.35C851.439 1308.36 851.028 1308.46 850.647 1308.64Z" fill="white"/>
<path style="mix-blend-mode:screen" opacity="0.61" fill-rule="evenodd" clip-rule="evenodd" d="M846.706 1300.05C844.424 1301.07 842.499 1302.74 841.172 1304.84C839.846 1306.94 839.179 1309.38 839.256 1311.86C839.333 1314.34 840.149 1316.74 841.603 1318.76C843.056 1320.77 845.081 1322.32 847.422 1323.19C849.762 1324.07 852.312 1324.24 854.75 1323.68C857.188 1323.12 859.403 1321.86 861.116 1320.05C862.829 1318.25 863.962 1315.98 864.372 1313.53C864.782 1311.09 864.451 1308.58 863.421 1306.32C862.041 1303.29 859.505 1300.94 856.371 1299.76C853.238 1298.59 849.761 1298.69 846.706 1300.05Z" fill="url(#paint3_radial_3120_7872)"/>
<path style="mix-blend-mode:screen" opacity="0.61" fill-rule="evenodd" clip-rule="evenodd" d="M849.467 1306.15C848.405 1306.63 847.509 1307.41 846.893 1308.39C846.277 1309.37 845.969 1310.51 846.007 1311.67C846.045 1312.82 846.428 1313.94 847.107 1314.88C847.786 1315.82 848.731 1316.54 849.822 1316.94C850.913 1317.35 852.102 1317.43 853.239 1317.17C854.375 1316.91 855.408 1316.32 856.207 1315.48C857.006 1314.64 857.534 1313.58 857.727 1312.44C857.919 1311.3 857.766 1310.13 857.287 1309.07C856.97 1308.37 856.516 1307.74 855.951 1307.21C855.385 1306.68 854.72 1306.27 853.992 1306C853.265 1305.73 852.491 1305.6 851.714 1305.63C850.937 1305.65 850.174 1305.83 849.467 1306.15Z" fill="url(#paint4_radial_3120_7872)"/>
<path fill-rule="evenodd" clip-rule="evenodd" d="M171.501 784.938C170.942 785.199 170.474 785.617 170.154 786.14C169.834 786.663 169.677 787.268 169.702 787.879C169.727 788.49 169.934 789.08 170.296 789.576C170.658 790.071 171.159 790.45 171.737 790.665C172.315 790.88 172.944 790.921 173.546 790.783C174.148 790.646 174.695 790.336 175.12 789.892C175.544 789.448 175.827 788.889 175.934 788.287C176.04 787.684 175.964 787.064 175.717 786.504C175.546 786.125 175.301 785.784 174.996 785.499C174.691 785.215 174.332 784.994 173.939 784.848C173.547 784.702 173.13 784.635 172.711 784.651C172.292 784.666 171.881 784.764 171.501 784.938Z" fill="white"/>
<path style="mix-blend-mode:screen" opacity="0.61" fill-rule="evenodd" clip-rule="evenodd" d="M167.603 776.358C165.321 777.375 163.395 779.04 162.069 781.141C160.743 783.243 160.076 785.687 160.152 788.164C160.229 790.641 161.046 793.04 162.499 795.058C163.953 797.075 165.978 798.62 168.318 799.497C170.659 800.374 173.209 800.543 175.646 799.984C178.084 799.425 180.299 798.162 182.012 796.356C183.725 794.549 184.858 792.28 185.269 789.835C185.679 787.39 185.348 784.879 184.317 782.621C182.937 779.597 180.402 777.239 177.268 776.064C174.134 774.89 170.658 774.995 167.603 776.358Z" fill="url(#paint5_radial_3120_7872)"/>
<path style="mix-blend-mode:screen" opacity="0.61" fill-rule="evenodd" clip-rule="evenodd" d="M170.364 782.453C169.301 782.93 168.406 783.709 167.79 784.69C167.174 785.672 166.866 786.812 166.904 787.967C166.942 789.122 167.324 790.239 168.003 791.179C168.682 792.119 169.627 792.838 170.718 793.246C171.81 793.654 172.999 793.732 174.135 793.471C175.272 793.21 176.305 792.621 177.103 791.779C177.902 790.937 178.431 789.879 178.623 788.74C178.815 787.6 178.662 786.429 178.183 785.376C177.867 784.673 177.413 784.039 176.847 783.511C176.282 782.983 175.616 782.571 174.889 782.299C174.162 782.027 173.387 781.901 172.611 781.927C171.834 781.954 171.07 782.132 170.364 782.453Z" fill="url(#paint6_radial_3120_7872)"/>
<path fill-rule="evenodd" clip-rule="evenodd" d="M384.829 1235.02C384.271 1235.28 383.802 1235.7 383.482 1236.22C383.162 1236.75 383.005 1237.35 383.03 1237.96C383.055 1238.57 383.262 1239.16 383.624 1239.66C383.986 1240.15 384.487 1240.53 385.065 1240.75C385.643 1240.96 386.273 1241 386.874 1240.87C387.476 1240.73 388.023 1240.42 388.448 1239.97C388.873 1239.53 389.156 1238.97 389.262 1238.37C389.368 1237.77 389.292 1237.15 389.045 1236.59C388.876 1236.21 388.632 1235.86 388.328 1235.58C388.023 1235.29 387.664 1235.07 387.271 1234.92C386.878 1234.78 386.459 1234.71 386.04 1234.73C385.62 1234.74 385.209 1234.84 384.829 1235.02Z" fill="white"/>
<path style="mix-blend-mode:screen" opacity="0.61" fill-rule="evenodd" clip-rule="evenodd" d="M381.015 1226.44C378.733 1227.46 376.807 1229.12 375.481 1231.22C374.155 1233.32 373.488 1235.77 373.565 1238.25C373.641 1240.72 374.458 1243.12 375.912 1245.14C377.365 1247.16 379.39 1248.7 381.73 1249.58C384.071 1250.46 386.621 1250.63 389.059 1250.07C391.496 1249.51 393.712 1248.24 395.424 1246.44C397.137 1244.63 398.27 1242.36 398.681 1239.92C399.091 1237.47 398.76 1234.96 397.729 1232.7C396.349 1229.68 393.814 1227.32 390.68 1226.15C387.546 1224.97 384.07 1225.08 381.015 1226.44Z" fill="url(#paint7_radial_3120_7872)"/>
<path style="mix-blend-mode:screen" opacity="0.61" fill-rule="evenodd" clip-rule="evenodd" d="M383.776 1232.52C382.71 1232.99 381.811 1233.76 381.19 1234.74C380.57 1235.72 380.256 1236.86 380.29 1238.02C380.323 1239.17 380.702 1240.29 381.377 1241.24C382.053 1242.18 382.996 1242.9 384.087 1243.31C385.178 1243.72 386.368 1243.81 387.505 1243.55C388.643 1243.29 389.678 1242.7 390.48 1241.86C391.281 1241.02 391.813 1239.97 392.008 1238.83C392.203 1237.69 392.052 1236.51 391.574 1235.46C390.934 1234.05 389.753 1232.94 388.291 1232.39C386.828 1231.84 385.204 1231.88 383.776 1232.52Z" fill="url(#paint8_radial_3120_7872)"/>
<path fill-rule="evenodd" clip-rule="evenodd" d="M342.675 1382.29C342.269 1382.44 341.898 1382.67 341.585 1382.96C341.272 1383.26 341.024 1383.61 340.856 1384.01C340.688 1384.4 340.604 1384.83 340.61 1385.25C340.615 1385.68 340.709 1386.1 340.886 1386.49C341.063 1386.88 341.32 1387.23 341.64 1387.52C341.96 1387.81 342.336 1388.03 342.745 1388.16C343.154 1388.3 343.588 1388.35 344.018 1388.32C344.448 1388.28 344.866 1388.16 345.246 1387.95C345.652 1387.81 346.023 1387.58 346.336 1387.28C346.648 1386.99 346.896 1386.63 347.064 1386.24C347.232 1385.84 347.316 1385.42 347.311 1384.99C347.306 1384.56 347.212 1384.14 347.034 1383.75C346.857 1383.36 346.6 1383.01 346.281 1382.72C345.961 1382.44 345.584 1382.22 345.175 1382.08C344.766 1381.94 344.333 1381.89 343.903 1381.93C343.472 1381.97 343.054 1382.09 342.675 1382.29Z" fill="white"/>
<path style="mix-blend-mode:screen" opacity="0.61" fill-rule="evenodd" clip-rule="evenodd" d="M338.69 1373.69C336.409 1374.71 334.483 1376.37 333.157 1378.48C331.831 1380.58 331.164 1383.02 331.24 1385.5C331.317 1387.98 332.134 1390.37 333.587 1392.39C335.041 1394.41 337.066 1395.95 339.406 1396.83C341.746 1397.71 344.297 1397.88 346.734 1397.32C349.172 1396.76 351.387 1395.5 353.1 1393.69C354.813 1391.88 355.946 1389.61 356.356 1387.17C356.767 1384.72 356.436 1382.21 355.405 1379.95C354.025 1376.93 351.49 1374.57 348.356 1373.4C345.222 1372.22 341.746 1372.33 338.69 1373.69Z" fill="url(#paint9_radial_3120_7872)"/>
<path style="mix-blend-mode:screen" opacity="0.61" fill-rule="evenodd" clip-rule="evenodd" d="M341.451 1379.79C340.386 1380.26 339.487 1381.04 338.868 1382.02C338.249 1383 337.938 1384.14 337.973 1385.3C338.009 1386.45 338.39 1387.57 339.068 1388.51C339.747 1389.46 340.692 1390.18 341.784 1390.59C342.876 1391 344.066 1391.08 345.204 1390.81C346.342 1390.55 347.375 1389.96 348.175 1389.12C348.974 1388.28 349.503 1387.22 349.694 1386.08C349.886 1384.94 349.731 1383.76 349.25 1382.71C348.606 1381.3 347.423 1380.2 345.961 1379.65C344.499 1379.1 342.877 1379.15 341.451 1379.79Z" fill="url(#paint10_radial_3120_7872)"/>
<path fill-rule="evenodd" clip-rule="evenodd" d="M2.24759 1242.52C2.06734 1242.6 1.90465 1242.71 1.76888 1242.85C1.6331 1242.99 1.52691 1243.16 1.4564 1243.34C1.38589 1243.52 1.35246 1243.72 1.35802 1243.91C1.36357 1244.11 1.40801 1244.3 1.48879 1244.48C1.56121 1244.67 1.67289 1244.85 1.81692 1245C1.96095 1245.15 2.13425 1245.26 2.32607 1245.34C2.51789 1245.42 2.72414 1245.46 2.93202 1245.46C3.1399 1245.46 3.34498 1245.41 3.53454 1245.33C3.72411 1245.24 3.89411 1245.12 4.034 1244.97C4.17389 1244.81 4.28068 1244.64 4.34776 1244.44C4.41484 1244.25 4.44078 1244.04 4.42395 1243.83C4.40713 1243.63 4.34791 1243.43 4.24996 1243.25C4.16823 1243.07 4.05129 1242.91 3.90593 1242.77C3.76058 1242.64 3.58974 1242.53 3.40336 1242.47C3.21698 1242.4 3.0188 1242.37 2.82037 1242.38C2.62194 1242.39 2.42723 1242.43 2.24759 1242.52Z" fill="white"/>
<path style="mix-blend-mode:screen" opacity="0.61" fill-rule="evenodd" clip-rule="evenodd" d="M0.392947 1238.38C-0.70423 1238.87 -1.63156 1239.66 -2.27165 1240.67C-2.91173 1241.68 -3.23579 1242.85 -3.20279 1244.04C-3.16978 1245.23 -2.78121 1246.38 -2.08626 1247.35C-1.3913 1248.32 -0.421222 1249.07 0.701172 1249.49C1.82357 1249.92 3.04781 1250 4.21889 1249.74C5.38997 1249.47 6.45525 1248.87 7.27984 1248C8.10443 1247.14 8.65126 1246.05 8.85111 1244.87C9.05095 1243.7 8.89482 1242.5 8.40248 1241.41C7.74387 1239.96 6.53087 1238.82 5.02944 1238.26C3.528 1237.69 1.86065 1237.73 0.392947 1238.38Z" fill="url(#paint11_radial_3120_7872)"/>
<path style="mix-blend-mode:screen" opacity="0.61" fill-rule="evenodd" clip-rule="evenodd" d="M1.71988 1241.3C1.38081 1241.46 1.07503 1241.67 0.820027 1241.94C0.565021 1242.21 0.365771 1242.52 0.233657 1242.87C0.101542 1243.21 0.0391526 1243.58 0.0500435 1243.94C0.0609345 1244.31 0.14489 1244.67 0.297129 1245.01C0.449367 1245.35 0.666906 1245.65 0.937314 1245.9C1.20772 1246.15 1.52571 1246.35 1.87312 1246.48C2.22053 1246.61 2.59056 1246.68 2.96208 1246.66C3.33361 1246.65 3.69935 1246.57 4.03843 1246.42C4.72322 1246.12 5.25783 1245.55 5.52464 1244.86C5.79146 1244.16 5.76863 1243.39 5.46117 1242.71C5.15371 1242.04 4.58681 1241.51 3.88518 1241.24C3.18355 1240.98 2.40468 1241 1.71988 1241.3Z" fill="url(#paint12_radial_3120_7872)"/>
<path fill-rule="evenodd" clip-rule="evenodd" d="M48.1969 1073.3C47.8366 1073.47 47.5566 1073.76 47.4183 1074.13C47.28 1074.5 47.2947 1074.91 47.4592 1075.26C47.5387 1075.44 47.6536 1075.6 47.797 1075.74C47.9404 1075.87 48.1095 1075.98 48.2941 1076.04C48.4788 1076.11 48.6754 1076.14 48.8723 1076.13C49.0692 1076.13 49.2624 1076.08 49.4405 1076C49.783 1075.82 50.0445 1075.52 50.1706 1075.16C50.2967 1074.8 50.2776 1074.41 50.1175 1074.06C49.9573 1073.71 49.6683 1073.44 49.3106 1073.3C48.9529 1073.16 48.554 1073.16 48.1969 1073.3Z" fill="white"/>
<path style="mix-blend-mode:screen" opacity="0.61" fill-rule="evenodd" clip-rule="evenodd" d="M46.3431 1069.27C45.2553 1069.76 44.3364 1070.55 43.7029 1071.55C43.0693 1072.55 42.7495 1073.71 42.7837 1074.89C42.818 1076.07 43.2049 1077.22 43.8955 1078.18C44.5861 1079.14 45.5493 1079.88 46.6635 1080.3C47.7776 1080.72 48.9925 1080.81 50.1547 1080.54C51.3169 1080.28 52.374 1079.68 53.1926 1078.82C54.0111 1077.96 54.5541 1076.88 54.7531 1075.72C54.9521 1074.55 54.7981 1073.36 54.3105 1072.28C53.9867 1071.56 53.5238 1070.92 52.9481 1070.38C52.3725 1069.84 51.6954 1069.42 50.9555 1069.14C50.2156 1068.86 49.4275 1068.73 48.6361 1068.75C47.8447 1068.78 47.0656 1068.95 46.3431 1069.27Z" fill="url(#paint13_radial_3120_7872)"/>
<path style="mix-blend-mode:screen" opacity="0.61" fill-rule="evenodd" clip-rule="evenodd" d="M47.5865 1072.17C47.0811 1072.4 46.6545 1072.77 46.3605 1073.23C46.0666 1073.7 45.9184 1074.24 45.9348 1074.79C45.9512 1075.34 46.1314 1075.87 46.4526 1076.32C46.7738 1076.76 47.2217 1077.11 47.7396 1077.3C48.2575 1077.5 48.8222 1077.54 49.3624 1077.41C49.9025 1077.29 50.394 1077.01 50.7746 1076.61C51.1552 1076.21 51.4078 1075.71 51.5006 1075.17C51.5935 1074.63 51.5223 1074.07 51.2961 1073.57C51.1479 1073.24 50.9337 1072.94 50.6661 1072.68C50.3985 1072.43 50.0828 1072.23 49.7374 1072.1C49.3921 1071.97 49.024 1071.91 48.6547 1071.92C48.2854 1071.94 47.9223 1072.02 47.5865 1072.17Z" fill="url(#paint14_radial_3120_7872)"/>
<path fill-rule="evenodd" clip-rule="evenodd" d="M192.453 1240.53C192.136 1240.59 191.837 1240.71 191.576 1240.9C191.316 1241.08 191.102 1241.33 190.951 1241.61C190.8 1241.89 190.716 1242.2 190.704 1242.52C190.693 1242.83 190.755 1243.15 190.886 1243.44C191.017 1243.73 191.213 1243.99 191.459 1244.19C191.706 1244.4 191.996 1244.54 192.308 1244.62C192.619 1244.69 192.945 1244.7 193.258 1244.63C193.572 1244.56 193.866 1244.43 194.118 1244.23C194.434 1244.17 194.734 1244.05 194.994 1243.86C195.254 1243.68 195.468 1243.43 195.619 1243.15C195.77 1242.87 195.855 1242.56 195.866 1242.24C195.877 1241.93 195.815 1241.61 195.684 1241.32C195.554 1241.03 195.358 1240.77 195.111 1240.57C194.865 1240.36 194.575 1240.22 194.263 1240.14C193.951 1240.07 193.626 1240.06 193.312 1240.13C192.999 1240.2 192.705 1240.34 192.453 1240.53Z" fill="white"/>
<path style="mix-blend-mode:screen" opacity="0.61" fill-rule="evenodd" clip-rule="evenodd" d="M189.902 1234.94C188.414 1235.59 187.156 1236.67 186.286 1238.03C185.416 1239.4 184.974 1240.99 185.014 1242.6C185.055 1244.21 185.576 1245.77 186.513 1247.09C187.451 1248.41 188.761 1249.43 190.28 1250.01C191.798 1250.59 193.457 1250.71 195.046 1250.36C196.635 1250.01 198.084 1249.2 199.209 1248.04C200.335 1246.87 201.086 1245.4 201.369 1243.81C201.652 1242.22 201.454 1240.59 200.799 1239.11C199.913 1237.13 198.267 1235.57 196.223 1234.79C194.18 1234.01 191.906 1234.06 189.902 1234.94Z" fill="url(#paint15_radial_3120_7872)"/>
<path style="mix-blend-mode:screen" opacity="0.61" fill-rule="evenodd" clip-rule="evenodd" d="M191.715 1238.9C191.024 1239.21 190.441 1239.72 190.04 1240.36C189.64 1241 189.439 1241.74 189.463 1242.49C189.487 1243.24 189.736 1243.97 190.177 1244.58C190.618 1245.19 191.232 1245.66 191.942 1245.92C192.652 1246.19 193.425 1246.24 194.163 1246.07C194.902 1245.9 195.574 1245.52 196.093 1244.97C196.612 1244.42 196.956 1243.73 197.081 1242.99C197.206 1242.25 197.106 1241.49 196.794 1240.8C196.587 1240.35 196.291 1239.94 195.924 1239.6C195.556 1239.25 195.124 1238.99 194.652 1238.81C194.18 1238.63 193.678 1238.55 193.174 1238.57C192.67 1238.58 192.174 1238.7 191.715 1238.9Z" fill="url(#paint16_radial_3120_7872)"/>
<path fill-rule="evenodd" clip-rule="evenodd" d="M72.1617 913.608C71.8454 913.662 71.5456 913.786 71.2854 913.973C71.0252 914.159 70.8114 914.402 70.6602 914.682C70.5091 914.963 70.4247 915.274 70.4134 915.592C70.4021 915.909 70.4643 916.225 70.5951 916.516C70.726 916.806 70.9221 917.063 71.1684 917.267C71.4148 917.471 71.7049 917.616 72.0166 917.692C72.3284 917.768 72.6535 917.773 72.9673 917.705C73.281 917.638 73.575 917.5 73.8269 917.303C74.1945 917.015 74.4548 916.614 74.5667 916.163C74.6786 915.713 74.6356 915.238 74.4446 914.814C74.2536 914.39 73.9255 914.041 73.5121 913.823C73.0986 913.604 72.6235 913.529 72.1617 913.608Z" fill="white"/>
<path style="mix-blend-mode:screen" opacity="0.61" fill-rule="evenodd" clip-rule="evenodd" d="M69.6127 908.033C68.1252 908.689 66.8671 909.767 65.9973 911.13C65.1274 912.494 64.6848 914.082 64.7252 915.694C64.7656 917.306 65.2873 918.871 66.2244 920.189C67.1615 921.508 68.4721 922.523 69.9906 923.105C71.5092 923.687 73.1678 923.81 74.757 923.459C76.3462 923.108 77.7949 922.299 78.9203 921.133C80.0456 919.968 80.7972 918.498 81.0801 916.91C81.363 915.321 81.1646 913.686 80.5099 912.209C80.0756 911.223 79.4482 910.331 78.6639 909.586C77.8796 908.841 76.954 908.258 75.9407 907.87C74.9273 907.481 73.8463 907.296 72.7601 907.324C71.674 907.352 70.6042 907.593 69.6127 908.033Z" fill="url(#paint17_radial_3120_7872)"/>
<path style="mix-blend-mode:screen" opacity="0.61" fill-rule="evenodd" clip-rule="evenodd" d="M71.4256 911.98C70.7344 912.288 70.1509 912.792 69.7487 913.428C69.3465 914.065 69.1436 914.805 69.1657 915.555C69.1878 916.306 69.4338 917.033 69.8728 917.645C70.3118 918.257 70.9239 918.727 71.6321 918.995C72.3402 919.262 73.1126 919.316 73.8517 919.15C74.5907 918.983 75.2634 918.603 75.7848 918.058C76.3061 917.513 76.6528 916.828 76.7811 916.088C76.9093 915.348 76.8133 914.587 76.5053 913.901C76.082 912.985 75.3123 912.27 74.3622 911.911C73.412 911.552 72.3574 911.576 71.4256 911.98Z" fill="url(#paint18_radial_3120_7872)"/>
<path fill-rule="evenodd" clip-rule="evenodd" d="M413.559 831.119C413.323 831.225 413.124 831.397 412.987 831.614C412.85 831.831 412.782 832.084 412.79 832.34C412.798 832.596 412.882 832.843 413.032 833.052C413.183 833.26 413.392 833.42 413.634 833.51C413.876 833.601 414.139 833.618 414.391 833.56C414.643 833.503 414.871 833.372 415.048 833.185C415.225 832.999 415.343 832.764 415.385 832.512C415.427 832.259 415.393 832 415.287 831.767C415.144 831.454 414.882 831.21 414.558 831.089C414.234 830.967 413.874 830.978 413.559 831.119Z" fill="white"/>
<path style="mix-blend-mode:screen" opacity="0.61" fill-rule="evenodd" clip-rule="evenodd" d="M411.934 827.612C410.985 828.036 410.184 828.729 409.632 829.604C409.079 830.478 408.801 831.496 408.832 832.527C408.864 833.558 409.202 834.556 409.806 835.397C410.41 836.237 411.252 836.882 412.225 837.249C413.198 837.616 414.259 837.689 415.275 837.459C416.29 837.229 417.213 836.706 417.929 835.956C418.644 835.207 419.119 834.264 419.294 833.247C419.469 832.23 419.336 831.185 418.911 830.243C418.628 829.616 418.223 829.05 417.719 828.578C417.215 828.106 416.622 827.737 415.974 827.493C415.326 827.248 414.636 827.133 413.942 827.154C413.249 827.174 412.567 827.33 411.934 827.612Z" fill="url(#paint19_radial_3120_7872)"/>
<path style="mix-blend-mode:screen" opacity="0.61" fill-rule="evenodd" clip-rule="evenodd" d="M413.074 830.159C412.479 830.435 412.019 830.935 411.796 831.548C411.572 832.161 411.604 832.836 411.884 833.426C412.163 834.016 412.668 834.471 413.286 834.693C413.905 834.914 414.587 834.882 415.182 834.606C415.477 834.469 415.742 834.275 415.961 834.037C416.18 833.798 416.35 833.52 416.461 833.216C416.571 832.913 416.621 832.591 416.605 832.269C416.59 831.946 416.511 831.63 416.373 831.338C416.235 831.046 416.04 830.784 415.799 830.567C415.558 830.349 415.277 830.181 414.97 830.072C414.664 829.962 414.339 829.913 414.014 829.928C413.688 829.943 413.369 830.022 413.074 830.159Z" fill="url(#paint20_radial_3120_7872)"/>
<path fill-rule="evenodd" clip-rule="evenodd" d="M210.685 1048.35C210.512 1048.46 210.362 1048.59 210.245 1048.76C210.129 1048.92 210.048 1049.11 210.009 1049.3C209.969 1049.5 209.971 1049.7 210.015 1049.9C210.059 1050.09 210.143 1050.28 210.263 1050.44C210.43 1050.67 210.66 1050.84 210.924 1050.94C211.188 1051.03 211.475 1051.05 211.75 1050.99C212.025 1050.93 212.277 1050.79 212.474 1050.59C212.671 1050.4 212.806 1050.14 212.861 1049.87C212.916 1049.6 212.89 1049.31 212.785 1049.05C212.681 1048.79 212.502 1048.57 212.272 1048.41C212.041 1048.25 211.768 1048.16 211.487 1048.15C211.205 1048.14 210.926 1048.21 210.685 1048.35Z" fill="white"/>
<path style="mix-blend-mode:screen" opacity="0.61" fill-rule="evenodd" clip-rule="evenodd" d="M208.241 1044.72C207.273 1045.35 206.516 1046.25 206.066 1047.31C205.615 1048.37 205.492 1049.54 205.711 1050.66C205.93 1051.79 206.482 1052.83 207.296 1053.64C208.111 1054.46 209.152 1055.02 210.287 1055.25C211.423 1055.48 212.602 1055.37 213.675 1054.94C214.749 1054.51 215.668 1053.77 216.318 1052.82C216.968 1051.87 217.318 1050.75 217.325 1049.6C217.331 1048.45 216.994 1047.33 216.356 1046.37C215.934 1045.73 215.389 1045.18 214.752 1044.75C214.115 1044.32 213.399 1044.03 212.645 1043.87C211.89 1043.72 211.113 1043.71 210.357 1043.86C209.601 1044.01 208.882 1044.3 208.241 1044.72Z" fill="url(#paint21_radial_3120_7872)"/>
<path style="mix-blend-mode:screen" opacity="0.61" fill-rule="evenodd" clip-rule="evenodd" d="M209.884 1047.31C209.432 1047.61 209.08 1048.03 208.871 1048.53C208.662 1049.02 208.607 1049.57 208.712 1050.09C208.817 1050.62 209.077 1051.11 209.46 1051.49C209.843 1051.87 210.331 1052.13 210.863 1052.23C211.395 1052.34 211.946 1052.28 212.447 1052.08C212.948 1051.87 213.377 1051.52 213.678 1051.08C213.98 1050.63 214.14 1050.11 214.14 1049.57C214.14 1049.03 213.979 1048.51 213.678 1048.06C213.275 1047.46 212.649 1047.05 211.938 1046.91C211.226 1046.77 210.488 1046.91 209.884 1047.31Z" fill="url(#paint22_radial_3120_7872)"/>
<path fill-rule="evenodd" clip-rule="evenodd" d="M1432.6 805.148C1432.36 805.16 1432.11 805.099 1431.9 804.974C1431.69 804.849 1431.52 804.665 1431.42 804.445C1431.31 804.225 1431.27 803.979 1431.31 803.738C1431.35 803.497 1431.45 803.272 1431.62 803.092C1431.78 802.911 1432 802.783 1432.24 802.723C1432.47 802.663 1432.73 802.675 1432.96 802.757C1433.19 802.838 1433.39 802.986 1433.54 803.181C1433.68 803.376 1433.77 803.61 1433.78 803.853C1433.79 804.016 1433.77 804.179 1433.72 804.333C1433.66 804.487 1433.58 804.628 1433.47 804.749C1433.36 804.87 1433.23 804.967 1433.08 805.036C1432.93 805.104 1432.77 805.142 1432.6 805.148Z" fill="white"/>
<path style="mix-blend-mode:screen" opacity="0.61" fill-rule="evenodd" clip-rule="evenodd" d="M1432.79 808.905C1431.8 808.953 1430.81 808.709 1429.96 808.202C1429.1 807.695 1428.42 806.948 1427.99 806.057C1427.57 805.165 1427.42 804.169 1427.56 803.193C1427.71 802.217 1428.14 801.306 1428.81 800.574C1429.48 799.843 1430.35 799.324 1431.32 799.083C1432.28 798.842 1433.3 798.89 1434.24 799.22C1435.17 799.551 1435.99 800.15 1436.59 800.941C1437.18 801.732 1437.53 802.68 1437.58 803.665C1437.64 804.987 1437.17 806.281 1436.28 807.263C1435.38 808.244 1434.13 808.835 1432.79 808.905Z" fill="url(#paint23_radial_3120_7872)"/>
<path style="mix-blend-mode:screen" opacity="0.61" fill-rule="evenodd" clip-rule="evenodd" d="M1432.67 806.233C1432.2 806.278 1431.74 806.185 1431.32 805.965C1430.91 805.744 1430.58 805.408 1430.36 804.998C1430.15 804.588 1430.06 804.124 1430.11 803.665C1430.17 803.206 1430.36 802.772 1430.66 802.421C1430.96 802.07 1431.37 801.816 1431.82 801.693C1432.27 801.57 1432.74 801.583 1433.18 801.73C1433.63 801.877 1434.01 802.152 1434.3 802.519C1434.58 802.886 1434.75 803.329 1434.77 803.791C1434.82 804.39 1434.62 804.981 1434.22 805.438C1433.83 805.894 1433.27 806.18 1432.67 806.233Z" fill="url(#paint24_radial_3120_7872)"/>
<path fill-rule="evenodd" clip-rule="evenodd" d="M491.757 1423.61C491.447 1423.63 491.137 1423.58 490.845 1423.48C490.552 1423.37 490.284 1423.21 490.054 1423.01C489.824 1422.8 489.637 1422.55 489.504 1422.27C489.372 1421.99 489.295 1421.69 489.28 1421.39C489.265 1421.08 489.311 1420.77 489.416 1420.48C489.52 1420.19 489.681 1419.93 489.89 1419.7C490.098 1419.47 490.35 1419.29 490.63 1419.16C490.911 1419.02 491.215 1418.95 491.525 1418.93C492.151 1418.9 492.764 1419.12 493.228 1419.54C493.693 1419.95 493.971 1420.54 494.002 1421.16C494.032 1421.78 493.813 1422.38 493.392 1422.84C492.971 1423.3 492.383 1423.58 491.757 1423.61Z" fill="white"/>
<path style="mix-blend-mode:screen" opacity="0.61" fill-rule="evenodd" clip-rule="evenodd" d="M492.116 1430.67C490.238 1430.76 488.375 1430.3 486.762 1429.34C485.148 1428.39 483.858 1426.98 483.052 1425.29C482.247 1423.61 481.964 1421.73 482.239 1419.89C482.513 1418.05 483.333 1416.33 484.594 1414.94C485.855 1413.56 487.502 1412.58 489.325 1412.13C491.148 1411.68 493.067 1411.77 494.837 1412.39C496.608 1413.02 498.152 1414.15 499.273 1415.65C500.394 1417.14 501.043 1418.93 501.137 1420.79C501.199 1422.03 501.016 1423.26 500.596 1424.43C500.176 1425.59 499.529 1426.66 498.692 1427.58C497.854 1428.5 496.842 1429.24 495.714 1429.77C494.585 1430.3 493.363 1430.61 492.116 1430.67Z" fill="url(#paint25_radial_3120_7872)"/>
<path style="mix-blend-mode:screen" opacity="0.61" fill-rule="evenodd" clip-rule="evenodd" d="M491.861 1425.66C490.988 1425.7 490.123 1425.48 489.374 1425.03C488.625 1424.59 488.026 1423.93 487.653 1423.15C487.281 1422.36 487.15 1421.49 487.278 1420.63C487.407 1419.78 487.788 1418.98 488.375 1418.34C488.961 1417.69 489.727 1417.24 490.574 1417.03C491.422 1416.81 492.314 1416.86 493.137 1417.15C493.961 1417.43 494.68 1417.96 495.203 1418.65C495.726 1419.35 496.03 1420.18 496.077 1421.04C496.134 1422.21 495.723 1423.35 494.932 1424.21C494.142 1425.08 493.038 1425.6 491.861 1425.66Z" fill="url(#paint26_radial_3120_7872)"/>
<path fill-rule="evenodd" clip-rule="evenodd" d="M1341.99 922.982C1341.21 923.022 1340.45 922.834 1339.78 922.441C1339.11 922.048 1338.58 921.468 1338.24 920.774C1337.91 920.08 1337.79 919.304 1337.9 918.544C1338.02 917.783 1338.35 917.073 1338.87 916.502C1339.39 915.932 1340.07 915.527 1340.82 915.339C1341.58 915.151 1342.37 915.188 1343.1 915.446C1343.83 915.704 1344.47 916.171 1344.93 916.787C1345.39 917.404 1345.66 918.143 1345.7 918.911C1345.75 919.937 1345.39 920.943 1344.69 921.706C1344 922.469 1343.03 922.928 1341.99 922.982Z" fill="white"/>
<path style="mix-blend-mode:screen" opacity="0.61" fill-rule="evenodd" clip-rule="evenodd" d="M1342.58 934.631C1339.47 934.784 1336.39 934.02 1333.71 932.437C1331.04 930.853 1328.91 928.521 1327.57 925.734C1326.24 922.947 1325.77 919.832 1326.22 916.781C1326.68 913.73 1328.03 910.881 1330.12 908.594C1332.21 906.307 1334.94 904.684 1337.95 903.931C1340.97 903.178 1344.15 903.328 1347.08 904.363C1350.02 905.398 1352.57 907.271 1354.43 909.745C1356.29 912.219 1357.37 915.183 1357.52 918.263C1357.63 920.31 1357.33 922.357 1356.63 924.288C1355.94 926.219 1354.87 927.995 1353.48 929.515C1352.09 931.036 1350.41 932.27 1348.54 933.148C1346.67 934.025 1344.65 934.53 1342.58 934.631Z" fill="url(#paint27_radial_3120_7872)"/>
<path style="mix-blend-mode:screen" opacity="0.61" fill-rule="evenodd" clip-rule="evenodd" d="M1342.16 926.322C1340.7 926.395 1339.26 926.039 1338.01 925.299C1336.76 924.56 1335.77 923.47 1335.14 922.168C1334.52 920.866 1334.3 919.41 1334.51 917.984C1334.72 916.558 1335.36 915.227 1336.33 914.158C1337.31 913.089 1338.58 912.331 1339.99 911.979C1341.4 911.627 1342.89 911.698 1344.26 912.182C1345.63 912.666 1346.82 913.542 1347.69 914.699C1348.56 915.856 1349.06 917.242 1349.13 918.681C1349.19 919.637 1349.05 920.594 1348.72 921.496C1348.4 922.398 1347.9 923.228 1347.25 923.938C1346.6 924.648 1345.82 925.225 1344.94 925.634C1344.07 926.043 1343.12 926.277 1342.16 926.322Z" fill="url(#paint28_radial_3120_7872)"/>
<path fill-rule="evenodd" clip-rule="evenodd" d="M424.477 1172.03C424.061 1172.05 423.655 1171.9 423.347 1171.63C423.039 1171.35 422.854 1170.96 422.832 1170.55C422.821 1170.35 422.85 1170.15 422.919 1169.96C422.987 1169.77 423.093 1169.59 423.23 1169.44C423.368 1169.29 423.534 1169.17 423.719 1169.08C423.904 1169 424.104 1168.95 424.308 1168.94C424.513 1168.93 424.718 1168.96 424.912 1169.03C425.105 1169.1 425.283 1169.2 425.436 1169.34C425.589 1169.47 425.713 1169.64 425.802 1169.82C425.89 1170 425.941 1170.2 425.952 1170.4C425.969 1170.81 425.825 1171.21 425.549 1171.52C425.273 1171.82 424.888 1172.01 424.477 1172.03Z" fill="white"/>
<path style="mix-blend-mode:screen" opacity="0.61" fill-rule="evenodd" clip-rule="evenodd" d="M424.707 1176.69C423.455 1176.76 422.21 1176.46 421.131 1175.82C420.051 1175.19 419.187 1174.25 418.647 1173.13C418.107 1172.01 417.916 1170.75 418.098 1169.52C418.281 1168.3 418.828 1167.15 419.671 1166.23C420.514 1165.31 421.614 1164.66 422.831 1164.36C424.049 1164.06 425.329 1164.12 426.508 1164.55C427.688 1164.97 428.714 1165.73 429.455 1166.73C430.197 1167.74 430.62 1168.93 430.672 1170.17C430.741 1171.82 430.154 1173.42 429.038 1174.64C427.922 1175.86 426.366 1176.6 424.707 1176.69Z" fill="url(#paint29_radial_3120_7872)"/>
<path style="mix-blend-mode:screen" opacity="0.61" fill-rule="evenodd" clip-rule="evenodd" d="M424.54 1173.39C423.764 1173.42 423.006 1173.15 422.43 1172.64C421.854 1172.12 421.506 1171.4 421.463 1170.63C421.434 1170.06 421.578 1169.49 421.875 1169C422.173 1168.51 422.611 1168.11 423.135 1167.87C423.658 1167.62 424.243 1167.54 424.816 1167.62C425.389 1167.7 425.924 1167.95 426.354 1168.34C426.783 1168.72 427.088 1169.23 427.23 1169.78C427.371 1170.34 427.343 1170.92 427.149 1171.46C426.955 1172 426.604 1172.48 426.139 1172.82C425.675 1173.16 425.118 1173.36 424.54 1173.39Z" fill="url(#paint30_radial_3120_7872)"/>
<path style="mix-blend-mode:screen" opacity="0.61" fill-rule="evenodd" clip-rule="evenodd" d="M1446.03 1250.93C1444.44 1251.01 1442.86 1250.61 1441.49 1249.8C1440.13 1248.99 1439.04 1247.8 1438.36 1246.37C1437.68 1244.94 1437.44 1243.35 1437.67 1241.79C1437.91 1240.23 1438.6 1238.77 1439.68 1237.6C1440.75 1236.44 1442.14 1235.61 1443.69 1235.23C1445.23 1234.84 1446.86 1234.92 1448.36 1235.46C1449.85 1235.99 1451.16 1236.95 1452.11 1238.22C1453.06 1239.49 1453.6 1241 1453.68 1242.58C1453.78 1244.69 1453.03 1246.76 1451.6 1248.32C1450.17 1249.89 1448.16 1250.83 1446.03 1250.93Z" fill="url(#paint31_radial_3120_7872)"/>
<path fill-rule="evenodd" clip-rule="evenodd" d="M836.861 910.455C836.708 910.494 836.548 910.498 836.392 910.469C836.237 910.439 836.09 910.375 835.962 910.283C835.835 910.19 835.729 910.071 835.653 909.934C835.577 909.796 835.533 909.643 835.523 909.487C835.514 909.33 835.539 909.174 835.598 909.028C835.657 908.883 835.747 908.752 835.863 908.645C835.979 908.538 836.117 908.457 836.268 908.409C836.418 908.361 836.578 908.347 836.735 908.367C836.876 908.359 837.018 908.378 837.151 908.424C837.285 908.47 837.408 908.541 837.514 908.634C837.62 908.727 837.706 908.84 837.768 908.966C837.829 909.093 837.865 909.229 837.873 909.369C837.879 909.507 837.857 909.643 837.809 909.772C837.762 909.901 837.689 910.019 837.595 910.12C837.501 910.221 837.388 910.302 837.262 910.36C837.136 910.417 837 910.45 836.861 910.455Z" fill="white"/>
<path style="mix-blend-mode:screen" opacity="0.61" fill-rule="evenodd" clip-rule="evenodd" d="M837.01 913.65C836.191 913.648 835.389 913.409 834.704 912.962C834.02 912.516 833.481 911.881 833.155 911.136C832.829 910.391 832.729 909.568 832.867 908.768C833.006 907.968 833.377 907.225 833.936 906.63C834.494 906.036 835.215 905.615 836.011 905.421C836.807 905.226 837.643 905.265 838.416 905.534C839.19 905.802 839.868 906.289 840.367 906.933C840.866 907.577 841.164 908.351 841.226 909.161C841.269 909.735 841.193 910.312 841 910.855C840.808 911.399 840.505 911.897 840.109 912.318C839.713 912.74 839.233 913.076 838.7 913.305C838.167 913.534 837.592 913.652 837.01 913.65Z" fill="url(#paint32_radial_3120_7872)"/>
<path style="mix-blend-mode:screen" opacity="0.61" fill-rule="evenodd" clip-rule="evenodd" d="M836.905 911.374C836.482 911.412 836.057 911.322 835.687 911.117C835.316 910.912 835.017 910.601 834.828 910.224C834.639 909.847 834.569 909.423 834.628 909.007C834.686 908.59 834.87 908.201 835.156 907.89C835.442 907.579 835.816 907.36 836.229 907.263C836.642 907.166 837.075 907.195 837.472 907.346C837.868 907.497 838.209 907.763 838.45 908.109C838.691 908.456 838.821 908.866 838.823 909.286C838.825 909.809 838.629 910.313 838.274 910.7C837.919 911.087 837.43 911.327 836.905 911.374Z" fill="url(#paint33_radial_3120_7872)"/>
<path fill-rule="evenodd" clip-rule="evenodd" d="M872.611 820.054C872.391 820.062 872.174 820.005 871.986 819.891C871.799 819.778 871.649 819.611 871.557 819.414C871.464 819.216 871.433 818.996 871.466 818.78C871.499 818.565 871.596 818.364 871.744 818.203C871.892 818.042 872.085 817.928 872.299 817.875C872.512 817.822 872.736 817.833 872.944 817.905C873.151 817.978 873.332 818.11 873.464 818.284C873.596 818.458 873.673 818.667 873.686 818.885C873.694 819.032 873.673 819.179 873.623 819.318C873.573 819.457 873.496 819.584 873.396 819.693C873.296 819.802 873.175 819.89 873.04 819.952C872.905 820.014 872.759 820.049 872.611 820.054Z" fill="white"/>
<path style="mix-blend-mode:screen" opacity="0.61" fill-rule="evenodd" clip-rule="evenodd" d="M872.778 823.416C871.885 823.472 870.996 823.265 870.223 822.82C869.45 822.375 868.828 821.713 868.436 820.917C868.043 820.121 867.899 819.228 868.02 818.35C868.142 817.473 868.524 816.651 869.118 815.989C869.712 815.327 870.491 814.855 871.357 814.632C872.222 814.41 873.135 814.447 873.979 814.74C874.823 815.032 875.56 815.567 876.097 816.275C876.633 816.984 876.946 817.834 876.993 818.718C877.051 819.892 876.642 821.041 875.854 821.92C875.066 822.798 873.961 823.335 872.778 823.416Z" fill="url(#paint34_radial_3120_7872)"/>
<path style="mix-blend-mode:screen" opacity="0.61" fill-rule="evenodd" clip-rule="evenodd" d="M872.653 821.036C872.236 821.036 871.828 820.913 871.482 820.684C871.135 820.455 870.865 820.129 870.705 819.747C870.546 819.366 870.504 818.946 870.585 818.541C870.667 818.136 870.867 817.764 871.162 817.472C871.457 817.18 871.833 816.981 872.241 816.9C872.65 816.82 873.074 816.861 873.459 817.019C873.844 817.177 874.174 817.445 874.405 817.788C874.637 818.132 874.76 818.535 874.76 818.948C874.76 819.502 874.538 820.033 874.143 820.424C873.748 820.816 873.212 821.036 872.653 821.036Z" fill="url(#paint35_radial_3120_7872)"/>
<path fill-rule="evenodd" clip-rule="evenodd" d="M772.933 1463.88C772.529 1463.9 772.134 1463.76 771.834 1463.49C771.534 1463.22 771.353 1462.84 771.332 1462.44C771.314 1462.04 771.457 1461.65 771.728 1461.35C772 1461.05 772.38 1460.86 772.786 1460.84C772.988 1460.83 773.19 1460.86 773.38 1460.93C773.57 1461 773.744 1461.1 773.893 1461.24C774.042 1461.37 774.162 1461.54 774.247 1461.72C774.332 1461.9 774.38 1462.1 774.388 1462.3C774.399 1462.5 774.37 1462.7 774.303 1462.88C774.236 1463.07 774.132 1463.24 773.996 1463.39C773.861 1463.54 773.697 1463.66 773.515 1463.74C773.332 1463.83 773.135 1463.88 772.933 1463.88Z" fill="white"/>
<path style="mix-blend-mode:screen" opacity="0.61" fill-rule="evenodd" clip-rule="evenodd" d="M773.165 1468.48C771.945 1468.53 770.736 1468.23 769.69 1467.61C768.645 1466.98 767.809 1466.06 767.289 1464.97C766.769 1463.88 766.588 1462.65 766.769 1461.46C766.951 1460.26 767.485 1459.15 768.307 1458.25C769.128 1457.36 770.198 1456.72 771.383 1456.43C772.567 1456.14 773.813 1456.2 774.962 1456.61C776.111 1457.02 777.112 1457.75 777.839 1458.72C778.566 1459.7 778.986 1460.86 779.045 1462.07C779.085 1462.87 778.964 1463.67 778.69 1464.43C778.416 1465.19 777.994 1465.88 777.447 1466.48C776.901 1467.07 776.242 1467.56 775.507 1467.9C774.772 1468.24 773.976 1468.44 773.165 1468.48Z" fill="url(#paint36_radial_3120_7872)"/>
<path style="mix-blend-mode:screen" opacity="0.61" fill-rule="evenodd" clip-rule="evenodd" d="M773.017 1465.22C772.618 1465.29 772.21 1465.27 771.818 1465.17C771.427 1465.07 771.061 1464.89 770.744 1464.64C770.427 1464.39 770.167 1464.08 769.98 1463.72C769.793 1463.37 769.683 1462.98 769.658 1462.58C769.633 1462.18 769.693 1461.78 769.834 1461.4C769.975 1461.03 770.194 1460.68 770.477 1460.4C770.759 1460.11 771.1 1459.89 771.476 1459.74C771.852 1459.59 772.255 1459.52 772.659 1459.54C773.038 1459.52 773.417 1459.58 773.775 1459.7C774.133 1459.83 774.462 1460.02 774.744 1460.28C775.026 1460.53 775.255 1460.83 775.418 1461.17C775.581 1461.51 775.675 1461.88 775.694 1462.25C775.713 1462.63 775.658 1463.01 775.531 1463.36C775.403 1463.71 775.207 1464.04 774.953 1464.32C774.698 1464.6 774.391 1464.83 774.048 1464.99C773.705 1465.15 773.333 1465.24 772.954 1465.26L773.017 1465.22Z" fill="url(#paint37_radial_3120_7872)"/>
<path fill-rule="evenodd" clip-rule="evenodd" d="M1149 1436.76C1148.6 1436.78 1148.2 1436.64 1147.89 1436.37C1147.59 1436.1 1147.41 1435.72 1147.38 1435.32C1147.36 1435.02 1147.44 1434.72 1147.59 1434.46C1147.75 1434.2 1147.98 1434 1148.25 1433.87C1148.53 1433.74 1148.83 1433.69 1149.13 1433.73C1149.43 1433.77 1149.72 1433.9 1149.94 1434.11C1150.17 1434.31 1150.33 1434.57 1150.41 1434.86C1150.48 1435.15 1150.47 1435.46 1150.37 1435.75C1150.27 1436.03 1150.08 1436.28 1149.84 1436.46C1149.6 1436.64 1149.31 1436.75 1149 1436.76Z" fill="white"/>
<path style="mix-blend-mode:screen" opacity="0.61" fill-rule="evenodd" clip-rule="evenodd" d="M1149.23 1441.38C1148.01 1441.44 1146.8 1441.14 1145.76 1440.52C1144.71 1439.9 1143.87 1438.98 1143.35 1437.89C1142.82 1436.8 1142.64 1435.58 1142.82 1434.38C1142.99 1433.18 1143.52 1432.07 1144.34 1431.17C1145.16 1430.27 1146.23 1429.63 1147.41 1429.34C1148.59 1429.04 1149.84 1429.1 1150.99 1429.5C1152.14 1429.91 1153.14 1430.64 1153.88 1431.61C1154.61 1432.58 1155.03 1433.74 1155.09 1434.95C1155.17 1436.57 1154.6 1438.16 1153.5 1439.36C1152.41 1440.57 1150.87 1441.29 1149.23 1441.38Z" fill="url(#paint38_radial_3120_7872)"/>
<path style="mix-blend-mode:screen" opacity="0.61" fill-rule="evenodd" clip-rule="evenodd" d="M1149.07 1438.1C1148.49 1438.13 1147.93 1437.99 1147.44 1437.7C1146.95 1437.41 1146.55 1436.98 1146.31 1436.47C1146.07 1435.95 1145.98 1435.38 1146.06 1434.82C1146.15 1434.26 1146.4 1433.74 1146.78 1433.32C1147.17 1432.9 1147.67 1432.6 1148.23 1432.47C1148.78 1432.33 1149.36 1432.36 1149.9 1432.55C1150.44 1432.74 1150.91 1433.09 1151.25 1433.55C1151.59 1434 1151.78 1434.55 1151.81 1435.11C1151.83 1435.49 1151.77 1435.86 1151.64 1436.22C1151.52 1436.57 1151.32 1436.9 1151.06 1437.17C1150.81 1437.45 1150.5 1437.68 1150.16 1437.83C1149.82 1437.99 1149.44 1438.08 1149.07 1438.1Z" fill="url(#paint39_radial_3120_7872)"/>
<path fill-rule="evenodd" clip-rule="evenodd" d="M1104.97 782.12C1104.75 782.098 1104.55 782.013 1104.38 781.875C1104.22 781.738 1104.09 781.555 1104.03 781.348C1103.97 781.142 1103.97 780.922 1104.04 780.717C1104.1 780.512 1104.23 780.33 1104.39 780.195C1104.56 780.06 1104.77 779.978 1104.99 779.958C1105.2 779.939 1105.42 779.984 1105.61 780.088C1105.8 780.191 1105.95 780.348 1106.05 780.539C1106.15 780.73 1106.2 780.946 1106.17 781.159C1106.14 781.444 1106 781.705 1105.77 781.885C1105.55 782.064 1105.26 782.149 1104.97 782.12Z" fill="white"/>
<path style="mix-blend-mode:screen" opacity="0.61" fill-rule="evenodd" clip-rule="evenodd" d="M1104.59 785.376C1103.72 785.28 1102.91 784.931 1102.24 784.374C1101.57 783.817 1101.09 783.077 1100.85 782.248C1100.61 781.418 1100.62 780.536 1100.89 779.714C1101.15 778.891 1101.66 778.165 1102.34 777.627C1103.02 777.089 1103.85 776.764 1104.72 776.692C1105.58 776.62 1106.46 776.805 1107.22 777.223C1107.98 777.642 1108.6 778.275 1109 779.042C1109.4 779.81 1109.56 780.677 1109.46 781.535C1109.33 782.683 1108.74 783.733 1107.83 784.453C1106.91 785.173 1105.75 785.505 1104.59 785.376Z" fill="url(#paint40_radial_3120_7872)"/>
<path style="mix-blend-mode:screen" opacity="0.61" fill-rule="evenodd" clip-rule="evenodd" d="M1104.87 783.101C1104.33 783.028 1103.85 782.756 1103.51 782.341C1103.17 781.926 1103.01 781.398 1103.05 780.867C1103.09 780.451 1103.25 780.053 1103.51 779.727C1103.77 779.401 1104.13 779.161 1104.53 779.038C1104.94 778.915 1105.37 778.914 1105.77 779.037C1106.18 779.16 1106.53 779.399 1106.8 779.725C1107.06 780.051 1107.22 780.448 1107.26 780.865C1107.29 781.281 1107.2 781.699 1106.99 782.062C1106.78 782.426 1106.47 782.72 1106.09 782.905C1105.71 783.09 1105.28 783.158 1104.87 783.101Z" fill="url(#paint41_radial_3120_7872)"/>
<path opacity="0.3" d="M193.423 1134.29C190.028 1134.29 186.683 1135.09 183.664 1136.62C183.798 1135.65 183.869 1134.67 183.874 1133.68C183.964 1130.85 183.48 1128.04 182.45 1125.4C181.42 1122.76 179.865 1120.36 177.879 1118.33C175.892 1116.3 173.514 1114.68 170.885 1113.58C168.256 1112.48 165.43 1111.91 162.575 1111.91C159.721 1111.91 156.895 1112.48 154.266 1113.58C151.637 1114.68 149.259 1116.3 147.272 1118.33C145.285 1120.36 143.731 1122.76 142.701 1125.4C141.671 1128.04 141.187 1130.85 141.276 1133.68V1134.12C137.492 1130.13 132.572 1127.38 127.17 1126.24C121.769 1125.09 116.144 1125.61 111.044 1127.71C105.944 1129.81 101.613 1133.4 98.6268 1138.01C95.6407 1142.61 94.1419 1148 94.3303 1153.47C94.5186 1158.94 96.3851 1164.22 99.681 1168.61C102.977 1173 107.546 1176.29 112.778 1178.05C118.01 1179.8 123.658 1179.93 128.968 1178.42C134.278 1176.92 138.998 1173.84 142.499 1169.61C144.774 1171.87 147.49 1173.63 150.481 1174.81C153.471 1175.99 156.674 1176.54 159.89 1176.45C163.106 1176.35 166.268 1175.6 169.183 1174.25C172.097 1172.9 174.701 1170.97 176.834 1168.59C179.092 1171.36 182.022 1173.52 185.351 1174.87C188.68 1176.22 192.3 1176.71 195.872 1176.3C199.444 1175.88 202.852 1174.58 205.779 1172.51C208.706 1170.44 211.055 1167.67 212.608 1164.46C214.161 1161.24 214.867 1157.69 214.659 1154.14C214.452 1150.58 213.339 1147.13 211.423 1144.12C209.507 1141.1 206.851 1138.62 203.704 1136.9C200.556 1135.17 197.019 1134.27 193.423 1134.26V1134.29Z" fill="#F1F1F1"/>
<path opacity="0.3" d="M183.601 1306.46C183.253 1304.97 183.076 1303.44 183.074 1301.91C183.074 1289.72 194.329 1279.82 208.219 1279.82C212.328 1279.75 216.396 1280.64 220.089 1282.43C223.782 1284.21 226.995 1286.84 229.466 1290.09C231.974 1287.5 234.993 1285.45 238.336 1284.06C241.679 1282.67 245.274 1281.97 248.899 1282.01C262.811 1282.01 274.066 1291.91 274.066 1304.12C274.059 1307.01 273.419 1309.86 272.19 1312.48H272.359C288.715 1312.48 301.973 1324.13 301.973 1338.49C301.973 1352.85 288.715 1364.5 272.359 1364.5C265.645 1364.55 259.086 1362.5 253.621 1358.64C247.703 1362.51 240.754 1364.55 233.66 1364.5C225.261 1364.58 217.108 1361.7 210.664 1356.36C204.221 1361.7 196.068 1364.58 187.669 1364.5C169.352 1364.5 154.492 1351.47 154.492 1335.38C154.492 1320.49 167.202 1308.13 183.601 1306.46Z" fill="#F1F1F1"/>
<g opacity="0.5">
<path d="M329.668 1203.39L332.218 1241.05L334.516 1278.74L331.965 1241.07L329.668 1203.39Z" fill="white"/>
</g>
<g opacity="0.5">
<path d="M330.154 1203.12L338.29 1208.96L342.379 1211.89L344.487 1213.37C344.858 1213.61 345.12 1213.98 345.219 1214.4C345.317 1214.83 345.244 1215.27 345.014 1215.65C342.59 1217.98 340.04 1220.11 337.553 1222.35L333.822 1225.69C333.211 1226.25 332.41 1226.73 332.473 1227.57C332.536 1228.4 333.232 1228.84 333.864 1229.38L337.679 1232.64L339.597 1234.27C339.947 1234.55 340.171 1234.95 340.223 1235.39C340.274 1235.83 340.148 1236.28 339.871 1236.63L333.211 1244.12C332.922 1244.41 332.749 1244.79 332.726 1245.19C332.759 1245.6 332.874 1245.99 333.063 1246.36L333.948 1248.7L335.761 1253.35L336.204 1254.5C336.409 1254.88 336.483 1255.31 336.414 1255.73C336.161 1256.52 335.782 1257.28 335.487 1258.05L333.569 1262.66L335.445 1258.05C335.761 1257.26 336.119 1256.5 336.372 1255.71C336.415 1255.3 336.335 1254.89 336.14 1254.52L335.698 1253.37L333.864 1248.72L332.937 1246.4C332.748 1246.02 332.634 1245.61 332.599 1245.19C332.619 1244.75 332.808 1244.34 333.126 1244.04L339.724 1236.5C339.848 1236.35 339.939 1236.17 339.993 1235.98C340.046 1235.79 340.06 1235.6 340.035 1235.4C340.009 1235.21 339.944 1235.02 339.844 1234.85C339.743 1234.68 339.609 1234.53 339.45 1234.41L337.532 1232.79L333.695 1229.57L332.726 1228.76C332.406 1228.43 332.224 1228 332.22 1227.55C332.214 1227.1 332.388 1226.66 332.705 1226.34L333.653 1225.5L337.426 1222.18C339.913 1219.97 342.506 1217.82 344.909 1215.54C345.116 1215.2 345.181 1214.79 345.091 1214.4C345.001 1214.01 344.762 1213.67 344.424 1213.45L342.316 1211.97L338.269 1209.01L330.154 1203.12Z" fill="white"/>
</g>
<path d="M378.779 1027.43L393.618 1012.11" stroke="#B8B7BE" stroke-width="0.68" stroke-miterlimit="10" stroke-linecap="round"/>
</g>
<path d="M1460.47 47.2227C1414 42.3963 1367.24 39.9777 1320.43 39.9798C1190.4 39.9798 1143.65 58.7208 1052.89 63.5192C892.539 71.9934 896.134 20.9492 724.743 20.0619C547.897 19.1566 541.376 73.4419 409.133 52.6549C301.261 35.6884 259.521 4.36298 150.625 8.34657C83.3017 10.791 30.9229 32.5016 -2.62378 47.2227L-3 180.618H1463L1460.47 47.2227Z" fill="#FFC648"/>
<path d="M1463 789.889C1299.05 824.51 1171.59 817.973 1087.17 806.331C938.773 785.851 922.575 749.492 796.916 748.804C622.243 747.844 592.981 817.756 452.044 794.072C337.191 774.734 314.952 721.354 216.464 722.856C123.788 724.269 48.4176 772.977 -2.28906 816V146.559H1463V789.889Z" fill="#FFC648"/>
</g>
<defs>
<linearGradient id="paint0_linear_3120_7872" x1="716.236" y1="2203.01" x2="721.634" y2="-107.47" gradientUnits="userSpaceOnUse">
<stop offset="0.185634" stop-color="#F7EA2F"/>
<stop offset="0.26" stop-color="#FBD9AB"/>
<stop offset="0.29" stop-color="#FCD4D1"/>
<stop offset="0.35" stop-color="#F0C9CF"/>
<stop offset="0.45" stop-color="#CEADC8"/>
<stop offset="0.56" stop-color="#A58AC0"/>
<stop offset="0.67" stop-color="#7F77B6"/>
</linearGradient>
<radialGradient id="paint1_radial_3120_7872" cx="0" cy="0" r="1" gradientUnits="userSpaceOnUse" gradientTransform="translate(596.422 811.02) rotate(65.5409) scale(6.63726 6.67914)">
<stop stop-color="#F47E20"/>
<stop offset="0.1" stop-color="#CF6B1B"/>
<stop offset="0.29" stop-color="#914B13"/>
<stop offset="0.46" stop-color="#5D300C"/>
<stop offset="0.63" stop-color="#351B07"/>
<stop offset="0.78" stop-color="#180C03"/>
<stop offset="0.91" stop-color="#060301"/>
<stop offset="1"/>
</radialGradient>
<radialGradient id="paint2_radial_3120_7872" cx="0" cy="0" r="1" gradientUnits="userSpaceOnUse" gradientTransform="translate(596.423 811.02) rotate(65.541) scale(3.08904 3.10851)">
<stop stop-color="#F47E20"/>
<stop offset="0.1" stop-color="#CF6B1B"/>
<stop offset="0.29" stop-color="#914B13"/>
<stop offset="0.46" stop-color="#5D300C"/>
<stop offset="0.63" stop-color="#351B07"/>
<stop offset="0.78" stop-color="#180C03"/>
<stop offset="0.91" stop-color="#060301"/>
<stop offset="1"/>
</radialGradient>
<radialGradient id="paint3_radial_3120_7872" cx="0" cy="0" r="1" gradientUnits="userSpaceOnUse" gradientTransform="translate(853.846 1308.57) rotate(65.5409) scale(12.5231 12.6021)">
<stop stop-color="#F47E20"/>
<stop offset="0.1" stop-color="#CF6B1B"/>
<stop offset="0.29" stop-color="#914B13"/>
<stop offset="0.46" stop-color="#5D300C"/>
<stop offset="0.63" stop-color="#351B07"/>
<stop offset="0.78" stop-color="#180C03"/>
<stop offset="0.91" stop-color="#060301"/>
<stop offset="1"/>
</radialGradient>
<radialGradient id="paint4_radial_3120_7872" cx="0" cy="0" r="1" gradientUnits="userSpaceOnUse" gradientTransform="translate(853.846 1308.57) rotate(65.5409) scale(5.84411 5.88097)">
<stop stop-color="#F47E20"/>
<stop offset="0.1" stop-color="#CF6B1B"/>
<stop offset="0.29" stop-color="#914B13"/>
<stop offset="0.46" stop-color="#5D300C"/>
<stop offset="0.63" stop-color="#351B07"/>
<stop offset="0.78" stop-color="#180C03"/>
<stop offset="0.91" stop-color="#060301"/>
<stop offset="1"/>
</radialGradient>
<radialGradient id="paint5_radial_3120_7872" cx="0" cy="0" r="1" gradientUnits="userSpaceOnUse" gradientTransform="translate(175.843 786.204) rotate(65.5409) scale(12.5231 12.6021)">
<stop stop-color="#F47E20"/>
<stop offset="0.1" stop-color="#CF6B1B"/>
<stop offset="0.29" stop-color="#914B13"/>
<stop offset="0.46" stop-color="#5D300C"/>
<stop offset="0.63" stop-color="#351B07"/>
<stop offset="0.78" stop-color="#180C03"/>
<stop offset="0.91" stop-color="#060301"/>
<stop offset="1"/>
</radialGradient>
<radialGradient id="paint6_radial_3120_7872" cx="0" cy="0" r="1" gradientUnits="userSpaceOnUse" gradientTransform="translate(175.843 786.204) rotate(65.5409) scale(5.84412 5.88099)">
<stop stop-color="#F47E20"/>
<stop offset="0.1" stop-color="#CF6B1B"/>
<stop offset="0.29" stop-color="#914B13"/>
<stop offset="0.46" stop-color="#5D300C"/>
<stop offset="0.63" stop-color="#351B07"/>
<stop offset="0.78" stop-color="#180C03"/>
<stop offset="0.91" stop-color="#060301"/>
<stop offset="1"/>
</radialGradient>
<radialGradient id="paint7_radial_3120_7872" cx="0" cy="0" r="1" gradientUnits="userSpaceOnUse" gradientTransform="translate(389.027 1235.3) rotate(65.5409) scale(12.5231 12.6021)">
<stop stop-color="#F47E20"/>
<stop offset="0.1" stop-color="#CF6B1B"/>
<stop offset="0.29" stop-color="#914B13"/>
<stop offset="0.46" stop-color="#5D300C"/>
<stop offset="0.63" stop-color="#351B07"/>
<stop offset="0.78" stop-color="#180C03"/>
<stop offset="0.91" stop-color="#060301"/>
<stop offset="1"/>
</radialGradient>
<radialGradient id="paint8_radial_3120_7872" cx="0" cy="0" r="1" gradientUnits="userSpaceOnUse" gradientTransform="translate(389.027 1235.3) rotate(65.5409) scale(5.84413 5.881)">
<stop stop-color="#F47E20"/>
<stop offset="0.1" stop-color="#CF6B1B"/>
<stop offset="0.29" stop-color="#914B13"/>
<stop offset="0.46" stop-color="#5D300C"/>
<stop offset="0.63" stop-color="#351B07"/>
<stop offset="0.78" stop-color="#180C03"/>
<stop offset="0.91" stop-color="#060301"/>
<stop offset="1"/>
</radialGradient>
<radialGradient id="paint9_radial_3120_7872" cx="0" cy="0" r="1" gradientUnits="userSpaceOnUse" gradientTransform="translate(346.842 1382.3) rotate(65.5409) scale(12.5231 12.6021)">
<stop stop-color="#F47E20"/>
<stop offset="0.1" stop-color="#CF6B1B"/>
<stop offset="0.29" stop-color="#914B13"/>
<stop offset="0.46" stop-color="#5D300C"/>
<stop offset="0.63" stop-color="#351B07"/>
<stop offset="0.78" stop-color="#180C03"/>
<stop offset="0.91" stop-color="#060301"/>
<stop offset="1"/>
</radialGradient>
<radialGradient id="paint10_radial_3120_7872" cx="0" cy="0" r="1" gradientUnits="userSpaceOnUse" gradientTransform="translate(346.842 1382.3) rotate(65.5409) scale(5.84413 5.88099)">
<stop stop-color="#F47E20"/>
<stop offset="0.1" stop-color="#CF6B1B"/>
<stop offset="0.29" stop-color="#914B13"/>
<stop offset="0.46" stop-color="#5D300C"/>
<stop offset="0.63" stop-color="#351B07"/>
<stop offset="0.78" stop-color="#180C03"/>
<stop offset="0.91" stop-color="#060301"/>
<stop offset="1"/>
</radialGradient>
<radialGradient id="paint11_radial_3120_7872" cx="0" cy="0" r="1" gradientUnits="userSpaceOnUse" gradientTransform="translate(6.449 1241.48) rotate(65.5409) scale(6.01111 6.04903)">
<stop stop-color="#F47E20"/>
<stop offset="0.1" stop-color="#CF6B1B"/>
<stop offset="0.29" stop-color="#914B13"/>
<stop offset="0.46" stop-color="#5D300C"/>
<stop offset="0.63" stop-color="#351B07"/>
<stop offset="0.78" stop-color="#180C03"/>
<stop offset="0.91" stop-color="#060301"/>
<stop offset="1"/>
</radialGradient>
<radialGradient id="paint12_radial_3120_7872" cx="0" cy="0" r="1" gradientUnits="userSpaceOnUse" gradientTransform="translate(6.44803 1241.47) rotate(65.541) scale(2.79684 2.81448)">
<stop stop-color="#F47E20"/>
<stop offset="0.1" stop-color="#CF6B1B"/>
<stop offset="0.29" stop-color="#914B13"/>
<stop offset="0.46" stop-color="#5D300C"/>
<stop offset="0.63" stop-color="#351B07"/>
<stop offset="0.78" stop-color="#180C03"/>
<stop offset="0.91" stop-color="#060301"/>
<stop offset="1"/>
</radialGradient>
<radialGradient id="paint13_radial_3120_7872" cx="0" cy="0" r="1" gradientUnits="userSpaceOnUse" gradientTransform="translate(52.2261 1072.65) rotate(65.5409) scale(5.96936 6.00702)">
<stop stop-color="#F47E20"/>
<stop offset="0.1" stop-color="#CF6B1B"/>
<stop offset="0.29" stop-color="#914B13"/>
<stop offset="0.46" stop-color="#5D300C"/>
<stop offset="0.63" stop-color="#351B07"/>
<stop offset="0.78" stop-color="#180C03"/>
<stop offset="0.91" stop-color="#060301"/>
<stop offset="1"/>
</radialGradient>
<radialGradient id="paint14_radial_3120_7872" cx="0" cy="0" r="1" gradientUnits="userSpaceOnUse" gradientTransform="translate(52.2259 1072.65) rotate(65.541) scale(2.77596 2.79347)">
<stop stop-color="#F47E20"/>
<stop offset="0.1" stop-color="#CF6B1B"/>
<stop offset="0.29" stop-color="#914B13"/>
<stop offset="0.46" stop-color="#5D300C"/>
<stop offset="0.63" stop-color="#351B07"/>
<stop offset="0.78" stop-color="#180C03"/>
<stop offset="0.91" stop-color="#060301"/>
<stop offset="1"/>
</radialGradient>
<radialGradient id="paint15_radial_3120_7872" cx="0" cy="0" r="1" gradientUnits="userSpaceOnUse" gradientTransform="translate(196.489 1239.9) rotate(65.5409) scale(8.14002 8.19139)">
<stop stop-color="#F47E20"/>
<stop offset="0.1" stop-color="#CF6B1B"/>
<stop offset="0.29" stop-color="#914B13"/>
<stop offset="0.46" stop-color="#5D300C"/>
<stop offset="0.63" stop-color="#351B07"/>
<stop offset="0.78" stop-color="#180C03"/>
<stop offset="0.91" stop-color="#060301"/>
<stop offset="1"/>
</radialGradient>
<radialGradient id="paint16_radial_3120_7872" cx="0" cy="0" r="1" gradientUnits="userSpaceOnUse" gradientTransform="translate(196.489 1239.9) rotate(65.5409) scale(3.79868 3.82264)">
<stop stop-color="#F47E20"/>
<stop offset="0.1" stop-color="#CF6B1B"/>
<stop offset="0.29" stop-color="#914B13"/>
<stop offset="0.46" stop-color="#5D300C"/>
<stop offset="0.63" stop-color="#351B07"/>
<stop offset="0.78" stop-color="#180C03"/>
<stop offset="0.91" stop-color="#060301"/>
<stop offset="1"/>
</radialGradient>
<radialGradient id="paint17_radial_3120_7872" cx="0" cy="0" r="1" gradientUnits="userSpaceOnUse" gradientTransform="translate(76.3013 913.684) rotate(65.5409) scale(8.14003 8.19139)">
<stop stop-color="#F47E20"/>
<stop offset="0.1" stop-color="#CF6B1B"/>
<stop offset="0.29" stop-color="#914B13"/>
<stop offset="0.46" stop-color="#5D300C"/>
<stop offset="0.63" stop-color="#351B07"/>
<stop offset="0.78" stop-color="#180C03"/>
<stop offset="0.91" stop-color="#060301"/>
<stop offset="1"/>
</radialGradient>
<radialGradient id="paint18_radial_3120_7872" cx="0" cy="0" r="1" gradientUnits="userSpaceOnUse" gradientTransform="translate(76.3015 913.684) rotate(65.5409) scale(3.79869 3.82265)">
<stop stop-color="#F47E20"/>
<stop offset="0.1" stop-color="#CF6B1B"/>
<stop offset="0.29" stop-color="#914B13"/>
<stop offset="0.46" stop-color="#5D300C"/>
<stop offset="0.63" stop-color="#351B07"/>
<stop offset="0.78" stop-color="#180C03"/>
<stop offset="0.91" stop-color="#060301"/>
<stop offset="1"/>
</radialGradient>
<radialGradient id="paint19_radial_3120_7872" cx="0" cy="0" r="1" gradientUnits="userSpaceOnUse" gradientTransform="translate(416.682 830.62) rotate(65.5409) scale(5.21798 5.2509)">
<stop stop-color="#F47E20"/>
<stop offset="0.1" stop-color="#CF6B1B"/>
<stop offset="0.29" stop-color="#914B13"/>
<stop offset="0.46" stop-color="#5D300C"/>
<stop offset="0.63" stop-color="#351B07"/>
<stop offset="0.78" stop-color="#180C03"/>
<stop offset="0.91" stop-color="#060301"/>
<stop offset="1"/>
</radialGradient>
<radialGradient id="paint20_radial_3120_7872" cx="0" cy="0" r="1" gradientUnits="userSpaceOnUse" gradientTransform="translate(416.684 830.62) rotate(65.541) scale(2.44201 2.45741)">
<stop stop-color="#F47E20"/>
<stop offset="0.1" stop-color="#CF6B1B"/>
<stop offset="0.29" stop-color="#914B13"/>
<stop offset="0.46" stop-color="#5D300C"/>
<stop offset="0.63" stop-color="#351B07"/>
<stop offset="0.78" stop-color="#180C03"/>
<stop offset="0.91" stop-color="#060301"/>
<stop offset="1"/>
</radialGradient>
<radialGradient id="paint21_radial_3120_7872" cx="0" cy="0" r="1" gradientUnits="userSpaceOnUse" gradientTransform="translate(217.746 1045.61) rotate(56.2177) scale(5.79596 5.8173)">
<stop stop-color="#F47E20"/>
<stop offset="0.1" stop-color="#CF6B1B"/>
<stop offset="0.29" stop-color="#914B13"/>
<stop offset="0.46" stop-color="#5D300C"/>
<stop offset="0.63" stop-color="#351B07"/>
<stop offset="0.78" stop-color="#180C03"/>
<stop offset="0.91" stop-color="#060301"/>
<stop offset="1"/>
</radialGradient>
<radialGradient id="paint22_radial_3120_7872" cx="0" cy="0" r="1" gradientUnits="userSpaceOnUse" gradientTransform="translate(217.745 1045.61) rotate(56.2177) scale(2.71034 2.72032)">
<stop stop-color="#F47E20"/>
<stop offset="0.1" stop-color="#CF6B1B"/>
<stop offset="0.29" stop-color="#914B13"/>
<stop offset="0.46" stop-color="#5D300C"/>
<stop offset="0.63" stop-color="#351B07"/>
<stop offset="0.78" stop-color="#180C03"/>
<stop offset="0.91" stop-color="#060301"/>
<stop offset="1"/>
</radialGradient>
<radialGradient id="paint23_radial_3120_7872" cx="0" cy="0" r="1" gradientUnits="userSpaceOnUse" gradientTransform="translate(1432.15 804.429) rotate(-92.8898) scale(4.99614 5.04379)">
<stop stop-color="#F47E20"/>
<stop offset="0.1" stop-color="#CF6B1B"/>
<stop offset="0.29" stop-color="#914B13"/>
<stop offset="0.46" stop-color="#5D300C"/>
<stop offset="0.63" stop-color="#351B07"/>
<stop offset="0.78" stop-color="#180C03"/>
<stop offset="0.91" stop-color="#060301"/>
<stop offset="1"/>
</radialGradient>
<radialGradient id="paint24_radial_3120_7872" cx="0" cy="0" r="1" gradientUnits="userSpaceOnUse" gradientTransform="translate(1432.15 804.429) rotate(-92.8897) scale(2.34129 2.36358)">
<stop stop-color="#F47E20"/>
<stop offset="0.1" stop-color="#CF6B1B"/>
<stop offset="0.29" stop-color="#914B13"/>
<stop offset="0.46" stop-color="#5D300C"/>
<stop offset="0.63" stop-color="#351B07"/>
<stop offset="0.78" stop-color="#180C03"/>
<stop offset="0.91" stop-color="#060301"/>
<stop offset="1"/>
</radialGradient>
<radialGradient id="paint25_radial_3120_7872" cx="0" cy="0" r="1" gradientUnits="userSpaceOnUse" gradientTransform="translate(490.099 1422.45) rotate(-92.8898) scale(9.42787 9.5177)">
<stop stop-color="#F47E20"/>
<stop offset="0.1" stop-color="#CF6B1B"/>
<stop offset="0.29" stop-color="#914B13"/>
<stop offset="0.46" stop-color="#5D300C"/>
<stop offset="0.63" stop-color="#351B07"/>
<stop offset="0.78" stop-color="#180C03"/>
<stop offset="0.91" stop-color="#060301"/>
<stop offset="1"/>
</radialGradient>
<radialGradient id="paint26_radial_3120_7872" cx="0" cy="0" r="1" gradientUnits="userSpaceOnUse" gradientTransform="translate(490.097 1422.45) rotate(-92.8898) scale(4.38991 4.43175)">
<stop stop-color="#F47E20"/>
<stop offset="0.1" stop-color="#CF6B1B"/>
<stop offset="0.29" stop-color="#914B13"/>
<stop offset="0.46" stop-color="#5D300C"/>
<stop offset="0.63" stop-color="#351B07"/>
<stop offset="0.78" stop-color="#180C03"/>
<stop offset="0.91" stop-color="#060301"/>
<stop offset="1"/>
</radialGradient>
<radialGradient id="paint27_radial_3120_7872" cx="0" cy="0" r="1" gradientUnits="userSpaceOnUse" gradientTransform="translate(1341.27 919.67) rotate(-92.8898) scale(15.6365 15.7854)">
<stop stop-color="#F47E20"/>
<stop offset="0.1" stop-color="#CF6B1B"/>
<stop offset="0.29" stop-color="#914B13"/>
<stop offset="0.46" stop-color="#5D300C"/>
<stop offset="0.63" stop-color="#351B07"/>
<stop offset="0.78" stop-color="#180C03"/>
<stop offset="0.91" stop-color="#060301"/>
<stop offset="1"/>
</radialGradient>
<radialGradient id="paint28_radial_3120_7872" cx="0" cy="0" r="1" gradientUnits="userSpaceOnUse" gradientTransform="translate(1341.27 919.671) rotate(-92.8898) scale(7.29563 7.36511)">
<stop stop-color="#F47E20"/>
<stop offset="0.1" stop-color="#CF6B1B"/>
<stop offset="0.29" stop-color="#914B13"/>
<stop offset="0.46" stop-color="#5D300C"/>
<stop offset="0.63" stop-color="#351B07"/>
<stop offset="0.78" stop-color="#180C03"/>
<stop offset="0.91" stop-color="#060301"/>
<stop offset="1"/>
</radialGradient>
<radialGradient id="paint29_radial_3120_7872" cx="0" cy="0" r="1" gradientUnits="userSpaceOnUse" gradientTransform="translate(422.779 1171.36) rotate(-92.8898) scale(6.22948 6.28885)">
<stop stop-color="#F47E20"/>
<stop offset="0.1" stop-color="#CF6B1B"/>
<stop offset="0.29" stop-color="#914B13"/>
<stop offset="0.46" stop-color="#5D300C"/>
<stop offset="0.63" stop-color="#351B07"/>
<stop offset="0.78" stop-color="#180C03"/>
<stop offset="0.91" stop-color="#060301"/>
<stop offset="1"/>
</radialGradient>
<radialGradient id="paint30_radial_3120_7872" cx="0" cy="0" r="1" gradientUnits="userSpaceOnUse" gradientTransform="translate(422.78 1171.36) rotate(-92.8898) scale(2.90572 2.93339)">
<stop stop-color="#F47E20"/>
<stop offset="0.1" stop-color="#CF6B1B"/>
<stop offset="0.29" stop-color="#914B13"/>
<stop offset="0.46" stop-color="#5D300C"/>
<stop offset="0.63" stop-color="#351B07"/>
<stop offset="0.78" stop-color="#180C03"/>
<stop offset="0.91" stop-color="#060301"/>
<stop offset="1"/>
</radialGradient>
<radialGradient id="paint31_radial_3120_7872" cx="0" cy="0" r="1" gradientUnits="userSpaceOnUse" gradientTransform="translate(1445.23 1244) rotate(-92.8898) scale(7.98545 8.0615)">
<stop stop-color="#F47E20"/>
<stop offset="0.1" stop-color="#CF6B1B"/>
<stop offset="0.29" stop-color="#914B13"/>
<stop offset="0.46" stop-color="#5D300C"/>
<stop offset="0.63" stop-color="#351B07"/>
<stop offset="0.78" stop-color="#180C03"/>
<stop offset="0.91" stop-color="#060301"/>
<stop offset="1"/>
</radialGradient>
<radialGradient id="paint32_radial_3120_7872" cx="0" cy="0" r="1" gradientUnits="userSpaceOnUse" gradientTransform="translate(835.681 909.988) rotate(-92.8898) scale(4.28539 4.32622)">
<stop stop-color="#F47E20"/>
<stop offset="0.1" stop-color="#CF6B1B"/>
<stop offset="0.29" stop-color="#914B13"/>
<stop offset="0.46" stop-color="#5D300C"/>
<stop offset="0.63" stop-color="#351B07"/>
<stop offset="0.78" stop-color="#180C03"/>
<stop offset="0.91" stop-color="#060301"/>
<stop offset="1"/>
</radialGradient>
<radialGradient id="paint33_radial_3120_7872" cx="0" cy="0" r="1" gradientUnits="userSpaceOnUse" gradientTransform="translate(835.681 909.988) rotate(-92.8898) scale(2.00682 2.02594)">
<stop stop-color="#F47E20"/>
<stop offset="0.1" stop-color="#CF6B1B"/>
<stop offset="0.29" stop-color="#914B13"/>
<stop offset="0.46" stop-color="#5D300C"/>
<stop offset="0.63" stop-color="#351B07"/>
<stop offset="0.78" stop-color="#180C03"/>
<stop offset="0.91" stop-color="#060301"/>
<stop offset="1"/>
</radialGradient>
<radialGradient id="paint34_radial_3120_7872" cx="0" cy="0" r="1" gradientUnits="userSpaceOnUse" gradientTransform="translate(871.49 819.45) rotate(-92.8898) scale(4.49443 4.53727)">
<stop stop-color="#F47E20"/>
<stop offset="0.1" stop-color="#CF6B1B"/>
<stop offset="0.29" stop-color="#914B13"/>
<stop offset="0.46" stop-color="#5D300C"/>
<stop offset="0.63" stop-color="#351B07"/>
<stop offset="0.78" stop-color="#180C03"/>
<stop offset="0.91" stop-color="#060301"/>
<stop offset="1"/>
</radialGradient>
<radialGradient id="paint35_radial_3120_7872" cx="0" cy="0" r="1" gradientUnits="userSpaceOnUse" gradientTransform="translate(871.491 819.45) rotate(-92.8898) scale(2.09043 2.11035)">
<stop stop-color="#F47E20"/>
<stop offset="0.1" stop-color="#CF6B1B"/>
<stop offset="0.29" stop-color="#914B13"/>
<stop offset="0.46" stop-color="#5D300C"/>
<stop offset="0.63" stop-color="#351B07"/>
<stop offset="0.78" stop-color="#180C03"/>
<stop offset="0.91" stop-color="#060301"/>
<stop offset="1"/>
</radialGradient>
<radialGradient id="paint36_radial_3120_7872" cx="0" cy="0" r="1" gradientUnits="userSpaceOnUse" gradientTransform="translate(771.646 1463.62) rotate(-92.8898) scale(6.12497 6.18335)">
<stop stop-color="#F47E20"/>
<stop offset="0.1" stop-color="#CF6B1B"/>
<stop offset="0.29" stop-color="#914B13"/>
<stop offset="0.46" stop-color="#5D300C"/>
<stop offset="0.63" stop-color="#351B07"/>
<stop offset="0.78" stop-color="#180C03"/>
<stop offset="0.91" stop-color="#060301"/>
<stop offset="1"/>
</radialGradient>
<radialGradient id="paint37_radial_3120_7872" cx="0" cy="0" r="1" gradientUnits="userSpaceOnUse" gradientTransform="translate(771.646 1463.62) rotate(-92.8898) scale(2.86389 2.89118)">
<stop stop-color="#F47E20"/>
<stop offset="0.1" stop-color="#CF6B1B"/>
<stop offset="0.29" stop-color="#914B13"/>
<stop offset="0.46" stop-color="#5D300C"/>
<stop offset="0.63" stop-color="#351B07"/>
<stop offset="0.78" stop-color="#180C03"/>
<stop offset="0.91" stop-color="#060301"/>
<stop offset="1"/>
</radialGradient>
<radialGradient id="paint38_radial_3120_7872" cx="0" cy="0" r="1" gradientUnits="userSpaceOnUse" gradientTransform="translate(1148.15 1436.49) rotate(-92.8898) scale(6.12497 6.18335)">
<stop stop-color="#F47E20"/>
<stop offset="0.1" stop-color="#CF6B1B"/>
<stop offset="0.29" stop-color="#914B13"/>
<stop offset="0.46" stop-color="#5D300C"/>
<stop offset="0.63" stop-color="#351B07"/>
<stop offset="0.78" stop-color="#180C03"/>
<stop offset="0.91" stop-color="#060301"/>
<stop offset="1"/>
</radialGradient>
<radialGradient id="paint39_radial_3120_7872" cx="0" cy="0" r="1" gradientUnits="userSpaceOnUse" gradientTransform="translate(1148.15 1436.49) rotate(-92.8898) scale(2.8639 2.89121)">
<stop stop-color="#F47E20"/>
<stop offset="0.1" stop-color="#CF6B1B"/>
<stop offset="0.29" stop-color="#914B13"/>
<stop offset="0.46" stop-color="#5D300C"/>
<stop offset="0.63" stop-color="#351B07"/>
<stop offset="0.78" stop-color="#180C03"/>
<stop offset="0.91" stop-color="#060301"/>
<stop offset="1"/>
</radialGradient>
<radialGradient id="paint40_radial_3120_7872" cx="0" cy="0" r="1" gradientUnits="userSpaceOnUse" gradientTransform="translate(1107.76 778.973) rotate(-83.5996) scale(4.34691 4.38748)">
<stop stop-color="#F47E20"/>
<stop offset="0.1" stop-color="#CF6B1B"/>
<stop offset="0.29" stop-color="#914B13"/>
<stop offset="0.46" stop-color="#5D300C"/>
<stop offset="0.63" stop-color="#351B07"/>
<stop offset="0.78" stop-color="#180C03"/>
<stop offset="0.91" stop-color="#060301"/>
<stop offset="1"/>
</radialGradient>
<radialGradient id="paint41_radial_3120_7872" cx="0" cy="0" r="1" gradientUnits="userSpaceOnUse" gradientTransform="translate(1107.77 778.974) rotate(-83.5996) scale(2.03827 2.05731)">
<stop stop-color="#F47E20"/>
<stop offset="0.1" stop-color="#CF6B1B"/>
<stop offset="0.29" stop-color="#914B13"/>
<stop offset="0.46" stop-color="#5D300C"/>
<stop offset="0.63" stop-color="#351B07"/>
<stop offset="0.78" stop-color="#180C03"/>
<stop offset="0.91" stop-color="#060301"/>
<stop offset="1"/>
</radialGradient>
</defs>
</svg>
