<svg width="360" height="1076" viewBox="0 0 360 1076" fill="none" xmlns="http://www.w3.org/2000/svg">
<mask id="mask0_3126_14665" style="mask-type:alpha" maskUnits="userSpaceOnUse" x="0" y="0" width="360" height="1076">
<rect width="360" height="1076" fill="white"/>
</mask>
<g mask="url(#mask0_3126_14665)">
<mask id="mask1_3126_14665" style="mask-type:luminance" maskUnits="userSpaceOnUse" x="-11" y="398" width="440" height="666">
<path d="M-11 398V919.797H-10.7708V1042.81C23.5215 1027.44 89.3174 1005.4 147.193 1014.2C207.182 1023.31 259.353 1059.96 306.684 1063.06C390.728 1068.56 428.14 1020.66 428.14 1020.66L427.834 398H-11Z" fill="white"/>
</mask>
<g mask="url(#mask1_3126_14665)">
<path d="M746.182 389.556H-329.613V1173.4H746.182V389.556Z" fill="url(#paint0_linear_3126_14665)" stroke="#221F1F" stroke-width="0.55" stroke-miterlimit="10"/>
<g opacity="0.63">
<path d="M-109.379 985.398C-103.709 974.892 -94.5587 966.4 -83.3052 961.201C-72.0517 956.003 -59.3046 954.379 -46.9834 956.574C-43.7306 957.153 -40.5357 957.989 -37.433 959.074C-31.1112 950.9 -22.3789 944.645 -12.3147 941.08C-2.25038 937.515 8.70517 936.797 19.1991 939.014C29.693 941.232 39.2657 946.287 46.735 953.557C54.2043 960.826 59.243 969.992 61.229 979.92C71.4859 979.967 81.4958 982.882 89.9821 988.293C98.8588 981.399 109.935 977.49 121.448 977.189C132.962 976.888 144.252 980.211 153.524 986.63C160.049 982.194 167.588 979.253 175.54 978.044C183.491 976.835 191.633 977.39 199.315 979.666C206.997 981.942 214.005 985.876 219.778 991.151C225.551 996.427 229.93 1002.9 232.563 1010.05C234.836 1010.2 237.098 1010.48 239.338 1010.87C250.576 1012.88 260.919 1018 269.04 1025.57C277.161 1033.13 282.689 1042.81 284.916 1053.35C287.142 1063.89 285.965 1074.81 281.536 1084.72C277.106 1094.62 269.626 1103.06 260.056 1108.95C259.903 1110.32 259.674 1111.71 259.393 1113.08C256.82 1125.8 249.466 1137.22 238.672 1145.26C227.878 1153.3 214.365 1157.43 200.599 1156.9C186.833 1156.36 173.732 1151.19 163.687 1142.33C153.642 1133.47 147.323 1121.52 145.884 1108.65C138.678 1112.9 130.556 1115.59 122.106 1116.53C113.656 1117.48 105.089 1116.64 97.0238 1114.1C88.9585 1111.55 81.5965 1107.35 75.47 1101.8C69.3434 1096.26 64.6054 1089.5 61.5983 1082.02C56.6978 1086.44 50.9173 1089.9 44.5885 1092.22C38.2596 1094.53 31.5069 1095.65 24.7174 1095.5C17.928 1095.36 11.2355 1093.96 5.02365 1091.38C-1.18815 1088.8 -6.79703 1085.1 -11.4813 1080.48C-21.2634 1084.74 -32.2227 1085.99 -42.8066 1084.07C-50.911 1082.64 -58.5287 1079.39 -65.0145 1074.61C-71.5797 1081.75 -80.0252 1087.14 -89.5067 1090.26C-98.9882 1093.37 -109.173 1094.09 -119.044 1092.35C-126.452 1091.03 -133.511 1088.35 -139.817 1084.46C-146.123 1080.58 -151.553 1075.57 -155.797 1069.72C-160.041 1063.86 -163.015 1057.28 -164.551 1050.35C-166.086 1043.41 -166.153 1036.26 -164.746 1029.3C-162.293 1017.12 -155.449 1006.11 -145.366 998.114C-135.282 990.118 -122.574 985.627 -109.379 985.398Z" fill="white"/>
<path d="M-384.903 891.308C-376.823 880.611 -365.261 872.669 -351.958 868.681C-338.656 864.692 -324.333 864.872 -311.149 869.194C-307.666 870.336 -304.292 871.752 -301.063 873.428C-292.918 865.629 -282.578 860.17 -271.251 857.688C-259.925 855.205 -248.08 855.803 -237.101 859.41C-225.452 863.229 -215.3 870.261 -207.973 879.586C-200.646 888.911 -196.486 900.095 -196.034 911.676C-192.569 912.182 -189.159 912.983 -185.847 914.068C-178.433 916.494 -171.628 920.324 -165.855 925.323C-158.627 921.205 -150.518 918.641 -142.11 917.814C-133.703 916.987 -125.204 917.917 -117.225 920.539C-109.08 923.194 -101.679 927.544 -95.577 933.264C-88.634 929.874 -81.0253 927.856 -73.22 927.333C-65.4147 926.811 -57.5782 927.795 -50.1935 930.226C-40.6376 933.359 -32.1334 938.809 -25.5431 946.024C-18.9528 953.239 -14.5106 961.962 -12.6668 971.309C-10.1858 971.817 -7.74049 972.468 -5.34488 973.259C10.6615 978.507 23.7926 989.512 31.1597 1003.85C38.5269 1018.2 39.5267 1034.7 33.9391 1049.73C31.117 1057.36 26.6818 1064.37 20.9003 1070.34C15.1187 1076.32 8.11018 1081.13 0.296255 1084.5C-0.119717 1085.98 -0.603623 1087.47 -1.15542 1088.95C-3.92336 1096.39 -8.22542 1103.25 -13.816 1109.14C-19.4065 1115.02 -26.176 1119.81 -33.7379 1123.23C-41.2998 1126.66 -49.506 1128.65 -57.8878 1129.1C-66.2696 1129.54 -74.663 1128.44 -82.5885 1125.83C-95.5616 1121.58 -106.73 1113.51 -114.441 1102.82C-122.151 1092.14 -125.994 1079.41 -125.4 1066.51C-140.191 1072.63 -156.908 1073.24 -172.158 1068.21C-182.496 1064.82 -191.732 1058.98 -198.979 1051.27C-206.226 1043.56 -211.241 1034.23 -213.544 1024.17C-221.023 1029.16 -229.668 1032.39 -238.752 1033.6C-247.837 1034.8 -257.096 1033.94 -265.752 1031.09C-277.08 1027.38 -286.879 1020.42 -293.767 1011.2C-305.281 1014.38 -317.57 1014.1 -328.9 1010.37C-337.573 1007.54 -345.395 1002.79 -351.706 996.521C-360.202 1003.34 -370.452 1007.94 -381.434 1009.87C-392.416 1011.81 -403.746 1011 -414.293 1007.54C-430.299 1002.29 -443.43 991.283 -450.797 976.942C-458.165 962.6 -459.164 946.097 -453.577 931.063C-448.74 918.032 -439.27 906.964 -426.762 899.723C-414.254 892.482 -399.471 889.51 -384.903 891.308Z" fill="white"/>
<path d="M508.172 940.291C501.129 930.546 490.905 923.214 479.04 919.4C467.175 915.586 454.313 915.497 442.389 919.145C439.241 920.091 436.186 921.292 433.259 922.733C425.875 915.376 416.356 910.214 405.88 907.885C395.404 905.556 384.431 906.164 374.319 909.632C364.207 913.101 355.4 919.278 348.987 927.399C342.574 935.52 338.837 945.229 338.239 955.325C328.066 956.583 318.524 960.664 310.835 967.046C301.094 961.272 289.576 958.724 278.115 959.807C266.653 960.891 255.907 965.544 247.586 973.026C240.514 969.404 232.638 967.387 224.587 967.137C216.536 966.887 208.535 968.411 201.224 971.587C193.912 974.763 187.495 979.503 182.484 985.427C177.473 991.35 174.008 998.294 172.367 1005.7C170.131 1006.11 167.923 1006.66 165.759 1007.33C154.877 1010.66 145.304 1016.97 138.268 1025.45C131.233 1033.92 127.056 1044.18 126.275 1054.91C125.493 1065.63 128.142 1076.33 133.882 1085.63C139.622 1094.93 148.191 1102.41 158.488 1107.1C158.831 1108.45 159.239 1109.79 159.761 1111.13C163.99 1123.48 172.822 1133.99 184.634 1140.73C196.447 1147.46 210.449 1149.97 224.07 1147.78C237.691 1145.6 250.018 1138.88 258.789 1128.85C267.56 1118.83 272.186 1106.16 271.819 1093.19C279.54 1096.55 287.959 1098.25 296.468 1098.18C304.977 1098.11 313.362 1096.26 321.017 1092.77C328.672 1089.28 335.405 1084.24 340.729 1078C346.053 1071.77 349.835 1064.5 351.8 1056.72C357.26 1060.52 363.462 1063.26 370.051 1064.8C376.641 1066.33 383.489 1066.63 390.203 1065.68C396.917 1064.73 403.365 1062.54 409.178 1059.25C414.99 1055.95 420.054 1051.61 424.078 1046.47C433.149 1049.14 442.826 1049.4 452.046 1047.23C461.266 1045.06 469.671 1040.55 476.337 1034.19C483.487 1040.16 492.113 1044.36 501.43 1046.41C510.747 1048.45 520.46 1048.28 529.687 1045.9C538.914 1043.52 547.362 1039.01 554.263 1032.79C561.164 1026.56 566.3 1018.82 569.203 1010.25C572.106 1001.69 572.685 992.583 570.887 983.756C569.088 974.93 564.97 966.665 558.906 959.713C552.842 952.762 545.025 947.344 536.165 943.952C527.304 940.56 517.682 939.302 508.172 940.291Z" fill="white"/>
</g>
<path d="M89.4578 526.356L87.9935 526.715C87.7686 526.774 87.5307 526.774 87.3058 526.715L85.8669 526.273C85.6575 526.222 85.4377 526.222 85.2284 526.273C85.019 526.324 84.8269 526.424 84.6702 526.564C84.5134 526.704 84.3973 526.879 84.3326 527.073C84.268 527.267 84.257 527.473 84.3006 527.672L84.6826 529.047C84.753 529.258 84.753 529.483 84.6826 529.693L84.2242 531.057C84.17 531.253 84.1701 531.46 84.2243 531.656C84.2786 531.853 84.3853 532.033 84.5343 532.181C84.6834 532.328 84.87 532.437 85.0764 532.498C85.2828 532.558 85.5022 532.569 85.7141 532.528L87.1785 532.169C87.4023 532.103 87.6423 532.103 87.8661 532.169L89.305 532.599C89.514 532.652 89.7339 532.654 89.9438 532.605C90.1537 532.555 90.3468 532.457 90.5048 532.318C90.6628 532.179 90.7806 532.004 90.8469 531.811C90.9133 531.618 90.926 531.411 90.884 531.212L90.4893 529.837C90.4238 529.622 90.4238 529.394 90.4893 529.179L90.9477 527.827C91.0019 527.631 91.0019 527.424 90.9476 527.228C90.8934 527.031 90.7867 526.851 90.6376 526.703C90.4885 526.556 90.302 526.447 90.0956 526.386C89.8892 526.326 89.6697 526.315 89.4578 526.356Z" fill="#FFD255"/>
<path d="M326.415 560.618L324.95 560.976C324.726 561.036 324.488 561.036 324.263 560.976L322.824 560.534C322.615 560.483 322.395 560.483 322.185 560.534C321.976 560.585 321.784 560.685 321.627 560.825C321.47 560.965 321.354 561.14 321.29 561.334C321.225 561.528 321.214 561.734 321.258 561.933L321.64 563.309C321.71 563.519 321.71 563.744 321.64 563.954L321.181 565.318C321.127 565.514 321.127 565.721 321.181 565.918C321.236 566.114 321.342 566.295 321.491 566.442C321.64 566.589 321.827 566.698 322.033 566.759C322.24 566.82 322.459 566.83 322.671 566.789L324.136 566.43C324.359 566.364 324.599 566.364 324.823 566.43L326.262 566.861C326.471 566.913 326.691 566.915 326.901 566.866C327.111 566.816 327.304 566.718 327.462 566.579C327.62 566.44 327.738 566.266 327.804 566.072C327.87 565.879 327.883 565.673 327.841 565.473L327.446 564.098C327.381 563.883 327.381 563.655 327.446 563.44L327.905 562.089C327.959 561.892 327.959 561.686 327.905 561.489C327.85 561.292 327.744 561.112 327.595 560.965C327.446 560.817 327.259 560.708 327.053 560.648C326.846 560.587 326.627 560.576 326.415 560.618Z" fill="#FFD255"/>
<path d="M351.415 677.618L349.95 677.976C349.726 678.036 349.488 678.036 349.263 677.976L347.824 677.534C347.615 677.483 347.395 677.483 347.185 677.534C346.976 677.585 346.784 677.685 346.627 677.825C346.47 677.965 346.354 678.14 346.29 678.334C346.225 678.528 346.214 678.734 346.258 678.933L346.64 680.309C346.71 680.519 346.71 680.744 346.64 680.954L346.181 682.318C346.127 682.514 346.127 682.721 346.181 682.918C346.236 683.114 346.342 683.295 346.491 683.442C346.64 683.589 346.827 683.698 347.033 683.759C347.24 683.82 347.459 683.83 347.671 683.789L349.136 683.43C349.359 683.364 349.599 683.364 349.823 683.43L351.262 683.861C351.471 683.913 351.691 683.915 351.901 683.866C352.111 683.816 352.304 683.718 352.462 683.579C352.62 683.44 352.738 683.266 352.804 683.072C352.87 682.879 352.883 682.673 352.841 682.473L352.446 681.098C352.381 680.883 352.381 680.655 352.446 680.44L352.905 679.089C352.959 678.892 352.959 678.686 352.905 678.489C352.85 678.292 352.744 678.112 352.595 677.965C352.446 677.817 352.259 677.708 352.053 677.648C351.846 677.587 351.627 677.576 351.415 677.618Z" fill="#FFD255"/>
<path fill-rule="evenodd" clip-rule="evenodd" d="M352.835 507.052C352.602 507.152 352.42 507.332 352.325 507.555C352.23 507.777 352.23 508.026 352.325 508.248C352.379 508.363 352.456 508.466 352.552 508.553C352.648 508.639 352.762 508.706 352.886 508.751C353.01 508.796 353.142 508.817 353.275 508.814C353.408 508.81 353.539 508.782 353.661 508.73C353.782 508.679 353.891 508.605 353.982 508.514C354.073 508.423 354.143 508.316 354.19 508.198C354.236 508.081 354.257 507.957 354.252 507.832C354.247 507.707 354.215 507.584 354.159 507.471C354.041 507.251 353.836 507.084 353.588 507.006C353.34 506.928 353.07 506.944 352.835 507.052Z" fill="white"/>
<path style="mix-blend-mode:screen" opacity="0.61" fill-rule="evenodd" clip-rule="evenodd" d="M351.586 504.445C350.855 504.754 350.238 505.259 349.812 505.897C349.387 506.535 349.173 507.277 349.197 508.029C349.221 508.782 349.483 509.51 349.948 510.123C350.413 510.736 351.062 511.205 351.811 511.472C352.56 511.738 353.377 511.79 354.158 511.62C354.939 511.45 355.648 511.067 356.197 510.518C356.745 509.969 357.108 509.28 357.239 508.538C357.371 507.795 357.264 507.033 356.934 506.347C356.492 505.43 355.681 504.714 354.678 504.358C353.676 504.001 352.564 504.033 351.586 504.445Z" fill="url(#paint1_radial_3126_14665)"/>
<path style="mix-blend-mode:screen" opacity="0.61" fill-rule="evenodd" clip-rule="evenodd" d="M352.475 506.299C352.138 506.448 351.855 506.688 351.661 506.987C351.468 507.287 351.373 507.634 351.388 507.984C351.404 508.334 351.528 508.672 351.747 508.956C351.966 509.24 352.269 509.457 352.618 509.58C352.967 509.703 353.347 509.726 353.711 509.647C354.074 509.569 354.405 509.391 354.661 509.137C354.918 508.882 355.089 508.562 355.153 508.217C355.217 507.872 355.172 507.517 355.022 507.196C354.92 506.978 354.773 506.781 354.589 506.617C354.405 506.453 354.188 506.326 353.95 506.242C353.713 506.159 353.46 506.121 353.207 506.13C352.953 506.14 352.705 506.197 352.475 506.299Z" fill="url(#paint2_radial_3126_14665)"/>
<path fill-rule="evenodd" clip-rule="evenodd" d="M138.28 569.174C137.942 569.323 137.659 569.562 137.466 569.862C137.273 570.162 137.178 570.508 137.193 570.858C137.208 571.208 137.333 571.546 137.552 571.83C137.77 572.114 138.073 572.331 138.423 572.454C138.772 572.577 139.152 572.601 139.515 572.522C139.879 572.443 140.21 572.266 140.466 572.011C140.723 571.757 140.894 571.437 140.958 571.092C141.022 570.747 140.976 570.392 140.827 570.071C140.724 569.854 140.576 569.658 140.391 569.495C140.207 569.332 139.99 569.205 139.753 569.122C139.516 569.038 139.264 569 139.011 569.009C138.758 569.018 138.51 569.074 138.28 569.174Z" fill="white"/>
<path style="mix-blend-mode:screen" opacity="0.61" fill-rule="evenodd" clip-rule="evenodd" d="M135.926 564.258C134.548 564.84 133.384 565.794 132.583 566.998C131.782 568.202 131.379 569.602 131.425 571.021C131.472 572.44 131.965 573.815 132.843 574.97C133.722 576.126 134.945 577.011 136.359 577.513C137.773 578.016 139.313 578.113 140.786 577.793C142.259 577.472 143.597 576.749 144.632 575.714C145.667 574.679 146.351 573.379 146.599 571.978C146.847 570.578 146.647 569.14 146.024 567.846C145.191 566.113 143.659 564.762 141.766 564.09C139.872 563.417 137.772 563.477 135.926 564.258Z" fill="url(#paint3_radial_3126_14665)"/>
<path style="mix-blend-mode:screen" opacity="0.61" fill-rule="evenodd" clip-rule="evenodd" d="M137.593 567.738C136.951 568.011 136.409 568.456 136.037 569.017C135.664 569.578 135.476 570.231 135.498 570.892C135.519 571.554 135.749 572.194 136.158 572.733C136.567 573.272 137.136 573.685 137.795 573.92C138.453 574.155 139.171 574.202 139.858 574.054C140.545 573.906 141.169 573.571 141.653 573.09C142.137 572.609 142.458 572.004 142.577 571.352C142.695 570.699 142.605 570.029 142.317 569.425C142.126 569.022 141.852 568.659 141.51 568.356C141.169 568.053 140.767 567.816 140.328 567.659C139.889 567.503 139.422 567.429 138.952 567.442C138.483 567.456 138.021 567.556 137.593 567.738Z" fill="url(#paint4_radial_3126_14665)"/>
<path style="mix-blend-mode:screen" opacity="0.61" fill-rule="evenodd" clip-rule="evenodd" d="M318.645 600.128C317.267 600.711 316.103 601.664 315.302 602.868C314.501 604.072 314.098 605.472 314.144 606.891C314.191 608.311 314.684 609.685 315.562 610.841C316.44 611.996 317.664 612.881 319.078 613.384C320.491 613.886 322.032 613.983 323.505 613.663C324.977 613.342 326.316 612.619 327.351 611.584C328.385 610.549 329.07 609.249 329.318 607.848C329.566 606.448 329.366 605.01 328.743 603.716C327.909 601.983 326.378 600.633 324.484 599.96C322.591 599.287 320.491 599.348 318.645 600.128Z" fill="url(#paint5_radial_3126_14665)"/>
<path style="mix-blend-mode:screen" opacity="0.61" fill-rule="evenodd" clip-rule="evenodd" d="M320.312 603.608C319.67 603.881 319.128 604.326 318.755 604.887C318.382 605.449 318.195 606.101 318.217 606.763C318.238 607.424 318.468 608.064 318.877 608.603C319.285 609.142 319.855 609.555 320.514 609.79C321.172 610.025 321.89 610.072 322.577 609.924C323.263 609.776 323.888 609.441 324.372 608.96C324.856 608.479 325.177 607.874 325.295 607.222C325.413 606.569 325.323 605.899 325.036 605.295C324.845 604.892 324.57 604.529 324.229 604.226C323.888 603.923 323.486 603.686 323.047 603.53C322.608 603.373 322.14 603.299 321.671 603.313C321.202 603.326 320.74 603.427 320.312 603.608Z" fill="url(#paint6_radial_3126_14665)"/>
<path fill-rule="evenodd" clip-rule="evenodd" d="M321.331 981.703C320.993 981.852 320.71 982.092 320.517 982.391C320.324 982.691 320.229 983.037 320.244 983.387C320.259 983.738 320.384 984.076 320.602 984.36C320.821 984.643 321.124 984.86 321.473 984.983C321.823 985.106 322.203 985.13 322.566 985.051C322.93 984.972 323.26 984.795 323.517 984.54C323.773 984.286 323.945 983.966 324.009 983.621C324.073 983.276 324.027 982.921 323.877 982.6C323.776 982.382 323.628 982.185 323.444 982.021C323.26 981.857 323.043 981.73 322.806 981.646C322.568 981.563 322.315 981.524 322.062 981.534C321.809 981.544 321.56 981.601 321.331 981.703Z" fill="white"/>
<path style="mix-blend-mode:screen" opacity="0.61" fill-rule="evenodd" clip-rule="evenodd" d="M318.973 976.787C317.595 977.37 316.431 978.323 315.63 979.527C314.829 980.731 314.426 982.132 314.472 983.551C314.519 984.97 315.012 986.344 315.89 987.5C316.768 988.655 317.992 989.54 319.406 990.043C320.819 990.545 322.36 990.642 323.833 990.322C325.306 990.002 326.644 989.278 327.679 988.243C328.713 987.208 329.398 985.908 329.646 984.508C329.894 983.107 329.694 981.669 329.071 980.375C328.237 978.643 326.706 977.292 324.812 976.619C322.919 975.946 320.819 976.007 318.973 976.787Z" fill="url(#paint7_radial_3126_14665)"/>
<path style="mix-blend-mode:screen" opacity="0.61" fill-rule="evenodd" clip-rule="evenodd" d="M320.643 980.279C320.001 980.553 319.46 980.999 319.088 981.561C318.716 982.123 318.53 982.776 318.553 983.438C318.576 984.099 318.807 984.74 319.217 985.278C319.627 985.816 320.198 986.228 320.857 986.462C321.517 986.696 322.235 986.741 322.922 986.591C323.608 986.442 324.232 986.104 324.715 985.622C325.197 985.139 325.517 984.534 325.633 983.881C325.749 983.228 325.657 982.557 325.367 981.954C325.176 981.551 324.902 981.188 324.56 980.885C324.218 980.583 323.816 980.347 323.377 980.191C322.938 980.035 322.47 979.963 322.001 979.978C321.531 979.993 321.07 980.096 320.643 980.279Z" fill="url(#paint8_radial_3126_14665)"/>
<path fill-rule="evenodd" clip-rule="evenodd" d="M10.2544 757.462C10.1382 757.51 10.0335 757.579 9.94678 757.666C9.86007 757.753 9.7932 757.855 9.75026 757.967C9.70733 758.079 9.68924 758.198 9.69711 758.317C9.70497 758.436 9.73863 758.552 9.79602 758.658C9.87955 758.802 10.0054 758.92 10.1586 758.998C10.3117 759.076 10.4855 759.11 10.6592 759.098C10.8328 759.085 10.9989 759.026 11.1374 758.926C11.276 758.827 11.381 758.693 11.44 758.539C11.499 758.385 11.5094 758.218 11.47 758.059C11.4305 757.899 11.3429 757.754 11.2177 757.64C11.0925 757.527 10.935 757.449 10.7641 757.418C10.5932 757.386 10.4162 757.402 10.2544 757.462Z" fill="white"/>
<path style="mix-blend-mode:screen" opacity="0.61" fill-rule="evenodd" clip-rule="evenodd" d="M9.11928 755.142C8.4582 755.422 7.90047 755.88 7.51661 756.458C7.13275 757.037 6.94 757.708 6.96274 758.389C6.98548 759.07 7.22269 759.73 7.64436 760.284C8.06603 760.838 8.65324 761.263 9.33172 761.503C10.0102 761.744 10.7495 761.791 11.4561 761.637C12.1627 761.483 12.8049 761.136 13.3015 760.64C13.798 760.143 14.1267 759.519 14.2458 758.847C14.365 758.175 14.2693 757.485 13.9709 756.864C13.7741 756.451 13.4921 756.078 13.1413 755.768C12.7905 755.457 12.3777 755.215 11.9267 755.055C11.4758 754.895 10.9955 754.82 10.5137 754.835C10.0319 754.85 9.55798 754.954 9.11928 755.142Z" fill="url(#paint9_radial_3126_14665)"/>
<path style="mix-blend-mode:screen" opacity="0.61" fill-rule="evenodd" clip-rule="evenodd" d="M9.93402 756.816C9.6276 756.947 9.36955 757.161 9.19239 757.43C9.01522 757.7 8.92689 758.012 8.93852 758.328C8.95014 758.645 9.06121 758.951 9.25772 759.208C9.45423 759.465 9.72738 759.662 10.0427 759.773C10.3581 759.885 10.7015 759.906 11.0298 759.834C11.358 759.763 11.6563 759.601 11.8871 759.371C12.1179 759.14 12.2708 758.851 12.3266 758.539C12.3824 758.226 12.3386 757.906 12.2006 757.617C12.0119 757.23 11.6677 756.928 11.2431 756.778C10.8185 756.628 10.348 756.641 9.93402 756.816Z" fill="url(#paint10_radial_3126_14665)"/>
<path fill-rule="evenodd" clip-rule="evenodd" d="M23.3971 657.164C23.2785 657.203 23.1698 657.264 23.0779 657.345C22.9859 657.425 22.9127 657.522 22.863 657.63C22.8133 657.739 22.7881 657.855 22.7891 657.973C22.79 658.091 22.8171 658.207 22.8686 658.315C22.92 658.422 22.9948 658.519 23.088 658.598C23.1812 658.677 23.2909 658.736 23.4101 658.773C23.5293 658.81 23.6554 658.823 23.7803 658.812C23.9052 658.801 24.0262 658.765 24.1357 658.707C24.2446 658.662 24.3428 658.597 24.4244 658.516C24.5061 658.434 24.5696 658.338 24.6111 658.233C24.6526 658.129 24.6714 658.017 24.6663 657.905C24.6612 657.794 24.6323 657.684 24.5814 657.583C24.4815 657.382 24.3016 657.225 24.0802 657.147C23.8588 657.068 23.6136 657.075 23.3971 657.164Z" fill="white"/>
<path style="mix-blend-mode:screen" opacity="0.61" fill-rule="evenodd" clip-rule="evenodd" d="M22.2749 654.82C21.6162 655.096 21.0597 655.55 20.6758 656.123C20.292 656.697 20.098 657.365 20.1187 658.042C20.1393 658.719 20.3735 659.375 20.7917 659.927C21.2099 660.479 21.7931 660.902 22.4675 661.142C23.1418 661.382 23.877 661.429 24.5797 661.277C25.2824 661.124 25.921 660.779 26.4146 660.285C26.9082 659.791 27.2345 659.17 27.3522 658.502C27.4698 657.834 27.3736 657.147 27.0755 656.531C26.6755 655.71 25.9473 655.07 25.0488 654.75C24.1503 654.43 23.1538 654.455 22.2749 654.82Z" fill="url(#paint11_radial_3126_14665)"/>
<path style="mix-blend-mode:screen" opacity="0.61" fill-rule="evenodd" clip-rule="evenodd" d="M23.065 656.482C22.7597 656.611 22.5019 656.823 22.3243 657.089C22.1467 657.356 22.0572 657.666 22.0671 657.98C22.077 658.294 22.1859 658.599 22.38 658.855C22.574 659.111 22.8446 659.308 23.1575 659.42C23.4703 659.532 23.8115 659.554 24.1379 659.484C24.4642 659.413 24.7611 659.254 24.991 659.025C25.2209 658.797 25.3736 658.509 25.4297 658.199C25.4858 657.889 25.4428 657.571 25.3061 657.284C25.2166 657.092 25.0872 656.918 24.9255 656.774C24.7638 656.629 24.5731 656.516 24.3645 656.442C24.1558 656.367 23.9335 656.332 23.7103 656.339C23.4872 656.346 23.2678 656.395 23.065 656.482Z" fill="url(#paint12_radial_3126_14665)"/>
<path fill-rule="evenodd" clip-rule="evenodd" d="M26.2466 956.49C25.9546 956.623 25.7275 956.855 25.6115 957.14C25.4956 957.424 25.4995 957.74 25.6227 958.021C25.7639 958.299 26.0133 958.514 26.3191 958.623C26.625 958.732 26.9638 958.727 27.2653 958.607C27.5582 958.473 27.7848 958.238 27.8985 957.95C28.0123 957.663 28.0044 957.346 27.8766 957.065C27.7332 956.792 27.485 956.582 27.1824 956.475C26.8797 956.368 26.5452 956.374 26.2466 956.49Z" fill="white"/>
<path style="mix-blend-mode:screen" opacity="0.61" fill-rule="evenodd" clip-rule="evenodd" d="M24.7191 953.285C23.8232 953.66 23.0654 954.276 22.5415 955.054C22.0175 955.833 21.7508 956.74 21.7749 957.661C21.7991 958.582 22.113 959.476 22.6772 960.229C23.2413 960.983 24.0304 961.563 24.9449 961.895C25.8594 962.228 26.8583 962.3 27.8158 962.1C28.7733 961.9 29.6464 961.439 30.3251 960.774C31.0037 960.109 31.4575 959.27 31.6292 958.363C31.8009 957.456 31.6828 956.521 31.2898 955.677C31.0274 955.114 30.6488 954.604 30.1759 954.179C29.703 953.753 29.1452 953.419 28.5344 953.197C27.9237 952.975 27.2722 952.868 26.6174 952.883C25.9626 952.898 25.3175 953.035 24.7191 953.285Z" fill="url(#paint13_radial_3126_14665)"/>
<path style="mix-blend-mode:screen" opacity="0.61" fill-rule="evenodd" clip-rule="evenodd" d="M25.8029 955.558C25.3855 955.736 25.0335 956.025 24.7914 956.391C24.5493 956.756 24.4279 957.181 24.4426 957.611C24.4573 958.041 24.6074 958.457 24.874 958.807C25.1406 959.157 25.5116 959.425 25.9403 959.577C26.3689 959.729 26.836 959.759 27.2823 959.662C27.7287 959.564 28.1344 959.345 28.4481 959.031C28.7618 958.718 28.9695 958.324 29.0449 957.899C29.1203 957.475 29.0601 957.039 28.8718 956.646C28.7479 956.384 28.5699 956.148 28.3481 955.951C28.1263 955.755 27.865 955.601 27.5795 955.5C27.294 955.399 26.99 955.352 26.685 955.362C26.38 955.372 26.0802 955.438 25.8029 955.558Z" fill="url(#paint14_radial_3126_14665)"/>
<path fill-rule="evenodd" clip-rule="evenodd" d="M37.8603 565.645C37.6242 565.736 37.4227 565.892 37.2819 566.092C37.141 566.291 37.0674 566.526 37.0704 566.766C37.0734 567.006 37.153 567.239 37.2989 567.435C37.4448 567.632 37.6502 567.783 37.8884 567.869C38.1267 567.954 38.3869 567.971 38.6353 567.916C38.8837 567.861 39.1088 567.737 39.2814 567.561C39.454 567.384 39.5662 567.163 39.6035 566.926C39.6407 566.689 39.6012 566.447 39.4902 566.231C39.3491 565.957 39.1018 565.744 38.7989 565.635C38.4961 565.526 38.1603 565.53 37.8603 565.645Z" fill="white"/>
<path style="mix-blend-mode:screen" opacity="0.61" fill-rule="evenodd" clip-rule="evenodd" d="M36.3321 562.44C35.4319 562.814 34.6698 563.43 34.1423 564.211C33.6148 564.991 33.3456 565.901 33.3685 566.826C33.3915 567.75 33.7057 568.647 34.2714 569.404C34.8371 570.161 35.6289 570.743 36.5467 571.077C37.4646 571.411 38.4673 571.482 39.4282 571.281C40.3891 571.08 41.265 570.616 41.9452 569.948C42.6254 569.28 43.0794 568.437 43.2499 567.526C43.4203 566.616 43.2995 565.678 42.9028 564.832C42.639 564.269 42.2597 563.761 41.7866 563.336C41.3135 562.912 40.7558 562.579 40.1455 562.356C39.5352 562.134 38.8843 562.027 38.23 562.042C37.5756 562.056 36.9307 562.191 36.3321 562.44Z" fill="url(#paint15_radial_3126_14665)"/>
<path style="mix-blend-mode:screen" opacity="0.61" fill-rule="evenodd" clip-rule="evenodd" d="M37.4167 564.712C36.9948 564.888 36.638 565.178 36.3915 565.544C36.145 565.911 36.0199 566.338 36.0321 566.771C36.0443 567.204 36.1932 567.624 36.4599 567.978C36.7267 568.332 37.0993 568.603 37.5305 568.758C37.9616 568.912 38.432 568.943 38.8819 568.847C39.3318 568.75 39.7409 568.53 40.0574 568.214C40.374 567.899 40.5836 567.502 40.6598 567.075C40.7361 566.647 40.6754 566.208 40.4855 565.813C40.3629 565.55 40.1857 565.312 39.9644 565.114C39.7431 564.916 39.482 564.761 39.1964 564.659C38.9108 564.557 38.6064 564.509 38.3008 564.518C37.9953 564.527 37.6947 564.593 37.4167 564.712Z" fill="url(#paint16_radial_3126_14665)"/>
<path fill-rule="evenodd" clip-rule="evenodd" d="M244.11 518.427C243.918 518.51 243.769 518.661 243.695 518.847C243.621 519.033 243.628 519.238 243.715 519.419C243.801 519.599 243.96 519.738 244.155 519.808C244.351 519.877 244.568 519.871 244.759 519.79C244.952 519.709 245.102 519.56 245.177 519.375C245.253 519.19 245.246 518.984 245.16 518.803C245.074 518.623 244.915 518.481 244.718 518.411C244.521 518.34 244.302 518.346 244.11 518.427Z" fill="white"/>
<path style="mix-blend-mode:screen" opacity="0.61" fill-rule="evenodd" clip-rule="evenodd" d="M243.132 516.382C242.559 516.625 242.075 517.023 241.743 517.525C241.41 518.027 241.243 518.61 241.263 519.201C241.283 519.792 241.49 520.364 241.856 520.845C242.222 521.326 242.732 521.694 243.321 521.903C243.909 522.112 244.551 522.152 245.164 522.018C245.777 521.885 246.335 521.584 246.765 521.153C247.196 520.722 247.482 520.181 247.585 519.598C247.689 519.014 247.606 518.415 247.347 517.877C247.175 517.518 246.93 517.195 246.625 516.926C246.32 516.657 245.961 516.447 245.57 516.308C245.178 516.169 244.762 516.104 244.343 516.117C243.925 516.13 243.514 516.219 243.132 516.382Z" fill="url(#paint17_radial_3126_14665)"/>
<path style="mix-blend-mode:screen" opacity="0.61" fill-rule="evenodd" clip-rule="evenodd" d="M243.832 517.841C243.473 517.992 243.192 518.271 243.052 518.616C242.911 518.961 242.921 519.345 243.08 519.683C243.244 520.02 243.543 520.284 243.913 520.416C244.282 520.548 244.692 520.538 245.054 520.388C245.232 520.312 245.393 520.204 245.526 520.069C245.66 519.935 245.764 519.777 245.832 519.605C245.901 519.433 245.933 519.25 245.926 519.066C245.919 518.882 245.874 518.702 245.793 518.534C245.714 518.366 245.601 518.215 245.459 518.089C245.318 517.963 245.15 517.864 244.968 517.8C244.785 517.735 244.59 517.705 244.395 517.712C244.2 517.719 244.008 517.763 243.832 517.841Z" fill="url(#paint18_radial_3126_14665)"/>
<path fill-rule="evenodd" clip-rule="evenodd" d="M291.353 857.795C291.071 857.809 290.79 857.744 290.548 857.608C290.305 857.473 290.111 857.272 289.99 857.033C289.868 856.793 289.826 856.525 289.867 856.263C289.908 856 290.031 855.755 290.221 855.558C290.41 855.362 290.658 855.222 290.932 855.158C291.206 855.094 291.494 855.107 291.76 855.197C292.026 855.287 292.257 855.449 292.425 855.662C292.593 855.876 292.689 856.131 292.702 856.396C292.72 856.749 292.588 857.095 292.335 857.357C292.082 857.619 291.729 857.777 291.353 857.795Z" fill="white"/>
<path style="mix-blend-mode:screen" opacity="0.61" fill-rule="evenodd" clip-rule="evenodd" d="M291.585 861.838C290.45 861.894 289.322 861.632 288.346 861.085C287.369 860.538 286.587 859.732 286.099 858.767C285.611 857.803 285.439 856.724 285.604 855.668C285.769 854.611 286.264 853.625 287.027 852.833C287.79 852.041 288.786 851.48 289.888 851.22C290.991 850.96 292.151 851.013 293.221 851.373C294.292 851.733 295.224 852.383 295.901 853.241C296.578 854.099 296.968 855.127 297.022 856.193C297.06 856.899 296.949 857.605 296.696 858.271C296.444 858.937 296.054 859.549 295.549 860.074C295.044 860.598 294.434 861.024 293.754 861.326C293.074 861.629 292.337 861.803 291.585 861.838Z" fill="url(#paint19_radial_3126_14665)"/>
<path style="mix-blend-mode:screen" opacity="0.61" fill-rule="evenodd" clip-rule="evenodd" d="M291.429 858.98C290.898 859.005 290.371 858.882 289.915 858.626C289.458 858.37 289.093 857.993 288.865 857.542C288.637 857.09 288.557 856.586 288.634 856.092C288.712 855.598 288.943 855.137 289.3 854.766C289.657 854.396 290.123 854.134 290.638 854.012C291.154 853.89 291.696 853.915 292.197 854.083C292.698 854.252 293.134 854.555 293.451 854.956C293.767 855.358 293.95 855.838 293.976 856.337C294.011 857.004 293.762 857.657 293.285 858.153C292.807 858.648 292.14 858.946 291.429 858.98Z" fill="url(#paint20_radial_3126_14665)"/>
<path fill-rule="evenodd" clip-rule="evenodd" d="M250.709 713.676C250.585 713.682 250.461 713.666 250.344 713.627C250.227 713.588 250.12 713.529 250.028 713.451C249.935 713.373 249.86 713.279 249.807 713.174C249.753 713.069 249.722 712.955 249.716 712.839C249.704 712.604 249.792 712.374 249.96 712.2C250.129 712.027 250.364 711.923 250.614 711.912C250.864 711.901 251.108 711.983 251.293 712.141C251.478 712.299 251.589 712.52 251.601 712.755C251.611 712.988 251.523 713.215 251.356 713.387C251.189 713.56 250.957 713.663 250.709 713.676Z" fill="white"/>
<path style="mix-blend-mode:screen" opacity="0.61" fill-rule="evenodd" clip-rule="evenodd" d="M250.847 716.355C250.09 716.399 249.337 716.231 248.682 715.871C248.027 715.512 247.501 714.978 247.171 714.337C246.84 713.696 246.721 712.977 246.827 712.272C246.933 711.566 247.26 710.907 247.767 710.377C248.273 709.847 248.936 709.47 249.671 709.295C250.406 709.12 251.18 709.155 251.895 709.395C252.609 709.634 253.231 710.068 253.681 710.641C254.132 711.214 254.391 711.9 254.425 712.611C254.471 713.551 254.121 714.47 253.452 715.171C252.783 715.871 251.847 716.296 250.847 716.355Z" fill="url(#paint21_radial_3126_14665)"/>
<path style="mix-blend-mode:screen" opacity="0.61" fill-rule="evenodd" clip-rule="evenodd" d="M250.747 714.405C250.398 714.422 250.051 714.34 249.751 714.171C249.451 714.002 249.211 713.754 249.061 713.457C248.911 713.16 248.859 712.828 248.91 712.503C248.961 712.177 249.113 711.874 249.348 711.63C249.582 711.386 249.889 711.213 250.228 711.133C250.567 711.053 250.924 711.069 251.254 711.179C251.583 711.289 251.871 711.488 252.08 711.752C252.289 712.015 252.41 712.331 252.428 712.659C252.44 712.878 252.406 713.096 252.328 713.302C252.25 713.508 252.13 713.698 251.974 713.86C251.817 714.022 251.629 714.154 251.418 714.247C251.208 714.341 250.98 714.395 250.747 714.405Z" fill="url(#paint22_radial_3126_14665)"/>
</g>
<path d="M365 85H-6L-5.8594 23.9656C7.46704 17.2239 28.2457 7.28294 54.961 6.15932C98.19 4.33344 114.766 18.644 157.573 26.4469C210.066 35.9665 212.66 11.1064 282.854 11.5277C327.458 11.793 342.222 21.9212 365 27.7734V85Z" fill="#FFC648"/>
<path d="M365.312 81H-6V466C14.1512 446.425 34.3338 431.257 71.163 430.623C110.276 429.943 128.941 453.615 174.595 462.382C230.668 473.205 242.292 441.447 311.726 441.88C336.759 442.034 350.84 446.24 366 451.559L365.312 81Z" fill="#FFC649"/>
<circle cx="322.141" cy="606.496" r="2" fill="white"/>
</g>
<defs>
<linearGradient id="paint0_linear_3126_14665" x1="206.762" y1="1390.82" x2="209.683" y2="67.2176" gradientUnits="userSpaceOnUse">
<stop offset="0.07" stop-color="#F7EA2F"/>
<stop offset="0.1" stop-color="#F7E934"/>
<stop offset="0.14" stop-color="#F8E743"/>
<stop offset="0.18" stop-color="#F8E45C"/>
<stop offset="0.22" stop-color="#F9DF7F"/>
<stop offset="0.26" stop-color="#FBD9AB"/>
<stop offset="0.29" stop-color="#FCD4D1"/>
<stop offset="0.35" stop-color="#F0C9CF"/>
<stop offset="0.45" stop-color="#CEADC8"/>
<stop offset="0.56" stop-color="#A58AC0"/>
<stop offset="0.74" stop-color="#7F77B6"/>
</linearGradient>
<radialGradient id="paint1_radial_3126_14665" cx="0" cy="0" r="1" gradientUnits="userSpaceOnUse" gradientTransform="translate(354.183 509.211) rotate(64.3731) scale(3.83864 3.99688)">
<stop stop-color="#F47E20"/>
<stop offset="0.1" stop-color="#CF6B1B"/>
<stop offset="0.29" stop-color="#914B13"/>
<stop offset="0.46" stop-color="#5D300C"/>
<stop offset="0.63" stop-color="#351B07"/>
<stop offset="0.78" stop-color="#180C03"/>
<stop offset="0.91" stop-color="#060301"/>
<stop offset="1"/>
</radialGradient>
<radialGradient id="paint2_radial_3126_14665" cx="0" cy="0" r="1" gradientUnits="userSpaceOnUse" gradientTransform="translate(354.181 509.211) rotate(64.3729) scale(1.78653 1.86019)">
<stop stop-color="#F47E20"/>
<stop offset="0.1" stop-color="#CF6B1B"/>
<stop offset="0.29" stop-color="#914B13"/>
<stop offset="0.46" stop-color="#5D300C"/>
<stop offset="0.63" stop-color="#351B07"/>
<stop offset="0.78" stop-color="#180C03"/>
<stop offset="0.91" stop-color="#060301"/>
<stop offset="1"/>
</radialGradient>
<radialGradient id="paint3_radial_3126_14665" cx="0" cy="0" r="1" gradientUnits="userSpaceOnUse" gradientTransform="translate(140.443 572.073) rotate(64.3731) scale(7.2427 7.54127)">
<stop stop-color="#F47E20"/>
<stop offset="0.1" stop-color="#CF6B1B"/>
<stop offset="0.29" stop-color="#914B13"/>
<stop offset="0.46" stop-color="#5D300C"/>
<stop offset="0.63" stop-color="#351B07"/>
<stop offset="0.78" stop-color="#180C03"/>
<stop offset="0.91" stop-color="#060301"/>
<stop offset="1"/>
</radialGradient>
<radialGradient id="paint4_radial_3126_14665" cx="0" cy="0" r="1" gradientUnits="userSpaceOnUse" gradientTransform="translate(140.442 572.073) rotate(64.3732) scale(3.37993 3.51926)">
<stop stop-color="#F47E20"/>
<stop offset="0.1" stop-color="#CF6B1B"/>
<stop offset="0.29" stop-color="#914B13"/>
<stop offset="0.46" stop-color="#5D300C"/>
<stop offset="0.63" stop-color="#351B07"/>
<stop offset="0.78" stop-color="#180C03"/>
<stop offset="0.91" stop-color="#060301"/>
<stop offset="1"/>
</radialGradient>
<radialGradient id="paint5_radial_3126_14665" cx="0" cy="0" r="1" gradientUnits="userSpaceOnUse" gradientTransform="translate(323.162 607.943) rotate(64.3731) scale(7.2427 7.54127)">
<stop stop-color="#F47E20"/>
<stop offset="0.1" stop-color="#CF6B1B"/>
<stop offset="0.29" stop-color="#914B13"/>
<stop offset="0.46" stop-color="#5D300C"/>
<stop offset="0.63" stop-color="#351B07"/>
<stop offset="0.78" stop-color="#180C03"/>
<stop offset="0.91" stop-color="#060301"/>
<stop offset="1"/>
</radialGradient>
<radialGradient id="paint6_radial_3126_14665" cx="0" cy="0" r="1" gradientUnits="userSpaceOnUse" gradientTransform="translate(323.161 607.943) rotate(64.3732) scale(3.37993 3.51926)">
<stop stop-color="#F47E20"/>
<stop offset="0.1" stop-color="#CF6B1B"/>
<stop offset="0.29" stop-color="#914B13"/>
<stop offset="0.46" stop-color="#5D300C"/>
<stop offset="0.63" stop-color="#351B07"/>
<stop offset="0.78" stop-color="#180C03"/>
<stop offset="0.91" stop-color="#060301"/>
<stop offset="1"/>
</radialGradient>
<radialGradient id="paint7_radial_3126_14665" cx="0" cy="0" r="1" gradientUnits="userSpaceOnUse" gradientTransform="translate(323.337 983.716) rotate(64.3732) scale(7.24271 7.54127)">
<stop stop-color="#F47E20"/>
<stop offset="0.1" stop-color="#CF6B1B"/>
<stop offset="0.29" stop-color="#914B13"/>
<stop offset="0.46" stop-color="#5D300C"/>
<stop offset="0.63" stop-color="#351B07"/>
<stop offset="0.78" stop-color="#180C03"/>
<stop offset="0.91" stop-color="#060301"/>
<stop offset="1"/>
</radialGradient>
<radialGradient id="paint8_radial_3126_14665" cx="0" cy="0" r="1" gradientUnits="userSpaceOnUse" gradientTransform="translate(323.327 983.72) rotate(64.3731) scale(3.37992 3.51926)">
<stop stop-color="#F47E20"/>
<stop offset="0.1" stop-color="#CF6B1B"/>
<stop offset="0.29" stop-color="#914B13"/>
<stop offset="0.46" stop-color="#5D300C"/>
<stop offset="0.63" stop-color="#351B07"/>
<stop offset="0.78" stop-color="#180C03"/>
<stop offset="0.91" stop-color="#060301"/>
<stop offset="1"/>
</radialGradient>
<radialGradient id="paint9_radial_3126_14665" cx="0" cy="0" r="1" gradientUnits="userSpaceOnUse" gradientTransform="translate(12.3407 759.242) rotate(64.3731) scale(3.4765 3.61981)">
<stop stop-color="#F47E20"/>
<stop offset="0.1" stop-color="#CF6B1B"/>
<stop offset="0.29" stop-color="#914B13"/>
<stop offset="0.46" stop-color="#5D300C"/>
<stop offset="0.63" stop-color="#351B07"/>
<stop offset="0.78" stop-color="#180C03"/>
<stop offset="0.91" stop-color="#060301"/>
<stop offset="1"/>
</radialGradient>
<radialGradient id="paint10_radial_3126_14665" cx="0" cy="0" r="1" gradientUnits="userSpaceOnUse" gradientTransform="translate(12.3405 759.241) rotate(64.3732) scale(1.61754 1.68422)">
<stop stop-color="#F47E20"/>
<stop offset="0.1" stop-color="#CF6B1B"/>
<stop offset="0.29" stop-color="#914B13"/>
<stop offset="0.46" stop-color="#5D300C"/>
<stop offset="0.63" stop-color="#351B07"/>
<stop offset="0.78" stop-color="#180C03"/>
<stop offset="0.91" stop-color="#060301"/>
<stop offset="1"/>
</radialGradient>
<radialGradient id="paint11_radial_3126_14665" cx="0" cy="0" r="1" gradientUnits="userSpaceOnUse" gradientTransform="translate(25.4119 659.088) rotate(64.3731) scale(3.45235 3.59467)">
<stop stop-color="#F47E20"/>
<stop offset="0.1" stop-color="#CF6B1B"/>
<stop offset="0.29" stop-color="#914B13"/>
<stop offset="0.46" stop-color="#5D300C"/>
<stop offset="0.63" stop-color="#351B07"/>
<stop offset="0.78" stop-color="#180C03"/>
<stop offset="0.91" stop-color="#060301"/>
<stop offset="1"/>
</radialGradient>
<radialGradient id="paint12_radial_3126_14665" cx="0" cy="0" r="1" gradientUnits="userSpaceOnUse" gradientTransform="translate(25.4125 659.087) rotate(64.3732) scale(1.60547 1.67165)">
<stop stop-color="#F47E20"/>
<stop offset="0.1" stop-color="#CF6B1B"/>
<stop offset="0.29" stop-color="#914B13"/>
<stop offset="0.46" stop-color="#5D300C"/>
<stop offset="0.63" stop-color="#351B07"/>
<stop offset="0.78" stop-color="#180C03"/>
<stop offset="0.91" stop-color="#060301"/>
<stop offset="1"/>
</radialGradient>
<radialGradient id="paint13_radial_3126_14665" cx="0" cy="0" r="1" gradientUnits="userSpaceOnUse" gradientTransform="translate(28.5469 958.115) rotate(64.3732) scale(4.70777 4.90183)">
<stop stop-color="#F47E20"/>
<stop offset="0.1" stop-color="#CF6B1B"/>
<stop offset="0.29" stop-color="#914B13"/>
<stop offset="0.46" stop-color="#5D300C"/>
<stop offset="0.63" stop-color="#351B07"/>
<stop offset="0.78" stop-color="#180C03"/>
<stop offset="0.91" stop-color="#060301"/>
<stop offset="1"/>
</radialGradient>
<radialGradient id="paint14_radial_3126_14665" cx="0" cy="0" r="1" gradientUnits="userSpaceOnUse" gradientTransform="translate(28.5484 958.116) rotate(64.3731) scale(2.19695 2.28752)">
<stop stop-color="#F47E20"/>
<stop offset="0.1" stop-color="#CF6B1B"/>
<stop offset="0.29" stop-color="#914B13"/>
<stop offset="0.46" stop-color="#5D300C"/>
<stop offset="0.63" stop-color="#351B07"/>
<stop offset="0.78" stop-color="#180C03"/>
<stop offset="0.91" stop-color="#060301"/>
<stop offset="1"/>
</radialGradient>
<radialGradient id="paint15_radial_3126_14665" cx="0" cy="0" r="1" gradientUnits="userSpaceOnUse" gradientTransform="translate(39.9442 568.029) rotate(64.3731) scale(4.70775 4.90183)">
<stop stop-color="#F47E20"/>
<stop offset="0.1" stop-color="#CF6B1B"/>
<stop offset="0.29" stop-color="#914B13"/>
<stop offset="0.46" stop-color="#5D300C"/>
<stop offset="0.63" stop-color="#351B07"/>
<stop offset="0.78" stop-color="#180C03"/>
<stop offset="0.91" stop-color="#060301"/>
<stop offset="1"/>
</radialGradient>
<radialGradient id="paint16_radial_3126_14665" cx="0" cy="0" r="1" gradientUnits="userSpaceOnUse" gradientTransform="translate(39.9464 568.029) rotate(64.3732) scale(2.19696 2.28752)">
<stop stop-color="#F47E20"/>
<stop offset="0.1" stop-color="#CF6B1B"/>
<stop offset="0.29" stop-color="#914B13"/>
<stop offset="0.46" stop-color="#5D300C"/>
<stop offset="0.63" stop-color="#351B07"/>
<stop offset="0.78" stop-color="#180C03"/>
<stop offset="0.91" stop-color="#060301"/>
<stop offset="1"/>
</radialGradient>
<radialGradient id="paint17_radial_3126_14665" cx="0" cy="0" r="1" gradientUnits="userSpaceOnUse" gradientTransform="translate(245.596 520.44) rotate(64.3731) scale(3.01779 3.14221)">
<stop stop-color="#F47E20"/>
<stop offset="0.1" stop-color="#CF6B1B"/>
<stop offset="0.29" stop-color="#914B13"/>
<stop offset="0.46" stop-color="#5D300C"/>
<stop offset="0.63" stop-color="#351B07"/>
<stop offset="0.78" stop-color="#180C03"/>
<stop offset="0.91" stop-color="#060301"/>
<stop offset="1"/>
</radialGradient>
<radialGradient id="paint18_radial_3126_14665" cx="0" cy="0" r="1" gradientUnits="userSpaceOnUse" gradientTransform="translate(245.595 520.44) rotate(64.3732) scale(1.41233 1.47055)">
<stop stop-color="#F47E20"/>
<stop offset="0.1" stop-color="#CF6B1B"/>
<stop offset="0.29" stop-color="#914B13"/>
<stop offset="0.46" stop-color="#5D300C"/>
<stop offset="0.63" stop-color="#351B07"/>
<stop offset="0.78" stop-color="#180C03"/>
<stop offset="0.91" stop-color="#060301"/>
<stop offset="1"/>
</radialGradient>
<radialGradient id="paint19_radial_3126_14665" cx="0" cy="0" r="1" gradientUnits="userSpaceOnUse" gradientTransform="translate(290.742 857.662) rotate(-93.0472) scale(5.40165 5.74919)">
<stop stop-color="#F47E20"/>
<stop offset="0.1" stop-color="#CF6B1B"/>
<stop offset="0.29" stop-color="#914B13"/>
<stop offset="0.46" stop-color="#5D300C"/>
<stop offset="0.63" stop-color="#351B07"/>
<stop offset="0.78" stop-color="#180C03"/>
<stop offset="0.91" stop-color="#060301"/>
<stop offset="1"/>
</radialGradient>
<radialGradient id="paint20_radial_3126_14665" cx="0" cy="0" r="1" gradientUnits="userSpaceOnUse" gradientTransform="translate(290.739 857.662) rotate(-93.0472) scale(2.51518 2.677)">
<stop stop-color="#F47E20"/>
<stop offset="0.1" stop-color="#CF6B1B"/>
<stop offset="0.29" stop-color="#914B13"/>
<stop offset="0.46" stop-color="#5D300C"/>
<stop offset="0.63" stop-color="#351B07"/>
<stop offset="0.78" stop-color="#180C03"/>
<stop offset="0.91" stop-color="#060301"/>
<stop offset="1"/>
</radialGradient>
<radialGradient id="paint21_radial_3126_14665" cx="0" cy="0" r="1" gradientUnits="userSpaceOnUse" gradientTransform="translate(250.057 713.809) rotate(-93.0472) scale(3.56917 3.7988)">
<stop stop-color="#F47E20"/>
<stop offset="0.1" stop-color="#CF6B1B"/>
<stop offset="0.29" stop-color="#914B13"/>
<stop offset="0.46" stop-color="#5D300C"/>
<stop offset="0.63" stop-color="#351B07"/>
<stop offset="0.78" stop-color="#180C03"/>
<stop offset="0.91" stop-color="#060301"/>
<stop offset="1"/>
</radialGradient>
<radialGradient id="paint22_radial_3126_14665" cx="0" cy="0" r="1" gradientUnits="userSpaceOnUse" gradientTransform="translate(250.059 713.809) rotate(-93.0472) scale(1.66481 1.77192)">
<stop stop-color="#F47E20"/>
<stop offset="0.1" stop-color="#CF6B1B"/>
<stop offset="0.29" stop-color="#914B13"/>
<stop offset="0.46" stop-color="#5D300C"/>
<stop offset="0.63" stop-color="#351B07"/>
<stop offset="0.78" stop-color="#180C03"/>
<stop offset="0.91" stop-color="#060301"/>
<stop offset="1"/>
</radialGradient>
</defs>
</svg>
