<svg width="777" height="7680" viewBox="0 0 777 7680" fill="none" xmlns="http://www.w3.org/2000/svg">
<path d="M728.262 4302.59C727.805 4301.71 727.173 4300.93 726.405 4300.3C725.637 4299.68 724.749 4299.21 723.796 4298.94C722.842 4298.67 721.843 4298.59 720.859 4298.72C719.875 4298.84 718.927 4299.17 718.074 4299.67L544 4407.34V4493.66L726.997 4310.8C728.02 4309.72 728.689 4308.36 728.915 4306.89C729.141 4305.42 728.913 4303.92 728.262 4302.59Z" fill="url(#paint0_linear_3591_7396)"/>
<path d="M773.729 4345.86C775.536 4336.85 761.69 4326.47 742.805 4322.68C723.919 4318.9 707.144 4323.14 705.337 4332.16C703.531 4341.18 717.376 4351.55 736.262 4355.34C755.148 4359.12 771.923 4354.88 773.729 4345.86Z" fill="#4B8E42"/>
<path d="M630.532 4353.97C641.066 4353.95 649.571 4336.04 649.529 4313.96C649.486 4291.89 640.912 4274.02 630.378 4274.04C619.844 4274.06 611.339 4291.97 611.381 4314.04C611.424 4336.11 619.998 4353.99 630.532 4353.97Z" fill="#4B8E42"/>
<path d="M552.449 160.207L653.297 118.506C654.625 117.958 656.067 117.746 657.496 117.888C658.925 118.03 660.298 118.522 661.492 119.32C662.687 120.119 663.666 121.2 664.345 122.467C665.023 123.735 665.38 125.15 665.383 126.588C665.403 128.047 665.057 129.488 664.376 130.779C663.694 132.069 662.7 133.168 661.484 133.973L496.267 245.6L552.449 160.207Z" fill="url(#paint1_linear_3591_7396)"/>
<path d="M712.063 2701.81L715.43 2596.44C714.576 2581.71 725.404 2570 739.599 2570C753.825 2570 766.471 2581.71 767.909 2596.44L770.644 2731.02C774.027 2765.26 752.924 2794.26 723.381 2794.26L495 2833L496.581 2714.18L689.048 2730.26C702.689 2730.26 712.948 2717.38 712.063 2701.81Z" fill="url(#paint2_linear_3591_7396)"/>
<path d="M700.197 1747.45L723.517 1622H751.591L771 1784.44C771 1801.3 764.296 1817.47 752.362 1829.38C740.428 1841.3 724.242 1848 707.365 1848H494V1777.96H669.633C677.73 1777.94 685.489 1774.72 691.216 1769C696.943 1763.28 700.172 1755.54 700.197 1747.45Z" fill="url(#paint3_linear_3591_7396)"/>
<path d="M685.312 1921.16C684.813 1920.33 684.144 1919.62 683.349 1919.06C682.554 1918.51 681.652 1918.14 680.701 1917.96C679.75 1917.78 678.773 1917.81 677.833 1918.04C676.894 1918.27 676.013 1918.69 675.25 1919.29L484 2066.86L496.083 2115.49L684.246 1929.59C685.352 1928.51 686.059 1927.09 686.253 1925.56C686.447 1924.03 686.115 1922.48 685.312 1921.16Z" fill="url(#paint4_linear_3591_7396)"/>
<path d="M644.496 1943.9C653.804 1943.16 660.085 1926.76 658.527 1907.28C656.968 1887.79 648.16 1872.6 638.852 1873.35C629.545 1874.09 623.263 1890.49 624.822 1909.97C626.381 1929.46 635.189 1944.65 644.496 1943.9Z" fill="#4C8D43"/>
<path d="M705.541 1962.18C706.29 1955.83 696.111 1949.41 682.806 1947.84C669.5 1946.27 658.106 1950.15 657.357 1956.5C656.607 1962.85 666.786 1969.27 680.092 1970.84C693.398 1972.41 704.792 1968.53 705.541 1962.18Z" fill="#4C8D43"/>
<path d="M592.618 1984.48C599.289 1983.93 603.766 1972.16 602.618 1958.19C601.469 1944.22 595.13 1933.34 588.458 1933.89C581.787 1934.43 577.31 1946.2 578.459 1960.17C579.607 1974.15 585.946 1985.03 592.618 1984.48Z" fill="#4C8D43"/>
<path d="M682.782 2013.53C684.909 2004.47 671.258 1993.51 652.291 1989.06C633.324 1984.61 616.224 1988.34 614.097 1997.4C611.97 2006.47 625.622 2017.42 644.589 2021.87C663.555 2026.32 680.655 2022.59 682.782 2013.53Z" fill="#4C8D43"/>
<path d="M90.3958 1799.08C90.3958 1799.08 44.0844 1774.77 21.4898 1780.85C19.6456 1781.34 17.9827 1782.35 16.7019 1783.76C15.4211 1785.18 14.5773 1786.93 14.2726 1788.82C13.968 1790.7 14.2154 1792.63 14.985 1794.38C15.7546 1796.12 17.0135 1797.61 18.6094 1798.65C24.0627 1802.04 30.0057 1804.56 36.2286 1806.13C36.2286 1806.13 -1.74071 1791.49 1.28935 1808.12C4.05756 1823.42 38.1365 1824.33 38.1365 1824.33C38.1365 1824.33 15.2801 1824.09 22.6121 1833.69C29.9441 1843.28 76.0685 1840.55 89.7225 1834.55C103.376 1828.54 108.726 1810.9 90.3958 1799.08Z" fill="url(#paint5_linear_3591_7396)"/>
<path d="M154.589 1808.23C154.589 1808.23 205.183 1798.24 218.837 1779.65C219.957 1778.13 220.613 1776.33 220.726 1774.44C220.838 1772.56 220.403 1770.69 219.473 1769.05C218.543 1767.41 217.157 1766.08 215.484 1765.21C213.811 1764.34 211.922 1763.98 210.046 1764.16C203.77 1764.97 197.652 1766.72 191.903 1769.36C191.903 1769.36 230.153 1757.15 217.547 1746.23C205.95 1736.2 179.203 1756.55 179.203 1756.55C179.203 1756.55 196.916 1742.6 185.394 1739.83C173.873 1737.06 140.056 1767.59 133.247 1780.64C126.439 1793.7 133.21 1810.44 154.589 1808.23Z" fill="url(#paint6_linear_3591_7396)"/>
<path d="M134.449 1858.47C154.434 1852.84 165.226 1829.08 158.554 1805.41C151.882 1781.74 130.272 1767.11 110.287 1772.74C90.3023 1778.38 79.5104 1802.13 86.1826 1825.81C92.8547 1849.48 114.464 1864.1 134.449 1858.47Z" fill="url(#paint7_linear_3591_7396)"/>
<path d="M84.9296 1801.03C84.8612 1801.22 84.8352 1801.43 84.8532 1801.63C84.8713 1801.83 84.933 1802.03 85.0342 1802.21C85.1353 1802.39 85.2736 1802.54 85.4395 1802.66C85.6055 1802.78 85.7951 1802.86 85.9956 1802.9L114.332 1805.42C114.654 1805.49 114.988 1805.44 115.276 1805.28C115.564 1805.12 115.786 1804.87 115.904 1804.56L116.539 1794L87.0057 1793.17L84.9296 1801.03ZM141.397 1778.58L147.214 1784.89C147.36 1785.05 147.466 1785.24 147.527 1785.44C147.588 1785.65 147.601 1785.87 147.565 1786.08C147.529 1786.29 147.445 1786.5 147.319 1786.67C147.194 1786.85 147.03 1786.99 146.84 1787.09L124.395 1802.62C124.089 1802.8 123.726 1802.86 123.379 1802.78C123.032 1802.71 122.726 1802.5 122.525 1802.21L116.39 1793.94L141.397 1778.58Z" fill="url(#paint8_linear_3591_7396)"/>
<path d="M130.819 1861.14C130.814 1860.46 130.688 1859.78 130.445 1859.14C129.872 1857.75 128.794 1856.64 127.429 1856.01C126.064 1855.39 124.513 1855.3 123.089 1855.78C121.666 1856.25 120.475 1857.25 119.757 1858.57C119.039 1859.89 118.848 1861.43 119.222 1862.88C119.366 1863.38 119.574 1863.86 119.84 1864.3L120.438 1864.73C120.682 1864.91 120.964 1865.03 121.262 1865.09C121.559 1865.14 121.866 1865.13 122.157 1865.05C122.449 1864.97 122.719 1864.82 122.946 1864.62C123.173 1864.42 123.351 1864.17 123.468 1863.89L123.58 1863.63C123.6 1863.59 123.628 1863.55 123.663 1863.52C123.698 1863.49 123.739 1863.47 123.784 1863.46C123.828 1863.44 123.875 1863.44 123.921 1863.45C123.966 1863.46 124.01 1863.47 124.048 1863.5H124.16C124.403 1863.69 124.685 1863.82 124.985 1863.88C125.285 1863.94 125.595 1863.93 125.892 1863.85C126.188 1863.77 126.463 1863.63 126.694 1863.43C126.926 1863.23 127.108 1862.98 127.228 1862.69C127.245 1862.65 127.271 1862.62 127.304 1862.59C127.338 1862.56 127.378 1862.53 127.421 1862.52C127.464 1862.51 127.509 1862.51 127.553 1862.51C127.598 1862.52 127.64 1862.54 127.677 1862.56C127.937 1862.74 128.236 1862.86 128.549 1862.9C128.862 1862.94 129.181 1862.91 129.479 1862.8C129.777 1862.7 130.047 1862.53 130.267 1862.3C130.487 1862.07 130.65 1861.8 130.744 1861.5L130.819 1861.14Z" fill="url(#paint9_linear_3591_7396)"/>
<path d="M151.127 1855.42C151.132 1854.73 151.005 1854.06 150.753 1853.42C150.181 1852.03 149.103 1850.91 147.738 1850.29C146.373 1849.66 144.822 1849.58 143.398 1850.06C141.974 1850.53 140.783 1851.53 140.066 1852.85C139.348 1854.16 139.157 1855.71 139.531 1857.16C139.675 1857.66 139.882 1858.14 140.148 1858.58L140.747 1859.01C140.991 1859.19 141.272 1859.31 141.57 1859.37C141.868 1859.42 142.174 1859.41 142.466 1859.33C142.758 1859.24 143.027 1859.1 143.254 1858.9C143.481 1858.7 143.66 1858.45 143.777 1858.17L143.889 1857.91C143.908 1857.87 143.936 1857.83 143.972 1857.8C144.007 1857.77 144.048 1857.75 144.092 1857.73C144.137 1857.72 144.184 1857.72 144.229 1857.73C144.275 1857.73 144.318 1857.75 144.357 1857.78L144.469 1857.87C144.713 1858.06 144.996 1858.19 145.298 1858.25C145.6 1858.31 145.911 1858.3 146.209 1858.22C146.506 1858.15 146.782 1858 147.016 1857.8C147.249 1857.6 147.434 1857.35 147.555 1857.07C147.572 1857.02 147.598 1856.99 147.632 1856.96C147.665 1856.93 147.705 1856.9 147.748 1856.89C147.791 1856.88 147.836 1856.88 147.881 1856.88C147.925 1856.89 147.967 1856.91 148.004 1856.93C148.265 1857.11 148.564 1857.23 148.877 1857.27C149.19 1857.31 149.508 1857.28 149.806 1857.17C150.105 1857.07 150.374 1856.9 150.594 1856.67C150.814 1856.45 150.977 1856.17 151.071 1855.87L151.127 1855.42Z" fill="url(#paint10_linear_3591_7396)"/>
<path d="M121.19 1793.27C159.375 1780.14 181.445 1743.66 170.486 1711.8C159.526 1679.93 119.687 1664.75 81.5027 1677.88C43.3181 1691.01 21.2476 1727.49 32.207 1759.36C43.1663 1791.22 83.0054 1806.41 121.19 1793.27Z" fill="url(#paint11_linear_3591_7396)"/>
<path d="M81.5294 1675.09C81.5294 1675.09 56.4284 1681.06 40.2681 1701.45C40.2681 1701.45 26.3709 1715.08 1.9807 1710.61C1.68554 1710.56 1.38271 1710.59 1.10268 1710.7C0.822659 1710.8 0.575304 1710.98 0.38564 1711.21C0.195975 1711.45 0.0707278 1711.72 0.02238 1712.02C-0.0259678 1712.31 0.00432557 1712.62 0.110284 1712.9C1.32605 1716.04 4.618 1720.73 13.4651 1721.52C13.5701 1721.53 13.6699 1721.57 13.7527 1721.64C13.8356 1721.7 13.8982 1721.79 13.9333 1721.89C13.9685 1721.99 13.9749 1722.1 13.9516 1722.2C13.9283 1722.3 13.8763 1722.4 13.8017 1722.47C12.4316 1723.86 10.8222 1724.99 9.05091 1725.8C8.73468 1725.94 8.46717 1726.17 8.28329 1726.46C8.09941 1726.75 8.00759 1727.09 8.01969 1727.44C8.03179 1727.78 8.14732 1728.12 8.35121 1728.4C8.55511 1728.67 8.838 1728.88 9.16313 1729C11.4744 1729.79 13.9037 1730.17 16.3454 1730.14C16.4356 1730.14 16.5257 1730.15 16.6076 1730.19C16.6894 1730.23 16.7605 1730.29 16.8144 1730.36C16.8683 1730.43 16.9032 1730.52 16.916 1730.6C16.9289 1730.69 16.9192 1730.79 16.8879 1730.87C16.3968 1732.58 15.4378 1734.11 14.1196 1735.3C13.8921 1735.47 13.7121 1735.7 13.5968 1735.96C13.4815 1736.22 13.4347 1736.51 13.4609 1736.79C13.4872 1737.07 13.5856 1737.34 13.7468 1737.58C13.908 1737.81 14.1265 1738 14.3815 1738.13C16.0048 1739 17.8703 1739.33 19.6936 1739.04C19.7807 1739.03 19.8706 1739.03 19.9556 1739.06C20.0405 1739.08 20.1178 1739.13 20.1806 1739.19C20.2434 1739.26 20.2898 1739.33 20.3157 1739.42C20.3417 1739.5 20.3464 1739.59 20.3294 1739.68C20.2404 1740.34 20.0169 1740.98 19.6728 1741.55C19.3286 1742.12 18.871 1742.62 18.3281 1743.01C18.2907 1743.02 18.2581 1743.05 18.235 1743.08C18.2119 1743.11 18.1994 1743.15 18.1994 1743.19C18.1994 1743.23 18.2119 1743.26 18.235 1743.3C18.2581 1743.33 18.2907 1743.35 18.3281 1743.36C21.6574 1744.17 27.3248 1742.65 29.4383 1739.92L32.0008 1737.02C32.0008 1737.02 66.0797 1700.91 94.9962 1715.93C94.9962 1715.93 118.152 1678.2 168.747 1707.56C170.209 1708.06 171.788 1708.11 173.276 1707.7C174.765 1707.28 176.094 1706.43 177.089 1705.25C177.13 1705.19 177.153 1705.12 177.156 1705.05C177.16 1704.98 177.142 1704.91 177.106 1704.85C177.07 1704.79 177.017 1704.75 176.954 1704.72C176.892 1704.69 176.821 1704.67 176.752 1704.68C175.975 1704.64 175.215 1704.44 174.516 1704.1C173.816 1703.76 173.19 1703.28 172.674 1702.7C172.624 1702.66 172.587 1702.6 172.566 1702.54C172.546 1702.48 172.543 1702.41 172.559 1702.35C172.574 1702.28 172.607 1702.22 172.654 1702.18C172.701 1702.13 172.76 1702.1 172.824 1702.08C174.899 1701.39 176.666 1700 177.818 1698.14C177.959 1697.88 178.036 1697.59 178.043 1697.29C178.051 1697 177.988 1696.7 177.86 1696.44C177.732 1696.17 177.543 1695.94 177.308 1695.76C177.074 1695.58 176.799 1695.46 176.509 1695.41C174.491 1694.94 172.647 1693.91 171.197 1692.43C171.154 1692.4 171.119 1692.35 171.095 1692.3C171.071 1692.25 171.059 1692.2 171.059 1692.14C171.059 1692.09 171.071 1692.03 171.095 1691.98C171.119 1691.93 171.154 1691.89 171.197 1691.85C173.752 1690.51 176.035 1688.7 177.93 1686.52C178.117 1686.24 178.223 1685.91 178.237 1685.57C178.251 1685.23 178.172 1684.89 178.008 1684.59C177.845 1684.3 177.603 1684.05 177.309 1683.88C177.015 1683.71 176.681 1683.62 176.341 1683.62C173.976 1683.83 171.594 1683.58 169.326 1682.88C169.258 1682.85 169.197 1682.81 169.15 1682.76C169.104 1682.71 169.074 1682.64 169.064 1682.57C169.054 1682.5 169.065 1682.43 169.095 1682.36C169.125 1682.3 169.173 1682.24 169.233 1682.2C177.762 1676.59 178.267 1669.99 177.687 1666.32C177.637 1666.02 177.507 1665.73 177.31 1665.49C177.113 1665.25 176.856 1665.07 176.566 1664.96C176.275 1664.85 175.961 1664.82 175.656 1664.87C175.35 1664.93 175.064 1665.06 174.826 1665.26C165.389 1673.54 153.249 1678.09 140.69 1678.05C137.201 1677.99 133.744 1677.36 130.459 1676.18C114.64 1670.85 97.5697 1670.47 81.5294 1675.09Z" fill="url(#paint12_linear_3591_7396)"/>
<path d="M101.879 1773.16C104.947 1773.97 108.177 1773.94 111.232 1773.09C114.287 1772.23 117.058 1770.57 119.255 1768.28C116.618 1774.69 107.546 1776.79 101.879 1773.16Z" fill="#DB9B47"/>
<path d="M108.035 1762.59C106.014 1776.19 100.553 1782.51 88.2455 1786.25C70.1399 1791.75 50.1265 1778.77 43.5801 1757.11C37.0336 1735.45 46.5353 1714.09 64.51 1708.07C77.6029 1703.71 89.5174 1711.81 93.5949 1715.03C93.7641 1715.16 93.9629 1715.25 94.1749 1715.3C94.3869 1715.34 94.606 1715.33 94.8142 1715.27C95.0224 1715.21 95.2137 1715.11 95.3725 1714.96C95.5312 1714.81 95.6528 1714.63 95.7272 1714.43C97.4732 1709.29 100.434 1704.66 104.359 1700.91C108.283 1697.16 113.054 1694.42 118.266 1692.92C136.596 1688.15 156.048 1701.99 161.715 1723.84C167.383 1745.68 157.152 1767.23 138.822 1772C126.421 1775.12 116.844 1773.05 108.035 1762.59Z" fill="url(#paint13_linear_3591_7396)"/>
<path d="M104.573 1760.72L110.278 1758.85C111.132 1758.57 112.043 1758.53 112.922 1758.71C113.801 1758.89 114.617 1759.3 115.289 1759.9C115.961 1760.49 116.467 1761.25 116.756 1762.1C117.045 1762.95 117.107 1763.86 116.936 1764.74L114.206 1778.75C114.153 1779.02 114.027 1779.27 113.841 1779.47C113.655 1779.67 113.417 1779.82 113.153 1779.89C112.889 1779.97 112.61 1779.96 112.346 1779.89C112.083 1779.81 111.846 1779.67 111.662 1779.46L102.31 1769.06C101.739 1768.42 101.338 1767.65 101.141 1766.81C100.945 1765.98 100.959 1765.11 101.184 1764.28C101.409 1763.45 101.836 1762.69 102.428 1762.07C103.02 1761.45 103.757 1760.99 104.573 1760.72Z" fill="url(#paint14_linear_3591_7396)"/>
<path d="M82.8568 1765.25C92.4017 1765.25 100.139 1757.51 100.139 1747.96C100.139 1738.42 92.4017 1730.68 82.8568 1730.68C73.3119 1730.68 65.5742 1738.42 65.5742 1747.96C65.5742 1757.51 73.3119 1765.25 82.8568 1765.25Z" fill="white"/>
<path d="M85.309 1759.69C91.5483 1759.69 96.6063 1754.63 96.6063 1748.4C96.6063 1742.16 91.5483 1737.1 85.309 1737.1C79.0696 1737.1 74.0117 1742.16 74.0117 1748.4C74.0117 1754.63 79.0696 1759.69 85.309 1759.69Z" fill="url(#paint15_radial_3591_7396)"/>
<path opacity="0.5" d="M79.9023 1743.89C79.2121 1744.49 78.6807 1745.26 78.3546 1746.11C78.0285 1746.97 77.9177 1747.9 78.0319 1748.81" stroke="white" stroke-width="0.63" stroke-miterlimit="10" stroke-linecap="round"/>
<path d="M122.529 1754.14C132.074 1754.14 139.811 1746.4 139.811 1736.85C139.811 1727.31 132.074 1719.57 122.529 1719.57C112.984 1719.57 105.246 1727.31 105.246 1736.85C105.246 1746.4 112.984 1754.14 122.529 1754.14Z" fill="white"/>
<path d="M120.809 1749.59C127.048 1749.59 132.106 1744.53 132.106 1738.3C132.106 1732.06 127.048 1727 120.809 1727C114.57 1727 109.512 1732.06 109.512 1738.3C109.512 1744.53 114.57 1749.59 120.809 1749.59Z" fill="url(#paint16_radial_3591_7396)"/>
<path opacity="0.5" d="M114.917 1734.54C114.31 1735.22 113.88 1736.04 113.665 1736.93C113.45 1737.82 113.456 1738.75 113.682 1739.64" stroke="white" stroke-width="0.63" stroke-miterlimit="10" stroke-linecap="round"/>
<path d="M88.3178 1722.38C85.3626 1720.51 78.0679 1720.9 69.6137 1724.04C68.2296 1724.57 66.4713 1725.15 66.7332 1726.87C67.4626 1731.71 72.3444 1729.24 73.3731 1728.74C76.2536 1727.61 78.9844 1726.98 89.0098 1725.58C90.0199 1725.54 89.2717 1722.98 88.3178 1722.38Z" fill="#823232"/>
<path d="M106.148 1717.12C107.776 1714.03 114.266 1710.69 122.982 1709.21C124.441 1708.97 126.255 1708.57 126.891 1710.18C128.762 1714.75 123.15 1715.04 122.14 1715.23C119.073 1715.7 116.398 1716.54 107.028 1720.36C106.317 1720.69 105.625 1718.13 106.148 1717.12Z" fill="#823232"/>
<path d="M48.3709 1687.36C48.3709 1687.36 49.6989 1693.35 36.1384 1680.72C22.0729 1667.63 54.562 1651.54 74.5193 1647.06C95.2061 1642.49 124.497 1637.95 122.103 1656.41C121.236 1659.73 119.833 1662.89 117.95 1665.76L115.762 1669.5C103.905 1667.79 91.8246 1668.49 80.2448 1671.56C68.665 1674.63 57.8238 1680 48.3709 1687.36Z" fill="url(#paint17_linear_3591_7396)"/>
<path d="M40.2869 1700.72C39.3704 1701.73 40.287 1702.2 41.484 1701.6C55.3111 1694.11 70.0124 1688.37 85.2517 1684.5C117.18 1676.44 128.159 1677.73 129.487 1676.1C130.815 1674.48 122.735 1673.45 116.525 1672.61C116.525 1672.61 68.923 1660.56 50.3498 1690.92C46.7289 1693.9 43.363 1697.18 40.2869 1700.72Z" fill="url(#paint18_linear_3591_7396)"/>
<path d="M50.2178 1691.12C50.2178 1691.12 49.8064 1692.15 46.8138 1688.69C45.2426 1686.82 52.1257 1680.5 57.3815 1677.47C79.8265 1664.6 108.238 1663.01 117.01 1667.54C117.01 1667.54 119.33 1672.72 115.795 1672.68C112.259 1672.64 74.8137 1666.75 50.2178 1691.12Z" fill="url(#paint19_linear_3591_7396)"/>
<path d="M138.828 1842.82C139.58 1840.52 139.291 1838.35 138.182 1837.99C137.073 1837.63 135.564 1839.21 134.812 1841.51C134.059 1843.82 134.348 1845.98 135.457 1846.34C136.566 1846.7 138.075 1845.13 138.828 1842.82Z" fill="#4C8D43"/>
<path d="M195.829 1812.01C198.257 1812.01 200.225 1811.06 200.225 1809.89C200.225 1808.73 198.257 1807.78 195.829 1807.78C193.402 1807.78 191.434 1808.73 191.434 1809.89C191.434 1811.06 193.402 1812.01 195.829 1812.01Z" fill="#4C8D43"/>
<path d="M547.443 3583.76L654.262 3539.59C655.668 3539.01 657.195 3538.79 658.709 3538.94C660.223 3539.09 661.677 3539.61 662.942 3540.46C664.207 3541.3 665.245 3542.45 665.964 3543.79C666.682 3545.13 667.06 3546.63 667.063 3548.15C667.084 3549.7 666.718 3551.23 665.996 3552.59C665.275 3553.96 664.222 3555.12 662.934 3555.98L487.934 3674.21L547.443 3583.76Z" fill="url(#paint20_linear_3591_7396)"/>
<path d="M425.319 2068.28L203.395 1790.62C202.368 1789.34 200.922 1788.46 199.31 1788.13C197.699 1787.81 196.025 1788.07 194.585 1788.86C193.743 1789.33 193.008 1789.96 192.424 1790.73C191.841 1791.5 191.423 1792.37 191.196 1793.31C190.969 1794.24 190.939 1795.22 191.107 1796.16C191.275 1797.11 191.638 1798.01 192.172 1798.81L298.505 1958.43L227.093 1926.34C226.109 1925.89 225.035 1925.69 223.957 1925.73C222.878 1925.77 221.825 1926.07 220.88 1926.59C219.934 1927.11 219.123 1927.84 218.51 1928.73C217.897 1929.62 217.499 1930.64 217.348 1931.71L216.918 1934.81C216.737 1936.11 216.927 1937.44 217.466 1938.64C218.006 1939.83 218.872 1940.85 219.966 1941.58L346.444 2025.34L436.41 2182.45L425.319 2068.28Z" fill="url(#paint21_linear_3591_7396)"/>
<path d="M362.318 978.238L278.29 898.861C277.185 897.816 276.354 896.515 275.872 895.072C275.389 893.629 275.269 892.089 275.523 890.589C275.777 889.088 276.397 887.673 277.327 886.467C278.258 885.262 279.471 884.304 280.859 883.678C282.261 883.025 283.804 882.735 285.346 882.834C286.889 882.932 288.381 883.417 289.687 884.243L469.202 995.503L362.318 978.238Z" fill="url(#paint22_linear_3591_7396)"/>
<path d="M523.285 875.282L650.572 781.048C652.248 779.809 654.203 779.001 656.265 778.698C658.327 778.394 660.433 778.603 662.396 779.307C664.359 780.011 666.119 781.187 667.521 782.732C668.922 784.278 669.923 786.144 670.433 788.167C670.976 790.215 670.996 792.366 670.492 794.423C669.988 796.479 668.975 798.376 667.547 799.938L474.272 1015.29L523.285 875.282Z" fill="url(#paint23_linear_3591_7396)"/>
<path d="M559 0H343V7680H559V0Z" fill="url(#paint24_linear_3591_7396)"/>
<path d="M85.044 1960.82C108.741 1960.82 127.951 1941.61 127.951 1917.91C127.951 1894.21 108.741 1875 85.044 1875C61.347 1875 42.1367 1894.21 42.1367 1917.91C42.1367 1941.61 61.347 1960.82 85.044 1960.82Z" fill="#4C8D43"/>
<path d="M106.442 1912.82C130.139 1912.82 149.35 1893.61 149.35 1869.92C149.35 1846.22 130.139 1827.01 106.442 1827.01C82.7454 1827.01 63.5352 1846.22 63.5352 1869.92C63.5352 1893.61 82.7454 1912.82 106.442 1912.82Z" fill="#4C8D43"/>
<path d="M163.192 1872.48C186.889 1872.48 206.1 1853.27 206.1 1829.57C206.1 1805.87 186.889 1786.66 163.192 1786.66C139.495 1786.66 120.285 1805.87 120.285 1829.57C120.285 1853.27 139.495 1872.48 163.192 1872.48Z" fill="#4C8D43"/>
<path d="M292.286 1867.58C315.983 1867.58 335.193 1848.37 335.193 1824.67C335.193 1800.97 315.983 1781.76 292.286 1781.76C268.589 1781.76 249.379 1800.97 249.379 1824.67C249.379 1848.37 268.589 1867.58 292.286 1867.58Z" fill="#4C8D43"/>
<path d="M339.669 1874.72C363.366 1874.72 382.576 1855.51 382.576 1831.82C382.576 1808.12 363.366 1788.91 339.669 1788.91C315.972 1788.91 296.762 1808.12 296.762 1831.82C296.762 1855.51 315.972 1874.72 339.669 1874.72Z" fill="#4C8D43"/>
<path d="M301.173 1895.19C324.87 1895.19 344.08 1875.98 344.08 1852.28C344.08 1828.58 324.87 1809.37 301.173 1809.37C277.476 1809.37 258.266 1828.58 258.266 1852.28C258.266 1875.98 277.476 1895.19 301.173 1895.19Z" fill="#4C8D43"/>
<path d="M259.817 1918.15C283.514 1918.15 302.725 1898.94 302.725 1875.25C302.725 1851.55 283.514 1832.34 259.817 1832.34C236.12 1832.34 216.91 1851.55 216.91 1875.25C216.91 1898.94 236.12 1918.15 259.817 1918.15Z" fill="#4C8D43"/>
<path d="M213.655 1950.18C238.84 1950.18 259.256 1929.76 259.256 1904.58C259.256 1879.39 238.84 1858.97 213.655 1858.97C188.471 1858.97 168.055 1879.39 168.055 1904.58C168.055 1929.76 188.471 1950.18 213.655 1950.18Z" fill="#4C8D43"/>
<path d="M144.448 1965.78C169.633 1965.78 190.049 1945.36 190.049 1920.17C190.049 1894.99 169.633 1874.57 144.448 1874.57C119.264 1874.57 98.8477 1894.99 98.8477 1920.17C98.8477 1945.36 119.264 1965.78 144.448 1965.78Z" fill="#4C8D43"/>
<path d="M189.416 1932.61C223.691 1932.61 251.476 1904.83 251.476 1870.55C251.476 1836.28 223.691 1808.49 189.416 1808.49C155.141 1808.49 127.355 1836.28 127.355 1870.55C127.355 1904.83 155.141 1932.61 189.416 1932.61Z" fill="#4C8D43"/>
<path d="M223.478 1878.41C257.753 1878.41 285.539 1850.62 285.539 1816.35C285.539 1782.07 257.753 1754.29 223.478 1754.29C189.203 1754.29 161.418 1782.07 161.418 1816.35C161.418 1850.62 189.203 1878.41 223.478 1878.41Z" fill="#4C8D43"/>
<path d="M348.466 4452.68L214.442 4347.46C212.678 4345.93 210.563 4344.86 208.286 4344.35C206.009 4343.83 203.641 4343.89 201.391 4344.51C199.141 4345.14 197.08 4346.31 195.39 4347.92C193.7 4349.53 192.434 4351.54 191.705 4353.76C190.97 4356.01 190.806 4358.4 191.23 4360.73C191.654 4363.06 192.651 4365.24 194.131 4367.08L349 4593L348.466 4452.68Z" fill="url(#paint25_linear_3591_7396)"/>
<path d="M161.22 5230.72C161.858 5229.74 162.695 5228.91 163.677 5228.29C164.66 5227.66 165.764 5227.25 166.917 5227.08C168.07 5226.92 169.245 5227 170.364 5227.32C171.483 5227.64 172.521 5228.2 173.408 5228.96L390.046 5413.71C391.262 5414.75 392.151 5416.12 392.604 5417.65C393.058 5419.18 393.056 5420.81 392.599 5422.34L380.975 5460.92C380.556 5462.31 379.776 5463.56 378.715 5464.55C377.654 5465.54 376.35 5466.23 374.935 5466.56C373.52 5466.88 372.045 5466.82 370.659 5466.39C369.273 5465.96 368.025 5465.17 367.043 5464.1L162.031 5240.77C160.795 5239.43 160.044 5237.71 159.898 5235.88C159.751 5234.06 160.216 5232.24 161.22 5230.72Z" fill="url(#paint26_linear_3591_7396)"/>
<path d="M226.817 5213.27C229.871 5190.08 223.371 5170.1 212.3 5168.64C201.228 5167.18 189.778 5184.8 186.724 5208C183.671 5231.19 190.17 5251.17 201.242 5252.63C212.313 5254.09 223.764 5236.47 226.817 5213.27Z" fill="#8BC54F"/>
<path d="M149.037 5294.21C172.376 5292.6 190.674 5282.27 189.907 5271.13C189.139 5259.99 169.597 5252.26 146.259 5253.87C122.92 5255.47 104.622 5265.81 105.389 5276.95C106.157 5288.09 125.698 5295.82 149.037 5294.21Z" fill="#8BC54F"/>
<path d="M315.233 5279.97C318.73 5253.41 311.284 5230.53 298.602 5228.86C285.92 5227.19 272.804 5247.37 269.308 5273.93C265.811 5300.48 273.257 5323.37 285.939 5325.04C298.621 5326.71 311.737 5306.53 315.233 5279.97Z" fill="#8BC54F"/>
<path d="M220.726 5382.09C247.452 5380.25 268.405 5368.41 267.526 5355.65C266.647 5342.89 244.269 5334.03 217.543 5335.87C190.818 5337.71 169.865 5349.55 170.744 5362.31C171.623 5375.07 194.001 5383.93 220.726 5382.09Z" fill="#8BC54F"/>
<path d="M558 5258.69L648.753 5175.95C649.814 5174.83 651.133 5173.99 652.595 5173.49C654.057 5173 655.616 5172.87 657.138 5173.13C658.659 5173.38 660.096 5174 661.322 5174.94C662.548 5175.88 663.526 5177.1 664.171 5178.51C664.811 5179.94 665.088 5181.51 664.976 5183.07C664.864 5184.64 664.367 5186.15 663.529 5187.47L558 5369V5258.69Z" fill="url(#paint27_linear_3591_7396)"/>
<defs>
<linearGradient id="paint0_linear_3591_7396" x1="442.676" y1="4440.27" x2="865.456" y2="4341.45" gradientUnits="userSpaceOnUse">
<stop stop-color="#65140E"/>
<stop offset="0.1" stop-color="#722316"/>
<stop offset="0.28" stop-color="#863A22"/>
<stop offset="0.48" stop-color="#954A2A"/>
<stop offset="0.71" stop-color="#9D542F"/>
<stop offset="1" stop-color="#A05731"/>
</linearGradient>
<linearGradient id="paint1_linear_3591_7396" x1="724.632" y1="171.014" x2="310.615" y2="200.994" gradientUnits="userSpaceOnUse">
<stop stop-color="#AB6338"/>
<stop offset="0.28" stop-color="#A86036"/>
<stop offset="0.48" stop-color="#A05631"/>
<stop offset="0.67" stop-color="#914629"/>
<stop offset="0.85" stop-color="#7D2F1C"/>
<stop offset="1" stop-color="#65140E"/>
</linearGradient>
<linearGradient id="paint2_linear_3591_7396" x1="259.98" y1="3143.23" x2="624.243" y2="2746.87" gradientUnits="userSpaceOnUse">
<stop stop-color="#AB6338"/>
<stop offset="0.55" stop-color="#A86036"/>
<stop offset="0.96" stop-color="#9F5631"/>
<stop offset="1" stop-color="#9E5530"/>
</linearGradient>
<linearGradient id="paint3_linear_3591_7396" x1="860.482" y1="1660.43" x2="395.573" y2="1914.34" gradientUnits="userSpaceOnUse">
<stop stop-color="#AB6338"/>
<stop offset="0.28" stop-color="#A86036"/>
<stop offset="0.48" stop-color="#A05631"/>
<stop offset="0.67" stop-color="#914629"/>
<stop offset="0.85" stop-color="#7D2F1C"/>
<stop offset="1" stop-color="#65140E"/>
</linearGradient>
<linearGradient id="paint4_linear_3591_7396" x1="387.199" y1="2080.67" x2="831.399" y2="1938.61" gradientUnits="userSpaceOnUse">
<stop stop-color="#AB6338"/>
<stop offset="0.28" stop-color="#A86036"/>
<stop offset="0.48" stop-color="#A05631"/>
<stop offset="0.67" stop-color="#914629"/>
<stop offset="0.85" stop-color="#7D2F1C"/>
<stop offset="1" stop-color="#65140E"/>
</linearGradient>
<linearGradient id="paint5_linear_3591_7396" x1="14.3491" y1="1800.33" x2="114.782" y2="1824.18" gradientUnits="userSpaceOnUse">
<stop stop-color="#923B35"/>
<stop offset="0.2" stop-color="#98413C"/>
<stop offset="0.47" stop-color="#A6524D"/>
<stop offset="0.64" stop-color="#A9564B"/>
<stop offset="0.82" stop-color="#B36245"/>
<stop offset="0.99" stop-color="#C3763C"/>
<stop offset="1" stop-color="#C4783B"/>
</linearGradient>
<linearGradient id="paint6_linear_3591_7396" x1="225.28" y1="1784.27" x2="135.291" y2="1767.85" gradientUnits="userSpaceOnUse">
<stop stop-color="#923B35"/>
<stop offset="0.58" stop-color="#A6524D"/>
<stop offset="0.72" stop-color="#A9564B"/>
<stop offset="0.85" stop-color="#B36245"/>
<stop offset="0.99" stop-color="#C3763C"/>
<stop offset="1" stop-color="#C4783B"/>
</linearGradient>
<linearGradient id="paint7_linear_3591_7396" x1="86.1775" y1="1825.79" x2="158.531" y2="1805.4" gradientUnits="userSpaceOnUse">
<stop stop-color="#CAB19C"/>
<stop offset="0.47" stop-color="#F7DFCF"/>
<stop offset="1" stop-color="#FAF0DC"/>
</linearGradient>
<linearGradient id="paint8_linear_3591_7396" x1="89.3811" y1="1819.06" x2="137.518" y2="1782.96" gradientUnits="userSpaceOnUse">
<stop stop-color="#0A4874"/>
<stop offset="0.54" stop-color="#283C8E"/>
<stop offset="0.74" stop-color="#254F9E"/>
<stop offset="1" stop-color="#2264AF"/>
</linearGradient>
<linearGradient id="paint9_linear_3591_7396" x1="121.36" y1="1839.81" x2="127.901" y2="1830.55" gradientUnits="userSpaceOnUse">
<stop stop-color="#F8982F"/>
<stop offset="0.23" stop-color="#F99F35"/>
<stop offset="0.57" stop-color="#FCB346"/>
<stop offset="0.72" stop-color="#FDBE4F"/>
<stop offset="1" stop-color="#FDBE4F"/>
</linearGradient>
<linearGradient id="paint10_linear_3591_7396" x1="143.385" y1="1860.11" x2="148.095" y2="1850.13" gradientUnits="userSpaceOnUse">
<stop stop-color="#F8982F"/>
<stop offset="0.23" stop-color="#F99F35"/>
<stop offset="0.57" stop-color="#FCB346"/>
<stop offset="0.72" stop-color="#FDBE4F"/>
<stop offset="1" stop-color="#FDBE4F"/>
</linearGradient>
<linearGradient id="paint11_linear_3591_7396" x1="32.2131" y1="1759.37" x2="170.509" y2="1711.81" gradientUnits="userSpaceOnUse">
<stop stop-color="#CAB19C"/>
<stop offset="0.47" stop-color="#F7DFCF"/>
<stop offset="1" stop-color="#FAF0DC"/>
</linearGradient>
<linearGradient id="paint12_linear_3591_7396" x1="2.80945" y1="1721.96" x2="181.284" y2="1678.49" gradientUnits="userSpaceOnUse">
<stop stop-color="#B99F95"/>
<stop offset="0.47" stop-color="#F3D3B9"/>
<stop offset="0.49" stop-color="#F3D4BA"/>
<stop offset="1" stop-color="#F7DFCF"/>
</linearGradient>
<linearGradient id="paint13_linear_3591_7396" x1="153.508" y1="1746.98" x2="35.6447" y2="1782.58" gradientUnits="userSpaceOnUse">
<stop stop-color="#C4783B"/>
<stop offset="0.23" stop-color="#B56544"/>
<stop offset="0.44" stop-color="#A6524D"/>
<stop offset="0.67" stop-color="#A34F49"/>
<stop offset="0.88" stop-color="#9A443E"/>
<stop offset="1" stop-color="#923B35"/>
</linearGradient>
<linearGradient id="paint14_linear_3591_7396" x1="106.068" y1="1754.05" x2="117.819" y2="1742.82" gradientUnits="userSpaceOnUse">
<stop stop-color="#F8982F"/>
<stop offset="0.21" stop-color="#F99E34"/>
<stop offset="0.49" stop-color="#FBAE42"/>
<stop offset="0.69" stop-color="#FDBE4F"/>
<stop offset="1" stop-color="#FDBE4F"/>
</linearGradient>
<radialGradient id="paint15_radial_3591_7396" cx="0" cy="0" r="1" gradientUnits="userSpaceOnUse" gradientTransform="translate(78.5188 1746.42) rotate(-18.9799) scale(11.2973 11.2973)">
<stop stop-color="#321C26"/>
<stop offset="0.15" stop-color="#2C1A25"/>
<stop offset="0.6" stop-color="#1F1723"/>
<stop offset="1" stop-color="#1A1622"/>
</radialGradient>
<radialGradient id="paint16_radial_3591_7396" cx="0" cy="0" r="1" gradientUnits="userSpaceOnUse" gradientTransform="translate(114.318 1737.24) rotate(-25.8301) scale(11.2973 11.2973)">
<stop stop-color="#321C26"/>
<stop offset="0.15" stop-color="#2C1A25"/>
<stop offset="0.6" stop-color="#1F1723"/>
<stop offset="1" stop-color="#1A1622"/>
</radialGradient>
<linearGradient id="paint17_linear_3591_7396" x1="40.8221" y1="1689.52" x2="115.422" y2="1641.41" gradientUnits="userSpaceOnUse">
<stop stop-color="#0A4874"/>
<stop offset="0.54" stop-color="#283C8E"/>
<stop offset="0.74" stop-color="#254F9E"/>
<stop offset="1" stop-color="#2264AF"/>
</linearGradient>
<linearGradient id="paint18_linear_3591_7396" x1="44.8403" y1="1709.94" x2="120.022" y2="1661.45" gradientUnits="userSpaceOnUse">
<stop stop-color="#0A4874"/>
<stop offset="0.54" stop-color="#283C8E"/>
<stop offset="0.74" stop-color="#254F9E"/>
<stop offset="1" stop-color="#2264AF"/>
</linearGradient>
<linearGradient id="paint19_linear_3591_7396" x1="51.8795" y1="1697.32" x2="111.091" y2="1659.13" gradientUnits="userSpaceOnUse">
<stop stop-color="#1A1622"/>
<stop offset="0.4" stop-color="#1F1723"/>
<stop offset="0.85" stop-color="#2C1A25"/>
<stop offset="1" stop-color="#321C26"/>
</linearGradient>
<linearGradient id="paint20_linear_3591_7396" x1="729.821" y1="3595.21" x2="291.29" y2="3626.97" gradientUnits="userSpaceOnUse">
<stop stop-color="#AB6338"/>
<stop offset="0.28" stop-color="#A86036"/>
<stop offset="0.48" stop-color="#A05631"/>
<stop offset="0.67" stop-color="#914629"/>
<stop offset="0.85" stop-color="#7D2F1C"/>
<stop offset="1" stop-color="#65140E"/>
</linearGradient>
<linearGradient id="paint21_linear_3591_7396" x1="536.238" y1="2200.75" x2="102.673" y2="1771.44" gradientUnits="userSpaceOnUse">
<stop stop-color="#65140E"/>
<stop offset="0.14" stop-color="#7D2F1C"/>
<stop offset="0.3" stop-color="#914629"/>
<stop offset="0.47" stop-color="#A05631"/>
<stop offset="0.65" stop-color="#A86036"/>
<stop offset="0.9" stop-color="#AB6338"/>
</linearGradient>
<linearGradient id="paint22_linear_3591_7396" x1="298.101" y1="807.156" x2="506.596" y2="1194.26" gradientUnits="userSpaceOnUse">
<stop stop-color="#AB6338"/>
<stop offset="0.28" stop-color="#A86036"/>
<stop offset="0.48" stop-color="#A05631"/>
<stop offset="0.67" stop-color="#914629"/>
<stop offset="0.85" stop-color="#7D2F1C"/>
<stop offset="1" stop-color="#65140E"/>
</linearGradient>
<linearGradient id="paint23_linear_3591_7396" x1="769.498" y1="829.84" x2="197.19" y2="1017.9" gradientUnits="userSpaceOnUse">
<stop stop-color="#AB6338"/>
<stop offset="0.28" stop-color="#A86036"/>
<stop offset="0.48" stop-color="#A05631"/>
<stop offset="0.67" stop-color="#914629"/>
<stop offset="0.85" stop-color="#7D2F1C"/>
<stop offset="1" stop-color="#65140E"/>
</linearGradient>
<linearGradient id="paint24_linear_3591_7396" x1="451" y1="10628.8" x2="451" y2="20.9751" gradientUnits="userSpaceOnUse">
<stop stop-color="#65140E"/>
<stop offset="0.15" stop-color="#7D2F1C"/>
<stop offset="0.33" stop-color="#914629"/>
<stop offset="0.52" stop-color="#A05631"/>
<stop offset="0.72" stop-color="#A86036"/>
<stop offset="1" stop-color="#AB6338"/>
</linearGradient>
<linearGradient id="paint25_linear_3591_7396" x1="133.271" y1="4370.85" x2="507.028" y2="4619.94" gradientUnits="userSpaceOnUse">
<stop stop-color="#AB6338"/>
<stop offset="0.25" stop-color="#A86036"/>
<stop offset="0.44" stop-color="#A05631"/>
<stop offset="0.61" stop-color="#914629"/>
<stop offset="0.77" stop-color="#7D2F1C"/>
<stop offset="0.91" stop-color="#65140E"/>
</linearGradient>
<linearGradient id="paint26_linear_3591_7396" x1="512.683" y1="5452.46" x2="-12.1412" y2="5255.3" gradientUnits="userSpaceOnUse">
<stop stop-color="#AB6338"/>
<stop offset="0.28" stop-color="#A86036"/>
<stop offset="0.48" stop-color="#A05631"/>
<stop offset="0.67" stop-color="#914629"/>
<stop offset="0.85" stop-color="#7D2F1C"/>
<stop offset="1" stop-color="#65140E"/>
</linearGradient>
<linearGradient id="paint27_linear_3591_7396" x1="406.48" y1="5414.84" x2="756.371" y2="5160.25" gradientUnits="userSpaceOnUse">
<stop stop-color="#AB6338"/>
<stop offset="0.28" stop-color="#A86036"/>
<stop offset="0.48" stop-color="#A05631"/>
<stop offset="0.67" stop-color="#914629"/>
<stop offset="0.85" stop-color="#7D2F1C"/>
<stop offset="1" stop-color="#65140E"/>
</linearGradient>
</defs>
</svg>
