<svg width="158" height="172" viewBox="0 0 158 172" fill="none" xmlns="http://www.w3.org/2000/svg">
<path d="M70.3086 121.966L42.4524 134.319L13.3174 121.28L42.0469 108.896L70.3086 121.966Z" fill="#8AC48A" stroke="white" stroke-miterlimit="10"/>
<path d="M43.7635 135.847L41.5175 170.285L10.5732 156.498L11.5091 123.401L43.7635 135.847Z" fill="#8AC48A" stroke="white" stroke-miterlimit="10"/>
<path d="M45.1683 136.347L44.8252 169.818L72.1198 155.812L72.6813 124.15L45.1683 136.347Z" fill="#8AC48A" stroke="white" stroke-miterlimit="10"/>
<path d="M148.045 14.8467C144.426 9.29416 137.345 7.11059 131.263 9.66848C122.84 13.2246 109.52 17.8725 97.2613 17.966C77.3284 18.1532 26.2953 -7.51933 19.5574 2.58748C12.9131 12.5383 28.4477 15.5329 34.3433 20.8983C40.2389 26.2636 2.12004 20.5551 0.560344 39.8018C-0.68741 54.9932 15.8141 48.9727 19.4638 47.0699C23.1135 45.1671 37.2443 32.3464 51.8118 40.6752C66.3794 49.0039 41.2995 44.6368 35.2479 57.3015C29.1963 69.9662 26.7632 98.8829 39.927 94.547C53.0908 90.211 47.3823 73.7407 52.2174 68.9056C57.0836 64.0394 78.7322 61.7934 82.0387 66.6597C85.0957 71.1828 88.4646 80.1978 71.9631 90.2422C68.4382 92.3946 65.7555 95.9195 65.3188 100.037C64.9133 103.905 66.3482 107.992 73.7099 108.771C88.4334 110.331 112.016 92.9873 116.009 84.6897C119.44 77.5463 123.246 68.6249 145.081 67.0028C152.474 66.4725 158.183 60.3585 157.996 52.9344C157.746 42.0477 155.812 26.7315 148.045 14.8467Z" fill="#8AC48A"/>
<path d="M79.2318 92.7689L84.3788 101.316C84.9715 102.283 84.6283 103.562 83.6613 104.124C80.23 106.089 72.7123 109.551 69.5305 104.498C66.3487 99.4444 73.0242 94.2662 76.3932 92.0827C77.329 91.49 78.6391 91.7707 79.2318 92.7689Z" fill="#8AC48A"/>
</svg>
