<svg width="360" height="5" viewBox="0 0 360 5" fill="none" xmlns="http://www.w3.org/2000/svg">
<path d="M48 1.43C49.0891 2.51962 50.5309 3.18555 52.0666 3.30833C53.6023 3.43112 55.1316 3.00273 56.38 2.1C56.6706 1.88863 57.0207 1.77477 57.38 1.77477C57.7393 1.77477 58.0894 1.88863 58.38 2.1C59.4817 2.90007 60.8084 3.33096 62.17 3.33096C63.5316 3.33096 64.8583 2.90007 65.96 2.1C66.2506 1.88863 66.6007 1.77477 66.96 1.77477C67.3193 1.77477 67.6694 1.88863 67.96 2.1C69.0617 2.90007 70.3884 3.33096 71.75 3.33096C73.1116 3.33096 74.4383 2.90007 75.54 2.1C75.8306 1.88863 76.1807 1.77477 76.54 1.77477C76.8993 1.77477 77.2494 1.88863 77.54 2.1C78.8688 3.06305 80.5138 3.48519 82.1421 3.28096C83.7704 3.07672 85.2602 2.26138 86.31 1" stroke="#FFCB56" stroke-width="1.42" stroke-miterlimit="10" stroke-linecap="round"/>
<path d="M86.2188 1.43C87.3095 2.52039 88.753 3.18668 90.2904 3.30945C91.8278 3.43223 93.3587 3.00346 94.6087 2.1C94.8993 1.88863 95.2494 1.77477 95.6087 1.77477C95.9681 1.77477 96.3182 1.88863 96.6087 2.1C97.7105 2.90007 99.0372 3.33096 100.399 3.33096C101.76 3.33096 103.087 2.90007 104.189 2.1C104.479 1.88863 104.829 1.77477 105.189 1.77477C105.548 1.77477 105.898 1.88863 106.189 2.1C107.289 2.89923 108.614 3.32969 109.974 3.32969C111.334 3.32969 112.659 2.89923 113.759 2.1C114.049 1.88863 114.399 1.77477 114.759 1.77477C115.118 1.77477 115.468 1.88863 115.759 2.1C117.09 3.06136 118.736 3.4824 120.365 3.27828C121.995 3.07415 123.486 2.26004 124.539 1" stroke="#FFCB56" stroke-width="1.42" stroke-miterlimit="10" stroke-linecap="round"/>
<path d="M124.449 1.43C125.538 2.51962 126.98 3.18555 128.516 3.30833C130.052 3.43112 131.581 3.00273 132.829 2.1C133.12 1.88863 133.47 1.77477 133.829 1.77477C134.189 1.77477 134.539 1.88863 134.829 2.1C135.931 2.90007 137.258 3.33096 138.619 3.33096C139.981 3.33096 141.307 2.90007 142.409 2.1C142.7 1.88863 143.05 1.77477 143.409 1.77477C143.769 1.77477 144.119 1.88863 144.409 2.1C145.511 2.90007 146.838 3.33096 148.199 3.33096C149.561 3.33096 150.887 2.90007 151.989 2.1C152.28 1.88863 152.63 1.77477 152.989 1.77477C153.349 1.77477 153.699 1.88863 153.989 2.1C155.318 3.06305 156.963 3.48519 158.591 3.28096C160.22 3.07672 161.709 2.26138 162.759 1" stroke="#FFCB56" stroke-width="1.42" stroke-miterlimit="10" stroke-linecap="round"/>
<path d="M162.672 1.43C163.894 2.64574 165.548 3.32874 167.272 3.33C168.633 3.33028 169.96 2.89973 171.062 2.1C171.352 1.88863 171.703 1.77477 172.062 1.77477C172.421 1.77477 172.771 1.88863 173.062 2.1C174.164 2.90007 175.49 3.33096 176.852 3.33096C178.213 3.33096 179.54 2.90007 180.642 2.1C180.932 1.88863 181.283 1.77477 181.642 1.77477C182.001 1.77477 182.351 1.88863 182.642 2.1C183.742 2.89923 185.067 3.32969 186.427 3.32969C187.787 3.32969 189.112 2.89923 190.212 2.1C190.503 1.89008 190.853 1.77712 191.212 1.77712C191.571 1.77712 191.921 1.89008 192.212 2.1C193.31 2.89958 194.633 3.33023 195.992 3.33C196.945 3.33273 197.888 3.12537 198.752 2.72266C199.616 2.31995 200.381 1.73179 200.992 1" stroke="#FFCB56" stroke-width="1.42" stroke-miterlimit="10" stroke-linecap="round"/>
<path d="M200.898 1.43C202.12 2.64759 203.774 3.33092 205.498 3.33C206.857 3.33023 208.18 2.89958 209.278 2.1C209.569 1.88863 209.919 1.77477 210.278 1.77477C210.638 1.77477 210.988 1.88863 211.278 2.1C212.38 2.90007 213.707 3.33096 215.068 3.33096C216.43 3.33096 217.757 2.90007 218.858 2.1C219.149 1.88863 219.499 1.77477 219.858 1.77477C220.218 1.77477 220.568 1.88863 220.858 2.1C221.96 2.90007 223.287 3.33096 224.648 3.33096C226.01 3.33096 227.337 2.90007 228.438 2.1C228.729 1.88863 229.079 1.77477 229.438 1.77477C229.798 1.77477 230.148 1.88863 230.438 2.1C231.767 3.06305 233.412 3.48519 235.041 3.28096C236.669 3.07672 238.159 2.26138 239.208 1" stroke="#FFCB56" stroke-width="1.42" stroke-miterlimit="10" stroke-linecap="round"/>
<path d="M239.121 1.43C240.343 2.64574 241.997 3.32874 243.721 3.33C245.083 3.33028 246.409 2.89973 247.511 2.1C247.802 1.88863 248.152 1.77477 248.511 1.77477C248.87 1.77477 249.221 1.88863 249.511 2.1C250.613 2.90007 251.939 3.33096 253.301 3.33096C254.663 3.33096 255.989 2.90007 257.091 2.1C257.382 1.88863 257.732 1.77477 258.091 1.77477C258.45 1.77477 258.801 1.88863 259.091 2.1C260.193 2.90007 261.519 3.33096 262.881 3.33096C264.243 3.33096 265.569 2.90007 266.671 2.1C266.962 1.88863 267.312 1.77477 267.671 1.77477C268.03 1.77477 268.381 1.88863 268.671 2.1C269.742 2.87975 271.027 3.30937 272.351 3.33C273.304 3.33273 274.247 3.12537 275.111 2.72266C275.975 2.31995 276.74 1.73179 277.351 1" stroke="#FFCB56" stroke-width="1.42" stroke-miterlimit="10" stroke-linecap="round"/>
<path d="M277.352 1.43C278.573 2.64759 280.227 3.33092 281.952 3.33C283.31 3.33023 284.633 2.89958 285.732 2.1C286.023 1.89008 286.373 1.77712 286.732 1.77712C287.091 1.77712 287.44 1.89008 287.732 2.1C288.832 2.89923 290.157 3.32969 291.517 3.32969C292.876 3.32969 294.201 2.89923 295.302 2.1C295.592 1.88863 295.942 1.77477 296.302 1.77477C296.661 1.77477 297.011 1.88863 297.302 2.1C298.403 2.90007 299.73 3.33096 301.092 3.33096C302.453 3.33096 303.78 2.90007 304.882 2.1C305.172 1.88863 305.522 1.77477 305.882 1.77477C306.241 1.77477 306.591 1.88863 306.882 2.1C307.983 2.89973 309.31 3.33028 310.672 3.33C311.625 3.33067 312.566 3.12239 313.43 2.71983C314.294 2.31726 315.059 1.73021 315.672 1" stroke="#FFCB56" stroke-width="1.42" stroke-miterlimit="10" stroke-linecap="round"/>
<path d="M315.578 1.43C316.667 2.51962 318.109 3.18555 319.645 3.30833C321.18 3.43112 322.71 3.00273 323.958 2.1C324.249 1.88863 324.599 1.77477 324.958 1.77477C325.317 1.77477 325.668 1.88863 325.958 2.1C327.06 2.90007 328.387 3.33096 329.748 3.33096C331.11 3.33096 332.436 2.90007 333.538 2.1C333.829 1.88863 334.179 1.77477 334.538 1.77477C334.897 1.77477 335.248 1.88863 335.538 2.1C336.64 2.90007 337.967 3.33096 339.328 3.33096C340.69 3.33096 342.016 2.90007 343.118 2.1C343.409 1.88863 343.759 1.77477 344.118 1.77477C344.477 1.77477 344.828 1.88863 345.118 2.1C346.447 3.06305 348.092 3.48519 349.72 3.28096C351.349 3.07672 352.838 2.26138 353.888 1" stroke="#FFCB56" stroke-width="1.42" stroke-miterlimit="10" stroke-linecap="round"/>
<path d="M353.801 1.43C354.892 2.52039 356.335 3.18668 357.872 3.30945C359.41 3.43223 360.941 3.00346 362.191 2.1C362.481 1.88863 362.831 1.77477 363.191 1.77477C363.55 1.77477 363.9 1.88863 364.191 2.1C365.291 2.89923 366.616 3.32969 367.976 3.32969C369.336 3.32969 370.661 2.89923 371.761 2.1C372.051 1.88863 372.401 1.77477 372.761 1.77477C373.12 1.77477 373.47 1.88863 373.761 2.1C374.863 2.90007 376.189 3.33096 377.551 3.33096C378.912 3.33096 380.239 2.90007 381.341 2.1C381.631 1.88863 381.981 1.77477 382.341 1.77477C382.7 1.77477 383.05 1.88863 383.341 2.1C384.672 3.06136 386.318 3.4824 387.947 3.27828C389.577 3.07415 391.068 2.26004 392.121 1" stroke="#FFCB56" stroke-width="1.42" stroke-miterlimit="10" stroke-linecap="round"/>
<path d="M-28.4219 1.43C-27.3327 2.51962 -25.891 3.18555 -24.3553 3.30833C-22.8196 3.43112 -21.2903 3.00273 -20.0419 2.1C-19.7513 1.88863 -19.4012 1.77477 -19.0419 1.77477C-18.6826 1.77477 -18.3325 1.88863 -18.0419 2.1C-16.9402 2.90007 -15.6135 3.33096 -14.2519 3.33096C-12.8903 3.33096 -11.5636 2.90007 -10.4619 2.1C-10.1713 1.88863 -9.82121 1.77477 -9.46188 1.77477C-9.10256 1.77477 -8.75247 1.88863 -8.46188 2.1C-7.36015 2.90007 -6.03347 3.33096 -4.67188 3.33096C-3.31028 3.33096 -1.98364 2.90007 -0.881897 2.1C-0.591312 1.88863 -0.241225 1.77477 0.118103 1.77477C0.477431 1.77477 0.827518 1.88863 1.1181 2.1C2.44686 3.06305 4.09192 3.48519 5.72021 3.28096C7.34851 3.07672 8.83837 2.26138 9.88812 1" stroke="#FFCB56" stroke-width="1.42" stroke-miterlimit="10" stroke-linecap="round"/>
<path d="M9.80078 1.43C10.8916 2.52039 12.335 3.18668 13.8724 3.30945C15.4099 3.43223 16.9408 3.00346 18.1908 2.1C18.4814 1.88863 18.8314 1.77477 19.1908 1.77477C19.5501 1.77477 19.9002 1.88863 20.1908 2.1C21.291 2.89923 22.6159 3.32969 23.9758 3.32969C25.3356 3.32969 26.6606 2.89923 27.7608 2.1C28.0514 1.88863 28.4014 1.77477 28.7608 1.77477C29.1201 1.77477 29.4702 1.88863 29.7608 2.1C30.8625 2.90007 32.1892 3.33096 33.5508 3.33096C34.9124 3.33096 36.239 2.90007 37.3408 2.1C37.6313 1.88863 37.9814 1.77477 38.3408 1.77477C38.7001 1.77477 39.0502 1.88863 39.3408 2.1C40.6719 3.06136 42.318 3.4824 43.9473 3.27828C45.5766 3.07415 47.0679 2.26004 48.1208 1" stroke="#FFCB56" stroke-width="1.42" stroke-miterlimit="10" stroke-linecap="round"/>
  <path d="M9.80078 1.43C10.8916 2.52039 12.335 3.18668 13.8724 3.30945C15.4099 3.43223 16.9408 3.00346 18.1908 2.1C18.4814 1.88863 18.8314 1.77477 19.1908 1.77477C19.5501 1.77477 19.9002 1.88863 20.1908 2.1C21.291 2.89923 22.6159 3.32969 23.9758 3.32969C25.3356 3.32969 26.6606 2.89923 27.7608 2.1C28.0514 1.88863 28.4014 1.77477 28.7608 1.77477C29.1201 1.77477 29.4702 1.88863 29.7608 2.1C30.8625 2.90007 32.1892 3.33096 33.5508 3.33096C34.9124 3.33096 36.239 2.90007 37.3408 2.1C37.6313 1.88863 37.9814 1.77477 38.3408 1.77477C38.7001 1.77477 39.0502 1.88863 39.3408 2.1C40.6719 3.06136 42.318 3.4824 43.9473 3.27828C45.5766 3.07415 47.0679 2.26004 48.1208 1" stroke="#FFCB56" stroke-width="1.42" stroke-miterlimit="10" stroke-linecap="round"/>
</svg>