<svg width="302" height="53" viewBox="0 0 302 53" fill="none" xmlns="http://www.w3.org/2000/svg">
<path d="M114.166 19.8909C113.89 19.0785 113.743 18.2275 113.732 17.3694C113.739 16.5349 114.072 15.7362 114.66 15.1436C115.247 14.551 116.043 14.2114 116.877 14.1973C119.29 14.1973 119.589 15.5529 120.077 17.5321L123.52 32.471L126.231 18.9148C126.746 16.2036 127.289 14.143 130.298 14.2244C133.308 14.3057 134.012 16.2036 134.582 18.9148L137.293 32.471L140.492 17.5321C140.872 15.5529 141.279 14.1973 143.692 14.1973C144.524 14.2181 145.316 14.5599 145.902 15.151C146.488 15.7422 146.823 16.537 146.837 17.3694C146.826 18.2275 146.68 19.0785 146.403 19.8909L141.631 36.1583C140.709 39.3846 140.004 39.8455 137.402 39.8455C134.799 39.8455 134.04 39.005 133.362 36.2938L130.162 22.9003L126.963 36.2938C126.285 39.005 125.608 39.8455 122.896 39.8455C120.185 39.8455 119.616 39.3846 118.694 36.1583L114.166 19.8909Z" fill="#333333"/>
<path d="M161.364 14.1973C169.173 14.1973 173.375 19.8095 173.375 26.9943C173.375 34.179 170.094 39.8455 161.364 39.8455C152.634 39.8455 149.354 33.8266 149.354 26.9943C149.354 20.162 153.529 14.1973 161.364 14.1973ZM161.364 34.8026C165.214 34.8026 166.787 31.1696 166.787 26.9943C166.787 22.819 165.052 19.2401 161.364 19.2401C157.677 19.2401 155.942 22.575 155.942 26.9943C155.942 31.4136 157.487 34.8026 161.364 34.8026Z" fill="#333333"/>
<path d="M177.906 8.42125C177.865 7.97087 177.918 7.51685 178.062 7.08814C178.206 6.65944 178.438 6.26547 178.743 5.93141C179.048 5.59735 179.419 5.33051 179.833 5.14794C180.247 4.96537 180.694 4.87109 181.146 4.87109C181.598 4.87109 182.046 4.96537 182.459 5.14794C182.873 5.33051 183.244 5.59735 183.549 5.93141C183.854 6.26547 184.086 6.65944 184.23 7.08814C184.374 7.51685 184.427 7.97087 184.386 8.42125V36.4283C184.427 36.8787 184.374 37.3327 184.23 37.7614C184.086 38.1901 183.854 38.5841 183.549 38.9181C183.244 39.2522 182.873 39.519 182.459 39.7016C182.046 39.8842 181.598 39.9785 181.146 39.9785C180.694 39.9785 180.247 39.8842 179.833 39.7016C179.419 39.519 179.048 39.2522 178.743 38.9181C178.438 38.5841 178.206 38.1901 178.062 37.7614C177.918 37.3327 177.865 36.8787 177.906 36.4283V8.42125Z" fill="#333333"/>
<path d="M190.271 8.42125C190.23 7.97087 190.283 7.51685 190.427 7.08814C190.571 6.65944 190.803 6.26547 191.108 5.93141C191.413 5.59735 191.784 5.33051 192.198 5.14794C192.612 4.96537 193.059 4.87109 193.511 4.87109C193.964 4.87109 194.411 4.96537 194.825 5.14794C195.238 5.33051 195.61 5.59735 195.914 5.93141C196.219 6.26547 196.451 6.65944 196.595 7.08814C196.739 7.51685 196.792 7.97087 196.751 8.42125V36.4283C196.792 36.8787 196.739 37.3327 196.595 37.7614C196.451 38.1901 196.219 38.5841 195.914 38.9181C195.61 39.2522 195.238 39.519 194.825 39.7016C194.411 39.8842 193.964 39.9785 193.511 39.9785C193.059 39.9785 192.612 39.8842 192.198 39.7016C191.784 39.519 191.413 39.2522 191.108 38.9181C190.803 38.5841 190.571 38.1901 190.427 37.7614C190.283 37.3327 190.23 36.8787 190.271 36.4283V8.42125Z" fill="#333333"/>
<path d="M210.9 32.7137L214.831 17.2326C215.292 15.4974 216.187 14.196 217.949 14.196C218.799 14.1737 219.623 14.4846 220.246 15.0622C220.869 15.6398 221.242 16.4382 221.284 17.2868C221.244 18.0233 221.079 18.7476 220.796 19.4287L213.476 41.8235C211.93 46.4868 210.141 48.9269 206.047 48.9269C203.146 48.9269 201.953 47.4086 201.953 45.7819C201.951 45.4018 202.029 45.0256 202.182 44.6777C202.335 44.3297 202.559 44.0178 202.84 43.7622C203.122 43.5065 203.454 43.3128 203.814 43.1937C204.175 43.0746 204.557 43.0326 204.935 43.0707H205.613C206.454 43.0707 207.375 43.0707 207.864 40.9017L201.031 20.5403C200.601 19.5302 200.327 18.4606 200.218 17.3682C200.207 16.9435 200.281 16.5209 200.435 16.1251C200.589 15.7293 200.821 15.3682 201.116 15.0628C201.411 14.7575 201.765 14.5139 202.155 14.3465C202.545 14.179 202.965 14.091 203.39 14.0876C204.179 14.0626 204.951 14.323 205.563 14.8211C206.176 15.3191 206.588 16.0213 206.725 16.7988L210.9 32.7137Z" fill="#333333"/>
<path d="M224.512 8.42144C224.512 7.55856 224.854 6.73103 225.465 6.12089C226.075 5.51074 226.902 5.16797 227.765 5.16797C228.628 5.16797 229.456 5.51074 230.066 6.12089C230.676 6.73103 231.019 7.55856 231.019 8.42144V17.6668C231.671 16.5629 232.611 15.657 233.738 15.0458C234.864 14.4345 236.136 14.141 237.417 14.1964C244.277 14.1964 247.422 20.3238 247.422 26.8578C247.422 35.6965 242.677 39.8447 237.255 39.8447C235.802 39.9669 234.349 39.6157 233.112 38.8435C231.876 38.0714 230.923 36.9198 230.395 35.5609V36.6183C230.395 38.733 229.365 39.8447 227.44 39.8447C225.515 39.8447 224.512 38.733 224.512 36.6183V8.42144ZM235.872 19.5375C231.913 19.5375 230.666 23.6044 230.666 27.1018C230.666 30.5993 232.076 34.5306 235.872 34.5306C239.668 34.5306 241.023 31.1145 241.023 27.1018C241.023 23.9297 239.993 19.5375 235.872 19.5375Z" fill="#333333"/>
<path d="M257.21 28.3208C257.144 29.1344 257.252 29.9528 257.527 30.7216C257.801 31.4903 258.236 32.1917 258.803 32.7791C259.37 33.3665 260.056 33.8264 260.814 34.1283C261.573 34.4301 262.387 34.5669 263.202 34.5295C268.11 34.5295 268.11 31.1676 270.739 31.1676C271.459 31.1676 272.148 31.4532 272.657 31.9617C273.165 32.4701 273.451 33.1597 273.451 33.8788C273.451 37.9999 267.188 39.8977 263.256 39.8977C261.595 40.0212 259.927 39.7871 258.363 39.2114C256.8 38.6356 255.378 37.7315 254.194 36.56C253.01 35.3884 252.09 33.9767 251.497 32.4198C250.905 30.8629 250.652 29.1971 250.758 27.5345C250.758 19.5906 255.34 14.2495 263.04 14.2495C264.553 14.1761 266.065 14.4106 267.485 14.9386C268.905 15.4667 270.203 16.2774 271.3 17.3217C272.398 18.366 273.272 19.6221 273.87 21.0141C274.468 22.406 274.777 23.9048 274.779 25.4198C274.779 27.7514 274.129 28.375 271.932 28.375L257.21 28.3208ZM268.598 24.3895C268.538 22.9706 267.947 21.6259 266.943 20.6216C265.939 19.6174 264.594 19.0269 263.175 18.967C261.69 18.9682 260.26 19.5256 259.166 20.5294C258.072 21.5331 257.393 22.9103 257.265 24.3895H268.598Z" fill="#333333"/>
<path d="M284.427 28.3208C284.361 29.1344 284.469 29.9528 284.743 30.7216C285.018 31.4903 285.453 32.1917 286.02 32.7791C286.587 33.3665 287.273 33.8264 288.031 34.1283C288.79 34.4301 289.604 34.5669 290.419 34.5295C295.326 34.5295 295.326 31.1676 297.956 31.1676C298.675 31.1676 299.365 31.4532 299.873 31.9617C300.382 32.4701 300.668 33.1597 300.668 33.8788C300.668 37.9999 294.405 39.8977 290.473 39.8977C288.812 40.0212 287.143 39.7871 285.58 39.2114C284.017 38.6356 282.595 37.7315 281.411 36.56C280.227 35.3884 279.307 33.9767 278.714 32.4198C278.121 30.8629 277.869 29.1971 277.974 27.5345C277.974 19.5906 282.557 14.2495 290.256 14.2495C291.77 14.1761 293.282 14.4106 294.702 14.9386C296.122 15.4667 297.42 16.2774 298.517 17.3217C299.615 18.366 300.489 19.6221 301.087 21.0141C301.685 22.406 301.994 23.9048 301.996 25.4198C301.996 27.7514 301.345 28.375 299.285 28.375L284.427 28.3208ZM295.814 24.3895C295.755 22.9706 295.164 21.6259 294.16 20.6216C293.156 19.6174 291.811 19.0269 290.392 18.967C288.907 18.9682 287.477 19.5256 286.383 20.5294C285.289 21.5331 284.61 22.9103 284.481 24.3895H295.814Z" fill="#333333"/>
<path d="M66.3379 52.8027C64.6749 52.8099 63.0269 52.4846 61.4881 51.8454C59.9493 51.2063 58.5501 50.2657 57.3704 49.0777C56.1907 47.8897 55.2538 46.4776 54.6133 44.9221C53.9728 43.3666 53.6413 41.6984 53.6378 40.0129V12.7899C53.6378 11.3953 53.0912 10.0578 52.1182 9.07165C51.1453 8.08551 49.8256 7.53151 48.4497 7.53151C47.0737 7.53151 45.754 8.08551 44.7811 9.07165C43.8081 10.0578 43.2615 11.3953 43.2615 12.7899V40.0129C43.2615 43.4267 41.9235 46.7008 39.5417 49.1148C37.16 51.5287 33.9297 52.8849 30.5614 52.8849C27.1931 52.8849 23.9628 51.5287 21.581 49.1148C19.1993 46.7008 17.8613 43.4267 17.8613 40.0129V21.6086C17.8613 20.2067 17.3118 18.8623 16.3338 17.871C15.3557 16.8797 14.0292 16.3228 12.6461 16.3228C11.2629 16.3228 9.93644 16.8797 8.95841 17.871C7.98037 18.8623 7.43093 20.2067 7.43093 21.6086V30.9203C7.35149 31.8636 6.92564 32.7423 6.23762 33.3826C5.54961 34.023 4.64955 34.3783 3.71546 34.3783C2.78138 34.3783 1.88131 34.023 1.19329 33.3826C0.505283 32.7423 0.0794425 31.8636 0 30.9203V21.6086C0.150485 18.3081 1.54998 15.1934 3.90763 12.9117C6.26529 10.63 9.39976 9.35689 12.6596 9.35689C15.9194 9.35689 19.0539 10.63 21.4116 12.9117C23.7692 15.1934 25.1687 18.3081 25.3192 21.6086V40.0129C25.4145 41.3596 26.0097 42.6198 26.9848 43.5398C27.9599 44.4597 29.2427 44.9712 30.5749 44.9712C31.9071 44.9712 33.1898 44.4597 34.165 43.5398C35.1401 42.6198 35.7352 41.3596 35.8306 40.0129V12.7899C35.8306 9.39778 37.1601 6.14464 39.5266 3.74607C41.8932 1.34751 45.1029 0 48.4497 0C51.7964 0 55.0061 1.34751 57.3727 3.74607C59.7392 6.14464 61.0687 9.39778 61.0687 12.7899V40.0129C61.1638 41.3525 61.756 42.606 62.7261 43.521C63.6962 44.4361 64.9722 44.9448 66.2974 44.9448C67.6226 44.9448 68.8986 44.4361 69.8687 43.521C70.8388 42.606 71.431 41.3525 71.5261 40.0129V21.7181C71.5261 18.3333 72.8527 15.0871 75.2142 12.6937C77.5757 10.3003 80.7785 8.95565 84.1181 8.95565C87.4577 8.95565 90.6606 10.3003 93.022 12.6937C95.3835 15.0871 96.7102 18.3333 96.7102 21.7181V30.9203C96.7541 31.4418 96.6906 31.9669 96.5239 32.4622C96.3571 32.9576 96.0906 33.4125 95.7413 33.798C95.392 34.1835 94.9675 34.4913 94.4947 34.7019C94.0219 34.9124 93.5111 35.0212 92.9947 35.0212C92.4783 35.0212 91.9675 34.9124 91.4947 34.7019C91.0219 34.4913 90.5974 34.1835 90.2481 33.798C89.8988 33.4125 89.6323 32.9576 89.4655 32.4622C89.2987 31.9669 89.2353 31.4418 89.2792 30.9203V21.7181C89.2792 20.3308 88.7355 19.0003 87.7676 18.0193C86.7997 17.0383 85.4869 16.4872 84.1181 16.4872C82.7493 16.4872 81.4365 17.0383 80.4687 18.0193C79.5008 19.0003 78.957 20.3308 78.957 21.7181V40.0129C78.9499 43.4027 77.6181 46.6517 75.2531 49.0487C72.8881 51.4457 69.6825 52.7955 66.3379 52.8027Z" fill="white"/>
</svg>
