<svg width="60" height="104" viewBox="0 0 60 104" fill="none" xmlns="http://www.w3.org/2000/svg">
<path d="M32.7494 103.57C47.6003 103.57 59.6394 91.1952 59.6394 75.93C59.6394 60.6649 47.6003 48.29 32.7494 48.29C17.8984 48.29 5.85938 60.6649 5.85938 75.93C5.85938 91.1952 17.8984 103.57 32.7494 103.57Z" fill="url(#paint0_linear_2082_647)"/>
<g style="mix-blend-mode:overlay" opacity="0.7">
<path opacity="0.19" d="M43.5 50.59L19.64 51.8C15.0925 54.4355 11.399 58.3234 9 63L50.57 55.17C48.4703 53.2791 46.084 51.7332 43.5 50.59Z" fill="white"/>
<path opacity="0.43" d="M55.1095 60.5699L7.26953 67.1099C6.82736 68.4478 6.49296 69.8188 6.26953 71.2099L59.1295 70.4899C58.4399 66.9555 57.075 63.5873 55.1095 60.5699Z" fill="white"/>
<path opacity="0.19" d="M59.6402 75.9299C59.6402 75.4299 59.6402 74.9299 59.6402 74.4399L5.9102 75.2299V75.9299C5.9062 78.1322 6.16128 80.3273 6.6702 82.4699L59.6702 76.6699C59.6402 76.4199 59.6402 76.1799 59.6402 75.9299Z" fill="white"/>
<path opacity="0.43" d="M58.0714 85.27H7.44141C7.80055 86.293 8.2179 87.2947 8.69141 88.27L52.6314 94.54C55.0303 91.8332 56.8781 88.6844 58.0714 85.27Z" fill="white"/>
<path opacity="0.19" d="M51.7383 95.51L12.7383 94.4C15.3327 97.3815 18.5524 99.7545 22.1683 101.35L49.7383 97.35C50.4383 96.77 51.1083 96.15 51.7383 95.51Z" fill="white"/>
</g>
<path d="M7.20068 40.24C6.20068 41.24 4.68068 52.24 6.56068 59.55L7.24068 61.22L9.36068 61.34L8.59068 59.84C8.59068 59.84 5.80068 55.68 8.52068 41.84C8.52068 41.68 8.73068 41.58 8.77068 41.41L8.84068 41.17C8.86826 41.0164 8.8595 40.8584 8.8151 40.7088C8.7707 40.5592 8.6919 40.422 8.58499 40.3083C8.47808 40.1946 8.34603 40.1075 8.19942 40.054C8.05281 40.0004 7.89571 39.9819 7.74068 40C7.54062 40.0238 7.3524 40.1074 7.20068 40.24Z" fill="url(#paint1_linear_2082_647)"/>
<path d="M6.99926 59.76C6.24627 59.784 5.5054 59.9561 4.81903 60.2667C4.13266 60.5773 3.51427 61.0202 2.99926 61.57C2.71615 61.8134 2.49901 62.1243 2.36791 62.4739C2.23682 62.8235 2.19601 63.2005 2.24926 63.57C2.60926 64.85 3.79926 64.07 3.79926 64.07C3.79926 64.07 3.52926 67.07 5.90926 65.53C5.90926 65.53 6.58926 68.26 7.99926 66.14C9.40926 64.02 8.71926 62.66 8.71926 62.66C8.71926 62.66 11.2893 63.44 11.7693 61.93C12.2493 60.42 9.54926 59.65 7.99926 59.73L6.99926 59.76Z" fill="url(#paint2_linear_2082_647)"/>
<path d="M3.80078 64.1C3.81644 63.7071 3.93568 63.3254 4.14642 62.9935C4.35716 62.6615 4.65191 62.3912 5.00078 62.21C4.45059 62.731 4.03827 63.3804 3.80078 64.1Z" fill="#6D9FCC"/>
<path d="M5.91058 65.56C5.84837 64.6028 6.14021 63.6561 6.73058 62.9C6.34799 63.7493 6.07254 64.6428 5.91058 65.56Z" fill="#6D9FCC"/>
<path opacity="0.05" d="M31.2663 66.0986C43.1054 62.9971 51.9768 57.711 51.0811 54.2918C50.1853 50.8725 39.8617 50.615 28.0226 53.7165C16.1834 56.818 7.31208 62.1041 8.20783 65.5234C9.10357 68.9426 19.4272 69.2002 31.2663 66.0986Z" fill="#59595C"/>
<path d="M13.3702 50.3801C12.2794 50.5866 11.2111 50.8981 10.1802 51.3101C9.78017 51.5001 9.70017 51.7201 9.88017 52.1101L15.0002 63.31C15.0802 63.42 15.6902 63.9201 16.1202 63.8201C16.1202 63.8201 18.7602 63.8201 19.6302 62.3701C20.6302 60.6201 19.6302 57.3701 18.7502 55.5401L18.6102 55.2301C17.5202 52.8501 16.0002 50.1101 13.3702 50.3801Z" fill="#527B95"/>
<path d="M9.2486 51.65C6.4086 52.78 5.2486 56.57 6.6586 60.12C8.0686 63.67 11.5186 65.62 14.3586 64.49C15.2286 64.14 17.6186 63.89 18.1486 63.13C19.3486 61.4 17.9286 58.48 16.9486 56.02C15.6686 52.8 15.1086 50.25 12.4386 50.77C12.1686 50.83 9.5086 51.54 9.2486 51.65Z" fill="#282424"/>
<path d="M17.6732 63.5844C20.5159 62.4526 21.6759 58.6608 20.2642 55.1152C18.8525 51.5696 15.4037 49.6129 12.5611 50.7446C9.71847 51.8764 8.55845 55.6682 9.97013 59.2138C11.3818 62.7594 14.8306 64.7162 17.6732 63.5844Z" fill="url(#paint3_linear_2082_647)"/>
<path d="M16.1378 59.631C17.3539 59.1468 17.8495 57.523 17.2448 56.0042C16.6401 54.4854 15.1641 53.6467 13.948 54.1309C12.7319 54.6151 12.2363 56.2388 12.841 57.7576C13.4457 59.2764 14.9218 60.1151 16.1378 59.631Z" fill="url(#paint4_linear_2082_647)"/>
<path d="M15.8894 58.9992C16.8233 58.6274 17.2027 57.3776 16.7369 56.2077C16.2711 55.0378 15.1365 54.3909 14.2026 54.7627C13.2688 55.1345 12.8893 56.3843 13.3551 57.5542C13.8209 58.7241 14.9555 59.371 15.8894 58.9992Z" fill="url(#paint5_linear_2082_647)"/>
<path d="M14.8798 50.12C14.2009 50.1061 13.5247 50.2076 12.8798 50.42C12.771 50.4571 12.6713 50.5166 12.587 50.5946C12.5027 50.6727 12.4358 50.7676 12.3905 50.8732C12.3453 50.9788 12.3227 51.0927 12.3243 51.2076C12.3259 51.3225 12.3516 51.4357 12.3998 51.54C14.7809 54.9727 16.5566 58.7879 17.6498 62.82C17.6978 62.924 17.7673 63.0165 17.8537 63.0917C17.9401 63.1668 18.0415 63.2227 18.1511 63.2558C18.2607 63.2888 18.3761 63.2983 18.4896 63.2835C18.6032 63.2687 18.7123 63.2301 18.8098 63.17C19.8709 62.4609 20.6961 61.4511 21.1798 60.27C21.5916 59.3572 21.8004 58.3659 21.7918 57.3645C21.7831 56.3632 21.5573 55.3756 21.1298 54.47L20.9998 54.16C20.4645 52.978 19.6058 51.9715 18.5229 51.2567C17.44 50.5418 16.177 50.1478 14.8798 50.12Z" fill="url(#paint6_linear_2082_647)"/>
<path d="M4.56996 6.59996C1.51996 10.19 -4.07004 18.81 6.40996 24.6L10.41 15.74C10.41 15.74 5.76996 14.49 5.99996 7.12996C6.02536 6.95342 5.98949 6.77351 5.89833 6.62021C5.80717 6.46692 5.66622 6.34949 5.49898 6.28751C5.33175 6.22553 5.14832 6.22273 4.97927 6.27958C4.81021 6.33644 4.66576 6.44951 4.56996 6.59996Z" fill="url(#paint7_linear_2082_647)"/>
<path d="M3.63015 23.64L2.63015 26.22C2.61623 26.2567 2.61082 26.2962 2.61431 26.3353C2.61781 26.3744 2.63012 26.4122 2.65033 26.4459C2.67054 26.4796 2.69812 26.5083 2.73099 26.5297C2.76387 26.5512 2.80119 26.565 2.84015 26.57L5.26015 26.92L3.63015 23.64Z" fill="url(#paint8_linear_2082_647)"/>
<path d="M3.90769 28.45L3.16769 32.84C3.15925 32.8899 3.16561 32.9413 3.18599 32.9877C3.20636 33.0341 3.23986 33.0736 3.28237 33.1012C3.32487 33.1288 3.37453 33.1434 3.42522 33.1432C3.47591 33.143 3.52543 33.128 3.56769 33.0999L5.56769 31.7299L3.90769 28.45Z" fill="url(#paint9_linear_2082_647)"/>
<path d="M5.10906 33.29L5.03906 37.29C5.0389 37.3367 5.05132 37.3826 5.07503 37.4229C5.09873 37.4631 5.13283 37.4963 5.17376 37.5188C5.21469 37.5413 5.26093 37.5523 5.30761 37.5508C5.3543 37.5493 5.3997 37.5352 5.43906 37.51L6.73906 36.61L5.10906 33.29Z" fill="url(#paint10_linear_2082_647)"/>
<path d="M7.77933 44L7.69933 48C7.6979 48.0483 7.70996 48.096 7.73415 48.1379C7.75834 48.1797 7.79371 48.214 7.83628 48.2368C7.87886 48.2597 7.92697 48.2702 7.9752 48.2672C8.02343 48.2643 8.06988 48.2479 8.10933 48.22L9.39933 47.32L7.77933 44Z" fill="url(#paint11_linear_2082_647)"/>
<path d="M11.5475 55.05L12.3575 51.74L10.4375 52.52L11.0475 55.05C11.063 55.1043 11.0958 55.1521 11.1409 55.1861C11.186 55.2202 11.241 55.2386 11.2975 55.2386C11.354 55.2386 11.409 55.2202 11.4541 55.1861C11.4992 55.1521 11.532 55.1043 11.5475 55.05Z" fill="url(#paint12_linear_2082_647)"/>
<path d="M7.15732 39.41L6.21733 43.26C6.2038 43.3057 6.2036 43.3543 6.21676 43.4001C6.22993 43.4459 6.2559 43.487 6.29162 43.5185C6.32735 43.55 6.37134 43.5707 6.41841 43.578C6.46549 43.5854 6.51368 43.5791 6.55733 43.56L7.99732 43L7.15732 39.41Z" fill="url(#paint13_linear_2082_647)"/>
<path d="M34.918 14.74L39.448 19.12C39.568 19.23 39.528 19.4 39.378 19.5L36.538 21.27L34.918 14.74Z" fill="url(#paint14_linear_2082_647)"/>
<path d="M36.5508 21.3201L41.3308 26.8001C41.4608 26.9501 41.3308 27.1701 41.1108 27.2201L38.1808 27.8401L36.5508 21.3201Z" fill="url(#paint15_linear_2082_647)"/>
<path d="M39.5586 30L40.2386 34.37L42.0886 33.08C42.1177 33.0645 42.1433 33.0431 42.1638 33.0172C42.1843 32.9914 42.1993 32.9615 42.2077 32.9296C42.2162 32.8977 42.2179 32.8644 42.2129 32.8318C42.2079 32.7991 42.1962 32.7679 42.1786 32.74L39.5586 30Z" fill="url(#paint16_linear_2082_647)"/>
<path d="M40.457 35.25L41.817 41.41L44.087 40.72C44.287 40.66 44.387 40.47 44.297 40.33L40.457 35.25Z" fill="url(#paint17_linear_2082_647)"/>
<path d="M42.467 44.03L41.957 48.51L44.327 47.46L42.467 44.03Z" fill="url(#paint18_linear_2082_647)"/>
<path d="M20.894 9.62279L13.8196 11.3827C6.42888 13.2213 1.92799 20.7032 3.7666 28.0939L9.17668 49.8411C11.0153 57.2318 18.4972 61.7327 25.8879 59.8941L32.9623 58.1342C40.353 56.2956 44.8539 48.8137 43.0153 41.423L37.6052 19.6758C35.7666 12.2851 28.2847 7.78418 20.894 9.62279Z" fill="url(#paint19_linear_2082_647)"/>
<mask id="mask0_2082_647" style="mask-type:luminance" maskUnits="userSpaceOnUse" x="3" y="9" width="41" height="52">
<path d="M20.894 9.62279L13.8196 11.3827C6.42888 13.2213 1.92799 20.7032 3.7666 28.0939L9.17668 49.8411C11.0153 57.2318 18.4972 61.7327 25.8879 59.8941L32.9623 58.1342C40.353 56.2956 44.8539 48.8137 43.0153 41.423L37.6052 19.6758C35.7666 12.2851 28.2847 7.78418 20.894 9.62279Z" fill="white"/>
</mask>
<g mask="url(#mask0_2082_647)">
<path d="M33.3998 11.5901C26.5698 7.54007 21.0598 9.59007 17.1398 10.5901L9.47984 12.5001C7.59265 12.9835 5.8374 13.8828 4.3425 15.132C2.8476 16.3812 1.65087 17.9488 0.839844 19.7201L3.49984 22.6201C3.73356 22.8867 4.0362 23.0838 4.37456 23.1897C4.71292 23.2956 5.07393 23.3063 5.41796 23.2206C5.76199 23.1348 6.07575 22.956 6.32481 22.7036C6.57387 22.4513 6.74861 22.1352 6.82985 21.7901L7.38984 19.6601C7.4253 19.5147 7.49987 19.3817 7.60548 19.2757C7.71108 19.1697 7.8437 19.0945 7.98895 19.0585C8.13421 19.0224 8.28655 19.0268 8.42949 19.0712C8.57243 19.1155 8.70051 19.1981 8.79984 19.3101L10.2898 20.9301C10.5236 21.1967 10.8262 21.3938 11.1646 21.4997C11.5029 21.6056 11.8639 21.6163 12.208 21.5306C12.552 21.4448 12.8657 21.266 13.1148 21.0136C13.3639 20.7613 13.5386 20.4452 13.6198 20.1001L14.1798 17.9701C14.2153 17.8247 14.2899 17.6917 14.3955 17.5857C14.5011 17.4797 14.6337 17.4045 14.7789 17.3685C14.9242 17.3324 15.0766 17.3368 15.2195 17.3812C15.3624 17.4255 15.4905 17.5081 15.5898 17.6201L17.0798 19.2401C17.3136 19.5067 17.6162 19.7038 17.9546 19.8097C18.2929 19.9156 18.6539 19.9263 18.998 19.8406C19.342 19.7548 19.6557 19.576 19.9048 19.3236C20.1539 19.0713 20.3286 18.7552 20.4098 18.4101L20.9998 16.2501C21.0353 16.1047 21.1099 15.9717 21.2155 15.8657C21.3211 15.7596 21.4537 15.6845 21.599 15.6485C21.7442 15.6124 21.8966 15.6168 22.0395 15.6612C22.1824 15.7055 22.3105 15.7881 22.4098 15.9001L23.8998 17.5201C26.8298 20.6401 33.3998 11.5901 33.3998 11.5901Z" fill="url(#paint20_linear_2082_647)"/>
<path opacity="0.2" d="M33.4011 11.5901C25.5611 7.8901 20.8411 9.9701 16.9211 10.9401L9.26109 12.8501C7.3739 13.3336 5.61865 14.2328 4.12375 15.482C2.62885 16.7312 1.43212 18.2988 0.621094 20.0701L3.30109 23.0001C3.53481 23.2667 3.83745 23.4638 4.17581 23.5697C4.51417 23.6757 4.87518 23.6864 5.21921 23.6006C5.56324 23.5149 5.877 23.336 6.12606 23.0836C6.37512 22.8313 6.54986 22.5152 6.63109 22.1701L7.19109 20.0001C7.22655 19.8547 7.30112 19.7218 7.40672 19.6157C7.51233 19.5097 7.64495 19.4346 7.7902 19.3985C7.93545 19.3625 8.08781 19.3668 8.23075 19.4112C8.37368 19.4555 8.50176 19.5382 8.60109 19.6501L10.0911 21.2701C10.3248 21.5367 10.6274 21.7338 10.9658 21.8397C11.3042 21.9457 11.6652 21.9564 12.0092 21.8706C12.3532 21.7849 12.667 21.606 12.9161 21.3537C13.1651 21.1013 13.3399 20.7852 13.4211 20.4401L14.0011 18.3301C14.0413 18.1904 14.1179 18.0639 14.2231 17.9636C14.3283 17.8632 14.4583 17.7926 14.5997 17.7591C14.7411 17.7255 14.889 17.7301 15.028 17.7725C15.1671 17.8148 15.2924 17.8934 15.3911 18.0001L16.8811 19.6201C17.1148 19.8867 17.4174 20.0838 17.7558 20.1897C18.0942 20.2957 18.4552 20.3064 18.7992 20.2206C19.1432 20.1349 19.457 19.956 19.7061 19.7036C19.9551 19.4513 20.1299 19.1352 20.2111 18.7901L20.7711 16.6601C20.8065 16.5147 20.8811 16.3818 20.9867 16.2757C21.0923 16.1697 21.2249 16.0946 21.3702 16.0585C21.5155 16.0225 21.6678 16.0268 21.8107 16.0712C21.9537 16.1155 22.0818 16.1982 22.1811 16.3101L23.6711 17.9301C26.2211 20.9301 33.4011 11.5901 33.4011 11.5901Z" fill="url(#paint21_linear_2082_647)"/>
</g>
<path d="M27.7079 0.890053C32.0879 2.63005 41.0679 7.63005 34.5279 17.6601L30.3179 15.3401L26.8179 11.7301C26.8179 11.7301 30.3579 8.43005 26.7479 2.01005C26.6657 1.86998 26.6293 1.70772 26.6437 1.54594C26.6581 1.38416 26.7227 1.23091 26.8284 1.10759C26.9341 0.984265 27.0757 0.897018 27.2334 0.85802C27.391 0.819023 27.5569 0.830221 27.7079 0.890053Z" fill="url(#paint22_linear_2082_647)"/>
<path d="M34.637 15.3C33.2035 15.7558 31.6477 15.6242 30.311 14.9344C28.9744 14.2445 27.9659 13.0525 27.507 11.62C27.507 11.46 27.417 11.3 27.377 11.14C27.3511 11.0352 27.2948 10.9403 27.2153 10.8672C27.1359 10.7941 27.0366 10.746 26.9299 10.729C26.8233 10.7119 26.714 10.7266 26.6157 10.7713C26.5173 10.8159 26.4343 10.8885 26.377 10.98C25.9506 11.6731 25.6789 12.45 25.5805 13.2577C25.4821 14.0655 25.5594 14.8849 25.807 15.66C26.2659 17.0925 27.2744 18.2845 28.611 18.9744C29.9477 19.6642 31.5035 19.7958 32.937 19.34C33.8539 19.0494 34.6814 18.5294 35.3412 17.8294C36.0009 17.1294 36.471 16.2726 36.707 15.34C36.7327 15.2344 36.7265 15.1235 36.6891 15.0213C36.6518 14.9192 36.5851 14.8304 36.4973 14.7662C36.4096 14.702 36.3048 14.6653 36.1961 14.6606C36.0875 14.6559 35.9799 14.6836 35.887 14.74C35.4907 14.9692 35.0718 15.1569 34.637 15.3Z" fill="url(#paint23_linear_2082_647)"/>
<path d="M25.8789 40C26.7189 42.2 19.0889 44.1 18.7989 41.76C18.5589 39.76 19.6389 37.37 21.3589 36.94C23.0789 36.51 25.1389 38.11 25.8789 40Z" fill="url(#paint24_linear_2082_647)"/>
<path d="M22.3389 41.9956C22.4347 41.4854 21.9139 40.9594 21.1756 40.8209C20.4374 40.6823 19.7614 40.9836 19.6656 41.4939C19.5698 42.0041 20.0906 42.53 20.8288 42.6686C21.5671 42.8072 22.2431 42.5058 22.3389 41.9956Z" fill="#1E2C49"/>
<path d="M24.4906 41.9334C25.1051 41.5015 25.3613 40.807 25.0627 40.3823C24.7642 39.9576 24.0241 39.9633 23.4096 40.3952C22.795 40.8271 22.5389 41.5216 22.8374 41.9463C23.1359 42.371 23.8761 42.3653 24.4906 41.9334Z" fill="#1E2C49"/>
<g opacity="0.3">
<path d="M15.7267 29.2501C13.8091 29.6345 12.1144 30.7452 10.9967 32.3501C10.6967 32.7501 9.92666 32.3501 9.99666 31.8901L10.2667 31.4401C10.7967 29.1601 12.6467 27.5701 14.8867 28.2601L15.8867 28.0701C16.3167 28.4201 16.2167 29.1701 15.7267 29.2501Z" fill="url(#paint25_linear_2082_647)"/>
</g>
<path d="M15.7084 29C14.7197 29.1815 13.7797 29.5669 12.9481 30.1316C12.1166 30.6963 11.4117 31.428 10.8784 32.28C10.8162 32.3707 10.7252 32.4379 10.6202 32.4706C10.5152 32.5033 10.4023 32.4998 10.2995 32.4605C10.1968 32.4213 10.1102 32.3486 10.0538 32.2542C9.99734 32.1598 9.97432 32.0491 9.98841 31.94L10.0784 31.29C10.1586 30.7024 10.3653 30.1392 10.6843 29.6392C11.0032 29.1392 11.4269 28.7143 11.926 28.3939C12.4251 28.0736 12.9878 27.8653 13.5752 27.7835C14.1626 27.7016 14.7608 27.7482 15.3284 27.92L15.7584 28.05C15.8632 28.0819 15.9542 28.1479 16.0171 28.2375C16.0799 28.3272 16.111 28.4353 16.1052 28.5446C16.0995 28.6539 16.0573 28.7582 15.9853 28.8407C15.9134 28.9233 15.8159 28.9794 15.7084 29Z" fill="url(#paint26_linear_2082_647)"/>
<g opacity="0.3">
<path d="M25.7977 27.2101C27.7147 26.753 29.7345 27.0615 31.4277 28.0701C31.8677 28.3001 32.4277 27.6301 32.1177 27.2501L31.6777 26.9501C30.2577 25.0901 27.9177 24.4101 26.1577 25.9501L25.1577 26.2101C24.9177 26.7001 25.3177 27.3501 25.7977 27.2101Z" fill="url(#paint27_linear_2082_647)"/>
</g>
<path d="M25.6864 26.94C26.6632 26.6971 27.68 26.6606 28.6718 26.8328C29.6636 27.005 30.6085 27.3821 31.4464 27.94C31.5407 27.9979 31.6519 28.0221 31.7618 28.0087C31.8717 27.9953 31.9738 27.945 32.0515 27.8662C32.1292 27.7873 32.1779 27.6845 32.1897 27.5744C32.2014 27.4644 32.1756 27.3535 32.1164 27.26L31.7664 26.7C31.4505 26.1985 31.0297 25.7715 30.533 25.4483C30.0362 25.1251 29.4753 24.9134 28.8888 24.8278C28.3024 24.7423 27.7043 24.7849 27.1359 24.9528C26.5675 25.1206 26.0423 25.4097 25.5964 25.8L25.2464 26.1C25.1661 26.173 25.1124 26.2704 25.0934 26.3772C25.0745 26.484 25.0916 26.594 25.1419 26.69C25.1922 26.786 25.2729 26.8627 25.3715 26.9079C25.47 26.9532 25.5807 26.9645 25.6864 26.94Z" fill="url(#paint28_linear_2082_647)"/>
<path d="M35.5496 46.74C34.444 46.8321 33.3494 47.0263 32.2796 47.32C31.8596 47.46 31.7496 47.67 31.8896 48.08L35.7596 59.78C35.8296 59.9 36.3796 60.46 36.8196 60.41C36.8196 60.41 39.4396 60.74 40.4696 59.41C41.6796 57.78 40.9996 54.41 40.3496 52.52L40.2396 52.2C39.3996 49.65 38.1896 46.77 35.5496 46.74Z" fill="#527B95"/>
<path d="M31.3096 47.54C28.3096 48.36 26.7896 52 27.7996 55.68C28.8096 59.36 32.0296 61.68 34.9796 60.87C35.8796 60.63 38.2796 60.64 38.8896 59.94C40.2796 58.36 39.1896 55.3 38.4896 52.74C37.5696 49.4 37.2896 46.8 34.5896 47.03C34.3096 47.05 31.5796 47.47 31.3096 47.54Z" fill="#282424"/>
<path d="M38.3603 60.3361C41.3106 59.5251 42.8822 55.8846 41.8707 52.2049C40.8592 48.5251 37.6476 46.1994 34.6973 47.0104C31.7471 47.8213 30.1755 51.4618 31.187 55.1416C32.1985 58.8214 35.4101 61.1471 38.3603 60.3361Z" fill="url(#paint29_linear_2082_647)"/>
<path d="M37.2916 55.6441C38.5481 55.2907 39.209 53.732 38.7676 52.1626C38.3262 50.5933 36.9497 49.6075 35.6932 49.9609C34.4366 50.3143 33.7758 51.8731 34.2172 53.4424C34.6586 55.0118 36.035 55.9975 37.2916 55.6441Z" fill="url(#paint30_linear_2082_647)"/>
<path d="M37.0924 55.573C38.0617 55.3065 38.5768 54.1063 38.243 52.8921C37.9093 51.6779 36.853 50.9096 35.8838 51.1761C34.9146 51.4425 34.3995 52.6427 34.7332 53.8569C35.067 55.0711 36.1232 55.8394 37.0924 55.573Z" fill="url(#paint31_linear_2082_647)"/>
<path d="M37.0788 46.65C36.4123 46.5662 35.7365 46.5932 35.0788 46.73C34.9663 46.7522 34.8598 46.7983 34.7667 46.8653C34.6736 46.9322 34.5959 47.0184 34.539 47.118C34.4821 47.2176 34.4473 47.3282 34.4369 47.4424C34.4265 47.5567 34.4408 47.6718 34.4788 47.78C36.4742 51.4569 37.827 55.4476 38.4788 59.58C38.5156 59.6888 38.5751 59.7886 38.6533 59.8727C38.7316 59.9568 38.8268 60.0232 38.9328 60.0677C39.0387 60.1121 39.1529 60.1335 39.2677 60.1305C39.3825 60.1275 39.4954 60.1 39.5988 60.05C40.7281 59.4642 41.6575 58.5557 42.2688 57.44C42.7752 56.575 43.09 55.6113 43.1918 54.6141C43.2936 53.6169 43.18 52.6095 42.8588 51.66L42.7488 51.34C42.3468 50.1005 41.6 49.001 40.5958 48.1705C39.5917 47.3399 38.3718 46.8125 37.0788 46.65Z" fill="url(#paint32_linear_2082_647)"/>
<path d="M38.2781 36.32C39.6381 36.74 46.1281 45.75 47.8981 53.07L48.0681 54.87L46.2581 56V54.31C46.2581 54.31 46.7781 49.31 37.8981 38.4C37.7881 38.27 37.5881 38.26 37.4781 38.13L37.2981 37.95C37.1905 37.8284 37.1141 37.6824 37.0755 37.5247C37.0369 37.367 37.0373 37.2022 37.0767 37.0447C37.1161 36.8871 37.1933 36.7416 37.3015 36.6205C37.4098 36.4995 37.5459 36.4066 37.6981 36.35C37.8848 36.2862 38.0857 36.2758 38.2781 36.32Z" fill="url(#paint33_linear_2082_647)"/>
<path d="M47.5681 53.4801C48.2494 53.1373 48.9926 52.935 49.7536 52.8852C50.5147 52.8354 51.2779 52.9391 51.9981 53.1901C52.3691 53.2707 52.713 53.4456 52.9968 53.6978C53.2805 53.9501 53.4945 54.2711 53.6181 54.6301C53.8881 55.9301 52.4781 55.8001 52.4781 55.8001C52.4781 55.8001 54.1281 58.3301 51.2981 58.0801C51.2981 58.0801 51.9781 60.8101 49.7381 59.5901C47.4981 58.3701 47.4681 56.8601 47.4681 56.8601C47.4681 56.8601 45.5681 58.7501 44.4681 57.6401C43.3681 56.5301 45.3481 54.5701 46.7581 53.9001L47.5681 53.4801Z" fill="url(#paint34_linear_2082_647)"/>
<path d="M52.457 55.8C51.8931 55.2715 51.2054 54.8932 50.457 54.7C50.8588 54.6851 51.257 54.7796 51.6092 54.9733C51.9615 55.167 52.2545 55.4528 52.457 55.8Z" fill="#6D9FCC"/>
<path d="M51.2773 58.0801C50.6984 57.3311 50.0264 56.659 49.2773 56.0801C50.1653 56.4809 50.8765 57.1921 51.2773 58.0801Z" fill="#6D9FCC"/>
<path d="M28.7688 44.6101C28.8607 45.3487 28.7168 46.0975 28.3576 46.7495C27.9984 47.4014 27.4423 47.9231 26.7688 48.2401C24.9521 49.2785 22.824 49.6332 20.7688 49.2401C20.1743 49.1666 19.6116 48.9309 19.1424 48.5587C18.6732 48.1865 18.3155 47.6922 18.1088 47.1301C17.9988 46.7801 17.6988 45.2301 18.3088 45.2001C18.6788 45.2001 19.1088 45.1401 19.6288 45.0801L20.4788 44.9701L21.8088 44.7401L23.1888 44.4501C23.8788 44.2901 24.6188 44.1 25.4188 43.87L26.6088 43.5201C26.9788 43.4001 27.3688 43.28 27.7588 43.14C28.2988 43 28.7088 44.2801 28.7688 44.6101Z" fill="url(#paint35_linear_2082_647)"/>
<path d="M26.7578 48.2401C24.9412 49.2785 22.8131 49.6332 20.7578 49.2401C20.8278 48.3301 21.2778 47.0101 23.3878 47.8301C23.3878 47.8201 25.3978 45.6001 26.7578 48.2401Z" fill="url(#paint36_linear_2082_647)"/>
<path d="M21.7972 44.73L21.6472 46.26C21.6276 46.4159 21.5582 46.5614 21.4494 46.6748C21.3405 46.7881 21.1979 46.8633 21.0429 46.8891C20.8878 46.915 20.7286 46.8901 20.5889 46.8182C20.4491 46.7463 20.3363 46.6312 20.2672 46.49L19.6172 45.07L20.4672 44.96L21.7972 44.73Z" fill="url(#paint37_linear_2082_647)"/>
<path d="M25.4097 43.86L25.2297 45.66C25.2178 45.8208 25.1522 45.973 25.0434 46.0922C24.9347 46.2113 24.7891 46.2905 24.63 46.317C24.4709 46.3435 24.3075 46.3158 24.166 46.2384C24.0245 46.161 23.9131 46.0383 23.8497 45.89L23.1797 44.44C23.8697 44.28 24.6097 44.09 25.4097 43.86Z" fill="url(#paint38_linear_2082_647)"/>
<path d="M14.8984 42.3201C17.3837 42.3201 19.3984 40.3053 19.3984 37.8201C19.3984 35.3348 17.3837 33.3201 14.8984 33.3201C12.4132 33.3201 10.3984 35.3348 10.3984 37.8201C10.3984 40.3053 12.4132 42.3201 14.8984 42.3201Z" fill="url(#paint39_linear_2082_647)"/>
<path d="M16.0386 38.8799C17.4083 38.8799 18.5186 37.7696 18.5186 36.3999C18.5186 35.0303 17.4083 33.9199 16.0386 33.9199C14.6689 33.9199 13.5586 35.0303 13.5586 36.3999C13.5586 37.7696 14.6689 38.8799 16.0386 38.8799Z" fill="url(#paint40_linear_2082_647)"/>
<path d="M16.1289 35C16.4104 34.9622 16.6969 34.9986 16.96 35.1056C17.2231 35.2125 17.4537 35.3864 17.6289 35.61" stroke="white" stroke-width="0.33" stroke-miterlimit="10" stroke-linecap="round"/>
<path d="M28.9492 38.8301C31.4345 38.8301 33.4492 36.8154 33.4492 34.3301C33.4492 31.8448 31.4345 29.8301 28.9492 29.8301C26.4639 29.8301 24.4492 31.8448 24.4492 34.3301C24.4492 36.8154 26.4639 38.8301 28.9492 38.8301Z" fill="url(#paint41_linear_2082_647)"/>
<path d="M29.6792 35.2701C31.0489 35.2701 32.1592 34.1597 32.1592 32.7901C32.1592 31.4204 31.0489 30.3101 29.6792 30.3101C28.3096 30.3101 27.1992 31.4204 27.1992 32.7901C27.1992 34.1597 28.3096 35.2701 29.6792 35.2701Z" fill="url(#paint42_linear_2082_647)"/>
<path d="M29.4297 31.25C29.7097 31.212 29.9949 31.2483 30.2564 31.3554C30.518 31.4625 30.7467 31.6365 30.9197 31.86" stroke="white" stroke-width="0.33" stroke-miterlimit="10" stroke-linecap="round"/>
<defs>
<linearGradient id="paint0_linear_2082_647" x1="6.60937" y1="49.8" x2="49.6294" y2="92.81" gradientUnits="userSpaceOnUse">
<stop stop-color="#EFDAA1"/>
<stop offset="1" stop-color="#D4794F"/>
</linearGradient>
<linearGradient id="paint1_linear_2082_647" x1="1.77574" y1="61.7237" x2="15.0776" y2="39.3272" gradientUnits="userSpaceOnUse">
<stop stop-color="#85C3D5"/>
<stop offset="1" stop-color="#6D9FCC"/>
</linearGradient>
<linearGradient id="paint2_linear_2082_647" x1="8.33286" y1="70.1362" x2="8.30066" y2="60.4892" gradientUnits="userSpaceOnUse">
<stop stop-color="#8CC8D1"/>
<stop offset="0.46" stop-color="#85C3D5"/>
<stop offset="1" stop-color="#6D9FCC"/>
</linearGradient>
<linearGradient id="paint3_linear_2082_647" x1="17.6732" y1="63.5844" x2="12.5611" y2="50.7446" gradientUnits="userSpaceOnUse">
<stop stop-color="#414141"/>
<stop offset="0.09" stop-color="#403F40"/>
<stop offset="1" stop-color="#353435"/>
</linearGradient>
<linearGradient id="paint4_linear_2082_647" x1="12.8373" y1="57.7483" x2="17.2504" y2="55.9913" gradientUnits="userSpaceOnUse">
<stop stop-color="#527B95"/>
<stop offset="0.53" stop-color="#6699A0"/>
<stop offset="0.86" stop-color="#73B0A9"/>
</linearGradient>
<linearGradient id="paint5_linear_2082_647" x1="15.8857" y1="58.9899" x2="14.2026" y2="54.7627" gradientUnits="userSpaceOnUse">
<stop offset="0.21" stop-color="#344A7C"/>
<stop offset="0.65" stop-color="#273861"/>
<stop offset="1" stop-color="#182649"/>
</linearGradient>
<linearGradient id="paint6_linear_2082_647" x1="14.9215" y1="57.1684" x2="20.9781" y2="54.3506" gradientUnits="userSpaceOnUse">
<stop stop-color="#9ED6CA"/>
<stop offset="0.23" stop-color="#8CC8D1"/>
<stop offset="0.92" stop-color="#85C3D5"/>
</linearGradient>
<linearGradient id="paint7_linear_2082_647" x1="0.28513" y1="16.8561" x2="10.1155" y2="14.4106" gradientUnits="userSpaceOnUse">
<stop stop-color="#182649"/>
<stop offset="0.44" stop-color="#273861"/>
<stop offset="0.79" stop-color="#344A7C"/>
</linearGradient>
<linearGradient id="paint8_linear_2082_647" x1="2.6583" y1="26.4476" x2="4.6238" y2="25.2137" gradientUnits="userSpaceOnUse">
<stop stop-color="#6D9FCC"/>
<stop offset="0.5" stop-color="#6EA1CD"/>
<stop offset="0.72" stop-color="#73A8CE"/>
<stop offset="0.89" stop-color="#7CB5D2"/>
<stop offset="1" stop-color="#85C3D5"/>
</linearGradient>
<linearGradient id="paint9_linear_2082_647" x1="2.36019" y1="31.6821" x2="4.92226" y2="30.0758" gradientUnits="userSpaceOnUse">
<stop stop-color="#6D9FCC"/>
<stop offset="0.5" stop-color="#6EA1CD"/>
<stop offset="0.72" stop-color="#73A8CE"/>
<stop offset="0.89" stop-color="#7CB5D2"/>
<stop offset="1" stop-color="#85C3D5"/>
</linearGradient>
<linearGradient id="paint10_linear_2082_647" x1="4.24614" y1="36.0752" x2="6.12356" y2="34.8946" gradientUnits="userSpaceOnUse">
<stop stop-color="#6D9FCC"/>
<stop offset="0.5" stop-color="#6EA1CD"/>
<stop offset="0.72" stop-color="#73A8CE"/>
<stop offset="0.89" stop-color="#7CB5D2"/>
<stop offset="1" stop-color="#85C3D5"/>
</linearGradient>
<linearGradient id="paint11_linear_2082_647" x1="6.90625" y1="46.7837" x2="8.78404" y2="45.6131" gradientUnits="userSpaceOnUse">
<stop stop-color="#6D9FCC"/>
<stop offset="0.5" stop-color="#6EA1CD"/>
<stop offset="0.72" stop-color="#73A8CE"/>
<stop offset="0.89" stop-color="#7CB5D2"/>
<stop offset="1" stop-color="#85C3D5"/>
</linearGradient>
<linearGradient id="paint12_linear_2082_647" x1="12.8115" y1="53.07" x2="10.6005" y2="53.8455" gradientUnits="userSpaceOnUse">
<stop stop-color="#6D9FCC"/>
<stop offset="0.5" stop-color="#6EA1CD"/>
<stop offset="0.72" stop-color="#73A8CE"/>
<stop offset="0.89" stop-color="#7CB5D2"/>
<stop offset="1" stop-color="#85C3D5"/>
</linearGradient>
<linearGradient id="paint13_linear_2082_647" x1="5.67012" y1="41.8656" x2="7.76008" y2="41.1387" gradientUnits="userSpaceOnUse">
<stop stop-color="#6D9FCC"/>
<stop offset="0.5" stop-color="#6EA1CD"/>
<stop offset="0.72" stop-color="#73A8CE"/>
<stop offset="0.89" stop-color="#7CB5D2"/>
<stop offset="1" stop-color="#85C3D5"/>
</linearGradient>
<linearGradient id="paint14_linear_2082_647" x1="34.7711" y1="19.4572" x2="37.357" y2="16.9693" gradientUnits="userSpaceOnUse">
<stop stop-color="#9ED6CA"/>
<stop offset="1" stop-color="#AFDCD2"/>
</linearGradient>
<linearGradient id="paint15_linear_2082_647" x1="36.7426" y1="26.3767" x2="39.161" y2="24.0438" gradientUnits="userSpaceOnUse">
<stop stop-color="#9ED6CA"/>
<stop offset="1" stop-color="#AFDCD2"/>
</linearGradient>
<linearGradient id="paint16_linear_2082_647" x1="39.0954" y1="32.8379" x2="41.1163" y2="31.3215" gradientUnits="userSpaceOnUse">
<stop stop-color="#9ED6CA"/>
<stop offset="1" stop-color="#AFDCD2"/>
</linearGradient>
<linearGradient id="paint17_linear_2082_647" x1="37.2489" y1="40.9387" x2="39.6034" y2="39.6594" gradientUnits="userSpaceOnUse">
<stop stop-color="#9ED6CA"/>
<stop offset="1" stop-color="#AFDCD2"/>
</linearGradient>
<linearGradient id="paint18_linear_2082_647" x1="38.2138" y1="51.1372" x2="40.5843" y2="50.0977" gradientUnits="userSpaceOnUse">
<stop stop-color="#8CC8D1"/>
<stop offset="1" stop-color="#9ED6CA"/>
</linearGradient>
<linearGradient id="paint19_linear_2082_647" x1="8.88294" y1="45.885" x2="46.5457" y2="17.0086" gradientUnits="userSpaceOnUse">
<stop stop-color="#6D9FCC"/>
<stop offset="0.24" stop-color="#85C3D5"/>
<stop offset="0.47" stop-color="#8CC8D1"/>
<stop offset="0.74" stop-color="#9ED6CA"/>
<stop offset="1" stop-color="#AFDCD2"/>
</linearGradient>
<linearGradient id="paint20_linear_2082_647" x1="18.2434" y1="20.1585" x2="15.9306" y2="10.8618" gradientUnits="userSpaceOnUse">
<stop stop-color="#527B95"/>
<stop offset="0.53" stop-color="#6699A0"/>
<stop offset="0.86" stop-color="#73B0A9"/>
</linearGradient>
<linearGradient id="paint21_linear_2082_647" x1="18.1691" y1="20.4761" x2="15.8588" y2="11.1892" gradientUnits="userSpaceOnUse">
<stop stop-color="#527B95"/>
<stop offset="0.53" stop-color="#6699A0"/>
<stop offset="0.86" stop-color="#73B0A9"/>
</linearGradient>
<linearGradient id="paint22_linear_2082_647" x1="35.4365" y1="11.6884" x2="25.6104" y2="14.1196" gradientUnits="userSpaceOnUse">
<stop offset="0.21" stop-color="#344A7C"/>
<stop offset="0.56" stop-color="#273861"/>
<stop offset="1" stop-color="#182649"/>
</linearGradient>
<linearGradient id="paint23_linear_2082_647" x1="29.467" y1="21.131" x2="31.7598" y2="11.3004" gradientUnits="userSpaceOnUse">
<stop stop-color="#9ED6CA"/>
<stop offset="0.53" stop-color="#8CC8D1"/>
<stop offset="0.76" stop-color="#85C3D5"/>
<stop offset="1" stop-color="#6D9FCC"/>
</linearGradient>
<linearGradient id="paint24_linear_2082_647" x1="18.534" y1="40.6749" x2="25.6181" y2="38.9126" gradientUnits="userSpaceOnUse">
<stop stop-color="#182649"/>
<stop offset="0.35" stop-color="#273861"/>
<stop offset="0.79" stop-color="#344A7C"/>
</linearGradient>
<linearGradient id="paint25_linear_2082_647" x1="4.72566" y1="51.4864" x2="10.9384" y2="47.9158" gradientUnits="userSpaceOnUse">
<stop stop-color="#182649"/>
<stop offset="0.44" stop-color="#273861"/>
<stop offset="0.79" stop-color="#344A7C"/>
</linearGradient>
<linearGradient id="paint26_linear_2082_647" x1="5.96061" y1="28.0398" x2="12.0086" y2="24.1518" gradientUnits="userSpaceOnUse">
<stop stop-color="#182649"/>
<stop offset="0.44" stop-color="#273861"/>
<stop offset="0.79" stop-color="#344A7C"/>
</linearGradient>
<linearGradient id="paint27_linear_2082_647" x1="29.2895" y1="14.1797" x2="22.1494" y2="13.4657" gradientUnits="userSpaceOnUse">
<stop stop-color="#182649"/>
<stop offset="0.44" stop-color="#273861"/>
<stop offset="0.79" stop-color="#344A7C"/>
</linearGradient>
<linearGradient id="paint28_linear_2082_647" x1="32.1107" y1="26.5335" x2="24.9768" y2="25.4889" gradientUnits="userSpaceOnUse">
<stop stop-color="#182649"/>
<stop offset="0.44" stop-color="#273861"/>
<stop offset="0.79" stop-color="#344A7C"/>
</linearGradient>
<linearGradient id="paint29_linear_2082_647" x1="38.3603" y1="60.3361" x2="34.6973" y2="47.0104" gradientUnits="userSpaceOnUse">
<stop stop-color="#414141"/>
<stop offset="0.09" stop-color="#403F40"/>
<stop offset="1" stop-color="#353435"/>
</linearGradient>
<linearGradient id="paint30_linear_2082_647" x1="34.2199" y1="53.452" x2="38.7799" y2="52.1695" gradientUnits="userSpaceOnUse">
<stop stop-color="#527B95"/>
<stop offset="0.53" stop-color="#6699A0"/>
<stop offset="0.86" stop-color="#73B0A9"/>
</linearGradient>
<linearGradient id="paint31_linear_2082_647" x1="37.1021" y1="55.5703" x2="35.8961" y2="51.183" gradientUnits="userSpaceOnUse">
<stop offset="0.21" stop-color="#344A7C"/>
<stop offset="0.65" stop-color="#273861"/>
<stop offset="1" stop-color="#182649"/>
</linearGradient>
<linearGradient id="paint32_linear_2082_647" x1="36.3445" y1="53.6677" x2="42.6752" y2="51.536" gradientUnits="userSpaceOnUse">
<stop stop-color="#9ED6CA"/>
<stop offset="0.23" stop-color="#8CC8D1"/>
<stop offset="0.92" stop-color="#85C3D5"/>
</linearGradient>
<linearGradient id="paint33_linear_2082_647" x1="62.0576" y1="63.4735" x2="39.8494" y2="49.7479" gradientUnits="userSpaceOnUse">
<stop stop-color="#85C3D5"/>
<stop offset="1" stop-color="#6D9FCC"/>
</linearGradient>
<linearGradient id="paint34_linear_2082_647" x1="58.8461" y1="53.8381" x2="54.2781" y2="45.2251" gradientUnits="userSpaceOnUse">
<stop stop-color="#8CC8D1"/>
<stop offset="0.46" stop-color="#85C3D5"/>
<stop offset="1" stop-color="#6D9FCC"/>
</linearGradient>
<linearGradient id="paint35_linear_2082_647" x1="18.3072" y1="47.9653" x2="33.601" y2="44.1606" gradientUnits="userSpaceOnUse">
<stop stop-color="#A92B4A"/>
<stop offset="0.03" stop-color="#A12748"/>
<stop offset="0.22" stop-color="#7C163E"/>
<stop offset="0.37" stop-color="#640C38"/>
<stop offset="0.46" stop-color="#5C0836"/>
<stop offset="0.64" stop-color="#5A0933"/>
<stop offset="0.78" stop-color="#530D29"/>
<stop offset="0.91" stop-color="#471319"/>
<stop offset="0.92" stop-color="#451416"/>
</linearGradient>
<linearGradient id="paint36_linear_2082_647" x1="21.5903" y1="49.9821" x2="26.137" y2="46.4706" gradientUnits="userSpaceOnUse">
<stop stop-color="#ED7686"/>
<stop offset="0.6" stop-color="#EC8E9D"/>
<stop offset="0.98" stop-color="#EB98A6"/>
</linearGradient>
<linearGradient id="paint37_linear_2082_647" x1="20.1085" y1="45.1054" x2="21.6063" y2="46.0724" gradientUnits="userSpaceOnUse">
<stop offset="0.02" stop-color="#BABCBE"/>
<stop offset="0.24" stop-color="#C4C5C7"/>
<stop offset="0.62" stop-color="#DEDFE0"/>
<stop offset="1" stop-color="white"/>
</linearGradient>
<linearGradient id="paint38_linear_2082_647" x1="23.3912" y1="44.1657" x2="25.4585" y2="45.5166" gradientUnits="userSpaceOnUse">
<stop offset="0.02" stop-color="#BABCBE"/>
<stop offset="0.24" stop-color="#C4C5C7"/>
<stop offset="0.62" stop-color="#DEDFE0"/>
<stop offset="1" stop-color="white"/>
</linearGradient>
<linearGradient id="paint39_linear_2082_647" x1="10.5392" y1="38.9437" x2="16.8081" y2="37.3841" gradientUnits="userSpaceOnUse">
<stop offset="0.02" stop-color="#E5E6E6"/>
<stop offset="0.48" stop-color="#EFEFEF"/>
<stop offset="1" stop-color="white"/>
</linearGradient>
<linearGradient id="paint40_linear_2082_647" x1="14.852" y1="38.592" x2="17.2581" y2="34.2631" gradientUnits="userSpaceOnUse">
<stop stop-color="#451416"/>
<stop offset="0.34" stop-color="#350E2A"/>
<stop offset="0.69" stop-color="#2B0A38"/>
<stop offset="1" stop-color="#27093D"/>
</linearGradient>
<linearGradient id="paint41_linear_2082_647" x1="32.3296" y1="37.2958" x2="26.0634" y2="38.8462" gradientUnits="userSpaceOnUse">
<stop offset="0.02" stop-color="#E5E6E6"/>
<stop offset="0.48" stop-color="#EFEFEF"/>
<stop offset="1" stop-color="white"/>
</linearGradient>
<linearGradient id="paint42_linear_2082_647" x1="28.4849" y1="34.9844" x2="30.891" y2="30.6555" gradientUnits="userSpaceOnUse">
<stop stop-color="#451416"/>
<stop offset="0.34" stop-color="#350E2A"/>
<stop offset="0.69" stop-color="#2B0A38"/>
<stop offset="1" stop-color="#27093D"/>
</linearGradient>
</defs>
</svg>
