<svg width="65" height="108" viewBox="0 0 65 108" fill="none" xmlns="http://www.w3.org/2000/svg">
<path d="M33.4486 107.602C50.7848 107.602 64.8386 93.548 64.8386 76.2118C64.8386 58.8756 50.7848 44.8218 33.4486 44.8218C16.1124 44.8218 2.05859 58.8756 2.05859 76.2118C2.05859 93.548 16.1124 107.602 33.4486 107.602Z" fill="url(#paint0_linear_2082_750)"/>
<path d="M16.4469 98.1718C17.6996 99.7055 18.3281 101.655 18.2069 103.632C15.5373 102.142 13.0957 100.276 10.9569 98.0918C5.23495 92.2312 2.03645 84.3624 2.0469 76.1718C2.0485 74.6931 2.15207 73.2162 2.3569 71.7518C3.2071 65.8102 5.73975 60.236 9.65579 55.6874C13.5718 51.1387 18.7077 47.8057 24.4569 46.0818C24.7569 49.4818 24.9269 58.2618 18.9669 59.3618C11.5469 60.7718 4.2669 65.6318 6.6069 69.5518C8.9469 73.4718 16.6069 72.0718 17.6069 76.9718C18.6069 81.8718 25.6869 80.9718 26.0869 83.4218C26.4869 85.8718 25.0269 92.2918 20.5269 92.5618C16.0269 92.8318 14.7269 96.6318 16.4469 98.1718Z" fill="url(#paint1_linear_2082_750)"/>
<path d="M53.2794 100.552C48.9113 104.11 43.6667 106.429 38.095 107.265C32.5232 108.1 26.8292 107.422 21.6094 105.302C23.6094 101.942 26.5194 98.8919 30.2694 100.902C36.9794 104.502 47.5094 96.9419 53.2794 100.552Z" fill="url(#paint2_linear_2082_750)"/>
<path d="M63.6691 67.6819C63.0703 68.5799 62.4016 69.4292 61.6691 70.2219C58.3991 73.6619 55.9291 67.7019 55.2191 69.9519C54.5091 72.2019 58.4891 74.0119 59.8091 74.8519C61.1291 75.6919 57.6091 81.2119 56.5491 89.5119C55.4891 97.8119 43.0291 98.2119 44.4891 96.8019C45.9491 95.3919 47.0991 87.8819 44.7091 85.1819C42.3191 82.4819 46.2591 78.0319 41.7991 79.7519C37.3391 81.4719 30.0491 76.2219 30.5391 70.8319C31.0291 65.4419 38.9291 61.9619 42.3691 64.8319C45.8091 67.7019 51.3691 65.8319 50.6291 63.4219C49.8891 61.0119 46.0791 65.1919 44.8891 60.9519C43.6991 56.7119 36.0091 64.2619 34.0691 60.7719C32.1291 57.2819 45.4191 54.3719 44.3591 51.3719C43.2991 48.3719 39.2791 52.0319 37.2091 50.0019C36.1591 49.0019 36.8891 47.0019 37.8791 45.1819C43.8919 46.0404 49.5272 48.6222 54.104 52.6151C58.6808 56.608 62.003 61.8411 63.6691 67.6819Z" fill="url(#paint3_linear_2082_750)"/>
<path d="M42.1156 22.5125L42.7406 23.0886C43.5203 23.8073 44.735 23.7578 45.4537 22.9782L48.6528 19.5077C49.3715 18.728 49.322 17.5134 48.5424 16.7947L47.9174 16.2186C47.1377 15.4998 45.9231 15.5493 45.2044 16.3289L42.0053 19.7994C41.2866 20.5791 41.336 21.7938 42.1156 22.5125Z" fill="url(#paint4_linear_2082_750)"/>
<path d="M45.7284 24.0419C46.0482 23.9133 46.3452 23.7344 46.6084 23.5119C46.6515 23.4726 46.6859 23.4247 46.7094 23.3713C46.7329 23.3179 46.7451 23.2602 46.7451 23.2019C46.7451 23.1436 46.7329 23.0859 46.7094 23.0325C46.6859 22.9791 46.6515 22.9313 46.6084 22.8919L41.9784 18.6319C41.9359 18.5926 41.8855 18.5627 41.8306 18.5443C41.7758 18.5259 41.7176 18.5192 41.66 18.5249C41.6023 18.5306 41.5465 18.5484 41.4963 18.5772C41.4461 18.606 41.4025 18.6451 41.3684 18.6919C41.0069 19.226 40.8152 19.8569 40.8184 20.5019C40.8012 21.0092 40.8942 21.5142 41.091 21.982C41.2878 22.4499 41.5838 22.8695 41.9584 23.2119L42.0884 23.3319C42.5684 23.7783 43.1637 24.0814 43.807 24.2069C44.4503 24.3324 45.1159 24.2752 45.7284 24.0419Z" fill="url(#paint5_linear_2082_750)"/>
<path d="M42.6836 29.401L42.5698 30.2433C42.4277 31.2941 43.1644 32.2612 44.2152 32.4032L48.8926 33.0357C49.9435 33.1777 50.9105 32.4411 51.0526 31.3902L51.1665 30.5479C51.3085 29.4971 50.5718 28.53 49.521 28.388L44.8436 27.7555C43.7928 27.6135 42.8257 28.3502 42.6836 29.401Z" fill="url(#paint6_linear_2082_750)"/>
<path d="M43.4976 33.2418C43.8043 33.4384 44.1426 33.5805 44.4976 33.6618C44.5543 33.6748 44.613 33.676 44.6702 33.6651C44.7273 33.6543 44.7816 33.6317 44.8295 33.5988C44.8774 33.5659 44.918 33.5234 44.9487 33.474C44.9794 33.4246 44.9994 33.3694 45.0076 33.3118L45.8476 27.0618C45.8546 27.0048 45.8496 26.9469 45.8328 26.8919C45.816 26.8369 45.7878 26.7861 45.7501 26.7427C45.7124 26.6993 45.6659 26.6644 45.6138 26.6401C45.5617 26.6158 45.5051 26.6028 45.4476 26.6018C44.8032 26.6112 44.1763 26.8132 43.6476 27.1818C43.2189 27.4514 42.8525 27.8095 42.5732 28.2319C42.2938 28.6544 42.1078 29.1317 42.0276 29.6318V29.8118C41.9241 30.464 42.0073 31.1321 42.2674 31.7391C42.5275 32.346 42.954 32.867 43.4976 33.2418Z" fill="url(#paint7_linear_2082_750)"/>
<path d="M31.2002 12.1718C28.8859 10.2763 27.3573 7.58959 26.9102 4.63178L27.2802 3.50178L28.6802 3.32178L28.2402 4.32178C28.6422 6.90034 29.8912 9.27168 31.7902 11.0618L31.8802 11.1518L32.0202 11.3518C32.0778 11.4299 32.1146 11.5214 32.127 11.6177C32.1393 11.714 32.1269 11.8119 32.0908 11.9021C32.0548 11.9922 31.9963 12.0716 31.9209 12.1329C31.8455 12.1941 31.7558 12.235 31.6602 12.2518C31.5824 12.2737 31.5007 12.2779 31.4211 12.2641C31.3414 12.2502 31.266 12.2187 31.2002 12.1718Z" fill="url(#paint8_linear_2082_750)"/>
<path d="M27.2801 4.76188C27.2801 4.76188 24.5501 4.56188 24.3701 3.27188C24.2501 2.40188 25.1801 2.55188 25.1801 2.55188C25.1801 2.55188 24.1801 0.801884 26.0801 1.11188C26.0801 1.11188 25.8601 -0.538115 27.1801 0.181885C28.6701 0.991885 28.5501 2.10188 28.5501 2.10188C28.5501 2.10188 29.9101 0.951885 30.6101 1.73188C31.3101 2.51188 29.8801 3.73188 28.9101 4.10188C27.9401 4.47188 27.2801 4.76188 27.2801 4.76188Z" fill="url(#paint9_linear_2082_750)"/>
<path d="M25.1797 2.55188C25.5234 2.92519 25.9522 3.20994 26.4297 3.38188C26.1644 3.37866 25.9064 3.29497 25.6897 3.14188C25.4813 2.98197 25.3078 2.7812 25.1797 2.55188Z" fill="#F58442"/>
<path d="M26.0781 1.11194C26.4234 1.62579 26.8297 2.09588 27.2881 2.51194C27.0101 2.3582 26.7599 2.15875 26.5481 1.92194C26.3444 1.68211 26.1853 1.40779 26.0781 1.11194Z" fill="#F58442"/>
<path d="M29.9685 35.8218C28.8547 38.5124 28.7834 41.5215 29.7685 44.2618L30.6085 45.0518L31.8785 44.5518L31.0385 43.8818C30.1831 41.5156 30.1479 38.9305 30.9385 36.5418V36.4018V36.0818C30.9477 35.982 30.929 35.8817 30.8844 35.7919C30.8398 35.7021 30.7711 35.6266 30.686 35.5736C30.6009 35.5207 30.5027 35.4925 30.4025 35.4922C30.3022 35.4919 30.2039 35.5195 30.1185 35.5718C30.048 35.641 29.9964 35.7271 29.9685 35.8218Z" fill="#F58442"/>
<path d="M31.0369 44.0019C30.1157 43.8378 29.1667 44.0347 28.3869 44.5519C28.1502 44.6717 27.9485 44.8507 27.8013 45.0715C27.6541 45.2922 27.5665 45.5473 27.5469 45.8119C27.6169 46.6619 28.4669 46.3219 28.4669 46.3219C28.4669 46.3219 27.9169 48.1819 29.6069 47.5019C29.6069 47.5019 29.6869 49.3119 30.8469 48.1519C32.0069 46.9919 31.7369 46.0519 31.7369 46.0519C31.7369 46.0519 33.2469 46.8619 33.7369 45.9719C34.2269 45.0819 32.6069 44.2519 31.6069 44.1019L31.0369 44.0019Z" fill="url(#paint10_linear_2082_750)"/>
<path d="M28.4688 46.3219C28.537 46.0824 28.6564 45.8607 28.8187 45.6719C28.9861 45.4752 29.2153 45.3413 29.4688 45.2919C29.057 45.5492 28.7138 45.9027 28.4688 46.3219Z" fill="#F58442"/>
<path d="M29.6094 47.5019C29.6492 47.2005 29.7441 46.909 29.8894 46.6419C30.0365 46.3738 30.2294 46.1335 30.4594 45.9319C30.116 46.4204 29.8307 46.9473 29.6094 47.5019Z" fill="#F58442"/>
<path d="M18.608 6.63182C18.608 6.63182 12.788 0.291818 5.21796 3.74182C4.9755 3.85528 4.77471 4.0419 4.64384 4.27543C4.51298 4.50896 4.45862 4.77764 4.48843 5.04367C4.51823 5.30971 4.63069 5.5597 4.80999 5.75848C4.98929 5.95726 5.2264 6.09483 5.48796 6.15182C8.19796 6.71182 11.818 8.92182 15.298 15.5418L18.608 6.63182Z" fill="url(#paint11_linear_2082_750)"/>
<path d="M14.1787 39.6819C14.1787 39.6819 6.87872 44.2419 0.508721 38.9119C0.286482 38.7455 0.124909 38.5108 0.0487332 38.2438C-0.0274423 37.9768 -0.0140224 37.6922 0.0869393 37.4335C0.187901 37.1749 0.370841 36.9565 0.607754 36.8117C0.844668 36.6669 1.1225 36.6037 1.39872 36.6319C4.16872 36.8019 8.23872 35.6319 13.3987 30.1819L14.1787 39.6819Z" fill="url(#paint12_linear_2082_750)"/>
<path d="M17.6094 5.86181C17.6094 5.86181 21.3994 3.37181 25.3194 5.13181C25.3786 5.15659 25.4299 5.1972 25.4677 5.2492C25.5054 5.30119 25.5281 5.36256 25.5332 5.42658C25.5384 5.49061 25.5258 5.55482 25.4969 5.61219C25.468 5.66955 25.4239 5.71786 25.3694 5.75181C24.9694 6.01181 24.4294 6.37181 24.0294 6.66181C24.8679 6.57028 25.7161 6.63814 26.5294 6.86181C26.5976 6.88593 26.6567 6.93062 26.6985 6.98972C26.7403 7.04882 26.7628 7.11943 26.7628 7.19181C26.7628 7.2642 26.7403 7.33481 26.6985 7.39391C26.6567 7.45301 26.5976 7.49769 26.5294 7.52181C26.0494 7.74181 25.5794 8.10181 25.7694 8.67181C26.8553 8.43469 27.9781 8.42108 29.0694 8.63181C29.14 8.65638 29.2012 8.70232 29.2445 8.76324C29.2878 8.82417 29.3111 8.89706 29.3111 8.97181C29.3111 9.04656 29.2878 9.11946 29.2445 9.18038C29.2012 9.24131 29.14 9.28725 29.0694 9.31181C28.3994 9.58181 27.5994 10.0218 27.5894 10.5618C27.5894 10.5618 30.3894 12.0318 32.8994 13.5618C32.8994 13.5618 35.0794 12.6318 38.3994 14.3818C38.4614 14.4212 38.5098 14.4785 38.5383 14.5462C38.5667 14.6139 38.5738 14.6886 38.5586 14.7604C38.5433 14.8322 38.5065 14.8977 38.453 14.948C38.3996 14.9983 38.332 15.031 38.2594 15.0418C37.4294 15.1518 36.3594 15.3718 36.0894 15.7918C36.0894 15.7918 39.3894 15.7918 41.3194 17.5718C41.3737 17.6232 41.4107 17.6903 41.4251 17.7638C41.4396 17.8372 41.4308 17.9133 41.4 17.9815C41.3692 18.0497 41.3179 18.1066 41.2533 18.1443C41.1887 18.182 41.1139 18.1986 41.0394 18.1918C40.3794 18.1318 39.5994 18.1918 39.4594 18.5518C39.4594 18.5518 31.9094 17.8918 31.5694 17.4818C31.2294 17.0718 23.0494 8.01181 23.0494 8.01181L17.6094 5.86181Z" fill="url(#paint13_radial_2082_750)"/>
<path d="M14.457 41.1718C15.004 41.8066 15.6828 42.3145 16.4462 42.6599C17.2096 43.0053 18.0392 43.18 18.877 43.1718C18.9447 43.1728 19.0114 43.1546 19.0692 43.1194C19.1271 43.0842 19.1738 43.0334 19.2041 42.9729C19.2344 42.9123 19.247 42.8444 19.2404 42.777C19.2339 42.7096 19.2084 42.6454 19.167 42.5918C18.863 42.2693 18.6341 41.8834 18.497 41.4618C18.497 41.4618 19.967 42.3718 23.127 41.4618C23.1808 41.4478 23.2306 41.4215 23.2726 41.385C23.3145 41.3485 23.3474 41.3028 23.3687 41.2515C23.39 41.2002 23.3992 41.1446 23.3954 41.0891C23.3916 41.0337 23.3751 40.9798 23.347 40.9318C23.1265 40.5681 22.9295 40.1907 22.757 39.8018C24.1185 40.3186 25.6125 40.3714 27.007 39.9518C27.064 39.9334 27.1152 39.9006 27.1559 39.8567C27.1966 39.8128 27.2253 39.7592 27.2393 39.701C27.2534 39.6428 27.2523 39.582 27.2361 39.5244C27.22 39.4668 27.1893 39.4142 27.147 39.3718C26.867 39.0718 26.657 38.5918 27.257 37.9618C27.257 37.9618 28.627 35.8018 32.967 35.4018C34.419 35.5979 35.8969 35.4436 37.277 34.9518C37.3413 34.9238 37.3959 34.8777 37.4343 34.8191C37.4727 34.7605 37.4932 34.6919 37.4932 34.6218C37.4932 34.5518 37.4727 34.4832 37.4343 34.4246C37.3959 34.366 37.3413 34.3198 37.277 34.2918C36.6447 34.0468 36.1106 33.6005 35.757 33.0218C35.117 31.1918 38.607 25.6318 38.607 25.6318L14.457 41.1718Z" fill="url(#paint14_radial_2082_750)"/>
<path d="M42.3868 20.0218L24.6068 6.23179C23.5546 5.4184 22.3066 4.89694 20.9885 4.72003C19.6705 4.54312 18.3291 4.71702 17.0997 5.22418C15.8704 5.73134 14.7965 6.55382 13.9866 7.60861C13.1767 8.6634 12.6593 9.91317 12.4868 11.2318L9.48676 33.5618C9.31365 34.8755 9.48839 36.2116 9.99351 37.4366C10.4986 38.6615 11.3164 39.7325 12.3652 40.5423C13.4139 41.3522 14.6569 41.8725 15.9698 42.0514C17.2827 42.2303 18.6196 42.0615 19.8468 41.5618L40.6068 33.0018C41.8371 32.5013 42.9139 31.6854 43.7286 30.6364C44.5434 29.5873 45.0674 28.3422 45.2479 27.0262C45.4283 25.7102 45.2589 24.37 44.7566 23.1403C44.2543 21.9107 43.4369 20.8351 42.3868 20.0218Z" fill="url(#paint15_radial_2082_750)"/>
<path d="M28.2686 33.5719C28.3846 33.5719 28.4786 33.4778 28.4786 33.3619C28.4786 33.2459 28.3846 33.1519 28.2686 33.1519C28.1526 33.1519 28.0586 33.2459 28.0586 33.3619C28.0586 33.4778 28.1526 33.5719 28.2686 33.5719Z" fill="#CA5E4E"/>
<path d="M29.3467 34.4819C29.4627 34.4819 29.5567 34.3879 29.5567 34.2719C29.5567 34.1559 29.4627 34.0619 29.3467 34.0619C29.2307 34.0619 29.1367 34.1559 29.1367 34.2719C29.1367 34.3879 29.2307 34.4819 29.3467 34.4819Z" fill="#CA5E4E"/>
<path d="M29.5498 33.0219C29.6658 33.0219 29.7598 32.9279 29.7598 32.8119C29.7598 32.6959 29.6658 32.6019 29.5498 32.6019C29.4339 32.6019 29.3398 32.6959 29.3398 32.8119C29.3398 32.9279 29.4339 33.0219 29.5498 33.0219Z" fill="#CA5E4E"/>
<path d="M30.5772 16.5119C30.6932 16.5119 30.7872 16.4179 30.7872 16.3019C30.7872 16.1859 30.6932 16.0919 30.5772 16.0919C30.4612 16.0919 30.3672 16.1859 30.3672 16.3019C30.3672 16.4179 30.4612 16.5119 30.5772 16.5119Z" fill="#CA5E4E"/>
<path d="M31.6592 17.4118C31.7752 17.4118 31.8692 17.3178 31.8692 17.2018C31.8692 17.0858 31.7752 16.9918 31.6592 16.9918C31.5432 16.9918 31.4492 17.0858 31.4492 17.2018C31.4492 17.3178 31.5432 17.4118 31.6592 17.4118Z" fill="#CA5E4E"/>
<path d="M31.8584 15.9619C31.9744 15.9619 32.0684 15.8679 32.0684 15.7519C32.0684 15.6359 31.9744 15.5419 31.8584 15.5419C31.7425 15.5419 31.6484 15.6359 31.6484 15.7519C31.6484 15.8679 31.7425 15.9619 31.8584 15.9619Z" fill="#CA5E4E"/>
<mask id="mask0_2082_750" style="mask-type:luminance" maskUnits="userSpaceOnUse" x="29" y="19" width="4" height="12">
<path d="M29.3086 30.0218C30.1486 29.7818 32.4586 28.7918 32.8786 25.1118C33.2986 21.4318 31.1686 20.1118 30.3786 19.7218C30.472 21.2953 30.4385 22.8737 30.2786 24.4418C30.0486 26.5318 29.4986 29.1518 29.3086 30.0218Z" fill="white"/>
</mask>
<g mask="url(#mask0_2082_750)">
<path d="M29.0273 30.2818L29.9573 24.8218L30.1473 19.4218C30.1473 19.4218 33.6373 20.1718 33.0773 25.1218C32.5173 30.0718 29.0273 30.2818 29.0273 30.2818Z" fill="white"/>
<path d="M31.7664 20.4918L30.7364 29.5318L30.3164 29.8118L31.4064 20.1818L31.7664 20.4918Z" fill="url(#paint16_radial_2082_750)"/>
<path d="M32.5483 21.7917L31.8083 28.2817L30.7383 29.5317L31.7683 20.4917L32.5483 21.7917Z" fill="url(#paint17_radial_2082_750)"/>
<path d="M31.6086 27.8818C31.6913 27.8625 31.7657 27.8174 31.821 27.753C31.8764 27.6887 31.9098 27.6083 31.9165 27.5237C31.9232 27.4391 31.9027 27.3545 31.8582 27.2823C31.8136 27.21 31.7472 27.1538 31.6686 27.1218L30.7186 26.6918L30.5586 28.1718L31.6086 27.8818Z" fill="url(#paint18_linear_2082_750)"/>
<path d="M31.0391 23.4618L32.0391 23.1818C32.1207 23.1597 32.1935 23.1128 32.2475 23.0477C32.3014 22.9825 32.3339 22.9023 32.3405 22.818C32.3471 22.7336 32.3274 22.6493 32.2842 22.5766C32.2409 22.5039 32.1763 22.4463 32.0991 22.4118L31.1591 21.9818L31.0391 23.4618Z" fill="url(#paint19_linear_2082_750)"/>
</g>
<path d="M24.9477 23.1918C27.212 23.1918 29.0477 21.3562 29.0477 19.0918C29.0477 16.8275 27.212 14.9918 24.9477 14.9918C22.6833 14.9918 20.8477 16.8275 20.8477 19.0918C20.8477 21.3562 22.6833 23.1918 24.9477 23.1918Z" fill="url(#paint20_linear_2082_750)"/>
<path d="M24.027 21.5018C25.5845 21.5018 26.847 20.2393 26.847 18.6818C26.847 17.1244 25.5845 15.8618 24.027 15.8618C22.4696 15.8618 21.207 17.1244 21.207 18.6818C21.207 20.2393 22.4696 21.5018 24.027 21.5018Z" fill="url(#paint21_linear_2082_750)"/>
<path d="M22.6055 17.3718C22.9445 17.0089 23.395 16.7696 23.8855 16.6918" stroke="white" stroke-width="0.36" stroke-miterlimit="10" stroke-linecap="round"/>
<path d="M23.5766 33.3519C25.8409 33.3519 27.6766 31.5162 27.6766 29.2519C27.6766 26.9875 25.8409 25.1519 23.5766 25.1519C21.3122 25.1519 19.4766 26.9875 19.4766 29.2519C19.4766 31.5162 21.3122 33.3519 23.5766 33.3519Z" fill="url(#paint22_linear_2082_750)"/>
<path d="M23.0895 31.2118C24.647 31.2118 25.9095 29.9492 25.9095 28.3918C25.9095 26.8343 24.647 25.5718 23.0895 25.5718C21.5321 25.5718 20.2695 26.8343 20.2695 28.3918C20.2695 29.9492 21.5321 31.2118 23.0895 31.2118Z" fill="url(#paint23_linear_2082_750)"/>
<path d="M21.6094 27.0717C21.947 26.707 22.3981 26.4673 22.8894 26.3917" stroke="white" stroke-width="0.36" stroke-miterlimit="10" stroke-linecap="round"/>
<path opacity="0.2" d="M17.1765 35.2918C15.9525 33.6199 15.393 31.5529 15.6065 29.4918C15.608 29.412 15.5843 29.3338 15.5388 29.2683C15.4933 29.2028 15.4283 29.1532 15.3531 29.1266C15.2778 29.1001 15.1962 29.0979 15.1196 29.1204C15.043 29.1428 14.9755 29.1888 14.9265 29.2518C13.7865 30.7818 13.0865 33.6318 16.7065 35.8318C16.7799 35.8682 16.8631 35.8792 16.9434 35.8632C17.0236 35.8471 17.0963 35.805 17.15 35.7432C17.2037 35.6815 17.2354 35.6037 17.2402 35.5221C17.2451 35.4404 17.2227 35.3594 17.1765 35.2918Z" fill="url(#paint24_linear_2082_750)"/>
<path d="M17.0176 35.5618C15.7787 33.8199 15.2106 31.6893 15.4176 29.5618C15.4213 29.4812 15.3992 29.4015 15.3545 29.3342C15.3098 29.267 15.2449 29.2157 15.1691 29.1879C15.0933 29.16 15.0107 29.157 14.9331 29.1793C14.8555 29.2016 14.787 29.248 14.7376 29.3118C13.6076 30.8918 12.9176 33.8218 16.5476 36.1318C16.8776 36.3318 17.2476 35.8718 17.0176 35.5618Z" fill="url(#paint25_linear_2082_750)"/>
<path opacity="0.2" d="M20.3183 12.112C18.6922 13.3944 17.6044 15.2385 17.2683 17.282C17.2486 17.3594 17.2049 17.4287 17.1435 17.48C17.0821 17.5312 17.0061 17.5617 16.9264 17.5673C16.8466 17.5728 16.7671 17.5531 16.6993 17.5108C16.6314 17.4686 16.5785 17.406 16.5483 17.332C15.8583 15.552 15.9283 12.622 20.0083 11.462C20.0897 11.4444 20.1747 11.4548 20.2495 11.4915C20.3243 11.5282 20.3845 11.5891 20.4204 11.6643C20.4563 11.7395 20.4657 11.8247 20.4472 11.9059C20.4286 11.9871 20.3832 12.0597 20.3183 12.112Z" fill="url(#paint26_linear_2082_750)"/>
<path d="M20.21 11.9419C18.5566 13.2988 17.4458 15.2045 17.08 17.3119C17.0616 17.3899 17.0189 17.4601 16.9582 17.5124C16.8974 17.5647 16.8217 17.5964 16.7418 17.6031C16.6619 17.6098 16.582 17.591 16.5134 17.5495C16.4448 17.5079 16.3911 17.4458 16.36 17.3719C15.68 15.5419 15.8 12.5319 19.91 11.2719C20.29 11.1619 20.52 11.6919 20.21 11.9419Z" fill="url(#paint27_linear_2082_750)"/>
<defs>
<linearGradient id="paint0_linear_2082_750" x1="43.9686" y1="86.7418" x2="17.3986" y2="60.1618" gradientUnits="userSpaceOnUse">
<stop stop-color="#00B2DB"/>
<stop offset="1" stop-color="#52C8EE"/>
</linearGradient>
<linearGradient id="paint1_linear_2082_750" x1="55.2869" y1="109.702" x2="12.7669" y2="67.1818" gradientUnits="userSpaceOnUse">
<stop stop-color="#59BB6E"/>
<stop offset="1" stop-color="#FDEA0D"/>
</linearGradient>
<linearGradient id="paint2_linear_2082_750" x1="49.7594" y1="115.232" x2="7.23936" y2="72.7119" gradientUnits="userSpaceOnUse">
<stop stop-color="#59BB6E"/>
<stop offset="1" stop-color="#FDEA0D"/>
</linearGradient>
<linearGradient id="paint3_linear_2082_750" x1="69.7291" y1="95.2619" x2="27.1991" y2="52.7419" gradientUnits="userSpaceOnUse">
<stop stop-color="#59BB6E"/>
<stop offset="1" stop-color="#FDEA0D"/>
</linearGradient>
<linearGradient id="paint4_linear_2082_750" x1="48.2262" y1="16.5032" x2="42.4245" y2="22.7971" gradientUnits="userSpaceOnUse">
<stop stop-color="#662A2D"/>
<stop offset="0.44" stop-color="#5B2225"/>
<stop offset="1" stop-color="#451416"/>
</linearGradient>
<linearGradient id="paint5_linear_2082_750" x1="53.7588" y1="11.9697" x2="51.4536" y2="14.4783" gradientUnits="userSpaceOnUse">
<stop offset="0.46" stop-color="#F9A045"/>
<stop offset="1" stop-color="#F58442"/>
</linearGradient>
<linearGradient id="paint6_linear_2082_750" x1="51.1088" y1="30.974" x2="42.6359" y2="29.8284" gradientUnits="userSpaceOnUse">
<stop stop-color="#662A2D"/>
<stop offset="0.44" stop-color="#5B2225"/>
<stop offset="1" stop-color="#451416"/>
</linearGradient>
<linearGradient id="paint7_linear_2082_750" x1="45.394" y1="30.3464" x2="42.0444" y2="29.8935" gradientUnits="userSpaceOnUse">
<stop offset="0.46" stop-color="#F9A045"/>
<stop offset="1" stop-color="#F58442"/>
</linearGradient>
<linearGradient id="paint8_linear_2082_750" x1="31.6688" y1="7.62138" x2="34.5122" y2="11.7362" gradientUnits="userSpaceOnUse">
<stop stop-color="#FCBE38"/>
<stop offset="0.46" stop-color="#FBB33D"/>
<stop offset="0.99" stop-color="#F9A045"/>
</linearGradient>
<linearGradient id="paint9_linear_2082_750" x1="28.7215" y1="-0.182715" x2="31.2283" y2="5.60949" gradientUnits="userSpaceOnUse">
<stop stop-color="#F58442"/>
<stop offset="0.23" stop-color="#F7943F"/>
<stop offset="0.72" stop-color="#FBB33A"/>
<stop offset="1" stop-color="#FCBE38"/>
</linearGradient>
<linearGradient id="paint10_linear_2082_750" x1="27.6941" y1="46.6789" x2="33.7967" y2="45.4761" gradientUnits="userSpaceOnUse">
<stop stop-color="#F9A045"/>
<stop offset="1" stop-color="#F58442"/>
</linearGradient>
<linearGradient id="paint11_linear_2082_750" x1="11.3391" y1="10.1456" x2="11.7904" y2="2.26495" gradientUnits="userSpaceOnUse">
<stop offset="0.02" stop-color="#FCCBB8"/>
<stop offset="0.45" stop-color="#FEE3C8"/>
<stop offset="1" stop-color="#FFF0E2"/>
</linearGradient>
<linearGradient id="paint12_linear_2082_750" x1="8.18405" y1="41.5058" x2="6.83953" y2="34.815" gradientUnits="userSpaceOnUse">
<stop offset="0.02" stop-color="#FCCBB8"/>
<stop offset="0.45" stop-color="#FEE3C8"/>
<stop offset="1" stop-color="#FFF0E2"/>
</linearGradient>
<radialGradient id="paint13_radial_2082_750" cx="0" cy="0" r="1" gradientUnits="userSpaceOnUse" gradientTransform="translate(29.5294 11.5218) scale(9.81)">
<stop stop-color="#FCBE38"/>
<stop offset="0.45" stop-color="#F9A045"/>
<stop offset="1" stop-color="#F58442"/>
</radialGradient>
<radialGradient id="paint14_radial_2082_750" cx="0" cy="0" r="1" gradientUnits="userSpaceOnUse" gradientTransform="translate(26.5178 34.129) rotate(-82.29) scale(10.53)">
<stop stop-color="#FCBE38"/>
<stop offset="0.45" stop-color="#F9A045"/>
<stop offset="1" stop-color="#F58442"/>
</radialGradient>
<radialGradient id="paint15_radial_2082_750" cx="0" cy="0" r="1" gradientUnits="userSpaceOnUse" gradientTransform="translate(20.1616 13.8428) rotate(-82.29) scale(20.25 20.25)">
<stop stop-color="#FCBE38"/>
<stop offset="0.29" stop-color="#FBB33D"/>
<stop offset="0.61" stop-color="#F9A045"/>
<stop offset="1" stop-color="#F58442"/>
</radialGradient>
<radialGradient id="paint16_radial_2082_750" cx="0" cy="0" r="1" gradientUnits="userSpaceOnUse" gradientTransform="translate(31.0554 25.0557) rotate(-82.29) scale(3.43 3.43)">
<stop stop-color="#A92B4A"/>
<stop offset="0.52" stop-color="#88203A"/>
<stop offset="1" stop-color="#66142A"/>
</radialGradient>
<radialGradient id="paint17_radial_2082_750" cx="0" cy="0" r="1" gradientUnits="userSpaceOnUse" gradientTransform="translate(31.7068 25.1032) rotate(-82.29) scale(3.24 3.24)">
<stop stop-color="#A92B4A"/>
<stop offset="0.52" stop-color="#88203A"/>
<stop offset="1" stop-color="#66142A"/>
</radialGradient>
<linearGradient id="paint18_linear_2082_750" x1="24.1203" y1="29.0627" x2="23.5615" y2="27.0563" gradientUnits="userSpaceOnUse">
<stop stop-color="white"/>
<stop offset="0.4" stop-color="#FCFCFC"/>
<stop offset="0.75" stop-color="#F1F2F2"/>
<stop offset="0.98" stop-color="#E5E6E6"/>
</linearGradient>
<linearGradient id="paint19_linear_2082_750" x1="23.7512" y1="24.2711" x2="24.9249" y2="22.6376" gradientUnits="userSpaceOnUse">
<stop offset="0.02" stop-color="#E5E6E6"/>
<stop offset="0.25" stop-color="#F1F2F2"/>
<stop offset="0.6" stop-color="#FCFCFC"/>
<stop offset="1" stop-color="white"/>
</linearGradient>
<linearGradient id="paint20_linear_2082_750" x1="24.4086" y1="23.1769" x2="25.5074" y2="15.0609" gradientUnits="userSpaceOnUse">
<stop stop-color="white"/>
<stop offset="0.5" stop-color="#EFF0F0"/>
<stop offset="0.98" stop-color="#E5E6E6"/>
</linearGradient>
<linearGradient id="paint21_linear_2082_750" x1="26.1569" y1="21.3651" x2="22.6456" y2="16.9643" gradientUnits="userSpaceOnUse">
<stop stop-color="#451416"/>
<stop offset="0.33" stop-color="#360F29"/>
<stop offset="0.69" stop-color="#2B0A38"/>
<stop offset="1" stop-color="#27093D"/>
</linearGradient>
<linearGradient id="paint22_linear_2082_750" x1="23.0311" y1="33.3442" x2="23.8199" y2="27.5173" gradientUnits="userSpaceOnUse">
<stop offset="0.02" stop-color="#E5E6E6"/>
<stop offset="0.48" stop-color="#EFEFEF"/>
<stop offset="1" stop-color="white"/>
</linearGradient>
<linearGradient id="paint23_linear_2082_750" x1="24.8793" y1="30.5968" x2="21.3117" y2="26.2388" gradientUnits="userSpaceOnUse">
<stop stop-color="#451416"/>
<stop offset="0.34" stop-color="#350E2A"/>
<stop offset="0.69" stop-color="#2B0A38"/>
<stop offset="1" stop-color="#27093D"/>
</linearGradient>
<linearGradient id="paint24_linear_2082_750" x1="12.3438" y1="28.6247" x2="11.4382" y2="21.7279" gradientUnits="userSpaceOnUse">
<stop stop-color="#451416"/>
<stop offset="0.56" stop-color="#5B2225"/>
<stop offset="1" stop-color="#662A2D"/>
</linearGradient>
<linearGradient id="paint25_linear_2082_750" x1="15.7527" y1="36.3179" x2="14.8428" y2="29.1857" gradientUnits="userSpaceOnUse">
<stop stop-color="#451416"/>
<stop offset="0.56" stop-color="#5B2225"/>
<stop offset="1" stop-color="#662A2D"/>
</linearGradient>
<linearGradient id="paint26_linear_2082_750" x1="10.1475" y1="19.2249" x2="7.44281" y2="25.6051" gradientUnits="userSpaceOnUse">
<stop stop-color="#451416"/>
<stop offset="0.56" stop-color="#5B2225"/>
<stop offset="1" stop-color="#662A2D"/>
</linearGradient>
<linearGradient id="paint27_linear_2082_750" x1="24.8454" y1="22.6302" x2="22.0413" y2="29.245" gradientUnits="userSpaceOnUse">
<stop stop-color="#451416"/>
<stop offset="0.56" stop-color="#5B2225"/>
<stop offset="1" stop-color="#662A2D"/>
</linearGradient>
</defs>
</svg>
