<svg viewBox="0 0 1440 447" fill="none" xmlns="http://www.w3.org/2000/svg">
<g clip-path="url(#clip0_2082_779)">
<mask id="mask0_2082_779" style="mask-type:luminance" maskUnits="userSpaceOnUse" x="0" y="0" width="1441" height="447">
<path d="M1440.17 0H0V446.84H1440.17V0Z" fill="white"/>
</mask>
<g mask="url(#mask0_2082_779)">
<path d="M465.37 519.9C465.37 519.9 508.37 389.9 560.96 429.55C590.08 451.55 624.19 471.34 648.82 484.65C667.43 494.7 689.16 490.19 702.93 473.51C721.93 450.45 751.23 422.95 777.73 431.13C821.61 444.66 855.03 404.4 872.57 355.36C891.15 303.43 985.91 197 1074 458.94C1148.36 680.15 1182.31 620.09 1182.31 620.09L1241.31 660.22L454 745.78L465.37 519.9Z" fill="#3F5B93"/>
<path d="M-75.0605 758.25L-76.2005 747.82C-99.2005 537.22 -11.2905 329.27 157.019 200.61C175.309 186.61 189.879 177.15 198.439 174.35C242.139 160.06 298.329 162.35 358.159 218.1C434.25 289 495.89 321.58 530.49 348.26C560 371 1088.78 739.48 1088.78 739.48L-75.0605 758.25Z" fill="#456482"/>
<path d="M791.549 466.6C791.549 466.6 876.869 374.92 911.659 370.24C946.449 365.56 1013.71 376.79 1034.94 357.15C1044.01 348.76 1065.32 326.39 1086.77 303.51C1119.16 268.95 1169.53 270.29 1200.52 306.51L1217.52 326.36C1243.84 357.17 1390.8 654 1385.88 654C1380.96 654 967.749 655.6 967.749 655.6L791.549 466.6Z" fill="#3F5B93"/>
<path d="M-31.21 713.86C-31.21 713.86 -49.48 323.86 110.17 409C227.81 471.69 498.7 472.72 565.28 390.37C631.86 308.02 739.36 117.37 860.68 339.11C912.18 433.26 960.09 732.2 960.09 732.2L-31.21 713.86Z" fill="#364A62"/>
<path d="M979.08 571C979.08 571 1057.87 462.07 1154.93 470.36C1232.06 476.95 1280.2 438.8 1296.72 422.85C1307.66 412.223 1320.66 403.95 1334.92 398.54C1359.08 389.491 1385.37 387.735 1410.52 393.49C1422.52 396.14 1437.03 407.6 1451.94 422.95C1506.34 478.95 1535.94 554.54 1535.74 632.64L1535.47 732.15L960.09 707.07L979.08 571Z" fill="#3F5B93"/>
<path d="M942.889 435.06C942.889 435.06 800.999 319.32 683.609 392.51C621.769 431.07 576.919 414.46 548.329 390.1C533.707 377.633 516.087 369.193 497.207 365.612C478.328 362.031 458.842 363.433 440.669 369.68C412.129 379.51 382.289 386.17 367.309 378.31C333.569 360.63 254.569 399.94 231.109 443.8C231.109 443.8 300.519 817.6 788.429 733.44C904.269 713.45 942.889 435.06 942.889 435.06Z" fill="url(#paint0_linear_2082_779)"/>
<path d="M950.199 633L1028.62 526.46C1040.19 510.67 1054.89 497.434 1071.8 487.58C1082.66 481.28 1095.18 475.96 1107.73 474.74C1142.35 471.36 1236.67 379.84 1236.67 379.84C1236.67 379.84 1294.24 309.84 1360.83 371.84C1398.93 407.32 1385.88 654.01 1385.88 654.01L950.199 633Z" fill="#456482"/>
</g>
</g>
<defs>
<linearGradient id="paint0_linear_2082_779" x1="526.163" y1="922.785" x2="674.106" y2="-252.601" gradientUnits="userSpaceOnUse">
<stop stop-color="#538465"/>
<stop offset="0.24" stop-color="#4D7B66"/>
<stop offset="0.61" stop-color="#406467"/>
<stop offset="0.96" stop-color="#406467"/>
</linearGradient>
<clipPath id="clip0_2082_779">
<rect width="1440" height="446.84" fill="white"/>
</clipPath>
</defs>
</svg>
