<svg width="176" height="176" viewBox="0 0 176 176" fill="none" xmlns="http://www.w3.org/2000/svg">
<path d="M62.9541 78.2351L65.1927 76.9293C65.2868 76.8633 65.399 76.8279 65.5139 76.8279C65.6289 76.8279 65.7411 76.8633 65.8352 76.9293L67.7628 78.6704C67.8446 78.7427 67.9471 78.7874 68.0557 78.798C68.1644 78.8086 68.2737 78.7846 68.3679 78.7295C68.4621 78.6743 68.5365 78.5908 68.5804 78.4909C68.6244 78.3909 68.6357 78.2797 68.6126 78.173L68.0737 75.6443C68.0524 75.5286 68.0668 75.4091 68.1149 75.3017C68.163 75.1944 68.2426 75.1042 68.3432 75.0432L70.5817 73.7581C70.6809 73.7052 70.7603 73.6214 70.8077 73.5195C70.8552 73.4176 70.8682 73.303 70.8448 73.193C70.8214 73.083 70.7629 72.9836 70.678 72.9098C70.5931 72.836 70.4866 72.7918 70.3744 72.7839L67.8042 72.5145C67.6902 72.5076 67.5817 72.4632 67.4954 72.3883C67.4092 72.3133 67.3502 72.2119 67.3276 72.0999L66.7886 69.5505C66.7572 69.4429 66.6918 69.3483 66.6021 69.281C66.5124 69.2138 66.4033 69.1774 66.2912 69.1774C66.1791 69.1774 66.0699 69.2138 65.9803 69.281C65.8906 69.3483 65.8251 69.4429 65.7937 69.5505L64.7574 71.9134C64.7035 72.0179 64.6192 72.1036 64.5155 72.1591C64.4119 72.2146 64.2939 72.2374 64.177 72.2243L61.6069 71.9548C61.496 71.9416 61.3838 71.9646 61.2871 72.0203C61.1903 72.076 61.1141 72.1614 61.0698 72.2639C61.0255 72.3664 61.0156 72.4805 61.0414 72.5892C61.0672 72.6978 61.1274 72.7952 61.2131 72.8668L63.1407 74.5872C63.2262 74.6677 63.2843 74.7731 63.3066 74.8884C63.3289 75.0037 63.3143 75.1231 63.265 75.2297L62.2287 77.5926C62.1914 77.6909 62.1849 77.7983 62.2101 77.9004C62.2352 78.0025 62.2909 78.0946 62.3696 78.1643C62.4483 78.234 62.5464 78.2782 62.6508 78.2908C62.7552 78.3035 62.861 78.284 62.9541 78.2351Z" fill="#FFD788"/>
<path d="M97.4032 127.089C97.4032 127.089 82.1481 120.871 84.283 114.652C86.4179 108.434 111.352 122.011 97.4032 127.089Z" fill="url(#paint0_linear_2067_524)"/>
<path d="M112.475 150.514C147.036 136.865 163.988 97.7844 150.339 63.2241C136.691 28.6638 97.6099 11.7115 63.0496 25.36C28.4893 39.0085 11.537 78.0895 25.1855 112.65C38.834 147.21 77.915 164.162 112.475 150.514Z" fill="url(#paint1_linear_2067_524)"/>
<g style="mix-blend-mode:overlay" opacity="0.45">
<path d="M133.069 117.471C133.754 117.807 134.412 118.196 135.038 118.632C135.641 119.057 136.151 119.602 136.534 120.233C136.917 120.864 137.166 121.567 137.265 122.299C137.364 123.03 137.312 123.774 137.11 124.484C136.909 125.194 136.564 125.855 136.095 126.426C135.359 127.313 134.358 127.94 133.239 128.216C132.12 128.492 130.941 128.402 129.877 127.959C128.94 127.603 127.977 127.319 126.996 127.11C115.534 124.747 120.799 111.44 133.069 117.471Z" fill="white"/>
</g>
<g style="mix-blend-mode:overlay" opacity="0.45">
<path d="M115.453 26.5419C123.714 30.2651 131.137 35.6186 137.278 42.2813C143.42 48.9439 148.152 56.7784 151.191 65.3146C154.23 73.8509 155.513 82.9131 154.964 91.9576C154.414 101.002 152.044 109.842 147.994 117.948C143.476 112.103 135.994 107.709 123.537 110.424C94.7467 116.642 82.4555 109.657 110.665 89.0132C138.875 68.369 141.362 60.9073 116.883 59.0419C102.312 57.9433 105.711 38.5221 115.453 26.5419Z" fill="white"/>
</g>
<g style="mix-blend-mode:overlay" opacity="0.13">
<path d="M63.2238 34.8948C61.918 31.5992 63.7005 27.744 66.9546 23.8888C80.2625 19.5325 94.6015 19.46 107.953 23.6815C103.579 29.4021 96.8016 35.3301 89.0082 31.9723C75.3698 26.0236 67.9703 46.8543 63.2238 34.8948Z" fill="white"/>
</g>
<g style="mix-blend-mode:overlay" opacity="0.45">
<path d="M22.6408 104.704C19.0766 90.8657 20.0052 76.2529 25.2923 62.9775C30.5793 49.7021 39.9509 38.4519 52.0524 30.853C54.7895 33.3812 56.6948 36.6806 57.5164 40.3149C58.338 43.9492 58.0372 47.7473 56.6538 51.207C50.7881 66.4414 42.9948 63.0629 38.1239 89.4485C36.1341 100.206 29.6465 103.999 22.6408 104.704Z" fill="white"/>
</g>
<g style="mix-blend-mode:overlay" opacity="0.17">
<path d="M112.513 150.469C117.539 148.489 122.307 145.907 126.711 142.779C126.421 133.514 121.902 123.296 101.445 129.348C67.0791 139.525 92.0552 105.533 56.8192 109.264C45.9375 110.404 34.5791 110.569 24.6094 111.005C24.7959 111.523 25.0032 112.062 25.2105 112.601C31.7728 129.194 44.6542 142.503 61.0242 149.603C77.3941 156.704 95.9135 157.015 112.513 150.469ZM47.3884 116.373C72.095 112.953 64.882 135.981 64.882 135.981C58.2079 155.816 22.6817 119.793 47.3884 116.373Z" fill="white"/>
</g>
<g style="mix-blend-mode:overlay" opacity="0.17">
<path d="M95.7234 86.1736C95.7234 86.1736 137.53 65.8196 119.207 65.9233C100.884 66.0269 91.8889 74.4421 94.0237 54.9172C96.1586 35.3923 75.2658 36.3872 74.7476 47.1238C74.2294 57.8604 68.9855 97.6564 95.7234 86.1736Z" fill="white"/>
</g>
<g style="mix-blend-mode:overlay" opacity="0.17">
<path d="M47.5474 74.981C40.2722 83.5827 52.9778 94.7339 60.564 86.443C65.9737 80.5358 70.0155 73.4264 63.4865 69.4676C58.3462 66.3585 52.0244 69.6956 47.5474 74.981Z" fill="white"/>
</g>
<g style="mix-blend-mode:overlay" opacity="0.45">
<path d="M55.5113 94.4229C54.6015 94.4944 53.7574 94.9243 53.1646 95.6182C52.5718 96.312 52.279 97.2129 52.3504 98.1227C52.4219 99.0325 52.8518 99.8766 53.5457 100.469C54.2395 101.062 55.1404 101.355 56.0502 101.284C59.2422 101.097 62.2683 100.185 61.5843 97.1382C60.9832 94.9411 58.2473 94.2157 55.5113 94.4229Z" fill="white"/>
</g>
<g style="mix-blend-mode:overlay" opacity="0.45">
<path d="M97.4032 127.089C97.4032 127.089 82.1481 120.871 84.283 114.652C86.4179 108.434 111.352 122.011 97.4032 127.089Z" fill="white"/>
</g>
<defs>
<linearGradient id="paint0_linear_2067_524" x1="84.6109" y1="115.728" x2="102.037" y2="123.287" gradientUnits="userSpaceOnUse">
<stop stop-color="#FCBF10"/>
<stop offset="1" stop-color="#BE3226"/>
</linearGradient>
<linearGradient id="paint1_linear_2067_524" x1="30.9407" y1="63.2891" x2="151.461" y2="115.552" gradientUnits="userSpaceOnUse">
<stop stop-color="#FCBF10"/>
<stop offset="1" stop-color="#BE3226"/>
</linearGradient>
</defs>
</svg>
