<svg width="86" height="86" viewBox="0 0 86 86" fill="none" xmlns="http://www.w3.org/2000/svg">
<path d="M43.1395 85.3899C66.5398 85.3899 85.5095 66.4202 85.5095 43.0199C85.5095 19.6196 66.5398 0.649902 43.1395 0.649902C19.7392 0.649902 0.769531 19.6196 0.769531 43.0199C0.769531 66.4202 19.7392 85.3899 43.1395 85.3899Z" fill="#3984C5"/>
<mask id="mask0_4146_653" style="mask-type:luminance" maskUnits="userSpaceOnUse" x="0" y="0" width="86" height="86">
<path d="M43.1395 85.3899C66.5398 85.3899 85.5095 66.4202 85.5095 43.0199C85.5095 19.6196 66.5398 0.649902 43.1395 0.649902C19.7392 0.649902 0.769531 19.6196 0.769531 43.0199C0.769531 66.4202 19.7392 85.3899 43.1395 85.3899Z" fill="white"/>
</mask>
<g mask="url(#mask0_4146_653)">
<path d="M43.1395 85.3899C66.5398 85.3899 85.5095 66.4202 85.5095 43.0199C85.5095 19.6196 66.5398 0.649902 43.1395 0.649902C19.7392 0.649902 0.769531 19.6196 0.769531 43.0199C0.769531 66.4202 19.7392 85.3899 43.1395 85.3899Z" fill="#3984C5"/>
</g>
<mask id="mask1_4146_653" style="mask-type:luminance" maskUnits="userSpaceOnUse" x="0" y="0" width="86" height="86">
<path d="M43.1395 85.3899C66.5398 85.3899 85.5095 66.4202 85.5095 43.0199C85.5095 19.6196 66.5398 0.649902 43.1395 0.649902C19.7392 0.649902 0.769531 19.6196 0.769531 43.0199C0.769531 66.4202 19.7392 85.3899 43.1395 85.3899Z" fill="white"/>
</mask>
<g mask="url(#mask1_4146_653)">
<path d="M56.4306 11.5H28.7106C26.1867 11.5 24.1406 13.5461 24.1406 16.07V60.67C24.1406 63.1939 26.1867 65.24 28.7106 65.24H56.4306C58.9546 65.24 61.0006 63.1939 61.0006 60.67V16.07C61.0006 13.5461 58.9546 11.5 56.4306 11.5Z" fill="#F1F2F2"/>
<path d="M53.8997 16.01H31.2397C29.1355 16.01 27.4297 17.7158 27.4297 19.82V49.04C27.4297 51.1442 29.1355 52.85 31.2397 52.85H53.8997C56.0039 52.85 57.7097 51.1442 57.7097 49.04V19.82C57.7097 17.7158 56.0039 16.01 53.8997 16.01Z" fill="#D1D3D4"/>
<path d="M37.9905 16.02H47.1305C47.1305 16.4178 46.9724 16.7994 46.6911 17.0807C46.4098 17.362 46.0283 17.52 45.6305 17.52H39.4805C39.0826 17.52 38.7011 17.362 38.4198 17.0807C38.1385 16.7994 37.9805 16.4178 37.9805 16.02H37.9905Z" fill="#BCBEC0"/>
<path d="M46.242 58.5801H38.732C37.8208 58.5801 37.082 59.3188 37.082 60.2301C37.082 61.1413 37.8208 61.8801 38.732 61.8801H46.242C47.1533 61.8801 47.892 61.1413 47.892 60.2301C47.892 59.3188 47.1533 58.5801 46.242 58.5801Z" fill="#BCBEC0"/>
<path d="M43.0389 23.3H41.6689C38.8759 23.308 36.1997 24.421 34.2247 26.3959C32.2498 28.3708 31.1368 31.0471 31.1289 33.84V35.72C31.1315 35.7607 31.1494 35.7989 31.1791 35.8268C31.2089 35.8547 31.2481 35.8701 31.2889 35.87H53.4289C53.4687 35.87 53.5068 35.8542 53.5349 35.8261C53.5631 35.798 53.5789 35.7598 53.5789 35.72V33.82C53.5657 31.0306 52.4504 28.3594 50.476 26.3888C48.5017 24.4182 45.8284 23.3079 43.0389 23.3ZM51.8689 34.17H32.8689V33.84C32.8715 31.5016 33.8016 29.2598 35.4551 27.6063C37.1086 25.9528 39.3505 25.0227 41.6889 25.02H43.0589C45.3982 25.0227 47.6411 25.9525 49.2962 27.6057C50.9513 29.2589 51.8836 31.5007 51.8889 33.84L51.8689 34.17Z" fill="#4E4E4E"/>
<path d="M45.5387 47.72H38.9888C37.4041 47.7191 35.8665 47.1805 34.6277 46.1923C33.3888 45.2041 32.5219 43.8248 32.1687 42.28L30.8487 36.72C30.8151 36.4777 30.8324 36.2312 30.8993 35.996C30.9663 35.7608 31.0816 35.5421 31.2377 35.3539C31.3939 35.1658 31.5876 35.0122 31.8065 34.903C32.0253 34.7939 32.2645 34.7315 32.5087 34.72H51.9888C52.233 34.7315 52.4722 34.7939 52.6911 34.903C52.9099 35.0122 53.1036 35.1658 53.2598 35.3539C53.4159 35.5421 53.5312 35.7608 53.5982 35.996C53.6651 36.2312 53.6824 36.4777 53.6488 36.72L52.3688 42.32C52.0074 43.8591 51.1357 45.2306 49.8955 46.2111C48.6553 47.1916 47.1197 47.7234 45.5387 47.72Z" fill="#4E4E4E"/>
<path d="M34.7216 39.5162L34.4902 39.5799C34.1548 39.6722 33.9577 40.019 34.05 40.3545L35.0319 43.9218C35.1243 44.2573 35.4711 44.4544 35.8065 44.362L36.0379 44.2983C36.3734 44.206 36.5705 43.8592 36.4782 43.5237L35.4962 39.9564C35.4039 39.6209 35.0571 39.4238 34.7216 39.5162Z" fill="white"/>
<path d="M39.6084 39.1918L39.3716 39.2308C39.0283 39.2874 38.7959 39.6116 38.8525 39.9549L39.4542 43.6056C39.5108 43.9489 39.835 44.1813 40.1783 44.1248L40.4151 44.0857C40.7584 44.0291 40.9908 43.705 40.9342 43.3616L40.3325 39.7109C40.2759 39.3676 39.9517 39.1352 39.6084 39.1918Z" fill="white"/>
<path d="M45.2375 39.1615L44.9984 39.1396C44.652 39.1078 44.3453 39.3629 44.3136 39.7094L43.9756 43.3939C43.9439 43.7404 44.199 44.0471 44.5454 44.0788L44.7845 44.1008C45.131 44.1325 45.4376 43.8774 45.4694 43.5309L45.8073 39.8464C45.8391 39.4999 45.5839 39.1933 45.2375 39.1615Z" fill="white"/>
<path d="M50.0347 39.5278L49.8021 39.4688C49.4648 39.3833 49.1221 39.5874 49.0365 39.9246L48.127 43.5111C48.0415 43.8484 48.2456 44.1911 48.5828 44.2766L48.8155 44.3356C49.1528 44.4212 49.4955 44.2171 49.581 43.8798L50.4905 40.2934C50.576 39.9561 50.372 39.6134 50.0347 39.5278Z" fill="white"/>
<path d="M53.9489 34.45H30.5189C29.6131 34.45 28.8789 35.1842 28.8789 36.09V36.1399C28.8789 37.0457 29.6131 37.78 30.5189 37.78H53.9489C54.8546 37.78 55.5889 37.0457 55.5889 36.1399V36.09C55.5889 35.1842 54.8546 34.45 53.9489 34.45Z" fill="white"/>
<path d="M53.9606 33.78H30.5306C29.6249 33.78 28.8906 34.5143 28.8906 35.42V35.47C28.8906 36.3758 29.6249 37.11 30.5306 37.11H53.9606C54.8664 37.11 55.6006 36.3758 55.6006 35.47V35.42C55.6006 34.5143 54.8664 33.78 53.9606 33.78Z" fill="#4E4E4E"/>
<path d="M51.5892 61.8701C51.5892 61.8701 46.2592 66.1501 53.5892 72.8701C60.9192 79.5901 66.4292 77.3501 66.4292 77.3501C66.4292 77.3501 78.5692 72.8401 75.2492 63.0701C71.9292 53.3001 69.9592 52.1501 69.9592 52.1501C69.9592 52.1501 67.3092 49.9201 64.8492 51.6501C64.8492 51.6501 62.5592 47.8601 58.7292 51.5401C58.7292 51.5401 55.3092 49.5401 53.2292 53.4501L49.1492 47.6201C48.805 47.1245 48.2938 46.7695 47.7092 46.6201C47.1912 46.5236 46.6569 46.5652 46.1601 46.7407C45.6633 46.9163 45.2215 47.2196 44.8792 47.6201C41.6392 50.7701 51.5892 61.8701 51.5892 61.8701Z" fill="url(#paint0_linear_4146_653)"/>
<path d="M56.6492 58.1202C55.0759 56.909 53.8794 55.2755 53.1992 53.4102C53.9904 54.0039 54.6824 54.7195 55.2492 55.5302C55.8475 56.3156 56.3198 57.1894 56.6492 58.1202Z" fill="#ED987F"/>
<path d="M61.1292 55.5C60.5004 55.0116 59.9709 54.4074 59.5692 53.72C59.1376 53.0436 58.8421 52.2895 58.6992 51.5C59.9442 52.515 60.8022 53.9274 61.1292 55.5Z" fill="#ED987F"/>
<path d="M65.9904 54.0201C65.5779 53.7802 65.2463 53.4228 65.0379 52.9935C64.8295 52.5643 64.7537 52.0826 64.8204 51.6101C65.237 51.8318 65.5703 52.1827 65.7704 52.6101C65.9955 53.0436 66.0728 53.5387 65.9904 54.0201Z" fill="#ED987F"/>
<path d="M51.5898 61.8701C52.5157 62.6118 53.3395 63.4726 54.0398 64.4301C54.7706 65.3655 55.3726 66.3947 55.8298 67.4901C54.9092 66.7421 54.0891 65.8783 53.3898 64.9201C52.6581 63.9872 52.0529 62.9616 51.5898 61.8701Z" fill="#ED987F"/>
</g>
<defs>
<linearGradient id="paint0_linear_4146_653" x1="40.7723" y1="42.7239" x2="75.9419" y2="75.7888" gradientUnits="userSpaceOnUse">
<stop stop-color="#FEE2CC"/>
<stop offset="0.23" stop-color="#FDDED0"/>
<stop offset="0.39" stop-color="#FCD8D1"/>
<stop offset="0.66" stop-color="#FCD4D1"/>
<stop offset="0.74" stop-color="#FCCFC6"/>
<stop offset="1" stop-color="#FBC3AA"/>
</linearGradient>
</defs>
</svg>
