<svg width="85" height="85" viewBox="0 0 85 85" fill="none" xmlns="http://www.w3.org/2000/svg">
<mask id="mask0_4103_777" style="mask-type:luminance" maskUnits="userSpaceOnUse" x="0" y="0" width="85" height="85">
<path d="M42.37 84.74C65.7703 84.74 84.74 65.7703 84.74 42.37C84.74 18.9697 65.7703 0 42.37 0C18.9697 0 0 18.9697 0 42.37C0 65.7703 18.9697 84.74 42.37 84.74Z" fill="white"/>
</mask>
<g mask="url(#mask0_4103_777)">
<path d="M42.37 84.74C65.7703 84.74 84.74 65.7703 84.74 42.37C84.74 18.9697 65.7703 0 42.37 0C18.9697 0 0 18.9697 0 42.37C0 65.7703 18.9697 84.74 42.37 84.74Z" fill="#F37065"/>
<mask id="mask1_4103_777" style="mask-type:luminance" maskUnits="userSpaceOnUse" x="6" y="-17" width="81" height="50">
<path d="M16.3983 31.39C23.0583 32 30.1483 32.39 37.6083 32.61C47.9483 32.85 57.6083 32.55 66.4983 31.92L86.9883 -8.46999L18.8483 -16.99L6.98828 0.380009L16.3983 31.39Z" fill="white"/>
</mask>
<g mask="url(#mask1_4103_777)">
<path d="M64.7912 24.64C65.635 26.1053 66.0255 27.7878 65.9132 29.4749C65.8008 31.162 65.1908 32.7779 64.1602 34.1184C63.1296 35.4588 61.7247 36.4636 60.1231 37.0057C58.5215 37.5477 56.7952 37.6028 55.1623 37.1638C53.5294 36.7248 52.0634 35.8116 50.9495 34.5395C49.8356 33.2674 49.1239 31.6936 48.9044 30.0171C48.6849 28.3405 48.9674 26.6366 49.7162 25.1206C50.4649 23.6046 51.6464 22.3446 53.1112 21.5C55.0769 20.3697 57.4109 20.0654 59.6007 20.6541C61.7905 21.2428 63.6573 22.6764 64.7912 24.64Z" fill="#404040"/>
<path d="M49.93 30.0099C49.7404 28.827 49.8017 27.6175 50.11 26.4599C49.82 26.3899 49.53 26.3399 49.25 26.2999C48.6059 28.2659 48.7019 30.3996 49.52 32.2999C49.4861 31.5156 49.6261 30.7336 49.93 30.0099ZM52.75 31.0899C52.75 31.1799 52.83 31.3199 52.9 31.4999C53.0727 31.9567 53.2834 32.3983 53.53 32.8199C53.8325 33.3796 54.2243 33.8863 54.69 34.3199C55.8704 34.4378 57.0596 34.4378 58.24 34.3199C59.0342 33.4358 59.6308 32.3926 59.99 31.2599L60.05 31.0799C59.97 30.9399 59.89 30.8099 59.82 30.6699C59.47 30.0599 59.13 29.5399 58.82 29.0399L58.24 28.1399L57.93 28.0799C57.59 28.0799 57.25 27.9799 56.93 27.9599C56.1042 27.8669 55.2685 27.9177 54.46 28.1099C53.8079 29.0361 53.2422 30.0202 52.77 31.0499L52.75 31.0899ZM58.6 22.2499C57.3827 22.1345 56.1573 22.1345 54.94 22.2499L54.72 22.4799C54.57 22.6599 54.33 22.9399 54.08 23.2699C53.6041 23.8908 53.2357 24.5871 52.99 25.3299L53.28 25.8499L53.74 26.6299C53.98 27.0499 54.23 27.4699 54.46 27.8799C55.717 27.6231 57.013 27.6231 58.27 27.8799C58.73 27.1699 59.27 26.4699 59.78 25.7799C59.94 25.5799 60.1 25.3599 60.26 25.1499C60.1077 24.5137 59.8617 23.9037 59.53 23.3399C59.2925 22.9204 58.9768 22.5504 58.6 22.2499ZM54.48 34.4399C54.0274 33.997 53.6402 33.4919 53.33 32.9399C53.0047 32.3746 52.7367 31.7783 52.53 31.1599C51.6598 31.0209 50.8285 30.7006 50.09 30.2199C49.7874 31.0441 49.6779 31.9267 49.77 32.7999L49.98 33.1799C50.5312 34.1366 51.2611 34.9785 52.13 35.6599L52.41 35.7599C52.9049 35.9453 53.4176 36.0794 53.94 36.1599C53.932 35.5436 54.1212 34.9409 54.48 34.4399ZM52.74 25.1999C53.1975 24.0486 53.877 22.9986 54.74 22.1099C54.5444 21.7436 54.3869 21.3583 54.27 20.9599C53.8652 21.1138 53.4738 21.3011 53.1 21.5199C51.3314 22.537 49.9866 24.1551 49.31 26.0799C49.61 26.0799 49.91 26.1799 50.21 26.2499C50.9258 25.6488 51.809 25.2823 52.74 25.1999ZM63.4 26.6799C63.5857 27.8358 63.5857 29.0139 63.4 30.1699C63.9631 30.7912 64.383 31.5285 64.63 32.3299L65.02 32.0599L65.34 31.8399C66.0894 29.802 66.0286 27.5542 65.17 25.5599C64.9865 25.4514 64.8126 25.3277 64.65 25.1899C64.297 25.7351 63.8954 26.2471 63.45 26.7199L63.4 26.6799ZM58.79 22.1099C59.1466 22.4365 59.4443 22.8221 59.67 23.2499C60.0129 23.8294 60.2689 24.456 60.43 25.1099C61.4422 25.4486 62.4067 25.9157 63.3 26.4999C63.7783 26.0326 64.2103 25.5202 64.59 24.9699C64.51 24.6799 64.46 24.3799 64.4 24.0599C63.3722 22.575 61.9026 21.4518 60.2 20.8499C59.6717 21.1997 59.1968 21.6241 58.79 22.1099ZM59.62 36.4299C58.9775 36.9286 58.2277 37.271 57.43 37.4299C58.9095 37.4195 60.3607 37.0231 61.64 36.2799C61.9526 36.1031 62.2532 35.906 62.54 35.6899C61.6468 36.1842 60.6409 36.4391 59.62 36.4299ZM52.82 36.1399C53.6284 36.6498 54.5178 37.0184 55.45 37.2299C54.9412 37.0295 54.4658 36.753 54.04 36.4099C53.6263 36.355 53.2182 36.2647 52.82 36.1399ZM63.32 30.3599C62.3701 30.8664 61.3161 31.147 60.24 31.1799C59.8816 32.3924 59.2679 33.5142 58.44 34.4699C58.4659 34.5318 58.496 34.5919 58.53 34.6499C58.8601 35.1843 59.2173 35.7017 59.6 36.1999C60.7119 36.2056 61.8043 35.9083 62.76 35.3399H62.86C63.5716 34.5247 64.1275 33.5858 64.5 32.5699C64.3944 32.1392 64.2223 31.7276 63.99 31.3499C63.7963 31.0007 63.5721 30.6694 63.32 30.3599Z" fill="white"/>
<path d="M47.1506 35.3899C49.7795 35.3899 51.9106 33.2587 51.9106 30.6299C51.9106 28.001 49.7795 25.8699 47.1506 25.8699C44.5218 25.8699 42.3906 28.001 42.3906 30.6299C42.3906 33.2587 44.5218 35.3899 47.1506 35.3899Z" fill="url(#paint0_linear_4103_777)"/>
<path opacity="0.5" d="M51.8614 31.32C50.5604 32.2165 49.0213 32.704 47.4414 32.72C45.4414 32.72 43.7014 32.47 42.4414 31.2L42.5014 31.6C42.5014 31.6 43.3114 33.01 46.4214 33.24C48.3502 33.4154 50.2745 32.8585 51.8114 31.68L51.8614 31.32Z" fill="#F05455"/>
<path d="M44.5699 41.55L66.9199 17.55L69.2099 19.55L48.9899 45.31C48.8238 45.5206 48.617 45.6956 48.3819 45.8247C48.1468 45.9537 47.8882 46.0342 47.6214 46.0612C47.3545 46.0883 47.085 46.0614 46.8288 45.9822C46.5725 45.9029 46.3349 45.773 46.1299 45.6L44.7399 44.42C44.5364 44.2453 44.3701 44.0314 44.251 43.791C44.1319 43.5507 44.0623 43.2889 44.0465 43.0211C44.0306 42.7533 44.0688 42.4851 44.1587 42.2324C44.2486 41.9797 44.3885 41.7476 44.5699 41.55Z" fill="url(#paint1_linear_4103_777)"/>
<path d="M44.5699 41.55L57.2599 27.89C57.2664 27.8817 57.2748 27.8749 57.2843 27.8703C57.2938 27.8657 57.3043 27.8633 57.3149 27.8633C57.3255 27.8633 57.3359 27.8657 57.3454 27.8703C57.355 27.8749 57.3633 27.8817 57.3699 27.89C57.5668 28.5431 57.9608 29.1194 58.4978 29.54C59.0348 29.9607 59.6886 30.2051 60.3699 30.24H60.5999C60.6081 30.2455 60.6149 30.2529 60.6196 30.2616C60.6243 30.2703 60.6267 30.2801 60.6267 30.29C60.6267 30.2999 60.6243 30.3096 60.6196 30.3184C60.6149 30.3271 60.6081 30.3345 60.5999 30.34L48.9899 45.31C48.8238 45.5205 48.617 45.6956 48.3819 45.8246C48.1468 45.9537 47.8882 46.0341 47.6214 46.0612C47.3545 46.0882 47.085 46.0613 46.8288 45.9821C46.5725 45.9029 46.3349 45.7729 46.1299 45.6L44.7399 44.42C44.5364 44.2452 44.3701 44.0313 44.251 43.791C44.1319 43.5506 44.0623 43.2888 44.0465 43.021C44.0306 42.7533 44.0688 42.485 44.1587 42.2323C44.2486 41.9796 44.3885 41.7475 44.5699 41.55Z" fill="#BC7329"/>
<path d="M69.5471 19.3994C69.9918 18.894 69.721 17.9288 68.9423 17.2436C68.1636 16.5583 67.1718 16.4124 66.7271 16.9178C66.2824 17.4231 66.5532 18.3883 67.3319 19.0736C68.1106 19.7588 69.1024 19.9047 69.5471 19.3994Z" fill="#E18B28"/>
<path d="M66.8398 16.9398L67.3698 16.3398L70.2198 18.7698L69.6198 19.4598L66.8398 16.9398Z" fill="#E18B28"/>
<path d="M70.2137 18.7903C70.6591 18.2848 70.3886 17.3185 69.6095 16.6322C68.8305 15.9458 67.8378 15.7992 67.3924 16.3048C66.947 16.8104 67.2175 17.7766 67.9966 18.463C68.7757 19.1494 69.7683 19.2959 70.2137 18.7903Z" fill="#BC7329"/>
<path d="M38.8711 23.9199C38.8711 23.9199 40.1011 24.1299 40.1211 25.2099L38.1211 26.1199L38.8711 23.9199Z" fill="url(#paint2_linear_4103_777)"/>
<path d="M18.2695 25.1599C18.3416 24.8809 18.4789 24.623 18.6702 24.4074C18.8614 24.1918 19.1011 24.0248 19.3695 23.9199L20.4695 25.9199L18.2695 25.1599Z" fill="url(#paint3_linear_4103_777)"/>
<path d="M19.2606 23.9699L27.7506 20.4699C28.314 20.2545 28.9371 20.2545 29.5006 20.4699L38.9906 23.9599C39.0769 23.9953 39.1508 24.0555 39.2028 24.133C39.2548 24.2104 39.2826 24.3016 39.2826 24.3949C39.2826 24.4882 39.2548 24.5794 39.2028 24.6569C39.1508 24.7344 39.0769 24.7946 38.9906 24.8299L28.6206 28.7199L19.2606 24.8199C19.1765 24.7851 19.1047 24.7262 19.0541 24.6505C19.0035 24.5749 18.9766 24.4859 18.9766 24.3949C18.9766 24.3039 19.0035 24.215 19.0541 24.1393C19.1047 24.0637 19.1765 24.0047 19.2606 23.9699Z" fill="url(#paint4_linear_4103_777)"/>
<path d="M28.6211 28.72L39.2111 24.72C39.3154 24.6794 39.4281 24.6649 39.5393 24.6775C39.6505 24.6902 39.7569 24.7298 39.8494 24.7927C39.942 24.8557 40.0178 24.9403 40.0703 25.0391C40.1229 25.1379 40.1506 25.2481 40.1511 25.36V37.36C40.1652 37.6451 40.0924 37.9277 39.9425 38.1705C39.7925 38.4133 39.5723 38.6049 39.3111 38.72L30.4711 42.62C30.2711 42.7105 30.0515 42.7493 29.8326 42.7328C29.6137 42.7162 29.4024 42.645 29.2182 42.5255C29.034 42.406 28.8828 42.2422 28.7785 42.049C28.6741 41.8558 28.62 41.6395 28.6211 41.42V28.72Z" fill="url(#paint5_linear_4103_777)"/>
<path d="M28.6185 28.7201L19.1685 24.7801C19.0615 24.7262 18.9423 24.7011 18.8227 24.7072C18.703 24.7134 18.5871 24.7506 18.4861 24.8151C18.3852 24.8797 18.3029 24.9695 18.2472 25.0755C18.1915 25.1816 18.1644 25.3003 18.1685 25.4201V37.4201C18.1609 37.6936 18.2348 37.9633 18.3808 38.1948C18.5268 38.4263 18.7383 38.6091 18.9885 38.7201L27.4085 42.8501C27.5356 42.9134 27.6768 42.943 27.8186 42.9361C27.9604 42.9293 28.098 42.8862 28.2184 42.811C28.3388 42.7357 28.4379 42.6308 28.5062 42.5064C28.5745 42.3819 28.6097 42.242 28.6085 42.1001L28.6185 28.7201Z" fill="url(#paint6_linear_4103_777)"/>
<path d="M32.281 23.8399L31.631 24.1699L30.951 24.4799L30.281 24.7899C30.0793 24.8797 29.8824 24.9799 29.691 25.0899C29.6325 25.1225 29.5786 25.1629 29.531 25.2099C29.531 25.2099 29.531 25.2899 29.531 25.3299L29.701 25.4199L29.921 25.5299L30.151 25.6399L30.331 25.7399C30.411 25.7866 30.441 25.8466 30.421 25.9199C30.393 26.0036 30.3449 26.0791 30.281 26.1399C30.2082 26.2208 30.1278 26.2944 30.041 26.3599L29.781 26.5299H29.661C29.6082 26.5404 29.5538 26.5404 29.501 26.5299C29.4246 26.5393 29.3474 26.5393 29.271 26.5299C29.1693 26.5102 29.069 26.4834 28.971 26.4499C28.8399 26.4076 28.7128 26.3541 28.591 26.2899C28.4469 26.221 28.3067 26.1442 28.171 26.0599L27.721 25.7999L27.271 25.5099L26.861 25.2599L26.461 25.0099L26.131 24.7799C26.0469 24.7112 25.9667 24.6378 25.891 24.5599C25.8337 24.4958 25.7896 24.421 25.761 24.3399C25.7411 24.285 25.7411 24.2249 25.761 24.1699C25.7813 24.1177 25.8119 24.0701 25.851 24.0299C25.9021 23.9853 25.9594 23.9483 26.021 23.9199C26.1193 23.8601 26.2231 23.8098 26.331 23.7699C26.4428 23.7215 26.5605 23.6879 26.681 23.6699C26.7972 23.655 26.9148 23.655 27.031 23.6699C27.1452 23.6858 27.2545 23.7268 27.351 23.7899L27.711 24.0399L28.021 24.2499C28.1157 24.3111 28.2306 24.3326 28.341 24.3099C28.4745 24.2873 28.6053 24.2504 28.731 24.1999C28.856 24.1586 28.9765 24.105 29.091 24.0399L29.311 23.9199L29.491 23.8299L29.711 23.6899C29.7735 23.6508 29.8306 23.6038 29.881 23.5499C29.881 23.5499 29.881 23.4799 29.881 23.4499C29.812 23.4334 29.74 23.4334 29.671 23.4499H28.991C28.9106 23.4487 28.8317 23.4281 28.761 23.3899C28.725 23.3703 28.6949 23.3414 28.6738 23.3063C28.6527 23.2711 28.6413 23.2309 28.641 23.1899C28.6342 23.0939 28.6513 22.9977 28.691 22.9099C28.7269 22.8107 28.7812 22.7191 28.851 22.6399C28.9183 22.5566 28.9995 22.4856 29.091 22.4299C29.2026 22.3765 29.3201 22.3363 29.441 22.3099C29.5839 22.2945 29.7281 22.2945 29.871 22.3099C30.0175 22.3005 30.1645 22.3005 30.311 22.3099C30.4629 22.3293 30.6133 22.3594 30.761 22.3999L31.151 22.5099C31.2594 22.5375 31.3662 22.5709 31.471 22.6099C31.641 22.6799 31.821 22.7399 32.011 22.7999C32.1726 22.8502 32.3272 22.9208 32.471 23.0099C32.5713 23.068 32.6515 23.1552 32.701 23.2599C32.7156 23.293 32.7231 23.3288 32.7231 23.3649C32.7231 23.4011 32.7156 23.4369 32.701 23.4699C32.6525 23.5372 32.5953 23.5977 32.531 23.6499L32.281 23.8399Z" fill="#F05455" stroke="#DB4C45" stroke-width="0.27" stroke-miterlimit="10"/>
<path d="M22.9908 30.9299C23.276 30.9294 23.5606 30.9562 23.8408 31.0099C24.087 31.0623 24.3211 31.1607 24.5308 31.2999C24.7203 31.4263 24.875 31.5982 24.9808 31.7999C25.0965 32.0325 25.1515 32.2905 25.1408 32.5499C25.1482 32.7742 25.1143 32.9979 25.0408 33.2099C24.9829 33.3718 24.8947 33.5212 24.7808 33.6499C24.6869 33.7647 24.5714 33.8598 24.4408 33.9299C24.3349 34.0002 24.2247 34.0637 24.1108 34.1199L23.8508 34.2799C23.8188 34.2983 23.792 34.3244 23.7728 34.3559C23.7536 34.3873 23.7425 34.4231 23.7408 34.4599C23.7388 34.4903 23.7441 34.5206 23.7563 34.5485C23.7685 34.5763 23.7871 34.6008 23.8108 34.6199C23.8565 34.6742 23.9205 34.7097 23.9908 34.7199C24.0935 34.7351 24.198 34.7351 24.3008 34.7199L24.5908 34.6399L24.9008 34.5499C25.0005 34.5401 25.101 34.5401 25.2008 34.5499C25.3112 34.5467 25.4186 34.5861 25.5008 34.6599C25.5857 34.7372 25.6568 34.8285 25.7108 34.9299C25.7702 35.0329 25.814 35.1441 25.8408 35.2599C25.8542 35.3662 25.8542 35.4737 25.8408 35.5799C25.843 35.6864 25.8225 35.792 25.7808 35.8899C25.7606 35.9394 25.7308 35.9844 25.693 36.0222C25.6552 36.06 25.6103 36.0898 25.5608 36.1099C25.3248 36.2266 25.0715 36.3042 24.8108 36.3399C24.5493 36.3794 24.2852 36.3995 24.0208 36.3999H23.5608C23.3708 36.3999 23.1708 36.3999 22.9608 36.3999C22.7454 36.3813 22.5316 36.3479 22.3208 36.2999C22.1162 36.2592 21.9179 36.192 21.7308 36.0999C21.5681 36.0309 21.4217 35.9288 21.3008 35.7999C21.1925 35.6716 21.1355 35.5078 21.1408 35.3399C21.1479 35.2003 21.2006 35.0668 21.2908 34.9599C21.3983 34.8188 21.5226 34.6912 21.6608 34.5799C21.8161 34.4463 21.9797 34.3228 22.1508 34.2099L22.6308 33.8799C22.7808 33.7699 22.9108 33.6799 23.0108 33.5899C23.1108 33.4999 23.1608 33.4299 23.1608 33.3599C23.1608 33.0299 23.0208 32.8699 22.7508 32.8699C22.6751 32.8736 22.6037 32.9058 22.5508 32.9599L22.3708 33.1599L22.1808 33.3599C22.1571 33.3873 22.128 33.4095 22.0953 33.425C22.0625 33.4405 22.0269 33.449 21.9908 33.4499C21.8478 33.4525 21.7065 33.418 21.5808 33.3499C21.4608 33.2853 21.3553 33.1968 21.2708 33.0899C21.1796 32.9762 21.1086 32.8476 21.0608 32.7099C21.0045 32.5633 20.9773 32.407 20.9808 32.2499C20.98 32.1355 21.0149 32.0236 21.0808 31.9299C21.1557 31.8198 21.2507 31.7249 21.3608 31.6499C21.481 31.5631 21.6081 31.4862 21.7408 31.4199L22.1708 31.2499C22.3119 31.2051 22.4554 31.1684 22.6008 31.1399L22.9908 30.9299Z" fill="#92B33D" stroke="#84A63E" stroke-width="0.27" stroke-miterlimit="10"/>
<path d="M34.3798 30.97C34.6043 30.9708 34.8272 31.0079 35.0398 31.08C35.2394 31.1448 35.4282 31.2392 35.5998 31.36C35.7518 31.4747 35.8807 31.6173 35.9798 31.78C36.0714 31.9343 36.1197 32.1105 36.1198 32.29C36.1256 32.4194 36.0944 32.5477 36.0298 32.66C35.9738 32.7513 35.9066 32.8353 35.8298 32.91L35.6298 33.07C35.5698 33.11 35.5398 33.15 35.5398 33.19C35.5398 33.19 35.5398 33.27 35.6698 33.31L35.9498 33.51C36.0637 33.615 36.1614 33.7363 36.2398 33.87C36.3307 34.0495 36.3753 34.2488 36.3698 34.45C36.3833 34.6706 36.3483 34.8916 36.2671 35.0972C36.1858 35.3028 36.0605 35.4881 35.8998 35.64C35.5354 35.9398 35.0707 36.0899 34.5998 36.06C34.3375 36.0641 34.0757 36.0373 33.8198 35.98C33.5845 35.9383 33.358 35.8572 33.1498 35.74C32.9639 35.6453 32.8029 35.5083 32.6798 35.34C32.5581 35.1791 32.4946 34.9816 32.4998 34.78C32.5005 34.6867 32.5209 34.5947 32.5598 34.51C32.5952 34.4223 32.6499 34.3437 32.7198 34.28C32.7887 34.2091 32.8701 34.1515 32.9598 34.11C33.047 34.0669 33.1425 34.043 33.2398 34.04C33.3404 34.0414 33.4368 34.0806 33.5098 34.15L33.7598 34.37C33.8383 34.4518 33.9218 34.5286 34.0098 34.6C34.0952 34.667 34.2012 34.7023 34.3098 34.7C34.3728 34.7096 34.4368 34.7096 34.4998 34.7C34.5684 34.688 34.6333 34.6607 34.6898 34.62C34.7431 34.5885 34.7905 34.5478 34.8298 34.5C34.8504 34.4417 34.8504 34.3782 34.8298 34.32C34.832 34.2847 34.8249 34.2494 34.8091 34.2178C34.7933 34.1862 34.7694 34.1593 34.7398 34.14C34.662 34.0964 34.5775 34.066 34.4898 34.05H34.1698C34.0613 34.0415 33.954 34.0214 33.8498 33.99C33.7596 33.9663 33.6747 33.9256 33.5998 33.87C33.5643 33.8416 33.5365 33.8048 33.519 33.7628C33.5015 33.7208 33.4949 33.6752 33.4998 33.63C33.4987 33.5308 33.5265 33.4335 33.5798 33.35C33.6412 33.274 33.7157 33.2097 33.7998 33.16C33.8855 33.1054 33.9758 33.0585 34.0698 33.02L34.3398 32.91L34.5498 32.81C34.5727 32.8019 34.5926 32.787 34.6069 32.7674C34.6212 32.7478 34.6291 32.7242 34.6298 32.7C34.6303 32.6741 34.6242 32.6485 34.6119 32.6258C34.5996 32.603 34.5817 32.5838 34.5598 32.57C34.5173 32.5361 34.4641 32.5184 34.4098 32.52C34.3241 32.5247 34.2412 32.5523 34.1698 32.6L33.8498 32.78C33.7373 32.8478 33.6204 32.9079 33.4998 32.96C33.4084 33.0121 33.305 33.0396 33.1998 33.04C33.0966 33.0378 32.9961 33.0066 32.9098 32.95C32.8183 32.8902 32.7372 32.8159 32.6698 32.73C32.6 32.6416 32.5428 32.544 32.4998 32.44C32.4553 32.3497 32.4314 32.2506 32.4298 32.15C32.4276 32.0322 32.4626 31.9167 32.5298 31.82C32.6004 31.7158 32.6883 31.6244 32.7898 31.55C32.9085 31.4664 33.0359 31.396 33.1698 31.34C33.3003 31.2721 33.4378 31.2184 33.5798 31.18L33.9898 31.09C34.1166 31.0404 34.247 31.0003 34.3798 30.97Z" fill="#D88EAA" stroke="#C37391" stroke-width="0.27" stroke-miterlimit="10"/>
<path d="M59.1618 31.91C59.1618 31.91 56.3418 31.1 56.0318 35.39C56.0119 37.0529 56.5467 38.675 57.5518 40C58.8485 37.5119 59.4071 34.705 59.1618 31.91Z" fill="white"/>
<path d="M58.5508 36.06C59.16 36.7562 59.9285 37.2949 60.7908 37.63C61.6428 37.9899 62.5686 38.1407 63.4908 38.07C64.6925 36.9177 65.6306 35.5191 66.2408 33.97C67.6108 30.59 67.3608 27.14 65.8108 25.28C63.4108 25.54 60.8108 27.84 59.4608 31.22C58.8192 32.7575 58.5156 34.415 58.5708 36.08L58.5508 36.06Z" fill="white"/>
<path d="M64.5716 32.9299C64.4456 33.2464 64.2289 33.5186 63.9488 33.7124C63.6686 33.9063 63.3375 34.0131 62.9969 34.0195C62.6563 34.0259 62.3214 33.9316 62.0342 33.7484C61.7469 33.5653 61.5202 33.3014 61.3823 32.9898C61.2445 32.6783 61.2017 32.333 61.2593 31.9973C61.3169 31.6615 61.4724 31.3502 61.7062 31.1025C61.94 30.8547 62.2417 30.6815 62.5736 30.6045C62.9054 30.5276 63.2526 30.5503 63.5716 30.6699C63.7863 30.7518 63.9826 30.8754 64.1493 31.0336C64.3159 31.1918 64.4496 31.3814 64.5425 31.5915C64.6355 31.8016 64.686 32.0281 64.6909 32.2578C64.6959 32.4875 64.6554 32.7159 64.5716 32.9299Z" fill="#CFCFCE"/>
<path opacity="0.15" d="M64.4882 32.8899C64.3626 33.1898 64.1511 33.4459 63.8804 33.626C63.6097 33.8061 63.2918 33.9022 62.9667 33.9023C62.6415 33.9023 62.3236 33.8063 62.0528 33.6263C61.7821 33.4463 61.5705 33.1902 61.4448 32.8904C61.319 32.5905 61.2847 32.2602 61.3461 31.9409C61.4074 31.6216 61.5618 31.3275 61.7897 31.0957C62.0176 30.8638 62.309 30.7044 62.6272 30.6375C62.9454 30.5707 63.2763 30.5994 63.5782 30.7199C63.7816 30.8011 63.9669 30.922 64.1231 31.0756C64.2793 31.2291 64.4033 31.4122 64.488 31.6142C64.5727 31.8162 64.6164 32.033 64.6164 32.252C64.6164 32.4711 64.5729 32.6879 64.4882 32.8899Z" fill="#010101"/>
<path opacity="0.2" d="M64.1092 32.72C64.0175 32.9479 63.8603 33.1434 63.6574 33.2818C63.4545 33.4202 63.215 33.4952 62.9694 33.4973C62.7238 33.4994 62.4832 33.4285 62.2779 33.2937C62.0726 33.1588 61.912 32.966 61.8165 32.7398C61.7209 32.5135 61.6947 32.264 61.7411 32.0228C61.7876 31.7817 61.9046 31.5597 62.0773 31.3851C62.2501 31.2106 62.4708 31.0912 62.7115 31.0422C62.9521 30.9933 63.2019 31.0169 63.4292 31.11C63.7304 31.2363 63.9702 31.4755 64.0973 31.7764C64.2244 32.0773 64.2287 32.416 64.1092 32.72Z" fill="#010101"/>
<path d="M63.9913 32.72C63.9516 32.8699 63.8803 33.0096 63.7823 33.1298C63.6843 33.25 63.5618 33.3478 63.4229 33.4169C63.284 33.4859 63.132 33.5245 62.977 33.5301C62.822 33.5357 62.6677 33.5082 62.5242 33.4494C62.3807 33.3905 62.2514 33.3017 62.1449 33.189C62.0385 33.0762 61.9573 32.942 61.9069 32.7953C61.8565 32.6487 61.8379 32.4929 61.8525 32.3385C61.867 32.1841 61.9144 32.0346 61.9913 31.9C62.1226 31.6703 62.333 31.4961 62.5832 31.4101C62.8334 31.324 63.1063 31.3319 63.3512 31.4323C63.596 31.5327 63.7959 31.7187 63.9137 31.9556C64.0315 32.1925 64.0591 32.4642 63.9913 32.72Z" fill="#83C8E6"/>
<path d="M67.1017 28.77C67.037 27.4933 66.5873 26.2662 65.8117 25.25C64.5806 25.4352 63.4321 25.9816 62.5117 26.82C62.5117 26.82 63.7217 29 67.1017 28.77Z" fill="url(#paint7_linear_4103_777)"/>
<path d="M66.5794 23.7201C66.5875 23.7025 66.5918 23.6833 66.5921 23.664C66.5924 23.6446 66.5886 23.6254 66.5811 23.6075C66.5736 23.5897 66.5625 23.5735 66.5484 23.5602C66.5343 23.5469 66.5176 23.5366 66.4994 23.5301C66.4635 23.5166 66.4238 23.5174 66.3885 23.5323C66.3531 23.5471 66.3249 23.575 66.3094 23.6101L65.6494 25.2501C65.6413 25.2677 65.637 25.2868 65.6367 25.3062C65.6364 25.3256 65.6402 25.3448 65.6477 25.3626C65.6552 25.3805 65.6664 25.3966 65.6804 25.4099C65.6945 25.4233 65.7112 25.4335 65.7294 25.4401C65.747 25.4481 65.7661 25.4524 65.7855 25.4527C65.8049 25.453 65.8241 25.4493 65.842 25.4418C65.8598 25.4343 65.8759 25.4231 65.8893 25.4091C65.9026 25.395 65.9129 25.3783 65.9194 25.3601L66.5794 23.7201Z" fill="white"/>
<path d="M66.9904 23.72C66.9651 23.7863 66.9267 23.847 66.8775 23.8982C66.8283 23.9495 66.7693 23.9903 66.704 24.0183C66.6387 24.0463 66.5684 24.0608 66.4974 24.0611C66.4263 24.0614 66.356 24.0474 66.2904 24.02C66.1599 23.9647 66.0563 23.8603 66.0021 23.7294C65.9478 23.5984 65.9472 23.4513 66.0004 23.32C66.0267 23.2543 66.0656 23.1945 66.115 23.1438C66.1644 23.0932 66.2233 23.0528 66.2883 23.025C66.3533 22.9971 66.4232 22.9823 66.4939 22.9815C66.5646 22.9806 66.6348 22.9937 66.7004 23.02C66.7661 23.0462 66.8259 23.0852 66.8765 23.1346C66.9272 23.184 66.9676 23.2428 66.9954 23.3078C67.0233 23.3728 67.038 23.4427 67.0389 23.5134C67.0398 23.5841 67.0267 23.6543 67.0004 23.72H66.9904Z" fill="url(#paint8_linear_4103_777)"/>
<path opacity="0.1" d="M61.8789 32.1399C61.8685 32.2229 61.8685 32.3069 61.8789 32.3899L63.7989 31.5699C63.7461 31.509 63.6856 31.4552 63.6189 31.4099L61.8789 32.1399Z" fill="white"/>
<path opacity="0.1" d="M63.3887 31.27C63.1206 31.1639 62.8216 31.1674 62.5561 31.2796C62.2905 31.3918 62.0796 31.6038 61.9688 31.87L63.3887 31.27Z" fill="white"/>
<path opacity="0.1" d="M63.9889 32.5C64.0441 32.2449 64.005 31.9785 63.8789 31.75L61.8789 32.6C61.9623 32.845 62.1239 33.0559 62.3389 33.2L63.9889 32.5Z" fill="white"/>
<path d="M26.5695 26.86L19.1995 25.48L15.2695 27.59L18.6195 30.85L24.8595 31.23L26.5695 26.86Z" fill="url(#paint9_linear_4103_777)"/>
<path d="M24.2898 29.17L14.3398 27.72C14.3398 27.72 16.8798 31.1 16.4798 34.02L25.3898 35.25L24.2898 29.17Z" fill="#8584BC"/>
<path d="M24.1998 28.71L15.9898 27.46L14.3398 27.76L24.2898 29.17L24.1998 28.71Z" fill="#6B65AD"/>
<path d="M26.6686 27.09L19.1586 25.81L19.0586 25.29L27.1986 26.74L26.6686 27.09Z" fill="#6B65AD"/>
<path d="M19.0598 25.29L14.3398 27.76L15.9898 27.46L19.1598 25.81L19.0598 25.29Z" fill="#6B65AD"/>
<path d="M35.5302 35.1701L34.1102 26.3201L29.1602 28.9501L30.7702 37.8901L35.5302 35.1701Z" fill="white"/>
<path opacity="0.2" d="M34.5494 31.2699L33.8794 27.1099L29.6094 29.3799L30.4594 33.6099L34.5494 31.2699Z" fill="#010101"/>
<path d="M34.4117 31.22L33.7817 27.3L29.7617 29.43L30.5517 33.43L34.4117 31.22Z" fill="#CBE6F8"/>
<path d="M34.1094 26.3199L29.0294 25.4199L24.1094 28.1899L29.1594 28.9499L34.1094 26.3199Z" fill="#D3D3D3"/>
<path d="M24.1094 28.1899L25.6894 36.9399L30.7694 37.8899L29.1594 28.9499L24.1094 28.1899Z" fill="#D3D3D3"/>
<path opacity="0.2" d="M29.5992 33.7499L25.3992 32.9699L24.6992 29.1199L28.8592 29.6399L29.5992 33.7499Z" fill="#010101"/>
<path d="M29.4598 33.62L25.4998 32.88L24.8398 29.25L28.7598 29.74L29.4598 33.62Z" fill="#CBE6F8"/>
<path opacity="0.1" d="M27.7188 29.6099L28.7188 29.7399L28.8888 30.6699L27.7188 29.6099Z" fill="white"/>
<path d="M38.6875 23.5537L36.8359 22.6506L26.6307 43.5746L28.4822 44.4776L38.6875 23.5537Z" fill="url(#paint10_linear_4103_777)"/>
<path d="M36.8281 22.6401L38.1781 21.5601L38.8081 21.8201L38.6881 23.5501L36.8281 22.6401Z" fill="url(#paint11_linear_4103_777)"/>
<mask id="mask2_4103_777" style="mask-type:luminance" maskUnits="userSpaceOnUse" x="26" y="22" width="13" height="23">
<path d="M38.6875 23.5537L36.8359 22.6506L26.6307 43.5746L28.4822 44.4776L38.6875 23.5537Z" fill="white"/>
</mask>
<g mask="url(#mask2_4103_777)">
<path d="M35.2869 25.5568L33.8008 28.6038L35.868 29.612L37.3541 26.5651L35.2869 25.5568Z" fill="url(#paint12_linear_4103_777)"/>
<path d="M36.6914 23.4084L37.9497 24.0222L37.5113 24.921C37.43 25.0878 37.2856 25.2155 37.1101 25.276C36.9346 25.3364 36.7422 25.3246 36.5753 25.2433C36.4085 25.1619 36.2808 25.0175 36.2203 24.842C36.1599 24.6665 36.1717 24.4741 36.253 24.3072L36.6914 23.4084Z" fill="#A16949"/>
<path d="M37.9341 24.02L36.6758 23.4062L36.4566 23.8556L37.7149 24.4694L37.9341 24.02Z" fill="#8D5E3F"/>
<path d="M29.6015 38.7198C29.5835 38.6356 29.5971 38.5477 29.6399 38.4729C29.6826 38.3981 29.7514 38.3417 29.8331 38.3145C29.9148 38.2873 30.0036 38.2911 30.0827 38.3253C30.1617 38.3595 30.2254 38.4216 30.2615 38.4998C30.2821 38.5445 30.2931 38.593 30.2937 38.6423C30.2943 38.6915 30.2845 38.7403 30.265 38.7855C30.2455 38.8307 30.2166 38.8712 30.1803 38.9045C30.144 38.9378 30.1011 38.963 30.0544 38.9786C30.0077 38.9941 29.9583 38.9997 29.9093 38.9948C29.8603 38.99 29.8129 38.9749 29.7701 38.9504C29.7274 38.926 29.6903 38.8928 29.6612 38.8531C29.6322 38.8134 29.6118 38.7679 29.6015 38.7198ZM30.8515 37.3598C30.8964 37.3474 30.9382 37.3258 30.9744 37.2966C31.0106 37.2673 31.0404 37.2309 31.0619 37.1897C31.0835 37.1484 31.0964 37.1032 31.0997 37.0568C31.1031 37.0103 31.0969 36.9637 31.0815 36.9198C31.0523 36.831 30.9891 36.7573 30.9056 36.7151C30.8221 36.6729 30.7254 36.6656 30.6365 36.6948C30.5477 36.724 30.474 36.7872 30.4318 36.8707C30.3896 36.9542 30.3823 37.0509 30.4115 37.1398C30.4252 37.1839 30.4474 37.2248 30.477 37.2603C30.5065 37.2957 30.5428 37.3249 30.5837 37.3463C30.6246 37.3677 30.6693 37.3808 30.7152 37.3848C30.7612 37.3888 30.8075 37.3837 30.8515 37.3698V37.3598ZM31.5515 35.9298C31.5956 35.9161 31.6365 35.8939 31.672 35.8643C31.7074 35.8348 31.7366 35.7985 31.758 35.7576C31.7794 35.7167 31.7925 35.672 31.7965 35.6261C31.8005 35.5801 31.7954 35.5338 31.7815 35.4898C31.7517 35.4023 31.6894 35.3296 31.6075 35.2868C31.5256 35.244 31.4303 35.2343 31.3415 35.2598C31.2527 35.2876 31.1785 35.3496 31.1354 35.4322C31.0922 35.5147 31.0837 35.611 31.1115 35.6998C31.1393 35.7886 31.2014 35.8628 31.2839 35.9059C31.3664 35.9491 31.4627 35.9576 31.5515 35.9298ZM32.5515 33.9798C32.6387 33.9501 32.7107 33.8873 32.7518 33.805C32.793 33.7226 32.8001 33.6273 32.7715 33.5398C32.7612 33.4917 32.7409 33.4462 32.7118 33.4065C32.6827 33.3668 32.6456 33.3336 32.6029 33.3092C32.5601 33.2847 32.5127 33.2696 32.4637 33.2648C32.4147 33.2599 32.3653 33.2654 32.3186 33.281C32.2719 33.2966 32.229 33.3218 32.1927 33.3551C32.1564 33.3884 32.1276 33.4289 32.108 33.4741C32.0885 33.5193 32.0787 33.5681 32.0793 33.6173C32.0799 33.6666 32.0909 33.7151 32.1115 33.7598C32.137 33.8458 32.1955 33.9182 32.2741 33.9613C32.3528 34.0044 32.4453 34.0146 32.5315 33.9898L32.5515 33.9798ZM33.3515 32.4198C33.3996 32.4095 33.4451 32.3892 33.4848 32.3601C33.5245 32.331 33.5577 32.2939 33.5821 32.2512C33.6066 32.2084 33.6217 32.161 33.6265 32.112C33.6314 32.063 33.6259 32.0136 33.6103 31.9669C33.5947 31.9202 33.5695 31.8773 33.5362 31.841C33.5029 31.8047 33.4624 31.7759 33.4172 31.7563C33.372 31.7368 33.3232 31.727 33.274 31.7276C33.2247 31.7282 33.1762 31.7392 33.1315 31.7598C33.0533 31.7959 32.9912 31.8596 32.957 31.9386C32.9228 32.0177 32.919 32.1065 32.9462 32.1882C32.9734 32.2699 33.0298 32.3387 33.1046 32.3814C33.1794 32.4242 33.2673 32.4378 33.3515 32.4198ZM34.0915 30.9798C34.1574 30.9589 34.2157 30.919 34.2589 30.8651C34.3021 30.8111 34.3284 30.7456 34.3345 30.6767C34.3405 30.6078 34.326 30.5387 34.2928 30.4781C34.2596 30.4174 34.2092 30.368 34.1479 30.336C34.0867 30.3039 34.0173 30.2908 33.9486 30.2981C33.8798 30.3055 33.8148 30.333 33.7617 30.3773C33.7086 30.4216 33.6698 30.4806 33.6502 30.5469C33.6306 30.6132 33.631 30.6838 33.6515 30.7498C33.6772 30.8362 33.7351 30.9093 33.8134 30.954C33.8916 30.9987 33.9841 31.0116 34.0715 30.9898L34.0915 30.9798Z" fill="url(#paint13_linear_4103_777)"/>
</g>
<path d="M42.5403 36.1299C45.1471 36.1299 47.2603 34.0167 47.2603 31.4099C47.2603 28.8032 45.1471 26.6899 42.5403 26.6899C39.9335 26.6899 37.8203 28.8032 37.8203 31.4099C37.8203 34.0167 39.9335 36.1299 42.5403 36.1299Z" fill="url(#paint14_radial_4103_777)"/>
<mask id="mask3_4103_777" style="mask-type:luminance" maskUnits="userSpaceOnUse" x="37" y="26" width="11" height="11">
<path d="M42.5403 36.1299C45.1471 36.1299 47.2603 34.0167 47.2603 31.4099C47.2603 28.8032 45.1471 26.6899 42.5403 26.6899C39.9335 26.6899 37.8203 28.8032 37.8203 31.4099C37.8203 34.0167 39.9335 36.1299 42.5403 36.1299Z" fill="white"/>
</mask>
<g mask="url(#mask3_4103_777)">
<g opacity="0.5">
<path d="M37.7695 28.78C38.4662 29.1732 39.2179 29.4597 39.9995 29.63C40.7759 29.8097 41.5767 29.8604 42.3695 29.78C43.163 29.7221 43.9408 29.5293 44.6695 29.21C45.4026 28.8873 46.0942 28.4777 46.7295 27.99C46.1211 28.4987 45.4487 28.9256 44.7295 29.26C43.9955 29.5909 43.2114 29.7971 42.4095 29.87C40.7868 30.0031 39.1633 29.6217 37.7695 28.78Z" fill="white"/>
<path d="M37.9883 29.72C38.0744 29.4739 38.0744 29.206 37.9883 28.96V28.88C38.1223 28.8671 38.251 28.8211 38.3627 28.746C38.4745 28.6709 38.5657 28.5692 38.6283 28.45C38.5917 28.5966 38.5104 28.7283 38.3958 28.8268C38.2812 28.9253 38.1388 28.9858 37.9883 29V28.91C38.0448 29.0375 38.074 29.1755 38.074 29.315C38.074 29.4545 38.0448 29.5924 37.9883 29.72Z" fill="white"/>
<path d="M38.7305 30.02C38.7305 29.76 38.8005 29.48 38.7305 29.29H38.7905C39.028 29.1753 39.2136 28.9753 39.3105 28.73C39.3157 28.8012 39.306 28.8727 39.2819 28.9398C39.2578 29.007 39.2198 29.0684 39.1705 29.12C39.0785 29.2261 38.9705 29.3172 38.8505 29.39V29.31C38.8891 29.4439 38.8891 29.586 38.8505 29.72C38.8235 29.8247 38.7832 29.9255 38.7305 30.02Z" fill="white"/>
<path d="M39.4598 30.26C39.47 30.011 39.4291 29.7626 39.3398 29.53V29.48H39.3898C39.4913 29.4215 39.5853 29.351 39.6698 29.27C39.7602 29.1958 39.8235 29.0939 39.8498 28.98C39.8605 29.0422 39.8551 29.1061 39.8341 29.1656C39.8131 29.2251 39.7772 29.2782 39.7298 29.32C39.6499 29.4166 39.5594 29.5038 39.4598 29.58V29.49C39.5238 29.6167 39.5515 29.7586 39.5398 29.9C39.5302 30.0231 39.5032 30.1443 39.4598 30.26Z" fill="white"/>
<path d="M40.1503 30.5201C40.2019 30.2514 40.1741 29.9734 40.0703 29.7201C40.2559 29.5822 40.3812 29.3781 40.4203 29.1501C40.4319 29.2738 40.4133 29.3984 40.3663 29.5133C40.3193 29.6282 40.2452 29.7301 40.1503 29.8101V29.7301C40.2377 29.8627 40.27 30.0241 40.2403 30.1801C40.2293 30.2977 40.1989 30.4126 40.1503 30.5201Z" fill="white"/>
<path d="M40.8295 30.64C40.8391 30.4969 40.8391 30.3532 40.8295 30.21V30C40.8208 29.9462 40.8003 29.895 40.7695 29.85V29.72C40.9749 29.535 41.1239 29.2959 41.1995 29.03C41.1607 29.3165 41.043 29.5866 40.8595 29.81V29.72C40.9176 29.7898 40.9463 29.8795 40.9395 29.97V30.19C40.9145 30.3426 40.8777 30.4931 40.8295 30.64Z" fill="white"/>
<path d="M41.578 30.72C41.592 30.4474 41.537 30.1756 41.418 29.93C41.5931 29.7324 41.6829 29.4736 41.668 29.21C41.808 29.47 41.668 29.77 41.518 30V29.82C41.5974 29.9525 41.6357 30.1056 41.628 30.26C41.6396 30.4151 41.6227 30.571 41.578 30.72Z" fill="white"/>
<path d="M42.3283 30.72L42.2183 30.29C42.1881 30.1661 42.1261 30.0524 42.0383 29.96L41.9883 29.87C42.0723 29.7833 42.1364 29.6793 42.1761 29.5653C42.2159 29.4514 42.2302 29.3301 42.2183 29.21C42.2644 29.3344 42.2757 29.469 42.2511 29.5994C42.2264 29.7298 42.1667 29.851 42.0783 29.95V29.86C42.1883 29.86 42.2083 29.99 42.2383 30.06C42.2683 30.13 42.2383 30.21 42.2983 30.28C42.3272 30.4247 42.3373 30.5726 42.3283 30.72Z" fill="white"/>
<path d="M43.0683 30.5501L42.9283 30.1601C42.8968 30.0403 42.8307 29.9325 42.7383 29.8501V29.8001C42.8719 29.5892 42.9219 29.3359 42.8783 29.0901C43.0483 29.3201 42.9383 29.6201 42.8783 29.8601V29.7801C42.9932 29.8804 43.0678 30.019 43.0883 30.1701C43.0989 30.2971 43.0922 30.4249 43.0683 30.5501Z" fill="white"/>
<path d="M43.8103 30.38C43.7003 30.13 43.6103 29.82 43.3903 29.72H43.3203V29.66C43.3838 29.5657 43.4264 29.4589 43.4454 29.3469C43.4643 29.2348 43.4592 29.1199 43.4303 29.01C43.4966 29.1184 43.5317 29.243 43.5317 29.37C43.5317 29.4971 43.4966 29.6216 43.4303 29.73V29.64C43.5678 29.7158 43.6714 29.8408 43.7203 29.99C43.7719 30.1141 43.8024 30.2459 43.8103 30.38Z" fill="white"/>
<path d="M44.5109 30.13C44.3709 29.91 44.2609 29.61 44.0309 29.55H43.9609V29.48C44.0637 29.2389 44.0744 28.9684 43.9909 28.72C44.0635 28.8331 44.1086 28.9617 44.1225 29.0955C44.1364 29.2292 44.1187 29.3643 44.0709 29.49V29.4C44.1424 29.4275 44.2075 29.4692 44.2625 29.5224C44.3175 29.5757 44.3611 29.6395 44.3909 29.71C44.4597 29.8401 44.5005 29.9832 44.5109 30.13Z" fill="white"/>
<path d="M45.2094 29.89C45.0494 29.67 44.9094 29.39 44.6794 29.3H44.6094V29.24C44.661 29.1306 44.6878 29.0111 44.6878 28.89C44.6878 28.769 44.661 28.6495 44.6094 28.54C44.6973 28.6414 44.7551 28.7654 44.7763 28.8979C44.7975 29.0305 44.7813 29.1663 44.7294 29.29V29.21C44.872 29.2719 44.9887 29.3815 45.0594 29.52C45.1309 29.6335 45.1817 29.7588 45.2094 29.89Z" fill="white"/>
<path d="M45.8492 29.5501C45.6671 29.3542 45.4662 29.1766 45.2492 29.0201H45.1992C45.2393 28.8087 45.2393 28.5916 45.1992 28.3801C45.3047 28.5794 45.3433 28.8073 45.3092 29.0301V28.9701C45.4692 29.0301 45.5392 29.1601 45.6392 29.2601C45.7197 29.3488 45.7901 29.446 45.8492 29.5501Z" fill="white"/>
<path d="M46.5078 29.07C46.3242 28.9006 46.1191 28.756 45.8978 28.64C45.915 28.4239 45.8662 28.2077 45.7578 28.02C45.8454 28.099 45.9143 28.1965 45.9593 28.3055C46.0042 28.4146 46.0242 28.5323 46.0178 28.65V28.59C46.1439 28.6405 46.2568 28.7192 46.3478 28.82C46.4108 28.8968 46.4645 28.9807 46.5078 29.07Z" fill="white"/>
<path d="M47.0814 28.62C46.9206 28.4328 46.6962 28.3117 46.4514 28.28H46.3714V28.21C46.3952 28.0905 46.3913 27.967 46.3602 27.8492C46.329 27.7313 46.2712 27.6222 46.1914 27.53C46.2916 27.6138 46.3709 27.7198 46.423 27.8396C46.4751 27.9593 46.4985 28.0896 46.4914 28.22L46.4314 28.15C46.571 28.1684 46.7008 28.2315 46.8014 28.33C46.9075 28.4135 47.0017 28.511 47.0814 28.62Z" fill="white"/>
</g>
</g>
</g>
<path d="M36.6098 73.7199L16.7698 70.0199C16.5562 69.9839 16.3628 69.872 16.225 69.7049C16.0872 69.5377 16.0144 69.3265 16.0198 69.1099L16.3998 31.4199L37.2698 32.4199L36.6098 73.7199Z" fill="url(#paint15_linear_4103_777)"/>
<path d="M64.9914 71.56L36.4414 73.72L37.2714 32.39L66.7214 31.27L65.9914 70.51C65.9847 70.7779 65.8786 71.0337 65.6938 71.2278C65.509 71.4218 65.2587 71.5402 64.9914 71.56Z" fill="url(#paint16_linear_4103_777)"/>
<path d="M16.3988 31.3899L9.59878 40.2999C9.49637 40.4252 9.43092 40.5765 9.40979 40.7369C9.38866 40.8974 9.41269 41.0605 9.47918 41.208C9.54567 41.3555 9.65198 41.4816 9.78616 41.572C9.92035 41.6624 10.0771 41.7137 10.2388 41.7199L31.5488 42.9099C31.7175 42.9193 31.8853 42.8788 32.0311 42.7934C32.1769 42.7081 32.2944 42.5816 32.3688 42.4299L37.2688 32.4299L16.3988 31.3899Z" fill="#FFC64A"/>
<path d="M66.7217 31.24L74.6417 42.49C74.7581 42.6548 74.8282 42.8477 74.8448 43.0488C74.8614 43.2499 74.8239 43.4517 74.7361 43.6333C74.6483 43.815 74.5135 43.9698 74.3457 44.0818C74.1779 44.1937 73.9832 44.2587 73.7817 44.27L42.9917 45.99C42.7488 46.0048 42.5076 45.9407 42.304 45.8074C42.1004 45.6741 41.9453 45.4786 41.8617 45.25L37.2617 32.36L66.7217 31.24Z" fill="#FFC64A"/>
</g>
<defs>
<linearGradient id="paint0_linear_4103_777" x1="49.5206" y1="33.1199" x2="42.9606" y2="26.2399" gradientUnits="userSpaceOnUse">
<stop stop-color="#F99F36"/>
<stop offset="1" stop-color="#FEE434"/>
</linearGradient>
<linearGradient id="paint1_linear_4103_777" x1="62.5187" y1="36.4737" x2="50.468" y2="26.4422" gradientUnits="userSpaceOnUse">
<stop stop-color="#F0C489"/>
<stop offset="0.85" stop-color="#EFD0AC"/>
</linearGradient>
<linearGradient id="paint2_linear_4103_777" x1="36.5211" y1="25.0199" x2="38.5111" y2="25.0199" gradientUnits="userSpaceOnUse">
<stop offset="0.01" stop-color="#C4DD84"/>
<stop offset="0.09" stop-color="#BDD771"/>
<stop offset="0.19" stop-color="#B6D260"/>
<stop offset="0.32" stop-color="#B1CE55"/>
<stop offset="0.5" stop-color="#AFCC4E"/>
<stop offset="1" stop-color="#AECB4C"/>
</linearGradient>
<linearGradient id="paint3_linear_4103_777" x1="19.8095" y1="24.9299" x2="22.0095" y2="24.9299" gradientUnits="userSpaceOnUse">
<stop offset="0.01" stop-color="#C4DD84"/>
<stop offset="0.26" stop-color="#C0DA7B"/>
<stop offset="0.68" stop-color="#B7D263"/>
<stop offset="1" stop-color="#AECB4C"/>
</linearGradient>
<linearGradient id="paint4_linear_4103_777" x1="18.9706" y1="24.5099" x2="39.2806" y2="24.5099" gradientUnits="userSpaceOnUse">
<stop offset="0.01" stop-color="#C4DD84"/>
<stop offset="0.26" stop-color="#C0DA7B"/>
<stop offset="0.68" stop-color="#B7D263"/>
<stop offset="1" stop-color="#AECB4C"/>
</linearGradient>
<linearGradient id="paint5_linear_4103_777" x1="28.6211" y1="33.71" x2="40.1511" y2="33.71" gradientUnits="userSpaceOnUse">
<stop offset="0.01" stop-color="#FFE075"/>
<stop offset="0.18" stop-color="#FFDD6C"/>
<stop offset="0.46" stop-color="#FED754"/>
<stop offset="0.82" stop-color="#FDCC2C"/>
<stop offset="1" stop-color="#FDC515"/>
</linearGradient>
<linearGradient id="paint6_linear_4103_777" x1="18.2185" y1="33.8301" x2="28.6185" y2="33.8301" gradientUnits="userSpaceOnUse">
<stop offset="0.01" stop-color="#FAA964"/>
<stop offset="0.24" stop-color="#F8A55B"/>
<stop offset="0.61" stop-color="#F29943"/>
<stop offset="1" stop-color="#EB8923"/>
</linearGradient>
<linearGradient id="paint7_linear_4103_777" x1="65.7617" y1="25.54" x2="63.4017" y2="31.1" gradientUnits="userSpaceOnUse">
<stop stop-color="#F05455"/>
<stop offset="0.61" stop-color="#F37065"/>
<stop offset="1" stop-color="#F69074"/>
</linearGradient>
<linearGradient id="paint8_linear_4103_777" x1="66.8204" y1="22.87" x2="65.5104" y2="25.66" gradientUnits="userSpaceOnUse">
<stop stop-color="#F05455"/>
<stop offset="0.61" stop-color="#F37065"/>
<stop offset="1" stop-color="#F69074"/>
</linearGradient>
<linearGradient id="paint9_linear_4103_777" x1="15.2795" y1="28.35" x2="26.5695" y2="28.35" gradientUnits="userSpaceOnUse">
<stop stop-color="#9581BC"/>
<stop offset="1" stop-color="#8584BC"/>
</linearGradient>
<linearGradient id="paint10_linear_4103_777" x1="22.5691" y1="30.6348" x2="33.3278" y2="16.2046" gradientUnits="userSpaceOnUse">
<stop offset="0.47" stop-color="#B27951"/>
<stop offset="0.63" stop-color="#B67D55"/>
<stop offset="0.8" stop-color="#C48A62"/>
<stop offset="0.96" stop-color="#D79D74"/>
</linearGradient>
<linearGradient id="paint11_linear_4103_777" x1="23.067" y1="16.061" x2="25.39" y2="12.1133" gradientUnits="userSpaceOnUse">
<stop offset="0.47" stop-color="#B27951"/>
<stop offset="0.89" stop-color="#D79D74"/>
</linearGradient>
<linearGradient id="paint12_linear_4103_777" x1="26.847" y1="22.7423" x2="32.1259" y2="15.806" gradientUnits="userSpaceOnUse">
<stop offset="0.34" stop-color="#E7B43D"/>
<stop offset="0.52" stop-color="#ECBC53"/>
<stop offset="0.89" stop-color="#F4C97B"/>
</linearGradient>
<linearGradient id="paint13_linear_4103_777" x1="4.62782" y1="36.4713" x2="52.852" y2="33.1013" gradientUnits="userSpaceOnUse">
<stop offset="0.18" stop-color="#9E6748"/>
<stop offset="0.39" stop-color="#9A6547"/>
<stop offset="0.59" stop-color="#8F5D42"/>
<stop offset="0.79" stop-color="#7C503B"/>
<stop offset="0.89" stop-color="#704836"/>
</linearGradient>
<radialGradient id="paint14_radial_4103_777" cx="0" cy="0" r="1" gradientUnits="userSpaceOnUse" gradientTransform="translate(44.4217 29.5602) rotate(-5.14277) scale(8.95605 8.95605)">
<stop stop-color="#DA4957"/>
<stop offset="0.91" stop-color="#D93138"/>
</radialGradient>
<linearGradient id="paint15_linear_4103_777" x1="5.17981" y1="52.5399" x2="32.0998" y2="52.5399" gradientUnits="userSpaceOnUse">
<stop stop-color="#F8E883"/>
<stop offset="0.96" stop-color="#FEE583"/>
</linearGradient>
<linearGradient id="paint16_linear_4103_777" x1="34.2714" y1="52.47" x2="70.1814" y2="52.47" gradientUnits="userSpaceOnUse">
<stop offset="0.04" stop-color="#FFDE71"/>
<stop offset="1" stop-color="#F8E883"/>
</linearGradient>
</defs>
</svg>
