<svg width="86" height="86" viewBox="0 0 86 86" fill="none" xmlns="http://www.w3.org/2000/svg">
<path d="M42.8192 85.28C66.2195 85.28 85.1892 66.3103 85.1892 42.91C85.1892 19.5097 66.2195 0.540039 42.8192 0.540039C19.4189 0.540039 0.449219 19.5097 0.449219 42.91C0.449219 66.3103 19.4189 85.28 42.8192 85.28Z" fill="#3984C5"/>
<mask id="mask0_4146_655" style="mask-type:luminance" maskUnits="userSpaceOnUse" x="0" y="0" width="86" height="86">
<path d="M42.8192 85.28C66.2195 85.28 85.1892 66.3103 85.1892 42.91C85.1892 19.5097 66.2195 0.540039 42.8192 0.540039C19.4189 0.540039 0.449219 19.5097 0.449219 42.91C0.449219 66.3103 19.4189 85.28 42.8192 85.28Z" fill="white"/>
</mask>
<g mask="url(#mask0_4146_655)">
<path d="M42.8192 85.28C66.2195 85.28 85.1892 66.3103 85.1892 42.91C85.1892 19.5097 66.2195 0.540039 42.8192 0.540039C19.4189 0.540039 0.449219 19.5097 0.449219 42.91C0.449219 66.3103 19.4189 85.28 42.8192 85.28Z" fill="#F37065"/>
</g>
<path d="M17.5507 31.55H30.1607V48.72H17.5507C17.243 48.72 16.948 48.5978 16.7304 48.3803C16.5129 48.1628 16.3907 47.8677 16.3907 47.56V32.72C16.3893 32.5669 16.4184 32.415 16.4761 32.2731C16.5338 32.1312 16.619 32.0021 16.7269 31.8933C16.8347 31.7845 16.9631 31.6982 17.1044 31.6393C17.2458 31.5804 17.3975 31.55 17.5507 31.55Z" fill="url(#paint0_linear_4146_655)"/>
<path d="M30.1602 31.55L49.0502 23.71V56.89L30.1602 48.75V31.55Z" fill="url(#paint1_linear_4146_655)"/>
<path d="M53.3008 23.5399C53.3008 22.3636 52.3494 21.4099 51.1758 21.4099C50.0022 21.4099 49.0508 22.3636 49.0508 23.5399V57.3499C49.0508 58.5263 50.0022 59.4799 51.1758 59.4799C52.3494 59.4799 53.3008 58.5263 53.3008 57.3499V23.5399Z" fill="#FFDA63"/>
<path d="M18.6094 48.72H28.7994V51.63C28.7994 51.9482 28.6729 52.2535 28.4479 52.4785C28.2229 52.7035 27.9176 52.83 27.5994 52.83H19.8194C19.5011 52.83 19.1959 52.7035 18.9709 52.4785C18.7458 52.2535 18.6194 51.9482 18.6194 51.63V48.72H18.6094Z" fill="#F1F2F2"/>
<path d="M20.6602 52.8699H26.8902V70.5499C26.8902 71.319 26.5846 72.0566 26.0408 72.6005C25.4969 73.1444 24.7593 73.4499 23.9902 73.4499H23.5602C22.791 73.4499 22.0534 73.1444 21.5096 72.6005C20.9657 72.0566 20.6602 71.319 20.6602 70.5499V52.8699Z" fill="#E6E7E8"/>
<path d="M53.3008 35.4299C54.5033 35.4856 55.6381 36.0024 56.4694 36.873C57.3007 37.7437 57.7645 38.9011 57.7645 40.1049C57.7645 41.3087 57.3007 42.4662 56.4694 43.3368C55.6381 44.2075 54.5033 44.7243 53.3008 44.7799V35.4299Z" fill="#FEE583"/>
<path d="M16.3887 35.48C15.1502 35.48 13.9624 35.972 13.0866 36.8478C12.2108 37.7236 11.7188 38.9114 11.7188 40.15C11.7188 41.3885 12.2108 42.5764 13.0866 43.4522C13.9624 44.328 15.1502 44.82 16.3887 44.82V35.48Z" fill="#F1F2F2"/>
<path d="M59.0586 37.7799L62.2086 34.6199" stroke="#FEE583" stroke-width="0.64" stroke-linecap="round" stroke-linejoin="round"/>
<path d="M59.6211 40.1499H64.0811" stroke="#FEE583" stroke-width="0.64" stroke-linecap="round" stroke-linejoin="round"/>
<path d="M59.0586 42.4399L62.2086 45.5899" stroke="#FEE583" stroke-width="0.64" stroke-linecap="round" stroke-linejoin="round"/>
<path d="M64.2088 31.5501C69.1738 31.5501 73.1988 27.5251 73.1988 22.5601C73.1988 17.595 69.1738 13.5701 64.2088 13.5701C59.2437 13.5701 55.2188 17.595 55.2188 22.5601C55.2188 27.5251 59.2437 31.5501 64.2088 31.5501Z" fill="#3984C5"/>
<path d="M60.8119 29.2301L56.0919 30.3801C56.0349 30.3937 55.9754 30.3931 55.9187 30.3785C55.862 30.3639 55.8096 30.3357 55.7663 30.2963C55.7229 30.2569 55.6898 30.2075 55.6699 30.1524C55.65 30.0973 55.6438 30.0381 55.6519 29.9801L56.4619 25.0901L60.8119 29.2301Z" fill="#3984C5"/>
<path d="M61.9297 21.5C62.7581 21.5 63.4297 20.8284 63.4297 20C63.4297 19.1716 62.7581 18.5 61.9297 18.5C61.1013 18.5 60.4297 19.1716 60.4297 20C60.4297 20.8284 61.1013 21.5 61.9297 21.5Z" stroke="white" stroke-width="1.06" stroke-linecap="round" stroke-linejoin="round"/>
<path d="M66.4414 26.51C67.2698 26.51 67.9414 25.8384 67.9414 25.01C67.9414 24.1816 67.2698 23.51 66.4414 23.51C65.613 23.51 64.9414 24.1816 64.9414 25.01C64.9414 25.8384 65.613 26.51 66.4414 26.51Z" stroke="white" stroke-width="1.06" stroke-linecap="round" stroke-linejoin="round"/>
<path d="M67.5913 19.0601L60.0312 26.6101" stroke="white" stroke-width="1.06" stroke-linecap="round" stroke-linejoin="round"/>
<defs>
<linearGradient id="paint0_linear_4146_655" x1="16.3907" y1="40.15" x2="30.1607" y2="40.15" gradientUnits="userSpaceOnUse">
<stop stop-color="#F8E883"/>
<stop offset="0.96" stop-color="#FEE583"/>
</linearGradient>
<linearGradient id="paint1_linear_4146_655" x1="30.1602" y1="40.3" x2="49.0502" y2="40.3" gradientUnits="userSpaceOnUse">
<stop offset="0.04" stop-color="#FFDE71"/>
<stop offset="1" stop-color="#F8E883"/>
</linearGradient>
</defs>
</svg>
