<svg width="86" height="86" viewBox="0 0 86 86" fill="none" xmlns="http://www.w3.org/2000/svg">
<path d="M43.1395 85.28C66.5398 85.28 85.5095 66.3103 85.5095 42.91C85.5095 19.5097 66.5398 0.540039 43.1395 0.540039C19.7392 0.540039 0.769531 19.5097 0.769531 42.91C0.769531 66.3103 19.7392 85.28 43.1395 85.28Z" fill="#89C58B"/>
<mask id="mask0_4146_654" style="mask-type:luminance" maskUnits="userSpaceOnUse" x="0" y="0" width="86" height="86">
<path d="M43.1395 85.28C66.5398 85.28 85.5095 66.3103 85.5095 42.91C85.5095 19.5097 66.5398 0.540039 43.1395 0.540039C19.7392 0.540039 0.769531 19.5097 0.769531 42.91C0.769531 66.3103 19.7392 85.28 43.1395 85.28Z" fill="white"/>
</mask>
<g mask="url(#mask0_4146_654)">
<path d="M43.1395 85.28C66.5398 85.28 85.5095 66.3103 85.5095 42.91C85.5095 19.5097 66.5398 0.540039 43.1395 0.540039C19.7392 0.540039 0.769531 19.5097 0.769531 42.91C0.769531 66.3103 19.7392 85.28 43.1395 85.28Z" fill="#89C58B"/>
</g>
<path d="M68.1514 37.86C68.1514 40.36 64.1514 42.19 63.4114 44.45C62.6714 46.71 64.7914 50.62 63.4114 52.57C62.0314 54.52 57.6614 53.67 55.6914 55.1C53.7214 56.53 53.2414 60.9 50.9014 61.66C48.5614 62.42 45.6714 59.17 43.1714 59.17C40.6714 59.17 37.6914 62.39 35.4414 61.66C33.1914 60.93 32.5914 56.52 30.6514 55.1C28.7114 53.68 24.3614 54.53 22.9314 52.57C21.5014 50.61 23.6614 46.79 22.9314 44.45C22.2014 42.11 18.1914 40.36 18.1914 37.86C18.1914 35.36 22.1914 33.53 22.9314 31.28C23.6714 29.03 21.5514 25.1 22.9314 23.16C24.3114 21.22 28.6814 22.05 30.6514 20.62C32.6214 19.19 33.1014 14.83 35.4414 14.07C37.7814 13.31 40.6714 16.56 43.1714 16.56C45.6714 16.56 48.6514 13.34 50.9014 14.07C53.1514 14.8 53.7514 19.21 55.6914 20.62C57.6314 22.03 61.9814 21.19 63.4114 23.16C64.8414 25.13 62.6814 28.94 63.4114 31.28C64.1414 33.62 68.1514 35.36 68.1514 37.86Z" fill="#FDD551"/>
<path d="M42.6486 57.72C53.3298 57.72 61.9886 49.0612 61.9886 38.38C61.9886 27.6988 53.3298 19.04 42.6486 19.04C31.9674 19.04 23.3086 27.6988 23.3086 38.38C23.3086 49.0612 31.9674 57.72 42.6486 57.72Z" fill="#FEC664"/>
<path d="M42.6497 55.3499C52.022 55.3499 59.6197 47.7522 59.6197 38.3799C59.6197 29.0076 52.022 21.4099 42.6497 21.4099C33.2774 21.4099 25.6797 29.0076 25.6797 38.3799C25.6797 47.7522 33.2774 55.3499 42.6497 55.3499Z" fill="#FEE583"/>
<path d="M40.1289 30.46L42.3689 32.53L47.8189 25.52" stroke="#FDBD51" stroke-width="1.73" stroke-linecap="round" stroke-linejoin="round"/>
<path d="M39.8506 43.6399H46.4306C46.6322 43.6399 46.8255 43.72 46.968 43.8625C47.1106 44.005 47.1906 44.1983 47.1906 44.3999V76.0899C47.1906 77.1508 46.7692 78.1682 46.0191 78.9183C45.2689 79.6685 44.2515 80.0899 43.1906 80.0899C42.6611 80.0965 42.1356 79.9979 41.6445 79.7999C41.1534 79.6018 40.7066 79.3082 40.3298 78.9361C39.9531 78.564 39.654 78.1209 39.4498 77.6323C39.2457 77.1437 39.1406 76.6194 39.1406 76.0899V44.3999C39.1402 44.2067 39.2134 44.0206 39.3453 43.8794C39.4771 43.7383 39.6579 43.6526 39.8506 43.6399ZM43.1406 72.8999C42.6976 72.8999 42.2645 73.0313 41.8962 73.2774C41.5278 73.5235 41.2407 73.8734 41.0711 74.2827C40.9016 74.692 40.8572 75.1424 40.9437 75.5769C41.0301 76.0114 41.2434 76.4105 41.5567 76.7238C41.87 77.0371 42.2691 77.2504 42.7036 77.3369C43.1381 77.4233 43.5885 77.3789 43.9978 77.2094C44.4071 77.0398 44.757 76.7527 45.0031 76.3844C45.2492 76.016 45.3806 75.5829 45.3806 75.1399C45.3806 74.5458 45.1446 73.9761 44.7245 73.556C44.3045 73.1359 43.7347 72.8999 43.1406 72.8999Z" fill="white"/>
<path d="M48.6217 28.72V35.05C48.623 35.7705 48.4822 36.4842 48.2074 37.1502C47.9326 37.8162 47.5292 38.4215 47.0202 38.9314C46.5112 39.4413 45.9066 39.8459 45.2411 40.1219C44.5756 40.3979 43.8622 40.54 43.1417 40.54C42.4212 40.54 41.7078 40.3979 41.0423 40.1219C40.3767 39.8459 39.7722 39.4413 39.2632 38.9314C38.7542 38.4215 38.3508 37.8162 38.0759 37.1502C37.8011 36.4842 37.6604 35.7705 37.6617 35.05V28.72C37.6624 28.4194 37.5779 28.1248 37.418 27.8703C37.2581 27.6158 37.0294 27.4118 36.7583 27.2821C36.4872 27.1523 36.1849 27.102 35.8863 27.137C35.5878 27.172 35.3054 27.291 35.0717 27.48C32.8918 29.1653 31.2944 31.491 30.5038 34.1305C29.7132 36.77 29.7691 39.5908 30.6636 42.197C31.5581 44.8031 33.2463 47.0637 35.4911 48.6614C37.736 50.2591 40.4249 51.1136 43.1803 51.105C45.9356 51.0964 48.6191 50.2252 50.854 48.6136C53.0889 47.002 54.763 44.7309 55.6413 42.1193C56.5195 39.5076 56.5578 36.6865 55.7508 34.0519C54.9438 31.4174 53.332 29.1017 51.1417 27.43C50.9051 27.2549 50.6244 27.1493 50.3311 27.1252C50.0378 27.1011 49.7436 27.1593 49.4816 27.2934C49.2196 27.4275 49.0003 27.6322 48.8484 27.8842C48.6964 28.1363 48.6179 28.4257 48.6217 28.72Z" fill="white"/>
</svg>
