<svg width="360" height="263" viewBox="0 0 360 263" fill="none" xmlns="http://www.w3.org/2000/svg">
<path d="M142.792 195.052L145.03 193.767C145.123 193.698 145.236 193.661 145.351 193.661C145.467 193.661 145.58 193.698 145.673 193.767L147.6 195.508C147.682 195.581 147.785 195.625 147.893 195.636C148.002 195.646 148.111 195.622 148.205 195.567C148.3 195.512 148.374 195.429 148.418 195.329C148.462 195.229 148.473 195.117 148.45 195.011L147.911 192.482C147.881 192.368 147.89 192.248 147.935 192.14C147.98 192.031 148.059 191.94 148.16 191.881L150.398 190.596C150.497 190.544 150.576 190.462 150.624 190.362C150.673 190.262 150.687 190.149 150.667 190.04C150.646 189.93 150.59 189.831 150.508 189.755C150.426 189.68 150.322 189.633 150.212 189.622L147.621 189.352C147.507 189.335 147.401 189.285 147.316 189.207C147.232 189.13 147.172 189.029 147.144 188.917L146.605 186.388C146.581 186.283 146.525 186.188 146.444 186.117C146.363 186.045 146.262 186.001 146.155 185.989C146.048 185.978 145.94 186 145.846 186.053C145.752 186.106 145.677 186.187 145.631 186.285L144.574 188.648C144.527 188.754 144.448 188.844 144.347 188.903C144.247 188.962 144.131 188.989 144.015 188.979L141.444 188.71C141.338 188.702 141.232 188.728 141.141 188.783C141.05 188.838 140.978 188.92 140.935 189.017C140.892 189.115 140.88 189.223 140.901 189.327C140.921 189.432 140.974 189.527 141.05 189.601L142.957 191.342C143.048 191.415 143.111 191.515 143.137 191.628C143.163 191.741 143.151 191.859 143.103 191.964L142.045 194.347C141.973 194.449 141.94 194.574 141.952 194.698C141.964 194.823 142.021 194.939 142.112 195.024C142.203 195.11 142.322 195.16 142.447 195.165C142.571 195.171 142.694 195.13 142.792 195.052Z" fill="#FFD788"/>
<path d="M267.163 98.6714L268.075 95.8525C268.117 95.7267 268.198 95.6172 268.306 95.5393C268.414 95.4613 268.543 95.4187 268.676 95.4172H271.66C271.785 95.4144 271.905 95.3731 272.005 95.2989C272.105 95.2247 272.179 95.1214 272.218 95.0031C272.257 94.8848 272.258 94.7574 272.221 94.6386C272.184 94.5197 272.112 94.4152 272.013 94.3394L269.608 92.5984C269.499 92.5215 269.416 92.4122 269.371 92.2859C269.326 92.1595 269.322 92.0224 269.36 91.8936L270.292 89.054C270.326 88.9358 270.322 88.8102 270.282 88.6941C270.242 88.578 270.167 88.477 270.067 88.4047C269.968 88.3325 269.849 88.2924 269.726 88.2899C269.603 88.2874 269.483 88.3226 269.38 88.3908L266.976 90.1318C266.868 90.2126 266.737 90.2562 266.603 90.2562C266.468 90.2562 266.337 90.2126 266.23 90.1318L263.826 88.3908C263.724 88.3146 263.6 88.2728 263.473 88.2713C263.346 88.2698 263.221 88.3087 263.117 88.3824C263.014 88.4562 262.936 88.561 262.896 88.6817C262.855 88.8024 262.854 88.9327 262.893 89.054L263.826 91.8936C263.862 92.0205 263.86 92.1552 263.819 92.2808C263.779 92.4063 263.701 92.5169 263.598 92.5984L261.193 94.3394C261.096 94.414 261.023 94.5167 260.986 94.6337C260.948 94.7507 260.947 94.8764 260.984 94.9938C261.02 95.1113 261.091 95.2148 261.188 95.2905C261.285 95.3662 261.402 95.4104 261.525 95.4172H264.509C264.642 95.4187 264.772 95.4613 264.879 95.5393C264.987 95.6172 265.068 95.7267 265.111 95.8525L266.023 98.6714C266.063 98.7909 266.139 98.8948 266.241 98.9684C266.344 99.042 266.467 99.0816 266.593 99.0816C266.719 99.0816 266.841 99.042 266.944 98.9684C267.046 98.8948 267.123 98.7909 267.163 98.6714Z" fill="#FFD788"/>
<path d="M229.016 223.385C279.631 201.534 302.949 142.789 281.098 92.1746C259.248 41.5598 200.503 18.2417 149.888 40.0923C99.2735 61.9428 75.9556 120.688 97.8061 171.302C119.657 221.917 178.401 245.235 229.016 223.385Z" fill="url(#paint0_linear_1552_2436)"/>
<path d="M283.139 97.5107C285.549 104.042 287.265 110.808 288.258 117.699C259.73 136.489 230.015 153.41 199.298 168.356C173.214 181.249 146.466 192.755 119.167 202.825C114.254 197.942 109.858 192.566 106.047 186.782C134.91 176.398 163.146 164.349 190.613 150.696C226.139 133.244 258.598 114.569 283.139 97.5107Z" fill="url(#paint1_linear_1552_2436)"/>
<g style="mix-blend-mode:overlay" opacity="0.47">
<path d="M240.751 46.2527C223.341 60.0154 194.468 77.5506 160.558 94.2151C137.717 105.622 114.123 115.456 89.9414 123.648C91.236 108.243 96.0739 93.3464 104.077 80.1207C116.804 74.9182 130.504 68.7623 144.619 61.8187C164.58 52.0148 182.799 41.9 197.971 32.4278C213.091 33.7536 227.715 38.4796 240.751 46.2527Z" fill="white"/>
</g>
<g style="mix-blend-mode:overlay" opacity="0.35">
<path d="M263.551 64.99C247.508 76.9702 212.915 96.7645 171.751 116.994C140.66 132.27 112.119 144.706 91.6825 152.23C90.8562 148.304 90.2747 144.331 89.9414 140.333C110.088 132.726 137.199 120.829 166.632 106.403C205.205 87.4581 237.995 68.8659 255.177 56.7613C258.133 59.3316 260.93 62.0796 263.551 64.99Z" fill="white"/>
</g>
<g style="mix-blend-mode:overlay" opacity="0.61">
<path d="M279.012 87.8518C280.743 91.3799 282.265 95.0065 283.572 98.7129C270.286 114.362 235.899 137.535 193.243 158.531C160.93 174.408 130.544 185.725 108.78 190.72C105.379 186.049 102.39 181.09 99.8471 175.9C98.6864 173.558 97.6292 171.175 96.6758 168.791C118.501 163.941 149.405 152.5 182.32 136.312C220.893 117.367 252.626 96.6194 268.213 81.2606C269.85 79.6647 271.301 78.1101 272.566 76.6385C274.96 80.2293 277.114 83.9754 279.012 87.8518Z" fill="white"/>
</g>
<g style="mix-blend-mode:overlay" opacity="0.35">
<path d="M287.304 112.165C288.984 120.468 289.59 128.953 289.108 137.41C272.049 151.463 241.995 169.931 206.365 187.425C183.783 198.699 160.468 208.442 136.577 216.588C129.548 212.221 123.093 206.992 117.363 201.022C138.422 194.949 166.839 183.652 197.142 168.77C235.715 149.805 267.78 129.741 283.843 115.357C285.128 114.258 286.268 113.201 287.304 112.165Z" fill="white"/>
</g>
<g style="mix-blend-mode:overlay" opacity="0.47">
<path d="M284.983 160.728C282.966 167.42 280.249 173.882 276.878 180.004C260.836 189.249 241.394 199.591 220.169 210.017C204.437 217.748 189.307 224.754 175.565 230.744C168.695 229.765 161.945 228.084 155.418 225.728C172.725 218.598 193.1 209.395 214.677 198.783C242.285 185.228 266.95 171.776 284.983 160.728Z" fill="white"/>
</g>
<path d="M253.229 50.6054L249.291 51.9733C254.393 55.8004 259.119 60.1033 263.406 64.8241C266.039 63.9743 268.609 63.166 271.137 62.3991C272.485 61.9845 273.832 61.57 275.159 61.1969C286.315 57.6728 297.802 55.2975 309.441 54.1082C314.706 53.7559 321.276 54.1082 322.81 57.0929C324.344 60.0776 320.489 65.5496 317.006 69.5292C308.952 78.0093 300.055 85.6485 290.455 92.3289C288.092 94.0493 285.667 95.7696 283.139 97.5107C258.598 114.569 226.139 133.244 190.613 150.696C163.145 164.349 134.909 176.398 106.047 186.782C103.663 187.611 101.321 188.42 98.9993 189.186C93.6103 191.01 88.4147 192.648 83.4125 194.099C72.2536 197.613 60.7675 199.988 49.13 201.187C43.8861 201.519 37.2949 201.187 35.7818 198.182C34.2687 195.177 38.0825 189.725 41.5646 185.746C49.6198 177.266 58.5159 169.627 68.116 162.946C73.4635 159.022 79.2533 155.028 85.4852 150.966C87.2263 149.805 89.0089 148.644 90.8121 147.504C89.8181 141.234 89.4294 134.883 89.6514 128.539L87.8067 129.7C29.3771 166.138 -6.58425 200.835 1.25058 216.753C8.73304 232.009 54.4569 225.956 115.084 204.317L119.229 202.846C146.528 192.776 173.275 181.27 199.36 168.376C230.076 153.431 259.792 136.509 288.32 117.72L293.461 114.258C339.06 83.1676 365.487 54.9995 358.668 41.1331C351.455 26.5827 309.607 31.3914 253.229 50.6054Z" fill="url(#paint2_linear_1552_2436)"/>
<defs>
<linearGradient id="paint0_linear_1552_2436" x1="76.2921" y1="92.9246" x2="390.721" y2="200.072" gradientUnits="userSpaceOnUse">
<stop stop-color="#FBC515"/>
<stop offset="1" stop-color="#B6519D"/>
</linearGradient>
<linearGradient id="paint1_linear_1552_2436" x1="126.824" y1="118.074" x2="363.599" y2="199.355" gradientUnits="userSpaceOnUse">
<stop stop-color="#FBC515"/>
<stop offset="1" stop-color="#B6519D"/>
</linearGradient>
<linearGradient id="paint2_linear_1552_2436" x1="115.602" y1="18.3955" x2="234.699" y2="223.054" gradientUnits="userSpaceOnUse">
<stop stop-color="#FBC515"/>
<stop offset="1" stop-color="white"/>
</linearGradient>
</defs>
</svg>
