<svg width="85" height="85" viewBox="0 0 85 85" fill="none" xmlns="http://www.w3.org/2000/svg">
<mask id="mask0_4146_652" style="mask-type:luminance" maskUnits="userSpaceOnUse" x="0" y="0" width="85" height="85">
<path d="M42.4794 84.74C65.8797 84.74 84.8494 65.7703 84.8494 42.37C84.8494 18.9697 65.8797 0 42.4794 0C19.0791 0 0.109375 18.9697 0.109375 42.37C0.109375 65.7703 19.0791 84.74 42.4794 84.74Z" fill="white"/>
</mask>
<g mask="url(#mask0_4146_652)">
<path d="M42.4794 84.74C65.8797 84.74 84.8494 65.7703 84.8494 42.37C84.8494 18.9697 65.8797 0 42.4794 0C19.0791 0 0.109375 18.9697 0.109375 42.37C0.109375 65.7703 19.0791 84.74 42.4794 84.74Z" fill="#FDD551"/>
</g>
<path d="M45.2807 20.7899C45.2476 20.8527 45.198 20.9053 45.1372 20.942C45.0764 20.9787 45.0067 20.998 44.9357 20.998C44.8647 20.998 44.7951 20.9787 44.7343 20.942C44.6735 20.9053 44.6238 20.8527 44.5907 20.7899L40.9007 14.1999C40.4853 13.5328 40.2481 12.7701 40.2119 11.9851C40.1757 11.2 40.3417 10.4188 40.694 9.71623C41.0462 9.01369 41.573 8.41337 42.2238 7.97278C42.8746 7.53218 43.6276 7.26606 44.4107 7.19992H44.7507C44.9838 7.18466 45.2177 7.18466 45.4507 7.19992C46.1867 7.31957 46.8826 7.61633 47.4784 8.06466C48.0742 8.51298 48.5521 9.09942 48.8709 9.77346C49.1897 10.4475 49.3399 11.1889 49.3085 11.9339C49.2771 12.6789 49.0651 13.4051 48.6907 14.0499L45.2807 20.7899Z" fill="#F2665C"/>
<path d="M44.7698 14.2301C46.1119 14.2301 47.1998 13.1422 47.1998 11.8001C47.1998 10.4581 46.1119 9.37012 44.7698 9.37012C43.4278 9.37012 42.3398 10.4581 42.3398 11.8001C42.3398 13.1422 43.4278 14.2301 44.7698 14.2301Z" fill="#FDD551"/>
<path d="M45.0898 22.3601C45.151 22.5157 45.2246 22.6662 45.3098 22.8101" stroke="#F2665C" stroke-width="0.5" stroke-linecap="round" stroke-linejoin="round"/>
<path d="M45.9883 23.6299C46.557 24.1788 47.24 24.5954 47.9883 24.8499C49.2572 25.2037 50.5713 25.3688 51.8883 25.3399L57.1083 25.4999C58.5677 25.3835 60.0243 25.7565 61.2483 26.5599C61.9231 27.163 62.3888 27.9649 62.5783 28.8499C62.7029 29.3949 62.7732 29.951 62.7883 30.5099" stroke="#F2665C" stroke-width="0.5" stroke-linecap="round" stroke-linejoin="round" stroke-dasharray="1.04 1.04"/>
<path d="M62.7812 31.03V31.53" stroke="#F2665C" stroke-width="0.5" stroke-linecap="round" stroke-linejoin="round"/>
<path d="M29.7514 55.9001C29.4014 59.6501 26.7514 62.1501 23.4714 62.1801C21.8058 62.1801 20.2085 61.5185 19.0308 60.3407C17.853 59.163 17.1914 57.5657 17.1914 55.9001C17.1914 54.2346 17.853 52.6372 19.0308 51.4595C20.2085 50.2818 21.8058 49.6201 23.4714 49.6201C26.9914 49.6201 30.0814 52.4401 29.7514 55.9001Z" fill="url(#paint0_linear_4146_652)"/>
<path d="M23.47 58.6199C24.9722 58.6199 26.19 57.4021 26.19 55.8999C26.19 54.3977 24.9722 53.1799 23.47 53.1799C21.9678 53.1799 20.75 54.3977 20.75 55.8999C20.75 57.4021 21.9678 58.6199 23.47 58.6199Z" fill="url(#paint1_linear_4146_652)"/>
<path d="M23.4689 57.9901C24.6232 57.9901 25.5589 57.0543 25.5589 55.9001C25.5589 54.7458 24.6232 53.8101 23.4689 53.8101C22.3146 53.8101 21.3789 54.7458 21.3789 55.9001C21.3789 57.0543 22.3146 57.9901 23.4689 57.9901Z" fill="#414142"/>
<path d="M23.4708 58.07C24.6692 58.07 25.6408 57.0984 25.6408 55.9C25.6408 54.7015 24.6692 53.73 23.4708 53.73C22.2723 53.73 21.3008 54.7015 21.3008 55.9C21.3008 57.0984 22.2723 58.07 23.4708 58.07Z" fill="#DBD2D1"/>
<path d="M23.4695 56.8499C23.9942 56.8499 24.4195 56.4246 24.4195 55.8999C24.4195 55.3753 23.9942 54.95 23.4695 54.95C22.9449 54.95 22.5195 55.3753 22.5195 55.8999C22.5195 56.4246 22.9449 56.8499 23.4695 56.8499Z" fill="#C7B9C0"/>
<path d="M16.9891 52.9199C16.6875 53.5496 16.4947 54.2258 16.4191 54.9199C16.4064 55.0336 16.4179 55.1486 16.4529 55.2576C16.4878 55.3665 16.5455 55.4667 16.622 55.5518C16.6985 55.6368 16.7922 55.7046 16.8968 55.7508C17.0015 55.7971 17.1147 55.8206 17.2291 55.8199H29.7191C29.8344 55.8208 29.9486 55.797 30.054 55.7502C30.1594 55.7034 30.2536 55.6346 30.3303 55.5484C30.407 55.4623 30.4644 55.3608 30.4987 55.2506C30.533 55.1405 30.5433 55.0243 30.5291 54.9099C30.3363 53.6455 29.7684 52.468 28.8991 51.5299C28.2392 50.7701 27.4233 50.1615 26.507 49.7456C25.5906 49.3297 24.5954 49.1163 23.5891 49.1199H23.2491C21.9547 49.1044 20.6818 49.4522 19.5752 50.124C18.4686 50.7957 17.5726 51.7644 16.9891 52.9199Z" fill="#F36F56"/>
<path d="M52.6081 62.1801C56.0765 62.1801 58.8881 59.3685 58.8881 55.9001C58.8881 52.4318 56.0765 49.6201 52.6081 49.6201C49.1398 49.6201 46.3281 52.4318 46.3281 55.9001C46.3281 59.3685 49.1398 62.1801 52.6081 62.1801Z" fill="url(#paint2_linear_4146_652)"/>
<path d="M52.6106 58.6199C54.1128 58.6199 55.3306 57.4021 55.3306 55.8999C55.3306 54.3977 54.1128 53.1799 52.6106 53.1799C51.1084 53.1799 49.8906 54.3977 49.8906 55.8999C49.8906 57.4021 51.1084 58.6199 52.6106 58.6199Z" fill="url(#paint3_linear_4146_652)"/>
<path d="M52.6095 57.9901C53.7638 57.9901 54.6995 57.0543 54.6995 55.9001C54.6995 54.7458 53.7638 53.8101 52.6095 53.8101C51.4553 53.8101 50.5195 54.7458 50.5195 55.9001C50.5195 57.0543 51.4553 57.9901 52.6095 57.9901Z" fill="#414142"/>
<path d="M52.6114 58.07C53.8099 58.07 54.7814 57.0984 54.7814 55.9C54.7814 54.7015 53.8099 53.73 52.6114 53.73C51.4129 53.73 50.4414 54.7015 50.4414 55.9C50.4414 57.0984 51.4129 58.07 52.6114 58.07Z" fill="#DBD2D1"/>
<path d="M52.6102 56.8499C53.1348 56.8499 53.5602 56.4246 53.5602 55.8999C53.5602 55.3753 53.1348 54.95 52.6102 54.95C52.0855 54.95 51.6602 55.3753 51.6602 55.8999C51.6602 56.4246 52.0855 56.8499 52.6102 56.8499Z" fill="#C7B9C0"/>
<path d="M46.1297 52.9199C45.8281 53.5496 45.6354 54.2258 45.5597 54.9199C45.547 55.0336 45.5585 55.1486 45.5935 55.2576C45.6284 55.3665 45.6861 55.4667 45.7626 55.5518C45.8391 55.6368 45.9328 55.7046 46.0374 55.7508C46.1421 55.7971 46.2553 55.8206 46.3697 55.8199H58.8597C58.975 55.8208 59.0892 55.797 59.1946 55.7502C59.3001 55.7034 59.3942 55.6346 59.4709 55.5484C59.5476 55.4623 59.605 55.3608 59.6393 55.2506C59.6736 55.1405 59.6839 55.0243 59.6697 54.9099C59.4769 53.6455 58.9091 52.468 58.0397 51.5299C57.381 50.7714 56.5667 50.1636 55.6521 49.7477C54.7376 49.3319 53.7443 49.1177 52.7397 49.1199H52.3897C51.0953 49.1044 49.8224 49.4522 48.7158 50.124C47.6093 50.7957 46.7133 51.7644 46.1297 52.9199Z" fill="#F36F56"/>
<path d="M69.8998 55.0501H20.8998C19.4127 55.051 17.9523 54.6543 16.6701 53.901C15.3879 53.1476 14.3304 52.0652 13.6072 50.7657C12.884 49.4662 12.5215 47.997 12.5571 46.5103C12.5927 45.0236 13.0252 43.5734 13.8098 42.3101L16.6398 37.7201C18.5586 34.6287 21.2342 32.0778 24.4137 30.3087C27.5931 28.5396 31.1713 27.6108 34.8098 27.6101H65.0598C65.8556 27.6101 66.6436 27.7669 67.3789 28.0714C68.1141 28.3759 68.7822 28.8223 69.3449 29.385C69.9076 29.9478 70.354 30.6158 70.6585 31.351C70.9631 32.0863 71.1198 32.8743 71.1198 33.6701V53.8301C71.1198 54.1537 70.9913 54.464 70.7625 54.6928C70.5337 54.9216 70.2234 55.0501 69.8998 55.0501Z" fill="url(#paint4_linear_4146_652)"/>
<path d="M30.9086 56.3201H14.6586C14.434 56.3175 14.2193 56.2271 14.0604 56.0683C13.9016 55.9094 13.8112 55.6947 13.8086 55.4701V53.7201C13.8086 53.4937 13.8978 53.2765 14.0569 53.1155C14.2161 52.9545 14.4322 52.8627 14.6586 52.8601H30.9086C31.1349 52.8627 31.3511 52.9545 31.5102 53.1155C31.6694 53.2765 31.7586 53.4937 31.7586 53.7201V55.4501C31.7599 55.5631 31.739 55.6751 31.697 55.78C31.655 55.8848 31.5927 55.9804 31.5138 56.0612C31.4349 56.142 31.3408 56.2064 31.2369 56.2508C31.1331 56.2953 31.0215 56.3188 30.9086 56.3201ZM72.4486 55.4701V53.7201C72.446 53.4955 72.3556 53.2808 72.1968 53.1219C72.0379 52.9631 71.8232 52.8727 71.5986 52.8701H33.4186C33.3806 52.8727 33.3449 52.8896 33.3189 52.9174C33.2929 52.9453 33.2785 52.982 33.2786 53.0201V56.1701C33.2786 56.2072 33.2933 56.2428 33.3196 56.2691C33.3458 56.2954 33.3814 56.3101 33.4186 56.3101H71.5986C71.8223 56.3101 72.037 56.2219 72.1961 56.0647C72.3552 55.9074 72.446 55.6938 72.4486 55.4701Z" fill="url(#paint5_linear_4146_652)"/>
<path d="M38.0417 62.86C41.5101 62.86 44.3217 60.0484 44.3217 56.58C44.3217 53.1117 41.5101 50.3 38.0417 50.3C34.5734 50.3 31.7617 53.1117 31.7617 56.58C31.7617 60.0484 34.5734 62.86 38.0417 62.86Z" fill="url(#paint6_linear_4146_652)"/>
<path d="M38.0403 59.3001C39.5425 59.3001 40.7603 58.0823 40.7603 56.5801C40.7603 55.0779 39.5425 53.8601 38.0403 53.8601C36.5381 53.8601 35.3203 55.0779 35.3203 56.5801C35.3203 58.0823 36.5381 59.3001 38.0403 59.3001Z" fill="url(#paint7_linear_4146_652)"/>
<path d="M38.0392 58.67C39.1935 58.67 40.1292 57.7343 40.1292 56.58C40.1292 55.4257 39.1935 54.49 38.0392 54.49C36.8849 54.49 35.9492 55.4257 35.9492 56.58C35.9492 57.7343 36.8849 58.67 38.0392 58.67Z" fill="#414142"/>
<path d="M38.0411 58.7499C39.2395 58.7499 40.2111 57.7784 40.2111 56.5799C40.2111 55.3815 39.2395 54.4099 38.0411 54.4099C36.8426 54.4099 35.8711 55.3815 35.8711 56.5799C35.8711 57.7784 36.8426 58.7499 38.0411 58.7499Z" fill="#DBD2D1"/>
<path d="M38.0398 57.5301C38.5645 57.5301 38.9898 57.1048 38.9898 56.5801C38.9898 56.0555 38.5645 55.6301 38.0398 55.6301C37.5152 55.6301 37.0898 56.0555 37.0898 56.5801C37.0898 57.1048 37.5152 57.5301 38.0398 57.5301Z" fill="#C7B9C0"/>
<path d="M31.5606 53.61C31.2579 54.2393 31.0651 54.9157 30.9906 55.61C30.9763 55.7245 30.9867 55.8406 31.021 55.9508C31.0552 56.0609 31.1127 56.1624 31.1893 56.2486C31.266 56.3347 31.3602 56.4035 31.4656 56.4503C31.5711 56.4971 31.6852 56.5209 31.8006 56.52H44.2906C44.4059 56.5209 44.5201 56.4971 44.6255 56.4503C44.7309 56.4035 44.8251 56.3347 44.9018 56.2486C44.9785 56.1624 45.0359 56.0609 45.0702 55.9508C45.1045 55.8406 45.1148 55.7245 45.1006 55.61C44.9078 54.3456 44.3399 53.1681 43.4706 52.23C42.8128 51.4697 41.9989 50.86 41.0843 50.4424C40.1698 50.0248 39.176 49.8091 38.1706 49.81H37.8206C36.5264 49.7956 35.254 50.144 34.1476 50.8156C33.0413 51.4872 32.1451 52.4552 31.5606 53.61Z" fill="#F36F56"/>
<path d="M64.4402 62.86C67.9085 62.86 70.7202 60.0484 70.7202 56.58C70.7202 53.1117 67.9085 50.3 64.4402 50.3C60.9718 50.3 58.1602 53.1117 58.1602 56.58C58.1602 60.0484 60.9718 62.86 64.4402 62.86Z" fill="url(#paint8_linear_4146_652)"/>
<path d="M64.4388 59.3001C65.941 59.3001 67.1588 58.0823 67.1588 56.5801C67.1588 55.0779 65.941 53.8601 64.4388 53.8601C62.9365 53.8601 61.7188 55.0779 61.7188 56.5801C61.7188 58.0823 62.9365 59.3001 64.4388 59.3001Z" fill="url(#paint9_linear_4146_652)"/>
<path d="M64.4416 58.67C65.5958 58.67 66.5316 57.7343 66.5316 56.58C66.5316 55.4257 65.5958 54.49 64.4416 54.49C63.2873 54.49 62.3516 55.4257 62.3516 56.58C62.3516 57.7343 63.2873 58.67 64.4416 58.67Z" fill="#414142"/>
<path d="M64.4395 58.7499C65.638 58.7499 66.6095 57.7784 66.6095 56.5799C66.6095 55.3815 65.638 54.4099 64.4395 54.4099C63.2411 54.4099 62.2695 55.3815 62.2695 56.5799C62.2695 57.7784 63.2411 58.7499 64.4395 58.7499Z" fill="#DBD2D1"/>
<path d="M64.4383 57.5301C64.9629 57.5301 65.3883 57.1048 65.3883 56.5801C65.3883 56.0555 64.9629 55.6301 64.4383 55.6301C63.9136 55.6301 63.4883 56.0555 63.4883 56.5801C63.4883 57.1048 63.9136 57.5301 64.4383 57.5301Z" fill="#C7B9C0"/>
<path d="M57.9912 53.6099C57.6806 54.2368 57.4842 54.9141 57.4112 55.6099C57.3986 55.7241 57.4101 55.8396 57.445 55.949C57.4799 56.0584 57.5374 56.1593 57.6138 56.2451C57.6901 56.3309 57.7836 56.3997 57.8883 56.447C57.9929 56.4944 58.1064 56.5192 58.2212 56.5199H70.7112C70.8265 56.5208 70.9407 56.497 71.0461 56.4502C71.1516 56.4034 71.2458 56.3346 71.3224 56.2485C71.3991 56.1623 71.4565 56.0608 71.4908 55.9507C71.5251 55.8405 71.5354 55.7244 71.5212 55.6099C71.3284 54.3455 70.7606 53.1681 69.8912 52.2299C69.2334 51.4696 68.4195 50.8599 67.505 50.4423C66.5904 50.0247 65.5966 49.809 64.5912 49.8099H64.2512C62.9565 49.7932 61.6832 50.1406 60.5764 50.8124C59.4696 51.4843 58.5738 52.4536 57.9912 53.6099Z" fill="#F36F56"/>
<path d="M20.7718 38.5301H35.8418C36.0068 38.5301 36.1702 38.4975 36.3225 38.434C36.4748 38.3706 36.6131 38.2776 36.7293 38.1605C36.8455 38.0433 36.9373 37.9044 36.9996 37.7515C37.0618 37.5987 37.0931 37.4351 37.0918 37.2701V31.3801C37.0931 31.2151 37.0618 31.0515 36.9996 30.8987C36.9373 30.7459 36.8455 30.6069 36.7293 30.4898C36.6131 30.3726 36.4748 30.2797 36.3225 30.2162C36.1702 30.1528 36.0068 30.1201 35.8418 30.1201H31.5518C30.1111 30.121 28.6851 30.4098 27.3577 30.9697C26.0302 31.5295 24.828 32.349 23.8218 33.3801L20.1818 37.1301C20.0664 37.2454 19.9881 37.3925 19.9567 37.5525C19.9253 37.7126 19.9424 37.8783 20.0058 38.0286C20.0691 38.1789 20.1758 38.3069 20.3123 38.3962C20.4487 38.4856 20.6087 38.5322 20.7718 38.5301Z" fill="#CBE6F8"/>
<path d="M20.7395 38.1001L24.3795 34.3601C25.3839 33.3259 26.5854 32.5036 27.9132 31.9419C29.2409 31.3802 30.6679 31.0906 32.1095 31.0901H36.3995C36.645 31.092 36.8846 31.1649 37.0895 31.3001C37.0716 30.9809 36.932 30.6806 36.6995 30.4611C36.467 30.2417 36.1593 30.1196 35.8395 30.1201H31.5495C30.1088 30.121 28.6828 30.4098 27.3554 30.9697C26.0279 31.5295 24.8257 32.349 23.8195 33.3801L20.1795 37.1301C20.0833 37.2321 20.0144 37.3568 19.9794 37.4926C19.9444 37.6284 19.9444 37.7709 19.9793 37.9067C20.0143 38.0425 20.0831 38.1672 20.1793 38.2693C20.2755 38.3713 20.396 38.4473 20.5295 38.4901C20.5629 38.3435 20.6355 38.2087 20.7395 38.1001Z" fill="#BFD7E5"/>
<path d="M51.5714 30.1201H41.9514C41.2555 30.1201 40.6914 30.6842 40.6914 31.3801V37.5301C40.6914 38.226 41.2555 38.7901 41.9514 38.7901H51.5714C52.2673 38.7901 52.8314 38.226 52.8314 37.5301V31.3801C52.8314 30.6842 52.2673 30.1201 51.5714 30.1201Z" fill="#CBE6F8"/>
<path d="M41.5305 38.4899V32.3399C41.5305 32.0057 41.6632 31.6853 41.8995 31.449C42.1358 31.2127 42.4563 31.0799 42.7905 31.0799H52.4005C52.5399 31.0819 52.6782 31.1055 52.8105 31.1499C52.7506 30.8659 52.5945 30.6113 52.3685 30.4291C52.1426 30.2469 51.8607 30.1483 51.5705 30.1499H41.9905C41.6571 30.1525 41.3381 30.2861 41.1024 30.5219C40.8667 30.7576 40.7331 31.0766 40.7305 31.4099V37.5599C40.7309 37.8246 40.814 38.0826 40.9682 38.2977C41.1224 38.5129 41.3399 38.6745 41.5905 38.7599C41.5581 38.6731 41.5379 38.5823 41.5305 38.4899Z" fill="#BFD7E5"/>
<path d="M65.1417 30.1201H55.5217C54.8258 30.1201 54.2617 30.6842 54.2617 31.3801V37.5301C54.2617 38.226 54.8258 38.7901 55.5217 38.7901H65.1417C65.8376 38.7901 66.4017 38.226 66.4017 37.5301V31.3801C66.4017 30.6842 65.8376 30.1201 65.1417 30.1201Z" fill="#CBE6F8"/>
<path d="M55.0913 38.4899V32.3399C55.0939 32.0065 55.2275 31.6876 55.4632 31.4518C55.6989 31.2161 56.0179 31.0825 56.3513 31.0799H65.9913C66.1306 31.0828 66.2688 31.1064 66.4013 31.1499C66.3397 30.8668 66.1831 30.6132 65.9575 30.4313C65.732 30.2494 65.451 30.1501 65.1613 30.1499H55.5413C55.2071 30.1499 54.8866 30.2827 54.6503 30.5189C54.414 30.7552 54.2813 31.0757 54.2813 31.4099V37.5599C54.2809 37.8234 54.3626 38.0804 54.5149 38.2954C54.6672 38.5105 54.8826 38.6728 55.1313 38.7599C55.1116 38.671 55.0982 38.5807 55.0913 38.4899Z" fill="#BFD7E5"/>
<path d="M28.0503 48.45C29.42 48.45 30.5303 47.3397 30.5303 45.97C30.5303 44.6003 29.42 43.49 28.0503 43.49C26.6806 43.49 25.5703 44.6003 25.5703 45.97C25.5703 47.3397 26.6806 48.45 28.0503 48.45Z" fill="#F36F56"/>
<path d="M18.23 48.45C19.5997 48.45 20.71 47.3397 20.71 45.97C20.71 44.6003 19.5997 43.49 18.23 43.49C16.8603 43.49 15.75 44.6003 15.75 45.97C15.75 47.3397 16.8603 48.45 18.23 48.45Z" fill="#F36F56"/>
<path d="M16.9488 48.45C18.3184 48.45 19.4288 47.3397 19.4288 45.97C19.4288 44.6003 18.3184 43.49 16.9488 43.49C15.5791 43.49 14.4688 44.6003 14.4688 45.97C14.4688 47.3397 15.5791 48.45 16.9488 48.45Z" fill="url(#paint10_linear_4146_652)"/>
<path d="M26.7691 48.45C28.1387 48.45 29.2491 47.3397 29.2491 45.97C29.2491 44.6003 28.1387 43.49 26.7691 43.49C25.3994 43.49 24.2891 44.6003 24.2891 45.97C24.2891 47.3397 25.3994 48.45 26.7691 48.45Z" fill="url(#paint11_linear_4146_652)"/>
<path d="M45.2003 41.76H42.0503C41.9233 41.76 41.8203 41.863 41.8203 41.99V42.42C41.8203 42.547 41.9233 42.65 42.0503 42.65H45.2003C45.3273 42.65 45.4303 42.547 45.4303 42.42V41.99C45.4303 41.863 45.3273 41.76 45.2003 41.76Z" fill="#F36F56"/>
<path d="M40.6914 39.27V47.7" stroke="#F37065" stroke-width="0.17" stroke-miterlimit="10"/>
<defs>
<linearGradient id="paint0_linear_4146_652" x1="23.4814" y1="62.1801" x2="23.4814" y2="49.6201" gradientUnits="userSpaceOnUse">
<stop stop-color="#414142"/>
<stop offset="0.09" stop-color="#403F40"/>
<stop offset="1" stop-color="#363435"/>
</linearGradient>
<linearGradient id="paint1_linear_4146_652" x1="20.75" y1="55.8999" x2="26.19" y2="55.8999" gradientUnits="userSpaceOnUse">
<stop stop-color="#D0D2D3"/>
<stop offset="0.37" stop-color="#BBBDBF"/>
<stop offset="1" stop-color="#C7B9C0"/>
</linearGradient>
<linearGradient id="paint2_linear_4146_652" x1="52.6081" y1="62.1801" x2="52.6081" y2="49.6201" gradientUnits="userSpaceOnUse">
<stop stop-color="#414142"/>
<stop offset="0.09" stop-color="#403F40"/>
<stop offset="1" stop-color="#363435"/>
</linearGradient>
<linearGradient id="paint3_linear_4146_652" x1="49.9006" y1="55.8999" x2="55.3306" y2="55.8999" gradientUnits="userSpaceOnUse">
<stop stop-color="#D0D2D3"/>
<stop offset="0.37" stop-color="#BBBDBF"/>
<stop offset="1" stop-color="#C7B9C0"/>
</linearGradient>
<linearGradient id="paint4_linear_4146_652" x1="12.5198" y1="41.3201" x2="71.1198" y2="41.3201" gradientUnits="userSpaceOnUse">
<stop offset="0.02" stop-color="#F69470"/>
<stop offset="1" stop-color="#F47959"/>
</linearGradient>
<linearGradient id="paint5_linear_4146_652" x1="13.8086" y1="54.6001" x2="72.4486" y2="54.6001" gradientUnits="userSpaceOnUse">
<stop stop-color="#D0D2D3"/>
<stop offset="0.37" stop-color="#BBBDBF"/>
<stop offset="1" stop-color="#C7B9C0"/>
</linearGradient>
<linearGradient id="paint6_linear_4146_652" x1="38.0417" y1="62.86" x2="38.0417" y2="50.3" gradientUnits="userSpaceOnUse">
<stop stop-color="#414142"/>
<stop offset="0.09" stop-color="#403F40"/>
<stop offset="1" stop-color="#363435"/>
</linearGradient>
<linearGradient id="paint7_linear_4146_652" x1="35.3303" y1="56.5801" x2="40.7603" y2="56.5801" gradientUnits="userSpaceOnUse">
<stop stop-color="#D0D2D3"/>
<stop offset="0.37" stop-color="#BBBDBF"/>
<stop offset="1" stop-color="#C7B9C0"/>
</linearGradient>
<linearGradient id="paint8_linear_4146_652" x1="64.4402" y1="62.86" x2="64.4402" y2="50.3" gradientUnits="userSpaceOnUse">
<stop stop-color="#414142"/>
<stop offset="0.09" stop-color="#403F40"/>
<stop offset="1" stop-color="#363435"/>
</linearGradient>
<linearGradient id="paint9_linear_4146_652" x1="61.7188" y1="56.5801" x2="67.1488" y2="56.5801" gradientUnits="userSpaceOnUse">
<stop stop-color="#D0D2D3"/>
<stop offset="0.37" stop-color="#BBBDBF"/>
<stop offset="1" stop-color="#C7B9C0"/>
</linearGradient>
<linearGradient id="paint10_linear_4146_652" x1="16.9588" y1="48.46" x2="16.9588" y2="43.49" gradientUnits="userSpaceOnUse">
<stop stop-color="#FCBC59"/>
<stop offset="0.63" stop-color="#FFD068"/>
<stop offset="1" stop-color="#FDD551"/>
</linearGradient>
<linearGradient id="paint11_linear_4146_652" x1="26.7791" y1="48.46" x2="26.7791" y2="43.49" gradientUnits="userSpaceOnUse">
<stop stop-color="#FCBC59"/>
<stop offset="0.63" stop-color="#FFD068"/>
<stop offset="1" stop-color="#FDD551"/>
</linearGradient>
</defs>
</svg>
