<svg width="86" height="86" viewBox="0 0 86 86" fill="none" xmlns="http://www.w3.org/2000/svg">
<path d="M43.1395 85.1499C66.5398 85.1499 85.5095 66.1802 85.5095 42.7799C85.5095 19.3796 66.5398 0.409912 43.1395 0.409912C19.7392 0.409912 0.769531 19.3796 0.769531 42.7799C0.769531 66.1802 19.7392 85.1499 43.1395 85.1499Z" fill="#3984C5"/>
<path d="M43.1419 71.72C57.8989 71.72 69.8619 59.7571 69.8619 45C69.8619 30.243 57.8989 18.28 43.1419 18.28C28.3848 18.28 16.4219 30.243 16.4219 45C16.4219 59.7571 28.3848 71.72 43.1419 71.72Z" fill="url(#paint0_linear_4146_656)"/>
<path d="M43.1383 60.9001C51.9196 60.9001 59.0383 53.7814 59.0383 45.0001C59.0383 36.2188 51.9196 29.1001 43.1383 29.1001C34.3569 29.1001 27.2383 36.2188 27.2383 45.0001C27.2383 53.7814 34.3569 60.9001 43.1383 60.9001Z" fill="white"/>
<path d="M43.1386 52.5299C48.2914 52.5299 52.4686 48.3527 52.4686 43.1999C52.4686 38.0471 48.2914 33.8699 43.1386 33.8699C37.9858 33.8699 33.8086 38.0471 33.8086 43.1999C33.8086 48.3527 37.9858 52.5299 43.1386 52.5299Z" fill="url(#paint1_linear_4146_656)"/>
<path d="M43.1686 48.6399C45.1869 48.6399 47.1225 49.4417 48.5497 50.8688C49.9768 52.296 50.7786 54.2316 50.7786 56.2499V63.8599H35.5586V56.2499C35.5586 54.2316 36.3604 52.296 37.7875 50.8688C39.2147 49.4417 41.1503 48.6399 43.1686 48.6399Z" fill="url(#paint2_linear_4146_656)"/>
<path d="M58.0309 30.2799C63.4544 30.2799 67.8509 25.8833 67.8509 20.4599C67.8509 15.0365 63.4544 10.6399 58.0309 10.6399C52.6075 10.6399 48.2109 15.0365 48.2109 20.4599C48.2109 25.8833 52.6075 30.2799 58.0309 30.2799Z" fill="white"/>
<path d="M55.4402 20.4599V16.7199C55.4389 16.6517 55.4561 16.5843 55.4899 16.525C55.5237 16.4656 55.5728 16.4165 55.6322 16.3827C55.6915 16.349 55.7589 16.3318 55.8271 16.3331C55.8954 16.3343 55.9621 16.354 56.0201 16.3899L59.2601 18.2599L62.5101 20.1299C62.5681 20.1645 62.6162 20.2136 62.6496 20.2723C62.6829 20.331 62.7005 20.3974 62.7005 20.4649C62.7005 20.5325 62.6829 20.5988 62.6496 20.6576C62.6162 20.7163 62.5681 20.7654 62.5101 20.7999L59.2601 22.7199L55.9901 24.5399C55.9316 24.5726 55.8655 24.5897 55.7984 24.5894C55.7313 24.5892 55.6655 24.5716 55.6071 24.5384C55.5488 24.5052 55.5001 24.4576 55.4655 24.4C55.431 24.3425 55.412 24.277 55.4102 24.2099L55.4402 20.4599Z" fill="#3984C5"/>
<path d="M26.1411 32.9751C26.1411 28.068 22.1632 24.0901 17.2561 24.0901C12.3491 24.0901 8.37109 28.068 8.37109 32.9751C8.37109 37.8821 12.3491 41.8601 17.2561 41.8601C22.1632 41.8601 26.1411 37.8821 26.1411 32.9751Z" fill="white"/>
<path d="M19.5611 33.72L19.8911 31.57H17.8211V30.17C17.806 30.0095 17.8274 29.8477 17.8837 29.6967C17.9399 29.5456 18.0296 29.4093 18.1459 29.2977C18.2623 29.1862 18.4023 29.1024 18.5556 29.0526C18.7088 29.0027 18.8714 28.9882 19.0311 29.0099H19.9911V27.18C19.4423 27.0881 18.8874 27.0379 18.3311 27.03C17.9462 26.9999 17.5593 27.055 17.1981 27.1912C16.8368 27.3275 16.51 27.5417 16.2408 27.8185C15.9717 28.0953 15.7667 28.428 15.6406 28.7929C15.5145 29.1578 15.4703 29.546 15.5111 29.93V31.57H13.6211V33.72H15.5111V38.92H17.8411V33.72H19.5611Z" fill="#3984C5"/>
<path d="M78.7387 54.855C78.7387 49.9479 74.7608 45.97 69.8537 45.97C64.9467 45.97 60.9688 49.9479 60.9688 54.855C60.9688 59.762 64.9467 63.74 69.8537 63.74C74.7608 63.74 78.7387 59.762 78.7387 54.855Z" fill="white"/>
<path d="M72.9487 50.3101H67.0287C66.1672 50.3101 65.4688 51.0085 65.4688 51.8701V58.0801C65.4688 58.9416 66.1672 59.6401 67.0287 59.6401H72.9487C73.8103 59.6401 74.5087 58.9416 74.5087 58.0801V51.8701C74.5087 51.0085 73.8103 50.3101 72.9487 50.3101Z" stroke="#3984C5" stroke-width="1.09" stroke-miterlimit="10"/>
<path d="M69.9895 56.94C71.0775 56.94 71.9595 56.058 71.9595 54.97C71.9595 53.882 71.0775 53 69.9895 53C68.9015 53 68.0195 53.882 68.0195 54.97C68.0195 56.058 68.9015 56.94 69.9895 56.94Z" stroke="#3984C5" stroke-width="1.09" stroke-miterlimit="10"/>
<path d="M33.8091 65.135C33.8091 60.2279 29.8311 56.25 24.9241 56.25C20.017 56.25 16.0391 60.2279 16.0391 65.135C16.0391 70.042 20.017 74.02 24.9241 74.02C29.8311 74.02 33.8091 70.042 33.8091 65.135Z" fill="white"/>
<path d="M19.6211 70.4701L20.3811 67.6301C19.8241 66.6225 19.6137 65.4598 19.7824 64.3209C19.9511 63.182 20.4894 62.1302 21.3146 61.3273C22.1398 60.5244 23.206 60.0151 24.349 59.8776C25.4921 59.7402 26.6487 59.9823 27.6406 60.5667C28.6326 61.1511 29.4049 62.0453 29.8387 63.1118C30.2726 64.1782 30.3438 65.3577 30.0415 66.4686C29.7392 67.5795 29.0802 68.5602 28.1658 69.2598C27.2514 69.9593 26.1324 70.3389 24.9811 70.3401C24.1087 70.3378 23.2503 70.1215 22.4811 69.7101L19.6211 70.4701ZM22.6211 68.6401L22.8011 68.7501C23.462 69.1392 24.2142 69.3462 24.9811 69.3501C25.9241 69.3437 26.8383 69.0246 27.5805 68.4428C28.3226 67.861 28.8508 67.0494 29.0821 66.1351C29.3134 65.2209 29.2348 64.2558 28.8587 63.391C28.4826 62.5263 27.8301 61.8108 27.0036 61.3566C26.1771 60.9025 25.2233 60.7355 24.2917 60.8817C23.3601 61.0279 22.5033 61.4791 21.8557 62.1646C21.2081 62.8501 20.8062 63.7311 20.7131 64.6695C20.6199 65.6079 20.8408 66.5507 21.3411 67.3501L21.4511 67.5301L21.0311 69.1201L22.6211 68.6401Z" fill="#3984C5"/>
<path fill-rule="evenodd" clip-rule="evenodd" d="M26.9294 65.82C26.8266 65.7347 26.7051 65.6749 26.5747 65.6454C26.4444 65.6158 26.309 65.6174 26.1794 65.65C25.9894 65.73 25.8594 66.04 25.7294 66.19C25.7031 66.2271 25.6638 66.2529 25.6192 66.2622C25.5747 66.2715 25.5283 66.2636 25.4894 66.24C24.7772 65.9593 24.1789 65.4491 23.7894 64.79C23.7521 64.751 23.7313 64.699 23.7313 64.645C23.7313 64.591 23.7521 64.5391 23.7894 64.5C23.9314 64.3606 24.0377 64.1891 24.0994 64C24.1079 63.7942 24.0594 63.5901 23.9594 63.41C23.8805 63.1517 23.7275 62.9222 23.5194 62.75C23.414 62.7003 23.2965 62.6823 23.181 62.6983C23.0656 62.7143 22.9573 62.7635 22.8694 62.84C22.7258 62.9642 22.6104 63.1177 22.5311 63.2902C22.4518 63.4627 22.4103 63.6502 22.4094 63.84C22.3948 63.9529 22.3948 64.0672 22.4094 64.18C22.4764 64.4389 22.5844 64.6854 22.7294 64.91C22.8277 65.0873 22.9379 65.2577 23.0594 65.42C23.4544 65.9537 23.9463 66.4083 24.5094 66.76C24.792 66.9372 25.094 67.0815 25.4094 67.19C25.7377 67.3404 26.1005 67.3992 26.4594 67.36C26.663 67.3263 26.8555 67.2442 27.0208 67.1207C27.1862 66.9971 27.3194 66.8357 27.4094 66.65C27.46 66.5372 27.4773 66.4123 27.4594 66.29C27.4694 66.09 27.1294 65.94 26.9294 65.82Z" fill="#3984C5"/>
<defs>
<linearGradient id="paint0_linear_4146_656" x1="16.4219" y1="45" x2="69.8619" y2="45" gradientUnits="userSpaceOnUse">
<stop offset="0.04" stop-color="#FFDE71"/>
<stop offset="1" stop-color="#F8E883"/>
</linearGradient>
<linearGradient id="paint1_linear_4146_656" x1="29.5586" y1="43.3099" x2="60.8986" y2="43.0499" gradientUnits="userSpaceOnUse">
<stop offset="0.04" stop-color="#FFDE71"/>
<stop offset="1" stop-color="#F8E883"/>
</linearGradient>
<linearGradient id="paint2_linear_4146_656" x1="35.5586" y1="56.2499" x2="55.3086" y2="56.2499" gradientUnits="userSpaceOnUse">
<stop offset="0.04" stop-color="#FFDE71"/>
<stop offset="1" stop-color="#F8E883"/>
</linearGradient>
</defs>
</svg>
