<svg width="1158" height="1015" viewBox="0 0 1158 1015" fill="none" xmlns="http://www.w3.org/2000/svg">
<path d="M2.43068 790.74L4.3207 789.64C4.40736 789.592 4.50673 789.572 4.6052 789.583C4.70367 789.594 4.7964 789.634 4.87069 789.7L6.50069 791.17C6.57008 791.23 6.65666 791.268 6.74825 791.276C6.83984 791.285 6.93184 791.265 7.01131 791.218C7.09078 791.172 7.15372 791.102 7.19127 791.018C7.22883 790.934 7.23912 790.84 7.22069 790.75L6.7707 788.61C6.74677 788.513 6.75532 788.41 6.79503 788.318C6.83475 788.226 6.90346 788.149 6.9907 788.1L8.89069 787.01C8.97193 786.963 9.0362 786.892 9.07413 786.807C9.11207 786.721 9.12169 786.625 9.10161 786.534C9.08153 786.442 9.03281 786.36 8.9625 786.298C8.89219 786.236 8.80398 786.198 8.7107 786.19L6.53069 785.96C6.43257 785.948 6.34054 785.906 6.26716 785.84C6.19377 785.774 6.14261 785.686 6.12069 785.59L5.67069 783.45C5.65111 783.36 5.60362 783.278 5.53496 783.216C5.4663 783.154 5.37994 783.116 5.28812 783.106C5.1963 783.096 5.10369 783.115 5.02338 783.161C4.94308 783.206 4.87916 783.276 4.84069 783.36L3.95069 785.36C3.90806 785.449 3.83914 785.522 3.75327 785.571C3.6674 785.619 3.56874 785.64 3.47069 785.63L1.29068 785.4C1.19945 785.395 1.10888 785.418 1.03101 785.466C0.95314 785.514 0.891663 785.584 0.854756 785.668C0.817849 785.751 0.807254 785.844 0.824391 785.934C0.841527 786.023 0.885581 786.106 0.950688 786.17L2.58069 787.63C2.65396 787.697 2.70482 787.784 2.72631 787.881C2.74779 787.978 2.73884 788.079 2.70069 788.17L1.81069 790.17C1.76968 790.255 1.75713 790.351 1.77488 790.444C1.79262 790.537 1.83973 790.621 1.90924 790.685C1.97876 790.749 2.06698 790.789 2.16088 790.799C2.25478 790.809 2.34937 790.788 2.43068 790.74Z" fill="#FFD788"/>
<path d="M939.161 674.2L941.061 673.11C941.141 673.052 941.237 673.021 941.336 673.021C941.434 673.021 941.531 673.052 941.611 673.11L943.231 674.58C943.299 674.645 943.387 674.686 943.481 674.696C943.575 674.707 943.67 674.688 943.752 674.641C943.833 674.594 943.898 674.522 943.936 674.435C943.973 674.348 943.982 674.252 943.961 674.16L943.501 672.02C943.481 671.923 943.492 671.822 943.531 671.731C943.571 671.64 943.637 671.563 943.721 671.51L945.621 670.42C945.702 670.374 945.766 670.304 945.804 670.219C945.843 670.134 945.853 670.039 945.834 669.948C945.815 669.857 945.768 669.774 945.699 669.712C945.63 669.649 945.543 669.61 945.451 669.6L943.271 669.37C943.173 669.36 943.082 669.32 943.008 669.256C942.935 669.191 942.883 669.105 942.861 669.01L942.401 666.86C942.38 666.77 942.331 666.689 942.262 666.629C942.193 666.568 942.106 666.531 942.014 666.522C941.923 666.513 941.831 666.533 941.751 666.58C941.671 666.626 941.608 666.696 941.571 666.78L940.681 668.78C940.641 668.869 940.574 668.943 940.49 668.992C940.405 669.04 940.308 669.061 940.211 669.05L938.031 668.83C937.939 668.822 937.848 668.842 937.769 668.889C937.689 668.935 937.627 669.005 937.589 669.089C937.552 669.172 937.541 669.266 937.56 669.356C937.578 669.445 937.624 669.527 937.691 669.59L939.321 671.05C939.392 671.118 939.441 671.206 939.461 671.303C939.481 671.399 939.47 671.5 939.431 671.59L938.541 673.59C938.479 673.675 938.45 673.78 938.459 673.884C938.468 673.989 938.514 674.087 938.589 674.161C938.664 674.235 938.763 674.279 938.868 674.286C938.973 674.293 939.077 674.263 939.161 674.2Z" fill="#FFD788"/>
<path d="M233.86 838.08L235.94 836.87C236.034 836.818 236.142 836.796 236.249 836.806C236.357 836.817 236.458 836.86 236.54 836.93L238.33 838.54C238.406 838.608 238.501 838.65 238.602 838.661C238.703 838.671 238.805 838.649 238.893 838.598C238.981 838.547 239.05 838.469 239.091 838.376C239.132 838.283 239.142 838.179 239.12 838.08L238.62 835.73C238.595 835.625 238.605 835.514 238.648 835.415C238.692 835.316 238.766 835.233 238.86 835.18L241 834C241.085 833.947 241.152 833.869 241.191 833.776C241.23 833.684 241.24 833.582 241.219 833.484C241.198 833.386 241.148 833.296 241.075 833.228C241.002 833.159 240.909 833.114 240.81 833.1L238.41 832.85C238.304 832.839 238.203 832.795 238.124 832.723C238.045 832.651 237.991 832.555 237.97 832.45L237.46 830.09C237.439 829.991 237.386 829.9 237.311 829.833C237.235 829.765 237.139 829.723 237.038 829.713C236.937 829.703 236.835 829.725 236.747 829.777C236.659 829.828 236.59 829.907 236.55 830L235.55 832.2C235.502 832.298 235.426 832.378 235.331 832.432C235.237 832.485 235.128 832.509 235.02 832.5L232.63 832.25C232.528 832.238 232.425 832.259 232.336 832.31C232.246 832.361 232.176 832.439 232.134 832.533C232.093 832.627 232.083 832.732 232.106 832.832C232.128 832.933 232.182 833.023 232.26 833.09L234.05 834.69C234.129 834.764 234.183 834.86 234.204 834.966C234.226 835.072 234.214 835.181 234.17 835.28L233.17 837.48C233.136 837.573 233.132 837.674 233.156 837.77C233.181 837.866 233.235 837.952 233.309 838.017C233.384 838.082 233.476 838.123 233.575 838.134C233.673 838.145 233.773 838.126 233.86 838.08Z" fill="#FFD788"/>
<path d="M166.859 685L167.919 681.75C167.967 681.604 168.059 681.476 168.183 681.385C168.306 681.293 168.455 681.243 168.609 681.24H171.999C172.143 681.24 172.282 681.195 172.399 681.11C172.515 681.026 172.601 680.907 172.646 680.77C172.69 680.634 172.69 680.487 172.646 680.35C172.602 680.214 172.515 680.095 172.399 680.01L169.639 678.01C169.513 677.92 169.418 677.792 169.37 677.644C169.321 677.497 169.321 677.338 169.369 677.19L170.429 673.94C170.47 673.803 170.467 673.656 170.42 673.52C170.374 673.384 170.286 673.266 170.17 673.182C170.053 673.099 169.913 673.054 169.77 673.053C169.626 673.053 169.486 673.097 169.369 673.18L166.609 675.18C166.483 675.268 166.333 675.316 166.179 675.316C166.025 675.316 165.875 675.268 165.749 675.18L162.989 673.18C162.873 673.112 162.739 673.081 162.605 673.089C162.471 673.097 162.342 673.145 162.235 673.226C162.128 673.308 162.048 673.419 162.004 673.546C161.96 673.673 161.955 673.81 161.989 673.94L162.989 677.19C163.036 677.337 163.037 677.495 162.99 677.642C162.944 677.789 162.852 677.918 162.729 678.01L159.999 680C159.882 680.085 159.795 680.205 159.751 680.343C159.707 680.48 159.708 680.628 159.754 680.765C159.799 680.902 159.887 681.021 160.005 681.105C160.123 681.188 160.265 681.232 160.409 681.23H163.819C163.974 681.231 164.126 681.28 164.251 681.372C164.377 681.463 164.471 681.592 164.519 681.74L165.569 684.99C165.613 685.126 165.699 685.244 165.814 685.328C165.929 685.413 166.068 685.459 166.21 685.46C166.353 685.461 166.492 685.417 166.609 685.335C166.725 685.252 166.813 685.135 166.859 685Z" fill="#FFD788"/>
<path d="M320.149 689.73L318.839 686.83C318.782 686.699 318.767 686.553 318.798 686.412C318.829 686.272 318.903 686.146 319.009 686.05L321.359 683.91C321.462 683.821 321.533 683.701 321.562 683.568C321.591 683.436 321.577 683.297 321.52 683.173C321.464 683.05 321.369 682.947 321.25 682.882C321.131 682.816 320.994 682.791 320.859 682.81L317.7 683.15C317.558 683.169 317.414 683.141 317.289 683.07C317.165 683 317.067 682.891 317.009 682.76L315.7 679.86C315.642 679.741 315.549 679.642 315.434 679.578C315.318 679.513 315.185 679.486 315.054 679.501C314.922 679.515 314.798 679.57 314.699 679.657C314.599 679.745 314.53 679.861 314.499 679.99L313.849 683.1C313.821 683.241 313.748 683.369 313.642 683.466C313.536 683.563 313.402 683.624 313.259 683.64L310.099 683.99C309.965 684.003 309.839 684.059 309.739 684.149C309.639 684.24 309.571 684.359 309.544 684.491C309.517 684.623 309.533 684.761 309.59 684.883C309.647 685.005 309.741 685.106 309.859 685.17L312.619 686.75C312.743 686.823 312.84 686.932 312.898 687.063C312.955 687.194 312.97 687.34 312.939 687.48L312.299 690.59C312.275 690.721 312.292 690.856 312.348 690.977C312.403 691.097 312.496 691.198 312.611 691.264C312.726 691.33 312.86 691.358 312.992 691.345C313.124 691.332 313.249 691.278 313.349 691.19L315.7 689.05C315.805 688.953 315.939 688.892 316.081 688.878C316.224 688.864 316.367 688.896 316.489 688.97L319.249 690.54C319.366 690.605 319.5 690.632 319.633 690.617C319.765 690.602 319.89 690.546 319.989 690.456C320.088 690.367 320.157 690.249 320.186 690.119C320.214 689.989 320.202 689.853 320.149 689.73Z" fill="#FFD788"/>
<path d="M810.35 810.33L811.13 807.93C811.165 807.823 811.234 807.729 811.325 807.663C811.417 807.597 811.527 807.561 811.64 807.56H814.16C814.267 807.563 814.373 807.531 814.461 807.469C814.549 807.408 814.615 807.319 814.649 807.217C814.683 807.115 814.682 807.004 814.648 806.902C814.614 806.8 814.548 806.712 814.46 806.65L812.46 805.16C812.368 805.094 812.299 805 812.263 804.892C812.227 804.785 812.226 804.668 812.26 804.56L813.04 802.16C813.076 802.058 813.078 801.947 813.045 801.844C813.013 801.74 812.948 801.65 812.86 801.587C812.772 801.524 812.666 801.491 812.558 801.494C812.45 801.496 812.345 801.533 812.26 801.6L810.26 803.08C810.169 803.147 810.058 803.184 809.945 803.184C809.832 803.184 809.721 803.147 809.63 803.08L807.63 801.6C807.545 801.533 807.44 801.496 807.332 801.494C807.224 801.491 807.118 801.524 807.03 801.587C806.942 801.65 806.877 801.74 806.844 801.844C806.812 801.947 806.814 802.058 806.85 802.16L807.63 804.56C807.663 804.667 807.663 804.783 807.629 804.89C807.595 804.997 807.529 805.091 807.44 805.16L805.39 806.65C805.302 806.712 805.235 806.8 805.201 806.902C805.167 807.004 805.167 807.115 805.201 807.217C805.235 807.319 805.3 807.408 805.389 807.469C805.477 807.531 805.582 807.563 805.69 807.56H808.21C808.324 807.56 808.436 807.596 808.529 807.662C808.622 807.728 808.692 807.822 808.73 807.93L809.51 810.33C809.555 810.4 809.617 810.458 809.691 810.498C809.764 810.538 809.846 810.559 809.93 810.559C810.013 810.559 810.096 810.538 810.169 810.498C810.242 810.458 810.305 810.4 810.35 810.33Z" fill="#FFD788"/>
<path d="M1119 740.86L1119.78 738.47C1119.81 738.36 1119.88 738.264 1119.97 738.195C1120.06 738.127 1120.17 738.09 1120.29 738.09H1122.81C1122.92 738.091 1123.02 738.058 1123.11 737.995C1123.19 737.932 1123.26 737.844 1123.29 737.742C1123.32 737.64 1123.32 737.531 1123.29 737.43C1123.25 737.329 1123.19 737.241 1123.1 737.18L1121.1 735.7C1121.01 735.634 1120.94 735.54 1120.9 735.432C1120.87 735.325 1120.87 735.208 1120.9 735.1L1121.68 732.71C1121.72 732.608 1121.72 732.497 1121.68 732.394C1121.65 732.29 1121.59 732.2 1121.5 732.137C1121.41 732.074 1121.31 732.041 1121.2 732.044C1121.09 732.046 1120.98 732.083 1120.9 732.15L1118.9 733.62C1118.81 733.689 1118.7 733.726 1118.58 733.726C1118.47 733.726 1118.36 733.689 1118.27 733.62L1116.27 732.15C1116.18 732.083 1116.08 732.046 1115.97 732.044C1115.86 732.041 1115.76 732.074 1115.67 732.137C1115.58 732.2 1115.52 732.29 1115.48 732.394C1115.45 732.497 1115.45 732.608 1115.49 732.71L1116.27 735.1C1116.31 735.207 1116.31 735.323 1116.27 735.431C1116.24 735.539 1116.17 735.633 1116.08 735.7L1114.08 737.18C1113.99 737.242 1113.92 737.33 1113.89 737.432C1113.86 737.534 1113.86 737.645 1113.89 737.747C1113.92 737.849 1113.99 737.938 1114.08 738C1114.17 738.061 1114.27 738.093 1114.38 738.09H1116.89C1117 738.09 1117.12 738.127 1117.21 738.195C1117.3 738.264 1117.37 738.36 1117.4 738.47L1118.18 740.86C1118.23 740.924 1118.29 740.976 1118.36 741.012C1118.43 741.048 1118.51 741.067 1118.59 741.067C1118.67 741.067 1118.75 741.048 1118.82 741.012C1118.89 740.976 1118.95 740.924 1119 740.86Z" fill="#FFD788"/>
<path d="M489.001 561.47L491.291 560.15C491.394 560.09 491.514 560.064 491.632 560.077C491.751 560.089 491.863 560.139 491.951 560.22L493.951 561.98C494.034 562.053 494.138 562.098 494.248 562.109C494.358 562.12 494.469 562.097 494.565 562.041C494.661 561.986 494.737 561.903 494.783 561.802C494.829 561.701 494.842 561.589 494.821 561.48L494.271 558.9C494.246 558.783 494.259 558.661 494.307 558.551C494.356 558.442 494.437 558.35 494.541 558.29L496.821 556.97C496.933 556.923 497.025 556.839 497.081 556.732C497.138 556.625 497.155 556.502 497.13 556.383C497.105 556.265 497.04 556.158 496.945 556.083C496.85 556.008 496.732 555.968 496.611 555.97L493.991 555.69C493.873 555.679 493.761 555.631 493.673 555.551C493.584 555.472 493.524 555.366 493.501 555.25L492.951 552.67C492.927 552.561 492.87 552.462 492.788 552.388C492.705 552.313 492.601 552.266 492.49 552.254C492.38 552.242 492.268 552.265 492.171 552.32C492.074 552.375 491.997 552.459 491.951 552.56L490.831 555C490.782 555.107 490.7 555.197 490.598 555.256C490.496 555.315 490.378 555.341 490.261 555.33L487.641 555.05C487.53 555.039 487.418 555.063 487.321 555.119C487.224 555.174 487.148 555.26 487.103 555.362C487.057 555.464 487.045 555.577 487.068 555.687C487.091 555.796 487.148 555.895 487.231 555.97L489.231 557.74C489.32 557.818 489.381 557.922 489.406 558.037C489.432 558.152 489.419 558.272 489.371 558.38L488.291 560.8C488.254 560.898 488.248 561.004 488.271 561.105C488.295 561.207 488.348 561.299 488.424 561.37C488.499 561.442 488.595 561.489 488.697 561.507C488.8 561.525 488.905 561.512 489.001 561.47Z" fill="#FFD788"/>
<path d="M345.598 527L347.498 525.9C347.584 525.851 347.684 525.83 347.783 525.841C347.882 525.851 347.975 525.893 348.048 525.96L349.678 527.42C349.747 527.479 349.832 527.515 349.923 527.524C350.013 527.533 350.104 527.513 350.183 527.469C350.261 527.424 350.324 527.356 350.363 527.273C350.402 527.191 350.414 527.099 350.398 527.01L349.938 524.86C349.918 524.763 349.929 524.662 349.97 524.572C350.012 524.482 350.081 524.407 350.168 524.36L352.058 523.26C352.141 523.217 352.208 523.147 352.248 523.062C352.288 522.978 352.299 522.882 352.28 522.791C352.26 522.699 352.212 522.616 352.141 522.555C352.071 522.493 351.982 522.456 351.888 522.45L349.708 522.22C349.61 522.209 349.517 522.168 349.443 522.102C349.37 522.035 349.319 521.947 349.298 521.85L348.838 519.71C348.819 519.62 348.771 519.538 348.703 519.476C348.634 519.414 348.548 519.376 348.456 519.366C348.364 519.356 348.271 519.375 348.191 519.421C348.111 519.466 348.047 519.536 348.008 519.62L347.118 521.62C347.08 521.711 347.014 521.787 346.929 521.837C346.845 521.888 346.746 521.91 346.648 521.9L344.468 521.67C344.377 521.662 344.285 521.682 344.206 521.728C344.127 521.775 344.064 521.845 344.027 521.929C343.989 522.012 343.979 522.106 343.997 522.196C344.015 522.285 344.061 522.367 344.128 522.43L345.758 523.9C345.832 523.966 345.883 524.054 345.903 524.152C345.923 524.249 345.911 524.35 345.868 524.44L344.978 526.44C344.941 526.525 344.931 526.619 344.951 526.709C344.97 526.8 345.017 526.882 345.086 526.944C345.155 527.006 345.241 527.045 345.333 527.055C345.425 527.065 345.518 527.046 345.598 527Z" fill="#FFD788"/>
<path d="M947.1 443.61L949 442.52C949.085 442.469 949.184 442.447 949.283 442.456C949.382 442.465 949.476 442.505 949.55 442.57L951.17 444.04C951.239 444.105 951.327 444.146 951.421 444.156C951.514 444.167 951.609 444.148 951.691 444.101C951.773 444.054 951.837 443.982 951.875 443.895C951.913 443.808 951.922 443.712 951.9 443.62L951.44 441.48C951.421 441.383 951.432 441.282 951.471 441.191C951.51 441.1 951.576 441.023 951.66 440.97L953.56 439.88C953.641 439.834 953.705 439.764 953.744 439.679C953.782 439.594 953.793 439.499 953.774 439.408C953.755 439.317 953.708 439.234 953.639 439.172C953.57 439.109 953.483 439.07 953.39 439.06L951.21 438.83C951.113 438.82 951.021 438.78 950.948 438.716C950.874 438.651 950.823 438.565 950.8 438.47L950.34 436.32C950.319 436.23 950.271 436.149 950.201 436.089C950.132 436.028 950.046 435.991 949.954 435.982C949.862 435.973 949.77 435.993 949.691 436.04C949.611 436.086 949.548 436.156 949.51 436.24L948.62 438.24C948.581 438.329 948.514 438.403 948.429 438.452C948.345 438.5 948.247 438.521 948.15 438.51L945.97 438.29C945.879 438.282 945.787 438.302 945.708 438.348C945.629 438.395 945.566 438.465 945.529 438.549C945.491 438.632 945.481 438.726 945.499 438.816C945.517 438.905 945.563 438.987 945.63 439.05L947.26 440.51C947.332 440.578 947.381 440.666 947.4 440.763C947.42 440.859 947.41 440.96 947.37 441.05L946.48 443.05C946.443 443.135 946.433 443.229 946.453 443.319C946.472 443.41 946.519 443.492 946.588 443.554C946.657 443.616 946.743 443.655 946.835 443.665C946.927 443.675 947.02 443.656 947.1 443.61Z" fill="#FFD788"/>
<path d="M107.128 487.12L109.218 485.91C109.313 485.858 109.422 485.836 109.53 485.849C109.637 485.861 109.738 485.907 109.818 485.98L111.598 487.59C111.675 487.656 111.771 487.696 111.871 487.705C111.972 487.714 112.073 487.692 112.16 487.642C112.248 487.591 112.318 487.515 112.36 487.424C112.403 487.332 112.416 487.229 112.398 487.13L111.898 484.77C111.875 484.665 111.886 484.555 111.929 484.456C111.972 484.357 112.045 484.275 112.138 484.22L114.218 483.02C114.309 482.971 114.382 482.893 114.425 482.799C114.468 482.706 114.48 482.6 114.459 482.499C114.437 482.398 114.384 482.307 114.306 482.238C114.229 482.17 114.131 482.128 114.028 482.12L111.638 481.87C111.531 481.86 111.429 481.815 111.348 481.743C111.267 481.672 111.211 481.576 111.188 481.47L110.688 479.12C110.668 479.02 110.617 478.929 110.542 478.86C110.467 478.791 110.371 478.748 110.27 478.737C110.169 478.725 110.066 478.747 109.978 478.798C109.889 478.849 109.819 478.927 109.778 479.02L108.778 481.22C108.733 481.318 108.659 481.399 108.566 481.453C108.473 481.506 108.365 481.53 108.258 481.52L105.868 481.27C105.766 481.258 105.663 481.279 105.574 481.33C105.485 481.381 105.414 481.459 105.373 481.553C105.331 481.647 105.321 481.752 105.344 481.852C105.366 481.953 105.421 482.043 105.498 482.11L107.278 483.72C107.36 483.792 107.417 483.888 107.44 483.994C107.463 484.1 107.452 484.211 107.408 484.31L106.408 486.5C106.346 486.597 106.321 486.714 106.338 486.828C106.355 486.942 106.412 487.046 106.5 487.122C106.587 487.197 106.699 487.238 106.814 487.238C106.93 487.238 107.041 487.196 107.128 487.12Z" fill="#FFD788"/>
<path d="M39.7413 341.35L40.8013 338.1C40.8467 337.953 40.9385 337.825 41.0629 337.735C41.1873 337.645 41.3376 337.597 41.4913 337.6H44.9113C45.0544 337.597 45.1929 337.549 45.3076 337.463C45.4223 337.378 45.5076 337.258 45.5515 337.122C45.5955 336.986 45.596 336.839 45.5529 336.703C45.5099 336.566 45.4254 336.446 45.3113 336.36L42.5413 334.36C42.4175 334.27 42.3256 334.143 42.2788 333.998C42.2321 333.852 42.2329 333.695 42.2813 333.55L43.3413 330.3C43.3853 330.162 43.3847 330.013 43.3395 329.875C43.2943 329.737 43.2068 329.617 43.0894 329.532C42.972 329.447 42.8308 329.401 42.6857 329.4C42.5406 329.4 42.3991 329.445 42.2813 329.53L39.5213 331.53C39.397 331.623 39.2462 331.673 39.0913 331.673C38.9363 331.673 38.7855 331.623 38.6613 331.53L35.9013 329.53C35.7834 329.445 35.6419 329.4 35.4968 329.4C35.3518 329.401 35.2105 329.447 35.0931 329.532C34.9757 329.617 34.8882 329.737 34.843 329.875C34.7978 330.013 34.7972 330.162 34.8413 330.3L35.9013 333.55C35.9496 333.695 35.9504 333.852 35.9037 333.998C35.8569 334.143 35.765 334.27 35.6413 334.36L32.8713 336.36C32.7571 336.446 32.6727 336.566 32.6296 336.703C32.5865 336.839 32.587 336.986 32.631 337.122C32.6749 337.258 32.7602 337.378 32.8749 337.463C32.9896 337.549 33.1281 337.597 33.2713 337.6H36.6913C36.8449 337.597 36.9952 337.645 37.1196 337.735C37.244 337.825 37.3358 337.953 37.3813 338.1L38.4413 341.35C38.484 341.489 38.5702 341.611 38.6872 341.697C38.8042 341.784 38.9458 341.83 39.0913 341.83C39.2367 341.83 39.3783 341.784 39.4953 341.697C39.6123 341.611 39.6985 341.489 39.7413 341.35Z" fill="#FFD788"/>
<path d="M831.271 17.6801L830.001 14.7801C829.941 14.649 829.926 14.5025 829.957 14.362C829.987 14.2216 830.062 14.0947 830.171 14.0001L832.521 11.8601C832.623 11.7711 832.694 11.6512 832.723 11.5184C832.752 11.3857 832.738 11.247 832.681 11.1233C832.625 10.9996 832.53 10.8973 832.411 10.8319C832.292 10.7664 832.155 10.7412 832.021 10.7601L828.861 11.1001C828.719 11.1139 828.577 11.0838 828.454 11.014C828.331 10.9443 828.232 10.8381 828.171 10.7101L826.861 7.8101C826.808 7.6852 826.716 7.58062 826.6 7.51187C826.483 7.44312 826.347 7.41387 826.212 7.42847C826.077 7.44307 825.951 7.50073 825.852 7.5929C825.752 7.68507 825.685 7.80682 825.661 7.94009L825.001 11.0501C824.97 11.1902 824.897 11.3175 824.792 11.4143C824.686 11.5111 824.553 11.5725 824.411 11.5901L821.251 11.9301C821.117 11.9466 820.993 12.0047 820.894 12.0959C820.796 12.1872 820.729 12.3071 820.702 12.4387C820.676 12.5703 820.691 12.7069 820.746 12.8291C820.802 12.9514 820.894 13.0532 821.011 13.1201L823.771 14.7001C823.893 14.7709 823.99 14.8787 824.048 15.0081C824.105 15.1374 824.12 15.2817 824.091 15.4201L823.451 18.5401C823.426 18.6708 823.443 18.8059 823.499 18.9267C823.555 19.0474 823.647 19.1477 823.762 19.2137C823.878 19.2797 824.011 19.3081 824.143 19.2949C824.275 19.2817 824.4 19.2276 824.501 19.1401L826.821 17.0001C826.926 16.9041 827.059 16.8438 827.201 16.8276C827.343 16.8114 827.486 16.8403 827.611 16.9101L830.371 18.4901C830.487 18.555 830.621 18.5818 830.754 18.5668C830.886 18.5518 831.011 18.4958 831.11 18.4065C831.209 18.3173 831.278 18.1993 831.307 18.0691C831.335 17.9388 831.323 17.8028 831.271 17.6801Z" fill="#FFD788"/>
<path d="M79.3798 9.14001C79.5229 9.13661 79.6614 9.08877 79.7762 9.00313C79.8909 8.91749 79.9761 8.79829 80.0201 8.66204C80.064 8.52579 80.0645 8.37924 80.0215 8.24271C79.9784 8.10617 79.894 7.98641 79.7798 7.90001L77.0198 5.90001C76.8958 5.8078 76.8033 5.67953 76.755 5.53275C76.7067 5.38598 76.7048 5.22786 76.7498 5.08001L77.8098 1.83001C77.8551 1.69293 77.8555 1.54498 77.8111 1.40761C77.7667 1.27024 77.6797 1.15057 77.5628 1.06592C77.4458 0.98127 77.305 0.936041 77.1606 0.936776C77.0163 0.937512 76.8759 0.984176 76.7598 1.07001L73.9898 3.07001C73.8655 3.16254 73.7147 3.21252 73.5598 3.21252C73.4049 3.21252 73.2541 3.16254 73.1298 3.07001L70.3698 1.07001C70.2537 0.984176 70.1133 0.937512 69.969 0.936776C69.8246 0.936041 69.6837 0.98127 69.5668 1.06592C69.4498 1.15057 69.3629 1.27024 69.3185 1.40761C69.2741 1.54498 69.2745 1.69293 69.3198 1.83001L70.3698 5.08001C70.4173 5.22674 70.4178 5.38465 70.3712 5.53167C70.3246 5.67869 70.2332 5.80747 70.1098 5.90001L67.3398 7.90001C67.225 7.98694 67.1403 8.1076 67.0976 8.24507C67.0548 8.38255 67.0561 8.52996 67.1013 8.66666C67.1465 8.80335 67.2333 8.92249 67.3496 9.00737C67.4659 9.09225 67.6058 9.13863 67.7498 9.14001H71.1598C71.3153 9.14072 71.4666 9.19036 71.5922 9.28191C71.7179 9.37346 71.8115 9.50225 71.8598 9.65001L72.8598 12.89C72.9025 13.0291 72.9887 13.1507 73.1057 13.2372C73.2227 13.3236 73.3643 13.3703 73.5098 13.3703C73.6553 13.3703 73.7969 13.3236 73.9139 13.2372C74.0309 13.1507 74.1171 13.0291 74.1598 12.89L75.2198 9.65001" fill="#FFD788"/>
<path d="M763.001 558.58L763.781 556.18C763.813 556.07 763.881 555.974 763.973 555.905C764.064 555.837 764.176 555.8 764.291 555.8H766.811C766.918 555.803 767.024 555.771 767.112 555.709C767.2 555.648 767.266 555.559 767.3 555.457C767.333 555.355 767.333 555.244 767.299 555.142C767.265 555.04 767.199 554.952 767.111 554.89L765.111 553.41C765.019 553.344 764.95 553.25 764.914 553.142C764.878 553.035 764.877 552.918 764.911 552.81L765.691 550.41C765.727 550.309 765.73 550.199 765.699 550.096C765.668 549.993 765.605 549.902 765.518 549.838C765.432 549.774 765.327 549.74 765.219 549.74C765.112 549.741 765.007 549.776 764.921 549.84L762.921 551.32C762.83 551.389 762.72 551.426 762.606 551.426C762.492 551.426 762.381 551.389 762.291 551.32L760.291 549.84C760.204 549.779 760.099 549.746 759.993 549.747C759.886 549.748 759.783 549.782 759.696 549.845C759.61 549.908 759.546 549.997 759.513 550.098C759.48 550.199 759.479 550.308 759.511 550.41L760.291 552.81C760.324 552.917 760.324 553.033 760.29 553.14C760.256 553.247 760.19 553.341 760.101 553.41L758.101 554.89C758.013 554.952 757.946 555.04 757.912 555.142C757.878 555.244 757.878 555.355 757.912 555.457C757.946 555.559 758.011 555.648 758.099 555.709C758.188 555.771 758.293 555.803 758.401 555.8H760.921C761.036 555.801 761.149 555.838 761.242 555.906C761.336 555.974 761.405 556.07 761.441 556.18L762.221 558.58C762.269 558.637 762.328 558.682 762.396 558.714C762.463 558.745 762.537 558.761 762.611 558.761C762.685 558.761 762.759 558.745 762.826 558.714C762.893 558.682 762.953 558.637 763.001 558.58Z" fill="#FFD788"/>
<path d="M1144.33 240.14L1145.11 237.74C1145.14 237.632 1145.21 237.538 1145.3 237.471C1145.4 237.404 1145.51 237.369 1145.62 237.37H1148.13C1148.24 237.373 1148.34 237.341 1148.43 237.279C1148.52 237.218 1148.59 237.129 1148.62 237.027C1148.65 236.925 1148.65 236.814 1148.62 236.712C1148.58 236.61 1148.52 236.522 1148.43 236.46L1146.43 234.98C1146.34 234.912 1146.27 234.817 1146.24 234.71C1146.21 234.603 1146.21 234.487 1146.24 234.38L1147 232C1147.03 231.898 1147.03 231.789 1147 231.688C1146.96 231.587 1146.9 231.498 1146.81 231.435C1146.73 231.372 1146.62 231.338 1146.52 231.337C1146.41 231.336 1146.31 231.369 1146.22 231.43L1144.22 232.91C1144.13 232.979 1144.02 233.016 1143.9 233.016C1143.79 233.016 1143.68 232.979 1143.59 232.91L1141.59 231.43C1141.5 231.369 1141.4 231.336 1141.29 231.337C1141.19 231.338 1141.08 231.372 1141 231.435C1140.91 231.498 1140.85 231.587 1140.81 231.688C1140.78 231.789 1140.78 231.898 1140.81 232L1141.59 234.39C1141.62 234.498 1141.62 234.615 1141.59 234.722C1141.55 234.83 1141.48 234.924 1141.39 234.99L1139.39 236.47C1139.3 236.532 1139.24 236.62 1139.2 236.722C1139.17 236.824 1139.17 236.935 1139.2 237.037C1139.23 237.139 1139.3 237.228 1139.39 237.289C1139.48 237.351 1139.58 237.383 1139.69 237.38H1142.2C1142.31 237.381 1142.42 237.417 1142.51 237.483C1142.61 237.549 1142.67 237.643 1142.71 237.75L1143.49 240.15C1143.54 240.218 1143.6 240.272 1143.67 240.31C1143.75 240.348 1143.83 240.367 1143.91 240.366C1144 240.365 1144.08 240.344 1144.15 240.304C1144.22 240.265 1144.28 240.209 1144.33 240.14Z" fill="#FFD788"/>
<path d="M1044.36 592.59L1045.14 590.19C1045.17 590.082 1045.24 589.988 1045.33 589.921C1045.43 589.854 1045.54 589.819 1045.65 589.82H1048.16C1048.27 589.823 1048.37 589.791 1048.46 589.729C1048.55 589.668 1048.62 589.579 1048.65 589.477C1048.68 589.374 1048.68 589.264 1048.65 589.162C1048.62 589.06 1048.55 588.971 1048.46 588.91L1046.46 587.43C1046.37 587.361 1046.31 587.267 1046.27 587.16C1046.24 587.053 1046.24 586.937 1046.27 586.83L1047.05 584.44C1047.08 584.338 1047.08 584.229 1047.05 584.128C1047.02 584.026 1046.95 583.938 1046.87 583.875C1046.78 583.812 1046.68 583.778 1046.57 583.777C1046.46 583.776 1046.36 583.809 1046.27 583.87L1044.27 585.35C1044.18 585.419 1044.07 585.456 1043.96 585.456C1043.84 585.456 1043.73 585.419 1043.64 585.35L1041.64 583.87C1041.55 583.809 1041.45 583.776 1041.34 583.777C1041.24 583.778 1041.13 583.812 1041.05 583.875C1040.96 583.938 1040.9 584.026 1040.86 584.128C1040.83 584.229 1040.83 584.338 1040.86 584.44L1041.64 586.83C1041.67 586.938 1041.67 587.055 1041.64 587.162C1041.6 587.27 1041.53 587.364 1041.44 587.43L1039.44 588.91C1039.35 588.971 1039.29 589.06 1039.25 589.162C1039.22 589.264 1039.22 589.374 1039.25 589.477C1039.29 589.579 1039.35 589.668 1039.44 589.729C1039.53 589.791 1039.63 589.823 1039.74 589.82H1042.25C1042.36 589.82 1042.47 589.856 1042.57 589.923C1042.66 589.989 1042.73 590.083 1042.76 590.19L1043.54 592.59C1043.59 592.654 1043.65 592.706 1043.72 592.742C1043.79 592.778 1043.87 592.797 1043.95 592.797C1044.03 592.797 1044.11 592.778 1044.18 592.742C1044.25 592.706 1044.31 592.654 1044.36 592.59Z" fill="#FFD788"/>
<path d="M689.281 442.22L691.731 440.81C691.842 440.747 691.97 440.72 692.097 440.733C692.224 440.745 692.344 440.797 692.441 440.88L694.551 442.78C694.641 442.857 694.752 442.904 694.87 442.914C694.987 442.925 695.105 442.899 695.207 442.839C695.309 442.78 695.39 442.691 695.439 442.583C695.488 442.476 695.503 442.356 695.481 442.24L694.891 439.46C694.866 439.336 694.88 439.208 694.932 439.093C694.984 438.978 695.071 438.883 695.181 438.82L697.631 437.4C697.735 437.34 697.817 437.249 697.866 437.14C697.915 437.03 697.928 436.908 697.904 436.791C697.88 436.673 697.819 436.566 697.73 436.486C697.642 436.405 697.53 436.354 697.411 436.34L694.591 436.05C694.463 436.036 694.343 435.982 694.248 435.896C694.153 435.81 694.087 435.696 694.061 435.57L693.471 432.8C693.449 432.681 693.389 432.572 693.3 432.489C693.211 432.407 693.098 432.356 692.977 432.343C692.857 432.331 692.735 432.358 692.631 432.421C692.527 432.483 692.446 432.578 692.401 432.69L691.251 435.28C691.198 435.397 691.11 435.494 690.998 435.557C690.887 435.62 690.758 435.646 690.631 435.63L687.811 435.34C687.689 435.325 687.566 435.349 687.459 435.41C687.352 435.47 687.268 435.564 687.218 435.676C687.169 435.788 687.157 435.914 687.184 436.033C687.212 436.153 687.277 436.261 687.371 436.34L689.481 438.24C689.578 438.323 689.646 438.435 689.673 438.56C689.7 438.684 689.685 438.815 689.631 438.93L688.481 441.52C688.435 441.629 688.425 441.749 688.451 441.863C688.478 441.978 688.54 442.081 688.628 442.159C688.717 442.236 688.828 442.284 688.945 442.295C689.062 442.306 689.179 442.28 689.281 442.22Z" fill="#FFD788"/>
<path d="M450.939 1014L453.389 1012.59C453.5 1012.53 453.628 1012.5 453.755 1012.51C453.882 1012.53 454.002 1012.58 454.099 1012.66L456.209 1014.56C456.299 1014.64 456.41 1014.68 456.528 1014.69C456.645 1014.7 456.763 1014.68 456.865 1014.62C456.967 1014.56 457.049 1014.47 457.098 1014.36C457.147 1014.26 457.161 1014.14 457.139 1014.02L456.549 1011.24C456.524 1011.12 456.539 1010.99 456.591 1010.87C456.643 1010.76 456.73 1010.66 456.839 1010.6L459.289 1009.18C459.393 1009.12 459.475 1009.03 459.524 1008.92C459.573 1008.81 459.587 1008.69 459.562 1008.57C459.538 1008.45 459.477 1008.35 459.389 1008.27C459.3 1008.18 459.188 1008.13 459.069 1008.12L456.249 1007.83C456.122 1007.82 456.002 1007.76 455.906 1007.68C455.811 1007.59 455.746 1007.48 455.719 1007.35L455.129 1004.58C455.107 1004.46 455.048 1004.35 454.959 1004.27C454.87 1004.19 454.756 1004.14 454.635 1004.12C454.515 1004.11 454.393 1004.14 454.289 1004.2C454.185 1004.26 454.105 1004.36 454.059 1004.47L452.909 1007.06C452.857 1007.18 452.768 1007.27 452.657 1007.34C452.545 1007.4 452.416 1007.43 452.289 1007.41L449.469 1007.12C449.347 1007.1 449.224 1007.13 449.117 1007.19C449.01 1007.25 448.926 1007.34 448.876 1007.46C448.827 1007.57 448.815 1007.69 448.843 1007.81C448.87 1007.93 448.936 1008.04 449.029 1008.12L451.139 1010.01C451.234 1010.09 451.299 1010.21 451.326 1010.33C451.353 1010.45 451.34 1010.58 451.289 1010.7L450.139 1013.29C450.09 1013.4 450.077 1013.52 450.102 1013.64C450.127 1013.75 450.188 1013.86 450.278 1013.94C450.367 1014.02 450.479 1014.07 450.598 1014.08C450.718 1014.09 450.837 1014.06 450.939 1014Z" fill="#FFD788"/>
<path d="M1148.71 837.89L1151.16 836.48C1151.27 836.413 1151.4 836.383 1151.53 836.396C1151.65 836.408 1151.77 836.462 1151.87 836.55L1153.98 838.44C1154.07 838.524 1154.18 838.577 1154.3 838.591C1154.42 838.605 1154.54 838.58 1154.65 838.519C1154.75 838.458 1154.83 838.365 1154.88 838.253C1154.93 838.142 1154.94 838.018 1154.91 837.9L1154.32 835.13C1154.29 835.005 1154.31 834.875 1154.36 834.758C1154.41 834.642 1154.5 834.544 1154.61 834.48L1157.06 833.07C1157.16 833.01 1157.25 832.919 1157.29 832.809C1157.34 832.7 1157.36 832.578 1157.33 832.46C1157.31 832.343 1157.25 832.236 1157.16 832.155C1157.07 832.075 1156.96 832.024 1156.84 832.01L1154.02 831.72C1153.89 831.704 1153.77 831.65 1153.68 831.564C1153.58 831.478 1153.52 831.365 1153.49 831.24L1152.9 828.47C1152.88 828.351 1152.82 828.242 1152.73 828.159C1152.64 828.077 1152.53 828.026 1152.41 828.013C1152.28 828.001 1152.16 828.028 1152.06 828.09C1151.96 828.153 1151.87 828.248 1151.83 828.36L1150.68 830.95C1150.63 831.067 1150.54 831.164 1150.43 831.227C1150.32 831.29 1150.19 831.315 1150.06 831.3L1147.25 831.01C1147.12 830.986 1147 831.005 1146.88 831.063C1146.77 831.122 1146.68 831.218 1146.63 831.334C1146.58 831.45 1146.57 831.581 1146.6 831.704C1146.63 831.826 1146.71 831.934 1146.81 832.01L1148.91 833.91C1149.01 833.992 1149.07 834.105 1149.1 834.23C1149.13 834.354 1149.11 834.484 1149.06 834.6L1147.91 837.19C1147.87 837.298 1147.86 837.415 1147.89 837.527C1147.92 837.638 1147.98 837.738 1148.07 837.814C1148.16 837.89 1148.26 837.937 1148.38 837.951C1148.49 837.965 1148.61 837.943 1148.71 837.89Z" fill="#FFD788"/>
<path d="M1057.29 963.09L1059.74 961.67C1059.85 961.607 1059.98 961.58 1060.11 961.593C1060.23 961.605 1060.35 961.657 1060.45 961.74L1062.55 963.64C1062.64 963.721 1062.75 963.771 1062.87 963.784C1062.99 963.797 1063.11 963.771 1063.22 963.711C1063.32 963.651 1063.4 963.56 1063.45 963.45C1063.5 963.34 1063.52 963.218 1063.49 963.1L1062.9 960.33C1062.87 960.206 1062.88 960.076 1062.93 959.959C1062.98 959.842 1063.07 959.745 1063.18 959.68L1065.64 958.26C1065.74 958.199 1065.83 958.107 1065.88 957.997C1065.92 957.887 1065.94 957.764 1065.91 957.646C1065.89 957.528 1065.82 957.422 1065.73 957.342C1065.64 957.261 1065.53 957.212 1065.41 957.2L1062.59 956.91C1062.46 956.897 1062.34 956.843 1062.25 956.756C1062.16 956.67 1062.09 956.555 1062.07 956.43L1061.48 953.66C1061.46 953.542 1061.39 953.435 1061.3 953.354C1061.21 953.273 1061.1 953.223 1060.98 953.211C1060.86 953.199 1060.74 953.225 1060.64 953.286C1060.53 953.347 1060.45 953.439 1060.4 953.55L1059.25 956.14C1059.2 956.256 1059.11 956.353 1059 956.416C1058.89 956.479 1058.77 956.505 1058.64 956.49L1055.82 956.2C1055.7 956.185 1055.58 956.209 1055.47 956.27C1055.36 956.33 1055.28 956.424 1055.23 956.536C1055.18 956.648 1055.17 956.774 1055.19 956.893C1055.22 957.013 1055.29 957.12 1055.38 957.2L1057.49 959.09C1057.58 959.176 1057.65 959.288 1057.67 959.412C1057.7 959.536 1057.68 959.665 1057.63 959.78L1056.48 962.37C1056.43 962.48 1056.42 962.603 1056.45 962.72C1056.47 962.838 1056.53 962.944 1056.62 963.024C1056.71 963.104 1056.83 963.153 1056.95 963.165C1057.07 963.177 1057.19 963.151 1057.29 963.09Z" fill="#FFD788"/>
<path d="M406.75 34.7899L408.65 33.6899C408.736 33.6428 408.833 33.6233 408.93 33.634C409.027 33.6447 409.118 33.6853 409.19 33.7499L410.82 35.2199C410.889 35.2846 410.977 35.3254 411.071 35.3364C411.164 35.3473 411.259 35.3278 411.341 35.2807C411.423 35.2337 411.488 35.1615 411.525 35.0749C411.563 34.9883 411.572 34.8919 411.55 34.7999L411.09 32.6599C411.071 32.5627 411.082 32.4618 411.121 32.3708C411.16 32.2797 411.226 32.2027 411.31 32.1499L413.21 31.0599C413.291 31.014 413.355 30.9435 413.394 30.8587C413.432 30.7739 413.443 30.6792 413.424 30.5881C413.405 30.4969 413.358 30.4141 413.289 30.3516C413.22 30.289 413.133 30.25 413.04 30.2399L410.86 29.9999C410.763 29.99 410.671 29.95 410.598 29.8855C410.524 29.821 410.473 29.7351 410.45 29.6399L410 27.4999C409.979 27.4103 409.931 27.3294 409.862 27.2688C409.792 27.2081 409.706 27.1708 409.614 27.1619C409.522 27.1531 409.43 27.1732 409.351 27.2195C409.271 27.2658 409.208 27.3359 409.17 27.4199L408.28 29.4199C408.241 29.5089 408.174 29.583 408.089 29.6315C408.005 29.68 407.907 29.7005 407.81 29.6899L405.63 29.4699C405.539 29.4616 405.447 29.4821 405.368 29.5284C405.289 29.5748 405.226 29.6447 405.189 29.7284C405.151 29.8122 405.141 29.9056 405.159 29.9955C405.177 30.0854 405.223 30.1674 405.29 30.2299L406.92 31.6899C406.992 31.7578 407.041 31.846 407.061 31.9426C407.08 32.0392 407.07 32.1395 407.03 32.2299L406.14 34.2299C406.105 34.3135 406.097 34.4058 406.116 34.4943C406.136 34.5828 406.182 34.6631 406.249 34.7244C406.315 34.7856 406.399 34.8248 406.489 34.8365C406.579 34.8483 406.67 34.832 406.75 34.7899Z" fill="#FFD788"/>
<path d="M847.461 141.28L848.341 138.57C848.379 138.449 848.455 138.342 848.557 138.267C848.66 138.191 848.783 138.15 848.911 138.15H851.761C851.873 138.142 851.98 138.1 852.069 138.031C852.158 137.961 852.224 137.867 852.26 137.76C852.295 137.653 852.298 137.538 852.268 137.429C852.238 137.321 852.176 137.224 852.091 137.15L849.791 135.48C849.688 135.403 849.612 135.297 849.573 135.175C849.533 135.053 849.533 134.922 849.571 134.8L850.451 132.09C850.486 131.976 850.485 131.853 850.447 131.739C850.409 131.626 850.336 131.527 850.238 131.457C850.141 131.387 850.024 131.35 849.904 131.351C849.784 131.351 849.667 131.389 849.571 131.46L847.271 133.13C847.167 133.203 847.043 133.242 846.916 133.242C846.789 133.242 846.665 133.203 846.561 133.13L844.261 131.46C844.164 131.389 844.047 131.351 843.927 131.351C843.807 131.35 843.691 131.387 843.593 131.457C843.496 131.527 843.423 131.626 843.385 131.739C843.346 131.853 843.345 131.976 843.381 132.09L844.261 134.8C844.299 134.922 844.298 135.053 844.258 135.175C844.219 135.297 844.143 135.403 844.041 135.48L841.741 137.15C841.655 137.224 841.594 137.321 841.564 137.429C841.534 137.538 841.536 137.653 841.572 137.76C841.607 137.867 841.673 137.961 841.762 138.031C841.851 138.1 841.958 138.142 842.071 138.15H844.921C845.049 138.151 845.174 138.193 845.277 138.268C845.381 138.343 845.459 138.449 845.501 138.57L846.371 141.28C846.411 141.392 846.485 141.488 846.583 141.557C846.68 141.625 846.797 141.662 846.916 141.662C847.035 141.662 847.151 141.625 847.248 141.557C847.346 141.488 847.42 141.392 847.461 141.28Z" fill="#FFD788"/>
</svg>
