<svg width="75" height="97" viewBox="0 0 75 97" fill="none" xmlns="http://www.w3.org/2000/svg">
<mask id="mask0_113_2602" style="mask-type:alpha" maskUnits="userSpaceOnUse" x="0" y="0" width="75" height="97">
<path d="M37.6824 97C58.1169 97 74.6823 80.4345 74.6823 60C74.6823 39.5655 79.1824 1.5 35.1824 0C-7.81759 0.5 0.682351 39.5655 0.682351 60C0.682351 80.4345 17.2478 97 37.6824 97Z" fill="#8584BC"/>
</mask>
<g mask="url(#mask0_113_2602)">
<path d="M17.8203 83.2853C17.8203 83.2853 25.4788 99.8883 27.3225 101.89C28.7984 103.491 28.2968 106.101 28.0375 107.082C28.0083 107.192 28.0206 107.309 28.0721 107.411C28.1235 107.512 28.2106 107.592 28.3166 107.633C29.5369 108.115 33.3233 109.434 35.8783 108.314C36.0599 108.237 36.2145 108.108 36.3228 107.944C36.431 107.779 36.4879 107.586 36.4863 107.388C36.4882 107.314 36.4754 107.241 36.4486 107.172C36.4218 107.103 36.3815 107.04 36.3302 106.986C36.1906 106.854 36.2767 106.64 36.4328 106.429C36.6136 106.185 36.7336 105.9 36.7829 105.6C36.8322 105.3 36.8093 104.993 36.7162 104.703L36.5023 104.034L37.5028 97.6996L38.0269 91.5555V84.458L17.8203 83.2853Z" fill="url(#paint0_linear_113_2602)"/>
<path d="M57.7456 83.2853C57.7456 83.2853 50.0877 99.8883 48.2434 101.888C46.7675 103.489 47.2686 106.099 47.5284 107.079C47.5573 107.19 47.5448 107.307 47.4933 107.408C47.4418 107.51 47.3548 107.589 47.2488 107.631C46.029 108.113 42.2426 109.432 39.6876 108.312C39.5061 108.235 39.3514 108.106 39.2432 107.941C39.1349 107.777 39.078 107.583 39.0796 107.386C39.0777 107.312 39.0905 107.239 39.1173 107.17C39.1441 107.101 39.1844 107.038 39.2358 106.984C39.3753 106.852 39.2892 106.638 39.1331 106.427C38.9523 106.182 38.8323 105.898 38.783 105.598C38.7336 105.298 38.7563 104.991 38.8492 104.701L39.0631 104.031L38.0631 97.6975L37.5391 91.5534V84.458L57.7456 83.2853Z" fill="url(#paint1_linear_113_2602)"/>
<path d="M29.1313 51.9547C29.0639 51.9567 28.9967 51.9635 28.9302 51.9751C27.8859 52.1606 19.8745 54.0391 18.9227 68.1241C17.9307 82.8009 16.7458 82.7314 18.3938 83.8452C18.6403 84.0121 19.3237 84.0698 19.5291 84.1265C23.7732 85.2997 43.913 88.7669 57.33 83.6634C57.6028 83.5574 57.8345 83.3668 57.9913 83.1197C58.1482 82.8725 58.2218 82.5817 58.2016 82.2897C58.0989 80.6737 57.8348 76.6172 57.1733 66.9321C56.2573 53.5108 47.3513 51.7024 46.1642 51.5184C46.0842 51.5064 46.0033 51.5015 45.9225 51.504L29.1313 51.9547Z" fill="url(#paint2_linear_113_2602)"/>
<path d="M11.3086 65.3851C11.3086 65.3851 12.5315 68.571 16.6704 67.7176C17.7789 67.4887 17.1516 63.2167 17.1516 63.2167L11.3086 65.3851Z" fill="url(#paint3_linear_113_2602)"/>
<path d="M18.6657 56.901C16.4786 58.4101 10.8249 65.4905 10.264 72.4837C10.0944 74.5943 11.4821 76.5729 13.7494 77.4472C16.8743 78.6519 21.3078 76.1959 23.0446 73.1848C25.9568 68.1374 27.3936 61.4548 27.0241 58.1924C26.8268 56.4524 25.2825 55.0225 23.2382 54.8236L23.1446 54.8156C21.4715 54.6776 19.9699 56.0006 18.6657 56.901Z" fill="url(#paint4_linear_113_2602)"/>
<path d="M23.4529 53.437C20.0413 54.453 13.2139 57.4475 11.3086 65.3851C11.3086 65.3851 18.3842 62.8136 25.8822 66.0995L27.9907 63.1756C29.8339 60.6174 29.743 57.1128 27.7014 54.7107C27.472 54.4304 27.2064 54.1817 26.9116 53.9712C26.4107 53.6315 25.8406 53.4073 25.2424 53.3149C24.6442 53.2225 24.033 53.2642 23.4529 53.437Z" fill="url(#paint5_linear_113_2602)"/>
<path d="M15.8715 68.9427C19.5537 69.078 22.4825 72.0977 22.6541 75.7772C22.8755 80.5267 21.6713 84.888 20.5991 87.6317C20.2393 88.5525 19.9842 89.1012 19.0548 89.4391C17.7297 89.9204 16.164 88.5188 15.2138 87.4777C13.0685 85.1249 10.2087 82.3801 9.91995 75.4018C9.85043 73.7008 10.3975 72.0169 11.537 70.7496C12.4562 69.7352 13.8385 68.8679 15.8715 68.9427Z" fill="url(#paint6_linear_113_2602)"/>
<path d="M18.1163 92.7078C18.1163 92.7078 18.721 94.3655 18.7355 94.5468C18.7499 94.728 18.9676 94.9906 19.1884 95.0916C19.4092 95.1927 20.044 95.9841 20.044 95.9841C20.044 95.9841 20.9963 96.3697 21.1134 96.6098C21.2306 96.8499 22.0466 96.46 21.0755 95.5403C20.1044 94.6205 19.7921 94.15 19.7921 94.15L19.5082 92.3142C19.5082 92.3142 19.8745 90.9672 20.1499 90.2117C21.238 87.2562 17.9414 86.8787 17.9414 86.8787L18.1163 92.7078Z" fill="#FBCAB6"/>
<path d="M22.3963 89.6534C22.2606 89.5619 22.1134 89.4889 21.9584 89.4363C21.5637 89.2898 21.4514 88.6133 21.4514 88.6133C20.99 86.3578 19.7403 86.0835 19.7403 86.0835C19.6592 86.0577 19.5765 86.0371 19.4927 86.022C17.5072 85.6386 15.4394 87.4514 15.5554 89.455C15.6153 90.4908 15.7854 91.9057 16.7987 93.6618L17.3778 95.1237C17.4601 95.4721 17.6613 95.7809 17.9468 95.997C18.2414 96.2173 18.5885 96.4964 18.8655 96.7178C19.1141 96.9172 19.4049 97.0574 19.7157 97.1279C20.0868 97.2129 20.5713 97.2589 20.9643 97.0696C20.9643 97.0696 21.7851 96.4568 20.7076 95.7146L19.2339 94.6334C19.1418 94.566 19.0762 94.4686 19.0483 94.358L18.8221 92.8811C18.8221 92.8811 19.1098 90.8812 20.0092 89.9935C20.0365 90.0325 20.0568 90.063 20.0691 90.0833C20.2419 90.3715 21.9594 92.7607 22.8904 91.4202C23.4615 90.5972 22.8171 89.9561 22.3963 89.6534Z" fill="url(#paint7_linear_113_2602)"/>
<path opacity="0.5" d="M21.6329 90.6834L22.0917 89.976C22.1042 89.9568 22.1203 89.9402 22.1392 89.9274C22.1581 89.9145 22.1794 89.9055 22.2018 89.901C22.2242 89.8965 22.2473 89.8964 22.2697 89.901C22.2922 89.9055 22.3135 89.9144 22.3324 89.9273C22.6078 90.115 23.1484 90.5572 22.8831 90.9845C22.6179 91.4117 21.9789 91.0989 21.6885 90.924C21.6688 90.9121 21.6517 90.8964 21.6382 90.8777C21.6247 90.8591 21.6151 90.8379 21.6099 90.8155C21.6047 90.793 21.6041 90.7698 21.608 90.7471C21.612 90.7244 21.6205 90.7028 21.6329 90.6834Z" fill="white"/>
<path d="M63.2308 65.3851C63.2308 65.3851 62.0078 68.5711 57.869 67.7177C56.7605 67.4888 57.3877 63.2168 57.3877 63.2168L63.2308 65.3851Z" fill="url(#paint8_linear_113_2602)"/>
<path d="M55.8727 56.9011C58.0592 58.4101 63.7129 65.4905 64.2739 72.4838C64.4434 74.5944 63.0558 76.5729 60.7885 77.4472C57.6635 78.652 53.2305 76.1959 51.4932 73.1848C48.581 68.1375 47.1442 61.4549 47.5142 58.1925C47.711 56.4525 49.2553 55.0226 51.2996 54.8237L51.3932 54.8156C53.0664 54.6777 54.5684 56.0006 55.8727 56.9011Z" fill="url(#paint9_linear_113_2602)"/>
<path d="M51.0857 53.4371C54.4973 54.4531 61.3247 57.4476 63.23 65.3852C63.23 65.3852 56.1544 62.8136 48.6563 66.0996L46.2276 62.1789C44.7715 59.8261 44.9811 56.7781 46.8158 54.7103C47.056 54.4315 47.3297 54.1835 47.6307 53.9718C48.1311 53.6325 48.7006 53.4086 49.2981 53.3161C49.8956 53.2237 50.5061 53.265 51.0857 53.4371Z" fill="url(#paint10_linear_113_2602)"/>
<path d="M58.649 69.1583C54.9663 69.2935 52.0381 72.3132 51.8664 75.9922C51.645 80.7422 52.8487 85.1035 53.9209 87.8472C54.2807 88.768 54.5358 89.3167 55.4652 89.6546C56.7908 90.1359 58.356 88.7344 59.3062 87.6932C61.4515 85.3404 64.3118 82.5956 64.6001 75.6173C64.6696 73.9163 64.122 72.2325 62.9825 70.9651C62.0643 69.9507 60.6821 69.0834 58.649 69.1583Z" fill="url(#paint11_linear_113_2602)"/>
<path d="M56.4058 92.923C56.4058 92.923 55.801 94.5807 55.7865 94.7625C55.7721 94.9443 55.5539 95.2063 55.3336 95.3074C55.1133 95.4085 54.478 96.1993 54.478 96.1993C54.478 96.1993 53.5257 96.5854 53.4086 96.8255C53.2915 97.0656 52.4755 96.6753 53.4465 95.7561C54.4176 94.8368 54.7299 94.3657 54.7299 94.3657L55.0144 92.53C55.0144 92.53 54.6475 91.1825 54.3695 90.4274C53.2818 87.4719 56.5785 87.0944 56.5785 87.0944L56.4058 92.923Z" fill="#FBCAB6"/>
<path d="M52.1258 89.8691C52.2615 89.7777 52.4088 89.7047 52.5637 89.652C52.9584 89.5055 53.0707 88.8291 53.0707 88.8291C53.5321 86.573 54.7818 86.2992 54.7818 86.2992C54.8631 86.2734 54.946 86.2527 55.0299 86.2372C57.0149 85.8538 59.0832 87.6671 58.9672 89.6702C58.9073 90.7065 58.7372 92.1209 57.7239 93.8775L57.1443 95.3395C57.0622 95.688 56.861 95.9968 56.5753 96.2127C56.2812 96.4325 55.9336 96.7121 55.6572 96.9335C55.4083 97.1329 55.1174 97.2731 54.8064 97.3437C54.4353 97.4287 53.9508 97.4747 53.5578 97.2854C53.5578 97.2854 52.7375 96.6726 53.815 95.9304L55.2887 94.8491C55.3805 94.7816 55.4459 94.6842 55.4738 94.5737L55.6999 93.0968C55.6999 93.0968 55.4123 91.0969 54.5134 90.2092C54.4861 90.2483 54.4653 90.2793 54.4535 90.2991C54.2802 90.5878 52.5632 92.977 51.6317 91.6391C51.0606 90.8129 51.705 90.1718 52.1258 89.8691Z" fill="url(#paint12_linear_113_2602)"/>
<path opacity="0.5" d="M52.8877 90.8991L52.4294 90.1916C52.417 90.1724 52.4009 90.1558 52.382 90.1429C52.3631 90.1299 52.3419 90.1209 52.3195 90.1163C52.297 90.1118 52.2739 90.1117 52.2515 90.1162C52.229 90.1206 52.2077 90.1296 52.1888 90.1424C51.9129 90.3306 51.3728 90.7729 51.6375 91.2001C51.9022 91.6274 52.5417 91.3145 52.8326 91.1392C52.8523 91.1273 52.8694 91.1116 52.8829 91.093C52.8964 91.0744 52.906 91.0532 52.9111 91.0308C52.9163 91.0084 52.9169 90.9852 52.9128 90.9625C52.9088 90.9399 52.9002 90.9183 52.8877 90.8991Z" fill="white"/>
<path d="M28.5078 11.7845C28.5078 11.7845 32.6296 6.62163 44.0804 8.35631C44.4873 8.41781 44.514 8.99211 44.1151 9.09157C42.6339 9.46214 40.6308 10.2958 38.5635 12.1524L35.7348 14.2272C35.2217 14.6036 34.6352 14.8679 34.0133 15.003C33.3915 15.138 32.7482 15.1407 32.1252 15.011C31.5022 14.8812 30.9135 14.6219 30.3972 14.2498C29.881 13.8777 29.4488 13.4013 29.1286 12.8513L28.5078 11.7845Z" fill="#794B33"/>
<path d="M42.7864 12.4374C43.1425 11.8845 43.8254 11.4888 44.4505 11.2241C44.798 11.0771 44.6943 10.5621 44.3168 10.5525C41.5896 10.4835 38.5625 12.1524 38.5625 12.1524C39.4181 13.747 41.6308 13.9315 42.7377 12.5005L42.7864 12.4374Z" fill="#794B33"/>
<path d="M16.9356 36.9026C16.9356 36.9026 13.2428 13.9288 34.8739 13.1604C56.5049 12.392 58.3273 22.0333 58.3273 37.2855C58.3273 37.2855 64.5623 33.976 66.6248 40.019C68.6873 46.0621 60.3898 48.8422 56.8391 48.94C56.8391 48.94 39.2373 67.837 18.3254 48.6042C18.3254 48.6042 5.03994 48.7481 8.15745 39.0121C8.15852 39.0132 10.6525 33.2097 16.9356 36.9026Z" fill="url(#paint13_linear_113_2602)"/>
<path d="M59.707 39.9367C59.8562 39.801 60.0231 39.6862 60.2033 39.5956C60.3872 39.5005 60.5823 39.4286 60.784 39.3817C60.9941 39.3327 61.2103 39.3147 61.4257 39.3282C61.6477 39.3434 61.8659 39.3945 62.0716 39.4795C62.2778 39.5661 62.4699 39.6829 62.6416 39.826C62.8107 39.9656 62.9632 40.124 63.0962 40.2982C63.2287 40.4704 63.3437 40.6555 63.4395 40.8506C63.5333 41.0464 63.6091 41.2505 63.6657 41.4602C63.7203 41.6705 63.7561 41.8852 63.7726 42.1019C63.7861 42.3171 63.78 42.5331 63.7544 42.7473C63.7411 42.8542 63.7213 42.958 63.701 43.0612C63.6806 43.1644 63.6539 43.267 63.6224 43.3681C63.6085 43.4189 63.5924 43.4697 63.5742 43.5194C63.556 43.5692 63.5405 43.6205 63.5207 43.6697L63.4582 43.8162C63.4373 43.8654 63.4106 43.9125 63.3876 43.9606C63.2908 44.1529 63.1707 44.3325 63.0299 44.4953C62.9606 44.5766 62.8861 44.6532 62.8069 44.7247C62.7684 44.7616 62.724 44.7921 62.6828 44.8258C62.6425 44.86 62.5998 44.8913 62.555 44.9194C62.2123 45.1481 61.8146 45.2811 61.4032 45.3044C61.4909 45.2547 61.5797 45.214 61.6636 45.1648L61.7866 45.0883L61.8476 45.0515C61.8679 45.0392 61.8861 45.0231 61.9059 45.0097L62.0198 44.9263C62.0385 44.9129 62.0564 44.8982 62.0732 44.8825L62.1267 44.836C62.1604 44.8044 62.1978 44.7777 62.2294 44.744L62.324 44.6451C62.3557 44.6129 62.3854 44.5788 62.4128 44.5429C62.4406 44.5071 62.4716 44.475 62.4962 44.436C62.5488 44.3641 62.5974 44.2893 62.6416 44.2119C62.6882 44.1371 62.7251 44.0552 62.7646 43.9772C62.7828 43.9371 62.7983 43.8948 62.8154 43.8542L62.8406 43.7932L62.862 43.7301C62.9211 43.5623 62.9668 43.3902 62.9988 43.2152C63.0165 43.1275 63.0272 43.0382 63.0411 42.9478C63.055 42.8574 63.0614 42.7681 63.0652 42.6804C63.0759 42.5061 63.0721 42.3312 63.0539 42.1575C63.0383 41.9844 63.0077 41.813 62.9625 41.6452C62.9195 41.4776 62.8619 41.314 62.7903 41.1564C62.7203 40.9982 62.6364 40.8464 62.5395 40.703C62.3561 40.4162 62.1113 40.1737 61.823 39.9929C61.5209 39.8191 61.1779 39.7293 60.8294 39.733C60.4465 39.7368 60.0669 39.8057 59.707 39.9367Z" fill="#EC977E"/>
<path d="M60.9791 43.6381C60.9439 43.3322 60.9741 43.0224 61.0678 42.7291C61.116 42.5762 61.182 42.4296 61.2646 42.2922C61.3516 42.151 61.4562 42.0215 61.5758 41.9067C61.696 41.7855 61.8276 41.6762 61.9689 41.5805C61.987 41.5692 62.0047 41.5569 62.0223 41.5462C62.04 41.5355 62.0598 41.5259 62.079 41.5168C62.1169 41.4967 62.1561 41.4788 62.1961 41.4634C62.2756 41.4361 62.358 41.4182 62.4416 41.4099C62.606 41.3913 62.7725 41.4015 62.9335 41.4398C63.0133 41.4604 63.0913 41.4874 63.1667 41.5206C63.2049 41.5388 63.2422 41.559 63.2784 41.581C63.3156 41.6033 63.3513 41.628 63.3854 41.6548L63.3816 41.7275C63.3136 41.775 63.2421 41.8171 63.1677 41.8537C63.1004 41.8927 63.0341 41.9232 62.971 41.9542C62.8442 42.0168 62.7244 42.0671 62.6121 42.1184C62.5029 42.166 62.3899 42.2043 62.2742 42.2328C62.1557 42.2572 62.042 42.3005 61.9373 42.3612C61.7216 42.4962 61.5364 42.6747 61.3935 42.8852C61.2373 43.1149 61.1206 43.369 61.048 43.6371L60.9791 43.6381Z" fill="#EC977E"/>
<path d="M14.6343 39.7047C14.3017 39.5901 13.9524 39.5319 13.6006 39.5325C13.2826 39.533 12.9704 39.6178 12.6959 39.7784C12.4349 39.9453 12.2135 40.1673 12.0472 40.4287C11.9597 40.56 11.8836 40.6987 11.82 40.8431C11.7547 40.9868 11.7023 41.1361 11.6633 41.2891C11.6219 41.4422 11.5938 41.5985 11.5794 41.7564C11.5628 41.9149 11.559 42.0744 11.5681 42.2334C11.5713 42.3126 11.5804 42.3938 11.589 42.4767C11.5975 42.5596 11.6109 42.6398 11.6264 42.72C11.6552 42.8803 11.6961 43.0381 11.7489 43.1922L11.7681 43.2499L11.7906 43.3034C11.8061 43.3403 11.8194 43.3788 11.836 43.4157C11.8718 43.4879 11.9045 43.5628 11.9467 43.6296C11.9865 43.7008 12.0302 43.7697 12.0777 43.836C12.1002 43.8702 12.128 43.9002 12.1531 43.9333C12.1778 43.9666 12.2046 43.9982 12.2333 44.028L12.3194 44.1194C12.3478 44.151 12.382 44.1729 12.4125 44.205C12.4429 44.2371 12.4745 44.2649 12.5098 44.2889L12.6135 44.3675C12.6312 44.3804 12.6483 44.3948 12.667 44.4066L12.7205 44.4413L12.8333 44.5135C12.9098 44.56 12.9937 44.5985 13.0713 44.6461C12.6902 44.6303 12.3205 44.5112 12.0018 44.3018C11.9599 44.2759 11.9199 44.2472 11.882 44.2157C11.844 44.1852 11.8029 44.1569 11.7665 44.1232C11.6924 44.0565 11.6228 43.985 11.558 43.9093C11.4262 43.7595 11.3136 43.5939 11.2227 43.4162C11.2008 43.3719 11.1762 43.328 11.1569 43.2831L11.0976 43.1467C11.0778 43.1013 11.0639 43.0542 11.0441 43.0077C11.0243 42.9612 11.012 42.9147 10.9986 42.8676C10.9692 42.7735 10.9452 42.6783 10.9248 42.5831C10.9045 42.4879 10.8879 42.3917 10.8756 42.2917C10.8513 42.0927 10.8454 41.8918 10.858 41.6917C10.8721 41.491 10.9044 41.2919 10.9548 41.0971C11.0073 40.902 11.0778 40.7123 11.1655 40.5303C11.255 40.3489 11.3625 40.1769 11.4863 40.0169C11.6103 39.8551 11.7526 39.7081 11.9104 39.579C12.0715 39.4459 12.2518 39.3378 12.4451 39.2581C12.6371 39.1795 12.8407 39.1329 13.0477 39.1202C13.2473 39.1089 13.4475 39.127 13.6418 39.1737C13.8279 39.2191 14.0076 39.2877 14.1766 39.3779C14.3435 39.4651 14.4976 39.5751 14.6343 39.7047Z" fill="#EC977E"/>
<path d="M13.3255 42.9232C13.2322 42.6854 13.0999 42.4647 12.9341 42.2703C12.7835 42.0936 12.5977 41.9501 12.3887 41.849C12.288 41.8045 12.1807 41.7771 12.071 41.7677C11.9638 41.7541 11.8583 41.7296 11.7561 41.6944C11.6491 41.6549 11.5379 41.6174 11.417 41.5666C11.3566 41.5415 11.2941 41.5174 11.2283 41.4848C11.1572 41.4542 11.0884 41.4184 11.0224 41.3779L11.0117 41.3057C11.0404 41.2761 11.0711 41.2486 11.1037 41.2233C11.1347 41.1983 11.167 41.1749 11.2005 41.1533C11.2669 41.1138 11.3365 41.0798 11.4085 41.0517C11.5537 40.9984 11.7073 40.9717 11.8619 40.9731C11.9404 40.9736 12.0185 40.9834 12.0946 41.0025C12.1331 41.0124 12.1709 41.0248 12.2079 41.0394C12.2266 41.0463 12.2448 41.0544 12.2614 41.0624C12.278 41.0704 12.2972 41.0806 12.3149 41.0896C12.4538 41.1678 12.585 41.259 12.7068 41.3618C12.8274 41.4587 12.9352 41.5704 13.0277 41.6944C13.1153 41.8153 13.1884 41.9462 13.2453 42.0843C13.3544 42.3473 13.406 42.6306 13.3966 42.9152L13.3255 42.9232Z" fill="#EC977E"/>
<path d="M35.3555 42.7762C35.764 43.0607 36.1474 43.3147 36.5399 43.5056C36.9324 43.6965 37.3195 43.8184 37.7056 43.8334C37.7538 43.8334 37.8019 43.8377 37.8505 43.8334L37.9955 43.8259C38.0436 43.82 38.0922 43.8126 38.1409 43.8072L38.1778 43.8029L38.2136 43.7944L38.2869 43.7794L38.3607 43.7644L38.4334 43.743C38.4821 43.7275 38.5329 43.7184 38.581 43.6997C38.6291 43.681 38.6788 43.6644 38.7291 43.6463C38.7545 43.6385 38.7792 43.6287 38.8029 43.6168L38.8767 43.5853C39.0824 43.4962 39.283 43.3959 39.4777 43.2848C39.5777 43.2265 39.6783 43.1655 39.7847 43.1078C39.8911 43.05 39.99 42.981 40.1055 42.9228C39.9172 43.396 39.6042 43.8094 39.1997 44.119L39.1216 44.1789C39.0955 44.1984 39.0681 44.2162 39.0398 44.2323C38.9863 44.2671 38.9264 44.3018 38.8687 44.3355C38.8109 44.3692 38.7478 44.3949 38.6869 44.4238L38.5938 44.4655L38.4965 44.4986L38.3981 44.5307L38.3489 44.5462C38.3323 44.5505 38.3152 44.5537 38.2954 44.5574C38.2281 44.5724 38.1596 44.5863 38.0912 44.5992L37.8821 44.6195C37.8126 44.6238 37.7425 44.6195 37.6725 44.6195C37.3952 44.6066 37.1225 44.5443 36.8672 44.4355C36.6224 44.3309 36.395 44.1895 36.1929 44.0163C35.9987 43.8496 35.827 43.6583 35.6822 43.4473C35.538 43.2426 35.4277 43.016 35.3555 42.7762Z" fill="#EC977E"/>
<path opacity="0.2" d="M16.7608 36.8759C16.7608 36.8759 10.4312 18.065 28.4581 12.8663C28.4581 12.8663 43.0933 12.9674 42.7356 13.5198C42.7356 13.5198 56.0184 12.8407 58.2038 26.8753C58.2038 26.8753 57.3338 40.6993 57.3605 40.5469C57.7883 38.0871 58.0081 29.5966 52.9222 25.5449C52.9222 25.5449 51.5319 26.7865 49.901 27.0304C45.5926 27.6721 43.7109 24.2075 43.7109 24.2075C43.7109 24.2075 34.5311 27.509 29.3993 19.204C29.3993 19.204 16.3133 22.3055 18.6254 41.1944C18.6436 41.3431 17.448 39.2608 16.7608 36.8759Z" fill="#AB6238"/>
<path d="M16.274 36.6952C16.274 36.6952 10.4796 16.9843 28.5065 11.7846C28.5065 11.7846 33.4796 10.3023 38.5595 12.1525C38.5595 12.1525 43.139 11.8851 42.7839 12.4375C42.7839 12.4375 56.0668 11.7589 58.2522 25.7935C58.2522 25.7935 59.6062 34.3183 59.0115 37.0914C59.0115 37.0914 58.4875 38.3443 57.4399 41.041C57.4216 41.088 57.3896 41.1284 57.348 41.157C57.3065 41.1856 57.2573 41.2011 57.2068 41.2014H56.779C56.7426 41.2015 56.7067 41.1936 56.6737 41.1783C56.6407 41.1629 56.6115 41.1406 56.5881 41.1127C56.5647 41.0849 56.5477 41.0523 56.5383 41.0171C56.5288 40.982 56.5272 40.9452 56.5336 40.9094C56.9614 38.4496 58.0597 28.5137 52.9722 24.462C52.9722 24.462 51.5819 25.7042 49.9515 25.9481C45.641 26.5924 43.7604 23.1241 43.7604 23.1241C43.7604 23.1241 34.5795 26.4272 29.4477 18.1222C29.4477 18.1222 16.4536 22.0258 18.7647 40.919C18.7692 40.9541 18.7662 40.9897 18.7558 41.0235C18.7455 41.0574 18.7281 41.0886 18.7048 41.1152C18.6815 41.1418 18.6528 41.1631 18.6207 41.1778C18.5885 41.1925 18.5536 41.2001 18.5182 41.2003H17.93C17.8796 41.2003 17.8303 41.185 17.7887 41.1563C17.7472 41.1277 17.7153 41.0871 17.6974 41.0399C17.514 40.5736 16.9611 39.0801 16.274 36.6952Z" fill="url(#paint14_linear_113_2602)"/>
<path d="M32.5234 46.9535L37.8547 47.1674L42.8593 46.7733C42.8593 46.7733 42.8893 48.8935 37.9194 49.0026C32.9496 49.1117 32.5234 46.9535 32.5234 46.9535Z" fill="white"/>
<path d="M41.7166 48.2615L34.0458 48.5107L33.625 48.1347L42.1214 47.9481L41.7166 48.2615Z" fill="#EC977E"/>
<path d="M37.8912 49.6529C33.1609 49.7566 32.3711 46.7573 32.3711 46.7573C32.3711 46.7573 35.7111 47.0375 38.2377 46.9824C40.7547 46.9289 43.0455 46.6391 43.0455 46.6391C43.0455 46.6391 42.6364 49.5486 37.8912 49.6529ZM32.6839 47.1829C33.1481 47.7904 34.5181 49.0368 37.9099 48.9625C41.3322 48.8871 42.4979 47.5161 42.8594 46.868C42.0867 47.0209 40.2108 47.3524 38.2468 47.3952C36.2126 47.4401 33.6491 47.2594 32.6839 47.1829Z" fill="#EC977E"/>
<path opacity="0.2" d="M24.2725 32.0659C25.7639 30.8082 30.6476 27.2196 32.5074 28.2821C33.078 28.6078 33.1026 29.4099 32.5823 29.7971C32.2133 30.0719 31.5834 30.3676 30.5059 30.5853C27.7525 31.1403 25.0222 32.6573 24.7308 32.7873L24.7179 32.7926C24.2714 32.9803 23.903 32.375 24.2725 32.0659Z" fill="#AB6238"/>
<path d="M23.966 31.7927C25.513 30.4468 30.5748 26.5999 32.4908 27.7228C33.079 28.0667 33.0993 28.9201 32.5597 29.3356C32.1779 29.6297 31.5256 29.9478 30.4117 30.1847C27.5658 30.7895 24.7382 32.4189 24.4393 32.5584L24.4259 32.5643C23.9607 32.7664 23.5837 32.1258 23.966 31.7927Z" fill="url(#paint15_linear_113_2602)"/>
<path opacity="0.2" d="M50.432 32.0659C48.9401 30.8082 44.0563 27.2196 42.1971 28.2821C41.6265 28.6078 41.6024 29.4099 42.1227 29.7971C42.4912 30.0719 43.1216 30.3676 44.1986 30.5853C46.9519 31.1403 49.6823 32.6573 49.9737 32.7873L49.986 32.7926C50.4325 32.9803 50.801 32.375 50.432 32.0659Z" fill="#AB6238"/>
<path d="M50.6653 31.7927C49.1194 30.4468 44.0576 26.5999 42.1417 27.7228C41.5534 28.0667 41.5331 28.9201 42.0727 29.3356C42.455 29.6297 43.1074 29.9478 44.2207 30.1847C47.0671 30.7895 49.8942 32.4189 50.1937 32.5584L50.2065 32.5643C50.6717 32.7664 51.0493 32.1258 50.6653 31.7927Z" fill="url(#paint16_linear_113_2602)"/>
<path d="M30.8585 42.6644C33.5008 42.6644 35.6428 40.5224 35.6428 37.8802C35.6428 35.2379 33.5008 33.0959 30.8585 33.0959C28.2162 33.0959 26.0742 35.2379 26.0742 37.8802C26.0742 40.5224 28.2162 42.6644 30.8585 42.6644Z" fill="white"/>
<path d="M30.8597 42.3933C32.3053 42.3933 33.4772 41.2213 33.4772 39.7757C33.4772 38.3301 32.3053 37.1582 30.8597 37.1582C29.4141 37.1582 28.2422 38.3301 28.2422 39.7757C28.2422 41.2213 29.4141 42.3933 30.8597 42.3933Z" fill="url(#paint17_linear_113_2602)"/>
<path d="M44.878 42.6644C47.5203 42.6644 49.6623 40.5224 49.6623 37.8802C49.6623 35.2379 47.5203 33.0959 44.878 33.0959C42.2357 33.0959 40.0938 35.2379 40.0938 37.8802C40.0938 40.5224 42.2357 42.6644 44.878 42.6644Z" fill="white"/>
<path d="M44.6839 42.3933C46.1296 42.3933 47.3015 41.2214 47.3015 39.7758C47.3015 38.3302 46.1296 37.1583 44.6839 37.1583C43.2383 37.1583 42.0664 38.3302 42.0664 39.7758C42.0664 41.2214 43.2383 42.3933 44.6839 42.3933Z" fill="url(#paint18_linear_113_2602)"/>
</g>
<defs>
<linearGradient id="paint0_linear_113_2602" x1="37.1504" y1="97.836" x2="18.7598" y2="89.5567" gradientUnits="userSpaceOnUse">
<stop stop-color="#15489D"/>
<stop offset="0.46" stop-color="#18499E"/>
<stop offset="0.77" stop-color="#214C9F"/>
<stop offset="1" stop-color="#2D51A2"/>
</linearGradient>
<linearGradient id="paint1_linear_113_2602" x1="38.4155" y1="97.836" x2="56.8061" y2="89.5567" gradientUnits="userSpaceOnUse">
<stop stop-color="#15489D"/>
<stop offset="0.15" stop-color="#18499E"/>
<stop offset="0.26" stop-color="#214C9F"/>
<stop offset="0.33" stop-color="#2D51A2"/>
<stop offset="0.55" stop-color="#375DAA"/>
<stop offset="0.95" stop-color="#4670B7"/>
</linearGradient>
<linearGradient id="paint2_linear_113_2602" x1="49.6512" y1="83.2496" x2="22.3439" y2="56.6962" gradientUnits="userSpaceOnUse">
<stop stop-color="#FDE144"/>
<stop offset="0.19" stop-color="#FFD53F"/>
<stop offset="0.54" stop-color="#FEC355"/>
<stop offset="0.84" stop-color="#FDC055"/>
<stop offset="1" stop-color="#FCBA55"/>
</linearGradient>
<linearGradient id="paint3_linear_113_2602" x1="17.3302" y1="65.5396" x2="11.3102" y2="65.5396" gradientUnits="userSpaceOnUse">
<stop offset="0.05" stop-color="#FCB446"/>
<stop offset="0.51" stop-color="#FCB850"/>
<stop offset="1" stop-color="#FCBA55"/>
</linearGradient>
<linearGradient id="paint4_linear_113_2602" x1="17.3396" y1="81.7282" x2="19.3395" y2="58.4593" gradientUnits="userSpaceOnUse">
<stop stop-color="#FEE3CC"/>
<stop offset="0.3" stop-color="#FED9BB"/>
<stop offset="0.59" stop-color="#FBCAB6"/>
<stop offset="0.68" stop-color="#FAC0AD"/>
<stop offset="0.86" stop-color="#F9B09F"/>
<stop offset="1" stop-color="#F8AA9A"/>
</linearGradient>
<linearGradient id="paint5_linear_113_2602" x1="11.3086" y1="59.6832" x2="29.3035" y2="59.6832" gradientUnits="userSpaceOnUse">
<stop offset="0.05" stop-color="#FEC355"/>
<stop offset="0.75" stop-color="#FDBE55"/>
<stop offset="1" stop-color="#FCBA55"/>
</linearGradient>
<linearGradient id="paint6_linear_113_2602" x1="14.7361" y1="67.8559" x2="18.6988" y2="88.7984" gradientUnits="userSpaceOnUse">
<stop stop-color="#FBCAB6"/>
<stop offset="0.7" stop-color="#FED9BB"/>
<stop offset="1" stop-color="#FEE3CC"/>
</linearGradient>
<linearGradient id="paint7_linear_113_2602" x1="17.918" y1="99.2465" x2="20.2561" y2="83.8932" gradientUnits="userSpaceOnUse">
<stop stop-color="#FBCAB6"/>
<stop offset="0.23" stop-color="#FDD3B9"/>
<stop offset="0.51" stop-color="#FED9BB"/>
<stop offset="1" stop-color="#FEE3CC"/>
</linearGradient>
<linearGradient id="paint8_linear_113_2602" x1="57.2091" y1="65.5397" x2="63.2286" y2="65.5397" gradientUnits="userSpaceOnUse">
<stop offset="0.05" stop-color="#FCB446"/>
<stop offset="0.51" stop-color="#FCB850"/>
<stop offset="1" stop-color="#FCBA55"/>
</linearGradient>
<linearGradient id="paint9_linear_113_2602" x1="57.1983" y1="81.7283" x2="55.1984" y2="58.4593" gradientUnits="userSpaceOnUse">
<stop stop-color="#FEE3CC"/>
<stop offset="0.3" stop-color="#FED9BB"/>
<stop offset="0.59" stop-color="#FBCAB6"/>
<stop offset="0.68" stop-color="#FAC0AD"/>
<stop offset="0.86" stop-color="#F9B09F"/>
<stop offset="1" stop-color="#F8AA9A"/>
</linearGradient>
<linearGradient id="paint10_linear_113_2602" x1="63.2295" y1="59.6833" x2="53.6379" y2="59.6833" gradientUnits="userSpaceOnUse">
<stop stop-color="#FCBA55"/>
<stop offset="0.62" stop-color="#FDBD55"/>
<stop offset="0.95" stop-color="#FEC355"/>
</linearGradient>
<linearGradient id="paint11_linear_113_2602" x1="59.6806" y1="67.6918" x2="55.8042" y2="88.573" gradientUnits="userSpaceOnUse">
<stop stop-color="#FBCAB6"/>
<stop offset="0.7" stop-color="#FED9BB"/>
<stop offset="1" stop-color="#FEE3CC"/>
</linearGradient>
<linearGradient id="paint12_linear_113_2602" x1="56.4089" y1="99.5155" x2="54.0654" y2="84.1429" gradientUnits="userSpaceOnUse">
<stop stop-color="#FBCAB6"/>
<stop offset="0.23" stop-color="#FDD3B9"/>
<stop offset="0.51" stop-color="#FED9BB"/>
<stop offset="1" stop-color="#FEE3CC"/>
</linearGradient>
<linearGradient id="paint13_linear_113_2602" x1="14.6283" y1="42.6024" x2="57.4568" y2="28.1966" gradientUnits="userSpaceOnUse">
<stop stop-color="#F8AA9A"/>
<stop offset="0.31" stop-color="#FBC6B3"/>
<stop offset="0.34" stop-color="#FBCAB6"/>
<stop offset="0.7" stop-color="#FED9BB"/>
<stop offset="1" stop-color="#FEE3CC"/>
</linearGradient>
<linearGradient id="paint14_linear_113_2602" x1="17.884" y1="28.7731" x2="61.4633" y2="24.6075" gradientUnits="userSpaceOnUse">
<stop stop-color="#4A242F"/>
<stop offset="0.37" stop-color="#794B33"/>
<stop offset="1" stop-color="#9F603A"/>
</linearGradient>
<linearGradient id="paint15_linear_113_2602" x1="24.4426" y1="30.8666" x2="35.6664" y2="28.1403" gradientUnits="userSpaceOnUse">
<stop stop-color="#4A242F"/>
<stop offset="1" stop-color="#794B33"/>
</linearGradient>
<linearGradient id="paint16_linear_113_2602" x1="50.5559" y1="31.0668" x2="39.3535" y2="28.3874" gradientUnits="userSpaceOnUse">
<stop stop-color="#4A242F"/>
<stop offset="0.97" stop-color="#794B33"/>
</linearGradient>
<linearGradient id="paint17_linear_113_2602" x1="28.2422" y1="39.7757" x2="33.4778" y2="39.7757" gradientUnits="userSpaceOnUse">
<stop stop-color="#182649"/>
<stop offset="1" stop-color="#273861"/>
</linearGradient>
<linearGradient id="paint18_linear_113_2602" x1="42.0659" y1="39.7758" x2="47.3015" y2="39.7758" gradientUnits="userSpaceOnUse">
<stop stop-color="#182649"/>
<stop offset="1" stop-color="#273861"/>
</linearGradient>
</defs>
</svg>
