<svg width="32" height="60" viewBox="0 0 32 60" fill="none" xmlns="http://www.w3.org/2000/svg">
<path d="M0 16.0981C0 7.25768 6.68732 0 15.5277 0C24.3681 0 31.3334 6.58039 31.3334 15.4208C31.3334 22.1723 25.3163 26.3714 23.7193 30.1215C22.8495 32.1747 23.2345 39.1401 23.2345 39.1401H8.77622C8.77622 39.1401 9.42499 32.0107 8.29143 30.1215C5.46108 25.2664 0 22.1437 0 16.0981Z" fill="url(#paint0_linear_113_2066)"/>
<path d="M18.2946 39.525C18.2946 36.2169 20.3692 22.4145 22.23 22.9991C24.0908 23.5838 21.403 29.1945 17.8954 27.9897C14.3877 26.7848 15.4429 18.2867 16.8687 19.7339C18.2946 21.1812 16.6406 28.5814 13.5393 27.9612C10.4381 27.3409 8.99795 21.9725 11.0655 23.6194C13.133 25.2663 12.9619 37.8282 13.0189 39.2113" stroke="#1F1A18" stroke-width="0.5" stroke-miterlimit="10"/>
<path d="M8.70312 38.926H23.3325V47.4812L19.6752 54.2327L16.9161 59.2233C16.8278 59.3822 16.6986 59.5146 16.5419 59.6068C16.3852 59.699 16.2068 59.7476 16.025 59.7476C15.8432 59.7476 15.6647 59.699 15.508 59.6068C15.3513 59.5146 15.2221 59.3822 15.1338 59.2233L12.3747 54.2327L8.70312 47.7094V38.926Z" fill="url(#paint1_linear_113_2066)"/>
<path d="M18.3521 56.6427L16.7908 59.4445C16.7153 59.5796 16.6052 59.6921 16.4717 59.7704C16.3382 59.8487 16.1863 59.89 16.0315 59.89C15.8768 59.89 15.7248 59.8487 15.5914 59.7704C15.4579 59.6921 15.3477 59.5796 15.2723 59.4445L13.7109 56.6427H18.3521Z" fill="#333333"/>
<path d="M23.3183 47.4884L21.1581 46.3334L19.4043 47.4884L17.2369 46.3334L15.6685 47.4884L13.7079 46.3334L12.4745 47.4884L10.5354 46.3334L8.70312 47.7022V38.926H23.3325L23.3183 47.4884Z" fill="#F37065"/>
<defs>
<linearGradient id="paint0_linear_113_2066" x1="31.3406" y1="19.5701" x2="0.00713057" y2="19.5701" gradientUnits="userSpaceOnUse">
<stop stop-color="#F9D896"/>
<stop offset="0.01" stop-color="#F9D879"/>
<stop offset="1" stop-color="#FFCF31"/>
</linearGradient>
<linearGradient id="paint1_linear_113_2066" x1="20.5022" y1="55.9794" x2="13.879" y2="37.272" gradientUnits="userSpaceOnUse">
<stop stop-color="#F2BF85"/>
<stop offset="0.66" stop-color="#E2A869"/>
</linearGradient>
</defs>
</svg>
