<svg width="65" height="79" viewBox="0 0 65 79" fill="none" xmlns="http://www.w3.org/2000/svg">
<path d="M36.7232 59.0113C39.0118 56.9282 42.4583 56.7462 45.0192 58.4878C47.1533 59.9399 50.1639 62.3692 53.5384 66.3365C56.8442 70.223 59.1494 71.5086 60.502 71.9028C61.0455 72.0613 62.9393 73.3383 62.2333 74.9426C61.5026 76.6018 58.4314 76.4714 58.4314 76.4714C58.4314 76.4714 53.7638 77.25 45.6486 73.1346C38.9042 69.7184 31.4257 63.8282 36.7232 59.0113Z" fill="url(#paint0_linear_113_1369)"/>
<path d="M62.042 75.1761C62.042 75.1761 64.4043 74.3699 63.9598 73.288C63.9598 73.288 63.644 72.6672 61.3806 74.0221L59.457 74.9003L59.9851 76.0675L62.042 75.1761Z" fill="url(#paint1_linear_113_1369)"/>
<path d="M63.826 75.5948C63.826 75.5948 63.957 76.7751 60.8136 76.5337L59.9297 76.5663V75.2887L62.6188 74.938C62.6188 74.938 63.6921 74.8144 63.826 75.5948Z" fill="url(#paint2_linear_113_1369)"/>
<path d="M57.8734 76.3958C57.8734 76.3958 58.5405 76.7855 59.8186 78.5088C60.6523 79.6319 61.2965 79.2909 61.6444 78.9173C61.724 78.8269 61.7667 78.7098 61.7639 78.5894C61.7611 78.469 61.7132 78.354 61.6295 78.2673C60.9366 77.5504 60.5287 75.9439 60.3582 75.1205C60.3321 74.9957 60.3549 74.8656 60.4218 74.757C60.4888 74.6485 60.5948 74.5697 60.718 74.537C61.1975 74.4105 61.9676 73.9648 63.2097 73.2256C64.5171 72.4486 63.4609 72.1626 62.6559 72.0596C62.3404 72.0214 62.0217 72.0183 61.7056 72.0504C61.4395 72.0756 60.9618 72.0619 60.2712 71.8262C59.2088 71.464 58.0233 71.738 57.2715 72.5699C56.4796 73.4522 56.0911 74.7567 57.8734 76.3958Z" fill="#3A3A3A"/>
<path d="M27.2946 59.1613C25.006 57.0787 21.5588 56.8968 18.9985 58.6378C16.8644 60.0899 13.8544 62.5198 10.4793 66.487C7.17351 70.3736 4.86892 71.6586 3.51638 72.0528C2.97285 72.2113 1.07849 73.4889 1.78451 75.0926C2.51513 76.7518 5.58639 76.6219 5.58639 76.6219C5.58639 76.6219 10.2533 77.4006 18.3692 73.2869C25.1136 69.8689 32.592 63.9804 27.2946 59.1613Z" fill="url(#paint3_linear_113_1369)"/>
<path d="M1.97364 75.3265C1.97364 75.3265 -0.3893 74.5204 0.0558261 73.4385C0.0558261 73.4385 0.371645 72.8177 2.63446 74.1725L4.55857 75.0507L4.03049 76.2179L1.97364 75.3265Z" fill="#171515"/>
<path d="M0.188285 75.7431C0.188285 75.7431 0.056694 76.9235 3.20004 76.6826L4.08456 76.7152V75.4376L1.3955 75.0869C1.3955 75.0869 0.321594 74.9656 0.188285 75.7431Z" fill="#171515"/>
<path d="M6.14421 76.5487C6.14421 76.5487 5.47709 76.9378 4.19893 78.6611C3.36589 79.7842 2.72109 79.4437 2.3738 79.0701C2.29417 78.9797 2.25149 78.8627 2.25425 78.7423C2.257 78.6218 2.305 78.5068 2.38867 78.4202C3.08154 77.7027 3.4889 76.0967 3.65997 75.2734C3.68606 75.1484 3.66322 75.0182 3.59617 74.9095C3.52911 74.8008 3.42295 74.722 3.29952 74.6893C2.82007 74.5634 2.05054 74.1171 0.807846 73.3785C-0.499497 72.6015 0.557245 72.3154 1.36225 72.2119C1.67775 72.1741 1.99645 72.1712 2.31258 72.2033C2.57805 72.2285 3.05636 72.2148 3.74693 71.979C4.80883 71.6169 5.99431 71.8903 6.7461 72.7228C7.53737 73.6028 7.92585 74.9084 6.14421 76.5487Z" fill="#313133"/>
<path d="M32.1421 90.0071C40.3884 90.0071 47.0733 82.8086 47.0733 73.9288C47.0733 65.049 40.3884 57.8505 32.1421 57.8505C23.8958 57.8505 17.2109 65.049 17.2109 73.9288C17.2109 82.8086 23.8958 90.0071 32.1421 90.0071Z" fill="url(#paint4_linear_113_1369)"/>
<path d="M49.401 80.7721C49.607 89.4618 41.3143 96.7068 32.6247 96.9122C23.935 97.1176 15.5262 90.2691 15.3203 81.5789C15.1143 72.8886 23.1889 65.6493 31.8792 65.4445C40.5694 65.2397 49.1967 72.0819 49.401 80.7721Z" fill="url(#paint5_radial_113_1369)"/>
<path d="M20.5607 78.5642C20.5607 78.5642 19.302 77.4245 16.3206 76.076L15.9258 77.2014L19.9531 80.8019L20.5607 78.5642Z" fill="#F9BEC8"/>
<path d="M44.2266 78.5642C44.2266 78.5642 45.4853 77.4245 48.4673 76.076L48.8615 77.2014L44.8348 80.8013L44.2266 78.5642Z" fill="#F9BEC8"/>
<path d="M22.6791 57.2664C21.7728 66.3755 22.1739 64.2797 21.1967 68.9461C19.9277 75.0045 20.7161 75.4445 17.226 84.6645C17.226 84.6645 11.7718 99.6958 13.5712 100.57C15.0622 101.293 16.3975 100.331 17.5762 100.67C18.9012 101.05 18.7908 102.075 20.0026 102.367C21.572 102.745 22.381 101.176 23.793 101.623C24.9665 101.993 24.9081 103.233 25.9672 103.391C27.076 103.558 27.4147 102.236 28.8639 102.105C30.383 101.967 30.8515 103.341 32.0748 103.086C33.4794 102.794 33.429 102.124 34.8623 101.802C36.0895 101.526 36.6039 102.832 38.0806 102.617C39.3856 102.425 39.4051 101.34 40.6517 101.148C41.9997 100.942 43.9788 102.679 45.995 102.36C47.8293 102.069 49.0079 101.203 49.6218 100.614C49.7822 100.46 49.8955 100.264 49.9482 100.048C50.001 99.8319 49.9912 99.6054 49.9199 99.3949C49.3729 97.7826 47.9569 93.5928 47.6222 92.4388C46.3709 88.1294 46.4699 88.4184 45.9538 84.8568C44.8501 77.2364 43.8884 66.8309 43.8031 66.36L42.1902 57.4403H39.8267L40.6191 65.2375C40.6422 65.3161 40.6447 65.3994 40.6265 65.4793C40.6082 65.5592 40.5698 65.6331 40.5149 65.6939C40.46 65.7548 40.3905 65.8006 40.3129 65.8269C40.2353 65.8533 40.1522 65.8594 40.0716 65.8445C38.1114 65.4812 33.1825 64.7992 24.8315 66.4235C24.7131 66.447 24.5901 66.4251 24.4871 66.3621C24.3841 66.2991 24.3085 66.1998 24.2754 66.0837L24.9493 57.3105L22.6791 57.2664Z" fill="url(#paint6_linear_113_1369)"/>
<path d="M19.5312 77.8085C19.7784 77.9269 20.0302 78.0373 20.283 78.1397C20.5359 78.2422 20.7894 78.348 21.0446 78.4464C21.5549 78.6421 22.0693 78.828 22.5893 78.9985C23.1094 79.169 23.6289 79.3327 24.1541 79.4803C24.6794 79.6279 25.2069 79.7663 25.7378 79.8905C26.7997 80.1359 27.8702 80.3431 28.9493 80.4878C30.0268 80.6373 31.1116 80.7284 32.199 80.7607C33.2858 80.7987 34.3739 80.7714 35.4574 80.6789C35.9986 80.6337 36.5399 80.5759 37.0771 80.4947C37.6143 80.4134 38.151 80.323 38.6837 80.2086C39.75 79.9852 40.8011 79.6942 41.8305 79.3372C42.8632 78.9769 43.8739 78.5567 44.8576 78.0785C43.9115 78.6383 42.9247 79.1262 41.9054 79.5381C41.6491 79.6376 41.3905 79.74 41.133 79.8304C41.0031 79.8762 40.8744 79.9254 40.7434 79.9677L40.3509 80.0976C39.8257 80.2641 39.2942 80.4134 38.7575 80.541C38.4903 80.6091 38.2197 80.6629 37.9502 80.723C37.679 80.7739 37.4084 80.8288 37.1355 80.8711C36.5914 80.9638 36.0432 81.0331 35.494 81.0886C34.9447 81.1441 34.3926 81.1744 33.8411 81.1933C33.2895 81.2121 32.7368 81.211 32.1853 81.1933C31.6337 81.1755 31.0822 81.1406 30.533 81.0891C29.9837 81.0376 29.435 80.9747 28.8898 80.8923C26.7102 80.5601 24.5732 79.9925 22.5161 79.1993C22.0012 78.9985 21.4966 78.7874 20.9976 78.5574C20.7488 78.443 20.501 78.3234 20.2539 78.1998C20.0067 78.0762 19.7687 77.9458 19.5312 77.8085Z" fill="#F392AA"/>
<path d="M27.6094 71.456L37.2568 71.539L36.806 75.0256C36.5617 76.9136 34.6421 78.2919 32.3805 78.2095C30.2063 78.1306 28.3949 76.722 28.1237 74.9066L27.6094 71.456Z" fill="#FEC3CD"/>
<path d="M37.2389 71.6012C37.2426 71.4357 35.0906 71.2533 32.4322 71.1939C29.7739 71.1346 27.6159 71.2206 27.6122 71.3861C27.6085 71.5517 29.7605 71.734 32.4188 71.7934C35.0772 71.8528 37.2352 71.7668 37.2389 71.6012Z" fill="#FFB2C8"/>
<path d="M11.7003 28.4883C15.0125 28.4883 17.6975 25.8033 17.6975 22.4911C17.6975 19.179 15.0125 16.494 11.7003 16.494C8.38816 16.494 5.70312 19.179 5.70312 22.4911C5.70312 25.8033 8.38816 28.4883 11.7003 28.4883Z" fill="url(#paint7_linear_113_1369)"/>
<path d="M50.6652 25.5515C53.9773 25.5515 56.6623 22.8665 56.6623 19.5543C56.6623 16.2422 53.9773 13.5571 50.6652 13.5571C47.353 13.5571 44.668 16.2422 44.668 19.5543C44.668 22.8665 47.353 25.5515 50.6652 25.5515Z" fill="url(#paint8_linear_113_1369)"/>
<path d="M9.08483 50.3572C4.70795 40.1388 11.5244 23.355 24.5979 18.4443C25.765 18.0061 38.9094 14.4016 48.1266 21.4961C58.1076 29.1789 58.9463 45.6874 51.9599 54.5482C41.5292 67.7818 14.7095 63.4884 9.08483 50.3572Z" fill="url(#paint9_radial_113_1369)"/>
<path d="M15.8484 37.1047C16.1585 33.542 18.3658 29.902 21.8605 28.3979C23.6862 27.6123 27.1288 26.8645 28.6449 28.4934C29.581 29.4987 29.1519 31.9909 28.4916 36.9668C27.5876 43.7753 23.9499 47.4656 21.1682 47.2516C17.9476 47.0039 15.4611 41.5628 15.8484 37.1047Z" fill="url(#paint10_linear_113_1369)"/>
<path d="M49.5204 36.2346C48.9208 32.7239 46.4309 29.2928 42.8401 28.0873C40.9641 27.4579 37.4866 27.0002 36.1157 28.7384C35.2695 29.8123 35.8995 32.2502 36.9631 37.1345C38.4186 43.8183 42.3309 47.1802 45.0732 46.7396C48.2497 46.2293 50.2705 40.6263 49.5204 36.2346Z" fill="#404041"/>
<path d="M33.8095 47.2029H32.8002C32.448 47.2027 32.1016 47.1134 31.7932 46.9434C31.4848 46.7733 31.2245 46.528 31.0363 46.2303L29.7267 44.5848C28.9388 43.3421 29.8319 41.7195 31.3029 41.7195H35.4527C36.9036 41.7195 37.7984 43.3027 37.0547 44.5465L35.602 46.1874C35.4165 46.4972 35.1538 46.7535 34.8396 46.9315C34.5255 47.1095 34.1706 47.203 33.8095 47.2029Z" fill="url(#paint11_linear_113_1369)"/>
<path d="M31.9658 10.7433C31.8896 10.6374 31.8188 10.5278 31.7536 10.4149C31.6883 10.3033 31.6271 10.1895 31.5682 10.0716C31.2192 9.36434 30.9897 8.60417 30.8891 7.82194C30.8708 7.69035 30.8616 7.55818 30.8479 7.42487C30.8341 7.29156 30.8341 7.15883 30.8273 7.02437C30.8204 6.88992 30.8273 6.75661 30.8273 6.62387C30.8273 6.49114 30.8427 6.35611 30.8507 6.22338L30.8582 6.12211L30.8708 6.02198L30.8971 5.82173C30.9068 5.75479 30.9125 5.68728 30.9257 5.62148L30.9634 5.42238L31.0035 5.22156C31.0166 5.15519 31.0361 5.09054 31.0521 5.02474L31.1025 4.82792C31.1191 4.7627 31.1351 4.69633 31.1597 4.63225C31.2003 4.50352 31.2409 4.37422 31.2798 4.24377C31.3187 4.11332 31.3679 3.98745 31.4126 3.85872C31.436 3.79464 31.456 3.72941 31.4801 3.66533L31.5568 3.47653C31.6094 3.35123 31.6592 3.22307 31.7164 3.09949C31.8314 2.85324 31.9653 2.61624 32.1169 2.3906C32.193 2.27904 32.2696 2.16632 32.3532 2.06105C32.4367 1.95578 32.5282 1.85565 32.6181 1.75495L32.7542 1.6062C32.8017 1.55928 32.8509 1.51294 32.8996 1.4666C32.9974 1.37448 33.0952 1.28351 33.1954 1.19483L33.2703 1.12846L33.3493 1.06667C33.4019 1.0249 33.4557 0.984853 33.5089 0.944803C33.6147 0.863559 33.7229 0.785748 33.8316 0.709081C34.0564 0.564329 34.2864 0.428732 34.5222 0.30515C34.7657 0.187495 35.0171 0.0867507 35.2745 0.00363101C35.2894 -0.00100863 35.3053 -0.00120614 35.3203 0.00306268C35.3353 0.0073315 35.3487 0.0158809 35.3589 0.0276635C35.3691 0.039446 35.3757 0.0539496 35.3777 0.0693963C35.3798 0.0848431 35.3774 0.100562 35.3706 0.114627V0.118059C35.2543 0.354665 35.1236 0.583948 34.9793 0.804628C34.8494 1.02834 34.7132 1.23946 34.5759 1.44543C34.4478 1.65941 34.3076 1.85908 34.1754 2.06277C34.1114 2.16575 34.0456 2.26645 33.9792 2.366L33.8796 2.51419L33.7858 2.6658C33.7217 2.76536 33.6576 2.86434 33.5901 2.96046C33.5226 3.05658 33.4637 3.15727 33.3962 3.25282C33.2577 3.4422 33.1336 3.6373 32.9917 3.82496C32.7262 4.20772 32.4596 4.60078 32.2754 5.03332C31.8935 5.90288 31.6755 6.83546 31.6323 7.78418C31.6122 8.2701 31.6397 8.75681 31.7141 9.23742C31.753 9.47943 31.8016 9.72145 31.8646 9.96117C31.925 10.201 32.0014 10.4365 32.0934 10.6661V10.6701C32.1008 10.687 32.1016 10.7061 32.0957 10.7235C32.0898 10.741 32.0776 10.7557 32.0614 10.7647C32.0453 10.7737 32.0264 10.7764 32.0084 10.7722C31.9904 10.768 31.9746 10.7573 31.9641 10.7421L31.9658 10.7433Z" fill="url(#paint12_linear_113_1369)"/>
<path d="M20.6484 21.6661C20.6484 21.6661 25.1111 17.6537 40.6247 20.8875C40.6247 20.8875 44.3488 22.3493 44.8471 19.1602C45.3455 15.971 35.0572 16.0998 35.0572 16.0998C35.0572 16.0998 26.1284 15.947 20.6484 21.6661Z" fill="#231F24"/>
<path d="M12.5676 24.8288C12.5676 24.8288 11.0589 19.79 17.2678 14.179C17.2678 14.179 22.1029 10.2615 25.3779 8.99824C25.3779 8.99824 34.4108 4.444 41.4831 6.32577C44.3569 7.09015 46.8612 8.76309 48.3282 11.1192C49.497 12.9981 50.175 15.5538 48.2137 18.2612C48.2137 18.2612 46.3829 21.0012 39.8439 17.9448C34.5092 15.4514 27.314 18.1022 24.8401 19.1635C24.32 19.3866 23.8171 19.6476 23.3353 19.9444C22.0766 20.7226 19.2233 22.5219 17.7129 23.7841C15.7384 25.4347 13.2656 26.7741 12.5676 24.8288Z" fill="url(#paint13_linear_113_1369)"/>
<path d="M27.7539 49.2707C27.7539 49.2707 28.9154 52.9536 33.6801 52.9193C37.45 52.8924 39.0491 48.8462 39.0491 48.8462C39.0491 48.8462 36.5168 49.7513 33.679 49.9058C31.1965 50.0414 28.4147 49.4435 27.7539 49.2707Z" fill="url(#paint14_linear_113_1369)"/>
<mask id="mask0_113_1369" style="mask-type:luminance" maskUnits="userSpaceOnUse" x="27" y="48" width="13" height="5">
<path d="M27.7539 49.2707C27.7539 49.2707 28.9154 52.9536 33.6801 52.9193C37.45 52.8924 39.0491 48.8462 39.0491 48.8462C39.0491 48.8462 36.5168 49.7513 33.679 49.9058C31.1965 50.0414 28.4147 49.4435 27.7539 49.2707Z" fill="white"/>
</mask>
<g mask="url(#mask0_113_1369)">
<path d="M30.2695 52.7619C30.2695 52.7619 32.9311 49.4812 37.0986 51.8819C41.2661 54.2826 31.9722 55.8657 30.2695 52.7619Z" fill="url(#paint15_linear_113_1369)"/>
</g>
<path d="M23.4525 42.3353C25.8878 42.3353 27.862 40.3611 27.862 37.9258C27.862 35.4905 25.8878 33.5163 23.4525 33.5163C21.0172 33.5163 19.043 35.4905 19.043 37.9258C19.043 40.3611 21.0172 42.3353 23.4525 42.3353Z" fill="white"/>
<path d="M24.5251 40.6537C25.8377 40.6537 26.9018 39.5897 26.9018 38.2771C26.9018 36.9645 25.8377 35.9004 24.5251 35.9004C23.2125 35.9004 22.1484 36.9645 22.1484 38.2771C22.1484 39.5897 23.2125 40.6537 24.5251 40.6537Z" fill="url(#paint16_linear_113_1369)"/>
<path d="M26.0229 37.9514C26.0063 37.7096 25.9236 37.4769 25.7839 37.2787C25.6442 37.0806 25.4527 36.9246 25.2305 36.8278" stroke="white" stroke-width="0.2" stroke-miterlimit="10" stroke-linecap="round"/>
<path d="M26.9056 35.1817C26.3293 34.4566 25.5393 33.9313 24.6477 33.6804C23.7561 33.4295 22.8081 33.4657 21.9382 33.7838C21.0683 34.102 20.3207 34.686 19.8014 35.4529C19.282 36.2199 19.0174 37.1309 19.0449 38.0567" stroke="#0C0D0D" stroke-width="0.5" stroke-miterlimit="10" stroke-linecap="round"/>
<path d="M20.1897 34.9626L18.9023 33.2284" stroke="#0C0D0D" stroke-width="0.5" stroke-miterlimit="10" stroke-linecap="round"/>
<path d="M19.3999 35.668L17.8477 35.2292" stroke="#0C0D0D" stroke-width="0.5" stroke-miterlimit="10" stroke-linecap="round"/>
<path d="M42.14 42.2236C44.5753 42.2236 46.5495 40.2495 46.5495 37.8142C46.5495 35.3789 44.5753 33.4047 42.14 33.4047C39.7047 33.4047 37.7305 35.3789 37.7305 37.8142C37.7305 40.2495 39.7047 42.2236 42.14 42.2236Z" fill="white"/>
<path d="M40.9821 40.4197C42.2947 40.4197 43.3588 39.3557 43.3588 38.0431C43.3588 36.7305 42.2947 35.6664 40.9821 35.6664C39.6695 35.6664 38.6055 36.7305 38.6055 38.0431C38.6055 39.3557 39.6695 40.4197 40.9821 40.4197Z" fill="url(#paint17_linear_113_1369)"/>
<path d="M42.4844 37.7192C42.4676 37.4773 42.3848 37.2446 42.245 37.0465C42.1052 36.8484 41.9137 36.6924 41.6914 36.5955" stroke="white" stroke-width="0.2" stroke-miterlimit="10" stroke-linecap="round"/>
<path d="M38.3789 35.4066C38.8684 34.6203 39.5932 34.0081 40.4502 33.6569C41.3073 33.3057 42.2532 33.2333 43.1537 33.45C44.0543 33.6667 44.8637 34.1614 45.4672 34.8641C46.0707 35.5667 46.4376 36.4415 46.5159 37.3644" stroke="#0C0D0D" stroke-width="0.5" stroke-miterlimit="10" stroke-linecap="round"/>
<path d="M45.0273 34.4214L46.1075 32.5511" stroke="#0C0D0D" stroke-width="0.5" stroke-miterlimit="10" stroke-linecap="round"/>
<path d="M45.8906 35.0318L47.3816 34.419" stroke="#0C0D0D" stroke-width="0.5" stroke-miterlimit="10" stroke-linecap="round"/>
<circle cx="22.4288" cy="74.3772" r="0.686569" fill="#FDDBDF" fill-opacity="0.5"/>
<circle cx="23.1163" cy="69.1709" r="0.686569" fill="#FDDBDF" fill-opacity="0.5"/>
<circle cx="23.4014" cy="63.2778" r="0.686569" fill="#FDDBDF" fill-opacity="0.5"/>
<circle cx="26.6045" cy="67.7977" r="0.686569" fill="#FDDBDF" fill-opacity="0.5"/>
<circle cx="30.8428" cy="69.1709" r="0.686569" fill="#FDDBDF" fill-opacity="0.5"/>
<circle cx="35.1866" cy="67.7977" r="0.686569" fill="#FDDBDF" fill-opacity="0.5"/>
<circle cx="38.6788" cy="69.8574" r="0.686569" fill="#FDDBDF" fill-opacity="0.5"/>
<circle cx="41.71" cy="72.1459" r="0.686569" fill="#FDDBDF" fill-opacity="0.5"/>
<circle cx="42.8545" cy="76.7231" r="0.686569" fill="#FDDBDF" fill-opacity="0.5"/>
<circle cx="39.3663" cy="78.0963" r="0.686569" fill="#FDDBDF" fill-opacity="0.5"/>
<circle cx="38.8506" cy="74.1485" r="0.686569" fill="#FDDBDF" fill-opacity="0.5"/>
<circle cx="33.3584" cy="79.641" r="0.686569" fill="#FDDBDF" fill-opacity="0.5"/>
<circle cx="25.1749" cy="77.8102" r="0.686569" fill="#FDDBDF" fill-opacity="0.5"/>
<circle cx="26.5499" cy="73.9769" r="0.686569" fill="#FDDBDF" fill-opacity="0.5"/>
<defs>
<linearGradient id="paint0_linear_113_1369" x1="34.9295" y1="66.9166" x2="62.3877" y2="66.9166" gradientUnits="userSpaceOnUse">
<stop stop-color="#080808"/>
<stop offset="0.06" stop-color="#0B0B0B"/>
<stop offset="0.31" stop-color="#121212"/>
<stop offset="1" stop-color="#141414"/>
</linearGradient>
<linearGradient id="paint1_linear_113_1369" x1="59.457" y1="74.6045" x2="64.0153" y2="74.6045" gradientUnits="userSpaceOnUse">
<stop stop-color="#080808"/>
<stop offset="0.06" stop-color="#0B0B0B"/>
<stop offset="0.31" stop-color="#121212"/>
<stop offset="1" stop-color="#141414"/>
</linearGradient>
<linearGradient id="paint2_linear_113_1369" x1="59.9297" y1="75.747" x2="63.8265" y2="75.747" gradientUnits="userSpaceOnUse">
<stop stop-color="#080808"/>
<stop offset="0.06" stop-color="#0B0B0B"/>
<stop offset="0.31" stop-color="#121212"/>
<stop offset="1" stop-color="#141414"/>
</linearGradient>
<linearGradient id="paint3_linear_113_1369" x1="29.0877" y1="67.0671" x2="1.62946" y2="67.0671" gradientUnits="userSpaceOnUse">
<stop stop-color="#080808"/>
<stop offset="0.69" stop-color="#0A0A0A"/>
<stop offset="0.94" stop-color="#111111"/>
<stop offset="1" stop-color="#141414"/>
</linearGradient>
<linearGradient id="paint4_linear_113_1369" x1="17.2109" y1="73.9288" x2="47.0733" y2="73.9288" gradientUnits="userSpaceOnUse">
<stop stop-color="#080808"/>
<stop offset="1" stop-color="#141414"/>
</linearGradient>
<radialGradient id="paint5_radial_113_1369" cx="0" cy="0" r="1" gradientUnits="userSpaceOnUse" gradientTransform="translate(39.9441 77.2092) rotate(-1.36) scale(26.9244 26.9244)">
<stop stop-color="white"/>
<stop offset="0.37" stop-color="#FCFCFD"/>
<stop offset="0.65" stop-color="#F4F3F5"/>
<stop offset="0.85" stop-color="#E8E6EA"/>
</radialGradient>
<linearGradient id="paint6_linear_113_1369" x1="15.0894" y1="85.4996" x2="49.8874" y2="76.1747" gradientUnits="userSpaceOnUse">
<stop offset="0.03" stop-color="#F392AA"/>
<stop offset="0.44" stop-color="#F9BEC8"/>
<stop offset="1" stop-color="#FBCCCA"/>
</linearGradient>
<linearGradient id="paint7_linear_113_1369" x1="10.3744" y1="24.0822" x2="18.059" y2="14.8709" gradientUnits="userSpaceOnUse">
<stop stop-color="#080808"/>
<stop offset="1" stop-color="#141414"/>
</linearGradient>
<linearGradient id="paint8_linear_113_1369" x1="45.3919" y1="22.4213" x2="55.9344" y2="16.6985" gradientUnits="userSpaceOnUse">
<stop stop-color="#080808"/>
<stop offset="1" stop-color="#141414"/>
</linearGradient>
<radialGradient id="paint9_radial_113_1369" cx="0" cy="0" r="1" gradientUnits="userSpaceOnUse" gradientTransform="translate(32.3535 39.7804) rotate(5.68) scale(30.6393)">
<stop stop-color="white"/>
<stop offset="0.37" stop-color="#FCFCFD"/>
<stop offset="0.65" stop-color="#F4F3F5"/>
<stop offset="0.85" stop-color="#E8E6EA"/>
</radialGradient>
<linearGradient id="paint10_linear_113_1369" x1="17.5307" y1="38.836" x2="28.7905" y2="36.0278" gradientUnits="userSpaceOnUse">
<stop stop-color="#080808"/>
<stop offset="1" stop-color="#141414"/>
</linearGradient>
<linearGradient id="paint11_linear_113_1369" x1="28.8233" y1="46.8414" x2="36.7571" y2="41.8254" gradientUnits="userSpaceOnUse">
<stop stop-color="#080808"/>
<stop offset="1" stop-color="#141414"/>
</linearGradient>
<linearGradient id="paint12_linear_113_1369" x1="37.5997" y1="1.47174" x2="29.3992" y2="8.90729" gradientUnits="userSpaceOnUse">
<stop stop-color="#574D37"/>
<stop offset="0.37" stop-color="#544B36"/>
<stop offset="0.6" stop-color="#4C4333"/>
<stop offset="0.79" stop-color="#3D362E"/>
<stop offset="0.96" stop-color="#292426"/>
<stop offset="1" stop-color="#231F24"/>
</linearGradient>
<linearGradient id="paint13_linear_113_1369" x1="13.2417" y1="14.5486" x2="49.1398" y2="18.119" gradientUnits="userSpaceOnUse">
<stop stop-color="#323031"/>
<stop offset="0.3" stop-color="#3A393A"/>
<stop offset="0.45" stop-color="#404041"/>
<stop offset="0.68" stop-color="#46433F"/>
<stop offset="0.97" stop-color="#554C38"/>
<stop offset="1" stop-color="#574D37"/>
</linearGradient>
<linearGradient id="paint14_linear_113_1369" x1="27.7049" y1="49.5492" x2="38.645" y2="51.3191" gradientUnits="userSpaceOnUse">
<stop stop-color="#704732"/>
<stop offset="0.06" stop-color="#623B2C"/>
<stop offset="0.14" stop-color="#553026"/>
<stop offset="0.26" stop-color="#4D2A22"/>
<stop offset="0.47" stop-color="#4B2821"/>
<stop offset="0.71" stop-color="#4D2A22"/>
<stop offset="0.82" stop-color="#553025"/>
<stop offset="0.9" stop-color="#623B2B"/>
<stop offset="0.96" stop-color="#704732"/>
</linearGradient>
<linearGradient id="paint15_linear_113_1369" x1="30.3667" y1="52.1362" x2="38.1168" y2="53.3901" gradientUnits="userSpaceOnUse">
<stop stop-color="#AD4950"/>
<stop offset="0.27" stop-color="#BB585C"/>
<stop offset="0.59" stop-color="#C76566"/>
<stop offset="0.77" stop-color="#C86768"/>
<stop offset="0.85" stop-color="#CA6F6F"/>
<stop offset="0.9" stop-color="#CD7878"/>
</linearGradient>
<linearGradient id="paint16_linear_113_1369" x1="26.7851" y1="38.5185" x2="22.1268" y2="37.5678" gradientUnits="userSpaceOnUse">
<stop stop-color="#352424"/>
<stop offset="1" stop-color="#231F24"/>
</linearGradient>
<linearGradient id="paint17_linear_113_1369" x1="43.2463" y1="38.3162" x2="38.5875" y2="37.3654" gradientUnits="userSpaceOnUse">
<stop stop-color="#352424"/>
<stop offset="1" stop-color="#231F24"/>
</linearGradient>
</defs>
</svg>
