<svg width="74" height="63" viewBox="0 0 74 63" fill="none" xmlns="http://www.w3.org/2000/svg">
<path d="M45.5021 35.4474C42.9255 35.7525 40.5613 32.1302 42.9195 31.0482C43.7607 30.6623 64.2267 27.4459 65.1866 28.0793C67.2343 29.8281 66.1017 33.0083 63.4276 33.3249L45.5021 35.4474Z" fill="#66A36C"/>
<path d="M73.4254 57.9526C73.4304 58.3646 73.2853 58.757 72.9056 58.917C68.9522 60.5822 42.5214 63.2679 42.051 62.8159C41.585 62.3682 39.4487 40.0628 39.1236 36.6424C39.0989 36.3829 39.2729 36.1618 39.5274 36.1053C43.3573 35.3927 69.1575 32.1467 69.8403 32.5228C70.5232 32.8988 73.1754 52.3652 73.3932 57.452C73.4126 57.6184 73.4234 57.7855 73.4254 57.9526Z" fill="url(#paint0_linear_113_1874)"/>
<path opacity="0.2" d="M61.9787 57.3184C61.9759 57.3045 61.9629 57.2951 61.9488 57.297C57.2062 57.9388 52.2885 58.462 48.5838 58.788C47.8333 58.8685 47.0815 58.648 46.4934 58.1749C45.9053 57.7018 45.5288 57.0147 45.4466 56.2644C45.0112 52.4246 44.457 47.2586 43.9325 41.8848C43.8571 41.1395 44.0772 40.3944 44.5454 39.8096C45.0136 39.2248 45.6925 38.8471 46.4363 38.7575C52.5127 37.9361 59.0939 37.1444 63.676 36.6496C64.4201 36.5624 65.1688 36.7706 65.761 37.2296C66.3532 37.6885 66.7417 38.3615 66.8429 39.1039C67.5158 43.4485 68.2877 49.2676 68.7727 53.5429C68.8559 54.2735 68.6545 55.0081 68.2104 55.5941C67.7663 56.1801 67.1135 56.5726 66.3876 56.69C65.2155 56.8771 63.7787 57.0937 62.0088 57.3397C61.9948 57.3416 61.9815 57.3323 61.9787 57.3184Z" fill="white"/>
<path d="M26.0436 7.44099C23.4651 7.7497 21.0893 4.10063 23.4646 3.05107C24.3157 2.67501 44.7717 -0.55125 45.7317 0.0821251C47.763 1.8153 46.6467 4.97418 43.9955 5.29161L26.0436 7.44099Z" fill="#00659E"/>
<path d="M53.9343 30.5732C53.489 32.1764 23.0968 35.2938 22.5822 34.8188C22.0676 34.3437 19.6133 8.20711 19.6133 8.20711C20.7019 7.80135 49.6887 4.07038 50.3914 4.52562C50.8862 4.83241 52.5884 16.4014 53.4494 24.0316C53.7886 26.1953 53.9508 28.3831 53.9343 30.5732Z" fill="url(#paint1_linear_113_1874)"/>
<path opacity="0.2" d="M42.4931 29.2916C42.4833 29.2884 42.4729 29.2874 42.4626 29.2888C37.638 29.941 32.6371 30.4746 28.9101 30.8008C28.2123 30.8649 27.5171 30.6532 26.9733 30.2112C26.4295 29.7691 26.0803 29.1318 26.0005 28.4356C25.5651 24.5364 25.0109 19.2318 24.4567 13.7096C24.3725 13.0108 24.5675 12.307 24.9992 11.7511C25.431 11.1952 26.0646 10.8321 26.7626 10.7407H26.9704C33.1161 9.90935 39.7863 9.09784 44.3783 8.61291C45.0697 8.52783 45.7669 8.71609 46.3215 9.13757C46.8761 9.55905 47.2441 10.1804 47.3473 10.8693C48.0301 15.293 48.8317 21.3002 49.3266 25.6547C49.407 26.3422 49.2195 27.0343 48.803 27.5872C48.3865 28.1401 47.773 28.5112 47.09 28.6236C45.8859 28.821 44.3867 29.0479 42.5234 29.2945C42.5133 29.2959 42.5028 29.2949 42.4931 29.2916Z" fill="white"/>
<path d="M10.4313 32.6045C7.87319 32.2329 6.53289 28.061 9.09564 27.723C9.95614 27.6096 28.8056 29.5471 31.1638 30.4363C31.3265 30.4976 31.4318 30.6256 31.5289 30.7699C32.9813 32.9279 31.1222 35.6099 28.548 35.236L10.4313 32.6045Z" fill="#EF434C"/>
<path d="M31.3923 62.1727C30.5412 63.6077 0.376737 58.7386 0.0204634 58.1448C-0.33581 57.551 4.07803 31.6816 4.07803 31.6816C5.18643 31.5628 34.1535 35.4819 34.7571 36.1053C35.3608 36.7288 32.2335 60.7476 31.3923 62.1727Z" fill="url(#paint2_linear_113_1874)"/>
<path opacity="0.2" d="M20.7039 58.0112C20.7039 57.9914 20.6892 57.9747 20.6696 57.9722C15.9103 57.3593 11.0262 56.5897 7.35351 55.9973C6.6221 55.8734 5.96894 55.4664 5.53549 54.8644C5.10204 54.2624 4.92321 53.5139 5.03773 52.7809C5.61173 48.951 6.43314 43.785 7.31393 38.431C7.43357 37.7096 7.82594 37.0617 8.40987 36.6215C8.99379 36.1812 9.7246 35.9823 10.4511 36.0658C14.667 36.5606 22.7722 37.5304 27.4929 38.1836C28.2223 38.2825 28.8848 38.6608 29.3408 39.2386C29.7968 39.8165 30.0107 40.5488 29.9373 41.2812C29.492 45.7247 28.8388 51.7715 28.2351 56.1259C28.1339 56.8536 27.7546 57.5136 27.177 57.9676C26.5994 58.4215 25.8684 58.6341 25.1375 58.5605C23.9576 58.4425 22.5042 58.2757 20.7384 58.0503C20.7188 58.0478 20.7039 58.031 20.7039 58.0112Z" fill="white"/>
<path d="M39.5872 24.8039C39.3358 24.1899 38.705 23.8198 38.0464 23.8997L36.1876 24.1253C35.5358 24.2044 35.0173 24.7092 34.9207 25.3586C34.8243 26.0072 34.307 26.5116 33.6562 26.5917L33.2497 26.6416C31.8948 26.8083 30.776 25.5963 31.0501 24.259L32.8404 15.5263C33.1344 14.0921 34.3118 13.0062 35.765 12.829C37.2202 12.6515 38.6256 13.4249 39.2545 14.7492L43.0877 22.8214C43.6729 24.0537 42.8775 25.497 41.5231 25.6604L41.127 25.7082C40.4687 25.7876 39.8385 25.4175 39.5872 24.8039ZM36.795 21.1865C37.4231 21.1092 37.8051 20.4553 37.564 19.8702C37.1926 18.9693 35.8698 19.1332 35.7297 20.0976C35.6389 20.7231 36.1677 21.2637 36.795 21.1865Z" fill="white"/>
<path d="M22.9195 51.148C22.5237 53.7013 20.5839 54.7998 16.9816 54.2456C13.9152 53.7701 11.8146 50.899 12.2896 47.8325L12.708 45.1312C13.1388 42.3493 15.7437 40.4437 18.5255 40.8755C22.1872 41.4396 23.6914 42.8547 23.3154 45.2893C23.2649 45.8459 23.0496 46.3748 22.6971 46.8085C22.3526 47.2322 21.8923 47.5461 21.3728 47.7124C21.351 47.7193 21.3361 47.7394 21.3361 47.7623C21.3361 47.7813 21.3465 47.7987 21.3631 47.808C21.9358 48.1278 22.3945 48.6188 22.6747 49.2124C22.9593 49.8154 23.045 50.4932 22.9195 51.148ZM18.9856 50.1732C18.9707 50.1642 18.9628 50.1468 18.9652 50.1296C19.0773 49.3358 18.5634 48.88 17.6051 48.7333L17.412 48.7031C16.7201 48.5948 16.0748 49.0774 15.9832 49.7717C15.8945 50.4433 16.3584 51.0629 17.0278 51.1669L17.2884 51.2074C18.2171 51.3149 18.8658 50.9879 19.0055 50.2168C19.0086 50.1996 19.0006 50.1822 18.9856 50.1732ZM17.902 43.785C17.365 43.683 16.8529 44.0539 16.7824 44.5959L16.7184 45.0877C16.6501 45.613 17.0125 46.0973 17.5358 46.18C18.5255 46.3383 19.1391 45.982 19.2578 45.1903C19.3766 44.3986 18.8323 43.9236 17.902 43.785Z" fill="white"/>
<path d="M59.057 50.4233C59.6898 50.0043 60.4987 49.6901 61.1845 50.015L61.6568 50.2387C62.6793 50.723 63.1025 51.9932 62.2954 52.7861C62.0117 53.0648 61.7032 53.3191 61.3729 53.5456C60.4684 54.1658 59.4277 54.5587 58.339 54.6909C57.1732 54.8362 55.9897 54.6827 54.8996 54.2447C53.8096 53.8068 52.8488 53.0988 52.1076 52.1874C51.3664 51.2759 50.8691 50.191 50.6626 49.0345C50.4561 47.8781 50.547 46.6881 50.9269 45.5764C51.3068 44.4648 51.9631 43.468 52.8342 42.6798C53.7053 41.8916 54.7625 41.3378 55.9065 41.0706C57.0505 40.8034 58.2436 40.8315 59.3737 41.1523C59.8277 41.2811 60.2656 41.4555 60.681 41.6718C61.6867 42.1953 61.6431 43.5387 60.7905 44.2861L60.4141 44.6161C59.844 45.1159 58.9811 45.0356 58.259 44.8045C57.8278 44.6665 57.3695 44.6359 56.9238 44.7153C56.1561 44.8839 55.4805 45.3363 55.0322 45.9819C54.5839 46.6275 54.396 47.4185 54.5061 48.1967C54.6162 48.975 55.0162 49.6828 55.626 50.1787C56.2358 50.6746 57.0104 50.9218 57.7947 50.8709C58.2457 50.8272 58.6792 50.6735 59.057 50.4233Z" fill="white"/>
<defs>
<linearGradient id="paint0_linear_113_1874" x1="27.3151" y1="47.6743" x2="87.0503" y2="47.6743" gradientUnits="userSpaceOnUse">
<stop stop-color="#87BD6E"/>
<stop offset="0.91" stop-color="#A0D185"/>
</linearGradient>
<linearGradient id="paint1_linear_113_1874" x1="20.7514" y1="23.804" x2="99.0227" y2="2.91248" gradientUnits="userSpaceOnUse">
<stop stop-color="#3884C5"/>
<stop offset="0.93" stop-color="#6FA1CC"/>
</linearGradient>
<linearGradient id="paint2_linear_113_1874" x1="-0.00922611" y1="47.0607" x2="34.8066" y2="47.0607" gradientUnits="userSpaceOnUse">
<stop stop-color="#F05355"/>
<stop offset="0.93" stop-color="#F2665C"/>
</linearGradient>
</defs>
</svg>
