<svg width="74" height="71" viewBox="0 0 74 71" fill="none" xmlns="http://www.w3.org/2000/svg">
<path opacity="0.1" d="M35.8079 70.6824C45.4035 70.6824 53.1823 69.6692 53.1823 68.4193C53.1823 67.1695 45.4035 66.1562 35.8079 66.1562C26.2124 66.1562 18.4336 67.1695 18.4336 68.4193C18.4336 69.6692 26.2124 70.6824 35.8079 70.6824Z" fill="#333333"/>
<path d="M32.3271 57.9033C32.3271 57.9033 32.2815 58.8037 29.9902 66.2086C29.9629 66.2979 29.9107 66.3776 29.8397 66.4383C29.7687 66.499 29.6819 66.5383 29.5894 66.5515C28.5419 66.7013 25.2 67.2802 25.833 68.5326C25.8652 68.5963 25.9146 68.6495 25.9757 68.6863C26.0368 68.7232 26.107 68.742 26.1782 68.7408C26.8614 68.7271 29.1176 68.5891 30.9307 67.4027C31.0002 67.357 31.0525 67.2893 31.0792 67.2105C31.3866 66.3247 32.3339 61.0744 33.3823 57.9033H32.3271Z" fill="url(#paint0_linear_113_1586)"/>
<path d="M39.7853 57.814C39.7853 57.814 39.8308 58.7144 42.1221 66.1193C42.1496 66.2086 42.2019 66.2883 42.273 66.349C42.344 66.4097 42.4308 66.449 42.5233 66.4623C43.5708 66.6121 46.9128 67.191 46.2793 68.4434C46.2472 68.507 46.1979 68.5603 46.1369 68.5971C46.0759 68.6339 46.0058 68.6528 45.9345 68.6515C45.2514 68.6379 42.9947 68.4999 41.1816 67.3135C41.1122 67.2676 41.06 67.2 41.0331 67.1213C40.7262 66.2355 39.7789 60.9852 38.7305 57.814H39.7853Z" fill="url(#paint1_linear_113_1586)"/>
<path d="M12.4572 39.6942C12.4572 39.6942 7.95796 39.8372 3.7074 37.1843L3.0625 37.9585C3.0625 37.9585 6.96375 40.3026 12.1557 40.7863L12.4572 39.6942Z" fill="url(#paint2_linear_113_1586)"/>
<path d="M0.741676 38.1193C0.741676 38.1193 -0.225667 37.9745 0.273944 37.1843C0.273944 37.1843 0.483448 36.8942 0.886962 37.0067L0.366399 36.7034C0.099059 36.5472 -0.0671731 36.2024 0.0261909 35.9073C0.084031 35.7251 0.315845 35.5088 0.644668 35.5557C1.43485 35.6686 1.48358 35.8458 1.48358 35.8458C1.48358 35.8458 0.661063 35.1362 1.24129 34.525C1.82151 33.9138 3.12815 35.8148 3.12815 35.8148C3.12815 35.8148 3.83772 34.1543 4.59556 34.5091C5.3534 34.8639 3.70837 37.1857 3.70837 37.1857L3.06348 37.9599C3.06348 37.9599 2.30564 38.4099 0.741676 38.1193Z" fill="url(#paint3_linear_113_1586)"/>
<path d="M1.40373 35.7688C1.40373 35.7734 1.40919 35.7775 1.41283 35.7811C1.41734 35.7848 1.42206 35.7883 1.42695 35.7916C1.43606 35.7984 1.44563 35.8052 1.45565 35.8116C1.47523 35.8244 1.49481 35.8371 1.51485 35.849C1.55402 35.874 1.59409 35.8977 1.63417 35.9214C1.71387 35.9669 1.79403 36.0125 1.87647 36.0544C1.95791 36.096 2.04187 36.1325 2.12787 36.1637C2.21461 36.1957 2.30531 36.2158 2.39748 36.2233C2.30359 36.2484 2.20491 36.2493 2.11056 36.2261C2.01561 36.2052 1.92377 36.1721 1.8373 36.1277C1.75204 36.0844 1.67106 36.0332 1.59546 35.9747C1.55771 35.9455 1.52167 35.9142 1.48752 35.8808C1.47067 35.864 1.45382 35.8467 1.43834 35.8285C1.4306 35.8194 1.42285 35.8102 1.41557 35.8002L1.40554 35.7852C1.406 35.7802 1.39963 35.7738 1.40373 35.7688Z" fill="black"/>
<path d="M0.886719 37.0066C1.08665 37.0558 1.28112 37.1045 1.47878 37.1387C1.57716 37.1564 1.67644 37.1678 1.77618 37.1774C1.87592 37.1869 1.97611 37.1856 2.0795 37.1842C1.98157 37.2192 1.87877 37.2388 1.77482 37.242C1.67095 37.2449 1.56705 37.2374 1.46466 37.2197C1.36284 37.2017 1.26274 37.175 1.16544 37.14C1.06782 37.1062 0.974318 37.0614 0.886719 37.0066Z" fill="black"/>
<path d="M61.0586 39.6942C61.0586 39.6942 65.5574 39.8372 69.8079 37.1843L70.4528 37.9585C70.4528 37.9585 66.552 40.3026 61.3601 40.7863L61.0586 39.6942Z" fill="url(#paint4_linear_113_1586)"/>
<path d="M72.7766 38.1193C72.7766 38.1193 73.7444 37.9745 73.2443 37.1843C73.2443 37.1843 73.0348 36.8942 72.6317 37.0067L73.1519 36.7034C73.4196 36.5472 73.5854 36.2024 73.4921 35.9073C73.4342 35.7251 73.2029 35.5088 72.8736 35.5557C72.0834 35.6686 72.0351 35.8458 72.0351 35.8458C72.0351 35.8458 72.8576 35.1362 72.277 34.525C71.6963 33.9139 70.3896 35.8135 70.3896 35.8135C70.3896 35.8135 69.6801 34.153 68.9222 34.5077C68.1644 34.8625 69.809 37.1843 69.809 37.1843L70.4539 37.9586C70.4539 37.9586 71.2126 38.4099 72.7766 38.1193Z" fill="url(#paint5_linear_113_1586)"/>
<path d="M72.1144 35.7687C72.119 35.7737 72.1144 35.7801 72.1103 35.7851C72.1072 35.7903 72.1039 35.7953 72.1003 35.8002C72.093 35.8102 72.0857 35.8193 72.078 35.8284C72.062 35.8466 72.0452 35.8639 72.0288 35.8808C71.9944 35.914 71.9582 35.9453 71.9204 35.9746C71.8449 36.0331 71.7641 36.0844 71.679 36.1276C71.5932 36.1717 71.5021 36.2048 71.408 36.226C71.3137 36.2492 71.215 36.2483 71.1211 36.2233C71.2133 36.2157 71.3039 36.1956 71.3907 36.1636C71.4765 36.1324 71.5603 36.0958 71.6417 36.0543C71.7241 36.0133 71.8042 35.9678 71.8844 35.9213C71.924 35.8976 71.9641 35.8758 72.0037 35.8489C72.0238 35.8371 72.0429 35.8243 72.0625 35.8116C72.0725 35.8052 72.0821 35.7983 72.0916 35.7915L72.1057 35.781C72.1089 35.7774 72.1167 35.7733 72.1144 35.7687Z" fill="black"/>
<path d="M72.6307 37.0066C72.5431 37.0614 72.4496 37.1062 72.352 37.14C72.2546 37.175 72.1543 37.2017 72.0523 37.2197C71.9499 37.2374 71.846 37.2449 71.7422 37.242C71.6382 37.2387 71.5354 37.2192 71.4375 37.1842C71.5409 37.1842 71.6411 37.1842 71.7408 37.1774C71.8406 37.1705 71.9398 37.1564 72.0382 37.1387C72.2359 37.1068 72.4308 37.0558 72.6307 37.0066Z" fill="black"/>
<path d="M37.7542 58.3692C51.5269 58.3692 62.6919 47.2042 62.6919 33.4315C62.6919 19.6587 51.5269 8.49371 37.7542 8.49371C23.9814 8.49371 12.8164 19.6587 12.8164 33.4315C12.8164 47.2042 23.9814 58.3692 37.7542 58.3692Z" fill="white"/>
<path d="M61.6346 45.4245C61.5632 44.6153 61.6963 43.8012 62.0215 43.0568C62.3467 42.3125 62.8537 41.6617 63.496 41.1643C64.9534 40.0335 66.5865 37.8014 66.8502 33.4315C67.169 28.1585 64.0152 25.456 62.1083 24.3137C61.7201 24.0815 61.4082 23.7409 61.2109 23.3339C61.0136 22.9268 60.9394 22.471 60.9975 22.0224C61.2753 19.8714 61.7175 16.4616 59.6881 13.8246C57.906 11.5078 54.5175 11.1663 52.3624 11.6112C51.7814 11.7287 51.1774 11.6184 50.6753 11.3032C50.1733 10.988 49.8115 10.4919 49.6649 9.91746C49.255 8.3403 48.2467 6.41426 45.7983 5.50932C41.2731 3.83696 38.1251 6.5928 36.6495 7.86801C35.1739 9.14323 33.108 8.49196 33.108 8.49196C31.8715 7.79833 29.935 7.29644 28.5018 6.99403C26.5375 6.57913 24.4826 6.77725 22.6613 7.62208C18.1939 9.69476 17.1606 14.475 16.9602 17.3602C16.914 18.0132 16.672 18.6371 16.2658 19.1504C15.8595 19.6637 15.3079 20.0426 14.683 20.2376C12.4883 20.9267 9.49698 22.3781 9.49698 25.1818C9.49698 27.3952 10.3368 29.2393 11.1762 30.5295C11.9764 31.7592 11.8329 33.3746 10.8574 34.4713C8.4472 37.1811 6.61636 44.1442 10.8943 49.9843C14.7053 55.1862 18.3994 54.8447 21.7559 55.1079C23.6687 55.2577 25.2759 56.6108 25.7118 58.4781C25.9527 59.5092 26.3271 60.5567 26.9091 61.2845C28.0423 62.7009 30.9092 62.9824 33.4906 61.2722C35.209 60.1336 37.4861 60.2844 38.9786 61.7058C40.0584 62.7337 41.3924 63.6678 42.8498 63.9506C45.9235 64.5472 48.3924 63.3371 49.1744 59.098C49.3441 58.1559 49.8142 57.2941 50.5145 56.6415C51.2148 55.9889 52.1076 55.5806 53.0592 55.4777C56.8954 55.0724 62.3073 53.1459 61.6346 45.4245Z" fill="url(#paint6_linear_113_1586)"/>
<path d="M36.3295 11.5211C36.3295 11.5211 37.8566 6.4029 33.3437 2.8956C32.7971 2.46977 32.5116 1.77204 32.6464 1.09117C32.7985 0.322853 34.0332 -0.79114 36.1387 0.839769C39.881 3.73952 36.3295 11.5211 36.3295 11.5211Z" fill="white"/>
<path d="M34.8464 13.6065C34.8464 13.6065 34.8195 8.26472 29.4818 6.22119C28.8338 5.97298 28.3592 5.3882 28.29 4.69777C28.2121 3.91852 29.0697 2.49346 31.5582 3.44168C35.9823 5.12769 34.8464 13.6065 34.8464 13.6065Z" fill="white"/>
<path d="M34.8585 40.6311C35.9461 40.1137 38.0802 39.4502 40.3578 40.6839C40.5803 40.8037 40.7622 40.9868 40.8805 41.2102C40.9987 41.4335 41.0479 41.6869 41.0219 41.9382C40.8916 43.1984 40.2854 44.853 37.6088 44.9705C34.8949 45.0912 34.2778 43.2312 34.1425 41.8876C34.1176 41.6299 34.1731 41.3708 34.3013 41.1459C34.4294 40.9209 34.6241 40.7411 34.8585 40.6311Z" fill="url(#paint7_linear_113_1586)"/>
<mask id="mask0_113_1586" style="mask-type:luminance" maskUnits="userSpaceOnUse" x="34" y="39" width="8" height="6">
<path d="M34.8583 40.0044C35.9514 39.4839 38.1069 38.8153 40.4009 40.0814C40.83 40.3178 41.0727 41.4213 41.0249 41.9091C40.901 43.1629 40.3062 44.8507 37.6091 44.9705C34.8952 45.0912 34.2781 43.2312 34.1428 41.8877C34.0905 41.3593 34.3787 40.2331 34.8583 40.0044Z" fill="white"/>
</mask>
<g mask="url(#mask0_113_1586)">
<path d="M34.4883 44.3776C34.4883 44.3776 37.0633 40.015 40.0446 43.673C43.0258 47.3311 34.4883 44.3776 34.4883 44.3776Z" fill="url(#paint8_linear_113_1586)"/>
</g>
<path d="M43.1981 39.5813C45.1434 39.5813 46.7204 38.0043 46.7204 36.059C46.7204 34.1137 45.1434 32.5367 43.1981 32.5367C41.2528 32.5367 39.6758 34.1137 39.6758 36.059C39.6758 38.0043 41.2528 39.5813 43.1981 39.5813Z" fill="white"/>
<path d="M42.5413 38.4497C43.7205 38.4497 44.6764 37.4937 44.6764 36.3146C44.6764 35.1354 43.7205 34.1795 42.5413 34.1795C41.3622 34.1795 40.4062 35.1354 40.4062 36.3146C40.4062 37.4937 41.3622 38.4497 42.5413 38.4497Z" fill="url(#paint9_linear_113_1586)"/>
<path d="M41.5226 36.7126C41.8652 36.7126 42.1429 36.4349 42.1429 36.0923C42.1429 35.7498 41.8652 35.472 41.5226 35.472C41.1801 35.472 40.9023 35.7498 40.9023 36.0923C40.9023 36.4349 41.1801 36.7126 41.5226 36.7126Z" fill="white"/>
<path d="M32.284 39.5813C34.2294 39.5813 35.8064 38.0043 35.8064 36.059C35.8064 34.1137 34.2294 32.5367 32.284 32.5367C30.3387 32.5367 28.7617 34.1137 28.7617 36.059C28.7617 38.0043 30.3387 39.5813 32.284 39.5813Z" fill="white"/>
<path d="M31.7015 38.4495C32.8807 38.4495 33.8366 37.4936 33.8366 36.3145C33.8366 35.1353 32.8807 34.1794 31.7015 34.1794C30.5223 34.1794 29.5664 35.1353 29.5664 36.3145C29.5664 37.4936 30.5223 38.4495 31.7015 38.4495Z" fill="url(#paint10_linear_113_1586)"/>
<path d="M30.7141 36.7125C31.0566 36.7125 31.3344 36.4348 31.3344 36.0922C31.3344 35.7496 31.0566 35.4719 30.7141 35.4719C30.3715 35.4719 30.0938 35.7496 30.0938 36.0922C30.0938 36.4348 30.3715 36.7125 30.7141 36.7125Z" fill="white"/>
<path d="M27.6798 30.9484C28.0615 30.7207 28.5133 30.462 28.9915 30.2375C29.2188 30.1308 29.452 30.0373 29.6901 29.9574C31.7851 29.2569 32.8326 29.2597 33.0922 29.2164C33.2689 29.1877 33.4834 29.2219 33.6774 29.1909C33.9143 29.154 34.0108 28.5078 33.8683 28.3438C33.5695 27.9981 32.7939 28.4308 32.2578 28.4189C31.9473 28.4141 31.6381 28.4593 31.342 28.5528C31.0523 28.648 30.7786 28.7632 30.509 28.8744C30.2394 28.9855 29.983 29.1148 29.7347 29.2501C29.4865 29.3854 29.2534 29.5384 29.0279 29.6955C28.5811 30.0143 27.9481 30.34 27.5938 30.7294L27.6798 30.9484Z" fill="#AFDCD2"/>
<path d="M27.5686 30.846C27.9382 30.5933 28.3225 30.3627 28.7195 30.1556C28.9569 30.0264 29.2019 29.9119 29.4532 29.8126C31.6607 28.9418 32.7833 28.9017 33.0621 28.8448C33.2502 28.8052 33.4824 28.8348 33.6892 28.7929C33.9411 28.7414 34.0331 28.5237 33.8714 28.3438C33.5298 27.9667 32.6959 27.9731 32.1193 27.9795C31.7861 27.9866 31.4565 28.0497 31.1442 28.1662C30.8391 28.2846 30.5522 28.4254 30.2689 28.5611C29.9916 28.6988 29.7216 28.8508 29.46 29.0165C29.2047 29.1832 28.9606 29.3595 28.7277 29.5453C28.2701 29.909 27.8532 30.3213 27.4844 30.7749L27.5686 30.846Z" fill="url(#paint11_linear_113_1586)"/>
<path d="M46.7754 31.1685C46.4111 30.9248 45.9812 30.6466 45.5212 30.4011C45.3022 30.2845 45.0765 30.1809 44.8453 30.0909C42.8091 29.3003 41.7666 29.2575 41.5088 29.2033C41.3344 29.1673 41.1185 29.1919 40.9272 29.1527C40.694 29.1072 40.6458 28.4559 40.8002 28.2974C41.124 27.9645 41.865 28.4309 42.4001 28.4423C42.7085 28.4506 43.0136 28.509 43.3032 28.6153C43.5847 28.7228 43.8497 28.8499 44.1098 28.9728C44.3644 29.0969 44.6127 29.2337 44.8535 29.3827C45.0882 29.533 45.3121 29.6917 45.5253 29.8587C45.9466 30.197 46.5532 30.5496 46.8779 30.9544L46.7754 31.1685Z" fill="#AFDCD2"/>
<path d="M46.8947 31.071C46.5449 30.8023 46.1789 30.5551 45.7989 30.3309C45.5717 30.1916 45.3359 30.0665 45.093 29.9566C42.9575 28.9906 41.8408 28.9036 41.5675 28.833C41.3826 28.7875 41.149 28.8052 40.9458 28.7542C40.6985 28.6918 40.6234 28.47 40.7992 28.2988C41.1676 27.9345 41.9988 27.98 42.5726 28.0119C42.9021 28.0326 43.2256 28.1097 43.5291 28.2396C43.8246 28.3712 44.1002 28.5238 44.3721 28.6723C44.6387 28.8209 44.8971 28.9837 45.1463 29.16C45.3892 29.3376 45.6195 29.5244 45.8372 29.7202C46.268 30.1169 46.662 30.5368 46.9844 31.0045L46.8947 31.071Z" fill="url(#paint12_linear_113_1586)"/>
<defs>
<linearGradient id="paint0_linear_113_1586" x1="25.7538" y1="63.322" x2="33.3823" y2="63.322" gradientUnits="userSpaceOnUse">
<stop stop-color="#212E5D"/>
<stop offset="1" stop-color="#242F3D"/>
</linearGradient>
<linearGradient id="paint1_linear_113_1586" x1="46.3581" y1="63.2328" x2="38.73" y2="63.2328" gradientUnits="userSpaceOnUse">
<stop stop-color="#212E5D"/>
<stop offset="1" stop-color="#242F3D"/>
</linearGradient>
<linearGradient id="paint2_linear_113_1586" x1="3.0625" y1="38.9851" x2="12.4572" y2="38.9851" gradientUnits="userSpaceOnUse">
<stop stop-color="#242F3D"/>
<stop offset="1" stop-color="#212E5D"/>
</linearGradient>
<linearGradient id="paint3_linear_113_1586" x1="-0.000224387" y1="36.3094" x2="4.79504" y2="36.3094" gradientUnits="userSpaceOnUse">
<stop stop-color="#242F3D"/>
<stop offset="1" stop-color="#212E5D"/>
</linearGradient>
<linearGradient id="paint4_linear_113_1586" x1="70.4528" y1="38.9851" x2="61.0586" y2="38.9851" gradientUnits="userSpaceOnUse">
<stop stop-color="#242F3D"/>
<stop offset="1" stop-color="#212E5D"/>
</linearGradient>
<linearGradient id="paint5_linear_113_1586" x1="73.5185" y1="36.3094" x2="68.7237" y2="36.3094" gradientUnits="userSpaceOnUse">
<stop stop-color="#242F3D"/>
<stop offset="1" stop-color="#212E5D"/>
</linearGradient>
<linearGradient id="paint6_linear_113_1586" x1="37.5991" y1="62.7013" x2="37.5991" y2="5.67236" gradientUnits="userSpaceOnUse">
<stop stop-color="#AFDCD2"/>
<stop offset="0.07" stop-color="#B6DFD6"/>
<stop offset="0.48" stop-color="#DEF0EC"/>
<stop offset="0.8" stop-color="#F6FBFA"/>
<stop offset="1" stop-color="white"/>
</linearGradient>
<linearGradient id="paint7_linear_113_1586" x1="34.7096" y1="42.0549" x2="41.5867" y2="42.6738" gradientUnits="userSpaceOnUse">
<stop stop-color="#242F3D"/>
<stop offset="1" stop-color="#212E5D"/>
</linearGradient>
<linearGradient id="paint8_linear_113_1586" x1="34.4883" y1="43.8579" x2="40.6754" y2="43.8579" gradientUnits="userSpaceOnUse">
<stop stop-color="#DE7C6B"/>
<stop offset="0.58" stop-color="#F39D98"/>
<stop offset="0.92" stop-color="#FAB397"/>
</linearGradient>
<linearGradient id="paint9_linear_113_1586" x1="40.4063" y1="36.3146" x2="44.6769" y2="36.3146" gradientUnits="userSpaceOnUse">
<stop stop-color="#242F3D"/>
<stop offset="1" stop-color="#212E5D"/>
</linearGradient>
<linearGradient id="paint10_linear_113_1586" x1="29.566" y1="36.3145" x2="33.8366" y2="36.3145" gradientUnits="userSpaceOnUse">
<stop stop-color="#242F3D"/>
<stop offset="1" stop-color="#212E5D"/>
</linearGradient>
<linearGradient id="paint11_linear_113_1586" x1="34.4828" y1="29.18" x2="27.8643" y2="29.9823" gradientUnits="userSpaceOnUse">
<stop stop-color="#242F3D"/>
<stop offset="1" stop-color="#212E5D"/>
</linearGradient>
<linearGradient id="paint12_linear_113_1586" x1="40.3191" y1="28.3793" x2="46.8105" y2="29.5054" gradientUnits="userSpaceOnUse">
<stop stop-color="#242F3D"/>
<stop offset="1" stop-color="#212E5D"/>
</linearGradient>
</defs>
</svg>
