<svg width="51" height="64" viewBox="0 0 51 64" fill="none" xmlns="http://www.w3.org/2000/svg">
<path d="M31.298 56.0346C31.298 56.0346 29.2912 55.5601 28.7513 55.8806C28.2113 56.2011 30.3279 56.7274 31.0145 56.6202C31.7011 56.5129 31.6271 56.3046 31.298 56.0346Z" fill="#F05355"/>
<path d="M19.5504 56.0346C19.5504 56.0346 21.5573 55.5601 22.0972 55.8806C22.6371 56.2011 20.5206 56.7274 19.8352 56.6202C19.1498 56.5129 19.2225 56.3046 19.5504 56.0346Z" fill="#F05355"/>
<path d="M21.9129 50.3533C21.9129 50.3533 21.8722 51.1348 19.8863 57.5584C19.8624 57.6357 19.8171 57.7047 19.7556 57.7573C19.694 57.8098 19.6188 57.8439 19.5387 57.8554C18.6278 57.9787 15.7309 58.489 16.2795 59.5738C16.3075 59.629 16.3504 59.6752 16.4034 59.7072C16.4563 59.7392 16.5172 59.7558 16.579 59.755C17.1732 59.7427 19.1295 59.6231 20.7024 58.5938C20.7606 58.5533 20.8039 58.4949 20.8256 58.4274C21.0919 57.6582 21.9141 53.1046 22.8238 50.3533H21.9129Z" fill="url(#paint0_linear_113_2078)"/>
<path d="M28.3807 50.2732C28.3807 50.2732 28.4214 51.0547 30.4073 57.4783C30.4314 57.5557 30.477 57.6247 30.5387 57.6773C30.6005 57.7299 30.6758 57.7639 30.7561 57.7754C31.6659 57.906 34.5639 58.409 34.0141 59.4937C33.9864 59.5492 33.9436 59.5956 33.8906 59.6277C33.8376 59.6597 33.7765 59.6761 33.7146 59.6749C33.1204 59.6626 31.1654 59.5431 29.5925 58.5138C29.5321 58.4741 29.4866 58.4156 29.463 58.3473C29.1968 57.5794 28.3746 53.0246 27.4648 50.2732H28.3807Z" fill="url(#paint1_linear_113_2078)"/>
<path d="M25.5382 50.6591C37.4916 50.6591 47.1818 40.9689 47.1818 29.0155C47.1818 17.062 37.4916 7.37183 25.5382 7.37183C13.5847 7.37183 3.89453 17.062 3.89453 29.0155C3.89453 40.9689 13.5847 50.6591 25.5382 50.6591Z" fill="white" stroke="black" stroke-width="0.58" stroke-miterlimit="10"/>
<path d="M46.2661 39.4241C46.2041 38.7218 46.3195 38.0152 46.6017 37.3691C46.8838 36.7229 47.3237 36.158 47.8809 35.7261C49.1481 34.7399 50.5632 32.8083 50.7925 29.0153C51.0686 24.4383 48.3271 22.0937 46.6766 21.1014C46.3398 20.8997 46.0692 20.6042 45.898 20.251C45.7268 19.8978 45.6623 19.5023 45.7126 19.1131C45.9591 17.2468 46.3376 14.2871 44.5761 11.9979C43.0303 9.98619 40.0891 9.69034 38.2178 10.0762C37.7134 10.1788 37.1889 10.0835 36.7529 9.80997C36.3168 9.53642 36.0028 9.10561 35.8757 8.60681C35.5207 7.23852 34.643 5.56698 32.5203 4.78546C28.5929 3.33458 25.8638 5.72477 24.5793 6.83543C23.2948 7.94608 21.5062 7.37658 21.5062 7.37658C20.4325 6.77379 18.7524 6.33865 17.5086 6.07609C15.8043 5.70627 14.0261 5.89784 12.4397 6.62217C8.56169 8.42067 7.66552 12.5687 7.49171 15.0735C7.45171 15.6397 7.24219 16.1807 6.89041 16.6262C6.53863 17.0716 6.0609 17.4008 5.5194 17.571C3.61489 18.1688 1.01884 19.4286 1.01884 21.862C1.01884 23.7825 1.74736 25.3825 2.47588 26.503C2.81008 27.025 2.96403 27.6421 2.91416 28.2599C2.8643 28.8777 2.61336 29.4622 2.19976 29.9238C0.104178 32.2757 -1.48106 38.3196 2.23181 43.3872C5.53912 47.9026 8.74536 47.6068 11.6582 47.8348C12.467 47.8949 13.2357 48.2107 13.8531 48.7365C14.4705 49.2624 14.9045 49.9711 15.0925 50.76C15.3008 51.6549 15.6263 52.5634 16.1317 53.1958C17.1178 54.4285 19.6029 54.675 21.8427 53.1847C22.5614 52.699 23.4236 52.4715 24.2883 52.5394C25.1531 52.6072 25.9692 52.9664 26.6034 53.5582C27.5415 54.4507 28.699 55.2618 29.9637 55.5071C32.6313 56.0248 34.7712 54.9746 35.4529 51.2962C35.5999 50.4784 36.0078 49.7301 36.6155 49.1635C37.2233 48.5968 37.9982 48.2423 38.8243 48.1528C42.1526 47.7978 46.8541 46.1251 46.2661 39.4241Z" fill="url(#paint2_linear_113_2078)"/>
<path d="M24.3259 9.99856C24.3259 9.99856 25.6511 5.56087 21.7373 2.51241C21.5015 2.33293 21.3201 2.0916 21.2133 1.81523C21.1064 1.53887 21.0783 1.23829 21.132 0.946895C21.2639 0.280007 22.3364 -0.686425 24.1632 0.728707C27.4077 3.24463 24.3259 9.99856 24.3259 9.99856Z" fill="white"/>
<path d="M23.0381 11.8083C23.0381 11.8083 23.0146 7.17336 18.3822 5.39828C18.1043 5.29503 17.8606 5.11674 17.678 4.88324C17.4954 4.64973 17.3811 4.37016 17.348 4.0756C17.2802 3.39886 18.0247 2.16246 20.1831 2.9859C24.0242 4.45034 23.0381 11.8083 23.0381 11.8083Z" fill="white"/>
<path d="M31.4527 56.3343C31.4527 56.3343 29.0872 56.396 28.6607 56.0348C28.6607 56.0348 28.9417 57.5941 28.6607 58.0712C28.1959 58.8589 27.4132 61.1258 28.4634 61.7828C29.5137 62.4399 32.7668 63.8784 34.9671 62.8923C37.1675 61.9061 36.4007 57.3094 31.5156 58.4546C31.518 58.4644 31.2222 58.2721 31.4527 56.3343Z" fill="url(#paint3_linear_113_2078)"/>
<path d="M28.0159 60.3197C29.1512 61.0285 32.6643 62.5903 35.0422 61.5253C35.51 61.3135 35.8832 60.9364 36.09 60.4664C36.2848 61.4525 35.8829 62.4892 34.967 62.8985C32.7667 63.8846 29.5148 62.4387 28.4633 61.7891C28.0097 61.5043 27.8975 60.92 27.9555 60.2839L28.0159 60.3197Z" fill="white"/>
<path d="M31.1516 59.1165C30.719 58.0268 29.395 55.7229 31.694 55.5306C34.0287 55.3358 33.3508 58.3153 32.4829 58.9748C32.3239 59.0956 31.2687 59.4099 31.1516 59.1165Z" fill="#FDBC42"/>
<path d="M32.7049 56.9532C32.79 56.9532 32.859 56.8842 32.859 56.7991C32.859 56.714 32.79 56.645 32.7049 56.645C32.6198 56.645 32.5508 56.714 32.5508 56.7991C32.5508 56.8842 32.6198 56.9532 32.7049 56.9532Z" fill="#E8A73F"/>
<path d="M32.6814 57.4178C32.7665 57.4178 32.8355 57.3488 32.8355 57.2637C32.8355 57.1786 32.7665 57.1096 32.6814 57.1096C32.5963 57.1096 32.5273 57.1786 32.5273 57.2637C32.5273 57.3488 32.5963 57.4178 32.6814 57.4178Z" fill="#E8A73F"/>
<path d="M31.2869 57.4538C31.372 57.4538 31.441 57.3848 31.441 57.2997C31.441 57.2146 31.372 57.1456 31.2869 57.1456C31.2018 57.1456 31.1328 57.2146 31.1328 57.2997C31.1328 57.3848 31.2018 57.4538 31.2869 57.4538Z" fill="#E8A73F"/>
<path d="M31.2986 57.8913C31.3837 57.8913 31.4527 57.8223 31.4527 57.7372C31.4527 57.6521 31.3837 57.5831 31.2986 57.5831C31.2135 57.5831 31.1445 57.6521 31.1445 57.7372C31.1445 57.8223 31.2135 57.8913 31.2986 57.8913Z" fill="#E8A73F"/>
<path d="M32.6814 57.885C32.7665 57.885 32.8355 57.816 32.8355 57.7309C32.8355 57.6458 32.7665 57.5768 32.6814 57.5768C32.5963 57.5768 32.5273 57.6458 32.5273 57.7309C32.5273 57.816 32.5963 57.885 32.6814 57.885Z" fill="#E8A73F"/>
<path d="M31.2869 56.9802C31.372 56.9802 31.441 56.9112 31.441 56.8261C31.441 56.741 31.372 56.672 31.2869 56.672C31.2018 56.672 31.1328 56.741 31.1328 56.8261C31.1328 56.9112 31.2018 56.9802 31.2869 56.9802Z" fill="#E8A73F"/>
<path d="M32.68 56.8039C32.68 56.8039 31.8319 56.5573 31.2969 56.8544" stroke="#FFE7B3" stroke-width="1.2" stroke-miterlimit="10" stroke-linecap="round"/>
<path d="M32.68 57.2489C32.68 57.2489 31.9403 57.032 31.2969 57.2995" stroke="#FFE7B3" stroke-width="1.2" stroke-miterlimit="10" stroke-linecap="round"/>
<path d="M32.68 57.6791C32.2265 57.5381 31.7385 57.5564 31.2969 57.7308" stroke="#FFE7B3" stroke-width="1.2" stroke-miterlimit="10" stroke-linecap="round"/>
<path d="M35.0998 58.7836C34.5559 58.4038 33.9039 58.2097 33.2409 58.2301C32.4791 58.2486 31.4313 58.4939 30.8211 59.5725C30.328 60.4354 30.1505 62.245 31.2008 62.5371C31.2008 62.5371 35.1775 63.665 35.9997 61.7593C36.0046 61.7593 36.6937 59.9127 35.0998 58.7836Z" fill="white"/>
<path d="M19.4002 56.3343C19.4002 56.3343 21.7645 56.396 22.191 56.0348C22.191 56.0348 21.91 57.5941 22.191 58.0712C22.6558 58.8589 23.4398 61.1258 22.3883 61.7828C21.3368 62.4399 18.0862 63.8784 15.8858 62.8923C13.6855 61.9061 14.451 57.3094 19.3374 58.4546C19.3337 58.4644 19.6295 58.2721 19.4002 56.3343Z" fill="url(#paint4_linear_113_2078)"/>
<path d="M22.8358 60.3197C21.7005 61.0285 18.1861 62.5903 15.8095 61.5253C15.3417 61.3138 14.9688 60.9366 14.7629 60.4664C14.5681 61.4525 14.97 62.4892 15.8859 62.8985C18.0862 63.8846 21.3381 62.4387 22.3883 61.7891C22.8432 61.5043 22.9541 60.92 22.8974 60.2839L22.8358 60.3197Z" fill="white"/>
<path d="M19.7005 59.1165C20.1332 58.0268 21.4583 55.7229 19.1581 55.5306C16.8234 55.3358 17.5014 58.3153 18.3704 58.9748C18.5294 59.0956 19.5846 59.4099 19.7005 59.1165Z" fill="#FDBC42"/>
<path d="M18.1463 56.9532C18.2314 56.9532 18.3004 56.8842 18.3004 56.7991C18.3004 56.714 18.2314 56.645 18.1463 56.645C18.0612 56.645 17.9922 56.714 17.9922 56.7991C17.9922 56.8842 18.0612 56.9532 18.1463 56.9532Z" fill="#E8A73F"/>
<path d="M18.1697 57.4178C18.2548 57.4178 18.3238 57.3488 18.3238 57.2637C18.3238 57.1786 18.2548 57.1096 18.1697 57.1096C18.0846 57.1096 18.0156 57.1786 18.0156 57.2637C18.0156 57.3488 18.0846 57.4178 18.1697 57.4178Z" fill="#E8A73F"/>
<path d="M19.5603 57.4538C19.6454 57.4538 19.7144 57.3848 19.7144 57.2997C19.7144 57.2146 19.6454 57.1456 19.5603 57.1456C19.4752 57.1456 19.4062 57.2146 19.4062 57.2997C19.4062 57.3848 19.4752 57.4538 19.5603 57.4538Z" fill="#E8A73F"/>
<path d="M19.5525 57.8913C19.6376 57.8913 19.7066 57.8223 19.7066 57.7372C19.7066 57.6521 19.6376 57.5831 19.5525 57.5831C19.4674 57.5831 19.3984 57.6521 19.3984 57.7372C19.3984 57.8223 19.4674 57.8913 19.5525 57.8913Z" fill="#E8A73F"/>
<path d="M18.1697 57.885C18.2548 57.885 18.3238 57.816 18.3238 57.7309C18.3238 57.6458 18.2548 57.5768 18.1697 57.5768C18.0846 57.5768 18.0156 57.6458 18.0156 57.7309C18.0156 57.816 18.0846 57.885 18.1697 57.885Z" fill="#E8A73F"/>
<path d="M19.5603 56.9802C19.6454 56.9802 19.7144 56.9112 19.7144 56.8261C19.7144 56.741 19.6454 56.672 19.5603 56.672C19.4752 56.672 19.4062 56.741 19.4062 56.8261C19.4062 56.9112 19.4752 56.9802 19.5603 56.9802Z" fill="#E8A73F"/>
<path d="M18.168 56.8039C18.168 56.8039 19.0161 56.5573 19.5511 56.8544" stroke="#FFE7B3" stroke-width="1.2" stroke-miterlimit="10" stroke-linecap="round"/>
<path d="M18.168 57.2489C18.168 57.2489 18.9076 57.032 19.5511 57.2995" stroke="#FFE7B3" stroke-width="1.2" stroke-miterlimit="10" stroke-linecap="round"/>
<path d="M18.168 57.6791C18.6214 57.5381 19.1094 57.5564 19.5511 57.7308" stroke="#FFE7B3" stroke-width="1.2" stroke-miterlimit="10" stroke-linecap="round"/>
<path d="M15.7483 58.7836C16.2923 58.4038 16.9442 58.2097 17.6073 58.2301C18.3691 58.2486 19.4168 58.4939 20.027 59.5725C20.5201 60.4354 20.6988 62.245 19.6474 62.5371C19.6474 62.5371 15.6707 63.665 14.8497 61.7593C14.8497 61.7593 14.1557 59.9127 15.7483 58.7836Z" fill="white"/>
<path d="M25.0871 36.0108C24.1798 35.286 21.8821 33.824 19.2934 35.0247C18.5162 35.3916 17.8394 35.9415 17.3211 36.6272C16.5273 37.6565 15.5547 39.4809 16.2672 41.6812C16.4599 42.2608 16.7473 42.8044 17.1177 43.2899C17.8216 44.228 19.593 46.4863 21.283 47.841C21.283 47.841 24.2415 50.4851 25.1204 50.6836C25.9993 50.882 30.8278 46.6872 30.8278 46.6872C33.4324 44.4622 35.173 42.1127 34.7157 39.4463C34.5584 38.6025 34.2082 37.8065 33.6925 37.1203C31.5168 34.1371 28.2773 34.2851 25.9266 36.0293C25.804 36.1188 25.6554 36.1654 25.5037 36.1621C25.352 36.1587 25.2056 36.1056 25.0871 36.0108Z" fill="#FF7A7F"/>
<path d="M43.7649 35.7536C44.3793 35.7536 44.8774 35.2555 44.8774 34.6411C44.8774 34.0267 44.3793 33.5286 43.7649 33.5286C43.1504 33.5286 42.6523 34.0267 42.6523 34.6411C42.6523 35.2555 43.1504 35.7536 43.7649 35.7536Z" fill="#AFDCD2"/>
<path d="M44.0336 34.5908C44.0336 34.5908 45.2564 48.6435 34.082 44.0826" stroke="url(#paint5_linear_113_2078)" stroke-miterlimit="10" stroke-linecap="round"/>
<path d="M31.2561 44.9849C31.2561 44.9849 30.3636 44.6545 30.922 43.9482C31.0005 43.8736 31.1013 43.827 31.2089 43.8154C31.3165 43.8038 31.4249 43.8279 31.5174 43.8841L31.0626 43.4785C30.9426 43.3721 30.8566 43.2327 30.8154 43.0777C30.7741 42.9227 30.7795 42.759 30.8308 42.607C30.8842 42.4965 30.9774 42.4103 31.0918 42.3659C31.2062 42.3216 31.3332 42.3222 31.4472 42.3678C32.1769 42.6316 32.2028 42.8202 32.2028 42.8202C32.2028 42.8202 31.5088 41.9463 32.1227 41.4347C32.7366 40.9231 34.2799 42.5269 34.2799 42.5269C34.3785 41.9993 34.8876 42.5355 34.2651 44.2009C34.1926 44.4361 34.0683 44.6522 33.9014 44.8332C33.6577 45.0696 33.3435 45.2198 33.0065 45.261C32.409 45.3204 31.8063 45.2253 31.2561 44.9849Z" fill="url(#paint6_linear_113_2078)"/>
<path d="M32.1406 42.7267C32.1676 42.7644 32.1995 42.7984 32.2355 42.8278L32.3391 42.9214C32.4081 42.9831 32.4771 43.0447 32.5499 43.1014C32.6211 43.1591 32.6956 43.2126 32.773 43.2617C32.8492 43.3113 32.9323 43.3495 33.0195 43.3751C32.9224 43.3806 32.8255 43.3606 32.7385 43.3171C32.6505 43.2767 32.5677 43.2258 32.4919 43.1655C32.4174 43.1053 32.3485 43.0385 32.2861 42.9658C32.2228 42.8961 32.1734 42.8149 32.1406 42.7267Z" fill="black"/>
<path d="M31.5156 43.884C31.6968 43.9703 31.8719 44.0554 32.0531 44.1306C32.1443 44.1676 32.2355 44.1984 32.3292 44.228C32.4241 44.2547 32.5204 44.2761 32.6177 44.2921C32.5172 44.3081 32.4149 44.3081 32.3144 44.2921C32.215 44.274 32.1176 44.2463 32.0235 44.2095C31.8356 44.1333 31.6634 44.0229 31.5156 43.884Z" fill="black"/>
<path d="M6.68282 35.7536C7.29724 35.7536 7.79534 35.2555 7.79534 34.6411C7.79534 34.0267 7.29724 33.5286 6.68282 33.5286C6.0684 33.5286 5.57031 34.0267 5.57031 34.6411C5.57031 35.2555 6.0684 35.7536 6.68282 35.7536Z" fill="#AFDCD2"/>
<path d="M6.97313 34.5859C6.97313 34.5859 5.74906 48.6386 16.9234 44.0777" stroke="url(#paint7_linear_113_2078)" stroke-miterlimit="10" stroke-linecap="round"/>
<path d="M19.7154 44.9786C19.7154 44.9786 20.6091 44.6495 20.0507 43.9432C19.9721 43.8683 19.8711 43.8215 19.7632 43.8099C19.6554 43.7983 19.5467 43.8226 19.454 43.8791L19.9101 43.4723C20.0298 43.3659 20.1155 43.2266 20.1565 43.0719C20.1975 42.9171 20.192 42.7537 20.1407 42.602C20.0873 42.4915 19.9941 42.4052 19.8797 42.3606C19.7654 42.316 19.6384 42.3164 19.5243 42.3616C18.7946 42.6254 18.7687 42.814 18.7687 42.814C18.7687 42.814 19.4627 41.94 18.8488 41.4285C18.2349 40.9169 16.6953 42.5206 16.6953 42.5206C16.5967 41.9943 16.0888 42.5305 16.7101 44.1946C16.7825 44.4299 16.9068 44.646 17.0737 44.827C17.3171 45.0639 17.6315 45.2146 17.9686 45.256C18.565 45.3136 19.1662 45.2181 19.7154 44.9786Z" fill="url(#paint8_linear_113_2078)"/>
<path d="M18.8304 42.7217C18.7957 42.8107 18.7437 42.8919 18.6775 42.9608C18.6152 43.0328 18.5467 43.0992 18.4729 43.1593C18.3972 43.2201 18.3145 43.2714 18.2264 43.3121C18.1391 43.3549 18.0424 43.3749 17.9453 43.3701C18.0324 43.3434 18.1154 43.3049 18.1919 43.2554C18.2695 43.2068 18.3441 43.1533 18.415 43.0952C18.4877 43.0385 18.5567 42.9781 18.627 42.9164L18.7293 42.8215C18.7671 42.7927 18.8011 42.7592 18.8304 42.7217Z" fill="black"/>
<path d="M19.4563 43.8792C19.3087 44.0162 19.1369 44.1244 18.9496 44.1984C18.8553 44.236 18.7574 44.2641 18.6575 44.2822C18.5574 44.2983 18.4555 44.2983 18.3555 44.2822C18.4527 44.2661 18.549 44.2447 18.6439 44.2181C18.7364 44.1898 18.8288 44.1577 18.9188 44.122C19.1 44.0505 19.2763 43.9642 19.4563 43.8792Z" fill="black"/>
<path d="M16.8493 24.5897C17.1784 24.4135 17.5679 24.2125 17.9772 24.0424C18.1723 23.9616 18.3719 23.8921 18.575 23.8341C20.36 23.325 21.2376 23.3669 21.4595 23.341C21.6087 23.3238 21.7874 23.3607 21.9526 23.341C22.1535 23.3188 22.2583 22.7801 22.1449 22.6371C21.9082 22.3351 21.2401 22.6692 20.7889 22.6371C20.5284 22.6212 20.267 22.6475 20.0148 22.7148C19.7683 22.7838 19.5341 22.8701 19.3036 22.9527C19.073 23.0353 18.8524 23.1352 18.6391 23.2387C18.4259 23.3422 18.2237 23.4631 18.0289 23.5863C17.6419 23.8329 17.0983 24.0856 16.7852 24.3999L16.8493 24.5897Z" fill="#AFDCD2"/>
<path d="M16.7604 24.4963C17.0808 24.2986 17.4126 24.12 17.754 23.9613C17.958 23.8618 18.168 23.7749 18.3827 23.7012C20.2687 23.054 21.2179 23.0639 21.4496 23.0257C21.6086 22.9998 21.8022 23.0331 21.9772 23.006C22.1905 22.9727 22.2767 22.7927 22.1461 22.6362C21.8736 22.3058 21.1735 22.2799 20.689 22.2663C20.4088 22.2609 20.1296 22.3025 19.8631 22.3896C19.603 22.4784 19.3565 22.5856 19.1137 22.6879C18.8708 22.7902 18.6403 22.9123 18.4172 23.038C18.1941 23.1637 17.9845 23.3067 17.7823 23.4547C17.3843 23.7432 17.0186 24.0739 16.6914 24.4408L16.7604 24.4963Z" fill="url(#paint9_linear_113_2078)"/>
<path d="M32.8813 24.5897C32.5522 24.4135 32.1627 24.2125 31.7534 24.0424C31.5583 23.9616 31.3587 23.8921 31.1556 23.8341C29.3706 23.325 28.493 23.3669 28.2711 23.341C28.1219 23.3238 27.9432 23.3607 27.778 23.341C27.5771 23.3188 27.4723 22.7801 27.5857 22.6371C27.8224 22.3351 28.4905 22.6692 28.9417 22.6371C29.2022 22.6212 29.4636 22.6475 29.7158 22.7148C29.9623 22.7838 30.1965 22.8701 30.4271 22.9527C30.6576 23.0353 30.8782 23.1352 31.0915 23.2387C31.3047 23.3422 31.5069 23.4631 31.7017 23.5863C32.0887 23.8329 32.6323 24.0856 32.9454 24.3999L32.8813 24.5897Z" fill="#AFDCD2"/>
<path d="M32.9708 24.4963C32.6507 24.2989 32.3194 24.1202 31.9785 23.9613C31.774 23.862 31.5636 23.7751 31.3486 23.7012C29.4626 23.054 28.5134 23.0639 28.2817 23.0257C28.1226 22.9998 27.9291 23.0331 27.7541 23.006C27.5408 22.9727 27.4545 22.7927 27.5852 22.6362C27.8576 22.3058 28.5578 22.2799 29.0422 22.2663C29.3225 22.2609 29.6017 22.3025 29.8681 22.3896C30.1282 22.4784 30.3748 22.5856 30.6176 22.6879C30.8605 22.7902 31.091 22.9123 31.3141 23.038C31.5372 23.1637 31.7468 23.3067 31.9489 23.4547C32.3469 23.7432 32.7127 24.0739 33.0398 24.4408L32.9708 24.4963Z" fill="url(#paint10_linear_113_2078)"/>
<path d="M21.9258 32.7333C22.4807 32.9664 23.0507 33.1621 23.6318 33.3188C24.1906 33.4708 24.7644 33.5613 25.3428 33.5888C25.6281 33.6005 25.9139 33.5931 26.1983 33.5666C26.4842 33.5381 26.7679 33.4907 27.0476 33.4248C27.6262 33.2751 28.1885 33.0686 28.7265 32.8085C28.3132 33.2892 27.7925 33.6658 27.2066 33.908C26.9082 34.0302 26.5974 34.1195 26.2797 34.1743C25.9612 34.2272 25.6382 34.2471 25.3157 34.2335C24.6773 34.2036 24.0501 34.0544 23.4666 33.7934C22.8864 33.5482 22.3621 33.1876 21.9258 32.7333Z" fill="#9AC1B8"/>
<path d="M30.0598 31.4636C31.7474 31.4636 33.1156 30.0955 33.1156 28.4078C33.1156 26.7201 31.7474 25.3519 30.0598 25.3519C28.3721 25.3519 27.0039 26.7201 27.0039 28.4078C27.0039 30.0955 28.3721 31.4636 30.0598 31.4636Z" fill="white"/>
<path d="M29.4895 30.5132C30.5127 30.5132 31.3422 29.6837 31.3422 28.6605C31.3422 27.6372 30.5127 26.8077 29.4895 26.8077C28.4662 26.8077 27.6367 27.6372 27.6367 28.6605C27.6367 29.6837 28.4662 30.5132 29.4895 30.5132Z" fill="url(#paint11_linear_113_2078)"/>
<path d="M28.6051 29.1277C28.9026 29.1277 29.1438 28.8865 29.1438 28.589C29.1438 28.2915 28.9026 28.0503 28.6051 28.0503C28.3076 28.0503 28.0664 28.2915 28.0664 28.589C28.0664 28.8865 28.3076 29.1277 28.6051 29.1277Z" fill="white"/>
<path d="M20.591 31.4636C22.2787 31.4636 23.6469 30.0955 23.6469 28.4078C23.6469 26.7201 22.2787 25.3519 20.591 25.3519C18.9033 25.3519 17.5352 26.7201 17.5352 28.4078C17.5352 30.0955 18.9033 31.4636 20.591 31.4636Z" fill="white"/>
<path d="M21.4309 30.5132C22.4541 30.5132 23.2836 29.6837 23.2836 28.6605C23.2836 27.6372 22.4541 26.8077 21.4309 26.8077C20.4076 26.8077 19.5781 27.6372 19.5781 28.6605C19.5781 29.6837 20.4076 30.5132 21.4309 30.5132Z" fill="url(#paint12_linear_113_2078)"/>
<path d="M22.1949 29.1277C22.4924 29.1277 22.7336 28.8865 22.7336 28.589C22.7336 28.2915 22.4924 28.0503 22.1949 28.0503C21.8974 28.0503 21.6562 28.2915 21.6562 28.589C21.6562 28.8865 21.8974 29.1277 22.1949 29.1277Z" fill="white"/>
<defs>
<linearGradient id="paint0_linear_113_2078" x1="16.2117" y1="55.0511" x2="22.8288" y2="55.0511" gradientUnits="userSpaceOnUse">
<stop stop-color="#212E5D"/>
<stop offset="1" stop-color="#242F3D"/>
</linearGradient>
<linearGradient id="paint1_linear_113_2078" x1="34.0832" y1="54.9747" x2="27.4661" y2="54.9747" gradientUnits="userSpaceOnUse">
<stop stop-color="#212E5D"/>
<stop offset="1" stop-color="#242F3D"/>
</linearGradient>
<linearGradient id="paint2_linear_113_2078" x1="25.4052" y1="54.4186" x2="25.4052" y2="4.92228" gradientUnits="userSpaceOnUse">
<stop stop-color="#AFDCD2"/>
<stop offset="0.07" stop-color="#B6DFD6"/>
<stop offset="0.48" stop-color="#DEF0EC"/>
<stop offset="0.8" stop-color="#F6FBFA"/>
<stop offset="1" stop-color="white"/>
</linearGradient>
<linearGradient id="paint3_linear_113_2078" x1="38.9401" y1="59.6343" x2="16.7602" y2="59.6343" gradientUnits="userSpaceOnUse">
<stop stop-color="#F47959"/>
<stop offset="0.91" stop-color="#F05355"/>
</linearGradient>
<linearGradient id="paint4_linear_113_2078" x1="11.9116" y1="59.6343" x2="34.0915" y2="59.6343" gradientUnits="userSpaceOnUse">
<stop stop-color="#F47959"/>
<stop offset="0.91" stop-color="#F05355"/>
</linearGradient>
<linearGradient id="paint5_linear_113_2078" x1="45.622" y1="32.8328" x2="39.3644" y2="45.348" gradientUnits="userSpaceOnUse">
<stop stop-color="#242F3D"/>
<stop offset="1" stop-color="#212E5D"/>
</linearGradient>
<linearGradient id="paint6_linear_113_2078" x1="30.7461" y1="43.0443" x2="34.4756" y2="43.6177" gradientUnits="userSpaceOnUse">
<stop stop-color="#242F3D"/>
<stop offset="1" stop-color="#212E5D"/>
</linearGradient>
<linearGradient id="paint7_linear_113_2078" x1="2.81609" y1="31.9526" x2="9.07367" y2="44.4678" gradientUnits="userSpaceOnUse">
<stop stop-color="#242F3D"/>
<stop offset="1" stop-color="#212E5D"/>
</linearGradient>
<linearGradient id="paint8_linear_113_2078" x1="18.2077" y1="42.0533" x2="14.4721" y2="42.6193" gradientUnits="userSpaceOnUse">
<stop stop-color="#242F3D"/>
<stop offset="1" stop-color="#212E5D"/>
</linearGradient>
<linearGradient id="paint9_linear_113_2078" x1="19.2028" y1="22.7826" x2="13.5842" y2="23.1759" gradientUnits="userSpaceOnUse">
<stop stop-color="#242F3D"/>
<stop offset="1" stop-color="#212E5D"/>
</linearGradient>
<linearGradient id="paint10_linear_113_2078" x1="27.4984" y1="23.1301" x2="33.1032" y2="23.524" gradientUnits="userSpaceOnUse">
<stop stop-color="#242F3D"/>
<stop offset="1" stop-color="#212E5D"/>
</linearGradient>
<linearGradient id="paint11_linear_113_2078" x1="27.6367" y1="28.6605" x2="31.3422" y2="28.6605" gradientUnits="userSpaceOnUse">
<stop stop-color="#242F3D"/>
<stop offset="1" stop-color="#212E5D"/>
</linearGradient>
<linearGradient id="paint12_linear_113_2078" x1="19.5781" y1="28.6605" x2="23.2836" y2="28.6605" gradientUnits="userSpaceOnUse">
<stop stop-color="#242F3D"/>
<stop offset="1" stop-color="#212E5D"/>
</linearGradient>
</defs>
</svg>
