<svg width="24" height="24" viewBox="0 0 24 24" fill="none" xmlns="http://www.w3.org/2000/svg">
<path d="M20.1529 8.91711H4.36767C4.16461 8.91711 4 9.08172 4 9.28478V10.9025C4 11.1056 4.16461 11.2702 4.36767 11.2702H20.1529C20.3559 11.2702 20.5205 11.1056 20.5205 10.9025V9.28478C20.5205 9.08172 20.3559 8.91711 20.1529 8.91711Z" fill="#FFC648"/>
<path d="M19.7291 12.5509H4.76506C4.69851 12.5513 4.63347 12.5707 4.57759 12.6069C4.5217 12.643 4.47731 12.6944 4.44962 12.7549C4.42194 12.8154 4.41212 12.8826 4.42132 12.9485C4.43053 13.0144 4.45837 13.0763 4.50157 13.1269L10.2311 19.7204V23.1336L13.9077 22.1348L13.9445 19.7204L19.9559 13.133C20.0019 13.0859 20.0333 13.0265 20.0464 12.9619C20.0595 12.8973 20.0538 12.8304 20.0299 12.769C20.006 12.7076 19.9649 12.6544 19.9116 12.6157C19.8583 12.5771 19.7949 12.5546 19.7291 12.5509Z" fill="#FFC648"/>
<path d="M7.14997 6.74171C7.90805 6.74171 8.5226 6.12717 8.5226 5.36909C8.5226 4.61101 7.90805 3.99646 7.14997 3.99646C6.39189 3.99646 5.77734 4.61101 5.77734 5.36909C5.77734 6.12717 6.39189 6.74171 7.14997 6.74171Z" fill="#3884C5"/>
<path d="M14.5836 3.74525C15.3416 3.74525 15.9562 3.13071 15.9562 2.37263C15.9562 1.61455 15.3416 1 14.5836 1C13.8255 1 13.2109 1.61455 13.2109 2.37263C13.2109 3.13071 13.8255 3.74525 14.5836 3.74525Z" fill="#3884C5"/>
<path d="M12.6205 6.49056C13.1789 6.49056 13.6315 6.03788 13.6315 5.47947C13.6315 4.92106 13.1789 4.46838 12.6205 4.46838C12.0621 4.46838 11.6094 4.92106 11.6094 5.47947C11.6094 6.03788 12.0621 6.49056 12.6205 6.49056Z" fill="#3884C5"/>
</svg>
