<svg width="71" height="84" viewBox="0 0 71 84" fill="none" xmlns="http://www.w3.org/2000/svg">
<path d="M41.8427 99.1247C36.6776 94.8619 28.0789 85.6312 27.86 71.2953C27.8439 70.278 26.4568 69.9892 26.0418 70.9187C23.2712 77.1222 19.9397 90.8767 33.437 107.444C36.1482 110.772 41.3814 110.23 43.3387 106.41C43.9566 105.207 44.1451 103.829 43.873 102.504C43.601 101.179 42.8847 99.9871 41.8427 99.1247Z" fill="url(#paint0_linear_113_1784)"/>
<path d="M49.6968 78.957C49.6968 78.957 46.9547 75.9557 45.8242 72.9582C45.3746 71.7677 44.4581 70.4066 43.7834 69.328C42.9331 67.9712 42.8298 66.7108 42.16 66.2359C41.4333 65.7248 40.8612 65.0237 40.5063 64.2093C39.9231 62.8487 40.2831 62.4115 41.6696 61.5945C42.4618 61.1276 42.8935 62.4096 43.7401 63.1214C44.2778 63.576 44.7285 64.1244 45.0704 64.7399C45.878 66.1876 46.5014 66.7485 47.2967 69.9273C47.5107 70.7335 47.794 71.5198 48.1433 72.2773C48.4736 72.9576 49.4006 75.6787 50.1693 76.2971C50.3109 76.4109 51.3004 77.6898 51.3944 77.6199L49.6968 78.957Z" fill="url(#paint1_linear_113_1784)"/>
<path d="M43.4231 69.3182L46.8987 67.8296C46.9426 67.8109 46.9822 67.7833 47.0149 67.7486C47.0477 67.7139 47.0729 67.6727 47.0891 67.6278C47.1052 67.5829 47.1119 67.5351 47.1087 67.4875C47.1056 67.4398 47.0926 67.3934 47.0706 67.351L44.5351 62.4283C43.8777 61.1531 42.3705 60.6348 41.1764 61.2662C39.9086 61.9378 39.5109 63.6206 40.3161 64.9069L42.9921 69.1834C43.036 69.2536 43.1036 69.3058 43.1827 69.3305C43.2617 69.3553 43.347 69.3509 43.4231 69.3182Z" fill="url(#paint2_linear_113_1784)"/>
<path d="M48.8082 80.2544C48.8082 80.2544 49.5274 81.8549 49.5404 82.6453C49.5534 83.4357 50.2868 83.3825 50.4396 82.9341C50.5923 82.4857 50.6814 81.3942 50.2646 80.5971L50.421 80.5408C50.421 80.5408 51.2763 81.7121 51.7111 82.7634C52.1458 83.8148 52.4285 83.7875 52.4285 83.7875C52.4285 83.7875 52.8873 83.8772 52.9684 83.2817C53.0494 82.6861 52.0549 80.9533 52.0549 80.9533C52.0549 80.9533 53.1823 82.346 53.7012 83.205C54.2201 84.064 55.0519 83.3522 54.6907 82.6731C54.3295 81.9941 52.8824 80.1444 52.8824 80.1444C52.8824 80.1444 54.0061 81.4598 54.5973 82.2186C54.6634 82.3061 54.755 82.3709 54.8595 82.4041C55.0209 82.4524 55.2386 82.4276 55.3543 82.0293C55.5522 81.3491 53.4291 79.294 53.4291 79.294C53.4291 79.294 53.468 79.4128 54.7278 80.2705C54.7278 80.2705 55.1941 80.5476 55.3394 80.1258C55.4087 79.9254 55.3555 79.6861 55.2207 79.4882C55.0116 79.1827 54.6227 78.8129 53.7426 78.1549C53.7426 78.1549 51.3196 75.0887 49.4136 76.991C47.5076 78.8933 48.8082 80.2544 48.8082 80.2544Z" fill="url(#paint3_linear_113_1784)"/>
<path d="M35.1152 51.6644C35.1152 51.6644 37.3032 58.1183 33.6785 61.1264C33.6785 61.1264 33.532 63.0491 32.8301 65.9452C32.2914 68.1666 30.1473 78.0003 29.4361 79.328C28.9228 80.2866 25.3545 83.7288 24.4967 85.0003C22.3718 88.1388 21.0112 91.7412 20.6197 95.5136C20.0928 100.585 22.052 107.551 29.3013 110.518C37.4974 113.872 43.707 111.232 47.7244 108.024C52.1319 104.506 54.0101 98.6819 52.443 93.2644C51.3453 89.4678 48.9921 84.7529 44.1387 79.8018C44.1387 79.8018 41.4436 75.4802 40.741 72.3713C40.0385 69.2624 40.7478 61.2909 40.7478 61.2909C40.7478 61.2909 37.942 58.7033 40.5753 51.55C40.5753 51.55 39.6316 46.8066 35.1152 51.6644Z" fill="url(#paint4_linear_113_1784)"/>
<path d="M23.9157 78.7752C23.9157 78.7752 26.6578 75.7739 27.789 72.7764C28.2379 71.5859 29.1545 70.2247 29.8298 69.1462C30.6801 67.7894 30.7834 66.529 31.4538 66.054C32.1803 65.5429 32.7522 64.8418 33.1068 64.0274C33.69 62.6669 33.3301 62.2297 31.9442 61.4127C31.1514 60.9458 30.7197 62.2278 29.8737 62.9396C29.3357 63.394 28.8848 63.9424 28.5428 64.558C27.7352 66.0058 27.1118 66.5667 26.3165 69.7455C26.1025 70.5517 25.8192 71.338 25.4698 72.0955C25.1396 72.7758 24.2126 75.4969 23.4439 76.1153C23.3022 76.2291 22.3134 77.508 22.2188 77.4381L23.9157 78.7752Z" fill="url(#paint5_linear_113_1784)"/>
<path d="M30.1907 69.1363L26.7145 67.6477C26.6706 67.6289 26.6311 67.6013 26.5984 67.5665C26.5657 67.5318 26.5405 67.4907 26.5244 67.4458C26.5082 67.4009 26.5015 67.3531 26.5047 67.3055C26.5078 67.2579 26.5207 67.2114 26.5425 67.169L29.0781 62.2463C29.7349 60.9711 31.2426 60.4529 32.4368 61.0843C33.7046 61.7559 34.1016 63.4387 33.2964 64.725L30.6205 69.0014C30.5767 69.0715 30.5093 69.1236 30.4305 69.1483C30.3517 69.173 30.2666 69.1687 30.1907 69.1363Z" fill="url(#paint6_linear_113_1784)"/>
<path d="M24.8039 80.0726C24.8039 80.0726 24.0853 81.6731 24.0717 82.4635C24.0581 83.2538 23.3252 83.2006 23.1731 82.7523C23.021 82.3039 22.9313 81.2124 23.3475 80.4152L23.191 80.3589C23.191 80.3589 22.3357 81.5302 21.901 82.5816C21.4662 83.6329 21.1836 83.6057 21.1836 83.6057C21.1836 83.6057 20.7247 83.6954 20.6437 83.0998C20.5627 82.5043 21.5571 80.7714 21.5571 80.7714C21.5571 80.7714 20.4304 82.1641 19.9109 83.0231C19.3914 83.8821 18.5602 83.1703 18.9214 82.4913C19.2825 81.8122 20.7297 79.9625 20.7297 79.9625C20.7297 79.9625 19.606 81.2779 19.016 82.0386C18.9499 82.1261 18.8583 82.1909 18.7538 82.2241C18.5924 82.2724 18.3747 82.2476 18.259 81.8493C18.0618 81.1691 20.1842 79.114 20.1842 79.114C20.1842 79.114 20.1453 79.2328 18.8892 80.0905C18.8892 80.0905 18.4223 80.3676 18.277 79.9458C18.2077 79.7454 18.2609 79.5061 18.3957 79.3082C18.6047 79.0027 18.9937 78.6329 19.8738 77.9749C19.8738 77.9749 22.2968 74.9087 24.2059 76.811C26.115 78.7133 24.8039 80.0726 24.8039 80.0726Z" fill="url(#paint7_linear_113_1784)"/>
<path d="M28.3122 80.2097C28.3122 80.2097 22.648 86.7551 22.2015 92.1992C21.7271 97.9784 23.22 100.83 23.6115 101.909C23.6672 102.062 23.729 102.211 23.8787 102.28C26.0098 103.234 38.7482 112.793 50.9833 100.835C51.2474 100.576 51.3543 100.194 51.3846 99.8251C51.5702 97.6723 51.8509 88.3742 44.1354 79.5133L28.3122 80.2097Z" fill="url(#paint8_linear_113_1784)"/>
<path d="M32.5003 61.3763C32.5003 61.3763 32.3915 69.098 30.9604 74.4697C29.5139 79.8983 28.3086 80.21 28.3086 80.21C28.3086 80.21 36.0142 85.7196 43.4274 79.6886C43.4748 79.6499 43.5106 79.5989 43.5308 79.5412C43.5511 79.4835 43.555 79.4213 43.5423 79.3615C43.5295 79.3016 43.5004 79.2465 43.4584 79.2021C43.4163 79.1577 43.3628 79.1258 43.3037 79.1098C41.9431 78.7387 39.4608 76.1153 40.749 61.2897L37.5548 60.1252L37.2307 60.1413L32.5003 61.3763Z" fill="url(#paint9_linear_113_1784)"/>
<path d="M32.759 61.1314C32.6938 61.1346 32.6319 61.1615 32.585 61.207C32.5381 61.2526 32.5094 61.3136 32.5042 61.3787C32.5042 61.3787 32.153 67.4604 31.6304 69.8265C31.4257 70.7542 30.2197 77.5711 28.3125 80.2124C28.3125 80.2124 35.9866 86.3009 44.1357 79.5124C44.1357 79.5124 41.4449 74.7134 41.6001 69.0046C41.7238 64.4659 41.8475 62.0405 41.8914 61.3157C41.8936 61.2799 41.8885 61.2441 41.8766 61.2104C41.8647 61.1766 41.8462 61.1456 41.8221 61.1191C41.798 61.0927 41.7688 61.0713 41.7363 61.0563C41.7038 61.0413 41.6687 61.033 41.6329 61.0318L40.7949 60.999C40.7358 60.9963 40.6781 61.0169 40.634 61.0563C40.59 61.0957 40.5631 61.1509 40.5593 61.2099C40.5432 61.4362 40.5061 62.0139 40.427 62.4727C40.2904 63.2472 39.8841 63.9483 39.2801 64.4519C38.6761 64.9555 37.9134 65.2291 37.127 65.2241C35.4047 65.2167 33.9507 63.9013 33.8178 62.1839C33.7961 61.9081 33.7856 61.6224 33.7899 61.3286C33.7907 61.2973 33.7849 61.2662 33.7731 61.2372C33.7613 61.2082 33.7437 61.1819 33.7213 61.16C33.6989 61.1381 33.6723 61.121 33.643 61.1098C33.6138 61.0986 33.5825 61.0935 33.5512 61.0949L32.759 61.1314Z" fill="url(#paint10_linear_113_1784)"/>
<path d="M28.3125 80.21C32.289 82.3287 37.3465 83.5495 41.5469 81.372C42.492 80.8737 43.3636 80.247 44.1369 79.5099C43.6604 80.0476 43.1285 80.5335 42.55 80.9595C38.3397 84.0801 32.435 82.8977 28.3137 80.21H28.3125Z" fill="#F89A2D"/>
<path d="M35.3648 58.5896L37.1583 60.1443L35.987 61.743C35.9449 61.7928 35.8886 61.8286 35.8256 61.8455C35.7626 61.8625 35.6959 61.8597 35.6345 61.8376L33.7105 61.1487C33.692 61.1426 33.6751 61.1323 33.6612 61.1185C33.6474 61.1047 33.6371 61.0878 33.631 61.0692C33.625 61.0506 33.6235 61.0309 33.6265 61.0116C33.6296 60.9923 33.6372 60.974 33.6487 60.9582L35.3648 58.5896Z" fill="#3E5A3E"/>
<path d="M39.5984 58.5896L37.1562 60.1462L38.2509 61.7646C38.2857 61.8415 38.3496 61.9015 38.4285 61.9314C38.5074 61.9613 38.595 61.9587 38.672 61.9242L40.651 61.2544C40.6694 61.2463 40.6859 61.2345 40.6995 61.2198C40.7132 61.205 40.7237 61.1877 40.7305 61.1688C40.7372 61.1499 40.7401 61.1298 40.7389 61.1098C40.7376 61.0897 40.7324 61.0701 40.7234 61.0522L39.5984 58.5896Z" fill="#3E5A3E"/>
<path d="M50.3353 16.2555C50.3353 16.2555 60.2494 14.3538 61.2995 0.941308C61.3098 0.817741 61.2936 0.693397 61.2518 0.576632C61.2101 0.459866 61.1439 0.353383 61.0576 0.264339C60.9713 0.175294 60.8669 0.105749 60.7515 0.0603783C60.6361 0.0150072 60.5124 -0.00513954 60.3885 0.0012916C57.5085 0.160847 48.9977 1.47934 45.5796 11.3365C45.5796 11.3365 43.6012 17.8455 50.3353 16.2555Z" fill="url(#paint11_linear_113_1784)"/>
<path d="M59.3312 3.28949C59.3312 3.28949 55.1221 2.72857 51.9582 9.19303C51.27 10.6138 50.4157 11.948 49.4134 13.1677C48.5439 14.219 47.5927 15.1733 47.0547 15.1164C47.0547 15.1164 57.2007 14.7459 59.3312 3.28949Z" fill="url(#paint12_linear_113_1784)"/>
<path d="M26.254 16.8083C26.254 16.8083 16.3288 14.963 15.2027 1.55659C15.1916 1.4328 15.2073 1.30807 15.2485 1.19084C15.2898 1.07361 15.3558 0.966596 15.4419 0.877028C15.5281 0.787459 15.6325 0.717419 15.748 0.671635C15.8636 0.625852 15.9876 0.60539 16.1117 0.611631C18.9924 0.754489 27.5107 2.02475 30.9844 11.8628C30.9838 11.8628 32.9993 18.3625 26.254 16.8083Z" fill="url(#paint13_linear_113_1784)"/>
<path d="M17.1875 3.89359C17.1875 3.89359 21.3928 3.30917 24.5938 9.75508C25.29 11.1713 26.1517 12.4999 27.1609 13.713C28.0366 14.757 28.9934 15.7081 29.5308 15.6481C29.5308 15.6506 19.3829 15.3377 17.1875 3.89359Z" fill="url(#paint14_linear_113_1784)"/>
<path d="M22.9842 26.1356C22.9842 26.1356 24.9328 8.86409 39.5037 9.88883C54.0746 10.9136 52.4388 26.7955 52.4388 26.7955C52.4388 26.7955 69.1408 42.7009 46.8148 50.0658L38.4944 53.3491C38.0115 53.5281 37.4789 53.5183 37.0028 53.3219L28.3447 49.9867C25.6543 48.959 23.1803 47.4361 21.051 45.4969C16.6162 41.4338 12.4826 34.3787 22.9842 26.1356Z" fill="url(#paint15_linear_113_1784)"/>
<path d="M37.5115 49.286C41.5715 49.286 44.8627 45.9947 44.8627 41.9347C44.8627 37.8747 41.5715 34.5834 37.5115 34.5834C33.4514 34.5834 30.1602 37.8747 30.1602 41.9347C30.1602 45.9947 33.4514 49.286 37.5115 49.286Z" fill="url(#paint16_radial_113_1784)"/>
<path d="M42.2088 41.3031C41.1761 42.378 39.7629 43.1417 38.2509 43.2203C37.6135 43.2472 36.975 43.2217 36.3418 43.1442C35.91 43.0761 35.4884 42.9542 35.087 42.7812C34.3047 42.4404 33.5842 41.9321 33.082 41.2394C34.1334 41.8956 35.2243 42.3211 36.4265 42.4435C36.9169 42.4862 37.4339 42.4788 37.9311 42.4918C39.4475 42.5388 40.8557 41.9438 42.2057 41.3013L42.2088 41.3031Z" fill="#AC4C43"/>
<path d="M35.6553 33.8134L40.0462 33.9309C41.4148 33.9674 42.1359 35.5685 41.2565 36.618L39.0487 39.2512C38.8927 39.4372 38.6972 39.5862 38.4765 39.6873C38.2558 39.7884 38.0154 39.8391 37.7727 39.8358C37.5299 39.8325 37.291 39.7752 37.0731 39.6681C36.8553 39.561 36.664 39.4068 36.5131 39.2166L34.3319 36.4664C33.4661 35.3774 34.2663 33.7763 35.6553 33.8134Z" fill="url(#paint17_radial_113_1784)"/>
<path d="M32.553 32.6315C35.5098 32.6315 37.9067 30.2346 37.9067 27.2778C37.9067 24.321 35.5098 21.924 32.553 21.924C29.5962 21.924 27.1992 24.321 27.1992 27.2778C27.1992 30.2346 29.5962 32.6315 32.553 32.6315Z" fill="url(#paint18_linear_113_1784)"/>
<path d="M32.3915 32.5554C34.8234 32.5554 36.7947 30.584 36.7947 28.1521C36.7947 25.7203 34.8234 23.7489 32.3915 23.7489C29.9597 23.7489 27.9883 25.7203 27.9883 28.1521C27.9883 30.584 29.9597 32.5554 32.3915 32.5554Z" fill="white"/>
<path d="M33.5415 30.7601C34.8524 30.7601 35.915 29.6974 35.915 28.3865C35.915 27.0757 34.8524 26.013 33.5415 26.013C32.2306 26.013 31.168 27.0757 31.168 28.3865C31.168 29.6974 32.2306 30.7601 33.5415 30.7601Z" fill="url(#paint19_linear_113_1784)"/>
<path d="M34.9068 27.6922C34.8293 27.4626 34.6903 27.2587 34.5049 27.1028C34.3195 26.9468 34.0949 26.8448 33.8555 26.8078" stroke="white" stroke-width="0.3" stroke-miterlimit="10" stroke-linecap="round"/>
<path d="M43.1624 33.0125C46.1192 33.0125 48.5161 30.6155 48.5161 27.6587C48.5161 24.7019 46.1192 22.3049 43.1624 22.3049C40.2056 22.3049 37.8086 24.7019 37.8086 27.6587C37.8086 30.6155 40.2056 33.0125 43.1624 33.0125Z" fill="url(#paint20_linear_113_1784)"/>
<path d="M43.1259 33.0167C45.5577 33.0167 47.5291 31.0453 47.5291 28.6135C47.5291 26.1817 45.5577 24.2103 43.1259 24.2103C40.6941 24.2103 38.7227 26.1817 38.7227 28.6135C38.7227 31.0453 40.6941 33.0167 43.1259 33.0167Z" fill="white"/>
<path d="M41.9321 30.7601C43.243 30.7601 44.3057 29.6974 44.3057 28.3865C44.3057 27.0757 43.243 26.013 41.9321 26.013C40.6213 26.013 39.5586 27.0757 39.5586 28.3865C39.5586 29.6974 40.6213 30.7601 41.9321 30.7601Z" fill="url(#paint21_linear_113_1784)"/>
<path d="M43.2974 27.6922C43.22 27.4626 43.081 27.2587 42.8956 27.1028C42.7102 26.9468 42.4855 26.8448 42.2461 26.8078" stroke="white" stroke-width="0.3" stroke-miterlimit="10" stroke-linecap="round"/>
<g style="mix-blend-mode:multiply" opacity="0.1">
<path d="M29.563 20.2067C30.5766 19.9006 33.0577 19.3638 35.6088 20.425C35.7267 20.4746 35.8277 20.5572 35.8999 20.6628C35.9721 20.7685 36.0123 20.8927 36.0157 21.0205C36.019 21.1292 35.9958 21.2371 35.9481 21.3348C35.9004 21.4325 35.8296 21.5172 35.7419 21.5815C35.6542 21.6457 35.5521 21.6877 35.4446 21.7038C35.337 21.7198 35.2272 21.7095 35.1245 21.6736C34.0367 21.2982 32.106 20.8826 29.9773 21.5839C29.877 21.618 29.77 21.6278 29.6651 21.6126C29.5602 21.5974 29.4604 21.5576 29.3739 21.4965C29.2873 21.4353 29.2165 21.3545 29.1671 21.2607C29.1177 21.1669 29.0913 21.0628 29.0899 20.9568V20.8536C29.0884 20.7091 29.1336 20.5681 29.2189 20.4515C29.3041 20.3349 29.4249 20.249 29.563 20.2067Z" fill="#231F20"/>
</g>
<path d="M29.563 19.9679C30.1016 19.6723 32.0899 18.0588 35.6088 20.1862C35.832 20.321 36.0077 20.5214 36.0157 20.7817C36.0186 20.8902 35.995 20.9978 35.9472 21.0952C35.8993 21.1926 35.8285 21.2769 35.7408 21.3409C35.6532 21.4049 35.5513 21.4466 35.444 21.4625C35.3366 21.4785 35.227 21.4681 35.1245 21.4323C34.0367 21.0569 32.106 20.6413 29.9773 21.3426C29.877 21.3769 29.7699 21.3868 29.665 21.3717C29.5601 21.3565 29.4602 21.3167 29.3736 21.2555C29.287 21.1943 29.2162 21.1135 29.1668 21.0196C29.1175 20.9258 29.0912 20.8216 29.0899 20.7156V20.6129C29.0862 20.3191 29.3026 20.1107 29.563 19.9679Z" fill="url(#paint22_linear_113_1784)"/>
<g style="mix-blend-mode:multiply" opacity="0.1">
<path d="M40.6126 20.3018C41.6447 20.0643 44.1556 19.6951 46.6305 20.924C46.7448 20.9815 46.8401 21.0706 46.905 21.1809C46.9699 21.2911 47.0017 21.4177 46.9966 21.5455C46.9926 21.6541 46.9622 21.7601 46.9081 21.8544C46.8539 21.9486 46.7777 22.0283 46.6859 22.0866C46.5941 22.1448 46.4896 22.1799 46.3812 22.1887C46.2729 22.1975 46.164 22.1799 46.064 22.1373C45.0034 21.6902 43.1048 21.1478 40.9311 21.7044C40.8286 21.7318 40.7212 21.7346 40.6175 21.7124C40.5138 21.6903 40.4169 21.644 40.3345 21.5772C40.2522 21.5105 40.1868 21.4251 40.1438 21.3282C40.1007 21.2314 40.0812 21.1257 40.0869 21.0198L40.0931 20.9165C40.1013 20.7716 40.1564 20.6332 40.2501 20.5223C40.3438 20.4115 40.471 20.334 40.6126 20.3018Z" fill="#231F20"/>
</g>
<path d="M40.6278 20.0618C41.5956 19.6772 44.0193 18.2987 46.6457 20.684C46.8387 20.859 47.0205 21.0445 47.0112 21.3055C47.0073 21.4142 46.977 21.5203 46.9229 21.6146C46.8688 21.709 46.7926 21.7887 46.7008 21.847C46.6089 21.9053 46.5043 21.9403 46.3959 21.9491C46.2875 21.9578 46.1786 21.9401 46.0786 21.8973C45.0186 21.4502 43.1201 20.9078 40.9494 21.4644C40.847 21.4916 40.7396 21.4942 40.636 21.4719C40.5325 21.4497 40.4356 21.4033 40.3534 21.3364C40.2712 21.2696 40.206 21.1843 40.1631 21.0875C40.1202 20.9906 40.1007 20.885 40.1064 20.7792L40.1126 20.6759C40.1281 20.3809 40.3538 20.1719 40.6278 20.0618Z" fill="url(#paint23_linear_113_1784)"/>
<defs>
<linearGradient id="paint0_linear_113_1784" x1="27.4333" y1="105.633" x2="40.1322" y2="75.933" gradientUnits="userSpaceOnUse">
<stop stop-color="#AC4C43"/>
<stop offset="0.28" stop-color="#B75A45"/>
<stop offset="0.53" stop-color="#C36A48"/>
<stop offset="0.68" stop-color="#C96E45"/>
<stop offset="0.99" stop-color="#CF7242"/>
</linearGradient>
<linearGradient id="paint1_linear_113_1784" x1="53.3353" y1="74.9458" x2="39.2252" y2="64.0506" gradientUnits="userSpaceOnUse">
<stop stop-color="#CF7242"/>
<stop offset="0.42" stop-color="#C96E45"/>
<stop offset="0.63" stop-color="#C36A48"/>
<stop offset="0.78" stop-color="#C16747"/>
<stop offset="0.89" stop-color="#B95D46"/>
<stop offset="1" stop-color="#AC4C43"/>
</linearGradient>
<linearGradient id="paint2_linear_113_1784" x1="45.2698" y1="68.6487" x2="42.0348" y2="61.0173" gradientUnits="userSpaceOnUse">
<stop stop-color="#4D8D43"/>
<stop offset="0.33" stop-color="#4D7E49"/>
<stop offset="0.55" stop-color="#4D724E"/>
<stop offset="0.56" stop-color="#4D724E"/>
<stop offset="1" stop-color="#466647"/>
</linearGradient>
<linearGradient id="paint3_linear_113_1784" x1="49.5724" y1="79.997" x2="56.0507" y2="78.7775" gradientUnits="userSpaceOnUse">
<stop stop-color="#CF7242"/>
<stop offset="0.42" stop-color="#C96E45"/>
<stop offset="0.63" stop-color="#C36A48"/>
<stop offset="0.78" stop-color="#C16747"/>
<stop offset="0.89" stop-color="#B95D46"/>
<stop offset="1" stop-color="#AC4C43"/>
</linearGradient>
<linearGradient id="paint4_linear_113_1784" x1="37.5023" y1="112.05" x2="34.4405" y2="49.6699" gradientUnits="userSpaceOnUse">
<stop stop-color="#AC4C43"/>
<stop offset="0.04" stop-color="#B75843"/>
<stop offset="0.1" stop-color="#C56742"/>
<stop offset="0.17" stop-color="#CD6F42"/>
<stop offset="0.29" stop-color="#CF7242"/>
<stop offset="0.52" stop-color="#C96E45"/>
<stop offset="0.63" stop-color="#C36A48"/>
<stop offset="0.78" stop-color="#C16747"/>
<stop offset="0.89" stop-color="#B95D46"/>
<stop offset="1" stop-color="#AC4C43"/>
</linearGradient>
<linearGradient id="paint5_linear_113_1784" x1="20.3866" y1="75.0005" x2="34.4962" y2="64.1058" gradientUnits="userSpaceOnUse">
<stop stop-color="#CF7242"/>
<stop offset="0.42" stop-color="#C96E45"/>
<stop offset="0.63" stop-color="#C36A48"/>
<stop offset="0.78" stop-color="#C16747"/>
<stop offset="0.89" stop-color="#B95D46"/>
<stop offset="1" stop-color="#AC4C43"/>
</linearGradient>
<linearGradient id="paint6_linear_113_1784" x1="28.3864" y1="68.6824" x2="31.6212" y2="61.0515" gradientUnits="userSpaceOnUse">
<stop stop-color="#4D8D43"/>
<stop offset="0.33" stop-color="#4D7E49"/>
<stop offset="0.55" stop-color="#4D724E"/>
<stop offset="0.56" stop-color="#4D724E"/>
<stop offset="1" stop-color="#466647"/>
</linearGradient>
<linearGradient id="paint7_linear_113_1784" x1="24.3514" y1="80.0438" x2="17.8731" y2="78.8243" gradientUnits="userSpaceOnUse">
<stop stop-color="#CF7242"/>
<stop offset="0.42" stop-color="#C96E45"/>
<stop offset="0.63" stop-color="#C36A48"/>
<stop offset="0.78" stop-color="#C16747"/>
<stop offset="0.89" stop-color="#B95D46"/>
<stop offset="1" stop-color="#AC4C43"/>
</linearGradient>
<linearGradient id="paint8_linear_113_1784" x1="23.5042" y1="93.9686" x2="49.6447" y2="92.6855" gradientUnits="userSpaceOnUse">
<stop stop-color="#FAA64F"/>
<stop offset="0.26" stop-color="#FCB251"/>
<stop offset="0.45" stop-color="#FDBD52"/>
<stop offset="0.74" stop-color="#FECC51"/>
<stop offset="1" stop-color="#FFD250"/>
</linearGradient>
<linearGradient id="paint9_linear_113_1784" x1="35.7954" y1="81.1622" x2="38.4814" y2="55.5804" gradientUnits="userSpaceOnUse">
<stop stop-color="#4D8D43"/>
<stop offset="0.03" stop-color="#4D8646"/>
<stop offset="0.11" stop-color="#4D7B4A"/>
<stop offset="0.23" stop-color="#4D744D"/>
<stop offset="0.55" stop-color="#4D724E"/>
<stop offset="0.71" stop-color="#4E6A53"/>
<stop offset="0.95" stop-color="#525361"/>
<stop offset="1" stop-color="#534E64"/>
</linearGradient>
<linearGradient id="paint10_linear_113_1784" x1="33.2131" y1="71.981" x2="45.5119" y2="71.3773" gradientUnits="userSpaceOnUse">
<stop stop-color="#FAA64F"/>
<stop offset="0.01" stop-color="#FAA74F"/>
<stop offset="0.24" stop-color="#FCB751"/>
<stop offset="0.41" stop-color="#FDBD52"/>
<stop offset="1" stop-color="#FFD250"/>
</linearGradient>
<linearGradient id="paint11_linear_113_1784" x1="48.9029" y1="5.40988" x2="57.4935" y2="11.6312" gradientUnits="userSpaceOnUse">
<stop stop-color="#7B4347"/>
<stop offset="0.15" stop-color="#814649"/>
<stop offset="0.35" stop-color="#93504F"/>
<stop offset="0.59" stop-color="#B16059"/>
<stop offset="0.63" stop-color="#B7635B"/>
<stop offset="0.82" stop-color="#B8665E"/>
<stop offset="0.98" stop-color="#BD6F68"/>
<stop offset="1" stop-color="#BE716A"/>
</linearGradient>
<linearGradient id="paint12_linear_113_1784" x1="53.6584" y1="14.0898" x2="55.0942" y2="1.16774" gradientUnits="userSpaceOnUse">
<stop stop-color="#FDD8CC"/>
<stop offset="0.27" stop-color="#FDDBD2"/>
<stop offset="0.63" stop-color="#FCE1E3"/>
<stop offset="0.82" stop-color="#FCE4E5"/>
<stop offset="0.98" stop-color="#FEEEEA"/>
<stop offset="1" stop-color="#FEF0EB"/>
</linearGradient>
<linearGradient id="paint13_linear_113_1784" x1="20.7254" y1="9.95729" x2="29.2973" y2="4.66441" gradientUnits="userSpaceOnUse">
<stop stop-color="#7B4347"/>
<stop offset="0.15" stop-color="#814649"/>
<stop offset="0.35" stop-color="#93504F"/>
<stop offset="0.59" stop-color="#B16059"/>
<stop offset="0.63" stop-color="#B7635B"/>
<stop offset="0.82" stop-color="#B8665E"/>
<stop offset="0.98" stop-color="#BD6F68"/>
<stop offset="1" stop-color="#BE716A"/>
</linearGradient>
<linearGradient id="paint14_linear_113_1784" x1="24.0823" y1="16.2637" x2="22.6364" y2="3.29083" gradientUnits="userSpaceOnUse">
<stop stop-color="#FDD8CC"/>
<stop offset="0.27" stop-color="#FDDBD2"/>
<stop offset="0.63" stop-color="#FCE1E3"/>
<stop offset="0.82" stop-color="#FCE4E5"/>
<stop offset="0.98" stop-color="#FEEEEA"/>
<stop offset="1" stop-color="#FEF0EB"/>
</linearGradient>
<linearGradient id="paint15_linear_113_1784" x1="14.8121" y1="44.358" x2="51.9615" y2="24.1456" gradientUnits="userSpaceOnUse">
<stop stop-color="#AC4C43"/>
<stop offset="0.08" stop-color="#B25444"/>
<stop offset="0.37" stop-color="#C36A48"/>
<stop offset="0.58" stop-color="#C96E45"/>
<stop offset="1" stop-color="#CF7242"/>
</linearGradient>
<radialGradient id="paint16_radial_113_1784" cx="0" cy="0" r="1" gradientUnits="userSpaceOnUse" gradientTransform="translate(40.0407 43.4787) rotate(-150) scale(7.35129 7.35129)">
<stop offset="0.49" stop-color="#C36A48"/>
<stop offset="0.68" stop-color="#BD6347"/>
<stop offset="0.97" stop-color="#AE4F43"/>
<stop offset="1" stop-color="#AC4C43"/>
</radialGradient>
<radialGradient id="paint17_radial_113_1784" cx="0" cy="0" r="1" gradientUnits="userSpaceOnUse" gradientTransform="translate(39.8542 35.3051) rotate(-3.29) scale(3.47002)">
<stop stop-color="#6B3E35"/>
<stop offset="1" stop-color="#352424"/>
</radialGradient>
<linearGradient id="paint18_linear_113_1784" x1="36.9631" y1="24.2397" x2="28.143" y2="30.3107" gradientUnits="userSpaceOnUse">
<stop stop-color="#AC4C43"/>
<stop offset="0.08" stop-color="#B25444"/>
<stop offset="0.37" stop-color="#C36A48"/>
<stop offset="0.58" stop-color="#C96E45"/>
<stop offset="1" stop-color="#CF7242"/>
</linearGradient>
<linearGradient id="paint19_linear_113_1784" x1="35.8074" y1="28.6141" x2="31.0604" y2="28.8989" gradientUnits="userSpaceOnUse">
<stop stop-color="#6B3E35"/>
<stop offset="1" stop-color="#352424"/>
</linearGradient>
<linearGradient id="paint20_linear_113_1784" x1="39.0661" y1="23.596" x2="46.7756" y2="30.9842" gradientUnits="userSpaceOnUse">
<stop stop-color="#AC4C43"/>
<stop offset="0.08" stop-color="#B25444"/>
<stop offset="0.37" stop-color="#C36A48"/>
<stop offset="0.58" stop-color="#C96E45"/>
<stop offset="1" stop-color="#CF7242"/>
</linearGradient>
<linearGradient id="paint21_linear_113_1784" x1="44.2047" y1="28.606" x2="39.4576" y2="28.8908" gradientUnits="userSpaceOnUse">
<stop stop-color="#6B3E35"/>
<stop offset="1" stop-color="#352424"/>
</linearGradient>
<linearGradient id="paint22_linear_113_1784" x1="29.3544" y1="19.648" x2="35.8015" y2="21.608" gradientUnits="userSpaceOnUse">
<stop stop-color="#6B3E35"/>
<stop offset="1" stop-color="#8B5031"/>
</linearGradient>
<linearGradient id="paint23_linear_113_1784" x1="40.4658" y1="19.6605" x2="46.7687" y2="22.0472" gradientUnits="userSpaceOnUse">
<stop stop-color="#8B5031"/>
<stop offset="1" stop-color="#6B3E35"/>
</linearGradient>
</defs>
</svg>
