<svg width="54" height="47" viewBox="0 0 54 47" fill="none" xmlns="http://www.w3.org/2000/svg">
<path d="M53.4438 20.7856L50.996 46.5433L0 41.694L53.4438 20.7856ZM45.5719 39.9694L46.4991 29.9464L25.702 38.0779L45.5719 39.9694Z" fill="#F6BB5D"/>
<path d="M50.1573 45.1553L50.1406 45.3307L51.0914 45.4211L51.1081 45.2457L50.1573 45.1553Z" fill="#42210B"/>
<path d="M50.255 44.0905L50.2383 44.2659L51.189 44.3562L51.2057 44.1809L50.255 44.0905Z" fill="#42210B"/>
<path d="M50.344 41.3219L50.3281 41.498L51.4745 41.6012L51.4903 41.425L50.344 41.3219Z" fill="#42210B"/>
<path d="M50.4464 41.9341L50.4297 42.1095L51.3993 42.2017L51.416 42.0263L50.4464 41.9341Z" fill="#42210B"/>
<path d="M50.3448 42.8947L50.3281 43.0701L51.3181 43.1642L51.3348 42.9888L50.3448 42.8947Z" fill="#42210B"/>
<path d="M50.3448 40.6929L50.3281 40.8683L51.519 40.9817L51.5357 40.8063L50.3448 40.6929Z" fill="#42210B"/>
<path d="M50.6495 39.7923L50.6328 39.9677L51.5835 40.0582L51.6002 39.8828L50.6495 39.7923Z" fill="#42210B"/>
<path d="M50.7472 38.7275L50.7305 38.9028L51.6812 38.9934L51.6979 38.818L50.7472 38.7275Z" fill="#42210B"/>
<path d="M50.6565 37.8619L50.6406 38.0381L51.7742 38.1401L51.79 37.9639L50.6565 37.8619Z" fill="#42210B"/>
<path d="M50.9502 36.6057L50.9336 36.7811L51.8843 36.8713L51.901 36.696L50.9502 36.6057Z" fill="#42210B"/>
<path d="M51.0635 35.5838L51.0469 35.7592L51.9976 35.8495L52.0143 35.6741L51.0635 35.5838Z" fill="#42210B"/>
<path d="M51.1573 34.4788L51.1406 34.6542L52.0913 34.7447L52.108 34.5693L51.1573 34.4788Z" fill="#42210B"/>
<path d="M51.2589 33.418L51.2422 33.5934L52.1929 33.6838L52.2096 33.5084L51.2589 33.418Z" fill="#42210B"/>
<path d="M51.2854 32.5145L51.2695 32.6907L52.3071 32.7841L52.323 32.6079L51.2854 32.5145Z" fill="#42210B"/>
<path d="M51.2854 31.5709L51.2695 31.7471L52.4078 31.8495L52.4237 31.6734L51.2854 31.5709Z" fill="#42210B"/>
<path d="M51.2854 30.3127L51.2695 30.4889L52.5172 30.6012L52.5331 30.425L51.2854 30.3127Z" fill="#42210B"/>
<path d="M51.6572 29.1603L51.6406 29.3357L52.5914 29.4257L52.608 29.2503L51.6572 29.1603Z" fill="#42210B"/>
<path d="M51.7745 28.1424L51.7578 28.3177L52.7085 28.4081L52.7252 28.2327L51.7745 28.1424Z" fill="#42210B"/>
<path d="M51.8721 27.0778L51.8555 27.2532L52.8062 27.3435L52.8229 27.1682L51.8721 27.0778Z" fill="#42210B"/>
<path d="M51.9698 26.0038L51.9531 26.1792L52.9039 26.2696L52.9205 26.0942L51.9698 26.0038Z" fill="#42210B"/>
<path d="M52.0636 24.9157L52.0469 25.0911L52.9976 25.1816L53.0143 25.0062L52.0636 24.9157Z" fill="#42210B"/>
<path d="M52.1612 23.8415L52.1445 24.0168L53.0952 24.1074L53.1119 23.932L52.1612 23.8415Z" fill="#42210B"/>
<path d="M52.2667 22.7732L52.25 22.9486L53.2007 23.039L53.2174 22.8636L52.2667 22.7732Z" fill="#42210B"/>
<path d="M27.4655 43.3086L27.375 44.2593L27.5504 44.276L27.6409 43.3253L27.4655 43.3086Z" fill="#42210B"/>
<path d="M28.5357 43.4555L28.4453 44.4062L28.6207 44.4229L28.7111 43.4722L28.5357 43.4555Z" fill="#42210B"/>
<path d="M29.5907 43.5028L29.4961 44.502L29.6715 44.5186L29.7661 43.5194L29.5907 43.5028Z" fill="#42210B"/>
<path d="M30.6685 43.6606L30.5781 44.6113L30.7535 44.628L30.8439 43.6773L30.6685 43.6606Z" fill="#42210B"/>
<path d="M31.731 43.7585L31.6406 44.7092L31.816 44.7259L31.9064 43.7752L31.731 43.7585Z" fill="#42210B"/>
<path d="M32.7982 43.8384L32.7109 44.8079L32.8871 44.8237L32.9744 43.8542L32.7982 43.8384Z" fill="#42210B"/>
<path d="M33.7433 43.8383L33.6484 44.8922L33.8246 44.9081L33.9195 43.8542L33.7433 43.8383Z" fill="#42210B"/>
<path d="M34.918 44.0217L34.8242 45.0066L34.9996 45.0233L35.0934 44.0384L34.918 44.0217Z" fill="#42210B"/>
<path d="M35.965 44.1189L35.8711 45.105L36.0465 45.1217L36.1404 44.1356L35.965 44.1189Z" fill="#42210B"/>
<path d="M37.0435 44.2563L36.9531 45.207L37.1285 45.2237L37.2189 44.273L37.0435 44.2563Z" fill="#42210B"/>
<path d="M38.0939 44.3215L38.0039 45.2722L38.1793 45.2888L38.2693 44.3381L38.0939 44.3215Z" fill="#42210B"/>
<path d="M39.1724 44.4704L39.082 45.4211L39.2574 45.4378L39.3478 44.4871L39.1724 44.4704Z" fill="#42210B"/>
<path d="M40.2388 44.5683L40.1484 45.519L40.3238 45.5357L40.4142 44.585L40.2388 44.5683Z" fill="#42210B"/>
<path d="M41.2859 44.6268L41.1953 45.5775L41.3707 45.5942L41.4612 44.6435L41.2859 44.6268Z" fill="#42210B"/>
<path d="M42.356 44.727L42.2656 45.6777L42.441 45.6944L42.5314 44.7437L42.356 44.727Z" fill="#42210B"/>
<path d="M43.4148 44.8227L43.3242 45.7734L43.4996 45.7901L43.5901 44.8394L43.4148 44.8227Z" fill="#42210B"/>
<path d="M44.493 44.9834L44.4023 45.9341L44.5777 45.9508L44.6684 45.0001L44.493 44.9834Z" fill="#42210B"/>
<path d="M45.5437 45.0277L45.4531 45.9784L45.6285 45.9951L45.719 45.0444L45.5437 45.0277Z" fill="#42210B"/>
<path d="M46.6057 45.1225L46.5156 46.0732L46.691 46.0899L46.7811 45.1391L46.6057 45.1225Z" fill="#42210B"/>
<path d="M47.6802 45.2805L47.5898 46.2312L47.7652 46.2479L47.8556 45.2971L47.6802 45.2805Z" fill="#42210B"/>
<path d="M48.7427 45.3783L48.6523 46.329L48.8277 46.3456L48.9181 45.3949L48.7427 45.3783Z" fill="#42210B"/>
<path d="M49.7896 45.439L49.6992 46.3898L49.8746 46.4064L49.965 45.4557L49.7896 45.439Z" fill="#42210B"/>
<path d="M5.13725 41.2299L5.04688 42.1807L5.22223 42.1973L5.3126 41.2466L5.13725 41.2299Z" fill="#42210B"/>
<path d="M6.19991 41.2874L6.10938 42.2382L6.28475 42.2549L6.37529 41.3041L6.19991 41.2874Z" fill="#42210B"/>
<path d="M7.26241 41.3946L7.17188 42.3453L7.34722 42.362L7.43776 41.4113L7.26241 41.3946Z" fill="#42210B"/>
<path d="M8.26311 41.322L8.16016 42.4659L8.33633 42.4818L8.38781 41.9098L8.43928 41.3378L8.26311 41.322Z" fill="#42210B"/>
<path d="M9.3993 41.6334L9.30859 42.5841L9.48397 42.6008L9.57467 41.6501L9.3993 41.6334Z" fill="#42210B"/>
<path d="M10.458 41.6882L10.3633 42.6832L10.5387 42.6999L10.6334 41.7049L10.458 41.6882Z" fill="#42210B"/>
<path d="M11.524 41.8358L11.4336 42.7865L11.609 42.8032L11.6993 41.8524L11.524 41.8358Z" fill="#42210B"/>
<path d="M12.5787 41.9327L12.4883 42.8834L12.6637 42.9001L12.754 41.9494L12.5787 41.9327Z" fill="#42210B"/>
<path d="M13.6451 42.0306L13.5547 42.9813L13.7301 42.998L13.8204 42.0473L13.6451 42.0306Z" fill="#42210B"/>
<path d="M14.8697 41.951L14.7656 43.1069L14.9418 43.1228L15.0458 41.9669L14.8697 41.951Z" fill="#42210B"/>
<path d="M15.7699 42.1955L15.6758 43.1836L15.8512 43.2003L15.9453 42.2122L15.7699 42.1955Z" fill="#42210B"/>
<path d="M16.8368 42.3459L16.7461 43.2966L16.9215 43.3134L17.0122 42.3627L16.8368 42.3459Z" fill="#42210B"/>
<path d="M17.8908 42.4007L17.7969 43.3867L17.9723 43.4034L18.0662 42.4174L17.8908 42.4007Z" fill="#42210B"/>
<path d="M18.9576 42.4983L18.8633 43.4889L19.0387 43.5056L19.133 42.515L18.9576 42.4983Z" fill="#42210B"/>
<path d="M20.0318 42.6457L19.9414 43.5964L20.1168 43.6131L20.2072 42.6624L20.0318 42.6457Z" fill="#42210B"/>
<path d="M21.0854 42.7029L20.9922 43.687L21.1676 43.7036L21.2608 42.7195L21.0854 42.7029Z" fill="#42210B"/>
<path d="M22.1607 42.8505L22.0703 43.8013L22.2457 43.8179L22.336 42.8672L22.1607 42.8505Z" fill="#42210B"/>
<path d="M23.2232 42.9486L23.1328 43.8993L23.3082 43.916L23.3986 42.9652L23.2232 42.9486Z" fill="#42210B"/>
<path d="M24.2702 43.0057L24.1797 43.9564L24.3551 43.9731L24.4456 43.0224L24.2702 43.0057Z" fill="#42210B"/>
<path d="M25.3365 43.1155L25.2461 44.0663L25.4215 44.083L25.5118 43.1322L25.3365 43.1155Z" fill="#42210B"/>
<path d="M26.3991 43.2014L26.3086 44.1521L26.484 44.1688L26.5745 43.2181L26.3991 43.2014Z" fill="#42210B"/>
<path d="M7.73453 26.1448L5.88013 27.9992L9.81145 31.9398L35.8565 5.97825L31.9623 2.03765L30.1079 3.89205C27.0921 1.26433 23.1927 -0.123275 19.1949 0.00860799C15.1971 0.140491 11.3977 1.78208 8.56169 4.60284C5.72565 7.42361 4.06357 11.2141 3.9101 15.2111C3.75662 19.2081 5.12314 23.1149 7.73453 26.1448ZM12.3705 8.40751C14.1905 6.67184 16.5835 5.66335 19.0968 5.5728C21.6101 5.48224 24.0695 6.3159 26.0096 7.91609L12.658 21.277C9.58892 17.8 7.64181 13.2197 12.3705 8.4446V8.40751Z" fill="#8AC48A"/>
</svg>
