<svg width="65" height="79" viewBox="0 0 65 79" fill="none" xmlns="http://www.w3.org/2000/svg">
<path d="M47.1802 54.3475C47.1802 54.3475 53.7729 63.2732 53.2479 68.2111C53.0557 70.0186 50.8295 70.7362 49.6019 69.3954C48.9671 68.7014 48.2431 67.6179 47.471 65.9382C47.471 65.9382 51.7809 73.4282 48.192 73.3351C44.8931 73.2493 43.5934 66.1321 43.5934 66.1321C43.5934 66.1321 44.3861 70.9198 42.1514 69.6892C39.9698 68.4882 38.9721 58.6982 39.7854 55.6352C40.5986 52.5722 44.1021 50.8908 47.1802 54.3475Z" fill="url(#paint0_linear_113_1644)"/>
<path d="M26.3981 57.0472C26.3981 57.0472 25.1379 68.0708 21.3877 71.3272C20.0151 72.5188 17.8971 71.5263 17.9134 69.7089C17.922 68.7687 18.1304 67.4823 18.7103 65.7271C18.7103 65.7271 16.7587 74.1453 14.1962 71.6309C11.8405 69.3194 15.7404 63.2238 15.7404 63.2238C15.7404 63.2238 13.057 67.267 12.2609 64.8431C11.4837 62.4775 17.4265 54.6344 20.1104 52.9474C22.7942 51.2604 26.5006 52.4203 26.3981 57.0472Z" fill="url(#paint1_linear_113_1644)"/>
<path d="M32.9805 77.1406C40.2638 77.1406 46.1681 70.1446 46.1681 61.5145C46.1681 52.8845 40.2638 45.8885 32.9805 45.8885C25.6972 45.8885 19.793 52.8845 19.793 61.5145C19.793 70.1446 25.6972 77.1406 32.9805 77.1406Z" fill="url(#paint2_linear_113_1644)"/>
<path d="M35.9359 49.1878C35.9359 49.1878 35.0754 49.0531 34.6688 49.0226L27.1625 66.1693C27.1625 66.1693 26.1403 67.9279 26.8751 68.1243C27.6099 68.3208 27.748 67.8708 28.511 66.1324C29.2741 64.3939 35.9359 49.1878 35.9359 49.1878Z" fill="url(#paint3_linear_113_1644)"/>
<path d="M28.0352 66.2092L20.2746 64.2044C20.0757 64.1527 19.8645 64.1793 19.6847 64.2789C19.505 64.3784 19.3703 64.5432 19.3086 64.7393L16.9924 72.1821C16.9306 72.3822 16.9504 72.5986 17.0474 72.7842C17.1445 72.9698 17.3109 73.1095 17.5105 73.173L25.3441 75.6887L28.0352 66.2092Z" fill="url(#paint4_linear_113_1644)"/>
<path d="M18.9739 68.2531L25.269 70.2262C25.6657 70.3506 26.0809 70.1507 26.1938 69.7814L27.3394 66.0282L20.3268 64.1349C19.8901 64.017 19.4462 64.2404 19.3205 64.6415L18.4674 67.3661C18.3524 67.732 18.5793 68.1296 18.9739 68.2531Z" fill="#8D6527"/>
<path d="M26.6012 66.4684L24.0731 74.6203C23.9615 74.98 24.1627 75.3621 24.5225 75.4737L25.1727 75.6753C25.5324 75.7869 25.9145 75.5857 26.0261 75.2259L28.5542 67.074C28.6658 66.7143 28.4646 66.3322 28.1048 66.2206L27.4546 66.019C27.0949 65.9074 26.7128 66.1086 26.6012 66.4684Z" fill="url(#paint5_linear_113_1644)"/>
<path d="M44.1735 53.0074C44.2154 53.0657 44.2441 53.1324 44.2577 53.2028C44.2712 53.2733 44.2693 53.3458 44.2521 53.4155C44.2348 53.4851 44.2026 53.5502 44.1577 53.6062C44.1128 53.6621 44.0563 53.7077 43.992 53.7396L34.682 57.2822C34.5798 57.3329 34.4631 57.3468 34.3518 57.3216C34.2405 57.2964 34.1412 57.2335 34.0708 57.1436L32.8544 53.6337L42.743 50.5453L44.1735 53.0074ZM22.9627 50.7628L21.6004 53.4501C21.5663 53.5173 21.548 53.5914 21.5469 53.6668C21.5458 53.7421 21.5619 53.8167 21.594 53.8849C21.6261 53.9531 21.6734 54.013 21.7322 54.0602C21.791 54.1073 21.8598 54.1404 21.9333 54.157L31.0237 57.2573C31.1406 57.2837 31.2631 57.2668 31.3685 57.2097C31.4739 57.1525 31.555 57.0591 31.5967 56.9468L32.8801 53.5693L22.9627 50.7628Z" fill="url(#paint6_linear_113_1644)"/>
<path d="M34.3991 77.6699C34.3164 77.3612 34.3058 77.0376 34.3682 76.7241C34.4305 76.4106 34.5642 76.1157 34.7587 75.8621C34.9533 75.6085 35.2036 75.4031 35.4903 75.2618C35.7769 75.1204 36.0923 75.0469 36.4119 75.0469C36.7315 75.0469 37.0468 75.1204 37.3335 75.2618C37.6202 75.4031 37.8705 75.6085 38.065 75.8621C38.2596 76.1157 38.3932 76.4106 38.4556 76.7241C38.518 77.0376 38.5074 77.3612 38.4247 77.6699L38.2634 77.8741C38.1976 77.9575 38.1138 78.025 38.0182 78.0716C37.9226 78.1181 37.8178 78.1424 37.7115 78.1427C37.6052 78.1431 37.5003 78.1194 37.4044 78.0735C37.3086 78.0275 37.2243 77.9605 37.158 77.8775L37.0941 77.7973C37.084 77.7847 37.0712 77.7746 37.0567 77.7677C37.0421 77.7609 37.0262 77.7574 37.01 77.7577C36.9939 77.7579 36.9781 77.7618 36.9637 77.7692C36.9494 77.7765 36.9369 77.787 36.9272 77.7999L36.8964 77.8428C36.8319 77.929 36.7485 77.9992 36.6527 78.0482C36.5568 78.0973 36.451 78.1237 36.3434 78.1255C36.2357 78.1273 36.1291 78.1045 36.0317 78.0588C35.9342 78.013 35.8485 77.9456 35.7811 77.8616L35.7631 77.8393C35.7533 77.8272 35.7408 77.8175 35.7267 77.8108C35.7126 77.8041 35.6972 77.8006 35.6816 77.8006C35.666 77.8006 35.6506 77.8041 35.6365 77.8108C35.6224 77.8175 35.61 77.8272 35.6001 77.8393C35.5295 77.9243 35.44 77.9916 35.3386 78.0357C35.2373 78.0797 35.1271 78.0994 35.0167 78.0931C34.9064 78.0868 34.7991 78.0547 34.7035 77.9994C34.6078 77.9441 34.5265 77.8671 34.466 77.7746L34.3991 77.6699Z" fill="url(#paint7_linear_113_1644)"/>
<path d="M26.9933 77.67C26.9103 77.3611 26.8995 77.0373 26.9617 76.7236C27.0239 76.4099 27.1575 76.1147 27.3521 75.8609C27.5467 75.6071 27.7971 75.4015 28.0839 75.26C28.3707 75.1185 28.6862 75.0449 29.0061 75.0449C29.3259 75.0449 29.6414 75.1185 29.9282 75.26C30.215 75.4015 30.4654 75.6071 30.66 75.8609C30.8546 76.1147 30.9882 76.4099 31.0504 76.7236C31.1126 77.0373 31.1018 77.3611 31.0188 77.67L30.8584 77.8763C30.7926 77.9597 30.7089 78.0272 30.6133 78.0738C30.5178 78.1203 30.413 78.1446 30.3068 78.1449C30.2005 78.1453 30.0956 78.1216 29.9998 78.0757C29.904 78.0297 29.8198 77.9628 29.7535 77.8797L29.6891 77.7995C29.6791 77.7869 29.6663 77.7768 29.6517 77.7699C29.6371 77.7631 29.6212 77.7596 29.6051 77.7599C29.589 77.7601 29.5731 77.7641 29.5588 77.7714C29.5444 77.7787 29.5319 77.7892 29.5223 77.8021L29.4918 77.845C29.4273 77.9312 29.344 78.0015 29.2481 78.0505C29.1523 78.0995 29.0465 78.1259 28.9388 78.1277C28.8312 78.1295 28.7246 78.1067 28.6271 78.061C28.5297 78.0152 28.444 77.9478 28.3766 77.8638L28.3582 77.8415C28.3483 77.8294 28.3359 77.8197 28.3218 77.813C28.3077 77.8063 28.2923 77.8028 28.2767 77.8028C28.2611 77.8028 28.2456 77.8063 28.2315 77.813C28.2174 77.8197 28.205 77.8294 28.1952 77.8415C28.1246 77.9265 28.0351 77.9938 27.9338 78.0379C27.8325 78.082 27.7223 78.1016 27.612 78.0953C27.5017 78.089 27.3944 78.0569 27.2988 78.0016C27.2032 77.9463 27.1219 77.8693 27.0615 77.7768L26.9933 77.67Z" fill="url(#paint8_linear_113_1644)"/>
<path d="M58.0354 33.9252C58.7035 22.122 47.7774 11.9043 33.6313 11.1035C19.4851 10.3027 7.47566 19.222 6.80749 31.0253C6.13932 42.8285 17.0654 53.0462 31.2116 53.847C45.3578 54.6478 57.3672 45.7285 58.0354 33.9252Z" fill="url(#paint9_linear_113_1644)"/>
<path d="M33.3391 10.1561C33.3391 10.1561 42.387 9.77867 49.7849 15.1228C49.7849 15.1228 55.7753 18.4062 63.5841 14.5772C63.6796 14.5307 63.7859 14.5104 63.8918 14.5183C63.9978 14.5263 64.0998 14.5623 64.1873 14.6226C64.2749 14.6828 64.3448 14.7653 64.3901 14.8614C64.4354 14.9576 64.4543 15.0641 64.4449 15.1699C64.3304 16.3431 63.6651 18.2445 60.7561 19.352C60.7214 19.3655 60.6912 19.3886 60.6692 19.4187C60.6472 19.4487 60.6342 19.4844 60.6318 19.5216C60.6293 19.5588 60.6375 19.5959 60.6555 19.6285C60.6734 19.6612 60.7003 19.688 60.733 19.7059C61.1447 19.9328 61.8645 20.2717 62.6533 20.3793C63.1937 20.4527 63.3653 21.1514 62.9192 21.4658C62.3616 21.8587 61.6007 22.2602 60.5983 22.5347C60.5682 22.5427 60.5405 22.5578 60.5174 22.5786C60.4943 22.5995 60.4765 22.6256 60.4655 22.6547C60.4545 22.6838 60.4507 22.7151 60.4542 22.746C60.4577 22.7769 60.4686 22.8065 60.4859 22.8324C60.7209 23.1807 61.2219 23.8245 61.8452 24.0652C62.2492 24.2209 62.3427 24.7515 62.0258 25.0483C61.6234 25.4219 61.0564 25.7775 60.3143 25.859C60.2836 25.8627 60.2542 25.8738 60.2287 25.8912C60.2031 25.9086 60.182 25.9319 60.1673 25.9591C60.1525 25.9863 60.1444 26.0166 60.1438 26.0475C60.1431 26.0784 60.1498 26.1091 60.1633 26.1369C60.4563 26.7546 60.917 26.9853 61.1559 27.0668C61.169 27.0711 61.1805 27.0791 61.1891 27.0898C61.1977 27.1005 61.203 27.1135 61.2043 27.1272C61.2055 27.1409 61.2028 27.1547 61.1963 27.1668C61.1898 27.179 61.18 27.1889 61.1679 27.1955C60.1209 27.7883 58.0628 27.8162 57.093 27.0887L55.9538 26.3595C55.9538 26.3595 41.0102 17.4038 32.6708 25.228C32.6708 25.228 21.2612 14.6934 6.97042 29.4195C6.58953 29.812 5.10799 30.2478 3.93486 29.4341C3.91475 29.4195 3.89953 29.3992 3.89117 29.3757C3.88281 29.3523 3.8817 29.3269 3.888 29.3029C3.89431 29.2788 3.90772 29.2573 3.92648 29.241C3.94525 29.2247 3.9685 29.2144 3.9932 29.2115C4.53794 29.1339 4.98532 28.487 5.1822 28.1533C5.19374 28.1338 5.20001 28.1116 5.20038 28.0889C5.20075 28.0662 5.19521 28.0438 5.18431 28.0239C5.1734 28.004 5.15752 27.9873 5.13819 27.9754C5.11887 27.9635 5.09679 27.9568 5.07411 27.956C4.17806 27.9281 3.49091 27.5271 3.01094 27.1033C2.66221 26.7953 2.76688 26.233 3.19538 26.0516C3.93572 25.738 4.49505 24.8934 4.70179 24.5447C4.712 24.5273 4.71796 24.5077 4.71918 24.4875C4.72041 24.4673 4.71687 24.4472 4.70885 24.4286C4.70083 24.4101 4.68856 24.3937 4.67302 24.3808C4.65749 24.3678 4.63913 24.3588 4.61944 24.3543C3.40641 24.0845 2.49665 23.6354 1.84338 23.1961C1.37155 22.8796 1.54055 22.1521 2.10074 22.065C3.10101 21.9102 3.9962 21.4041 4.40197 21.1458C4.42365 21.133 4.44107 21.114 4.45206 21.0913C4.46305 21.0686 4.46713 21.0432 4.4638 21.0182C4.46046 20.9932 4.44986 20.9697 4.4333 20.9507C4.41674 20.9317 4.39495 20.918 4.37065 20.9112C0.946048 19.8076 0.155527 17.6449 0.00411323 16.3534C-0.0084357 16.2453 0.00784983 16.1358 0.0513158 16.0361C0.0947818 15.9363 0.163876 15.8498 0.251583 15.7854C0.339289 15.721 0.442479 15.681 0.550668 15.6694C0.658857 15.6578 0.768192 15.6751 0.867557 15.7194C6.36949 18.1986 10.9681 17.5827 13.612 16.7917C14.7833 16.435 15.8883 15.8889 16.8831 15.1751C24.5721 9.70747 33.3391 10.1561 33.3391 10.1561Z" fill="url(#paint10_linear_113_1644)"/>
<path d="M35.7968 45.2064C35.0861 45.9571 34.1098 46.4932 33.0632 46.5571C32.6214 46.5789 32.1786 46.5645 31.7391 46.5142C31.4393 46.4689 31.1464 46.3863 30.8671 46.2685C30.3223 46.036 29.82 45.6868 29.4688 45.209C30.1979 45.6589 30.9597 45.9485 31.7944 46.0274C32.1346 46.0549 32.4927 46.0471 32.838 46.0536C33.8902 46.0789 34.8634 45.6589 35.7977 45.2069L35.7968 45.2064Z" fill="#DC9B47"/>
<path d="M32.7106 42.1889C34.6837 46.5923 37.1423 48.2034 41.6418 48.2943C48.2821 48.429 53.7952 42.1224 53.9552 34.2086C54.1152 26.2948 48.8565 19.9453 42.2222 19.636C37.3855 19.4108 34.129 23.2648 33.0567 24.7532C33.0124 24.8148 32.954 24.865 32.8864 24.8997C32.8189 24.9343 32.744 24.9523 32.6681 24.9523C32.5922 24.9523 32.5173 24.9343 32.4497 24.8997C32.3822 24.865 32.3238 24.8148 32.2795 24.7532C29.9885 21.5623 26.3928 19.5631 22.6233 19.6377C15.983 19.772 10.7303 26.296 10.8903 34.2107C11.0503 42.1254 16.5634 48.4312 23.2037 48.2965C27.7032 48.2047 30.7375 46.5936 32.7106 42.1889Z" fill="url(#paint11_linear_113_1644)"/>
<path d="M33.7014 41.2379L31.5971 41.1556C30.2202 41.1015 29.2907 42.5462 29.911 43.7768L32.1633 48.2484C32.2066 48.3344 32.2731 48.4066 32.3553 48.4569C32.4374 48.5072 32.5319 48.5336 32.6282 48.5331C32.7245 48.5326 32.8188 48.5052 32.9004 48.4541C32.982 48.403 33.0477 48.3301 33.0902 48.2437L35.2542 43.8437C35.3872 43.5733 35.4505 43.2739 35.4384 42.9728C35.4263 42.6717 35.3392 42.3783 35.1849 42.1195C35.0307 41.8606 34.8142 41.6443 34.5551 41.4904C34.296 41.3364 34.0026 41.2497 33.7014 41.2379Z" fill="url(#paint12_linear_113_1644)"/>
<path d="M39.8304 40.9466C43.1777 40.9466 45.8912 38.2331 45.8912 34.8858C45.8912 31.5385 43.1777 28.825 39.8304 28.825C36.4831 28.825 33.7695 31.5385 33.7695 34.8858C33.7695 38.2331 36.4831 40.9466 39.8304 40.9466Z" fill="white"/>
<path d="M39.0462 39.231C41.2356 39.231 43.0104 37.4561 43.0104 35.2668C43.0104 33.0774 41.2356 31.3026 39.0462 31.3026C36.8569 31.3026 35.082 33.0774 35.082 35.2668C35.082 37.4561 36.8569 39.231 39.0462 39.231Z" fill="url(#paint13_radial_113_1644)"/>
<path opacity="0.5" d="M40.4453 33.2513C40.4453 33.2513 41.2899 33.5661 41.5361 34.7371" stroke="white" stroke-width="0.3" stroke-miterlimit="10" stroke-linecap="round"/>
<path d="M25.3733 40.9698C28.7206 40.9698 31.4342 38.2563 31.4342 34.909C31.4342 31.5617 28.7206 28.8481 25.3733 28.8481C22.026 28.8481 19.3125 31.5617 19.3125 34.909C19.3125 38.2563 22.026 40.9698 25.3733 40.9698Z" fill="white"/>
<path d="M26.0892 39.1997C28.2786 39.1997 30.0534 37.4249 30.0534 35.2355C30.0534 33.0461 28.2786 31.2713 26.0892 31.2713C23.8998 31.2713 22.125 33.0461 22.125 35.2355C22.125 37.4249 23.8998 39.1997 26.0892 39.1997Z" fill="url(#paint14_radial_113_1644)"/>
<path opacity="0.5" d="M27.7188 33.4012C27.7188 33.4012 28.5196 33.8143 28.6247 35.0063" stroke="white" stroke-width="0.3" stroke-miterlimit="10" stroke-linecap="round"/>
<path d="M35.5507 26.764C36.3712 25.8598 38.868 25.2906 41.9907 25.5629C42.5114 25.6058 43.1582 25.632 43.2346 26.2407C43.4469 27.9431 41.5699 27.5704 41.1778 27.5335C40.0965 27.4279 39.1155 27.4743 35.5974 27.9525C35.2946 27.9911 35.2826 27.0595 35.5507 26.764Z" fill="#823231"/>
<path d="M29.0248 26.6889C28.1854 25.8028 25.6766 25.2876 22.5608 25.6252C22.0409 25.6818 21.395 25.7196 21.3319 26.3299C21.1565 28.0367 23.0253 27.6249 23.4161 27.5781C24.4953 27.4494 25.475 27.4743 29.0047 27.8784C29.3075 27.911 29.2993 26.9789 29.0248 26.6889Z" fill="#823231"/>
<path d="M45.7151 11.1431C45.7151 11.1431 45.8313 13.2878 49.2135 7.7335C52.7148 1.98236 40.2136 -0.365619 33.0542 0.045728C25.6367 0.472088 15.3071 1.72329 17.8781 7.7335C18.2805 8.67501 19.4403 9.80826 20.1759 10.5216L21.2732 11.5845C21.2732 11.5845 32.4254 5.78657 45.7151 11.1431Z" fill="url(#paint15_linear_113_1644)"/>
<path d="M49.7061 14.8812C50.1123 15.1338 49.8567 15.3779 49.3853 15.2956C47.6434 14.9914 41.8197 13.4481 32.9811 13.6875C21.4317 13.9997 17.8471 15.4778 17.2457 15.0549C16.6362 14.626 19.2681 13.5168 21.2906 12.6417C21.2906 12.6417 36.2149 4.04677 45.3769 12.5315C45.3769 12.5315 46.8451 13.0998 49.7061 14.8812Z" fill="url(#paint16_linear_113_1644)"/>
<path d="M45.4439 12.5886C45.4439 12.5886 45.6807 12.8918 46.3619 11.4407C46.7174 10.6828 43.7857 9.1781 41.7208 8.65695C32.9388 6.44022 23.1711 8.61405 20.6451 10.9766C20.6451 10.9766 20.3522 12.9467 21.5429 12.601C22.7336 12.2553 34.8137 6.69929 45.4439 12.5886Z" fill="url(#paint17_linear_113_1644)"/>
<defs>
<linearGradient id="paint0_linear_113_1644" x1="49.2516" y1="71.8831" x2="41.0202" y2="51.6204" gradientUnits="userSpaceOnUse">
<stop stop-color="#913A34"/>
<stop offset="0.2" stop-color="#97403B"/>
<stop offset="0.47" stop-color="#A6514C"/>
<stop offset="0.64" stop-color="#A9554A"/>
<stop offset="0.81" stop-color="#B26146"/>
<stop offset="0.98" stop-color="#C2753E"/>
<stop offset="1" stop-color="#C4783D"/>
</linearGradient>
<linearGradient id="paint1_linear_113_1644" x1="22.3372" y1="72.329" x2="17.3067" y2="53.2978" gradientUnits="userSpaceOnUse">
<stop stop-color="#913A34"/>
<stop offset="0.58" stop-color="#A6514C"/>
<stop offset="0.71" stop-color="#A9554A"/>
<stop offset="0.85" stop-color="#B26146"/>
<stop offset="0.98" stop-color="#C2753E"/>
<stop offset="1" stop-color="#C4783D"/>
</linearGradient>
<linearGradient id="paint2_linear_113_1644" x1="46.1681" y1="61.515" x2="19.793" y2="61.515" gradientUnits="userSpaceOnUse">
<stop stop-color="#CCB29D"/>
<stop offset="0.47" stop-color="#F8E0CF"/>
<stop offset="1" stop-color="#FBF0DA"/>
</linearGradient>
<linearGradient id="paint3_linear_113_1644" x1="31.7156" y1="67.9794" x2="30.2373" y2="49.4996" gradientUnits="userSpaceOnUse">
<stop stop-color="#8D6527"/>
<stop offset="0.57" stop-color="#A47D2D"/>
<stop offset="0.77" stop-color="#AE8230"/>
<stop offset="1" stop-color="#B58632"/>
</linearGradient>
<linearGradient id="paint4_linear_113_1644" x1="23.7233" y1="74.0937" x2="20.0083" y2="62.3462" gradientUnits="userSpaceOnUse">
<stop stop-color="#8D6527"/>
<stop offset="0.57" stop-color="#A47D2D"/>
<stop offset="0.77" stop-color="#AE8230"/>
<stop offset="1" stop-color="#B58632"/>
</linearGradient>
<linearGradient id="paint5_linear_113_1644" x1="24.3099" y1="75.7567" x2="26.9331" y2="67.1822" gradientUnits="userSpaceOnUse">
<stop stop-color="#8D6527"/>
<stop offset="0.49" stop-color="#8D6527"/>
<stop offset="1" stop-color="#7A5522"/>
</linearGradient>
<linearGradient id="paint6_linear_113_1644" x1="44.2666" y1="53.9391" x2="21.5464" y2="53.9391" gradientUnits="userSpaceOnUse">
<stop stop-color="#0D4774"/>
<stop offset="0.54" stop-color="#293B90"/>
<stop offset="0.73" stop-color="#254D9E"/>
<stop offset="1" stop-color="#2062AE"/>
</linearGradient>
<linearGradient id="paint7_linear_113_1644" x1="37.9957" y1="78.2048" x2="34.8975" y2="75.6925" gradientUnits="userSpaceOnUse">
<stop stop-color="#F8982A"/>
<stop offset="0.23" stop-color="#F99F31"/>
<stop offset="0.56" stop-color="#FCB344"/>
<stop offset="0.72" stop-color="#FEBF50"/>
<stop offset="1" stop-color="#FEBF50"/>
</linearGradient>
<linearGradient id="paint8_linear_113_1644" x1="30.2506" y1="78.4189" x2="27.7109" y2="75.4974" gradientUnits="userSpaceOnUse">
<stop stop-color="#F8982A"/>
<stop offset="0.23" stop-color="#F99F31"/>
<stop offset="0.56" stop-color="#FCB344"/>
<stop offset="0.72" stop-color="#FEBF50"/>
<stop offset="1" stop-color="#FEBF50"/>
</linearGradient>
<linearGradient id="paint9_linear_113_1644" x1="58.0354" y1="33.9252" x2="6.80749" y2="31.0253" gradientUnits="userSpaceOnUse">
<stop stop-color="#CCB29D"/>
<stop offset="0.47" stop-color="#F8E0CF"/>
<stop offset="1" stop-color="#FBF0DA"/>
</linearGradient>
<linearGradient id="paint10_linear_113_1644" x1="64.6469" y1="18.6125" x2="0.19708" y2="21.1905" gradientUnits="userSpaceOnUse">
<stop stop-color="#BBA197"/>
<stop offset="0.47" stop-color="#F4D3B9"/>
<stop offset="0.49" stop-color="#F4D4BA"/>
<stop offset="1" stop-color="#F8E0CF"/>
</linearGradient>
<linearGradient id="paint11_linear_113_1644" x1="10.9072" y1="33.5267" x2="53.9777" y2="34.3881" gradientUnits="userSpaceOnUse">
<stop stop-color="#C4783D"/>
<stop offset="0.23" stop-color="#B66544"/>
<stop offset="0.44" stop-color="#A6514C"/>
<stop offset="0.67" stop-color="#A34E48"/>
<stop offset="0.88" stop-color="#99433D"/>
<stop offset="1" stop-color="#913A34"/>
</linearGradient>
<linearGradient id="paint12_linear_113_1644" x1="33.6936" y1="45.1221" x2="28.6461" y2="42.4294" gradientUnits="userSpaceOnUse">
<stop stop-color="#F8982A"/>
<stop offset="0.21" stop-color="#F99E30"/>
<stop offset="0.48" stop-color="#FBAE3F"/>
<stop offset="0.69" stop-color="#FEBF50"/>
<stop offset="1" stop-color="#FEBF50"/>
</linearGradient>
<radialGradient id="paint13_radial_113_1644" cx="0" cy="0" r="1" gradientUnits="userSpaceOnUse" gradientTransform="translate(40.9837 33.7243) rotate(-176.566) scale(3.97133)">
<stop stop-color="#331D27"/>
<stop offset="0.17" stop-color="#2C1B25"/>
<stop offset="0.6" stop-color="#1F1622"/>
<stop offset="1" stop-color="#1A1521"/>
</radialGradient>
<radialGradient id="paint14_radial_113_1644" cx="0" cy="0" r="1" gradientUnits="userSpaceOnUse" gradientTransform="translate(28.619 33.5551) rotate(-169.592) scale(3.94991)">
<stop stop-color="#331D27"/>
<stop offset="0.17" stop-color="#2C1B25"/>
<stop offset="0.6" stop-color="#1F1622"/>
<stop offset="1" stop-color="#1A1521"/>
</radialGradient>
<linearGradient id="paint15_linear_113_1644" x1="48.0576" y1="11.5409" x2="18.1594" y2="2.50911" gradientUnits="userSpaceOnUse">
<stop stop-color="#0D4774"/>
<stop offset="0.54" stop-color="#293B90"/>
<stop offset="0.73" stop-color="#254D9E"/>
<stop offset="1" stop-color="#2062AE"/>
</linearGradient>
<linearGradient id="paint16_linear_113_1644" x1="48.6759" y1="18.8384" x2="18.5467" y2="9.73685" gradientUnits="userSpaceOnUse">
<stop stop-color="#0D4774"/>
<stop offset="0.54" stop-color="#293B90"/>
<stop offset="0.73" stop-color="#254D9E"/>
<stop offset="1" stop-color="#2062AE"/>
</linearGradient>
<linearGradient id="paint17_linear_113_1644" x1="45.0694" y1="15.2511" x2="21.3375" y2="8.08206" gradientUnits="userSpaceOnUse">
<stop stop-color="#1A1521"/>
<stop offset="0.4" stop-color="#1F1622"/>
<stop offset="0.83" stop-color="#2C1B25"/>
<stop offset="1" stop-color="#331D27"/>
</linearGradient>
</defs>
</svg>
