<svg width="73" height="66" viewBox="0 0 73 66" fill="none" xmlns="http://www.w3.org/2000/svg">
<path d="M18.3764 27.6049C17.953 27.9834 17.6092 28.4418 17.3645 28.9538C17.1197 29.4658 16.979 30.0215 16.9502 30.589C16.9215 31.1565 17.0053 31.7248 17.1968 32.2613C17.3884 32.7978 17.684 33.2921 18.0667 33.7159L40.1081 58.1898L63.6401 37.1706L39.5215 10.4078C39.4117 10.2847 39.2786 10.1844 39.13 10.1126C38.9814 10.0408 38.8202 9.99893 38.6556 9.98938C38.491 9.97982 38.3264 10.0028 38.1711 10.0569C38.0159 10.1111 37.8731 10.1954 37.7511 10.305L18.3764 27.6049Z" fill="url(#paint0_linear_113_1892)"/>
<path d="M61.0093 34.2491L58.668 36.3405L63.9253 42.1759L66.2667 40.0846L61.0093 34.2491Z" fill="#6F8D50"/>
<path d="M40.4254 52.0819C40.0022 52.4595 39.6583 52.9169 39.4134 53.428C39.1685 53.9391 39.0273 54.4938 38.9978 55.0606C38.9684 55.6273 39.0513 56.1949 39.2419 56.731C39.4324 57.2671 39.7269 57.7612 40.1084 58.185C40.4899 58.6089 40.9511 58.9542 41.4655 59.2013C41.9799 59.4483 42.5375 59.5923 43.1065 59.625C43.6755 59.6577 44.2447 59.5784 44.7817 59.3917C45.3186 59.205 45.8128 58.9146 46.2359 58.537L66.0161 40.8709L60.1963 34.4184L40.4254 52.0819Z" fill="#F7E8DA"/>
<path d="M65.9534 40.3681L45.936 58.2095C45.5535 58.5517 45.1066 58.8151 44.6209 58.9846C44.1351 59.1541 43.6201 59.2265 43.1051 59.1975C42.5902 59.1685 42.0854 59.0388 41.6196 58.8157C41.1538 58.5927 40.7361 58.2807 40.3904 57.8975C40.0446 57.5143 39.7777 57.0675 39.6046 56.5825C39.4316 56.0976 39.356 55.584 39.382 55.071C39.408 54.5581 39.5353 54.0559 39.7564 53.5931C39.9775 53.1304 40.2882 52.716 40.6707 52.3738L60.6914 34.5266L60.9993 34.2522L60.7253 33.9379L40.423 52.0819C39.9999 52.4595 39.656 52.9169 39.4111 53.428C39.1662 53.9391 39.025 54.4939 38.9955 55.0606C38.9661 55.6273 39.049 56.1949 39.2396 56.731C39.4301 57.2671 39.7246 57.7612 40.1061 58.1851C40.4876 58.6089 40.9488 58.9542 41.4632 59.2013C41.9776 59.4484 42.5352 59.5924 43.1042 59.625C43.6732 59.6577 44.2424 59.5784 44.7794 59.3918C45.3163 59.2051 45.8105 58.9146 46.2336 58.537L66.5477 40.3996L66.2646 40.0879L65.9534 40.3681Z" fill="#6F8D50"/>
<path d="M40.9996 55.4495C42.7304 53.8457 44.4848 52.2552 46.2326 50.6763L51.507 45.9262L56.8168 41.1959L59.4924 38.8422L62.1798 36.4952L59.5751 38.8883L56.9527 41.2716L51.6783 46.0217L46.3626 50.7488C44.5656 52.3464 42.8 53.9153 40.9996 55.4495Z" fill="#E5D4C6"/>
<path d="M43.561 51.4552C44.9681 50.1401 46.3864 48.8467 47.8074 47.5624L52.0885 43.7044L56.3954 39.8838L58.5488 38.0082L60.7259 36.1457L58.6132 38.0595L56.4874 39.9967L52.2094 43.8488L47.8967 47.6661C46.4699 48.9471 45.0128 50.2266 43.561 51.4552Z" fill="#E5D4C6"/>
<path d="M41.3597 56.3883C43.0962 54.7928 44.8405 53.2018 46.5927 51.6151L51.8671 46.865L57.1828 42.138L59.8525 39.781L62.5235 37.4633L59.9188 39.8565L57.2964 42.2398L52.0221 46.9899L46.7063 51.7169C44.9283 53.2943 43.1542 54.8508 41.3597 56.3883Z" fill="#E5D4C6"/>
<path d="M41.723 57.336C43.4516 55.7362 45.194 54.144 46.9501 52.5596L52.2245 47.8095L57.5238 43.1118L60.1935 40.7548L62.8809 38.4078L60.2762 40.8009L57.6538 43.1842L52.3794 47.9343L47.0572 52.6731C45.2857 54.2388 43.5076 55.7931 41.723 57.336Z" fill="#E5D4C6"/>
<path d="M42.0817 58.2752C43.8102 56.6753 45.5526 55.0832 47.3087 53.4987L52.5831 48.7486L57.8988 44.0215L60.5685 41.6646L63.2618 39.3209L60.6571 41.714L58.0288 44.094L52.7544 48.8441L47.4387 53.5712C45.652 55.1642 43.8663 56.7322 42.0817 58.2752Z" fill="#E5D4C6"/>
<path d="M43.8603 57.9507C45.4797 56.454 47.1048 54.9657 48.7356 53.4856L53.6484 49.0646L58.5926 44.6842L61.0795 42.5022L63.5776 40.3419L61.1459 42.5777L58.7299 44.7992L53.8204 49.2144L48.8729 53.6006C47.1905 55.0621 45.5356 56.5159 43.8603 57.9507Z" fill="#E5D4C6"/>
<path d="M51.0873 52.752C52.1197 51.7895 53.1836 50.7983 54.2613 49.838L57.4287 46.9356L60.6605 44.0846L62.28 42.6803C62.8258 42.2155 63.3656 41.7474 63.9173 41.2859C63.407 41.7704 62.8789 42.2451 62.3286 42.7459L60.7564 44.1765L57.589 47.0788L54.3631 49.9332C53.2703 50.8928 52.1874 51.8349 51.0873 52.752Z" fill="#E5D4C6"/>
<path d="M8.5907 22.7392C8.16733 23.1177 7.82346 23.5761 7.57875 24.0881C7.33404 24.6002 7.19328 25.1558 7.16452 25.7233C7.13575 26.2908 7.21955 26.8591 7.41112 27.3957C7.60269 27.9322 7.89827 28.4265 8.28098 28.8503L30.3283 53.3275L53.8603 32.3082L31.8039 7.83362L30.0249 5.85712C29.8773 5.69228 29.6987 5.55787 29.4993 5.46157C29.3 5.36527 29.0837 5.30897 28.863 5.29589C28.6422 5.28281 28.4213 5.31321 28.2129 5.38534C28.0045 5.45748 27.8126 5.56994 27.6483 5.7163L8.5907 22.7392Z" fill="url(#paint1_linear_113_1892)"/>
<path d="M51.2203 29.3784L48.8789 31.4697L54.1363 37.3052L56.4776 35.2138L51.2203 29.3784Z" fill="#17253F"/>
<path d="M30.636 47.2166C30.2132 47.5944 29.8698 48.052 29.6253 48.5631C29.3808 49.0743 29.24 49.629 29.211 50.1956C29.182 50.7622 29.2653 51.3296 29.4562 51.8654C29.6471 52.4013 29.9419 52.895 30.3236 53.3185C30.7053 53.7419 31.1666 54.0868 31.6811 54.3335C32.1956 54.5801 32.7531 54.7236 33.322 54.7559C33.8909 54.7881 34.4599 54.7085 34.9966 54.5214C35.5332 54.3344 36.027 54.0437 36.4498 53.6658L56.2267 36.0057L50.4102 29.5473L30.636 47.2166Z" fill="#F7E8DA"/>
<path d="M56.1667 35.503L36.1493 53.3444C35.7667 53.6866 35.3198 53.9499 34.8341 54.1194C34.3484 54.289 33.8333 54.3613 33.3184 54.3323C32.8034 54.3033 32.2986 54.1736 31.8328 53.9506C31.367 53.7275 30.9493 53.4155 30.6036 53.0323C30.2579 52.6491 29.9909 52.2023 29.8179 51.7173C29.6449 51.2324 29.5692 50.7188 29.5953 50.2059C29.6213 49.6929 29.7485 49.1908 29.9696 48.728C30.1907 48.2652 30.5014 47.8509 30.884 47.5087L50.9014 29.6673L51.2125 29.387L50.9353 29.0786L30.6363 47.2167C30.2135 47.5946 29.8701 48.0521 29.6256 48.5633C29.3811 49.0744 29.2403 49.6291 29.2113 50.1957C29.1823 50.7623 29.2657 51.3297 29.4566 51.8656C29.6475 52.4014 29.9422 52.8951 30.3239 53.3186C30.7057 53.7421 31.167 54.087 31.6814 54.3336C32.1959 54.5802 32.7535 54.7238 33.3223 54.756C33.8912 54.7883 34.4602 54.7086 34.9969 54.5216C35.5336 54.3345 36.0274 54.0438 36.4501 53.6659L56.761 35.5344L56.4778 35.2227L56.1667 35.503Z" fill="#203156"/>
<path d="M31.2152 50.584C32.9492 48.9743 34.7004 47.3896 36.4482 45.8108L41.7226 41.0607L47.016 36.3597L49.6916 34.006L52.379 31.659L49.7743 34.0522L47.1519 36.4355L41.8775 41.1856L36.5618 45.9126C34.7753 47.4775 33.0038 49.0432 31.2152 50.584Z" fill="#E5D4C6"/>
<path d="M33.7791 46.5838C35.183 45.2746 36.6013 43.9812 38.0222 42.6969L42.3034 38.839L46.6102 35.0184L48.7637 33.1427L50.9408 31.2802L48.8261 33.239L46.7003 35.1763L42.4224 39.0284L38.147 42.8204C36.6892 44.0457 35.2408 45.3377 33.7791 46.5838Z" fill="#E5D4C6"/>
<path d="M31.5738 51.5231C33.3103 49.9276 35.0546 48.3366 36.8068 46.7499L42.0812 41.9998L47.3969 37.2728L50.0666 34.9158L52.754 32.5688L50.1493 34.962L47.5269 37.3452L42.2525 42.0954L36.9532 46.7931C35.1424 48.4291 33.3742 49.9889 31.5738 51.5231Z" fill="#E5D4C6"/>
<path d="M31.934 52.4708C33.6625 50.871 35.4049 49.2788 37.161 47.6943L42.4354 42.9442L47.7347 38.2465L50.4044 35.8896L53.0918 33.5425L50.4871 35.9357L47.8647 38.319L42.5904 43.0691L37.2747 47.7962C35.4999 49.3677 33.7225 50.9301 31.934 52.4708Z" fill="#E5D4C6"/>
<path d="M32.2965 53.4097C34.0251 51.8098 35.7674 50.2177 37.5236 48.6332L42.7979 43.8831L48.1137 39.1561L50.7833 36.7991L53.4766 34.4554L50.8719 36.8486L48.2436 39.2285L42.9693 43.9787L37.6536 48.7057C35.8668 50.2987 34.0811 51.8667 32.2965 53.4097Z" fill="#E5D4C6"/>
<path d="M34.0746 53.0792C35.6861 51.5782 37.2911 50.0888 38.9466 48.62L43.8593 44.199L48.8036 39.8186L51.2905 37.6366L53.7886 35.4763L51.3568 37.7121L48.9166 39.9354L44.0038 44.3565L39.0563 48.7427C37.4014 50.1965 35.7465 51.6503 34.0746 53.0792Z" fill="#E5D4C6"/>
<path d="M41.2983 47.8863C42.3595 46.9091 43.4175 45.9377 44.4722 44.9722L47.6397 42.0699L50.8714 39.2188L52.491 37.8146C53.0367 37.3498 53.5765 36.8817 54.1282 36.4202C53.6179 36.9047 53.0899 37.3794 52.5363 37.886L50.9641 39.3166L47.7966 42.219L44.5871 45.044C43.4813 46.0271 42.4016 46.9633 41.2983 47.8863Z" fill="#E5D4C6"/>
<path opacity="0.7" d="M27.9434 14.5977L16.4773 24.8394C15.9871 25.2772 15.9484 26.03 16.3907 26.521L20.5441 31.1311C20.9863 31.622 21.7422 31.6651 22.2323 31.2273L33.6984 20.9856C34.1885 20.5478 34.2273 19.795 33.785 19.3041L29.6316 14.694C29.1893 14.2031 28.4335 14.16 27.9434 14.5977Z" fill="white"/>
<path opacity="0.7" d="M38.4401 24.4872L25.1992 36.3142L26.0227 37.2282L39.2636 25.4012L38.4401 24.4872Z" fill="white"/>
<path opacity="0.7" d="M40.2683 26.5099L27.0273 38.3369L27.8508 39.2509L41.0917 27.4239L40.2683 26.5099Z" fill="white"/>
<defs>
<linearGradient id="paint0_linear_113_1892" x1="17.654" y1="36.7314" x2="62.8134" y2="30.9023" gradientUnits="userSpaceOnUse">
<stop stop-color="#6F8D50"/>
<stop offset="1" stop-color="#A0D185"/>
</linearGradient>
<linearGradient id="paint1_linear_113_1892" x1="7.8797" y1="31.9437" x2="53.0391" y2="26.1145" gradientUnits="userSpaceOnUse">
<stop stop-color="#344676"/>
<stop offset="0.04" stop-color="#33487A"/>
<stop offset="0.42" stop-color="#295796"/>
<stop offset="0.76" stop-color="#2360A8"/>
<stop offset="1" stop-color="#2163AE"/>
</linearGradient>
</defs>
</svg>
