<svg width="28" height="59" viewBox="0 0 28 59" fill="none" xmlns="http://www.w3.org/2000/svg">
<path opacity="0.8" d="M9.8839 29.7383V20.5194C12.4792 20.162 15.1112 20.162 17.7064 20.5194V29.7383C17.7059 29.9986 17.7857 30.2527 17.9349 30.4659C18.0842 30.6791 18.2956 30.841 18.5403 30.9296C21.1941 31.9015 23.4855 33.6647 25.1046 35.9811C26.7238 38.2974 27.5927 41.055 27.5938 43.8811C27.5938 55.7936 21.4192 58.2754 13.7952 58.2754C6.17116 58.2754 0.453164 56.1047 0.00313562 43.8811C-0.0582961 41.0418 0.784311 38.2564 2.40927 35.9272C4.03423 33.598 6.35744 31.8456 9.0434 30.923C9.28777 30.8351 9.49933 30.6744 9.64961 30.4626C9.79988 30.2508 9.88165 29.998 9.8839 29.7383Z" fill="url(#paint0_linear_113_1995)"/>
<path d="M17.4768 5.34446C18.8931 4.64634 19.7504 3.4904 19.3916 2.76259C19.0329 2.03479 17.5939 2.01073 16.1777 2.70884C14.7614 3.40696 13.9041 4.5629 14.2629 5.29071C14.6216 6.01851 16.0606 6.04258 17.4768 5.34446Z" fill="#98BA5F"/>
<path d="M6.45059 10.3602C8.02121 10.1979 9.22683 9.41198 9.14342 8.60486C9.06002 7.79774 7.71916 7.27501 6.14854 7.43732C4.57793 7.59962 3.3723 8.3855 3.45571 9.19263C3.53912 9.99975 4.87997 10.5225 6.45059 10.3602Z" fill="#98BA5F"/>
<path d="M12.8363 3.91091C13.2548 3.37982 12.7563 2.28907 11.7228 1.47463C10.6894 0.660196 9.51228 0.430498 9.09375 0.961591C8.67522 1.49268 9.17374 2.58345 10.2072 3.39789C11.2407 4.21232 12.4178 4.44201 12.8363 3.91091Z" fill="#6F8D50"/>
<path d="M12.1784 7.26399C12.3027 5.95405 11.8577 4.84036 11.1846 4.77649C10.5114 4.71262 9.86495 5.72276 9.74067 7.03269C9.61638 8.34263 10.0613 9.45632 10.7345 9.52019C11.4077 9.58406 12.0541 8.57392 12.1784 7.26399Z" fill="#B5D77F"/>
<path d="M13.7953 1.62488C13.5051 1.66449 13.2421 1.8163 13.0627 2.0477C12.8833 2.27909 12.8018 2.57163 12.8356 2.86247L13.0937 44.0996H14.4902L14.7483 2.86247C14.7823 2.57263 14.7016 2.28097 14.5236 2.04976C14.3455 1.81854 14.0842 1.66606 13.7953 1.62488Z" fill="#4D774E"/>
<path d="M7.50973 6.78049C7.40379 6.93646 7.36188 7.12721 7.39268 7.31324C7.42348 7.49926 7.52462 7.66631 7.67518 7.77982L13.9491 13.8552L14.5646 13.2331L8.52891 6.97242C8.41899 6.81209 8.25001 6.70186 8.05898 6.66589C7.86794 6.62992 7.67044 6.67112 7.50973 6.78049Z" fill="#4D774E"/>
<path d="M18.8139 14.7362C19.5541 14.33 19.5112 12.8292 18.718 11.3841C17.9249 9.93901 16.6819 9.09686 15.9417 9.50309C15.2016 9.90933 15.2445 11.4101 16.0377 12.8552C16.8308 14.3003 18.0738 15.1425 18.8139 14.7362Z" fill="#B5D77F"/>
<path d="M22.5513 10.4666C22.3591 10.334 22.1232 10.2806 21.8927 10.3176C21.6621 10.3546 21.4547 10.4791 21.3137 10.6651L13.875 18.3884L14.6096 19.1495L22.3329 11.7042C22.5221 11.5661 22.6506 11.3601 22.6913 11.1294C22.732 10.8987 22.6818 10.6612 22.5513 10.4666Z" fill="#4D774E"/>
<path d="M25.2984 14.3335C25.3336 13.5448 24.1159 12.8499 22.5786 12.7815C21.0414 12.713 19.7667 13.2969 19.7316 14.0856C19.6964 14.8743 20.9142 15.5692 22.4514 15.6376C23.9887 15.7061 25.2633 15.1222 25.2984 14.3335Z" fill="#6F8D50"/>
<path opacity="0.8" d="M13.7953 56.7533C17.8721 56.7533 20.6649 55.9989 22.5841 54.3774C24.9468 52.392 26.0983 48.9374 26.0983 43.8547C26.0926 41.3357 25.3159 38.8787 23.8725 36.8142C22.4291 34.7497 20.3882 33.1765 18.0243 32.3062C17.4969 32.1123 17.0408 31.7631 16.7159 31.3047C16.391 30.8463 16.2126 30.3002 16.2043 29.7384V20.3077C15.4035 20.2349 14.5961 20.2018 13.7953 20.2018C12.9946 20.2018 12.1872 20.2349 11.3798 20.3077V29.7384C11.3777 30.3067 11.2015 30.8606 10.8749 31.3257C10.5483 31.7907 10.087 32.1445 9.55317 32.3393C7.16195 33.1487 5.0914 34.7001 3.64281 36.7676C2.19423 38.8351 1.4432 41.311 1.49899 43.8349C1.69753 49.0896 2.90202 52.5906 5.18525 54.5297C7.02507 56.0584 9.67891 56.7533 13.7953 56.7533Z" fill="url(#paint1_linear_113_1995)"/>
<path d="M9.36924 20.8305C12.301 20.3739 15.2858 20.3739 18.2176 20.8305C18.3717 20.8543 18.5291 20.8446 18.6791 20.8021C18.8291 20.7595 18.9682 20.6852 19.0869 20.5841C19.2056 20.483 19.3011 20.3575 19.3669 20.2161C19.4328 20.0748 19.4674 19.9209 19.4684 19.765C19.469 19.5026 19.3739 19.249 19.2009 19.0516C19.0279 18.8542 18.7889 18.7267 18.5286 18.6929C15.3847 18.2892 12.2021 18.2892 9.05819 18.6929C8.79856 18.7268 8.56032 18.8546 8.38842 19.0521C8.21652 19.2496 8.12283 19.5032 8.12504 19.765C8.12511 19.9206 8.15884 20.0744 8.22393 20.2158C8.28901 20.3571 8.38391 20.4827 8.50211 20.5839C8.6203 20.6851 8.75899 20.7596 8.90867 20.8021C9.05835 20.8447 9.21546 20.8544 9.36924 20.8305Z" fill="#73AAAF"/>
<mask id="mask0_113_1995" style="mask-type:luminance" maskUnits="userSpaceOnUse" x="1" y="20" width="26" height="37">
<path d="M13.7953 56.7533C17.8721 56.7533 20.6649 55.9989 22.5841 54.3774C24.9468 52.392 26.0983 48.9374 26.0983 43.8547C26.0926 41.3357 25.3159 38.8787 23.8725 36.8142C22.4291 34.7497 20.3882 33.1765 18.0243 32.3062C17.4969 32.1123 17.0408 31.7631 16.7159 31.3047C16.391 30.8463 16.2126 30.3002 16.2043 29.7384V20.3077C15.4035 20.2349 14.5961 20.2018 13.7953 20.2018C12.9946 20.2018 12.1872 20.2349 11.3798 20.3077V29.7384C11.3777 30.3067 11.2015 30.8606 10.8749 31.3257C10.5483 31.7907 10.087 32.1445 9.55317 32.3393C7.16195 33.1487 5.0914 34.7001 3.64281 36.7676C2.19423 38.8351 1.4432 41.311 1.49899 43.8349C1.69753 49.0896 2.90202 52.5906 5.18525 54.5297C7.02507 56.0584 9.67891 56.7533 13.7953 56.7533Z" fill="white"/>
</mask>
<g mask="url(#mask0_113_1995)">
<path d="M26.5237 43.0804C26.5237 43.0804 14.0884 47.3359 1.47437 43.4775C-3.73405 54.9665 11.6596 60.6448 11.6596 60.6448L22.5926 59.5197L29.1709 49.9963L26.5237 43.0804Z" fill="url(#paint2_linear_113_1995)"/>
<path d="M13.7952 45.4299C20.5899 45.4299 26.0981 44.4758 26.0981 43.2989C26.0981 42.1219 20.5899 41.1678 13.7952 41.1678C7.00041 41.1678 1.49219 42.1219 1.49219 43.2989C1.49219 44.4758 7.00041 45.4299 13.7952 45.4299Z" fill="url(#paint3_linear_113_1995)"/>
<path fill-rule="evenodd" clip-rule="evenodd" d="M17.384 42.8554C17.4739 42.6797 17.498 42.4777 17.452 42.2857C17.4061 42.0938 17.2929 41.9246 17.1331 41.8087C16.9733 41.6929 16.7774 41.638 16.5807 41.654C16.3839 41.6699 16.1994 41.7557 16.0604 41.8958C15.9763 41.9805 15.9115 42.0825 15.8705 42.1946C15.8296 42.3067 15.8134 42.4264 15.823 42.5454C15.8327 42.6644 15.868 42.7799 15.9265 42.884C15.985 42.988 16.0653 43.0782 16.162 43.1483C16.2586 43.2183 16.3693 43.2667 16.4864 43.2899C16.6035 43.3132 16.7243 43.3108 16.8404 43.283C16.9565 43.2552 17.0652 43.2025 17.159 43.1287C17.2528 43.0549 17.3296 42.9617 17.384 42.8554Z" fill="white"/>
<path style="mix-blend-mode:screen" opacity="0.61" fill-rule="evenodd" clip-rule="evenodd" d="M19.4229 44.2982C19.7996 43.7644 20.0098 43.1309 20.0271 42.4778C20.0443 41.8247 19.8678 41.1811 19.5199 40.6281C19.1719 40.0751 18.668 39.6375 18.0717 39.3705C17.4754 39.1034 16.8134 39.0189 16.1691 39.1275C15.5249 39.2361 14.9272 39.533 14.4514 39.9807C13.9756 40.4285 13.643 41.0071 13.4955 41.6436C13.3481 42.2801 13.3923 42.946 13.6227 43.5574C13.8532 44.1688 14.2594 44.6983 14.7903 45.0791C15.1451 45.3337 15.5469 45.5155 15.9723 45.6141C16.3978 45.7127 16.8386 45.726 17.2692 45.6534C17.6999 45.5808 18.1119 45.4237 18.4816 45.1911C18.8512 44.9585 19.1711 44.655 19.4229 44.2982Z" fill="url(#paint4_radial_113_1995)"/>
<path style="mix-blend-mode:screen" opacity="0.61" fill-rule="evenodd" clip-rule="evenodd" d="M17.9708 43.2789C18.1491 43.0284 18.2491 42.7307 18.2582 42.4233C18.2674 42.1159 18.1852 41.8127 18.022 41.5521C17.8589 41.2914 17.6222 41.085 17.3417 40.9588C17.0613 40.8326 16.7498 40.7925 16.4465 40.8433C16.1432 40.8942 15.8618 41.0338 15.6379 41.2445C15.4139 41.4552 15.2575 41.7276 15.1883 42.0272C15.1191 42.3269 15.1403 42.6403 15.2492 42.9278C15.3581 43.2154 15.5498 43.4643 15.8001 43.6429C15.9664 43.7617 16.1546 43.8465 16.3538 43.8925C16.553 43.9385 16.7593 43.9448 16.9609 43.911C17.1625 43.8772 17.3555 43.8039 17.5287 43.6955C17.702 43.587 17.8522 43.4455 17.9708 43.2789Z" fill="url(#paint5_radial_113_1995)"/>
<path fill-rule="evenodd" clip-rule="evenodd" d="M9.77847 36.5749C9.84387 36.4833 9.88064 36.3743 9.88413 36.2618C9.88762 36.1493 9.85767 36.0383 9.79807 35.9428C9.73848 35.8474 9.65191 35.7717 9.54932 35.7254C9.44672 35.6791 9.3327 35.6643 9.22168 35.6828C9.11066 35.7013 9.00761 35.7523 8.92558 35.8294C8.84354 35.9064 8.78619 36.0061 8.76078 36.1157C8.73538 36.2254 8.74305 36.3401 8.78284 36.4454C8.82263 36.5507 8.89274 36.6418 8.98431 36.7073C9.04482 36.7516 9.11359 36.7834 9.18657 36.8007C9.25956 36.8181 9.33528 36.8207 9.40928 36.8084C9.48328 36.796 9.55406 36.769 9.61747 36.7289C9.68087 36.6888 9.73561 36.6365 9.77847 36.5749Z" fill="white"/>
<path style="mix-blend-mode:screen" opacity="0.61" fill-rule="evenodd" clip-rule="evenodd" d="M11.1882 37.5808C11.4532 37.2102 11.6024 36.7692 11.6167 36.3138C11.6311 35.8583 11.51 35.4088 11.2689 35.0222C11.0277 34.6356 10.6772 34.3292 10.2619 34.1419C9.84649 33.9545 9.38487 33.8945 8.93542 33.9696C8.48597 34.0446 8.06888 34.2514 7.73695 34.5635C7.40501 34.8757 7.17314 35.2794 7.07069 35.7234C6.96823 36.1674 6.99979 36.6318 7.16138 37.0579C7.32296 37.4839 7.60731 37.8525 7.97843 38.1169C8.4759 38.4692 9.09248 38.6106 9.69374 38.5101C10.295 38.4097 10.8322 38.0757 11.1882 37.5808Z" fill="url(#paint6_radial_113_1995)"/>
<path style="mix-blend-mode:screen" opacity="0.61" fill-rule="evenodd" clip-rule="evenodd" d="M10.1878 36.8661C10.3108 36.6934 10.3797 36.4881 10.386 36.2762C10.3922 36.0642 10.3355 35.8552 10.223 35.6755C10.1105 35.4958 9.94721 35.3535 9.75382 35.2666C9.56044 35.1797 9.34562 35.1521 9.13654 35.1872C8.92746 35.2224 8.73349 35.3187 8.57916 35.4641C8.42484 35.6095 8.31708 35.7973 8.26952 36.004C8.22195 36.2106 8.23671 36.4266 8.31194 36.6249C8.38716 36.8231 8.51947 36.9946 8.69214 37.1176C8.92437 37.281 9.21164 37.3462 9.49163 37.2991C9.77163 37.252 10.0218 37.0964 10.1878 36.8661Z" fill="url(#paint7_radial_113_1995)"/>
<path fill-rule="evenodd" clip-rule="evenodd" d="M17.1383 54.2252C17.2215 54.1102 17.2557 53.9669 17.2334 53.8267C17.211 53.6865 17.134 53.5608 17.0192 53.4774C16.9033 53.3949 16.7594 53.3618 16.6192 53.3854C16.4789 53.4089 16.3538 53.4873 16.2713 53.6031C16.1888 53.719 16.1557 53.8628 16.1793 54.0031C16.2029 54.1433 16.2812 54.2685 16.3971 54.351C16.4539 54.3917 16.5182 54.4207 16.5863 54.4364C16.6544 54.4521 16.7249 54.4542 16.7939 54.4425C16.8628 54.4308 16.9287 54.4056 16.9878 54.3683C17.0469 54.331 17.098 54.2824 17.1383 54.2252Z" fill="white"/>
<path style="mix-blend-mode:screen" opacity="0.61" fill-rule="evenodd" clip-rule="evenodd" d="M18.4532 55.1583C18.7013 54.8125 18.8412 54.4009 18.8553 53.9755C18.8693 53.5502 18.7568 53.1302 18.5321 52.7688C18.3074 52.4074 17.9805 52.1208 17.5928 51.9452C17.2052 51.7697 16.7741 51.713 16.3542 51.7825C15.9344 51.8521 15.5446 52.0446 15.2342 52.3357C14.9237 52.6269 14.7067 53.0035 14.6104 53.4181C14.5142 53.8327 14.5431 54.2665 14.6934 54.6646C14.8438 55.0627 15.1089 55.4073 15.4552 55.6547C15.9188 55.9858 16.4948 56.1196 17.0569 56.0265C17.6189 55.9335 18.1211 55.6212 18.4532 55.1583Z" fill="url(#paint8_radial_113_1995)"/>
<path style="mix-blend-mode:screen" opacity="0.61" fill-rule="evenodd" clip-rule="evenodd" d="M17.5203 54.4899C17.6372 54.3283 17.7033 54.1357 17.7105 53.9364C17.7176 53.7372 17.6653 53.5403 17.5603 53.3708C17.4553 53.2013 17.3023 53.0668 17.1208 52.9844C16.9392 52.902 16.7372 52.8755 16.5406 52.9081C16.3439 52.9407 16.1613 53.0311 16.016 53.1677C15.8708 53.3043 15.7694 53.4809 15.7248 53.6752C15.6801 53.8696 15.6942 54.0728 15.7653 54.2591C15.8364 54.4453 15.9612 54.6063 16.1239 54.7215C16.2308 54.7982 16.3517 54.853 16.4797 54.8829C16.6078 54.9128 16.7405 54.9171 16.8702 54.8956C16.9999 54.874 17.1242 54.8271 17.2357 54.7575C17.3473 54.6879 17.444 54.5969 17.5203 54.4899Z" fill="url(#paint9_radial_113_1995)"/>
<path fill-rule="evenodd" clip-rule="evenodd" d="M4.82779 47.4153C4.85179 47.3824 4.86897 47.3452 4.87831 47.3056C4.88765 47.266 4.88897 47.2249 4.88218 47.1848C4.8754 47.1447 4.86065 47.1064 4.8388 47.0721C4.81696 47.0378 4.78846 47.0082 4.75499 46.9851C4.70496 46.9489 4.64529 46.9285 4.5836 46.9263C4.5219 46.9242 4.46095 46.9405 4.40853 46.9731C4.3561 47.0056 4.31456 47.0531 4.28919 47.1094C4.26383 47.1657 4.25578 47.2282 4.26608 47.2891C4.27638 47.35 4.30456 47.4064 4.34704 47.4512C4.38951 47.496 4.44436 47.5271 4.50459 47.5407C4.56483 47.5542 4.62772 47.5495 4.68528 47.5272C4.74283 47.5049 4.79244 47.4659 4.82779 47.4153Z" fill="white"/>
<path style="mix-blend-mode:screen" opacity="0.61" fill-rule="evenodd" clip-rule="evenodd" d="M5.5955 47.9647C5.73979 47.7635 5.82109 47.5239 5.8291 47.2764C5.83711 47.0289 5.77147 46.7846 5.6405 46.5744C5.50952 46.3642 5.31912 46.1977 5.09339 46.0958C4.86767 45.994 4.61679 45.9614 4.37255 46.0023C4.1283 46.0431 3.90168 46.1556 3.72141 46.3253C3.54113 46.4951 3.4153 46.7146 3.35986 46.9559C3.30443 47.1973 3.32189 47.4497 3.41003 47.6811C3.49816 47.9125 3.65301 48.1126 3.85495 48.2559C4.1252 48.4456 4.45923 48.5214 4.78489 48.4669C5.11055 48.4125 5.40171 48.2321 5.5955 47.9647Z" fill="url(#paint10_radial_113_1995)"/>
<path style="mix-blend-mode:screen" opacity="0.61" fill-rule="evenodd" clip-rule="evenodd" d="M5.05462 47.6072C5.12087 47.5132 5.15778 47.4016 5.16069 47.2866C5.16359 47.1715 5.13237 47.0582 5.07095 46.9609C5.00953 46.8637 4.92067 46.7867 4.81558 46.7399C4.71049 46.6931 4.59388 46.6784 4.48047 46.6978C4.36705 46.7171 4.26192 46.7697 4.17833 46.8487C4.09473 46.9278 4.03642 47.0298 4.01076 47.1419C3.9851 47.2541 3.99324 47.3713 4.03414 47.4789C4.07504 47.5864 4.14689 47.6794 4.2406 47.7462C4.3031 47.7907 4.37379 47.8224 4.44859 47.8396C4.5234 47.8567 4.60085 47.8588 4.6765 47.8459C4.75214 47.833 4.82449 47.8053 4.88938 47.7643C4.95427 47.7233 5.01042 47.67 5.05462 47.6072Z" fill="url(#paint11_radial_113_1995)"/>
<path fill-rule="evenodd" clip-rule="evenodd" d="M15.9868 48.8845C16.015 48.8463 16.0353 48.803 16.0465 48.757C16.0578 48.711 16.0598 48.6632 16.0524 48.6163C16.045 48.5695 16.0284 48.5247 16.0035 48.4844C15.9786 48.444 15.9459 48.4091 15.9074 48.3815C15.829 48.327 15.7324 48.3055 15.6383 48.3216C15.5442 48.3377 15.4602 48.3901 15.4044 48.4675C15.3503 48.5448 15.329 48.6405 15.3451 48.7334C15.3612 48.8264 15.4135 48.9093 15.4904 48.9639C15.528 48.9919 15.5708 49.012 15.6163 49.0232C15.6618 49.0344 15.7091 49.0363 15.7554 49.0289C15.8016 49.0215 15.846 49.0049 15.8857 48.9801C15.9255 48.9553 15.9598 48.9228 15.9868 48.8845Z" fill="white"/>
<path style="mix-blend-mode:screen" opacity="0.61" fill-rule="evenodd" clip-rule="evenodd" d="M16.8671 49.5133C17.037 49.282 17.1341 49.0053 17.146 48.7185C17.1578 48.4318 17.0839 48.148 16.9336 47.9035C16.7833 47.659 16.5635 47.4649 16.3023 47.346C16.0411 47.2271 15.7504 47.1888 15.4673 47.2359C15.1842 47.2831 14.9216 47.4136 14.7131 47.6109C14.5046 47.8081 14.3596 48.063 14.2968 48.343C14.2339 48.623 14.256 48.9154 14.3602 49.1828C14.4644 49.4503 14.6459 49.6805 14.8817 49.8442C15.19 50.0603 15.5707 50.1466 15.9421 50.0847C16.3134 50.0229 16.6456 49.8177 16.8671 49.5133Z" fill="url(#paint12_radial_113_1995)"/>
<path style="mix-blend-mode:screen" opacity="0.61" fill-rule="evenodd" clip-rule="evenodd" d="M16.2446 49.0632C16.3499 48.9184 16.3934 48.7376 16.3654 48.5608C16.3375 48.3839 16.2405 48.2254 16.0957 48.1201C15.9509 48.0148 15.7702 47.9713 15.5933 47.9992C15.4164 48.0272 15.2579 48.1242 15.1526 48.269C15.049 48.4138 15.0073 48.5938 15.0364 48.7694C15.0656 48.9451 15.1633 49.1019 15.3081 49.2055C15.4529 49.309 15.6329 49.3508 15.8086 49.3216C15.9842 49.2925 16.141 49.1947 16.2446 49.0499V49.0632Z" fill="url(#paint13_radial_113_1995)"/>
<path fill-rule="evenodd" clip-rule="evenodd" d="M17.4411 37.5213C17.5218 37.4406 17.5672 37.3311 17.5672 37.2169C17.5672 37.1027 17.5218 36.9932 17.4411 36.9125C17.3603 36.8317 17.2508 36.7864 17.1366 36.7864C17.0224 36.7864 16.9129 36.8317 16.8322 36.9125C16.7914 36.952 16.7589 36.9993 16.7367 37.0516C16.7146 37.1039 16.7031 37.1601 16.7031 37.2169C16.7031 37.2737 16.7146 37.3299 16.7367 37.3822C16.7589 37.4345 16.7914 37.4818 16.8322 37.5213C16.9137 37.6006 17.0229 37.6449 17.1366 37.6449C17.2503 37.6449 17.3595 37.6006 17.4411 37.5213Z" fill="white"/>
<path style="mix-blend-mode:screen" opacity="0.61" fill-rule="evenodd" clip-rule="evenodd" d="M18.3678 38.4346C18.6099 38.192 18.7746 37.883 18.8411 37.5468C18.9077 37.2105 18.8731 36.8621 18.7417 36.5456C18.6103 36.229 18.3881 35.9584 18.103 35.7681C17.818 35.5778 17.4829 35.4762 17.1402 35.4762C16.7974 35.4762 16.4624 35.5778 16.1773 35.7681C15.8923 35.9584 15.67 36.229 15.5387 36.5456C15.4073 36.8621 15.3727 37.2105 15.4392 37.5468C15.5058 37.883 15.6705 38.192 15.9125 38.4346C16.0736 38.5961 16.2649 38.7242 16.4756 38.8116C16.6863 38.8991 16.9121 38.9441 17.1402 38.9441C17.3683 38.9441 17.5941 38.8991 17.8048 38.8116C18.0154 38.7242 18.2068 38.5961 18.3678 38.4346Z" fill="url(#paint14_radial_113_1995)"/>
<path style="mix-blend-mode:screen" opacity="0.61" fill-rule="evenodd" clip-rule="evenodd" d="M17.7119 37.7861C17.8244 37.673 17.9008 37.5291 17.9316 37.3726C17.9624 37.2161 17.9462 37.054 17.885 36.9067C17.8237 36.7594 17.7202 36.6336 17.5876 36.5451C17.4549 36.4566 17.2989 36.4093 17.1394 36.4093C16.9799 36.4093 16.824 36.4566 16.6913 36.5451C16.5586 36.6336 16.4552 36.7594 16.3939 36.9067C16.3327 37.054 16.3164 37.2161 16.3472 37.3726C16.378 37.5291 16.4545 37.673 16.567 37.7861C16.7194 37.9368 16.9251 38.0214 17.1394 38.0214C17.3538 38.0214 17.5595 37.9368 17.7119 37.7861Z" fill="url(#paint15_radial_113_1995)"/>
<path fill-rule="evenodd" clip-rule="evenodd" d="M21.3735 50.4397C21.4351 50.3749 21.4763 50.2935 21.4921 50.2056C21.5078 50.1177 21.4975 50.0271 21.4622 49.9449C21.427 49.8628 21.3685 49.7929 21.2939 49.7437C21.2193 49.6945 21.1319 49.6683 21.0426 49.6683C20.9532 49.6683 20.8659 49.6945 20.7913 49.7437C20.7167 49.7929 20.6582 49.8628 20.6229 49.9449C20.5877 50.0271 20.5773 50.1177 20.5931 50.2056C20.6089 50.2935 20.6501 50.3749 20.7117 50.4397C20.7543 50.4845 20.8057 50.5202 20.8626 50.5446C20.9194 50.569 20.9807 50.5816 21.0426 50.5816C21.1045 50.5816 21.1657 50.569 21.2226 50.5446C21.2795 50.5202 21.3308 50.4845 21.3735 50.4397Z" fill="white"/>
<path style="mix-blend-mode:screen" opacity="0.61" fill-rule="evenodd" clip-rule="evenodd" d="M22.3654 51.4125C22.6185 51.1523 22.7892 50.8232 22.8564 50.4665C22.9235 50.1097 22.8839 49.7411 22.7427 49.4067C22.6015 49.0723 22.3648 48.787 22.0622 48.5863C21.7597 48.3857 21.4048 48.2787 21.0418 48.2787C20.6787 48.2787 20.3238 48.3857 20.0213 48.5863C19.7187 48.787 19.482 49.0723 19.3408 49.4067C19.1996 49.7411 19.16 50.1097 19.2271 50.4665C19.2943 50.8232 19.465 51.1523 19.7181 51.4125C19.8907 51.5886 20.0966 51.7285 20.3239 51.824C20.5512 51.9195 20.7952 51.9687 21.0418 51.9687C21.2883 51.9687 21.5323 51.9195 21.7596 51.824C21.9869 51.7285 22.1928 51.5886 22.3654 51.4125Z" fill="url(#paint16_radial_113_1995)"/>
<path style="mix-blend-mode:screen" opacity="0.61" fill-rule="evenodd" clip-rule="evenodd" d="M21.6639 50.7243C21.7832 50.6035 21.864 50.4502 21.8964 50.2836C21.9287 50.117 21.911 49.9446 21.8456 49.788C21.7801 49.6314 21.6699 49.4977 21.5286 49.4036C21.3874 49.3096 21.2215 49.2594 21.0518 49.2594C20.8821 49.2594 20.7161 49.3096 20.5749 49.4036C20.4336 49.4977 20.3234 49.6314 20.2579 49.788C20.1925 49.9446 20.1748 50.117 20.2072 50.2836C20.2395 50.4502 20.3203 50.6035 20.4396 50.7243C20.6021 50.8863 20.8222 50.9773 21.0518 50.9773C21.2813 50.9773 21.5014 50.8863 21.6639 50.7243Z" fill="url(#paint17_radial_113_1995)"/>
<path fill-rule="evenodd" clip-rule="evenodd" d="M9.07553 52.1671C9.1242 52.1184 9.1628 52.0606 9.18914 51.997C9.21548 51.9334 9.22904 51.8653 9.22904 51.7964C9.22904 51.7276 9.21548 51.6595 9.18914 51.5959C9.1628 51.5323 9.1242 51.4745 9.07553 51.4258C9.02686 51.3772 8.96908 51.3386 8.90549 51.3122C8.8419 51.2859 8.77375 51.2723 8.70492 51.2723C8.63609 51.2723 8.56793 51.2859 8.50434 51.3122C8.44076 51.3386 8.38297 51.3772 8.3343 51.4258C8.23529 51.5251 8.17969 51.6596 8.17969 51.7998C8.17969 51.94 8.23529 52.0744 8.3343 52.1737C8.38332 52.2221 8.44142 52.2603 8.50526 52.2862C8.5691 52.312 8.63741 52.325 8.70629 52.3244C8.77517 52.3238 8.84325 52.3096 8.90661 52.2826C8.96998 52.2556 9.02738 52.2163 9.07553 52.1671Z" fill="white"/>
<path style="mix-blend-mode:screen" opacity="0.61" fill-rule="evenodd" clip-rule="evenodd" d="M10.2072 53.2921C10.5039 52.9962 10.7061 52.6188 10.7882 52.2079C10.8704 51.7969 10.8287 51.3708 10.6686 50.9836C10.5085 50.5963 10.237 50.2653 9.88864 50.0323C9.54026 49.7994 9.1306 49.675 8.71153 49.675C8.29245 49.675 7.8828 49.7994 7.53442 50.0323C7.18604 50.2653 6.9146 50.5963 6.75447 50.9836C6.59433 51.3708 6.55269 51.7969 6.63482 52.2079C6.71695 52.6188 6.91916 52.9962 7.21585 53.2921C7.61286 53.6882 8.15075 53.9106 8.71153 53.9106C9.27231 53.9106 9.8102 53.6882 10.2072 53.2921Z" fill="url(#paint18_radial_113_1995)"/>
<path style="mix-blend-mode:screen" opacity="0.61" fill-rule="evenodd" clip-rule="evenodd" d="M9.40695 52.4914C9.5446 52.3534 9.63825 52.1777 9.67608 51.9864C9.71392 51.7952 9.69424 51.5971 9.61952 51.4171C9.54481 51.2371 9.41842 51.0832 9.25632 50.975C9.09421 50.8667 8.90367 50.809 8.70875 50.809C8.51383 50.809 8.32328 50.8667 8.16118 50.975C7.99908 51.0832 7.87268 51.2371 7.79797 51.4171C7.72326 51.5971 7.70358 51.7952 7.74141 51.9864C7.77925 52.1777 7.8729 52.3534 8.01054 52.4914C8.10214 52.5832 8.21097 52.6561 8.33078 52.7058C8.45059 52.7555 8.57903 52.7811 8.70875 52.7811C8.83847 52.7811 8.96691 52.7555 9.08672 52.7058C9.20653 52.6561 9.31535 52.5832 9.40695 52.4914Z" fill="url(#paint19_radial_113_1995)"/>
<path fill-rule="evenodd" clip-rule="evenodd" d="M22.71 43.729C22.7366 43.7026 22.7577 43.6711 22.7721 43.6365C22.7865 43.6018 22.7939 43.5647 22.7939 43.5272C22.7939 43.4896 22.7865 43.4525 22.7721 43.4179C22.7577 43.3832 22.7366 43.3518 22.71 43.3253C22.6835 43.2988 22.652 43.2778 22.6174 43.2634C22.5827 43.2491 22.5456 43.2417 22.5081 43.2417C22.4706 43.2417 22.4335 43.2491 22.3989 43.2634C22.3642 43.2778 22.3328 43.2988 22.3063 43.3253C22.2798 43.3518 22.2587 43.3833 22.2444 43.4179C22.23 43.4525 22.2227 43.4897 22.2227 43.5272C22.2227 43.5646 22.23 43.6018 22.2444 43.6364C22.2587 43.671 22.2798 43.7025 22.3063 43.729C22.3327 43.7556 22.3642 43.7768 22.3988 43.7912C22.4334 43.8056 22.4706 43.813 22.5081 43.813C22.5456 43.813 22.5828 43.8056 22.6174 43.7912C22.6521 43.7768 22.6835 43.7556 22.71 43.729Z" fill="white"/>
<path style="mix-blend-mode:screen" opacity="0.61" fill-rule="evenodd" clip-rule="evenodd" d="M23.3243 44.3377C23.5308 44.1193 23.6437 43.8287 23.6389 43.5282C23.634 43.2276 23.5119 42.9408 23.2984 42.7291C23.085 42.5174 22.7972 42.3976 22.4966 42.3952C22.196 42.3928 21.9064 42.508 21.6896 42.7163C21.5789 42.8227 21.4906 42.9502 21.4299 43.0912C21.3691 43.2322 21.3372 43.384 21.336 43.5375C21.3348 43.6911 21.3643 43.8433 21.4227 43.9853C21.4812 44.1273 21.5675 44.2561 21.6765 44.3643C21.7855 44.4724 21.9151 44.5576 22.0575 44.615C22.2 44.6723 22.3525 44.7005 22.506 44.6981C22.6595 44.6956 22.811 44.6625 22.9516 44.6006C23.0921 44.5387 23.2188 44.4493 23.3243 44.3377Z" fill="url(#paint20_radial_113_1995)"/>
<path style="mix-blend-mode:screen" opacity="0.61" fill-rule="evenodd" clip-rule="evenodd" d="M22.8881 43.9076C22.9649 43.8321 23.0174 43.7354 23.0391 43.6299C23.0608 43.5244 23.0506 43.4148 23.0098 43.3151C22.9689 43.2154 22.8994 43.1302 22.81 43.0701C22.7205 43.0101 22.6152 42.978 22.5075 42.978C22.3998 42.978 22.2945 43.0101 22.2051 43.0701C22.1157 43.1302 22.0461 43.2154 22.0053 43.3151C21.9645 43.4148 21.9543 43.5244 21.9759 43.6299C21.9976 43.7354 22.0502 43.8321 22.127 43.9076C22.1768 43.9578 22.2361 43.9977 22.3014 44.0249C22.3667 44.0521 22.4368 44.0661 22.5075 44.0661C22.5783 44.0661 22.6483 44.0521 22.7136 44.0249C22.779 43.9977 22.8382 43.9578 22.8881 43.9076Z" fill="url(#paint21_radial_113_1995)"/>
<path fill-rule="evenodd" clip-rule="evenodd" d="M8.77336 42.862C8.90007 42.9192 9.04408 42.925 9.17497 42.8781C9.30586 42.8312 9.41339 42.7352 9.47487 42.6105C9.50498 42.548 9.52236 42.4802 9.526 42.4109C9.52964 42.3417 9.51946 42.2724 9.49605 42.2071C9.47265 42.1418 9.43648 42.0818 9.38967 42.0307C9.34286 41.9795 9.28634 41.9381 9.22339 41.909C9.1018 41.8587 8.96559 41.8567 8.84258 41.9034C8.71957 41.9502 8.61906 42.0421 8.56158 42.1605C8.4996 42.2822 8.48704 42.4231 8.5265 42.5538C8.56596 42.6845 8.65441 42.7949 8.77336 42.862Z" fill="white"/>
<path style="mix-blend-mode:screen" opacity="0.61" fill-rule="evenodd" clip-rule="evenodd" d="M8.0907 44.2981C8.46918 44.4778 8.89243 44.5412 9.30693 44.4802C9.72143 44.4193 10.1085 44.2368 10.4193 43.9558C10.73 43.6748 10.9505 43.308 11.0527 42.9017C11.1549 42.4954 11.1343 42.0679 10.9935 41.6733C10.8527 41.2787 10.598 40.9347 10.2617 40.6849C9.92541 40.4351 9.52254 40.2906 9.10411 40.2698C8.68567 40.249 8.27046 40.3528 7.91101 40.568C7.55156 40.7832 7.26401 41.1002 7.08475 41.4788C6.96495 41.7299 6.89594 42.0021 6.88168 42.2799C6.86742 42.5577 6.90821 42.8356 7.00168 43.0976C7.09516 43.3596 7.2395 43.6005 7.42639 43.8066C7.61328 44.0126 7.83904 44.1796 8.0907 44.2981Z" fill="url(#paint22_radial_113_1995)"/>
<path style="mix-blend-mode:screen" opacity="0.61" fill-rule="evenodd" clip-rule="evenodd" d="M8.57199 43.279C8.68974 43.3351 8.8174 43.3675 8.94767 43.3743C9.07793 43.381 9.20825 43.362 9.33117 43.3184C9.4541 43.2748 9.56722 43.2073 9.66407 43.1199C9.76091 43.0326 9.83959 42.927 9.8956 42.8092C9.95122 42.6918 9.98319 42.5647 9.98968 42.435C9.99617 42.3053 9.97705 42.1756 9.93342 42.0533C9.88979 41.931 9.8225 41.8185 9.73539 41.7222C9.64828 41.626 9.54305 41.5478 9.42572 41.4922C9.30839 41.4365 9.18126 41.4046 9.05158 41.3981C8.92189 41.3916 8.7922 41.4107 8.66991 41.4543C8.54761 41.498 8.43511 41.5653 8.33882 41.6524C8.24254 41.7395 8.16435 41.8447 8.10873 41.962C7.99878 42.1986 7.98569 42.4688 8.07225 42.7149C8.15881 42.9609 8.33816 43.1634 8.57199 43.279Z" fill="url(#paint23_radial_113_1995)"/>
</g>
<defs>
<linearGradient id="paint0_linear_113_1995" x1="34.3773" y1="39.2551" x2="-11.327" y2="39.2551" gradientUnits="userSpaceOnUse">
<stop stop-color="#D4F6FF"/>
<stop offset="0.53" stop-color="#B3EFFF"/>
<stop offset="1" stop-color="#57D3FF"/>
</linearGradient>
<linearGradient id="paint1_linear_113_1995" x1="30.7111" y1="28.1236" x2="-15.7741" y2="59.4403" gradientUnits="userSpaceOnUse">
<stop stop-color="#F2FFFC"/>
<stop offset="1" stop-color="#73AAAF"/>
</linearGradient>
<linearGradient id="paint2_linear_113_1995" x1="29.1577" y1="51.8626" x2="0.422094" y2="51.8626" gradientUnits="userSpaceOnUse">
<stop stop-color="#FFEF6E"/>
<stop offset="0.15" stop-color="#E5E461"/>
<stop offset="0.41" stop-color="#BED44C"/>
<stop offset="0.64" stop-color="#A1C83D"/>
<stop offset="0.85" stop-color="#8FC134"/>
<stop offset="1" stop-color="#89BE31"/>
</linearGradient>
<linearGradient id="paint3_linear_113_1995" x1="38.4739" y1="43.2989" x2="13.868" y2="43.2989" gradientUnits="userSpaceOnUse">
<stop stop-color="#CAE897"/>
<stop offset="0.06" stop-color="#C4E48D"/>
<stop offset="0.35" stop-color="#ABD466"/>
<stop offset="0.61" stop-color="#98C849"/>
<stop offset="0.83" stop-color="#8DC137"/>
<stop offset="1" stop-color="#89BE31"/>
</linearGradient>
<radialGradient id="paint4_radial_113_1995" cx="0" cy="0" r="1" gradientUnits="userSpaceOnUse" gradientTransform="translate(37.4866 37.9748) rotate(-144.395) scale(3.32297)">
<stop stop-color="#FF7E00"/>
<stop offset="0.13" stop-color="#CF6600"/>
<stop offset="0.31" stop-color="#914800"/>
<stop offset="0.48" stop-color="#5D2E00"/>
<stop offset="0.64" stop-color="#351A00"/>
<stop offset="0.78" stop-color="#180C00"/>
<stop offset="0.91" stop-color="#060300"/>
<stop offset="1"/>
</radialGradient>
<radialGradient id="paint5_radial_113_1995" cx="0" cy="0" r="1" gradientUnits="userSpaceOnUse" gradientTransform="translate(37.4839 37.9748) rotate(-144.395) scale(1.55599)">
<stop stop-color="#FF7E00"/>
<stop offset="0.13" stop-color="#CF6600"/>
<stop offset="0.31" stop-color="#914800"/>
<stop offset="0.48" stop-color="#5D2E00"/>
<stop offset="0.64" stop-color="#351A00"/>
<stop offset="0.78" stop-color="#180C00"/>
<stop offset="0.91" stop-color="#060300"/>
<stop offset="1"/>
</radialGradient>
<radialGradient id="paint6_radial_113_1995" cx="0" cy="0" r="1" gradientUnits="userSpaceOnUse" gradientTransform="translate(30.1294 31.8485) rotate(-144.395) scale(2.29443)">
<stop stop-color="#FF7E00"/>
<stop offset="0.13" stop-color="#CF6600"/>
<stop offset="0.31" stop-color="#914800"/>
<stop offset="0.48" stop-color="#5D2E00"/>
<stop offset="0.64" stop-color="#351A00"/>
<stop offset="0.78" stop-color="#180C00"/>
<stop offset="0.91" stop-color="#060300"/>
<stop offset="1"/>
</radialGradient>
<radialGradient id="paint7_radial_113_1995" cx="0" cy="0" r="1" gradientUnits="userSpaceOnUse" gradientTransform="translate(30.1284 31.8485) rotate(-144.395) scale(1.0681)">
<stop stop-color="#FF7E00"/>
<stop offset="0.13" stop-color="#CF6600"/>
<stop offset="0.31" stop-color="#914800"/>
<stop offset="0.48" stop-color="#5D2E00"/>
<stop offset="0.64" stop-color="#351A00"/>
<stop offset="0.78" stop-color="#180C00"/>
<stop offset="0.91" stop-color="#060300"/>
<stop offset="1"/>
</radialGradient>
<radialGradient id="paint8_radial_113_1995" cx="0" cy="0" r="1" gradientUnits="userSpaceOnUse" gradientTransform="translate(37.4613 49.466) rotate(-144.395) scale(2.14279 2.14279)">
<stop stop-color="#FF7E00"/>
<stop offset="0.13" stop-color="#CF6600"/>
<stop offset="0.31" stop-color="#914800"/>
<stop offset="0.48" stop-color="#5D2E00"/>
<stop offset="0.64" stop-color="#351A00"/>
<stop offset="0.78" stop-color="#180C00"/>
<stop offset="0.91" stop-color="#060300"/>
<stop offset="1"/>
</radialGradient>
<radialGradient id="paint9_radial_113_1995" cx="0" cy="0" r="1" gradientUnits="userSpaceOnUse" gradientTransform="translate(37.4616 49.466) rotate(-144.395) scale(1.00216)">
<stop stop-color="#FF7E00"/>
<stop offset="0.13" stop-color="#CF6600"/>
<stop offset="0.31" stop-color="#914800"/>
<stop offset="0.48" stop-color="#5D2E00"/>
<stop offset="0.64" stop-color="#351A00"/>
<stop offset="0.78" stop-color="#180C00"/>
<stop offset="0.91" stop-color="#060300"/>
<stop offset="1"/>
</radialGradient>
<radialGradient id="paint10_radial_113_1995" cx="0" cy="0" r="1" gradientUnits="userSpaceOnUse" gradientTransform="translate(25.3958 42.7963) rotate(-144.395) scale(1.24612 1.24612)">
<stop stop-color="#FF7E00"/>
<stop offset="0.13" stop-color="#CF6600"/>
<stop offset="0.31" stop-color="#914800"/>
<stop offset="0.48" stop-color="#5D2E00"/>
<stop offset="0.64" stop-color="#351A00"/>
<stop offset="0.78" stop-color="#180C00"/>
<stop offset="0.91" stop-color="#060300"/>
<stop offset="1"/>
</radialGradient>
<radialGradient id="paint11_radial_113_1995" cx="0" cy="0" r="1" gradientUnits="userSpaceOnUse" gradientTransform="translate(25.3976 42.7962) rotate(-144.396) scale(0.580201)">
<stop stop-color="#FF7E00"/>
<stop offset="0.13" stop-color="#CF6600"/>
<stop offset="0.31" stop-color="#914800"/>
<stop offset="0.48" stop-color="#5D2E00"/>
<stop offset="0.64" stop-color="#351A00"/>
<stop offset="0.78" stop-color="#180C00"/>
<stop offset="0.91" stop-color="#060300"/>
<stop offset="1"/>
</radialGradient>
<radialGradient id="paint12_radial_113_1995" cx="0" cy="0" r="1" gradientUnits="userSpaceOnUse" gradientTransform="translate(36.4687 44.2532) rotate(-144.396) scale(1.43072 1.43072)">
<stop stop-color="#FF7E00"/>
<stop offset="0.13" stop-color="#CF6600"/>
<stop offset="0.31" stop-color="#914800"/>
<stop offset="0.48" stop-color="#5D2E00"/>
<stop offset="0.64" stop-color="#351A00"/>
<stop offset="0.78" stop-color="#180C00"/>
<stop offset="0.91" stop-color="#060300"/>
<stop offset="1"/>
</radialGradient>
<radialGradient id="paint13_radial_113_1995" cx="0" cy="0" r="1" gradientUnits="userSpaceOnUse" gradientTransform="translate(36.4682 44.2531) rotate(-144.396) scale(0.665911)">
<stop stop-color="#FF7E00"/>
<stop offset="0.13" stop-color="#CF6600"/>
<stop offset="0.31" stop-color="#914800"/>
<stop offset="0.48" stop-color="#5D2E00"/>
<stop offset="0.64" stop-color="#351A00"/>
<stop offset="0.78" stop-color="#180C00"/>
<stop offset="0.91" stop-color="#060300"/>
<stop offset="1"/>
</radialGradient>
<radialGradient id="paint14_radial_113_1995" cx="0" cy="0" r="1" gradientUnits="userSpaceOnUse" gradientTransform="translate(27.3618 55.5012) rotate(-135.406) scale(1.72881)">
<stop stop-color="#FF7E00"/>
<stop offset="0.13" stop-color="#CF6600"/>
<stop offset="0.31" stop-color="#914800"/>
<stop offset="0.48" stop-color="#5D2E00"/>
<stop offset="0.64" stop-color="#351A00"/>
<stop offset="0.78" stop-color="#180C00"/>
<stop offset="0.91" stop-color="#060300"/>
<stop offset="1"/>
</radialGradient>
<radialGradient id="paint15_radial_113_1995" cx="0" cy="0" r="1" gradientUnits="userSpaceOnUse" gradientTransform="translate(27.3611 55.5013) rotate(-135.406) scale(0.805019)">
<stop stop-color="#FF7E00"/>
<stop offset="0.13" stop-color="#CF6600"/>
<stop offset="0.31" stop-color="#914800"/>
<stop offset="0.48" stop-color="#5D2E00"/>
<stop offset="0.64" stop-color="#351A00"/>
<stop offset="0.78" stop-color="#180C00"/>
<stop offset="0.91" stop-color="#060300"/>
<stop offset="1"/>
</radialGradient>
<radialGradient id="paint16_radial_113_1995" cx="0" cy="0" r="1" gradientUnits="userSpaceOnUse" gradientTransform="translate(31.3026 68.3465) rotate(-135.406) scale(1.84098)">
<stop stop-color="#FF7E00"/>
<stop offset="0.13" stop-color="#CF6600"/>
<stop offset="0.31" stop-color="#914800"/>
<stop offset="0.48" stop-color="#5D2E00"/>
<stop offset="0.64" stop-color="#351A00"/>
<stop offset="0.78" stop-color="#180C00"/>
<stop offset="0.91" stop-color="#060300"/>
<stop offset="1"/>
</radialGradient>
<radialGradient id="paint17_radial_113_1995" cx="0" cy="0" r="1" gradientUnits="userSpaceOnUse" gradientTransform="translate(31.3027 68.3466) rotate(-135.406) scale(0.857806)">
<stop stop-color="#FF7E00"/>
<stop offset="0.13" stop-color="#CF6600"/>
<stop offset="0.31" stop-color="#914800"/>
<stop offset="0.48" stop-color="#5D2E00"/>
<stop offset="0.64" stop-color="#351A00"/>
<stop offset="0.78" stop-color="#180C00"/>
<stop offset="0.91" stop-color="#060300"/>
<stop offset="1"/>
</radialGradient>
<radialGradient id="paint18_radial_113_1995" cx="0" cy="0" r="1" gradientUnits="userSpaceOnUse" gradientTransform="translate(19.0005 70.0623) rotate(-135.406) scale(2.11152)">
<stop stop-color="#FF7E00"/>
<stop offset="0.13" stop-color="#CF6600"/>
<stop offset="0.31" stop-color="#914800"/>
<stop offset="0.48" stop-color="#5D2E00"/>
<stop offset="0.64" stop-color="#351A00"/>
<stop offset="0.78" stop-color="#180C00"/>
<stop offset="0.91" stop-color="#060300"/>
<stop offset="1"/>
</radialGradient>
<radialGradient id="paint19_radial_113_1995" cx="0" cy="0" r="1" gradientUnits="userSpaceOnUse" gradientTransform="translate(19.001 70.0622) rotate(-135.407) scale(0.983174)">
<stop stop-color="#FF7E00"/>
<stop offset="0.13" stop-color="#CF6600"/>
<stop offset="0.31" stop-color="#914800"/>
<stop offset="0.48" stop-color="#5D2E00"/>
<stop offset="0.64" stop-color="#351A00"/>
<stop offset="0.78" stop-color="#180C00"/>
<stop offset="0.91" stop-color="#060300"/>
<stop offset="1"/>
</radialGradient>
<radialGradient id="paint20_radial_113_1995" cx="0" cy="0" r="1" gradientUnits="userSpaceOnUse" gradientTransform="translate(32.7391 61.7758) rotate(-135.406) scale(1.14814)">
<stop stop-color="#FF7E00"/>
<stop offset="0.13" stop-color="#CF6600"/>
<stop offset="0.31" stop-color="#914800"/>
<stop offset="0.48" stop-color="#5D2E00"/>
<stop offset="0.64" stop-color="#351A00"/>
<stop offset="0.78" stop-color="#180C00"/>
<stop offset="0.91" stop-color="#060300"/>
<stop offset="1"/>
</radialGradient>
<radialGradient id="paint21_radial_113_1995" cx="0" cy="0" r="1" gradientUnits="userSpaceOnUse" gradientTransform="translate(32.7397 61.7762) rotate(-135.406) scale(0.534483)">
<stop stop-color="#FF7E00"/>
<stop offset="0.13" stop-color="#CF6600"/>
<stop offset="0.31" stop-color="#914800"/>
<stop offset="0.48" stop-color="#5D2E00"/>
<stop offset="0.64" stop-color="#351A00"/>
<stop offset="0.78" stop-color="#180C00"/>
<stop offset="0.91" stop-color="#060300"/>
<stop offset="1"/>
</radialGradient>
<radialGradient id="paint22_radial_113_1995" cx="0" cy="0" r="1" gradientUnits="userSpaceOnUse" gradientTransform="translate(20.1152 40.1286) rotate(-64.4625) scale(2.11237 2.11237)">
<stop stop-color="#FF7E00"/>
<stop offset="0.13" stop-color="#CF6600"/>
<stop offset="0.31" stop-color="#914800"/>
<stop offset="0.48" stop-color="#5D2E00"/>
<stop offset="0.64" stop-color="#351A00"/>
<stop offset="0.78" stop-color="#180C00"/>
<stop offset="0.91" stop-color="#060300"/>
<stop offset="1"/>
</radialGradient>
<radialGradient id="paint23_radial_113_1995" cx="0" cy="0" r="1" gradientUnits="userSpaceOnUse" gradientTransform="translate(20.1134 40.1286) rotate(-64.4626) scale(0.983573)">
<stop stop-color="#FF7E00"/>
<stop offset="0.13" stop-color="#CF6600"/>
<stop offset="0.31" stop-color="#914800"/>
<stop offset="0.48" stop-color="#5D2E00"/>
<stop offset="0.64" stop-color="#351A00"/>
<stop offset="0.78" stop-color="#180C00"/>
<stop offset="0.91" stop-color="#060300"/>
<stop offset="1"/>
</radialGradient>
</defs>
</svg>
