<svg width="69" height="86" viewBox="0 0 69 86" fill="none" xmlns="http://www.w3.org/2000/svg">
<path d="M48.6548 31.6069C48.6548 31.6069 53.7442 22.0658 60.2026 24.0477C66.6611 26.0295 66.4455 32.1338 62.2366 36.9032C62.2366 36.9032 70.9314 40.4043 68.1723 47.7821C67.712 49.0133 66.8837 50.0746 65.7151 50.6763C64.1165 51.4994 61.388 52.0675 57.4418 50.1361C57.4418 50.1361 60.5551 56.2421 51.3056 58.1735C42.056 60.1049 37.3359 35.4772 37.3359 35.4772L48.6548 31.6069Z" fill="url(#paint0_linear_113_1498)"/>
<path d="M22.8444 33.7614C22.8444 33.7614 22.3529 22.959 15.6695 21.9713C8.98611 20.9835 6.55563 26.587 8.30792 32.7029C8.30792 32.7029 1.04372 32.1268 0.360308 39.9729C0.244377 41.2824 0.537684 42.597 1.33413 43.6427C2.42329 45.0727 4.6422 46.7607 9.03597 46.712C9.03597 46.712 3.57216 50.922 11.1227 56.6072C21.4695 64.4001 41.8704 39.3591 41.8704 39.3591L22.8444 33.7614Z" fill="url(#paint1_linear_113_1498)"/>
<path d="M29.5508 79.3059L30.7275 101.718L32.7418 100.457L36.3936 78.7575L29.5508 79.3059Z" fill="url(#paint2_linear_113_1498)"/>
<path d="M42.3973 79.7376L38.6313 101.862L36.7764 100.376L35.6641 78.3998L42.3973 79.7376Z" fill="url(#paint3_linear_113_1498)"/>
<path d="M11.882 78.5082C11.882 78.5082 11.1592 79.6165 11.1407 80.4483C11.1221 81.2801 10.3512 81.0981 10.1929 80.5984C10.0347 80.0988 9.90311 79.3887 10.3471 78.6189L10.1825 78.5326C10.1825 78.5326 9.29853 79.3296 8.83481 80.3648C8.37109 81.4001 7.83549 81.2569 7.83549 81.2569C7.83549 81.2569 7.4877 81.1764 7.50856 80.6952C7.53929 80.0466 8.47253 78.641 8.47253 78.641C8.47253 78.641 7.00369 79.402 6.45244 80.2199C5.90119 81.0378 5.31516 80.4112 5.69889 79.7562C6.08262 79.1012 7.59377 77.6909 7.59377 77.6909C7.59377 77.6909 6.32259 78.5418 5.69599 79.2415C5.62446 79.3229 5.52621 79.3762 5.41891 79.3916C5.24908 79.4154 4.95519 79.4154 5.00446 78.9621C5.08677 78.1917 7.02398 76.6974 7.02398 76.6974C7.02398 76.6974 6.7869 76.3652 5.45891 77.055C5.45891 77.055 4.75231 77.4463 4.88853 76.7072C4.88853 76.7072 5.20908 75.8499 6.70401 75.4419C6.70401 75.4419 9.27187 72.6213 11.2699 74.9584C13.268 77.2956 11.882 78.5082 11.882 78.5082Z" fill="url(#paint4_linear_113_1498)"/>
<path d="M9.69173 73.2115L9.5416 74.2508C9.52645 74.3561 9.53811 74.4635 9.5755 74.5631C9.61288 74.6627 9.6748 74.7513 9.7555 74.8206L11.6863 76.4772C11.7843 76.5612 11.9056 76.6133 12.034 76.6263C12.1623 76.6394 12.2916 76.6128 12.4045 76.5503L13.3975 75.9985L12.5425 73.2892L9.69173 73.2115Z" fill="url(#paint5_linear_113_1498)"/>
<path d="M29.7118 48.7136C29.7118 48.7136 11.9391 52.0808 9.46285 73.1292C9.45653 73.1907 9.46593 73.2529 9.49016 73.3099C9.51439 73.3668 9.55265 73.4168 9.60138 73.4549L13.099 76.2118C13.1457 76.2484 13.2007 76.2729 13.2592 76.283C13.3177 76.2931 13.3778 76.2886 13.434 76.2697C14.9991 75.7585 26.0444 71.6122 30.9975 54.9623C30.9906 54.964 35.4417 49.3901 29.7118 48.7136Z" fill="url(#paint6_linear_113_1498)"/>
<path d="M58.6117 78.4432C58.6117 78.4432 58.9473 79.6964 58.7114 80.4772C58.4754 81.258 59.2493 81.3235 59.549 80.9061C59.8486 80.4888 60.1866 79.8668 60.0081 79.0141L60.1877 78.9834C60.1877 78.9834 60.7674 79.9961 60.8833 81.102C60.9992 82.208 61.3007 82.2266 61.3007 82.2266C61.3007 82.2266 61.5221 82.3935 61.7939 81.8208C62.0658 81.2481 61.7464 79.6077 61.7464 79.6077C61.7464 79.6077 62.5359 80.9276 62.8002 81.8579C63.0646 82.7882 63.8332 82.346 63.6749 81.6185C63.5167 80.891 62.8541 78.9898 62.8541 78.9898C62.8541 78.9898 63.6998 80.0442 64.0714 80.887C64.1132 80.9848 64.1884 81.0645 64.2836 81.1119C64.4354 81.1855 64.5734 81.1612 64.6893 80.938C65.0516 80.2621 63.6865 78.2374 63.6865 78.2374C63.6865 78.2374 63.5173 77.9592 64.5438 79.0066C64.5438 79.0066 65.0267 79.7995 65.3171 79.3439C65.3535 79.2848 65.3779 79.2189 65.3887 79.1503C65.3996 79.0816 65.3967 79.0115 65.3803 78.944C65.3066 78.6281 65.0748 77.9325 64.367 77.1639C64.367 77.1639 62.8333 73.7526 60.259 75.3217C57.6848 76.8909 58.6117 78.4432 58.6117 78.4432Z" fill="url(#paint7_linear_113_1498)"/>
<path d="M57.7109 75.8892L58.6453 76.3668C58.7401 76.4153 58.8456 76.439 58.952 76.4359C59.0584 76.4327 59.1622 76.4028 59.254 76.3489L61.4456 75.0568C61.5569 74.9913 61.6453 74.8933 61.6991 74.776C61.7529 74.6587 61.7694 74.5277 61.7465 74.4007L61.5453 73.2831L58.705 73.2164L57.7109 75.8892Z" fill="url(#paint8_linear_113_1498)"/>
<path d="M42.127 50.4257C40.8715 55.6177 43.873 70.6927 57.5985 75.807C57.6552 75.8277 57.7157 75.8358 57.7758 75.8306C57.8359 75.8254 57.8941 75.807 57.9463 75.7768L61.7494 73.5655C61.7991 73.5367 61.842 73.4978 61.8755 73.4512C61.9089 73.4047 61.9322 73.3515 61.9436 73.2953C62.2978 71.5802 62.3552 59.6521 49.0939 50.4518C47.865 49.5992 46.0026 48.5575 44.6723 48.5251C43.455 48.4949 42.5403 48.7175 42.127 50.4257Z" fill="#F37065"/>
<path d="M29.7837 48.7779L28.9143 49.0097C28.4546 49.1326 28.0483 49.4037 27.7584 49.781C27.4686 50.1583 27.3113 50.6207 27.3109 51.0965L27.293 65.0661L43.143 64.0929L43.4682 48.5721L29.7837 48.7779Z" fill="url(#paint9_linear_113_1498)"/>
<path d="M29.5664 44.7272L29.7403 48.5952C29.7403 48.5952 31.2822 52.4366 34.7253 52.5415C39.2565 52.6794 40.8209 48.6427 40.8209 48.6427L40.8638 44.5121L29.5664 44.7272Z" fill="url(#paint10_linear_113_1498)"/>
<path d="M27.3675 49.1454L29.4473 48.6747C29.6832 48.6411 29.7047 48.6399 29.8339 48.917L30.0403 56.8142C30.0398 56.8987 30.0565 56.9824 30.0895 57.0603C30.1224 57.1381 30.1709 57.2084 30.2319 57.2669C30.293 57.3254 30.3653 57.3708 30.4444 57.4004C30.5236 57.43 30.608 57.4431 30.6924 57.439L40.092 57.0037C40.249 56.9962 40.3973 56.9295 40.5072 56.8172C40.6171 56.7048 40.6804 56.5551 40.6845 56.398L40.8085 48.7303C40.8098 48.6765 40.8311 48.625 40.8683 48.586C40.9055 48.547 40.9559 48.5232 41.0096 48.5193L43.2865 48.5431C43.3163 48.541 43.3461 48.5451 43.3742 48.5551C43.4023 48.5651 43.4281 48.5808 43.4499 48.6012C43.4716 48.6216 43.4889 48.6463 43.5007 48.6737C43.5125 48.7011 43.5185 48.7307 43.5184 48.7605L43.2332 57.0912C43.2332 57.0912 43.421 60.837 44.4418 64.8337C44.6099 65.4921 44.7548 66.1564 44.8858 66.8236C45.2996 68.9295 46.525 73.8374 49.272 76.0673C50.6632 77.1959 51.8804 78.2259 52.6618 78.6758C52.7378 78.7197 52.7999 78.7841 52.8409 78.8617C52.882 78.9393 52.9004 79.0269 52.894 79.1144C52.8876 79.2019 52.8566 79.2859 52.8047 79.3567C52.7528 79.4274 52.682 79.4821 52.6004 79.5145L43.0274 82.6359C42.9461 82.6683 42.8569 82.6752 42.7716 82.6557C42.6863 82.6363 42.609 82.5914 42.5498 82.527L41.864 81.7798L41.5899 82.4273C41.54 82.5432 41.5035 82.669 41.4647 82.7919C41.4393 82.8711 41.3917 82.9414 41.3274 82.9942C41.2632 83.0471 41.185 83.0803 41.1024 83.0898L30.6547 83.0458C30.5586 83.0567 30.4615 83.035 30.3792 82.9841C30.2969 82.9332 30.2341 82.8561 30.2009 82.7652L29.8293 81.7479L29.3418 82.5733C29.2955 82.6515 29.2259 82.7131 29.1426 82.7494C29.0594 82.7857 28.9668 82.7949 28.8781 82.7756L21.2875 81.1439C21.2142 81.1282 21.1457 81.095 21.0879 81.0472C21.03 80.9995 20.9845 80.9385 20.9552 80.8694C20.9259 80.8004 20.9136 80.7253 20.9194 80.6505C20.9252 80.5757 20.9488 80.5034 20.9884 80.4396C21.7136 79.2757 23.4166 76.5409 24.7208 74.4547C26.945 70.8968 27.1687 66.1112 27.1687 66.1112L27.3026 58.6001L27.0296 49.5245C27.0315 49.4314 27.0666 49.342 27.1286 49.2725C27.1905 49.203 27.2753 49.1579 27.3675 49.1454Z" fill="url(#paint11_linear_113_1498)"/>
<path d="M27.4531 65.618C28.1298 65.8588 28.8203 66.0591 29.5207 66.218C30.2163 66.3837 30.9241 66.5136 31.633 66.6162C33.0509 66.8212 34.4843 66.8984 35.916 66.8469C36.6313 66.8208 37.3443 66.7536 38.0538 66.6614C38.4074 66.6069 38.7621 66.5599 39.1128 66.4875C39.4653 66.4261 39.8136 66.3426 40.1626 66.2643C40.8593 66.0958 41.5467 65.8911 42.2221 65.6511L42.476 65.5629L42.6029 65.5183C42.6452 65.5027 42.6864 65.4859 42.7281 65.469L43.2284 65.2702C43.3965 65.207 43.5593 65.1305 43.7228 65.0575L44.2167 64.8395C42.9437 65.5188 41.5963 66.0482 40.2014 66.4174L39.6763 66.5478L39.5447 66.5802L39.4119 66.6075L39.1465 66.6614C38.794 66.7391 38.4364 66.7912 38.0805 66.8509C37.3652 66.9495 36.6453 67.019 35.9236 67.0486C35.2019 67.0782 34.4791 67.0642 33.7586 67.0196C33.0382 66.9743 32.3207 66.8922 31.6086 66.7738C30.8969 66.6581 30.1917 66.5055 29.4958 66.3165C29.148 66.222 28.8037 66.1154 28.4623 66.0029C28.1209 65.8904 27.7824 65.7623 27.4531 65.618Z" fill="#3884C5"/>
<path d="M40.5637 73.3742C40.5077 73.7277 40.4738 74.0843 40.4623 74.4419L40.4524 74.7091V74.9769C40.4524 75.0662 40.4524 75.1549 40.4524 75.2442L40.4617 75.5114C40.4652 75.6893 40.482 75.8667 40.493 76.0447C40.5 76.1334 40.504 76.2226 40.5133 76.3107L40.5434 76.5762C40.5637 76.753 40.5782 76.931 40.6089 77.106C40.6397 77.2811 40.6611 77.4584 40.6912 77.6341C40.7602 77.9819 40.8194 78.3349 40.9098 78.6774L40.9677 78.9383C40.9886 79.0247 41.006 79.1122 41.0327 79.1974C41.0825 79.3713 41.1306 79.5405 41.1776 79.7127C41.2025 79.7985 41.2239 79.8866 41.2506 79.9701L41.3347 80.2245L41.4993 80.7352C41.5242 80.821 41.5572 80.9039 41.588 80.9879L41.6807 81.2401C41.7422 81.4088 41.8024 81.5775 41.8616 81.7473C41.7843 81.5861 41.707 81.4242 41.6297 81.2615L41.5138 81.0169C41.4767 80.9352 41.4367 80.8546 41.4048 80.7706L41.2077 80.268L41.1109 80.0159C41.0802 79.9312 41.053 79.842 41.0257 79.7597C40.9693 79.5885 40.9142 79.4169 40.8605 79.2449C40.8315 79.1597 40.8112 79.071 40.7881 78.9847L40.7191 78.7232C40.6223 78.3754 40.5608 78.0195 40.4872 77.6665C40.4582 77.4886 40.435 77.3095 40.409 77.1309C40.3829 76.9524 40.3643 76.7727 40.351 76.593L40.3272 76.3235C40.3203 76.2331 40.3185 76.1432 40.3139 76.0528C40.3064 75.8725 40.2971 75.6922 40.3023 75.512C40.3075 75.3317 40.3023 75.1508 40.3168 74.9712L40.333 74.701L40.3597 74.4321C40.3974 74.0743 40.4657 73.7204 40.5637 73.3742Z" fill="#3884C5"/>
<path d="M31.4795 73.2281C31.3868 73.569 31.3004 73.911 31.2204 74.2541C31.1375 74.5967 31.0622 74.9416 30.9885 75.2853C30.9149 75.6291 30.8401 75.974 30.7735 76.32L30.7207 76.5785L30.6709 76.8382C30.6384 77.0121 30.6025 77.186 30.5729 77.3599L30.4761 77.8816C30.4431 78.0555 30.4182 78.2294 30.3857 78.4033C30.3202 78.7511 30.2698 79.0989 30.2072 79.4467L30.0333 80.49C29.9753 80.8378 29.9249 81.1856 29.8594 81.5334C29.8779 81.1804 29.9034 80.8274 29.933 80.4755C29.9626 80.1237 30.0002 79.7713 30.0489 79.4206C30.1341 78.7186 30.2443 78.0196 30.3724 77.324C30.4031 77.1501 30.4413 76.9762 30.4755 76.8023C30.5097 76.6284 30.5445 76.4545 30.5851 76.2806C30.6622 75.9328 30.7433 75.5914 30.8338 75.2494C30.9242 74.9074 31.0198 74.5666 31.1236 74.2286C31.2274 73.8907 31.3444 73.5551 31.4795 73.2281Z" fill="#3884C5"/>
<path d="M15.8297 33.0745C15.8297 33.0745 15.9828 28.8633 13.7389 29.0366C11.5797 29.203 8.88841 34.188 13.7969 36.3826C14.3667 36.6376 15.0414 36.6011 15.5463 36.2342C16.1312 35.8087 16.5804 34.9218 15.8297 33.0745Z" fill="url(#paint12_linear_113_1498)"/>
<path d="M12.707 31.7199C12.8546 31.6139 13.0326 31.5588 13.2142 31.5628C13.4086 31.5644 13.5987 31.6196 13.7637 31.7222C13.937 31.8299 14.0795 31.9804 14.1776 32.1593C14.2021 32.2049 14.2241 32.2517 14.2437 32.2996C14.2622 32.3471 14.2761 32.3981 14.2912 32.4462C14.3115 32.5222 14.3301 32.5993 14.3492 32.6781C14.4203 32.9873 14.467 33.3017 14.4889 33.6183C14.5155 33.9465 14.4994 34.2768 14.4408 34.6008C14.2492 34.3333 14.0934 34.042 13.9771 33.7342C13.8605 33.439 13.7672 33.1351 13.6982 32.8253C13.6814 32.7482 13.6652 32.6711 13.6501 32.5935L13.6327 32.5123C13.6235 32.4868 13.6182 32.459 13.6084 32.4335C13.5694 32.3245 13.5122 32.2229 13.4391 32.1332C13.2809 31.9413 13.0455 31.7895 12.707 31.7199Z" fill="#EC977E"/>
<path d="M13.3125 33.111C13.3308 33.0023 13.3756 32.8998 13.4429 32.8125C13.4846 32.7551 13.5457 32.7148 13.6149 32.6989C13.684 32.683 13.7565 32.6927 13.8191 32.7262C13.9173 32.7767 14.0019 32.8503 14.0655 32.9406C14.0468 33.0494 14.002 33.152 13.935 33.2397C13.8919 33.2963 13.8304 33.3361 13.7612 33.3522C13.6919 33.3661 13.6201 33.3563 13.5571 33.3244C13.4597 33.2739 13.3758 33.2007 13.3125 33.111Z" fill="#EC977E"/>
<path d="M53.848 33.0745C53.848 33.0745 53.6944 28.8633 55.9382 29.0366C58.0974 29.203 60.7887 34.188 55.8802 36.3826C55.3104 36.6376 54.6357 36.6011 54.1308 36.2342C53.546 35.8087 53.0967 34.9218 53.848 33.0745Z" fill="#FEE3CC"/>
<path d="M56.9664 31.72C56.6279 31.7907 56.3925 31.9425 56.2378 32.1315C56.1647 32.2212 56.1075 32.3228 56.0685 32.4318C56.0587 32.4573 56.0535 32.4851 56.0442 32.5106L56.0268 32.5918C56.0123 32.6694 55.9961 32.7465 55.9787 32.8236C55.9097 33.1334 55.8165 33.4373 55.6999 33.7325C55.5836 34.0403 55.4277 34.3316 55.2362 34.5991C55.1774 34.2751 55.1615 33.9448 55.1886 33.6166C55.21 33.3 55.2565 32.9856 55.3277 32.6764C55.3451 32.5993 55.3637 32.5222 55.3857 32.4445C55.4008 32.3964 55.4147 32.3454 55.4332 32.2979C55.4528 32.25 55.4748 32.2032 55.4993 32.1576C55.5967 31.979 55.7382 31.8283 55.9103 31.72C56.0755 31.6172 56.2658 31.5621 56.4604 31.5606C56.6419 31.5574 56.8195 31.6133 56.9664 31.72Z" fill="#EC977E"/>
<path d="M56.3629 33.111C56.2995 33.201 56.2151 33.2742 56.1172 33.3244C56.0542 33.3563 55.9823 33.3661 55.9131 33.3522C55.8439 33.3359 55.7824 33.2962 55.7392 33.2397C55.6722 33.1521 55.6276 33.0494 55.6094 32.9406C55.6728 32.8504 55.7571 32.7768 55.8551 32.7262C55.9177 32.6927 55.9903 32.683 56.0594 32.6989C56.1286 32.7148 56.1896 32.7551 56.2313 32.8125C56.2991 32.8997 56.3443 33.0022 56.3629 33.111Z" fill="#EC977E"/>
<path d="M37.7346 48.2516L34.4115 48.3896C23.8154 48.8313 15.68 40.599 15.2389 30.003L15.1305 27.4021C14.7247 17.5938 21.5299 9.31173 31.3382 8.90308L37.0361 8.666C46.8444 8.26024 55.1271 15.8775 55.5352 25.6858L55.5844 26.8717C55.6378 28.1711 55.4754 29.4703 55.1039 30.7166C51.6086 42.4742 47.5394 47.843 37.7346 48.2516Z" fill="url(#paint13_linear_113_1498)"/>
<path d="M14.2519 18.7276C14.2397 18.7885 14.2287 18.8505 14.2171 18.9166C13.3975 23.7491 15.2958 29.9114 15.2958 29.9114L15.3944 29.6761C16.807 26.3141 18.6984 24.276 22.0302 22.7782C29.4898 19.4267 30.9882 12.7862 30.9882 12.7862L31.0166 2.30316C17.4602 4.00908 14.5794 12.7195 14.2519 18.7276Z" fill="#F7B4B7"/>
<path d="M30.8912 10.733C30.6413 13.1605 32.7321 16.1678 36.6523 18.1461C36.6523 18.1461 39.4706 19.3582 43.5502 19.186C47.6298 19.0139 50.1704 21.1626 51.1071 25.3692C52.0439 29.5757 55.0778 31.488 55.0778 31.488C55.0778 31.488 61.8504 10.8593 45.4787 2.04744C41.6026 -0.0393079 37.967 0.377461 35.5203 1.82022C32.0366 3.8745 31.1526 8.1906 30.8912 10.733Z" fill="#F7B4B7"/>
<path d="M14.1075 18.1241C14.0959 18.182 14.0843 18.247 14.0733 18.3125C13.2536 23.145 15.2401 30.0029 15.2401 30.0029L15.3387 29.7676C16.7513 26.4027 18.5575 23.6719 21.8887 22.1741C29.3483 18.8208 32.0257 11.1028 32.0257 11.1028L41.2184 0.484683C16.2893 -0.76041 14.435 12.1154 14.1075 18.1241Z" fill="url(#paint14_linear_113_1498)"/>
<path d="M30.7176 10.2982C30.5356 12.7327 32.7133 15.7956 36.688 17.6638C36.688 17.6638 39.5387 18.7971 43.6108 18.5107C47.6828 18.2244 50.2838 20.3018 51.337 24.4811C52.3902 28.6604 55.0798 31.488 55.0798 31.488C55.0798 31.488 62.4993 8.84501 45.0576 1.20693C41.0255 -0.559273 37.5024 -0.252637 35.0969 1.25794C31.6711 3.41077 30.9083 7.74946 30.7176 10.2982Z" fill="url(#paint15_linear_113_1498)"/>
<path d="M35.0802 31.5095C35.1005 31.7239 35.108 31.9361 35.1092 32.1471C35.1103 32.3581 35.1051 32.5685 35.0953 32.7783C35.0912 32.8827 35.0837 32.987 35.0779 33.0919L35.0535 33.4043L35.0234 33.7156L34.9875 34.0263L34.9753 34.1295L34.8796 34.217C34.6246 34.4489 34.3672 34.6807 34.1012 34.8975C34.0351 34.9526 33.969 35.0082 33.9012 35.0616L33.7238 35.2047C33.7038 35.2204 33.6888 35.2414 33.6806 35.2654C33.6724 35.2894 33.6713 35.3152 33.6774 35.3398C33.6807 35.3538 33.6859 35.3673 33.6931 35.3798C33.6966 35.3862 33.7018 35.392 33.7058 35.3989L33.7099 35.4036C33.7117 35.4064 33.7141 35.4087 33.7169 35.4105L33.7412 35.432C33.8061 35.4899 33.8716 35.5479 33.9354 35.6059C34.0637 35.7218 34.1902 35.8404 34.3151 35.9618C34.5684 36.2043 34.8074 36.4613 35.0309 36.7315C34.707 36.596 34.3915 36.4411 34.0861 36.2678C33.9334 36.1836 33.7831 36.0968 33.6351 36.0076C33.5609 35.9641 33.4879 35.9171 33.4143 35.8725L33.3865 35.8551L33.3679 35.8429L33.3465 35.8273C33.3181 35.8059 33.2915 35.7823 33.267 35.7566C33.191 35.6777 33.1341 35.5824 33.1007 35.4781C33.0672 35.3738 33.0581 35.2633 33.074 35.1549C33.0951 35.006 33.161 34.8671 33.263 34.7567C33.3256 34.6935 33.3453 34.6802 33.3789 34.6477L33.4746 34.5608C33.5383 34.5028 33.6038 34.4448 33.6687 34.3903C33.9273 34.1625 34.1945 33.9446 34.464 33.7301L34.3562 33.9208L34.4223 33.6153L34.4942 33.3104L34.5718 33.0067C34.5997 32.9058 34.6263 32.805 34.6559 32.7041C34.7139 32.5028 34.7772 32.3024 34.846 32.103C34.9162 31.9042 34.9921 31.706 35.0802 31.5095Z" fill="#EC977E"/>
<path d="M29.9922 37.6544C29.9922 37.6544 36.1035 38.8566 39.4985 37.2394C39.4985 37.2394 39.8022 40.6808 36.9434 42.2186C36.3394 42.538 35.6673 42.7071 34.9841 42.7116C34.3009 42.716 33.6266 42.5556 33.0185 42.2441C31.7439 41.5966 30.2525 40.2837 29.9922 37.6544Z" fill="url(#paint16_linear_113_1498)"/>
<mask id="mask0_113_1498" style="mask-type:luminance" maskUnits="userSpaceOnUse" x="29" y="37" width="11" height="6">
<path d="M29.9922 37.6546C29.9922 37.6546 36.1035 38.8568 39.4985 37.2396C39.4985 37.2396 39.8022 40.681 36.9434 42.2188C36.3394 42.5382 35.6673 42.7073 34.9841 42.7117C34.3009 42.7162 33.6266 42.5558 33.0185 42.2443C31.7439 41.5968 30.2525 40.2839 29.9922 37.6546Z" fill="white"/>
</mask>
<g mask="url(#mask0_113_1498)">
<path d="M32.7617 42.1069C32.7617 42.1069 33.8474 37.7943 39.113 39.7054C44.3785 41.6165 36.5851 46.9997 32.7617 42.1069Z" fill="url(#paint17_linear_113_1498)"/>
</g>
<path d="M29.0579 35.3167C30.7263 35.2474 31.99 33.0559 31.8806 30.4218C31.7711 27.7878 30.3299 25.7087 28.6615 25.7781C26.9931 25.8474 25.7294 28.0389 25.8389 30.6729C25.9483 33.307 27.3896 35.3861 29.0579 35.3167Z" fill="white"/>
<path d="M30.04 34.0256C30.9553 34.0256 31.6973 32.8544 31.6973 31.4097C31.6973 29.9649 30.9553 28.7937 30.04 28.7937C29.1248 28.7937 28.3828 29.9649 28.3828 31.4097C28.3828 32.8544 29.1248 34.0256 30.04 34.0256Z" fill="#1D1230"/>
<path d="M26.0199 31.7529C25.9104 29.119 27.174 26.9273 28.8423 26.8577C30.1871 26.7998 31.3829 28.1428 31.8565 30.0458C31.6339 27.591 30.2537 25.7065 28.6643 25.7726C26.9961 25.8416 25.733 28.0333 25.8426 30.6678C25.8618 31.1594 25.9306 31.6478 26.0478 32.1256C26.0362 32.0004 26.0251 31.8781 26.0199 31.7529Z" fill="#1D1230"/>
<path d="M25.0956 26.4856C25.0956 26.4856 25.6718 27.893 26.3621 27.6658L26.0967 28.8407C25.7348 28.5732 25.4512 28.2137 25.2752 27.7996C25.0991 27.3855 25.0371 26.9318 25.0956 26.4856Z" fill="#1D1230"/>
<path d="M41.103 35.0516C42.679 34.9861 43.8727 32.9157 43.7692 30.4272C43.6658 27.9387 42.3044 25.9745 40.7285 26.04C39.1525 26.1055 37.9588 28.1759 38.0623 30.6644C38.1657 33.1529 39.5271 35.1171 41.103 35.0516Z" fill="white"/>
<path d="M39.9375 33.6428C40.8015 33.6069 41.4559 32.4721 41.3992 31.1083C41.3425 29.7444 40.5962 28.6679 39.7323 28.7038C38.8683 28.7397 38.2139 29.8744 38.2706 31.2383C38.3273 32.6022 39.0736 33.6787 39.9375 33.6428Z" fill="#1D1230"/>
<path d="M43.6845 31.3674C43.7494 28.8459 42.5078 26.769 40.9109 26.7301C39.6241 26.6971 38.5001 27.9979 38.0781 29.8232C38.252 27.4715 39.5458 25.6497 41.0668 25.6868C42.6638 25.7279 43.9071 27.8054 43.8404 30.324C43.8294 30.7945 43.7711 31.2627 43.6665 31.7215C43.67 31.6039 43.6787 31.4879 43.6845 31.3674Z" fill="#1D1230"/>
<path d="M44.4859 26.3145C44.4859 26.3145 43.9561 27.6697 43.293 27.4628L43.5642 28.5827C43.9063 28.3213 44.1722 27.9731 44.3343 27.5742C44.4963 27.1754 44.5487 26.7404 44.4859 26.3145Z" fill="#1D1230"/>
<path d="M47.0646 25.7454C46.5401 25.3014 45.9929 24.8848 45.4254 24.4974C45.1399 24.3063 44.8427 24.1332 44.5356 23.9792C41.8478 22.6344 40.4491 22.4883 40.1065 22.3869C39.8746 22.3185 39.5848 22.3382 39.328 22.2651C39.0173 22.1753 38.9912 21.1992 39.208 20.9737C39.6631 20.5007 40.6305 21.2577 41.3493 21.3168C41.7667 21.3547 42.174 21.4668 42.552 21.6478C42.9236 21.831 43.2714 22.042 43.614 22.2466C43.9506 22.4532 44.2763 22.6772 44.5895 22.9178C44.8956 23.1613 45.1868 23.4165 45.4631 23.6835C46.0091 24.2238 46.8032 24.7994 47.2148 25.4312L47.0646 25.7454Z" fill="#FBC3AA"/>
<path d="M47.2323 25.6087C46.7466 25.1484 46.4295 24.8905 45.8046 24.414C45.5091 24.1888 45.1993 23.9829 44.8772 23.7978C42.0659 22.1823 40.5709 21.9638 40.2081 21.8369C39.9623 21.7511 39.6475 21.7621 39.378 21.6693C39.0493 21.5569 38.9612 21.2184 39.2076 20.9737C39.7246 20.4608 40.8382 20.59 41.6079 20.6839C42.0553 20.743 42.4878 20.8849 42.8832 21.1024C43.2721 21.3227 43.6332 21.5731 43.9897 21.8166C44.3402 22.0618 44.6771 22.326 44.9989 22.6078C45.3138 22.893 45.612 23.1909 45.8933 23.5016C46.4492 24.13 46.9529 24.7902 47.3587 25.5159L47.2323 25.6087Z" fill="url(#paint18_linear_113_1498)"/>
<path d="M23.0618 25.3831C23.616 24.9766 24.1906 24.5987 24.7834 24.2511C25.0813 24.0798 25.3897 23.9276 25.7068 23.7954C28.4804 22.6361 29.8855 22.5886 30.2345 22.5109C30.471 22.4588 30.7608 22.4988 31.0199 22.4431C31.3352 22.3747 31.4286 21.4032 31.228 21.1632C30.8066 20.6601 29.7893 21.3487 29.0682 21.358C28.6491 21.3675 28.235 21.4513 27.8451 21.6055C27.462 21.7626 27.1009 21.9498 26.7438 22.1301C26.3937 22.313 26.0536 22.5142 25.7248 22.7329C25.4025 22.9544 25.0933 23.1889 24.7973 23.4366C24.2177 23.938 23.3836 24.4574 22.9297 25.0597L23.0618 25.3831Z" fill="#FBC3AA"/>
<path d="M22.9057 25.2353C23.4222 24.8093 23.7561 24.5745 24.4128 24.1415C24.7228 23.9373 25.0456 23.7532 25.3791 23.5903C28.2948 22.1724 29.8013 22.0571 30.1722 21.9551C30.4232 21.8867 30.7368 21.9191 31.0116 21.8455C31.3472 21.7557 31.4585 21.4241 31.2295 21.1633C30.749 20.6155 29.6291 20.6677 28.853 20.7088C28.4031 20.7373 27.9624 20.8491 27.5534 21.0386C27.1476 21.2317 26.7726 21.4571 26.3999 21.6762C26.0335 21.897 25.6794 22.1375 25.3391 22.3968C25.0052 22.6591 24.6872 22.9358 24.385 23.2268C23.788 23.8152 23.2396 24.4395 22.7852 25.135L22.9057 25.2353Z" fill="url(#paint19_linear_113_1498)"/>
<defs>
<linearGradient id="paint0_linear_113_1498" x1="40.0917" y1="45.5866" x2="67.4633" y2="34.9912" gradientUnits="userSpaceOnUse">
<stop stop-color="#553730"/>
<stop offset="0.25" stop-color="#593A2E"/>
<stop offset="0.35" stop-color="#5D3C2C"/>
<stop offset="0.55" stop-color="#68432A"/>
<stop offset="0.65" stop-color="#6F4729"/>
<stop offset="0.97" stop-color="#7A4E2F"/>
</linearGradient>
<linearGradient id="paint1_linear_113_1498" x1="30.1755" y1="51.923" x2="6.54228" y2="27.2622" gradientUnits="userSpaceOnUse">
<stop stop-color="#513134"/>
<stop offset="0.99" stop-color="#553730"/>
</linearGradient>
<linearGradient id="paint2_linear_113_1498" x1="29.1329" y1="89.4601" x2="34.0679" y2="90.7128" gradientUnits="userSpaceOnUse">
<stop stop-color="#FBC3AA"/>
<stop offset="0.26" stop-color="#FCCFC6"/>
<stop offset="0.34" stop-color="#FCD4D1"/>
<stop offset="0.7" stop-color="#FDDED0"/>
<stop offset="1" stop-color="#FEE3CC"/>
</linearGradient>
<linearGradient id="paint3_linear_113_1498" x1="40.9006" y1="89.6479" x2="35.8368" y2="90.2995" gradientUnits="userSpaceOnUse">
<stop stop-color="#FEE3CC"/>
<stop offset="0.3" stop-color="#FDDED0"/>
<stop offset="0.66" stop-color="#FCD4D1"/>
<stop offset="0.74" stop-color="#FCCFC6"/>
<stop offset="1" stop-color="#FBC3AA"/>
</linearGradient>
<linearGradient id="paint4_linear_113_1498" x1="11.1886" y1="80.7365" x2="6.27868" y2="75.2873" gradientUnits="userSpaceOnUse">
<stop stop-color="#FBC3AA"/>
<stop offset="0.26" stop-color="#FCCFC6"/>
<stop offset="0.34" stop-color="#FCD4D1"/>
<stop offset="0.7" stop-color="#FDDED0"/>
<stop offset="1" stop-color="#FEE3CC"/>
</linearGradient>
<linearGradient id="paint5_linear_113_1498" x1="10.942" y1="75.2326" x2="14.1156" y2="74.3401" gradientUnits="userSpaceOnUse">
<stop stop-color="#F15652"/>
<stop offset="0.48" stop-color="#F2665C"/>
<stop offset="0.94" stop-color="#F37065"/>
</linearGradient>
<linearGradient id="paint6_linear_113_1498" x1="17.7839" y1="77.245" x2="24.1364" y2="47.4823" gradientUnits="userSpaceOnUse">
<stop stop-color="#F05355"/>
<stop offset="0.41" stop-color="#F15652"/>
<stop offset="0.71" stop-color="#F2665C"/>
<stop offset="0.94" stop-color="#F37065"/>
</linearGradient>
<linearGradient id="paint7_linear_113_1498" x1="60.2949" y1="75.547" x2="63.0778" y2="82.2033" gradientUnits="userSpaceOnUse">
<stop stop-color="#FBC3AA"/>
<stop offset="0.26" stop-color="#FCCFC6"/>
<stop offset="0.34" stop-color="#FCD4D1"/>
<stop offset="0.7" stop-color="#FDDED0"/>
<stop offset="1" stop-color="#FEE3CC"/>
</linearGradient>
<linearGradient id="paint8_linear_113_1498" x1="59.6604" y1="76.4774" x2="59.8587" y2="73.1776" gradientUnits="userSpaceOnUse">
<stop stop-color="#F05355"/>
<stop offset="0.41" stop-color="#F15652"/>
<stop offset="1" stop-color="#F2665C"/>
</linearGradient>
<linearGradient id="paint9_linear_113_1498" x1="30.0518" y1="38.5459" x2="35.0468" y2="55.6714" gradientUnits="userSpaceOnUse">
<stop stop-color="#F05355"/>
<stop offset="0.33" stop-color="#F15652"/>
<stop offset="0.63" stop-color="#F2665C"/>
<stop offset="0.94" stop-color="#F37065"/>
</linearGradient>
<linearGradient id="paint10_linear_113_1498" x1="35.2345" y1="45.6893" x2="36.4546" y2="60.4009" gradientUnits="userSpaceOnUse">
<stop stop-color="#FBC3AA"/>
<stop offset="0.54" stop-color="#FCD7C6"/>
<stop offset="0.7" stop-color="#FDDED0"/>
<stop offset="1" stop-color="#FEE3CC"/>
</linearGradient>
<linearGradient id="paint11_linear_113_1498" x1="30.1013" y1="62.6171" x2="52.6054" y2="85.5056" gradientUnits="userSpaceOnUse">
<stop stop-color="#6FA1CC"/>
<stop offset="0.32" stop-color="#7DB7D1"/>
<stop offset="0.53" stop-color="#89C5D2"/>
<stop offset="0.75" stop-color="#97D1CB"/>
<stop offset="1" stop-color="#A5D9CC"/>
</linearGradient>
<linearGradient id="paint12_linear_113_1498" x1="11.0314" y1="32.7887" x2="16.2239" y2="32.7887" gradientUnits="userSpaceOnUse">
<stop stop-color="#FBC3AA"/>
<stop offset="0.32" stop-color="#FCCFC6"/>
<stop offset="0.43" stop-color="#FCD4D1"/>
<stop offset="1" stop-color="#FDDED0"/>
</linearGradient>
<linearGradient id="paint13_linear_113_1498" x1="15.2233" y1="23.9102" x2="54.6579" y2="32.8189" gradientUnits="userSpaceOnUse">
<stop stop-color="#FBC3AA"/>
<stop offset="0.26" stop-color="#FCCFC6"/>
<stop offset="0.34" stop-color="#FCD4D1"/>
<stop offset="0.7" stop-color="#FDDED0"/>
<stop offset="1" stop-color="#FEE3CC"/>
</linearGradient>
<linearGradient id="paint14_linear_113_1498" x1="13.875" y1="15.2026" x2="41.2155" y2="15.2026" gradientUnits="userSpaceOnUse">
<stop stop-color="#513134"/>
<stop offset="0.99" stop-color="#553730"/>
</linearGradient>
<linearGradient id="paint15_linear_113_1498" x1="48.5423" y1="33.711" x2="40.2352" y2="0.136678" gradientUnits="userSpaceOnUse">
<stop offset="0.17" stop-color="#6F4729"/>
<stop offset="0.33" stop-color="#68432A"/>
<stop offset="0.65" stop-color="#5D3C2C"/>
<stop offset="0.75" stop-color="#593A2E"/>
<stop offset="1" stop-color="#553730"/>
</linearGradient>
<linearGradient id="paint16_linear_113_1498" x1="29.8076" y1="38.9911" x2="39.1875" y2="40.2676" gradientUnits="userSpaceOnUse">
<stop stop-color="#A82823"/>
<stop offset="0.38" stop-color="#8C2B22"/>
<stop offset="0.39" stop-color="#8B2B22"/>
<stop offset="1" stop-color="#852D1E"/>
</linearGradient>
<linearGradient id="paint17_linear_113_1498" x1="32.889" y1="41.1469" x2="40.7911" y2="42.2224" gradientUnits="userSpaceOnUse">
<stop stop-color="#F1637F"/>
<stop offset="0.49" stop-color="#F37F95"/>
<stop offset="1" stop-color="#F6A2B0"/>
</linearGradient>
<linearGradient id="paint18_linear_113_1498" x1="38.9228" y1="21.8907" x2="47.7296" y2="23.8802" gradientUnits="userSpaceOnUse">
<stop stop-color="#513134"/>
<stop offset="0.99" stop-color="#553730"/>
</linearGradient>
<linearGradient id="paint19_linear_113_1498" x1="31.1899" y1="21.8671" x2="22.2516" y2="23.2214" gradientUnits="userSpaceOnUse">
<stop stop-color="#513134"/>
<stop offset="0.99" stop-color="#553730"/>
</linearGradient>
</defs>
</svg>
