<svg width="251" height="340" viewBox="0 0 251 340" fill="none" xmlns="http://www.w3.org/2000/svg">
<path opacity="0.1" d="M125.348 339.062C157.83 339.062 184.162 335.368 184.162 330.81C184.162 326.253 157.83 322.559 125.348 322.559C92.8653 322.559 66.5332 326.253 66.5332 330.81C66.5332 335.368 92.8653 339.062 125.348 339.062Z" fill="black"/>
<path d="M57.1407 188.923C53.6668 189.556 48.6557 196.191 46.6697 200.578C46.5715 200.799 46.5483 201.047 46.6036 201.283C46.6589 201.518 46.7897 201.73 46.9762 201.885C47.1626 202.039 47.3946 202.129 47.6367 202.14C47.8788 202.151 48.1177 202.083 48.3174 201.946C50.6877 200.325 54.34 198.315 57.3866 198.742L57.1407 188.923Z" fill="#F597AA"/>
<path d="M48.7771 209.234C45.4261 210.344 41.3803 217.612 40.0245 222.229C39.9568 222.463 39.9674 222.712 40.0547 222.939C40.1419 223.166 40.301 223.358 40.5077 223.486C40.7144 223.614 40.9573 223.67 41.1993 223.647C41.4412 223.624 41.6689 223.522 41.8476 223.358C43.9689 221.424 47.3075 218.925 50.3818 218.928L48.7771 209.234Z" fill="#F597AA"/>
<path d="M72.3543 277.727C70.5743 280.777 72.3544 288.902 74.3803 293.264C74.4844 293.483 74.6571 293.663 74.8723 293.774C75.0875 293.886 75.3334 293.925 75.5725 293.884C75.8117 293.843 76.031 293.726 76.197 293.549C76.363 293.372 76.4668 293.146 76.4924 292.905C76.7999 290.052 77.6605 285.969 79.9693 283.937L72.3543 277.727Z" fill="#F597AA"/>
<path d="M61.7364 271.736C59.6213 274.564 60.4606 282.84 61.9916 287.415C62.0688 287.645 62.2196 287.844 62.4206 287.98C62.6216 288.117 62.8618 288.183 63.1044 288.17C63.347 288.157 63.5786 288.064 63.7635 287.907C63.9485 287.749 64.0766 287.535 64.1283 287.298C64.7647 284.5 66.0713 280.534 68.5983 278.782L61.7364 271.736Z" fill="#F597AA"/>
<path d="M46.5646 227.552C43.2106 230.282 42.5682 237.574 43.1338 241.829C43.2783 242.899 44.4249 243.259 44.8031 242.349C45.9252 239.649 48.1018 235.61 50.9147 236.166L46.5646 227.552Z" fill="#F597AA"/>
<path d="M53.4437 245.89C48.5832 247.577 46.7694 254.387 46.6649 258.802C46.6555 259.043 46.7249 259.281 46.8628 259.479C47.0006 259.677 47.1993 259.825 47.4287 259.9C47.6581 259.975 47.9057 259.973 48.1341 259.895C48.3624 259.817 48.5588 259.666 48.6938 259.466C50.3263 257.077 53.047 254.166 56.0721 255.346L53.4437 245.89Z" fill="#F597AA"/>
<path d="M196.132 191.266C199.606 191.902 204.62 198.536 206.606 202.923C206.705 203.145 206.729 203.394 206.673 203.63C206.618 203.867 206.487 204.079 206.3 204.234C206.113 204.389 205.88 204.479 205.637 204.489C205.394 204.5 205.154 204.43 204.955 204.292C202.587 202.671 198.932 200.658 195.889 201.088L196.132 191.266Z" fill="#FAC5C2"/>
<path d="M193.977 260.695C197.134 262.278 200.095 270.05 200.774 274.815C200.807 275.056 200.761 275.301 200.641 275.513C200.522 275.725 200.337 275.892 200.114 275.988C199.891 276.085 199.642 276.106 199.406 276.048C199.17 275.99 198.96 275.856 198.807 275.667C196.987 273.45 194.042 270.496 190.998 270.059L193.977 260.695Z" fill="#FAC5C2"/>
<path d="M203.107 210.428C206.458 211.537 210.503 218.805 211.859 223.423C211.927 223.656 211.916 223.905 211.829 224.132C211.742 224.359 211.583 224.551 211.376 224.679C211.169 224.807 210.927 224.864 210.685 224.84C210.443 224.817 210.215 224.716 210.036 224.551C207.915 222.617 204.576 220.118 201.502 220.121L203.107 210.428Z" fill="#FAC5C2"/>
<path d="M173.494 276.082C176.651 277.662 179.609 285.434 180.288 290.199C180.32 290.439 180.273 290.683 180.154 290.894C180.034 291.105 179.85 291.271 179.627 291.367C179.405 291.464 179.158 291.485 178.923 291.428C178.687 291.371 178.477 291.238 178.324 291.051C176.504 288.834 173.558 285.88 170.512 285.444L173.494 276.082Z" fill="#FAC5C2"/>
<path d="M186.946 271.545C189.649 273.814 190.728 282.059 190.282 286.852C190.258 287.093 190.156 287.32 189.991 287.498C189.826 287.676 189.608 287.795 189.37 287.838C189.131 287.88 188.885 287.844 188.669 287.733C188.453 287.623 188.279 287.445 188.173 287.227C186.916 284.648 184.736 281.079 181.877 279.96L186.946 271.545Z" fill="#FAC5C2"/>
<path d="M203.479 227.377C207.869 230.34 209.13 237.771 208.65 242.047C208.626 242.282 208.527 242.502 208.369 242.677C208.211 242.852 208.001 242.971 207.77 243.019C207.54 243.067 207.3 243.039 207.085 242.942C206.871 242.844 206.693 242.68 206.578 242.474C205.001 239.674 202.019 235.45 198.502 235.849L203.479 227.377Z" fill="#FAC5C2"/>
<path d="M97.465 299.42H93.8988C89.4911 299.42 85.918 302.993 85.918 307.401V327.076C85.918 331.484 89.4911 335.057 93.8988 335.057H97.465C101.873 335.057 105.446 331.484 105.446 327.076V307.401C105.446 302.993 101.873 299.42 97.465 299.42Z" fill="url(#paint0_linear_825_5989)"/>
<path d="M82.0519 304.947C81.4181 306.247 81.0085 307.645 80.8407 309.082C80.8138 309.322 80.8381 309.566 80.9118 309.796C80.9855 310.027 81.107 310.239 81.2683 310.419C81.4297 310.599 81.6272 310.743 81.8481 310.842C82.0689 310.941 82.3081 310.991 82.55 310.991H108.823C109.065 310.991 109.304 310.94 109.525 310.841C109.746 310.741 109.943 310.597 110.104 310.416C110.265 310.235 110.386 310.022 110.459 309.791C110.531 309.56 110.554 309.316 110.526 309.076C110.332 307.428 109.579 304.861 107.098 301.968C105.715 300.367 104.002 299.084 102.076 298.207C100.15 297.329 98.0577 296.879 95.9417 296.886H95.2192C89.6639 296.886 84.4652 299.945 82.0519 304.947Z" fill="url(#paint1_linear_825_5989)"/>
<path d="M158.494 299.42H154.928C150.52 299.42 146.947 302.993 146.947 307.401V327.076C146.947 331.484 150.52 335.057 154.928 335.057H158.494C162.902 335.057 166.475 331.484 166.475 327.076V307.401C166.475 302.993 162.902 299.42 158.494 299.42Z" fill="url(#paint2_linear_825_5989)"/>
<path d="M143.074 304.947C142.44 306.247 142.03 307.645 141.863 309.082C141.835 309.322 141.859 309.566 141.932 309.796C142.006 310.026 142.127 310.239 142.288 310.419C142.449 310.599 142.646 310.743 142.867 310.842C143.088 310.941 143.327 310.991 143.569 310.991H169.842C170.084 310.992 170.324 310.941 170.545 310.842C170.766 310.743 170.964 310.598 171.125 310.417C171.286 310.236 171.407 310.023 171.48 309.792C171.553 309.561 171.576 309.317 171.548 309.076C171.354 307.428 170.601 304.861 168.117 301.968C166.734 300.367 165.022 299.084 163.096 298.207C161.171 297.329 159.079 296.879 156.964 296.886H156.241C150.686 296.886 145.487 299.945 143.074 304.947Z" fill="url(#paint3_linear_825_5989)"/>
<path d="M59.1758 190.263C59.1758 190.263 35.0548 161.26 54.4967 130.452C57.3681 125.902 64.3897 127.636 64.7771 133.001C65.6441 145.129 73.0931 162.133 99.7842 181.148L59.1758 190.263Z" fill="url(#paint4_linear_825_5989)"/>
<path d="M191.451 190.263C191.451 190.263 215.569 161.26 196.13 130.452C193.259 125.902 186.234 127.636 185.85 133.001C184.98 145.129 177.534 162.133 150.84 181.148L191.451 190.263Z" fill="url(#paint5_linear_825_5989)"/>
<path d="M55.163 227.419C54.3747 228.009 53.3855 228.264 52.4103 228.128C51.435 227.993 50.5524 227.479 49.9542 226.697C45.3707 220.706 35.4855 205.258 32.4375 180.344L38.8365 175.567C38.8365 175.567 39.4979 194.811 56.1381 222.479C56.6172 223.277 56.7826 224.224 56.6025 225.137C56.4223 226.05 55.9093 226.863 55.163 227.419Z" fill="url(#paint6_linear_825_5989)"/>
<path d="M38.9737 177.712C38.9737 177.712 49.681 170.767 47.3164 166.216C44.9518 161.666 38.9796 167.505 38.9796 167.505C38.9796 167.505 39.7587 154.409 33.6687 154.251C27.5787 154.092 30.2339 163.805 30.2339 163.805C30.2339 163.805 25.9112 154.179 20.8806 158.509C15.8501 162.839 25.3808 170.99 25.3808 170.99C25.3808 170.99 16.4482 167.331 17.0043 173.917C17.5605 180.503 32.5106 181.125 32.5106 181.125L38.9737 177.712Z" fill="#FAC5C2"/>
<path d="M30.1146 172.532C30.9776 170.95 32.2664 169.64 33.835 168.752C35.4036 167.864 37.1893 167.433 38.9903 167.508" stroke="#F8B2BB" stroke-width="1.55" stroke-miterlimit="10" stroke-linecap="round"/>
<path d="M197.214 212.875C198.088 213.345 199.11 213.441 200.056 213.144C201.003 212.847 201.798 212.18 202.268 211.289C205.872 204.472 213.26 187.199 212.397 161.452L205.307 157.66C205.307 157.66 207.662 177.269 195.488 208.026C195.136 208.911 195.117 209.898 195.436 210.794C195.755 211.69 196.388 212.432 197.214 212.875Z" fill="url(#paint7_linear_825_5989)"/>
<path d="M205.329 159.689C205.329 159.689 193.355 154.38 195.015 149.388C196.675 144.396 203.673 149.347 203.673 149.347C203.673 149.347 200.76 136.22 206.907 135.065C213.055 133.911 211.921 144.209 211.921 144.209C211.921 144.209 214.74 133.751 220.542 137.327C226.345 140.904 217.998 150.702 217.998 150.702C217.998 150.702 226.459 145.548 226.96 152.311C227.461 159.075 212.41 162.129 212.41 162.129L205.329 159.689Z" fill="#FAC5C2"/>
<path d="M213.48 153.001C212.349 151.537 210.831 150.42 209.098 149.774C207.365 149.128 205.486 148.98 203.673 149.347" stroke="#F8B2BB" stroke-width="1.55" stroke-miterlimit="10" stroke-linecap="round"/>
<path d="M125.307 308.491C169.567 308.491 205.448 272.611 205.448 228.35C205.448 184.09 169.567 148.209 125.307 148.209C81.0463 148.209 45.166 184.09 45.166 228.35C45.166 272.611 81.0463 308.491 125.307 308.491Z" fill="url(#paint8_linear_825_5989)"/>
<path opacity="0.5" d="M75.0635 266.496C79.147 266.496 82.4573 263.186 82.4573 259.102C82.4573 255.019 79.147 251.709 75.0635 251.709C70.9801 251.709 67.6699 255.019 67.6699 259.102C67.6699 263.186 70.9801 266.496 75.0635 266.496Z" fill="#F1637F"/>
<path opacity="0.5" d="M174.974 266.496C179.057 266.496 182.367 263.186 182.367 259.102C182.367 255.019 179.057 251.709 174.974 251.709C170.89 251.709 167.58 255.019 167.58 259.102C167.58 263.186 170.89 266.496 174.974 266.496Z" fill="#F1637F"/>
<path d="M100.438 254.455C111.311 254.455 120.126 245.641 120.126 234.767C120.126 223.894 111.311 215.079 100.438 215.079C89.5645 215.079 80.75 223.894 80.75 234.767C80.75 245.641 89.5645 254.455 100.438 254.455Z" fill="url(#paint9_linear_825_5989)"/>
<path d="M104.986 248.307C112.464 248.307 118.526 242.245 118.526 234.767C118.526 227.29 112.464 221.228 104.986 221.228C97.509 221.228 91.4473 227.29 91.4473 234.767C91.4473 242.245 97.509 248.307 104.986 248.307Z" fill="url(#paint10_linear_825_5989)"/>
<path d="M114.395 231.561C113.918 230.157 113.133 228.876 112.099 227.813C111.065 226.749 109.807 225.929 108.416 225.413" stroke="white" stroke-miterlimit="10" stroke-linecap="round"/>
<path d="M150.19 254.455C161.063 254.455 169.878 245.641 169.878 234.767C169.878 223.894 161.063 215.079 150.19 215.079C139.316 215.079 130.502 223.894 130.502 234.767C130.502 245.641 139.316 254.455 150.19 254.455Z" fill="url(#paint11_linear_825_5989)"/>
<path d="M145.649 248.306C153.126 248.306 159.188 242.245 159.188 234.767C159.188 227.29 153.126 221.228 145.649 221.228C138.171 221.228 132.109 227.29 132.109 234.767C132.109 242.245 138.171 248.306 145.649 248.306Z" fill="url(#paint12_linear_825_5989)"/>
<path d="M155.1 231.561C154.621 230.156 153.836 228.876 152.802 227.812C151.767 226.749 150.508 225.929 149.117 225.412" stroke="white" stroke-miterlimit="10" stroke-linecap="round"/>
<path d="M116.211 259.024C118.723 259.863 124.491 261.176 131.798 258.935C132.222 258.804 132.677 258.814 133.095 258.964C133.513 259.114 133.871 259.395 134.116 259.765C135.69 262.141 138.147 267.657 133.606 274.789C127.485 284.408 111.665 278.684 111.981 265.726C112.024 263.646 112.656 261.62 113.804 259.885C114.052 259.493 114.423 259.196 114.859 259.04C115.296 258.884 115.772 258.878 116.211 259.024Z" fill="url(#paint13_linear_825_5989)"/>
<mask id="mask0_825_5989" style="mask-type:luminance" maskUnits="userSpaceOnUse" x="111" y="258" width="26" height="22">
<path d="M116.202 259.072C118.689 259.995 124.392 261.4 131.777 258.971C132.205 258.829 132.668 258.833 133.094 258.98C133.52 259.128 133.886 259.412 134.135 259.789C135.709 262.177 138.131 267.68 133.606 274.788C127.485 284.408 111.665 278.683 111.981 265.725C112.022 263.661 112.644 261.65 113.777 259.924C114.024 259.527 114.399 259.226 114.84 259.072C115.281 258.917 115.761 258.917 116.202 259.072Z" fill="white"/>
</mask>
<g mask="url(#mask0_825_5989)">
<path d="M112.859 275.665C114.125 273.607 115.905 271.915 118.023 270.754C120.142 269.593 122.526 269.005 124.941 269.046C133.371 269.144 137.903 276.301 137.903 276.301C137.903 276.301 123.035 293.631 112.859 275.665Z" fill="url(#paint14_linear_825_5989)"/>
<path d="M116.451 258.842C116.451 258.842 115 261.578 116.759 266.977C116.816 267.145 116.927 267.29 117.074 267.39C117.221 267.49 117.397 267.539 117.574 267.53C117.752 267.521 117.922 267.454 118.058 267.34C118.194 267.226 118.29 267.07 118.33 266.897C118.855 264.542 120.131 261.296 123.218 258.842H116.451Z" fill="url(#paint15_linear_825_5989)"/>
<path d="M131.011 258.842C131.011 258.842 132.462 261.578 130.703 266.977C130.647 267.146 130.537 267.292 130.39 267.392C130.243 267.492 130.067 267.542 129.889 267.533C129.711 267.524 129.541 267.457 129.405 267.342C129.269 267.227 129.174 267.071 129.135 266.897C128.61 264.542 127.334 261.296 124.244 258.842H131.011Z" fill="url(#paint16_linear_825_5989)"/>
</g>
<path opacity="0.1" d="M94.2128 207.633C94.2128 207.633 89.0879 209.917 87.4924 207.941C85.8968 205.964 91.7503 202.81 91.7503 202.81C91.7503 202.81 98.8919 199.087 107.494 202.422C112.963 204.547 108.877 208.184 106.507 207.59C104.515 207.083 100.395 205.54 94.2128 207.633Z" fill="url(#paint17_linear_825_5989)"/>
<path d="M94.8192 206.766C94.8192 206.766 89.6483 208.946 88.0927 206.932C86.5371 204.919 92.4521 201.89 92.4521 201.89C92.4521 201.89 99.6674 198.309 108.199 201.817C113.625 204.045 109.468 207.599 107.11 206.96C105.13 206.422 101.042 204.796 94.8192 206.766Z" fill="url(#paint18_linear_825_5989)"/>
<path opacity="0.1" d="M156.844 206.403C156.844 206.403 161.692 208.555 163.199 206.686C164.705 204.817 159.174 201.838 159.174 201.838C159.174 201.838 152.411 198.315 144.289 201.472C139.118 203.477 142.982 206.917 145.211 206.354C147.105 205.884 151 204.424 156.844 206.403Z" fill="url(#paint19_linear_825_5989)"/>
<path d="M156.593 205.582C156.593 205.582 161.484 207.645 162.953 205.742C164.423 203.839 158.831 200.974 158.831 200.974C158.831 200.974 152.009 197.592 143.942 200.903C138.811 203.012 142.743 206.373 144.972 205.767C146.847 205.257 150.712 203.719 156.593 205.582Z" fill="url(#paint20_linear_825_5989)"/>
<path d="M0.478794 111.757C-1.04797 123.029 1.0988 134.492 6.60155 144.451C12.1043 154.409 20.6706 162.333 31.0325 167.051C41.3945 171.768 53.0017 173.028 64.1361 170.644C75.2706 168.259 85.3407 162.358 92.8563 153.812C97.3243 162.695 104.205 170.142 112.71 175.303C121.216 180.464 131.004 183.129 140.955 182.995C150.907 182.861 160.619 179.933 168.982 174.545C177.346 169.157 184.022 161.526 188.249 152.527C189.037 152.669 189.831 152.798 190.626 152.906C197.54 153.874 204.577 153.468 211.334 151.712C218.09 149.955 224.433 146.883 229.998 142.672C235.563 138.461 240.24 133.193 243.762 127.171C247.283 121.15 249.579 114.492 250.518 107.582C251.457 100.672 251.021 93.6438 249.233 86.9024C247.446 80.161 244.344 73.8385 240.104 68.298C235.864 62.7575 230.57 58.1079 224.526 54.6163C218.483 51.1247 211.808 48.8598 204.886 47.9516C204.414 47.8872 203.946 47.8295 203.474 47.7787C202.345 36.332 197.516 25.5634 189.718 17.1001C181.921 8.63673 171.577 2.93856 160.25 0.866607C148.923 -1.20535 137.229 0.461491 126.935 5.61525C116.641 10.769 108.305 19.1296 103.188 29.4338C95.7266 24.3059 87.0744 21.1721 78.0564 20.3313C69.0385 19.4905 59.9551 20.9706 51.6721 24.6305C43.3891 28.2904 36.1826 34.0082 30.7391 41.239C25.2957 48.4698 21.7968 56.9726 20.5759 65.937C20.0684 69.6785 19.9602 73.4632 20.2533 77.2275C9.40661 85.7215 2.31088 98.1119 0.478794 111.757Z" fill="url(#paint21_linear_825_5989)"/>
<path d="M78.4602 70.68C78.3268 75.5333 76.4202 79 72.7402 81.08C70.2602 82.4933 67.1402 83.2 63.3802 83.2C62.2068 83.2 61.1402 83.1333 60.1802 83V56.96C60.8735 56.7733 63.0068 56.36 66.5802 55.72C67.5135 55.5867 68.3535 55.52 69.1002 55.52C75.6335 55.52 78.7535 60.5733 78.4602 70.68ZM65.7802 62.64L65.8602 77.56C67.4602 77.2933 68.8602 76.68 70.0602 75.72C72.0868 74.1733 73.1402 71.92 73.2202 68.96C73.3535 64.4 71.7935 62.12 68.5402 62.12C67.6335 62.12 66.7135 62.2933 65.7802 62.64ZM100.867 76.28C98.0673 80.92 94.414 83.24 89.9073 83.24C89.134 83.24 88.3607 83.16 87.5873 83C84.4407 82.4133 82.174 80.7733 80.7873 78.08C79.8007 76.16 79.3073 73.8267 79.3073 71.08C79.3073 69.8533 79.4007 68.72 79.5873 67.68C79.9873 65.7333 80.534 64.04 81.2273 62.6C82.9607 59.16 85.3473 57.28 88.3873 56.96C88.974 56.9067 89.534 56.88 90.0673 56.88C94.6007 56.88 97.7073 59.0667 99.3873 63.44C100.081 65.2533 100.467 67.44 100.547 70L84.9073 71.36C85.174 75.6 86.854 77.72 89.9473 77.72C90.8007 77.72 91.7473 77.5333 92.7873 77.16C94.2007 76.6533 95.2807 75.5333 96.0273 73.8L100.867 76.28ZM89.3873 62.52C87.174 62.84 85.934 64.32 85.6673 66.96L93.5473 66.08C93.0407 63.68 91.854 62.48 89.9873 62.48C89.8007 62.48 89.6007 62.4933 89.3873 62.52ZM121.546 85.24L113.746 84.28L114.026 82.16C110.373 82.24 107.399 81.88 105.106 81.08C101.773 79.9067 100.239 77.88 100.506 75C100.879 70.9733 103.919 68.96 109.626 68.96C111.493 68.96 113.453 69.1733 115.506 69.6C115.559 67.7333 115.399 66.2133 115.026 65.04C114.493 63.44 113.573 62.6533 112.266 62.68C110.239 62.7333 109.239 64.4133 109.266 67.72L103.106 67.2C103.346 64.24 104.013 61.84 105.106 60C106.626 57.3333 108.919 56 111.986 56C115.319 56 117.799 57.4667 119.426 60.4C120.546 62.4267 121.133 64.8267 121.186 67.6L121.546 85.24ZM114.986 73.76C113.173 73.3867 111.533 73.2 110.066 73.2C107.426 73.2 106.079 73.8667 106.026 75.2C105.946 76.9333 107.413 77.8 110.426 77.8C111.759 77.8 113.199 77.64 114.746 77.32L114.986 73.76ZM132.665 56.04L131.825 83.4L125.265 83L124.985 56.96L132.665 56.04ZM168.732 70.92C168.732 75.1333 167.985 78.2667 166.492 80.32C164.679 82.8267 161.612 84.0133 157.292 83.88C153.345 83.7467 150.732 82.3067 149.452 79.56C148.625 77.7733 148.212 74.5733 148.212 69.96C148.212 66.28 149.279 63.1067 151.412 60.44C153.492 57.8533 155.892 56.56 158.612 56.56C161.359 56.56 163.705 57.8933 165.652 60.56C167.705 63.3333 168.732 66.7867 168.732 70.92ZM158.692 63C157.732 63.2133 156.879 63.7067 156.132 64.48C154.879 65.7867 154.239 67.6933 154.212 70.2C154.212 72.9467 154.465 74.88 154.972 76C155.479 77.12 156.439 77.7067 157.852 77.76C159.372 77.8133 160.625 77.1333 161.612 75.72C162.625 74.28 163.065 72.4533 162.932 70.24C162.799 68.1067 162.252 66.3333 161.292 64.92C160.439 63.6667 159.572 63.0267 158.692 63ZM188.605 67.24L182.205 68.12C182.392 67.1067 182.485 66.0933 182.485 65.08C182.485 61.8267 181.445 60.32 179.365 60.56C177.765 60.7467 176.965 62.08 176.965 64.56C176.965 66.2667 177.312 68.2533 178.005 70.52L186.165 69.48L186.605 74.84L179.205 75.48L180.805 83.72L174.165 85.04L171.885 65.88C171.805 65.1067 171.765 64.36 171.765 63.64C171.765 58.12 174.232 55.04 179.165 54.4C179.565 54.3467 179.952 54.32 180.325 54.32C183.765 54.32 186.178 56.48 187.565 60.8C188.125 62.5867 188.472 64.7333 188.605 67.24ZM72.2102 117.68C72.2902 120.507 72.0635 122.933 71.5302 124.96C70.2235 129.813 67.4768 132.24 63.2902 132.24C59.9568 132.24 57.4768 130.773 55.8502 127.84C54.7302 125.813 54.1435 123.413 54.0902 120.64L53.7302 103L61.6102 103.64L61.0102 108.08L71.7702 108.6L71.1302 114.88L60.2902 113.48L59.9702 115.96C59.8368 117.027 59.7702 118.12 59.7702 119.24C59.7702 123.507 60.8502 125.613 63.0102 125.56C65.0102 125.507 66.0102 123.867 66.0102 120.64C66.0102 119.493 65.8902 118.307 65.6502 117.08L72.2102 117.68ZM93.9289 132.92L86.3689 133.44C86.4489 126.693 86.3289 121.707 86.0089 118.48C85.7956 116.453 85.2089 115.44 84.2489 115.44C83.6889 115.44 83.1556 115.76 82.6489 116.4C82.1689 117.04 81.9022 117.76 81.8489 118.56C81.7422 120.267 81.9689 124.173 82.5289 130.28L75.6489 130.4L74.0889 98L81.8489 96.6L81.0489 109.92C82.9956 108.64 84.7289 108 86.2489 108C89.2622 108 91.4222 110.467 92.7289 115.4C93.6356 118.76 94.0889 123.027 94.0889 128.2C94.0889 129.933 94.0356 131.507 93.9289 132.92ZM117.781 123.28C114.981 127.92 111.328 130.24 106.821 130.24C106.048 130.24 105.275 130.16 104.501 130C101.355 129.413 99.0881 127.773 97.7014 125.08C96.7147 123.16 96.2214 120.827 96.2214 118.08C96.2214 116.853 96.3147 115.72 96.5014 114.68C96.9014 112.733 97.4481 111.04 98.1414 109.6C99.8747 106.16 102.261 104.28 105.301 103.96C105.888 103.907 106.448 103.88 106.981 103.88C111.515 103.88 114.621 106.067 116.301 110.44C116.995 112.253 117.381 114.44 117.461 117L101.821 118.36C102.088 122.6 103.768 124.72 106.861 124.72C107.715 124.72 108.661 124.533 109.701 124.16C111.115 123.653 112.195 122.533 112.941 120.8L117.781 123.28ZM106.301 109.52C104.088 109.84 102.848 111.32 102.581 113.96L110.461 113.08C109.955 110.68 108.768 109.48 106.901 109.48C106.715 109.48 106.515 109.493 106.301 109.52ZM150.69 129.68C148.344 130.08 146.184 130.28 144.21 130.28C138.85 130.28 135.024 128.893 132.73 126.12C131.77 124.947 131.157 123.56 130.89 121.96C130.784 121.267 130.73 120.48 130.73 119.6C130.73 116.32 131.477 113.613 132.97 111.48C135.21 108.28 138.957 106.813 144.21 107.08L143.89 98.56L150.69 98.16V129.68ZM145.13 124.72L144.57 112.48C140.917 112.373 138.384 113.467 136.97 115.76C136.384 116.72 136.037 117.88 135.93 119.24C136.517 122.947 139.09 124.8 143.65 124.8C144.13 124.8 144.624 124.773 145.13 124.72ZM172.952 132.24L165.152 131.28L165.432 129.16C161.779 129.24 158.806 128.88 156.512 128.08C153.179 126.907 151.646 124.88 151.912 122C152.286 117.973 155.326 115.96 161.032 115.96C162.899 115.96 164.859 116.173 166.912 116.6C166.966 114.733 166.806 113.213 166.432 112.04C165.899 110.44 164.979 109.653 163.672 109.68C161.646 109.733 160.646 111.413 160.672 114.72L154.512 114.2C154.752 111.24 155.419 108.84 156.512 107C158.032 104.333 160.326 103 163.392 103C166.726 103 169.206 104.467 170.832 107.4C171.952 109.427 172.539 111.827 172.592 114.6L172.952 132.24ZM166.392 120.76C164.579 120.387 162.939 120.2 161.472 120.2C158.832 120.2 157.486 120.867 157.432 122.2C157.352 123.933 158.819 124.8 161.832 124.8C163.166 124.8 164.606 124.64 166.152 124.32L166.392 120.76ZM194.191 121.4C193.844 123.88 193.018 126.093 191.711 128.04C189.898 130.707 187.524 132.04 184.591 132.04C184.191 132.04 183.791 132.013 183.391 131.96C178.538 131.373 176.044 127.827 175.911 121.32L182.031 120.56C182.004 120.907 181.991 121.24 181.991 121.56C181.991 123.853 182.818 125.12 184.471 125.36C186.898 125.733 188.271 123.293 188.591 118.04C186.511 118.76 184.671 119.12 183.071 119.12C178.111 119.12 175.631 115.907 175.631 109.48C175.631 107.507 175.858 105.507 176.311 103.48L182.791 103.8C182.044 106.307 181.671 108.533 181.671 110.48C181.671 111.227 181.738 111.893 181.871 112.48C182.111 113.573 182.951 114.12 184.391 114.12C185.778 114.12 187.191 113.76 188.631 113.04L188.551 104.12L195.431 103.52C195.324 106 195.204 108.293 195.071 110.4C194.778 115.467 194.484 119.133 194.191 121.4Z" fill="white"/>
<defs>
<linearGradient id="paint0_linear_825_5989" x1="95.685" y1="335.057" x2="95.685" y2="299.42" gradientUnits="userSpaceOnUse">
<stop stop-color="#212E5D"/>
<stop offset="1" stop-color="#27245B"/>
</linearGradient>
<linearGradient id="paint1_linear_825_5989" x1="95.6865" y1="310.991" x2="95.6865" y2="296.886" gradientUnits="userSpaceOnUse">
<stop stop-color="#F8B2BB"/>
<stop offset="0.58" stop-color="#F597AA"/>
<stop offset="0.98" stop-color="#F48A9A"/>
</linearGradient>
<linearGradient id="paint2_linear_825_5989" x1="156.711" y1="335.057" x2="156.711" y2="299.42" gradientUnits="userSpaceOnUse">
<stop stop-color="#212E5D"/>
<stop offset="1" stop-color="#27245B"/>
</linearGradient>
<linearGradient id="paint3_linear_825_5989" x1="156.705" y1="310.991" x2="156.705" y2="296.886" gradientUnits="userSpaceOnUse">
<stop stop-color="#F8B2BB"/>
<stop offset="0.58" stop-color="#F597AA"/>
<stop offset="0.98" stop-color="#F48A9A"/>
</linearGradient>
<linearGradient id="paint4_linear_825_5989" x1="40.69" y1="172.204" x2="87.8344" y2="150.331" gradientUnits="userSpaceOnUse">
<stop offset="0.02" stop-color="#FCCBB8"/>
<stop offset="0.45" stop-color="#FEE3C8"/>
<stop offset="1" stop-color="#FFF0E2"/>
</linearGradient>
<linearGradient id="paint5_linear_825_5989" x1="172.086" y1="160.547" x2="206.562" y2="157.869" gradientUnits="userSpaceOnUse">
<stop offset="0.02" stop-color="#FCCBB8"/>
<stop offset="0.45" stop-color="#FEE3C8"/>
<stop offset="1" stop-color="#FFF0E2"/>
</linearGradient>
<linearGradient id="paint6_linear_825_5989" x1="23.7434" y1="168.202" x2="68.2004" y2="280.657" gradientUnits="userSpaceOnUse">
<stop offset="0.03" stop-color="#FCDBD7"/>
<stop offset="0.14" stop-color="#FBD2CF"/>
<stop offset="0.25" stop-color="#FAC5C2"/>
<stop offset="0.35" stop-color="#F9BFC0"/>
<stop offset="0.47" stop-color="#F8B2BB"/>
<stop offset="0.74" stop-color="#F597AA"/>
<stop offset="0.86" stop-color="#F594A6"/>
<stop offset="0.98" stop-color="#F48A9A"/>
</linearGradient>
<linearGradient id="paint7_linear_825_5989" x1="219.683" y1="125.008" x2="192.364" y2="245.405" gradientUnits="userSpaceOnUse">
<stop offset="0.03" stop-color="#FCDBD7"/>
<stop offset="0.14" stop-color="#FBD2CF"/>
<stop offset="0.25" stop-color="#FAC5C2"/>
<stop offset="0.35" stop-color="#F9BFC0"/>
<stop offset="0.47" stop-color="#F8B2BB"/>
<stop offset="0.74" stop-color="#F597AA"/>
<stop offset="0.86" stop-color="#F594A6"/>
<stop offset="0.98" stop-color="#F48A9A"/>
</linearGradient>
<linearGradient id="paint8_linear_825_5989" x1="28.7185" y1="320.49" x2="202.742" y2="154.478" gradientUnits="userSpaceOnUse">
<stop offset="0.02" stop-color="#F48A9A"/>
<stop offset="0.14" stop-color="#F594A6"/>
<stop offset="0.26" stop-color="#F597AA"/>
<stop offset="0.53" stop-color="#F8B2BB"/>
<stop offset="0.65" stop-color="#F9BFC0"/>
<stop offset="0.75" stop-color="#FAC5C2"/>
<stop offset="0.86" stop-color="#FBD2CF"/>
<stop offset="0.97" stop-color="#FCDBD7"/>
</linearGradient>
<linearGradient id="paint9_linear_825_5989" x1="80.75" y1="234.767" x2="108.997" y2="234.767" gradientUnits="userSpaceOnUse">
<stop offset="0.02" stop-color="#E6E7E8"/>
<stop offset="0.5" stop-color="#F0F0F1"/>
<stop offset="1" stop-color="white"/>
</linearGradient>
<linearGradient id="paint10_linear_825_5989" x1="91.4442" y1="234.767" x2="118.526" y2="234.767" gradientUnits="userSpaceOnUse">
<stop stop-color="#262261"/>
<stop offset="0.22" stop-color="#282666"/>
<stop offset="0.47" stop-color="#2D3174"/>
<stop offset="0.73" stop-color="#36438A"/>
<stop offset="1" stop-color="#425BA9"/>
</linearGradient>
<linearGradient id="paint11_linear_825_5989" x1="169.878" y1="234.767" x2="141.631" y2="234.767" gradientUnits="userSpaceOnUse">
<stop offset="0.02" stop-color="#E6E7E8"/>
<stop offset="0.5" stop-color="#F0F0F1"/>
<stop offset="1" stop-color="white"/>
</linearGradient>
<linearGradient id="paint12_linear_825_5989" x1="132.109" y1="234.767" x2="159.191" y2="234.767" gradientUnits="userSpaceOnUse">
<stop stop-color="#262261"/>
<stop offset="0.22" stop-color="#282666"/>
<stop offset="0.47" stop-color="#2D3174"/>
<stop offset="0.73" stop-color="#36438A"/>
<stop offset="1" stop-color="#425BA9"/>
</linearGradient>
<linearGradient id="paint13_linear_825_5989" x1="111.978" y1="269.221" x2="136.21" y2="269.221" gradientUnits="userSpaceOnUse">
<stop offset="0.02" stop-color="#A92B4A"/>
<stop offset="1" stop-color="#66142A"/>
</linearGradient>
<linearGradient id="paint14_linear_825_5989" x1="112.859" y1="276.43" x2="137.903" y2="276.43" gradientUnits="userSpaceOnUse">
<stop offset="0.02" stop-color="#FCDBD7"/>
<stop offset="1" stop-color="#FCCBB8"/>
</linearGradient>
<linearGradient id="paint15_linear_825_5989" x1="115.892" y1="263.189" x2="123.221" y2="263.189" gradientUnits="userSpaceOnUse">
<stop offset="0.02" stop-color="#E6E7E8"/>
<stop offset="0.5" stop-color="#F0F0F1"/>
<stop offset="1" stop-color="white"/>
</linearGradient>
<linearGradient id="paint16_linear_825_5989" x1="131.573" y1="263.189" x2="124.241" y2="263.189" gradientUnits="userSpaceOnUse">
<stop offset="0.02" stop-color="#E6E7E8"/>
<stop offset="0.5" stop-color="#F0F0F1"/>
<stop offset="1" stop-color="white"/>
</linearGradient>
<linearGradient id="paint17_linear_825_5989" x1="91.256" y1="207.868" x2="112.462" y2="213.269" gradientUnits="userSpaceOnUse">
<stop stop-color="#451416"/>
<stop offset="0.56" stop-color="#5B2225"/>
<stop offset="1" stop-color="#662A2D"/>
</linearGradient>
<linearGradient id="paint18_linear_825_5989" x1="82.2435" y1="206.86" x2="103.243" y2="212.659" gradientUnits="userSpaceOnUse">
<stop stop-color="#212E5D"/>
<stop offset="1" stop-color="#27245B"/>
</linearGradient>
<linearGradient id="paint19_linear_825_5989" x1="158.294" y1="207.82" x2="138.246" y2="212.927" gradientUnits="userSpaceOnUse">
<stop stop-color="#451416"/>
<stop offset="0.56" stop-color="#5B2225"/>
<stop offset="1" stop-color="#662A2D"/>
</linearGradient>
<linearGradient id="paint20_linear_825_5989" x1="174.082" y1="209.561" x2="154.226" y2="215.045" gradientUnits="userSpaceOnUse">
<stop stop-color="#212E5D"/>
<stop offset="1" stop-color="#27245B"/>
</linearGradient>
<linearGradient id="paint21_linear_825_5989" x1="334.548" y1="-33.7507" x2="19.6965" y2="157.239" gradientUnits="userSpaceOnUse">
<stop stop-color="#F6A2B0"/>
<stop offset="1" stop-color="#F37065"/>
</linearGradient>
</defs>
</svg>
