<svg width="284" height="488" viewBox="0 0 284 488" fill="none" xmlns="http://www.w3.org/2000/svg">
<path d="M88.9425 207.034C84.4019 209.227 80.1213 220.061 79.1258 226.712C78.8935 228.263 80.9178 229.118 81.9464 227.909C84.5734 224.82 88.8153 220.72 93.1927 220.111L88.9425 207.034Z" fill="#71C491"/>
<path d="M90.394 338.181C85.8535 340.374 81.5701 351.208 80.5774 357.859C80.3424 359.41 82.3666 360.265 83.398 359.056C86.0222 355.967 90.2669 351.867 94.6443 351.258L90.394 338.181Z" fill="#71C491"/>
<path d="M91.8925 228.603C87.3492 230.796 83.0686 241.631 82.0731 248.281C81.8408 249.835 83.865 250.687 84.8936 249.478C87.5206 246.392 91.7652 242.289 96.1399 241.68L91.8925 228.603Z" fill="#71C491"/>
<path d="M93.501 375.756C88.9605 377.952 84.6799 388.786 83.6844 395.433C83.4521 396.988 85.4763 397.842 86.505 396.631C89.1319 393.545 93.3738 389.441 97.7512 388.833L93.501 375.756Z" fill="#71C491"/>
<path d="M93.0683 354.914C88.525 357.107 84.2444 367.944 83.2489 374.591C83.0166 376.145 85.0407 377 86.0694 375.789C88.6964 372.703 92.9383 368.599 97.3156 367.991L93.0683 354.914Z" fill="#71C491"/>
<path d="M87.982 258.817C81.6607 262.937 79.8218 273.301 80.4938 279.279C80.6624 280.784 82.706 281.215 83.4719 279.885C85.745 275.983 90.0505 270.101 95.086 270.668L87.982 258.817Z" fill="#71C491"/>
<path d="M98.4375 312.827C91.0516 313.214 85.8363 321.643 83.9338 327.527C83.4527 329.015 85.239 330.199 86.4751 329.206C89.6772 326.634 94.5966 323.781 98.3131 326.537L98.4375 312.827Z" fill="#71C491"/>
<path d="M201.739 208.002C206.648 210.214 211.224 221.081 212.264 227.734C212.504 229.291 210.309 230.132 209.2 228.918C206.374 225.815 201.797 221.681 197.061 221.056L201.739 208.002Z" fill="#BDDB8C"/>
<path d="M198.702 312.403C203.611 314.615 208.187 325.48 209.227 332.136C209.47 333.69 207.272 334.533 206.163 333.317C203.337 330.214 198.763 326.08 194.023 325.455L198.702 312.403Z" fill="#BDDB8C"/>
<path d="M198.424 229.545C203.332 231.757 207.909 242.625 208.949 249.278C209.192 250.835 206.993 251.675 205.885 250.462C203.059 247.359 198.485 243.225 193.748 242.597L198.424 229.545Z" fill="#BDDB8C"/>
<path d="M195.843 376.704C200.751 378.917 205.328 389.781 206.367 396.434C206.611 397.991 204.412 398.832 203.304 397.618C200.478 394.515 195.904 390.381 191.164 389.756L195.843 376.704Z" fill="#BDDB8C"/>
<path d="M193.721 352.305C198.629 354.518 203.206 365.382 204.246 372.038C204.489 373.592 202.29 374.436 201.182 373.219C198.356 370.116 193.782 365.982 189.045 365.357L193.721 352.305Z" fill="#BDDB8C"/>
<path d="M201.089 259.793C207.914 263.941 209.844 274.324 209.086 280.286C208.893 281.79 206.675 282.197 205.854 280.875C203.412 276.959 198.783 271.056 193.311 271.595L201.089 259.793Z" fill="#BDDB8C"/>
<path d="M193.738 334.512C201.738 334.941 207.338 343.403 209.367 349.298C209.879 350.789 207.941 351.961 206.602 350.957C203.146 348.369 197.836 345.485 193.794 348.222L193.738 334.512Z" fill="#BDDB8C"/>
<path d="M193.446 257.342L192.279 265.742C192.279 265.742 261.046 270.886 261.322 171.022L252.318 172.006C252.318 172.006 251.201 257.308 193.446 257.342Z" fill="url(#paint0_linear_825_6056)"/>
<path d="M252.3 172.007C252.3 172.007 236.452 172.377 235.689 166.238C234.926 160.1 245.141 161.847 245.141 161.847C245.141 161.847 235.158 149.337 241.289 145.034C247.419 140.732 251.501 152.224 251.501 152.224C251.501 152.224 249.181 139.692 257.377 140.58C265.573 141.467 261.511 156.065 261.511 156.065C261.511 156.065 268.106 146.34 272.152 153.28C276.197 160.221 261.309 171.022 261.309 171.022L252.3 172.007Z" fill="#BDDB8C"/>
<path d="M257.766 160.807C255.765 159.819 253.534 159.394 251.31 159.577C249.087 159.76 246.955 160.545 245.143 161.847" stroke="#4AB087" stroke-width="2.77" stroke-miterlimit="10" stroke-linecap="round"/>
<path d="M147.558 428.307L141.06 428.289C133.635 428.269 127.598 434.271 127.578 441.696L127.488 473.972C127.467 481.397 133.469 487.434 140.895 487.454L147.393 487.472C154.818 487.493 160.854 481.491 160.875 474.065L160.965 441.79C160.986 434.364 154.983 428.328 147.558 428.307Z" fill="url(#paint1_linear_825_6056)"/>
<path d="M121 437.36C119.911 439.506 119.205 441.826 118.912 444.215C118.87 444.62 118.914 445.029 119.041 445.415C119.169 445.802 119.376 446.157 119.651 446.458C119.926 446.758 120.261 446.997 120.634 447.159C121.008 447.32 121.411 447.401 121.818 447.395L166.737 447.519C167.145 447.528 167.549 447.449 167.925 447.29C168.3 447.13 168.637 446.892 168.913 446.592C169.189 446.292 169.399 445.937 169.528 445.55C169.656 445.163 169.701 444.753 169.66 444.348C169.336 441.61 168.062 437.346 163.831 432.526C159.086 427.12 152.095 424.059 144.781 424.04H143.548C134.049 424.009 125.148 429.064 121 437.36Z" fill="url(#paint2_linear_825_6056)"/>
<path d="M100.825 133.597C85.6967 144.083 56.0283 170.881 90.5137 202.23L114.463 173.107C114.463 173.107 97.8112 164.064 105.59 136.866C106.372 134.133 103.203 131.952 100.825 133.597Z" fill="url(#paint3_linear_825_6056)"/>
<path d="M191.064 133.846C206.135 144.415 235.668 171.373 201 202.535L177.219 173.281C177.219 173.281 193.918 164.33 186.289 137.087C185.514 134.349 188.697 132.184 191.064 133.846Z" fill="url(#paint4_linear_825_6056)"/>
<path d="M145.891 159.935L144.232 159.931C113.193 159.844 87.961 184.936 87.8743 215.975L87.4269 376.173C87.3403 407.212 112.432 432.444 143.471 432.531L145.13 432.535C176.169 432.622 201.401 407.53 201.487 376.492L201.935 216.293C202.021 185.254 176.93 160.022 145.891 159.935Z" fill="url(#paint5_linear_825_6056)"/>
<mask id="mask0_825_6056" style="mask-type:luminance" maskUnits="userSpaceOnUse" x="87" y="159" width="115" height="274">
<path d="M145.897 159.936L144.238 159.931C113.199 159.844 87.9668 184.936 87.8802 215.975L87.4328 376.173C87.3461 407.212 112.438 432.444 143.477 432.531L145.136 432.535C176.174 432.622 201.407 407.53 201.493 376.492L201.941 216.293C202.027 185.254 176.936 160.022 145.897 159.936Z" fill="white"/>
</mask>
<g mask="url(#mask0_825_6056)">
<path d="M104.147 169.236L81.1649 188.938C78.9941 190.926 77.9461 193.893 78.6761 196.706C79.5057 199.949 82.7107 203.563 92.1844 205.029C104.321 206.909 113.294 194.245 118.178 184.909C118.731 183.858 120.365 184.4 120.149 185.562C118.686 193.423 117.367 203.923 119.32 209.633C122.483 218.935 142.332 228.282 144.804 187.251C144.876 186.057 146.629 185.918 146.887 187.088L151.587 208.364C151.935 210.035 152.628 211.615 153.622 213.004C154.615 214.392 155.888 215.557 157.357 216.425C158.827 217.294 160.462 217.846 162.157 218.046C163.853 218.246 165.571 218.091 167.203 217.589C173.906 215.542 179.032 207.211 170.045 183.797C169.614 182.677 171.165 181.862 171.884 182.838C179.074 192.552 191.241 206.066 202.012 203.682C218.556 200.024 229.99 176.428 176.674 166.141L170.618 154.182L130.934 146.251L102.889 161.822L104.147 169.236Z" fill="url(#paint6_linear_825_6056)"/>
</g>
<path d="M93.0755 258.506L94.1816 266.912C94.1816 266.912 40.0961 280.547 33.4844 190.135L46.5806 186.651C46.5806 186.651 40.1846 252.488 93.0755 258.506Z" fill="url(#paint7_linear_825_6056)"/>
<path d="M42.4618 188.797C42.4618 188.797 57.8559 185.128 56.9378 179.008C56.0198 172.889 46.6318 177.175 46.6318 177.175C46.6318 177.175 52.8868 162.561 45.8022 159.967C38.7176 157.373 37.8853 169.504 37.8853 169.504C37.8853 169.504 36.7405 156.82 29.0724 159.759C21.4044 162.699 29.2605 175.765 29.2605 175.765C29.2605 175.765 20.2845 168.044 18.2521 175.787C16.2196 183.53 33.5079 190.141 33.5079 190.141L42.4618 188.797Z" fill="#BDDB8C"/>
<path d="M34.1699 179.381C34.1699 179.381 39.1473 174.473 46.6328 177.169" stroke="#4AB087" stroke-width="2.77" stroke-miterlimit="10" stroke-linecap="round"/>
<path d="M128.415 318.551C134.421 315.785 146.209 312.271 158.76 318.918C159.978 319.543 160.977 320.522 161.628 321.726C162.278 322.93 162.549 324.302 162.405 325.663C161.667 332.413 158.288 344.621 143.518 345.216C128.539 345.822 125.174 332.496 124.438 325.287C124.31 323.889 124.625 322.486 125.339 321.277C126.052 320.068 127.128 319.114 128.415 318.551Z" fill="url(#paint8_linear_825_6056)"/>
<mask id="mask1_825_6056" style="mask-type:luminance" maskUnits="userSpaceOnUse" x="124" y="315" width="39" height="31">
<path d="M128.421 318.551C134.466 315.785 146.365 312.227 159.005 319.046C160.15 319.66 161.086 320.601 161.696 321.748C162.305 322.896 162.56 324.199 162.428 325.491C161.726 332.208 158.41 344.602 143.525 345.202C128.546 345.808 125.18 332.482 124.445 325.273C124.319 323.877 124.636 322.477 125.349 321.271C126.063 320.065 127.137 319.113 128.421 318.551Z" fill="white"/>
</mask>
<g mask="url(#mask1_825_6056)">
<path d="M130.18 345.002C130.18 345.002 144.454 321.661 160.846 341.308C177.239 360.955 130.18 345.002 130.18 345.002Z" fill="url(#paint9_linear_825_6056)"/>
<path d="M134.286 328.207L139.007 314.344L123.27 314.3L127.912 328.19C129.231 330.723 132.953 330.731 134.286 328.207Z" fill="url(#paint10_linear_825_6056)"/>
<path d="M157.905 328.27L162.606 314.408L146.869 314.364L151.512 328.253C152.845 330.786 156.564 330.798 157.905 328.27Z" fill="url(#paint11_linear_825_6056)"/>
</g>
<path d="M184.15 267.417C184.209 246.324 166.649 229.175 144.929 229.114C123.209 229.054 105.554 246.104 105.495 267.198C105.436 288.291 122.996 305.44 144.716 305.501C166.436 305.562 184.091 288.511 184.15 267.417Z" fill="url(#paint12_linear_825_6056)"/>
<path d="M164.84 267.919C164.872 256.548 155.406 247.303 143.697 247.27C131.988 247.237 122.47 256.429 122.438 267.801C122.407 279.172 131.873 288.417 143.582 288.45C155.291 288.482 164.809 279.291 164.84 267.919Z" fill="url(#paint13_linear_825_6056)"/>
<path d="M148.02 254.043C150.089 254.663 151.998 255.728 153.611 257.166C155.224 258.603 156.502 260.376 157.355 262.361" stroke="url(#paint14_linear_825_6056)" stroke-width="2" stroke-miterlimit="10" stroke-linecap="round"/>
<path d="M0.630232 124.58C-4.12323 157.259 18.5269 187.616 51.2121 192.378C60.9779 193.803 70.9445 192.787 80.2217 189.42C89.4989 186.053 97.7977 180.441 104.377 173.085C108.653 181.816 114.995 189.371 122.853 195.094C130.712 200.818 139.848 204.536 149.47 205.928C175.994 209.799 200.975 195.6 211.995 172.651C212.882 172.822 213.775 172.977 214.677 173.107C247.365 177.858 277.725 155.213 282.464 122.525C287.204 89.8372 264.57 59.4775 231.882 54.7379C231.351 54.6605 230.823 54.5913 230.292 54.5277C227.92 27.5306 207.299 4.69798 179.312 0.630304C153.244 -3.16085 128.664 10.4774 117.371 32.7348C109.7 27.3424 100.866 23.8368 91.5847 22.5034C58.8967 17.75 28.5371 40.3973 23.7947 73.0853C23.1813 77.3035 23.0181 81.5749 23.308 85.8276C10.986 95.2947 2.84865 109.2 0.630232 124.58Z" fill="url(#paint15_linear_825_6056)"/>
<path d="M89.36 75.216C89.2 81.04 86.912 85.2 82.496 87.696C79.52 89.392 75.776 90.24 71.264 90.24C69.856 90.24 68.576 90.16 67.424 90V58.752C68.256 58.528 70.816 58.032 75.104 57.264C76.224 57.104 77.232 57.024 78.128 57.024C85.968 57.024 89.712 63.088 89.36 75.216ZM74.144 65.568L74.24 83.472C76.16 83.152 77.84 82.416 79.28 81.264C81.712 79.408 82.976 76.704 83.072 73.152C83.232 67.68 81.36 64.944 77.456 64.944C76.368 64.944 75.264 65.152 74.144 65.568ZM116.249 81.936C112.889 87.504 108.505 90.288 103.097 90.288C102.169 90.288 101.241 90.192 100.313 90C96.5366 89.296 93.8166 87.328 92.1526 84.096C90.9686 81.792 90.3766 78.992 90.3766 75.696C90.3766 74.224 90.4886 72.864 90.7126 71.616C91.1926 69.28 91.8486 67.248 92.6806 65.52C94.7606 61.392 97.6246 59.136 101.273 58.752C101.977 58.688 102.649 58.656 103.289 58.656C108.729 58.656 112.457 61.28 114.473 66.528C115.305 68.704 115.769 71.328 115.865 74.4L97.0966 76.032C97.4166 81.12 99.4326 83.664 103.145 83.664C104.169 83.664 105.305 83.44 106.553 82.992C108.249 82.384 109.545 81.04 110.441 78.96L116.249 81.936ZM102.473 65.424C99.8166 65.808 98.3286 67.584 98.0086 70.752L107.465 69.696C106.857 66.816 105.433 65.376 103.193 65.376C102.969 65.376 102.729 65.392 102.473 65.424ZM141.063 92.688L131.703 91.536L132.039 88.992C127.655 89.088 124.087 88.656 121.335 87.696C117.335 86.288 115.495 83.856 115.815 80.4C116.263 75.568 119.911 73.152 126.759 73.152C128.999 73.152 131.351 73.408 133.815 73.92C133.879 71.68 133.687 69.856 133.239 68.448C132.599 66.528 131.495 65.584 129.927 65.616C127.495 65.68 126.295 67.696 126.327 71.664L118.935 71.04C119.223 67.488 120.023 64.608 121.335 62.4C123.159 59.2 125.911 57.6 129.591 57.6C133.591 57.6 136.567 59.36 138.519 62.88C139.863 65.312 140.567 68.192 140.631 71.52L141.063 92.688ZM133.191 78.912C131.015 78.464 129.047 78.24 127.287 78.24C124.119 78.24 122.503 79.04 122.439 80.64C122.343 82.72 124.103 83.76 127.719 83.76C129.319 83.76 131.047 83.568 132.903 83.184L133.191 78.912ZM154.406 57.648L153.398 90.48L145.526 90L145.19 58.752L154.406 57.648ZM197.686 75.504C197.686 80.56 196.79 84.32 194.998 86.784C192.822 89.792 189.142 91.216 183.958 91.056C179.222 90.896 176.086 89.168 174.55 85.872C173.558 83.728 173.062 79.888 173.062 74.352C173.062 69.936 174.342 66.128 176.902 62.928C179.398 59.824 182.278 58.272 185.542 58.272C188.838 58.272 191.654 59.872 193.99 63.072C196.454 66.4 197.686 70.544 197.686 75.504ZM185.638 66C184.486 66.256 183.462 66.848 182.566 67.776C181.062 69.344 180.294 71.632 180.262 74.64C180.262 77.936 180.566 80.256 181.174 81.6C181.782 82.944 182.934 83.648 184.63 83.712C186.454 83.776 187.958 82.96 189.142 81.264C190.358 79.536 190.886 77.344 190.726 74.688C190.566 72.128 189.91 70 188.758 68.304C187.734 66.8 186.694 66.032 185.638 66ZM221.534 71.088L213.854 72.144C214.078 70.928 214.19 69.712 214.19 68.496C214.19 64.592 212.942 62.784 210.446 63.072C208.526 63.296 207.566 64.896 207.566 67.872C207.566 69.92 207.982 72.304 208.814 75.024L218.606 73.776L219.134 80.208L210.254 80.976L212.174 90.864L204.206 92.448L201.47 69.456C201.374 68.528 201.326 67.632 201.326 66.768C201.326 60.144 204.286 56.448 210.206 55.68C210.686 55.616 211.15 55.584 211.598 55.584C215.726 55.584 218.622 58.176 220.286 63.36C220.958 65.504 221.374 68.08 221.534 71.088ZM89.36 131.216C89.456 134.608 89.184 137.52 88.544 139.952C86.976 145.776 83.68 148.688 78.656 148.688C74.656 148.688 71.68 146.928 69.728 143.408C68.384 140.976 67.68 138.096 67.616 134.768L67.184 113.6L76.64 114.368L75.92 119.696L88.832 120.32L88.064 127.856L75.056 126.176L74.672 129.152C74.512 130.432 74.432 131.744 74.432 133.088C74.432 138.208 75.728 140.736 78.32 140.672C80.72 140.608 81.92 138.64 81.92 134.768C81.92 133.392 81.776 131.968 81.488 130.496L89.36 131.216ZM115.423 149.504L106.351 150.128C106.447 142.032 106.303 136.048 105.919 132.176C105.663 129.744 104.959 128.528 103.807 128.528C103.135 128.528 102.495 128.912 101.887 129.68C101.311 130.448 100.991 131.312 100.927 132.272C100.799 134.32 101.071 139.008 101.743 146.336L93.4865 146.48L91.6145 107.6L100.927 105.92L99.9665 121.904C102.303 120.368 104.383 119.6 106.207 119.6C109.823 119.6 112.415 122.56 113.983 128.48C115.071 132.512 115.615 137.632 115.615 143.84C115.615 145.92 115.551 147.808 115.423 149.504ZM144.046 137.936C140.686 143.504 136.302 146.288 130.894 146.288C129.966 146.288 129.038 146.192 128.109 146C124.334 145.296 121.614 143.328 119.95 140.096C118.766 137.792 118.174 134.992 118.174 131.696C118.174 130.224 118.286 128.864 118.51 127.616C118.99 125.28 119.646 123.248 120.478 121.52C122.558 117.392 125.422 115.136 129.07 114.752C129.774 114.688 130.446 114.656 131.086 114.656C136.526 114.656 140.254 117.28 142.27 122.528C143.102 124.704 143.566 127.328 143.661 130.4L124.894 132.032C125.214 137.12 127.23 139.664 130.942 139.664C131.966 139.664 133.102 139.44 134.35 138.992C136.046 138.384 137.342 137.04 138.238 134.96L144.046 137.936ZM130.27 121.424C127.614 121.808 126.126 123.584 125.806 126.752L135.262 125.696C134.654 122.816 133.23 121.376 130.99 121.376C130.766 121.376 130.526 121.392 130.27 121.424ZM183.344 131.216C183.184 137.04 180.896 141.2 176.48 143.696C173.504 145.392 169.76 146.24 165.248 146.24C163.84 146.24 162.56 146.16 161.408 146V114.752C162.24 114.528 164.8 114.032 169.088 113.264C170.208 113.104 171.216 113.024 172.112 113.024C179.952 113.024 183.696 119.088 183.344 131.216ZM168.128 121.568L168.224 139.472C170.144 139.152 171.824 138.416 173.264 137.264C175.696 135.408 176.96 132.704 177.056 129.152C177.216 123.68 175.344 120.944 171.44 120.944C170.352 120.944 169.248 121.152 168.128 121.568ZM208.985 148.688L199.625 147.536L199.961 144.992C195.577 145.088 192.009 144.656 189.257 143.696C185.257 142.288 183.417 139.856 183.737 136.4C184.185 131.568 187.833 129.152 194.681 129.152C196.921 129.152 199.273 129.408 201.737 129.92C201.801 127.68 201.609 125.856 201.161 124.448C200.521 122.528 199.417 121.584 197.849 121.616C195.417 121.68 194.217 123.696 194.249 127.664L186.857 127.04C187.145 123.488 187.945 120.608 189.257 118.4C191.081 115.2 193.833 113.6 197.513 113.6C201.513 113.6 204.489 115.36 206.441 118.88C207.785 121.312 208.489 124.192 208.553 127.52L208.985 148.688ZM201.113 134.912C198.937 134.464 196.969 134.24 195.209 134.24C192.041 134.24 190.425 135.04 190.361 136.64C190.265 138.72 192.025 139.76 195.641 139.76C197.241 139.76 198.969 139.568 200.825 139.184L201.113 134.912ZM234.472 135.68C234.056 138.656 233.064 141.312 231.496 143.648C229.32 146.848 226.472 148.448 222.952 148.448C222.472 148.448 221.992 148.416 221.512 148.352C215.688 147.648 212.696 143.392 212.536 135.584L219.88 134.672C219.848 135.088 219.832 135.488 219.832 135.872C219.832 138.624 220.824 140.144 222.808 140.432C225.72 140.88 227.368 137.952 227.752 131.648C225.256 132.512 223.048 132.944 221.128 132.944C215.176 132.944 212.2 129.088 212.2 121.376C212.2 119.008 212.472 116.608 213.016 114.176L220.792 114.56C219.896 117.568 219.448 120.24 219.448 122.576C219.448 123.472 219.528 124.272 219.688 124.976C219.976 126.288 220.984 126.944 222.712 126.944C224.376 126.944 226.072 126.512 227.8 125.648L227.704 114.944L235.96 114.224C235.832 117.2 235.688 119.952 235.528 122.48C235.176 128.56 234.824 132.96 234.472 135.68Z" fill="white"/>
<defs>
<linearGradient id="paint0_linear_825_6056" x1="262.116" y1="225.536" x2="193.338" y2="225.536" gradientUnits="userSpaceOnUse">
<stop stop-color="#BDDB8C"/>
<stop offset="0.3" stop-color="#ADD694"/>
<stop offset="0.52" stop-color="#88CB9B"/>
<stop offset="0.74" stop-color="#71C491"/>
</linearGradient>
<linearGradient id="paint1_linear_825_6056" x1="144.138" y1="487.463" x2="144.303" y2="428.296" gradientUnits="userSpaceOnUse">
<stop stop-color="#212E5D"/>
<stop offset="1" stop-color="#242F3D"/>
</linearGradient>
<linearGradient id="paint2_linear_825_6056" x1="144.245" y1="447.509" x2="144.31" y2="424.09" gradientUnits="userSpaceOnUse">
<stop stop-color="#BDDB8C"/>
<stop offset="0.54" stop-color="#ADD694"/>
<stop offset="1" stop-color="#88CB9B"/>
</linearGradient>
<linearGradient id="paint3_linear_825_6056" x1="74.4853" y1="167.619" x2="114.46" y2="167.731" gradientUnits="userSpaceOnUse">
<stop stop-color="#182649"/>
<stop offset="0.44" stop-color="#273861"/>
<stop offset="0.79" stop-color="#344A7B"/>
</linearGradient>
<linearGradient id="paint4_linear_825_6056" x1="217.992" y1="175.347" x2="178.018" y2="175.347" gradientUnits="userSpaceOnUse">
<stop offset="0.21" stop-color="#344A7B"/>
<stop offset="0.56" stop-color="#273861"/>
<stop offset="1" stop-color="#182649"/>
</linearGradient>
<linearGradient id="paint5_linear_825_6056" x1="41.1756" y1="310.684" x2="223.032" y2="285.29" gradientUnits="userSpaceOnUse">
<stop stop-color="#4AB087"/>
<stop offset="0.26" stop-color="#71C491"/>
<stop offset="0.48" stop-color="#88CB9B"/>
<stop offset="0.7" stop-color="#ADD694"/>
<stop offset="1" stop-color="#BDDB8C"/>
</linearGradient>
<linearGradient id="paint6_linear_825_6056" x1="106.346" y1="233.402" x2="200.967" y2="134.676" gradientUnits="userSpaceOnUse">
<stop stop-color="#D65E92"/>
<stop offset="0.26" stop-color="#ED889C"/>
<stop offset="0.48" stop-color="#F6A0A1"/>
<stop offset="0.7" stop-color="#FAB397"/>
<stop offset="1" stop-color="#F39D98"/>
</linearGradient>
<linearGradient id="paint7_linear_825_6056" x1="33.3724" y1="227.104" x2="94.2822" y2="227.274" gradientUnits="userSpaceOnUse">
<stop stop-color="#BDDB8C"/>
<stop offset="0.3" stop-color="#ADD694"/>
<stop offset="0.52" stop-color="#88CB9B"/>
<stop offset="0.74" stop-color="#71C491"/>
</linearGradient>
<linearGradient id="paint8_linear_825_6056" x1="128.52" y1="334.458" x2="166.462" y2="338.252" gradientUnits="userSpaceOnUse">
<stop stop-color="#242F3D"/>
<stop offset="1" stop-color="#212E5D"/>
</linearGradient>
<linearGradient id="paint9_linear_825_6056" x1="130.161" y1="342.267" x2="164.304" y2="342.363" gradientUnits="userSpaceOnUse">
<stop stop-color="#DE7C6B"/>
<stop offset="0.58" stop-color="#F39D98"/>
<stop offset="0.92" stop-color="#FAB397"/>
</linearGradient>
<linearGradient id="paint10_linear_825_6056" x1="138.817" y1="322.106" x2="123.08" y2="322.062" gradientUnits="userSpaceOnUse">
<stop stop-color="white"/>
<stop offset="0.41" stop-color="#F8F9F9"/>
<stop offset="0.99" stop-color="#E6E7E8"/>
<stop offset="1" stop-color="#E6E7E8"/>
</linearGradient>
<linearGradient id="paint11_linear_825_6056" x1="162.43" y1="322.172" x2="146.691" y2="322.128" gradientUnits="userSpaceOnUse">
<stop stop-color="white"/>
<stop offset="0.41" stop-color="#F8F9F9"/>
<stop offset="0.99" stop-color="#E6E7E8"/>
<stop offset="1" stop-color="#E6E7E8"/>
</linearGradient>
<linearGradient id="paint12_linear_825_6056" x1="110.663" y1="280.355" x2="183.888" y2="252.382" gradientUnits="userSpaceOnUse">
<stop stop-color="#E6E7E8"/>
<stop offset="0.22" stop-color="#F0F1F1"/>
<stop offset="0.59" stop-color="#FBFBFC"/>
<stop offset="1" stop-color="white"/>
</linearGradient>
<linearGradient id="paint13_linear_825_6056" x1="122.436" y1="267.801" x2="164.835" y2="267.919" gradientUnits="userSpaceOnUse">
<stop stop-color="#242F3D"/>
<stop offset="1" stop-color="#212E5D"/>
</linearGradient>
<linearGradient id="paint14_linear_825_6056" x1="146.928" y1="258.24" x2="158.404" y2="258.272" gradientUnits="userSpaceOnUse">
<stop stop-color="#E6E7E8"/>
<stop offset="0.22" stop-color="#F0F1F1"/>
<stop offset="0.59" stop-color="#FBFBFC"/>
<stop offset="1" stop-color="white"/>
</linearGradient>
<linearGradient id="paint15_linear_825_6056" x1="379.016" y1="-36.2526" x2="21.6206" y2="175.721" gradientUnits="userSpaceOnUse">
<stop stop-color="#F6A2B0"/>
<stop offset="1" stop-color="#F37065"/>
</linearGradient>
</defs>
</svg>
