<svg width="156" height="146" viewBox="0 0 156 146" fill="none" xmlns="http://www.w3.org/2000/svg">
<path d="M66.5886 106.584C66.5886 106.584 110.475 134.079 141.547 98.7351C172.619 63.3917 141.339 20.7079 141.339 20.7079C141.339 20.7079 111.943 -18.063 65.8142 15.0379C57.393 20.494 8.24161 71.5007 66.5886 106.584Z" fill="url(#paint0_linear_980_1390)"/>
<mask id="mask0_980_1390" style="mask-type:luminance" maskUnits="userSpaceOnUse" x="38" y="1" width="118" height="116">
<path d="M66.5886 106.584C66.5886 106.584 110.475 134.079 141.547 98.7351C172.619 63.3917 141.339 20.7079 141.339 20.7079C141.339 20.7079 111.943 -18.063 65.8142 15.0379C57.393 20.494 8.24161 71.5007 66.5886 106.584Z" fill="white"/>
</mask>
<g mask="url(#mask0_980_1390)">
<path d="M143.101 84.1525C142.72 85.2622 141.46 89.3543 142.621 92.7297C142.698 92.9477 142.855 93.1278 143.061 93.2326C145.43 94.4579 148.106 94.14 149.378 93.8799C149.584 93.8373 149.768 93.7224 149.896 93.5559C150.024 93.3894 150.089 93.1824 150.077 92.9725C149.931 90.4884 150.159 87.9965 150.754 85.5801C150.8 85.3993 150.789 85.2085 150.721 85.0344C150.654 84.8604 150.534 84.7117 150.378 84.6091C148.066 83.1122 145.055 82.8405 143.523 83.667C143.327 83.7706 143.176 83.9437 143.101 84.1525Z" fill="#FAD8A1"/>
<path opacity="0.5" d="M145.459 92.9783C145.274 93.7188 145.333 94.499 145.627 95.2035" stroke="#402312" stroke-width="0.37" stroke-miterlimit="10" stroke-linecap="round"/>
<path opacity="0.5" d="M146.516 92.9553C146.321 93.6703 146.374 94.4301 146.666 95.1112" stroke="#402312" stroke-width="0.37" stroke-miterlimit="10" stroke-linecap="round"/>
<path opacity="0.5" d="M148.592 89.4236C148.592 89.4236 150.233 90.2212 151.534 89.7241" stroke="#402312" stroke-width="0.37" stroke-miterlimit="10" stroke-linecap="round"/>
<path opacity="0.5" d="M148.748 88.3718C149.623 88.7719 150.601 88.8891 151.545 88.7071" stroke="#402312" stroke-width="0.37" stroke-miterlimit="10" stroke-linecap="round"/>
<path opacity="0.5" d="M146.616 82.0488C146.616 82.0488 146.038 83.6094 146.448 84.4012" stroke="#402312" stroke-width="0.37" stroke-miterlimit="10" stroke-linecap="round"/>
<path opacity="0.5" d="M147.552 82.2798C147.552 82.2798 146.875 83.6438 147.407 84.5628" stroke="#402312" stroke-width="0.37" stroke-miterlimit="10" stroke-linecap="round"/>
<path opacity="0.5" d="M140.662 88.6492C141.528 89.0956 142.527 89.2087 143.471 88.9671" stroke="#402312" stroke-width="0.37" stroke-miterlimit="10" stroke-linecap="round"/>
<path opacity="0.5" d="M140.627 87.6206C141.034 87.8945 141.496 88.0753 141.98 88.1502C142.465 88.2251 142.96 88.1923 143.43 88.0541" stroke="#402312" stroke-width="0.37" stroke-miterlimit="10" stroke-linecap="round"/>
</g>
<path d="M114.201 74.7838C114.201 74.7838 123.102 50.867 133.274 45.6652C134.105 45.2424 135.04 45.0687 135.966 45.1651C136.893 45.2614 137.772 45.6237 138.498 46.2082C139.224 46.7927 139.765 47.5746 140.056 48.4597C140.348 49.3447 140.377 50.2951 140.141 51.1965C139.603 53.2945 138.407 56.0515 136.158 59.6523C136.158 59.6523 145.169 41.9315 149.498 48.9597C153.48 55.4215 141.406 66.8771 141.406 66.8771C141.406 66.8771 149.631 59.3633 150.076 65.1836C150.51 70.894 132.91 85.1239 125.986 87.4127C119.062 89.7015 111.409 85.0719 114.201 74.7838Z" fill="url(#paint1_linear_980_1390)"/>
<path d="M85.8466 126.785L88.0718 126.831L84.2167 103.18L82.2227 104.041L85.8466 126.785Z" fill="url(#paint2_linear_980_1390)"/>
<path d="M75.9041 123.155C75.9041 123.155 53.6576 137.726 41.9131 135.807C40.9575 135.644 40.0692 135.209 39.355 134.553C38.6407 133.898 38.1309 133.05 37.8868 132.112C37.6426 131.174 37.6745 130.185 37.9787 129.265C38.2828 128.344 38.8462 127.531 39.6012 126.923C41.3351 125.501 44.0401 123.912 48.161 122.299C48.161 122.299 29.6657 131.599 30.365 123.028C31.0182 115.144 48.2188 112.994 48.2188 112.994C48.2188 112.994 36.6592 114.242 39.9017 109.064C43.0748 104.006 66.6275 102.937 73.8465 105.295C81.0654 107.653 84.5911 116.283 75.9041 123.155Z" fill="url(#paint3_linear_980_1390)"/>
<path d="M110.951 116.772C122.755 108.541 127.489 94.936 121.526 86.3845C115.562 77.8331 101.16 77.5734 89.3563 85.8045C77.5529 94.0356 72.8186 107.641 78.782 116.192C84.7453 124.743 99.1481 125.003 110.951 116.772Z" fill="url(#paint4_linear_980_1390)"/>
<path d="M76.5744 110.445C83.1113 109.093 112.854 102.637 124.223 94.7936C124.706 94.46 125.301 94.3288 125.88 94.4282C126.459 94.5275 126.976 94.8496 127.321 95.3253C127.935 96.18 128.382 97.1428 128.639 98.1632C128.771 98.6746 128.72 99.2163 128.494 99.6938C128.268 100.171 127.882 100.554 127.402 100.776C110.895 108.411 94.116 112.942 77.0194 113.798C76.6847 113.811 76.3569 113.701 76.0987 113.487C75.8405 113.274 75.6703 112.973 75.6207 112.642L75.5109 111.977C75.4563 111.634 75.5365 111.283 75.7347 110.997C75.9328 110.712 76.2337 110.514 76.5744 110.445Z" fill="url(#paint5_linear_980_1390)"/>
<path d="M106.92 88.6902C106.92 88.6902 105.215 88.9676 104.429 89.1583L100.886 126.109C100.886 126.109 100.042 130.056 101.55 129.975C103.059 129.894 103.036 128.958 103.4 125.207C103.764 121.456 106.92 88.6902 106.92 88.6902Z" fill="url(#paint6_linear_980_1390)"/>
<path d="M102.55 125.646L86.6907 126.686C86.2844 126.71 85.9031 126.89 85.6263 127.188C85.3495 127.487 85.1986 127.88 85.2053 128.287L85.4365 143.743C85.4441 144.157 85.6145 144.552 85.9108 144.842C86.2071 145.132 86.6056 145.293 87.0202 145.292L103.331 145.193L102.55 125.646Z" fill="url(#paint7_linear_980_1390)"/>
<path d="M86.7305 135.084L99.8102 134.916C99.9994 134.921 100.188 134.888 100.364 134.82C100.54 134.751 100.702 134.648 100.838 134.517C100.975 134.386 101.084 134.229 101.159 134.056C101.235 133.882 101.275 133.695 101.278 133.506L101.14 125.727L86.7594 126.489C86.3437 126.497 85.9469 126.664 85.6518 126.957C85.3567 127.25 85.1861 127.646 85.1758 128.062L85.2451 133.726C85.2646 134.102 85.4314 134.455 85.7093 134.71C85.9873 134.964 86.3542 135.098 86.7305 135.084Z" fill="#8D6627"/>
<path d="M102.671 125.621L101.319 125.642C100.572 125.654 99.9763 126.269 99.988 127.016L100.254 143.937C100.266 144.684 100.881 145.28 101.627 145.268L102.98 145.247C103.727 145.235 104.323 144.62 104.311 143.873L104.045 126.952C104.033 126.205 103.418 125.609 102.671 125.621Z" fill="url(#paint8_linear_980_1390)"/>
<path d="M115.375 80.188C115.528 80.2545 115.664 80.3517 115.777 80.4737C115.89 80.5956 115.976 80.7396 116.03 80.8966C116.085 81.0535 116.106 81.22 116.092 81.3855C116.079 81.5511 116.032 81.712 115.953 81.8584L103.48 101.411C103.371 101.648 103.179 101.836 102.941 101.942C102.703 102.049 102.435 102.065 102.186 101.989L95.5044 96.7876L109.613 77.3328L115.375 80.188ZM73.8359 104.631L74.7723 111.717C74.787 111.888 74.8416 112.053 74.9317 112.199C75.0217 112.345 75.1447 112.468 75.2908 112.558C75.4369 112.647 75.602 112.702 75.7729 112.716C75.9438 112.731 76.1158 112.705 76.275 112.642L96.7991 106.336C97.0513 106.216 97.2539 106.012 97.372 105.759C97.4902 105.505 97.5165 105.219 97.4464 104.949L95.4928 96.6315L73.8359 104.631Z" fill="url(#paint9_linear_980_1390)"/>
<path d="M93.5701 101.817C117.491 87.078 126.913 58.9503 114.615 38.9921C102.318 19.0338 72.9571 14.8028 49.0366 29.5419C25.116 44.2809 15.6938 72.4086 27.9914 92.3668C40.289 112.325 69.6496 116.556 93.5701 101.817Z" fill="url(#paint10_linear_980_1390)"/>
<path d="M47.4796 28.3141C47.4796 28.3141 61.7672 17.4365 79.8464 17.7428C79.8464 17.7428 93.3133 16.2863 101.671 1.20106C101.775 1.01718 101.927 0.864265 102.109 0.757883C102.292 0.651502 102.5 0.595459 102.711 0.595459C102.923 0.595459 103.13 0.651502 103.313 0.757883C103.496 0.864265 103.647 1.01718 103.752 1.20106C104.908 3.24133 105.965 7.08489 102.497 12.1827C102.463 12.2432 102.446 12.3118 102.447 12.3814C102.448 12.451 102.468 12.5189 102.505 12.5781C102.542 12.6372 102.594 12.6854 102.655 12.7175C102.717 12.7496 102.786 12.7645 102.856 12.7607C104.207 12.6325 105.524 12.2646 106.746 11.674C106.959 11.5638 107.2 11.5206 107.438 11.55C107.676 11.5793 107.9 11.68 108.08 11.8387C108.26 11.9974 108.388 12.2067 108.447 12.4393C108.506 12.6719 108.493 12.9169 108.41 13.1421C107.816 14.7359 106.95 16.2144 105.85 17.5116C105.809 17.5584 105.781 17.6141 105.766 17.6741C105.752 17.7342 105.752 17.7968 105.767 17.8567C105.782 17.9167 105.81 17.9722 105.851 18.0188C105.892 18.0653 105.943 18.1015 106 18.1243C106.78 18.4249 108.312 18.9046 109.612 18.5867C109.806 18.5371 110.009 18.5385 110.201 18.5906C110.394 18.6427 110.57 18.7438 110.712 18.884C110.854 19.0243 110.957 19.1989 111.011 19.3909C111.066 19.5829 111.07 19.7857 111.023 19.9796C110.773 21.2409 110.117 22.3857 109.156 23.2394C109.109 23.2799 109.073 23.3311 109.05 23.3887C109.028 23.4462 109.02 23.5083 109.027 23.5697C109.033 23.6312 109.055 23.69 109.09 23.7412C109.124 23.7924 109.171 23.8344 109.225 23.8636C109.62 24.1064 110.061 24.266 110.52 24.3326C110.979 24.3992 111.447 24.3714 111.895 24.2509C111.921 24.2434 111.949 24.2437 111.975 24.2517C112.001 24.2597 112.024 24.2751 112.041 24.296C112.058 24.3169 112.069 24.3424 112.072 24.3693C112.075 24.3962 112.07 24.4233 112.057 24.4474C111.028 26.5975 107.711 28.9788 105.306 28.8978L102.625 29.0019C102.625 29.0019 68.1597 31.3832 63.4665 53.566C63.4665 53.566 32.9665 49.3699 26.418 89.5337C26.2446 90.603 24.3315 93.0016 21.4994 93.0016C21.4564 92.9916 21.4168 92.9704 21.3847 92.94C21.3526 92.9097 21.3292 92.8714 21.3168 92.829C21.3045 92.7867 21.3036 92.7417 21.3144 92.6989C21.3251 92.6561 21.3471 92.6169 21.378 92.5854C22.1756 91.8398 22.1698 90.2735 22.112 89.5106C22.1081 89.4661 22.0928 89.4233 22.0675 89.3865C22.0423 89.3496 22.008 89.3199 21.9679 89.3001C21.9278 89.2804 21.8833 89.2713 21.8387 89.2737C21.7941 89.2762 21.7509 89.2901 21.7132 89.3141C20.4302 90.133 18.8985 90.4708 17.3899 90.2677C17.1802 90.2412 16.9806 90.1618 16.8099 90.0371C16.6393 89.9123 16.5031 89.7463 16.4141 89.5545C16.3251 89.3627 16.2863 89.1515 16.3013 88.9406C16.3163 88.7297 16.3846 88.5261 16.4998 88.3488C17.3495 86.9964 17.3032 84.9908 17.2397 84.1874C17.2374 84.1475 17.2255 84.1087 17.205 84.0743C17.1845 84.04 17.156 84.0111 17.122 83.9901C17.088 83.9691 17.0493 83.9566 17.0095 83.9538C16.9696 83.9509 16.9296 83.9577 16.8929 83.9735C15.0454 84.7562 13.0669 85.1836 11.0611 85.2335C10.813 85.2369 10.5698 85.1653 10.3631 85.0281C10.1565 84.8909 9.99613 84.6945 9.90304 84.4646C9.80995 84.2347 9.78848 83.982 9.84145 83.7397C9.89441 83.4973 10.0193 83.2767 10.1999 83.1066C11.3584 81.9254 12.2752 80.5295 12.899 78.9971C12.9177 78.9515 12.923 78.9015 12.9143 78.8529C12.9056 78.8044 12.8833 78.7593 12.85 78.723C12.8167 78.6866 12.7737 78.6605 12.7261 78.6477C12.6785 78.6348 12.6282 78.6357 12.5811 78.6503C5.76098 80.7426 2.02146 78.1186 0.310638 76.1939C0.166588 76.0329 0.0678965 75.8365 0.0246649 75.6248C-0.0185668 75.4131 -0.00478841 75.1938 0.0645897 74.9892C0.133968 74.7846 0.256456 74.6021 0.419521 74.4604C0.582586 74.3186 0.780373 74.2228 0.99265 74.1826C12.7545 71.9747 19.5342 65.7556 22.9559 61.467C24.4534 59.5527 25.625 57.4047 26.4238 55.1092C32.7122 37.5271 47.4796 28.3141 47.4796 28.3141Z" fill="url(#paint11_linear_980_1390)"/>
<path d="M91.2335 82.5403C91.0633 83.6952 90.6708 84.8062 90.0775 85.8117C89.7744 86.3262 89.4095 86.8018 88.991 87.2277C88.5726 87.6482 88.1116 88.024 87.6154 88.349C87.1345 88.6839 86.6347 88.9908 86.1184 89.268C85.5799 89.5297 85.0111 89.7239 84.4249 89.846C83.2777 90.1104 82.0807 90.0645 80.957 89.713C82.0689 89.6618 83.1672 89.4476 84.2168 89.0772C85.2341 88.6976 86.1887 88.1676 87.0489 87.5051C87.9636 86.9305 88.7729 86.2032 89.4418 85.355C90.1088 84.463 90.7077 83.5221 91.2335 82.5403Z" fill="#DB9B47"/>
<path d="M82.7893 81.1358C90.9908 86.0602 96.8168 85.8926 104.244 80.9393C115.197 73.6221 117.011 57.115 108.29 44.0584C99.568 31.0019 83.8181 26.6439 72.6746 33.6548C64.554 38.7699 63.6292 48.7343 63.5714 52.3698C63.5691 52.5204 63.531 52.6682 63.4602 52.8012C63.3893 52.9341 63.2878 53.0482 63.1641 53.1341C63.0404 53.2199 62.898 53.2751 62.7487 53.295C62.5994 53.3148 62.4475 53.2988 62.3057 53.2483C54.9595 50.659 46.8447 51.4797 40.799 55.8781C30.1469 63.6288 29.0025 80.1995 38.2386 92.8688C47.4747 105.538 63.5946 109.567 74.2467 101.816C81.4888 96.5968 84.5752 90.5338 82.7893 81.1358Z" fill="url(#paint12_linear_980_1390)"/>
<path d="M83.3204 78.4655L79.8063 80.7139C79.2805 81.0505 78.8516 81.5184 78.562 82.0715C78.2723 82.6246 78.132 83.2436 78.1547 83.8675C78.1775 84.4914 78.3626 85.0986 78.6918 85.6291C79.0209 86.1596 79.4828 86.595 80.0317 86.8925L88.7708 91.6088C88.9388 91.6986 89.1285 91.74 89.3187 91.7283C89.5089 91.7167 89.6921 91.6524 89.8479 91.5428C90.0037 91.4331 90.126 91.2823 90.2012 91.1072C90.2763 90.9321 90.3014 90.7396 90.2735 90.5511L88.7997 80.9393C88.7094 80.3487 88.473 79.7901 88.1119 79.3142C87.7507 78.8383 87.2763 78.4602 86.7318 78.2144C86.1873 77.9686 85.59 77.8628 84.9942 77.9066C84.3984 77.9505 83.8231 78.1426 83.3204 78.4655Z" fill="url(#paint13_linear_980_1390)"/>
<path d="M86.0826 73.1999C92.719 73.1999 98.0988 67.82 98.0988 61.1837C98.0988 54.5473 92.719 49.1675 86.0826 49.1675C79.4462 49.1675 74.0664 54.5473 74.0664 61.1837C74.0664 67.82 79.4462 73.1999 86.0826 73.1999Z" fill="white"/>
<path d="M84.216 71.7552C88.5572 71.7552 92.0765 68.2359 92.0765 63.8947C92.0765 59.5535 88.5572 56.0342 84.216 56.0342C79.8747 56.0342 76.3555 59.5535 76.3555 63.8947C76.3555 68.2359 79.8747 71.7552 84.216 71.7552Z" fill="url(#paint14_radial_980_1390)"/>
<path opacity="0.5" d="M84.2051 59.0282C84.8335 58.925 85.4776 58.9763 86.0818 59.1777C86.686 59.3791 87.2321 59.7245 87.673 60.1841" stroke="white" stroke-width="1.42" stroke-miterlimit="10" stroke-linecap="round"/>
<path d="M62.6002 89.6323C69.2365 89.6323 74.6164 84.2524 74.6164 77.6161C74.6164 70.9797 69.2365 65.5999 62.6002 65.5999C55.9638 65.5999 50.584 70.9797 50.584 77.6161C50.584 84.2524 55.9638 89.6323 62.6002 89.6323Z" fill="white"/>
<path d="M61.1554 88.21C65.4967 88.21 69.016 84.6908 69.016 80.3495C69.016 76.0083 65.4967 72.489 61.1554 72.489C56.8142 72.489 53.2949 76.0083 53.2949 80.3495C53.2949 84.6908 56.8142 88.21 61.1554 88.21Z" fill="url(#paint15_radial_980_1390)"/>
<path opacity="0.5" d="M61.7227 75.5177C62.3592 75.4936 62.9921 75.6252 63.5662 75.9012C64.1403 76.1772 64.6384 76.5892 65.0171 77.1014" stroke="white" stroke-width="1.42" stroke-miterlimit="10" stroke-linecap="round"/>
<path d="M68.8582 46.7344C70.0142 44.6017 74.5513 42.3302 80.6895 41.3766C81.7183 41.2147 82.9725 40.9604 83.406 42.0933C84.6197 45.2721 80.8282 45.4455 80.0537 45.5611C77.9209 45.8675 76.0541 46.4223 69.5056 49.029C68.9391 49.2371 68.4768 47.428 68.8582 46.7344Z" fill="#823232"/>
<path d="M57.0738 55.5372C54.6521 55.4678 50.4039 58.2479 46.4968 63.0509C45.8436 63.8601 44.9882 64.8137 45.7569 65.7616C47.8955 68.4088 49.9473 65.2125 50.4328 64.6057C51.7679 62.918 53.184 61.5828 58.7037 57.2133C59.1776 56.8607 57.8656 55.5603 57.0738 55.5372Z" fill="#823232"/>
<path d="M68.7256 15.8876C68.7256 15.8876 71.3438 19.2457 70.5462 6.3741C69.7197 -6.95411 46.7277 3.40329 35.5437 12.1944C23.9842 21.3033 8.58099 35.0535 19.5799 41.9141C21.3139 42.9891 24.4697 43.5151 26.4752 43.8387L29.4634 44.3242C29.4634 44.3242 41.0288 22.2454 68.7256 15.8876Z" fill="url(#paint16_linear_980_1390)"/>
<path d="M79.46 17.4483C80.4079 17.402 80.2692 18.0898 79.408 18.4886C76.2291 19.9683 65.0048 24.0661 50.9021 34.4755C32.4703 48.0812 28.3146 54.543 26.8581 54.5372C25.4016 54.5314 28.4013 49.74 30.7017 46.0236C30.7017 46.0236 45.2263 15.119 69.7558 18.5291C69.7558 18.5291 72.7844 17.7893 79.46 17.4483Z" fill="url(#paint17_linear_980_1390)"/>
<path d="M69.9292 18.5466C69.9292 18.5466 70.6574 18.772 70.1199 15.6567C69.8367 14.0152 63.3633 14.8937 59.4099 16.3907C42.6138 22.7485 29.1874 37.3598 27.7598 44.0644C27.7598 44.0644 29.4937 47.6016 31.0658 45.6885C32.6379 43.7754 45.9603 21.0203 69.9292 18.5466Z" fill="url(#paint18_linear_980_1390)"/>
<defs>
<linearGradient id="paint0_linear_980_1390" x1="93.442" y1="72.3781" x2="276.619" y2="-64.5154" gradientUnits="userSpaceOnUse">
<stop stop-color="#603917"/>
<stop offset="0.58" stop-color="#8B6339"/>
<stop offset="0.74" stop-color="#8F673D"/>
<stop offset="0.9" stop-color="#9B7348"/>
<stop offset="1" stop-color="#A67D52"/>
</linearGradient>
<linearGradient id="paint1_linear_980_1390" x1="144.803" y1="45.2933" x2="116.064" y2="86.9534" gradientUnits="userSpaceOnUse">
<stop stop-color="#913B35"/>
<stop offset="0.21" stop-color="#97413C"/>
<stop offset="0.47" stop-color="#A6514C"/>
<stop offset="0.64" stop-color="#A9554A"/>
<stop offset="0.81" stop-color="#B26145"/>
<stop offset="0.98" stop-color="#C2753D"/>
<stop offset="1" stop-color="#C4783C"/>
</linearGradient>
<linearGradient id="paint2_linear_980_1390" x1="86.2801" y1="118.283" x2="70.1256" y2="75.4198" gradientUnits="userSpaceOnUse">
<stop stop-color="#8D6627"/>
<stop offset="0.57" stop-color="#A57D2C"/>
<stop offset="0.75" stop-color="#AD822F"/>
<stop offset="1" stop-color="#B48631"/>
</linearGradient>
<linearGradient id="paint3_linear_980_1390" x1="41.8858" y1="143.871" x2="69.322" y2="105.311" gradientUnits="userSpaceOnUse">
<stop stop-color="#913B35"/>
<stop offset="0.58" stop-color="#A6514C"/>
<stop offset="0.71" stop-color="#A9554A"/>
<stop offset="0.85" stop-color="#B26145"/>
<stop offset="0.98" stop-color="#C2753D"/>
<stop offset="1" stop-color="#C4783C"/>
</linearGradient>
<linearGradient id="paint4_linear_980_1390" x1="126.304" y1="84.1831" x2="83.4039" y2="114.1" gradientUnits="userSpaceOnUse">
<stop stop-color="#CAB19C"/>
<stop offset="0.47" stop-color="#F7E0CF"/>
<stop offset="1" stop-color="#FAF0DB"/>
</linearGradient>
<linearGradient id="paint5_linear_980_1390" x1="105.268" y1="107.176" x2="45.7081" y2="66.1708" gradientUnits="userSpaceOnUse">
<stop stop-color="#603917"/>
<stop offset="0.58" stop-color="#8B6339"/>
<stop offset="0.74" stop-color="#8F673D"/>
<stop offset="0.9" stop-color="#9B7348"/>
<stop offset="1" stop-color="#A67D52"/>
</linearGradient>
<linearGradient id="paint6_linear_980_1390" x1="109.425" y1="119.552" x2="95.134" y2="85.8392" gradientUnits="userSpaceOnUse">
<stop stop-color="#8D6627"/>
<stop offset="0.57" stop-color="#A57D2C"/>
<stop offset="0.75" stop-color="#AD822F"/>
<stop offset="1" stop-color="#B48631"/>
</linearGradient>
<linearGradient id="paint7_linear_980_1390" x1="98.9564" y1="146.717" x2="84.9079" y2="126.859" gradientUnits="userSpaceOnUse">
<stop stop-color="#8D6627"/>
<stop offset="0.57" stop-color="#A57D2C"/>
<stop offset="0.75" stop-color="#AD822F"/>
<stop offset="1" stop-color="#B48631"/>
</linearGradient>
<linearGradient id="paint8_linear_980_1390" x1="105.844" y1="151.332" x2="105.498" y2="133.556" gradientUnits="userSpaceOnUse">
<stop stop-color="#8D6627"/>
<stop offset="0.49" stop-color="#8D6627"/>
<stop offset="1" stop-color="#7A5522"/>
</linearGradient>
<linearGradient id="paint9_linear_980_1390" x1="115.334" y1="84.8701" x2="72.9635" y2="114.323" gradientUnits="userSpaceOnUse">
<stop stop-color="#0B4874"/>
<stop offset="0.54" stop-color="#283C8E"/>
<stop offset="0.73" stop-color="#254E9D"/>
<stop offset="1" stop-color="#2163AE"/>
</linearGradient>
<linearGradient id="paint10_linear_980_1390" x1="114.615" y1="38.992" x2="27.9914" y2="92.3668" gradientUnits="userSpaceOnUse">
<stop stop-color="#CAB19C"/>
<stop offset="0.47" stop-color="#F7E0CF"/>
<stop offset="1" stop-color="#FAF0DB"/>
</linearGradient>
<linearGradient id="paint11_linear_980_1390" x1="108.074" y1="8.08133" x2="5.8315" y2="84.763" gradientUnits="userSpaceOnUse">
<stop stop-color="#B99F95"/>
<stop offset="0.47" stop-color="#F3D3B9"/>
<stop offset="0.49" stop-color="#F3D4BA"/>
<stop offset="1" stop-color="#F7E0CF"/>
</linearGradient>
<linearGradient id="paint12_linear_980_1390" x1="37.5127" y1="91.7953" x2="108.543" y2="44.3699" gradientUnits="userSpaceOnUse">
<stop stop-color="#C4783C"/>
<stop offset="0.23" stop-color="#B66544"/>
<stop offset="0.44" stop-color="#A6514C"/>
<stop offset="0.68" stop-color="#A34E48"/>
<stop offset="0.89" stop-color="#99433D"/>
<stop offset="1" stop-color="#913B35"/>
</linearGradient>
<linearGradient id="paint13_linear_980_1390" x1="91.8215" y1="92.4838" x2="80.5479" y2="93.7867" gradientUnits="userSpaceOnUse">
<stop stop-color="#F8982C"/>
<stop offset="0.21" stop-color="#F99E31"/>
<stop offset="0.49" stop-color="#FBAE40"/>
<stop offset="0.69" stop-color="#FDBE4F"/>
<stop offset="1" stop-color="#FDBE4F"/>
</linearGradient>
<radialGradient id="paint14_radial_980_1390" cx="0" cy="0" r="1" gradientUnits="userSpaceOnUse" gradientTransform="translate(81.6113 65.3312) rotate(148.543) scale(7.83257 7.83257)">
<stop stop-color="#321D27"/>
<stop offset="0.15" stop-color="#2C1B25"/>
<stop offset="0.6" stop-color="#1F1722"/>
<stop offset="1" stop-color="#1A1521"/>
</radialGradient>
<radialGradient id="paint15_radial_980_1390" cx="0" cy="0" r="1" gradientUnits="userSpaceOnUse" gradientTransform="translate(67.3684 76.102) rotate(155.225) scale(7.87819 7.87819)">
<stop stop-color="#321D27"/>
<stop offset="0.15" stop-color="#2C1B25"/>
<stop offset="0.6" stop-color="#1F1722"/>
<stop offset="1" stop-color="#1A1521"/>
</radialGradient>
<linearGradient id="paint16_linear_980_1390" x1="70.9493" y1="5.27235" x2="12.28" y2="24.4171" gradientUnits="userSpaceOnUse">
<stop stop-color="#0B4874"/>
<stop offset="0.54" stop-color="#283C8E"/>
<stop offset="0.73" stop-color="#254E9D"/>
<stop offset="1" stop-color="#2163AE"/>
</linearGradient>
<linearGradient id="paint17_linear_980_1390" x1="80.2008" y1="16.3977" x2="21.0758" y2="35.6911" gradientUnits="userSpaceOnUse">
<stop stop-color="#0B4874"/>
<stop offset="0.54" stop-color="#283C8E"/>
<stop offset="0.73" stop-color="#254E9D"/>
<stop offset="1" stop-color="#2163AE"/>
</linearGradient>
<linearGradient id="paint18_linear_980_1390" x1="70.3013" y1="14.6584" x2="23.7338" y2="29.8541" gradientUnits="userSpaceOnUse">
<stop stop-color="#1A1521"/>
<stop offset="0.4" stop-color="#1F1722"/>
<stop offset="0.85" stop-color="#2C1B25"/>
<stop offset="1" stop-color="#321D27"/>
</linearGradient>
</defs>
</svg>
