<svg width="44" height="44" viewBox="0 0 44 44" fill="none" xmlns="http://www.w3.org/2000/svg">
<path d="M33.9167 30.8C32.6333 30.8 31.7167 29.7 31.7167 28.6C31.7167 27.3167 32.8167 26.4 33.9167 26.4C35.0167 26.4 36.1167 27.5 36.1167 28.6C36.3 29.7 35.2 30.8 33.9167 30.8ZM33.9167 22C30.4333 22 27.5 24.9333 27.5 28.4167C27.5 33.1833 33.9167 40.3333 33.9167 40.3333C33.9167 40.3333 40.3333 33.1833 40.3333 28.4167C40.3333 24.9333 37.4 22 33.9167 22ZM23.8333 29.3333H12.8333C12.8333 28.3609 12.447 27.4282 11.7594 26.7406C11.0718 26.053 10.1391 25.6667 9.16667 25.6667V18.3333C10.1391 18.3333 11.0718 17.947 11.7594 17.2594C12.447 16.5718 12.8333 15.6391 12.8333 14.6667H31.1667C31.1667 15.6391 31.553 16.5718 32.2406 17.2594C32.9282 17.947 33.8609 18.3333 34.8333 18.3333C34.8333 18.3333 36.6667 18.3333 38.5 19.4333V11H5.5V33H24.75C24.3833 31.7167 24.0167 30.6167 23.8333 29.3333Z" fill="#FFC648"/>
<path d="M20.1667 17.875H24.75L24.2917 18.7917H22.7975C23.0175 19.0575 23.1825 19.3692 23.2787 19.7083H24.75L24.2917 20.625H23.375C23.318 21.1964 23.0698 21.7318 22.6705 22.1444C22.2712 22.557 21.7442 22.8227 21.175 22.8983V22.9167H20.8542L23.6042 26.125H22.4583L19.7083 22.9167V22H20.8542C21.6608 22 22.33 21.4042 22.44 20.625H19.7083L20.1667 19.7083H22.3025C22.0458 19.1675 21.4958 18.7917 20.8542 18.7917H19.7083L20.1667 17.875Z" fill="#FFC648"/>
</svg>
