<svg width="40" height="40" viewBox="0 0 40 40" fill="none" xmlns="http://www.w3.org/2000/svg">
<path d="M32.5 32.5C32.5 33.605 32.061 34.6649 31.2796 35.4463C30.4982 36.2277 29.4384 36.6666 28.3333 36.6666C27.2283 36.6666 26.1685 36.2277 25.3871 35.4463C24.6057 34.6649 24.1667 33.605 24.1667 32.5C24.1667 31.3949 24.6057 30.3351 25.3871 29.5537C26.1685 28.7723 27.2283 28.3333 28.3333 28.3333C29.4384 28.3333 30.4982 28.7723 31.2796 29.5537C32.061 30.3351 32.5 31.3949 32.5 32.5ZM15.8333 32.5C15.8333 33.605 15.3943 34.6649 14.6129 35.4463C13.8315 36.2277 12.7717 36.6666 11.6667 36.6666C10.5616 36.6666 9.50179 36.2277 8.72039 35.4463C7.93899 34.6649 7.5 33.605 7.5 32.5C7.5 31.3949 7.93899 30.3351 8.72039 29.5537C9.50179 28.7723 10.5616 28.3333 11.6667 28.3333C12.7717 28.3333 13.8315 28.7723 14.6129 29.5537C15.3943 30.3351 15.8333 31.3949 15.8333 32.5Z" stroke="#F47673" stroke-width="2" stroke-linecap="round" stroke-linejoin="round"/>
<path d="M24.1668 32.5H15.8335M32.5002 32.5H33.7718C34.1385 32.5 34.3218 32.5 34.4752 32.48C35.0269 32.4113 35.54 32.1606 35.9333 31.7676C36.3266 31.3746 36.5777 30.8617 36.6468 30.31C36.6668 30.155 36.6668 29.9716 36.6668 29.605V25C36.6668 22.1268 35.5255 19.3713 33.4938 17.3397C31.4622 15.308 28.7067 14.1666 25.8335 14.1666M18.3335 9.99998H20.0002C22.3568 9.99998 23.5352 9.99998 24.2668 10.7333C25.0002 11.4633 25.0002 12.6416 25.0002 15V29.1666M3.3335 20V28.3333C3.3335 29.8916 3.3335 30.67 3.6685 31.25C3.88791 31.63 4.20348 31.9456 4.5835 32.165C5.1635 32.5 5.94183 32.5 7.50016 32.5M13.0835 13.0833L10.8335 11.5833V7.83331M3.3335 10.8333C3.3335 11.8182 3.52749 12.7935 3.9044 13.7034C4.28131 14.6134 4.83376 15.4402 5.5302 16.1366C6.22663 16.8331 7.05343 17.3855 7.96337 17.7624C8.87331 18.1393 9.84858 18.3333 10.8335 18.3333C11.8184 18.3333 12.7937 18.1393 13.7036 17.7624C14.6136 17.3855 15.4404 16.8331 16.1368 16.1366C16.8332 15.4402 17.3857 14.6134 17.7626 13.7034C18.1395 12.7935 18.3335 11.8182 18.3335 10.8333C18.3335 8.84419 17.5433 6.93654 16.1368 5.53001C14.7303 4.12349 12.8226 3.33331 10.8335 3.33331C8.84437 3.33331 6.93672 4.12349 5.5302 5.53001C4.12367 6.93654 3.3335 8.84419 3.3335 10.8333Z" stroke="#F47673" stroke-width="2" stroke-linecap="round" stroke-linejoin="round"/>
</svg>
