<svg width="44" height="44" viewBox="0 0 44 44" fill="none" xmlns="http://www.w3.org/2000/svg">
<path d="M9.1665 31.1667C9.1665 32.1391 9.55281 33.0718 10.2404 33.7594C10.9281 34.447 11.8607 34.8333 12.8332 34.8333C13.8056 34.8333 14.7383 34.447 15.4259 33.7594C16.1135 33.0718 16.4998 32.1391 16.4998 31.1667C16.4998 30.1942 16.1135 29.2616 15.4259 28.5739C14.7383 27.8863 13.8056 27.5 12.8332 27.5C11.8607 27.5 10.9281 27.8863 10.2404 28.5739C9.55281 29.2616 9.1665 30.1942 9.1665 31.1667ZM27.4998 31.1667C27.4998 32.1391 27.8861 33.0718 28.5738 33.7594C29.2614 34.447 30.194 34.8333 31.1665 34.8333C32.139 34.8333 33.0716 34.447 33.7592 33.7594C34.4469 33.0718 34.8332 32.1391 34.8332 31.1667C34.8332 30.1942 34.4469 29.2616 33.7592 28.5739C33.0716 27.8863 32.139 27.5 31.1665 27.5C30.194 27.5 29.2614 27.8863 28.5738 28.5739C27.8861 29.2616 27.4998 30.1942 27.4998 31.1667Z" stroke="#8AC48A" stroke-width="2" stroke-linecap="round" stroke-linejoin="round"/>
<path d="M9.16667 31.1667H5.5V11C5.5 10.5138 5.69315 10.0475 6.03697 9.70366C6.38079 9.35984 6.8471 9.16669 7.33333 9.16669H23.8333V20.1667H14.6667M14.6667 20.1667L18.3333 23.8334M14.6667 20.1667L18.3333 16.5M16.5 31.1667H27.5M23.8333 11H33L38.5 20.1667V31.1667H34.8333" stroke="#8AC48A" stroke-width="2" stroke-linecap="round" stroke-linejoin="round"/>
</svg>
