<svg width="120" height="120" viewBox="0 0 120 120" fill="none" xmlns="http://www.w3.org/2000/svg">
<mask id="mask0_3467_5327" style="mask-type:alpha" maskUnits="userSpaceOnUse" x="0" y="0" width="120" height="120">
<rect width="120" height="120" fill="white"/>
</mask>
<g mask="url(#mask0_3467_5327)">
<mask id="mask1_3467_5327" style="mask-type:luminance" maskUnits="userSpaceOnUse" x="2" y="2" width="131" height="117">
<path d="M121.297 59.1073C121.297 61.0846 127.751 60.441 127.564 62.3717C127.434 63.6774 128.338 65.3842 126.137 67.4547C124.561 68.947 130.95 70.0662 129.635 71.4185C128.571 72.5284 130.138 76.3524 129.952 77.0892C129.513 78.7773 125.288 83.7857 124.663 85.4086C124.039 87.0314 113.873 83.1422 113.145 84.6998C112.679 85.7164 112.212 86.7143 111.653 87.703C111.093 88.6916 110.608 89.5683 110.058 90.501C109.871 90.8087 109.685 91.1072 109.489 91.4336C104.072 99.9888 96.5184 106.984 87.5737 111.731C78.6289 116.477 68.6016 118.81 58.4803 118.5C48.359 118.19 38.4932 115.248 29.8556 109.963C21.2181 104.678 14.107 97.2335 9.22349 88.3629C4.33997 79.4923 1.85265 69.502 2.00675 59.3771C2.16085 49.2523 4.95104 39.3424 10.1022 30.6245C15.2535 21.9066 22.5878 14.6817 31.3822 9.66218C40.1766 4.64266 50.1273 2.00181 60.2534 2C90.5651 2 150.191 23.3768 127.228 53.8844C126.128 55.3207 121.297 57.2327 121.297 59.1073Z" fill="white"/>
</mask>
<g mask="url(#mask1_3467_5327)">
<path d="M118.283 59.8568C118.285 61.8094 118.189 63.7609 117.994 65.7037C117.701 68.7002 117.171 71.6687 116.408 74.5813C112.735 88.6873 103.909 100.905 91.6722 108.826C79.435 116.747 64.6741 119.796 50.2999 117.372C35.9256 114.948 22.9812 107.226 14.0189 95.7304C5.05653 84.2345 0.726673 69.7981 1.88303 55.2676C3.03938 40.7372 9.59802 27.1672 20.2658 17.2333C30.9335 7.29933 44.9362 1.72237 59.513 1.60197C74.0897 1.48157 88.1826 6.82647 99.013 16.5828C109.843 26.3392 116.625 39.799 118.022 54.3084C118.196 56.1361 118.283 57.9856 118.283 59.8568Z" fill="#F37065"/>
<mask id="mask2_3467_5327" style="mask-type:luminance" maskUnits="userSpaceOnUse" x="6" y="0" width="58" height="82">
<path d="M53.3746 81.7431H15.5083C13.2742 81.7756 11.118 80.923 9.51036 79.3713C7.90275 77.8196 6.9743 75.6949 6.92773 73.461V29.6722C6.92773 25.1115 9.66045 7.68923 14.3891 7.68923L28.8827 5.27363L34.4787 3.15646L41.5297 0.936707L52.2461 13.2573L53.3746 21.4181C58.0939 21.4181 63.2609 24.5146 63.2609 29.066L61.9552 73.489C61.9013 75.7179 60.9697 77.8355 59.3629 79.3812C57.7561 80.9269 55.604 81.7757 53.3746 81.7431Z" fill="white"/>
</mask>
<g mask="url(#mask2_3467_5327)">
<path d="M50.3343 23.6285H17.01C12.7038 23.6285 9.21289 27.1194 9.21289 31.4257V73.946C9.21289 78.2523 12.7038 81.7431 17.01 81.7431H50.3343C54.6405 81.7431 58.1314 78.2523 58.1314 73.946V31.4257C58.1314 27.1194 54.6405 23.6285 50.3343 23.6285Z" fill="#F9D895"/>
<path d="M49.5583 24.6545H17.7823C13.6461 24.6545 10.293 28.0076 10.293 32.1438V73.2279C10.293 77.3641 13.6461 80.7172 17.7823 80.7172H49.5583C53.6946 80.7172 57.0477 77.3641 57.0477 73.2279V32.1438C57.0477 28.0076 53.6946 24.6545 49.5583 24.6545Z" fill="white"/>
<path d="M27.2628 43.7928C27.2628 43.7928 22.4036 38.7658 18.7383 41.1441C15.0729 43.5224 16.2947 47.281 19.7549 49.5381C19.7549 49.5381 14.9796 53.2688 18.0014 57.3538C18.4847 58.0506 19.2149 58.5375 20.044 58.7155C21.1818 58.9487 22.9819 58.8181 25.0897 56.9155C25.0897 56.9155 24.241 61.2617 30.3406 60.814C36.4403 60.3664 35.004 44.2219 35.004 44.2219L27.2628 43.7928Z" fill="url(#paint0_linear_3467_5327)"/>
<path d="M41.4563 41.7223C41.4563 41.7223 39.8428 34.9232 43.8253 33.1138C47.8078 31.3044 50.3073 34.3636 50.3073 38.4767C50.3073 38.4767 56.0246 36.4621 57.8433 41.2187C58.1659 42.0016 58.1825 42.877 57.8899 43.6716C57.4702 44.7535 56.3883 46.1991 53.6463 46.9453C53.6463 46.9453 57.7687 48.5774 54.1126 53.474C50.4566 58.3705 37.623 48.4469 37.623 48.4469L41.4563 41.7223Z" fill="url(#paint1_linear_3467_5327)"/>
<path d="M40.7545 67.2588L38.3668 86.6769L37.0984 85.8002L35.2051 67.007L40.7545 67.2588Z" fill="url(#paint2_linear_3467_5327)"/>
<path d="M41.6351 53.4926C41.1977 54.4141 41.1362 55.4697 41.4634 56.4358C41.7907 57.402 42.4811 58.2029 43.3885 58.6689C45.058 59.6762 47.7068 60.3384 51.7825 59.2658C54.0116 58.6782 54.7204 52.7371 43.2299 52.5319C42.9728 52.5471 42.7172 52.5815 42.4652 52.6345C42.1014 52.6812 41.8496 53.1009 41.6351 53.4926Z" fill="url(#paint3_linear_3467_5327)"/>
<path d="M55.26 47.5328L55.2134 46.8333C55.2056 46.7623 55.1814 46.6941 55.1425 46.6342C55.1036 46.5742 55.0512 46.5243 54.9896 46.4882L53.4973 45.6861C53.4209 45.6451 53.334 45.6276 53.2477 45.6359C53.1614 45.6442 53.0795 45.6779 53.0123 45.7328L52.4434 46.2364L53.376 47.8872L55.26 47.5328Z" fill="url(#paint4_linear_3467_5327)"/>
<path d="M53.9685 56.6917C54.9665 53.6418 55.8338 49.1557 55.2276 47.5422C55.2138 47.5113 55.1911 47.4853 55.1623 47.4676L52.5322 46.2458C52.5176 46.2391 52.5017 46.2356 52.4856 46.2356C52.4695 46.2356 52.4535 46.2391 52.4389 46.2458C51.9633 46.4043 48.2046 48.9132 46.8429 54.7517C46.6942 55.3321 46.6904 55.9402 46.8319 56.5224C46.9734 57.1047 47.2558 57.6432 47.6543 58.0907C48.0966 58.5749 48.6587 58.934 49.284 59.1317C49.9093 59.3295 50.5757 59.3589 51.216 59.217C51.8562 59.0752 52.4478 58.767 52.9311 58.3237C53.4143 57.8803 53.7722 57.3174 53.9685 56.6917Z" fill="url(#paint5_linear_3467_5327)"/>
<path d="M52.8951 44.4736C52.9715 44.027 52.9524 43.5693 52.8391 43.1306C52.6339 42.627 53.1376 42.543 53.3614 42.7949C53.5145 42.9549 53.6312 43.146 53.7037 43.3553C53.7761 43.5645 53.8025 43.7869 53.7811 44.0073H53.9024C54.0967 43.5525 54.2043 43.0654 54.2195 42.571C54.2195 41.8342 54.5832 41.7876 54.5832 41.7876C54.5832 41.7876 54.807 41.7409 54.919 42.0301C55.0018 42.5146 55.0018 43.0098 54.919 43.4944C55.2722 43.0634 55.5411 42.5698 55.7117 42.0394C55.8237 41.4145 56.3366 41.629 56.2713 42.114C56.1287 42.7029 55.932 43.2774 55.6838 43.8301C55.9738 43.3868 56.2175 42.9148 56.4112 42.4218C56.4316 42.3562 56.4745 42.3 56.5325 42.2632C56.6258 42.2073 56.803 42.1233 56.8962 42.4125C57.0454 42.8881 56.2807 44.2778 56.2807 44.2778C56.2807 44.2778 56.5138 44.4084 57.1201 43.6529C57.1201 43.6529 57.4372 43.2425 57.5491 43.7182C57.5237 43.9633 57.4435 44.1996 57.3143 44.4095C57.1851 44.6194 57.0104 44.7975 56.803 44.9306C56.803 44.9306 56.0102 47.2717 54.2195 46.4043C52.4287 45.5369 52.8951 44.4736 52.8951 44.4736Z" fill="url(#paint6_linear_3467_5327)"/>
<path d="M53.7832 44.0353C53.9074 44.0637 54.0244 44.1173 54.127 44.1927C54.2297 44.2681 54.3158 44.3637 54.3801 44.4736C54.5015 44.696 54.5565 44.9484 54.5387 45.2011C54.4927 44.9634 54.4042 44.7359 54.2775 44.5296C54.16 44.3235 53.9893 44.1528 53.7832 44.0353Z" fill="#ED987F"/>
<path d="M54.584 43.513C54.9312 43.5367 55.2703 43.6286 55.5819 43.7835C55.8959 43.9453 56.1529 44.1991 56.3187 44.511C55.855 44.0102 55.25 43.6621 54.584 43.513Z" fill="#ED987F"/>
<path d="M37.6084 67.0443L33.5233 86.9288L32.3668 85.9122L31.9844 66.7831L37.6084 67.0443Z" fill="url(#paint7_linear_3467_5327)"/>
<path d="M41.9092 52.6438L42.0677 52.7184C42.3411 52.8222 42.5703 53.0171 42.7164 53.2703C42.8626 53.5236 42.9168 53.8195 42.8698 54.1081L42.4781 63.1364L32.2188 62.0451L32.4613 52.0003L41.9092 52.6438Z" fill="url(#paint8_linear_3467_5327)"/>
<path d="M41.9863 49.9298L41.8651 52.6252C41.8651 52.6252 40.2702 54.8543 38.0411 54.8263C37.2377 54.8376 36.4536 54.5791 35.8145 54.0921C35.1753 53.6051 34.718 52.9179 34.5156 52.1402L34.6089 49.4728L41.9863 49.9298Z" fill="url(#paint9_linear_3467_5327)"/>
<path d="M42.889 52.8397L42.0869 52.6252C41.9376 52.6252 41.9283 52.6252 41.835 52.7744L41.462 57.7455C41.4597 57.7999 41.4463 57.8532 41.4228 57.9023C41.3992 57.9513 41.3659 57.9951 41.3249 58.0309C41.2839 58.0666 41.236 58.0937 41.1842 58.1104C41.1324 58.1271 41.0778 58.133 41.0236 58.1279L34.7374 57.5683C34.6376 57.5549 34.546 57.5061 34.4793 57.4307C34.4125 57.3554 34.375 57.2586 34.3737 57.158L34.5136 52.1962C34.5149 52.179 34.5127 52.1618 34.5073 52.1454C34.5019 52.1291 34.4933 52.114 34.482 52.101C34.4708 52.088 34.4571 52.0773 34.4417 52.0697C34.4263 52.062 34.4095 52.0574 34.3923 52.0563L32.6203 51.991C32.5821 51.9883 32.5445 52.0003 32.515 52.0246C32.4855 52.0489 32.4664 52.0836 32.4617 52.1216L32.4057 57.5124C32.1934 59.4142 31.7871 61.2893 31.1933 63.1084C31.1933 63.1084 30.3912 66.7178 28.0129 68.4805C27.2922 69.0093 26.5348 69.4862 25.7465 69.9075C25.695 69.9315 25.6515 69.9698 25.621 70.0177C25.5904 70.0656 25.5742 70.1212 25.5742 70.178C25.5742 70.2348 25.5904 70.2904 25.621 70.3383C25.6515 70.3863 25.695 70.4245 25.7465 70.4485L31.8275 73.1905C31.878 73.2157 31.9352 73.2238 31.9907 73.2137C32.0462 73.2037 32.0969 73.1759 32.1353 73.1346L32.6016 72.6776V73.2558C32.6025 73.3221 32.6261 73.3861 32.6686 73.4371C32.711 73.488 32.7697 73.5228 32.8348 73.5356L39.7738 74.6455C39.8365 74.6551 39.9005 74.6439 39.9561 74.6135C40.0117 74.5832 40.0558 74.5355 40.0816 74.4776L40.3521 73.8341L40.6412 74.375C40.6678 74.4269 40.71 74.4692 40.7619 74.496C40.8137 74.5227 40.8726 74.5326 40.9304 74.5243L45.8828 73.6849C45.9301 73.6773 45.9748 73.6585 46.0133 73.63C46.0517 73.6016 46.0828 73.5643 46.1038 73.5213C46.1248 73.4783 46.1352 73.431 46.1341 73.3831C46.133 73.3353 46.1204 73.2884 46.0973 73.2465C45.6683 72.4724 44.6424 70.6537 43.8589 69.264C43.014 67.5671 42.5583 65.7032 42.5252 63.8079L42.6558 58.9487L43.0941 53.0915C43.0934 53.0325 43.0727 52.9755 43.0355 52.9298C42.9982 52.8841 42.9466 52.8523 42.889 52.8397Z" fill="url(#paint10_linear_3467_5327)"/>
<path d="M42.3612 63.4815C40.6319 64.0977 38.7892 64.33 36.961 64.1623C36.0485 64.0811 35.1477 63.8997 34.2749 63.6214C33.4007 63.3518 32.5616 62.9792 31.7754 62.5115C32.5813 62.9305 33.4243 63.2739 34.2936 63.5374C35.164 63.8042 36.0621 63.97 36.9704 64.0317C37.8724 64.1297 38.7824 64.1297 39.6844 64.0317C40.5935 63.9424 41.4906 63.758 42.3612 63.4815Z" fill="#3984C5"/>
<path d="M34.2175 67.5852C34.1717 68.484 34.0022 69.3721 33.7139 70.2246C33.4182 71.0754 33.0499 71.8992 32.6133 72.6869C32.9584 71.8568 33.3221 71.0361 33.5459 70.1874C33.8618 69.3464 34.0869 68.474 34.2175 67.5852Z" fill="#3984C5"/>
<path d="M39.5332 68.2847C39.8069 69.1587 40.0066 70.0541 40.1301 70.9615C40.2498 71.8678 40.3183 72.7802 40.3353 73.6942C40.2234 72.7615 40.1488 71.8755 39.9995 70.9802C39.8903 70.0743 39.7346 69.1746 39.5332 68.2847Z" fill="#3984C5"/>
<path d="M47.4032 39.9129C47.4032 39.9129 46.2094 37.46 47.5897 36.975C48.9701 36.4901 51.7961 38.7658 49.4551 41.3399C49.3248 41.4905 49.1567 41.6036 48.9682 41.6675C48.7796 41.7314 48.5774 41.7439 48.3825 41.7037C47.9348 41.6104 47.4405 41.2373 47.4032 39.9129Z" fill="url(#paint11_linear_3467_5327)"/>
<path d="M24.2863 45.6302C24.2863 45.6302 23.6334 42.9814 22.2717 43.4851C20.9101 43.9887 20.1732 47.5515 23.6148 48.0458C23.8116 48.0771 24.0131 48.0565 24.1996 47.9862C24.386 47.9159 24.5509 47.7982 24.678 47.6448C24.9672 47.2717 25.0884 46.6375 24.2863 45.6302Z" fill="#FEE2CC"/>
<path d="M22.1152 45.3411C22.193 45.2484 22.2967 45.1811 22.4131 45.1478C22.5294 45.1146 22.6531 45.1169 22.7681 45.1546C23.0199 45.2012 23.2158 45.4903 23.2997 45.6395C23.5064 46.0058 23.6424 46.4075 23.7008 46.824C23.3836 46.5466 23.1183 46.215 22.9173 45.8447C22.8721 45.6882 22.773 45.5528 22.6375 45.4623C22.4838 45.3602 22.2983 45.3171 22.1152 45.3411Z" fill="#ED987F"/>
<path d="M22.7255 46.0965C22.7154 46.039 22.7214 45.9799 22.7428 45.9256C22.7642 45.8713 22.8001 45.8239 22.8467 45.7888C22.9005 45.7701 22.9584 45.7664 23.0142 45.7779C23.07 45.7894 23.1217 45.8157 23.1638 45.854C23.1779 45.9121 23.1749 45.9729 23.155 46.0292C23.1351 46.0855 23.0993 46.1348 23.0519 46.1711C22.9956 46.1874 22.9361 46.1891 22.879 46.1761C22.8219 46.163 22.7691 46.1356 22.7255 46.0965Z" fill="#ED987F"/>
<path d="M37.0099 52.1962L39.0991 51.6925C40.685 51.3106 42.1801 50.6198 43.4989 49.6596C44.8176 48.6994 45.9342 47.4888 46.7848 46.0968C47.6354 44.7048 48.2033 43.1589 48.4561 41.5473C48.7088 39.9357 48.6415 38.2901 48.2579 36.7046L47.8661 35.0631C47.1479 32.1002 45.2826 29.5439 42.6802 27.9558C40.0778 26.3678 36.9513 25.8781 33.988 26.5944L30.4066 27.4618C28.9384 27.8143 27.5542 28.4528 26.3332 29.341C25.1122 30.2291 24.0783 31.3494 23.2908 32.6376C22.5033 33.9259 21.9776 35.3568 21.7439 36.8484C21.5101 38.3401 21.5729 39.8632 21.9286 41.3306L22.1058 42.0767C22.3066 42.8937 22.6406 43.6721 23.0945 44.3804C27.3568 51.077 30.845 53.6885 37.0099 52.1962Z" fill="url(#paint12_linear_3467_5327)"/>
<path d="M47.117 32.9739C47.117 32.9739 46.0724 20.9611 33.127 22.7145L34.9923 29.2432C34.9923 29.2432 39.3012 36.1916 47.117 32.9739Z" fill="#F8B5B7"/>
<path d="M34.5742 23.7125C34.5742 23.7125 38.8271 28.6183 34.6301 32.4516C33.4021 33.3499 32.0018 33.9849 30.517 34.3169C27.9522 34.9232 24.5946 37.3668 24.7438 40.1554C24.8132 41.8532 24.2815 43.5211 23.2422 44.8654C23.2422 44.8654 15.3518 33.0019 23.8764 25.4753C32.1958 18.1165 34.5742 23.7125 34.5742 23.7125Z" fill="#F8B5B7"/>
<path d="M47.1128 32.9739C47.1128 32.9739 46.5812 19.9165 32.9922 22.0243L34.8575 28.553C34.8575 28.553 38.2711 34.7086 47.1128 32.9739Z" fill="url(#paint13_linear_3467_5327)"/>
<path d="M35.3667 24.2068C35.3667 24.2068 38.6684 28.6369 34.434 32.3676C33.1817 33.2319 31.7663 33.8317 30.2743 34.1304C27.7002 34.6713 24.2866 37.0496 24.3705 39.8383C24.3955 41.6687 24.144 43.4924 23.6244 45.2478C23.6244 45.2478 14.4097 33.0765 23.8389 25.1488C32.6433 17.7061 35.3667 24.2068 35.3667 24.2068Z" fill="url(#paint14_linear_3467_5327)"/>
<path d="M37.0488 40.9202C37.3845 41.3494 37.6751 41.812 37.9162 42.3006L37.823 42.198C38.0281 42.2912 38.2426 42.3659 38.4385 42.4685L38.7556 42.627C38.8355 42.6774 38.8985 42.7505 38.9367 42.8368C38.9749 42.9232 38.9866 43.019 38.9701 43.112C38.9583 43.1968 38.919 43.2755 38.8582 43.3358L38.7463 43.4571L38.5131 43.6996C38.3566 43.864 38.1883 44.0167 38.0095 44.1566C38.1008 43.952 38.2036 43.7527 38.3173 43.5597L38.4945 43.2705C38.5391 43.2031 38.5766 43.1312 38.6064 43.056C38.6061 43.0382 38.6007 43.0207 38.5907 43.0058C38.5808 42.991 38.5668 42.9792 38.5504 42.9721L38.2613 42.8509C38.0561 42.7762 37.8602 42.655 37.6551 42.5617H37.5898V42.4964C37.3547 41.9915 37.1733 41.4632 37.0488 40.9202Z" fill="#ED987F"/>
<path d="M23.8631 40.9296C23.8631 40.9296 24.1802 45.369 25.4113 46.7028C25.4113 46.7028 24.4786 46.8333 23.2382 44.8374C21.9977 42.8415 23.8631 40.9296 23.8631 40.9296Z" fill="#6F472A"/>
<path d="M41.2416 43.8581C41.2416 43.8581 37.6509 45.7234 35.2539 45.2944C35.3854 45.9182 35.6852 46.4941 36.121 46.9594C36.5567 47.4247 37.1116 47.7618 37.7255 47.9339C38.159 48.0224 38.6074 48.0069 39.0339 47.8885C39.4603 47.7702 39.8525 47.5524 40.1784 47.253C40.6383 46.8305 40.9788 46.2942 41.1655 45.6982C41.3521 45.1022 41.3784 44.4675 41.2416 43.8581Z" fill="url(#paint15_linear_3467_5327)"/>
<mask id="mask3_3467_5327" style="mask-type:luminance" maskUnits="userSpaceOnUse" x="35" y="43" width="7" height="5">
<path d="M41.2397 43.8581C41.2397 43.8581 37.6489 45.7234 35.252 45.2944C35.3834 45.9182 35.6833 46.4941 36.119 46.9594C36.5548 47.4247 37.1097 47.7618 37.7235 47.9339C38.1571 48.0224 38.6055 48.0069 39.0319 47.8885C39.4583 47.7702 39.8506 47.5524 40.1764 47.253C40.6364 46.8305 40.9768 46.2942 41.1635 45.6982C41.3502 45.1022 41.3764 44.4675 41.2397 43.8581Z" fill="white"/>
</mask>
<g mask="url(#mask3_3467_5327)">
<path d="M40.3063 47.1224C40.3063 47.1224 38.8607 44.6322 35.9321 46.7587C33.0035 48.8852 38.7954 50.8438 40.3063 47.1224Z" fill="url(#paint16_linear_3467_5327)"/>
</g>
<path d="M41.4902 42.2054C42.4815 41.9659 42.9783 40.5013 42.5998 38.9341C42.2212 37.3669 41.1106 36.2906 40.1193 36.5301C39.1279 36.7696 38.6311 38.2341 39.0097 39.8013C39.3882 41.3685 40.4988 42.4448 41.4902 42.2054Z" fill="white"/>
<path d="M42.6727 39.6052C42.2996 38.0476 41.1898 36.9657 40.1918 37.2082C39.399 37.4041 38.9141 38.3927 38.9607 39.5866C38.6809 38.1036 39.1752 36.7885 40.1172 36.5367C41.0592 36.2849 42.2157 37.3761 42.5981 38.943C42.6698 39.2332 42.7105 39.5302 42.7194 39.829C42.7084 39.7535 42.6928 39.6788 42.6727 39.6052Z" fill="#1E1230"/>
<path d="M42.3335 36.3595C42.3335 36.3595 42.2309 37.2922 41.7832 37.2922L42.1376 37.9357C42.3114 37.7161 42.4216 37.453 42.4562 37.175C42.4907 36.8971 42.4483 36.615 42.3335 36.3595Z" fill="#1E1230"/>
<path d="M33.9355 44.1941C34.9269 43.9547 35.4236 42.4901 35.0451 40.9229C34.6665 39.3557 33.556 38.2794 32.5646 38.5188C31.5732 38.7583 31.0764 40.2229 31.455 41.7901C31.8335 43.3573 32.9441 44.4336 33.9355 44.1941Z" fill="white"/>
<path d="M31.6848 42.3659C31.1905 40.8083 31.6009 39.2974 32.6175 38.9896C33.4102 38.7378 34.3429 39.344 34.9305 40.4073C34.4082 38.971 33.2797 38.0663 32.3377 38.3647C31.3957 38.6632 30.948 40.1834 31.405 41.741C31.493 42.0326 31.6118 42.314 31.7594 42.5804C31.7304 42.5104 31.7055 42.4388 31.6848 42.3659Z" fill="#1E1230"/>
<path d="M30.2832 39.372C30.2832 39.372 30.8521 40.1182 31.2159 39.8757V40.6218C30.9648 40.513 30.7467 40.3404 30.583 40.1212C30.4194 39.9019 30.316 39.6436 30.2832 39.372Z" fill="#1E1230"/>
<path d="M28.5711 39.4652C28.7949 39.1388 29.0654 38.7564 29.3639 38.402C29.5097 38.2343 29.6655 38.0755 29.8302 37.9264C30.5616 37.2138 31.3945 36.6135 32.3018 36.1449C32.4324 36.061 32.6189 36.0237 32.7588 35.9304C32.8987 35.8372 32.7588 35.2029 32.6095 35.1097C32.2365 34.8952 31.7702 35.5387 31.3318 35.6973C31.0822 35.7966 30.8518 35.9386 30.651 36.117C30.4458 36.3035 30.2686 36.49 30.0914 36.6765C29.9191 36.8667 29.7572 37.0659 29.6064 37.2735C29.4571 37.4787 29.3266 37.6839 29.196 37.8984C28.8934 38.3386 28.6341 38.8071 28.4219 39.2974L28.5711 39.4652Z" fill="#FBC3AA"/>
<path d="M28.4418 39.4186C28.6463 39.0712 28.8738 38.7378 29.1226 38.4207C29.2628 38.2248 29.4187 38.0407 29.589 37.8704C30.3331 37.066 31.191 36.3747 32.1352 35.8185C32.2751 35.7252 32.4709 35.6693 32.6295 35.5667C32.6703 35.5441 32.7043 35.511 32.728 35.4708C32.7517 35.4306 32.7642 35.3848 32.7642 35.3382C32.7642 35.2915 32.7517 35.2457 32.728 35.2056C32.7043 35.1654 32.6703 35.1323 32.6295 35.1097C32.2098 34.8765 31.5476 35.1563 31.0813 35.3522C30.8142 35.4685 30.5708 35.6329 30.3631 35.8371C30.1579 36.0423 29.9807 36.2662 29.8035 36.4807C29.6284 36.6945 29.4664 36.9187 29.3185 37.1522C29.1703 37.3832 29.0364 37.6231 28.9175 37.8704C28.6792 38.3523 28.4947 38.859 28.3672 39.3813L28.4418 39.4186Z" fill="url(#paint17_linear_3467_5327)"/>
<path d="M43.4305 34.9791C43.0159 34.8207 42.5923 34.6868 42.1621 34.578C41.9472 34.5241 41.7291 34.4836 41.5092 34.4568C40.4981 34.307 39.4705 34.307 38.4594 34.4568C38.3008 34.4568 38.1329 34.5407 37.965 34.55C37.7972 34.5594 37.5174 33.9811 37.6013 33.7946C37.7785 33.4029 38.534 33.6547 38.9817 33.5334C39.2424 33.4608 39.5147 33.4387 39.7837 33.4682C40.0542 33.4682 40.306 33.5521 40.5672 33.5987C40.8164 33.6497 41.0624 33.7151 41.304 33.7946C41.5428 33.8693 41.7765 33.9597 42.0035 34.0651C42.5102 34.2425 42.9976 34.4706 43.4585 34.7459L43.4305 34.9791Z" fill="#FBC3AA"/>
<path d="M43.503 34.8579C43.1367 34.6954 42.7596 34.5583 42.3744 34.4475C42.1448 34.3754 41.9112 34.3162 41.6749 34.2703C40.5989 34.0454 39.494 33.9918 38.4013 34.1117C38.2334 34.1117 38.0468 34.1864 37.8603 34.1864C37.8129 34.192 37.7649 34.1845 37.7214 34.1648C37.678 34.145 37.6408 34.1137 37.6139 34.0743C37.5869 34.0349 37.5713 33.9889 37.5687 33.9412C37.5662 33.8935 37.5767 33.8461 37.5992 33.804C37.8044 33.3749 38.5318 33.2071 38.9982 33.0951C39.285 33.0438 39.5787 33.0438 39.8655 33.0951C40.1453 33.1418 40.4252 33.2164 40.6956 33.2817C40.9617 33.3533 41.2233 33.4405 41.4791 33.5428C41.7345 33.6427 41.9837 33.7579 42.2252 33.8879C42.7018 34.1504 43.1489 34.463 43.5589 34.8206L43.503 34.8579Z" fill="url(#paint18_linear_3467_5327)"/>
<path d="M29.9165 56.7756C31.7249 59.7136 34.4723 61.9549 37.7136 63.1364C40.3064 64.069 45.5946 58.5476 33.7684 51.8324C31.3435 50.4521 26.8946 52.5319 29.9165 56.7756Z" fill="url(#paint19_linear_3467_5327)"/>
<path d="M48.364 63.6213L49.0449 63.4814C49.1154 63.4673 49.1809 63.4348 49.2349 63.3874C49.289 63.3399 49.3296 63.2791 49.3527 63.211L49.9589 61.6254C49.9864 61.5443 49.9896 61.457 49.9681 61.3741C49.9465 61.2912 49.9012 61.2165 49.8376 61.1591L49.2687 60.6555L47.7578 61.812L48.364 63.6213Z" fill="url(#paint20_linear_3467_5327)"/>
<path d="M39.1126 63.6213C42.265 64.1996 46.8351 64.4887 48.346 63.6213C48.3623 63.6154 48.3769 63.6055 48.3883 63.5924C48.3997 63.5794 48.4076 63.5637 48.4113 63.5467L49.2787 60.7487C49.2833 60.7178 49.2833 60.6864 49.2787 60.6555C49.0549 60.2078 46.061 56.8222 40.0919 56.2812C39.4972 56.2124 38.8946 56.2904 38.337 56.5083C37.7793 56.7261 37.2835 57.0773 36.8929 57.531C36.4671 58.0332 36.1818 58.6391 36.066 59.2872C35.9502 59.9353 36.0079 60.6025 36.2334 61.2211C36.4588 61.8396 36.844 62.3875 37.3496 62.8091C37.8553 63.2306 38.4636 63.5109 39.1126 63.6213Z" fill="url(#paint21_linear_3467_5327)"/>
<path d="M50.9045 60.9446C51.3565 60.932 51.7997 60.8172 52.2009 60.6088C52.6486 60.3104 52.8445 60.7861 52.6393 61.0565C52.5143 61.2408 52.3498 61.3951 52.1579 61.508C51.9659 61.6209 51.7512 61.6897 51.5294 61.7094V61.8306C52.0161 61.9248 52.5163 61.9248 53.003 61.8306C53.7212 61.6907 53.8424 62.0265 53.8424 62.0265C53.8424 62.0265 53.9357 62.241 53.6652 62.4089C53.2025 62.5805 52.7131 62.6689 52.2196 62.6701C52.7149 62.9316 53.2568 63.0932 53.8144 63.1457C54.4487 63.1457 54.3367 63.6773 53.8144 63.7146C53.2119 63.6951 52.6125 63.6202 52.0237 63.4908C52.5154 63.6806 53.0246 63.8212 53.544 63.9105C53.6158 63.9164 53.6827 63.9498 53.7305 64.0038C53.8051 64.0877 53.9171 64.2369 53.6559 64.3862C53.2176 64.6287 51.7066 64.1623 51.7066 64.1623C51.7066 64.1623 51.6227 64.4048 52.4807 64.8525C52.4807 64.8525 52.9471 65.0763 52.4807 65.2815C52.2348 65.307 51.9863 65.2767 51.7537 65.1927C51.5212 65.1087 51.3106 64.9733 51.1377 64.7965C51.1377 64.7965 48.6848 64.4887 49.1791 62.5581C49.6734 60.6275 50.9045 60.9446 50.9045 60.9446Z" fill="url(#paint22_linear_3467_5327)"/>
<path d="M34.3244 43.0376C34.889 42.8761 35.14 42.0226 34.885 41.1311C34.6301 40.2397 33.9657 39.6479 33.4012 39.8094C32.8366 39.9709 32.5856 40.8244 32.8405 41.7159C33.0955 42.6073 33.7598 43.199 34.3244 43.0376Z" fill="#1E1230"/>
<path d="M33.9852 40.8549C34.181 40.8549 34.3397 40.6962 34.3397 40.5005C34.3397 40.3047 34.181 40.1461 33.9852 40.1461C33.7895 40.1461 33.6309 40.3047 33.6309 40.5005C33.6309 40.6962 33.7895 40.8549 33.9852 40.8549Z" fill="white"/>
<path d="M33.7631 41.5638C33.861 41.5638 33.9404 41.4844 33.9404 41.3866C33.9404 41.2887 33.861 41.2094 33.7631 41.2094C33.6653 41.2094 33.5859 41.2887 33.5859 41.3866C33.5859 41.4844 33.6653 41.5638 33.7631 41.5638Z" fill="white"/>
<path d="M40.6018 41.3304C41.1663 41.169 41.4173 40.3154 41.1624 39.424C40.9074 38.5326 40.2431 37.9408 39.6785 38.1022C39.1139 38.2637 38.8629 39.1173 39.1179 40.0087C39.3728 40.9001 40.0372 41.4919 40.6018 41.3304Z" fill="#1E1230"/>
<path d="M40.1864 39.2228C40.3822 39.2228 40.5408 39.0641 40.5408 38.8683C40.5408 38.6726 40.3822 38.5139 40.1864 38.5139C39.9907 38.5139 39.832 38.6726 39.832 38.8683C39.832 39.0641 39.9907 39.2228 40.1864 39.2228Z" fill="white"/>
<path d="M39.9546 39.9316C40.0524 39.9316 40.1318 39.8522 40.1318 39.7544C40.1318 39.6565 40.0524 39.5771 39.9546 39.5771C39.8567 39.5771 39.7773 39.6565 39.7773 39.7544C39.7773 39.8522 39.8567 39.9316 39.9546 39.9316Z" fill="white"/>
</g>
<path d="M24.7353 85.9244L19.0995 88.5584C17.9982 89.0731 17.5227 90.3831 18.0374 91.4844L20.3871 96.5118C20.9018 97.6131 22.2118 98.0886 23.3131 97.5739L28.9489 94.9399C30.0502 94.4252 30.5257 93.1152 30.011 92.0139L27.6613 86.9865C27.1466 85.8852 25.8366 85.4097 24.7353 85.9244Z" fill="white"/>
<path d="M27.8744 95.015L29.6372 95.6399C29.6663 95.6509 29.6978 95.6544 29.7287 95.6501C29.7595 95.6458 29.7888 95.6338 29.8139 95.6152C29.8389 95.5967 29.8589 95.5722 29.872 95.5439C29.8851 95.5156 29.891 95.4845 29.889 95.4534L29.7957 93.5881C29.7922 93.5541 29.7799 93.5215 29.7599 93.4938C29.7399 93.466 29.7131 93.444 29.6819 93.4299C29.6508 93.4157 29.6165 93.4099 29.5825 93.4132C29.5485 93.4164 29.5159 93.4285 29.4879 93.4482L27.8278 94.67C27.7983 94.6906 27.7751 94.7189 27.7606 94.7518C27.7462 94.7848 27.7411 94.8211 27.7459 94.8567C27.7507 94.8924 27.7652 94.926 27.7879 94.9539C27.8106 94.9819 27.8405 95.003 27.8744 95.015Z" fill="white"/>
<path d="M26.8434 91.6668L25.7708 94.2689C25.7432 94.3379 25.7021 94.4008 25.6499 94.4537C25.5978 94.5067 25.5356 94.5487 25.467 94.5774C25.3984 94.606 25.3248 94.6207 25.2504 94.6206C25.1761 94.6205 25.1025 94.6056 25.034 94.5767L22.4319 93.4668C19.8857 92.4129 20.9303 89.5403 23.3646 90.2118C23.4681 90.2425 23.5789 90.2371 23.6789 90.1964C23.7789 90.1557 23.8621 90.0822 23.9148 89.988C25.0993 87.8708 27.8694 89.1672 26.8434 91.6668Z" fill="#F2665C"/>
<path d="M68.6427 15.5062L63.3769 12.194C62.3479 11.5467 60.989 11.8562 60.3417 12.8852L57.3871 17.5826C56.7398 18.6116 57.0493 19.9705 58.0783 20.6177L63.3441 23.9299C64.3731 24.5772 65.732 24.2677 66.3792 23.2387L69.3339 18.5413C69.9811 17.5123 69.6717 16.1534 68.6427 15.5062Z" fill="white"/>
<path d="M59.8184 21.157L59.865 23.4607C59.8664 23.4987 59.877 23.5358 59.896 23.5687C59.915 23.6017 59.9417 23.6295 59.9739 23.6497C60.0061 23.6699 60.0428 23.682 60.0807 23.6848C60.1186 23.6876 60.1566 23.6811 60.1914 23.6659L62.2806 22.7332C62.3176 22.7133 62.3486 22.6836 62.3701 22.6475C62.3917 22.6114 62.403 22.5701 62.403 22.5281C62.403 22.486 62.3917 22.4447 62.3701 22.4086C62.3486 22.3725 62.3176 22.3428 62.2806 22.3229L60.1448 20.9518C60.11 20.9366 60.0719 20.9301 60.034 20.933C59.9961 20.9358 59.9595 20.9478 59.9273 20.9681C59.8951 20.9883 59.8683 21.0161 59.8494 21.049C59.8304 21.082 59.8197 21.119 59.8184 21.157Z" fill="white"/>
<path d="M63.0299 16.988L61.7801 19.2824C61.7454 19.3435 61.7232 19.4109 61.7148 19.4807C61.7063 19.5505 61.7118 19.6212 61.7309 19.6889C61.75 19.7566 61.7823 19.8198 61.8259 19.8749C61.8696 19.9299 61.9238 19.9758 61.9853 20.0098L64.5128 21.4741C64.638 21.5458 64.7864 21.5655 64.926 21.5288C65.0655 21.4922 65.1851 21.4022 65.259 21.2783L66.3129 19.4129C66.3788 19.2937 66.3981 19.1542 66.3671 19.0216C66.3361 18.8889 66.2569 18.7725 66.145 18.6948L65.2123 18.0419C65.1311 17.9941 65.0637 17.926 65.0169 17.8442C64.9701 17.7624 64.9455 17.6698 64.9455 17.5756C64.9455 17.4813 64.9701 17.3887 65.0169 17.3069C65.0637 17.2251 65.1311 17.157 65.2123 17.1092L65.7253 16.7921C65.8462 16.7105 65.9305 16.5848 65.9601 16.442C65.9897 16.2991 65.9623 16.1503 65.8839 16.0273C65.8104 15.9212 65.7025 15.8436 65.5784 15.8079C65.4543 15.7722 65.3217 15.7806 65.203 15.8315L63.3377 16.6895C63.2044 16.7515 63.096 16.8567 63.0299 16.988Z" fill="#3984C5"/>
<path d="M62.397 15.8511L61.9852 15.6131C61.7399 15.4714 61.4261 15.5554 61.2844 15.8007L59.8145 18.3444C59.6728 18.5897 59.7567 18.9035 60.002 19.0452L60.4139 19.2832C60.6592 19.425 60.9729 19.341 61.1147 19.0957L62.5845 16.5519C62.7263 16.3066 62.6423 15.9929 62.397 15.8511Z" fill="#3984C5"/>
<path opacity="0.3" d="M91.7274 116.345C103.796 116.345 113.58 114.834 113.58 112.969C113.58 111.104 103.796 109.593 91.7274 109.593C79.6587 109.593 69.875 111.104 69.875 112.969C69.875 114.834 79.6587 116.345 91.7274 116.345Z" fill="#BBBDBF"/>
<path d="M67.8145 68.5832C67.8145 68.5832 68.915 71.4372 72.6177 70.6724C73.6063 70.4672 73.0467 66.6432 73.0467 66.6432L67.8145 68.5832Z" fill="url(#paint23_linear_3467_5327)"/>
<path d="M74.397 60.9912C72.4384 62.3436 67.3833 68.6765 66.8797 74.9347C66.8458 75.9138 67.1314 76.8774 67.6933 77.68C68.2553 78.4825 69.0631 79.0804 69.9948 79.3835C72.7928 80.456 76.7659 78.2643 78.3142 75.5689C80.9256 71.0454 82.2127 65.067 81.877 62.1478C81.7416 61.3345 81.3318 60.592 80.7159 60.044C80.0999 59.4959 79.3149 59.1752 78.4914 59.1352H78.4074C76.9058 59.0047 75.5628 60.1892 74.397 60.9912Z" fill="url(#paint24_linear_3467_5327)"/>
<path d="M78.68 57.8948C75.6302 58.8274 69.5212 61.4856 67.8145 68.5832C72.1074 67.2576 76.73 67.4854 80.8718 69.2267L82.7372 66.6059C83.543 65.4947 83.9548 64.1463 83.9075 62.7744C83.8602 61.4026 83.3564 60.0857 82.476 59.0326C82.2689 58.7826 82.0307 58.5601 81.7672 58.3704C81.3202 58.0669 80.8113 57.8666 80.2773 57.7844C79.7433 57.7021 79.1976 57.7398 78.68 57.8948Z" fill="url(#paint25_linear_3467_5327)"/>
<path d="M74.022 79.2809C72.9071 80.4207 71.4053 81.101 69.8132 81.1873C68.2211 81.2737 66.6545 80.7598 65.4228 79.7473C62.6368 77.4375 60.3545 74.5805 58.7169 71.3532C58.4938 71.0554 58.3494 70.7061 58.2972 70.3376C58.245 69.9691 58.2868 69.5935 58.4185 69.2454C58.8848 68.0796 60.7595 67.865 62.0186 67.8464C64.8632 67.8464 68.4073 67.5293 73.2106 71.4838C74.4051 72.4364 75.1786 73.8193 75.3651 75.3357C75.4519 76.052 75.3762 76.7786 75.1437 77.4616C74.9112 78.1446 74.5278 78.7664 74.022 79.2809Z" fill="url(#paint26_linear_3467_5327)"/>
<path d="M61.789 66.4194C61.3082 65.7077 60.9897 64.8989 60.8563 64.0504C60.8563 63.0338 59.9237 63.267 59.6905 63.8732C59.5488 64.2685 59.4939 64.6896 59.5293 65.108C59.5647 65.5264 59.6896 65.9323 59.8957 66.2981L59.6998 66.4008C59.0145 65.7658 58.4517 65.0102 58.0397 64.1717C57.4614 62.9126 57.107 63.0058 57.107 63.0058C57.107 63.0058 56.5194 63.0058 56.4168 63.78C56.3142 64.5541 57.62 66.2795 57.62 66.2795C56.8324 65.6094 56.1166 64.8592 55.4842 64.0411C54.8033 63.0431 53.7401 64.1437 54.2157 64.9738C54.9186 65.8762 55.6987 66.7157 56.5474 67.4827C55.7678 66.8866 55.0322 66.2351 54.3463 65.5334C54.2547 65.4369 54.133 65.3744 54.0012 65.3561C53.796 65.3561 53.5162 65.4121 53.3763 65.9437C53.1338 66.8764 55.8666 68.6951 55.8666 68.6951C55.8666 68.6951 55.7173 68.7604 54.0852 67.9303C54.0852 67.9303 53.2178 67.5666 53.2551 68.7044C53.4868 69.1114 53.8078 69.4604 54.1939 69.7253C54.58 69.9903 55.0211 70.1642 55.4842 70.234C55.4842 70.234 58.6459 73.6662 61.0802 70.7936C63.5144 67.921 61.789 66.4194 61.789 66.4194Z" fill="url(#paint27_linear_3467_5327)"/>
<path d="M59.9035 66.2609C59.6429 66.6276 59.4793 67.0543 59.4279 67.5013C59.3895 67.9499 59.4115 68.4016 59.4932 68.8444C59.3836 68.6386 59.302 68.419 59.2507 68.1915C59.2133 67.9536 59.2133 67.7113 59.2507 67.4734C59.271 67.2374 59.3394 67.0081 59.4516 66.7996C59.5639 66.591 59.7177 66.4077 59.9035 66.2609Z" fill="#ED987F"/>
<path d="M58.1303 66.0276C57.6412 66.4421 57.1916 66.9011 56.7873 67.3987C56.3844 67.8917 56.0889 68.4636 55.9199 69.0775C55.9323 68.7578 55.9985 68.4425 56.1158 68.1448C56.2487 67.8426 56.4178 67.5576 56.6194 67.2961C57.0256 66.7692 57.541 66.3364 58.1303 66.0276Z" fill="#ED987F"/>
<path d="M89.395 104.407C90.85 110.936 89.936 111.803 87.8561 112.046C85.7763 112.288 78.0631 112.297 78.0631 112.297C78.0631 112.297 73.6143 112.241 75.4983 110.143C75.6836 109.939 75.905 109.772 76.1511 109.649L83.4166 105.797C83.473 105.767 83.5203 105.723 83.5532 105.669C83.5861 105.615 83.6034 105.552 83.6031 105.489V104.407C83.6031 104.407 89.0406 102.793 89.395 104.407Z" fill="url(#paint28_linear_3467_5327)"/>
<path d="M83.5472 111.579C85.6787 111.639 87.8086 111.413 89.8801 110.908C90.028 110.647 90.0961 110.349 90.0759 110.05C87.0307 110.695 83.9085 110.899 80.8052 110.656C80.7389 110.652 80.6728 110.664 80.6114 110.689C80.55 110.714 80.495 110.753 80.4504 110.802C80.4058 110.851 80.3726 110.909 80.3533 110.973C80.334 111.036 80.3291 111.103 80.3389 111.169C80.3578 111.273 80.4115 111.367 80.4911 111.437C80.5708 111.506 80.6716 111.547 80.7772 111.551C81.8218 111.561 82.7358 111.579 83.5472 111.579Z" fill="url(#paint29_linear_3467_5327)"/>
<path d="M80.9259 112.26C80.9259 112.26 81.6627 108.893 78.1746 108.529L76.16 109.593C75.7884 109.78 75.4683 110.055 75.2273 110.395C74.761 111.094 74.6211 112.158 78.0253 112.26H80.9259Z" fill="url(#paint30_linear_3467_5327)"/>
<path d="M83.3716 106.002L84.8545 107.13C84.8873 107.154 84.9139 107.184 84.9324 107.22C84.9508 107.256 84.9604 107.295 84.9604 107.336C84.9604 107.376 84.9508 107.415 84.9324 107.451C84.9139 107.487 84.8873 107.518 84.8545 107.541L84.1644 108.016C84.1195 108.053 84.0635 108.073 84.0058 108.073C83.9481 108.073 83.8921 108.053 83.8473 108.016L82.2617 106.608" stroke="url(#paint31_linear_3467_5327)" stroke-width="0.45" stroke-miterlimit="10" stroke-linecap="round"/>
<path d="M81.3924 107.074L82.81 108.436C82.8428 108.46 82.8695 108.492 82.8878 108.529C82.9062 108.565 82.9158 108.605 82.9158 108.646C82.9158 108.687 82.9062 108.727 82.8878 108.764C82.8695 108.8 82.8428 108.832 82.81 108.856L82.1199 109.332C82.0737 109.365 82.0183 109.383 81.9613 109.383C81.9044 109.383 81.8489 109.365 81.8028 109.332L80.2266 107.746" stroke="url(#paint32_linear_3467_5327)" stroke-width="0.45" stroke-miterlimit="10" stroke-linecap="round"/>
<path d="M81.0936 75.802C80.0087 75.8362 78.9482 76.1329 78.0031 76.6666C77.0579 77.2003 76.2563 77.9552 75.6667 78.8666C75.0772 79.7779 74.7173 80.8186 74.618 81.8995C74.5187 82.9804 74.6829 84.0692 75.0965 85.0728C77.8106 91.6014 81.1962 99.5571 82.1475 100.583C83.4625 102.019 83.0148 104.314 82.7817 105.246C82.7542 105.345 82.7648 105.451 82.8114 105.543C82.858 105.634 82.9373 105.705 83.0335 105.741C84.1247 106.17 87.5196 107.354 89.814 106.347C89.9726 106.279 90.1077 106.166 90.2023 106.021C90.2968 105.877 90.3467 105.708 90.3456 105.536C90.3495 105.467 90.339 105.398 90.3149 105.334C90.2908 105.27 90.2536 105.212 90.2057 105.162C90.0845 105.051 90.1591 104.855 90.2897 104.677C90.452 104.456 90.5602 104.2 90.6055 103.93C90.6509 103.659 90.6322 103.382 90.5508 103.12L90.4202 102.71C90.3875 102.581 90.3875 102.446 90.4202 102.318L91.2783 96.8524L93.5633 83.9442C93.8099 82.9395 93.8207 81.8914 93.5948 80.8818C93.3689 79.8723 92.9125 78.9287 92.2613 78.1248C91.6101 77.321 90.7818 76.6787 89.8411 76.2482C88.9003 75.8178 87.8728 75.6108 86.8388 75.6435L81.0936 75.802Z" fill="url(#paint33_linear_3467_5327)"/>
<path d="M103.487 105.079C104.942 111.607 104.028 112.475 101.958 112.717C99.8873 112.96 92.1555 112.969 92.1555 112.969C92.1555 112.969 87.7067 112.913 89.6 110.814C89.78 110.609 89.9987 110.441 90.2435 110.32L97.509 106.468C97.5654 106.439 97.6127 106.395 97.6456 106.341C97.6785 106.286 97.6958 106.224 97.6956 106.16V105.079C97.6956 105.079 103.133 103.493 103.487 105.079Z" fill="url(#paint34_linear_3467_5327)"/>
<path d="M97.6482 112.251C99.7766 112.311 101.903 112.085 103.972 111.579C104.12 111.319 104.188 111.02 104.168 110.721C101.122 111.366 97.9997 111.567 94.8968 111.318C94.8301 111.316 94.7638 111.329 94.7025 111.355C94.6412 111.381 94.5863 111.421 94.5419 111.471C94.4975 111.52 94.4645 111.579 94.4452 111.643C94.426 111.707 94.4209 111.774 94.4305 111.84C94.4513 111.943 94.5058 112.035 94.5852 112.103C94.6647 112.17 94.7646 112.209 94.8688 112.213C95.9134 112.232 96.8368 112.251 97.6482 112.251Z" fill="url(#paint35_linear_3467_5327)"/>
<path d="M95.016 112.932C95.016 112.932 95.7528 109.565 92.2647 109.201L90.2501 110.255C89.8785 110.442 89.5584 110.718 89.3174 111.057C88.8511 111.756 88.7205 112.82 92.1154 112.922L95.016 112.932Z" fill="url(#paint36_linear_3467_5327)"/>
<path d="M97.461 106.673L98.944 107.802C98.975 107.826 99.0001 107.858 99.0173 107.893C99.0346 107.929 99.0435 107.968 99.0435 108.007C99.0435 108.047 99.0346 108.086 99.0173 108.121C99.0001 108.157 98.975 108.188 98.944 108.212L98.2444 108.688C98.1983 108.721 98.1428 108.739 98.0859 108.739C98.0289 108.739 97.9734 108.721 97.9273 108.688L96.3418 107.28" stroke="url(#paint37_linear_3467_5327)" stroke-width="0.45" stroke-miterlimit="10" stroke-linecap="round"/>
<path d="M95.4827 107.746L96.9003 109.108C96.9331 109.131 96.9598 109.162 96.9782 109.197C96.9966 109.233 97.0062 109.273 97.0062 109.313C97.0062 109.353 96.9966 109.393 96.9782 109.428C96.9598 109.464 96.9331 109.495 96.9003 109.518L96.2008 110.003C96.1547 110.036 96.0992 110.054 96.0423 110.054C95.9853 110.054 95.9299 110.036 95.8837 110.003L94.3262 108.39" stroke="url(#paint38_linear_3467_5327)" stroke-width="0.45" stroke-miterlimit="10" stroke-linecap="round"/>
<path d="M95.6514 78.7026C94.4636 78.8031 93.3185 79.1932 92.3164 79.8388C91.3142 80.4843 90.4856 81.3657 89.903 82.4057C89.3204 83.4457 89.0016 84.6126 88.9745 85.8044C88.9474 86.9961 89.2129 88.1764 89.7476 89.2418C92.4337 94.5766 95.4089 100.294 96.2763 101.199C97.6007 102.635 97.1437 104.985 96.9105 105.862C96.8855 105.957 96.8964 106.058 96.9411 106.146C96.9858 106.234 97.0613 106.302 97.153 106.338C98.2349 106.767 101.648 107.96 103.943 106.953C104.097 106.88 104.229 106.765 104.322 106.622C104.416 106.479 104.469 106.313 104.474 106.142C104.478 106.073 104.468 106.005 104.444 105.94C104.42 105.876 104.382 105.818 104.335 105.769C104.213 105.647 104.288 105.47 104.419 105.284C104.58 105.05 104.686 104.782 104.728 104.5C104.77 104.219 104.747 103.932 104.661 103.661L104.558 103.353C104.517 103.204 104.517 103.046 104.558 102.896L105.612 97.5052L107.59 87.1526C107.828 86.0402 107.803 84.8873 107.515 83.7865C107.228 82.6856 106.687 81.6673 105.936 80.8132C105.184 79.9591 104.243 79.293 103.187 78.8682C102.132 78.4434 100.991 78.2716 99.8577 78.3669L95.6514 78.7026Z" fill="url(#paint39_linear_3467_5327)"/>
<path d="M83.8558 56.5704H83.6786C82.746 56.729 75.5738 58.4358 74.725 71.0175C73.7924 84.1494 72.7757 84.0748 74.2494 85.0914C74.5772 85.2148 74.9184 85.2993 75.266 85.3433C79.0619 86.3879 97.0904 89.4936 109.094 84.9236C109.337 84.8292 109.544 84.66 109.685 84.4404C109.826 84.2208 109.893 83.9622 109.877 83.7018C109.784 82.2468 109.542 78.6187 108.945 69.9542C108.124 57.9415 100.15 56.3186 99.0956 56.1601C99.0213 56.1511 98.9462 56.1511 98.8718 56.1601L83.8558 56.5704Z" fill="url(#paint40_linear_3467_5327)"/>
<path d="M114.277 68.5832C114.277 68.5832 113.186 71.4372 109.474 70.6724C108.485 70.4672 109.044 66.6432 109.044 66.6432L114.277 68.5832Z" fill="url(#paint41_linear_3467_5327)"/>
<path d="M107.693 60.9912C109.651 62.3436 114.706 68.6765 115.21 74.9347C115.244 75.9138 114.958 76.8774 114.396 77.68C113.834 78.4825 113.026 79.0804 112.095 79.3835C109.297 80.456 105.324 78.2643 103.775 75.5689C101.164 71.0454 99.8768 65.067 100.213 62.1478C100.348 61.3345 100.758 60.592 101.374 60.044C101.99 59.4959 102.775 59.1752 103.598 59.1352H103.654C105.184 59.0047 106.527 60.1892 107.693 60.9912Z" fill="url(#paint42_linear_3467_5327)"/>
<path d="M103.411 57.8948C106.461 58.8275 112.57 61.4856 114.277 68.5832C109.984 67.2576 105.362 67.4855 101.22 69.2268L99.0466 65.7199C98.4007 64.6975 98.1034 63.4934 98.1992 62.2878C98.2951 61.0823 98.7789 59.9402 99.5782 59.0327C99.7942 58.7845 100.038 58.5623 100.306 58.3705C100.755 58.0641 101.267 57.8623 101.805 57.78C102.342 57.6977 102.891 57.7369 103.411 57.8948Z" fill="url(#paint43_linear_3467_5327)"/>
<path d="M114.911 77.4156C114.359 78.9106 113.266 80.1443 111.848 80.8729C110.431 81.6016 108.792 81.7723 107.254 81.3514C103.763 80.3707 100.509 78.6853 97.6944 76.399C97.0042 75.8394 96.6032 75.4663 96.5659 74.5896C96.5099 73.3305 98.1327 72.3792 99.2799 71.8475C101.863 70.6537 104.979 68.9563 111.013 70.5978C112.486 70.9823 113.75 71.9258 114.538 73.2279C114.917 73.8506 115.148 74.5522 115.213 75.2783C115.277 76.0044 115.174 76.7356 114.911 77.4156Z" fill="url(#paint44_linear_3467_5327)"/>
<path d="M96.9593 71.2973C96.1452 71.0313 95.3999 70.5886 94.7768 70.0009C94.124 69.2174 93.5271 70.0008 93.7509 70.5791C93.8816 70.9763 94.0968 71.3404 94.3818 71.6463C94.6668 71.9522 95.0148 72.1927 95.4017 72.3512L95.3178 72.5657C94.386 72.4866 93.476 72.2402 92.6317 71.8382C91.4006 71.1947 91.1767 71.4931 91.1767 71.4931C91.1767 71.4931 90.7011 71.8475 91.1114 72.5284C91.5218 73.2092 93.5923 73.7595 93.5923 73.7595C92.56 73.7152 91.5349 73.5652 90.5332 73.3118C89.3767 72.9481 89.2275 74.4683 90.0948 74.8041C91.2061 75.0776 92.3388 75.2554 93.4804 75.3357C92.4983 75.3513 91.5164 75.2952 90.5425 75.1678C90.4113 75.1471 90.277 75.1701 90.1601 75.2331C89.9829 75.3451 89.8151 75.5782 90.0296 76.0912C90.412 76.9679 93.6856 76.7161 93.6856 76.7161C93.6856 76.7161 93.611 76.8653 91.8203 77.2104C91.8203 77.2104 90.8876 77.4529 91.6431 78.3389C92.0783 78.5144 92.5474 78.5896 93.0157 78.5589C93.4839 78.5282 93.9392 78.3925 94.3478 78.1617C94.3478 78.1617 98.9459 78.9078 99.0858 75.1585C99.2257 71.4092 96.9593 71.2973 96.9593 71.2973Z" fill="url(#paint45_linear_3467_5327)"/>
<path d="M87.8945 21.6513C87.8945 21.6513 91.5786 16.988 101.829 18.5828C101.907 18.596 101.978 18.6365 102.029 18.6971C102.08 18.7577 102.109 18.8345 102.109 18.9139C102.109 18.9933 102.08 19.0701 102.029 19.1307C101.978 19.1913 101.907 19.2318 101.829 19.245C99.9724 19.7321 98.2669 20.6746 96.8668 21.9871L94.3299 23.8524C93.8705 24.1886 93.3455 24.4246 92.789 24.5451C92.2326 24.6656 91.657 24.6679 91.0996 24.5519C90.5422 24.4358 90.0153 24.204 89.5532 23.8714C89.0911 23.5389 88.7039 23.113 88.4168 22.6213L87.8945 21.6513Z" fill="#7A4B34"/>
<path d="M99.8678 22.9197C100.519 22.2021 101.297 21.6109 102.162 21.1756C102.228 21.1462 102.281 21.0954 102.314 21.0316C102.347 20.9677 102.357 20.8946 102.343 20.8242C102.329 20.7538 102.291 20.6902 102.237 20.6439C102.182 20.5977 102.113 20.5714 102.041 20.5694C100.238 20.6542 98.4786 21.1452 96.8926 22.0057C97.6574 23.4327 99.8678 22.9197 99.8678 22.9197Z" fill="#7A4B34"/>
<path d="M72.8768 43.1027C72.8768 43.1027 69.5659 22.584 88.9281 21.8565C108.29 21.129 108.197 30.5956 108.197 44.2405C108.197 44.2405 113.868 41.5731 114.996 46.0406C116.862 53.5019 107.759 53.3247 106.444 52.2242C106.444 52.2242 90.0006 71.8102 74.1173 53.5766C74.1173 53.5766 66.8984 51.8045 68.6239 45.2851C68.5959 45.2758 69.6498 41.8902 72.8768 43.1027Z" fill="url(#paint46_linear_3467_5327)"/>
<path d="M108.457 45.8168C108.518 45.6491 108.637 45.5089 108.793 45.4216C108.949 45.3343 109.131 45.3058 109.306 45.3411C109.644 45.4382 109.948 45.629 110.182 45.8914C110.667 46.3749 110.97 47.0106 111.041 47.6915C111.103 48.3765 110.942 49.0633 110.584 49.6501C110.403 49.9287 110.158 50.1592 109.869 50.3217C109.58 50.4842 109.255 50.5738 108.923 50.5827C109.461 50.339 109.892 49.9081 110.136 49.3703C110.356 48.8529 110.446 48.2891 110.397 47.7288C110.338 47.1703 110.129 46.6384 109.791 46.1899C109.645 45.9579 109.447 45.7631 109.212 45.621C109.084 45.5594 108.937 45.5453 108.799 45.5811C108.661 45.617 108.54 45.7004 108.457 45.8168Z" fill="#ED987F"/>
<path d="M108.544 49.1277C108.511 48.8455 108.542 48.5593 108.636 48.291C108.729 48.0227 108.883 47.7793 109.085 47.5795C109.283 47.3454 109.557 47.1898 109.86 47.1411C110.157 47.0992 110.458 47.1763 110.699 47.3557V47.421C110.477 47.5535 110.246 47.6719 110.009 47.7754C109.813 47.8593 109.608 47.8873 109.412 47.9899C109.008 48.2514 108.72 48.6591 108.61 49.1277H108.544Z" fill="#ED987F"/>
<path d="M74.1263 45.2758C73.8492 45.1613 73.5503 45.1087 73.2507 45.1216C72.9511 45.1344 72.6579 45.2126 72.3916 45.3505C71.9225 45.6645 71.5893 46.1442 71.4589 46.6935C71.3207 47.2579 71.3466 47.8501 71.5335 48.4003C71.6313 48.6873 71.7869 48.9512 71.9906 49.1758C72.1943 49.4003 72.4419 49.5808 72.718 49.706C72.3698 49.6862 72.0332 49.5737 71.743 49.3802C71.4527 49.1868 71.2194 48.9193 71.0672 48.6055C70.7362 47.9647 70.65 47.2253 70.8247 46.5256C70.9123 46.1718 71.0774 45.8419 71.3081 45.5596C71.5387 45.2773 71.8292 45.0498 72.1584 44.8935C72.4888 44.7633 72.8495 44.7301 73.1981 44.7978C73.5467 44.8655 73.8688 45.0314 74.1263 45.2758Z" fill="#ED987F"/>
<path d="M72.9616 48.1578C72.8056 47.7544 72.5069 47.4225 72.1222 47.2251C71.9263 47.1505 71.7398 47.1505 71.5532 47.0852C71.3276 47.012 71.109 46.9183 70.9004 46.8054V46.7401C71 46.6424 71.1182 46.5657 71.2479 46.5144C71.3777 46.4632 71.5164 46.4384 71.6559 46.4416C71.9415 46.46 72.2104 46.5829 72.4113 46.7867C72.6138 46.956 72.7753 47.169 72.8835 47.4097C72.9918 47.6504 73.044 47.9126 73.0362 48.1764L72.9616 48.1578Z" fill="#ED987F"/>
<path d="M85.9824 48.3536C86.317 48.5971 86.6693 48.8153 87.0363 49.0064C87.3607 49.1743 87.7164 49.2728 88.0809 49.2956C88.4439 49.3048 88.8043 49.2315 89.1348 49.0811C89.5089 48.9015 89.8731 48.7022 90.2261 48.4841C90.1337 48.6887 90.0245 48.8852 89.8996 49.0717C89.757 49.2486 89.5942 49.4082 89.4147 49.5474C89.0302 49.8581 88.547 50.0202 88.0529 50.0044C87.5834 49.9643 87.1363 49.7861 86.7679 49.4923C86.3994 49.1986 86.1261 48.8024 85.9824 48.3536Z" fill="#ED987F"/>
<path opacity="0.2" d="M72.6899 43.1027C72.6899 43.1027 67.0286 26.268 83.1544 21.6513C83.1544 21.6513 96.2118 21.7446 95.932 22.2389C95.932 22.2389 107.824 21.6327 109.782 34.1864C109.782 34.1864 107.469 46.9826 107.497 46.852C107.879 44.6416 105.072 36.4714 100.521 32.862C99.792 33.4864 98.9098 33.905 97.9652 34.0745C96.8853 34.2547 95.7765 34.1232 94.7687 33.6953C93.761 33.2674 92.8962 32.561 92.2759 31.6589C92.2759 31.6589 83.826 35.4641 79.2186 28.0308C79.2186 28.0308 72.2702 30.8754 74.35 47.0199C73.6188 45.7969 73.0601 44.4787 72.6899 43.1027Z" fill="#AB6338"/>
<path d="M72.2548 42.9161C72.2548 42.9161 67.0692 25.2701 83.2044 20.616C83.2044 20.616 88.4926 19.329 91.4118 20.616C91.4118 20.616 108.107 19.8326 109.823 33.2071C110.627 37.7662 110.381 42.4486 109.105 46.8987C109.084 46.9585 109.042 47.0091 108.988 47.0415C108.933 47.0739 108.869 47.086 108.806 47.0759L105.822 47.0012C105.784 46.9994 105.746 46.9893 105.713 46.9717C105.679 46.954 105.65 46.9292 105.627 46.899C105.604 46.8688 105.587 46.834 105.579 46.7968C105.571 46.7597 105.571 46.7213 105.579 46.6841C106.111 44.4084 105.327 35.6133 100.813 32.0132C100.038 32.6759 99.1073 33.1315 98.1084 33.3376C97.0388 33.5234 95.9381 33.3825 94.9499 32.9332C93.9616 32.484 93.1317 31.7474 92.5683 30.8194C92.5683 30.8194 84.1743 34.7273 79.511 27.2939C79.511 27.2939 72.3761 29.8308 74.4466 46.7401C74.4505 46.771 74.4479 46.8023 74.439 46.8322C74.4301 46.862 74.4151 46.8896 74.3949 46.9133C74.3748 46.937 74.3498 46.9563 74.3218 46.9698C74.2938 46.9833 74.2632 46.9909 74.2321 46.9919H73.7005C73.656 46.9928 73.6123 46.9797 73.5756 46.9547C73.5388 46.9296 73.5108 46.8937 73.4953 46.852C73.3647 46.3857 72.8797 45.0426 72.2548 42.9161Z" fill="url(#paint47_linear_3467_5327)"/>
<path d="M84.3141 53.3621L91.9153 53.1942L92.0646 51.9164L89.7236 52.2522C88.6856 52.4355 87.6259 52.4607 86.5805 52.3268L84.0156 52.0563L84.3141 53.3621Z" fill="white"/>
<path d="M91.578 53.6605L91.8764 53.1569L84.3125 53.3247L84.8068 54.0149C85.2036 54.5588 85.7298 54.9951 86.3377 55.2843C86.9456 55.5736 87.6161 55.7066 88.2884 55.6714C88.9607 55.6362 89.6136 55.4339 90.188 55.0828C90.7624 54.7317 91.2401 54.2428 91.578 53.6605Z" fill="url(#paint48_linear_3467_5327)"/>
<path d="M90.2826 55.0688C90.152 54.5932 89.6484 54.2201 88.7903 54.2574C87.2235 54.3227 87.2328 55.4326 87.3727 55.5818C89.5085 55.6844 90.2826 55.0688 90.2826 55.0688Z" fill="#F59192"/>
<path d="M88.2232 55.6937C87.6925 55.7595 87.1538 55.7123 86.6426 55.5553C86.1313 55.3983 85.659 55.1351 85.2566 54.7829C84.8542 54.4307 84.5307 53.9974 84.3074 53.5114C84.0842 53.0255 83.9661 52.4978 83.9609 51.9631C85.4584 52.1007 86.9621 52.1599 88.4657 52.1403C89.7028 52.1262 90.9348 51.9792 92.1404 51.7019C92.1404 51.7019 92.5788 55.5911 88.2232 55.6937ZM84.0729 52.2802C84.1848 53.0263 84.8376 55.3953 88.2419 55.3207C88.8033 55.3489 89.3641 55.2552 89.8858 55.0459C90.4075 54.8366 90.8776 54.5166 91.2637 54.1082C91.7535 53.5174 92.0412 52.7852 92.0845 52.019C90.9106 52.3178 89.705 52.4744 88.4937 52.4853C87.0173 52.506 85.541 52.4375 84.0729 52.2802Z" fill="#ED977E"/>
<path opacity="0.2" d="M76.9263 38.7658C78.26 37.6466 82.6342 34.4289 84.2943 35.3802C84.4116 35.4482 84.51 35.5445 84.5805 35.6603C84.6509 35.7762 84.6913 35.9078 84.6978 36.0432C84.7043 36.1787 84.6767 36.3136 84.6176 36.4356C84.5586 36.5576 84.4699 36.6629 84.3596 36.7419C83.7955 37.1067 83.1592 37.3453 82.4943 37.4414C80.6948 37.8778 78.9584 38.5423 77.3273 39.4186C77.2428 39.4486 77.1505 39.4487 77.0659 39.4188C76.9813 39.3889 76.9096 39.3309 76.8626 39.2545C76.8157 39.178 76.7964 39.0878 76.808 38.9989C76.8195 38.9099 76.8613 38.8276 76.9263 38.7658Z" fill="#AB6338"/>
<path d="M76.654 38.5233C78.0344 37.3201 82.5672 33.8599 84.2833 34.8859C84.4039 34.9607 84.5042 35.0639 84.5756 35.1865C84.647 35.3091 84.6872 35.4474 84.6927 35.5892C84.6982 35.7309 84.6689 35.8719 84.6073 35.9997C84.5457 36.1275 84.4536 36.2382 84.3392 36.3222C83.7641 36.7177 83.1075 36.979 82.418 37.087C80.5511 37.5587 78.7543 38.2736 77.0737 39.2134C76.984 39.2481 76.8849 39.2501 76.7938 39.2191C76.7027 39.1881 76.6254 39.1261 76.5754 39.0438C76.5254 38.9616 76.5059 38.8644 76.5202 38.7693C76.5346 38.6741 76.582 38.587 76.654 38.5233Z" fill="url(#paint49_linear_3467_5327)"/>
<path opacity="0.2" d="M99.376 38.7658C98.0422 37.6466 93.6774 34.4289 92.0079 35.3802C91.8906 35.4482 91.7922 35.5445 91.7217 35.6603C91.6513 35.7762 91.6109 35.9078 91.6044 36.0432C91.598 36.1787 91.6255 36.3136 91.6846 36.4356C91.7436 36.5576 91.8323 36.6629 91.9426 36.7419C92.5076 37.1049 93.1435 37.3433 93.8079 37.4414C95.6074 37.8778 97.3438 38.5423 98.9749 39.4186C99.0595 39.4486 99.1517 39.4487 99.2363 39.4188C99.3209 39.3889 99.3926 39.3309 99.4396 39.2545C99.4865 39.178 99.5058 39.0878 99.4942 38.9989C99.4827 38.9099 99.4409 38.8276 99.376 38.7658Z" fill="#AB6338"/>
<path d="M99.5881 38.5233C98.2077 37.3201 93.675 33.8599 91.9588 34.8859C91.8395 34.9613 91.7402 35.0645 91.6694 35.1866C91.5985 35.3086 91.5581 35.446 91.5517 35.587C91.5453 35.728 91.573 35.8685 91.6325 35.9965C91.6921 36.1245 91.7816 36.2362 91.8936 36.3222C92.4729 36.7162 93.1322 36.9773 93.8242 37.087C95.691 37.5587 97.4878 38.2736 99.1684 39.2134C99.2582 39.2481 99.3572 39.2501 99.4483 39.2191C99.5394 39.1881 99.6167 39.1261 99.6667 39.0438C99.7167 38.9616 99.7363 38.8644 99.7219 38.7693C99.7075 38.6741 99.6602 38.587 99.5881 38.5233Z" fill="url(#paint50_linear_3467_5327)"/>
<path d="M81.8591 48.251C84.2234 48.251 86.14 46.3343 86.14 43.97C86.14 41.6057 84.2234 39.6891 81.8591 39.6891C79.4948 39.6891 77.5781 41.6057 77.5781 43.97C77.5781 46.3343 79.4948 48.251 81.8591 48.251Z" fill="white"/>
<path d="M80.6183 46.5722C81.9112 46.5722 82.9593 45.5241 82.9593 44.2312C82.9593 42.9383 81.9112 41.8903 80.6183 41.8903C79.3254 41.8903 78.2773 42.9383 78.2773 44.2312C78.2773 45.5241 79.3254 46.5722 80.6183 46.5722Z" fill="url(#paint51_linear_3467_5327)"/>
<path d="M94.4099 48.251C96.7742 48.251 98.6908 46.3343 98.6908 43.97C98.6908 41.6057 96.7742 39.6891 94.4099 39.6891C92.0455 39.6891 90.1289 41.6057 90.1289 43.97C90.1289 46.3343 92.0455 48.251 94.4099 48.251Z" fill="white"/>
<path d="M93.1789 46.5722C94.4718 46.5722 95.5199 45.5241 95.5199 44.2312C95.5199 42.9383 94.4718 41.8903 93.1789 41.8903C91.886 41.8903 90.8379 42.9383 90.8379 44.2312C90.8379 45.5241 91.886 46.5722 93.1789 46.5722Z" fill="url(#paint52_linear_3467_5327)"/>
</g>
</g>
<defs>
<linearGradient id="paint0_linear_3467_5327" x1="34.3112" y1="53.6355" x2="15.2754" y2="52.1126" gradientUnits="userSpaceOnUse">
<stop stop-color="#563731"/>
<stop offset="0.27" stop-color="#5A3B2E"/>
<stop offset="0.35" stop-color="#5D3D2D"/>
<stop offset="0.55" stop-color="#68432B"/>
<stop offset="0.65" stop-color="#6F472A"/>
<stop offset="0.97" stop-color="#7B4E2F"/>
</linearGradient>
<linearGradient id="paint1_linear_3467_5327" x1="44.8315" y1="56.1127" x2="53.7784" y2="39.3612" gradientUnits="userSpaceOnUse">
<stop stop-color="#513134"/>
<stop offset="0.99" stop-color="#563731"/>
</linearGradient>
<linearGradient id="paint2_linear_3467_5327" x1="38.7679" y1="76.4471" x2="34.3409" y2="77.338" gradientUnits="userSpaceOnUse">
<stop stop-color="#FBC3AA"/>
<stop offset="0.26" stop-color="#FCCFC6"/>
<stop offset="0.34" stop-color="#FCD4D1"/>
<stop offset="0.7" stop-color="#FDDED0"/>
<stop offset="1" stop-color="#FEE2CC"/>
</linearGradient>
<linearGradient id="paint3_linear_3467_5327" x1="74.706" y1="52.7246" x2="64.1988" y2="55.9793" gradientUnits="userSpaceOnUse">
<stop stop-color="#F05455"/>
<stop offset="0.41" stop-color="#F05753"/>
<stop offset="0.71" stop-color="#F2665C"/>
<stop offset="0.94" stop-color="#F37065"/>
</linearGradient>
<linearGradient id="paint4_linear_3467_5327" x1="60.8415" y1="35.7145" x2="58.8742" y2="36.7312" gradientUnits="userSpaceOnUse">
<stop stop-color="#F05455"/>
<stop offset="0.41" stop-color="#F05753"/>
<stop offset="1" stop-color="#F2665C"/>
</linearGradient>
<linearGradient id="paint5_linear_3467_5327" x1="53.7619" y1="61.5847" x2="44.6299" y2="27.7988" gradientUnits="userSpaceOnUse">
<stop stop-color="#F05455"/>
<stop offset="0.3" stop-color="#F05753"/>
<stop offset="0.4" stop-color="#F05B55"/>
<stop offset="0.5" stop-color="#F2665C"/>
<stop offset="0.94" stop-color="#F37065"/>
</linearGradient>
<linearGradient id="paint6_linear_3467_5327" x1="64.7873" y1="43.2843" x2="69.1074" y2="45.2307" gradientUnits="userSpaceOnUse">
<stop stop-color="#FBC3AA"/>
<stop offset="0.26" stop-color="#FCCFC6"/>
<stop offset="0.34" stop-color="#FCD4D1"/>
<stop offset="0.7" stop-color="#FDDED0"/>
<stop offset="1" stop-color="#FEE2CC"/>
</linearGradient>
<linearGradient id="paint7_linear_3467_5327" x1="34.3762" y1="74.5872" x2="30.1615" y2="74.9188" gradientUnits="userSpaceOnUse">
<stop stop-color="#FBC3AA"/>
<stop offset="0.26" stop-color="#FCCFC6"/>
<stop offset="0.34" stop-color="#FCD4D1"/>
<stop offset="0.7" stop-color="#FDDED0"/>
<stop offset="1" stop-color="#FEE2CC"/>
</linearGradient>
<linearGradient id="paint8_linear_3467_5327" x1="41.1031" y1="48.2994" x2="37.3714" y2="59.3394" gradientUnits="userSpaceOnUse">
<stop stop-color="#F05455"/>
<stop offset="0.33" stop-color="#F05753"/>
<stop offset="0.63" stop-color="#F2665C"/>
<stop offset="0.94" stop-color="#F37065"/>
</linearGradient>
<linearGradient id="paint9_linear_3467_5327" x1="37.9215" y1="52.8956" x2="36.7195" y2="62.5031" gradientUnits="userSpaceOnUse">
<stop stop-color="#FBC3AA"/>
<stop offset="0.54" stop-color="#FCD7C6"/>
<stop offset="0.7" stop-color="#FDDED0"/>
<stop offset="1" stop-color="#FEE2CC"/>
</linearGradient>
<linearGradient id="paint10_linear_3467_5327" x1="40.5853" y1="63.8256" x2="25.9022" y2="77.5731" gradientUnits="userSpaceOnUse">
<stop stop-color="#6FA0CC"/>
<stop offset="0.32" stop-color="#7DB7D1"/>
<stop offset="0.53" stop-color="#89C5D2"/>
<stop offset="0.75" stop-color="#97D0CB"/>
<stop offset="1" stop-color="#A6DACD"/>
</linearGradient>
<linearGradient id="paint11_linear_3467_5327" x1="49.243" y1="39.705" x2="45.5889" y2="39.9268" gradientUnits="userSpaceOnUse">
<stop stop-color="#FBC3AA"/>
<stop offset="0.32" stop-color="#FCCFC6"/>
<stop offset="0.43" stop-color="#FCD4D1"/>
<stop offset="1" stop-color="#FDDED0"/>
</linearGradient>
<linearGradient id="paint12_linear_3467_5327" x1="46.1627" y1="33.3048" x2="22.7386" y2="46.0816" gradientUnits="userSpaceOnUse">
<stop stop-color="#FBC3AA"/>
<stop offset="0.26" stop-color="#FCCFC6"/>
<stop offset="0.34" stop-color="#FCD4D1"/>
<stop offset="0.7" stop-color="#FDDED0"/>
<stop offset="1" stop-color="#FEE2CC"/>
</linearGradient>
<linearGradient id="paint13_linear_3467_5327" x1="43.3873" y1="25.6136" x2="34.671" y2="30.368" gradientUnits="userSpaceOnUse">
<stop stop-color="#513134"/>
<stop offset="0.99" stop-color="#563731"/>
</linearGradient>
<linearGradient id="paint14_linear_3467_5327" x1="28.415" y1="44.9576" x2="27.7111" y2="21.4956" gradientUnits="userSpaceOnUse">
<stop offset="0.17" stop-color="#6F472A"/>
<stop offset="0.33" stop-color="#68432B"/>
<stop offset="0.65" stop-color="#5D3D2D"/>
<stop offset="0.73" stop-color="#5A3B2E"/>
<stop offset="1" stop-color="#563731"/>
</linearGradient>
<linearGradient id="paint15_linear_3467_5327" x1="39.6897" y1="44.8012" x2="34.0608" y2="47.2485" gradientUnits="userSpaceOnUse">
<stop stop-color="#A82824"/>
<stop offset="0.39" stop-color="#8C2C22"/>
<stop offset="1" stop-color="#852E1E"/>
</linearGradient>
<linearGradient id="paint16_linear_3467_5327" x1="38.144" y1="46.6964" x2="33.399" y2="48.7594" gradientUnits="userSpaceOnUse">
<stop stop-color="#F1637F"/>
<stop offset="0.49" stop-color="#F37F95"/>
<stop offset="1" stop-color="#F6A2B0"/>
</linearGradient>
<linearGradient id="paint17_linear_3467_5327" x1="31.9725" y1="36.0789" x2="26.8346" y2="38.8814" gradientUnits="userSpaceOnUse">
<stop stop-color="#513134"/>
<stop offset="0.99" stop-color="#563731"/>
</linearGradient>
<linearGradient id="paint18_linear_3467_5327" x1="37.6261" y1="34.426" x2="43.419" y2="33.6973" gradientUnits="userSpaceOnUse">
<stop stop-color="#513134"/>
<stop offset="0.99" stop-color="#563731"/>
</linearGradient>
<linearGradient id="paint19_linear_3467_5327" x1="38.8534" y1="60.9411" x2="24.1025" y2="45.8352" gradientUnits="userSpaceOnUse">
<stop offset="0.09" stop-color="#F05753"/>
<stop offset="0.5" stop-color="#F2665C"/>
<stop offset="0.94" stop-color="#F37065"/>
</linearGradient>
<linearGradient id="paint20_linear_3467_5327" x1="59.3232" y1="62.379" x2="58.0466" y2="60.5741" gradientUnits="userSpaceOnUse">
<stop stop-color="#F05455"/>
<stop offset="0.41" stop-color="#F05753"/>
<stop offset="1" stop-color="#F2665C"/>
</linearGradient>
<linearGradient id="paint21_linear_3467_5327" x1="33.3473" y1="64.4047" x2="58.6295" y2="53.7402" gradientUnits="userSpaceOnUse">
<stop offset="0.09" stop-color="#F05753"/>
<stop offset="0.5" stop-color="#F2665C"/>
<stop offset="0.94" stop-color="#F37065"/>
</linearGradient>
<linearGradient id="paint22_linear_3467_5327" x1="52.1321" y1="60.7227" x2="51.082" y2="65.3524" gradientUnits="userSpaceOnUse">
<stop stop-color="#FBC3AA"/>
<stop offset="0.26" stop-color="#FCCFC6"/>
<stop offset="0.34" stop-color="#FCD4D1"/>
<stop offset="0.7" stop-color="#FDDED0"/>
<stop offset="1" stop-color="#FEE2CC"/>
</linearGradient>
<linearGradient id="paint23_linear_3467_5327" x1="73.1959" y1="68.7231" x2="67.8145" y2="68.7231" gradientUnits="userSpaceOnUse">
<stop offset="0.05" stop-color="#FCB447"/>
<stop offset="0.52" stop-color="#FDB852"/>
<stop offset="1" stop-color="#FDB957"/>
</linearGradient>
<linearGradient id="paint24_linear_3467_5327" x1="73.2125" y1="83.2074" x2="75.0032" y2="62.3903" gradientUnits="userSpaceOnUse">
<stop stop-color="#FEE2CC"/>
<stop offset="0.3" stop-color="#FED9BB"/>
<stop offset="0.59" stop-color="#FCCAB7"/>
<stop offset="0.68" stop-color="#FBC0AE"/>
<stop offset="0.86" stop-color="#F9B09F"/>
<stop offset="1" stop-color="#F8AA9A"/>
</linearGradient>
<linearGradient id="paint25_linear_3467_5327" x1="67.8145" y1="63.4815" x2="83.9216" y2="63.4815" gradientUnits="userSpaceOnUse">
<stop offset="0.05" stop-color="#FEC156"/>
<stop offset="0.8" stop-color="#FDBC57"/>
<stop offset="1" stop-color="#FDB957"/>
</linearGradient>
<linearGradient id="paint26_linear_3467_5327" x1="71.1318" y1="75.2417" x2="54.7783" y2="65.3206" gradientUnits="userSpaceOnUse">
<stop stop-color="#FCCAB7"/>
<stop offset="0.7" stop-color="#FED9BB"/>
<stop offset="1" stop-color="#FEE2CC"/>
</linearGradient>
<linearGradient id="paint27_linear_3467_5327" x1="65.5105" y1="65.7901" x2="59.5888" y2="72.5193" gradientUnits="userSpaceOnUse">
<stop stop-color="#FCCAB7"/>
<stop offset="0.23" stop-color="#FDD3BA"/>
<stop offset="0.51" stop-color="#FED9BB"/>
<stop offset="1" stop-color="#FEE2CC"/>
</linearGradient>
<linearGradient id="paint28_linear_3467_5327" x1="90.1038" y1="107.998" x2="75.0319" y2="107.998" gradientUnits="userSpaceOnUse">
<stop offset="0.05" stop-color="#F05455"/>
<stop offset="0.39" stop-color="#F05753"/>
<stop offset="1" stop-color="#F2665C"/>
</linearGradient>
<linearGradient id="paint29_linear_3467_5327" x1="90.0759" y1="110.796" x2="80.3295" y2="110.796" gradientUnits="userSpaceOnUse">
<stop stop-color="#FDDED0"/>
<stop offset="0.95" stop-color="#FEE2CC"/>
</linearGradient>
<linearGradient id="paint30_linear_3467_5327" x1="80.9819" y1="110.413" x2="74.9848" y2="110.413" gradientUnits="userSpaceOnUse">
<stop offset="0.05" stop-color="#FDDED0"/>
<stop offset="1" stop-color="#FEE2CC"/>
</linearGradient>
<linearGradient id="paint31_linear_3467_5327" x1="85.153" y1="107.037" x2="82.0286" y2="107.037" gradientUnits="userSpaceOnUse">
<stop stop-color="#FDDED0"/>
<stop offset="0.95" stop-color="#FEE2CC"/>
</linearGradient>
<linearGradient id="paint32_linear_3467_5327" x1="83.1178" y1="108.222" x2="79.9934" y2="108.222" gradientUnits="userSpaceOnUse">
<stop stop-color="#FDDED0"/>
<stop offset="0.95" stop-color="#FEE2CC"/>
</linearGradient>
<linearGradient id="paint33_linear_3467_5327" x1="92.3788" y1="93.6533" x2="75.7121" y2="86.1546" gradientUnits="userSpaceOnUse">
<stop stop-color="#164B9C"/>
<stop offset="0.45" stop-color="#194C9D"/>
<stop offset="0.75" stop-color="#224E9F"/>
<stop offset="1" stop-color="#3052A2"/>
</linearGradient>
<linearGradient id="paint34_linear_3467_5327" x1="104.196" y1="108.669" x2="89.1243" y2="108.669" gradientUnits="userSpaceOnUse">
<stop offset="0.05" stop-color="#F05455"/>
<stop offset="0.39" stop-color="#F05753"/>
<stop offset="1" stop-color="#F2665C"/>
</linearGradient>
<linearGradient id="paint35_linear_3467_5327" x1="104.168" y1="111.467" x2="94.4212" y2="111.467" gradientUnits="userSpaceOnUse">
<stop stop-color="#FDDED0"/>
<stop offset="0.95" stop-color="#FEE2CC"/>
</linearGradient>
<linearGradient id="paint36_linear_3467_5327" x1="95.072" y1="111.085" x2="89.0843" y2="111.085" gradientUnits="userSpaceOnUse">
<stop offset="0.05" stop-color="#FDDED0"/>
<stop offset="1" stop-color="#FEE2CC"/>
</linearGradient>
<linearGradient id="paint37_linear_3467_5327" x1="99.2517" y1="107.699" x2="96.118" y2="107.699" gradientUnits="userSpaceOnUse">
<stop stop-color="#FDDED0"/>
<stop offset="0.95" stop-color="#FEE2CC"/>
</linearGradient>
<linearGradient id="paint38_linear_3467_5327" x1="97.2081" y1="108.893" x2="94.0837" y2="108.893" gradientUnits="userSpaceOnUse">
<stop stop-color="#FDDED0"/>
<stop offset="0.95" stop-color="#FEE2CC"/>
</linearGradient>
<linearGradient id="paint39_linear_3467_5327" x1="107.776" y1="86.1733" x2="93.954" y2="96.4886" gradientUnits="userSpaceOnUse">
<stop offset="0.05" stop-color="#4670B7"/>
<stop offset="0.46" stop-color="#385DAA"/>
<stop offset="0.67" stop-color="#3052A2"/>
<stop offset="0.75" stop-color="#224E9F"/>
<stop offset="0.85" stop-color="#194C9D"/>
<stop offset="1" stop-color="#164B9C"/>
</linearGradient>
<linearGradient id="paint40_linear_3467_5327" x1="102.22" y1="84.5692" x2="77.7842" y2="60.8141" gradientUnits="userSpaceOnUse">
<stop stop-color="#FDE045"/>
<stop offset="0.19" stop-color="#FFD540"/>
<stop offset="0.54" stop-color="#FEC156"/>
<stop offset="0.86" stop-color="#FEBE56"/>
<stop offset="1" stop-color="#FDB957"/>
</linearGradient>
<linearGradient id="paint41_linear_3467_5327" x1="108.886" y1="68.7231" x2="114.277" y2="68.7231" gradientUnits="userSpaceOnUse">
<stop offset="0.05" stop-color="#FCB447"/>
<stop offset="0.52" stop-color="#FDB852"/>
<stop offset="1" stop-color="#FDB957"/>
</linearGradient>
<linearGradient id="paint42_linear_3467_5327" x1="108.877" y1="83.2074" x2="107.086" y2="62.3903" gradientUnits="userSpaceOnUse">
<stop stop-color="#FEE2CC"/>
<stop offset="0.3" stop-color="#FED9BB"/>
<stop offset="0.59" stop-color="#FCCAB7"/>
<stop offset="0.68" stop-color="#FBC0AE"/>
<stop offset="0.86" stop-color="#F9B09F"/>
<stop offset="1" stop-color="#F8AA9A"/>
</linearGradient>
<linearGradient id="paint43_linear_3467_5327" x1="114.277" y1="63.4815" x2="105.696" y2="63.4815" gradientUnits="userSpaceOnUse">
<stop stop-color="#FDB957"/>
<stop offset="0.65" stop-color="#FDBC57"/>
<stop offset="0.95" stop-color="#FEC156"/>
</linearGradient>
<linearGradient id="paint44_linear_3467_5327" x1="118.26" y1="78.3617" x2="99.3341" y2="76.1501" gradientUnits="userSpaceOnUse">
<stop stop-color="#FCCAB7"/>
<stop offset="0.7" stop-color="#FED9BB"/>
<stop offset="1" stop-color="#FEE2CC"/>
</linearGradient>
<linearGradient id="paint45_linear_3467_5327" x1="96.6584" y1="71.4491" x2="90.8734" y2="78.3188" gradientUnits="userSpaceOnUse">
<stop stop-color="#FEE2CC"/>
<stop offset="0.49" stop-color="#FED9BB"/>
<stop offset="0.77" stop-color="#FDD3BA"/>
<stop offset="1" stop-color="#FCCAB7"/>
</linearGradient>
<linearGradient id="paint46_linear_3467_5327" x1="73.3991" y1="46.7681" x2="107.292" y2="35.3709" gradientUnits="userSpaceOnUse">
<stop stop-color="#F8AA9A"/>
<stop offset="0.31" stop-color="#FCC6B4"/>
<stop offset="0.34" stop-color="#FCCAB7"/>
<stop offset="0.7" stop-color="#FED9BB"/>
<stop offset="1" stop-color="#FEE2CC"/>
</linearGradient>
<linearGradient id="paint47_linear_3467_5327" x1="73.7005" y1="35.8559" x2="112.649" y2="32.1345" gradientUnits="userSpaceOnUse">
<stop stop-color="#4A252F"/>
<stop offset="0.37" stop-color="#7A4B34"/>
<stop offset="1" stop-color="#9F603A"/>
</linearGradient>
<linearGradient id="paint48_linear_3467_5327" x1="84.3125" y1="54.416" x2="91.8764" y2="54.416" gradientUnits="userSpaceOnUse">
<stop offset="0.01" stop-color="#EF4553"/>
<stop offset="0.62" stop-color="#BA3D45"/>
<stop offset="1" stop-color="#9E383D"/>
</linearGradient>
<linearGradient id="paint49_linear_3467_5327" x1="77.0984" y1="37.6744" x2="87.1431" y2="35.2312" gradientUnits="userSpaceOnUse">
<stop stop-color="#4A252F"/>
<stop offset="1" stop-color="#7A4B34"/>
</linearGradient>
<linearGradient id="paint50_linear_3467_5327" x1="101.192" y1="38.1973" x2="91.1674" y2="35.8053" gradientUnits="userSpaceOnUse">
<stop stop-color="#4A252F"/>
<stop offset="0.97" stop-color="#7A4B34"/>
</linearGradient>
<linearGradient id="paint51_linear_3467_5327" x1="78.2773" y1="44.2313" x2="82.9593" y2="44.2313" gradientUnits="userSpaceOnUse">
<stop stop-color="#162649"/>
<stop offset="1" stop-color="#273861"/>
</linearGradient>
<linearGradient id="paint52_linear_3467_5327" x1="90.8379" y1="44.2313" x2="95.5199" y2="44.2313" gradientUnits="userSpaceOnUse">
<stop stop-color="#162649"/>
<stop offset="1" stop-color="#273861"/>
</linearGradient>
</defs>
</svg>
