<svg width="120" height="120" viewBox="0 0 120 120" fill="none" xmlns="http://www.w3.org/2000/svg">
<mask id="mask0_3467_5446" style="mask-type:alpha" maskUnits="userSpaceOnUse" x="0" y="0" width="120" height="120">
<rect width="120" height="120" fill="white"/>
</mask>
<g mask="url(#mask0_3467_5446)">
<mask id="mask1_3467_5446" style="mask-type:luminance" maskUnits="userSpaceOnUse" x="2" y="2" width="117" height="117">
<path d="M118.88 60.4489C118.88 75.9482 112.723 90.8126 101.763 101.772C90.8037 112.732 75.9392 118.889 60.44 118.889C44.9407 118.889 30.0763 112.732 19.1167 101.772C8.15706 90.8126 2 75.9482 2 60.4489C2 54.7489 5.58 40.1589 6.34 38.2989C11.4724 25.7664 20.7974 15.405 32.7217 8.98501C44.6461 2.56507 58.4297 0.485048 71.7175 3.10034C85.0053 5.71563 96.9727 12.864 105.575 23.3239C114.177 33.7838 118.88 46.9062 118.88 60.4489Z" fill="white"/>
</mask>
<g mask="url(#mask1_3467_5446)">
<path d="M59.9908 118.18C92.2663 118.18 118.431 92.0155 118.431 59.74C118.431 27.4645 92.2663 1.29999 59.9908 1.29999C27.7153 1.29999 1.55078 27.4645 1.55078 59.74C1.55078 92.0155 27.7153 118.18 59.9908 118.18Z" fill="#3984C5"/>
<g style="mix-blend-mode:screen" opacity="0.55">
<path d="M-2.40039 52.5189C-2.40039 52.5189 18.8496 63.5789 19.5196 49.9989C20.1896 36.4189 16.3496 33.3189 30.7796 30.5589C45.2096 27.7989 49.5996 -0.191071 49.5996 -0.191071H76.1996C76.1996 -0.191071 77.3096 21.2189 84.7996 24.1389C92.2896 27.0589 101.8 21.6089 106.52 46.5989C111.24 71.5889 123.35 49.2389 123.35 49.2389V75.5489C123.35 75.5489 119.02 68.6689 110.1 74.6289C101.18 80.5889 94.0996 78.3989 91.3596 74.9489C88.6196 71.4989 64.8996 46.9489 44.3596 66.1089C33.6496 76.1089 36.7596 81.2089 25.0896 81.1089C13.4196 81.0089 8.18961 73.7189 3.26961 75.8889C-1.65039 78.0589 -2.40039 79.6589 -2.40039 79.6589V52.5189Z" fill="#3984C5"/>
</g>
<path d="M101.49 37.8089C101.4 37.4789 101.3 37.0889 101.23 36.8089C101.157 36.5269 101.024 36.2642 100.84 36.039C100.607 35.7243 100.276 35.4957 99.8995 35.3889C99.7504 35.3937 99.6053 35.4386 99.4795 35.5189C99.3095 35.3889 98.8195 35.4489 98.9695 36.4389C99.0779 37.0057 99.1282 37.582 99.1195 38.1589L98.3095 39.6389C98.3095 39.6389 97.3095 40.4089 96.6695 40.8089C96.6695 40.1789 96.6695 37.9889 95.3595 38.3989C94.4895 38.6789 94.5995 39.4989 94.7395 39.9589C94.7843 40.1003 94.8482 40.2349 94.9295 40.3589C95.1295 40.6789 94.8395 41.2389 94.8395 41.2389C94.5956 41.7051 94.4461 42.2149 94.3995 42.7389C91.8113 44.3704 89.5132 46.4218 87.5995 48.8089C87.8217 47.8834 87.766 46.913 87.4395 46.0189C85.9495 41.6389 82.0495 42.6389 80.5095 43.2389C80.9995 40.6089 79.7995 33.0289 79.7995 33.0289C77.7995 20.2089 65.6695 20.8289 65.6695 20.8289C65.9995 20.3289 61.8195 20.569 61.8195 20.569C63.2548 19.2485 64.9923 18.3008 66.8795 17.8089C66.9584 17.7953 67.03 17.7541 67.0816 17.6929C67.1331 17.6316 67.1614 17.554 67.1614 17.4739C67.1614 17.3938 67.1331 17.3163 67.0816 17.255C67.03 17.1937 66.9584 17.1526 66.8795 17.1389C56.3895 15.5389 52.5995 20.259 52.5995 20.259C37.0395 24.749 40.9495 41.1089 41.4095 42.8089C36.1495 40.1989 34.0395 45.0889 34.0395 45.0889C31.1995 53.9789 43.3295 53.849 43.3295 53.849C43.7695 54.249 44.2095 54.6289 44.6395 54.9989L43.1895 54.9189C40.9881 53.9445 38.6735 53.2491 36.2995 52.849C35.9058 52.7881 35.5079 52.758 35.1095 52.759C32.7995 48.079 29.8595 46.7589 27.5195 45.4989C27.2921 45.3738 27.0585 45.2603 26.8195 45.1589C26.8537 44.729 26.7851 44.2971 26.6195 43.8989C26.1153 42.6419 25.3039 41.5314 24.2595 40.6689L23.3095 39.5889C23.1315 39.313 22.8627 39.1079 22.5495 39.009L21.5495 38.6689C21.276 38.578 20.986 38.5473 20.6995 38.5789C20.3068 38.6023 19.9333 38.7573 19.6395 39.0189C19.5599 39.144 19.5214 39.2909 19.5295 39.4389C19.3195 39.5089 19.1095 39.9689 20.0195 40.3689C20.554 40.586 21.0663 40.8538 21.5495 41.1689L22.3495 42.6589C22.3495 42.6589 22.4495 43.9289 22.4495 44.6589C21.9395 44.2989 20.0795 43.1489 19.7195 44.4589C19.4795 45.3389 20.2295 45.6889 20.7195 45.8289C20.8632 45.8658 21.0113 45.8826 21.1595 45.879C21.5495 45.879 21.8495 46.4289 21.8495 46.4289C22.1029 46.8836 22.4426 47.2844 22.8495 47.6089C22.8088 51.1084 23.4472 54.5826 24.7295 57.8389C25.0878 58.6995 25.6227 59.4753 26.2997 60.1161C26.9766 60.7569 27.7806 61.2484 28.6595 61.5589C28.8913 61.8437 29.1604 62.096 29.4595 62.3089C31.0864 63.378 32.8765 64.175 34.7595 64.6689C34.8216 65.0175 34.9363 65.3547 35.0995 65.6689C38.176 67.1457 41.6859 67.448 44.9695 66.5189C44.4953 68.0863 44.1606 69.6926 43.9695 71.319C42.1795 84.629 41.0995 84.4989 42.5395 85.6089C42.6991 85.709 42.8752 85.7801 43.0595 85.819C44.0595 87.889 50.0595 100.819 51.5995 102.509C52.9495 103.979 52.4895 106.359 52.2595 107.249C52.2298 107.35 52.239 107.458 52.2852 107.553C52.3315 107.647 52.4116 107.721 52.5095 107.759L52.8295 107.879L47.5995 110.659H47.5395L45.4795 111.749C45.107 111.937 44.7873 112.216 44.5495 112.559C44.0895 113.239 43.9495 114.259 46.9295 114.469H47.3895C47.3895 114.469 55.2395 114.469 57.3895 114.209C57.7961 114.224 58.1988 114.126 58.5523 113.924C58.9057 113.723 59.1957 113.427 59.3895 113.069H59.4495C59.6009 112.802 59.6704 112.496 59.6495 112.189C59.7287 110.932 59.6345 109.67 59.3695 108.439C59.5343 108.367 59.6742 108.247 59.772 108.096C59.8697 107.945 59.921 107.769 59.9195 107.589C59.9224 107.523 59.9114 107.456 59.8873 107.394C59.8632 107.332 59.8265 107.276 59.7795 107.229C59.6495 107.109 59.7795 106.909 59.8695 106.719C60.0355 106.495 60.1456 106.235 60.1908 105.96C60.2361 105.686 60.215 105.404 60.1295 105.139L59.9395 104.529L60.8495 98.7489L61.3295 93.1389V90.8989L63.4795 95.539L66.2695 100.419L69.5395 105.289L69.6195 105.919C69.6532 106.195 69.7525 106.459 69.9091 106.688C70.0657 106.918 70.275 107.107 70.5195 107.239C70.7295 107.359 70.8795 107.499 70.8195 107.669C70.7922 107.73 70.7781 107.797 70.7781 107.864C70.7781 107.931 70.7922 107.998 70.8195 108.059C70.8923 108.224 71.0135 108.363 71.167 108.458C71.3206 108.552 71.4994 108.598 71.6795 108.589C71.9544 109.822 72.4022 111.011 73.0095 112.119C73.1181 112.408 73.3094 112.658 73.5595 112.839H73.6295C73.9562 113.08 74.3432 113.225 74.7476 113.258C75.152 113.292 75.5577 113.213 75.9195 113.029C77.9795 112.359 85.0995 109.029 85.0995 109.029C85.271 108.967 85.4381 108.894 85.5995 108.809C88.2095 107.359 87.6595 106.499 86.9595 106.079C86.5951 105.864 86.1825 105.743 85.7595 105.729L83.4395 105.609L77.5495 105.299L77.7795 105.059C77.8484 104.982 77.8865 104.882 77.8865 104.779C77.8865 104.676 77.8484 104.576 77.7795 104.499C77.1895 103.789 75.7795 101.819 76.3795 99.9189C76.7995 98.6089 76.8395 92.9189 76.7995 88.1489L78.0295 87.7989C78.2854 87.7196 78.5091 87.5602 78.6675 87.3442C78.826 87.1281 78.9108 86.8669 78.9095 86.599C78.9095 85.119 78.9095 81.4089 78.9095 72.5489C78.9178 71.035 78.7738 69.5241 78.4795 68.039C82.3973 67.821 86.1383 66.3365 89.1395 63.8089C89.2176 63.4817 89.2479 63.1449 89.2295 62.8089C90.9509 61.8955 92.5088 60.7026 93.8395 59.2789C93.9954 59.1205 94.1299 58.9423 94.2395 58.7489C94.856 58.3326 95.3914 57.8074 95.8195 57.199C99.4995 51.989 98.9595 48.409 98.7195 45.509C98.7195 45.269 98.6695 44.999 98.6195 44.729C99.0173 44.5361 99.3609 44.2474 99.6195 43.8889C100.4 42.78 100.895 41.4952 101.06 40.1489L101.45 38.7689C101.581 38.4649 101.595 38.1229 101.49 37.8089ZM72.4095 58.7189C72.4095 58.7189 72.3195 58.819 72.2795 58.879L72.1895 58.8289L72.4095 58.7189ZM76.0795 56.3089C76.9373 55.6629 77.7462 54.9543 78.4995 54.1889C79.2997 54.1498 80.0938 54.0291 80.8695 53.8289C80.1195 54.2989 79.3995 54.829 78.7195 55.319L76.0795 56.3089ZM86.0795 51.199C86.0754 51.2422 86.0754 51.2857 86.0795 51.3289H85.9495L86.0795 51.199ZM61.2995 89.199H61.4995L61.2995 89.3089V89.199Z" fill="white"/>
<path d="M41.209 69.5589C41.209 69.5589 61.569 63.6789 81.319 71.9889" stroke="#F05455" stroke-width="2.85" stroke-miterlimit="10" stroke-linecap="round"/>
<path d="M58.9388 106.429C60.4188 113.079 59.4988 113.979 57.3788 114.229C55.2588 114.479 47.3788 114.489 47.3788 114.489C47.3788 114.489 42.8388 114.429 44.7688 112.289C44.9545 112.079 45.1785 111.905 45.4288 111.779L52.8388 107.859C52.896 107.827 52.9436 107.781 52.977 107.725C53.0104 107.668 53.0283 107.604 53.0288 107.539V106.429C53.0288 106.429 58.5988 104.809 58.9388 106.429Z" fill="url(#paint0_linear_3467_5446)"/>
<path d="M52.98 113.809C55.1546 113.871 57.3275 113.639 59.44 113.119C59.5913 112.851 59.6609 112.546 59.64 112.239C56.532 112.894 53.3463 113.099 50.18 112.849C50.1146 112.839 50.0478 112.844 49.9843 112.862C49.9208 112.88 49.862 112.912 49.8119 112.956C49.7619 112.999 49.7217 113.052 49.6941 113.112C49.6666 113.172 49.6523 113.238 49.6523 113.304C49.6523 113.37 49.6666 113.435 49.6941 113.496C49.7217 113.556 49.7619 113.609 49.8119 113.652C49.862 113.695 49.9208 113.727 49.9843 113.746C50.0478 113.764 50.1146 113.769 50.18 113.759C51.21 113.739 52.15 113.809 52.98 113.809Z" fill="url(#paint1_linear_3467_5446)"/>
<path d="M50.2999 114.449C50.4215 114.01 50.4416 113.549 50.3586 113.101C50.2756 112.653 50.0918 112.23 49.821 111.864C49.5502 111.498 49.1995 111.198 48.7956 110.988C48.3917 110.777 47.9452 110.661 47.4899 110.649L45.4299 111.739C45.0574 111.927 44.7377 112.206 44.4999 112.549C44.0199 113.269 43.8799 114.359 47.3599 114.489L50.2999 114.449Z" fill="url(#paint2_linear_3467_5446)"/>
<path d="M52.7896 108.059L54.3096 109.209C54.3427 109.233 54.3696 109.265 54.3881 109.301C54.4066 109.338 54.4163 109.378 54.4163 109.419C54.4163 109.46 54.4066 109.5 54.3881 109.537C54.3696 109.573 54.3427 109.605 54.3096 109.629L53.6096 110.119C53.5623 110.155 53.5043 110.175 53.4446 110.175C53.3849 110.175 53.3269 110.155 53.2796 110.119L51.5996 108.659" stroke="url(#paint3_linear_3467_5446)" stroke-width="0.43" stroke-miterlimit="10" stroke-linecap="round"/>
<path d="M50.7796 109.159L52.2196 110.549C52.2527 110.573 52.2796 110.605 52.2981 110.641C52.3166 110.678 52.3263 110.718 52.3263 110.759C52.3263 110.8 52.3166 110.84 52.2981 110.877C52.2796 110.913 52.2527 110.945 52.2196 110.969L51.5096 111.459C51.4639 111.495 51.4076 111.514 51.3496 111.514C51.2916 111.514 51.2353 111.495 51.1896 111.459L49.5996 109.809" stroke="url(#paint4_linear_3467_5446)" stroke-width="0.43" stroke-miterlimit="10" stroke-linecap="round"/>
<path d="M42.8691 85.5489C42.8691 85.5489 49.8691 100.709 51.5491 102.549C52.8891 104.019 52.4291 106.399 52.1991 107.289C52.1694 107.39 52.1786 107.498 52.2249 107.593C52.2712 107.687 52.3512 107.761 52.4491 107.799C53.5691 108.239 57.0191 109.439 59.3591 108.419C59.5239 108.347 59.6638 108.227 59.7616 108.076C59.8593 107.925 59.9106 107.749 59.9091 107.569C59.912 107.503 59.9011 107.436 59.877 107.374C59.8529 107.312 59.8161 107.256 59.7691 107.209C59.6391 107.089 59.7691 106.889 59.8591 106.699C60.0274 106.476 60.1389 106.216 60.1842 105.941C60.2295 105.666 60.2072 105.384 60.1191 105.119L59.9291 104.509L60.8391 98.7289L61.3191 93.1189V86.6389L42.8691 85.5489Z" fill="url(#paint5_linear_3467_5446)"/>
<path d="M71.2401 106.589C72.6901 113.249 73.9201 113.679 75.9401 113.009C77.9601 112.339 85.1201 109.009 85.1201 109.009C85.1201 109.009 89.2101 107.009 86.5601 105.919C86.3034 105.81 86.0289 105.749 85.7501 105.739L77.3701 105.299C77.3047 105.294 77.2418 105.272 77.1874 105.235C77.1331 105.198 77.0892 105.148 77.0601 105.089L76.5901 104.089C76.5901 104.089 70.8901 104.969 71.2401 106.589Z" fill="url(#paint6_linear_3467_5446)"/>
<path d="M79.7288 110.729C77.7859 111.689 75.7248 112.388 73.5988 112.809C73.3487 112.628 73.1574 112.378 73.0488 112.089C76.1455 111.378 79.123 110.223 81.8888 108.659C81.9434 108.623 82.0051 108.599 82.0697 108.589C82.1343 108.578 82.2003 108.582 82.2634 108.599C82.3265 108.617 82.3852 108.647 82.4355 108.689C82.4859 108.731 82.5268 108.783 82.5554 108.841C82.5841 108.9 82.5999 108.964 82.6018 109.03C82.6037 109.095 82.5916 109.16 82.5664 109.22C82.5412 109.281 82.5034 109.335 82.4555 109.38C82.4076 109.424 82.3508 109.458 82.2888 109.479C81.3188 109.959 80.4788 110.379 79.7288 110.729Z" fill="url(#paint7_linear_3467_5446)"/>
<path d="M82.4597 110.229C82.4597 110.229 80.3297 107.429 83.3997 105.599L85.7197 105.719C86.1426 105.733 86.5552 105.854 86.9197 106.069C87.6497 106.509 88.2397 107.439 85.1397 109.019L82.4597 110.229Z" fill="url(#paint8_linear_3467_5446)"/>
<path d="M77.4999 105.479L76.6099 107.159C76.5924 107.196 76.5836 107.236 76.584 107.277C76.5844 107.318 76.5942 107.359 76.6125 107.395C76.6308 107.432 76.6572 107.464 76.6896 107.489C76.7221 107.514 76.7598 107.531 76.7999 107.539L77.6499 107.679C77.7069 107.692 77.7667 107.685 77.8183 107.657C77.8699 107.629 77.9095 107.584 77.9299 107.529L78.7999 105.529" stroke="url(#paint9_linear_3467_5446)" stroke-width="0.43" stroke-miterlimit="10" stroke-linecap="round"/>
<path d="M79.79 105.629L79.07 107.499C79.0503 107.536 79.0397 107.577 79.0391 107.618C79.0385 107.66 79.0479 107.701 79.0665 107.738C79.0851 107.775 79.1124 107.808 79.1461 107.832C79.1798 107.857 79.2188 107.873 79.26 107.879L80.1 108.019C80.1581 108.029 80.2178 108.02 80.2702 107.993C80.3226 107.966 80.3646 107.922 80.39 107.869L81.17 105.719" stroke="url(#paint10_linear_3467_5446)" stroke-width="0.43" stroke-miterlimit="10" stroke-linecap="round"/>
<path d="M76.5993 81.1089C76.5993 81.1089 77.0693 97.5789 76.3093 99.9389C75.6993 101.839 77.1193 103.809 77.7093 104.519C77.7782 104.596 77.8162 104.696 77.8162 104.799C77.8162 104.902 77.7782 105.002 77.7093 105.079C76.8893 105.949 74.2593 108.499 71.7093 108.549C71.5291 108.558 71.3504 108.512 71.1968 108.418C71.0432 108.323 70.922 108.184 70.8493 108.019C70.822 107.958 70.8079 107.891 70.8079 107.824C70.8079 107.757 70.822 107.69 70.8493 107.629C70.9093 107.459 70.7593 107.319 70.5493 107.199C70.3048 107.067 70.0954 106.878 69.9388 106.648C69.7823 106.419 69.683 106.155 69.6493 105.879L69.5693 105.249L66.2993 100.379L63.5093 95.4989L60.7793 89.6189L76.5993 81.1089Z" fill="url(#paint11_linear_3467_5446)"/>
<path d="M54.1901 57.2189H54.0001C53.0001 57.3289 45.6301 58.5489 43.9101 71.3289C42.1201 84.6389 41.0401 84.5089 42.4801 85.6189C42.799 85.7686 43.1348 85.8794 43.4801 85.9489C47.2801 87.2689 65.4201 91.6489 77.9501 87.8089C78.206 87.7296 78.4297 87.5702 78.5882 87.3542C78.7466 87.1381 78.8314 86.8768 78.8301 86.6089C78.8301 85.1289 78.8301 81.4189 78.8301 72.5589C78.8301 60.2689 70.8301 58.0789 69.7301 57.8489C69.6572 57.8385 69.5831 57.8385 69.5101 57.8489L54.1901 57.2189Z" fill="url(#paint12_linear_3467_5446)"/>
<path d="M35.0897 65.6889C35.0897 65.6889 33.5297 62.989 36.5097 60.539C37.3097 59.889 39.9797 62.789 39.9797 62.789L35.0897 65.6889Z" fill="url(#paint13_linear_3467_5446)"/>
<path d="M45.3302 65.3489C43.0102 66.0289 34.7302 65.9689 29.4502 62.3489C28.6544 61.7444 28.0762 60.8982 27.8021 59.9372C27.5281 58.9762 27.573 57.9522 27.9302 57.0189C28.9302 54.1089 33.1702 52.3789 36.3002 52.8789C41.5602 53.7089 47.1202 56.5389 49.2202 58.6689C49.7804 59.2993 50.1078 60.1026 50.1479 60.9451C50.1879 61.7875 49.9381 62.6182 49.4402 63.2989V63.3689C48.5302 64.6289 46.7202 64.9389 45.3302 65.3489Z" fill="url(#paint14_linear_3467_5446)"/>
<path d="M50.5398 63.9389C47.8598 65.7789 41.8098 68.9389 35.0898 65.6889C38.8957 63.1426 41.6823 59.3362 42.9598 54.9389L46.2398 55.1189C47.6403 55.1935 48.9756 55.7339 50.0338 56.6543C51.0919 57.5747 51.812 58.8223 52.0798 60.1989C52.1522 60.527 52.1758 60.864 52.1498 61.1989C52.1033 61.7469 51.9345 62.2775 51.6559 62.7517C51.3772 63.2258 50.9959 63.6316 50.5398 63.9389Z" fill="url(#paint15_linear_3467_5446)"/>
<path d="M32.6588 61.6589C31.1023 62.1356 29.4238 62.0119 27.9541 61.3122C26.4843 60.6125 25.33 59.3876 24.7188 57.8789C23.367 54.433 22.7275 50.7488 22.8388 47.0489C22.7937 46.6771 22.8413 46.2999 22.9774 45.9509C23.1135 45.6019 23.3338 45.292 23.6188 45.0489C24.6188 44.2289 26.3788 44.9489 27.5188 45.5589C30.0888 46.9189 33.3888 48.3989 35.7888 54.3089C36.3726 55.7521 36.3726 57.3657 35.7888 58.8089C35.5139 59.4881 35.0899 60.0969 34.5481 60.5902C34.0064 61.0835 33.3607 61.4487 32.6588 61.6589Z" fill="url(#paint16_linear_3467_5446)"/>
<path d="M23.4195 41.9189C23.4195 41.9189 22.4195 40.6789 22.3195 40.5289C22.2554 40.4369 22.1721 40.3598 22.0755 40.3028C21.9789 40.2459 21.8711 40.2105 21.7595 40.199C21.4092 40.0685 21.074 39.9009 20.7595 39.699C20.3799 39.6964 20.0038 39.6252 19.6495 39.4889C19.4795 39.3189 18.8995 39.9089 20.0195 40.3989C20.5539 40.616 21.0663 40.8839 21.5495 41.199L22.3495 42.6889C22.3495 42.6889 22.4495 43.9589 22.4495 44.6889C22.4495 47.5589 25.3695 46.8689 25.3695 46.8689L23.4195 41.9189Z" fill="#FCCAB7"/>
<path d="M20.6801 45.8689C20.8238 45.9058 20.9718 45.9226 21.1201 45.9189C21.5101 45.9189 21.8101 46.4689 21.8101 46.4689C22.9001 48.2689 24.0601 48.1189 24.0601 48.1189C24.1366 48.1262 24.2136 48.1262 24.2901 48.1189C24.7352 48.0266 25.1551 47.8391 25.5208 47.5692C25.8866 47.2993 26.1896 46.9534 26.4091 46.5554C26.6285 46.1573 26.7592 45.7164 26.7922 45.2631C26.8252 44.8097 26.7597 44.3546 26.6001 43.9289C26.0959 42.6719 25.2845 41.5614 24.2401 40.6989L23.2901 39.6189C23.1121 39.343 22.8433 39.1379 22.5301 39.0389L21.5301 38.6989C21.2566 38.608 20.9666 38.5773 20.6801 38.6089C20.2874 38.6323 19.9139 38.7873 19.6201 39.0489C19.6201 39.0489 19.1001 39.8289 20.2601 40.1289L21.8601 40.6089C21.9591 40.6382 22.0443 40.7021 22.1001 40.7889L22.7501 41.9889C22.9405 42.9264 22.8889 43.8969 22.6001 44.8089C22.3601 44.6189 20.1501 43.0889 19.7601 44.5289C19.4701 45.3789 20.2201 45.7289 20.6801 45.8689Z" fill="url(#paint17_linear_3467_5446)"/>
<path opacity="0.5" d="M21.009 44.7489L20.839 45.4989C20.8273 45.538 20.8012 45.5712 20.7658 45.5916C20.7305 45.6121 20.6887 45.6183 20.649 45.6089C20.349 45.5289 19.749 45.3189 19.849 44.8689C19.949 44.4189 20.589 44.4989 20.849 44.5589C20.874 44.5533 20.9001 44.5547 20.9243 44.5629C20.9486 44.5711 20.9702 44.5858 20.9867 44.6054C21.0032 44.625 21.014 44.6487 21.0179 44.674C21.0218 44.6993 21.0188 44.7252 21.009 44.7489Z" fill="white"/>
<path d="M89.1392 63.8089C89.1392 63.8089 90.0192 60.8089 86.5492 59.1289C85.6192 58.6789 83.6992 62.1289 83.6992 62.1289L89.1392 63.8089Z" fill="url(#paint18_linear_3467_5446)"/>
<path d="M79.0911 65.8889C81.5111 66.0189 89.5411 64.039 93.8411 59.289C94.4789 58.52 94.8484 57.5639 94.8935 56.5659C94.9387 55.5678 94.6569 54.5823 94.0911 53.759C92.5011 51.149 87.9211 50.4589 84.9911 51.6689C80.0711 53.6689 75.3111 57.7389 73.7611 60.2989C73.3697 61.0347 73.2397 61.8816 73.3923 62.7008C73.5449 63.5201 73.9711 64.2634 74.6011 64.8089L74.6611 64.8689C75.8211 65.9389 77.6011 65.8089 79.0911 65.8889Z" fill="url(#paint19_linear_3467_5446)"/>
<path d="M74.1002 67.4489C77.1002 68.6089 83.3402 68.5289 89.1002 63.8489C84.8064 62.2569 81.2121 59.2008 78.9502 55.2189L75.0102 56.6989C73.8543 57.1261 72.8666 57.9138 72.1931 58.9457C71.5195 59.9776 71.196 61.1989 71.2702 62.4289C71.2922 62.768 71.3526 63.1035 71.4502 63.4289C71.8402 64.4789 73.0602 67.0489 74.1002 67.4489Z" fill="url(#paint20_linear_3467_5446)"/>
<path d="M87.9204 58.5689C86.678 57.5153 85.8758 56.0341 85.6722 54.4179C85.4685 52.8017 85.8782 51.1678 86.8204 49.8389C88.9812 46.8356 91.7345 44.3069 94.9104 42.4089C95.1973 42.1615 95.542 41.9905 95.9126 41.9119C96.2832 41.8332 96.6677 41.8494 97.0304 41.9589C98.2604 42.3489 98.6104 44.2389 98.7204 45.5189C98.9604 48.4189 99.5004 51.9989 95.8204 57.2089C94.9383 58.4904 93.5879 59.3739 92.0604 59.6689C91.3321 59.8125 90.5807 59.7881 89.8632 59.5975C89.1458 59.4069 88.4813 59.0551 87.9204 58.5689Z" fill="url(#paint21_linear_3467_5446)"/>
<path d="M99.5287 40.1189C99.5287 40.1189 100.019 38.5789 100.109 38.4389C100.157 38.3393 100.183 38.2298 100.183 38.1189C100.183 38.008 100.157 37.8986 100.109 37.7989C100.029 37.4309 99.9889 37.0554 99.9887 36.6789C99.9887 36.6789 99.5187 35.8689 99.5687 35.6289C99.6187 35.3889 98.8087 35.2189 98.9987 36.4289C99.1071 36.9956 99.1573 37.572 99.1487 38.1489L98.3387 39.6289C98.3387 39.6289 97.3387 40.3989 96.6987 40.7989C94.2687 42.3289 96.4387 44.4389 96.4387 44.4389L99.5287 40.1189Z" fill="#FCCAB7"/>
<path d="M94.739 39.9489C94.7837 40.0903 94.8477 40.2249 94.929 40.3489C95.129 40.6689 94.839 41.2289 94.839 41.2289C93.919 43.1189 94.669 44.0089 94.669 44.0089L94.819 44.1889C95.135 44.5129 95.5171 44.7649 95.9392 44.9279C96.3614 45.0909 96.8137 45.161 97.2654 45.1335C97.7171 45.106 98.1575 44.9815 98.5568 44.7684C98.956 44.5554 99.3047 44.2588 99.579 43.8989C100.36 42.79 100.855 41.5052 101.019 40.1589L101.409 38.7789C101.549 38.4857 101.577 38.1516 101.489 37.8389C101.399 37.5089 101.299 37.1189 101.229 36.8389C101.157 36.5569 101.024 36.2942 100.839 36.0689C100.606 35.7543 100.276 35.5257 99.899 35.4189C99.899 35.4189 98.969 35.4189 99.329 36.5389L99.799 38.1489C99.8341 38.2458 99.8341 38.352 99.799 38.4489L99.139 39.6389C98.453 40.3209 97.602 40.8136 96.669 41.0689C96.669 41.0689 96.669 40.9989 96.669 40.9689C96.669 40.6689 96.789 37.9689 95.369 38.4289C94.489 38.6689 94.599 39.4889 94.739 39.9489Z" fill="url(#paint22_linear_3467_5446)"/>
<path opacity="0.5" d="M95.8604 39.6289L95.1304 39.8789C95.1108 39.8867 95.0897 39.8902 95.0686 39.8893C95.0475 39.8884 95.0269 39.8831 95.008 39.8736C94.9891 39.8642 94.9725 39.8509 94.9591 39.8346C94.9457 39.8182 94.9359 39.7993 94.9304 39.7789C94.8404 39.4889 94.6904 38.8689 95.1204 38.7089C95.5504 38.5489 95.8404 39.1289 95.9504 39.4189C95.9641 39.4588 95.9625 39.5025 95.9459 39.5413C95.9293 39.5801 95.8988 39.6114 95.8604 39.6289Z" fill="white"/>
<path d="M52.5996 20.2589C52.5996 20.2589 56.3696 15.5389 66.8196 17.1289C66.8985 17.1426 66.9701 17.1837 67.0217 17.245C67.0732 17.3063 67.1015 17.3838 67.1015 17.4639C67.1015 17.544 67.0732 17.6215 67.0217 17.6828C66.9701 17.7441 66.8985 17.7852 66.8196 17.7989C64.9259 18.298 63.1845 19.2562 61.7496 20.5889L59.1596 22.4889C58.6914 22.826 58.1581 23.0618 57.5937 23.1813C57.0293 23.3007 56.4462 23.3012 55.8816 23.1826C55.317 23.064 54.7834 22.8291 54.3147 22.4927C53.846 22.1563 53.4526 21.7259 53.1596 21.2289L52.5996 20.2589Z" fill="#7A4B34"/>
<path d="M42.0602 43.1889C42.0602 43.1889 38.6902 22.1889 58.4402 21.5089C78.1902 20.8289 79.8502 29.6189 79.8502 43.5089C79.8502 43.5089 85.5502 40.5089 87.4302 46.0089C89.3102 51.5089 81.7402 54.0689 78.5002 54.1589C78.5002 54.1589 62.4202 71.4089 43.3302 53.8489C43.3302 53.8489 31.2002 53.9789 34.0402 45.0889C34.0402 45.1189 36.3202 39.8089 42.0602 43.1889Z" fill="url(#paint23_linear_3467_5446)"/>
<path d="M81.1191 45.9589C81.4046 45.6985 81.7566 45.5224 82.1362 45.45C82.5157 45.3776 82.9079 45.4119 83.2691 45.5489C83.6303 45.7251 83.9484 45.9786 84.2007 46.2914C84.453 46.6042 84.6334 46.9686 84.7291 47.3589C84.9217 48.1253 84.8293 48.9356 84.4691 49.6389C84.3013 49.9834 84.0456 50.2776 83.7278 50.4918C83.4101 50.706 83.0414 50.8326 82.6591 50.8589C82.9692 50.7261 83.2484 50.5305 83.479 50.2844C83.7097 50.0382 83.8868 49.747 83.9991 49.4289C84.2127 48.8177 84.2439 48.1576 84.0891 47.5289C83.9536 46.9195 83.5974 46.3816 83.0891 46.0189C82.7871 45.8594 82.4525 45.771 82.1111 45.7606C81.7697 45.7502 81.4303 45.8181 81.1191 45.9589Z" fill="#ED987F"/>
<path d="M82.2696 49.3389C82.2377 49.0527 82.2706 48.763 82.3658 48.4913C82.461 48.2195 82.6161 47.9726 82.8197 47.7689C83.0236 47.5309 83.302 47.3688 83.6097 47.3089C83.9151 47.2735 84.2226 47.3558 84.4697 47.5389V47.5989C84.2468 47.7383 84.0126 47.8587 83.7696 47.9589C83.5696 48.0489 83.3597 48.0789 83.1497 48.1789C82.7453 48.4564 82.4571 48.8728 82.3396 49.3489L82.2696 49.3389Z" fill="#ED987F"/>
<path d="M39.959 45.7489C39.6763 45.6323 39.3718 45.5781 39.0663 45.5902C38.7608 45.6023 38.4615 45.6803 38.1889 45.8189C37.6919 46.1347 37.3342 46.6283 37.189 47.1989C37.051 47.7749 37.0787 48.3781 37.269 48.9389C37.37 49.2311 37.5293 49.4996 37.7373 49.7282C37.9453 49.9569 38.1976 50.1408 38.479 50.2689C38.123 50.2498 37.7786 50.1358 37.4815 49.9389C37.1844 49.742 36.9453 49.4693 36.789 49.1489C36.4519 48.4955 36.3665 47.7411 36.549 47.0289C36.6375 46.6671 36.8055 46.3295 37.0407 46.0406C37.276 45.7518 37.5725 45.5189 37.909 45.3589C38.2517 45.2181 38.6279 45.18 38.9919 45.2492C39.3559 45.3185 39.6919 45.4921 39.959 45.7489Z" fill="#ED987F"/>
<path d="M38.7602 48.6889C38.6154 48.259 38.3112 47.901 37.9102 47.6889C37.7102 47.6189 37.5202 47.6189 37.3302 47.5489C37.0991 47.4711 36.875 47.3741 36.6602 47.2589V47.1889C36.8728 46.9938 37.1516 46.8866 37.4402 46.8889C37.7314 46.9136 38.0044 47.0412 38.2102 47.2489C38.416 47.4201 38.5799 47.6362 38.6891 47.8807C38.7983 48.1251 38.85 48.3914 38.8402 48.6589L38.7602 48.6889Z" fill="#ED987F"/>
<path d="M58.8789 48.5589C59.4831 49.0882 60.2252 49.435 61.0189 49.5589C61.3888 49.5683 61.7556 49.4895 62.0889 49.3289C62.4741 49.1519 62.8481 48.9516 63.2089 48.7289C63.1127 48.9362 63.0025 49.1367 62.8789 49.3289C62.73 49.5095 62.5624 49.6737 62.3789 49.8189C61.9849 50.1325 61.4922 50.2955 60.9889 50.2789C60.5053 50.237 60.0454 50.0505 59.6691 49.7437C59.2929 49.437 59.0175 49.0242 58.8789 48.5589Z" fill="#ED987F"/>
<path opacity="0.2" d="M41.9004 43.1689C41.9004 43.1689 36.1204 25.9889 52.6004 21.2389C52.6004 21.2389 65.9604 21.3389 65.6004 21.8389C65.6004 21.8389 77.7304 21.2189 79.7204 34.0389C79.7204 34.0389 78.9304 46.6589 78.9504 46.5189C79.3404 44.2689 79.5404 36.5189 74.9004 32.8189C74.1085 33.4959 73.1596 33.9635 72.1404 34.1789C71.0486 34.3626 69.9269 34.2151 68.9198 33.7552C67.9127 33.2953 67.0665 32.5443 66.4904 31.5989C66.4904 31.5989 58.1004 34.5989 53.4204 27.0289C53.4204 27.0289 41.4204 29.8589 43.5804 47.1089C42.8395 45.8803 42.274 44.5541 41.9004 43.1689Z" fill="#AB6338"/>
<path d="M41.4505 42.9989C41.4505 42.9989 36.1605 24.9989 52.6205 20.2589C55.6512 19.4772 58.8437 19.5918 61.8105 20.5889C61.8105 20.5889 65.9905 20.3489 65.6605 20.8489C65.6605 20.8489 77.7905 20.2289 79.7905 33.0489C79.7905 33.0489 81.0205 40.8289 80.4805 43.3689C80.4805 43.3689 80.0005 44.5089 79.0505 46.9689C79.0327 47.0129 79.0024 47.0506 78.9632 47.0772C78.9241 47.1039 78.8779 47.1184 78.8305 47.1189H78.4405C78.4069 47.1198 78.3735 47.113 78.3429 47.0989C78.3124 47.0849 78.2854 47.064 78.2642 47.038C78.2429 47.0119 78.2279 46.9813 78.2204 46.9485C78.2128 46.9158 78.2128 46.8817 78.2205 46.8489C78.6105 44.6089 79.6105 35.5289 74.9605 31.8489C74.1742 32.5284 73.2278 32.9964 72.2105 33.2089C71.1228 33.3836 70.0077 33.2295 69.0082 32.7663C68.0086 32.303 67.1702 31.5518 66.6005 30.6089C66.6005 30.6089 58.2205 33.6089 53.5305 26.0489C53.5305 26.0489 41.6705 29.6089 43.7805 46.8589C43.7848 46.8915 43.782 46.9247 43.7724 46.9562C43.7628 46.9876 43.7465 47.0167 43.7247 47.0413C43.7029 47.066 43.6761 47.0856 43.646 47.099C43.616 47.1124 43.5834 47.1192 43.5505 47.1189H43.0205C42.9731 47.1184 42.9269 47.1039 42.8878 47.0772C42.8486 47.0506 42.8183 47.0129 42.8005 46.9689C42.6005 46.5489 42.0805 45.1789 41.4505 42.9989Z" fill="url(#paint24_linear_3467_5446)"/>
<path d="M57.1188 53.6289L65.0288 53.4589L65.2588 52.9589L65.3588 52.0289L63.8988 52.3289L62.4388 52.5389H60.6788L58.4388 52.4089L56.7988 52.1789L57.1188 53.6289Z" fill="white"/>
<path d="M58.4291 56.0289C58.9889 56.4243 59.5889 56.7595 60.2191 57.0289C60.7651 56.9908 61.3131 56.9908 61.8591 57.0289L62.8591 56.7289L63.7891 56.1589L64.6391 55.1589L65.1291 54.1089L65.1991 53.4789L57.0391 53.6589L57.5091 54.8989L58.4291 56.0289Z" fill="url(#paint25_linear_3467_5446)"/>
<path d="M65.167 53.3253L57.1289 53.5021L57.1368 53.862L65.1749 53.6852L65.167 53.3253Z" fill="#ED977E"/>
<path d="M61.0396 57.0889C61.4915 57.0703 61.9404 57.0067 62.3796 56.8989L63.3796 56.1589C63.2734 55.845 63.0648 55.5758 62.7874 55.3945C62.51 55.2132 62.1798 55.1303 61.8496 55.1589C61.485 55.1336 61.1249 55.2509 60.8451 55.4859C60.5652 55.721 60.3876 56.0555 60.3496 56.4189C60.3624 56.6487 60.4462 56.8689 60.5896 57.0489C60.7376 57.0792 60.8886 57.0926 61.0396 57.0889Z" fill="#D95C5C"/>
<path d="M61.2889 57.1289C56.9189 57.2189 56.6289 52.4089 56.6289 52.3589V52.1389H56.8289C58.3858 52.315 59.9521 52.3952 61.5189 52.3789C62.8067 52.3705 64.0877 52.1923 65.3289 51.8489L65.5389 51.7789V52.0289C65.5653 53.3898 65.1359 54.7203 64.3189 55.8089C63.9371 56.2321 63.4692 56.5689 62.9466 56.7965C62.424 57.0242 61.8589 57.1375 61.2889 57.1289ZM56.9989 52.5589C57.0859 53.2544 57.2887 53.9304 57.5989 54.5589C57.9216 55.2485 58.4464 55.8235 59.1038 56.2076C59.7611 56.5916 60.5198 56.7665 61.2789 56.7089C61.8015 56.7221 62.3208 56.6217 62.8008 56.4145C63.2808 56.2073 63.7101 55.8983 64.0589 55.5089C64.7716 54.5733 65.1674 53.4349 65.1889 52.2589C63.9871 52.5528 62.756 52.7105 61.5189 52.7289C60.0102 52.7666 58.5006 52.7098 56.9989 52.5589Z" fill="#ED977E"/>
<path d="M63.3795 56.1589C63.2395 55.5889 63.1695 55.1589 61.8495 55.1589C60.3195 55.1589 60.3395 55.7389 60.3495 56.4189" fill="#D95C5C"/>
<path d="M57.1188 53.6289L65.0288 53.4589L65.2588 52.9589L65.3588 52.0289L63.8988 52.3289L62.4388 52.5389H60.6788L58.4388 52.4089L56.7988 52.1789L57.1188 53.6289Z" fill="white"/>
<path d="M58.4191 55.5289C58.9894 55.8483 59.5887 56.1128 60.2091 56.3189C60.752 56.2909 61.2961 56.2909 61.8391 56.3189L62.8391 56.0789L63.7791 55.6189L64.6291 54.8289L65.1291 53.9889L65.1991 53.4889L57.0391 53.6689L57.5091 54.6689L58.4191 55.5289Z" fill="url(#paint26_linear_3467_5446)"/>
<path d="M61.0187 56.3789C61.8333 56.2539 62.6338 56.0496 63.4087 55.7689V55.4489C63.304 55.134 63.0958 54.8638 62.818 54.6822C62.5402 54.5007 62.2091 54.4184 61.8787 54.4489C61.5146 54.4212 61.1542 54.5378 60.8754 54.7735C60.5966 55.0093 60.4218 55.3453 60.3887 55.7089C60.3933 55.9404 60.4782 56.163 60.6287 56.3389C60.7575 56.3617 60.8879 56.3751 61.0187 56.3789Z" fill="#F59192"/>
<path d="M61.2696 56.6789C56.8996 56.8089 56.5996 52.3989 56.5996 52.3589V52.1389H56.7996C58.2386 52.4228 59.703 52.5568 61.1696 52.5389C62.5722 52.5082 63.9631 52.2758 65.2996 51.8489L65.5096 51.7789V52.0289C65.5169 53.1493 65.1431 54.2389 64.4496 55.1189C64.059 55.5879 63.574 55.9693 63.026 56.2381C62.478 56.5069 61.8796 56.6571 61.2696 56.6789ZM56.9996 52.5589C57.0461 53.0718 57.1932 53.5705 57.4324 54.0265C57.6717 54.4825 57.9985 54.8869 58.3941 55.2166C58.7897 55.5462 59.2464 55.7947 59.7381 55.9478C60.2297 56.101 60.7468 56.1557 61.2596 56.1089C61.8194 56.1372 62.3784 56.0416 62.897 55.829C63.4155 55.6164 63.8808 55.292 64.2596 54.8789C64.8605 54.1481 65.211 53.2438 65.2596 52.2989C64.0578 52.5928 62.8267 52.7504 61.5896 52.7689C60.0567 52.7956 58.5237 52.7255 56.9996 52.5589Z" fill="#ED977E"/>
<path opacity="0.2" d="M48.7581 38.8089C50.1181 37.6589 54.5781 34.3789 56.2781 35.3489C56.3956 35.4201 56.4939 35.5189 56.5643 35.6368C56.6348 35.7547 56.6752 35.8881 56.6821 36.0253C56.689 36.1625 56.6622 36.2993 56.6039 36.4237C56.5457 36.5481 56.4578 36.6564 56.3481 36.7389C55.7735 37.1102 55.1253 37.3525 54.4481 37.4489C52.6129 37.8869 50.8417 38.5591 49.1781 39.4489C49.0943 39.4831 49.0013 39.4872 48.9149 39.4603C48.8286 39.4335 48.7542 39.3775 48.7046 39.3019C48.6549 39.2262 48.6331 39.1357 48.6429 39.0458C48.6527 38.9559 48.6934 38.8721 48.7581 38.8089Z" fill="#AB6338"/>
<path d="M48.479 38.5289C49.889 37.2989 54.479 33.7889 56.259 34.8089C56.3827 34.8847 56.486 34.9897 56.5599 35.1146C56.6338 35.2394 56.676 35.3805 56.6829 35.5254C56.6898 35.6703 56.6612 35.8148 56.5995 35.9461C56.5378 36.0774 56.445 36.1917 56.329 36.2789C55.7277 36.6827 55.0449 36.949 54.329 37.0589C52.4253 37.541 50.5931 38.2706 48.879 39.2289C48.7886 39.2605 48.69 39.2593 48.6003 39.2258C48.5106 39.1922 48.4355 39.1284 48.388 39.0452C48.3405 38.9621 48.3236 38.8649 48.3402 38.7706C48.3568 38.6763 48.4059 38.5908 48.479 38.5289Z" fill="url(#paint27_linear_3467_5446)"/>
<path opacity="0.2" d="M72.65 38.8089C71.28 37.6589 66.82 34.3789 65.13 35.3489C65.0104 35.4184 64.9101 35.5166 64.8381 35.6346C64.7661 35.7527 64.7248 35.8868 64.7178 36.0249C64.7109 36.163 64.7385 36.3007 64.7983 36.4254C64.858 36.55 64.948 36.6578 65.06 36.7389C65.6296 37.1126 66.2752 37.3552 66.95 37.4489C68.7857 37.8852 70.5571 38.5574 72.22 39.4489C72.3043 39.4886 72.4001 39.4968 72.49 39.472C72.5798 39.4471 72.6578 39.3909 72.7098 39.3136C72.7618 39.2362 72.7843 39.1427 72.7734 39.0502C72.7624 38.9576 72.7186 38.872 72.65 38.8089Z" fill="#AB6338"/>
<path d="M72.8592 38.5289C71.4492 37.2989 66.8592 33.7889 65.0792 34.8089C64.9555 34.8847 64.8522 34.9897 64.7783 35.1146C64.7044 35.2394 64.6622 35.3805 64.6553 35.5254C64.6484 35.6703 64.677 35.8148 64.7387 35.9461C64.8004 36.0774 64.8933 36.1917 65.0092 36.2789C65.6106 36.6824 66.2934 36.9487 67.0092 37.0589C68.9165 37.5397 70.7522 38.2693 72.4692 39.2289C72.5588 39.2561 72.655 39.2518 72.7418 39.2167C72.8286 39.1816 72.9008 39.1179 72.9463 39.0361C72.9919 38.9543 73.0081 38.8594 72.9923 38.7671C72.9764 38.6749 72.9295 38.5908 72.8592 38.5289Z" fill="url(#paint28_linear_3467_5446)"/>
<path d="M54.7704 48.4589C57.1839 48.4589 59.1404 46.5024 59.1404 44.0889C59.1404 41.6754 57.1839 39.7189 54.7704 39.7189C52.3569 39.7189 50.4004 41.6754 50.4004 44.0889C50.4004 46.5024 52.3569 48.4589 54.7704 48.4589Z" fill="white"/>
<path d="M54.6693 46.2389C55.9893 46.2389 57.0593 45.1689 57.0593 43.8489C57.0593 42.529 55.9893 41.4589 54.6693 41.4589C53.3493 41.4589 52.2793 42.529 52.2793 43.8489C52.2793 45.1689 53.3493 46.2389 54.6693 46.2389Z" fill="url(#paint29_linear_3467_5446)"/>
<path d="M67.5692 48.4589C69.9827 48.4589 71.9392 46.5024 71.9392 44.0889C71.9392 41.6754 69.9827 39.7189 67.5692 39.7189C65.1557 39.7189 63.1992 41.6754 63.1992 44.0889C63.1992 46.5024 65.1557 48.4589 67.5692 48.4589Z" fill="white"/>
<path d="M67.3998 46.3389C68.7197 46.3389 69.7898 45.2689 69.7898 43.9489C69.7898 42.629 68.7197 41.5589 67.3998 41.5589C66.0798 41.5589 65.0098 42.629 65.0098 43.9489C65.0098 45.2689 66.0798 46.3389 67.3998 46.3389Z" fill="url(#paint30_linear_3467_5446)"/>
<path d="M81.3204 71.9889C103.06 78.8389 79.1104 86.9089 59.9204 86.5289C40.7304 86.1489 18.3404 77.0789 41.2104 69.5289" stroke="#F05455" stroke-width="2.85" stroke-miterlimit="10" stroke-linecap="round"/>
<path d="M54.6703 52.0489C56.9347 52.0489 58.7703 50.2133 58.7703 47.9489C58.7703 45.6846 56.9347 43.8489 54.6703 43.8489C52.4059 43.8489 50.5703 45.6846 50.5703 47.9489C50.5703 50.2133 52.4059 52.0489 54.6703 52.0489Z" fill="url(#paint31_linear_3467_5446)"/>
<path d="M67.3988 52.1489C69.6632 52.1489 71.4988 50.3133 71.4988 48.0489C71.4988 45.7846 69.6632 43.9489 67.3988 43.9489C65.1345 43.9489 63.2988 45.7846 63.2988 48.0489C63.2988 50.3133 65.1345 52.1489 67.3988 52.1489Z" fill="url(#paint32_linear_3467_5446)"/>
<path d="M102.111 58.4989C102.006 58.337 101.853 58.2126 101.673 58.1442C101.493 58.0758 101.296 58.067 101.111 58.1189C101.061 58.133 101.018 58.1659 100.992 58.2107C100.966 58.2554 100.958 58.3086 100.971 58.3589C100.987 58.4096 101.022 58.4522 101.068 58.4782C101.114 58.5042 101.169 58.5116 101.221 58.4989H101.311H101.461H101.561C101.588 58.5435 101.631 58.5757 101.681 58.5888C101.732 58.6019 101.785 58.5947 101.831 58.5689C101.853 58.5848 101.878 58.5957 101.905 58.6007C101.932 58.6058 101.96 58.605 101.987 58.5984C102.013 58.5917 102.038 58.5794 102.06 58.5622C102.081 58.5451 102.098 58.5235 102.111 58.4989Z" fill="#FAF1E5"/>
<path d="M99.9703 88.8089C99.863 88.6503 99.7093 88.5288 99.5304 88.4607C99.3514 88.3927 99.1558 88.3816 98.9703 88.4289C98.9196 88.4451 98.877 88.4799 98.851 88.5263C98.825 88.5727 98.8176 88.6273 98.8303 88.6789C98.8463 88.7292 98.8816 88.7711 98.9285 88.7954C98.9753 88.8198 99.0299 88.8246 99.0803 88.8089H99.1703H99.3102H99.4203V88.8589C99.4489 88.9016 99.4922 88.9323 99.5419 88.9452C99.5917 88.9581 99.6445 88.9523 99.6902 88.9289C99.7164 88.9402 99.7446 88.946 99.7731 88.946C99.8016 88.9461 99.8298 88.9403 99.856 88.9291C99.8822 88.9178 99.9059 88.9014 99.9255 88.8807C99.9451 88.8601 99.9604 88.8356 99.9703 88.8089Z" fill="#FAF1E5"/>
<path d="M9.7687 54.2289C9.6638 54.0674 9.51088 53.9429 9.33147 53.873C9.15207 53.803 8.95523 53.7911 8.7687 53.8389C8.71698 53.8535 8.67318 53.888 8.64693 53.9349C8.62067 53.9818 8.61412 54.0372 8.6287 54.0889C8.64329 54.1406 8.67782 54.1844 8.72471 54.2107C8.77159 54.2369 8.82699 54.2435 8.8787 54.2289H8.9687H9.1187H9.2187V54.2789C9.22908 54.3061 9.24526 54.3306 9.2661 54.3509C9.28695 54.3712 9.31196 54.3866 9.33939 54.3963C9.36683 54.4059 9.39603 54.4094 9.42496 54.4065C9.4539 54.4037 9.48186 54.3946 9.50692 54.3799C9.53198 54.3652 9.55352 54.3451 9.57005 54.3212C9.58658 54.2973 9.5977 54.2701 9.60263 54.2414C9.60755 54.2128 9.60618 54.1834 9.59859 54.1553C9.59101 54.1273 9.57739 54.1012 9.5587 54.0789L9.7687 54.2289Z" fill="#FAF1E5"/>
<path d="M114.599 43.2789C114.495 43.1163 114.343 42.9909 114.163 42.9208C113.983 42.8507 113.786 42.8395 113.599 42.8889C113.549 42.9051 113.506 42.9399 113.48 42.9863C113.454 43.0327 113.447 43.0872 113.459 43.1389C113.475 43.1896 113.51 43.2322 113.557 43.2582C113.603 43.2841 113.658 43.2916 113.709 43.2789H113.799H113.949H114.049H114.099V43.3289C114.126 43.3734 114.17 43.4057 114.22 43.4187C114.27 43.4318 114.324 43.4247 114.369 43.3989C114.416 43.4095 114.464 43.4033 114.506 43.3813C114.548 43.3593 114.581 43.323 114.599 43.2789Z" fill="#FAF1E5"/>
<path d="M68.009 112.519C68.0604 112.465 68.089 112.393 68.089 112.319C68.089 112.244 68.0604 112.173 68.009 112.119C67.952 112.065 67.8775 112.033 67.799 112.029H67.729C67.6803 112.046 67.636 112.073 67.599 112.109C67.5606 112.141 67.5269 112.178 67.499 112.219C67.4958 112.242 67.4958 112.266 67.499 112.289C67.4528 112.383 67.4256 112.485 67.419 112.589C67.4046 112.668 67.4046 112.75 67.419 112.829C67.4567 112.921 67.5109 113.006 67.579 113.079C67.6371 113.13 67.7117 113.159 67.789 113.159C67.8633 113.158 67.9346 113.129 67.989 113.079C68.0149 113.053 68.0353 113.021 68.049 112.987C68.0628 112.953 68.0696 112.916 68.069 112.879C68.0681 112.805 68.0395 112.733 67.989 112.679L68.009 112.519Z" fill="#FAF1E5"/>
<path d="M30.8899 19.0189V18.9189C30.9404 18.8645 30.9689 18.7932 30.9699 18.7189C30.9695 18.6416 30.941 18.567 30.8899 18.5089C30.8354 18.4584 30.7641 18.4299 30.6899 18.4289H30.5999C30.5538 18.4399 30.5121 18.4643 30.4799 18.4989L30.3799 18.6189C30.3753 18.642 30.3753 18.6658 30.3799 18.6889C30.3368 18.7833 30.313 18.8853 30.3099 18.9889C30.2899 19.0643 30.2899 19.1436 30.3099 19.2189C30.3371 19.3192 30.3926 19.4095 30.4699 19.4789C30.4963 19.5048 30.5275 19.5252 30.5619 19.5389C30.5962 19.5527 30.6329 19.5595 30.6699 19.5589C30.7441 19.5579 30.8154 19.5294 30.8699 19.4789C30.8962 19.4529 30.9169 19.4217 30.9307 19.3873C30.9444 19.3529 30.951 19.316 30.9499 19.2789C30.9531 19.2402 30.9476 19.2012 30.9337 19.1648C30.9199 19.1285 30.8981 19.0957 30.8699 19.0689L30.8899 19.0189Z" fill="#F2968B"/>
<path d="M103.989 77.2989V77.2289C104.04 77.1745 104.068 77.1032 104.069 77.0289C104.07 76.992 104.063 76.9553 104.049 76.9209C104.035 76.8866 104.015 76.8553 103.989 76.8289C103.937 76.7739 103.865 76.7416 103.789 76.7389H103.709C103.663 76.7561 103.622 76.7835 103.589 76.8189C103.551 76.8506 103.517 76.8877 103.489 76.9289V76.9989C103.446 77.0933 103.422 77.1953 103.419 77.2989C103.405 77.3783 103.405 77.4596 103.419 77.5389C103.449 77.6351 103.504 77.7215 103.579 77.7889C103.633 77.8403 103.705 77.8689 103.779 77.8689C103.853 77.8689 103.925 77.8403 103.979 77.7889C104.031 77.7345 104.063 77.6639 104.069 77.5889C104.066 77.5131 104.034 77.4412 103.979 77.3889L103.989 77.2989Z" fill="#FAF1E5"/>
<path d="M93.4802 69.0689C93.5307 69.0145 93.5592 68.9432 93.5602 68.8689C93.5598 68.7916 93.5314 68.717 93.4802 68.6589C93.4248 68.61 93.3541 68.5817 93.2802 68.5789H93.2002C93.1521 68.5921 93.1077 68.6161 93.0702 68.6489L92.9702 68.7689C92.9683 68.7922 92.9683 68.8156 92.9702 68.8389C92.9271 68.9333 92.9033 69.0353 92.9002 69.1389C92.8848 69.2148 92.8848 69.293 92.9002 69.3689C92.935 69.4681 92.9933 69.5573 93.0702 69.6289C93.0966 69.6548 93.1279 69.6752 93.1622 69.6889C93.1965 69.7027 93.2332 69.7095 93.2702 69.7089C93.3445 69.7079 93.4157 69.6794 93.4702 69.6289C93.4965 69.6029 93.5172 69.5717 93.531 69.5373C93.5448 69.5029 93.5513 69.466 93.5502 69.4289C93.5534 69.3902 93.5479 69.3512 93.534 69.3148C93.5202 69.2785 93.4984 69.2457 93.4702 69.2189L93.4802 69.0689Z" fill="#F2968B"/>
<path d="M39.0603 28.7189C39.0862 28.6925 39.1066 28.6612 39.1203 28.6269C39.134 28.5926 39.1408 28.5559 39.1403 28.5189C39.1393 28.4446 39.1108 28.3734 39.0603 28.3189C39.0342 28.2926 39.003 28.2719 38.9686 28.2581C38.9342 28.2444 38.8973 28.2378 38.8603 28.2389H38.7803C38.7307 28.248 38.6852 28.2725 38.6503 28.3089C38.6119 28.3406 38.5782 28.3776 38.5503 28.4189C38.5503 28.4189 38.5503 28.4189 38.5503 28.4989C38.5061 28.5893 38.4822 28.6883 38.4803 28.7889C38.4649 28.8682 38.4649 28.9497 38.4803 29.0289C38.5181 29.1237 38.5761 29.209 38.6503 29.2789C38.7026 29.334 38.7744 29.3663 38.8503 29.3689C38.8881 29.3688 38.9254 29.3607 38.9598 29.3452C38.9943 29.3296 39.0251 29.3071 39.0503 29.2789C39.0783 29.2541 39.1001 29.2231 39.114 29.1884C39.1279 29.1537 39.1335 29.1162 39.1303 29.0789C39.132 29.0418 39.1258 29.0047 39.112 28.9702C39.0982 28.9357 39.0771 28.9046 39.0503 28.8789L39.0603 28.7189Z" fill="#FAF1E5"/>
<path d="M17.3389 33.3289C17.2979 33.2669 17.2353 33.2223 17.1632 33.2038C17.0911 33.1853 17.0148 33.1943 16.9489 33.2289L16.2189 33.6589C16.1568 33.6984 16.1107 33.7586 16.0889 33.8289C16.0741 33.8637 16.0664 33.9011 16.0664 33.9389C16.0664 33.9767 16.0741 34.0141 16.0889 34.0489C16.1284 34.1127 16.1903 34.1594 16.2625 34.1797C16.3347 34.2001 16.4119 34.1927 16.4789 34.1589L17.2089 33.7289C17.2712 33.6852 17.317 33.6218 17.3389 33.5489C17.3678 33.4784 17.3678 33.3994 17.3389 33.3289Z" fill="#F2968B"/>
<path d="M118.04 99.9089C118.001 99.845 117.938 99.7989 117.866 99.7802C117.793 99.7616 117.716 99.7719 117.65 99.8089L116.93 100.239C116.863 100.275 116.813 100.336 116.79 100.409C116.765 100.48 116.765 100.558 116.79 100.629C116.83 100.693 116.892 100.739 116.965 100.758C117.038 100.776 117.115 100.766 117.18 100.729L117.91 100.299C117.972 100.259 118.019 100.199 118.04 100.129C118.055 100.094 118.063 100.057 118.063 100.019C118.063 99.9811 118.055 99.9437 118.04 99.9089Z" fill="#F2968B"/>
<path d="M34.4695 104.809C34.3952 104.809 34.324 104.838 34.2715 104.891C34.219 104.943 34.1895 105.015 34.1895 105.089C34.1894 105.164 34.2186 105.236 34.2708 105.291C34.3231 105.345 34.3943 105.376 34.4695 105.379H34.5195H34.6095H34.6895C34.7362 105.4 34.7799 105.427 34.8195 105.459C34.8452 105.48 34.8687 105.503 34.8895 105.529V105.599L34.9395 105.689C34.9427 105.736 34.9427 105.782 34.9395 105.829V105.979C34.9394 106.054 34.9686 106.126 35.0208 106.181C35.0731 106.235 35.1443 106.266 35.2195 106.269C35.2956 106.266 35.3679 106.235 35.4217 106.181C35.4756 106.127 35.507 106.055 35.5095 105.979C35.4821 105.699 35.3667 105.435 35.1798 105.225C34.993 105.015 34.7442 104.869 34.4695 104.809Z" fill="#F2968B"/>
<path d="M63.2305 18.9489C63.1641 18.9614 63.1041 18.9968 63.0609 19.0488C63.0178 19.1008 62.9941 19.1663 62.9941 19.2339C62.9941 19.3015 63.0178 19.367 63.0609 19.4191C63.1041 19.4711 63.1641 19.5064 63.2305 19.5189H63.2805H63.3705H63.4505L63.5805 19.5989L63.6505 19.6689C63.6459 19.692 63.6459 19.7158 63.6505 19.7389C63.6472 19.7688 63.6472 19.799 63.6505 19.8289C63.6551 19.8788 63.6551 19.929 63.6505 19.9789C63.6555 20.0121 63.6555 20.0458 63.6505 20.0789C63.6505 20.1558 63.6811 20.2296 63.7355 20.284C63.7899 20.3384 63.8636 20.3689 63.9405 20.3689C64.0149 20.364 64.0847 20.3316 64.1365 20.278C64.1882 20.2243 64.2182 20.1534 64.2205 20.0789C64.19 19.8122 64.0788 19.5612 63.902 19.3593C63.7251 19.1575 63.4909 19.0143 63.2305 18.9489Z" fill="#F2968B"/>
<path d="M104.4 42.8089C104.358 42.801 104.315 42.8025 104.274 42.8132C104.233 42.8238 104.194 42.8435 104.162 42.8707C104.129 42.8979 104.102 42.932 104.084 42.9706C104.066 43.0092 104.057 43.0513 104.057 43.0939C104.057 43.1366 104.066 43.1786 104.084 43.2172C104.102 43.2558 104.129 43.2899 104.162 43.3171C104.194 43.3443 104.233 43.364 104.274 43.3747C104.315 43.3854 104.358 43.3868 104.4 43.3789H104.49H104.58C104.627 43.3997 104.671 43.4265 104.71 43.4589C104.738 43.4769 104.762 43.5008 104.78 43.5289V43.5989C104.801 43.6267 104.817 43.657 104.83 43.6889C104.835 43.7388 104.835 43.789 104.83 43.8389V43.9789C104.822 44.0208 104.824 44.0639 104.835 44.1052C104.845 44.1465 104.865 44.1849 104.892 44.2177C104.919 44.2505 104.953 44.2769 104.992 44.295C105.031 44.3131 105.073 44.3225 105.115 44.3225C105.158 44.3225 105.2 44.3131 105.239 44.295C105.277 44.2769 105.311 44.2505 105.338 44.2177C105.366 44.1849 105.385 44.1465 105.396 44.1052C105.407 44.0639 105.408 44.0208 105.4 43.9789C105.377 43.7038 105.268 43.443 105.088 43.2331C104.909 43.0232 104.668 42.8749 104.4 42.8089Z" fill="#F2968B"/>
<path d="M10.0488 18.4189C10.0165 18.4176 9.98419 18.4228 9.95391 18.4342C9.92363 18.4457 9.89598 18.4631 9.87262 18.4856C9.84926 18.508 9.83069 18.5349 9.818 18.5647C9.80532 18.5945 9.7988 18.6265 9.79883 18.6589C9.79883 18.7252 9.82517 18.7888 9.87205 18.8357C9.91894 18.8826 9.98252 18.9089 10.0488 18.9089H10.1288H10.1988L10.3088 18.9789L10.3688 19.0389V19.1089C10.3655 19.1321 10.3655 19.1557 10.3688 19.1789V19.2989V19.4289C10.3615 19.4652 10.3622 19.5027 10.3711 19.5387C10.38 19.5746 10.3968 19.6082 10.4203 19.6369C10.4437 19.6656 10.4732 19.6887 10.5067 19.7045C10.5402 19.7204 10.5768 19.7286 10.6138 19.7286C10.6509 19.7286 10.6875 19.7204 10.7209 19.7045C10.7544 19.6887 10.7839 19.6656 10.8074 19.6369C10.8308 19.6082 10.8476 19.5746 10.8565 19.5387C10.8654 19.5027 10.8662 19.4652 10.8588 19.4289C10.8422 19.1983 10.7558 18.9782 10.6111 18.7978C10.4664 18.6174 10.2703 18.4852 10.0488 18.4189Z" fill="#FAF1E5"/>
<path d="M117 17.6889C116.934 17.6914 116.872 17.7185 116.826 17.7649C116.78 17.8113 116.752 17.8734 116.75 17.9389C116.75 18.0052 116.776 18.0688 116.823 18.1157C116.87 18.1626 116.934 18.1889 117 18.1889H117.08H117.15L117.27 18.2589L117.33 18.3189C117.37 18.3889 117.37 18.3889 117.41 18.4588C117.414 18.4987 117.414 18.539 117.41 18.5789C117.415 18.6087 117.415 18.6391 117.41 18.6689C117.41 18.7018 117.416 18.7343 117.429 18.7646C117.442 18.7949 117.46 18.8225 117.483 18.8457C117.506 18.8689 117.534 18.8873 117.564 18.8999C117.595 18.9125 117.627 18.9189 117.66 18.9189C117.726 18.9164 117.788 18.8893 117.834 18.843C117.88 18.7966 117.908 18.7344 117.91 18.6689C117.878 18.4316 117.773 18.2101 117.61 18.0346C117.448 17.8591 117.234 17.7384 117 17.6889Z" fill="#F2968B"/>
<path d="M104.729 16.4689C104.671 16.4561 104.61 16.4653 104.558 16.4949C104.507 16.5245 104.468 16.5723 104.449 16.6289C104.453 16.6555 104.453 16.6824 104.449 16.7089C104.449 16.7089 104.449 16.7589 104.399 16.7689L104.339 16.8289L104.199 16.9189H104.129H103.829H103.739C103.682 16.9055 103.622 16.9134 103.571 16.941C103.519 16.9686 103.48 17.0141 103.459 17.0689C103.449 17.127 103.459 17.1869 103.488 17.2382C103.517 17.2894 103.564 17.3287 103.619 17.3489C103.901 17.4246 104.2 17.3925 104.459 17.2589C104.718 17.1314 104.919 16.9096 105.019 16.6389C105.012 16.6082 104.999 16.5792 104.981 16.5537C104.962 16.5283 104.938 16.5069 104.911 16.491C104.884 16.475 104.854 16.4648 104.822 16.461C104.791 16.4573 104.759 16.4599 104.729 16.4689Z" fill="#FAF1E5"/>
<path d="M85.99 29.2089C85.9344 29.196 85.876 29.2042 85.8261 29.2319C85.7762 29.2596 85.7384 29.3049 85.72 29.3589V29.4289L85.67 29.479L85.61 29.539L85.47 29.6189H85.39H85.32H85.09H85.01C84.9517 29.6036 84.8896 29.6117 84.8373 29.6416C84.7849 29.6716 84.7464 29.7209 84.73 29.7789C84.7225 29.8072 84.7207 29.8366 84.7247 29.8656C84.7288 29.8945 84.7385 29.9224 84.7534 29.9475C84.7683 29.9726 84.788 29.9945 84.8115 30.0119C84.8349 30.0294 84.8616 30.0419 84.89 30.0489C85.1714 30.1246 85.471 30.0925 85.73 29.9589C85.9884 29.8306 86.1885 29.609 86.29 29.3389C86.2802 29.3097 86.2643 29.2829 86.2435 29.2602C86.2226 29.2375 86.1972 29.2194 86.1689 29.2072C86.1407 29.1949 86.1101 29.1887 86.0793 29.189C86.0485 29.1893 86.018 29.1961 85.99 29.2089Z" fill="#FAF1E5"/>
<path d="M19.8395 97.2689C19.7131 97.0656 19.5226 96.9102 19.2982 96.8269C19.0737 96.7437 18.828 96.7373 18.5995 96.8089C18.5407 96.8274 18.4913 96.8679 18.4615 96.9219C18.4317 96.9759 18.4238 97.0393 18.4395 97.0989C18.4466 97.1286 18.4594 97.1566 18.4774 97.1812C18.4953 97.2059 18.5179 97.2267 18.544 97.2425C18.57 97.2583 18.599 97.2688 18.6291 97.2733C18.6593 97.2779 18.69 97.2764 18.7195 97.2689H18.8295H18.9995H19.1195H19.1695V97.3189C19.2026 97.3705 19.2534 97.4082 19.3124 97.4248C19.3714 97.4414 19.4344 97.4358 19.4895 97.4089C19.5205 97.4292 19.5559 97.4417 19.5927 97.4454C19.6295 97.4491 19.6667 97.4438 19.701 97.4301C19.7354 97.4163 19.7659 97.3945 19.79 97.3665C19.8141 97.3384 19.8311 97.3049 19.8395 97.2689Z" fill="#FAF1E5"/>
<path d="M39.8101 88.3089C39.8101 88.3089 39.8101 88.3089 39.8101 88.2589V88.1789C39.8713 88.1137 39.9068 88.0284 39.9101 87.9389C39.9093 87.846 39.8736 87.7568 39.8101 87.6889C39.7448 87.6277 39.6595 87.5921 39.5701 87.5889H39.4801C39.4217 87.609 39.3675 87.6395 39.3201 87.6789C39.2749 87.7209 39.2346 87.7679 39.2001 87.8189C39.1967 87.8488 39.1967 87.879 39.2001 87.9089C39.14 88.0193 39.109 88.1432 39.1101 88.2689C39.0909 88.3613 39.0909 88.4566 39.1101 88.5489C39.1477 88.6659 39.2129 88.7722 39.3001 88.8589C39.3653 88.9202 39.4506 88.9557 39.5401 88.9589C39.5864 88.9603 39.6325 88.9522 39.6756 88.9351C39.7187 88.918 39.7578 88.8923 39.7906 88.8595C39.8234 88.8267 39.8491 88.7876 39.8662 88.7445C39.8833 88.7014 39.8914 88.6553 39.8901 88.6089C39.8905 88.5642 39.8819 88.5199 39.8647 88.4787C39.8475 88.4374 39.8221 88.4001 39.7901 88.3689L39.8101 88.3089Z" fill="#FAF1E5"/>
<path d="M29.1202 79.7389H28.9202H28.8002L28.7002 79.6689L28.6102 79.5689V79.5089L28.5502 79.3889C28.5555 79.3727 28.5555 79.3552 28.5502 79.3389C28.5502 79.2889 28.5502 79.2489 28.5502 79.2089C28.555 79.1858 28.555 79.162 28.5502 79.1389V79.0089C28.5549 78.9892 28.5549 78.9687 28.5502 78.9489C28.5502 78.9489 28.5502 78.8689 28.5502 78.8389V78.7789C28.5938 78.7033 28.6056 78.6135 28.5831 78.5291C28.5606 78.4448 28.5056 78.3728 28.4302 78.3289C28.3935 78.3076 28.3529 78.2938 28.3108 78.2882C28.2688 78.2827 28.226 78.2856 28.1851 78.2968C28.1441 78.308 28.1058 78.3272 28.0723 78.3533C28.0389 78.3794 28.0109 78.4119 27.9902 78.4489C27.8975 78.6216 27.8404 78.8111 27.8225 79.0062C27.8046 79.2014 27.8261 79.3981 27.8859 79.5847C27.9456 79.7713 28.0423 79.944 28.1701 80.0925C28.298 80.241 28.4545 80.3622 28.6302 80.4489C28.8321 80.5473 29.0559 80.592 29.2802 80.5789C29.3661 80.5741 29.4473 80.5378 29.5082 80.477C29.5691 80.4161 29.6054 80.3349 29.6102 80.2489C29.6778 80.184 29.7169 80.0948 29.7187 80.001C29.7206 79.9072 29.6852 79.8166 29.6202 79.7489C29.5552 79.6813 29.466 79.6423 29.3722 79.6404C29.2785 79.6385 29.1878 79.6739 29.1202 79.7389Z" fill="#FAF1E5"/>
<path d="M12.1391 87.6289C12.0728 87.6105 12.0019 87.6191 11.9419 87.6528C11.882 87.6865 11.8378 87.7427 11.8191 87.8089C11.7969 87.8317 11.7798 87.859 11.7691 87.8889L11.7091 87.9589C11.681 87.9769 11.6571 88.0008 11.6391 88.0289L11.4791 88.1189H11.3891H11.2991H11.0291H10.9291C10.8956 88.11 10.8607 88.1078 10.8263 88.1125C10.792 88.1173 10.7589 88.1288 10.7291 88.1465C10.6993 88.1642 10.6733 88.1877 10.6527 88.2156C10.6321 88.2435 10.6173 88.2752 10.6091 88.3089C10.5907 88.3752 10.5993 88.4462 10.633 88.5061C10.6667 88.5661 10.7229 88.6103 10.7891 88.6289C11.123 88.7245 11.4808 88.6887 11.7891 88.5289C12.0963 88.3766 12.3327 88.1115 12.4491 87.7889C12.4265 87.7286 12.3822 87.6788 12.325 87.6492C12.2677 87.6197 12.2015 87.6124 12.1391 87.6289Z" fill="#F2968B"/>
<path d="M11.6001 66.1389C11.5311 66.1389 11.465 66.1663 11.4162 66.2151C11.3674 66.2638 11.3401 66.33 11.3401 66.3989C11.3386 66.4334 11.3444 66.4679 11.357 66.5001C11.3695 66.5322 11.3886 66.5615 11.4131 66.5859C11.4375 66.6103 11.4667 66.6294 11.4989 66.642C11.5311 66.6546 11.5655 66.6603 11.6001 66.6589H11.6801H11.7601L11.88 66.7289L11.95 66.7989V66.8589V66.9389C11.9544 66.9822 11.9544 67.0257 11.95 67.0689C11.9549 67.0987 11.9549 67.1291 11.95 67.1589C11.95 67.2279 11.9774 67.294 12.0262 67.3428C12.075 67.3915 12.1411 67.4189 12.2101 67.4189C12.279 67.4189 12.3451 67.3915 12.3939 67.3428C12.4427 67.294 12.47 67.2279 12.47 67.1589C12.443 66.9216 12.3458 66.6978 12.1908 66.5161C12.0358 66.3344 11.8301 66.2031 11.6001 66.1389Z" fill="#F2968B"/>
<path d="M62.1792 1.46893C62.1792 1.46893 52.7992 10.4689 41.0592 15.2289C33.8792 18.1289 22.7992 19.4289 8.44922 18.6989" stroke="#010101" stroke-width="0.11" stroke-miterlimit="10"/>
<path d="M52.1398 8.80893L53.0898 14.4089L47.8398 11.7789L52.1398 8.80893Z" fill="#FAB616"/>
<path d="M57.9191 4.45892L59.3191 9.95892L53.8691 7.76894L57.9191 4.45892Z" fill="#F15B59"/>
<path d="M46.2291 12.4689L46.3491 18.1489L41.5391 14.7789L46.2291 12.4689Z" fill="#FAF1E5"/>
<path d="M39.8901 15.549L38.8501 21.129L34.8301 16.8489L39.8901 15.549Z" fill="#F15B59"/>
<path d="M17.8001 18.3689L15.1401 23.379L12.5801 18.0989L17.8001 18.3689Z" fill="#F15B59"/>
<path d="M32.2388 17.3389L30.4688 22.7389L27.0488 17.9689L32.2388 17.3389Z" fill="#FAB616"/>
<path d="M25.2688 18.129L22.8588 23.259L20.0488 18.1089L25.2688 18.129Z" fill="#FAF1E5"/>
<path d="M62.1895 1.60895C62.1895 1.60895 69.7295 10.1289 79.6095 15.0689C85.6095 18.0689 95.2195 19.9989 107.759 20.3589" stroke="#010101" stroke-width="0.1" stroke-miterlimit="10"/>
<path d="M70.4192 8.69891L69.1992 13.4989L73.9592 11.5889L70.4192 8.69891Z" fill="#FAB616"/>
<path d="M65.6898 4.49893L64.0898 9.19893L68.9898 7.66893L65.6898 4.49893Z" fill="#F15B59"/>
<path d="M75.3105 12.299L74.8105 17.2289L79.2305 14.6389L75.3105 12.299Z" fill="#FAF1E5"/>
<path d="M80.6094 15.4189L81.1294 20.349L84.9294 16.909L80.6094 15.4189Z" fill="#F15B59"/>
<path d="M99.6504 19.4189L101.61 23.9689L104.21 19.5489L99.6504 19.4189Z" fill="#F15B59"/>
<path d="M87.1504 17.5189L88.3104 22.3389L91.6304 18.4289L87.1504 17.5189Z" fill="#FAB616"/>
<path d="M93.1602 18.6889L94.9002 23.3289L97.7102 19.0389L93.1602 18.6889Z" fill="#FAF1E5"/>
</g>
</g>
<defs>
<linearGradient id="paint0_linear_3467_5446" x1="59.6588" y1="110.099" x2="44.2888" y2="110.099" gradientUnits="userSpaceOnUse">
<stop offset="0.05" stop-color="#F05455"/>
<stop offset="0.39" stop-color="#F05753"/>
<stop offset="1" stop-color="#F2665C"/>
</linearGradient>
<linearGradient id="paint1_linear_3467_5446" x1="59.64" y1="112.959" x2="49.7" y2="112.959" gradientUnits="userSpaceOnUse">
<stop stop-color="#FDDED0"/>
<stop offset="0.95" stop-color="#FEE2CC"/>
</linearGradient>
<linearGradient id="paint2_linear_3467_5446" x1="50.3599" y1="112.569" x2="44.2399" y2="112.569" gradientUnits="userSpaceOnUse">
<stop offset="0.05" stop-color="#FDDED0"/>
<stop offset="1" stop-color="#FEE2CC"/>
</linearGradient>
<linearGradient id="paint3_linear_3467_5446" x1="54.6196" y1="109.119" x2="51.4196" y2="109.119" gradientUnits="userSpaceOnUse">
<stop stop-color="#FDDED0"/>
<stop offset="0.95" stop-color="#FEE2CC"/>
</linearGradient>
<linearGradient id="paint4_linear_3467_5446" x1="52.5296" y1="110.329" x2="49.3496" y2="110.329" gradientUnits="userSpaceOnUse">
<stop stop-color="#FDDED0"/>
<stop offset="0.95" stop-color="#FEE2CC"/>
</linearGradient>
<linearGradient id="paint5_linear_3467_5446" x1="60.5191" y1="98.8289" x2="43.7191" y2="91.2689" gradientUnits="userSpaceOnUse">
<stop stop-color="#164B9C"/>
<stop offset="0.45" stop-color="#194C9D"/>
<stop offset="0.75" stop-color="#224E9F"/>
<stop offset="1" stop-color="#3052A2"/>
</linearGradient>
<linearGradient id="paint6_linear_3467_5446" x1="72.2342" y1="110.244" x2="86.1857" y2="103.771" gradientUnits="userSpaceOnUse">
<stop offset="0.05" stop-color="#F05455"/>
<stop offset="0.39" stop-color="#F05753"/>
<stop offset="1" stop-color="#F2665C"/>
</linearGradient>
<linearGradient id="paint7_linear_3467_5446" x1="73.4548" y1="112.83" x2="82.4806" y2="108.642" gradientUnits="userSpaceOnUse">
<stop stop-color="#FDDED0"/>
<stop offset="0.95" stop-color="#FEE2CC"/>
</linearGradient>
<linearGradient id="paint8_linear_3467_5446" x1="81.7053" y1="108.561" x2="87.2569" y2="105.985" gradientUnits="userSpaceOnUse">
<stop offset="0.05" stop-color="#FDDED0"/>
<stop offset="1" stop-color="#FEE2CC"/>
</linearGradient>
<linearGradient id="paint9_linear_3467_5446" x1="76.3983" y1="107.22" x2="79.292" y2="105.878" gradientUnits="userSpaceOnUse">
<stop stop-color="#FDDED0"/>
<stop offset="0.95" stop-color="#FEE2CC"/>
</linearGradient>
<linearGradient id="paint10_linear_3467_5446" x1="78.7986" y1="107.451" x2="81.6833" y2="106.113" gradientUnits="userSpaceOnUse">
<stop stop-color="#FDDED0"/>
<stop offset="0.95" stop-color="#FEE2CC"/>
</linearGradient>
<linearGradient id="paint11_linear_3467_5446" x1="66.6821" y1="100.417" x2="78.5085" y2="86.7504" gradientUnits="userSpaceOnUse">
<stop stop-color="#164B9C"/>
<stop offset="0.15" stop-color="#194C9D"/>
<stop offset="0.25" stop-color="#224E9F"/>
<stop offset="0.33" stop-color="#3052A2"/>
<stop offset="0.54" stop-color="#385DAA"/>
<stop offset="0.95" stop-color="#4670B7"/>
</linearGradient>
<linearGradient id="paint12_linear_3467_5446" x1="71.0054" y1="86.9814" x2="47.7228" y2="61.1359" gradientUnits="userSpaceOnUse">
<stop stop-color="#FDE045"/>
<stop offset="0.19" stop-color="#FFD540"/>
<stop offset="0.54" stop-color="#FEC156"/>
<stop offset="0.86" stop-color="#FEBE56"/>
<stop offset="1" stop-color="#FDB957"/>
</linearGradient>
<linearGradient id="paint13_linear_3467_5446" x1="28.7787" y1="57.5384" x2="25.32" y2="61.8206" gradientUnits="userSpaceOnUse">
<stop offset="0.05" stop-color="#FCB447"/>
<stop offset="0.52" stop-color="#FDB852"/>
<stop offset="1" stop-color="#FDB957"/>
</linearGradient>
<linearGradient id="paint14_linear_3467_5446" x1="17.3704" y1="47.0956" x2="35.092" y2="59.0635" gradientUnits="userSpaceOnUse">
<stop stop-color="#FEE2CC"/>
<stop offset="0.3" stop-color="#FED9BB"/>
<stop offset="0.59" stop-color="#FCCAB7"/>
<stop offset="0.68" stop-color="#FBC0AE"/>
<stop offset="0.86" stop-color="#F9B09F"/>
<stop offset="1" stop-color="#F8AA9A"/>
</linearGradient>
<linearGradient id="paint15_linear_3467_5446" x1="29.6001" y1="64.0753" x2="39.951" y2="51.2599" gradientUnits="userSpaceOnUse">
<stop offset="0.05" stop-color="#FEC156"/>
<stop offset="0.8" stop-color="#FDBC57"/>
<stop offset="1" stop-color="#FDB957"/>
</linearGradient>
<linearGradient id="paint16_linear_3467_5446" x1="34.0765" y1="62.1537" x2="24.2262" y2="45.3647" gradientUnits="userSpaceOnUse">
<stop stop-color="#FCCAB7"/>
<stop offset="0.7" stop-color="#FED9BB"/>
<stop offset="1" stop-color="#FEE2CC"/>
</linearGradient>
<linearGradient id="paint17_linear_3467_5446" x1="21.6518" y1="36.1262" x2="24.3577" y2="50.0473" gradientUnits="userSpaceOnUse">
<stop stop-color="#FCCAB7"/>
<stop offset="0.23" stop-color="#FDD3BA"/>
<stop offset="0.51" stop-color="#FED9BB"/>
<stop offset="1" stop-color="#FEE2CC"/>
</linearGradient>
<linearGradient id="paint18_linear_3467_5446" x1="82.5426" y1="55.3365" x2="86.8876" y2="58.6915" gradientUnits="userSpaceOnUse">
<stop offset="0.05" stop-color="#FCB447"/>
<stop offset="0.52" stop-color="#FDB852"/>
<stop offset="1" stop-color="#FDB957"/>
</linearGradient>
<linearGradient id="paint19_linear_3467_5446" x1="94.3466" y1="43.5142" x2="79.9463" y2="59.1915" gradientUnits="userSpaceOnUse">
<stop stop-color="#FEE2CC"/>
<stop offset="0.3" stop-color="#FED9BB"/>
<stop offset="0.59" stop-color="#FCCAB7"/>
<stop offset="0.68" stop-color="#FBC0AE"/>
<stop offset="0.86" stop-color="#F9B09F"/>
<stop offset="1" stop-color="#F8AA9A"/>
</linearGradient>
<linearGradient id="paint20_linear_3467_5446" x1="64.5308" y1="69.4703" x2="70.0092" y2="65.0373" gradientUnits="userSpaceOnUse">
<stop stop-color="#FDB957"/>
<stop offset="0.65" stop-color="#FDBC57"/>
<stop offset="0.95" stop-color="#FEC156"/>
</linearGradient>
<linearGradient id="paint21_linear_3467_5446" x1="92.9878" y1="54.8276" x2="101.758" y2="37.5098" gradientUnits="userSpaceOnUse">
<stop stop-color="#FCCAB7"/>
<stop offset="0.7" stop-color="#FED9BB"/>
<stop offset="1" stop-color="#FEE2CC"/>
</linearGradient>
<linearGradient id="paint22_linear_3467_5446" x1="103.678" y1="41.4989" x2="93.4446" y2="51.3333" gradientUnits="userSpaceOnUse">
<stop stop-color="#FCCAB7"/>
<stop offset="0.23" stop-color="#FDD3BA"/>
<stop offset="0.51" stop-color="#FED9BB"/>
<stop offset="1" stop-color="#FEE2CC"/>
</linearGradient>
<linearGradient id="paint23_linear_3467_5446" x1="39.9502" y1="48.3989" x2="79.0602" y2="35.2389" gradientUnits="userSpaceOnUse">
<stop stop-color="#F8AA9A"/>
<stop offset="0.31" stop-color="#FCC6B4"/>
<stop offset="0.34" stop-color="#FCCAB7"/>
<stop offset="0.7" stop-color="#FED9BB"/>
<stop offset="1" stop-color="#FEE2CC"/>
</linearGradient>
<linearGradient id="paint24_linear_3467_5446" x1="42.9205" y1="35.7689" x2="82.7205" y2="31.9689" gradientUnits="userSpaceOnUse">
<stop stop-color="#4A252F"/>
<stop offset="0.37" stop-color="#7A4B34"/>
<stop offset="1" stop-color="#9F603A"/>
</linearGradient>
<linearGradient id="paint25_linear_3467_5446" x1="57.0691" y1="55.2389" x2="65.2291" y2="55.2389" gradientUnits="userSpaceOnUse">
<stop offset="0.01" stop-color="#EF4553"/>
<stop offset="0.62" stop-color="#BA3D45"/>
<stop offset="1" stop-color="#9E383D"/>
</linearGradient>
<linearGradient id="paint26_linear_3467_5446" x1="57.0691" y1="54.8889" x2="65.2291" y2="54.8889" gradientUnits="userSpaceOnUse">
<stop offset="0.01" stop-color="#EF4553"/>
<stop offset="0.62" stop-color="#BA3D45"/>
<stop offset="1" stop-color="#9E383D"/>
</linearGradient>
<linearGradient id="paint27_linear_3467_5446" x1="48.9279" y1="37.6819" x2="59.179" y2="35.1926" gradientUnits="userSpaceOnUse">
<stop stop-color="#4A252F"/>
<stop offset="1" stop-color="#7A4B34"/>
</linearGradient>
<linearGradient id="paint28_linear_3467_5446" x1="75.5396" y1="39.3472" x2="65.318" y2="36.8995" gradientUnits="userSpaceOnUse">
<stop stop-color="#4A252F"/>
<stop offset="0.97" stop-color="#7A4B34"/>
</linearGradient>
<linearGradient id="paint29_linear_3467_5446" x1="52.2793" y1="43.8489" x2="57.0593" y2="43.8489" gradientUnits="userSpaceOnUse">
<stop stop-color="#162649"/>
<stop offset="1" stop-color="#273861"/>
</linearGradient>
<linearGradient id="paint30_linear_3467_5446" x1="65.0098" y1="43.9489" x2="69.7898" y2="43.9489" gradientUnits="userSpaceOnUse">
<stop stop-color="#162649"/>
<stop offset="1" stop-color="#273861"/>
</linearGradient>
<linearGradient id="paint31_linear_3467_5446" x1="39.8503" y1="59.8289" x2="65.3903" y2="39.3589" gradientUnits="userSpaceOnUse">
<stop stop-color="#F8AA9A"/>
<stop offset="0.51" stop-color="#FCC6B4"/>
<stop offset="0.57" stop-color="#FCCAB7"/>
<stop offset="0.76" stop-color="#FED9BB"/>
<stop offset="1" stop-color="#FEE2CC"/>
</linearGradient>
<linearGradient id="paint32_linear_3467_5446" x1="53.7088" y1="62.1989" x2="75.0788" y2="40.1089" gradientUnits="userSpaceOnUse">
<stop stop-color="#F8AA9A"/>
<stop offset="0.17" stop-color="#FCC6B4"/>
<stop offset="0.19" stop-color="#FCCAB7"/>
<stop offset="0.7" stop-color="#FED9BB"/>
<stop offset="1" stop-color="#FEE2CC"/>
</linearGradient>
</defs>
</svg>
