<svg width="120" height="120" viewBox="0 0 120 120" fill="none" xmlns="http://www.w3.org/2000/svg">
<mask id="mask0_3467_5326" style="mask-type:alpha" maskUnits="userSpaceOnUse" x="0" y="0" width="120" height="120">
<rect width="120" height="120" fill="white"/>
</mask>
<g mask="url(#mask0_3467_5326)">
<mask id="mask1_3467_5326" style="mask-type:luminance" maskUnits="userSpaceOnUse" x="2" y="-6" width="119" height="125">
<path d="M118.88 59.7565C118.88 71.3148 115.453 82.6136 109.031 92.224C102.61 101.834 93.4826 109.325 82.8041 113.748C72.1255 118.171 60.3752 119.329 49.0389 117.074C37.7027 114.819 27.2897 109.253 19.1167 101.08C10.9437 92.9068 5.37785 82.4938 3.12293 71.1576C0.868013 59.8213 2.02532 48.071 6.44851 37.3925C10.8717 26.714 18.3621 17.5869 27.9725 11.1654C37.5829 4.74395 48.8817 1.31649 60.44 1.31649C74.12 1.31649 95.13 -11.2835 105.08 -3.4135C108.27 -0.893502 113.82 1.9165 116.41 5.0365C124.86 15.1665 118.88 45.5265 118.88 59.7565Z" fill="white"/>
</mask>
<g mask="url(#mask1_3467_5326)">
<path d="M59.94 118.196C92.2155 118.196 118.38 92.032 118.38 59.7565C118.38 27.481 92.2155 1.31647 59.94 1.31647C27.6645 1.31647 1.5 27.481 1.5 59.7565C1.5 92.032 27.6645 118.196 59.94 118.196Z" fill="#89C58B"/>
<mask id="mask2_3467_5326" style="mask-type:luminance" maskUnits="userSpaceOnUse" x="1" y="13" width="56" height="64">
<path d="M56.7102 13.0965H1.24023V76.0565H56.7102V13.0965Z" fill="white"/>
</mask>
<g mask="url(#mask2_3467_5326)">
<path d="M16.5703 74.9165C16.5703 74.9165 22.5703 87.9965 24.0603 89.5765C25.2203 90.8365 24.8303 92.8965 24.6203 93.6665C24.5988 93.754 24.6092 93.8463 24.6495 93.9269C24.6898 94.0075 24.7574 94.0712 24.8403 94.1065C25.8403 94.4865 28.8403 95.5165 30.8403 94.6365C30.9848 94.5778 31.1081 94.4766 31.1939 94.3462C31.2796 94.2158 31.3237 94.0625 31.3203 93.9065C31.3219 93.8495 31.3121 93.7927 31.2915 93.7394C31.2709 93.6862 31.2399 93.6377 31.2003 93.5965C31.0903 93.4865 31.2003 93.3165 31.2803 93.1565C31.423 92.9639 31.5174 92.7399 31.5557 92.5033C31.594 92.2666 31.575 92.0243 31.5003 91.7965L31.3303 91.2665L32.1203 86.2665L32.5303 81.4265V75.8365L16.5703 74.9165Z" fill="url(#paint0_linear_3467_5326)"/>
<path d="M48.0303 74.9165C48.0303 74.9165 42.0303 87.9965 40.5403 89.5765C39.3803 90.8365 39.7803 92.8965 39.9803 93.6665C40.0039 93.7541 39.9946 93.8473 39.954 93.9284C39.9135 94.0095 39.8445 94.0729 39.7603 94.1065C38.7603 94.4865 35.8203 95.5165 33.7603 94.6365C33.6158 94.5778 33.4925 94.4766 33.4068 94.3462C33.321 94.2158 33.2769 94.0625 33.2803 93.9065C33.2809 93.7901 33.3277 93.6786 33.4103 93.5965C33.5203 93.4865 33.4103 93.3165 33.3303 93.1565C33.1867 92.9644 33.0909 92.7408 33.0509 92.5043C33.011 92.2678 33.0279 92.0252 33.1003 91.7965L33.2703 91.2665L32.4803 86.2665L32.0703 81.4265V75.8365L48.0303 74.9165Z" fill="url(#paint1_linear_3467_5326)"/>
<path d="M25.4815 50.2365H25.3315C24.5015 50.3865 18.1915 51.8665 17.4415 62.9665C16.6615 74.5265 15.7315 74.4765 17.0215 75.3565C17.3125 75.4628 17.6143 75.5366 17.9215 75.5765C21.2615 76.4965 37.1315 79.2265 47.7015 75.2065C47.9158 75.1224 48.098 74.9726 48.222 74.7786C48.346 74.5846 48.4053 74.3563 48.3915 74.1265C48.3115 72.8565 48.1015 69.6565 47.5815 62.0265C46.8615 51.4465 39.8415 50.0265 38.9015 49.8865H38.7115L25.4815 50.2365Z" fill="url(#paint2_linear_3467_5326)"/>
<path d="M11.4414 60.8165C11.4414 60.8165 12.4414 63.3265 15.6714 62.6565C16.5414 62.4765 16.0514 59.1065 16.0514 59.1065L11.4414 60.8165Z" fill="url(#paint3_linear_3467_5326)"/>
<path d="M17.2417 54.1165C15.5217 55.2965 11.0617 60.8765 10.6217 66.3865C10.591 67.2458 10.838 68.0922 11.3262 68.8001C11.8143 69.508 12.5176 70.0398 13.3317 70.3165C15.7917 71.2665 19.3317 69.3165 20.6517 66.9665C22.9417 62.9665 24.0817 57.7165 23.7917 55.1465C23.6692 54.4287 23.3048 53.7745 22.7591 53.2924C22.2133 52.8103 21.5191 52.5295 20.7917 52.4965H20.7217C19.4517 52.3765 18.2717 53.4265 17.2417 54.1165Z" fill="url(#paint4_linear_3467_5326)"/>
<path d="M21.0114 51.4065C18.3214 52.2065 12.9414 54.5665 11.4414 60.8165C15.218 59.6452 19.2867 59.8435 22.9314 61.3765L24.5914 59.0765C25.3027 58.0984 25.6665 56.9106 25.6248 55.7019C25.5831 54.4932 25.1384 53.3333 24.3614 52.4065C24.1833 52.1848 23.9745 51.9895 23.7414 51.8265C23.346 51.5584 22.8959 51.3816 22.4237 51.3089C21.9515 51.2363 21.4691 51.2696 21.0114 51.4065Z" fill="url(#paint5_linear_3467_5326)"/>
<path d="M11.4208 64.9665C12.2642 63.8432 13.4971 63.0758 14.8774 62.8149C16.2576 62.554 17.6856 62.8185 18.8808 63.5565C21.5786 65.2617 23.9022 67.4969 25.7108 70.1265C25.9342 70.3652 26.0956 70.655 26.1811 70.9705C26.2665 71.2861 26.2733 71.6178 26.2008 71.9365C25.9308 73.0165 24.3308 73.4165 23.2008 73.5765C21.4601 73.9901 19.6524 74.0366 17.8928 73.7129C16.1332 73.3892 14.4603 72.7025 12.9808 71.6965C11.8308 71.0075 10.9975 69.8942 10.6608 68.5965C10.5012 67.9737 10.4867 67.3224 10.6184 66.6931C10.7502 66.0637 11.0247 65.473 11.4208 64.9665Z" fill="url(#paint6_linear_3467_5326)"/>
<path d="M27.9201 73.9865C27.9201 73.9865 29.2701 74.3265 29.4001 74.3965C29.486 74.4374 29.5799 74.4586 29.6751 74.4586C29.7702 74.4586 29.8642 74.4374 29.9501 74.3965C30.276 74.3025 30.6114 74.2454 30.9501 74.2265C30.9501 74.2265 31.6201 73.7765 31.8301 73.8065C32.0401 73.8365 32.1501 73.1365 31.1201 73.3565C30.6352 73.4803 30.1396 73.5573 29.6401 73.5865L28.3201 72.9565C28.3201 72.9565 27.6001 72.1265 27.2301 71.6065C25.7801 69.6065 24.0801 71.6065 24.0801 71.6065L27.9201 73.9865Z" fill="#FCCAB7"/>
<path d="M27.8203 69.8465C27.7018 69.9 27.588 69.9636 27.4803 70.0365C27.2103 70.2365 26.7203 70.0365 26.7203 70.0365C25.0503 69.3465 24.3203 70.0365 24.3203 70.0365L24.1703 70.1765C23.909 70.4658 23.713 70.8078 23.5954 71.1795C23.4778 71.5512 23.4415 71.9437 23.4889 72.3307C23.5364 72.7176 23.6664 73.0898 23.8702 73.4221C24.074 73.7543 24.3469 74.0389 24.6703 74.2565C25.6631 74.8735 26.7936 75.2343 27.9603 75.3065L29.1703 75.5665C29.4353 75.662 29.7253 75.662 29.9903 75.5665C30.2703 75.4665 30.6003 75.3665 30.8703 75.2865C31.1084 75.2072 31.3267 75.0776 31.5103 74.9065C31.7718 74.6917 31.9546 74.3963 32.0303 74.0665C32.0303 74.0665 32.0303 73.2665 31.0303 73.6365L29.6703 74.1265C29.5862 74.1563 29.4944 74.1563 29.4103 74.1265L28.3503 73.6165C27.7271 73.0605 27.2556 72.3551 26.9803 71.5665H27.0703C27.3303 71.5665 29.6503 71.5165 29.1903 70.3165C29.1338 70.1934 29.0529 70.0831 28.9524 69.9922C28.852 69.9014 28.7342 69.8318 28.606 69.7879C28.4779 69.7439 28.3422 69.7265 28.2072 69.7366C28.0721 69.7466 27.9405 69.7841 27.8203 69.8465Z" fill="url(#paint7_linear_3467_5326)"/>
<path opacity="0.5" d="M28.1611 70.7965L27.9012 70.1865C27.8875 70.1533 27.8871 70.116 27.9001 70.0825C27.9132 70.049 27.9386 70.0218 27.9711 70.0065C28.2111 69.9165 28.7412 69.7565 28.9012 70.1165C29.0612 70.4765 28.5811 70.7565 28.3411 70.8665C28.3249 70.8747 28.3071 70.8794 28.2889 70.8803C28.2707 70.8811 28.2525 70.8782 28.2356 70.8716C28.2186 70.865 28.2032 70.8549 28.1904 70.842C28.1776 70.829 28.1676 70.8135 28.1611 70.7965Z" fill="white"/>
<path d="M52.3313 60.8165C52.3313 60.8165 51.3313 63.3265 48.1113 62.6565C47.2313 62.4765 47.7313 59.1065 47.7313 59.1065L52.3313 60.8165Z" fill="url(#paint8_linear_3467_5326)"/>
<path d="M46.5505 54.1165C48.2805 55.2965 52.7305 60.8765 53.1705 66.3865C53.1948 67.2462 52.9414 68.0909 52.4478 68.7952C51.9543 69.4995 51.2469 70.0259 50.4305 70.2965C47.9705 71.2465 44.4305 69.2965 43.1005 66.9465C40.8105 62.9465 39.6805 57.6965 39.9705 55.1265C40.0895 54.4072 40.4529 53.7508 40.9993 53.2681C41.5458 52.7854 42.2419 52.5058 42.9705 52.4765H43.0505C44.3305 52.3765 45.5305 53.4265 46.5505 54.1165Z" fill="url(#paint9_linear_3467_5326)"/>
<path d="M42.7813 51.4065C45.4713 52.2065 50.8513 54.5665 52.3513 60.8165C48.5781 59.6451 44.5125 59.8434 40.8713 61.3765L38.9513 58.2865C38.3961 57.3832 38.1424 56.3268 38.2268 55.2698C38.3113 54.2129 38.7296 53.2102 39.4213 52.4065C39.6088 52.1865 39.8239 51.9915 40.0613 51.8265C40.4549 51.5586 40.9033 51.3818 41.3738 51.3091C41.8444 51.2365 42.3252 51.2698 42.7813 51.4065Z" fill="url(#paint10_linear_3467_5326)"/>
<path d="M52.5305 64.6865C51.8038 63.4847 50.6536 62.5985 49.3062 62.2024C47.9588 61.8063 46.5119 61.9291 45.2505 62.5465C42.3928 63.9702 39.8573 65.9646 37.8005 68.4065C37.5491 68.6152 37.3549 68.8844 37.2359 69.1887C37.117 69.493 37.0773 69.8226 37.1205 70.1465C37.2805 71.2465 38.8405 71.8065 39.9205 72.0765C41.6097 72.6633 43.4029 72.8909 45.1852 72.7445C46.9675 72.5982 48.6996 72.0811 50.2705 71.2265C51.4877 70.6572 52.4298 69.6288 52.8905 68.3665C53.1137 67.766 53.1974 67.1226 53.135 66.4849C53.0726 65.8473 52.8659 65.2323 52.5305 64.6865Z" fill="url(#paint11_linear_3467_5326)"/>
<path d="M35.2103 72.0265C35.2103 72.0265 33.8303 72.2265 33.7003 72.2865C33.6059 72.3059 33.5086 72.3062 33.4141 72.2873C33.3196 72.2684 33.2299 72.2307 33.1503 72.1765C32.8483 72.053 32.5328 71.9658 32.2103 71.9165C32.2103 71.9165 31.5903 71.3965 31.3803 71.4065C31.1703 71.4165 31.1403 70.7065 32.1403 71.0365C32.6068 71.2072 33.0892 71.3311 33.5803 71.4065L34.9603 70.9165C34.9603 70.9165 35.7603 70.1565 36.1803 69.6765C37.8203 67.8165 39.3203 69.9665 39.3203 69.9665L35.2103 72.0265Z" fill="#FCCAB7"/>
<path d="M35.7211 67.9165C35.8396 67.971 35.9478 68.0454 36.0411 68.1365C36.2911 68.3565 36.8011 68.1365 36.8011 68.1365C38.5411 67.6165 39.1911 68.3865 39.1911 68.3865L39.3311 68.5265C39.5587 68.841 39.7166 69.2005 39.7942 69.5809C39.8718 69.9613 39.8675 70.3538 39.7813 70.7324C39.6952 71.111 39.5293 71.4668 39.2948 71.7762C39.0602 72.0856 38.7624 72.3414 38.4211 72.5265C37.3714 73.0417 36.2094 73.2858 35.0411 73.2365L33.8111 73.3865C33.5375 73.454 33.2493 73.4295 32.9911 73.3165L32.1511 72.9465C31.9164 72.849 31.7076 72.6984 31.5411 72.5065C31.3083 72.2672 31.1607 71.958 31.1211 71.6265C31.1211 71.6265 31.2411 70.8265 32.1211 71.2965L33.4211 71.9165C33.506 71.9409 33.5962 71.9409 33.6811 71.9165L34.7911 71.5265C35.4664 71.0342 36.0036 70.3764 36.3511 69.6165H36.3311C36.0611 69.6165 33.7611 69.3065 34.3311 68.1665C34.4825 67.9493 34.7139 67.801 34.9744 67.7541C35.235 67.7073 35.5035 67.7656 35.7211 67.9165Z" fill="url(#paint12_linear_3467_5326)"/>
<path opacity="0.5" d="M35.3309 68.8265L35.6509 68.2465C35.6692 68.2146 35.6742 68.1768 35.6648 68.1413C35.6554 68.1057 35.6325 68.0753 35.6009 68.0565C35.3609 67.9365 34.8509 67.7265 34.6609 68.0565C34.4709 68.3865 34.9209 68.7265 35.1509 68.8565C35.1642 68.8677 35.1797 68.8758 35.1964 68.8804C35.2132 68.885 35.2307 68.8858 35.2478 68.883C35.2649 68.8801 35.2812 68.8736 35.2955 68.8639C35.3099 68.8541 35.3219 68.8414 35.3309 68.8265Z" fill="white"/>
<path d="M24.9902 18.5865C24.9902 18.5865 28.2402 14.5165 37.2602 15.8865C37.3242 15.9034 37.3808 15.9411 37.4212 15.9935C37.4615 16.046 37.4834 16.1103 37.4834 16.1765C37.4834 16.2427 37.4615 16.307 37.4212 16.3595C37.3808 16.4119 37.3242 16.4496 37.2602 16.4665C35.6246 16.8983 34.1204 17.726 32.8802 18.8765L30.6502 20.5065C30.2467 20.8032 29.7852 21.0117 29.2957 21.1184C28.8063 21.2251 28.2999 21.2275 27.8095 21.1257C27.319 21.0238 26.8555 20.8199 26.449 20.5271C26.0426 20.2344 25.7023 19.8594 25.4502 19.4265L24.9902 18.5865Z" fill="#7A4B34"/>
<path d="M36.2402 19.1165C36.5749 18.6674 37.0287 18.321 37.5502 18.1165C37.6176 18.1004 37.6762 18.0589 37.7138 18.0007C37.7515 17.9425 37.7653 17.872 37.7525 17.8039C37.7396 17.7358 37.7011 17.6752 37.6448 17.6348C37.5885 17.5943 37.5188 17.577 37.4501 17.5865C35.8614 17.6603 34.3097 18.091 32.9102 18.8465C33.0712 19.129 33.2987 19.3679 33.573 19.5426C33.8472 19.7173 34.1599 19.8225 34.4839 19.8491C34.808 19.8757 35.1337 19.8229 35.4327 19.6952C35.7318 19.5676 35.9952 19.369 36.2001 19.1165H36.2402Z" fill="#7A4B34"/>
<path d="M15.8709 38.3765C15.8709 38.3765 12.9709 20.2765 30.0109 19.6665C47.0509 19.0565 48.4909 26.6665 48.4909 38.6665C48.4909 38.6665 53.4009 36.0565 55.0209 40.8165C56.6409 45.5765 50.1109 47.8165 47.3209 47.8165C47.3209 47.8165 33.4509 62.7065 16.9709 47.5565C16.9709 47.5565 6.50092 47.6665 8.97092 39.9965C8.96092 40.0365 10.9209 35.4665 15.8709 38.3765Z" fill="url(#paint13_linear_3467_5326)"/>
<path d="M49.5801 40.7665C49.8249 40.541 50.128 40.3887 50.455 40.3269C50.782 40.265 51.1198 40.296 51.4301 40.4165C51.744 40.5623 52.0206 40.7776 52.2389 41.0462C52.4572 41.3147 52.6115 41.6295 52.6901 41.9665C52.8681 42.6373 52.7896 43.3504 52.4701 43.9665C52.3122 44.262 52.0901 44.5183 51.8201 44.7165C51.5465 44.8923 51.2341 44.9987 50.9101 45.0265C51.1769 44.9103 51.4168 44.7402 51.6147 44.5268C51.8127 44.3134 51.9643 44.0613 52.0601 43.7865C52.2453 43.2592 52.2731 42.6894 52.1401 42.1465C52.012 41.6137 51.6915 41.1471 51.2401 40.8365C50.9846 40.7066 50.7041 40.633 50.4177 40.621C50.1313 40.6089 49.8456 40.6585 49.5801 40.7665Z" fill="#ED987F"/>
<path d="M50.5702 43.6865C50.5434 43.4368 50.5726 43.1843 50.6556 42.9473C50.7386 42.7104 50.8734 42.4949 51.0502 42.3165C51.2223 42.1104 51.4645 41.9751 51.7302 41.9365C51.9923 41.8994 52.2584 41.9677 52.4702 42.1265V42.1765C52.2763 42.2913 52.076 42.3948 51.8702 42.4865C51.6902 42.5665 51.5102 42.5865 51.3302 42.6765C50.9797 42.9103 50.7299 43.2672 50.6302 43.6765L50.5702 43.6865Z" fill="#ED987F"/>
<path d="M14.0605 40.5865C13.8211 40.4741 13.5599 40.4158 13.2955 40.4158C13.031 40.4158 12.7698 40.4741 12.5305 40.5865C12.1255 40.8766 11.838 41.3024 11.7205 41.7865C11.5955 42.2818 11.6163 42.8027 11.7805 43.2865C11.8708 43.5368 12.0102 43.7666 12.1905 43.9623C12.3708 44.1581 12.5884 44.3159 12.8305 44.4265C12.5311 44.4149 12.2405 44.3215 11.9905 44.1565C11.7318 43.9778 11.5221 43.7371 11.3805 43.4565C11.0886 42.8966 11.0104 42.2497 11.1605 41.6365C11.2353 41.3228 11.3804 41.0302 11.5848 40.7807C11.7892 40.5313 12.0476 40.3315 12.3405 40.1965C12.6345 40.0909 12.9526 40.0715 13.2574 40.1406C13.5621 40.2097 13.8407 40.3644 14.0605 40.5865Z" fill="#ED987F"/>
<path d="M13.0307 43.1165C12.9035 42.7504 12.6378 42.4488 12.2907 42.2765C12.1264 42.2271 11.9595 42.187 11.7907 42.1565C11.5947 42.0836 11.4042 41.9967 11.2207 41.8965C11.4008 41.7245 11.6417 41.631 11.8907 41.6365C12.1405 41.6504 12.376 41.7574 12.5507 41.9365C12.7314 42.0849 12.8751 42.2733 12.9705 42.4867C13.0659 42.7002 13.1105 42.9329 13.1007 43.1665L13.0307 43.1165Z" fill="#ED987F"/>
<path d="M30.3906 43.0065C30.9153 43.4526 31.5578 43.7373 32.2406 43.8265C32.5583 43.8399 32.8743 43.7746 33.1606 43.6365C33.504 43.4833 33.838 43.3097 34.1606 43.1165C34.0806 43.2965 33.9706 43.4565 33.8706 43.6365C33.7425 43.7913 33.5984 43.9321 33.4406 44.0565C33.0992 44.3252 32.675 44.4666 32.2406 44.4565C31.822 44.4296 31.4213 44.2767 31.0912 44.0179C30.761 43.7591 30.5168 43.4066 30.3906 43.0065Z" fill="#ED987F"/>
<path opacity="0.2" d="M15.7417 38.3565C15.7417 38.3565 10.7417 23.5365 24.9517 19.4365C24.9517 19.4365 36.4817 19.5165 36.2017 19.9465C36.2017 19.9465 46.6717 19.4165 48.3917 30.4765C48.3917 30.4765 47.7117 41.3665 47.7317 41.2465C48.0617 39.3065 48.2417 32.6165 44.2317 29.4265C43.5499 30.0112 42.7311 30.4137 41.8517 30.5965C40.9084 30.7585 39.9382 30.6324 39.0676 30.2346C38.1971 29.8368 37.4667 29.1858 36.9717 28.3665C36.9717 28.3665 29.7417 30.9765 25.6917 24.4265C25.6917 24.4265 15.3817 26.8765 17.2017 41.7565C16.5646 40.6939 16.0736 39.5502 15.7417 38.3565Z" fill="#AB6338"/>
<path d="M15.3302 38.2165C15.3302 38.2165 10.7702 22.6865 24.9702 18.5865C27.5827 17.9149 30.3339 18.0156 32.8902 18.8765C32.8902 18.8765 36.5002 18.6665 36.2202 19.0965C36.2202 19.0965 46.6902 18.5665 48.4102 29.6265C48.4102 29.6265 49.4802 36.3365 49.0102 38.5265C49.0102 38.5265 48.5902 39.5265 47.7702 41.6365C47.7554 41.6728 47.7306 41.7043 47.6988 41.7272C47.667 41.7502 47.6294 41.7638 47.5902 41.7665H47.2502C47.2212 41.7668 47.1925 41.7608 47.1661 41.749C47.1396 41.7371 47.1161 41.7196 47.0971 41.6977C47.078 41.6759 47.064 41.6501 47.0559 41.6223C47.0478 41.5944 47.0459 41.5652 47.0502 41.5365C47.3902 39.5965 48.2602 31.7665 44.2502 28.5365C43.5684 29.1212 42.7496 29.5237 41.8702 29.7065C40.9269 29.8685 39.9567 29.7424 39.0861 29.3446C38.2156 28.9468 37.4852 28.2957 36.9902 27.4765C36.9902 27.4765 29.7602 30.0865 25.7102 23.5365C25.7102 23.5365 15.4702 26.6165 17.3002 41.5365C17.303 41.5649 17.2999 41.5935 17.2912 41.6207C17.2825 41.6479 17.2684 41.673 17.2497 41.6945C17.231 41.716 17.2081 41.7335 17.1824 41.7459C17.1567 41.7582 17.1287 41.7653 17.1002 41.7665H16.6402C16.5993 41.7657 16.5596 41.7529 16.5258 41.7298C16.4921 41.7067 16.4658 41.6743 16.4502 41.6365C16.3302 41.2665 15.8902 40.1165 15.3302 38.2165Z" fill="url(#paint14_linear_3467_5326)"/>
<path d="M29.0022 47.3765L35.6922 47.2365L35.8322 46.1065L33.7622 46.3965C32.8482 46.5648 31.9135 46.5884 30.9922 46.4665L28.7422 46.2365L29.0022 47.3765Z" fill="white"/>
<path d="M35.402 47.6765L35.662 47.2365L29.002 47.3765L29.442 47.9865C29.7906 48.466 30.2535 48.8508 30.7886 49.106C31.3237 49.3612 31.914 49.4787 32.506 49.4479C33.098 49.4171 33.673 49.239 34.1787 48.9296C34.6844 48.6203 35.1049 48.1895 35.402 47.6765Z" fill="url(#paint15_linear_3467_5326)"/>
<path d="M34.2505 48.9165C34.1405 48.4965 33.7005 48.1665 32.9405 48.1965C31.5705 48.2565 31.5705 49.1965 31.7005 49.3665C32.5769 49.5034 33.4739 49.3451 34.2505 48.9165Z" fill="#F59192"/>
<path d="M32.4514 49.4665C31.9825 49.5244 31.5067 49.4823 31.0551 49.3433C30.6036 49.2042 30.1866 48.9712 29.8315 48.6595C29.4764 48.3479 29.1913 47.9646 28.9948 47.535C28.7983 47.1053 28.6949 46.6389 28.6914 46.1665C30.0213 46.2844 31.3564 46.3345 32.6914 46.3165C33.7794 46.3104 34.8632 46.1796 35.9214 45.9265C35.9775 46.3988 35.927 46.8778 35.7735 47.328C35.6201 47.7782 35.3675 48.1882 35.0346 48.5279C34.7016 48.8676 34.2967 49.1283 33.8496 49.2907C33.4026 49.4532 32.9248 49.5132 32.4514 49.4665ZM28.7714 46.4665C28.8714 47.1265 29.4514 49.2165 32.4414 49.1465C32.9351 49.1732 33.4287 49.0923 33.8881 48.9092C34.3474 48.7262 34.7614 48.4455 35.1014 48.0865C35.5313 47.5647 35.7866 46.9211 35.8314 46.2465C34.7929 46.4985 33.7299 46.636 32.6614 46.6565C31.362 46.6649 30.0631 46.5981 28.7714 46.4565V46.4665Z" fill="#ED977E"/>
<path opacity="0.2" d="M21.6614 34.5665C22.8314 33.5665 26.6614 30.7465 28.1414 31.5665C28.2439 31.6258 28.3299 31.7098 28.3916 31.8109C28.4533 31.912 28.4888 32.0269 28.4948 32.1452C28.5007 32.2634 28.477 32.3814 28.4258 32.4881C28.3745 32.5949 28.2974 32.6871 28.2014 32.7565C27.7103 33.0805 27.1537 33.2922 26.5714 33.3765C24.9858 33.757 23.4563 34.3419 22.0214 35.1165C21.9502 35.1401 21.8732 35.1396 21.8023 35.1149C21.7315 35.0902 21.6708 35.0428 21.6297 34.98C21.5886 34.9172 21.5695 34.8427 21.5752 34.7679C21.5809 34.6931 21.6112 34.6223 21.6614 34.5665Z" fill="#AB6338"/>
<path d="M21.4113 34.3465C22.6313 33.2865 26.6213 30.2565 28.1313 31.1465C28.236 31.2137 28.3231 31.305 28.3853 31.4128C28.4475 31.5206 28.4831 31.6417 28.4889 31.766C28.4948 31.8903 28.4708 32.0142 28.4191 32.1274C28.3673 32.2405 28.2892 32.3397 28.1913 32.4165C27.6781 32.7571 27.0988 32.9855 26.4913 33.0865C24.8487 33.499 23.2683 34.1279 21.7913 34.9565C21.7106 35.0002 21.6164 35.0115 21.5277 34.988C21.4391 34.9646 21.3627 34.9082 21.3142 34.8303C21.2657 34.7525 21.2488 34.6591 21.2668 34.5692C21.2848 34.4792 21.3365 34.3996 21.4113 34.3465Z" fill="url(#paint16_linear_3467_5326)"/>
<path opacity="0.2" d="M42.27 34.5665C41.09 33.5665 37.27 30.7465 35.78 31.5665C35.6775 31.6258 35.5915 31.7098 35.5298 31.8109C35.4681 31.912 35.4326 32.0269 35.4267 32.1452C35.4207 32.2634 35.4444 32.3814 35.4957 32.4881C35.5469 32.5949 35.624 32.6871 35.72 32.7565C36.2112 33.0805 36.7677 33.2922 37.35 33.3765C38.9363 33.755 40.466 34.3399 41.9 35.1165C41.9719 35.1441 42.051 35.1466 42.1244 35.1234C42.1979 35.1002 42.2612 35.0528 42.3042 34.9889C42.3472 34.9251 42.3672 34.8485 42.361 34.7717C42.3548 34.695 42.3227 34.6226 42.27 34.5665Z" fill="#AB6338"/>
<path d="M42.451 34.3465C41.231 33.2865 37.251 30.2565 35.741 31.1465C35.6344 31.2122 35.5454 31.303 35.4817 31.4109C35.4181 31.5188 35.3818 31.6405 35.3759 31.7657C35.3699 31.8908 35.3946 32.0155 35.4478 32.1289C35.501 32.2423 35.581 32.341 35.681 32.4165C36.1759 32.7629 36.738 33.0014 37.331 33.1165C38.9765 33.5298 40.5602 34.1585 42.041 34.9865C42.1259 35.0409 42.2289 35.0593 42.3273 35.0377C42.4258 35.0162 42.5116 34.9564 42.566 34.8715C42.6204 34.7866 42.6388 34.6836 42.6172 34.5852C42.5957 34.4867 42.5359 34.4009 42.451 34.3465Z" fill="url(#paint17_linear_3467_5326)"/>
<path d="M26.8403 42.9165C28.9224 42.9165 30.6103 41.2286 30.6103 39.1465C30.6103 37.0644 28.9224 35.3765 26.8403 35.3765C24.7582 35.3765 23.0703 37.0644 23.0703 39.1465C23.0703 41.2286 24.7582 42.9165 26.8403 42.9165Z" fill="white"/>
<path d="M26.8412 42.6965C27.979 42.6965 28.9013 41.7742 28.9013 40.6365C28.9013 39.4988 27.979 38.5765 26.8412 38.5765C25.7035 38.5765 24.7812 39.4988 24.7812 40.6365C24.7812 41.7742 25.7035 42.6965 26.8412 42.6965Z" fill="url(#paint18_linear_3467_5326)"/>
<path d="M37.8911 42.9165C39.9732 42.9165 41.6611 41.2286 41.6611 39.1465C41.6611 37.0644 39.9732 35.3765 37.8911 35.3765C35.809 35.3765 34.1211 37.0644 34.1211 39.1465C34.1211 41.2286 35.809 42.9165 37.8911 42.9165Z" fill="white"/>
<path d="M37.7416 42.6965C38.8793 42.6965 39.8016 41.7742 39.8016 40.6365C39.8016 39.4988 38.8793 38.5765 37.7416 38.5765C36.6039 38.5765 35.6816 39.4988 35.6816 40.6365C35.6816 41.7742 36.6039 42.6965 37.7416 42.6965Z" fill="url(#paint19_linear_3467_5326)"/>
<path d="M41.7902 73.1565H21.4902C21.0318 73.1565 20.6602 73.5281 20.6602 73.9865V75.2965C20.6602 75.7549 21.0318 76.1265 21.4902 76.1265H41.7902C42.2486 76.1265 42.6201 75.7549 42.6201 75.2965V73.9865C42.6201 73.5281 42.2486 73.1565 41.7902 73.1565Z" fill="#939598"/>
<path d="M40.6508 75.2265H22.6508C22.1683 75.221 21.7033 75.0455 21.3374 74.7309C20.9716 74.4163 20.7285 73.9827 20.6508 73.5065L18.5208 59.2565C18.3108 57.8365 19.0808 56.6565 20.2608 56.6565H42.9608C44.1308 56.6565 44.9608 57.8365 44.6908 59.2565L42.5608 73.5065C42.4953 73.9719 42.268 74.3994 41.9187 74.7139C41.5694 75.0285 41.1205 75.2099 40.6508 75.2265Z" fill="url(#paint20_linear_3467_5326)"/>
<path d="M31.9409 67.0865C32.9405 67.0865 33.7509 66.2761 33.7509 65.2765C33.7509 64.2769 32.9405 63.4665 31.9409 63.4665C30.9412 63.4665 30.1309 64.2769 30.1309 65.2765C30.1309 66.2761 30.9412 67.0865 31.9409 67.0865Z" fill="#939598"/>
</g>
<mask id="mask3_3467_5326" style="mask-type:luminance" maskUnits="userSpaceOnUse" x="53" y="-4" width="72" height="82">
<path d="M124.251 -3.41351H53.8711V77.5165H124.251V-3.41351Z" fill="white"/>
</mask>
<g mask="url(#mask3_3467_5326)">
<path d="M99.1922 73.6765C97.9206 72.2534 96.8568 70.6576 96.0322 68.9365C95.4937 67.7476 94.8721 66.5981 94.1722 65.4965C93.3722 64.2865 93.3022 63.1565 92.7022 62.7265C92.0783 62.2877 91.5871 61.6857 91.2822 60.9865C90.7822 59.8165 91.0922 59.4365 92.2822 58.7365C92.9822 58.3265 93.3522 59.4865 94.1122 60.0865C94.5612 60.4665 94.9345 60.9279 95.2122 61.4465C96.1293 62.7967 96.7778 64.311 97.1222 65.9065C97.3111 66.5918 97.5552 67.2607 97.8522 67.9065C98.0222 68.2565 98.9322 69.7965 99.6722 71.0065C99.9365 71.4287 100.034 71.9343 99.9451 72.4244C99.8563 72.9145 99.5878 73.3539 99.1922 73.6565V73.6765Z" fill="url(#paint21_linear_3467_5326)"/>
<path d="M92.722 91.2565C88.282 87.5965 80.882 79.6465 80.722 67.3165C80.7169 67.1324 80.65 66.9554 80.5321 66.814C80.4142 66.6726 80.2521 66.575 80.072 66.5369C79.8918 66.4988 79.7041 66.5224 79.539 66.6039C79.374 66.6855 79.2411 66.8202 79.162 66.9865C76.772 72.3265 73.912 84.1665 85.522 98.4165C86.0576 99.0776 86.7499 99.5946 87.536 99.9203C88.3221 100.246 89.177 100.37 90.0233 100.282C90.8697 100.194 91.6805 99.8953 92.3822 99.4141C93.084 98.9329 93.6545 98.2841 94.042 97.5265C94.5699 96.4875 94.7268 95.2993 94.4868 94.1589C94.2467 93.0185 93.624 91.9944 92.722 91.2565Z" fill="url(#paint22_linear_3467_5326)"/>
<path d="M94.0814 65.6165L97.0814 64.3365C97.119 64.3204 97.1529 64.2968 97.181 64.2671C97.2091 64.2374 97.2309 64.2023 97.2449 64.1639C97.2589 64.1255 97.265 64.0846 97.2627 64.0438C97.2603 64.003 97.2497 63.9631 97.2314 63.9265L95.0514 59.6865C94.9297 59.429 94.7577 59.1984 94.5457 59.0082C94.3336 58.8181 94.0858 58.6722 93.8166 58.579C93.5475 58.4859 93.2624 58.4474 92.9782 58.4659C92.694 58.4843 92.4163 58.5593 92.1614 58.6865C91.9006 58.8371 91.6733 59.0395 91.4935 59.2811C91.3137 59.5228 91.1852 59.7987 91.1159 60.0918C91.0466 60.3849 91.038 60.6891 91.0905 60.9857C91.143 61.2823 91.2557 61.565 91.4214 61.8165L93.7214 65.4965C93.757 65.5564 93.8129 65.6015 93.8791 65.6235C93.9452 65.6456 94.017 65.6431 94.0814 65.6165Z" fill="url(#paint23_linear_3467_5326)"/>
<path d="M86.9322 50.4265C86.9322 50.4265 88.8222 55.9765 85.7022 58.5665C85.5577 59.9621 85.3138 61.3456 84.9722 62.7065C84.5022 64.6265 82.6622 73.0865 82.0522 74.2265C81.6122 75.0465 78.5422 78.0165 77.8022 79.1065C75.9609 81.8022 74.8136 84.9109 74.4622 88.1565C74.1027 90.8382 74.6405 93.5636 75.9916 95.9078C77.3428 98.252 79.4315 100.083 81.9322 101.116C84.5079 102.29 87.363 102.711 90.1677 102.33C92.9724 101.95 95.6123 100.784 97.7822 98.9665C99.639 97.4884 101.016 95.4928 101.738 93.2323C102.461 90.9717 102.497 88.5476 101.842 86.2665C100.467 81.8705 98.0125 77.8892 94.7022 74.6865C93.4524 72.6905 92.4707 70.5387 91.7822 68.2865C91.1722 65.6165 91.7822 58.7565 91.7822 58.7565C91.7822 58.7565 89.3722 56.5265 91.6322 50.3765C91.6322 50.3265 90.8222 46.2465 86.9322 50.4265Z" fill="url(#paint24_linear_3467_5326)"/>
<path d="M77.3318 73.4765C78.6033 72.0534 79.6672 70.4576 80.4918 68.7365C81.0324 67.5487 81.6539 66.3993 82.3518 65.2965C83.1418 64.0965 83.2218 62.9565 83.8118 62.5365C84.4419 62.0975 84.9371 61.4914 85.2418 60.7865C85.7418 59.6165 85.4318 59.2465 84.2418 58.5365C83.5418 58.1265 83.1718 59.2865 82.4118 59.8865C81.96 60.2639 81.5864 60.7259 81.3118 61.2465C80.3922 62.5966 79.7404 64.1106 79.3918 65.7065C79.2123 66.3934 78.9713 67.0628 78.6718 67.7065C78.5018 68.0565 77.5918 69.6065 76.8518 70.8065C76.5874 71.2287 76.4901 71.7343 76.5789 72.2244C76.6677 72.7145 76.9361 73.1539 77.3318 73.4565V73.4765Z" fill="url(#paint25_linear_3467_5326)"/>
<path d="M82.7013 65.4565L79.7013 64.1765C79.6637 64.1604 79.6298 64.1368 79.6017 64.1071C79.5736 64.0774 79.5518 64.0423 79.5378 64.0039C79.5237 63.9655 79.5177 63.9246 79.52 63.8838C79.5223 63.843 79.533 63.8031 79.5513 63.7665L81.7313 59.5265C81.8551 59.2709 82.0282 59.0422 82.2405 58.8535C82.4529 58.6648 82.7004 58.5199 82.9688 58.427C83.2373 58.3341 83.5214 58.2951 83.805 58.3122C84.0885 58.3293 84.3659 58.4021 84.6213 58.5265C84.8835 58.6771 85.1121 58.8799 85.2928 59.1223C85.4735 59.3648 85.6025 59.6418 85.6719 59.9361C85.7413 60.2305 85.7495 60.5359 85.696 60.8335C85.6426 61.1312 85.5287 61.4147 85.3613 61.6665L83.0613 65.3465C83.0228 65.4032 82.9661 65.445 82.9007 65.465C82.8352 65.485 82.7648 65.482 82.7013 65.4565Z" fill="url(#paint26_linear_3467_5326)"/>
<path d="M81.0815 74.9865C81.0815 74.9865 76.2115 80.6165 75.8215 85.3065C75.4776 88.1488 75.8988 91.0314 77.0415 93.6565C77.055 93.7218 77.0814 93.7838 77.1192 93.8387C77.157 93.8937 77.2054 93.9405 77.2615 93.9765C79.1015 94.7965 90.0616 102.976 100.592 92.7265C100.801 92.4839 100.921 92.1768 100.932 91.8565C101.091 88.6773 100.622 85.4978 99.5512 82.5001C98.4805 79.5024 96.8291 76.7452 94.6915 74.3865L81.0815 74.9865Z" fill="url(#paint27_linear_3467_5326)"/>
<path d="M84.6908 58.7765C84.6129 62.569 84.1573 66.3443 83.3308 70.0465C82.0908 74.7165 81.0508 74.9865 81.0508 74.9865C81.0508 74.9865 87.6808 79.7265 94.0508 74.5365C94.0908 74.5024 94.1208 74.458 94.1376 74.4081C94.1543 74.3583 94.1572 74.3048 94.1459 74.2534C94.1346 74.2021 94.1095 74.1548 94.0734 74.1165C94.0373 74.0783 93.9914 74.0507 93.9408 74.0365C92.7708 73.7265 90.6308 71.4665 91.7408 58.7065L88.9908 57.7065H88.7108L84.6908 58.7765Z" fill="url(#paint28_linear_3467_5326)"/>
<path d="M84.912 58.5665C84.8567 58.5707 84.8046 58.594 84.7645 58.6322C84.7244 58.6705 84.6988 58.7215 84.692 58.7765C84.5619 61.2112 84.3083 63.6376 83.932 66.0465C83.762 66.8465 82.722 72.7165 81.082 74.9865C83.0737 76.4668 85.5146 77.2153 87.9937 77.106C90.4727 76.9967 92.8384 76.0363 94.692 74.3865C93.2562 71.604 92.5086 68.5177 92.512 65.3865C92.622 61.4765 92.732 59.3865 92.772 58.7665C92.7734 58.7355 92.7684 58.7045 92.7575 58.6754C92.7465 58.6463 92.7298 58.6198 92.7083 58.5974C92.6868 58.575 92.661 58.5571 92.6324 58.5449C92.6038 58.5327 92.5731 58.5265 92.542 58.5265H91.822C91.7971 58.5252 91.7721 58.5288 91.7485 58.5371C91.725 58.5454 91.7033 58.5583 91.6847 58.575C91.6661 58.5917 91.651 58.612 91.6403 58.6345C91.6295 58.6571 91.6233 58.6816 91.622 58.7065C91.622 58.8965 91.572 59.3965 91.512 59.7965C91.392 60.4612 91.0414 61.0622 90.522 61.4939C90.0025 61.9256 89.3474 62.1602 88.672 62.1565C87.956 62.1591 87.2652 61.892 86.7371 61.4084C86.209 60.9247 85.8823 60.26 85.822 59.5465C85.822 59.3065 85.822 59.0565 85.822 58.8065C85.8235 58.7799 85.8193 58.7532 85.8098 58.7283C85.8002 58.7034 85.7855 58.6808 85.7667 58.6619C85.7478 58.643 85.7252 58.6283 85.7003 58.6188C85.6753 58.6093 85.6487 58.6051 85.622 58.6065L84.912 58.5665Z" fill="url(#paint29_linear_3467_5326)"/>
<path d="M81.082 74.9865C82.162 75.5661 83.2978 76.0351 84.472 76.3865C85.641 76.7388 86.8516 76.9338 88.072 76.9665C89.2875 76.991 90.4963 76.7805 91.632 76.3465L92.472 75.9865L93.242 75.5065C93.512 75.3599 93.7637 75.182 93.992 74.9765L94.692 74.3865C93.8581 75.3104 92.8349 76.0437 91.692 76.5365C90.5397 77.0164 89.3001 77.2514 88.052 77.2265C85.5694 77.1209 83.1613 76.3471 81.082 74.9865Z" fill="#F89A31"/>
<path d="M87.1514 56.3865L88.6914 57.7165L87.6914 59.0965C87.6567 59.1403 87.6087 59.1718 87.5547 59.1862C87.5006 59.2006 87.4434 59.1972 87.3914 59.1765L85.7314 58.5865C85.7164 58.5792 85.7031 58.5688 85.6924 58.5561C85.6816 58.5434 85.6736 58.5285 85.6689 58.5125C85.6642 58.4965 85.6629 58.4797 85.6651 58.4632C85.6672 58.4467 85.6728 58.4307 85.6814 58.4165L87.1514 56.3865Z" fill="#405B3F"/>
<path d="M90.7914 56.3865L88.6914 57.7165L89.6314 59.1165C89.6464 59.1487 89.6677 59.1777 89.694 59.2017C89.7202 59.2257 89.7509 59.2442 89.7844 59.2563C89.8178 59.2684 89.8534 59.2737 89.8889 59.272C89.9244 59.2703 89.9593 59.2617 89.9914 59.2465L91.7014 58.6765C91.7176 58.6691 91.732 58.6584 91.7439 58.6451C91.7558 58.6319 91.7648 58.6164 91.7704 58.5995C91.776 58.5826 91.7782 58.5648 91.7766 58.5471C91.7751 58.5293 91.7699 58.5121 91.7614 58.4965L90.7914 56.3865Z" fill="#405B3F"/>
<path d="M100.032 19.9565C100.032 19.9565 108.562 18.3265 109.462 6.77651C109.47 6.67095 109.456 6.56473 109.421 6.46505C109.385 6.36536 109.328 6.27453 109.254 6.19869C109.18 6.12285 109.091 6.06376 108.992 6.02542C108.893 5.98709 108.787 5.97042 108.682 5.9765C105.815 6.10019 103.055 7.10179 100.777 8.84571C98.4979 10.5896 96.8101 12.9916 95.9417 15.7265C95.9417 15.7265 94.2417 21.3265 100.032 19.9565Z" fill="url(#paint30_linear_3467_5326)"/>
<path d="M107.772 8.79648C107.772 8.79648 104.152 8.31648 101.432 13.8765C100.838 15.0978 100.103 16.2455 99.2423 17.2965C98.4923 18.2065 97.6723 19.0265 97.2423 18.9765C97.2123 18.9765 105.942 18.6565 107.772 8.79648Z" fill="url(#paint31_linear_3467_5326)"/>
<path d="M79.3308 20.4365C79.3308 20.4365 70.7908 18.8465 69.8208 7.30649C69.8122 7.20049 69.8262 7.09389 69.862 6.99373C69.8977 6.89357 69.9544 6.80216 70.0281 6.72556C70.1019 6.64896 70.1911 6.58892 70.2898 6.54942C70.3886 6.50993 70.4946 6.49189 70.6008 6.49649C73.4694 6.6031 76.2359 7.58893 78.5255 9.32042C80.815 11.0519 82.517 13.4453 83.4008 16.1765C83.4008 16.1765 85.1108 21.7665 79.3308 20.4365Z" fill="url(#paint32_linear_3467_5326)"/>
<path d="M71.5117 9.31646C71.5117 9.31646 75.1317 8.81647 77.8817 14.3665C78.488 15.5825 79.2293 16.7264 80.0917 17.7765C80.8417 18.6665 81.6717 19.4865 82.0917 19.4365C82.1317 19.4365 73.4017 19.1665 71.5117 9.31646Z" fill="url(#paint33_linear_3467_5326)"/>
<path d="M76.5015 28.4565C76.5015 28.4565 78.1715 13.5965 90.7115 14.4565C103.251 15.3165 101.841 29.0065 101.841 29.0065C101.841 29.0065 116.211 42.6965 97.0015 49.0065L89.8415 51.8365C89.4298 51.9962 88.9732 51.9962 88.5615 51.8365L81.1115 48.9665C78.7978 48.083 76.6684 46.7776 74.8315 45.1165C71.0215 41.6265 67.4615 35.5465 76.5015 28.4565Z" fill="url(#paint34_linear_3467_5326)"/>
<path d="M89.0019 48.3865C92.4979 48.3865 95.3319 45.5525 95.3319 42.0565C95.3319 38.5606 92.4979 35.7265 89.0019 35.7265C85.5059 35.7265 82.6719 38.5606 82.6719 42.0565C82.6719 45.5525 85.5059 48.3865 89.0019 48.3865Z" fill="url(#paint35_radial_3467_5326)"/>
<mask id="mask4_3467_5326" style="mask-type:luminance" maskUnits="userSpaceOnUse" x="85" y="41" width="8" height="4">
<path d="M85.7626 41.1865C85.7113 41.1816 85.6596 41.1891 85.6118 41.2085C85.5641 41.2279 85.5217 41.2585 85.4883 41.2978C85.4549 41.3371 85.4315 41.3838 85.4201 41.4341C85.4087 41.4844 85.4095 41.5367 85.4226 41.5865C85.6726 42.5065 86.4826 44.0765 89.1426 44.0965C89.6684 44.1387 90.1971 44.0666 90.6925 43.8854C91.1878 43.7042 91.6382 43.418 92.0126 43.0465C92.3755 42.6318 92.6298 42.1336 92.7527 41.5965C92.7675 41.5452 92.7689 41.491 92.7566 41.439C92.7444 41.3871 92.7189 41.3392 92.6827 41.2999C92.6465 41.2607 92.6007 41.2315 92.5499 41.2151C92.4991 41.1987 92.4449 41.1958 92.3926 41.2065C91.4253 41.3757 90.4446 41.456 89.4627 41.4465C88.2255 41.4278 86.9903 41.341 85.7626 41.1865Z" fill="white"/>
</mask>
<g mask="url(#mask4_3467_5326)">
<path d="M85.5427 42.1165L92.6627 42.1665L92.8427 40.9765L90.6327 41.2265C89.6585 41.3765 88.667 41.3765 87.6927 41.2265L85.3027 40.9065L85.5427 42.1165Z" fill="white"/>
<path d="M92.3332 42.6365L92.6132 42.1665L85.5332 42.1165L85.9832 42.7765C86.339 43.2974 86.8193 43.7212 87.3803 44.0095C87.9414 44.2978 88.5655 44.4415 89.1961 44.4276C89.8268 44.4137 90.444 44.2426 90.9918 43.9299C91.5396 43.6171 92.0007 43.1725 92.3332 42.6365Z" fill="url(#paint36_linear_3467_5326)"/>
<path d="M91.0829 43.9165C90.9729 43.4665 90.5129 43.1065 89.7129 43.1165C88.2429 43.1165 88.2229 44.1665 88.3529 44.3165C89.2822 44.4852 90.2411 44.3447 91.0829 43.9165Z" fill="url(#paint37_linear_3467_5326)"/>
</g>
<path d="M87.4019 35.1165L91.1819 35.2165C91.4441 35.2283 91.6977 35.3135 91.9138 35.4624C92.1299 35.6114 92.2997 35.8181 92.404 36.0589C92.5083 36.2998 92.5427 36.5651 92.5035 36.8246C92.4642 37.0841 92.3528 37.3273 92.1819 37.5265L90.2819 39.7965C90.1497 39.9577 89.9833 40.0876 89.7948 40.1767C89.6063 40.2659 89.4004 40.3121 89.1919 40.3121C88.9834 40.3121 88.7775 40.2659 88.589 40.1767C88.4005 40.0876 88.2342 39.9577 88.1019 39.7965L86.2219 37.4265C86.0449 37.2143 85.9341 36.9548 85.9033 36.6801C85.8725 36.4055 85.9231 36.1278 86.0489 35.8817C86.1746 35.6356 86.3699 35.4319 86.6104 35.2958C86.851 35.1598 87.1262 35.0974 87.4019 35.1165Z" fill="url(#paint38_radial_3467_5326)"/>
<path d="M84.7311 34.0465C87.2771 34.0465 89.3411 31.9825 89.3411 29.4365C89.3411 26.8905 87.2771 24.8265 84.7311 24.8265C82.185 24.8265 80.1211 26.8905 80.1211 29.4365C80.1211 31.9825 82.185 34.0465 84.7311 34.0465Z" fill="url(#paint39_linear_3467_5326)"/>
<path d="M84.5908 33.9865C86.6839 33.9865 88.3808 32.2896 88.3808 30.1965C88.3808 28.1033 86.6839 26.4065 84.5908 26.4065C82.4976 26.4065 80.8008 28.1033 80.8008 30.1965C80.8008 32.2896 82.4976 33.9865 84.5908 33.9865Z" fill="white"/>
<path d="M85.581 32.4365C86.7077 32.4365 87.621 31.5232 87.621 30.3965C87.621 29.2699 86.7077 28.3565 85.581 28.3565C84.4544 28.3565 83.541 29.2699 83.541 30.3965C83.541 31.5232 84.4544 32.4365 85.581 32.4365Z" fill="url(#paint40_linear_3467_5326)"/>
<path d="M86.7613 29.7965C86.6947 29.5999 86.5757 29.4252 86.4171 29.2913C86.2585 29.1573 86.0663 29.0693 85.8613 29.0365" stroke="white" stroke-width="0.34" stroke-miterlimit="10" stroke-linecap="round"/>
<path d="M93.8619 34.3765C96.408 34.3765 98.472 32.3125 98.472 29.7665C98.472 27.2204 96.408 25.1565 93.8619 25.1565C91.3159 25.1565 89.252 27.2204 89.252 29.7665C89.252 32.3125 91.3159 34.3765 93.8619 34.3765Z" fill="url(#paint41_linear_3467_5326)"/>
<path d="M93.831 34.3765C95.9242 34.3765 97.621 32.6797 97.621 30.5865C97.621 28.4934 95.9242 26.7965 93.831 26.7965C91.7379 26.7965 90.041 28.4934 90.041 30.5865C90.041 32.6797 91.7379 34.3765 93.831 34.3765Z" fill="white"/>
<path d="M92.8017 32.4365C93.9284 32.4365 94.8417 31.5232 94.8417 30.3965C94.8417 29.2699 93.9284 28.3565 92.8017 28.3565C91.6751 28.3565 90.7617 29.2699 90.7617 30.3965C90.7617 31.5232 91.6751 32.4365 92.8017 32.4365Z" fill="url(#paint42_linear_3467_5326)"/>
<path d="M93.9723 29.7965C93.9077 29.5987 93.7892 29.4229 93.6302 29.2886C93.4713 29.1544 93.2781 29.0671 93.0723 29.0365" stroke="white" stroke-width="0.34" stroke-miterlimit="10" stroke-linecap="round"/>
<g style="mix-blend-mode:multiply" opacity="0.1">
<path d="M82.1621 23.3565C83.8681 22.8386 85.6984 22.9055 87.3621 23.5465C87.4633 23.5888 87.5502 23.6595 87.6123 23.7499C87.6744 23.8404 87.709 23.9469 87.7121 24.0565C87.7165 24.1508 87.6974 24.2447 87.6565 24.3298C87.6157 24.4149 87.5543 24.4885 87.478 24.544C87.4016 24.5995 87.3127 24.6352 87.2192 24.6478C87.1256 24.6605 87.0304 24.6498 86.9421 24.6165C85.5159 24.1113 83.9636 24.0867 82.5221 24.5465C82.4354 24.5744 82.3433 24.5818 82.2533 24.5681C82.1632 24.5545 82.0775 24.5202 82.0029 24.4679C81.9283 24.4155 81.8669 24.3467 81.8234 24.2666C81.7798 24.1866 81.7555 24.0976 81.7521 24.0066V23.9165C81.7493 23.7911 81.7879 23.6682 81.862 23.5669C81.9362 23.4657 82.0416 23.3917 82.1621 23.3565Z" fill="#231F20"/>
</g>
<path d="M82.1619 23.1165C82.6219 22.8565 84.3319 21.4665 87.3619 23.2965C87.4588 23.3474 87.5415 23.4215 87.6026 23.5123C87.6637 23.6031 87.7013 23.7076 87.7119 23.8165C87.7139 23.91 87.6932 24.0026 87.6516 24.0864C87.61 24.1701 87.5488 24.2426 87.4732 24.2976C87.3976 24.3526 87.3098 24.3885 87.2173 24.4023C87.1247 24.416 87.0303 24.4072 86.9419 24.3765C85.517 23.8673 83.9644 23.8392 82.5219 24.2965C82.4352 24.3244 82.3432 24.3318 82.2531 24.3181C82.163 24.3045 82.0774 24.2701 82.0028 24.2178C81.9282 24.1655 81.8667 24.0966 81.8232 24.0166C81.7797 23.9366 81.7553 23.8476 81.752 23.7565V23.6665C81.7633 23.546 81.8076 23.4311 81.8799 23.3341C81.9522 23.2371 82.0497 23.1618 82.1619 23.1165Z" fill="url(#paint43_linear_3467_5326)"/>
<g style="mix-blend-mode:multiply" opacity="0.1">
<path d="M91.6721 23.4365C93.4072 23.0306 95.2284 23.2208 96.8421 23.9765C96.9417 24.0236 97.0251 24.099 97.082 24.1933C97.139 24.2875 97.1668 24.3965 97.1621 24.5065C97.1602 24.6004 97.1352 24.6923 97.0892 24.7742C97.0433 24.856 96.9778 24.9252 96.8987 24.9757C96.8195 25.0261 96.7291 25.0563 96.6355 25.0634C96.5419 25.0705 96.448 25.0544 96.3621 25.0165C94.9679 24.4173 93.4166 24.2875 91.9421 24.6465C91.8542 24.6708 91.7618 24.6735 91.6726 24.6546C91.5833 24.6357 91.5 24.5957 91.4294 24.5379C91.3589 24.4801 91.3032 24.4062 91.2672 24.3225C91.2311 24.2387 91.2157 24.1475 91.2221 24.0565V23.9665C91.2328 23.8424 91.2819 23.7247 91.3625 23.6297C91.4432 23.5347 91.5514 23.4672 91.6721 23.4365Z" fill="#231F20"/>
</g>
<path d="M91.6819 23.2365C92.4845 22.7462 93.4257 22.5326 94.3613 22.6283C95.2969 22.724 96.1753 23.1238 96.8619 23.7665C96.9502 23.8281 97.0238 23.9084 97.0774 24.0018C97.131 24.0952 97.1632 24.1992 97.1719 24.3065C97.1677 24.3994 97.1412 24.49 97.0946 24.5705C97.048 24.651 96.9827 24.7192 96.9043 24.7692C96.8259 24.8192 96.7366 24.8496 96.6439 24.8578C96.5512 24.8661 96.458 24.8519 96.3719 24.8165C94.9798 24.2097 93.4271 24.0762 91.9519 24.4365C91.864 24.4608 91.7715 24.4635 91.6823 24.4446C91.5931 24.4257 91.5097 24.3857 91.4392 24.3279C91.3686 24.2701 91.313 24.1962 91.277 24.1124C91.2409 24.0287 91.2254 23.9375 91.2319 23.8465V23.7565C91.2485 23.6356 91.2998 23.522 91.3797 23.4297C91.4596 23.3374 91.5646 23.2703 91.6819 23.2365Z" fill="url(#paint44_linear_3467_5326)"/>
<path d="M85.121 68.2265C84.0043 68.6654 82.8493 69.0002 81.671 69.2265C80.331 69.5365 79.491 69.9665 78.811 70.1365C75.681 70.9265 76.941 72.9165 77.891 72.9965C78.4936 73.042 79.0995 72.981 79.681 72.8165C81.2836 72.4979 82.8109 71.8768 84.181 70.9865C84.8014 70.6245 85.4502 70.3135 86.121 70.0565C86.741 69.8365 87.621 67.1165 85.121 68.2265Z" fill="url(#paint45_linear_3467_5326)"/>
<path d="M86.3319 66.5665C87.0043 66.3204 87.6402 65.9839 88.2219 65.5665C88.7119 65.0865 89.1319 65.5665 88.9519 65.9365C88.6099 66.5402 88.0692 67.0067 87.4219 67.2565L87.4919 67.3865C88.2194 67.264 88.9328 67.0697 89.6219 66.8065C90.5219 66.4265 90.6819 66.6165 90.6819 66.6165C90.6819 66.6165 91.0119 66.8365 90.6819 67.2565C90.073 67.6645 89.3955 67.9592 88.6819 68.1265C89.4779 68.0403 90.2689 67.9134 91.0519 67.7465C91.8919 67.5365 91.9719 68.4765 91.3419 68.6665C90.4703 68.8621 89.5891 69.0123 88.7019 69.1165C88.7019 69.1165 90.1819 68.9965 91.0019 68.8865C91.0982 68.8724 91.1965 68.89 91.2819 68.9365C91.4019 69.0065 91.5219 69.1465 91.3519 69.4665C91.0619 69.9965 88.5219 69.9665 88.5219 69.9665C88.9883 69.9687 89.4523 70.0326 89.9019 70.1565C89.9019 70.1565 90.3519 70.2665 90.1919 70.6165C90.1434 70.7003 90.0771 70.7724 89.9976 70.8277C89.9181 70.883 89.8274 70.9202 89.7319 70.9365C89.1612 70.9968 88.5846 70.9698 88.0219 70.8565C88.0219 70.8565 84.6819 71.2565 84.6719 68.9365C84.6619 66.6165 86.3319 66.5665 86.3319 66.5665Z" fill="url(#paint46_linear_3467_5326)"/>
<path d="M92.0611 68.9665C93.1777 69.4057 94.3326 69.7404 95.511 69.9665C96.851 70.2865 97.6811 70.7065 98.3711 70.8865C101.501 71.6765 100.241 73.6665 99.291 73.7465C98.6878 73.794 98.0809 73.7296 97.5011 73.5565C95.8939 73.248 94.3622 72.6299 92.9911 71.7365C92.3772 71.3687 91.7312 71.0574 91.0611 70.8065C90.4411 70.5765 89.5611 67.8165 92.0611 68.9665Z" fill="url(#paint47_linear_3467_5326)"/>
<path d="M90.882 67.1165C90.2096 66.8703 89.5738 66.5339 88.992 66.1165C88.502 65.6365 88.082 66.1165 88.262 66.4865C88.6015 67.0884 89.1385 67.5547 89.782 67.8065L89.722 67.9365C88.9946 67.814 88.2811 67.6197 87.592 67.3565C86.692 66.9765 86.532 67.1665 86.532 67.1665C86.532 67.1665 86.202 67.3865 86.532 67.8065C87.1409 68.2145 87.8184 68.5092 88.532 68.6765C87.7361 68.5903 86.945 68.4634 86.162 68.2965C85.322 68.0865 85.242 69.0165 85.872 69.2165C86.7435 69.413 87.6247 69.5631 88.512 69.6665C88.512 69.6665 87.032 69.5465 86.212 69.4365C86.1211 69.4067 86.023 69.4067 85.932 69.4365C85.802 69.5065 85.692 69.6465 85.862 69.9665C86.152 70.4965 88.692 70.4665 88.692 70.4665C88.2256 70.4687 87.7616 70.5326 87.312 70.6565C87.312 70.6565 86.862 70.7665 87.022 71.1165C87.0705 71.2003 87.1369 71.2724 87.2164 71.3277C87.2959 71.383 87.3866 71.4202 87.482 71.4365C88.0528 71.4968 88.6294 71.4698 89.192 71.3565C89.192 71.3565 92.532 71.7565 92.542 69.4365C92.552 67.1165 90.882 67.1165 90.882 67.1165Z" fill="url(#paint48_linear_3467_5326)"/>
<path d="M98.2609 74.8665H79.7209C79.3012 74.8665 78.9609 75.2068 78.9609 75.6265V76.8265C78.9609 77.2462 79.3012 77.5865 79.7209 77.5865H98.2609C98.6807 77.5865 99.0209 77.2462 99.0209 76.8265V75.6265C99.0209 75.2068 98.6807 74.8665 98.2609 74.8665Z" fill="#939598"/>
<path d="M97.2307 76.7665H80.7708C80.3367 76.7508 79.9217 76.5846 79.5969 76.2963C79.2721 76.008 79.0578 75.6156 78.9908 75.1865L76.9908 62.1865C76.7908 60.8865 77.5007 59.8065 78.5807 59.8065H99.3307C100.401 59.8065 101.111 60.8865 100.911 62.1865L98.9708 75.1865C98.9034 75.6084 98.6944 75.9948 98.3781 76.282C98.0618 76.5691 97.6571 76.74 97.2307 76.7665Z" fill="url(#paint49_linear_3467_5326)"/>
<path d="M89.2713 69.3265C90.1881 69.3265 90.9313 68.5833 90.9313 67.6665C90.9313 66.7497 90.1881 66.0065 89.2713 66.0065C88.3545 66.0065 87.6113 66.7497 87.6113 67.6665C87.6113 68.5833 88.3545 69.3265 89.2713 69.3265Z" fill="#939598"/>
</g>
<path d="M72.6106 72.2065C72.6106 72.2065 77.2006 63.2065 83.0406 65.0765C88.8806 66.9465 88.6706 72.7065 84.8706 77.2065C84.8706 77.2065 92.7206 80.5065 90.2306 87.4665C89.8589 88.62 89.0663 89.5912 88.0106 90.1865C86.5706 90.9665 84.1106 91.5065 80.5406 89.6865C80.5406 89.6865 83.3506 95.4365 75.0006 97.2565C66.6506 99.0765 62.3906 75.8565 62.3906 75.8565L72.6106 72.2065Z" fill="url(#paint50_linear_3467_5326)"/>
<path d="M49.3299 74.2365C49.3299 74.2365 48.8899 64.0565 42.8499 63.1165C36.8099 62.1765 34.6199 67.4765 36.1999 73.2465C36.1999 73.2465 29.6399 72.6965 29.0199 80.0965C28.8877 81.3181 29.2001 82.5465 29.8999 83.5565C30.8999 84.9065 32.8999 86.4965 36.8999 86.4565C36.8999 86.4565 31.9599 90.4565 38.7799 95.7865C48.1199 103.137 66.5499 79.5165 66.5499 79.5165L49.3299 74.2365Z" fill="url(#paint51_linear_3467_5326)"/>
<path d="M54.0207 89.7565C54.0207 89.7565 38.8007 92.2865 40.6407 108.257C41.2007 113.117 61.5807 107.777 54.0207 89.7565Z" fill="url(#paint52_linear_3467_5326)"/>
<path d="M89.6805 90.8265C90.1121 90.3414 90.4329 89.7681 90.6205 89.1465C90.7405 88.3865 91.4405 88.6565 91.5205 89.1465C91.5943 89.4556 91.5966 89.7775 91.5273 90.0877C91.458 90.3979 91.3189 90.6882 91.1205 90.9365L91.2705 91.0365C91.8543 90.6313 92.3592 90.123 92.7605 89.5365C93.3305 88.6465 93.8105 88.8465 93.8105 88.8465C93.9079 88.8959 93.9845 88.9784 94.0266 89.0792C94.0688 89.18 94.0737 89.2924 94.0405 89.3965C93.7578 90.0454 93.3654 90.6408 92.8805 91.1565C93.6467 90.8968 94.3561 90.4929 94.9705 89.9665C95.5905 89.2865 96.0505 89.9665 95.6105 90.4865C94.9939 91.0945 94.3246 91.6467 93.6105 92.1365C94.314 91.8092 94.9838 91.414 95.6105 90.9565C95.6909 90.8944 95.7889 90.8593 95.8905 90.8565C96.0505 90.8565 96.3305 90.8565 96.2205 91.2965C96.0505 91.9965 94.0505 93.1165 94.0505 93.1165C94.0505 93.1165 94.2205 93.4465 95.5505 92.9865C95.5505 92.9865 96.2605 92.7165 96.0405 93.3765C95.8195 93.6605 95.5378 93.8915 95.2159 94.0524C94.8941 94.2134 94.5403 94.3002 94.1805 94.3065C94.1805 94.3065 91.4205 96.5565 89.8605 94.1665C88.3005 91.7765 89.6805 90.8265 89.6805 90.8265Z" fill="url(#paint53_linear_3467_5326)"/>
<path d="M91.1211 90.9165C91.2527 91.0473 91.3568 91.2032 91.4272 91.375C91.4977 91.5468 91.533 91.7309 91.5311 91.9165C91.5147 92.0967 91.4778 92.2746 91.4211 92.4465C91.3675 92.6153 91.2864 92.7741 91.1811 92.9165C91.2987 92.5961 91.3596 92.2577 91.3611 91.9165C91.3849 91.5665 91.3012 91.2175 91.1211 90.9165Z" fill="#ED987F"/>
<path d="M92.5 90.9265C92.8978 91.2129 93.2372 91.5727 93.5 91.9865C93.7652 92.4144 93.891 92.914 93.86 93.4165C93.7936 92.9385 93.6229 92.4811 93.36 92.0765C93.1195 91.6607 92.8309 91.2747 92.5 90.9265Z" fill="#ED987F"/>
<path d="M68.0006 89.7765V89.7265C68.0006 89.7265 82.7905 90.4365 81.6505 107.656C81.3305 112.536 60.4306 107.796 68.0006 89.7765Z" fill="url(#paint54_linear_3467_5326)"/>
<path d="M88.6293 92.8265L89.1593 92.7065C89.2881 92.6794 89.4217 92.6854 89.5476 92.7239C89.6735 92.7623 89.7876 92.832 89.8793 92.9265L91.1693 94.2865C91.2797 94.4056 91.3514 94.5554 91.3746 94.7162C91.3978 94.877 91.3715 95.041 91.2993 95.1865L91.0393 95.7365C91.0171 95.7895 90.9766 95.8327 90.9253 95.8584C90.8739 95.8841 90.815 95.8905 90.7593 95.8765L88.7593 95.3965C88.7093 95.3829 88.6645 95.3547 88.6307 95.3155C88.5968 95.2763 88.5754 95.2279 88.5693 95.1765L88.4293 93.1165C88.4224 93.0522 88.4388 92.9876 88.4755 92.9344C88.5122 92.8812 88.5667 92.8429 88.6293 92.8265Z" fill="url(#paint55_linear_3467_5326)"/>
<path d="M78.5407 96.9865C81.3407 95.2365 86.0907 92.5965 89.0107 92.7565L91.3307 95.1165C91.3307 95.1165 91.7807 103.836 84.1907 107.846C78.6707 110.756 74.7307 108.166 74.7207 103.706C74.7379 102.355 75.0972 101.03 75.7652 99.8545C76.4332 98.6793 77.3881 97.6926 78.5407 96.9865Z" fill="url(#paint56_linear_3467_5326)"/>
<path d="M55.4606 89.5865L54.6205 89.7765C54.1792 89.873 53.7822 90.1126 53.491 90.4579C53.1999 90.8033 53.031 91.2352 53.0105 91.6865L52.5605 104.836L67.8306 104.396L68.6206 89.8065L55.4606 89.5865Z" fill="url(#paint57_linear_3467_5326)"/>
<path d="M55.4102 85.7365V89.3865C55.4102 89.3865 56.7801 93.0465 60.0901 93.2465C61.3236 93.3333 62.5548 93.048 63.6244 92.4276C64.694 91.8072 65.553 90.8802 66.0901 89.7665L66.2502 85.8865L55.4102 85.7365Z" fill="url(#paint58_linear_3467_5326)"/>
<path d="M53.16 89.8265L55.16 89.4465C55.39 89.4465 55.41 89.4465 55.52 89.6865V97.1265C55.5172 97.2074 55.531 97.2879 55.5607 97.3632C55.5904 97.4385 55.6352 97.5068 55.6924 97.564C55.7496 97.6212 55.818 97.6661 55.8933 97.6957C55.9685 97.7254 56.0491 97.7393 56.13 97.7365L65.13 97.6065C65.2804 97.6093 65.4261 97.5535 65.5362 97.4508C65.6463 97.3482 65.7122 97.2068 65.72 97.0565L66.08 89.8465C66.0825 89.7952 66.1047 89.7469 66.1419 89.7115C66.1792 89.6761 66.2286 89.6564 66.2799 89.6565L68.47 89.7465C68.4979 89.7451 68.5259 89.7495 68.552 89.7596C68.5781 89.7696 68.6018 89.785 68.6216 89.8048C68.6414 89.8246 68.6569 89.8483 68.6669 89.8745C68.6769 89.9006 68.6814 89.9285 68.68 89.9565L68.15 97.7865C68.2389 100.297 68.5569 102.794 69.0999 105.246C69.2333 105.82 69.3433 106.39 69.43 106.956C69.8914 109.886 71.3166 112.578 73.4799 114.606C74.7799 115.706 76.38 116.936 76.43 117.986C76.43 118.356 76.1899 118.486 75.9199 118.746C73.0999 121.516 66.5699 121.246 66.5699 121.246C66.3728 121.209 66.1955 121.103 66.07 120.946L65.43 120.226L65.16 120.806C65.108 120.913 65.0646 121.023 65.0299 121.136C64.9975 121.212 64.9467 121.278 64.882 121.329C64.8173 121.379 64.741 121.413 64.66 121.426C59.1 123.196 57.9499 118.156 57.9499 118.156C57.7584 118.119 57.5615 118.119 57.3699 118.156C56.6678 118.179 55.9815 118.371 55.3699 118.716C54.8599 119.006 54.3699 119.326 53.8699 119.656C53.0816 120.253 52.1949 120.706 51.2499 120.996C46.9799 121.726 45.4799 119.216 45.4799 119.216C45.1899 118.896 45.3499 118.666 45.4199 118.366C46.032 116.439 46.9249 114.613 48.07 112.946C50.31 109.666 52.44 105.826 52.44 105.826L52.8 98.7665V90.2165C52.7973 90.1671 52.8045 90.1176 52.8213 90.071C52.838 90.0245 52.864 89.9818 52.8975 89.9454C52.9311 89.909 52.9716 89.8798 53.0167 89.8593C53.0618 89.8389 53.1105 89.8277 53.16 89.8265Z" fill="url(#paint59_linear_3467_5326)"/>
<path d="M52.7305 105.326C54.0269 105.812 55.3661 106.173 56.7305 106.406C58.0833 106.648 59.4566 106.755 60.8305 106.726C62.208 106.741 63.583 106.603 64.9305 106.316C66.298 106.036 67.637 105.631 68.9305 105.106C67.6792 105.701 66.364 106.151 65.0105 106.446C63.6545 106.751 62.2702 106.912 60.8805 106.926C58.0834 106.952 55.3103 106.408 52.7305 105.326Z" fill="#3984C5"/>
<path d="M64.4199 111.166C65.0583 112.598 65.5443 114.093 65.8699 115.626C66.0233 116.397 66.107 117.181 66.1199 117.966C66.1651 118.764 65.924 119.551 65.4399 120.186C65.8534 119.524 66.0395 118.744 65.9699 117.966C65.943 117.193 65.8459 116.423 65.6799 115.666C65.3549 114.141 64.9341 112.638 64.4199 111.166Z" fill="#3984C5"/>
<path d="M56.7102 111.116C56.0485 112.46 55.487 113.85 55.0302 115.276C54.5666 116.702 54.1926 118.155 53.9102 119.626C54.0628 118.127 54.3779 116.648 54.8502 115.216C55.3029 113.78 55.9274 112.403 56.7102 111.116Z" fill="#3984C5"/>
<path d="M54.3302 121.057L54.7102 139.396L56.7102 138.266L60.1502 121.567C60.2329 121.135 60.2162 120.69 60.1014 120.266C59.9865 119.842 59.7765 119.45 59.4873 119.119C59.198 118.789 58.8372 118.528 58.4322 118.358C58.0273 118.188 57.5888 118.112 57.1502 118.136C56.3915 118.157 55.6713 118.475 55.1441 119.021C54.6168 119.567 54.3246 120.298 54.3302 121.057Z" fill="url(#paint60_linear_3467_5326)"/>
<path d="M61.7311 102.686C62.3689 102.538 62.9663 102.251 63.4811 101.846C64.0311 101.296 64.4811 101.906 64.2311 102.336C64.1087 102.632 63.9223 102.896 63.6854 103.11C63.4485 103.325 63.167 103.484 62.8611 103.576L62.9111 103.736C63.6313 103.735 64.3457 103.606 65.0211 103.356C66.0211 102.946 66.2811 103.356 66.2811 103.356C66.3343 103.454 66.3504 103.567 66.3265 103.676C66.3026 103.784 66.2403 103.88 66.1511 103.946C65.5309 104.313 64.8555 104.576 64.1511 104.726C64.9345 104.945 65.7524 105.013 66.5611 104.926C67.4711 104.726 67.4711 105.516 66.7811 105.716C65.912 105.86 65.0319 105.927 64.1511 105.916C64.9117 106.035 65.6815 106.086 66.4511 106.066C66.5531 106.054 66.6563 106.078 66.7411 106.136C66.8711 106.226 67.0811 106.406 66.7411 106.686C66.1911 107.156 63.8911 106.946 63.8911 106.946C63.8911 106.946 63.8411 107.316 65.2011 107.686C65.2011 107.686 65.9411 107.866 65.3711 108.276C65.0285 108.386 64.6658 108.417 64.3095 108.369C63.9532 108.321 63.6121 108.193 63.3111 107.996C63.3111 107.996 59.7211 108.286 59.8511 105.446C59.9811 102.606 61.7311 102.686 61.7311 102.686Z" fill="url(#paint61_linear_3467_5326)"/>
<path d="M59.6896 103.736L60.1996 103.936C60.3218 103.985 60.4288 104.065 60.5096 104.169C60.5905 104.273 60.6423 104.396 60.6596 104.526L60.9196 106.356C60.9364 106.518 60.9055 106.68 60.8309 106.824C60.7562 106.968 60.6411 107.087 60.4996 107.166L59.9596 107.476C59.9155 107.511 59.8608 107.53 59.8046 107.53C59.7483 107.53 59.6937 107.511 59.6496 107.476L58.3296 105.916C58.2971 105.877 58.2793 105.828 58.2793 105.776C58.2793 105.725 58.2971 105.676 58.3296 105.636L59.4096 103.846C59.441 103.803 59.484 103.77 59.5336 103.751C59.5832 103.731 59.6373 103.726 59.6896 103.736Z" fill="url(#paint62_linear_3467_5326)"/>
<path d="M49.0001 101.456C52.3101 101.606 57.7501 102.126 60.0501 103.896L60.5401 107.136C60.5401 107.136 55.7801 114.526 47.2201 113.536C40.9901 112.816 39.2901 108.476 41.9001 104.816C42.7128 103.712 43.7871 102.827 45.0263 102.241C46.2655 101.655 47.6309 101.385 49.0001 101.456Z" fill="url(#paint63_linear_3467_5326)"/>
<path d="M42.9693 73.5965C42.9693 73.5965 43.1093 69.5965 41.0793 69.7865C39.0493 69.9765 36.6993 74.6465 41.1293 76.7065C41.3794 76.8331 41.66 76.8872 41.9393 76.8624C42.2185 76.8377 42.4853 76.7352 42.7093 76.5665C43.2393 76.1665 43.6493 75.3365 42.9693 73.5965Z" fill="url(#paint64_linear_3467_5326)"/>
<path d="M40.1504 72.3165C40.2963 72.2123 40.4711 72.1562 40.6504 72.1562C40.8297 72.1562 41.0045 72.2123 41.1504 72.3165C41.3085 72.4215 41.4361 72.5664 41.5204 72.7365C41.5832 72.8879 41.6301 73.0454 41.6604 73.2065C41.804 73.7924 41.8278 74.4012 41.7304 74.9965C41.3998 74.4927 41.1721 73.9286 41.0604 73.3365C41.0459 73.0995 40.9663 72.8711 40.8304 72.6765C40.7464 72.5745 40.6431 72.4903 40.5264 72.4285C40.4097 72.3667 40.2819 72.3286 40.1504 72.3165Z" fill="#ED987F"/>
<path d="M40.7012 73.6265C40.7012 73.3665 40.8512 73.2865 40.9612 73.2465C41.0712 73.2065 41.2112 73.2465 41.3812 73.4665C41.3212 73.7265 41.2212 73.8165 41.1112 73.8465C41.0012 73.8765 40.8612 73.8365 40.7012 73.6265Z" fill="#ED987F"/>
<path d="M77.3306 73.5965C77.3306 73.5965 77.1906 69.5965 79.2206 69.7865C81.2506 69.9765 83.6006 74.6465 79.1706 76.7065C78.9204 76.8331 78.6398 76.8872 78.3605 76.8624C78.0813 76.8377 77.8145 76.7352 77.5906 76.5665C77.0306 76.1665 76.6206 75.3365 77.3306 73.5965Z" fill="#FEE2CC"/>
<path d="M80.1198 72.3165C79.9878 72.3336 79.8605 72.3769 79.7455 72.4439C79.6304 72.5109 79.5299 72.6002 79.4498 72.7065C79.3217 72.9043 79.246 73.1314 79.2298 73.3665C79.1187 73.9604 78.8873 74.5253 78.5498 75.0265C78.4622 74.4306 78.486 73.8237 78.6198 73.2365C78.6541 73.0752 78.7043 72.9178 78.7698 72.7665C78.8541 72.5964 78.9817 72.4516 79.1398 72.3465C79.2806 72.2423 79.45 72.1835 79.6251 72.1782C79.8002 72.1728 79.9728 72.2211 80.1198 72.3165Z" fill="#ED987F"/>
<path d="M79.5706 73.6265C79.4006 73.8365 79.2806 73.8665 79.1606 73.8465C79.0406 73.8265 78.9506 73.7265 78.8906 73.4665C79.0606 73.2565 79.1906 73.2265 79.3006 73.2465C79.4106 73.2665 79.5106 73.3665 79.5706 73.6265Z" fill="#ED987F"/>
<path d="M62.7501 87.9065L59.7501 88.0365C50.1801 88.4465 42.8301 80.6865 42.4301 70.6965L42.3401 68.2465C41.9701 58.9965 48.1201 51.1865 56.9701 50.7965L62.1201 50.5765C70.9701 50.1865 78.45 57.3765 78.82 66.6265L78.8701 67.7465C78.9195 68.969 78.7709 70.1914 78.4301 71.3665C75.3301 82.4565 71.6001 87.5165 62.7501 87.9065Z" fill="url(#paint65_linear_3467_5326)"/>
<path d="M41.5407 60.1165V60.2865C40.8007 64.8465 42.5407 70.6565 42.5407 70.6565L42.6207 70.4365C43.1164 68.9968 43.9057 67.6757 44.9385 66.5568C45.9713 65.4379 47.2252 64.5457 48.6207 63.9365C50.5698 63.0416 52.3021 61.7354 53.6986 60.1076C55.095 58.4798 56.1226 56.569 56.7107 54.5065V44.6265C44.4407 46.1865 41.8407 54.3965 41.5407 60.1165Z" fill="#F8B5B7"/>
<path d="M56.5696 52.5265C56.3396 54.8165 58.2296 57.6465 61.7696 59.5265C63.7518 60.2978 65.8755 60.6386 67.9996 60.5265C71.6796 60.3665 73.9996 62.3865 74.8196 66.3565C75.2701 68.6542 76.5473 70.7071 78.4096 72.1265C78.4096 72.1265 84.5296 52.6765 69.7396 44.3665C66.2396 42.3665 62.9596 42.7865 60.7396 44.1465C57.5996 46.0565 56.8096 50.1165 56.5696 52.5265Z" fill="#F8B5B7"/>
<path d="M41.4098 59.4965V59.6665C40.6698 64.2265 42.4098 70.6665 42.4098 70.6665L42.4998 70.4465C43.7798 67.2665 45.4098 64.6965 48.4198 63.2865C55.1498 60.1265 57.5698 52.8465 57.5698 52.8465L65.8698 42.8465C43.3798 41.6865 41.7098 53.8265 41.4098 59.4965Z" fill="url(#paint66_linear_3467_5326)"/>
<path d="M56.4095 52.1165C56.2495 54.4065 58.2095 57.2965 61.7995 59.0565C63.802 59.7653 65.9329 60.0381 68.0495 59.8565C71.7295 59.5865 74.0495 61.5465 75.0495 65.4865C75.661 67.9173 76.8168 70.1775 78.4295 72.0965C78.4295 72.0965 85.1295 50.7465 69.3795 43.5365C65.7395 41.8765 62.5595 42.1665 60.3795 43.5865C57.2695 45.6165 56.5795 49.7065 56.4095 52.1165Z" fill="url(#paint67_linear_3467_5326)"/>
<path d="M60.3308 72.1165C60.3845 72.9072 60.3577 73.7012 60.2508 74.4865V74.5865L60.1708 74.6565C59.9308 74.8765 59.7108 75.0965 59.4608 75.2965L59.1308 75.5965C59.1079 75.6108 59.0906 75.6324 59.0815 75.6578C59.0724 75.6832 59.0722 75.7109 59.0808 75.7365C59.0884 75.7678 59.106 75.7959 59.1308 75.8165L59.3108 75.9865C59.4308 76.0865 59.5408 76.2065 59.6508 76.3165C59.7608 76.4265 60.0908 76.7865 60.3008 77.0365C60.0062 76.9059 59.7191 76.759 59.4408 76.5965C59.3008 76.5165 59.1608 76.4365 59.0308 76.3465L58.8208 76.2165C58.7143 76.1497 58.6305 76.052 58.5808 75.9365C58.5276 75.8136 58.5097 75.6783 58.5291 75.5458C58.5485 75.4133 58.6045 75.2889 58.6908 75.1865L59.0608 74.8465C59.2908 74.6265 59.5408 74.4265 59.7808 74.2165L59.6808 74.3965C59.8252 73.6177 60.0428 72.8543 60.3308 72.1165Z" fill="#ED987F"/>
<path d="M55.75 77.9065C55.75 77.9065 61.27 79.0465 64.34 77.5165C64.34 77.5165 64.61 80.7665 62.03 82.2165C61.4875 82.5141 60.8787 82.6701 60.26 82.6701C59.6412 82.6701 59.0325 82.5141 58.49 82.2165C57.6979 81.7984 57.0286 81.1809 56.5481 80.425C56.0676 79.6692 55.7925 78.8011 55.75 77.9065Z" fill="url(#paint68_linear_3467_5326)"/>
<mask id="mask5_3467_5326" style="mask-type:luminance" maskUnits="userSpaceOnUse" x="55" y="77" width="10" height="6">
<path d="M55.75 77.9065C55.75 77.9065 61.27 79.0465 64.34 77.5165C64.34 77.5165 64.61 80.7665 62.03 82.2165C61.4875 82.5141 60.8787 82.6701 60.26 82.6701C59.6412 82.6701 59.0325 82.5141 58.49 82.2165C57.6979 81.7984 57.0286 81.1809 56.5481 80.425C56.0676 79.6692 55.7925 78.8011 55.75 77.9065Z" fill="white"/>
</mask>
<g mask="url(#mask5_3467_5326)">
<path d="M58.2598 82.1165C58.2598 82.1165 59.2598 78.0565 63.9898 79.8565C68.7198 81.6565 61.7098 86.7265 58.2598 82.1165Z" fill="url(#paint69_linear_3467_5326)"/>
</g>
<path d="M55.7931 75.3601C57.3009 75.2998 58.4425 73.2361 58.3431 70.7509C58.2437 68.2656 56.9409 66.2998 55.4331 66.3601C53.9254 66.4204 52.7837 68.484 52.8831 70.9693C52.9825 73.4545 54.2854 75.4204 55.7931 75.3601Z" fill="white"/>
<path d="M55.8008 74.4965C56.6292 74.4965 57.3008 73.3906 57.3008 72.0265C57.3008 70.6623 56.6292 69.5565 55.8008 69.5565C54.9724 69.5565 54.3008 70.6623 54.3008 72.0265C54.3008 73.3906 54.9724 74.4965 55.8008 74.4965Z" fill="#1E1230"/>
<path d="M52.1716 72.3465C52.0716 69.8665 53.1716 67.7965 54.7216 67.7265C55.9316 67.6765 57.0116 68.9365 57.4416 70.7265C57.2416 68.4065 55.9916 66.6265 54.5616 66.7265C53.1316 66.8265 51.9116 68.8565 52.0116 71.3365C52.0265 71.8019 52.0902 72.2644 52.2016 72.7165L52.1716 72.3465Z" fill="#1E1230"/>
<path d="M51.3312 67.3765C51.3312 67.3765 51.8512 68.7065 52.4712 68.4865L52.2312 69.5965C51.8999 69.3377 51.6424 68.9964 51.4844 68.6068C51.3265 68.2172 51.2736 67.7929 51.3312 67.3765Z" fill="#1E1230"/>
<path d="M65.7677 75.4619C67.1915 75.4082 68.2741 73.4632 68.1856 71.1177C68.0972 68.7721 66.8712 66.9142 65.4473 66.9679C64.0234 67.0216 62.9409 68.9666 63.0293 71.3122C63.1178 73.6577 64.3438 75.5156 65.7677 75.4619Z" fill="white"/>
<path d="M64.7194 74.1294C65.4976 74.1001 66.0891 73.0339 66.0406 71.748C65.9921 70.462 65.3219 69.4434 64.5438 69.4727C63.7656 69.5021 63.1741 70.5683 63.2226 71.8542C63.2711 73.1401 63.9412 74.1588 64.7194 74.1294Z" fill="#1E1230"/>
<path d="M68.1208 71.9865C68.1808 69.6065 67.0508 67.6465 65.6108 67.6065C64.4508 67.6065 63.4408 68.8065 63.0508 70.5265C63.2108 68.3065 64.3808 66.5865 65.7508 66.6265C67.1208 66.6665 68.3208 68.6265 68.2608 70.9965C68.25 71.4406 68.1964 71.8827 68.1008 72.3165C68.1108 72.2065 68.1108 72.1165 68.1208 71.9865Z" fill="#1E1230"/>
<path d="M68.8415 67.2165C68.8415 67.2165 68.3715 68.4965 67.7715 68.2965L68.0115 69.3565C68.3259 69.1044 68.5682 68.7737 68.714 68.398C68.8597 68.0222 68.9037 67.6147 68.8415 67.2165Z" fill="#1E1230"/>
<path d="M71.1707 66.6765C70.7004 66.2582 70.2063 65.8676 69.6907 65.5065C69.4375 65.3222 69.17 65.1583 68.8907 65.0165C67.642 64.3148 66.293 63.8089 64.8907 63.5165C64.6807 63.4465 64.4208 63.5165 64.1908 63.3965C63.9608 63.2765 63.8808 62.3965 64.0808 62.1765C64.4908 61.7365 65.3607 62.4465 66.0107 62.5065C66.3905 62.5396 66.7604 62.6449 67.1007 62.8165C67.4407 62.9865 67.7507 63.1865 68.1007 63.3765C68.4061 63.5727 68.7 63.7864 68.9807 64.0165C69.2607 64.2465 69.5208 64.4865 69.7708 64.7365C70.3499 65.2337 70.8791 65.7863 71.3507 66.3865L71.1707 66.6765Z" fill="#FBC3AA"/>
<path d="M71.3311 66.5465C70.9223 66.1494 70.4916 65.7755 70.041 65.4265C69.7739 65.2151 69.4933 65.0214 69.201 64.8465C67.9019 64.009 66.4773 63.3844 64.981 62.9965C64.761 62.9165 64.481 62.9265 64.231 62.8365C64.1654 62.8164 64.1062 62.7793 64.0594 62.729C64.0126 62.6787 63.98 62.6169 63.9648 62.5499C63.9496 62.483 63.9523 62.4132 63.9727 62.3476C63.9931 62.282 64.0305 62.223 64.0811 62.1765C64.5511 61.6965 65.5511 61.8165 66.2511 61.9065C66.6567 61.964 67.0473 62.0999 67.4011 62.3065C67.7458 62.5124 68.0795 62.736 68.4011 62.9765C68.7175 63.2066 69.0213 63.4536 69.3111 63.7165C69.5911 63.9865 69.8611 64.2765 70.1211 64.5665C70.6271 65.1513 71.0696 65.7882 71.441 66.4665L71.3311 66.5465Z" fill="url(#paint70_linear_3467_5326)"/>
<path d="M49.5011 66.3365C50.0015 65.9521 50.5222 65.5949 51.0611 65.2665C51.3282 65.1053 51.6054 64.9617 51.8911 64.8365C53.1868 64.2322 54.5652 63.8244 55.9811 63.6265C56.1911 63.5765 56.4511 63.6265 56.6911 63.5665C56.9311 63.5065 57.0611 62.5665 56.8711 62.3565C56.4911 61.8865 55.5811 62.5365 54.9211 62.5465C54.5437 62.5572 54.1712 62.6351 53.8211 62.7765C53.4711 62.9265 53.1511 63.0965 52.8211 63.2665C52.4911 63.4365 52.1911 63.6365 51.9011 63.8365C51.6101 64.0456 51.3297 64.2693 51.0611 64.5065C50.4495 64.9605 49.8835 65.4729 49.3711 66.0365L49.5011 66.3365Z" fill="#FBC3AA"/>
<path d="M49.3307 66.1965C49.7649 65.8379 50.219 65.504 50.6907 65.1965C50.969 65.0042 51.2596 64.8305 51.5607 64.6765C52.9142 63.9389 54.3754 63.4191 55.8907 63.1365C56.1207 63.0665 56.4007 63.1365 56.6507 63.0365C56.7176 63.0205 56.779 62.9871 56.8288 62.9397C56.8786 62.8923 56.915 62.8326 56.9343 62.7666C56.9536 62.7006 56.9551 62.6307 56.9386 62.564C56.9222 62.4972 56.8884 62.436 56.8407 62.3865C56.4107 61.8765 55.4007 61.9265 54.7007 61.9565C54.2936 61.9861 53.8962 62.0948 53.5307 62.2765C53.1865 62.4577 52.8526 62.6581 52.5307 62.8765C52.1814 63.0751 51.8472 63.299 51.5307 63.5465C51.2299 63.794 50.9428 64.0577 50.6707 64.3365C50.1225 64.8812 49.6363 65.4849 49.2207 66.1365L49.3307 66.1965Z" fill="url(#paint71_linear_3467_5326)"/>
<path d="M73.9298 114.316H47.8298C47.2388 114.316 46.7598 114.796 46.7598 115.386V117.076C46.7598 117.667 47.2388 118.146 47.8298 118.146H73.9298C74.5207 118.146 74.9998 117.667 74.9998 117.076V115.386C74.9998 114.796 74.5207 114.316 73.9298 114.316Z" fill="#939598"/>
<path d="M72.46 116.986H49.33C48.7184 116.965 48.1336 116.731 47.677 116.323C47.2203 115.916 46.9207 115.362 46.83 114.757L44.09 96.4365C43.81 94.6165 44.81 93.0965 46.32 93.0965H75.52C77.03 93.0965 78.02 94.6165 77.75 96.4365L75.01 114.757C74.9139 115.368 74.606 115.927 74.1398 116.334C73.6737 116.742 73.0791 116.973 72.46 116.986Z" fill="url(#paint72_linear_3467_5326)"/>
<path d="M61.2695 106.516C62.5563 106.516 63.5995 105.473 63.5995 104.186C63.5995 102.9 62.5563 101.856 61.2695 101.856C59.9826 101.856 58.9395 102.9 58.9395 104.186C58.9395 105.473 59.9826 106.516 61.2695 106.516Z" fill="#939598"/>
</g>
</g>
<defs>
<linearGradient id="paint0_linear_3467_5326" x1="31.8003" y1="86.3865" x2="17.3103" y2="79.8565" gradientUnits="userSpaceOnUse">
<stop stop-color="#164B9C"/>
<stop offset="0.45" stop-color="#194C9D"/>
<stop offset="0.75" stop-color="#224E9F"/>
<stop offset="1" stop-color="#3052A2"/>
</linearGradient>
<linearGradient id="paint1_linear_3467_5326" x1="32.8003" y1="86.3865" x2="47.2903" y2="79.8565" gradientUnits="userSpaceOnUse">
<stop stop-color="#164B9C"/>
<stop offset="0.15" stop-color="#194C9D"/>
<stop offset="0.25" stop-color="#224E9F"/>
<stop offset="0.33" stop-color="#3052A2"/>
<stop offset="0.54" stop-color="#385DAA"/>
<stop offset="0.95" stop-color="#4670B7"/>
</linearGradient>
<linearGradient id="paint2_linear_3467_5326" x1="41.6515" y1="74.8965" x2="20.1415" y2="53.9665" gradientUnits="userSpaceOnUse">
<stop stop-color="#FDE045"/>
<stop offset="0.19" stop-color="#FFD540"/>
<stop offset="0.54" stop-color="#FEC156"/>
<stop offset="0.86" stop-color="#FEBE56"/>
<stop offset="1" stop-color="#FDB957"/>
</linearGradient>
<linearGradient id="paint3_linear_3467_5326" x1="16.1814" y1="60.9365" x2="11.4414" y2="60.9365" gradientUnits="userSpaceOnUse">
<stop offset="0.05" stop-color="#FCB447"/>
<stop offset="0.52" stop-color="#FDB852"/>
<stop offset="1" stop-color="#FDB957"/>
</linearGradient>
<linearGradient id="paint4_linear_3467_5326" x1="16.2017" y1="73.6965" x2="17.7717" y2="55.3565" gradientUnits="userSpaceOnUse">
<stop stop-color="#FEE2CC"/>
<stop offset="0.3" stop-color="#FED9BB"/>
<stop offset="0.59" stop-color="#FCCAB7"/>
<stop offset="0.68" stop-color="#FBC0AE"/>
<stop offset="0.86" stop-color="#F9B09F"/>
<stop offset="1" stop-color="#F8AA9A"/>
</linearGradient>
<linearGradient id="paint5_linear_3467_5326" x1="11.4414" y1="56.3265" x2="25.6214" y2="56.3265" gradientUnits="userSpaceOnUse">
<stop offset="0.05" stop-color="#FEC156"/>
<stop offset="0.8" stop-color="#FDBC57"/>
<stop offset="1" stop-color="#FDB957"/>
</linearGradient>
<linearGradient id="paint6_linear_3467_5326" x1="10.2047" y1="65.2067" x2="25.6229" y2="71.8693" gradientUnits="userSpaceOnUse">
<stop stop-color="#FCCAB7"/>
<stop offset="0.7" stop-color="#FED9BB"/>
<stop offset="1" stop-color="#FEE2CC"/>
</linearGradient>
<linearGradient id="paint7_linear_3467_5326" x1="32.1154" y1="77.0141" x2="23.1297" y2="68.7127" gradientUnits="userSpaceOnUse">
<stop stop-color="#FCCAB7"/>
<stop offset="0.23" stop-color="#FDD3BA"/>
<stop offset="0.51" stop-color="#FED9BB"/>
<stop offset="1" stop-color="#FEE2CC"/>
</linearGradient>
<linearGradient id="paint8_linear_3467_5326" x1="47.6113" y1="60.9365" x2="52.3513" y2="60.9365" gradientUnits="userSpaceOnUse">
<stop offset="0.05" stop-color="#FCB447"/>
<stop offset="0.52" stop-color="#FDB852"/>
<stop offset="1" stop-color="#FDB957"/>
</linearGradient>
<linearGradient id="paint9_linear_3467_5326" x1="47.6005" y1="73.6965" x2="46.0205" y2="55.3565" gradientUnits="userSpaceOnUse">
<stop stop-color="#FEE2CC"/>
<stop offset="0.3" stop-color="#FED9BB"/>
<stop offset="0.59" stop-color="#FCCAB7"/>
<stop offset="0.68" stop-color="#FBC0AE"/>
<stop offset="0.86" stop-color="#F9B09F"/>
<stop offset="1" stop-color="#F8AA9A"/>
</linearGradient>
<linearGradient id="paint10_linear_3467_5326" x1="52.3513" y1="56.3265" x2="44.7913" y2="56.3265" gradientUnits="userSpaceOnUse">
<stop stop-color="#FDB957"/>
<stop offset="0.65" stop-color="#FDBC57"/>
<stop offset="0.95" stop-color="#FEC156"/>
</linearGradient>
<linearGradient id="paint11_linear_3467_5326" x1="56.7391" y1="63.9734" x2="40.7079" y2="68.9738" gradientUnits="userSpaceOnUse">
<stop stop-color="#FCCAB7"/>
<stop offset="0.7" stop-color="#FED9BB"/>
<stop offset="1" stop-color="#FEE2CC"/>
</linearGradient>
<linearGradient id="paint12_linear_3467_5326" x1="33.9655" y1="71.7689" x2="43.7531" y2="64.4259" gradientUnits="userSpaceOnUse">
<stop stop-color="#FCCAB7"/>
<stop offset="0.23" stop-color="#FDD3BA"/>
<stop offset="0.51" stop-color="#FED9BB"/>
<stop offset="1" stop-color="#FEE2CC"/>
</linearGradient>
<linearGradient id="paint13_linear_3467_5326" x1="14.0609" y1="42.8665" x2="47.8009" y2="31.5165" gradientUnits="userSpaceOnUse">
<stop stop-color="#F8AA9A"/>
<stop offset="0.31" stop-color="#FCC6B4"/>
<stop offset="0.34" stop-color="#FCCAB7"/>
<stop offset="0.7" stop-color="#FED9BB"/>
<stop offset="1" stop-color="#FEE2CC"/>
</linearGradient>
<linearGradient id="paint14_linear_3467_5326" x1="16.6202" y1="31.9665" x2="50.9602" y2="28.6865" gradientUnits="userSpaceOnUse">
<stop stop-color="#4A252F"/>
<stop offset="0.37" stop-color="#7A4B34"/>
<stop offset="1" stop-color="#9F603A"/>
</linearGradient>
<linearGradient id="paint15_linear_3467_5326" x1="29.002" y1="48.3465" x2="35.662" y2="48.3465" gradientUnits="userSpaceOnUse">
<stop offset="0.01" stop-color="#EF4553"/>
<stop offset="0.62" stop-color="#BA3D45"/>
<stop offset="1" stop-color="#9E383D"/>
</linearGradient>
<linearGradient id="paint16_linear_3467_5326" x1="21.8083" y1="33.6044" x2="30.6491" y2="31.4627" gradientUnits="userSpaceOnUse">
<stop stop-color="#4A252F"/>
<stop offset="1" stop-color="#7A4B34"/>
</linearGradient>
<linearGradient id="paint17_linear_3467_5326" x1="44.8213" y1="34.8436" x2="35.9962" y2="32.7289" gradientUnits="userSpaceOnUse">
<stop stop-color="#4A252F"/>
<stop offset="0.97" stop-color="#7A4B34"/>
</linearGradient>
<linearGradient id="paint18_linear_3467_5326" x1="24.7812" y1="40.6365" x2="28.9113" y2="40.6365" gradientUnits="userSpaceOnUse">
<stop stop-color="#162649"/>
<stop offset="1" stop-color="#273861"/>
</linearGradient>
<linearGradient id="paint19_linear_3467_5326" x1="35.6716" y1="40.6365" x2="39.8016" y2="40.6365" gradientUnits="userSpaceOnUse">
<stop stop-color="#162649"/>
<stop offset="1" stop-color="#273861"/>
</linearGradient>
<linearGradient id="paint20_linear_3467_5326" x1="40.7808" y1="93.7364" x2="25.2408" y2="40.2065" gradientUnits="userSpaceOnUse">
<stop stop-color="#CCCCCC"/>
<stop offset="1" stop-color="#F1F2F2"/>
</linearGradient>
<linearGradient id="paint21_linear_3467_5326" x1="103.41" y1="69.3621" x2="91.5833" y2="60.2304" gradientUnits="userSpaceOnUse">
<stop stop-color="#CE7241"/>
<stop offset="0.44" stop-color="#C86E45"/>
<stop offset="0.63" stop-color="#C36B48"/>
<stop offset="0.77" stop-color="#C16847"/>
<stop offset="0.89" stop-color="#BA5E46"/>
<stop offset="0.99" stop-color="#AF4D43"/>
<stop offset="1" stop-color="#AE4C43"/>
</linearGradient>
<linearGradient id="paint22_linear_3467_5326" x1="80.3089" y1="96.8506" x2="91.2342" y2="71.2983" gradientUnits="userSpaceOnUse">
<stop stop-color="#AE4C43"/>
<stop offset="0.27" stop-color="#B75A45"/>
<stop offset="0.53" stop-color="#C36B48"/>
<stop offset="0.66" stop-color="#C86E45"/>
<stop offset="0.99" stop-color="#CE7241"/>
</linearGradient>
<linearGradient id="paint23_linear_3467_5326" x1="97.4893" y1="61.0912" x2="94.7047" y2="54.5224" gradientUnits="userSpaceOnUse">
<stop stop-color="#4B8E42"/>
<stop offset="0.32" stop-color="#4D7F48"/>
<stop offset="0.55" stop-color="#4E724E"/>
<stop offset="1" stop-color="#476747"/>
</linearGradient>
<linearGradient id="paint24_linear_3467_5326" x1="88.9979" y1="102.375" x2="86.3634" y2="48.6997" gradientUnits="userSpaceOnUse">
<stop stop-color="#AE4C43"/>
<stop offset="0.04" stop-color="#B85842"/>
<stop offset="0.1" stop-color="#C56742"/>
<stop offset="0.17" stop-color="#CC6F41"/>
<stop offset="0.29" stop-color="#CE7241"/>
<stop offset="0.53" stop-color="#C86E45"/>
<stop offset="0.63" stop-color="#C36B48"/>
<stop offset="0.77" stop-color="#C16847"/>
<stop offset="0.89" stop-color="#BA5E46"/>
<stop offset="0.99" stop-color="#AF4D43"/>
<stop offset="1" stop-color="#AE4C43"/>
</linearGradient>
<linearGradient id="paint25_linear_3467_5326" x1="73.5355" y1="70.154" x2="85.3697" y2="61.0162" gradientUnits="userSpaceOnUse">
<stop stop-color="#CE7241"/>
<stop offset="0.44" stop-color="#C86E45"/>
<stop offset="0.63" stop-color="#C36B48"/>
<stop offset="0.77" stop-color="#C16847"/>
<stop offset="0.89" stop-color="#BA5E46"/>
<stop offset="0.99" stop-color="#AF4D43"/>
<stop offset="1" stop-color="#AE4C43"/>
</linearGradient>
<linearGradient id="paint26_linear_3467_5326" x1="80.2159" y1="65.5127" x2="83.0005" y2="58.9439" gradientUnits="userSpaceOnUse">
<stop stop-color="#4B8E42"/>
<stop offset="0.32" stop-color="#4D7F48"/>
<stop offset="0.55" stop-color="#4E724E"/>
<stop offset="1" stop-color="#476747"/>
</linearGradient>
<linearGradient id="paint27_linear_3467_5326" x1="76.95" y1="86.817" x2="99.443" y2="85.7129" gradientUnits="userSpaceOnUse">
<stop stop-color="#FAA74F"/>
<stop offset="0.27" stop-color="#FCB350"/>
<stop offset="0.45" stop-color="#FDBD51"/>
<stop offset="0.75" stop-color="#FECD50"/>
<stop offset="1" stop-color="#FFD34F"/>
</linearGradient>
<linearGradient id="paint28_linear_3467_5326" x1="87.5317" y1="75.7949" x2="89.8454" y2="53.785" gradientUnits="userSpaceOnUse">
<stop stop-color="#4B8E42"/>
<stop offset="0.03" stop-color="#4C8645"/>
<stop offset="0.12" stop-color="#4D7B4A"/>
<stop offset="0.23" stop-color="#4E744D"/>
<stop offset="0.55" stop-color="#4E724E"/>
<stop offset="0.71" stop-color="#4F6A53"/>
<stop offset="0.96" stop-color="#525361"/>
<stop offset="1" stop-color="#534F64"/>
</linearGradient>
<linearGradient id="paint29_linear_3467_5326" x1="85.3029" y1="67.8948" x2="95.8902" y2="67.3751" gradientUnits="userSpaceOnUse">
<stop stop-color="#FAA74F"/>
<stop offset="0.23" stop-color="#FCB750"/>
<stop offset="0.41" stop-color="#FDBD51"/>
<stop offset="1" stop-color="#FFD34F"/>
</linearGradient>
<linearGradient id="paint30_linear_3467_5326" x1="94.9352" y1="17.1305" x2="102.327" y2="22.4825" gradientUnits="userSpaceOnUse">
<stop stop-color="#7C4347"/>
<stop offset="0.15" stop-color="#824649"/>
<stop offset="0.35" stop-color="#94504F"/>
<stop offset="0.59" stop-color="#B26059"/>
<stop offset="0.63" stop-color="#B7635B"/>
<stop offset="0.85" stop-color="#B8665E"/>
<stop offset="1" stop-color="#BC6E65"/>
</linearGradient>
<linearGradient id="paint31_linear_3467_5326" x1="115.575" y1="-0.410515" x2="116.811" y2="-11.5282" gradientUnits="userSpaceOnUse">
<stop stop-color="#FDD8CC"/>
<stop offset="0.28" stop-color="#FDDBD2"/>
<stop offset="0.63" stop-color="#FDE1E2"/>
<stop offset="0.82" stop-color="#FDE4E4"/>
<stop offset="0.97" stop-color="#FEEEEB"/>
<stop offset="1" stop-color="#FEF1ED"/>
</linearGradient>
<linearGradient id="paint32_linear_3467_5326" x1="74.5551" y1="14.5497" x2="81.9255" y2="9.98918" gradientUnits="userSpaceOnUse">
<stop stop-color="#7C4347"/>
<stop offset="0.15" stop-color="#824649"/>
<stop offset="0.35" stop-color="#94504F"/>
<stop offset="0.59" stop-color="#B26059"/>
<stop offset="0.63" stop-color="#B7635B"/>
<stop offset="0.85" stop-color="#B8665E"/>
<stop offset="1" stop-color="#BC6E65"/>
</linearGradient>
<linearGradient id="paint33_linear_3467_5326" x1="77.4326" y1="19.9658" x2="76.1885" y2="8.80494" gradientUnits="userSpaceOnUse">
<stop stop-color="#FDD8CC"/>
<stop offset="0.28" stop-color="#FDDBD2"/>
<stop offset="0.63" stop-color="#FDE1E2"/>
<stop offset="0.82" stop-color="#FDE4E4"/>
<stop offset="0.97" stop-color="#FEEEEB"/>
<stop offset="1" stop-color="#FEF1ED"/>
</linearGradient>
<linearGradient id="paint34_linear_3467_5326" x1="69.4656" y1="44.1406" x2="101.431" y2="26.7574" gradientUnits="userSpaceOnUse">
<stop stop-color="#AE4C43"/>
<stop offset="0.09" stop-color="#B45544"/>
<stop offset="0.37" stop-color="#C36B48"/>
<stop offset="0.56" stop-color="#C86E45"/>
<stop offset="1" stop-color="#CE7241"/>
</linearGradient>
<radialGradient id="paint35_radial_3467_5326" cx="0" cy="0" r="1" gradientUnits="userSpaceOnUse" gradientTransform="translate(91.1715 43.383) rotate(-150) scale(6.33)">
<stop offset="0.49" stop-color="#C36B48"/>
<stop offset="0.68" stop-color="#BE6447"/>
<stop offset="0.96" stop-color="#B15044"/>
<stop offset="1" stop-color="#AE4C43"/>
</radialGradient>
<linearGradient id="paint36_linear_3467_5326" x1="85.3714" y1="43.5235" x2="92.4514" y2="43.7359" gradientUnits="userSpaceOnUse">
<stop offset="0.02" stop-color="#6C3E36"/>
<stop offset="0.09" stop-color="#5D3632"/>
<stop offset="0.21" stop-color="#4D2E2D"/>
<stop offset="0.34" stop-color="#44292A"/>
<stop offset="0.52" stop-color="#412729"/>
<stop offset="0.66" stop-color="#45292A"/>
<stop offset="0.82" stop-color="#52302E"/>
<stop offset="0.97" stop-color="#673B35"/>
<stop offset="1" stop-color="#6C3E36"/>
</linearGradient>
<linearGradient id="paint37_linear_3467_5326" x1="90.2387" y1="45.7514" x2="88.9613" y2="43.2909" gradientUnits="userSpaceOnUse">
<stop stop-color="#D24F67"/>
<stop offset="0.98" stop-color="#BF2B47"/>
</linearGradient>
<radialGradient id="paint38_radial_3467_5326" cx="0" cy="0" r="1" gradientUnits="userSpaceOnUse" gradientTransform="translate(91.0151 36.3611) rotate(-3.29001) scale(2.99 2.99001)">
<stop stop-color="#6C3E36"/>
<stop offset="1" stop-color="#352424"/>
</radialGradient>
<linearGradient id="paint39_linear_3467_5326" x1="88.5113" y1="26.8234" x2="80.9248" y2="32.0453" gradientUnits="userSpaceOnUse">
<stop stop-color="#AE4C43"/>
<stop offset="0.09" stop-color="#B45544"/>
<stop offset="0.37" stop-color="#C36B48"/>
<stop offset="0.56" stop-color="#C86E45"/>
<stop offset="1" stop-color="#CE7241"/>
</linearGradient>
<linearGradient id="paint40_linear_3467_5326" x1="87.3694" y1="32.1761" x2="83.2894" y2="32.4209" gradientUnits="userSpaceOnUse">
<stop stop-color="#6C3E36"/>
<stop offset="1" stop-color="#352424"/>
</linearGradient>
<linearGradient id="paint41_linear_3467_5326" x1="91.8155" y1="24.866" x2="98.4539" y2="31.2278" gradientUnits="userSpaceOnUse">
<stop stop-color="#AE4C43"/>
<stop offset="0.09" stop-color="#B45544"/>
<stop offset="0.37" stop-color="#C36B48"/>
<stop offset="0.56" stop-color="#C86E45"/>
<stop offset="1" stop-color="#CE7241"/>
</linearGradient>
<linearGradient id="paint42_linear_3467_5326" x1="94.4653" y1="32.3747" x2="90.3753" y2="32.6201" gradientUnits="userSpaceOnUse">
<stop stop-color="#6C3E36"/>
<stop offset="1" stop-color="#352424"/>
</linearGradient>
<linearGradient id="paint43_linear_3467_5326" x1="81.9732" y1="22.8795" x2="87.5224" y2="24.5665" gradientUnits="userSpaceOnUse">
<stop stop-color="#6C3E36"/>
<stop offset="1" stop-color="#8B5032"/>
</linearGradient>
<linearGradient id="paint44_linear_3467_5326" x1="91.5386" y1="22.8882" x2="96.9628" y2="24.9422" gradientUnits="userSpaceOnUse">
<stop stop-color="#8B5032"/>
<stop offset="1" stop-color="#6C3E36"/>
</linearGradient>
<linearGradient id="paint45_linear_3467_5326" x1="86.5" y1="71.0384" x2="77.0561" y2="69.837" gradientUnits="userSpaceOnUse">
<stop stop-color="#AE4C43"/>
<stop offset="0.01" stop-color="#AF4D43"/>
<stop offset="0.11" stop-color="#BA5E46"/>
<stop offset="0.23" stop-color="#C16847"/>
<stop offset="0.37" stop-color="#C36B48"/>
<stop offset="0.56" stop-color="#C86E45"/>
<stop offset="1" stop-color="#CE7241"/>
</linearGradient>
<linearGradient id="paint46_linear_3467_5326" x1="87.0195" y1="74.0165" x2="90.2367" y2="78.6907" gradientUnits="userSpaceOnUse">
<stop stop-color="#CE7241"/>
<stop offset="0.44" stop-color="#C86E45"/>
<stop offset="0.63" stop-color="#C36B48"/>
<stop offset="0.77" stop-color="#C16847"/>
<stop offset="0.89" stop-color="#BA5E46"/>
<stop offset="0.99" stop-color="#AF4D43"/>
<stop offset="1" stop-color="#AE4C43"/>
</linearGradient>
<linearGradient id="paint47_linear_3467_5326" x1="90.2416" y1="70.752" x2="99.6664" y2="69.5144" gradientUnits="userSpaceOnUse">
<stop stop-color="#AE4C43"/>
<stop offset="0.01" stop-color="#AF4D43"/>
<stop offset="0.11" stop-color="#BA5E46"/>
<stop offset="0.23" stop-color="#C16847"/>
<stop offset="0.37" stop-color="#C36B48"/>
<stop offset="0.56" stop-color="#C86E45"/>
<stop offset="1" stop-color="#CE7241"/>
</linearGradient>
<linearGradient id="paint48_linear_3467_5326" x1="90.0177" y1="73.6826" x2="86.801" y2="78.3649" gradientUnits="userSpaceOnUse">
<stop stop-color="#CE7241"/>
<stop offset="0.44" stop-color="#C86E45"/>
<stop offset="0.63" stop-color="#C36B48"/>
<stop offset="0.77" stop-color="#C16847"/>
<stop offset="0.89" stop-color="#BA5E46"/>
<stop offset="0.99" stop-color="#AF4D43"/>
<stop offset="1" stop-color="#AE4C43"/>
</linearGradient>
<linearGradient id="paint49_linear_3467_5326" x1="97.3507" y1="93.6765" x2="83.1507" y2="44.7565" gradientUnits="userSpaceOnUse">
<stop stop-color="#CCCCCC"/>
<stop offset="1" stop-color="#F1F2F2"/>
</linearGradient>
<linearGradient id="paint50_linear_3467_5326" x1="64.8146" y1="83.7435" x2="89.7944" y2="74.0739" gradientUnits="userSpaceOnUse">
<stop stop-color="#563731"/>
<stop offset="0.27" stop-color="#5A3B2E"/>
<stop offset="0.35" stop-color="#5D3D2D"/>
<stop offset="0.55" stop-color="#68432B"/>
<stop offset="0.65" stop-color="#6F472A"/>
<stop offset="0.97" stop-color="#7B4E2F"/>
</linearGradient>
<linearGradient id="paint51_linear_3467_5326" x1="57.4263" y1="92.0122" x2="35.6016" y2="69.2386" gradientUnits="userSpaceOnUse">
<stop stop-color="#513134"/>
<stop offset="0.99" stop-color="#563731"/>
</linearGradient>
<linearGradient id="paint52_linear_3467_5326" x1="45.9007" y1="110.559" x2="50.9426" y2="88.9542" gradientUnits="userSpaceOnUse">
<stop stop-color="#F05455"/>
<stop offset="0.41" stop-color="#F05753"/>
<stop offset="0.71" stop-color="#F2665C"/>
<stop offset="0.94" stop-color="#F37065"/>
</linearGradient>
<linearGradient id="paint53_linear_3467_5326" x1="90.8116" y1="89.2752" x2="94.6391" y2="94.9199" gradientUnits="userSpaceOnUse">
<stop stop-color="#FBC3AA"/>
<stop offset="0.26" stop-color="#FCCFC6"/>
<stop offset="0.34" stop-color="#FCD4D1"/>
<stop offset="0.7" stop-color="#FDDED0"/>
<stop offset="1" stop-color="#FEE2CC"/>
</linearGradient>
<linearGradient id="paint54_linear_3467_5326" x1="46.339" y1="104.96" x2="41.4272" y2="83.6567" gradientUnits="userSpaceOnUse">
<stop stop-color="#F05455"/>
<stop offset="0.41" stop-color="#F05753"/>
<stop offset="0.71" stop-color="#F2665C"/>
<stop offset="0.94" stop-color="#F37065"/>
</linearGradient>
<linearGradient id="paint55_linear_3467_5326" x1="86.9883" y1="81.725" x2="85.1489" y2="90.5218" gradientUnits="userSpaceOnUse">
<stop stop-color="#F05753"/>
<stop offset="0.48" stop-color="#F2665C"/>
<stop offset="0.94" stop-color="#F37065"/>
</linearGradient>
<linearGradient id="paint56_linear_3467_5326" x1="81.9506" y1="109.081" x2="83.0167" y2="92.2074" gradientUnits="userSpaceOnUse">
<stop stop-color="#F05455"/>
<stop offset="0.41" stop-color="#F05753"/>
<stop offset="0.71" stop-color="#F2665C"/>
<stop offset="0.94" stop-color="#F37065"/>
</linearGradient>
<linearGradient id="paint57_linear_3467_5326" x1="56.1187" y1="79.903" x2="60.3184" y2="96.2312" gradientUnits="userSpaceOnUse">
<stop stop-color="#F05455"/>
<stop offset="0.33" stop-color="#F05753"/>
<stop offset="0.63" stop-color="#F2665C"/>
<stop offset="0.94" stop-color="#F37065"/>
</linearGradient>
<linearGradient id="paint58_linear_3467_5326" x1="60.8278" y1="86.8155" x2="61.523" y2="100.705" gradientUnits="userSpaceOnUse">
<stop stop-color="#FBC3AA"/>
<stop offset="0.54" stop-color="#FCD7C6"/>
<stop offset="0.7" stop-color="#FDDED0"/>
<stop offset="1" stop-color="#FEE2CC"/>
</linearGradient>
<linearGradient id="paint59_linear_3467_5326" x1="55.2259" y1="102.528" x2="75.492" y2="124.525" gradientUnits="userSpaceOnUse">
<stop stop-color="#6FA0CC"/>
<stop offset="0.32" stop-color="#7DB7D1"/>
<stop offset="0.53" stop-color="#89C5D2"/>
<stop offset="0.75" stop-color="#97D0CB"/>
<stop offset="1" stop-color="#A6DACD"/>
</linearGradient>
<linearGradient id="paint60_linear_3467_5326" x1="57.2696" y1="121.626" x2="56.2251" y2="134.23" gradientUnits="userSpaceOnUse">
<stop stop-color="#FBC3AA"/>
<stop offset="0.26" stop-color="#FCCFC6"/>
<stop offset="0.34" stop-color="#FCD4D1"/>
<stop offset="0.7" stop-color="#FDDED0"/>
<stop offset="1" stop-color="#FEE2CC"/>
</linearGradient>
<linearGradient id="paint61_linear_3467_5326" x1="70.9707" y1="77.9389" x2="70.8353" y2="84.7089" gradientUnits="userSpaceOnUse">
<stop stop-color="#FBC3AA"/>
<stop offset="0.26" stop-color="#FCCFC6"/>
<stop offset="0.34" stop-color="#FCD4D1"/>
<stop offset="0.7" stop-color="#FDDED0"/>
<stop offset="1" stop-color="#FEE2CC"/>
</linearGradient>
<linearGradient id="paint62_linear_3467_5326" x1="45.691" y1="82.4969" x2="39.0981" y2="88.6878" gradientUnits="userSpaceOnUse">
<stop stop-color="#F05753"/>
<stop offset="0.48" stop-color="#F2665C"/>
<stop offset="0.94" stop-color="#F37065"/>
</linearGradient>
<linearGradient id="paint63_linear_3467_5326" x1="45.071" y1="113.983" x2="55.7767" y2="100.614" gradientUnits="userSpaceOnUse">
<stop stop-color="#F05455"/>
<stop offset="0.41" stop-color="#F05753"/>
<stop offset="0.71" stop-color="#F2665C"/>
<stop offset="0.94" stop-color="#F37065"/>
</linearGradient>
<linearGradient id="paint64_linear_3467_5326" x1="38.6293" y1="73.3265" x2="43.3193" y2="73.3265" gradientUnits="userSpaceOnUse">
<stop stop-color="#FBC3AA"/>
<stop offset="0.32" stop-color="#FCCFC6"/>
<stop offset="0.43" stop-color="#FCD4D1"/>
<stop offset="1" stop-color="#FDDED0"/>
</linearGradient>
<linearGradient id="paint65_linear_3467_5326" x1="42.3929" y1="65.1091" x2="78.064" y2="73.1675" gradientUnits="userSpaceOnUse">
<stop stop-color="#FBC3AA"/>
<stop offset="0.26" stop-color="#FCCFC6"/>
<stop offset="0.34" stop-color="#FCD4D1"/>
<stop offset="0.7" stop-color="#FDDED0"/>
<stop offset="1" stop-color="#FEE2CC"/>
</linearGradient>
<linearGradient id="paint66_linear_3467_5326" x1="41.1998" y1="56.7365" x2="65.8898" y2="56.7365" gradientUnits="userSpaceOnUse">
<stop stop-color="#513134"/>
<stop offset="0.99" stop-color="#563731"/>
</linearGradient>
<linearGradient id="paint67_linear_3467_5326" x1="72.857" y1="74.5719" x2="65.0637" y2="43.0741" gradientUnits="userSpaceOnUse">
<stop offset="0.17" stop-color="#6F472A"/>
<stop offset="0.33" stop-color="#68432B"/>
<stop offset="0.65" stop-color="#5D3D2D"/>
<stop offset="0.73" stop-color="#5A3B2E"/>
<stop offset="1" stop-color="#563731"/>
</linearGradient>
<linearGradient id="paint68_linear_3467_5326" x1="55.5564" y1="79.2133" x2="64.0382" y2="80.3676" gradientUnits="userSpaceOnUse">
<stop stop-color="#A82824"/>
<stop offset="0.39" stop-color="#8C2C22"/>
<stop offset="1" stop-color="#852E1E"/>
</linearGradient>
<linearGradient id="paint69_linear_3467_5326" x1="58.3598" y1="81.2298" x2="65.494" y2="82.2007" gradientUnits="userSpaceOnUse">
<stop stop-color="#F1637F"/>
<stop offset="0.49" stop-color="#F37F95"/>
<stop offset="1" stop-color="#F6A2B0"/>
</linearGradient>
<linearGradient id="paint70_linear_3467_5326" x1="63.8274" y1="63.0822" x2="71.8161" y2="64.887" gradientUnits="userSpaceOnUse">
<stop stop-color="#513134"/>
<stop offset="0.99" stop-color="#563731"/>
</linearGradient>
<linearGradient id="paint71_linear_3467_5326" x1="55.5781" y1="62.7765" x2="47.4898" y2="64.002" gradientUnits="userSpaceOnUse">
<stop stop-color="#513134"/>
<stop offset="0.99" stop-color="#563731"/>
</linearGradient>
<linearGradient id="paint72_linear_3467_5326" x1="72.64" y1="140.786" x2="52.64" y2="71.9365" gradientUnits="userSpaceOnUse">
<stop stop-color="#CCCCCC"/>
<stop offset="1" stop-color="#F1F2F2"/>
</linearGradient>
</defs>
</svg>
