<svg width="225" height="176" viewBox="0 0 225 176" fill="none" xmlns="http://www.w3.org/2000/svg">
<path d="M34.2285 108.004C33.674 109.596 33.17 111.187 32.8676 112.875C29.6417 129.945 41.4363 146.292 59.2796 149.378C77.1228 152.464 94.21 141.18 97.4359 124.11C99.452 113.453 95.6213 103.086 88.0606 95.9973C94.8148 89.3428 99.6032 80.7595 101.468 70.9224C106.509 44.4974 88.1614 19.1814 60.5397 14.4076C32.918 9.58547 6.45556 27.1379 1.46551 53.5629C-3.0205 77.2876 11.2944 100.096 34.2285 108.004ZM123.344 113.067C123.243 103.809 125.914 94.406 131.61 86.0155C146.933 63.4964 178.436 57.1795 201.925 71.8386C225.464 86.4977 232.067 116.636 216.744 139.107C202.983 159.311 176.218 166.496 153.889 157.141C153.183 158.684 152.326 160.131 151.369 161.578C141.489 176.092 121.126 180.191 105.954 170.74C90.7824 161.288 86.4981 141.807 96.3774 127.293C102.527 118.275 112.809 113.26 123.344 113.067Z" fill="url(#paint0_linear_1997_9019)"/>
<path d="M177.175 26.2227L127.375 61.1828" stroke="#8B6339" stroke-width="0.2318" stroke-miterlimit="10"/>
<path d="M174.809 31.3337C176.786 31.3337 178.388 29.8009 178.388 27.91C178.388 26.0192 176.786 24.4863 174.809 24.4863C172.833 24.4863 171.23 26.0192 171.23 27.91C171.23 29.8009 172.833 31.3337 174.809 31.3337Z" fill="#56AEB8"/>
<path d="M116.289 0.617188L123.043 59.3984" stroke="#8B6339" stroke-width="0.2318" stroke-miterlimit="10"/>
<path d="M116.637 6.8376C118.614 6.8376 120.216 5.30476 120.216 3.41391C120.216 1.52306 118.614 -0.00976562 116.637 -0.00976562C114.661 -0.00976562 113.059 1.52306 113.059 3.41391C113.059 5.30476 114.661 6.8376 116.637 6.8376Z" fill="#56AEB8"/>
<path d="M124.449 79.892C134.86 79.892 143.3 71.8176 143.3 61.8574C143.3 51.8971 134.86 43.8228 124.449 43.8228C114.038 43.8228 105.598 51.8971 105.598 61.8574C105.598 71.8176 114.038 79.892 124.449 79.892Z" fill="#56AEB8"/>
<path d="M118.706 125.798C112.204 139.975 96.6286 157.817 82.5657 162.735C79.5918 163.796 76.2651 162.398 75.0554 159.601C69.3597 146.34 72.5856 123.29 79.0878 109.162C86.3964 93.2971 104.139 74.7321 120.42 70.6333C128.283 84.8585 125.964 109.933 118.706 125.798Z" fill="#56AEB8"/>
<defs>
<linearGradient id="paint0_linear_1997_9019" x1="250.687" y1="202.016" x2="-32.3083" y2="-28.8095" gradientUnits="userSpaceOnUse">
<stop stop-color="#0A73B8"/>
<stop offset="0.141" stop-color="#1078B8"/>
<stop offset="0.3324" stop-color="#2186B8"/>
<stop offset="0.5527" stop-color="#3E9CB9"/>
<stop offset="0.7929" stop-color="#65BCB9"/>
<stop offset="0.8347" stop-color="#6DC2B9"/>
</linearGradient>
</defs>
</svg>
