<svg width="332" height="255" viewBox="0 0 332 255" fill="none" xmlns="http://www.w3.org/2000/svg">
<path d="M73.8869 105.403C98.1292 105.403 117.781 85.7502 117.781 61.5079C117.781 37.2656 98.1292 17.6132 73.8869 17.6132C49.6445 17.6132 29.9922 37.2656 29.9922 61.5079C29.9922 85.7502 49.6445 105.403 73.8869 105.403Z" fill="#82B249"/>
<path d="M131.974 90.2209C151.842 90.2209 167.948 74.1149 167.948 54.2471C167.948 34.3793 151.842 18.2733 131.974 18.2733C112.106 18.2733 96 34.3793 96 54.2471C96 74.1149 112.106 90.2209 131.974 90.2209Z" fill="#82B249"/>
<path d="M250.786 97.4817C271.383 97.4817 288.08 80.6368 288.08 59.8577C288.08 39.0785 271.383 22.2337 250.786 22.2337C230.189 22.2337 213.492 39.0785 213.492 59.8577C213.492 80.6368 230.189 97.4817 250.786 97.4817Z" fill="#82B249"/>
<path d="M232.304 160.188C258.734 160.188 280.159 138.911 280.159 112.663C280.159 86.4159 258.734 65.1383 232.304 65.1383C205.875 65.1383 184.449 86.4159 184.449 112.663C184.449 138.911 205.875 160.188 232.304 160.188Z" fill="#82B249"/>
<path d="M187.425 171.41C213.855 171.41 235.28 149.984 235.28 123.554C235.28 97.1248 213.855 75.6994 187.425 75.6994C160.996 75.6994 139.57 97.1248 139.57 123.554C139.57 149.984 160.996 171.41 187.425 171.41Z" fill="#82B249"/>
<path d="M287.225 149.789C311.649 149.789 331.449 130.137 331.449 105.895C331.449 81.6523 311.649 62 287.225 62C262.8 62 243 81.6523 243 105.895C243 130.137 262.8 149.789 287.225 149.789Z" fill="#82B249"/>
<path d="M257.974 225.288C277.842 225.288 293.948 209.329 293.948 189.644C293.948 169.958 277.842 154 257.974 154C238.106 154 222 169.958 222 189.644C222 209.329 238.106 225.288 257.974 225.288Z" fill="#82B249"/>
<path d="M203.974 212.288C223.842 212.288 239.948 196.329 239.948 176.644C239.948 156.958 223.842 141 203.974 141C184.106 141 168 156.958 168 176.644C168 196.329 184.106 212.288 203.974 212.288Z" fill="#82B249"/>
<path d="M214.974 254.288C234.842 254.288 250.948 238.329 250.948 218.644C250.948 198.958 234.842 183 214.974 183C195.106 183 179 198.958 179 218.644C179 238.329 195.106 254.288 214.974 254.288Z" fill="#82B249"/>
<path d="M39.9738 215.948C59.8416 215.948 75.9476 199.841 75.9476 179.974C75.9476 160.106 59.8416 144 39.9738 144C20.106 144 4 160.106 4 179.974C4 199.841 20.106 215.948 39.9738 215.948Z" fill="#82B249"/>
<path d="M278.974 190.948C298.842 190.948 314.948 174.841 314.948 154.974C314.948 135.106 298.842 119 278.974 119C259.106 119 243 135.106 243 154.974C243 174.841 259.106 190.948 278.974 190.948Z" fill="#82B249"/>
<path d="M145.506 206.393C168.108 206.393 186.431 188.071 186.431 165.469C186.431 142.867 168.108 124.545 145.506 124.545C122.904 124.545 104.582 142.867 104.582 165.469C104.582 188.071 122.904 206.393 145.506 206.393Z" fill="#82B249"/>
<path d="M147.924 249.849C170.526 249.849 188.849 231.526 188.849 208.924C188.849 186.323 170.526 168 147.924 168C125.322 168 107 186.323 107 208.924C107 231.526 125.322 249.849 147.924 249.849Z" fill="#82B249"/>
<path d="M82.9243 251.849C105.526 251.849 123.849 233.526 123.849 210.924C123.849 188.323 105.526 170 82.9243 170C60.3224 170 42 188.323 42 210.924C42 233.526 60.3224 251.849 82.9243 251.849Z" fill="#82B249"/>
<path d="M90.9243 209.849C113.526 209.849 131.849 191.526 131.849 168.924C131.849 146.323 113.526 128 90.9243 128C68.3224 128 50 146.323 50 168.924C50 191.526 68.3224 209.849 90.9243 209.849Z" fill="#82B249"/>
<path d="M124.384 163.489C153.183 163.489 176.529 140.142 176.529 111.343C176.529 82.544 153.183 59.1977 124.384 59.1977C95.5846 59.1977 72.2383 82.544 72.2383 111.343C72.2383 140.142 95.5846 163.489 124.384 163.489Z" fill="#82B249"/>
<path d="M52.1046 170.749C80.7215 170.749 103.92 147.551 103.92 118.934C103.92 90.3171 80.7215 67.1185 52.1046 67.1185C23.4877 67.1185 0.289062 90.3171 0.289062 118.934C0.289062 147.551 23.4877 170.749 52.1046 170.749Z" fill="#82B249"/>
<path d="M201.94 111.343C232.38 111.343 257.056 86.5191 257.056 55.8972C257.056 25.2754 232.38 0.451416 201.94 0.451416C171.5 0.451416 146.824 25.2754 146.824 55.8972C146.824 86.5191 171.5 111.343 201.94 111.343Z" fill="#82B249"/>
<path d="M28.7502 122.327C31.1167 118.228 36.358 116.824 40.4569 119.19C38.0904 123.289 32.8491 124.693 28.7502 122.327Z" fill="#73954B"/>
<path d="M218.612 26.4656C214.209 28.2038 209.232 26.044 207.493 21.6417C211.896 19.9036 216.874 22.0634 218.612 26.4656Z" fill="#73954B"/>
<path d="M304.623 102.676C300.221 104.414 295.243 102.254 293.505 97.8522C297.907 96.1141 302.885 98.2738 304.623 102.676Z" fill="#73954B"/>
<path d="M302.119 154.971C297.717 156.709 292.739 154.549 291.001 150.147C295.404 148.409 300.381 150.569 302.119 154.971Z" fill="#73954B"/>
</svg>
