<svg width="1176" height="872" viewBox="0 0 1176 872" fill="none" xmlns="http://www.w3.org/2000/svg">
<path d="M992.613 568.147C1093.75 568.147 1175.74 486.159 1175.74 385.022C1175.74 283.885 1093.75 201.897 992.613 201.897C891.476 201.897 809.488 283.885 809.488 385.022C809.488 486.159 891.476 568.147 992.613 568.147Z" fill="#8BC54F"/>
<path d="M822.716 388.837C906.023 388.837 973.557 321.303 973.557 237.996C973.557 154.689 906.023 87.1553 822.716 87.1553C739.409 87.1553 671.875 154.689 671.875 237.996C671.875 321.303 739.409 388.837 822.716 388.837Z" fill="#8BC54F"/>
<path d="M968.556 758.733C1051.86 758.733 1119.4 691.199 1119.4 607.892C1119.4 524.585 1051.86 457.051 968.556 457.051C885.249 457.051 817.715 524.585 817.715 607.892C817.715 691.199 885.249 758.733 968.556 758.733Z" fill="#8BC54F"/>
<path d="M150.841 658.273C234.148 658.273 301.682 590.739 301.682 507.432C301.682 424.125 234.148 356.591 150.841 356.591C67.5338 356.591 0 424.125 0 507.432C0 590.739 67.5338 658.273 150.841 658.273Z" fill="#8BC54F"/>
<path d="M244.478 433.073C312.217 433.073 367.131 378.159 367.131 310.42C367.131 242.68 312.217 187.766 244.478 187.766C176.738 187.766 121.824 242.68 121.824 310.42C121.824 378.159 176.738 433.073 244.478 433.073Z" fill="#8BC54F"/>
<path d="M771.528 869.285C839.268 869.285 894.182 814.371 894.182 746.631C894.182 678.892 839.268 623.978 771.528 623.978C703.789 623.978 648.875 678.892 648.875 746.631C648.875 814.371 703.789 869.285 771.528 869.285Z" fill="#8BC54F"/>
<path d="M291.946 829.39C375.254 829.39 442.787 761.857 442.787 678.549C442.787 595.242 375.254 527.708 291.946 527.708C208.639 527.708 141.105 595.242 141.105 678.549C141.105 761.857 208.639 829.39 291.946 829.39Z" fill="#8BC54F"/>
<path d="M533.341 871.785C616.648 871.785 684.182 804.251 684.182 720.944C684.182 637.636 616.648 570.103 533.341 570.103C450.034 570.103 382.5 637.636 382.5 720.944C382.5 804.251 450.034 871.785 533.341 871.785Z" fill="#8BC54F"/>
<path d="M599.978 707.601C683.285 707.601 750.819 640.067 750.819 556.76C750.819 473.453 683.285 405.919 599.978 405.919C516.671 405.919 449.137 473.453 449.137 556.76C449.137 640.067 516.671 707.601 599.978 707.601Z" fill="#8BC54F"/>
<path d="M401.552 646.114C484.859 646.114 552.393 578.58 552.393 495.273C552.393 411.966 484.859 344.432 401.552 344.432C318.245 344.432 250.711 411.966 250.711 495.273C250.711 578.58 318.245 646.114 401.552 646.114Z" fill="#8BC54F"/>
<path d="M749.69 706.643C870.203 706.643 967.899 608.947 967.899 488.433C967.899 367.92 870.203 270.224 749.69 270.224C629.176 270.224 531.48 367.92 531.48 488.433C531.48 608.947 629.176 706.643 749.69 706.643Z" fill="#8BC54F"/>
<path d="M513.084 436.418C633.598 436.418 731.293 338.723 731.293 218.209C731.293 97.6956 633.598 0 513.084 0C392.571 0 294.875 97.6956 294.875 218.209C294.875 338.723 392.571 436.418 513.084 436.418Z" fill="#8BC54F"/>
<path d="M1054.59 364.659C1059.15 359.73 1060.72 353.769 1058.1 351.344C1055.48 348.92 1049.66 350.951 1045.1 355.88C1040.54 360.809 1038.96 366.77 1041.59 369.195C1044.21 371.619 1050.03 369.589 1054.59 364.659Z" fill="#7BAD53"/>
<path d="M242.747 294.705C247.307 289.776 248.878 283.814 246.258 281.39C243.637 278.965 237.816 280.996 233.256 285.925C228.696 290.855 227.124 296.816 229.745 299.24C232.366 301.665 238.187 299.634 242.747 294.705Z" fill="#7BAD53"/>
<path d="M768.232 767.717C762.417 764.36 756.255 764.144 754.47 767.236C752.685 770.328 755.952 775.556 761.768 778.914C767.583 782.271 773.744 782.486 775.529 779.394C777.314 776.303 774.047 771.074 768.232 767.717Z" fill="#7BAD53"/>
<path d="M343.994 662.079C338.178 658.722 332.017 658.507 330.232 661.599C328.447 664.69 331.714 669.918 337.529 673.276C343.344 676.633 349.506 676.849 351.291 673.757C353.076 670.665 349.809 665.437 343.994 662.079Z" fill="#7BAD53"/>
<path d="M616.994 114.079C611.178 110.722 605.017 110.507 603.232 113.599C601.447 116.69 604.714 121.918 610.529 125.276C616.344 128.633 622.506 128.849 624.291 125.757C626.076 122.665 622.809 117.437 616.994 114.079Z" fill="#7BAD53"/>
</svg>
