<svg viewBox="0 0 1113 680" fill="none" xmlns="http://www.w3.org/2000/svg">
<path d="M167.5 367C255.037 367 326 296.037 326 208.5C326 120.963 255.037 50 167.5 50C79.9629 50 9 120.963 9 208.5C9 296.037 79.9629 367 167.5 367Z" fill="#1E755B"/>
<path d="M375.5 318C463.037 318 534 246.813 534 159C534 71.1867 463.037 0 375.5 0C287.963 0 217 71.1867 217 159C217 246.813 287.963 318 375.5 318Z" fill="#1E755B"/>
<path d="M902.5 453C1013.79 453 1104 362.785 1104 251.5C1104 140.215 1013.79 50 902.5 50C791.215 50 701 140.215 701 251.5C701 362.785 791.215 453 902.5 453Z" fill="#1E755B"/>
<path d="M954.5 593C1042.04 593 1113 522.037 1113 434.5C1113 346.963 1042.04 276 954.5 276C866.963 276 796 346.963 796 434.5C796 522.037 866.963 593 954.5 593Z" fill="#1E755B"/>
<path d="M729 633C811.29 633 878 566.291 878 484C878 401.71 811.29 335 729 335C646.71 335 580 401.71 580 484C580 566.291 646.71 633 729 633Z" fill="#1E755B"/>
<path d="M168.5 562C261.56 562 337 486.56 337 393.5C337 300.44 261.56 225 168.5 225C75.44 225 0 300.44 0 393.5C0 486.56 75.44 562 168.5 562Z" fill="#1E755B"/>
<path d="M413.5 680C540.249 680 643 577.249 643 450.5C643 323.751 540.249 221 413.5 221C286.751 221 184 323.751 184 450.5C184 577.249 286.751 680 413.5 680Z" fill="#1E755B"/>
<path d="M620 408C718.307 408 798 328.307 798 230C798 131.693 718.307 52 620 52C521.693 52 442 131.693 442 230C442 328.307 521.693 408 620 408Z" fill="#1E755B"/>
<path d="M971.482 129.822C974.599 126.172 971.567 118.464 964.709 112.606C957.851 106.749 949.763 104.959 946.645 108.61C943.528 112.261 946.56 119.968 953.418 125.826C960.277 131.684 968.364 133.473 971.482 129.822Z" fill="#528C64"/>
<path d="M989.416 526.626C991.748 530.822 1000.03 530.673 1007.91 526.293C1015.8 521.913 1020.3 514.96 1017.97 510.763C1015.64 506.566 1007.35 506.715 999.47 511.096C991.586 515.476 987.085 522.429 989.416 526.626Z" fill="#528C64"/>
<path d="M330.345 94.8589C332.746 99.0165 341.024 98.7312 348.835 94.2216C356.646 89.7119 361.032 82.6856 358.631 78.528C356.231 74.3704 347.953 74.6558 340.142 79.1655C332.331 83.6751 327.945 90.7013 330.345 94.8589Z" fill="#528C64"/>
<path d="M71.3455 175.859C73.7459 180.016 82.0238 179.731 89.8347 175.222C97.6457 170.712 102.032 163.686 99.6314 159.528C97.231 155.37 88.9531 155.656 81.1421 160.165C73.3312 164.675 68.9451 171.701 71.3455 175.859Z" fill="#528C64"/>
<path d="M307.464 594.336C306.103 598.94 312.013 604.744 320.662 607.3C329.312 609.855 337.427 608.195 338.787 603.591C340.147 598.986 334.238 593.183 325.588 590.627C316.939 588.072 308.824 589.732 307.464 594.336Z" fill="#528C64"/>
</svg>
