<svg width="1145" height="748" viewBox="0 0 1145 748" fill="none" xmlns="http://www.w3.org/2000/svg">
<path d="M492.241 747.482C547.051 747.482 591.483 703.05 591.483 648.241C591.483 593.431 547.051 549 492.241 549C437.432 549 393 593.431 393 648.241C393 703.05 437.432 747.482 492.241 747.482Z" fill="#1E755B"/>
<path d="M798.812 198.482C853.621 198.482 898.053 154.05 898.053 99.2409C898.053 44.4314 853.621 -0.000488281 798.812 -0.000488281C744.002 -0.000488281 699.57 44.4314 699.57 99.2409C699.57 154.05 744.002 198.482 798.812 198.482Z" fill="#1E755B"/>
<path d="M1045.24 473.482C1100.05 473.482 1144.48 429.05 1144.48 374.241C1144.48 319.431 1100.05 275 1045.24 275C990.432 275 946 319.431 946 374.241C946 429.05 990.432 473.482 1045.24 473.482Z" fill="#1E755B"/>
<path d="M855.241 681.482C910.051 681.482 954.483 637.05 954.483 582.241C954.483 527.431 910.051 483 855.241 483C800.432 483 756 527.431 756 582.241C756 637.05 800.432 681.482 855.241 681.482Z" fill="#1E755B"/>
<path d="M975.144 354.829C1062.38 354.829 1133.09 284.113 1133.09 196.88C1133.09 109.647 1062.38 38.9312 975.144 38.9312C887.912 38.9312 817.195 109.647 817.195 196.88C817.195 284.113 887.912 354.829 975.144 354.829Z" fill="#1E755B"/>
<path d="M689.949 722.898C777.182 722.898 847.898 652.182 847.898 564.949C847.898 477.716 777.182 407 689.949 407C602.716 407 532 477.716 532 564.949C532 652.182 602.716 722.898 689.949 722.898Z" fill="#1E755B"/>
<path d="M1000 667C1076.22 667 1138 605.215 1138 528.999C1138 452.784 1076.22 391 1000 391C923.785 391 862 452.784 862 528.999C862 605.215 923.785 667 1000 667Z" fill="#1E755B"/>
<path d="M358.217 280.434C429.582 280.434 487.435 222.582 487.435 151.217C487.435 79.852 429.582 21.9995 358.217 21.9995C286.853 21.9995 229 79.852 229 151.217C229 222.582 286.853 280.434 358.217 280.434Z" fill="#1E755B"/>
<path d="M202.139 373.587C273.504 373.587 331.357 315.735 331.357 244.37C331.357 173.005 273.504 115.153 202.139 115.153C130.774 115.153 72.9219 173.005 72.9219 244.37C72.9219 315.735 130.774 373.587 202.139 373.587Z" fill="#1E755B"/>
<path d="M304.217 707.434C375.582 707.434 433.435 649.582 433.435 578.217C433.435 506.852 375.582 449 304.217 449C232.853 449 175 506.852 175 578.217C175 649.582 232.853 707.434 304.217 707.434Z" fill="#1E755B"/>
<path d="M806.051 623.726C905.446 623.726 986.02 543.152 986.02 443.757C986.02 344.363 905.446 263.788 806.051 263.788C706.657 263.788 626.082 344.363 626.082 443.757C626.082 543.152 706.657 623.726 806.051 623.726Z" fill="#1E755B"/>
<path d="M769.422 430.41C868.816 430.41 949.391 349.835 949.391 250.44C949.391 151.046 868.816 70.4712 769.422 70.4712C670.028 70.4712 589.453 151.046 589.453 250.44C589.453 349.835 670.028 430.41 769.422 430.41Z" fill="#1E755B"/>
<path d="M167.885 564.769C260.605 564.769 335.769 489.604 335.769 396.884C335.769 304.164 260.605 229 167.885 229C75.1645 229 0 304.164 0 396.884C0 489.604 75.1645 564.769 167.885 564.769Z" fill="#1E755B"/>
<path d="M579.935 340.708C672.655 340.708 747.82 265.544 747.82 172.823C747.82 80.1034 672.655 4.93896 579.935 4.93896C487.215 4.93896 412.051 80.1034 412.051 172.823C412.051 265.544 487.215 340.708 579.935 340.708Z" fill="#1E755B"/>
<path d="M463.122 677.42C589.307 677.42 691.6 575.128 691.6 448.943C691.6 322.758 589.307 220.465 463.122 220.465C336.937 220.465 234.645 322.758 234.645 448.943C234.645 575.128 336.937 677.42 463.122 677.42Z" fill="#1E755B"/>
<path d="M63.0004 456.002C68.7366 441.642 85.0284 434.65 99.3891 440.386V440.386V440.386C93.6529 454.747 77.3611 461.739 63.0004 456.002V456.002V456.002Z" fill="#4C8D43"/>
<path d="M527.325 650.044C512.941 655.723 496.678 648.666 490.999 634.283V634.283V634.283C505.382 628.604 521.646 635.66 527.325 650.044V650.044V650.044Z" fill="#4C8D43"/>
<path d="M365.325 121.044C350.941 126.723 334.678 119.666 328.999 105.283V105.283V105.283C343.382 99.6037 359.646 106.66 365.325 121.044V121.044V121.044Z" fill="#4C8D43"/>
<path d="M998.325 253.044C983.941 258.723 967.678 251.666 961.999 237.283V237.283V237.283C976.382 231.604 992.646 238.66 998.325 253.044V253.044V253.044Z" fill="#4C8D43"/>
<path d="M764.325 651.044C749.941 656.723 733.678 649.666 727.999 635.283V635.283V635.283C742.382 629.604 758.646 636.66 764.325 651.044V651.044V651.044Z" fill="#4C8D43"/>
</svg>
