<svg width="331" height="275" viewBox="0 0 331 275" fill="none" xmlns="http://www.w3.org/2000/svg">
<path d="M99 272C124.405 272 145 251.405 145 226C145 200.595 124.405 180 99 180C73.5949 180 53 200.595 53 226C53 251.405 73.5949 272 99 272Z" fill="#1E755B"/>
<path d="M213.004 76.0079C229.022 76.0079 242.008 63.0224 242.008 47.0039C242.008 30.9855 229.022 18 213.004 18C196.986 18 184 30.9855 184 47.0039C184 63.0224 196.986 76.0079 213.004 76.0079Z" fill="#1E755B"/>
<path d="M294.004 132.008C310.022 132.008 323.008 119.022 323.008 103.004C323.008 86.9855 310.022 74 294.004 74C277.986 74 265 86.9855 265 103.004C265 119.022 277.986 132.008 294.004 132.008Z" fill="#1E755B"/>
<path d="M294.004 168.008C310.022 168.008 323.008 155.022 323.008 139.004C323.008 122.986 310.022 110 294.004 110C277.986 110 265 122.986 265 139.004C265 155.022 277.986 168.008 294.004 168.008Z" fill="#1E755B"/>
<path d="M250.004 254.008C266.022 254.008 279.008 241.022 279.008 225.004C279.008 208.986 266.022 196 250.004 196C233.986 196 221 208.986 221 225.004C221 241.022 233.986 254.008 250.004 254.008Z" fill="#1E755B"/>
<path d="M249 130C279.376 130 304 105.376 304 75C304 44.6244 279.376 20 249 20C218.624 20 194 44.6244 194 75C194 105.376 218.624 130 249 130Z" fill="#1E755B"/>
<path d="M148.162 256.323C173.656 256.323 194.323 235.656 194.323 210.162C194.323 184.667 173.656 164 148.162 164C122.667 164 102 184.667 102 210.162C102 235.656 122.667 256.323 148.162 256.323Z" fill="#1E755B"/>
<path d="M178 275C215.555 275 246 244.555 246 207C246 169.445 215.555 139 178 139C140.445 139 110 169.445 110 207C110 244.555 140.445 275 178 275Z" fill="#1E755B"/>
<path d="M290.331 227.663C312.606 227.663 330.663 209.606 330.663 187.331C330.663 165.057 312.606 147 290.331 147C268.057 147 250 165.057 250 187.331C250 209.606 268.057 227.663 290.331 227.663Z" fill="#1E755B"/>
<path d="M96.5 128C127.152 128 152 103.152 152 72.5C152 41.8482 127.152 17 96.5 17C65.8482 17 41 41.8482 41 72.5C41 103.152 65.8482 128 96.5 128Z" fill="#1E755B"/>
<path d="M43.7646 133.529C64.6215 133.529 81.5292 116.621 81.5292 95.7646C81.5292 74.9078 64.6215 58 43.7646 58C22.9078 58 6 74.9078 6 95.7646C6 116.621 22.9078 133.529 43.7646 133.529Z" fill="#1E755B"/>
<path d="M43.7646 245.529C64.6214 245.529 81.5293 228.621 81.5293 207.765C81.5293 186.908 64.6214 170 43.7646 170C22.9078 170 6 186.908 6 207.765C6 228.621 22.9078 245.529 43.7646 245.529Z" fill="#1E755B"/>
<path d="M229.574 212.288C258.622 212.288 282.171 188.74 282.171 159.691C282.171 130.643 258.622 107.094 229.574 107.094C200.525 107.094 176.977 130.643 176.977 159.691C176.977 188.74 200.525 212.288 229.574 212.288Z" fill="#1E755B"/>
<path d="M218.871 155.79C247.919 155.79 271.468 132.242 271.468 103.193C271.468 74.1444 247.919 50.5958 218.871 50.5958C189.822 50.5958 166.273 74.1444 166.273 103.193C166.273 132.242 189.822 155.79 218.871 155.79Z" fill="#1E755B"/>
<path d="M49.0654 199.131C76.1634 199.131 98.1308 177.163 98.1308 150.065C98.1308 122.967 76.1634 101 49.0654 101C21.9673 101 0 122.967 0 150.065C0 177.163 21.9673 199.131 49.0654 199.131Z" fill="#1E755B"/>
<path d="M164.065 98.1307C191.163 98.1307 213.131 76.1634 213.131 49.0654C213.131 21.9673 191.163 0 164.065 0C136.967 0 115 21.9673 115 49.0654C115 76.1634 136.967 98.1307 164.065 98.1307Z" fill="#1E755B"/>
<path d="M120.774 207.548C157.652 207.548 187.548 177.652 187.548 140.774C187.548 103.896 157.652 74 120.774 74C83.8958 74 54 103.896 54 140.774C54 177.652 83.8958 207.548 120.774 207.548Z" fill="#1E755B"/>
</svg>
