<svg width="1074" height="701" viewBox="0 0 1074 701" fill="none" xmlns="http://www.w3.org/2000/svg">
<path d="M240 343C318.977 343 383 278.753 383 199.5C383 120.247 318.977 56 240 56C161.023 56 97 120.247 97 199.5C97 278.753 161.023 343 240 343Z" fill="#82B249"/>
<path d="M430.5 294C495.393 294 548 241.394 548 176.5C548 111.607 495.393 59 430.5 59C365.607 59 313 111.607 313 176.5C313 241.394 365.607 294 430.5 294Z" fill="#82B249"/>
<path d="M818.5 317C886.155 317 941 261.931 941 194C941 126.069 886.155 71 818.5 71C750.845 71 696 126.069 696 194C696 261.931 750.845 317 818.5 317Z" fill="#82B249"/>
<path d="M758 523C844.709 523 915 453.156 915 367C915 280.843 844.709 211 758 211C671.291 211 601 280.843 601 367C601 453.156 671.291 523 758 523Z" fill="#82B249"/>
<path d="M611 558C697.709 558 768 488.156 768 402C768 315.843 697.709 246 611 246C524.291 246 454 315.843 454 402C454 488.156 524.291 558 611 558Z" fill="#82B249"/>
<path d="M930 471C1009.53 471 1074 406.529 1074 327C1074 247.471 1009.53 183 930 183C850.471 183 786 247.471 786 327C786 406.529 850.471 471 930 471Z" fill="#82B249"/>
<path d="M687.5 701C752.393 701 805 648.617 805 584C805 519.383 752.393 467 687.5 467C622.607 467 570 519.383 570 584C570 648.617 622.607 701 687.5 701Z" fill="#82B249"/>
<path d="M892.5 675C957.393 675 1010 622.394 1010 557.5C1010 492.606 957.393 440 892.5 440C827.606 440 775 492.606 775 557.5C775 622.394 827.606 675 892.5 675Z" fill="#82B249"/>
<path d="M266 692C330.617 692 383 639.393 383 574.5C383 509.606 330.617 457 266 457C201.383 457 149 509.606 149 574.5C149 639.393 201.383 692 266 692Z" fill="#82B249"/>
<path d="M474.5 673C548.782 673 609 613.006 609 539C609 464.994 548.782 405 474.5 405C400.218 405 340 464.994 340 539C340 613.006 400.218 673 474.5 673Z" fill="#82B249"/>
<path d="M405 532C498.888 532 575 455.664 575 361.5C575 267.335 498.888 191 405 191C311.112 191 235 267.335 235 361.5C235 455.664 311.112 532 405 532Z" fill="#82B249"/>
<path d="M169.5 557C263.112 557 339 480.888 339 387C339 293.112 263.112 217 169.5 217C75.8878 217 0 293.112 0 387C0 480.888 75.8878 557 169.5 557Z" fill="#82B249"/>
<path d="M659 362C758.963 362 840 280.963 840 181C840 81.0364 758.963 0 659 0C559.036 0 478 81.0364 478 181C478 280.963 559.036 362 659 362Z" fill="#82B249"/>
<path d="M62 447.249C69.732 433.857 86.8565 429.268 100.249 437V437V437C92.5167 450.392 75.3922 454.981 62 447.249V447.249V447.249Z" fill="#73954B"/>
<path d="M260.325 627.044C245.941 632.723 229.678 625.666 223.999 611.283V611.283V611.283C238.382 605.604 254.646 612.66 260.325 627.044V627.044V627.044Z" fill="#73954B"/>
<path d="M448.325 215.044C433.941 220.723 417.678 213.666 411.999 199.283V199.283V199.283C426.382 193.604 442.646 200.66 448.325 215.044V215.044V215.044Z" fill="#73954B"/>
<path d="M963.325 383.044C948.941 388.723 932.678 381.666 926.999 367.283V367.283V367.283C941.382 361.604 957.646 368.66 963.325 383.044V383.044V383.044Z" fill="#73954B"/>
<path d="M929.325 627.044C914.941 632.723 898.678 625.666 892.999 611.283V611.283V611.283C907.382 605.604 923.646 612.66 929.325 627.044V627.044V627.044Z" fill="#73954B"/>
</svg>
