<svg width="1223" height="799" viewBox="0 0 1223 799" fill="none" xmlns="http://www.w3.org/2000/svg">
<path d="M1028 720C1114.16 720 1184 650.157 1184 564C1184 477.844 1114.16 408 1028 408C941.844 408 872 477.844 872 564C872 650.157 941.844 720 1028 720Z" fill="#4C8D43"/>
<path d="M531 778C593.96 778 645 726.96 645 664C645 601.039 593.96 550 531 550C468.039 550 417 601.039 417 664C417 726.96 468.039 778 531 778Z" fill="#4C8D43"/>
<path d="M114.5 548C177.737 548 229 496.737 229 433.5C229 370.263 177.737 319 114.5 319C51.2634 319 0 370.263 0 433.5C0 496.737 51.2634 548 114.5 548Z" fill="#4C8D43"/>
<path d="M356 231C418.96 231 470 179.96 470 117C470 54.0396 418.96 3 356 3C293.039 3 242 54.0396 242 117C242 179.96 293.039 231 356 231Z" fill="#4C8D43"/>
<path d="M474 277C536.96 277 588 225.96 588 163C588 100.039 536.96 49 474 49C411.039 49 360 100.039 360 163C360 225.96 411.039 277 474 277Z" fill="#4C8D43"/>
<path d="M229.5 444C334.158 444 419 358.934 419 254C419 149.066 334.158 64 229.5 64C124.842 64 40 149.066 40 254C40 358.934 124.842 444 229.5 444Z" fill="#4C8D43"/>
<path d="M881.5 361C967.933 361 1038 291.156 1038 205C1038 118.843 967.933 49 881.5 49C795.067 49 725 118.843 725 205C725 291.156 795.067 361 881.5 361Z" fill="#4C8D43"/>
<path d="M1055 471C1147.78 471 1223 396.008 1223 303.5C1223 210.992 1147.78 136 1055 136C962.216 136 887 210.992 887 303.5C887 396.008 962.216 471 1055 471Z" fill="#4C8D43"/>
<path d="M684 336C776.784 336 852 260.784 852 168C852 75.2161 776.784 0 684 0C591.216 0 516 75.2161 516 168C516 260.784 591.216 336 684 336Z" fill="#4C8D43"/>
<path d="M823 554C915.784 554 991 479.008 991 386.5C991 293.992 915.784 219 823 219C730.216 219 655 293.992 655 386.5C655 479.008 730.216 554 823 554Z" fill="#4C8D43"/>
<path d="M792 799C878.157 799 948 729.156 948 643C948 556.843 878.157 487 792 487C705.844 487 636 556.843 636 643C636 729.156 705.844 799 792 799Z" fill="#4C8D43"/>
<path d="M291.5 784C392.292 784 474 702.516 474 602C474 501.484 392.292 420 291.5 420C190.708 420 109 501.484 109 602C109 702.516 190.708 784 291.5 784Z" fill="#4C8D43"/>
<path d="M526 679C650.816 679 752 577.816 752 453C752 328.184 650.816 227 526 227C401.184 227 300 328.184 300 453C300 577.816 401.184 679 526 679Z" fill="#4C8D43"/>
<path d="M1049.25 593.324C1054.15 587.439 1055.58 580.557 1052.45 577.954C1049.32 575.35 1042.82 578.01 1037.92 583.895C1033.02 589.781 1031.59 596.662 1034.72 599.266C1037.85 601.869 1044.36 599.209 1049.25 593.324Z" fill="#7BAD53"/>
<path d="M1119.98 341.495C1121.87 337.889 1117.9 332.086 1111.12 328.535C1104.34 324.983 1097.31 325.028 1095.42 328.634C1093.53 332.24 1097.5 338.043 1104.28 341.594C1111.06 345.146 1118.09 345.102 1119.98 341.495Z" fill="#7BAD53"/>
<path d="M689.536 60.1616C691.556 56.0639 686.952 49.6659 679.254 45.8711C671.556 42.0763 663.677 42.3218 661.657 46.4195C659.637 50.5172 664.241 56.9155 671.939 60.7102C679.638 64.505 687.516 64.2593 689.536 60.1616Z" fill="#7BAD53"/>
<path d="M539.536 733.162C541.556 729.064 536.952 722.666 529.254 718.871C521.556 715.076 513.677 715.322 511.657 719.419C509.637 723.517 514.241 729.915 521.939 733.71C529.638 737.505 537.516 737.259 539.536 733.162Z" fill="#7BAD53"/>
<path d="M200.095 226.301C202.809 223.79 201.181 217.616 196.459 212.51C191.736 207.405 185.708 205.302 182.993 207.813C180.279 210.324 181.907 216.498 186.629 221.603C191.352 226.709 197.38 228.812 200.095 226.301Z" fill="#7BAD53"/>
<path d="M164.635 449.212C166.524 445.606 162.557 439.803 155.775 436.251C148.993 432.7 141.964 432.744 140.076 436.351C138.187 439.957 142.154 445.76 148.936 449.311C155.718 452.863 162.747 452.818 164.635 449.212Z" fill="#7BAD53"/>
</svg>
