<svg width="320" height="286" viewBox="0 0 320 286" fill="none" xmlns="http://www.w3.org/2000/svg">
<path d="M74.2666 84.5331C97.0575 84.5331 115.533 66.0575 115.533 43.2666C115.533 20.4757 97.0575 2 74.2666 2C51.4757 2 33 20.4757 33 43.2666C33 66.0575 51.4757 84.5331 74.2666 84.5331Z" fill="#4B8E42"/>
<path d="M93.2666 126.533C116.057 126.533 134.533 108.057 134.533 85.2666C134.533 62.4757 116.057 44 93.2666 44C70.4757 44 52 62.4757 52 85.2666C52 108.057 70.4757 126.533 93.2666 126.533Z" fill="#4B8E42"/>
<path d="M138.128 88.2561C159.738 88.2561 177.256 70.7379 177.256 49.128C177.256 27.5182 159.738 10 138.128 10C116.518 10 99 27.5182 99 49.128C99 70.7379 116.518 88.2561 138.128 88.2561Z" fill="#4B8E42"/>
<path d="M150.128 134.256C171.738 134.256 189.256 116.738 189.256 95.128C189.256 73.5182 171.738 56 150.128 56C128.518 56 111 73.5182 111 95.128C111 116.738 128.518 134.256 150.128 134.256Z" fill="#4B8E42"/>
<path d="M254.993 97.9869C282.052 97.9869 303.987 76.0518 303.987 48.9935C303.987 21.9351 282.052 0 254.993 0C227.935 0 206 21.9351 206 48.9935C206 76.0518 227.935 97.9869 254.993 97.9869Z" fill="#4B8E42"/>
<path d="M253.993 148.987C281.052 148.987 302.987 127.052 302.987 99.9935C302.987 72.9351 281.052 51 253.993 51C226.935 51 205 72.9351 205 99.9935C205 127.052 226.935 148.987 253.993 148.987Z" fill="#4B8E42"/>
<path d="M89.3776 276.755C106.707 276.755 120.755 262.707 120.755 245.378C120.755 228.048 106.707 214 89.3776 214C72.0483 214 58 228.048 58 245.378C58 262.707 72.0483 276.755 89.3776 276.755Z" fill="#4B8E42"/>
<path d="M48.3776 279.755C65.707 279.755 79.7553 265.707 79.7553 248.378C79.7553 231.048 65.707 217 48.3776 217C31.0483 217 17 231.048 17 248.378C17 265.707 31.0483 279.755 48.3776 279.755Z" fill="#4B8E42"/>
<path d="M276.704 178.278C300.388 178.278 319.587 159.078 319.587 135.395C319.587 111.711 300.388 92.5112 276.704 92.5112C253.02 92.5112 233.82 111.711 233.82 135.395C233.82 159.078 253.02 178.278 276.704 178.278Z" fill="#4B8E42"/>
<path d="M35.0343 184.026C54.3832 184.026 70.0686 168.341 70.0686 148.992C70.0686 129.643 54.3832 113.958 35.0343 113.958C15.6854 113.958 0 129.643 0 148.992C0 168.341 15.6854 184.026 35.0343 184.026Z" fill="#4B8E42"/>
<path d="M47.0714 245.143C70.8591 245.143 90.1428 225.859 90.1428 202.071C90.1428 178.284 70.8591 159 47.0714 159C23.2837 159 4 178.284 4 202.071C4 225.859 23.2837 245.143 47.0714 245.143Z" fill="#4B8E42"/>
<path d="M70.0714 210.143C93.8591 210.143 113.143 190.859 113.143 167.071C113.143 143.284 93.8591 124 70.0714 124C46.2837 124 27 143.284 27 167.071C27 190.859 46.2837 210.143 70.0714 210.143Z" fill="#4B8E42"/>
<path d="M210.816 153.72C227.164 153.72 240.417 140.467 240.417 124.119C240.417 107.771 227.164 94.5181 210.816 94.5181C194.468 94.5181 181.215 107.771 181.215 124.119C181.215 140.467 194.468 153.72 210.816 153.72Z" fill="#4B8E42"/>
<path d="M218.874 179.518C235.223 179.518 248.475 166.266 248.475 149.917C248.475 133.569 235.223 120.316 218.874 120.316C202.526 120.316 189.273 133.569 189.273 149.917C189.273 166.266 202.526 179.518 218.874 179.518Z" fill="#4B8E42"/>
<path d="M232.895 251.848C261.329 251.848 284.379 228.797 284.379 200.363C284.379 171.929 261.329 148.879 232.895 148.879C204.461 148.879 181.41 171.929 181.41 200.363C181.41 228.797 204.461 251.848 232.895 251.848Z" fill="#4B8E42"/>
<path d="M252.485 274.969C280.919 274.969 303.969 251.919 303.969 223.484C303.969 195.05 280.919 172 252.485 172C224.05 172 201 195.05 201 223.484C201 251.919 224.05 274.969 252.485 274.969Z" fill="#4B8E42"/>
<path d="M282.791 213.688C299.225 213.688 312.547 200.366 312.547 183.932C312.547 167.498 299.225 154.176 282.791 154.176C266.357 154.176 253.035 167.498 253.035 183.932C253.035 200.366 266.357 213.688 282.791 213.688Z" fill="#4B8E42"/>
<path d="M170.876 185.102C196.987 185.102 218.154 163.935 218.154 137.824C218.154 111.713 196.987 90.5464 170.876 90.5464C144.765 90.5464 123.598 111.713 123.598 137.824C123.598 163.935 144.765 185.102 170.876 185.102Z" fill="#4B8E42"/>
<path d="M146.53 285.06C167.257 285.06 184.06 268.257 184.06 247.53C184.06 226.803 167.257 210 146.53 210C125.803 210 109 226.803 109 247.53C109 268.257 125.803 285.06 146.53 285.06Z" fill="#4B8E42"/>
<path d="M171 231C184.807 231 196 219.807 196 206C196 192.193 184.807 181 171 181C157.193 181 146 192.193 146 206C146 219.807 157.193 231 171 231Z" fill="#4B8E42"/>
<path d="M196 275C209.807 275 221 263.807 221 250C221 236.193 209.807 225 196 225C182.193 225 171 236.193 171 250C171 263.807 182.193 275 196 275Z" fill="#4B8E42"/>
<path d="M117.53 243.06C138.257 243.06 155.06 226.257 155.06 205.53C155.06 184.803 138.257 168 117.53 168C96.8027 168 80 184.803 80 205.53C80 226.257 96.8027 243.06 117.53 243.06Z" fill="#4B8E42"/>
<path d="M163.53 241.06C184.257 241.06 201.06 224.257 201.06 203.53C201.06 182.803 184.257 166 163.53 166C142.803 166 126 182.803 126 203.53C126 224.257 142.803 241.06 163.53 241.06Z" fill="#4B8E42"/>
<path d="M44.1339 126.06C66.9638 126.06 85.471 107.553 85.471 84.7233C85.471 61.8935 66.9638 43.3862 44.1339 43.3862C21.3041 43.3862 2.79688 61.8935 2.79688 84.7233C2.79688 107.553 21.3041 126.06 44.1339 126.06Z" fill="#4B8E42"/>
<path d="M75.1691 159.45C97.9989 159.45 116.506 140.942 116.506 118.112C116.506 95.2826 97.9989 76.7754 75.1691 76.7754C52.3393 76.7754 33.832 95.2826 33.832 118.112C33.832 140.942 52.3393 159.45 75.1691 159.45Z" fill="#4B8E42"/>
<path d="M120.533 196.81C149.852 196.81 173.62 173.042 173.62 143.723C173.62 114.404 149.852 90.6357 120.533 90.6357C91.2133 90.6357 67.4453 114.404 67.4453 143.723C67.4453 173.042 91.2133 196.81 120.533 196.81Z" fill="#4B8E42"/>
<path d="M203.689 98.3786C228.923 98.3786 249.379 77.9228 249.379 52.6893C249.379 27.4558 228.923 7 203.689 7C178.456 7 158 27.4558 158 52.6893C158 77.9228 178.456 98.3786 203.689 98.3786Z" fill="#4B8E42"/>
<path d="M264.245 64.844C265.096 64.2495 264.88 62.4702 263.763 60.8698C262.645 59.2695 261.049 58.454 260.198 59.0485C259.346 59.6431 259.562 61.4224 260.68 63.0227C261.798 64.6231 263.394 65.4385 264.245 64.844Z" fill="#7BAD53"/>
<path d="M46.1005 220.473C46.9518 219.878 46.7358 218.099 45.6181 216.499C44.5005 214.898 42.9043 214.083 42.0531 214.677C41.2018 215.272 41.4178 217.051 42.5355 218.652C43.6531 220.252 45.2493 221.067 46.1005 220.473Z" fill="#7BAD53"/>
<path d="M297.181 185.837C297.663 184.917 296.652 183.437 294.922 182.532C293.193 181.626 291.401 181.638 290.919 182.558C290.437 183.477 291.449 184.957 293.178 185.863C294.907 186.768 296.7 186.757 297.181 185.837Z" fill="#66A36C"/>
<path d="M157.642 223.03C158.124 222.11 157.113 220.63 155.383 219.725C153.654 218.819 151.862 218.831 151.38 219.751C150.898 220.67 151.91 222.15 153.639 223.056C155.368 223.961 157.161 223.95 157.642 223.03Z" fill="#7BAD53"/>
<path d="M193.642 42.8961C194.124 41.9763 193.112 40.4965 191.383 39.5909C189.654 38.6854 187.862 38.6969 187.38 39.6167C186.898 40.5366 187.91 42.0163 189.639 42.9219C191.368 43.8275 193.16 43.8159 193.642 42.8961Z" fill="#7BAD53"/>
<path d="M28.7373 83.4502C29.2515 82.4071 28.079 80.7781 26.1186 79.8118C24.1582 78.8455 22.1522 78.9077 21.638 79.9507C21.1238 80.9938 22.2963 82.6227 24.2567 83.5891C26.2171 84.5554 28.2231 84.4932 28.7373 83.4502Z" fill="#66A36C"/>
<path d="M93.1601 50.8349C94.7565 50.0636 95.7182 48.7505 95.3083 47.9021C94.8983 47.0536 93.2719 46.9912 91.6756 47.7625C90.0792 48.5339 89.1175 49.847 89.5274 50.6954C89.9374 51.5438 91.5638 51.6062 93.1601 50.8349Z" fill="#66A36C"/>
</svg>
