<svg  viewBox="0 0 336 276" fill="none" xmlns="http://www.w3.org/2000/svg">
<path d="M218.5 102C245.286 102 267 80.2858 267 53.5C267 26.7142 245.286 5 218.5 5C191.714 5 170 26.7142 170 53.5C170 80.2858 191.714 102 218.5 102Z" fill="#82B441"/>
<path d="M178.5 170C205.286 170 227 148.286 227 121.5C227 94.7142 205.286 73 178.5 73C151.714 73 130 94.7142 130 121.5C130 148.286 151.714 170 178.5 170Z" fill="#82B441"/>
<path d="M120.5 176C147.286 176 169 154.286 169 127.5C169 100.714 147.286 79 120.5 79C93.7142 79 72 100.714 72 127.5C72 154.286 93.7142 176 120.5 176Z" fill="#82B441"/>
<path d="M80.5 86C103.972 86 123 67.196 123 44C123 20.804 103.972 2 80.5 2C57.0279 2 38 20.804 38 44C38 67.196 57.0279 86 80.5 86Z" fill="#82B441"/>
<path d="M50.5 130C73.9721 130 93 111.196 93 88C93 64.804 73.9721 46 50.5 46C27.0279 46 8 64.804 8 88C8 111.196 27.0279 130 50.5 130Z" fill="#82B441"/>
<path d="M42.5 184C65.9721 184 85 165.196 85 142C85 118.804 65.9721 100 42.5 100C19.0279 100 0 118.804 0 142C0 165.196 19.0279 184 42.5 184Z" fill="#82B441"/>
<path d="M93.5 135C116.972 135 136 116.196 136 93C136 69.804 116.972 51 93.5 51C70.0279 51 51 69.804 51 93C51 116.196 70.0279 135 93.5 135Z" fill="#82B441"/>
<path d="M155.5 123C189.466 123 217 95.4655 217 61.5C217 27.5345 189.466 0 155.5 0C121.534 0 94 27.5345 94 61.5C94 95.4655 121.534 123 155.5 123Z" fill="#82B441"/>
<path d="M268.5 146C302.466 146 330 118.466 330 84.5C330 50.5345 302.466 23 268.5 23C234.534 23 207 50.5345 207 84.5C207 118.466 234.534 146 268.5 146Z" fill="#82B441"/>
<path d="M239 163C256.673 163 271 148.897 271 131.5C271 114.103 256.673 100 239 100C221.327 100 207 114.103 207 131.5C207 148.897 221.327 163 239 163Z" fill="#82B441"/>
<path d="M132.5 206C149.897 206 164 191.897 164 174.5C164 157.103 149.897 143 132.5 143C115.103 143 101 157.103 101 174.5C101 191.897 115.103 206 132.5 206Z" fill="#82B441"/>
<path d="M304 163C321.673 163 336 148.897 336 131.5C336 114.103 321.673 100 304 100C286.327 100 272 114.103 272 131.5C272 148.897 286.327 163 304 163Z" fill="#82B441"/>
<path d="M223 237C246.196 237 265 218.42 265 195.5C265 172.58 246.196 154 223 154C199.804 154 181 172.58 181 195.5C181 218.42 199.804 237 223 237Z" fill="#82B441"/>
<path d="M132 276C160.719 276 184 252.943 184 224.5C184 196.057 160.719 173 132 173C103.281 173 80 196.057 80 224.5C80 252.943 103.281 276 132 276Z" fill="#82B441"/>
<path d="M57 262C84.0619 262 106 240.286 106 213.5C106 186.714 84.0619 165 57 165C29.938 165 8 186.714 8 213.5C8 240.286 29.938 262 57 262Z" fill="#82B441"/>
<path d="M294 215C317.196 215 336 195.972 336 172.5C336 149.028 317.196 130 294 130C270.804 130 252 149.028 252 172.5C252 195.972 270.804 215 294 215Z" fill="#82B441"/>
<path d="M261 256C284.196 256 303 236.972 303 213.5C303 190.028 284.196 171 261 171C237.804 171 219 190.028 219 213.5C219 236.972 237.804 256 261 256Z" fill="#82B441"/>
<path d="M203 266C226.196 266 245 246.972 245 223.5C245 200.028 226.196 181 203 181C179.804 181 161 200.028 161 223.5C161 246.972 179.804 266 203 266Z" fill="#82B441"/>
<path d="M133 241C156.196 241 175 221.972 175 198.5C175 175.028 156.196 156 133 156C109.804 156 91 175.028 91 198.5C91 221.972 109.804 241 133 241Z" fill="#82B441"/>
<path d="M181 220C200.882 220 217 203.435 217 183C217 162.565 200.882 146 181 146C161.118 146 145 162.565 145 183C145 203.435 161.118 220 181 220Z" fill="#82B441"/>
<path d="M230.5 199C250.658 199 267 183.106 267 163.5C267 143.894 250.658 128 230.5 128C210.342 128 194 143.894 194 163.5C194 183.106 210.342 199 230.5 199Z" fill="#82B441"/>
<path d="M79.5 217C98.0015 217 113 202.002 113 183.5C113 164.998 98.0015 150 79.5 150C60.9985 150 46 164.998 46 183.5C46 202.002 60.9985 217 79.5 217Z" fill="#82B441"/>
</svg>
