<svg width="1212" height="891" viewBox="0 0 1212 891" fill="none" xmlns="http://www.w3.org/2000/svg">
<path d="M331.042 323.704C417.444 323.704 487.487 253.661 487.487 167.259C487.487 80.8573 417.444 10.8145 331.042 10.8145C244.64 10.8145 174.598 80.8573 174.598 167.259C174.598 253.661 244.64 323.704 331.042 323.704Z" fill="#4B8E42"/>
<path d="M536.189 340.079C618.113 340.079 684.526 273.666 684.526 191.742C684.526 109.817 618.113 43.4043 536.189 43.4043C454.264 43.4043 387.852 109.817 387.852 191.742C387.852 273.666 454.264 340.079 536.189 340.079Z" fill="#4B8E42"/>
<path d="M968.027 416.36C1070.61 416.36 1153.77 333.202 1153.77 230.622C1153.77 128.042 1070.61 44.8838 968.027 44.8838C865.447 44.8838 782.289 128.042 782.289 230.622C782.289 333.202 865.447 416.36 968.027 416.36Z" fill="#4B8E42"/>
<path d="M414.736 854.352C480.433 854.352 533.691 801.094 533.691 735.397C533.691 669.7 480.433 616.442 414.736 616.442C349.039 616.442 295.781 669.7 295.781 735.397C295.781 801.094 349.039 854.352 414.736 854.352Z" fill="#4B8E42"/>
<path d="M1049.02 611.417C1138.8 611.417 1211.59 538.63 1211.59 448.843C1211.59 359.056 1138.8 286.269 1049.02 286.269C959.228 286.269 886.441 359.056 886.441 448.843C886.441 538.63 959.228 611.417 1049.02 611.417Z" fill="#4B8E42"/>
<path d="M132.818 633.209C206.171 633.209 265.635 573.744 265.635 500.391C265.635 427.038 206.171 367.573 132.818 367.573C59.4645 367.573 0 427.038 0 500.391C0 573.744 59.4645 633.209 132.818 633.209Z" fill="#4B8E42"/>
<path d="M235.873 839.903C326.054 839.903 399.16 766.797 399.16 676.616C399.16 586.435 326.054 513.329 235.873 513.329C145.692 513.329 72.5859 586.435 72.5859 676.616C72.5859 766.797 145.692 839.903 235.873 839.903Z" fill="#4B8E42"/>
<path d="M799.224 518.316C861.201 518.316 911.443 468.073 911.443 406.096C911.443 344.119 861.201 293.876 799.224 293.876C737.246 293.876 687.004 344.119 687.004 406.096C687.004 468.073 737.246 518.316 799.224 518.316Z" fill="#4B8E42"/>
<path d="M829.778 616.121C891.756 616.121 941.998 565.879 941.998 503.901C941.998 441.924 891.756 391.682 829.778 391.682C767.801 391.682 717.559 441.924 717.559 503.901C717.559 565.879 767.801 616.121 829.778 616.121Z" fill="#4B8E42"/>
<path d="M882.916 890.327C990.712 890.327 1078.1 802.941 1078.1 695.145C1078.1 587.35 990.712 499.964 882.916 499.964C775.12 499.964 687.734 587.35 687.734 695.145C687.734 802.941 775.12 890.327 882.916 890.327Z" fill="#4B8E42"/>
<path d="M1072.09 745.66C1134.39 745.66 1184.9 695.154 1184.9 632.852C1184.9 570.55 1134.39 520.044 1072.09 520.044C1009.79 520.044 959.285 570.55 959.285 632.852C959.285 695.154 1009.79 745.66 1072.09 745.66Z" fill="#4B8E42"/>
<path d="M647.801 637.289C746.789 637.289 827.035 557.043 827.035 458.055C827.035 359.066 746.789 278.82 647.801 278.82C548.812 278.82 468.566 359.066 468.566 458.055C468.566 557.043 548.812 637.289 647.801 637.289Z" fill="#4B8E42"/>
<path d="M623.724 848.009C702.303 848.009 766.004 784.308 766.004 705.729C766.004 627.151 702.303 563.45 623.724 563.45C545.146 563.45 481.445 627.151 481.445 705.729C481.445 784.308 545.146 848.009 623.724 848.009Z" fill="#4B8E42"/>
<path d="M167.31 413.456C253.859 413.456 324.022 343.294 324.022 256.744C324.022 170.194 253.859 100.032 167.31 100.032C80.76 100.032 10.5977 170.194 10.5977 256.744C10.5977 343.294 80.76 413.456 167.31 413.456Z" fill="#4B8E42"/>
<path d="M284.966 540.037C371.516 540.037 441.678 469.874 441.678 383.325C441.678 296.775 371.516 226.613 284.966 226.613C198.416 226.613 128.254 296.775 128.254 383.325C128.254 469.874 198.416 540.037 284.966 540.037Z" fill="#4B8E42"/>
<path d="M456.953 681.675C568.105 681.675 658.211 591.569 658.211 480.418C658.211 369.266 568.105 279.16 456.953 279.16C345.802 279.16 255.695 369.266 255.695 480.418C255.695 591.569 345.802 681.675 456.953 681.675Z" fill="#4B8E42"/>
<path d="M746.493 346.423C842.155 346.423 919.705 268.874 919.705 173.212C919.705 77.5495 842.155 0 746.493 0C650.831 0 573.281 77.5495 573.281 173.212C573.281 268.874 650.831 346.423 746.493 346.423Z" fill="#4B8E42"/>
<path d="M1001.77 181.381C1005 179.127 1004.18 172.382 999.945 166.314C995.708 160.247 989.656 157.156 986.429 159.41C983.202 161.664 984.021 168.409 988.258 174.476C992.495 180.543 998.546 183.635 1001.77 181.381Z" fill="#7BAD53"/>
<path d="M174.773 771.381C178.001 769.127 177.182 762.382 172.945 756.314C168.708 750.247 162.656 747.156 159.429 749.41C156.202 751.664 157.021 758.409 161.258 764.476C165.495 770.543 171.546 773.635 174.773 771.381Z" fill="#7BAD53"/>
<path d="M1126.63 640.075C1128.46 636.588 1124.62 630.978 1118.07 627.545C1111.51 624.112 1104.72 624.155 1102.89 627.643C1101.07 631.13 1104.9 636.74 1111.46 640.173C1118.01 643.606 1124.81 643.562 1126.63 640.075Z" fill="#66A36C"/>
<path d="M597.633 781.075C599.459 777.588 595.625 771.978 589.069 768.545C582.513 765.112 575.719 765.155 573.892 768.643C572.066 772.13 575.9 777.74 582.456 781.173C589.012 784.606 595.807 784.562 597.633 781.075Z" fill="#7BAD53"/>
<path d="M734.113 98.173C735.939 94.6859 732.105 89.076 725.549 85.6429C718.994 82.2098 712.199 82.2536 710.373 85.7407C708.547 89.2278 712.381 94.8377 718.936 98.2708C725.492 101.704 732.287 101.66 734.113 98.173Z" fill="#7BAD53"/>
<path d="M108.939 251.917C110.889 247.963 106.444 241.787 99.0118 238.124C91.5798 234.46 83.9747 234.696 82.0254 238.651C80.0762 242.605 84.521 248.78 91.9531 252.444C99.3852 256.107 106.99 255.872 108.939 251.917Z" fill="#66A36C"/>
<path d="M353.172 128.271C359.224 125.347 362.87 120.369 361.316 117.153C359.761 113.936 353.595 113.699 347.544 116.624C341.492 119.548 337.846 124.526 339.4 127.742C340.954 130.959 347.12 131.195 353.172 128.271Z" fill="#66A36C"/>
</svg>
