<svg width="328" height="284" viewBox="0 0 328 284" fill="none" xmlns="http://www.w3.org/2000/svg">
<path d="M286.455 178.911C309.351 178.911 327.911 160.351 327.911 137.455C327.911 114.56 309.351 96 286.455 96C263.56 96 245 114.56 245 137.455C245 160.351 263.56 178.911 286.455 178.911Z" fill="#4C8D43"/>
<path d="M142.107 206.746C158.838 206.746 172.401 193.182 172.401 176.451C172.401 159.72 158.838 146.157 142.107 146.157C125.376 146.157 111.812 159.72 111.812 176.451C111.812 193.182 125.376 206.746 142.107 206.746Z" fill="#4C8D43"/>
<path d="M31.4272 145.626C48.2317 145.626 61.8545 132.003 61.8545 115.198C61.8545 98.3938 48.2317 84.7711 31.4272 84.7711C14.6227 84.7711 1 98.3938 1 115.198C1 132.003 14.6227 145.626 31.4272 145.626Z" fill="#4C8D43"/>
<path d="M77.4272 177.854C94.2317 177.854 107.854 164.232 107.854 147.427C107.854 130.623 94.2317 117 77.4272 117C60.6227 117 47 130.623 47 147.427C47 164.232 60.6227 177.854 77.4272 177.854Z" fill="#4C8D43"/>
<path d="M68.4272 155.854C85.2317 155.854 98.8545 142.232 98.8545 125.427C98.8545 108.623 85.2317 95 68.4272 95C51.6227 95 38 108.623 38 125.427C38 142.232 51.6227 155.854 68.4272 155.854Z" fill="#4C8D43"/>
<path d="M95.6029 61.386C112.334 61.386 125.897 47.8227 125.897 31.0916C125.897 14.3605 112.334 0.797241 95.6029 0.797241C78.8718 0.797241 65.3086 14.3605 65.3086 31.0916C65.3086 47.8227 78.8718 61.386 95.6029 61.386Z" fill="#4C8D43"/>
<path d="M30.2943 233.589C47.0255 233.589 60.5887 220.025 60.5887 203.294C60.5887 186.563 47.0255 173 30.2943 173C13.5632 173 0 186.563 0 203.294C0 220.025 13.5632 233.589 30.2943 233.589Z" fill="#4C8D43"/>
<path d="M126.962 73.61C143.693 73.61 157.257 60.0467 157.257 43.3156C157.257 26.5844 143.693 13.0212 126.962 13.0212C110.231 13.0212 96.668 26.5844 96.668 43.3156C96.668 60.0467 110.231 73.61 126.962 73.61Z" fill="#4C8D43"/>
<path d="M297.294 223.589C314.025 223.589 327.589 210.025 327.589 193.294C327.589 176.563 314.025 163 297.294 163C280.563 163 267 176.563 267 193.294C267 210.025 280.563 223.589 297.294 223.589Z" fill="#4C8D43"/>
<path d="M260.5 212C282.315 212 300 194.315 300 172.5C300 150.685 282.315 133 260.5 133C238.685 133 221 150.685 221 172.5C221 194.315 238.685 212 260.5 212Z" fill="#4C8D43"/>
<path d="M61.9866 117.989C89.7985 117.989 112.344 95.3831 112.344 67.498C112.344 39.6128 89.7985 17.0074 61.9866 17.0074C34.1748 17.0074 11.6289 39.6128 11.6289 67.498C11.6289 95.3831 34.1748 117.989 61.9866 117.989Z" fill="#4C8D43"/>
<path d="M80.3577 277.981C108.17 277.981 130.715 255.376 130.715 227.491C130.715 199.605 108.17 177 80.3577 177C52.5459 177 30 199.605 30 227.491C30 255.376 52.5459 277.981 80.3577 277.981Z" fill="#4C8D43"/>
<path d="M235.252 95.9321C258.221 95.9321 276.841 77.3719 276.841 54.4766C276.841 31.5814 258.221 13.0212 235.252 13.0212C212.284 13.0212 193.664 31.5814 193.664 54.4766C193.664 77.3719 212.284 95.9321 235.252 95.9321Z" fill="#4C8D43"/>
<path d="M281.355 125.164C306.012 125.164 326 105.235 326 80.6521C326 56.0691 306.012 36.1406 281.355 36.1406C256.699 36.1406 236.711 56.0691 236.711 80.6521C236.711 105.235 256.699 125.164 281.355 125.164Z" fill="#4C8D43"/>
<path d="M182.765 89.2886C207.422 89.2886 227.41 69.3007 227.41 44.6443C227.41 19.9879 207.422 0 182.765 0C158.109 0 138.121 19.9879 138.121 44.6443C138.121 69.3007 158.109 89.2886 182.765 89.2886Z" fill="#4C8D43"/>
<path d="M219.703 147.22C244.359 147.22 264.347 127.291 264.347 102.708C264.347 78.1255 244.359 58.197 219.703 58.197C195.047 58.197 175.059 78.1255 175.059 102.708C175.059 127.291 195.047 147.22 219.703 147.22Z" fill="#4C8D43"/>
<path d="M211.467 212.326C234.362 212.326 252.923 193.766 252.923 170.871C252.923 147.976 234.362 129.415 211.467 129.415C188.572 129.415 170.012 147.976 170.012 170.871C170.012 193.766 188.572 212.326 211.467 212.326Z" fill="#4C8D43"/>
<path d="M52.4975 217.729C79.282 217.729 100.995 196.076 100.995 169.365C100.995 142.654 79.282 121 52.4975 121C25.7131 121 4 142.654 4 169.365C4 196.076 25.7131 217.729 52.4975 217.729Z" fill="#4C8D43"/>
<path d="M162.498 283.729C189.282 283.729 210.995 262.076 210.995 235.365C210.995 208.654 189.282 187 162.498 187C135.713 187 114 208.654 114 235.365C114 262.076 135.713 283.729 162.498 283.729Z" fill="#4C8D43"/>
<path d="M103.498 248.729C130.282 248.729 151.995 227.076 151.995 200.365C151.995 173.654 130.282 152 103.498 152C76.7131 152 55 173.654 55 200.365C55 227.076 76.7131 248.729 103.498 248.729Z" fill="#4C8D43"/>
<path d="M242.498 282.729C269.282 282.729 290.995 261.076 290.995 234.365C290.995 207.654 269.282 186 242.498 186C215.713 186 194 207.654 194 234.365C194 261.076 215.713 282.729 242.498 282.729Z" fill="#4C8D43"/>
<path d="M140.78 180.437C173.949 180.437 200.837 153.549 200.837 120.38C200.837 87.2115 173.949 60.323 140.78 60.323C107.611 60.323 80.7227 87.2115 80.7227 120.38C80.7227 153.549 107.611 180.437 140.78 180.437Z" fill="#4C8D43"/>
<path d="M305.367 145.337C306.669 143.773 307.049 141.945 306.218 141.253C305.386 140.561 303.657 141.268 302.356 142.832C301.055 144.396 300.674 146.224 301.506 146.916C302.337 147.608 304.066 146.901 305.367 145.337Z" fill="#7BAD53"/>
<path d="M299.435 72.153C299.937 71.1946 298.883 69.6526 297.081 68.7088C295.278 67.765 293.411 67.7769 292.909 68.7352C292.407 69.6936 293.461 71.2355 295.263 72.1793C297.065 73.1231 298.933 73.1113 299.435 72.153Z" fill="#7BAD53"/>
<path d="M184.236 15.9873C184.773 14.8984 183.549 13.1982 181.504 12.1898C179.458 11.1813 177.364 11.2466 176.827 12.3355C176.291 13.4244 177.514 15.1247 179.56 16.1331C181.605 17.1415 183.699 17.0763 184.236 15.9873Z" fill="#7BAD53"/>
<path d="M249.38 267.623C249.917 266.535 248.694 264.834 246.648 263.826C244.602 262.818 242.509 262.883 241.972 263.972C241.435 265.061 242.658 266.761 244.704 267.769C246.75 268.778 248.844 268.712 249.38 267.623Z" fill="#7BAD53"/>
<path d="M46.8507 59.1211C47.5721 58.4538 47.1395 56.8131 45.8845 55.4564C44.6296 54.0998 43.0275 53.5409 42.3061 54.2082C41.5848 54.8754 42.0174 56.5162 43.2723 57.8728C44.5273 59.2295 46.1294 59.7884 46.8507 59.1211Z" fill="#7BAD53"/>
<path d="M36.4351 125.153C36.937 124.195 35.8829 122.653 34.0806 121.709C32.2784 120.765 30.4106 120.777 29.9087 121.735C29.4068 122.694 30.461 124.236 32.2632 125.179C34.0654 126.123 35.9333 126.111 36.4351 125.153Z" fill="#7BAD53"/>
</svg>
