<svg width="1343" height="911" viewBox="0 0 1343 911" fill="none" xmlns="http://www.w3.org/2000/svg">
<path d="M487 755C600.771 755 693 662.547 693 548.5C693 434.453 600.771 342 487 342C373.229 342 281 434.453 281 548.5C281 662.547 373.229 755 487 755Z" fill="#82B441"/>
<path d="M877.5 789C991.547 789 1084 696.547 1084 582.5C1084 468.453 991.547 376 877.5 376C763.453 376 671 468.453 671 582.5C671 696.547 763.453 789 877.5 789Z" fill="#82B441"/>
<path d="M175.5 686C272.426 686 351 607.426 351 510.5C351 413.574 272.426 335 175.5 335C78.574 335 0 413.574 0 510.5C0 607.426 78.574 686 175.5 686Z" fill="#82B441"/>
<path d="M724.5 707.96C838.547 707.96 931 615.507 931 501.46C931 387.414 838.547 294.96 724.5 294.96C610.453 294.96 518 387.414 518 501.46C518 615.507 610.453 707.96 724.5 707.96Z" fill="#82B441"/>
<path d="M938.5 582C1050.89 582 1142 491.114 1142 379C1142 266.886 1050.89 176 938.5 176C826.11 176 735 266.886 735 379C735 491.114 826.11 582 938.5 582Z" fill="#82B441"/>
<path d="M292.5 433.96C389.426 433.96 468 355.61 468 258.96C468 162.31 389.426 83.9603 292.5 83.9603C195.574 83.9603 117 162.31 117 258.96C117 355.61 195.574 433.96 292.5 433.96Z" fill="#82B441"/>
<path d="M508 394C616.8 394 705 305.8 705 197C705 88.1999 616.8 0 508 0C399.2 0 311 88.1999 311 197C311 305.8 399.2 394 508 394Z" fill="#82B441"/>
<path d="M722 333.96C794.902 333.96 854 274.862 854 201.96C854 129.059 794.902 69.9603 722 69.9603C649.098 69.9603 590 129.059 590 201.96C590 274.862 649.098 333.96 722 333.96Z" fill="#82B441"/>
<path d="M508.5 816C581.125 816 640 757.125 640 684.5C640 611.874 581.125 553 508.5 553C435.875 553 377 611.874 377 684.5C377 757.125 435.875 816 508.5 816Z" fill="#82B441"/>
<path d="M1211.5 487C1284.13 487 1343 428.349 1343 356C1343 283.651 1284.13 225 1211.5 225C1138.87 225 1080 283.651 1080 356C1080 428.349 1138.87 487 1211.5 487Z" fill="#82B441"/>
<path d="M1145.5 764C1242.43 764 1321 685.202 1321 588C1321 490.798 1242.43 412 1145.5 412C1048.57 412 970 490.798 970 588C970 685.202 1048.57 764 1145.5 764Z" fill="#82B441"/>
<path d="M705.5 870C788.619 870 856 802.619 856 719.5C856 636.381 788.619 569 705.5 569C622.381 569 555 636.381 555 719.5C555 802.619 622.381 870 705.5 870Z" fill="#82B441"/>
<path d="M975.5 911C1058.62 911 1126 843.395 1126 760C1126 676.605 1058.62 609 975.5 609C892.381 609 825 676.605 825 760C825 843.395 892.381 911 975.5 911Z" fill="#82B441"/>
<path d="M287 860C364.32 860 427 797.32 427 720C427 642.68 364.32 580 287 580C209.68 580 147 642.68 147 720C147 797.32 209.68 860 287 860Z" fill="#82B441"/>
<path d="M1011.5 414C1123.89 414 1215 322.89 1215 210.5C1215 98.11 1123.89 7 1011.5 7C899.11 7 808 98.11 808 210.5C808 322.89 899.11 414 1011.5 414Z" fill="#82B441"/>
<path d="M511.99 750.993C518.891 745.186 521.98 737.501 518.889 733.828C515.798 730.154 507.697 731.884 500.796 737.691C493.895 743.498 490.806 751.184 493.897 754.857C496.988 758.53 505.089 756.801 511.99 750.993Z" fill="#C9DE79"/>
<path d="M1037.48 100.822C1040.6 97.1716 1037.57 89.4637 1030.71 83.6061C1023.85 77.7485 1015.76 75.9594 1012.65 79.61C1009.53 83.2605 1012.56 90.9684 1019.42 96.826C1026.28 102.684 1034.36 104.473 1037.48 100.822Z" fill="#C9DE79"/>
<path d="M982.482 826.822C985.599 823.172 982.567 815.464 975.709 809.606C968.851 803.749 960.763 801.96 957.645 805.61C954.528 809.261 957.56 816.969 964.418 822.826C971.277 828.684 979.364 830.473 982.482 826.822Z" fill="#C9DE79"/>
<path d="M1204.25 686.746C1212.38 682.836 1217.28 676.16 1215.2 671.834C1213.12 667.507 1204.84 667.17 1196.72 671.08C1188.59 674.989 1183.69 681.666 1185.77 685.993C1187.85 690.319 1196.13 690.656 1204.25 686.746Z" fill="#C9DE79"/>
<path d="M110.139 530.238C112.262 525.932 107.424 519.208 99.3345 515.22C91.2447 511.233 82.9658 511.491 80.8433 515.797C78.7207 520.103 83.5581 526.826 91.648 530.814C99.7378 534.802 108.017 534.544 110.139 530.238Z" fill="#C9DE79"/>
<path d="M495.356 120.392C501.669 116.711 505.199 111.005 503.242 107.648C501.284 104.292 494.58 104.555 488.267 108.237C481.954 111.918 478.423 117.624 480.38 120.981C482.338 124.337 489.043 124.074 495.356 120.392Z" fill="#C9DE79"/>
</svg>
