<svg width="330" height="314" viewBox="0 0 330 314" fill="none" xmlns="http://www.w3.org/2000/svg">
<path d="M83.5978 104.951C107.84 104.951 127.492 85.2986 127.492 61.0563C127.492 36.814 107.84 17.1616 83.5978 17.1616C59.3554 17.1616 39.7031 36.814 39.7031 61.0563C39.7031 85.2986 59.3554 104.951 83.5978 104.951Z" fill="#82B249"/>
<path d="M141.685 89.7694C161.553 89.7694 177.659 73.6634 177.659 53.7956C177.659 33.9278 161.553 17.8218 141.685 17.8218C121.817 17.8218 105.711 33.9278 105.711 53.7956C105.711 73.6634 121.817 89.7694 141.685 89.7694Z" fill="#82B249"/>
<path d="M260.497 97.0302C281.094 97.0302 297.791 80.1853 297.791 59.4062C297.791 38.627 281.094 21.7822 260.497 21.7822C239.9 21.7822 223.203 38.627 223.203 59.4062C223.203 80.1853 239.9 97.0302 260.497 97.0302Z" fill="#82B249"/>
<path d="M242.015 159.737C268.445 159.737 289.87 138.459 289.87 112.212C289.87 85.9647 268.445 64.687 242.015 64.687C215.586 64.687 194.16 85.9647 194.16 112.212C194.16 138.459 215.586 159.737 242.015 159.737Z" fill="#82B249"/>
<path d="M197.136 170.958C223.566 170.958 244.991 149.533 244.991 123.103C244.991 96.6734 223.566 75.248 197.136 75.248C170.707 75.248 149.281 96.6734 149.281 123.103C149.281 149.533 170.707 170.958 197.136 170.958Z" fill="#82B249"/>
<path d="M285.225 148.789C309.649 148.789 329.449 129.137 329.449 104.895C329.449 80.6523 309.649 61 285.225 61C260.8 61 241 80.6523 241 104.895C241 129.137 260.8 148.789 285.225 148.789Z" fill="#82B249"/>
<path d="M282 261C307.957 261 329 240.181 329 214.5C329 188.819 307.957 168 282 168C256.043 168 235 188.819 235 214.5C235 240.181 256.043 261 282 261Z" fill="#82B249"/>
<path d="M179.974 247.288C199.842 247.288 215.948 231.329 215.948 211.644C215.948 191.958 199.842 176 179.974 176C160.106 176 144 191.958 144 211.644C144 231.329 160.106 247.288 179.974 247.288Z" fill="#82B249"/>
<path d="M232.974 259.288C252.842 259.288 268.948 243.329 268.948 223.644C268.948 203.958 252.842 188 232.974 188C213.106 188 197 203.958 197 223.644C197 243.329 213.106 259.288 232.974 259.288Z" fill="#82B249"/>
<path d="M250.974 216.288C270.842 216.288 286.948 200.329 286.948 180.644C286.948 160.958 270.842 145 250.974 145C231.106 145 215 160.958 215 180.644C215 200.329 231.106 216.288 250.974 216.288Z" fill="#82B249"/>
<path d="M213.685 211.836C233.553 211.836 249.659 195.878 249.659 176.193C249.659 156.507 233.553 140.549 213.685 140.549C193.817 140.549 177.711 156.507 177.711 176.193C177.711 195.878 193.817 211.836 213.685 211.836Z" fill="#82B249"/>
<path d="M265.974 311.288C285.842 311.288 301.948 295.329 301.948 275.644C301.948 255.958 285.842 240 265.974 240C246.106 240 230 255.958 230 275.644C230 295.329 246.106 311.288 265.974 311.288Z" fill="#82B249"/>
<path d="M233.974 291.288C253.842 291.288 269.948 275.329 269.948 255.644C269.948 235.958 253.842 220 233.974 220C214.106 220 198 235.958 198 255.644C198 275.329 214.106 291.288 233.974 291.288Z" fill="#82B249"/>
<path d="M51.9738 218.948C71.8416 218.948 87.9476 202.841 87.9476 182.974C87.9476 163.106 71.8416 147 51.9738 147C32.106 147 16 163.106 16 182.974C16 202.841 32.106 218.948 51.9738 218.948Z" fill="#82B249"/>
<path d="M288.974 197.948C308.842 197.948 324.948 181.841 324.948 161.974C324.948 142.106 308.842 126 288.974 126C269.106 126 253 142.106 253 161.974C253 181.841 269.106 197.948 288.974 197.948Z" fill="#82B249"/>
<path d="M155.217 205.942C177.819 205.942 196.142 187.62 196.142 165.018C196.142 142.416 177.819 124.093 155.217 124.093C132.615 124.093 114.293 142.416 114.293 165.018C114.293 187.62 132.615 205.942 155.217 205.942Z" fill="#82B249"/>
<path d="M135.924 298.849C158.526 298.849 176.849 280.526 176.849 257.924C176.849 235.323 158.526 217 135.924 217C113.322 217 95 235.323 95 257.924C95 280.526 113.322 298.849 135.924 298.849Z" fill="#82B249"/>
<path d="M199.924 313.849C222.526 313.849 240.849 295.526 240.849 272.924C240.849 250.323 222.526 232 199.924 232C177.322 232 159 250.323 159 272.924C159 295.526 177.322 313.849 199.924 313.849Z" fill="#82B249"/>
<path d="M75.9243 310.849C98.5262 310.849 116.849 292.526 116.849 269.924C116.849 247.323 98.5262 229 75.9243 229C53.3224 229 35 247.323 35 269.924C35 292.526 53.3224 310.849 75.9243 310.849Z" fill="#82B249"/>
<path d="M40.9243 270.849C63.5262 270.849 81.8487 252.526 81.8487 229.924C81.8487 207.323 63.5262 189 40.9243 189C18.3224 189 0 207.323 0 229.924C0 252.526 18.3224 270.849 40.9243 270.849Z" fill="#82B249"/>
<path d="M110.924 249.849C133.526 249.849 151.849 231.526 151.849 208.924C151.849 186.323 133.526 168 110.924 168C88.3224 168 70 186.323 70 208.924C70 231.526 88.3224 249.849 110.924 249.849Z" fill="#82B249"/>
<path d="M100.635 209.397C123.237 209.397 141.56 191.075 141.56 168.473C141.56 145.871 123.237 127.549 100.635 127.549C78.0334 127.549 59.7109 145.871 59.7109 168.473C59.7109 191.075 78.0334 209.397 100.635 209.397Z" fill="#82B249"/>
<path d="M134.095 163.037C162.894 163.037 186.24 139.691 186.24 110.892C186.24 82.0924 162.894 58.7461 134.095 58.7461C105.296 58.7461 81.9492 82.0924 81.9492 110.892C81.9492 139.691 105.296 163.037 134.095 163.037Z" fill="#82B249"/>
<path d="M56.8155 168.631C85.4324 168.631 108.631 145.432 108.631 116.815C108.631 88.1986 85.4324 65 56.8155 65C28.1986 65 5 88.1986 5 116.815C5 145.432 28.1986 168.631 56.8155 168.631Z" fill="#82B249"/>
<path d="M211.651 110.892C242.091 110.892 266.767 86.0677 266.767 55.4458C266.767 24.8239 242.091 0 211.651 0C181.211 0 156.535 24.8239 156.535 55.4458C156.535 86.0677 181.211 110.892 211.651 110.892Z" fill="#82B249"/>
<path d="M38.4612 121.876C40.8277 117.777 46.0689 116.373 50.1678 118.739C47.8013 122.838 42.5601 124.242 38.4612 121.876Z" fill="#73954B"/>
<path d="M228.323 26.014C223.92 27.7521 218.943 25.5924 217.204 21.1901C221.607 19.452 226.584 21.6117 228.323 26.014Z" fill="#73954B"/>
<path d="M314.334 102.225C309.932 103.963 304.954 101.803 303.216 97.401C307.618 95.6629 312.596 97.8226 314.334 102.225Z" fill="#73954B"/>
<path d="M311.83 154.52C307.428 156.258 302.45 154.098 300.712 149.696C305.115 147.958 310.092 150.118 311.83 154.52Z" fill="#73954B"/>
</svg>
