<svg width="330" height="348" viewBox="0 0 330 348" fill="none" xmlns="http://www.w3.org/2000/svg">
<path d="M108 268C133.405 268 154 247.405 154 222C154 196.595 133.405 176 108 176C82.5949 176 62 196.595 62 222C62 247.405 82.5949 268 108 268Z" fill="#1E755B"/>
<path d="M82 343C107.405 343 128 322.405 128 297C128 271.595 107.405 251 82 251C56.5949 251 36 271.595 36 297C36 322.405 56.5949 343 82 343Z" fill="#1E755B"/>
<path d="M52 296C77.4051 296 98 275.405 98 250C98 224.595 77.4051 204 52 204C26.5949 204 6 224.595 6 250C6 275.405 26.5949 296 52 296Z" fill="#1E755B"/>
<path d="M212.004 75.0079C228.022 75.0079 241.008 62.0224 241.008 46.0039C241.008 29.9855 228.022 17 212.004 17C195.986 17 183 29.9855 183 46.0039C183 62.0224 195.986 75.0079 212.004 75.0079Z" fill="#1E755B"/>
<path d="M297.004 133.008C313.022 133.008 326.008 120.022 326.008 104.004C326.008 87.9855 313.022 75 297.004 75C280.986 75 268 87.9855 268 104.004C268 120.022 280.986 133.008 297.004 133.008Z" fill="#1E755B"/>
<path d="M301.004 168.008C317.022 168.008 330.008 155.022 330.008 139.004C330.008 122.986 317.022 110 301.004 110C284.986 110 272 122.986 272 139.004C272 155.022 284.986 168.008 301.004 168.008Z" fill="#1E755B"/>
<path d="M249.004 329.008C265.022 329.008 278.008 316.022 278.008 300.004C278.008 283.986 265.022 271 249.004 271C232.986 271 220 283.986 220 300.004C220 316.022 232.986 329.008 249.004 329.008Z" fill="#1E755B"/>
<path d="M242.004 279.008C258.022 279.008 271.008 266.022 271.008 250.004C271.008 233.986 258.022 221 242.004 221C225.986 221 213 233.986 213 250.004C213 266.022 225.986 279.008 242.004 279.008Z" fill="#1E755B"/>
<path d="M248.004 247.008C264.022 247.008 277.008 234.022 277.008 218.004C277.008 201.986 264.022 189 248.004 189C231.986 189 219 201.986 219 218.004C219 234.022 231.986 247.008 248.004 247.008Z" fill="#1E755B"/>
<path d="M256 125C286.376 125 311 100.376 311 70C311 39.6244 286.376 15 256 15C225.624 15 201 39.6244 201 70C201 100.376 225.624 125 256 125Z" fill="#1E755B"/>
<path d="M155.162 256.323C180.656 256.323 201.323 235.656 201.323 210.162C201.323 184.667 180.656 164 155.162 164C129.667 164 109 184.667 109 210.162C109 235.656 129.667 256.323 155.162 256.323Z" fill="#1E755B"/>
<path d="M185 275C222.555 275 253 244.555 253 207C253 169.445 222.555 139 185 139C147.445 139 117 169.445 117 207C117 244.555 147.445 275 185 275Z" fill="#1E755B"/>
<path d="M167 348C204.555 348 235 317.555 235 280C235 242.445 204.555 212 167 212C129.445 212 99 242.445 99 280C99 317.555 129.445 348 167 348Z" fill="#1E755B"/>
<path d="M289.331 229.663C311.606 229.663 329.663 211.606 329.663 189.331C329.663 167.057 311.606 149 289.331 149C267.057 149 249 167.057 249 189.331C249 211.606 267.057 229.663 289.331 229.663Z" fill="#1E755B"/>
<path d="M285.331 301.663C307.606 301.663 325.663 283.606 325.663 261.331C325.663 239.057 307.606 221 285.331 221C263.057 221 245 239.057 245 261.331C245 283.606 263.057 301.663 285.331 301.663Z" fill="#1E755B"/>
<path d="M110.5 130C141.152 130 166 105.152 166 74.5C166 43.8482 141.152 19 110.5 19C79.8482 19 55 43.8482 55 74.5C55 105.152 79.8482 130 110.5 130Z" fill="#1E755B"/>
<path d="M48.7646 121.529C69.6215 121.529 86.5292 104.621 86.5292 83.7646C86.5292 62.9078 69.6215 46 48.7646 46C27.9078 46 11 62.9078 11 83.7646C11 104.621 27.9078 121.529 48.7646 121.529Z" fill="#1E755B"/>
<path d="M44.7646 234.529C65.6214 234.529 82.5293 217.621 82.5293 196.765C82.5293 175.908 65.6214 159 44.7646 159C23.9078 159 7 175.908 7 196.765C7 217.621 23.9078 234.529 44.7646 234.529Z" fill="#1E755B"/>
<path d="M236.574 212.289C265.622 212.289 289.171 188.74 289.171 159.691C289.171 130.643 265.622 107.094 236.574 107.094C207.525 107.094 183.977 130.643 183.977 159.691C183.977 188.74 207.525 212.289 236.574 212.289Z" fill="#1E755B"/>
<path d="M229.597 160.194C258.646 160.194 282.194 136.646 282.194 107.597C282.194 78.5485 258.646 55 229.597 55C200.549 55 177 78.5485 177 107.597C177 136.646 200.549 160.194 229.597 160.194Z" fill="#1E755B"/>
<path d="M49.0654 192.131C76.1634 192.131 98.1308 170.163 98.1308 143.065C98.1308 115.967 76.1634 94 49.0654 94C21.9673 94 0 115.967 0 143.065C0 170.163 21.9673 192.131 49.0654 192.131Z" fill="#1E755B"/>
<path d="M163.065 98.1307C190.163 98.1307 212.131 76.1634 212.131 49.0654C212.131 21.9673 190.163 0 163.065 0C135.967 0 114 21.9673 114 49.0654C114 76.1634 135.967 98.1307 163.065 98.1307Z" fill="#1E755B"/>
<path d="M127.774 207.548C164.652 207.548 194.548 177.652 194.548 140.774C194.548 103.896 164.652 74 127.774 74C90.8958 74 61 103.896 61 140.774C61 177.652 90.8958 207.548 127.774 207.548Z" fill="#1E755B"/>
</svg>
