<svg width="320" height="235" viewBox="0 0 320 235" fill="none" xmlns="http://www.w3.org/2000/svg">
<path d="M87.3213 85.3857C110.112 85.3857 128.588 66.91 128.588 44.1191C128.588 21.3282 110.112 2.85254 87.3213 2.85254C64.5304 2.85254 46.0547 21.3282 46.0547 44.1191C46.0547 66.91 64.5304 85.3857 87.3213 85.3857Z" fill="#4B8E42"/>
<path d="M141.433 89.7052C163.043 89.7052 180.561 72.187 180.561 50.5771C180.561 28.9673 163.043 11.4491 141.433 11.4491C119.823 11.4491 102.305 28.9673 102.305 50.5771C102.305 72.187 119.823 89.7052 141.433 89.7052Z" fill="#4B8E42"/>
<path d="M255.341 109.826C282.4 109.826 304.335 87.8912 304.335 60.8328C304.335 33.7745 282.4 11.8394 255.341 11.8394C228.283 11.8394 206.348 33.7745 206.348 60.8328C206.348 87.8912 228.283 109.826 255.341 109.826Z" fill="#4B8E42"/>
<path d="M109.397 225.359C126.727 225.359 140.775 211.311 140.775 193.981C140.775 176.652 126.727 162.604 109.397 162.604C92.0678 162.604 78.0195 176.652 78.0195 193.981C78.0195 211.311 92.0678 225.359 109.397 225.359Z" fill="#4B8E42"/>
<path d="M276.704 161.278C300.388 161.278 319.587 142.078 319.587 118.395C319.587 94.7108 300.388 75.5112 276.704 75.5112C253.02 75.5112 233.82 94.7108 233.82 118.395C233.82 142.078 253.02 161.278 276.704 161.278Z" fill="#4B8E42"/>
<path d="M35.0343 167.026C54.3832 167.026 70.0686 151.341 70.0686 131.992C70.0686 112.643 54.3832 96.9575 35.0343 96.9575C15.6854 96.9575 0 112.643 0 131.992C0 151.341 15.6854 167.026 35.0343 167.026Z" fill="#4B8E42"/>
<path d="M58.3917 227.93C82.1794 227.93 101.463 208.646 101.463 184.858C101.463 161.071 82.1794 141.787 58.3917 141.787C34.604 141.787 15.3203 161.071 15.3203 184.858C15.3203 208.646 34.604 227.93 58.3917 227.93Z" fill="#4B8E42"/>
<path d="M210.816 136.72C227.164 136.72 240.417 123.467 240.417 107.119C240.417 90.7709 227.164 77.5181 210.816 77.5181C194.468 77.5181 181.215 90.7709 181.215 107.119C181.215 123.467 194.468 136.72 210.816 136.72Z" fill="#4B8E42"/>
<path d="M218.874 162.519C235.223 162.519 248.475 149.266 248.475 132.918C248.475 116.569 235.223 103.317 218.874 103.317C202.526 103.317 189.273 116.569 189.273 132.918C189.273 149.266 202.526 162.519 218.874 162.519Z" fill="#4B8E42"/>
<path d="M232.895 234.848C261.329 234.848 284.379 211.798 284.379 183.364C284.379 154.93 261.329 131.879 232.895 131.879C204.461 131.879 181.41 154.93 181.41 183.364C181.41 211.798 204.461 234.848 232.895 234.848Z" fill="#4B8E42"/>
<path d="M282.791 196.688C299.225 196.688 312.547 183.366 312.547 166.932C312.547 150.498 299.225 137.176 282.791 137.176C266.357 137.176 253.035 150.498 253.035 166.932C253.035 183.366 266.357 196.688 282.791 196.688Z" fill="#4B8E42"/>
<path d="M170.876 168.102C196.987 168.102 218.154 146.935 218.154 120.824C218.154 94.7134 196.987 73.5464 170.876 73.5464C144.765 73.5464 123.598 94.7134 123.598 120.824C123.598 146.935 144.765 168.102 170.876 168.102Z" fill="#4B8E42"/>
<path d="M164.526 223.686C185.253 223.686 202.056 206.883 202.056 186.155C202.056 165.428 185.253 148.625 164.526 148.625C143.799 148.625 126.996 165.428 126.996 186.155C126.996 206.883 143.799 223.686 164.526 223.686Z" fill="#4B8E42"/>
<path d="M44.1339 109.06C66.9638 109.06 85.471 90.553 85.471 67.7232C85.471 44.8934 66.9638 26.3861 44.1339 26.3861C21.3041 26.3861 2.79688 44.8934 2.79688 67.7232C2.79688 90.553 21.3041 109.06 44.1339 109.06Z" fill="#4B8E42"/>
<path d="M75.1691 142.45C97.9989 142.45 116.506 123.942 116.506 101.112C116.506 78.2826 97.9989 59.7754 75.1691 59.7754C52.3393 59.7754 33.832 78.2826 33.832 101.112C33.832 123.942 52.3393 142.45 75.1691 142.45Z" fill="#4B8E42"/>
<path d="M120.533 179.81C149.852 179.81 173.62 156.043 173.62 126.723C173.62 97.404 149.852 73.636 120.533 73.636C91.2133 73.636 67.4453 97.404 67.4453 126.723C67.4453 156.043 91.2133 179.81 120.533 179.81Z" fill="#4B8E42"/>
<path d="M196.908 91.3786C222.142 91.3786 242.597 70.9228 242.597 45.6893C242.597 20.4558 222.142 0 196.908 0C171.675 0 151.219 20.4558 151.219 45.6893C151.219 70.9228 171.675 91.3786 196.908 91.3786Z" fill="#4B8E42"/>
<path d="M264.245 47.8441C265.096 47.2496 264.88 45.4703 263.763 43.8699C262.645 42.2696 261.049 41.4542 260.198 42.0487C259.346 42.6432 259.562 44.4225 260.68 46.0229C261.798 47.6232 263.394 48.4386 264.245 47.8441Z" fill="#7BAD53"/>
<path d="M46.1005 203.473C46.9518 202.878 46.7358 201.099 45.6181 199.498C44.5005 197.898 42.9043 197.083 42.0531 197.677C41.2018 198.272 41.4178 200.051 42.5355 201.651C43.6531 203.252 45.2493 204.067 46.1005 203.473Z" fill="#7BAD53"/>
<path d="M297.181 168.837C297.663 167.917 296.652 166.437 294.922 165.532C293.193 164.626 291.401 164.638 290.919 165.558C290.437 166.477 291.449 167.957 293.178 168.863C294.907 169.768 296.7 169.757 297.181 168.837Z" fill="#66A36C"/>
<path d="M157.642 206.03C158.124 205.11 157.113 203.63 155.383 202.725C153.654 201.819 151.862 201.831 151.38 202.751C150.898 203.67 151.91 205.15 153.639 206.056C155.368 206.961 157.161 206.95 157.642 206.03Z" fill="#7BAD53"/>
<path d="M193.642 25.8959C194.124 24.976 193.112 23.4963 191.383 22.5907C189.654 21.6851 187.862 21.6967 187.38 22.6165C186.898 23.5363 187.91 25.0161 189.639 25.9216C191.368 26.8272 193.16 26.8157 193.642 25.8959Z" fill="#7BAD53"/>
<path d="M28.7373 66.4502C29.2515 65.4071 28.079 63.7781 26.1186 62.8118C24.1582 61.8455 22.1522 61.9077 21.638 62.9507C21.1238 63.9938 22.2963 65.6227 24.2567 66.5891C26.2171 67.5554 28.2231 67.4932 28.7373 66.4502Z" fill="#66A36C"/>
<path d="M93.1601 33.835C94.7565 33.0637 95.7182 31.7506 95.3083 30.9022C94.8983 30.0538 93.2719 29.9913 91.6756 30.7626C90.0792 31.534 89.1175 32.8471 89.5274 33.6955C89.9374 34.5439 91.5638 34.6064 93.1601 33.835Z" fill="#66A36C"/>
</svg>
