<svg width="333" height="247" viewBox="0 0 333 247" fill="none" xmlns="http://www.w3.org/2000/svg">
<path d="M280.558 160.371C309.106 160.371 332.249 137.228 332.249 108.68C332.249 80.1322 309.106 56.9895 280.558 56.9895C252.01 56.9895 228.867 80.1322 228.867 108.68C228.867 137.228 252.01 160.371 280.558 160.371Z" fill="#8BC54F"/>
<path d="M232.601 109.757C256.117 109.757 275.179 90.6944 275.179 67.1793C275.179 43.6641 256.117 24.6013 232.601 24.6013C209.086 24.6013 190.023 43.6641 190.023 67.1793C190.023 90.6944 209.086 109.757 232.601 109.757Z" fill="#8BC54F"/>
<path d="M273.769 214.168C297.285 214.168 316.347 195.105 316.347 171.59C316.347 148.075 297.285 129.012 273.769 129.012C250.254 129.012 231.191 148.075 231.191 171.59C231.191 195.105 250.254 214.168 273.769 214.168Z" fill="#8BC54F"/>
<path d="M42.953 185.811C66.4681 185.811 85.5309 166.748 85.5309 143.233C85.5309 119.718 66.4681 100.655 42.953 100.655C19.4378 100.655 0.375 119.718 0.375 143.233C0.375 166.748 19.4378 185.811 42.953 185.811Z" fill="#8BC54F"/>
<path d="M69.3832 122.244C88.504 122.244 104.005 106.743 104.005 87.6224C104.005 68.5015 88.504 53.001 69.3832 53.001C50.2623 53.001 34.7617 68.5015 34.7617 87.6224C34.7617 106.743 50.2623 122.244 69.3832 122.244Z" fill="#8BC54F"/>
<path d="M218.153 245.374C237.274 245.374 252.774 229.873 252.774 210.752C252.774 191.631 237.274 176.131 218.153 176.131C199.032 176.131 183.531 191.631 183.531 210.752C183.531 229.873 199.032 245.374 218.153 245.374Z" fill="#8BC54F"/>
<path d="M82.785 234.112C106.3 234.112 125.363 215.05 125.363 191.535C125.363 168.019 106.3 148.957 82.785 148.957C59.2698 148.957 40.207 168.019 40.207 191.535C40.207 215.05 59.2698 234.112 82.785 234.112Z" fill="#8BC54F"/>
<path d="M150.922 246.079C174.437 246.079 193.5 227.016 193.5 203.501C193.5 179.986 174.437 160.923 150.922 160.923C127.407 160.923 108.344 179.986 108.344 203.501C108.344 227.016 127.407 246.079 150.922 246.079Z" fill="#8BC54F"/>
<path d="M169.734 199.735C193.249 199.735 212.312 180.672 212.312 157.157C212.312 133.642 193.249 114.579 169.734 114.579C146.219 114.579 127.156 133.642 127.156 157.157C127.156 180.672 146.219 199.735 169.734 199.735Z" fill="#8BC54F"/>
<path d="M113.722 182.379C137.238 182.379 156.3 163.316 156.3 139.801C156.3 116.286 137.238 97.2231 113.722 97.2231C90.2073 97.2231 71.1445 116.286 71.1445 139.801C71.1445 163.316 90.2073 182.379 113.722 182.379Z" fill="#8BC54F"/>
<path d="M211.992 199.464C246.01 199.464 273.586 171.888 273.586 137.87C273.586 103.853 246.01 76.2764 211.992 76.2764C177.975 76.2764 150.398 103.853 150.398 137.87C150.398 171.888 177.975 199.464 211.992 199.464Z" fill="#8BC54F"/>
<path d="M145.203 123.188C179.221 123.188 206.797 95.6115 206.797 61.594C206.797 27.5766 179.221 0 145.203 0C111.186 0 83.6094 27.5766 83.6094 61.594C83.6094 95.6115 111.186 123.188 145.203 123.188Z" fill="#8BC54F"/>
<path d="M298.052 102.932C299.339 101.541 299.783 99.8584 299.043 99.1741C298.304 98.4897 296.66 99.063 295.373 100.454C294.086 101.846 293.643 103.528 294.382 104.213C295.122 104.897 296.765 104.324 298.052 102.932Z" fill="#7BAD53"/>
<path d="M68.8922 83.1864C70.1793 81.795 70.623 80.1123 69.8832 79.428C69.1434 78.7436 67.5003 79.3169 66.2133 80.7082C64.9262 82.0996 64.4825 83.7823 65.2223 84.4666C65.962 85.1509 67.6051 84.5778 68.8922 83.1864Z" fill="#7BAD53"/>
<path d="M217.224 216.704C215.582 215.756 213.843 215.695 213.339 216.568C212.835 217.441 213.758 218.917 215.399 219.864C217.04 220.812 218.78 220.873 219.283 220C219.787 219.127 218.865 217.652 217.224 216.704Z" fill="#7BAD53"/>
<path d="M97.4737 186.885C95.8322 185.938 94.0931 185.877 93.5892 186.75C93.0853 187.622 94.0075 189.098 95.649 190.046C97.2904 190.993 99.0295 191.054 99.5334 190.182C100.037 189.309 99.1151 187.833 97.4737 186.885Z" fill="#7BAD53"/>
<path d="M174.532 32.2012C172.891 31.2535 171.152 31.1928 170.648 32.0655C170.144 32.9383 171.066 34.414 172.708 35.3617C174.349 36.3094 176.088 36.3702 176.592 35.4974C177.096 34.6247 176.174 33.1489 174.532 32.2012Z" fill="#7BAD53"/>
</svg>
