<svg width="332" height="261" viewBox="0 0 332 261" fill="none" xmlns="http://www.w3.org/2000/svg">
<path d="M46.0783 158.156C71.5266 158.156 92.1565 137.527 92.1565 112.078C92.1565 86.6299 71.5266 66 46.0783 66C20.6299 66 0 86.6299 0 112.078C0 137.527 20.6299 158.156 46.0783 158.156Z" fill="#1E755B"/>
<path d="M105.894 147.62C131.144 147.62 151.612 126.99 151.612 101.542C151.612 76.0934 131.144 55.4635 105.894 55.4635C80.6446 55.4635 60.1758 76.0934 60.1758 101.542C60.1758 126.99 80.6446 147.62 105.894 147.62Z" fill="#1E755B"/>
<path d="M79.7183 112.156C104.968 112.156 125.437 91.5265 125.437 66.0782C125.437 40.6299 104.968 20 79.7183 20C54.4688 20 34 40.6299 34 66.0782C34 91.5265 54.4688 112.156 79.7183 112.156Z" fill="#1E755B"/>
<path d="M283.718 212.156C308.968 212.156 329.437 191.527 329.437 166.078C329.437 140.63 308.968 120 283.718 120C258.469 120 238 140.63 238 166.078C238 191.527 258.469 212.156 283.718 212.156Z" fill="#1E755B"/>
<path d="M273.318 169.356C305.526 169.356 331.636 143.085 331.636 110.678C331.636 78.2709 305.526 52 273.318 52C241.11 52 215 78.2709 215 110.678C215 143.085 241.11 169.356 273.318 169.356Z" fill="#1E755B"/>
<path d="M230.318 117.356C262.526 117.356 288.636 91.0846 288.636 58.6778C288.636 26.2709 262.526 0 230.318 0C198.11 0 172 26.2709 172 58.6778C172 91.0846 198.11 117.356 230.318 117.356Z" fill="#1E755B"/>
<path d="M249.078 260.156C274.527 260.156 295.156 239.527 295.156 214.078C295.156 188.63 274.527 168 249.078 168C223.63 168 203 188.63 203 214.078C203 239.527 223.63 260.156 249.078 260.156Z" fill="#1E755B"/>
<path d="M189.198 248.397C213.056 248.397 232.397 229.056 232.397 205.198C232.397 181.341 213.056 162 189.198 162C165.341 162 146 181.341 146 205.198C146 229.056 165.341 248.397 189.198 248.397Z" fill="#1E755B"/>
<path d="M223.3 200.27C247.158 200.27 266.498 180.929 266.498 157.072C266.498 133.214 247.158 113.873 223.3 113.873C199.442 113.873 180.102 133.214 180.102 157.072C180.102 180.929 199.442 200.27 223.3 200.27Z" fill="#1E755B"/>
<path d="M48.9581 219.916C75.997 219.916 97.9163 197.997 97.9163 170.958C97.9163 143.919 75.997 122 48.9581 122C21.9193 122 0 143.919 0 170.958C0 197.997 21.9193 219.916 48.9581 219.916Z" fill="#1E755B"/>
<path d="M110.597 255.195C147.378 255.195 177.195 225.378 177.195 188.597C177.195 151.817 147.378 122 110.597 122C73.8167 122 44 151.817 44 188.597C44 225.378 73.8167 255.195 110.597 255.195Z" fill="#1E755B"/>
<path d="M117.597 242.195C154.378 242.195 184.195 212.378 184.195 175.597C184.195 138.817 154.378 109 117.597 109C80.8167 109 51 138.817 51 175.597C51 212.378 80.8167 242.195 117.597 242.195Z" fill="#1E755B"/>
<path d="M176.811 173.539C205.44 173.539 228.649 150.492 228.649 122.061C228.649 93.6305 205.44 70.5829 176.811 70.5829C148.181 70.5829 124.973 93.6305 124.973 122.061C124.973 150.492 148.181 173.539 176.811 173.539Z" fill="#1E755B"/>
<path d="M156.408 120.151C185.038 120.151 208.246 97.1036 208.246 68.6731C208.246 40.2426 185.038 17.1951 156.408 17.1951C127.779 17.1951 104.57 40.2426 104.57 68.6731C104.57 97.1036 127.779 120.151 156.408 120.151Z" fill="#1E755B"/>
<path d="M247.853 45.0809C248.759 44.0206 247.878 41.7818 245.886 40.0805C243.894 38.3792 241.545 37.8595 240.64 38.9198C239.734 39.9801 240.615 42.2189 242.607 43.9202C244.599 45.6215 246.948 46.1411 247.853 45.0809Z" fill="#528C64"/>
<path d="M161.853 42.0809C162.759 41.0206 161.878 38.7818 159.886 37.0805C157.894 35.3792 155.545 34.8595 154.64 35.9198C153.734 36.9801 154.615 39.2189 156.607 40.9202C158.599 42.6215 160.948 43.1411 161.853 42.0809Z" fill="#528C64"/>
<path d="M306.227 172.814C306.904 174.033 309.309 173.99 311.599 172.718C313.889 171.445 315.196 169.426 314.519 168.207C313.842 166.988 311.437 167.031 309.147 168.304C306.857 169.576 305.549 171.595 306.227 172.814Z" fill="#528C64"/>
<path d="M79.2616 39.9297C79.9588 41.1373 82.3631 41.0545 84.6318 39.7446C86.9005 38.4348 88.1744 36.394 87.4772 35.1865C86.78 33.9789 84.3757 34.0618 82.107 35.3716C79.8384 36.6815 78.5644 38.7222 79.2616 39.9297Z" fill="#528C64"/>
<path d="M17.539 106.425C18.2362 107.633 20.6405 107.55 22.9091 106.24C25.1778 104.93 26.4517 102.89 25.7546 101.682C25.0574 100.475 22.6531 100.557 20.3844 101.867C18.1157 103.177 16.8418 105.218 17.539 106.425Z" fill="#528C64"/>
<path d="M86.1166 227.971C85.7215 229.308 87.4378 230.994 89.9501 231.736C92.4624 232.478 94.8193 231.996 95.2143 230.659C95.6094 229.322 93.8931 227.636 91.3808 226.894C88.8685 226.151 86.5116 226.634 86.1166 227.971Z" fill="#528C64"/>
<path d="M301.714 103.421C301.319 104.759 303.035 106.444 305.548 107.187C308.06 107.929 310.417 107.446 310.812 106.109C311.207 104.772 309.491 103.086 306.978 102.344C304.466 101.602 302.109 102.084 301.714 103.421Z" fill="#528C64"/>
</svg>
