<svg width="332" height="333" viewBox="0 0 332 333" fill="none" xmlns="http://www.w3.org/2000/svg">
<path d="M289.455 185.911C312.351 185.911 330.911 167.351 330.911 144.455C330.911 121.56 312.351 103 289.455 103C266.56 103 248 121.56 248 144.455C248 167.351 266.56 185.911 289.455 185.911Z" fill="#4C8D43"/>
<path d="M145.107 213.746C161.838 213.746 175.401 200.183 175.401 183.452C175.401 166.72 161.838 153.157 145.107 153.157C128.376 153.157 114.812 166.72 114.812 183.452C114.812 200.183 128.376 213.746 145.107 213.746Z" fill="#4C8D43"/>
<path d="M30.4272 146.854C47.2317 146.854 60.8545 133.232 60.8545 116.427C60.8545 99.6228 47.2317 86 30.4272 86C13.6227 86 0 99.6228 0 116.427C0 133.232 13.6227 146.854 30.4272 146.854Z" fill="#4C8D43"/>
<path d="M80.4272 184.854C97.2317 184.854 110.854 171.232 110.854 154.427C110.854 137.623 97.2317 124 80.4272 124C63.6227 124 50 137.623 50 154.427C50 171.232 63.6227 184.854 80.4272 184.854Z" fill="#4C8D43"/>
<path d="M71.4272 162.854C88.2317 162.854 101.854 149.232 101.854 132.427C101.854 115.623 88.2317 102 71.4272 102C54.6227 102 41 115.623 41 132.427C41 149.232 54.6227 162.854 71.4272 162.854Z" fill="#4C8D43"/>
<path d="M100.294 69.5887C117.025 69.5887 130.589 56.0255 130.589 39.2944C130.589 22.5633 117.025 9 100.294 9C83.5632 9 70 22.5633 70 39.2944C70 56.0255 83.5632 69.5887 100.294 69.5887Z" fill="#4C8D43"/>
<path d="M33.2943 240.589C50.0255 240.589 63.5887 227.025 63.5887 210.294C63.5887 193.563 50.0255 180 33.2943 180C16.5632 180 3 193.563 3 210.294C3 227.025 16.5632 240.589 33.2943 240.589Z" fill="#4C8D43"/>
<path d="M138.294 75.5887C155.025 75.5887 168.589 62.0254 168.589 45.2943C168.589 28.5632 155.025 15 138.294 15C121.563 15 108 28.5632 108 45.2943C108 62.0254 121.563 75.5887 138.294 75.5887Z" fill="#4C8D43"/>
<path d="M112.294 109.589C129.025 109.589 142.589 96.0254 142.589 79.2943C142.589 62.5632 129.025 49 112.294 49C95.5632 49 82 62.5632 82 79.2943C82 96.0254 95.5632 109.589 112.294 109.589Z" fill="#4C8D43"/>
<path d="M300.294 230.589C317.025 230.589 330.589 217.025 330.589 200.294C330.589 183.563 317.025 170 300.294 170C283.563 170 270 183.563 270 200.294C270 217.025 283.563 230.589 300.294 230.589Z" fill="#4C8D43"/>
<path d="M297.294 274.589C314.025 274.589 327.589 261.025 327.589 244.294C327.589 227.563 314.025 214 297.294 214C280.563 214 267 227.563 267 244.294C267 261.025 280.563 274.589 297.294 274.589Z" fill="#4C8D43"/>
<path d="M280.294 311.589C297.025 311.589 310.589 298.025 310.589 281.294C310.589 264.563 297.025 251 280.294 251C263.563 251 250 264.563 250 281.294C250 298.025 263.563 311.589 280.294 311.589Z" fill="#4C8D43"/>
<path d="M248.294 248.589C265.025 248.589 278.589 235.025 278.589 218.294C278.589 201.563 265.025 188 248.294 188C231.563 188 218 201.563 218 218.294C218 235.025 231.563 248.589 248.294 248.589Z" fill="#4C8D43"/>
<path d="M263.5 219C285.315 219 303 201.315 303 179.5C303 157.685 285.315 140 263.5 140C241.685 140 224 157.685 224 179.5C224 201.315 241.685 219 263.5 219Z" fill="#4C8D43"/>
<path d="M57.3577 117.981C85.1695 117.981 107.715 95.3757 107.715 67.4906C107.715 39.6054 85.1695 17 57.3577 17C29.5459 17 7 39.6054 7 67.4906C7 95.3757 29.5459 117.981 57.3577 117.981Z" fill="#4C8D43"/>
<path d="M64.3577 316.981C92.1696 316.981 114.715 294.376 114.715 266.491C114.715 238.605 92.1696 216 64.3577 216C36.5459 216 14 238.605 14 266.491C14 294.376 36.5459 316.981 64.3577 316.981Z" fill="#4C8D43"/>
<path d="M251.588 94.9109C274.557 94.9109 293.177 76.3506 293.177 53.4554C293.177 30.5602 274.557 12 251.588 12C228.62 12 210 30.5602 210 53.4554C210 76.3506 228.62 94.9109 251.588 94.9109Z" fill="#4C8D43"/>
<path d="M286.644 131.023C311.301 131.023 331.289 111.094 331.289 86.5114C331.289 61.9285 311.301 42 286.644 42C261.988 42 242 61.9285 242 86.5114C242 111.094 261.988 131.023 286.644 131.023Z" fill="#4C8D43"/>
<path d="M194.644 89.2886C219.301 89.2886 239.289 69.3007 239.289 44.6443C239.289 19.9879 219.301 0 194.644 0C169.988 0 150 19.9879 150 44.6443C150 69.3007 169.988 89.2886 194.644 89.2886Z" fill="#4C8D43"/>
<path d="M222.703 154.22C247.359 154.22 267.347 134.292 267.347 109.709C267.347 85.1257 247.359 65.1973 222.703 65.1973C198.047 65.1973 178.059 85.1257 178.059 109.709C178.059 134.292 198.047 154.22 222.703 154.22Z" fill="#4C8D43"/>
<path d="M208.5 230C235.286 230 257 208.286 257 181.5C257 154.714 235.286 133 208.5 133C181.714 133 160 154.714 160 181.5C160 208.286 181.714 230 208.5 230Z" fill="#4C8D43"/>
<path d="M48.4975 217.729C75.282 217.729 96.9951 196.076 96.9951 169.365C96.9951 142.654 75.282 121 48.4975 121C21.7131 121 0 142.654 0 169.365C0 196.076 21.7131 217.729 48.4975 217.729Z" fill="#4C8D43"/>
<path d="M161.498 332.729C188.282 332.729 209.995 311.076 209.995 284.365C209.995 257.654 188.282 236 161.498 236C134.713 236 113 257.654 113 284.365C113 311.076 134.713 332.729 161.498 332.729Z" fill="#4C8D43"/>
<path d="M176.5 274C204.943 274 228 250.943 228 222.5C228 194.057 204.943 171 176.5 171C148.057 171 125 194.057 125 222.5C125 250.943 148.057 274 176.5 274Z" fill="#4C8D43"/>
<path d="M111.5 274C141.599 274 166 249.599 166 219.5C166 189.4 141.599 165 111.5 165C81.4005 165 57 189.4 57 219.5C57 249.599 81.4005 274 111.5 274Z" fill="#4C8D43"/>
<path d="M104.5 323C123.002 323 138 308.002 138 289.5C138 270.998 123.002 256 104.5 256C85.9984 256 71 270.998 71 289.5C71 308.002 85.9984 323 104.5 323Z" fill="#4C8D43"/>
<path d="M237.498 325.729C264.282 325.729 285.995 304.076 285.995 277.365C285.995 250.654 264.282 229 237.498 229C210.713 229 189 250.654 189 277.365C189 304.076 210.713 325.729 237.498 325.729Z" fill="#4C8D43"/>
<path d="M143.78 187.438C176.949 187.438 203.837 160.549 203.837 127.38C203.837 94.2118 176.949 67.3232 143.78 67.3232C110.611 67.3232 83.7227 94.2118 83.7227 127.38C83.7227 160.549 110.611 187.438 143.78 187.438Z" fill="#4C8D43"/>
<path d="M308.367 152.337C309.669 150.774 310.049 148.945 309.218 148.253C308.386 147.561 306.657 148.268 305.356 149.832C304.055 151.396 303.674 153.224 304.506 153.916C305.337 154.608 307.066 153.901 308.367 152.337Z" fill="#7BAD53"/>
<path d="M302.435 79.1532C302.937 78.1949 301.883 76.6529 300.081 75.7091C298.278 74.7653 296.411 74.7771 295.909 75.7355C295.407 76.6938 296.461 78.2358 298.263 79.1796C300.065 80.1233 301.933 80.1116 302.435 79.1532Z" fill="#7BAD53"/>
<path d="M187.236 22.9873C187.773 21.8983 186.549 20.1981 184.504 19.1897C182.458 18.1813 180.364 18.2465 179.827 19.3354C179.291 20.4244 180.514 22.1246 182.56 23.1331C184.605 24.1415 186.699 24.0762 187.236 22.9873Z" fill="#7BAD53"/>
<path d="M252.38 274.623C252.917 273.535 251.694 271.834 249.648 270.826C247.602 269.818 245.509 269.883 244.972 270.972C244.435 272.061 245.658 273.761 247.704 274.769C249.75 275.778 251.844 275.712 252.38 274.623Z" fill="#7BAD53"/>
<path d="M39.8507 64.1212C40.5721 63.4539 40.1395 61.8132 38.8845 60.4566C37.6296 59.0999 36.0275 58.541 35.3061 59.2083C34.5848 59.8756 35.0174 61.5163 36.2723 62.873C37.5273 64.2296 39.1294 64.7885 39.8507 64.1212Z" fill="#7BAD53"/>
<path d="M39.4351 132.153C39.937 131.195 38.8829 129.653 37.0806 128.709C35.2784 127.765 33.4106 127.777 32.9087 128.735C32.4068 129.694 33.461 131.236 35.2632 132.18C37.0654 133.123 38.9333 133.112 39.4351 132.153Z" fill="#7BAD53"/>
</svg>
