<svg width="327" height="316" viewBox="0 0 327 316" fill="none" xmlns="http://www.w3.org/2000/svg">
<path d="M237.5 98C264.286 98 286 76.2858 286 49.5C286 22.7142 264.286 1 237.5 1C210.714 1 189 22.7142 189 49.5C189 76.2858 210.714 98 237.5 98Z" fill="#82B441"/>
<path d="M178.5 174C205.286 174 227 152.286 227 125.5C227 98.7142 205.286 77 178.5 77C151.714 77 130 98.7142 130 125.5C130 152.286 151.714 174 178.5 174Z" fill="#82B441"/>
<path d="M120.5 180C147.286 180 169 158.286 169 131.5C169 104.714 147.286 83 120.5 83C93.7142 83 72 104.714 72 131.5C72 158.286 93.7142 180 120.5 180Z" fill="#82B441"/>
<path d="M70.5 91C93.9721 91 113 72.196 113 49C113 25.804 93.9721 7 70.5 7C47.0279 7 28 25.804 28 49C28 72.196 47.0279 91 70.5 91Z" fill="#82B441"/>
<path d="M51.5 146C74.9721 146 94 127.196 94 104C94 80.804 74.9721 62 51.5 62C28.0279 62 9 80.804 9 104C9 127.196 28.0279 146 51.5 146Z" fill="#82B441"/>
<path d="M42.5 188C65.9721 188 85 169.196 85 146C85 122.804 65.9721 104 42.5 104C19.0279 104 0 122.804 0 146C0 169.196 19.0279 188 42.5 188Z" fill="#82B441"/>
<path d="M93.5 139C116.972 139 136 120.196 136 97C136 73.804 116.972 55 93.5 55C70.0279 55 51 73.804 51 97C51 120.196 70.0279 139 93.5 139Z" fill="#82B441"/>
<path d="M151.5 123C185.466 123 213 95.4655 213 61.5C213 27.5345 185.466 0 151.5 0C117.534 0 90 27.5345 90 61.5C90 95.4655 117.534 123 151.5 123Z" fill="#82B441"/>
<path d="M270.5 125C293.42 125 312 106.42 312 83.5C312 60.5802 293.42 42 270.5 42C247.58 42 229 60.5802 229 83.5C229 106.42 247.58 125 270.5 125Z" fill="#82B441"/>
<path d="M221.5 150C248.286 150 270 128.286 270 101.5C270 74.7142 248.286 53 221.5 53C194.714 53 173 74.7142 173 101.5C173 128.286 194.714 150 221.5 150Z" fill="#82B441"/>
<path d="M239 167C256.673 167 271 152.897 271 135.5C271 118.103 256.673 104 239 104C221.327 104 207 118.103 207 135.5C207 152.897 221.327 167 239 167Z" fill="#82B441"/>
<path d="M132.5 210C149.897 210 164 195.897 164 178.5C164 161.103 149.897 147 132.5 147C115.103 147 101 161.103 101 178.5C101 195.897 115.103 210 132.5 210Z" fill="#82B441"/>
<path d="M302 145C315.255 145 326 134.479 326 121.5C326 108.521 315.255 98 302 98C288.745 98 278 108.521 278 121.5C278 134.479 288.745 145 302 145Z" fill="#82B441"/>
<path d="M267 148C280.255 148 291 137.479 291 124.5C291 111.521 280.255 101 267 101C253.745 101 243 111.521 243 124.5C243 137.479 253.745 148 267 148Z" fill="#82B441"/>
<path d="M223 241C246.196 241 265 222.42 265 199.5C265 176.58 246.196 158 223 158C199.804 158 181 176.58 181 199.5C181 222.42 199.804 241 223 241Z" fill="#82B441"/>
<path d="M249 261C272.196 261 291 242.42 291 219.5C291 196.58 272.196 178 249 178C225.804 178 207 196.58 207 219.5C207 242.42 225.804 261 249 261Z" fill="#82B441"/>
<path d="M131 316C159.719 316 183 292.943 183 264.5C183 236.057 159.719 213 131 213C102.281 213 79 236.057 79 264.5C79 292.943 102.281 316 131 316Z" fill="#82B441"/>
<path d="M167 275C195.719 275 219 251.943 219 223.5C219 195.057 195.719 172 167 172C138.281 172 115 195.057 115 223.5C115 251.943 138.281 275 167 275Z" fill="#82B441"/>
<path d="M51 261C78.0619 261 100 239.286 100 212.5C100 185.714 78.0619 164 51 164C23.938 164 2 185.714 2 212.5C2 239.286 23.938 261 51 261Z" fill="#82B441"/>
<path d="M71 307C98.0619 307 120 285.286 120 258.5C120 231.714 98.0619 210 71 210C43.938 210 22 231.714 22 258.5C22 285.286 43.938 307 71 307Z" fill="#82B441"/>
<path d="M285 213C308.196 213 327 193.972 327 170.5C327 147.028 308.196 128 285 128C261.804 128 243 147.028 243 170.5C243 193.972 261.804 213 285 213Z" fill="#82B441"/>
<path d="M276 302C296.435 302 313 285.211 313 264.5C313 243.789 296.435 227 276 227C255.565 227 239 243.789 239 264.5C239 285.211 255.565 302 276 302Z" fill="#82B441"/>
<path d="M215 289C238.196 289 257 269.972 257 246.5C257 223.028 238.196 204 215 204C191.804 204 173 223.028 173 246.5C173 269.972 191.804 289 215 289Z" fill="#82B441"/>
<path d="M301 241C315.359 241 327 229.136 327 214.5C327 199.864 315.359 188 301 188C286.641 188 275 199.864 275 214.5C275 229.136 286.641 241 301 241Z" fill="#82B441"/>
<path d="M208 316C231.196 316 250 296.972 250 273.5C250 250.028 231.196 231 208 231C184.804 231 166 250.028 166 273.5C166 296.972 184.804 316 208 316Z" fill="#82B441"/>
<path d="M133 245C156.196 245 175 225.972 175 202.5C175 179.028 156.196 160 133 160C109.804 160 91 179.028 91 202.5C91 225.972 109.804 245 133 245Z" fill="#82B441"/>
<path d="M181 224C200.882 224 217 207.435 217 187C217 166.565 200.882 150 181 150C161.118 150 145 166.565 145 187C145 207.435 161.118 224 181 224Z" fill="#82B441"/>
<path d="M230.5 203C250.658 203 267 187.106 267 167.5C267 147.894 250.658 132 230.5 132C210.342 132 194 147.894 194 167.5C194 187.106 210.342 203 230.5 203Z" fill="#82B441"/>
<path d="M79.5 221C98.0015 221 113 206.002 113 187.5C113 168.998 98.0015 154 79.5 154C60.9985 154 46 168.998 46 187.5C46 206.002 60.9985 221 79.5 221Z" fill="#82B441"/>
</svg>
