<svg width="191" height="118" viewBox="0 0 191 118" fill="none" xmlns="http://www.w3.org/2000/svg">
<path d="M185.566 108.918L121.395 96.4755L123.127 82.8117L188.464 86.7602C189.197 86.8393 189.871 87.2007 190.343 87.768C190.815 88.3353 191.048 89.064 190.992 89.7998L188.861 106.588C188.8 106.958 188.665 107.313 188.465 107.63C188.266 107.948 188.005 108.223 187.699 108.44C187.393 108.656 187.046 108.81 186.68 108.892C186.314 108.974 185.936 108.983 185.566 108.918Z" fill="url(#paint0_linear_1987_3407)"/>
<path d="M143.938 91.2198C132.833 104.085 117.678 112.784 100.968 115.882C84.2576 118.98 66.9907 116.293 52.0124 108.264C15.9922 89.4301 0.141076 41.479 12.2425 19.8613C24.3439 -1.75652 64.4831 6.25425 84.7374 33.1557C101.814 55.0448 121.722 74.57 143.938 91.2198Z" fill="url(#paint1_linear_1987_3407)"/>
<path d="M19.3236 12.1346L0.944363 12.7595C0.880448 12.7641 0.818697 12.7853 0.765432 12.8209C0.712166 12.8565 0.669081 12.9054 0.640423 12.9627C0.611765 13.02 0.598646 13.0838 0.602105 13.1478C0.605565 13.2118 0.625518 13.2737 0.660188 13.3276L9.60848 26.9062C21.3974 22.4747 19.3236 12.1346 19.3236 12.1346Z" fill="url(#paint2_linear_1987_3407)"/>
<path d="M36.5406 29.0656C40.5413 29.0656 43.7844 25.8224 43.7844 21.8218C43.7844 17.8212 40.5413 14.5779 36.5406 14.5779C32.54 14.5779 29.2969 17.8212 29.2969 21.8218C29.2969 25.8224 32.54 29.0656 36.5406 29.0656Z" fill="#272328"/>
<path d="M34.3463 23.8666C36.0563 23.8666 37.4427 22.4803 37.4427 20.7702C37.4427 19.0601 36.0563 17.6738 34.3463 17.6738C32.6362 17.6738 31.25 19.0601 31.25 20.7702C31.25 22.4803 32.6362 23.8666 34.3463 23.8666Z" fill="white"/>
<path d="M127.666 47.0469C141.074 42.5586 149.738 31.0253 147.551 19.4352C145.108 6.45321 130.023 -1.38718 113.775 1.3683C90.8786 5.23166 69.4881 29.7754 63.409 37.2464C62.8812 37.9004 62.5501 38.691 62.4545 39.5259C62.359 40.3608 62.5028 41.2057 62.8693 41.962C67.0735 50.4841 82.2997 79.3741 103.719 88.3791C118.916 94.7423 135.392 90.5381 140.648 78.4651C145.505 67.6988 139.71 54.4611 127.666 47.0469Z" fill="#F37065"/>
<defs>
<linearGradient id="paint0_linear_1987_3407" x1="82.1892" y1="88.6727" x2="248.674" y2="103.236" gradientUnits="userSpaceOnUse">
<stop offset="0.02" stop-color="#F8AB82"/>
<stop offset="0.28" stop-color="#F38289"/>
<stop offset="0.96" stop-color="#F9BA88"/>
</linearGradient>
<linearGradient id="paint1_linear_1987_3407" x1="171.78" y1="170.148" x2="-54.9424" y2="-45.7442" gradientUnits="userSpaceOnUse">
<stop offset="0.02" stop-color="#F8AB82"/>
<stop offset="0.28" stop-color="#F38289"/>
<stop offset="0.96" stop-color="#F9BA88"/>
</linearGradient>
<linearGradient id="paint2_linear_1987_3407" x1="39.9768" y1="33.3799" x2="-31.3976" y2="-6.08778" gradientUnits="userSpaceOnUse">
<stop offset="0.02" stop-color="#F8AB82"/>
<stop offset="0.28" stop-color="#F38289"/>
<stop offset="0.96" stop-color="#F9BA88"/>
</linearGradient>
</defs>
</svg>
