<svg width="134" height="117" viewBox="0 0 134 117" fill="none" xmlns="http://www.w3.org/2000/svg">
<path d="M117.341 63.575C117.864 64.5918 118.308 65.6476 118.667 66.733C119.816 70.078 120.079 73.6633 119.432 77.1402C118.785 80.6171 117.249 83.8674 114.974 86.575C112.698 89.2826 109.761 91.3553 106.447 92.5917C103.134 93.828 99.5567 94.1858 96.0639 93.6305C92.5711 93.0751 89.2814 91.6253 86.5148 89.4222C83.7481 87.219 81.5989 84.3374 80.2756 81.0576C78.9523 77.7779 78.5002 74.2115 78.9633 70.7053C79.4264 67.199 80.7888 63.8723 82.9182 61.0485C77.4757 56.894 73.5228 51.0909 71.6491 44.5053C69.7755 37.9197 70.0818 30.9048 72.5223 24.5076C74.9628 18.1103 79.4065 12.6738 85.1904 9.0095C90.9743 5.34518 97.7881 3.64952 104.615 4.17561C111.442 4.70171 117.915 7.42134 123.069 11.9286C128.223 16.4359 131.782 22.489 133.213 29.1847C134.645 35.8803 133.873 42.8593 131.012 49.0801C128.152 55.3008 123.356 60.4297 117.341 63.7013V63.575ZM62.833 75.2282C61.8549 68.4951 58.7285 62.258 53.9192 57.4453C49.1099 52.6326 42.875 49.5018 36.1426 48.5189C29.4102 47.5361 22.5405 48.7537 16.5561 51.9905C10.5716 55.2274 5.79262 60.3105 2.93041 66.4829C0.068205 72.6553 -0.724047 79.587 0.671546 86.2461C2.06714 92.9051 5.57589 98.9354 10.6756 103.439C15.7753 107.943 22.1932 110.679 28.9738 111.241C35.7543 111.803 42.5349 110.159 48.3061 106.556C48.8951 107.484 49.5606 108.36 50.2956 109.177C52.6459 111.817 55.6388 113.804 58.9838 114.946C62.3288 116.087 65.9121 116.345 69.3858 115.692C72.8596 115.04 76.1056 113.501 78.8087 111.223C81.5118 108.946 83.58 106.009 84.8126 102.696C86.0452 99.3836 86.4003 95.8086 85.8432 92.3183C85.2862 88.828 83.836 85.5411 81.6335 82.7768C79.4311 80.0125 76.5513 77.8647 73.2737 76.542C69.996 75.2194 66.4321 74.7668 62.9279 75.2282H62.833Z" fill="url(#paint0_linear_1987_3409)"/>
<path d="M21.0273 24.2576L55.2291 42.1321" stroke="#8B6339" stroke-width="0.23" stroke-miterlimit="10"/>
<path d="M22.672 27.3525C23.9103 27.3525 24.9141 26.3486 24.9141 25.1103C24.9141 23.872 23.9103 22.8681 22.672 22.8681C21.4336 22.8681 20.4297 23.872 20.4297 25.1103C20.4297 26.3486 21.4336 27.3525 22.672 27.3525Z" fill="#EA8BA0"/>
<path d="M56.1211 1.99315L57.7317 40.553" stroke="#8B6339" stroke-width="0.23" stroke-miterlimit="10"/>
<path d="M57.0724 54.0695C63.5781 54.0695 68.8521 48.7956 68.8521 42.2899C68.8521 35.7842 63.5781 30.5104 57.0724 30.5104C50.5668 30.5104 45.293 35.7842 45.293 42.2899C45.293 48.7956 50.5668 54.0695 57.0724 54.0695Z" fill="#EA8BA0"/>
<path d="M66.8295 82.9969C72.2298 91.5237 83.5989 101.598 92.7572 103.461C93.6922 103.636 94.6584 103.449 95.4614 102.939C96.2643 102.429 96.8441 101.634 97.0838 100.714C99.2944 91.6184 95.0309 77.0598 89.6306 68.533C83.5671 59.0589 70.6824 48.6689 60.3556 47.5636C56.9764 57.4798 60.8608 73.4596 66.8295 82.9969Z" fill="#EA8BA0"/>
<path d="M55.8478 4.48443C57.0861 4.48443 58.0899 3.48054 58.0899 2.24219C58.0899 1.00385 57.0861 0 55.8478 0C54.6094 0 53.6055 1.00385 53.6055 2.24219C53.6055 3.48054 54.6094 4.48443 55.8478 4.48443Z" fill="#EA8BA0"/>
<defs>
<linearGradient id="paint0_linear_1987_3409" x1="19.1464" y1="81.598" x2="207.741" y2="-175.62" gradientUnits="userSpaceOnUse">
<stop offset="0.02" stop-color="#F48998"/>
<stop offset="0.03" stop-color="#F48A99"/>
<stop offset="0.15" stop-color="#F594A6"/>
<stop offset="0.26" stop-color="#F597AA"/>
<stop offset="0.45" stop-color="#F8B2BB"/>
<stop offset="0.61" stop-color="#F9BFBF"/>
<stop offset="0.75" stop-color="#FAC5C1"/>
<stop offset="0.86" stop-color="#FBD2CE"/>
<stop offset="0.97" stop-color="#FCDAD7"/>
</linearGradient>
</defs>
</svg>
