<svg viewBox="0 0 1440 1184" fill="none" xmlns="http://www.w3.org/2000/svg">
<mask id="mask0_2357_554" style="mask-type:alpha" maskUnits="userSpaceOnUse" x="0" y="0" width="1440" height="1184">
<rect width="1440" height="1184" fill="white"/>
</mask>
<g mask="url(#mask0_2357_554)">
<path opacity="0.6" fill-rule="evenodd" clip-rule="evenodd" d="M1755.98 -151.649C1762.53 -157.423 1772.21 -157.378 1778.71 -151.944L2075 95.4874L1172.32 1176L603.84 701.184C598.31 696.567 593.317 691.545 588.867 686.198L195.246 1163L-994 181.017L-724.774 -145.045C-718.875 -152.215 -708.461 -154.203 -700.241 -149.304C-697.753 -147.829 -695.727 -145.866 -694.2 -143.622C-686.634 -149.547 -675.913 -150.561 -667.153 -145.353C-660.087 -141.146 -655.97 -133.874 -655.483 -126.243C-651.751 -125.871 -648.045 -124.703 -644.608 -122.664C-640.594 -120.278 -637.465 -116.982 -635.284 -113.199C-625.281 -117.316 -613.534 -116.828 -603.531 -110.877C-595.708 -106.221 -590.322 -99.0258 -587.795 -90.9711C-579.023 -92.0998 -569.866 -90.5222 -561.607 -85.892C-549.334 -104.567 -526.071 -114.199 -503.294 -108.094C-479.928 -101.835 -464.384 -80.9668 -463.82 -57.9442C-457.267 -56.854 -450.803 -54.5709 -444.75 -50.9668C-435.055 -45.1951 -427.783 -36.8967 -423.282 -27.4183C-405.699 -34.2417 -385.039 -31.6252 -369.457 -18.7608C-363.532 -13.8613 -358.941 -7.94847 -355.684 -1.49701C-334.023 -14.4128 -307.963 -14.5282 -289.945 0.349945C-272.542 14.715 -267.451 39.1229 -274.863 62.1584C-262.795 63.877 -251.022 68.8279 -240.929 77.1648C-232.209 84.373 -225.72 93.2742 -221.552 103.009C-193.479 90.9142 -159.776 94.5953 -134.575 115.399C-120.763 126.814 -111.517 141.705 -107.067 157.763C-79.6992 153.954 -50.8824 161.188 -27.888 180.17C-17.1411 189.046 -8.67682 199.666 -2.55951 211.273C29.9251 162.15 98.4595 144.835 158.081 173.129C184.217 185.532 204.634 204.809 217.869 227.28C219.049 225.728 220.241 224.189 221.498 222.676C274.515 158.443 369.558 149.375 433.783 202.398C464.844 228.037 483.004 263.501 487.479 300.555C513.872 301.94 540.06 311.483 562.003 329.606C564.542 331.709 566.992 333.89 569.326 336.134C610.505 321.064 658.354 327.618 694.609 357.554C726.291 383.709 742.121 421.948 740.938 460.066C748.799 456.159 757.032 453.18 765.464 451.146C763.27 417.152 773.625 382.274 797.194 354.068C845.938 295.727 932.76 287.935 991.122 336.673C993.141 338.352 995.085 340.09 996.985 341.858C1027.11 319.249 1067.13 314.506 1101.56 328.985C1101.63 328.908 1101.69 328.831 1101.75 328.754C1101.79 328.699 1101.84 328.643 1101.88 328.587C1124.33 301.707 1157.27 288.79 1189.74 290.778C1193.21 278.641 1199.21 267.02 1207.82 256.71C1225.28 235.824 1249.92 224.498 1275.13 223.334C1276.42 208.178 1282.23 193.273 1292.72 180.709C1311.84 157.82 1341.46 148.865 1368.7 155.007C1370.8 145.58 1375.13 136.493 1381.75 128.569C1389.41 119.392 1399.15 112.971 1409.69 109.406C1399.17 89.9935 1399.65 67.2374 1412.86 51.4185C1426.53 35.0547 1449.94 30.7833 1471.55 38.7369C1473.39 32.3888 1476.51 26.3204 1481.02 20.9297C1492.85 6.77519 1510.95 0.957291 1527.88 4.13873C1530.32 -5.12575 1535.46 -13.7863 1543.2 -20.5911C1548.01 -24.833 1553.43 -27.9703 1559.13 -30.0471C1555.78 -50.7854 1566.22 -72.1276 1586.15 -81.6572C1605.57 -90.9511 1628.06 -86.2084 1642.2 -71.5089C1648.83 -77.047 1656.78 -79.9928 1664.84 -80.4494C1665.75 -88.1084 1669.38 -95.4581 1675.62 -100.952C1683.61 -107.978 1694.07 -110.379 1703.73 -108.361C1705.06 -112.117 1707.32 -115.607 1710.52 -118.421C1713.26 -120.821 1716.4 -122.486 1719.68 -123.443C1718.83 -130.366 1721.3 -137.583 1726.95 -142.546C1733.93 -148.703 1743.72 -149.587 1751.52 -145.536C1752.5 -147.805 1753.99 -149.911 1755.98 -151.649Z" fill="white"/>
</g>
</svg>
