<svg width="295" height="305" viewBox="0 0 295 305" fill="none" xmlns="http://www.w3.org/2000/svg">
<path d="M192.434 229.335L188.136 230.845C182.844 232.703 180.061 238.499 181.919 243.791L190.221 267.433C192.08 272.724 197.876 275.507 203.167 273.649L207.466 272.14C212.757 270.281 215.54 264.486 213.682 259.194L205.38 235.552C203.522 230.261 197.726 227.477 192.434 229.335Z" fill="url(#paint0_linear_1996_8074)"/>
<path d="M176.361 242.44C176.134 244.265 176.23 246.115 176.646 247.906C176.705 248.21 176.829 248.498 177.011 248.749C177.192 249 177.426 249.209 177.696 249.36C177.967 249.511 178.267 249.602 178.576 249.625C178.884 249.649 179.195 249.604 179.485 249.496L211.067 238.44C211.361 238.345 211.63 238.187 211.857 237.977C212.083 237.767 212.262 237.51 212.379 237.225C212.496 236.939 212.55 236.631 212.537 236.322C212.524 236.014 212.443 235.712 212.301 235.437C210.703 232.403 208.219 229.927 205.18 228.337C202.842 226.997 200.241 226.179 197.557 225.939C194.872 225.699 192.168 226.043 189.629 226.948L188.777 227.25C185.49 228.361 182.583 230.375 180.387 233.061C178.191 235.748 176.796 238.998 176.361 242.44Z" fill="url(#paint1_linear_1996_8074)"/>
<path d="M143.083 246.676L138.784 248.185C133.493 250.043 130.71 255.84 132.568 261.131L140.87 284.773C142.728 290.064 148.524 292.848 153.816 290.989L158.114 289.48C163.406 287.622 166.189 281.826 164.331 276.534L156.029 252.892C154.17 247.601 148.374 244.818 143.083 246.676Z" fill="url(#paint2_linear_1996_8074)"/>
<path d="M126.892 259.789C126.676 261.613 126.772 263.462 127.177 265.254C127.236 265.561 127.361 265.851 127.543 266.104C127.726 266.357 127.963 266.567 128.235 266.718C128.508 266.87 128.811 266.959 129.123 266.981C129.434 267.002 129.746 266.955 130.037 266.842L161.598 255.788C161.892 255.693 162.161 255.535 162.388 255.325C162.615 255.115 162.793 254.859 162.91 254.573C163.028 254.287 163.082 253.979 163.068 253.671C163.055 253.362 162.974 253.06 162.833 252.786C161.234 249.751 158.75 247.275 155.711 245.685C153.377 244.345 150.78 243.527 148.099 243.287C145.418 243.047 142.717 243.39 140.181 244.294L139.309 244.599C136.023 245.712 133.116 247.726 130.921 250.412C128.725 253.098 127.329 256.347 126.892 259.789Z" fill="url(#paint3_linear_1996_8074)"/>
<path d="M216.339 121.394C223.081 122.374 248.678 127.364 266.486 149.332L268.593 157.023L261.855 162.792L260.461 155.471C260.461 155.471 242.812 133.896 217.151 129.445C216.872 129.406 216.599 129.327 216.342 129.211L214.84 128.582C214.255 128.337 213.739 127.953 213.336 127.463C212.934 126.974 212.657 126.393 212.529 125.772C212.402 125.15 212.428 124.508 212.606 123.899C212.783 123.29 213.107 122.734 213.548 122.278C213.919 121.934 214.362 121.676 214.845 121.523C215.327 121.37 215.838 121.326 216.339 121.394Z" fill="url(#paint4_linear_1996_8074)"/>
<path d="M264.623 146.832C264.623 146.832 277.42 139.919 281.897 145.18C284.933 148.718 280.329 150.708 280.329 150.708C280.329 150.708 289.661 155.795 280.47 159.73C280.47 159.73 286.172 166.431 278.168 167.025C269.212 167.738 266.561 162.332 266.561 162.332C266.561 162.332 263.82 171.37 258.467 169.852C253.114 168.335 256.053 158.833 259.374 154.404C262.695 149.975 264.623 146.832 264.623 146.832Z" fill="url(#paint5_linear_1996_8074)"/>
<path d="M280.328 150.708C279.655 150.569 278.985 150.473 278.337 150.375C277.682 150.265 277.02 150.196 276.356 150.17C275.032 150.04 273.696 150.147 272.409 150.484C272.976 150.072 273.621 149.781 274.305 149.628C275.003 149.483 275.716 149.426 276.428 149.459C277.808 149.563 279.144 149.991 280.328 150.708Z" fill="#F58443"/>
<path d="M280.475 159.729L278.267 158.815C277.506 158.522 276.73 158.271 275.943 158.06C274.37 157.581 272.771 157.194 271.152 156.904C271.991 156.823 272.836 156.828 273.674 156.917C274.504 157.031 275.325 157.208 276.129 157.448C277.708 157.93 279.182 158.703 280.475 159.729Z" fill="#F58443"/>
<path d="M90.7973 204.187C86.6914 206.265 67.2695 215.007 46.2686 208.2L41.7919 204.007L43.9569 197.129L47.7969 201.373C47.7969 201.373 68.0459 207.855 86.7173 199.344C86.9435 199.243 87.1822 199.174 87.427 199.138L89.1342 198.852C89.6426 198.78 90.1611 198.847 90.6343 199.047C91.1074 199.246 91.5173 199.571 91.8202 199.985C92.123 200.4 92.3074 200.89 92.3536 201.401C92.3997 201.912 92.3059 202.427 92.0822 202.889C91.819 203.459 91.3643 203.918 90.7973 204.187Z" fill="#F58443"/>
<path d="M47.7534 201.054C47.5425 206.004 45.4472 210.686 41.8966 214.142C39.6522 216.264 36.9802 217.843 34.3967 217.045C30.0206 215.728 32.7777 211.728 32.7777 211.728C32.7777 211.728 22.5488 212.542 27.9288 204.468C27.9288 204.468 18.6757 201.98 25.9948 197.34C33.3138 192.7 37.8822 195.091 37.8822 195.091C37.8822 195.091 35.4115 186.318 40.5443 184.799C45.677 183.28 48.2451 192.473 47.9831 197.769C47.8773 198.944 47.8008 200.04 47.7534 201.054Z" fill="url(#paint6_linear_1996_8074)"/>
<path d="M32.7808 211.729C35.2394 210.922 37.4718 209.544 39.2949 207.708C39.0542 208.34 38.6855 208.914 38.2119 209.396C37.7276 209.873 37.1869 210.289 36.6019 210.635C35.4282 211.286 34.1212 211.66 32.7808 211.729Z" fill="#F58443"/>
<path d="M27.9689 204.466C28.7753 204.402 29.5453 204.148 30.3221 203.98C31.0989 203.811 31.8545 203.644 32.6049 203.414C34.1212 202.977 35.6127 202.46 37.0731 201.862C36.4378 202.357 35.7572 202.79 35.0404 203.156C34.3087 203.497 33.5538 203.785 32.7812 204.019C31.2202 204.473 29.5868 204.625 27.9689 204.466Z" fill="#F58443"/>
<path d="M202.925 78.9805C202.925 78.9805 218.742 36.2055 184.272 8.81462C183.159 7.92938 181.795 7.41814 180.375 7.35389C178.955 7.28964 177.55 7.67566 176.362 8.45683C175.174 9.23799 174.263 10.3744 173.76 11.7039C173.256 13.0334 173.185 14.4882 173.556 15.8605C177.441 30.0523 175.741 52.4407 152.885 84.8627L202.925 78.9805Z" fill="url(#paint7_linear_1996_8074)"/>
<path d="M36.1222 137.569C36.1222 137.569 -3.0529 114.119 6.78924 71.1362C7.11616 69.7663 7.86351 68.5329 8.9266 67.6089C9.98968 66.685 11.3152 66.1169 12.7174 65.9842C14.1196 65.8514 15.5281 66.1606 16.7457 66.8686C17.9633 67.5765 18.9289 68.6478 19.5071 69.932C25.3652 83.4329 40.6831 99.8757 78.8034 110.874L36.1222 137.569Z" fill="url(#paint8_linear_1996_8074)"/>
<path d="M204.011 71.9749C204.011 71.9749 224.882 83.8541 225.981 106.532C225.995 106.87 225.917 107.205 225.757 107.503C225.597 107.801 225.361 108.05 225.072 108.226C224.783 108.401 224.453 108.496 224.115 108.501C223.777 108.506 223.443 108.42 223.15 108.253C220.914 107 217.982 105.311 215.667 104.128C218.114 107.866 219.83 112.034 220.724 116.411C220.781 116.792 220.722 117.18 220.554 117.526C220.386 117.872 220.116 118.158 219.781 118.347C219.446 118.536 219.062 118.618 218.679 118.583C218.296 118.549 217.933 118.398 217.637 118.152C215.515 116.441 212.649 115.046 210.441 117.358C214.241 121.892 217.08 127.152 218.783 132.818C218.879 133.208 218.848 133.618 218.696 133.989C218.543 134.36 218.277 134.674 217.935 134.884C217.593 135.094 217.193 135.19 216.793 135.158C216.393 135.126 216.013 134.968 215.709 134.707C212.774 132.185 208.884 129.462 206.249 130.697C206.249 130.697 206.027 147.501 204.728 163.109C204.728 163.109 214.38 171.161 214.127 191.064C214.102 191.456 213.955 191.831 213.707 192.136C213.46 192.441 213.123 192.662 212.744 192.767C212.365 192.872 211.963 192.857 211.593 192.723C211.223 192.59 210.904 192.345 210.68 192.021C208.148 188.379 204.517 183.82 201.914 183.578C201.914 183.578 209.797 199.182 206.097 212.525C206.002 212.912 205.788 213.259 205.484 213.518C205.181 213.776 204.804 213.932 204.407 213.963C204.009 213.995 203.612 213.901 203.272 213.694C202.932 213.487 202.665 213.178 202.51 212.81C201.226 209.56 199.249 205.915 196.99 206.245C196.99 206.245 181.876 169.006 182.991 166.376C184.105 163.746 207.188 103.308 207.188 103.308L204.011 71.9749Z" fill="url(#paint9_radial_1996_8074)"/>
<path d="M29.7265 142.499C29.7265 142.499 24.1739 153.235 31.0007 168.175C31.156 168.506 31.403 168.787 31.7125 168.982C32.0219 169.177 32.3809 169.28 32.7469 169.278C33.113 169.276 33.4708 169.169 33.7779 168.97C34.085 168.771 34.3287 168.488 34.48 168.154C35.2669 165.945 36.5285 163.934 38.1759 162.265C38.1759 162.265 37.431 171.422 49.131 184.266C49.3278 184.481 49.5711 184.648 49.8424 184.755C50.1137 184.862 50.4057 184.905 50.6963 184.882C50.9869 184.859 51.2684 184.77 51.5194 184.622C51.7704 184.473 51.9842 184.27 52.1445 184.026C53.3117 182.126 54.5926 180.298 55.9803 178.553C56.8169 186.213 60.1656 193.381 65.504 198.937C65.7319 199.164 66.0129 199.329 66.3213 199.418C66.6296 199.507 66.9555 199.517 67.2689 199.448C67.5822 199.378 67.8731 199.231 68.1147 199.02C68.3564 198.808 68.5411 198.54 68.6518 198.239C69.342 196.176 71.1161 194.049 75.5559 195.361C75.5559 195.361 89.0249 196.618 101.427 216.133C103.982 223.473 108.266 230.091 113.918 235.427C114.184 235.697 114.525 235.881 114.897 235.956C115.269 236.03 115.654 235.991 116.004 235.843C116.353 235.696 116.65 235.447 116.857 235.129C117.063 234.811 117.169 234.438 117.162 234.059C117.118 230.56 117.521 225.957 119.505 223.792C126.663 216.047 161.47 218.958 161.47 218.958L29.7265 142.499Z" fill="url(#paint10_radial_1996_8074)"/>
<path d="M197.047 223.389L219.137 105.924C220.437 99.0038 219.893 91.8635 217.559 85.2207C215.224 78.5779 211.183 72.6667 205.839 68.0812C200.496 63.4957 194.04 60.3975 187.12 59.0981C180.2 57.7987 173.06 58.3439 166.418 60.6788L53.6257 100.278C46.9841 102.612 41.0739 106.654 36.489 111.996C31.904 117.338 28.8059 123.792 27.506 130.711C26.206 137.63 26.75 144.769 29.0833 151.411C31.4166 158.053 35.457 163.964 40.7984 168.55L131.479 246.417C136.822 251.01 143.279 254.114 150.202 255.418C157.125 256.721 164.269 256.179 170.916 253.844C177.562 251.51 183.477 247.466 188.064 242.12C192.652 236.774 195.75 230.313 197.047 223.389Z" fill="url(#paint11_radial_1996_8074)"/>
<path d="M100.049 190.017C100.658 189.968 101.113 189.435 101.064 188.825C101.016 188.216 100.482 187.761 99.873 187.81C99.2635 187.858 98.8088 188.392 98.8573 189.001C98.9058 189.611 99.4391 190.065 100.049 190.017Z" fill="#CA5E4E"/>
<path d="M98.365 197.283C98.9745 197.235 99.4293 196.701 99.3808 196.092C99.3323 195.482 98.7989 195.028 98.1894 195.076C97.5799 195.125 97.1252 195.658 97.1737 196.268C97.2222 196.877 97.7555 197.332 98.365 197.283Z" fill="#CA5E4E"/>
<path d="M105.744 194.689C106.353 194.641 106.808 194.107 106.76 193.498C106.711 192.888 106.178 192.434 105.568 192.482C104.959 192.531 104.504 193.064 104.553 193.673C104.601 194.283 105.135 194.738 105.744 194.689Z" fill="#CA5E4E"/>
<path d="M186.213 159.754C186.822 159.705 187.277 159.172 187.229 158.563C187.18 157.953 186.647 157.498 186.037 157.547C185.428 157.595 184.973 158.129 185.021 158.738C185.07 159.348 185.603 159.802 186.213 159.754Z" fill="#CA5E4E"/>
<path d="M184.517 167.022C185.127 166.974 185.582 166.44 185.533 165.831C185.485 165.221 184.951 164.767 184.342 164.815C183.732 164.864 183.278 165.397 183.326 166.006C183.375 166.616 183.908 167.071 184.517 167.022Z" fill="#CA5E4E"/>
<path d="M191.881 164.45C192.49 164.402 192.945 163.868 192.896 163.259C192.848 162.65 192.314 162.195 191.705 162.243C191.096 162.292 190.641 162.825 190.689 163.435C190.738 164.044 191.271 164.499 191.881 164.45Z" fill="#CA5E4E"/>
<path d="M119.013 186.565C136.658 184.514 153.603 178.47 168.562 168.891L170.062 169.754C170.062 169.754 153.996 198.667 118.189 188.831L119.013 186.565Z" fill="url(#paint12_radial_1996_8074)"/>
<mask id="mask0_1996_8074" style="mask-type:luminance" maskUnits="userSpaceOnUse" x="118" y="168" width="53" height="30">
<path d="M119.017 186.565C136.661 184.514 153.607 178.47 168.566 168.891L170.066 169.754C170.066 169.754 159.856 215.094 118.193 188.831L119.017 186.565Z" fill="white"/>
</mask>
<g mask="url(#mask0_1996_8074)">
<path d="M126.93 184.826L133.704 192.658C133.993 192.978 134.371 193.203 134.79 193.303C135.208 193.403 135.647 193.373 136.049 193.219C136.451 193.064 136.796 192.792 137.04 192.437C137.283 192.082 137.414 191.662 137.413 191.231L137.195 181.233L126.93 184.826Z" fill="url(#paint13_linear_1996_8074)"/>
<path d="M150.177 176.676L156.929 184.51C157.216 184.838 157.596 185.069 158.019 185.174C158.441 185.279 158.886 185.252 159.292 185.096C159.699 184.94 160.048 184.664 160.292 184.304C160.537 183.943 160.665 183.517 160.66 183.081L160.419 173.085L150.177 176.676Z" fill="url(#paint14_linear_1996_8074)"/>
</g>
<path d="M116.835 181.228C117.667 182.024 118.311 182.995 118.722 184.07C119.132 185.145 119.299 186.298 119.209 187.446C119.112 188.614 118.742 189.743 118.127 190.742C117.513 191.741 116.672 192.581 115.673 193.194C116.759 191.408 117.445 189.409 117.684 187.332C117.797 185.262 117.509 183.189 116.835 181.228Z" fill="#CA5E4E"/>
<path d="M165.64 162.994C166.555 164.914 167.799 166.658 169.318 168.147C170.065 168.864 170.875 169.514 171.736 170.09C172.614 170.661 173.574 171.183 174.559 171.745C173.409 171.781 172.264 171.574 171.2 171.137C170.101 170.704 169.099 170.058 168.251 169.236C167.399 168.439 166.725 167.471 166.275 166.395C165.825 165.319 165.609 164.16 165.64 162.994Z" fill="#CA5E4E"/>
<path d="M161.056 160.434C173.011 159.482 181.931 149.02 180.98 137.065C180.029 125.11 169.566 116.19 157.611 117.141C145.656 118.092 136.736 128.555 137.687 140.51C138.638 152.465 149.101 161.385 161.056 160.434Z" fill="url(#paint15_linear_1996_8074)"/>
<path d="M155.616 155.419C163.844 154.764 169.983 147.563 169.328 139.336C168.674 131.108 161.473 124.969 153.245 125.623C145.018 126.278 138.878 133.479 139.533 141.706C140.188 149.934 147.388 156.073 155.616 155.419Z" fill="url(#paint16_linear_1996_8074)"/>
<path d="M157.066 130.466C159.607 131.194 161.83 132.754 163.377 134.897" stroke="white" stroke-width="0.9" stroke-miterlimit="10" stroke-linecap="round"/>
<path d="M109.771 178.458C121.726 177.507 130.646 167.044 129.695 155.089C128.743 143.134 118.281 134.214 106.326 135.165C94.3711 136.117 85.4508 146.579 86.402 158.534C87.3533 170.489 97.8158 179.409 109.771 178.458Z" fill="url(#paint17_linear_1996_8074)"/>
<path d="M113.979 170.051C122.207 169.396 128.346 162.196 127.692 153.968C127.037 145.74 119.836 139.601 111.609 140.256C103.381 140.91 97.2417 148.111 97.8963 156.339C98.551 164.566 105.752 170.706 113.979 170.051Z" fill="url(#paint18_linear_1996_8074)"/>
<path d="M115.465 145.074C118.006 145.802 120.228 147.363 121.776 149.505" stroke="white" stroke-width="0.9" stroke-miterlimit="10" stroke-linecap="round"/>
<path opacity="0.2" d="M64.1085 141.173C69.0428 131.354 77.4583 123.725 87.7131 119.775C88.0978 119.594 88.4147 119.294 88.6177 118.92C88.8207 118.546 88.8992 118.117 88.8418 117.696C88.7845 117.274 88.5942 116.882 88.2987 116.576C88.0032 116.27 87.6179 116.066 87.1986 115.994C77.2195 114.31 62.1026 117.841 60.4063 140.272C60.4042 140.712 60.5505 141.14 60.8218 141.487C61.0932 141.835 61.4735 142.08 61.9015 142.184C62.3295 142.288 62.7801 142.245 63.1806 142.062C63.581 141.878 63.9079 141.565 64.1085 141.173Z" fill="url(#paint19_linear_1996_8074)"/>
<path d="M62.4291 141.03C67.717 130.986 76.4299 123.17 86.9871 119.001C87.3819 118.828 87.7102 118.532 87.9232 118.157C88.1361 117.782 88.2224 117.349 88.1692 116.921C88.116 116.493 87.9261 116.094 87.6278 115.783C87.3294 115.472 86.9385 115.266 86.5134 115.194C76.3109 113.657 60.7687 117.478 58.6029 140.181C58.4679 142.242 61.5081 142.876 62.4291 141.03Z" fill="url(#paint20_linear_1996_8074)"/>
<path opacity="0.2" d="M181.163 100.061C171.17 95.4866 159.833 94.7976 149.359 98.128C148.944 98.2314 148.505 98.1986 148.11 98.0344C147.714 97.8701 147.381 97.5831 147.161 97.2157C146.94 96.8482 146.843 96.4198 146.885 95.9932C146.926 95.5667 147.103 95.1646 147.39 94.8462C154.135 87.2834 168.125 80.5962 183.485 97.0356C184.885 98.5259 182.983 100.92 181.163 100.061Z" fill="url(#paint21_linear_1996_8074)"/>
<path d="M181.708 99.1628C171.31 94.6107 159.623 93.9488 148.778 97.2981C148.36 97.4246 147.912 97.4093 147.503 97.2547C147.095 97.1 146.749 96.8147 146.52 96.4431C146.29 96.0714 146.19 95.6343 146.235 95.1999C146.28 94.7655 146.467 94.3581 146.767 94.0411C153.767 86.458 168.266 79.7303 184.115 96.1309C185.566 97.7239 183.591 100.017 181.708 99.1628Z" fill="url(#paint22_linear_1996_8074)"/>
<defs>
<linearGradient id="paint0_linear_1996_8074" x1="205.336" y1="272.887" x2="190.305" y2="230.083" gradientUnits="userSpaceOnUse">
<stop stop-color="#672B2E"/>
<stop offset="0.42" stop-color="#5C2426"/>
<stop offset="1" stop-color="#441517"/>
</linearGradient>
<linearGradient id="paint1_linear_1996_8074" x1="210.636" y1="247.059" x2="204.604" y2="230.076" gradientUnits="userSpaceOnUse">
<stop offset="0.46" stop-color="#F9A046"/>
<stop offset="1" stop-color="#F58443"/>
</linearGradient>
<linearGradient id="paint2_linear_1996_8074" x1="155.938" y1="290.222" x2="140.906" y2="247.417" gradientUnits="userSpaceOnUse">
<stop stop-color="#672B2E"/>
<stop offset="0.42" stop-color="#5C2426"/>
<stop offset="1" stop-color="#441517"/>
</linearGradient>
<linearGradient id="paint3_linear_1996_8074" x1="161.096" y1="264.655" x2="155.064" y2="247.672" gradientUnits="userSpaceOnUse">
<stop offset="0.46" stop-color="#F9A046"/>
<stop offset="1" stop-color="#F58443"/>
</linearGradient>
<linearGradient id="paint4_linear_1996_8074" x1="232.591" y1="67.8959" x2="201.874" y2="56.0334" gradientUnits="userSpaceOnUse">
<stop stop-color="#FABD36"/>
<stop offset="0.47" stop-color="#FAB23C"/>
<stop offset="0.99" stop-color="#F9A046"/>
</linearGradient>
<linearGradient id="paint5_linear_1996_8074" x1="310.681" y1="128.773" x2="282.909" y2="110.157" gradientUnits="userSpaceOnUse">
<stop stop-color="#F58443"/>
<stop offset="0.21" stop-color="#F69340"/>
<stop offset="0.72" stop-color="#F9B239"/>
<stop offset="1" stop-color="#FABD36"/>
</linearGradient>
<linearGradient id="paint6_linear_1996_8074" x1="39.4871" y1="218.269" x2="52.6355" y2="188.111" gradientUnits="userSpaceOnUse">
<stop stop-color="#F9A046"/>
<stop offset="1" stop-color="#F58443"/>
</linearGradient>
<linearGradient id="paint7_linear_1996_8074" x1="183.536" y1="55.2168" x2="221.934" y2="38.1296" gradientUnits="userSpaceOnUse">
<stop offset="0.02" stop-color="#FCCCB9"/>
<stop offset="0.45" stop-color="#FEE3C8"/>
<stop offset="1" stop-color="#FFF0E2"/>
</linearGradient>
<linearGradient id="paint8_linear_1996_8074" x1="27.3708" y1="116.764" x2="55.7542" y2="94.0914" gradientUnits="userSpaceOnUse">
<stop offset="0.02" stop-color="#FCCCB9"/>
<stop offset="0.45" stop-color="#FEE3C8"/>
<stop offset="1" stop-color="#FFF0E2"/>
</linearGradient>
<radialGradient id="paint9_radial_1996_8074" cx="0" cy="0" r="1" gradientUnits="userSpaceOnUse" gradientTransform="translate(204.265 143.017) rotate(8.94068) scale(51.0934 51.0934)">
<stop stop-color="#FABD36"/>
<stop offset="0.45" stop-color="#F9A046"/>
<stop offset="1" stop-color="#F58443"/>
</radialGradient>
<radialGradient id="paint10_radial_1996_8074" cx="0" cy="0" r="1" gradientUnits="userSpaceOnUse" gradientTransform="translate(107.036 185.573) rotate(-19.5542) scale(56.0991 56.0991)">
<stop stop-color="#FABD36"/>
<stop offset="0.45" stop-color="#F9A046"/>
<stop offset="1" stop-color="#F58443"/>
</radialGradient>
<radialGradient id="paint11_radial_1996_8074" cx="0" cy="0" r="1" gradientUnits="userSpaceOnUse" gradientTransform="translate(187.572 106.009) rotate(-19.5542) scale(107.858 107.858)">
<stop stop-color="#FABD36"/>
<stop offset="0.3" stop-color="#FAB23C"/>
<stop offset="0.61" stop-color="#F9A046"/>
<stop offset="1" stop-color="#F58443"/>
</radialGradient>
<radialGradient id="paint12_radial_1996_8074" cx="0" cy="0" r="1" gradientUnits="userSpaceOnUse" gradientTransform="translate(160.464 186.039) rotate(-19.5543) scale(20.0109 20.011)">
<stop stop-color="#AA294A"/>
<stop offset="0.52" stop-color="#891E3B"/>
<stop offset="1" stop-color="#67132B"/>
</radialGradient>
<linearGradient id="paint13_linear_1996_8074" x1="144.345" y1="194.171" x2="152.487" y2="186.946" gradientUnits="userSpaceOnUse">
<stop stop-color="white"/>
<stop offset="0.4" stop-color="#FCFCFC"/>
<stop offset="0.75" stop-color="#F1F2F2"/>
<stop offset="0.98" stop-color="#E5E6E6"/>
</linearGradient>
<linearGradient id="paint14_linear_1996_8074" x1="167.981" y1="181.01" x2="178.348" y2="182.796" gradientUnits="userSpaceOnUse">
<stop offset="0.02" stop-color="#E5E6E6"/>
<stop offset="0.25" stop-color="#F1F2F2"/>
<stop offset="0.6" stop-color="#FCFCFC"/>
<stop offset="1" stop-color="white"/>
</linearGradient>
<linearGradient id="paint15_linear_1996_8074" x1="153.693" y1="148.9" x2="194.812" y2="134.295" gradientUnits="userSpaceOnUse">
<stop stop-color="white"/>
<stop offset="0.5" stop-color="#EFF0F0"/>
<stop offset="0.98" stop-color="#E5E6E6"/>
</linearGradient>
<linearGradient id="paint16_linear_1996_8074" x1="161.912" y1="159.84" x2="174.219" y2="132.464" gradientUnits="userSpaceOnUse">
<stop stop-color="#441517"/>
<stop offset="0.31" stop-color="#361128"/>
<stop offset="0.68" stop-color="#2A0D37"/>
<stop offset="1" stop-color="#260C3C"/>
</linearGradient>
<linearGradient id="paint17_linear_1996_8074" x1="102.249" y1="167.172" x2="131.743" y2="156.696" gradientUnits="userSpaceOnUse">
<stop offset="0.02" stop-color="#E5E6E6"/>
<stop offset="0.48" stop-color="#EFEFEF"/>
<stop offset="1" stop-color="white"/>
</linearGradient>
<linearGradient id="paint18_linear_1996_8074" x1="121.582" y1="171.947" x2="133.533" y2="144.402" gradientUnits="userSpaceOnUse">
<stop stop-color="#441517"/>
<stop offset="0.32" stop-color="#351129"/>
<stop offset="0.68" stop-color="#2A0D37"/>
<stop offset="1" stop-color="#260C3C"/>
</linearGradient>
<linearGradient id="paint19_linear_1996_8074" x1="70.955" y1="142.065" x2="101.379" y2="121.205" gradientUnits="userSpaceOnUse">
<stop stop-color="#441517"/>
<stop offset="0.58" stop-color="#5C2426"/>
<stop offset="1" stop-color="#672B2E"/>
</linearGradient>
<linearGradient id="paint20_linear_1996_8074" x1="68.9706" y1="138.765" x2="100.543" y2="117.118" gradientUnits="userSpaceOnUse">
<stop stop-color="#441517"/>
<stop offset="0.58" stop-color="#5C2426"/>
<stop offset="1" stop-color="#672B2E"/>
</linearGradient>
<linearGradient id="paint21_linear_1996_8074" x1="202.091" y1="82.3784" x2="165.203" y2="85.3135" gradientUnits="userSpaceOnUse">
<stop stop-color="#441517"/>
<stop offset="0.58" stop-color="#5C2426"/>
<stop offset="1" stop-color="#672B2E"/>
</linearGradient>
<linearGradient id="paint22_linear_1996_8074" x1="189.975" y1="82.0179" x2="151.946" y2="85.0439" gradientUnits="userSpaceOnUse">
<stop stop-color="#441517"/>
<stop offset="0.58" stop-color="#5C2426"/>
<stop offset="1" stop-color="#672B2E"/>
</linearGradient>
</defs>
</svg>
