<svg width="219" height="134" viewBox="0 0 219 134" fill="none" xmlns="http://www.w3.org/2000/svg">
<path d="M2.6636 90.5146L71.1884 98.2355L73.7483 83.9408L6.82097 67.3316C5.22356 66.9425 3.60567 67.9667 3.31895 69.605L0.165093 87.1762C-0.121622 88.7941 1.02524 90.3303 2.6636 90.5146Z" fill="#DB6C9E"/>
<path d="M50.1133 85.8858C61.8891 114.107 95.1479 139.563 137.315 131.965C179.503 124.367 210.591 81.0934 205.123 55.4734C199.655 29.8329 156.812 25.3072 127.956 46.0121C91.564 72.0826 50.1133 85.8858 50.1133 85.8858Z" fill="url(#paint0_linear_1997_9028)"/>
<path d="M200.433 45.5005L218.742 51.9309C219.028 52.0333 219.09 52.4021 218.865 52.6069L205.573 63.4201C195.19 55.2693 200.433 45.5005 200.433 45.5005Z" fill="#DB6C9E"/>
<path d="M180.158 57.4598C184.377 57.4598 187.797 54.0398 187.797 49.821C187.797 45.6021 184.377 42.1821 180.158 42.1821C175.94 42.1821 172.52 45.6021 172.52 49.821C172.52 54.0398 175.94 57.4598 180.158 57.4598Z" fill="#272328"/>
<path d="M182.683 52.7492C184.493 52.7492 185.96 51.2824 185.96 49.4727C185.96 47.663 184.493 46.1958 182.683 46.1958C180.873 46.1958 179.406 47.663 179.406 49.4727C179.406 51.2824 180.873 52.7492 182.683 52.7492Z" fill="white"/>
<path d="M80.4688 46.4829C68.3858 37.7381 63.3068 23.3816 69.1435 12.4045C75.697 0.116778 93.3504 -3.01646 108.833 4.86819C130.664 15.9886 144.447 47.4041 148.195 56.8862C148.85 58.5655 148.502 60.4704 147.253 61.7811C140.269 69.1947 115.878 93.3402 91.4868 95.6134C74.1815 97.2313 58.9242 87.8106 57.3678 73.9869C55.9956 61.6377 66.0101 50.1487 80.4688 46.4829Z" fill="#DB6C9E"/>
<defs>
<linearGradient id="paint0_linear_1997_9028" x1="-135.746" y1="211.328" x2="227.128" y2="46.2276" gradientUnits="userSpaceOnUse">
<stop offset="4.26223e-07" stop-color="#F1637F"/>
<stop offset="0.4487" stop-color="#F177AE"/>
<stop offset="1" stop-color="#F6A2B0"/>
</linearGradient>
</defs>
</svg>
