<svg width="361" height="437" viewBox="0 0 361 437" fill="none" xmlns="http://www.w3.org/2000/svg">
<path d="M259.879 221.792C262.619 212.998 276.731 132.629 212.522 59.2657L204.957 63.3436C204.957 63.3436 267.76 136.278 250.555 216.801C250.459 217.165 250.396 217.536 250.367 217.912L250.267 220.073C250.229 220.909 250.404 221.741 250.777 222.491C251.15 223.24 251.708 223.882 252.398 224.356C253.088 224.83 253.887 225.12 254.721 225.199C255.554 225.278 256.394 225.144 257.161 224.808C257.804 224.53 258.379 224.117 258.848 223.596C259.317 223.075 259.669 222.46 259.879 221.792Z" fill="url(#paint0_linear_2357_549)"/>
<path d="M186.241 11.9642C184.958 10.7158 184.104 9.09286 183.801 7.32861C184.557 7.84151 185.175 8.53281 185.601 9.34129C186.026 10.1498 186.246 11.0506 186.241 11.9642Z" fill="#9A56A3"/>
<path d="M26.6525 81.3736C26.6525 81.3736 29.9462 83.667 31.9956 79.2754C34.045 74.8838 26.555 64.4904 26.555 64.4904C26.555 64.4904 22.8222 58.7081 18.8941 62.6117C17.9976 63.5864 17.4486 64.8303 17.3327 66.1495C16.4306 66.0086 15.5091 66.0573 14.627 66.2928C13.7448 66.5282 12.9215 66.9451 12.2097 67.5168C11.4979 68.0886 10.9132 68.8026 10.493 69.6132C10.0729 70.4238 9.82643 71.3132 9.76949 72.2245C8.48686 72.6638 7.35145 73.4506 6.48988 74.4975C5.6283 75.5443 5.07443 76.8097 4.88998 78.1529C4.88998 78.1529 -3.94194 79.7389 2.13304 90.1566C8.20803 100.574 12.2093 97.4759 13.7463 94.1823C14.6867 94.6412 15.7356 94.8317 16.7774 94.7326C17.8191 94.6336 18.8133 94.2488 19.6505 93.6209C20.3706 92.9911 20.8478 92.1293 20.9993 91.1847C21.1508 90.2401 20.9672 89.272 20.48 88.4486C21.4232 88.9242 22.4909 89.0953 23.5354 88.9379C24.5799 88.7806 25.5497 88.3027 26.3109 87.5703C26.9682 86.6842 27.351 85.6249 27.4117 84.5233C27.4724 83.4217 27.2084 82.3265 26.6525 81.3736Z" fill="url(#paint1_linear_2357_549)"/>
<path d="M26.6516 81.3733C23.8042 78.4019 21.493 74.9597 19.8203 71.1995C21.2466 72.6967 22.5214 74.3311 23.6263 76.079C24.797 77.7459 25.8098 79.5185 26.6516 81.3733Z" fill="#9A56A3"/>
<path d="M20.4093 88.4483C17.5027 85.3004 15.1293 81.6991 13.3828 77.7866C16.3036 80.9235 18.6786 84.5272 20.4093 88.4483Z" fill="#9A56A3"/>
<path d="M13.6645 94.1819C10.9385 91.3454 8.74821 88.0391 7.19922 84.4229C8.56692 85.8366 9.79266 87.381 10.8589 89.034C11.9541 90.6578 12.8934 92.3814 13.6645 94.1819Z" fill="#9A56A3"/>
<path d="M186.052 26.481C186.052 26.481 188.101 29.9452 183.612 31.6774C179.123 33.4096 169.242 25.139 169.242 25.139C169.242 25.139 163.776 20.9669 167.948 17.3561C168.994 16.5365 170.28 16.0825 171.608 16.0632C171.53 15.1556 171.642 14.2415 171.939 13.3802C172.235 12.5188 172.71 11.7293 173.33 11.0625C173.951 10.3957 174.705 9.86641 175.543 9.50907C176.381 9.15173 177.285 8.97425 178.195 8.98788C178.717 7.7221 179.584 6.62795 180.697 5.83008C181.81 5.03221 183.124 4.56267 184.49 4.4744C184.49 4.4744 186.735 -4.21115 196.689 2.62016C206.643 9.45147 203.349 13.2331 199.861 14.5018C200.242 15.474 200.348 16.5327 200.167 17.5613C199.986 18.5899 199.526 19.5488 198.836 20.3328C198.154 21.0035 197.261 21.4163 196.308 21.5009C195.356 21.5854 194.404 21.3363 193.615 20.7962C194.023 21.7716 194.117 22.8498 193.886 23.8813C193.654 24.9129 193.108 25.8467 192.322 26.554C191.385 27.158 190.29 27.4733 189.176 27.4603C188.061 27.4473 186.974 27.1068 186.052 26.481Z" fill="url(#paint2_linear_2357_549)"/>
<path d="M186.048 26.4814C182.382 24.5855 179.078 22.0581 176.289 19.0156C179.961 20.9033 183.266 23.4317 186.048 26.4814Z" fill="#9A56A3"/>
<path d="M193.565 20.8452C189.785 18.8265 186.371 16.1875 183.465 13.0381C187.249 15.0505 190.664 17.6902 193.565 20.8452Z" fill="#9A56A3"/>
<path d="M199.811 14.5016C196.283 12.6641 193.13 10.1815 190.516 7.18237C194.035 9.03466 197.185 11.5153 199.811 14.5016Z" fill="#9A56A3"/>
<path d="M240.625 179.772C240.967 173.819 263.51 176.307 263.51 176.307C263.843 176.306 264.173 176.374 264.479 176.506C264.785 176.637 265.06 176.83 265.289 177.073C265.518 177.315 265.694 177.601 265.808 177.915C265.921 178.228 265.97 178.561 265.95 178.893L265.096 189.14C265.096 189.14 240.259 186.359 240.625 179.772Z" fill="#AD63A5"/>
<path d="M279.994 198.581C285.654 199.89 290.99 202.33 295.682 205.754C296.042 206.084 296.301 206.51 296.43 206.981C296.558 207.452 296.551 207.951 296.408 208.418C296.265 208.885 295.992 209.302 295.622 209.621C295.252 209.94 294.799 210.147 294.316 210.219L285.557 211.561C285.557 211.561 276.847 200.192 279.994 198.581Z" fill="#B365A8"/>
<path d="M293.352 211.732L302.086 216.221C302.389 216.327 302.659 216.513 302.867 216.758C303.085 217.025 303.224 217.348 303.269 217.69C303.313 218.031 303.262 218.379 303.12 218.694C302.978 219.008 302.751 219.276 302.465 219.469C302.179 219.661 301.845 219.77 301.5 219.783L299.256 219.978L293.352 211.732Z" fill="#B365A8"/>
<path d="M310.469 243.351C315.763 244.595 324.839 263.308 324.839 263.308C325.017 263.555 325.137 263.838 325.19 264.138C325.243 264.438 325.228 264.746 325.146 265.039C325.064 265.332 324.917 265.602 324.716 265.831C324.515 266.059 324.265 266.239 323.985 266.358L310.493 262.308C310.493 262.308 305.858 242.277 310.469 243.351Z" fill="#C069AA"/>
<path d="M107.19 245.352L98.5527 254.037C98.3862 254.211 98.2695 254.426 98.2148 254.66C98.1601 254.895 98.1694 255.139 98.2418 255.369C98.3141 255.598 98.4468 255.804 98.626 255.965C98.8051 256.125 99.0243 256.235 99.2603 256.282L106.994 257.745L107.19 245.352Z" fill="#954D9E"/>
<path d="M99.5048 278.972C93.1858 289.658 95.2352 308.615 95.2352 308.615C95.2018 308.891 95.2548 309.17 95.3868 309.415C95.5188 309.659 95.7233 309.856 95.9723 309.98C96.2213 310.103 96.5024 310.146 96.7767 310.102C97.0511 310.059 97.3053 309.931 97.5042 309.737L106.629 300.71C106.629 300.71 102.408 274.044 99.5048 278.972Z" fill="#954D9E"/>
<path d="M110.762 325.693V332.622C110.768 332.959 110.903 333.281 111.139 333.521C111.375 333.762 111.694 333.903 112.03 333.915L119.203 334.33L110.762 325.693Z" fill="#954D9E"/>
<path d="M118.263 337.745C117.814 341.841 118.741 345.97 120.897 349.481C120.955 349.714 121.074 349.927 121.242 350.098C121.409 350.269 121.62 350.393 121.852 350.455C122.084 350.517 122.328 350.516 122.559 350.452C122.79 350.388 123 350.263 123.166 350.091L128.802 344.113C128.802 344.113 118.58 334.696 118.263 337.745Z" fill="#954D9E"/>
<path d="M105.703 395.787L149.155 381.71C150.61 381.21 152.19 381.21 153.644 381.71L161.549 384.54C163.805 385.335 166.254 385.403 168.551 384.735L319.377 341.234C321.29 340.699 323.025 339.663 324.403 338.233L328.916 333.573C330.009 332.47 331.399 331.707 332.917 331.377L354.119 326.913L341.237 344.601L129.686 404.765L105.703 395.787Z" fill="url(#paint3_linear_2357_549)"/>
<path d="M246.398 367.289C301.424 343.671 328.448 283.561 306.759 233.03C285.07 182.499 222.881 160.682 167.855 184.301C112.83 207.919 85.8049 268.028 107.494 318.559C129.183 369.09 191.372 390.908 246.398 367.289Z" fill="url(#paint4_linear_2357_549)"/>
<g style="mix-blend-mode:overlay" opacity="0.5">
<mask id="mask0_2357_549" style="mask-type:luminance" maskUnits="userSpaceOnUse" x="99" y="174" width="216" height="203">
<path d="M246.39 367.29C301.416 343.671 328.441 283.562 306.752 233.031C285.063 182.5 222.873 160.683 167.848 184.301C112.822 207.919 85.7971 268.028 107.486 318.559C129.175 369.09 191.365 390.908 246.39 367.29Z" fill="white"/>
</mask>
<g mask="url(#mask0_2357_549)">
<path d="M89.5863 2.66901C63.0727 14.0466 40.5285 33.0311 24.8047 57.2216C9.08096 81.4121 0.883909 109.722 1.25003 138.572C1.61615 167.421 10.529 195.514 26.8616 219.298C43.1943 243.081 66.213 261.487 93.0068 272.189C119.801 282.89 149.166 285.405 177.389 279.416C205.612 273.428 231.426 259.204 251.566 238.545C271.705 217.885 285.266 191.717 290.533 163.35C295.8 134.983 292.537 105.692 281.156 79.1797C265.86 43.6622 237.102 15.6609 201.189 1.31779C165.277 -13.0253 125.141 -12.5394 89.5863 2.66901ZM199.619 259.087C175.417 269.475 148.678 272.452 122.784 267.643C96.8894 262.833 73.0027 250.453 54.1443 232.068C35.286 213.683 22.3031 190.119 16.8373 164.355C11.3714 138.591 13.6681 111.786 23.4371 87.3272C33.2062 62.8688 50.0086 41.8566 71.7197 26.9477C93.4307 12.0388 119.075 3.90287 145.41 3.56873C171.745 3.23459 197.588 10.7173 219.67 25.0706C241.753 39.4238 259.083 60.0028 269.469 84.2054C283.397 116.659 283.862 153.316 270.762 186.112C257.663 218.909 232.072 245.159 199.619 259.087Z" fill="url(#paint5_linear_2357_549)"/>
<path d="M107.55 46.4375C13.4974 86.791 -22.2694 187.529 21.8413 260.99C60.4871 325.326 148.709 346.381 222.584 314.664C296.46 282.947 342.133 204.582 322.078 132.244C299.242 49.5605 201.602 6.05953 107.55 46.4375ZM217.851 303.49C149.538 332.767 69.685 314.81 34.8697 255.354C-4.36155 188.26 28.819 97.5992 113.796 61.1248C198.772 24.6505 287.336 63.0767 308.976 137.758C328.079 203.899 286.067 274.213 217.851 303.49Z" fill="url(#paint6_linear_2357_549)"/>
</g>
</g>
<path d="M148.081 422.649C147.055 418.93 147.155 414.99 148.368 411.327C149.58 407.665 151.851 404.444 154.893 402.071C157.935 399.698 161.612 398.28 165.46 397.996C169.307 397.712 173.152 398.574 176.51 400.475C179.868 402.375 182.587 405.227 184.324 408.672C186.061 412.117 186.739 415.999 186.271 419.829C185.803 423.658 184.211 427.263 181.695 430.188C179.179 433.113 175.853 435.227 172.137 436.263C169.664 436.952 167.078 437.146 164.53 436.835C161.981 436.524 159.519 435.712 157.284 434.448C155.049 433.183 153.086 431.49 151.507 429.465C149.928 427.44 148.763 425.124 148.081 422.649Z" fill="url(#paint7_linear_2357_549)"/>
<g opacity="0.2">
<path d="M185.746 412.207C186.432 414.68 186.624 417.265 186.311 419.812C185.998 422.36 185.186 424.821 183.922 427.055C182.658 429.288 180.966 431.251 178.943 432.831C176.92 434.411 174.606 435.577 172.133 436.263C169.659 436.949 167.075 437.14 164.527 436.827C161.98 436.514 159.519 435.702 157.285 434.438C155.051 433.174 153.088 431.482 151.508 429.459C149.928 427.437 148.762 425.123 148.077 422.649C147.751 421.484 147.531 420.292 147.418 419.087C149.387 423.236 152.757 426.557 156.933 428.467C161.109 430.377 165.825 430.753 170.252 429.529C174.678 428.305 178.531 425.56 181.133 421.776C183.735 417.992 184.919 413.411 184.478 408.84C184.995 409.925 185.419 411.051 185.746 412.207Z" fill="#371844"/>
</g>
<path d="M158.992 419.624C158.559 418.057 158.601 416.396 159.111 414.853C159.622 413.31 160.578 411.952 161.86 410.952C163.142 409.952 164.691 409.355 166.312 409.235C167.934 409.116 169.554 409.479 170.969 410.28C172.383 411.081 173.529 412.284 174.26 413.736C174.992 415.187 175.276 416.823 175.078 418.437C174.88 420.051 174.208 421.569 173.147 422.801C172.086 424.033 170.683 424.922 169.117 425.357C168.076 425.646 166.988 425.727 165.915 425.595C164.842 425.464 163.806 425.122 162.866 424.589C161.926 424.057 161.099 423.344 160.435 422.492C159.77 421.64 159.28 420.665 158.992 419.624Z" fill="#F1F1F1"/>
<path d="M169.501 427.138C167.58 427.669 165.544 427.619 163.652 426.993C161.76 426.368 160.095 425.195 158.869 423.623C157.644 422.052 156.911 420.152 156.765 418.164C156.619 416.177 157.066 414.19 158.049 412.456C159.032 410.723 160.507 409.319 162.287 408.424C164.068 407.528 166.074 407.181 168.052 407.426C170.03 407.671 171.891 408.497 173.4 409.799C174.908 411.102 175.996 412.823 176.527 414.744C177.238 417.319 176.898 420.071 175.58 422.395C174.262 424.719 172.076 426.425 169.501 427.138ZM165.109 411.279C163.889 411.616 162.797 412.306 161.97 413.264C161.144 414.222 160.62 415.404 160.465 416.659C160.31 417.915 160.531 419.188 161.101 420.318C161.67 421.448 162.562 422.383 163.664 423.006C164.765 423.628 166.027 423.91 167.288 423.815C168.55 423.72 169.755 423.253 170.751 422.473C171.747 421.693 172.489 420.635 172.883 419.432C173.277 418.23 173.306 416.938 172.965 415.719C172.514 414.109 171.448 412.74 169.996 411.909C168.544 411.078 166.824 410.852 165.207 411.279H165.109Z" fill="#954D9E"/>
<path d="M300.32 400.13C306.544 399.61 312.629 398.009 318.301 395.397C321.693 393.933 320.131 392.176 317.789 392.542C312.013 394.072 306.36 396.037 300.881 398.422L300.32 400.13Z" fill="#2A2035"/>
<path d="M281.073 385.808C280.048 382.089 280.148 378.149 281.36 374.487C282.572 370.824 284.843 367.603 287.885 365.231C290.927 362.858 294.604 361.44 298.452 361.156C302.299 360.872 306.145 361.734 309.502 363.634C312.86 365.534 315.579 368.387 317.316 371.832C319.054 375.276 319.731 379.159 319.263 382.988C318.795 386.818 317.203 390.423 314.687 393.348C312.171 396.273 308.845 398.387 305.129 399.422C302.656 400.112 300.071 400.306 297.522 399.995C294.973 399.683 292.511 398.872 290.276 397.607C288.041 396.343 286.078 394.649 284.499 392.625C282.92 390.6 281.756 388.284 281.073 385.808Z" fill="#2A2035"/>
<path d="M290.78 383.1C289.755 379.381 289.855 375.441 291.067 371.779C292.279 368.116 294.55 364.895 297.592 362.523C300.634 360.15 304.311 358.732 308.159 358.448C312.006 358.164 315.852 359.026 319.209 360.926C322.567 362.826 325.286 365.679 327.023 369.124C328.761 372.568 329.438 376.451 328.97 380.28C328.502 384.11 326.91 387.715 324.394 390.64C321.879 393.565 318.552 395.679 314.836 396.714C312.363 397.404 309.778 397.598 307.229 397.287C304.68 396.975 302.218 396.164 299.983 394.899C297.748 393.635 295.785 391.941 294.206 389.917C292.627 387.892 291.463 385.576 290.78 383.1Z" fill="url(#paint8_linear_2357_549)"/>
<path d="M301.691 380.075C301.252 378.503 301.289 376.835 301.798 375.284C302.307 373.733 303.265 372.368 304.551 371.362C305.837 370.356 307.392 369.754 309.02 369.633C310.648 369.511 312.276 369.876 313.696 370.68C315.117 371.485 316.267 372.693 317 374.152C317.734 375.61 318.018 377.253 317.816 378.873C317.615 380.494 316.937 382.017 315.869 383.252C314.801 384.487 313.39 385.376 311.816 385.808C309.713 386.385 307.467 386.106 305.57 385.032C303.672 383.957 302.278 382.175 301.691 380.075Z" fill="#F1F1F1"/>
<path d="M312.322 387.614C310.397 388.15 308.356 388.103 306.457 387.479C304.558 386.854 302.888 385.681 301.656 384.106C300.425 382.532 299.688 380.628 299.54 378.635C299.391 376.642 299.837 374.649 300.821 372.909C301.805 371.17 303.284 369.762 305.069 368.863C306.854 367.964 308.866 367.614 310.849 367.859C312.833 368.104 314.699 368.932 316.212 370.238C317.725 371.544 318.817 373.269 319.349 375.196C320.054 377.774 319.711 380.526 318.394 382.853C317.078 385.179 314.895 386.89 312.322 387.614ZM307.906 371.731C306.686 372.068 305.594 372.758 304.767 373.716C303.941 374.674 303.417 375.855 303.262 377.111C303.107 378.367 303.329 379.64 303.898 380.77C304.467 381.9 305.359 382.835 306.461 383.458C307.562 384.081 308.824 384.362 310.085 384.267C311.347 384.172 312.552 383.705 313.548 382.925C314.544 382.145 315.286 381.087 315.68 379.884C316.074 378.682 316.103 377.39 315.762 376.171C315.306 374.543 314.224 373.161 312.751 372.328C311.279 371.496 309.537 371.281 307.906 371.731Z" fill="#954D9E"/>
<path d="M167.328 436.97C173.552 436.468 179.638 434.874 185.309 432.261C188.7 430.797 187.115 429.016 184.797 429.407C179.022 430.931 173.37 432.889 167.889 435.262L167.328 436.97Z" fill="#2A2035"/>
<path d="M148.081 422.649C147.055 418.93 147.155 414.99 148.368 411.327C149.58 407.665 151.851 404.444 154.893 402.071C157.935 399.698 161.612 398.28 165.46 397.996C169.307 397.712 173.152 398.574 176.51 400.475C179.868 402.375 182.587 405.227 184.324 408.672C186.061 412.117 186.739 415.999 186.271 419.829C185.803 423.658 184.211 427.263 181.695 430.188C179.179 433.113 175.853 435.227 172.137 436.263C169.664 436.952 167.078 437.146 164.53 436.835C161.981 436.524 159.519 435.712 157.284 434.448C155.049 433.183 153.086 431.49 151.507 429.465C149.928 427.44 148.763 425.124 148.081 422.649Z" fill="#2A2035"/>
<path d="M157.796 419.965C156.77 416.246 156.87 412.306 158.083 408.643C159.295 404.981 161.566 401.76 164.608 399.387C167.65 397.014 171.327 395.596 175.174 395.312C179.022 395.028 182.867 395.891 186.225 397.791C189.582 399.691 192.302 402.543 194.039 405.988C195.776 409.433 196.454 413.315 195.986 417.145C195.518 420.974 193.925 424.579 191.41 427.504C188.894 430.429 185.568 432.543 181.852 433.579C179.378 434.268 176.793 434.463 174.244 434.151C171.696 433.84 169.233 433.029 166.999 431.764C164.764 430.499 162.801 428.806 161.222 426.781C159.642 424.757 158.478 422.44 157.796 419.965Z" fill="url(#paint9_linear_2357_549)"/>
<path d="M168.691 416.939C168.258 415.372 168.3 413.712 168.81 412.169C169.321 410.625 170.278 409.268 171.559 408.268C172.841 407.268 174.39 406.671 176.012 406.551C177.633 406.432 179.253 406.795 180.668 407.596C182.082 408.397 183.228 409.6 183.959 411.051C184.691 412.503 184.975 414.139 184.777 415.753C184.579 417.366 183.907 418.885 182.846 420.117C181.785 421.349 180.383 422.238 178.816 422.673C177.775 422.966 176.686 423.049 175.612 422.919C174.539 422.789 173.501 422.447 172.56 421.914C171.619 421.381 170.793 420.667 170.129 419.813C169.465 418.96 168.976 417.983 168.691 416.939Z" fill="#F1F1F1"/>
<path d="M179.264 424.454C177.338 424.99 175.297 424.943 173.398 424.319C171.5 423.695 169.829 422.521 168.598 420.946C167.366 419.372 166.63 417.468 166.481 415.475C166.332 413.482 166.779 411.489 167.763 409.75C168.747 408.01 170.225 406.602 172.01 405.703C173.795 404.804 175.807 404.455 177.791 404.699C179.774 404.944 181.641 405.772 183.154 407.078C184.667 408.384 185.758 410.109 186.29 412.036C187.002 414.614 186.662 417.37 185.345 419.698C184.027 422.026 181.84 423.736 179.264 424.454ZM174.848 408.596C173.628 408.932 172.536 409.623 171.709 410.581C170.882 411.538 170.358 412.72 170.204 413.976C170.049 415.231 170.27 416.505 170.84 417.635C171.409 418.764 172.301 419.7 173.402 420.322C174.504 420.945 175.765 421.226 177.027 421.132C178.288 421.037 179.494 420.57 180.49 419.79C181.486 419.009 182.228 417.951 182.622 416.749C183.016 415.547 183.044 414.254 182.704 413.036C182.253 411.42 181.183 410.047 179.725 409.215C178.268 408.384 176.541 408.161 174.921 408.596H174.848Z" fill="#954D9E"/>
<path d="M353.683 346.065C349.819 351.184 344.454 354.97 338.337 356.897L134.373 413.427C128.143 414.926 121.6 414.44 115.661 412.036C109.22 409.596 102.022 405.717 101.876 400.764C101.857 399.898 102.104 399.046 102.583 398.324C102.803 398.032 103.023 397.739 103.242 397.495C103.912 396.761 104.749 396.2 105.682 395.86C109.317 394.592 114.441 396.666 120.321 399.496C123.573 401.351 127.341 402.096 131.055 401.618L335.019 345.089C338.459 343.601 341.32 341.031 343.168 337.77C346.852 332.183 350.219 327.694 354.098 327.059C355.357 326.878 356.641 327.082 357.782 327.645C358.453 327.957 359.027 328.446 359.441 329.06C362.246 333.085 358.05 340.478 353.683 346.065Z" fill="#F89B3C"/>
<g opacity="0.2">
<path d="M354.122 326.961C351.56 332.988 347.754 346.04 340.069 348.163L131.446 405.961C131.446 405.961 122.297 408.083 103.242 397.422C103.911 396.688 104.749 396.127 105.682 395.787C109.317 394.518 114.441 396.592 120.32 399.422C123.573 401.278 127.341 402.023 131.055 401.545L335.019 345.016C338.459 343.528 341.32 340.958 343.168 337.696C346.876 332.085 350.243 327.596 354.122 326.961Z" fill="#603917"/>
</g>
<path d="M86.3853 138.051C86.3853 138.051 36.8094 126.975 32.1983 78.1553C32.0477 76.583 32.3964 75.0034 33.1948 73.6406C33.9932 72.2778 35.2007 71.201 36.6458 70.5635C38.0909 69.926 39.7002 69.7602 41.2449 70.0894C42.7897 70.4186 44.1915 71.2262 45.2511 72.3975C56.1568 84.5963 78.0901 96.6242 122.176 94.9408L86.3853 138.051Z" fill="url(#paint10_linear_2357_549)"/>
<g opacity="0.5">
<mask id="mask1_2357_549" style="mask-type:luminance" maskUnits="userSpaceOnUse" x="32" y="69" width="91" height="70">
<path d="M86.3775 138.052C86.3775 138.052 36.8016 126.975 32.1905 78.1558C32.0399 76.5835 32.3886 75.0039 33.187 73.6411C33.9854 72.2783 35.1929 71.2015 36.638 70.564C38.0831 69.9265 39.6923 69.7606 41.2371 70.0899C42.7819 70.4191 44.1836 71.2267 45.2433 72.398C56.149 84.5968 78.0823 96.6247 122.169 94.9413L86.3775 138.052Z" fill="white"/>
</mask>
<g mask="url(#mask1_2357_549)">
<path d="M37.1719 114.02C55.348 108.97 67.5712 94.5021 67.6688 79.2536C67.4494 70.7252 64.0463 62.5874 58.1293 56.4417" stroke="#CE78B1" stroke-width="0.35" stroke-miterlimit="10"/>
<path d="M48.2773 122.315C66.4535 117.265 78.6767 102.797 78.7743 87.5485C78.5398 79.0161 75.1395 70.8761 69.2349 64.7124" stroke="#CE78B1" stroke-width="0.35" stroke-miterlimit="10"/>
</g>
</g>
<path d="M198.514 85.5966C201.954 85.011 214.983 94.2331 214.983 94.2331C215.276 94.3838 215.527 94.604 215.716 94.874C215.905 95.144 216.025 95.4558 216.066 95.7827C216.107 96.1096 216.067 96.4418 215.951 96.75C215.834 97.0582 215.644 97.3333 215.397 97.5514L211.835 100.772C211.835 100.772 193.537 86.4261 198.514 85.5966Z" fill="#CE78B1"/>
<path d="M216.538 101.333C226.882 104.748 234.177 117.874 232.274 117.972L224.833 118.362C224.833 118.362 212.049 99.8444 216.538 101.333Z" fill="#CE78B1"/>
<path d="M223.186 119.9C229.065 117.021 238.654 141.052 238.654 141.052C238.875 141.36 239.006 141.722 239.033 142.1C239.06 142.478 238.983 142.856 238.808 143.192C238.634 143.528 238.37 143.809 238.045 144.004C237.721 144.199 237.349 144.301 236.97 144.297H230.236C230.236 144.297 217.55 122.681 223.186 119.9Z" fill="#CE78B1"/>
<path d="M74.3539 134.953C69.8647 138.198 67.4982 152.251 67.4982 152.251C67.3752 152.556 67.3285 152.887 67.3622 153.215C67.3959 153.542 67.5089 153.857 67.6916 154.131C67.8742 154.405 68.121 154.63 68.4104 154.787C68.6998 154.944 69.0231 155.028 69.3524 155.032H74.2319C74.2319 155.032 78.5015 132.001 74.3539 134.953Z" fill="#954D9E"/>
<path d="M75.0141 159.912C72.5744 164.962 73.1599 175.136 74.2578 179.43C74.3262 179.674 74.453 179.898 74.6274 180.083C74.8019 180.267 75.0187 180.406 75.259 180.488C75.4993 180.57 75.7558 180.592 76.0065 180.552C76.2572 180.512 76.4944 180.411 76.6976 180.259L82.4798 175.38C82.4798 175.38 76.966 156.033 75.0141 159.912Z" fill="#954D9E"/>
<path d="M82.205 176.599C78.155 180.869 84.3033 202.729 84.3033 202.729C84.3305 203.107 84.4628 203.469 84.6852 203.774C84.9075 204.08 85.2112 204.318 85.5616 204.46C85.9121 204.602 86.2952 204.644 86.6679 204.579C87.0406 204.515 87.3879 204.347 87.6702 204.095L92.7448 199.631C92.7448 199.631 86.5478 171.988 82.205 176.599Z" fill="#954D9E"/>
<path d="M176.79 214.236C218.232 198.84 240.446 155.723 226.406 117.931C212.367 80.1396 167.39 61.9842 125.948 77.3799C84.5056 92.7756 62.2915 135.892 76.3311 173.684C90.3707 211.476 135.348 229.632 176.79 214.236Z" fill="url(#paint11_linear_2357_549)"/>
<path d="M197.584 84.6208C203.927 69.1528 208.977 44.0234 191.362 19.1623C190.454 17.8684 189.161 16.8936 187.667 16.3771C186.173 15.8605 184.554 15.8283 183.04 16.285C181.527 16.7418 180.196 17.6643 179.237 18.9211C178.278 20.1779 177.74 21.705 177.7 23.2853C177.504 33.9959 173.674 47.683 161.378 63.6634C159.153 66.5489 157.714 69.961 157.2 73.5678C156.685 77.1745 157.113 80.8527 158.442 84.245C159.771 87.6372 161.956 90.6277 164.783 92.9253C167.61 95.2229 170.984 96.7494 174.577 97.3563C179.288 98.1595 184.132 97.3364 188.313 95.0219C192.494 92.7075 195.763 89.0395 197.584 84.6208Z" fill="url(#paint12_linear_2357_549)"/>
<g opacity="0.5">
<mask id="mask2_2357_549" style="mask-type:luminance" maskUnits="userSpaceOnUse" x="135" y="15" width="69" height="85">
<path d="M191.458 99.5517C191.458 99.5517 219.833 57.4416 189.58 18.8203C188.61 17.56 187.263 16.6411 185.736 16.197C184.209 15.753 182.58 15.8066 181.085 16.3501C179.59 16.8937 178.307 17.8989 177.422 19.2202C176.537 20.5416 176.095 22.1106 176.161 23.6998C176.649 40.0705 168.988 63.8581 135.832 92.94L191.458 99.5517Z" fill="white"/>
</mask>
<g mask="url(#mask2_2357_549)">
<path d="M210.611 48.292C193.947 57.1239 175.088 54.9769 164.548 44.0224C158.866 37.6627 155.746 29.4215 155.79 20.8936" stroke="#CE78B1" stroke-width="0.35" stroke-miterlimit="10"/>
<path d="M208.244 61.9299C191.58 70.7862 172.721 68.6148 162.206 57.6603C156.507 51.3092 153.376 43.0644 153.422 34.5315" stroke="#CE78B1" stroke-width="0.35" stroke-miterlimit="10"/>
</g>
</g>
<path opacity="0.1" d="M165.791 116.337C157.813 112.873 145.711 110.091 127.95 112.922C127.47 113.014 126.974 112.946 126.537 112.728C126.1 112.51 125.747 112.154 125.533 111.715C125.319 111.275 125.256 110.778 125.353 110.299C125.451 109.821 125.703 109.387 126.072 109.067C134.05 100.089 149.81 93.1354 168.621 111.897C170.329 113.556 167.986 117.264 165.791 116.337Z" fill="url(#paint13_linear_2357_549)"/>
<path d="M165.332 114.507C153.122 109.426 139.492 108.906 126.931 113.043C126.461 113.123 125.978 113.064 125.542 112.872C125.106 112.681 124.735 112.366 124.475 111.967C124.216 111.567 124.079 111.101 124.082 110.624C124.085 110.148 124.227 109.683 124.491 109.286C132.493 100.308 149.23 92.2079 168.041 110.945C169.773 112.629 167.528 115.459 165.332 114.507Z" fill="url(#paint14_linear_2357_549)"/>
<path opacity="0.1" d="M91.2154 146.81C94.997 138.978 102.341 128.975 117.638 119.533C118.061 119.292 118.393 118.917 118.582 118.468C118.771 118.02 118.808 117.521 118.686 117.049C118.564 116.578 118.29 116.159 117.906 115.859C117.523 115.558 117.052 115.392 116.564 115.386C104.634 113.8 88.1659 118.801 86.1653 145.297C85.9945 147.688 90.1663 148.981 91.2154 146.81Z" fill="url(#paint15_linear_2357_549)"/>
<path d="M90.4041 145.151C96.3296 133.327 106.316 124.033 118.534 118.972C118.935 118.721 119.254 118.36 119.452 117.931C119.651 117.503 119.721 117.026 119.654 116.558C119.587 116.09 119.385 115.652 119.074 115.297C118.763 114.942 118.355 114.684 117.9 114.556C105.97 112.97 87.9644 117.728 85.9882 144.248C85.793 146.639 89.355 147.322 90.4041 145.151Z" fill="url(#paint16_linear_2357_549)"/>
<path d="M114.39 192.409C127.433 192.409 138.007 181.835 138.007 168.792C138.007 155.749 127.433 145.175 114.39 145.175C101.347 145.175 90.7734 155.749 90.7734 168.792C90.7734 181.835 101.347 192.409 114.39 192.409Z" fill="url(#paint17_linear_2357_549)"/>
<path d="M121.776 182.162C129.052 182.162 134.951 176.264 134.951 168.988C134.951 161.711 129.052 155.813 121.776 155.813C114.5 155.813 108.602 161.711 108.602 168.988C108.602 176.264 114.5 182.162 121.776 182.162Z" fill="#352944"/>
<path d="M122.344 176.99C127.989 176.99 132.566 172.413 132.566 166.767C132.566 161.122 127.989 156.545 122.344 156.545C116.698 156.545 112.121 161.122 112.121 166.767C112.121 172.413 116.698 176.99 122.344 176.99Z" fill="#433453"/>
<path d="M117.214 172.111C119.235 172.111 120.874 170.472 120.874 168.451C120.874 166.43 119.235 164.791 117.214 164.791C115.193 164.791 113.555 166.43 113.555 168.451C113.555 170.472 115.193 172.111 117.214 172.111Z" fill="white"/>
<path d="M165.379 170.476C178.422 170.476 188.995 159.902 188.995 146.859C188.995 133.816 178.422 123.242 165.379 123.242C152.335 123.242 141.762 133.816 141.762 146.859C141.762 159.902 152.335 170.476 165.379 170.476Z" fill="url(#paint18_linear_2357_549)"/>
<path d="M160.722 165.157C167.998 165.157 173.896 159.259 173.896 151.983C173.896 144.706 167.998 138.808 160.722 138.808C153.445 138.808 147.547 144.706 147.547 151.983C147.547 159.259 153.445 165.157 160.722 165.157Z" fill="#352944"/>
<path d="M161.746 160.156C167.392 160.156 171.969 155.579 171.969 149.934C171.969 144.288 167.392 139.711 161.746 139.711C156.1 139.711 151.523 144.288 151.523 149.934C151.523 155.579 156.1 160.156 161.746 160.156Z" fill="#433453"/>
<path d="M156.378 154.178C158.4 154.178 160.038 152.54 160.038 150.519C160.038 148.497 158.4 146.859 156.378 146.859C154.357 146.859 152.719 148.497 152.719 150.519C152.719 152.54 154.357 154.178 156.378 154.178Z" fill="white"/>
<path d="M137.37 190.53L167.989 176.526C168.211 176.407 168.457 176.338 168.709 176.325C168.96 176.312 169.212 176.355 169.445 176.45C169.678 176.546 169.887 176.692 170.058 176.878C170.228 177.064 170.355 177.285 170.429 177.526C171.868 181.674 173.869 192.311 159.743 198.752C145.617 205.193 138.883 196.752 136.687 192.946C136.567 192.744 136.49 192.519 136.46 192.287C136.43 192.054 136.447 191.817 136.511 191.591C136.575 191.365 136.684 191.155 136.832 190.973C136.979 190.79 137.163 190.64 137.37 190.53Z" fill="url(#paint19_linear_2357_549)"/>
<mask id="mask3_2357_549" style="mask-type:luminance" maskUnits="userSpaceOnUse" x="136" y="176" width="36" height="26">
<path d="M137.37 190.53L167.989 176.526C168.211 176.407 168.457 176.338 168.709 176.325C168.96 176.312 169.212 176.355 169.445 176.45C169.678 176.546 169.887 176.692 170.058 176.878C170.228 177.064 170.355 177.285 170.429 177.526C171.868 181.674 173.869 192.311 159.743 198.752C145.617 205.193 138.883 196.752 136.687 192.946C136.567 192.744 136.49 192.519 136.46 192.287C136.43 192.054 136.447 191.817 136.511 191.591C136.575 191.365 136.684 191.155 136.832 190.973C136.979 190.79 137.163 190.64 137.37 190.53Z" fill="white"/>
</mask>
<g mask="url(#mask3_2357_549)">
<path d="M147.868 200.973C147.868 200.973 147.551 191.043 156.847 192.629C156.847 192.629 160.409 184.553 169.412 192.141C169.509 192.141 161.58 207.975 147.868 200.973Z" fill="url(#paint20_linear_2357_549)"/>
</g>
<path d="M151.331 195.41L150.111 184.7L139.84 189.384L147.159 197.313C147.532 197.604 147.977 197.787 148.447 197.842C148.916 197.897 149.392 197.822 149.822 197.626C150.252 197.43 150.62 197.12 150.886 196.729C151.152 196.338 151.306 195.882 151.331 195.41Z" fill="url(#paint21_linear_2357_549)"/>
<path d="M166.721 188.359L165.525 177.648L155.254 182.332L162.573 190.262C162.926 190.609 163.376 190.842 163.864 190.928C164.352 191.013 164.854 190.949 165.304 190.742C165.754 190.536 166.131 190.197 166.384 189.771C166.637 189.345 166.755 188.853 166.721 188.359Z" fill="url(#paint22_linear_2357_549)"/>
<defs>
<linearGradient id="paint0_linear_2357_549" x1="234.337" y1="116.145" x2="232.004" y2="200.451" gradientUnits="userSpaceOnUse">
<stop stop-color="#A155A1"/>
<stop offset="0.52" stop-color="#B365A8"/>
<stop offset="1" stop-color="#C069AA"/>
</linearGradient>
<linearGradient id="paint1_linear_2357_549" x1="55.6849" y1="116.052" x2="41.1524" y2="94.1208" gradientUnits="userSpaceOnUse">
<stop stop-color="#A155A1"/>
<stop offset="0.52" stop-color="#B365A8"/>
<stop offset="1" stop-color="#C069AA"/>
</linearGradient>
<linearGradient id="paint2_linear_2357_549" x1="195.719" y1="23.8361" x2="174.805" y2="7.68888" gradientUnits="userSpaceOnUse">
<stop stop-color="#A155A1"/>
<stop offset="0.52" stop-color="#B365A8"/>
<stop offset="1" stop-color="#C069AA"/>
</linearGradient>
<linearGradient id="paint3_linear_2357_549" x1="107.396" y1="402.154" x2="355.793" y2="333.313" gradientUnits="userSpaceOnUse">
<stop stop-color="#F58443"/>
<stop offset="0.39" stop-color="#F9A046"/>
<stop offset="0.7" stop-color="#FAB23C"/>
<stop offset="1" stop-color="#FABD36"/>
</linearGradient>
<linearGradient id="paint4_linear_2357_549" x1="140.721" y1="371.416" x2="269.431" y2="186.023" gradientUnits="userSpaceOnUse">
<stop stop-color="#954D9E"/>
<stop offset="0.28" stop-color="#A155A1"/>
<stop offset="0.52" stop-color="#B365A8"/>
<stop offset="0.74" stop-color="#C069AA"/>
<stop offset="1" stop-color="#EB98A6"/>
</linearGradient>
<linearGradient id="paint5_linear_2357_549" x1="16.1042" y1="104.237" x2="299.567" y2="174.233" gradientUnits="userSpaceOnUse">
<stop offset="0.02" stop-color="#FCCCB9"/>
<stop offset="0.45" stop-color="#FEE3C8"/>
<stop offset="1" stop-color="#FFF0E2"/>
</linearGradient>
<linearGradient id="paint6_linear_2357_549" x1="22.8761" y1="144.851" x2="330.162" y2="220.694" gradientUnits="userSpaceOnUse">
<stop offset="0.02" stop-color="#FCCCB9"/>
<stop offset="0.45" stop-color="#FEE3C8"/>
<stop offset="1" stop-color="#FFF0E2"/>
</linearGradient>
<linearGradient id="paint7_linear_2357_549" x1="172.077" y1="436.306" x2="161.638" y2="398.641" gradientUnits="userSpaceOnUse">
<stop stop-color="#433453"/>
<stop offset="0.23" stop-color="#3F314E"/>
<stop offset="1" stop-color="#352943"/>
</linearGradient>
<linearGradient id="paint8_linear_2357_549" x1="314.788" y1="396.755" x2="304.35" y2="359.089" gradientUnits="userSpaceOnUse">
<stop stop-color="#433453"/>
<stop offset="0.23" stop-color="#3F314E"/>
<stop offset="1" stop-color="#352943"/>
</linearGradient>
<linearGradient id="paint9_linear_2357_549" x1="181.791" y1="433.615" x2="171.353" y2="395.949" gradientUnits="userSpaceOnUse">
<stop stop-color="#433453"/>
<stop offset="0.23" stop-color="#3F314E"/>
<stop offset="1" stop-color="#352943"/>
</linearGradient>
<linearGradient id="paint10_linear_2357_549" x1="50.2418" y1="119.339" x2="72.2833" y2="85.7676" gradientUnits="userSpaceOnUse">
<stop offset="0.02" stop-color="#FCCCB9"/>
<stop offset="0.45" stop-color="#FEE3C8"/>
<stop offset="1" stop-color="#FFF0E2"/>
</linearGradient>
<linearGradient id="paint11_linear_2357_549" x1="151.826" y1="214.296" x2="150.856" y2="66.3827" gradientUnits="userSpaceOnUse">
<stop stop-color="#A155A1"/>
<stop offset="0.2" stop-color="#A85BA4"/>
<stop offset="0.38" stop-color="#B365A8"/>
<stop offset="0.65" stop-color="#C069AA"/>
<stop offset="1" stop-color="#EB98A6"/>
</linearGradient>
<linearGradient id="paint12_linear_2357_549" x1="208.044" y1="76.2268" x2="167.49" y2="64.4598" gradientUnits="userSpaceOnUse">
<stop stop-color="#FFF0E2"/>
<stop offset="0.55" stop-color="#FEE3C8"/>
<stop offset="0.98" stop-color="#FCCCB9"/>
</linearGradient>
<linearGradient id="paint13_linear_2357_549" x1="176.525" y1="116.666" x2="133.073" y2="120.577" gradientUnits="userSpaceOnUse">
<stop stop-color="#441517"/>
<stop offset="0.58" stop-color="#5C2426"/>
<stop offset="1" stop-color="#672B2E"/>
</linearGradient>
<linearGradient id="paint14_linear_2357_549" x1="127.857" y1="108.07" x2="169.684" y2="107.773" gradientUnits="userSpaceOnUse">
<stop stop-color="#433453"/>
<stop offset="0.23" stop-color="#3F314E"/>
<stop offset="1" stop-color="#352943"/>
</linearGradient>
<linearGradient id="paint15_linear_2357_549" x1="98.0176" y1="144.907" x2="133.648" y2="119.705" gradientUnits="userSpaceOnUse">
<stop stop-color="#441517"/>
<stop offset="0.58" stop-color="#5C2426"/>
<stop offset="1" stop-color="#672B2E"/>
</linearGradient>
<linearGradient id="paint16_linear_2357_549" x1="128.776" y1="106.596" x2="96.9397" y2="133.726" gradientUnits="userSpaceOnUse">
<stop stop-color="#433453"/>
<stop offset="0.23" stop-color="#3F314E"/>
<stop offset="1" stop-color="#352943"/>
</linearGradient>
<linearGradient id="paint17_linear_2357_549" x1="95.8725" y1="183.513" x2="132.893" y2="154.139" gradientUnits="userSpaceOnUse">
<stop stop-color="#E5E6E6"/>
<stop offset="0.03" stop-color="#E6E7E7"/>
<stop offset="0.6" stop-color="#F8F9F9"/>
<stop offset="1" stop-color="white"/>
</linearGradient>
<linearGradient id="paint18_linear_2357_549" x1="144.293" y1="157.336" x2="186.601" y2="136.279" gradientUnits="userSpaceOnUse">
<stop stop-color="#E5E6E6"/>
<stop offset="0.03" stop-color="#E6E7E7"/>
<stop offset="0.6" stop-color="#F8F9F9"/>
<stop offset="1" stop-color="white"/>
</linearGradient>
<linearGradient id="paint19_linear_2357_549" x1="139.149" y1="198.719" x2="172.873" y2="183.293" gradientUnits="userSpaceOnUse">
<stop stop-color="#8F288C"/>
<stop offset="0.46" stop-color="#95257B"/>
<stop offset="1" stop-color="#9D2063"/>
</linearGradient>
<linearGradient id="paint20_linear_2357_549" x1="154.8" y1="202.536" x2="163.103" y2="185.673" gradientUnits="userSpaceOnUse">
<stop stop-color="#DF7D6C"/>
<stop offset="0.27" stop-color="#E28373"/>
<stop offset="0.66" stop-color="#E99285"/>
<stop offset="1" stop-color="#F2A59B"/>
</linearGradient>
<linearGradient id="paint21_linear_2357_549" x1="151.805" y1="189.671" x2="141.555" y2="194.359" gradientUnits="userSpaceOnUse">
<stop stop-color="white"/>
<stop offset="0.4" stop-color="#F8F9F9"/>
<stop offset="0.97" stop-color="#E6E7E7"/>
<stop offset="1" stop-color="#E5E6E6"/>
</linearGradient>
<linearGradient id="paint22_linear_2357_549" x1="167.197" y1="182.627" x2="156.947" y2="187.316" gradientUnits="userSpaceOnUse">
<stop stop-color="white"/>
<stop offset="0.4" stop-color="#F8F9F9"/>
<stop offset="0.97" stop-color="#E6E7E7"/>
<stop offset="1" stop-color="#E5E6E6"/>
</linearGradient>
</defs>
</svg>
