<svg width="167" height="101" viewBox="0 0 167 101" fill="none" xmlns="http://www.w3.org/2000/svg">
<g clip-path="url(#clip0_1991_6062)">
<path d="M2.1285 74.5138L55.4635 76.6219L56.6325 65.4487L4.04496 56.3836C2.7801 56.1728 1.61106 57.0544 1.47691 58.3384L0.0395655 72.0798C-0.113751 73.3447 0.844477 74.4754 2.1285 74.5138Z" fill="#766BB0"/>
<path d="M38.5039 68.2659C49.1786 89.405 76.2964 107.171 108.416 98.9301C140.536 90.6891 162.135 55.5212 156.462 36.0494C150.789 16.5777 117.462 15.4853 96.3426 33.0789C69.723 55.2912 38.5039 68.2659 38.5039 68.2659Z" fill="url(#paint0_linear_1991_6062)"/>
<path d="M152.282 28.6326L166.77 32.5614C167 32.6189 167.077 32.9064 166.905 33.0789L157.246 42.1823C148.775 36.4711 152.282 28.6326 152.282 28.6326Z" fill="#766BB0"/>
<path d="M136.855 39.0392C140.126 39.0392 142.777 36.3878 142.777 33.1172C142.777 29.8466 140.126 27.1952 136.855 27.1952C133.585 27.1952 130.934 29.8466 130.934 33.1172C130.934 36.3878 133.585 39.0392 136.855 39.0392Z" fill="#272328"/>
<path d="M138.791 35.2445C140.189 35.2445 141.321 34.1119 141.321 32.7147C141.321 31.3176 140.189 30.1849 138.791 30.1849C137.394 30.1849 136.262 31.3176 136.262 32.7147C136.262 34.1119 137.394 35.2445 138.791 35.2445Z" fill="white"/>
<path d="M59.6972 36.1453C49.8658 30.07 45.1513 19.28 49.0417 10.4833C53.4113 0.632397 66.8456 -2.79815 79.2643 2.43391C96.7423 9.79331 109.161 33.2705 112.591 40.3808C113.205 41.6457 113.032 43.1214 112.151 44.2138C107.187 50.3275 89.7089 70.3358 71.0043 73.4789C57.7233 75.702 45.4196 69.3009 43.4457 58.7026C41.6634 49.2351 48.7543 39.8058 59.6972 36.1453Z" fill="#766BB0"/>
</g>
<defs>
<linearGradient id="paint0_linear_1991_6062" x1="62.8263" y1="96.5544" x2="176.172" y2="1.44652" gradientUnits="userSpaceOnUse">
<stop offset="4.26223e-07" stop-color="#7C76B7"/>
<stop offset="1" stop-color="#9581BC"/>
</linearGradient>
<clipPath id="clip0_1991_6062">
<rect width="167" height="101" fill="white"/>
</clipPath>
</defs>
</svg>
