<svg width="189" height="117" viewBox="0 0 189 117" fill="none" xmlns="http://www.w3.org/2000/svg">
<path d="M187.094 66.4312L130.029 80.5372L126.285 68.7465L181.018 47.3001C182.332 46.791 183.793 47.4806 184.22 48.8272L188.835 63.3275C189.245 64.674 188.457 66.1027 187.094 66.4312Z" fill="url(#paint0_linear_1997_9035)"/>
<path d="M146.467 67.7777C139.635 92.9354 114.346 118.126 77.8575 116.369C41.3689 114.612 10.2994 81.4897 12.0893 59.2057C13.8793 36.9381 49.5797 28.366 76.2646 42.6691C109.912 60.6999 146.467 67.7777 146.467 67.7777Z" fill="url(#paint1_linear_1997_9035)"/>
<path d="M14.9462 50.2725L0.183192 57.7279C-0.0467088 57.8428 -0.0631122 58.1712 0.150367 58.3026L12.5815 65.988C20.4638 57.9414 14.9462 50.2725 14.9462 50.2725Z" fill="url(#paint2_linear_1997_9035)"/>
<path d="M32.5819 58.2043C36.1824 58.2043 39.1012 55.2853 39.1012 51.6848C39.1012 48.0843 36.1824 45.1655 32.5819 45.1655C28.9814 45.1655 26.0625 48.0843 26.0625 51.6848C26.0625 55.2853 28.9814 58.2043 32.5819 58.2043Z" fill="#272328"/>
<path d="M30.4011 54.4598C31.9428 54.4598 33.1927 53.21 33.1927 51.6682C33.1927 50.1265 31.9428 48.8765 30.4011 48.8765C28.8593 48.8765 27.6094 50.1265 27.6094 51.6682C27.6094 53.21 28.8593 54.4598 30.4011 54.4598Z" fill="white"/>
<path d="M116.467 37.8416C125.713 29.1218 128.422 16.4115 122.264 7.79017C115.367 -1.86568 100.112 -2.57172 87.8777 5.81967C70.6515 17.6267 62.4736 45.724 60.3552 54.1318C59.9775 55.6262 60.503 57.1861 61.6853 58.1714C68.4017 63.6726 91.6875 81.3587 112.559 80.6033C127.371 80.0614 139.211 70.4219 138.998 58.5491C138.834 47.9408 129.096 39.336 116.467 37.8416Z" fill="#F37065"/>
<defs>
<linearGradient id="paint0_linear_1997_9035" x1="94.8791" y1="89.1718" x2="236.21" y2="38.1176" gradientUnits="userSpaceOnUse">
<stop offset="0.0234" stop-color="#F8AB82"/>
<stop offset="0.2819" stop-color="#F38289"/>
<stop offset="0.9629" stop-color="#F9BA88"/>
</linearGradient>
<linearGradient id="paint1_linear_1997_9035" x1="198.784" y1="121.773" x2="-67.8203" y2="31.3361" gradientUnits="userSpaceOnUse">
<stop offset="0.0234" stop-color="#F8AB82"/>
<stop offset="0.2819" stop-color="#F38289"/>
<stop offset="0.9629" stop-color="#F9BA88"/>
</linearGradient>
<linearGradient id="paint2_linear_1997_9035" x1="39.5423" y1="60.0144" x2="-33.6115" y2="54.8036" gradientUnits="userSpaceOnUse">
<stop offset="0.0234" stop-color="#F8AB82"/>
<stop offset="0.2819" stop-color="#F38289"/>
<stop offset="0.9629" stop-color="#F9BA88"/>
</linearGradient>
</defs>
</svg>
