<svg width="229" height="128" viewBox="0 0 229 128" fill="none" xmlns="http://www.w3.org/2000/svg">
<path opacity="0.7" d="M40.4953 41.5248C47.1912 41.5248 53.4873 43.1579 59.0439 46.0058C58.784 44.1537 58.6442 42.2617 58.6442 40.3498C58.6442 18.0638 76.773 0 99.1393 0C121.506 0 139.635 18.0638 139.635 40.3498C139.635 40.6286 139.615 40.9272 139.615 41.206C149.049 31.2082 162.421 24.9548 177.292 24.9548C205.854 24.9548 229 48.0175 229 76.4774C229 104.937 205.854 128 177.292 128C161.181 128 146.79 120.651 137.296 109.139C129.181 117.245 117.968 122.244 105.575 122.244C92.2236 122.244 80.2509 116.429 72.0359 107.208C64.6204 116.389 53.2475 122.244 40.4953 122.244C18.1289 122.244 0 104.18 0 81.8945C0 59.5886 18.1289 41.5248 40.4953 41.5248Z" fill="white" fill-opacity="0.7"/>
</svg>
