<svg width="341" height="226" viewBox="0 0 341 226" fill="none" xmlns="http://www.w3.org/2000/svg">
<path opacity="0.7" d="M297.23 67.6424C287.861 67.4155 279.09 69.994 271.743 74.6354C265.903 35.1118 229.975 2.76691 184.657 0.167759C146.149 -2.03946 111.871 17.7223 96.5383 48.3138C43.6878 49.9022 0 88.2088 0 136.623C0 187.224 47.6088 225.757 103.555 222.828C130.217 221.426 153.784 210.823 170.583 194.96C182.304 214.804 205.231 227.366 231.007 225.881C266.914 223.818 295.042 195.166 295.042 161.81C295.042 159.582 294.918 157.396 294.671 155.23C295.517 155.25 296.363 155.271 297.209 155.25C321.663 154.714 341 135.158 341 111.539C341 87.9199 321.663 68.2612 297.23 67.6424Z" fill="white" fill-opacity="0.7"/>
</svg>
