<svg width="185" height="123" viewBox="0 0 185 123" fill="none" xmlns="http://www.w3.org/2000/svg">
<path opacity="0.7" d="M160.47 36.5403C155.41 36.4103 150.67 37.8103 146.71 40.3203C143.56 18.9703 124.16 1.50032 99.7 0.0903247C78.91 -1.09968 60.41 9.57032 52.12 26.0903C23.58 26.9503 0 47.6303 0 73.7803C0 101.11 25.71 121.92 55.91 120.34C70.3 119.58 83.02 113.85 92.1 105.28C98.43 116 110.81 122.78 124.72 121.98C144.1 120.87 159.3 105.39 159.3 87.3803C159.3 86.1803 159.23 84.9903 159.1 83.8303C159.55 83.8403 160.01 83.8503 160.47 83.8403C173.67 83.5503 184.12 72.9803 184.12 60.2303C184.11 47.4703 173.67 36.8703 160.47 36.5403Z" fill="white" fill-opacity="0.7"/>
</svg>
