<svg width="253" height="142" viewBox="0 0 253 142" fill="none" xmlns="http://www.w3.org/2000/svg">
<path opacity="0.7" d="M44.7393 46.0668C52.137 46.0668 59.0929 47.8785 65.2319 51.038C64.9448 48.9832 64.7903 46.8841 64.7903 44.763C64.7903 20.0395 84.8192 0 109.53 0C134.24 0 154.269 20.0395 154.269 44.763C154.269 45.0724 154.247 45.4036 154.247 45.7129C164.67 34.6216 179.443 27.6842 195.872 27.6842C227.428 27.6842 253 53.2696 253 84.8424C253 116.415 227.428 142 195.872 142C178.074 142 162.174 133.847 151.685 121.077C142.72 130.069 130.331 135.615 116.64 135.615C101.889 135.615 88.6615 129.163 79.5855 118.934C71.3929 129.119 58.828 135.615 44.7393 135.615C20.0289 135.615 0 115.575 0 90.852C0 66.1284 20.0289 46.0668 44.7393 46.0668Z" fill="white" fill-opacity="0.7"/>
</svg>
