<svg width="313" height="180" viewBox="0 0 313 180" fill="none" xmlns="http://www.w3.org/2000/svg">
<path opacity="0.7" d="M253.095 47.2083C239.728 47.2083 227.385 51.6066 217.42 59.0287C204.327 44.1845 185.273 34.7648 164.025 34.4716C158.466 14.5877 140.271 0 118.676 0C92.6548 0 71.5711 21.1301 71.5711 47.2083C71.5711 47.7581 71.5893 48.2895 71.6076 48.821C69.6327 48.6377 67.6213 48.5278 65.5916 48.5278C29.3672 48.5278 0 77.9597 0 114.264C0 150.568 29.3672 180 65.5916 180C84.1701 180 100.92 172.248 112.861 159.804C125.898 172.303 143.563 180 163.037 180C184.688 180 204.126 170.489 217.438 155.425C227.404 162.847 239.747 167.245 253.114 167.245C286.193 167.245 313 140.379 313 107.227C312.982 74.0928 286.175 47.2083 253.095 47.2083Z" fill="white" fill-opacity="0.7"/>
</svg>
