<svg width="378" height="250" viewBox="0 0 378 250" fill="none" xmlns="http://www.w3.org/2000/svg">
<path opacity="0.7" d="M329.446 74.8304C319.058 74.5641 309.327 77.4315 301.197 82.5731C294.73 38.8594 254.902 3.05283 204.685 0.185024C162.003 -2.25261 124.022 19.6042 107.003 53.4444C48.4099 55.206 0 97.568 0 151.135C0 207.118 52.7828 249.746 114.784 246.509C144.326 244.953 170.441 233.215 189.082 215.66C202.078 237.62 227.494 251.508 256.051 249.869C295.839 247.595 327.044 215.885 327.044 178.993C327.044 176.535 326.901 174.097 326.634 171.721C327.558 171.742 328.502 171.762 329.446 171.742C356.546 171.147 378 149.496 378 123.378C377.979 97.2197 356.546 75.5064 329.446 74.8304Z" fill="white" fill-opacity="0.7"/>
</svg>
