<svg width="250" height="166" viewBox="0 0 250 166" fill="none" xmlns="http://www.w3.org/2000/svg">
<path opacity="0.7" d="M217.888 49.7008C211.017 49.524 204.581 51.4282 199.204 54.8422C194.927 25.8027 168.586 2.04069 135.374 0.122856C107.145 -1.49574 82.0253 13.0172 70.7691 35.4871C32.0172 36.6568 0 64.785 0 100.353C0 137.527 34.9093 165.832 75.9152 163.682C95.4541 162.649 112.725 154.855 125.054 143.198C133.649 157.779 150.459 167.001 169.346 165.913C195.66 164.403 216.299 143.348 216.299 118.851C216.299 117.219 216.204 115.601 216.028 114.023C216.639 114.037 217.263 114.05 217.888 114.037C235.811 113.642 250 99.2651 250 81.9231C249.986 64.5674 235.811 50.1497 217.888 49.7008Z" fill="white" fill-opacity="0.7"/>
</svg>
