<svg width="331" height="186" viewBox="0 0 331 186" fill="none" xmlns="http://www.w3.org/2000/svg">
<path opacity="0.7" d="M58.5324 60.341C68.2108 60.341 77.3113 62.7141 85.3429 66.8526C84.9674 64.1611 84.7651 61.4116 84.7651 58.6333C84.7651 26.249 110.969 0 143.298 0C175.626 0 201.83 26.249 201.83 58.6333C201.83 59.0384 201.801 59.4723 201.801 59.8775C215.437 45.3494 234.765 36.2624 256.26 36.2624C297.545 36.2624 331 69.775 331 111.131C331 152.487 297.545 186 256.26 186C232.974 186 212.173 175.321 198.45 158.594C186.72 170.372 170.513 177.637 152.6 177.637C133.301 177.637 115.996 169.186 104.122 155.786C93.4034 169.128 76.9646 177.637 58.5324 177.637C26.2038 177.637 0 151.388 0 119.003C0 86.619 26.1749 60.341 58.5324 60.341Z" fill="white" fill-opacity="0.7"/>
</svg>
