<svg width="290" height="192" viewBox="0 0 290 192" fill="none" xmlns="http://www.w3.org/2000/svg">
<path opacity="0.7" d="M37.2501 57.4696C45.2199 57.2651 52.6857 59.4676 58.9229 63.4164C63.8844 29.8443 94.4406 2.34458 132.967 0.142099C165.712 -1.73001 194.851 15.056 207.908 41.0453C252.86 42.3983 290 74.9321 290 116.071C290 159.067 249.505 191.805 201.938 189.319C179.273 188.124 159.238 179.109 144.937 165.627C134.967 182.492 115.468 193.158 93.5585 191.9C63.0338 190.153 39.0929 165.8 39.0929 137.467C39.0929 135.579 39.2032 133.707 39.4079 131.882C38.6992 131.898 37.9746 131.913 37.2501 131.898C16.4593 131.441 0 114.813 0 94.7544C0.0157506 74.6646 16.4751 57.9888 37.2501 57.4696Z" fill="white" fill-opacity="0.7"/>
</svg>
