<svg width="224" height="2583" viewBox="0 0 224 2583" fill="none" xmlns="http://www.w3.org/2000/svg">
<path d="M90.4119 374.235L50.0221 336.081C49.4907 335.578 49.0914 334.953 48.8595 334.259C48.6275 333.566 48.57 332.826 48.6921 332.104C48.8141 331.383 49.1119 330.703 49.5593 330.123C50.0066 329.544 50.5896 329.084 51.2569 328.783C51.9306 328.469 52.6723 328.329 53.4137 328.377C54.1551 328.424 54.8725 328.657 55.5001 329.054L141.788 382.534L90.4119 374.235Z" fill="url(#paint0_linear_3509_548)"/>
<path d="M144.291 80.2006L182.105 64.5645C182.603 64.359 183.143 64.2793 183.679 64.3325C184.215 64.3858 184.73 64.5702 185.178 64.8697C185.626 65.1692 185.993 65.5744 186.247 66.0497C186.502 66.5249 186.635 67.0555 186.636 67.5946C186.644 68.1419 186.514 68.6823 186.259 69.1662C186.003 69.65 185.631 70.0619 185.175 70.3639L123.225 112.22L144.291 80.2006Z" fill="url(#paint1_linear_3509_548)"/>
<path d="M138.478 1296.21L201.989 1269.95C202.825 1269.6 203.733 1269.47 204.633 1269.56C205.533 1269.65 206.397 1269.96 207.15 1270.46C207.902 1270.96 208.519 1271.64 208.946 1272.44C209.374 1273.24 209.598 1274.13 209.6 1275.04C209.613 1275.96 209.395 1276.86 208.966 1277.68C208.537 1278.49 207.911 1279.18 207.145 1279.69L103.096 1349.99L138.478 1296.21Z" fill="url(#paint2_linear_3509_548)"/>
<path d="M202.753 1610.47C202.562 1610.1 202.299 1609.78 201.98 1609.52C201.66 1609.26 201.291 1609.06 200.894 1608.95C200.497 1608.84 200.081 1608.8 199.671 1608.86C199.262 1608.91 198.867 1609.04 198.512 1609.25L126.055 1654.07V1690L202.226 1613.88C202.652 1613.44 202.931 1612.87 203.025 1612.26C203.119 1611.65 203.024 1611.02 202.753 1610.47Z" fill="url(#paint3_linear_3509_548)"/>
<path d="M221.677 1628.48C222.429 1624.73 216.666 1620.41 208.805 1618.83C200.944 1617.26 193.961 1619.02 193.209 1622.78C192.457 1626.53 198.22 1630.85 206.082 1632.42C213.943 1634 220.925 1632.23 221.677 1628.48Z" fill="#4B8E42"/>
<path d="M162.077 1631.85C166.462 1631.85 170.002 1624.39 169.985 1615.2C169.967 1606.02 166.398 1598.58 162.014 1598.58C157.629 1598.59 154.089 1606.05 154.106 1615.23C154.124 1624.42 157.693 1631.86 162.077 1631.85Z" fill="#4B8E42"/>
<path d="M24.5975 657.47C24.5975 657.47 11.9961 650.854 5.84809 652.508C5.34629 652.641 4.8938 652.917 4.5453 653.302C4.19679 653.686 3.96721 654.164 3.8843 654.676C3.8014 655.189 3.86872 655.714 4.07814 656.189C4.28755 656.664 4.63009 657.069 5.06434 657.353C6.54819 658.274 8.16528 658.961 9.85855 659.389C9.85855 659.389 -0.472951 655.404 0.351534 659.928C1.10477 664.092 10.3777 664.341 10.3777 664.341C10.3777 664.341 4.15843 664.275 6.15348 666.886C8.14853 669.497 20.699 668.754 24.4143 667.12C28.1296 665.486 29.5851 660.687 24.5975 657.47Z" fill="url(#paint4_linear_3509_548)"/>
<path d="M42.0618 659.959C42.0618 659.959 55.8287 657.241 59.5439 652.182C59.8486 651.77 60.027 651.278 60.0577 650.766C60.0884 650.254 59.97 649.744 59.7169 649.298C59.4637 648.852 59.0867 648.489 58.6314 648.253C58.1762 648.017 57.6623 647.918 57.1519 647.968C55.4441 648.187 53.7794 648.664 52.2152 649.383C52.2152 649.383 62.623 646.06 59.1928 643.088C56.0373 640.36 48.7595 645.897 48.7595 645.897C48.7595 645.897 53.5791 642.1 50.4441 641.347C47.309 640.594 38.1073 648.9 36.2548 652.452C34.4022 656.005 36.2446 660.56 42.0618 659.959Z" fill="url(#paint5_linear_3509_548)"/>
<path d="M36.5808 673.63C42.0186 672.098 44.9552 665.633 43.1397 659.192C41.3242 652.75 35.4441 648.771 30.0063 650.303C24.5684 651.836 21.6319 658.3 23.4474 664.742C25.2629 671.184 31.1429 675.163 36.5808 673.63Z" fill="url(#paint6_linear_3509_548)"/>
<path d="M23.1082 658C23.0896 658.052 23.0825 658.108 23.0874 658.163C23.0924 658.219 23.1092 658.272 23.1367 658.321C23.1642 658.369 23.2018 658.411 23.247 658.443C23.2921 658.476 23.3437 658.498 23.3983 658.509L31.1088 659.196C31.1962 659.214 31.2872 659.2 31.3655 659.157C31.4438 659.114 31.5043 659.045 31.5363 658.962L31.7093 656.086L23.6731 655.862L23.1082 658ZM38.4731 651.892L40.056 653.608C40.0955 653.651 40.1246 653.703 40.1411 653.759C40.1576 653.815 40.1611 653.875 40.1513 653.933C40.1415 653.99 40.1187 654.045 40.0845 654.093C40.0504 654.141 40.0058 654.18 39.9542 654.208L33.8469 658.432C33.7637 658.482 33.6648 658.497 33.5703 658.477C33.4758 658.456 33.3928 658.4 33.3379 658.32L31.6686 656.071L38.4731 651.892Z" fill="url(#paint7_linear_3509_548)"/>
<path d="M35.597 674.357C35.5958 674.171 35.5613 673.986 35.4952 673.812C35.3393 673.435 35.0461 673.131 34.6747 672.961C34.3033 672.791 33.8812 672.768 33.4938 672.898C33.1063 673.027 32.7823 673.298 32.587 673.657C32.3917 674.015 32.3397 674.435 32.4416 674.83C32.4808 674.966 32.5372 675.096 32.6095 675.217L32.7724 675.334C32.8388 675.383 32.9154 675.416 32.9964 675.431C33.0775 675.445 33.1608 675.442 33.2402 675.42C33.3196 675.398 33.3929 675.358 33.4547 675.303C33.5165 675.249 33.5651 675.181 33.5969 675.105L33.6274 675.034C33.6326 675.022 33.6403 675.012 33.6499 675.004C33.6594 674.996 33.6706 674.99 33.6828 674.987C33.6949 674.983 33.7076 674.982 33.72 674.984C33.7324 674.986 33.7442 674.991 33.7546 674.998H33.7852C33.8511 675.049 33.9279 675.084 34.0096 675.101C34.0913 675.118 34.1757 675.115 34.2563 675.094C34.337 675.073 34.4117 675.034 34.4747 674.979C34.5377 674.924 34.5874 674.856 34.6198 674.779C34.6245 674.768 34.6316 674.758 34.6407 674.75C34.6498 674.742 34.6606 674.736 34.6723 674.732C34.6841 674.729 34.6964 674.728 34.7085 674.73C34.7205 674.732 34.732 674.737 34.742 674.744C34.8129 674.792 34.8943 674.823 34.9794 674.835C35.0646 674.846 35.1512 674.837 35.2324 674.809C35.3136 674.781 35.387 674.734 35.4468 674.672C35.5066 674.611 35.551 674.536 35.5767 674.454L35.597 674.357Z" fill="url(#paint8_linear_3509_548)"/>
<path d="M41.1204 672.8C41.1217 672.613 41.0871 672.428 41.0186 672.255C40.8628 671.878 40.5696 671.573 40.1981 671.403C39.8267 671.234 39.4047 671.211 39.0172 671.34C38.6298 671.469 38.3057 671.741 38.1105 672.099C37.9152 672.458 37.8632 672.877 37.965 673.273C38.0042 673.409 38.0606 673.538 38.133 673.66L38.2958 673.777C38.3622 673.826 38.4389 673.858 38.5199 673.873C38.6009 673.888 38.6843 673.884 38.7636 673.862C38.843 673.84 38.9163 673.801 38.9781 673.746C39.0399 673.692 39.0885 673.624 39.1203 673.548L39.1508 673.476C39.1561 673.465 39.1637 673.455 39.1733 673.447C39.1829 673.439 39.1941 673.433 39.2062 673.429C39.2183 673.426 39.231 673.425 39.2434 673.427C39.2558 673.429 39.2677 673.434 39.2781 673.441L39.3086 673.466C39.375 673.517 39.4522 673.552 39.5342 673.569C39.6163 673.586 39.701 673.583 39.782 673.562C39.863 673.541 39.9381 673.502 40.0016 673.447C40.0651 673.393 40.1153 673.324 40.1484 673.247C40.153 673.236 40.1602 673.226 40.1692 673.218C40.1783 673.21 40.1891 673.204 40.2009 673.2C40.2126 673.197 40.2249 673.196 40.237 673.198C40.249 673.2 40.2605 673.205 40.2705 673.212C40.3415 673.26 40.4228 673.291 40.508 673.303C40.5931 673.314 40.6798 673.305 40.7609 673.277C40.8421 673.249 40.9155 673.202 40.9753 673.14C41.0351 673.079 41.0796 673.004 41.1052 672.922L41.1204 672.8Z" fill="url(#paint9_linear_3509_548)"/>
<path d="M32.9791 655.889C43.3692 652.315 49.3745 642.39 46.3925 633.719C43.4104 625.049 32.5702 620.917 22.1801 624.491C11.79 628.064 5.78462 637.99 8.76668 646.66C11.7487 655.331 22.589 659.463 32.9791 655.889Z" fill="url(#paint10_linear_3509_548)"/>
<path d="M22.1842 623.733C22.1842 623.733 15.3542 625.356 10.957 630.904C10.957 630.904 7.17554 634.614 0.53895 633.397C0.458638 633.384 0.376237 633.392 0.300042 633.421C0.223847 633.45 0.156541 633.498 0.104933 633.561C0.0533251 633.624 0.0192451 633.699 0.00608962 633.779C-0.00706586 633.86 0.00117699 633.942 0.0300084 634.018C0.36082 634.873 1.25656 636.151 3.66386 636.365C3.69245 636.368 3.71959 636.379 3.74214 636.397C3.76468 636.415 3.7817 636.438 3.79128 636.466C3.80085 636.493 3.80259 636.522 3.79625 636.55C3.78991 636.578 3.77577 636.604 3.75546 636.624C3.38266 637.002 2.94473 637.308 2.46276 637.53C2.37672 637.568 2.30393 637.63 2.25389 637.71C2.20386 637.789 2.17888 637.882 2.18217 637.976C2.18546 638.069 2.2169 638.16 2.27238 638.236C2.32786 638.312 2.40483 638.369 2.4933 638.4C3.12221 638.615 3.78321 638.72 4.44761 638.711C4.47213 638.709 4.49665 638.714 4.51894 638.724C4.54122 638.735 4.56056 638.75 4.57522 638.77C4.58988 638.79 4.59938 638.813 4.60287 638.837C4.60636 638.861 4.60375 638.886 4.59523 638.909C4.46158 639.374 4.20065 639.792 3.84197 640.115C3.78006 640.162 3.73108 640.223 3.6997 640.294C3.66833 640.365 3.65559 640.443 3.66274 640.52C3.66988 640.597 3.69667 640.671 3.74052 640.734C3.78437 640.798 3.84383 640.85 3.91323 640.884C4.35491 641.123 4.86254 641.21 5.35864 641.133C5.38236 641.129 5.40682 641.13 5.42993 641.137C5.45304 641.144 5.47407 641.157 5.49116 641.174C5.50824 641.191 5.52087 641.212 5.52793 641.235C5.535 641.258 5.53627 641.283 5.53166 641.306C5.50743 641.487 5.44663 641.66 5.35299 641.816C5.25934 641.971 5.13481 642.106 4.98709 642.212C4.97691 642.216 4.96806 642.222 4.96177 642.231C4.95549 642.24 4.95208 642.25 4.95208 642.261C4.95208 642.271 4.95549 642.282 4.96177 642.29C4.96806 642.299 4.97691 642.306 4.98709 642.309C5.89301 642.528 7.4351 642.116 8.0102 641.373L8.70745 640.584C8.70745 640.584 17.9804 630.756 25.8486 634.843C25.8486 634.843 32.1493 624.577 45.9162 632.568C46.3141 632.704 46.7436 632.716 47.1487 632.603C47.5537 632.491 47.9153 632.258 48.186 631.937C48.1972 631.921 48.2036 631.903 48.2045 631.884C48.2053 631.865 48.2005 631.846 48.1908 631.83C48.181 631.814 48.1667 631.801 48.1495 631.793C48.1324 631.784 48.1132 631.781 48.0944 631.784C47.8831 631.772 47.6763 631.718 47.4859 631.625C47.2955 631.532 47.1253 631.403 46.9849 631.245C46.9713 631.233 46.9611 631.218 46.9555 631.201C46.95 631.184 46.9493 631.165 46.9535 631.148C46.9577 631.131 46.9667 631.115 46.9794 631.102C46.9922 631.09 47.0082 631.081 47.0257 631.077C47.5902 630.889 48.0711 630.509 48.3845 630.003C48.4228 629.932 48.4438 629.853 48.4458 629.773C48.4478 629.693 48.4307 629.613 48.3959 629.54C48.3612 629.468 48.3097 629.405 48.2458 629.356C48.1819 629.307 48.1073 629.274 48.0283 629.26C47.4791 629.133 46.9776 628.853 46.5829 628.451C46.5712 628.441 46.5617 628.429 46.5552 628.415C46.5488 628.402 46.5454 628.387 46.5454 628.372C46.5454 628.357 46.5488 628.342 46.5552 628.328C46.5617 628.314 46.5712 628.302 46.5829 628.293C47.278 627.927 47.8992 627.435 48.4151 626.842C48.466 626.765 48.4948 626.675 48.4986 626.583C48.5023 626.49 48.4808 626.399 48.4363 626.318C48.3918 626.236 48.326 626.169 48.2461 626.122C48.1661 626.076 48.075 626.052 47.9825 626.053C47.3391 626.11 46.691 626.04 46.0739 625.85C46.0553 625.844 46.0386 625.833 46.026 625.819C46.0133 625.804 46.0052 625.786 46.0025 625.766C45.9998 625.747 46.0027 625.727 46.0109 625.71C46.019 625.692 46.0321 625.677 46.0485 625.667C48.3692 624.14 48.5067 622.343 48.3489 621.346C48.3353 621.262 48.2999 621.184 48.2463 621.119C48.1927 621.054 48.1229 621.004 48.0438 620.975C47.9647 620.945 47.8793 620.937 47.7961 620.951C47.7129 620.966 47.635 621.002 47.5702 621.056C45.0025 623.31 41.6991 624.548 38.282 624.537C37.3324 624.521 36.3919 624.349 35.4981 624.028C31.1936 622.577 26.5488 622.474 22.1842 623.733Z" fill="url(#paint11_linear_3509_548)"/>
<path d="M27.7227 650.416C28.5576 650.637 29.4363 650.63 30.2677 650.397C31.099 650.163 31.8528 649.711 32.4507 649.088C31.7331 650.834 29.2647 651.404 27.7227 650.416Z" fill="#DB9B47"/>
<path d="M29.395 647.541C28.8453 651.241 27.3592 652.961 24.0104 653.979C19.0838 655.475 13.6381 651.943 11.8568 646.05C10.0755 640.156 12.661 634.344 17.5519 632.705C21.1145 631.519 24.3564 633.723 25.4659 634.598C25.512 634.635 25.5661 634.66 25.6238 634.672C25.6814 634.684 25.7411 634.681 25.7977 634.665C25.8544 634.65 25.9064 634.62 25.9496 634.58C25.9928 634.54 26.0259 634.491 26.0461 634.436C26.5212 633.038 27.327 631.776 28.3948 630.757C29.4625 629.738 30.7607 628.992 32.1789 628.583C37.1665 627.285 42.4595 631.051 44.0016 636.996C45.5437 642.94 42.7598 648.803 37.7721 650.101C34.3979 650.951 31.7921 650.386 29.395 647.541Z" fill="url(#paint12_linear_3509_548)"/>
<path d="M28.4594 647.032L30.0117 646.523C30.2441 646.448 30.4921 646.434 30.7312 646.484C30.9703 646.534 31.1923 646.646 31.3752 646.807C31.5582 646.969 31.6957 647.176 31.7744 647.407C31.853 647.639 31.8699 647.886 31.8235 648.126L31.0805 651.938C31.0662 652.011 31.0318 652.079 30.9812 652.134C30.9307 652.189 30.8659 652.228 30.7941 652.248C30.7222 652.268 30.6462 652.268 30.5746 652.248C30.5029 652.227 30.4385 652.187 30.3883 652.132L27.8436 649.302C27.6884 649.127 27.5791 648.917 27.5256 648.69C27.4722 648.463 27.4762 648.226 27.5373 648C27.5984 647.775 27.7147 647.568 27.8758 647.399C28.0368 647.23 28.2374 647.104 28.4594 647.032Z" fill="url(#paint13_linear_3509_548)"/>
<path d="M22.5464 648.264C25.1435 648.264 27.249 646.158 27.249 643.561C27.249 640.964 25.1435 638.858 22.5464 638.858C19.9492 638.858 17.8438 640.964 17.8438 643.561C17.8438 646.158 19.9492 648.264 22.5464 648.264Z" fill="white"/>
<path d="M23.2107 646.752C24.9084 646.752 26.2847 645.376 26.2847 643.678C26.2847 641.98 24.9084 640.604 23.2107 640.604C21.513 640.604 20.1367 641.98 20.1367 643.678C20.1367 645.376 21.513 646.752 23.2107 646.752Z" fill="url(#paint14_radial_3509_548)"/>
<path opacity="0.5" d="M21.7396 642.452C21.5518 642.616 21.4072 642.824 21.3184 643.058C21.2297 643.291 21.1996 643.543 21.2306 643.79" stroke="white" stroke-width="0.63" stroke-miterlimit="10" stroke-linecap="round"/>
<path d="M33.3432 645.24C35.9404 645.24 38.0458 643.135 38.0458 640.538C38.0458 637.941 35.9404 635.835 33.3432 635.835C30.7461 635.835 28.6406 637.941 28.6406 640.538C28.6406 643.135 30.7461 645.24 33.3432 645.24Z" fill="white"/>
<path d="M32.8748 644.004C34.5725 644.004 35.9488 642.627 35.9488 640.93C35.9488 639.232 34.5725 637.856 32.8748 637.856C31.1771 637.856 29.8008 639.232 29.8008 640.93C29.8008 642.627 31.1771 644.004 32.8748 644.004Z" fill="url(#paint15_radial_3509_548)"/>
<path opacity="0.5" d="M31.274 639.907C31.1088 640.093 30.9919 640.318 30.9334 640.56C30.8748 640.802 30.8764 641.055 30.9381 641.296" stroke="white" stroke-width="0.63" stroke-miterlimit="10" stroke-linecap="round"/>
<path d="M24.0327 636.599C23.2285 636.09 21.2437 636.197 18.9432 637.052C18.5666 637.194 18.0882 637.352 18.1595 637.82C18.3579 639.138 19.6863 638.467 19.9662 638.329C20.75 638.024 21.493 637.851 24.221 637.469C24.4958 637.459 24.2922 636.762 24.0327 636.599Z" fill="#823232"/>
<path d="M28.882 635.168C29.3248 634.329 31.0908 633.418 33.4625 633.016C33.8594 632.95 34.3531 632.843 34.5262 633.28C35.0351 634.522 33.5083 634.604 33.2334 634.655C32.3988 634.782 31.671 635.011 29.1212 636.049C28.9278 636.141 28.7395 635.443 28.882 635.168Z" fill="#823232"/>
<path d="M13.1634 627.071C13.1634 627.071 13.5248 628.7 9.83496 625.265C6.00773 621.702 14.848 617.325 20.2785 616.104C25.9073 614.862 33.8774 613.625 33.2259 618.648C32.99 619.552 32.6084 620.412 32.0961 621.193L31.5006 622.211C28.2743 621.745 24.9873 621.936 21.8364 622.771C18.6855 623.606 15.7356 625.069 13.1634 627.071Z" fill="url(#paint16_linear_3509_548)"/>
<path d="M10.9608 630.705C10.7115 630.98 10.9608 631.107 11.2866 630.944C15.0489 628.908 19.0492 627.345 23.1958 626.293C31.8834 624.099 34.8709 624.45 35.2322 624.007C35.5936 623.565 33.395 623.285 31.7053 623.056C31.7053 623.056 18.7527 619.778 13.6989 628.038C12.7137 628.85 11.7978 629.742 10.9608 630.705Z" fill="url(#paint17_linear_3509_548)"/>
<path d="M13.664 628.094C13.664 628.094 13.5521 628.374 12.7378 627.433C12.3103 626.924 14.1832 625.203 15.6133 624.379C21.7206 620.877 29.4514 620.445 31.8383 621.676C31.8383 621.676 32.4694 623.086 31.5075 623.076C30.5456 623.066 20.3566 621.463 13.664 628.094Z" fill="url(#paint18_linear_3509_548)"/>
<path d="M37.776 669.372C37.9807 668.744 37.9021 668.156 37.6004 668.057C37.2986 667.959 36.888 668.388 36.6833 669.015C36.4785 669.643 36.5571 670.231 36.8589 670.33C37.1606 670.428 37.5712 669.999 37.776 669.372Z" fill="#4C8D43"/>
<path d="M53.282 660.987C53.9425 660.987 54.478 660.73 54.478 660.412C54.478 660.094 53.9425 659.837 53.282 659.837C52.6214 659.837 52.0859 660.094 52.0859 660.412C52.0859 660.73 52.6214 660.987 53.282 660.987Z" fill="#4C8D43"/>
<path d="M116.078 731.104L55.4968 655.652C55.2167 655.304 54.8218 655.064 54.3819 654.977C53.9419 654.89 53.4851 654.96 53.0919 655.175C52.8622 655.301 52.6613 655.474 52.5021 655.682C52.3428 655.89 52.2287 656.129 52.1668 656.383C52.1049 656.637 52.0966 656.901 52.1425 657.159C52.1883 657.416 52.2873 657.661 52.4333 657.879L81.4602 701.254L61.9659 692.532C61.6973 692.412 61.4042 692.355 61.1099 692.367C60.8155 692.379 60.5279 692.458 60.2699 692.6C60.0119 692.741 59.7904 692.941 59.6231 693.182C59.4558 693.423 59.3471 693.7 59.3058 693.991L59.1883 694.834C59.139 695.188 59.1909 695.548 59.3381 695.874C59.4854 696.199 59.7219 696.477 60.0206 696.674L94.5466 719.434L119.106 762.128L116.078 731.104Z" fill="url(#paint19_linear_3509_548)"/>
<path d="M23.14 701.478C29.5879 701.478 34.8151 696.251 34.8151 689.803C34.8151 683.355 29.5879 678.128 23.14 678.128C16.692 678.128 11.4648 683.355 11.4648 689.803C11.4648 696.251 16.692 701.478 23.14 701.478Z" fill="#4C8D43"/>
<path d="M28.9603 688.419C35.4083 688.419 40.6354 683.192 40.6354 676.744C40.6354 670.296 35.4083 665.069 28.9603 665.069C22.5123 665.069 17.2852 670.296 17.2852 676.744C17.2852 683.192 22.5123 688.419 28.9603 688.419Z" fill="#4C8D43"/>
<path d="M44.4056 677.441C50.8536 677.441 56.0807 672.214 56.0807 665.766C56.0807 659.318 50.8536 654.091 44.4056 654.091C37.9576 654.091 32.7305 659.318 32.7305 665.766C32.7305 672.214 37.9576 677.441 44.4056 677.441Z" fill="#4C8D43"/>
<path d="M79.5345 676.108C85.9825 676.108 91.2096 670.881 91.2096 664.433C91.2096 657.985 85.9825 652.758 79.5345 652.758C73.0865 652.758 67.8594 657.985 67.8594 664.433C67.8594 670.881 73.0865 676.108 79.5345 676.108Z" fill="#4C8D43"/>
<path d="M92.4251 678.052C98.8731 678.052 104.1 672.825 104.1 666.377C104.1 659.929 98.8731 654.702 92.4251 654.702C85.9771 654.702 80.75 659.929 80.75 666.377C80.75 672.825 85.9771 678.052 92.4251 678.052Z" fill="#4C8D43"/>
<path d="M81.9525 683.62C88.4004 683.62 93.6276 678.393 93.6276 671.945C93.6276 665.497 88.4004 660.27 81.9525 660.27C75.5045 660.27 70.2773 665.497 70.2773 671.945C70.2773 678.393 75.5045 683.62 81.9525 683.62Z" fill="#4C8D43"/>
<path d="M70.6946 689.87C77.1426 689.87 82.3697 684.642 82.3697 678.194C82.3697 671.746 77.1426 666.519 70.6946 666.519C64.2467 666.519 59.0195 671.746 59.0195 678.194C59.0195 684.642 64.2467 689.87 70.6946 689.87Z" fill="#4C8D43"/>
<path d="M58.1385 698.583C64.9912 698.583 70.5465 693.027 70.5465 686.175C70.5465 679.322 64.9912 673.767 58.1385 673.767C51.2857 673.767 45.7305 679.322 45.7305 686.175C45.7305 693.027 51.2857 698.583 58.1385 698.583Z" fill="#4C8D43"/>
<path d="M39.3025 702.827C46.1553 702.827 51.7105 697.272 51.7105 690.419C51.7105 683.566 46.1553 678.011 39.3025 678.011C32.4498 678.011 26.8945 683.566 26.8945 690.419C26.8945 697.272 32.4498 702.827 39.3025 702.827Z" fill="#4C8D43"/>
<path d="M51.5429 693.804C60.8692 693.804 68.4296 686.243 68.4296 676.917C68.4296 667.591 60.8692 660.03 51.5429 660.03C42.2167 660.03 34.6562 667.591 34.6562 676.917C34.6562 686.243 42.2167 693.804 51.5429 693.804Z" fill="#4C8D43"/>
<path d="M60.8046 679.054C70.1309 679.054 77.6913 671.494 77.6913 662.168C77.6913 652.842 70.1309 645.281 60.8046 645.281C51.4784 645.281 43.918 652.842 43.918 662.168C43.918 671.494 51.4784 679.054 60.8046 679.054Z" fill="#4C8D43"/>
<path d="M180.641 986.309L186.029 958H192.516L197 994.658C197 998.461 195.451 1002.11 192.694 1004.8C189.936 1007.49 186.197 1009 182.297 1009H133V993.194H173.579C175.45 993.189 177.243 992.463 178.566 991.173C179.889 989.883 180.635 988.134 180.641 986.309Z" fill="url(#paint20_linear_3509_548)"/>
<path d="M185.341 629.305L191.486 596H198.885L204 639.127C204 643.602 202.233 647.893 199.088 651.058C195.943 654.222 191.677 656 187.23 656H131V637.404H177.286C179.42 637.399 181.465 636.544 182.974 635.027C184.483 633.509 185.334 631.452 185.341 629.305Z" fill="url(#paint21_linear_3509_548)"/>
<path d="M95.8176 1631.1L50.0119 1595.18C49.4088 1594.66 48.6861 1594.29 47.9079 1594.12C47.1297 1593.94 46.3202 1593.96 45.5513 1594.18C44.7824 1594.39 44.0778 1594.79 43.5003 1595.34C42.9228 1595.89 42.4901 1596.57 42.2408 1597.33C41.9896 1598.1 41.9338 1598.92 42.0787 1599.71C42.2235 1600.51 42.5643 1601.25 43.0702 1601.88L96 1679L95.8176 1631.1Z" fill="url(#paint22_linear_3509_548)"/>
<path d="M121.818 344.399L174.366 305.497C175.058 304.985 175.865 304.652 176.716 304.526C177.568 304.401 178.437 304.487 179.247 304.778C180.058 305.068 180.784 305.554 181.363 306.192C181.942 306.83 182.355 307.6 182.565 308.436C182.789 309.281 182.798 310.169 182.59 311.018C182.381 311.867 181.963 312.65 181.374 313.295L101.584 402.2L121.818 344.399Z" fill="url(#paint23_linear_3509_548)"/>
<path d="M33.4377 1927.54C33.6648 1927.2 33.9632 1926.9 34.3132 1926.68C34.6631 1926.45 35.0565 1926.31 35.4673 1926.25C35.878 1926.19 36.2967 1926.22 36.6955 1926.33C37.0943 1926.45 37.4641 1926.65 37.7802 1926.91L114.965 1992.74C115.399 1993.11 115.715 1993.6 115.877 1994.14C116.039 1994.69 116.038 1995.27 115.875 1995.82L111.734 2009.56C111.584 2010.05 111.306 2010.5 110.928 2010.85C110.55 2011.21 110.086 2011.45 109.582 2011.57C109.078 2011.68 108.552 2011.66 108.058 2011.51C107.564 2011.36 107.12 2011.08 106.77 2010.7L33.7264 1931.13C33.2862 1930.65 33.0188 1930.03 32.9665 1929.38C32.9142 1928.73 33.08 1928.09 33.4377 1927.54Z" fill="url(#paint24_linear_3509_548)"/>
<path d="M56.8092 1921.33C57.8971 1913.06 55.5814 1905.94 51.6368 1905.42C47.6922 1904.91 43.6125 1911.18 42.5246 1919.45C41.4366 1927.71 43.7524 1934.83 47.697 1935.35C51.6416 1935.87 55.7212 1929.59 56.8092 1921.33Z" fill="#8BC54F"/>
<path d="M29.1009 1950.16C37.4162 1949.59 43.9355 1945.91 43.6621 1941.94C43.3887 1937.97 36.4262 1935.22 28.1109 1935.79C19.7956 1936.36 13.2763 1940.04 13.5497 1944.01C13.8231 1947.98 20.7856 1950.74 29.1009 1950.16Z" fill="#8BC54F"/>
<path d="M88.3137 1945.09C89.5595 1935.63 86.9065 1927.47 82.3881 1926.88C77.8697 1926.28 73.1969 1933.47 71.9511 1942.94C70.7052 1952.4 73.3582 1960.55 77.8766 1961.15C82.395 1961.74 87.0679 1954.55 88.3137 1945.09Z" fill="#8BC54F"/>
<path d="M54.6446 1981.47C64.1666 1980.82 71.6319 1976.6 71.3187 1972.05C71.0056 1967.51 63.0326 1964.35 53.5106 1965.01C43.9886 1965.66 36.5234 1969.88 36.8365 1974.43C37.1497 1978.98 45.1226 1982.13 54.6446 1981.47Z" fill="#8BC54F"/>
<path d="M145 0H91V2583H145V0Z" fill="url(#paint25_linear_3509_548)"/>
<path d="M141.82 1926.53L185.924 1898.62C186.505 1898.26 187.167 1898.04 187.852 1897.99C188.537 1897.94 189.224 1898.06 189.852 1898.34C190.481 1898.61 191.031 1899.04 191.454 1899.58C191.878 1900.13 192.162 1900.76 192.281 1901.44C192.41 1902.13 192.365 1902.83 192.15 1903.5C191.935 1904.16 191.556 1904.76 191.049 1905.24L122.341 1971.37L141.82 1926.53Z" fill="url(#paint26_linear_3509_548)"/>
<defs>
<linearGradient id="paint0_linear_3509_548" x1="59.5447" y1="292" x2="159.763" y2="478.07" gradientUnits="userSpaceOnUse">
<stop stop-color="#AB6338"/>
<stop offset="0.28" stop-color="#A86036"/>
<stop offset="0.48" stop-color="#A05631"/>
<stop offset="0.67" stop-color="#914629"/>
<stop offset="0.85" stop-color="#7D2F1C"/>
<stop offset="1" stop-color="#65140E"/>
</linearGradient>
<linearGradient id="paint1_linear_3509_548" x1="208.853" y1="84.2529" x2="53.6123" y2="95.4943" gradientUnits="userSpaceOnUse">
<stop stop-color="#AB6338"/>
<stop offset="0.28" stop-color="#A86036"/>
<stop offset="0.48" stop-color="#A05631"/>
<stop offset="0.67" stop-color="#914629"/>
<stop offset="0.85" stop-color="#7D2F1C"/>
<stop offset="1" stop-color="#65140E"/>
</linearGradient>
<linearGradient id="paint2_linear_3509_548" x1="246.914" y1="1303.02" x2="-13.8229" y2="1321.9" gradientUnits="userSpaceOnUse">
<stop stop-color="#AB6338"/>
<stop offset="0.28" stop-color="#A86036"/>
<stop offset="0.48" stop-color="#A05631"/>
<stop offset="0.67" stop-color="#914629"/>
<stop offset="0.85" stop-color="#7D2F1C"/>
<stop offset="1" stop-color="#65140E"/>
</linearGradient>
<linearGradient id="paint3_linear_3509_548" x1="83.8789" y1="1667.78" x2="259.859" y2="1626.64" gradientUnits="userSpaceOnUse">
<stop stop-color="#65140E"/>
<stop offset="0.1" stop-color="#722316"/>
<stop offset="0.28" stop-color="#863A22"/>
<stop offset="0.48" stop-color="#954A2A"/>
<stop offset="0.71" stop-color="#9D542F"/>
<stop offset="1" stop-color="#A05731"/>
</linearGradient>
<linearGradient id="paint4_linear_3509_548" x1="3.90512" y1="657.81" x2="31.2329" y2="664.298" gradientUnits="userSpaceOnUse">
<stop stop-color="#923B35"/>
<stop offset="0.2" stop-color="#98413C"/>
<stop offset="0.47" stop-color="#A6524D"/>
<stop offset="0.64" stop-color="#A9564B"/>
<stop offset="0.82" stop-color="#B36245"/>
<stop offset="0.99" stop-color="#C3763C"/>
<stop offset="1" stop-color="#C4783B"/>
</linearGradient>
<linearGradient id="paint5_linear_3509_548" x1="61.2971" y1="653.439" x2="36.8109" y2="648.971" gradientUnits="userSpaceOnUse">
<stop stop-color="#923B35"/>
<stop offset="0.58" stop-color="#A6524D"/>
<stop offset="0.72" stop-color="#A9564B"/>
<stop offset="0.85" stop-color="#B36245"/>
<stop offset="0.99" stop-color="#C3763C"/>
<stop offset="1" stop-color="#C4783B"/>
</linearGradient>
<linearGradient id="paint6_linear_3509_548" x1="23.446" y1="664.737" x2="43.1334" y2="659.188" gradientUnits="userSpaceOnUse">
<stop stop-color="#CAB19C"/>
<stop offset="0.47" stop-color="#F7DFCF"/>
<stop offset="1" stop-color="#FAF0DC"/>
</linearGradient>
<linearGradient id="paint7_linear_3509_548" x1="24.3195" y1="662.906" x2="37.4176" y2="653.082" gradientUnits="userSpaceOnUse">
<stop stop-color="#0A4874"/>
<stop offset="0.54" stop-color="#283C8E"/>
<stop offset="0.74" stop-color="#254F9E"/>
<stop offset="1" stop-color="#2264AF"/>
</linearGradient>
<linearGradient id="paint8_linear_3509_548" x1="33.0232" y1="668.552" x2="34.803" y2="666.032" gradientUnits="userSpaceOnUse">
<stop stop-color="#F8982F"/>
<stop offset="0.23" stop-color="#F99F35"/>
<stop offset="0.57" stop-color="#FCB346"/>
<stop offset="0.72" stop-color="#FDBE4F"/>
<stop offset="1" stop-color="#FDBE4F"/>
</linearGradient>
<linearGradient id="paint9_linear_3509_548" x1="39.0138" y1="674.075" x2="40.2952" y2="671.361" gradientUnits="userSpaceOnUse">
<stop stop-color="#F8982F"/>
<stop offset="0.23" stop-color="#F99F35"/>
<stop offset="0.57" stop-color="#FCB346"/>
<stop offset="0.72" stop-color="#FDBE4F"/>
<stop offset="1" stop-color="#FDBE4F"/>
</linearGradient>
<linearGradient id="paint10_linear_3509_548" x1="8.76834" y1="646.665" x2="46.3989" y2="633.723" gradientUnits="userSpaceOnUse">
<stop stop-color="#CAB19C"/>
<stop offset="0.47" stop-color="#F7DFCF"/>
<stop offset="1" stop-color="#FAF0DC"/>
</linearGradient>
<linearGradient id="paint11_linear_3509_548" x1="0.764455" y1="636.485" x2="49.3276" y2="624.656" gradientUnits="userSpaceOnUse">
<stop stop-color="#B99F95"/>
<stop offset="0.47" stop-color="#F3D3B9"/>
<stop offset="0.49" stop-color="#F3D4BA"/>
<stop offset="1" stop-color="#F7DFCF"/>
</linearGradient>
<linearGradient id="paint12_linear_3509_548" x1="41.7682" y1="643.292" x2="9.6976" y2="652.98" gradientUnits="userSpaceOnUse">
<stop stop-color="#C4783B"/>
<stop offset="0.23" stop-color="#B56544"/>
<stop offset="0.44" stop-color="#A6524D"/>
<stop offset="0.67" stop-color="#A34F49"/>
<stop offset="0.88" stop-color="#9A443E"/>
<stop offset="1" stop-color="#923B35"/>
</linearGradient>
<linearGradient id="paint13_linear_3509_548" x1="28.8664" y1="645.218" x2="32.0636" y2="642.162" gradientUnits="userSpaceOnUse">
<stop stop-color="#F8982F"/>
<stop offset="0.21" stop-color="#F99E34"/>
<stop offset="0.49" stop-color="#FBAE42"/>
<stop offset="0.69" stop-color="#FDBE4F"/>
<stop offset="1" stop-color="#FDBE4F"/>
</linearGradient>
<radialGradient id="paint14_radial_3509_548" cx="0" cy="0" r="1" gradientUnits="userSpaceOnUse" gradientTransform="translate(21.3631 643.142) rotate(-18.9799) scale(3.07401 3.074)">
<stop stop-color="#321C26"/>
<stop offset="0.15" stop-color="#2C1A25"/>
<stop offset="0.6" stop-color="#1F1723"/>
<stop offset="1" stop-color="#1A1622"/>
</radialGradient>
<radialGradient id="paint15_radial_3509_548" cx="0" cy="0" r="1" gradientUnits="userSpaceOnUse" gradientTransform="translate(31.1085 640.641) rotate(-25.8301) scale(3.07401 3.07402)">
<stop stop-color="#321C26"/>
<stop offset="0.15" stop-color="#2C1A25"/>
<stop offset="0.6" stop-color="#1F1723"/>
<stop offset="1" stop-color="#1A1622"/>
</radialGradient>
<linearGradient id="paint16_linear_3509_548" x1="11.1094" y1="627.659" x2="31.4082" y2="614.567" gradientUnits="userSpaceOnUse">
<stop stop-color="#0A4874"/>
<stop offset="0.54" stop-color="#283C8E"/>
<stop offset="0.74" stop-color="#254F9E"/>
<stop offset="1" stop-color="#2264AF"/>
</linearGradient>
<linearGradient id="paint17_linear_3509_548" x1="12.1998" y1="633.215" x2="32.6568" y2="620.021" gradientUnits="userSpaceOnUse">
<stop stop-color="#0A4874"/>
<stop offset="0.54" stop-color="#283C8E"/>
<stop offset="0.74" stop-color="#254F9E"/>
<stop offset="1" stop-color="#2264AF"/>
</linearGradient>
<linearGradient id="paint18_linear_3509_548" x1="14.1162" y1="629.781" x2="30.2277" y2="619.39" gradientUnits="userSpaceOnUse">
<stop stop-color="#1A1622"/>
<stop offset="0.4" stop-color="#1F1723"/>
<stop offset="0.85" stop-color="#2C1A25"/>
<stop offset="1" stop-color="#321C26"/>
</linearGradient>
<linearGradient id="paint19_linear_3509_548" x1="146.357" y1="767.099" x2="28.5366" y2="649.903" gradientUnits="userSpaceOnUse">
<stop stop-color="#65140E"/>
<stop offset="0.14" stop-color="#7D2F1C"/>
<stop offset="0.3" stop-color="#914629"/>
<stop offset="0.47" stop-color="#A05631"/>
<stop offset="0.65" stop-color="#A86036"/>
<stop offset="0.9" stop-color="#AB6338"/>
</linearGradient>
<linearGradient id="paint20_linear_3509_548" x1="217.675" y1="966.673" x2="111.437" y2="1026.08" gradientUnits="userSpaceOnUse">
<stop stop-color="#AB6338"/>
<stop offset="0.28" stop-color="#A86036"/>
<stop offset="0.48" stop-color="#A05631"/>
<stop offset="0.67" stop-color="#914629"/>
<stop offset="0.85" stop-color="#7D2F1C"/>
<stop offset="1" stop-color="#65140E"/>
</linearGradient>
<linearGradient id="paint21_linear_3509_548" x1="227.582" y1="606.203" x2="104.648" y2="672.85" gradientUnits="userSpaceOnUse">
<stop stop-color="#AB6338"/>
<stop offset="0.28" stop-color="#A86036"/>
<stop offset="0.48" stop-color="#A05631"/>
<stop offset="0.67" stop-color="#914629"/>
<stop offset="0.85" stop-color="#7D2F1C"/>
<stop offset="1" stop-color="#65140E"/>
</linearGradient>
<linearGradient id="paint22_linear_3509_548" x1="22.2698" y1="1603.17" x2="149.916" y2="1688.34" gradientUnits="userSpaceOnUse">
<stop stop-color="#AB6338"/>
<stop offset="0.25" stop-color="#A86036"/>
<stop offset="0.44" stop-color="#A05631"/>
<stop offset="0.61" stop-color="#914629"/>
<stop offset="0.77" stop-color="#7D2F1C"/>
<stop offset="0.91" stop-color="#65140E"/>
</linearGradient>
<linearGradient id="paint23_linear_3509_548" x1="223.462" y1="325.639" x2="-12.8038" y2="403.275" gradientUnits="userSpaceOnUse">
<stop stop-color="#AB6338"/>
<stop offset="0.28" stop-color="#A86036"/>
<stop offset="0.48" stop-color="#A05631"/>
<stop offset="0.67" stop-color="#914629"/>
<stop offset="0.85" stop-color="#7D2F1C"/>
<stop offset="1" stop-color="#65140E"/>
</linearGradient>
<linearGradient id="paint24_linear_3509_548" x1="158.66" y1="2006.55" x2="-28.3288" y2="1936.3" gradientUnits="userSpaceOnUse">
<stop stop-color="#AB6338"/>
<stop offset="0.28" stop-color="#A86036"/>
<stop offset="0.48" stop-color="#A05631"/>
<stop offset="0.67" stop-color="#914629"/>
<stop offset="0.85" stop-color="#7D2F1C"/>
<stop offset="1" stop-color="#65140E"/>
</linearGradient>
<linearGradient id="paint25_linear_3509_548" x1="118" y1="3574.77" x2="118" y2="7.05453" gradientUnits="userSpaceOnUse">
<stop stop-color="#65140E"/>
<stop offset="0.15" stop-color="#7D2F1C"/>
<stop offset="0.33" stop-color="#914629"/>
<stop offset="0.52" stop-color="#A05631"/>
<stop offset="0.72" stop-color="#A86036"/>
<stop offset="1" stop-color="#AB6338"/>
</linearGradient>
<linearGradient id="paint26_linear_3509_548" x1="223.839" y1="1917.52" x2="31.2065" y2="1965.56" gradientUnits="userSpaceOnUse">
<stop stop-color="#AB6338"/>
<stop offset="0.28" stop-color="#A86036"/>
<stop offset="0.48" stop-color="#A05631"/>
<stop offset="0.67" stop-color="#914629"/>
<stop offset="0.85" stop-color="#7D2F1C"/>
<stop offset="1" stop-color="#65140E"/>
</linearGradient>
</defs>
</svg>
