<svg viewBox="0 0 1425 607" fill="none" xmlns="http://www.w3.org/2000/svg">
<path d="M58.1292 32.6244C42.7123 53.7551 34.5987 79.3281 35.0153 105.476C35.4319 131.625 44.356 156.927 60.4383 177.556C76.5206 198.186 98.8864 213.021 124.154 219.819C149.421 226.616 176.217 225.007 200.488 215.234C200.315 217.947 200.176 220.695 200.176 223.46C200.173 244.478 205.678 265.131 216.145 283.362C226.611 301.593 241.673 316.766 259.831 327.371C244.488 340.09 231.868 355.77 222.726 373.474C213.584 391.178 208.107 410.542 206.623 430.41C205.139 450.277 207.678 470.239 214.089 489.104C220.5 507.968 230.651 525.347 243.935 540.201C257.219 555.056 273.363 567.081 291.402 575.558C309.442 584.036 329.007 588.791 348.927 589.54C368.847 590.288 388.714 587.016 407.34 579.917C425.966 572.818 442.968 562.039 457.331 548.223C469.404 564.748 485.111 578.283 503.243 587.785C521.375 597.287 541.447 602.502 561.913 603.03C582.379 603.557 602.694 599.383 621.291 590.828C639.889 582.272 656.273 569.565 669.183 553.684C685.482 555.625 701.976 555.195 718.151 552.405C728.034 569.052 742.083 582.839 758.916 592.412C775.748 601.985 794.785 607.012 814.152 607C833.519 606.988 852.549 601.936 869.37 592.342C886.19 582.749 900.222 568.943 910.084 552.284C928.583 565.273 949.786 573.903 972.101 577.527C994.415 581.151 1017.26 579.675 1038.92 573.209C1060.59 566.743 1080.5 555.455 1097.17 540.194C1113.84 524.933 1126.84 506.096 1135.18 485.096C1138.05 485.286 1140.92 485.424 1143.83 485.424C1168.05 485.424 1191.78 478.541 1212.25 465.579C1232.71 452.617 1249.07 434.109 1259.41 412.212C1269.75 390.315 1273.66 365.931 1270.66 341.902C1267.67 317.874 1257.9 295.19 1242.51 276.495C1268.38 271.541 1292.51 259.9 1312.49 242.731C1332.47 225.562 1347.6 203.464 1356.38 178.636C1365.16 153.807 1367.28 127.114 1362.53 101.213C1357.78 75.311 1346.33 51.1039 1329.31 31L58.1292 32.6244Z" fill="white"/>
<path d="M169.66 438.32C228.015 438.32 275.32 391.015 275.32 332.66C275.32 274.306 228.015 227 169.66 227C111.306 227 64 274.306 64 332.66C64 391.015 111.306 438.32 169.66 438.32Z" fill="white"/>
<path d="M135.5 271C210.335 271 271 210.335 271 135.5C271 60.6654 210.335 0 135.5 0C60.6654 0 0 60.6654 0 135.5C0 210.335 60.6654 271 135.5 271Z" fill="white"/>
<path d="M1284.5 305C1366.51 305 1433 238.514 1433 156.5C1433 74.4857 1366.51 8 1284.5 8C1202.49 8 1136 74.4857 1136 156.5C1136 238.514 1202.49 305 1284.5 305Z" fill="white"/>
</svg>
