<svg width="174" height="105" viewBox="0 0 174 105" fill="none" xmlns="http://www.w3.org/2000/svg">
<g clip-path="url(#clip0_1996_6304)">
<path d="M2.48458 85.5712L59.5281 82.5247L59.6629 70.5685L2.71568 66.1615C1.34833 66.0466 0.173563 67.1196 0.173563 68.48L0.000237328 83.1953C-0.0190211 84.5557 1.13649 85.6478 2.48458 85.5712Z" fill="url(#paint0_linear_1996_6304)"/>
<path d="M40.6172 75.3585C54.0981 96.7034 84.7383 112.856 118.152 100.938C151.565 89.02 171.055 49.6259 163.082 29.5456C155.109 9.46528 119.5 11.6113 98.7392 32.343C72.5862 58.5164 40.6172 75.3585 40.6172 75.3585Z" fill="url(#paint1_linear_1996_6304)"/>
<path d="M157.901 22.092L173.731 24.832C173.982 24.8703 174.078 25.1769 173.924 25.3685L164.545 35.9643C154.935 30.7526 157.901 22.092 157.901 22.092Z" fill="url(#paint2_linear_1996_6304)"/>
<path d="M141.914 34.6807C145.413 34.6807 148.25 31.8583 148.25 28.3768C148.25 24.8953 145.413 22.073 141.914 22.073C138.415 22.073 135.578 24.8953 135.578 28.3768C135.578 31.8583 138.415 34.6807 141.914 34.6807Z" fill="#272328"/>
<path d="M143.938 30.4653C145.438 30.4653 146.654 29.2557 146.654 27.7637C146.654 26.2716 145.438 25.062 143.938 25.062C142.438 25.062 141.223 26.2716 141.223 27.7637C141.223 29.2557 142.438 30.4653 143.938 30.4653Z" fill="white"/>
<path d="M60.0298 39.2217C48.9562 33.7609 42.8513 22.7819 46.1252 13.0675C49.8036 2.18424 63.7852 -2.75919 77.5165 1.55194C96.8712 7.60669 112.432 31.27 116.784 38.4744C117.555 39.739 117.516 41.3485 116.688 42.5748C112.008 49.5492 95.3691 72.4844 75.764 77.6578C61.8401 81.3366 48.1089 75.7609 44.9312 64.7244C42.1002 54.8567 48.7059 44.1651 60.0298 39.2217Z" fill="url(#paint3_linear_1996_6304)"/>
</g>
<defs>
<linearGradient id="paint0_linear_1996_6304" x1="94.4789" y1="80.3736" x2="-51.3424" y2="72.9308" gradientUnits="userSpaceOnUse">
<stop offset="0.3061" stop-color="#FBBC77"/>
<stop offset="0.5213" stop-color="#FCC176"/>
<stop offset="0.7441" stop-color="#FFCD72"/>
<stop offset="1" stop-color="#FFD978"/>
</linearGradient>
<linearGradient id="paint1_linear_1996_6304" x1="69.0897" y1="102.768" x2="179.835" y2="-9.80876" gradientUnits="userSpaceOnUse">
<stop stop-color="#FBBC77"/>
<stop offset="0.5513" stop-color="#FFCD72"/>
<stop offset="1" stop-color="#FFD978"/>
</linearGradient>
<linearGradient id="paint2_linear_1996_6304" x1="181.244" y1="22.337" x2="137.441" y2="36.6379" gradientUnits="userSpaceOnUse">
<stop offset="0.3061" stop-color="#FBBC77"/>
<stop offset="0.5213" stop-color="#FCC176"/>
<stop offset="0.7441" stop-color="#FFCD72"/>
<stop offset="1" stop-color="#FFD978"/>
</linearGradient>
<linearGradient id="paint3_linear_1996_6304" x1="117.958" y1="-2.3814" x2="15.4771" y2="87.93" gradientUnits="userSpaceOnUse">
<stop offset="4.57979e-07" stop-color="#FFD978"/>
<stop offset="0.4487" stop-color="#FFCD72"/>
</linearGradient>
<clipPath id="clip0_1996_6304">
<rect width="174" height="105" fill="white"/>
</clipPath>
</defs>
</svg>
